<?xml version="1.0" encoding="UTF-8" standalone="no"?>
<!-- Created with Inkscape (http://www.inkscape.org/) -->

<svg
   version="1.1"
   id="svg9"
   width="192"
   height="288"
   viewBox="0 0 192 288"
   xmlns="http://www.w3.org/2000/svg"
   xmlns:svg="http://www.w3.org/2000/svg">
  <defs
     id="defs13" />
  <g
     id="g15"
     style="display:inline">
    <g
       id="g69"
       transform="translate(4.0302692,3.809956)">
      <path
         style="display:inline;fill:#e7d456;stroke-width:0.32"
         d="m 53.277857,173.92721 c -0.07587,-0.26301 -0.07262,-1.04412 0.04664,-1.23709 0.145825,-0.23595 0.910007,0.0143 1.349394,0.3673 0.384528,0.30889 0.524422,0.98875 0.524422,1.29089 0,0.58615 -1.501878,1.03007 -1.677245,0.42209 z m 85.259923,-8.39248 c -0.0225,-0.27044 0.52967,-0.71309 0.74481,-1.14391 0.24109,-0.48276 0.89764,-0.54598 1.30358,-0.26325 0.30519,0.21257 0.25054,0.86219 0.25054,1.37317 0,0.12243 -0.69884,0.99739 -1.16348,0.98744 -0.35389,-0.008 -1.09466,-0.46389 -1.10303,-0.56429 z m -39.830442,-2.08162 c -0.999897,-1.10487 -0.388047,-3.0988 1.044582,-3.13311 1.35412,-0.0324 1.87893,1.63349 1.75498,2.54849 -0.10624,0.78422 -2.209238,1.23692 -2.799562,0.58462 z M 97.8242,154.35029 c 0.481573,0 0.17981,-1.66193 0.294674,-2.08073 0.307456,-1.12098 2.388156,-0.91783 2.847446,0.27907 0.30744,0.80116 -0.0677,2.95178 -1.836416,2.53022 -0.210676,-0.057 -1.119082,-0.61542 -1.305704,-0.72856 z m 0.691448,-10.98666 c -0.956493,-0.88826 -0.882021,-2.56406 0.316273,-2.65396 0.696096,-0.0522 1.411779,0.27354 1.819159,1.06132 0.48272,0.93349 0.67324,1.41416 0.13177,1.81009 -1.336308,0.66321 -1.297341,0.66484 -2.267202,-0.21745 z m -1.950787,-12.23475 c -0.04264,-0.20659 0.288048,-0.89229 0.490208,-1.50485 0.448061,-1.35763 2.522481,-1.86351 2.961771,-0.16028 0.18351,0.7115 0.35324,1.18281 -0.144613,1.76427 -0.610404,0.7129 -3.091566,0.94633 -3.307366,-0.0991 z"
         id="buttons" />
      <path
         style="display:inline;fill:#bd8347;stroke-width:0.32"
         d="m 58.246961,193.81904 c -0.285392,-0.11963 -1.770178,-1.21909 -2.907166,-2.27509 -2.76457,-2.56765 -3.526608,-5.00902 -3.36032,-8.6707 0.08357,-1.84028 0.62095,-3.01128 0.961091,-3.22633 1.176649,-0.74391 3.064161,0.21839 5.166017,2.10219 1.624003,1.45552 2.439687,1.52953 4.098349,0.72369 0.74192,-0.36045 2.439145,-1.54651 2.622563,-1.43058 0.18342,0.11592 0.04882,3.25619 0.177308,5.24079 0.220612,3.40736 0.190899,3.89298 -0.477244,4.8693 -1.70425,2.49032 -4.394013,3.45754 -6.280598,2.66673 z m 73.443839,-6.9211 c -0.3266,-0.37564 -0.79319,-0.89725 -1.19538,-1.17895 -0.66372,-0.46489 -0.66199,-0.95368 -0.6187,-3.22098 0.0262,-1.3739 -0.50031,-3.98473 -0.83378,-5.80183 -0.69193,-3.77032 -0.90571,-4.50951 1.31757,-3.73531 0.77504,0.26989 2.86428,1.11191 3.97013,1.11447 2.41136,0.006 4.2784,-1.17601 5.83017,-2.94338 0.75728,-0.8625 1.7321,-1.75001 2.20616,-1.59955 0.35062,0.11128 0.92829,1.25594 0.82735,1.41927 -0.10094,0.16333 -0.0538,0.26453 0.10469,0.26453 0.26958,0 0.66236,1.70287 1.56173,5.29497 0.50078,2.00014 0.16318,4.58811 -0.676,5.76663 -0.40176,0.56422 -0.3631,1.12373 -0.48568,1.51181 -0.18437,0.58368 -0.53141,0.49153 -1.08107,1.08703 -0.4084,0.44246 -1.39627,0.84012 -2.02593,1.26742 -0.62966,0.4273 -1.53702,0.69584 -1.77854,0.69584 -0.24151,0 -0.58558,0.14754 -0.64569,0.32787 -0.0601,0.18033 -1.3625,0.46151 -2.90706,0.44346 -5.13044,-0.0599 -3.01409,-0.074 -3.56997,-0.7133 z"
         id="skin" />
      <path
         style="display:inline;fill:#0a8493;stroke-width:0.32"
         d="m 60.151623,182.67244 c -0.352,-0.0655 -1.380179,-0.59098 -1.556179,-0.80346 -0.670522,-0.80952 -5.462968,-3.34115 -6.016101,-3.19483 -0.154029,0.0407 -0.889958,-0.30637 -1.186988,-0.57518 -0.448154,-0.40557 0.151921,-1.35478 0.239655,-3.77519 0.05815,-1.60423 0.328941,-3.49809 0.512576,-4.22839 0.183635,-0.7303 0.516092,-1.51139 0.530716,-1.77539 0.01462,-0.264 0.31313,-0.88931 0.663341,-1.38956 0.48696,-0.6956 0.99265,-1.27872 1.200861,-0.9502 0.149741,0.23625 0.258251,0.73143 0.260946,0.57523 0.0026,-0.1562 0.24806,0.0579 0.733516,0.65407 2.066604,2.53804 4.451474,4.92441 5.500895,5.12128 1.388083,0.26041 4.616487,-1.25907 3.904858,-1.21152 -0.04916,0.003 0.214999,0.0163 -0.675187,0.0163 -0.628902,0 -1.17589,0.31266 -1.17589,0.4768 0,0.56605 -1.471114,0.22645 -2.566163,-0.23111 -0.60392,-0.25234 -1.969129,-1.23615 -2.64736,-2.04753 -0.678233,-0.81139 -1.223297,-1.54338 -1.548145,-1.64649 -0.932208,-0.29587 -1.519821,-1.98558 -0.919952,-2.90109 0.27599,-0.42122 0.460757,-0.85422 0.351144,-1.03158 -0.109616,-0.17736 0.178919,-1.58444 0.007,-3.2061 -0.464704,-4.38461 -1.313563,-6.91524 -1.699096,-8.52417 -0.189776,-0.792 -0.440476,-2.39866 -0.537289,-3.53072 -0.09681,-1.13206 -0.177316,-2.16221 -0.268071,-2.30905 -0.09076,-0.14685 -0.181176,-0.66873 -0.260389,-1.14983 -0.22527,-1.36819 -2.025811,-8.64919 -2.700847,-10.95472 -1.89954,-6.48772 -2.318328,-12.26442 -1.718728,-18.06189 0.264986,-2.5621 0.369792,-3.61658 1.541059,-5.17989 1.317139,-1.29777 3.059366,-3.03259 4.508972,-3.81657 0.385793,-0.054 0.780802,-0.51194 1.04107,-0.6174 0,-0.15464 0.395538,-0.38351 0.888885,-0.58786 0.493344,-0.20435 1.184488,-0.64572 1.615144,-1.04027 1.839498,-1.68527 3.477313,-1.97298 4.133748,-2.68418 0.493853,-0.53506 1.755635,-0.70631 1.755635,-1.10338 0,-0.85783 0.221852,0.72469 0.665753,2.2827 0.351725,1.23446 1.792226,3.73768 2.368559,4.19199 0.111635,0.088 0.552126,0.80222 1.058139,1.59707 1.422877,2.23508 2.452362,3.5697 5.229773,6.43286 1.408,1.45146 3.316176,3.63157 4.171031,4.72576 3.350176,4.28817 6.078766,4.79352 6.078766,1.07545 0,-2.21313 1.012884,-4.76464 1.78322,-5.59584 0.397098,-0.42848 0.653432,-1.47956 0.539902,-1.60252 -0.11353,-0.12296 0.139311,0.13538 0.403295,0.21735 0.264,0.082 0.892711,0.70134 1.070154,1.03944 0.177446,0.3381 1.216994,1.89374 2.151573,3.33806 1.46377,2.26216 2.177726,2.80432 4.321976,4.52499 0.538685,0.43227 0.776712,1.33047 1.216987,7.46494 0.372352,5.1881 0.216089,29.81064 -0.212759,33.46616 -0.144499,1.23171 -0.620742,2.07128 -1.125526,2.07128 -0.653555,0 -1.602618,0.25505 -3.706606,1.99358 -0.692236,0.572 -1.670622,1.33185 -1.896747,1.33185 -0.226128,0 -0.8247,0.22315 -1.013084,0.57515 -0.283606,0.52992 -0.670022,0.67242 -2.246666,0.67242 -1.796384,0 -4.292056,-0.44606 -5.723045,-1.0103 -0.352,-0.1388 -1.272454,-0.33534 -2.005817,-0.43677 -2.08704,-0.28863 -7.652768,-2.69276 -8.117276,-4.55485 l -0.380546,-1.5255 0.110515,-2.26701 c 0.06267,-1.28558 0.375063,-2.60724 0.460595,-2.74563 0.325968,-0.52743 0.32482,-9.43953 0.03045,-11.88364 -0.321116,-2.66615 -0.237938,-3.0983 -1.378249,-6.52757 -1.123494,-3.3787 -1.20499,-6.03061 -1.229594,-9.6 -0.01274,-1.848 -0.540931,-4.16912 -0.777424,-5.15805 -0.641667,-2.68321 -2.993804,-6.99459 -2.993804,-5.35634 0,0.17854 0.823385,0.85134 1.453038,2.62041 l 1.582749,3.17135 0.361011,5.41861 c 0.363758,5.45984 0.432059,5.99464 1.599023,8.91394 0.374867,0.93777 0.948455,3.65948 1.314276,5.88971 0.755011,4.6029 0.593077,9.0354 -0.294667,13.39981 -0.286397,1.408 -0.603613,3.29881 -0.704925,4.16217 -0.103884,0.88527 -0.532431,2.22822 -1.108629,3.24762 -0.679623,1.20238 -0.886448,2.1232 -0.811005,2.75025 0.201347,1.67359 -0.127614,2.591 -0.509626,4.87277 -0.20626,1.232 -0.591454,2.8546 -0.71586,3.82998 -0.140147,1.09877 -0.351017,2.44856 -0.741033,2.83857 -1.007687,1.00769 -3.497393,1.96078 -4.191575,1.83166 z m -4.650721,-7.80257 c -0.406595,0.53591 0.05594,-0.51299 -0.407353,-1.53514 -0.44551,-0.9829 -0.763027,-0.80832 -1.416432,-0.7856 -0.203857,0.007 -0.313456,-0.47272 -0.313456,0.72148 0,0.6688 -0.11905,1.47798 0.09215,1.68918 0.53535,0.53535 2.750741,-1.02001 2.223446,-0.325 z m 75.953828,-2.24014 c -0.15702,-0.10706 -0.61021,-0.0845 -1.27411,-0.19277 -1.41627,-0.23103 -2.51564,-1.61654 -2.68088,-3.84453 l -0.16785,-2.26326 3.18385,0.71083 c 1.9407,0.43328 -0.0428,-0.1254 3.28665,-0.64 0.56267,-0.087 0.79398,-0.9884 1.07825,-0.99384 0.52023,-0.01 2.34101,-1.60498 3.16346,-3.25479 0.24365,-0.48875 0.49979,-1.22419 0.90552,-1.32602 0.62554,-0.15699 0.45503,-0.0552 0.41325,-1.12145 -0.0271,-0.69153 0.27432,-2.29174 0.47364,-2.49106 0.41409,-0.41409 1.05325,0.35351 1.83525,3.45009 0.93966,3.7209 1.48045,5.45308 1.72418,6.03298 0.1852,0.44064 -0.15398,1.28015 -1.96908,3.00404 -1.29032,1.22547 -2.97988,2.52193 -3.55841,2.71286 -0.57852,0.19093 -1.53339,0.57193 -1.53339,0.70655 0,0.35409 -4.03603,0.086 -4.37587,-0.1457 z m 8.36869,-5.58973 c 0.62034,0 1.55172,-1.28412 1.55172,-1.9916 0,-0.87048 -0.82033,-1.34149 -1.4575,-1.34149 -0.65971,0 -0.68872,0.29505 -1.43421,1.24394 -0.68679,0.87416 0.0403,2.19378 0.69001,1.94447 0.25742,-0.0988 0.40723,0.14468 0.64998,0.14468 z m -43.208803,1.21773 c -2.432916,-1.45933 -1.368939,-0.77364 -1.047064,-10.15471 0.158365,-4.61561 0.157984,-12.4335 0.118055,-17.25418 -0.03993,-4.82069 0.187423,-10.13905 0.307044,-9.83689 0.167082,0.42201 1.325298,1.3785 1.342665,1.0098 0.01654,-0.35146 -0.674846,-0.10933 0.521429,-0.15982 1.245021,-0.0526 1.602382,-0.15067 1.906499,-0.40515 0.167526,-0.14019 0.522185,-0.1923 0.522185,-0.62903 0,-2.64642 -1.396508,-3.45335 -3.07239,-1.55984 -0.659612,0.74527 -1.121315,2.16915 -1.392669,1.76321 -0.176473,-0.264 -0.683205,-3.12753 -0.690098,-4.18353 -0.0069,-1.056 -0.142281,-2.54413 -0.300864,-3.22769 -0.163197,-0.70345 0.188335,-1.36999 0.344766,-1.66272 0.152023,-0.28444 0.345385,-1.63701 0.786406,-2.64901 1.010599,-1.12039 1.776277,-2.26397 2.477066,-3.46815 0.200989,0 0.498919,-0.66917 1.041205,-1.1393 l 0.996788,-0.86415 1.23656,1.01294 c 0.93616,0.76687 1.14576,1.68517 1.68875,3.36046 0.39169,1.20851 0.87276,2.46049 0.94467,2.83709 0.0714,0.37421 0.27413,0.968 0.43047,1.2559 0.87654,1.61411 1.61866,0.28253 4.35697,-2.71466 0.82963,-0.90807 1.33714,-1.96857 1.56535,-2.11139 0.22822,-0.14281 -0.0177,-0.73293 0.36055,-0.54192 -0.0803,-0.13002 0.7893,-0.85916 1.56824,-1.90056 0.85615,-1.14464 1.55545,-2.88521 2.04863,-4.3661 0.45762,-1.3741 1.55712,-3.17447 2.2698,-4.12966 1.29299,-1.73301 1.45866,-3.35567 2.13918,-6.948016 0.20935,-1.105152 0.63453,-2.425201 0.77668,-2.513053 0.14216,-0.08786 1.12447,0.315797 1.79057,0.672805 0.6661,0.357008 1.49279,0.534455 1.69697,0.534455 0.78631,0 5.03406,2.080849 5.88044,2.853259 1.14311,1.04322 3.28122,2.0833 3.75132,2.0833 0.70165,0 5.6679,5.76561 5.88943,6.77424 0.11785,0.53656 0.53757,0.86092 0.68048,0.86092 1.25734,0 1.80696,8.16957 1.20368,16.64051 -0.21308,2.992 -0.5676,6.72637 -0.6477,8.04637 -0.0801,1.32 -0.10166,2.65865 -0.2441,2.83465 -0.14245,0.176 -0.32952,2.07735 -0.44373,4.36535 -0.11421,2.288 -0.56573,6.08988 -0.83521,8.44862 -0.38595,3.37811 0.17132,4.6841 0.004,6.31001 l 0.24135,2.54877 -1.53302,2.01021 c -2.61444,3.42824 -6.09468,4.88351 -9.04575,3.85476 -0.51389,-0.17914 -2.151,-0.69041 -2.37687,-1.05209 -0.34897,-0.5588 0.54441,-1.38239 1.14777,-2.62876 0.77136,-1.59341 0.71383,-1.825 -0.59715,-5.27496 -0.60405,-1.58962 -0.8577,-2.46058 -0.30315,-2.46058 0.363,0 -0.91924,-4.3082 -1.99062,-6.29386 -1.08246,-2.00622 -1.69263,-4.87382 -2.06354,-7.48799 -0.16875,-1.18934 -0.72211,-3.00748 -0.91263,-3.84214 -1.48627,-6.51143 -1.76825,-11.48149 -1.24032,-18.79236 0.20784,-2.87816 0.66236,-3.89996 0.29914,-2.93081 -0.0989,0.264 -0.12708,1.21702 -0.33995,3.50502 -0.54087,5.81333 -0.0634,12.14013 1.0804,17.18486 0.17957,0.792 0.52137,3.096 0.87846,5.12 0.71725,4.06544 1.35247,6.4505 2.02777,7.22754 0.6103,0.70226 1.71054,4.41047 1.71054,5.29692 0,0.39888 0.0868,1.6849 -0.44115,2.58039 -0.528,0.89549 -1.19308,1.8012 -1.02486,1.80437 0.32428,0.006 -0.12759,0.69506 -0.28354,0.69506 -0.15594,0 -0.60904,0.468 -0.88799,1.04 -0.76693,1.57264 -4.08703,4.74491 -5.34972,5.14567 -1.15882,0.36779 -3.92854,1.61023 -5.36196,2.52767 -2.39828,1.535 -3.84261,1.89692 -8.6393,2.10609 -4.421523,0.1928 -4.561756,0.26827 -5.831599,-0.44714 z m 4.825753,-5.21962 c 0.4409,-0.67288 0.17043,-0.85703 -0.1589,-1.65211 -0.58664,-1.41627 -1.283241,-1.11897 -2.02946,-0.97876 -1.342726,0.2523 -1.069769,1.91562 -0.8343,2.57717 0.262141,0.73649 0.123048,0.85559 1.216706,0.85559 1.013594,0 1.390064,-0.16716 1.805954,-0.80189 z m -0.69344,-8.2759 c 0.62853,-0.59278 0.55908,-1.52872 0.55908,-1.80243 0,-0.69141 -1.00855,-1.88193 -1.820274,-1.87899 -1.415002,0.005 -1.814943,1.58903 -1.708716,2.92773 0.09258,1.16667 -0.322125,0.78122 0.168019,0.65304 1.042469,-0.18186 1.951022,0.83081 2.801891,0.10065 z m 0.4043,-11.42621 c 0.26664,-0.38068 0.26388,-0.57916 0.093,-0.60209 -0.60944,-0.0818 -0.19109,-0.47429 -0.26286,-0.84698 -0.14236,-0.7392 -0.83199,-1.09297 -1.591081,-1.17431 -2.323574,-0.24902 -1.688727,0.50022 -1.656299,1.22575 0.0695,1.55509 0.09941,1.46478 0.72,1.76408 1.243731,0.59983 2.16138,0.3986 2.69724,-0.36645 z M 79.953755,122.33892 c -0.684198,-0.54283 -1.499775,-1.47004 -1.663759,-1.76321 -0.554649,-0.9916 -3.535976,-4.26488 -5.503032,-6.19575 -1.809395,-1.77611 -4.789102,-6.0175 -4.789102,-6.6068 0,-0.1403 -0.421197,-0.5213 -0.797271,-0.85657 -1.216969,-1.08496 -3.066513,-7.109587 -2.584298,-7.889825 0.264284,-0.427622 1.709056,0.696117 1.709056,1.236185 0,0.23954 0.306823,0.65848 0.790823,0.92106 0.484,0.26257 0.60019,0.55613 0.486094,0.56318 -0.114096,0.007 1.00122,0.84087 2.171316,1.98174 1.981868,1.93238 2.723498,2.53776 6.64722,4.30278 0.828425,0.37266 2.203569,1.24564 3.135144,1.84088 0.931571,0.59524 2.688157,1.35697 3.873802,1.91072 l 2.496204,1.07166 -0.441133,1.71248 c -0.201572,0.7825 -0.856121,1.78776 -1.155248,2.31576 -0.299126,0.528 -0.51998,1.88885 -0.63941,2.94485 -0.431645,3.81655 -1.575921,4.22494 -3.736406,2.51086 z m 25.717325,-0.85655 c -0.15896,-0.21339 -0.83361,-1.95959 -1.05783,-2.92759 -0.56341,-2.43238 -1.67043,-3.39647 -2.43301,-4.6766 l -0.96903,-1.00939 0.97435,-1.16706 c 1.57944,-1.89183 3.86188,-4.14601 5.58467,-5.28953 1.74456,-1.15798 3.10358,-2.5355 5.47948,-5.5541 0.704,-0.894439 1.37176,-1.633415 1.48392,-1.642174 0.11216,-0.0088 0.80551,-0.945506 1.82104,-1.913506 1.01552,-0.968 2.61435,-2.493758 2.65613,-2.493758 0.0418,0 0.0834,1.525988 -0.0757,2.185988 -0.15911,0.66 -0.73679,2.449946 -1.00347,3.9216 -0.55152,3.04343 -0.76898,3.62753 -2.41212,5.62184 -0.65254,0.792 -1.12478,1.70828 -1.21757,2.14828 -0.4179,1.9816 -1.63266,4.2526 -3.26805,6.46879 -0.97407,1.32 -2.12795,2.88319 -2.50812,3.50179 -0.92375,1.50307 -2.66334,3.35074 -3.05466,2.82542 z"
         id="shirt" />
      <path
         id="shoes_belt_neck"
         style="display:inline;fill:#2b2b2b;stroke-width:0.32"
         d="m 65.499028,98.508403 0.451638,1.116802 2.711511,2.437145 c 3.004249,3.01355 3.76773,3.54333 5.784116,4.28478 1.236323,0.45462 3.153833,1.56304 4.737819,2.50272 1.583993,0.93975 3.949882,2.15289 4.741875,2.37858 0.791993,0.22568 1.245897,0.4382 1.52375,0.67184 0.27786,0.23363 0.668521,0.49066 0.869141,0.49066 0.20701,0 0.66781,-0.19486 0.553197,0.10383 -0.11473,0.29899 -0.320778,0.71232 -0.05084,0.91329 0.42998,0.32007 2.897294,4.13142 2.949994,4.51566 0.04644,0.33876 1.312578,2.05528 2.096881,2.91756 l 1.081688,1.29344 1.771663,-0.93048 c 0.439993,-0.52902 1.082864,-2.06847 1.746437,-3.38202 0.733633,-1.45231 1.610815,-2.62458 2.287885,-3.14101 0.612413,-0.46712 1.307847,-1.32566 1.307847,-1.55161 0,-0.22595 0.13746,-0.57987 0.62143,-1.02418 0.484,-0.4443 2.0525,-1.98531 3.36682,-3.34611 1.3144,-1.36081 2.67864,-2.70501 3.30816,-3.02617 1.19046,-0.60725 4.03346,-3.02633 4.08554,-4.50514 l 0.03,-0.85237 -0.97461,0.57617 c -0.53528,0.3162 -0.89935,0.69224 -0.81055,0.83594 0.0888,0.14371 0.004,0.26172 -0.1875,0.26172 -0.19165,0 -1.1008,0.73355 -2.01953,1.63086 -0.91874,0.89731 -2.17306,1.89157 -2.78906,2.21094 -0.616,0.31936 -1.41536,0.8605 -1.77539,1.20117 -0.36002,0.34067 -0.791,0.67855 -0.95898,0.75195 -0.16797,0.0734 -0.87551,0.48764 -1.57227,0.91992 -0.696771,0.43229 -1.456186,0.81366 -1.687499,0.84766 -0.23133,0.034 -0.885222,0.33514 -1.453125,0.66992 -2.441746,1.43939 -9.142072,1.7559 -10.583985,0.5 -0.761143,-0.66295 -3.111801,-1.8409 -3.490234,-1.75 -0.132,0.0317 -0.238281,-0.0877 -0.238281,-0.26367 0,-0.176 -0.135109,-0.32031 -0.298829,-0.32031 -0.511273,0 -4.259316,-1.86889 -6.101562,-3.04297 -0.967993,-0.61691 -2.012313,-1.20949 -2.320313,-1.31641 -0.307993,-0.10692 -0.560546,-0.29067 -0.560546,-0.4082 0,-0.11752 -0.46707,-0.48903 -1.039063,-0.82617 -0.571993,-0.33714 -1.185328,-0.73093 -1.361328,-0.875 -0.176,-0.14406 -0.679141,-0.56348 -1.119141,-0.93164 -0.439993,-0.36816 -1.662444,-1.08952 -2.716797,-1.60352 z m 60.219552,58.557647 c 0.13224,-0.6563 -0.90912,-0.0127 -0.98999,0.1586 -0.54536,1.15531 -0.40891,2.27781 -2.91511,4.69782 -1.71891,1.65973 -3.29641,2.34286 -5.87477,3.61589 -1.848,0.91242 -3.44506,2.11384 -3.88499,2.41926 -1.46636,1.01786 -3.65212,1.58556 -6.56055,1.70313 -2.80316,0.11332 -3.26638,0.13716 -3.18278,0.86718 0.0472,0.41249 0.5194,0.87687 0.46238,1.17579 -0.2904,1.52233 1.95265,1.20342 4.80611,0.0314 1.26807,-0.52086 3.14474,-1.08466 4.20074,-1.34078 2.58833,-0.62781 4.78397,-1.35357 5.67273,-2.02836 0.40426,-0.30695 0.98714,-0.51498 1.51969,-0.63195 1.42575,-0.31314 5.15639,-2.52647 6.36391,-3.76981 1.03206,-1.06242 1.85315,-1.36518 1.83185,-4.12774 -0.0139,-1.80899 -1.03228,-2.80251 -1.21205,-2.78868 z m -57.489084,7.61813 -0.328125,0.86329 c -0.180383,0.47447 -0.328125,0.98005 -0.328125,1.12304 0,0.14299 -0.216475,0.43911 -0.480468,0.65821 -0.264,0.2191 -0.478516,0.8636 -0.478516,1.43359 0,0.90117 -0.277208,1.44876 0.905385,2.02936 1.879776,0.92288 2.328589,1.15545 3.982795,1.31876 0.791993,0.0782 2.167467,0.2168 2.343467,0.34648 0.176,0.12968 2.080598,0.43661 4.192584,0.48441 2.111986,0.0478 3.899356,0.37238 3.972656,0.44378 0.07334,0.0714 1.155397,0.16134 2.601533,0.16134 2.550526,0 3.249028,0.10691 3.397378,-0.66912 l 0.154297,-1.90333 -3.624314,0.19457 c -2.315305,0.12429 -3.584917,-0.16749 -4.996093,-0.66211 -1.039553,-0.36436 -2.177304,-0.72222 -2.529297,-0.79492 -0.352,-0.0727 -1.073563,-0.22504 -1.601563,-0.33789 -0.527993,-0.11285 -1.340144,-0.47253 -1.804687,-0.80078 -0.46455,-0.32825 -1.159499,-0.64628 -1.544922,-0.70508 -0.38543,-0.0588 -1.405965,-0.79848 -2.267578,-1.64453 z m 26.744141,5.81055 c -1.113047,0.002 -2.30552,0.0676 -2.830078,0.19922 -0.707293,0.17752 -1.195298,0.27596 -0.999098,1.01191 0.12523,0.4697 0.205216,1.35688 0.632939,1.57428 0.42773,0.21741 1.821001,0.55953 2.361634,0.56253 1.155543,0.006 4.63,-1.07038 4.054747,-1.26213 -0.21674,-0.0722 -0.540456,-0.77254 -0.540456,-1.09948 0,-0.32695 -0.145266,-0.68359 -0.322266,-0.79297 -0.21139,-0.1307 -1.244375,-0.19487 -2.357422,-0.19336 z m 49.966793,9.05274 c -0.0164,0.002 -0.0315,0.006 -0.0469,0.0117 0.002,0.0449 0.002,0.0899 0.004,0.13477 0.0263,-0.0338 0.0303,-0.0945 0.043,-0.14648 z m -0.15039,1.76953 c 0.0114,0.0129 0.0217,0.0256 0.0352,0.0273 -0.0119,-0.009 -0.0232,-0.0186 -0.0352,-0.0273 z m -0.31054,0.32617 c 4.8e-4,0.003 7e-4,0.005 0.002,0.008 0.005,0.001 0.009,0.003 0.0137,0.004 -0.006,-0.004 -0.01,-0.008 -0.0156,-0.0117 z m 0.15234,0.12695 c 0.0349,0.0435 0.0149,0.0738 -0.0137,0.0996 0.003,-0.01 0.005,-0.0193 0.008,-0.0293 0.003,-0.0285 0.005,-0.0508 0.006,-0.0703 z m -77.775998,46.64581 c 0.04344,0.39072 -0.712576,0.25512 -1.298221,0.55146 -1.199736,0.60707 -2.482296,2.06183 -2.222656,2.52148 0.09942,0.1761 0.07464,0.2232 -0.05664,0.10547 -0.26823,-0.24054 -1.785157,0.96747 -1.785157,1.42188 0,0.16109 -0.26652,0.6754 -0.59375,1.14257 -1.265946,1.80733 -1.72092,4.04021 -1.59375,7.83399 0.0939,2.8013 -0.09146,3.93418 0.388473,4.73523 0.33694,0.56243 0.80009,1.04185 0.94379,0.95305 0.14371,-0.0888 0.09926,0.12621 0.09926,0.28161 0,0.15535 0.724612,0.31969 1.384612,0.50449 0.659993,0.18479 2.341673,0.62806 3.485666,0.65016 2.150369,0.0415 2.560542,-0.14358 7.636487,-2.79188 0.791993,-0.41319 1.340016,-1.08596 1.499216,-0.99086 0.16374,0.0978 0.358997,0.35468 0.210779,0.11492 -0.19178,-0.3103 -0.02321,-0.34424 0.378829,-0.18996 0.30367,0.11655 0.192599,-0.30911 0.09203,-0.47181 -0.10001,-0.16182 0.310649,0.0939 0.492386,-0.0185 0.18173,-0.11232 0.485251,-0.24629 0.365511,-0.44004 -0.1401,-0.22663 -0.418019,-0.39457 -0.07536,-0.26308 0.29287,0.11238 0.624923,0.0587 0.624923,-0.0913 0,-0.14995 0.160827,-0.35348 0.468827,-0.45118 0.948963,-0.30095 2.843593,-1.48322 3.471333,-2.24594 0.328803,-0.39952 0.783314,-0.86215 1.264334,-1.11089 1.372366,-0.70969 4.076216,-5.10029 4.076216,-6.58127 0,-1.36728 -1.10402,-0.89119 -2.168643,-0.1455 -0.801893,0.56167 -4.420808,1.40821 -6.021484,1.40821 -1.045033,0 -4.40934,-1.79395 -6.372186,-3.25579 -0.615993,-0.4587 -0.575555,-1.06177 -0.751555,-1.00367 -0.176,0.0581 -0.719518,-0.0686 -0.590399,-0.1977 0.202623,-0.20264 -0.979303,-1.07068 -2.473639,-2.27277 -0.27689,-0.22274 -0.93414,-0.19633 -0.890703,0.19442 z m 56.774048,2.66083 c -0.0215,0.0344 0.0133,0.12854 0.10156,0.28321 0.20229,0.35464 0.16815,0.36833 -0.1582,0.0664 -0.45983,-0.42544 -2.19002,0.30877 -4.0293,1.70899 -0.54462,0.41461 -1.12187,0.75294 -1.28125,0.7539 -0.15939,8.4e-4 -0.84459,0.51327 -1.52344,1.13672 -2.80002,2.57154 -3.56461,2.5936 -6.12109,0.17578 -0.88256,-0.83468 -2.21697,-1.92305 -2.96485,-2.41797 -0.74781,-0.49492 -1.35937,-1.03426 -1.35937,-1.19726 0,-0.163 -0.14431,-0.20619 -0.32031,-0.0977 -0.79766,0.49298 -0.1837,6.18646 0.77539,6.89844 0.26035,0.1933 0.50028,0.36957 0.375,0.57227 -0.12528,0.20269 -0.24054,0.46679 -0.0762,0.46679 0.16439,0 0.52816,0.31468 0.6289,0.81836 0.10073,0.50368 0.76686,1.86244 1.66016,2.83985 1.37422,1.50358 2.29451,2.31433 6.14648,4.20507 2.50392,1.22908 4.78483,2.19521 5.04883,2.28711 0.264,0.0919 1.60049,0.32303 2.70313,0.41992 1.85827,0.1633 2.54915,-0.24813 5.20898,-1.60742 1.73077,-0.8845 4.06057,-1.12426 3.7168,-2.28906 -0.16524,-0.55987 1.08037,-0.73633 1.17187,-0.73633 0.3796,0 0.86486,-0.89955 0.74219,-1.26758 -0.0728,-0.21843 0.0554,-0.52734 0.24609,-0.52734 0.19067,0 0.13573,-0.50027 0.13477,-1.07227 -0.003,-1.5475 -0.46065,-3.4082 -0.95313,-3.4082 -0.3854,0 -1.58772,-0.76785 -4.10351,-3.5 -0.40383,-0.43855 -0.93363,-0.72065 -1.17774,-0.62695 -0.0933,-0.0412 -0.10211,-0.25372 -0.32617,-0.44531 -0.2618,-0.22386 0.003,-0.58142 -0.13867,-0.54102 -0.33674,0.0959 -2.79198,-1.87247 -2.76758,-2.19531 -0.01,-0.009 -0.0193,-0.0188 -0.0293,-0.0273 -0.0324,-0.0194 -0.0605,-0.0475 -0.0898,-0.0723 -0.0269,-0.0263 -0.0532,-0.0539 -0.0801,-0.0801 -0.0191,-0.0194 -0.039,-0.0376 -0.0586,-0.0566 -0.0522,-0.0506 -0.082,-0.10179 -0.0937,-0.14844 -0.32115,-0.0689 -0.6283,-0.15518 -0.77539,-0.24609 -0.13343,-0.0825 -0.21089,-0.10649 -0.23242,-0.0723 z" />
      <path
         id="pants"
         style="display:inline;fill:#5e5d58;stroke-width:0.32"
         d="m 128.89747,100.1002 c -0.0165,0.0165 0.0803,0.14467 0.27929,0.39844 0.41804,0.53308 0.67969,0.70282 0.67969,0.43945 0,-0.0665 -0.25059,-0.31704 -0.55859,-0.55859 -0.25377,-0.19902 -0.38388,-0.29582 -0.40039,-0.2793 z m -74.417974,6.02344 c -0.02527,0.0249 -0.05,0.0502 -0.07617,0.0742 0.0018,0.003 0.0041,0.008 0.0059,0.0117 0.02115,-0.0276 0.05254,-0.0611 0.07031,-0.0859 z m -2.683593,2.35742 c -0.02722,0.0308 -0.05665,0.0609 -0.07422,0.0781 -0.04642,0.0456 -0.101244,0.0808 -0.152344,0.1211 -0.02383,0.0188 -0.04494,0.0332 -0.06641,0.0488 0.05435,0.0284 0.190205,-0.0943 0.333984,-0.23438 -0.0137,-0.002 -0.0273,-0.006 -0.04101,-0.008 -1.79e-4,-0.002 1.87e-4,-0.004 0,-0.006 z m 89.669917,10.61914 c -0.0336,0.0336 -0.0567,0.14564 -0.0645,0.33203 -0.0139,0.3373 0.0616,0.52626 0.16797,0.41992 0.1063,-0.10633 0.11722,-0.38228 0.0254,-0.61328 -0.0511,-0.12763 -0.0953,-0.17231 -0.12891,-0.13867 z m 0.10352,2.73047 c -0.0418,-0.12775 -0.0718,0.65795 -0.0723,2.10937 -7.2e-4,1.93598 0.0508,2.76915 0.11524,1.85157 0.0641,-0.91757 0.0657,-2.50168 0.002,-3.51953 -0.0159,-0.25461 -0.031,-0.39883 -0.0449,-0.44141 z m -44.625,8.21484 c -0.02505,-0.0199 -0.05611,-0.0213 -0.09375,0.002 -0.15058,0.0931 -0.273437,0.44939 -0.273437,0.79101 0,0.86712 0.215994,0.77423 0.396484,-0.16992 0.06232,-0.326 0.04586,-0.56333 -0.0293,-0.62305 z m -44.115234,19.43946 c -3.76e-4,0.008 0.0015,0.0175 0.0039,0.0273 6e-4,-0.008 2.58e-4,-0.0174 -0.002,-0.0254 z m 86.166014,3.61132 c -0.0478,-0.0474 -0.082,0.35799 -0.082,1.08399 0,0.968 0.0595,1.3629 0.13281,0.8789 0.0733,-0.48342 0.0733,-1.27576 0,-1.75976 -0.0183,-0.121 -0.0348,-0.18731 -0.0508,-0.20313 z m -13.16015,11.00391 c -0.088,0 -0.007,0.28667 0.18164,0.63867 0.18838,0.352 0.41395,0.64063 0.50195,0.64063 0.088,0 0.007,-0.28863 -0.18164,-0.64063 -0.18838,-0.352 -0.41395,-0.63867 -0.50195,-0.63867 z m -0.68946,1.05273 -0.34375,0.22852 c -0.10298,0.0687 -0.65812,0.28899 -1.18554,0.63867 -0.528,0.34968 -1.1881,0.45213 -1.4961,0.45313 -0.308,0.001 -0.58498,0.29378 -0.58594,0.42578 -0.001,0.132 -0.42191,0.47927 -0.93554,0.77148 -0.51364,0.2922 -0.90038,0.72514 -0.85938,0.96094 0.13891,0.79787 1.80976,4.03904 2.28516,4.43359 0.25974,0.21556 0.4851,0.55546 0.5,0.75391 0.0465,0.61893 2.49176,2.51153 3.57812,2.76953 0.5694,0.13522 1.50863,0.3277 1.64063,0.3457 0.31561,0.0431 0.53229,-0.67637 0.17773,-2.54296 -0.1602,-0.84466 -0.63437,-2.45735 -0.85937,-3.77735 -0.40349,-2.36715 -1.55127,-5.70412 -1.91602,-5.46094 z m 13.31055,0.7461 c -0.002,0.007 0.009,0.01 0.0137,0.0137 0.008,0.006 0.0168,0.0108 0.0254,0.0156 -0.002,-0.0137 -0.008,-0.0225 -0.0234,-0.0195 -0.005,-0.003 -0.0146,-0.01 -0.0156,-0.01 z m -23.39258,0.17187 c -0.104,0.0396 -0.2235,0.11917 -0.33203,0.22852 -0.31369,0.31604 -0.27637,0.35334 0.17969,0.17969 0.31557,-0.12017 0.49303,-0.29994 0.39453,-0.39844 -0.0493,-0.0493 -0.13819,-0.038 -0.24219,-0.01 z m -22.824218,0.92383 c -0.08414,0.003 -0.203999,0.0302 -0.367187,0.11719 -0.396,0.21101 -0.896485,0.74437 -0.896485,0.82617 0,0.33894 0.817653,0.14217 1.226563,-0.35351 0.199057,-0.24137 0.584534,-0.8016 0.546159,-0.82192 -0.01919,-0.0101 -0.181697,0.19632 -0.265836,0.19972 z m 1.675781,0.1582 c -0.18641,0 -0.345108,0.48611 -0.236328,0.66211 0.108713,0.176 0.439978,0.125 0.517578,0.125 0.07762,0 0.31836,-0.0622 0.31836,-0.23828 0,-0.176 -0.413277,-0.54883 -0.59961,-0.54883 z m 24.835937,1.24219 -0.36719,0.0234 c -0.16692,0.0104 -0.64324,0.43539 -1.2832,0.77148 -1.65081,0.86694 -3.6206,1.30974 -5.19727,1.57227 -0.74702,0.1244 -1.92023,0.3569 -2.01953,0.51758 -0.0993,0.16069 -0.0402,0.20117 -0.45507,0.20117 -0.41494,0 -0.69146,0.45711 -0.75586,0.65039 -0.0644,0.19328 -0.78322,0.18723 -1.625,0.24023 -0.84185,0.053 -1.7556,0.16185 -1.86133,0.26758 -0.10573,0.10573 -0.52324,0.23633 -1.06836,0.23633 -0.81153,0 -1.13446,0.41618 -1.7832,1.4668 -0.57782,0.93494 -1.30047,1.19831 -2.351567,1.58594 -0.793501,0.29253 -1.470485,0.86172 -1.646485,0.98437 -0.176,0.12264 -1.043259,0.11755 -1.925781,0.32422 -2.644996,0.61939 -5.667603,-0.41215 -7.810547,-2.55469 -0.28927,-0.28932 -0.683632,-0.61959 -0.539062,-0.65039 0.258594,-0.0552 -5.028735,-0.40604 -10.365235,-0.72656 -1.495884,-0.0899 -3.572042,-0.28982 -4.583984,-0.38672 -1.35596,-0.1298 -1.816406,0.20409 -1.816406,0.5 0,0.43097 -2.366365,4.5534 -3.146485,5.48047 -0.318107,-0.34306 0.185492,-0.45847 0.482422,-0.83985 0.353626,-0.45415 0.577031,-1.18938 1.025391,-1.80273 0.956695,-1.30874 2.030942,-3.17432 1.11914,-4.02148 -0.716416,0 -3.172714,-1.03064 -3.861328,-1.50391 0.126051,0.21691 0.054,0.26367 -0.08398,0.26367 -0.22693,0 -0.250797,0.407 -0.279297,0.59766 -0.02848,0.19067 -0.326177,2.14823 -0.662109,4.34765 -0.17199,1.2235 -0.615791,2.42155 -0.695313,3.64063 -0.793916,12.17083 2.953798,24.16969 2.839844,36.45312 -0.02462,2.65384 0.221223,5.38478 -0.253906,8.06641 -0.5712,2.50667 -0.262579,3.33448 1.759765,4.73828 0.966012,0.67056 1.75586,1.34692 1.75586,1.50391 0,0.15699 0.657525,0.73821 1.460937,1.29101 0.864082,0.59457 1.94105,0.94509 1.90625,0.69141 -0.02985,-0.22183 -0.121023,-0.61796 -0.105469,-0.95703 0.0213,0.0808 0.03014,0.14024 0.07031,0.25195 0.24079,0.66954 0.778325,1.31266 1.335937,1.59961 0.51307,0.264 1.026293,0.60969 1.140625,0.76758 0.11439,0.1579 0.691698,0.1948 1.28125,0.084 3.163576,-0.6008 4.688201,-0.58905 4.97461,-0.875 0.17444,-0.17445 0.249779,-0.31836 0.476562,-0.31836 0.655049,0 2.136719,-1.16074 2.136719,-1.8164 0,-0.32936 -0.226501,-0.12009 0.113281,-0.20899 0.50103,-0.13102 1.129452,-1.152 1.263672,-2.74804 0.09105,-1.08265 0.296965,-3.65319 0.484375,-5.82227 0.18737,-2.16908 0.442487,-4.16716 0.341797,-4.33008 -0.10069,-0.16292 -0.275939,-0.34375 -0.107422,-0.34375 0.16853,0 0.335155,-0.97595 0.453125,-2.25195 0.708593,-7.66367 4.036905,-21.24374 5.322266,-21.76367 0.14491,-0.0587 0.242187,-0.44667 0.242187,-0.7793 0,-0.33262 0.35473,-1.33753 0.732422,-2.17773 0.37775,-0.84071 0.981828,-1.79633 1.175781,-2.23633 0.19397,-0.44 0.183297,-1.07331 0.292969,-1.00781 0.505319,0.30181 0.708848,-0.73398 1.144531,-1.57618 0.661179,-1.2781 0.396674,-1.88284 1.064454,-1.80664 0.439939,0.0502 0.811871,0.23416 0.826171,0.41016 0.05481,0.67223 0.530893,2.2823 0.962893,3.25 0.24749,0.5546 0.45117,1.23813 0.45117,1.51953 0,0.2814 0.1515,0.51172 0.33789,0.51172 0.18641,0 0.2578,0.13174 0.1582,0.29297 -0.0996,0.16123 -0.022,0.70045 0.17188,1.19922 0.19386,0.49877 0.39592,1.19487 0.44922,1.54687 0.0533,0.352 0.34623,1.72102 0.65039,3.04102 0.30416,1.32 0.61631,2.83137 0.69531,3.35937 0.079,0.528 0.2197,1.17546 0.3125,1.43946 0.26013,0.7397 0.37897,2.62198 0.48633,7.75976 0.0542,2.5954 0.16981,4.72006 0.25781,4.7207 0.088,5.9e-4 0.17516,0.61138 0.19336,1.35938 0.0182,0.748 0.21448,2.00878 0.43555,2.80078 0.458,1.64077 0.61342,7.80319 0.24804,9.8418 -0.18394,1.02624 -0.14439,1.34059 0.16016,1.27929 0.23802,-0.0479 0.44425,0.31329 0.50195,0.87891 0.0945,0.92587 2.23505,3.35938 2.95508,3.35938 0.16835,0 0.30664,0.14431 0.30664,0.32031 0,0.176 0.20763,0.32031 0.46289,0.32031 0.25525,0 1.0155,0.40891 1.15625,0.62891 0.14074,0.22 0.87865,0.94891 1.64063,1.62109 1.55864,1.37471 1.13628,1.47933 4.45312,-1.10156 2.24163,-1.74425 6.10421,-4.11914 6.69727,-4.11914 0.2291,0 0.70441,-0.24696 1.05469,-0.54688 0.47096,-0.40354 0.79294,-0.70772 0.50195,-0.89258 -0.26754,-0.16999 -0.45609,-0.15325 -0.0391,-0.15625 0.33738,-0.003 0.51815,-0.099 0.40234,-0.21484 -0.11584,-0.1158 -0.0833,-0.36835 0.0723,-0.56055 0.36879,-0.45615 1.3125,-4.17814 1.3125,-5.17968 0,-0.42817 0.5995,-0.75299 0.77148,-1.0586 0.2825,-0.50198 0.75133,-4.08516 1.58789,-11.29883 0.34016,-2.93231 1.28897,-9.00646 0.31641,-9.16601 -0.0868,-0.0142 -0.36339,-3.65205 -0.27539,-7.91992 0.088,-4.26798 -0.042,-8.66961 -0.0937,-9.83594 l -0.11719,-2.5332 -1.63281,-0.20118 c -1.58276,-0.15209 -3.0287,-0.57241 -3.31055,-1.41796 -0.0788,-0.2363 -0.14744,-0.16234 0.46484,0.30468 0.79189,0.604 1.49744,0.84766 2.44336,0.84766 1.23843,0 1.8126,0.0559 1.8086,-0.76367 -0.009,-1.87415 -0.21767,-2.68846 -1.46289,-2.68946 -0.63947,-6.5e-4 -1.87889,-0.33727 -2.41797,-0.66601 -1.01093,-0.61647 -3.81836,-3.50336 -3.81836,-4.00195 0,-0.54516 -1.98572,-3.92104 -2.28516,-3.90235 z m 23.80664,1.32031 c -0.14581,-0.0111 -0.33267,0.0238 -0.49609,0.0723 0.0436,0.006 0.0803,0.034 0.0976,0.0684 0.0218,-0.002 0.0446,-0.002 0.0664,-0.004 0.0784,-0.004 0.16216,0.008 0.22656,0.0566 0.0129,0.01 0.0232,0.0222 0.0352,0.0332 0.0238,0.0298 0.0406,0.0617 0.0469,0.0937 0.1842,-0.054 0.30882,-0.13341 0.25,-0.22852 -0.0338,-0.0547 -0.11826,-0.0835 -0.22656,-0.0918 z m -0.63476,0.12696 c -0.12258,0.0547 -0.22657,0.11823 -0.22657,0.1914 0,0.0134 0.11562,0.004 0.14258,0.0137 -5e-5,-0.001 7e-5,-0.003 0,-0.004 v -0.002 c -0.0494,-0.051 -0.0295,-0.12619 0.0508,-0.16016 l 0.002,-0.002 c 0.01,-0.0124 0.0248,-0.0253 0.0312,-0.0371 z m -48.185551,0.041 c -2.747266,0.23218 -3.739128,1.05272 -3.673828,2.79102 0.04473,1.18924 0.383561,1.50159 1.845703,1.88086 1.283292,0.33288 5.1481,0.0736 6.011719,-0.38867 0.572242,-0.30617 0.593418,-0.75167 0.511718,-2.1543 -0.09303,-1.59689 -0.0811,-1.80279 -1.166015,-2.04492 -0.508794,-0.0317 -1.021426,-0.0168 -1.529297,0.0273 0.620682,0.0955 -1.355263,-0.16583 -2,-0.11133 z m 47.320311,0.61524 c -0.0165,-0.0165 -0.14662,0.0803 -0.40039,0.27929 -0.308,0.24155 -0.56055,0.49405 -0.56055,0.56055 0,0.26337 0.2636,0.0936 0.68164,-0.43945 0.19902,-0.25377 0.29582,-0.38387 0.2793,-0.40039 z m -58.908202,0.041 c -0.111166,-0.005 -0.238015,0.0144 -0.353515,0.0606 -0.25528,0.10213 -0.179421,0.17796 0.193359,0.19336 0.3373,0.0139 0.528205,-0.0616 0.421875,-0.16797 -0.05316,-0.0531 -0.150553,-0.0814 -0.261719,-0.0859 z m 12.792969,0.24024 c 1.606354,0 2.187241,0.12717 2.494141,0.54687 0.219972,0.30093 0.331489,0.65793 0.248047,0.79297 -0.08345,0.13504 0.02631,0.30435 0.24414,0.37695 0.21783,0.0726 -0.311759,0.37355 -1.175781,0.66797 -2.789716,0.95062 -4.884237,0.50941 -5.318359,-1.11914 -0.1962,-0.73595 -0.115456,-0.88302 0.591796,-1.06054 0.45142,-0.1133 1.764224,-0.20508 2.916016,-0.20508 z m 48.273433,0.85547 c -0.005,0.003 -0.005,0.008 -0.01,0.0117 0.001,-1e-5 0.003,-1e-5 0.004,0 0.002,-0.004 0.004,-0.008 0.006,-0.0117 z m -40.05664,0.95703 c -0.0231,0.0273 -0.0346,0.0516 0.008,0.0703 0.001,-0.005 0.002,-0.009 0.004,-0.0137 -0.004,-0.0214 -0.008,-0.0389 -0.0117,-0.0566 z m -16.849605,0.50586 c -0.111167,-0.005 -0.238016,0.0163 -0.353516,0.0625 -0.25528,0.10213 -0.179363,0.17796 0.193359,0.19336 0.3373,0.0139 0.526252,-0.0616 0.419922,-0.16797 -0.05316,-0.0531 -0.148656,-0.0833 -0.259765,-0.0879 z m 57.255855,0.35547 c 9.3e-4,0.004 -9.2e-4,0.009 0.002,0.0137 5.4e-4,-0.003 -0.001,-0.007 0.002,-0.01 v -0.002 c -0.001,-3e-4 -0.003,-0.002 -0.004,-0.002 z m -55.148434,0.40625 0.609375,0.71875 c 0.33528,0.396 0.660004,0.7207 0.720704,0.7207 0.256022,0 0.06724,-0.25721 -0.609375,-0.83008 z m 56.777344,2.14062 c -0.01,10e-4 -0.0203,0.003 -0.0293,0.002 -0.0151,0.0447 -0.0413,0.0865 -0.084,0.1211 -0.0174,0.0141 -0.0377,0.0241 -0.0586,0.0312 0.0243,0.0444 0.0531,0.10547 0.0684,0.10547 0.0467,0 0.0815,-0.11433 0.10352,-0.25977 z m 0.11133,1.01953 c -0.0336,0.0336 -0.0567,0.14564 -0.0644,0.33203 -0.0139,0.3373 0.0636,0.52627 0.16992,0.41993 0.1063,-0.10633 0.11754,-0.38229 0.0234,-0.61329 -0.0511,-0.12763 -0.0953,-0.17231 -0.1289,-0.13867 z m -93.951174,0.62305 c -0.03594,-0.0398 -0.103592,0.0314 -0.210937,0.20508 -0.0251,0.0406 -0.03055,0.0832 -0.04297,0.125 0.0047,0.004 0.009,0.009 0.01367,0.0137 0.0044,0.004 0.0093,0.01 0.01367,0.0137 0.04487,0.0474 0.07856,0.102 0.117187,0.1543 0.03317,0.0434 0.06663,0.087 0.09961,0.13086 0.01025,-0.0535 0.02134,-0.0761 0.0293,-0.18164 0.02033,-0.26994 0.01641,-0.42118 -0.01953,-0.46094 z m -0.33789,0.91016 c 0.0015,0.003 -0.0016,0.009 0,0.0117 0.004,0.007 0.0058,0.004 0.0098,0.01 -0.0029,-0.007 -0.0069,-0.0142 -0.0098,-0.0215 z m 0.216797,0.0703 c 0.0025,0.005 0.0052,0.0105 0.0078,0.0156 0.0056,-0.003 0.01214,-0.006 0.01953,-0.0117 -0.0098,-0.002 -0.01805,-0.002 -0.02734,-0.004 z m 94.212887,0.043 c -0.024,-0.0349 -0.0586,0.007 -0.10156,0.0859 0.0371,0.009 0.0743,0.0163 0.11133,0.0254 -0.005,-0.0177 -0.003,-0.10207 -0.01,-0.11132 z m -87.517575,2.875 c 0.02632,0.0208 0.05314,0.0405 0.08008,0.0605 -0.02097,-0.0542 -0.04656,-0.0771 -0.08008,-0.0605 z m 82.228515,4.0625 c -8.3e-4,0.001 0.005,0.008 0.004,0.01 0.003,-0.002 0.006,-0.004 0.01,-0.006 -0.002,0.002 -0.0123,-0.006 -0.0137,-0.004 z m 0.16992,0.29492 c -0.01,6.2e-4 -0.0195,-9.5e-4 -0.0293,0.002 0.0174,0.0221 0.0367,0.0299 0.0547,0.0469 -0.005,-0.0132 -0.0126,-0.0257 -0.0176,-0.0391 -0.003,-0.003 -0.005,-0.007 -0.008,-0.01 z m -10.30664,1.51172 c -0.0525,-0.0302 -0.0898,0.22745 -0.0898,0.68945 0,0.616 0.066,0.86659 0.14648,0.55859 0.012,-0.0457 0.009,-0.11292 0.0176,-0.16601 -0.0298,0.002 -0.0609,-0.0265 -0.0644,-0.0859 -0.009,-0.15405 -0.0206,-0.30845 -0.0176,-0.46289 0.002,-0.0298 0.002,-0.0601 0.004,-0.0898 0.005,-0.0652 0.0115,-0.10302 0.0254,-0.16602 0.005,-0.0223 0.0224,-0.0969 0.0351,-0.12109 6.6e-4,-0.001 -4e-4,-0.003 0.002,-0.004 -0.002,-0.007 0.001,-0.017 -0.002,-0.0234 -0.0201,-0.077 -0.0391,-0.11884 -0.0566,-0.1289 z m -0.0137,7.55664 c -0.0579,-0.0216 -0.0996,0.16219 -0.0996,0.49219 0,0.26122 0.0267,0.4164 0.0664,0.46484 0.009,-0.15408 0.0222,-0.30799 0.043,-0.46094 0.005,-0.0299 0.01,-0.0598 0.0137,-0.0898 0.004,-0.0262 0.008,-0.0519 0.0117,-0.0781 0.004,-0.0335 0.0107,-0.0694 0.0117,-0.10351 0,-0.0114 4.8e-4,-0.0188 -0.002,-0.0293 -0.004,-0.0394 0.006,-0.0678 0.0215,-0.084 -0.002,-0.006 -0.002,-0.0141 -0.004,-0.0195 -0.0222,-0.055 -0.0432,-0.0846 -0.0625,-0.0918 z m -0.0606,2.5332 c -0.0336,0.0336 -0.0567,0.14564 -0.0644,0.33203 -0.0119,0.2894 0.0442,0.45737 0.12695,0.43555 0.003,-0.0897 0.006,-0.17981 0.01,-0.26953 0.004,-0.099 0.009,-0.19798 0.0137,-0.29688 0.001,-0.0254 0.003,-0.0508 0.004,-0.0762 0,-0.01 -0.006,-0.0244 -0.006,-0.0352 -0.0298,-0.0455 -0.0622,-0.11317 -0.084,-0.0898 z m -41.919919,27.19922 c -0.03364,0.0336 -0.05675,0.14759 -0.06445,0.33398 -0.01389,0.3373 0.06164,0.52627 0.167969,0.41993 0.1063,-0.10633 0.117848,-0.38229 0.02539,-0.61329 -0.05106,-0.12763 -0.09526,-0.17426 -0.128907,-0.14062 z m -0.320312,5.12109 c -0.03364,0.0336 -0.05675,0.14564 -0.06445,0.33203 -0.01389,0.3373 0.06164,0.52627 0.167969,0.41993 0.106242,-0.10633 0.11779,-0.38228 0.02539,-0.61328 -0.05106,-0.12764 -0.09526,-0.17232 -0.128906,-0.13868 z m -6.328125,11.5586 -0.06445,0.0586 c -0.0041,0.01 -0.0094,0.02 -0.01563,0.0293 z m -22.152344,4.44531 c -0.0839,0.0839 -0.05742,0.30643 0.05859,0.49414 0.31558,0.51055 0.499583,0.40957 0.283203,-0.1543 -0.10422,-0.27159 -0.257897,-0.42374 -0.341797,-0.33984 z" />
      <path
         id="outline"
         style="display:inline;fill:#36524e;stroke-width:0.32"
         d="m 120.85645,91.613872 c -0.1347,-0.137373 -1.37706,1.05126 -2.76172,2.640625 -1.38467,1.589364 -2.59811,2.892485 -2.69531,2.896485 -0.38744,0.01583 -3.4962,3.101468 -4.1836,4.152348 -1.13344,1.73282 -2.9172,3.51515 -4.1621,4.1582 -0.6216,0.32107 -2.20709,1.69779 -3.52149,3.05859 -1.31439,1.3608 -2.78553,2.83695 -3.26953,3.28125 -0.484002,0.44431 -0.878907,0.9928 -0.878907,1.21875 0,0.22595 -0.495556,0.78972 -1.101562,1.25196 -0.6434,0.4907 -1.592541,1.79417 -2.279297,3.13476 -0.646866,1.26272 -1.532034,2.77408 -1.96875,3.35742 -0.775346,1.03567 -0.811103,1.04744 -1.445313,0.48047 -0.587586,-0.52528 -2.268825,-2.90953 -2.328125,-3.30078 -0.0593,-0.39145 -2.559038,-4.03545 -2.986328,-4.35352 -0.270226,-0.20097 -0.388177,-0.5819 -0.273437,-0.88085 0.11461,-0.29869 0.0449,-0.5254 -0.16211,-0.5254 -0.200616,0 -0.593237,-0.19215 -0.871093,-0.42578 -0.27786,-0.23364 -1.153317,-0.6083 -1.945313,-0.83398 -0.791996,-0.22569 -2.734367,-1.17939 -4.318359,-2.11914 -1.583996,-0.93975 -3.892574,-2.08054 -5.128906,-2.53516 -2.019302,-0.74252 -2.588342,-1.1701 -5.59961,-4.19726 -2.057752,-2.06864 -3.683268,-3.437435 -4.208984,-3.544925 -0.56116,-0.11473 -0.797367,-0.327741 -0.685547,-0.619141 0.10822,-0.282 -0.04701,-0.444406 -0.423828,-0.441406 -0.33667,0.0028 -0.452498,0.107034 -0.267578,0.240234 0.487546,0.35124 0.408828,3.134158 -0.08594,3.035158 -0.22,-0.044 -0.40039,0.0482 -0.40039,0.20508 0,0.15689 -0.539223,0.50294 -1.199219,0.76757 -0.982236,0.39383 -3.620728,2.2098 -5.40625,3.72071 -0.20125,0.17026 -0.435435,0.24035 -0.519531,0.15625 -0.15808,-0.15808 -3.884525,2.7555 -5.435547,4.25 -0.880876,0.84878 -1.589749,2.03356 -0.988263,2.03356 0.176,0 0.748028,-0.46984 0.748028,-0.63708 0,-0.46822 5.308976,-4.7924 6.488282,-5.28515 0.574916,-0.24022 1.545653,-0.89228 2.158203,-1.44922 0.612546,-0.55693 1.720231,-1.29406 2.460937,-1.63672 0.740706,-0.34266 1.433383,-0.76261 1.539063,-0.9336 0.334556,-0.54129 1.433406,-0.3504 1.441406,0.25 0.02302,1.83431 4.541844,8.73231 8.111328,12.38282 1.385226,1.41668 3.272723,3.51225 4.195313,4.65625 2.233018,2.76892 3.182994,3.68087 4.46875,4.29101 2.060478,0.97776 2.509079,0.60366 2.853515,-2.37109 0.34339,-2.9658 0.527248,-3.63567 1.339844,-4.87305 0.430956,-0.65623 0.783203,-1.35244 0.783203,-1.54687 0,-0.88379 0.918846,0.13936 2.548828,2.83789 1.936162,3.20531 3.71485,5.31289 4.759766,5.64453 0.730806,0.23195 0.743774,0.29004 1.308594,5.45703 0.492646,4.50675 0.230985,36.54133 -0.302735,37.07422 -0.09118,0.091 -0.55499,0.21745 -1.03125,0.28125 -0.476246,0.0638 -1.230805,0.43146 -1.675781,0.81836 -1.573456,1.36811 -3.449435,2.61382 -3.703125,2.45703 -0.14134,-0.0874 -0.344462,0.11497 -0.451172,0.45117 -0.29123,0.9176 -4.889057,1.1365 -6.818359,0.32422 -0.7518,-0.31652 -2.152966,-0.72091 -3.113282,-0.89844 -2.745028,-0.50744 -6.742364,-2.75045 -7.90039,-4.43359 -0.69106,-1.00443 -0.918601,-1.64603 -0.800781,-2.25781 0.934396,-4.8524 1.178727,-7.17369 1.179687,-11.21875 6.7e-4,-2.53158 -0.132955,-5.12335 -0.296875,-5.75977 -0.16393,-0.63642 -0.462123,-1.98334 -0.662109,-2.99219 -0.19999,-1.00884 -0.561758,-2.23159 -0.804688,-2.71875 -0.962496,-1.93003 -1.435547,-4.73201 -1.435547,-8.50781 0,-4.48133 -0.51753,-6.827 -2.164062,-9.81836 -1.395646,-2.53556 -1.246388,-2.34613 -1.648438,-2.09765 -0.207996,0.12856 0.227798,1.292 1.152344,3.07421 l 1.488281,2.86719 0.253907,5.03711 c 0.240586,4.76513 0.858637,8.35723 1.589843,9.23828 0.1805,0.21749 0.642041,1.95287 1.025391,3.85742 0.915286,4.54732 0.961742,12.05086 0.09961,16.10352 -0.318246,1.496 -0.61405,3.22384 -0.65625,3.83984 -0.04223,0.616 -0.492873,1.91286 -1.001953,2.88086 -0.723576,1.37589 -0.93299,2.21379 -0.96289,3.83985 -0.02102,1.144 -0.215581,3.15851 -0.431641,4.47851 -0.21606,1.32 -0.503232,3.17051 -0.638672,4.11133 -0.13544,0.94082 -0.377766,1.80474 -0.539062,1.91992 -2.268082,1.61967 -3.150057,2.01445 -4.101563,1.83594 -0.559566,-0.10497 -1.560493,-0.70366 -2.224609,-1.33008 -1.233776,-1.16374 -3.042624,-2.08207 -5.291016,-2.6875 l -1.261719,-0.33984 0.146485,-1.83399 c 0.354616,-4.46414 0.885261,-7.64358 1.460937,-8.74804 0.60467,-1.16004 1.544922,-1.89346 1.544922,-1.20508 0,0.18794 0.683535,1.02238 1.519531,1.85351 0.835996,0.83113 1.985658,2.03437 2.554688,2.67383 1.463992,1.64519 3.015958,2.05207 4.9375,1.29688 0.820616,-0.32251 1.499812,-0.73025 1.507812,-0.90625 0.01909,-0.41107 -0.811952,-0.3379 -2.080078,0.18164 -1.429022,0.58545 -2.391006,0.093 -5.333984,-2.72852 -2.314042,-2.21851 -2.898991,-3.05273 -2.144531,-3.05273 0.415536,0 0.421158,-5.62239 0.0078,-7.43555 -0.668116,-2.93104 -1.713143,-8.83435 -1.943359,-10.98047 -0.13311,-1.24082 -0.394802,-2.82435 -0.582032,-3.51953 -0.542286,-2.01362 -1.369175,-5.35344 -1.541015,-6.22461 -0.08679,-0.44 -0.421451,-1.6647 -0.744141,-2.7207 -0.3227,-1.056 -0.754711,-2.71169 -0.960937,-3.67969 -0.20623,-0.968 -0.542124,-2.33506 -0.746094,-3.03906 -0.23024,-0.79467 -0.364469,-3.78178 -0.355469,-7.87695 0.01233,-5.5781 0.09583,-6.71994 0.542969,-7.40235 0.494656,-0.75496 0.455581,-1.20117 -0.105469,-1.20117 -0.13252,0 -0.466681,0.68353 -0.742187,1.51953 -0.36154,1.09703 -0.523382,3.07943 -0.580078,7.12109 -0.08563,6.09865 0.211017,8.18296 2.001953,14.08008 1.192622,3.92705 2.425006,9.12248 2.882812,12.15821 0.19906,1.31996 0.484066,2.68901 0.634766,3.04101 0.15069,0.352 0.272531,0.99949 0.269531,1.43945 -0.0032,0.44 0.147598,1.7369 0.335938,2.88086 1.199332,7.28473 1.457626,10.77089 0.84375,11.38477 -0.26222,0.26222 -0.563082,0.46462 -0.669922,0.44922 -0.10683,-0.0154 -0.632136,0.5755 -1.166016,1.3125 -1.092966,1.50882 -1.476623,3.26666 -1.755859,8.04687 l -0.173828,2.99024 c 0.05112,0.0146 0.10051,0.0489 0.152343,0.0781 0.01347,0.0148 0.02659,0.0273 0.03906,0.043 0.01924,0.0242 0.03623,0.0509 0.05078,0.0781 9.74e-4,9.8e-4 9.78e-4,0.003 0.002,0.004 0.02471,0.0247 0.04946,0.0495 0.07422,0.0742 0.02201,0.022 0.04019,0.0446 0.05664,0.0664 l 0.59375,0.33984 0.978515,0.56055 -0.693359,1.12109 c -0.54876,0.88793 -0.691396,1.61782 -0.691406,3.52539 -10e-6,2.82866 0.932305,5.34523 2.550781,6.88477 2.281052,2.1698 3.513068,3.14066 4.527344,3.56445 0.793944,0.33173 2.274121,0.0705 3.048828,-0.3125 0.02022,0.0339 0.04636,0.0234 0.08203,-0.0293 0.204075,-0.10895 0.328184,-0.22489 0.380859,-0.34179 0.0386,-1e-4 0.07802,-0.0218 0.113282,0 0.145916,0.0902 0.855855,-0.41968 1.576171,-1.13281 l 1.308594,-1.29688 0.289063,0.75977 c 0.557576,1.4665 1.277534,7.1604 1.52539,12.07031 0.25519,5.05458 0.293694,17.6698 0.06641,21.44726 -0.07874,1.30858 -0.01756,1.94133 0.320312,2.51758 -0.693336,-0.0294 -3.364969,1.60725 -4.791016,3.15821 -3.211454,3.49269 -4.313075,6.77337 -3.947265,11.75585 0.335296,4.56686 0.975236,5.52592 4.27539,6.39649 3.084948,0.8138 4.912962,0.52017 8.759766,-1.40625 1.900632,-0.9518 4.059239,-2.21039 4.796875,-2.79688 0.737636,-0.58649 1.524107,-1.06831 1.748047,-1.07031 0.22393,-0.002 1.015696,-0.55491 1.759766,-1.23047 0.744056,-0.67557 1.820578,-1.4997 2.392578,-1.83008 0.571996,-0.33039 1.041015,-0.78565 1.041015,-1.01171 0,-0.22605 0.12668,-0.41016 0.28125,-0.41016 0.15456,0 0.809792,-0.76925 1.457032,-1.70898 0.892696,-1.29617 1.211679,-2.11653 1.318359,-3.4004 0.09697,-1.16696 0.337284,-1.86443 0.777344,-2.24609 0.546106,-0.47364 0.685734,-1.1962 0.958984,-5 0.17564,-2.44494 0.462049,-5.52375 0.636719,-6.84375 1.038186,-7.8459 1.35616,-9.94784 2.097656,-13.80664 1.071816,-5.5778 1.895017,-8.60026 3.033203,-11.1543 0.50982,-1.144 1.31312,-3.08831 1.785156,-4.32031 0.47204,-1.232 1.052226,-2.4648 1.291016,-2.74023 0.2388,-0.27543 0.598758,-0.97103 0.798828,-1.54493 0.20006,-0.57387 0.474305,-0.92463 0.609375,-0.77929 0.58219,0.62641 2.583083,7.36603 3.500003,11.78515 0.77889,3.7541 1.03413,5.91556 1.16601,9.91993 0.10424,3.16524 0.41724,6.39931 0.82031,8.47265 0.45495,2.3402 0.63732,4.46878 0.60352,7.04102 -0.027,2.02745 -0.0366,4.26283 -0.0215,4.96679 0.0153,0.704 0.0138,2.52152 -0.004,4.03907 -0.0376,3.28229 0.50635,5.36687 2.33789,8.97656 1.51071,2.97735 3.65327,4.9335 6.63281,6.05273 1.8514,0.69548 4.1972,1.88839 4.49414,2.28516 0.0965,0.12892 0.74589,0.44258 1.44141,0.69727 1.97944,0.72482 5.74365,0.64374 7.4043,-0.16016 0.76005,-0.36795 1.30277,-0.79901 1.20507,-0.95703 -0.0977,-0.15804 0.0396,-0.20402 0.30664,-0.10156 0.57637,0.22117 3.69477,-1.61465 5.38868,-3.17383 1.19413,-1.09922 1.40381,-1.77162 1.26953,-4.0586 -0.11235,-1.91328 -0.88794,-3.13368 -2.71094,-4.26757 -0.484,-0.30106 -0.87891,-0.76131 -0.87891,-1.02344 0,-0.26213 -0.82784,-1.00147 -1.83984,-1.64258 -1.012,-0.6411 -2.38658,-1.59329 -3.05469,-2.11523 -0.75072,-0.58647 -1.8851,-1.56513 -2.01367,-1.53711 -0.003,-0.007 0.004,-0.0148 0,-0.0215 -0.10174,-0.16462 0.16425,-0.57384 0.5918,-0.91015 0.42755,-0.33631 1.0122,-1.2297 1.29883,-1.98633 0.91932,-2.42681 2.11301,-8.09017 2.63085,-12.47461 0.27686,-2.34402 0.63293,-5.34211 0.78907,-6.66211 0.15614,-1.32 0.29078,-7.1268 0.30078,-12.9043 l 0.0176,-10.5039 0.82226,0.97851 c 1.19517,1.42033 2.85262,1.82985 5.45899,1.34961 1.15661,-0.21311 2.8439,-0.74991 3.75,-1.19336 0.9061,-0.44344 1.9948,-0.97666 2.41992,-1.18555 0.82901,-0.40732 2.42781,-3.25349 2.31445,-3.96484 0.3731,-0.52157 0.39428,-1.49172 0.37695,-2.18945 0.25918,-0.14201 0.45007,-1.35499 0.28907,-2.22656 -0.0975,-0.528 -0.0685,-1.38683 -0.30078,-1.91993 l -0.92969,-2.13281 c 0.0164,0.007 0.0438,0.0527 0.0566,0.0527 0.0776,0 0.14062,-0.14432 0.14062,-0.32032 0,-0.176 -0.1515,-0.32031 -0.33789,-0.32031 -0.048,0 -0.0632,0.0316 -0.0937,0.0488 l -0.13476,-0.3086 c -0.35919,-1.10438 -0.71471,-2.12343 -0.83985,-2.26171 -0.52213,-0.57695 -0.50692,-0.65042 0.29493,-1.51563 0.93283,-1.00657 0.93222,-1.03042 -0.17188,-4.92187 -0.37451,-1.32 -0.82606,-3.01177 -1.00391,-3.75977 -0.17785,-0.748 -0.44131,-1.36133 -0.58398,-1.36133 -0.14266,0 -0.34245,-0.33431 -0.44531,-0.74414 -0.10286,-0.40983 -0.54696,-0.90918 -0.98633,-1.10937 -0.43936,-0.20018 -0.89115,-0.73238 -1.00391,-1.18164 -0.11276,-0.44927 0.0266,-3.08447 0.31055,-5.85743 0.28391,-2.77292 0.51563,-5.7715 0.51563,-6.66406 0,-0.89256 0.37445,-4.058 0.83203,-7.0332 0.72388,-4.7067 0.82918,-6.35657 0.80468,-12.70313 -0.0343,-8.90987 -0.30999,-10.8816 -1.88086,-13.48242 -1.56038,-2.58354 -5.65373,-6.75861 -7.25781,-7.40234 -0.6941,-0.27855 -1.80861,-0.94014 -2.47851,-1.47071 -0.6699,-0.53053 -1.21875,-0.87527 -1.21875,-0.76562 0,0.10964 -0.31951,-0.0961 -0.70899,-0.458985 -0.38948,-0.362846 -2.33184,-1.177467 -4.31836,-1.808593 -4.0195,-1.277036 -3.86763,-1.07663 -3.14843,-4.117188 0.2497,-1.055996 0.34368,-2.03255 0.20898,-2.169922 z m -1.63281,3.5625 c 0,0.09158 -0.26778,1.182571 -0.59571,2.425781 -0.32792,1.243226 -0.77096,3.187207 -0.98437,4.318357 -0.29048,1.53969 -0.74024,2.54978 -1.78906,4.01953 -0.77052,1.0798 -1.78588,3.03474 -2.25586,4.34375 -0.48036,1.338 -1.64224,3.49823 -2.6543,4.93555 -0.99017,1.40623 -2.16156,3.08845 -2.60156,3.73633 -0.44,0.64787 -1.19329,1.4858 -1.67578,1.86328 l -0.87891,0.6875 -0.30859,-0.74219 c -0.17058,-0.40759 -0.62125,-1.82062 -1,-3.14062 -0.55338,-1.92862 -0.93524,-2.6282 -1.94727,-3.56446 l -1.25976,-1.16601 2.11914,-2.41992 c 1.16583,-1.33147 2.75099,-2.83926 3.52148,-3.34961 1.94813,-1.29039 3.2027,-2.45442 5.42969,-5.03321 1.96343,-2.273562 6.88086,-7.214234 6.88086,-6.914058 z m 0.75976,2.060547 c 0.0866,-0.08655 0.70735,0.134508 1.37891,0.492188 0.67157,0.357676 2.01247,0.895382 2.98047,1.195312 2.33168,0.722446 3.40732,1.277941 5.03906,2.599611 0.71377,0.57813 1.40141,0.92956 1.66211,0.87109 0.13243,0.26449 0.73606,0.72481 1.375,0.98047 0.74314,0.29734 1.71447,0.99742 2.1582,1.55469 0.44372,0.55727 1.30978,1.51533 1.92578,2.1289 0.616,0.61361 1.51298,1.76612 1.99219,2.56055 1.92954,3.19875 1.93503,3.22481 2.09766,10.40625 0.14225,6.2812 -0.008,9.03072 -0.9043,16.63672 -0.83689,7.09827 -1.35709,13.94022 -1.40039,18.42969 l -0.0469,4.98828 -1.25391,1.93555 c -1.75002,2.70275 -3.82379,3.93196 -6.61328,3.91796 -1.25482,-0.006 -2.26337,-0.18662 -2.63867,-0.4707 -0.33393,-0.25276 -0.72205,-0.38808 -0.86329,-0.30078 -0.14124,0.0873 -0.39001,-0.0972 -0.55273,-0.41016 -0.33228,-0.639 -0.0346,-1.77202 0.4375,-1.66796 0.9512,0.20965 1.48421,-3.48658 0.67383,-4.66993 -0.63911,-0.93325 -0.94126,-2.3156 -0.97656,-4.4707 -0.0263,-1.60599 -0.27708,-2.42215 -1.54102,-4.99023 -0.92285,-1.8751 -1.71073,-4.05466 -2.02344,-5.59961 -0.28162,-1.39136 -0.78293,-3.82616 -1.11328,-5.41016 -1.75953,-8.43693 -1.97589,-11.27125 -1.46289,-19.12109 0.38908,-5.9536 -0.21251,-5.81874 -0.71484,0.16015 -0.61503,7.32039 -0.48684,9.97843 0.75195,15.43946 0.23954,1.05596 0.58011,2.78579 0.75586,3.84179 1.10749,6.65436 1.36922,7.64051 2.78711,10.53516 1.91328,3.90599 2.05249,5.00529 0.92187,7.24609 -0.94514,1.87321 -2.48351,4.18644 -3.51171,5.2793 -0.352,0.37411 -1.03808,1.13449 -1.52344,1.68945 -0.48536,0.55495 -1.09674,1.00977 -1.35938,1.00977 -0.26264,0 -0.47656,0.11341 -0.47656,0.25195 0,0.13855 -0.2935,0.27388 -0.65039,0.30078 -0.3569,0.0269 -1.47142,0.50627 -2.47852,1.06641 -1.00711,0.56013 -2.76811,1.52833 -3.91211,2.15234 -1.98496,1.08275 -2.26337,1.14454 -6.10546,1.32227 -4.843138,0.22403 -6.097001,0.0618 -7.949223,-1.02149 l -1.416016,-0.82812 0.08008,-3.77344 c 0.04459,-2.07591 0.151581,-3.88906 0.238281,-4.0293 0.08665,-0.14024 0.152531,-6.53577 0.144531,-14.21093 -0.01349,-13.42055 0.0083,-13.93318 0.5625,-13.43164 0.810396,0.73341 2.651903,0.66277 3.505859,-0.13282 0.827778,-0.77119 0.869518,-1.28896 0.210938,-2.5625 -0.74288,-1.43652 -1.982593,-1.2971 -3.261719,0.36719 l -1.009765,1.3125 -0.167969,-1.07226 c -0.26336,-1.67959 -0.657978,-6.76175 -0.580078,-7.47071 0.231986,-2.11085 4.206863,-8.18459 5.333981,-8.15039 0.18335,0.006 0.7126,0.34387 1.17578,0.75196 0.78571,0.69221 1.18904,1.64 2.70118,6.35742 0.46891,1.46298 0.72548,1.83984 1.25585,1.83984 0.7048,0 2.75053,-1.95791 4.01172,-3.83984 0.41282,-0.616 1.4881,-2.12738 2.38868,-3.35938 1.58583,-2.16951 2.07184,-3.12291 3.21679,-6.30859 0.29803,-0.82923 1.0011,-2.05198 1.5625,-2.71875 1.28817,-1.52993 1.61356,-2.38267 2.39453,-6.28711 0.34708,-1.735206 0.70051,-3.225901 0.78711,-3.312501 z m -55.253904,1.826172 c 0.06509,0 1.735759,1.619609 3.712891,3.599609 3.190778,3.1954 3.858134,3.7081 5.947266,4.55859 1.294512,0.52699 3.582882,1.70981 5.083984,2.62696 1.501106,0.91715 3.443783,1.92379 4.318359,2.23828 0.87457,0.31449 1.663354,0.76119 1.751954,0.99219 0.146416,0.38156 -0.163368,1.18137 -1.408204,3.63281 -0.236886,0.46652 -0.596881,1.97789 -0.800781,3.35937 -0.2039,1.38149 -0.532939,2.6914 -0.730469,2.91016 -0.589076,0.65241 -2.375009,-0.53374 -4.263671,-2.83203 -0.92492,-1.12551 -2.741637,-3.19747 -4.039063,-4.60547 -3.459844,-3.75474 -4.158907,-4.61337 -5.345703,-6.56055 -0.589996,-0.968 -1.348254,-2.04839 -1.683594,-2.40039 -0.967846,-1.01594 -2.167601,-3.86896 -2.425781,-5.77148 -0.13045,-0.960934 -0.182288,-1.748049 -0.117188,-1.748049 z M 99.41895,128.65684 c 0.149979,0.0117 0.236959,0.0496 0.224609,0.10938 -0.02474,0.1196 0.0666,0.61527 0.203125,1.10156 0.154956,0.55191 0.110569,1.05134 -0.119141,1.32812 -0.202386,0.24387 -0.911152,0.49344 -1.574218,0.55664 -1.093046,0.10424 -1.210466,0.0401 -1.259766,-0.6875 -0.07175,-1.05833 0.834409,-2.17252 1.921875,-2.36328 0.23993,-0.0421 0.453533,-0.0566 0.603516,-0.0449 z m -0.07813,11.71289 c -0.290469,-0.0315 -0.611255,-0.0224 -0.964844,0.0273 -1.100026,0.15571 -1.250427,2.26636 -0.238281,3.34375 0.828686,0.88205 2.237805,1.00438 2.982425,0.25976 0.61799,-0.61803 0.6233,-0.83266 0.0449,-2.2168 -0.35765,-0.85598 -0.95282,-1.31944 -1.82421,-1.41406 z m -0.285157,0.61328 c 1.184857,0 2.240277,1.35174 1.712887,2.19336 -0.827882,1.32117 -2.666012,0.45519 -2.666012,-1.25586 0,-0.82632 0.113159,-0.9375 0.953125,-0.9375 z m 0.341797,9.91992 c -1.299756,0 -2.491133,2.94501 -1.617187,3.99805 0.593586,0.71523 2.439157,0.60572 3.236337,-0.1914 1.17938,-1.17943 0.062,-3.80665 -1.61915,-3.80665 z m 0.07031,0.69922 c 0.112766,-0.0139 0.229149,-0.0136 0.349609,0.004 0.847851,0.12211 1.451161,1.65077 0.960931,2.43359 -0.19362,0.30919 -0.84311,0.58608 -1.507806,0.64258 -1.139286,0.0969 -1.167969,0.0719 -1.167969,-1.01758 0,-1.13482 0.575868,-1.9654 1.365235,-2.0625 z m 26.1875,5.56055 c 0.15877,0.0981 0.28906,0.515 0.28906,0.92578 0,0.41078 0.21452,0.83033 0.47852,0.93164 0.32766,0.12574 0.48046,0.6383 0.48046,1.61524 0,1.46113 -0.47275,2.25037 -0.73828,1.23242 -0.10962,-0.4202 -0.15599,-0.37645 -0.18359,0.17187 -0.0204,0.40473 -0.51139,1.22276 -1.08984,1.81836 -1.20752,1.24334 -4.52347,3.20444 -5.94922,3.51758 -0.53255,0.11697 -1.29887,0.46258 -1.70313,0.76953 -0.88876,0.67479 -2.94679,1.44641 -5.53515,2.07422 -1.056,0.25612 -2.92816,0.81999 -4.16016,1.25391 -2.54287,0.8956 -4.59779,1.38714 -4.24023,1.01367 0.13238,-0.13828 0.0122,-0.50526 -0.26758,-0.81445 -0.27981,-0.30919 -0.46049,-0.81667 -0.40039,-1.12891 0.0931,-0.48344 0.5369,-0.58358 2.98828,-0.67578 1.59039,-0.0598 3.52476,-0.34331 4.32031,-0.63281 1.45594,-0.52982 4.60641,-2.40228 4.93359,-2.93164 0.0977,-0.15809 0.68754,-0.38313 1.31055,-0.5 0.62301,-0.11688 1.66928,-0.52138 2.32422,-0.89844 1.63797,-0.94303 5.34903,-4.42268 5.36133,-5.02735 0.015,-0.73674 1.44797,-2.92081 1.78125,-2.71484 z m 14.54687,0.19727 c 0.34194,0.11943 0.84706,1.12637 1.27539,2.84375 0.28251,1.13266 0.72869,2.9245 0.99219,3.98046 0.89103,3.57074 0.89025,3.54973 -0.0352,4.20118 -0.46721,0.32897 -1.4302,1.20021 -2.14062,1.93554 -0.71041,0.73533 -2.07325,1.70749 -3.0293,2.16016 -2.14387,1.01508 -2.55041,1.00524 -6.84179,-0.15625 -1.66482,-0.4506 -2.00781,-0.70014 -2.06641,-1.49609 -0.0234,-0.31734 -0.12531,-0.71772 -0.22656,-0.89063 -0.10124,-0.1729 -0.28508,-0.99825 -0.40625,-1.83398 l -0.21875,-1.51953 0.83984,0.32031 c 0.4622,0.17573 1.58746,0.31704 2.5,0.3164 2.10663,-0.002 4.71184,-1.48455 6.21484,-3.53711 0.57238,-0.78161 1.44949,-1.85289 1.94727,-2.38085 0.74392,-0.78904 0.88886,-1.20112 0.81836,-2.3125 -0.0641,-1.00899 0.0413,-1.53256 0.24023,-1.62696 0.0414,-0.0197 0.0879,-0.0208 0.13672,-0.004 z m -14.8125,0.49804 c -0.0936,0.053 -0.27552,0.24074 -0.54492,0.56446 -0.4394,0.528 -0.80455,1.09652 -0.81055,1.26171 -0.0172,0.44787 1.10449,-0.84103 1.375,-1.58007 0.079,-0.21581 0.074,-0.29912 -0.0195,-0.2461 z m -25.498042,2.32617 c -0.56075,0 -1.193097,0.17162 -1.404297,0.38282 -0.49679,0.49679 -0.49679,2.57547 0,3.07226 0.2112,0.2112 0.70335,0.38477 1.09375,0.38477 1.907269,0 2.641579,-1.07621 1.859369,-2.72461 -0.44161,-0.93063 -0.69885,-1.11524 -1.548822,-1.11524 z m 0.08008,0.3418 c 0.421412,0.0457 0.814852,0.24976 0.999992,0.5957 0.5764,1.077 0.39277,1.93456 -0.48828,2.26954 -0.45146,0.17164 -0.927284,0.3125 -1.056634,0.3125 -0.904336,0 -1.360487,-2.07506 -0.619141,-2.81641 0.293935,-0.29394 0.742647,-0.40707 1.164063,-0.36133 z m 40.078122,2.99805 c -0.45834,-0.0384 -0.90713,0.20358 -1.14258,0.74023 -0.17374,0.396 -0.42629,0.71875 -0.56055,0.71875 -0.49019,0 -0.22747,1.57725 0.31641,1.90039 0.852,0.50619 1.70799,0.26955 2.40234,-0.66406 0.56058,-0.75374 0.58219,-0.9404 0.18946,-1.75976 -0.27784,-0.57969 -0.74674,-0.89713 -1.20508,-0.93555 z m 0.17969,0.5039 c 0.55239,-0.007 0.79463,0.92265 0.42187,1.61915 -0.18554,0.34665 -0.66691,0.61718 -1.09961,0.61718 -0.92028,0 -1.30931,-0.5815 -0.60547,-0.85156 0.27418,-0.1052 0.34392,-0.32081 0.23438,-0.49805 -0.20969,-0.33929 0.42764,-0.87872 1.04883,-0.88672 z m -71.859375,0.8418 1.140625,1.17383 c 0.810412,0.78181 1.518818,1.10599 1.9375,1.86328 0.714434,0.16185 -0.0044,2.6e-4 0.734375,-0.043 0,0.176 0.158733,0.32031 0.351563,0.32031 0.19283,0 0.732049,0.2695 1.199219,0.59961 0.467166,0.33012 1.282547,0.69184 1.810547,0.80469 0.527996,0.11285 1.247609,0.26519 1.599609,0.33789 0.352,0.0727 1.470292,0.42302 2.486328,0.7793 1.469006,0.51507 2.535194,0.63588 5.201172,0.58398 3.163038,-0.0616 3.562293,-0.0548 3.562343,-0.68378 2e-5,-0.36666 0.09772,-0.57068 0.334357,-0.57068 0.553966,0 2.656014,-1.9066 2.656034,-2.3471 1e-5,-0.50973 2.322974,-1.2203 2.475974,-0.76131 0.06715,0.20142 0.269306,0.22019 0.430276,0.12069 0.16096,-0.0995 0.163258,0.0998 0.163258,0.38457 0,0.2848 0.274024,0.57501 0.450024,0.46624 0.175996,-0.10877 0.206815,-0.18399 0.206815,-0.009 0,0.17536 0.750164,0.84156 1.8861,1.40079 1.495126,0.73605 2.704124,1.02755 3.527406,0.93145 1.06957,-0.12487 0.83202,-0.14567 1.12884,0.92284 0.6371,2.29331 0.32331,2.97745 -2.034533,4.09486 -1.944046,0.92133 -4.592706,1.78834 -4.855842,1.52521 -0.09048,-0.0905 -0.867478,-0.29263 -1.705668,-0.44922 -2.550928,-0.47657 -4.695469,-2.37609 -4.695469,-4.14977 0,-0.23696 -0.320712,-0.46211 -0.496712,-0.46211 -0.176,0 -0.320312,0.37734 -0.320312,0.83984 0,0.79208 -0.07084,0.83094 -1.201172,0.65234 -0.66,-0.10428 -2.999227,-0.27681 -5.199219,-0.38281 -5.593276,-0.26952 -6.809749,-0.36525 -7.359375,-0.58008 -0.264,-0.10319 -1.057723,-0.24455 -1.761719,-0.31445 -1.496082,-0.14847 -2.07875,-0.33241 -3.919922,-1.23633 -1.182596,-0.5806 -1.359375,-0.80195 -1.359375,-1.70312 0,-0.56999 0.216469,-1.21645 0.480469,-1.43555 0.264,-0.2191 0.480469,-0.51521 0.480469,-0.6582 0,-0.14299 0.148531,-0.65602 0.332031,-1.13868 z m 56.677735,0.43555 c 0.43837,-0.004 1.42072,2.75004 1.82421,5.11719 0.225,1.31996 0.53902,3.09284 0.69922,3.9375 0.1602,0.84466 0.29297,1.74466 0.29297,2 0,0.50793 -0.0145,0.50882 -1.51562,0.15234 -1.08636,-0.258 -3.53163,-2.1506 -3.57813,-2.76953 -0.0149,-0.19845 -0.24026,-0.53639 -0.5,-0.75195 -0.4754,-0.39455 -2.14624,-3.63768 -2.28515,-4.43555 -0.041,-0.2358 0.34573,-0.66874 0.85937,-0.96094 0.51363,-0.29221 0.93654,-0.63948 0.9375,-0.77148 0.001,-0.132 0.25255,-0.24119 0.56055,-0.24219 0.308,-0.001 0.99348,-0.28704 1.52148,-0.63672 0.528,-0.34968 1.05983,-0.63767 1.1836,-0.63867 z m -6.23243,3.19726 c 0.30002,0 2.00782,3.10527 2.00782,3.65039 0,0.49859 2.96954,3.77416 3.98047,4.39063 0.53904,0.32874 1.5031,0.59897 2.14257,0.59961 1.24557,0.001 1.54374,0.44593 1.55274,2.32031 0.004,0.8195 -0.0878,0.88086 -1.32617,0.88086 -0.94592,0 -1.64952,-0.24561 -2.44141,-0.84961 -0.61228,-0.46697 -1.0495,-0.65622 -0.9707,-0.41992 0.28185,0.84555 1.84302,1.67994 3.42578,1.83203 l 1.60937,0.15625 0.0937,2.11914 c 0.0515,1.16633 0.0216,5.61269 -0.0664,9.88086 -0.088,4.26822 -0.088,7.76009 0,7.75977 0.2388,-0.001 0.0257,6.1882 -0.31446,9.12109 -0.83656,7.21386 -1.33078,10.61329 -1.61328,11.11523 -0.17198,0.30561 -0.3125,0.90582 -0.3125,1.33399 0,1.00154 -0.94144,4.72354 -1.31054,5.17969 -0.1555,0.1922 -0.18799,0.44474 -0.0723,0.56054 0.11581,0.11586 -0.067,0.21185 -0.4043,0.21485 -0.4173,0.003 -0.48629,0.0839 -0.21875,0.2539 0.29099,0.18486 0.22717,0.39334 -0.24414,0.79688 -0.35028,0.29992 -0.82363,0.54492 -1.05273,0.54492 -0.59306,0 -4.45541,2.37688 -6.69727,4.12109 -3.31715,2.58089 -2.89448,2.47651 -4.45312,1.10157 -0.76198,-0.67218 -1.50184,-1.40305 -1.64258,-1.62305 -0.14075,-0.22 -0.4635,-0.40039 -0.71875,-0.40039 -0.25526,0 -0.46484,-0.14431 -0.46484,-0.32031 0,-0.176 -0.1383,-0.32032 -0.30665,-0.32032 -0.71999,0 -2.86057,-2.4335 -2.95507,-3.35937 -0.0577,-0.56562 -0.26394,-0.92681 -0.50196,-0.87891 -0.30455,0.0613 -0.34409,-0.25309 -0.16015,-1.27929 0.36538,-2.03861 0.20995,-8.20103 -0.24805,-9.8418 -0.22107,-0.792 -0.41735,-2.05083 -0.43555,-2.79883 -0.0183,-0.748 -0.1034,-1.36069 -0.1914,-1.36133 -0.088,-6e-4 -0.20557,-2.1253 -0.25977,-4.7207 -0.10736,-5.13836 -0.22424,-7.02007 -0.48437,-7.75977 -0.0928,-0.264 -0.2335,-0.91145 -0.3125,-1.43945 -0.079,-0.528 -0.39311,-2.03941 -0.69727,-3.35937 -0.30416,-1.32 -0.59709,-2.68902 -0.65039,-3.04102 -0.0533,-0.352 -0.25536,-1.04814 -0.44922,-1.54687 -0.19388,-0.49877 -0.26952,-1.03799 -0.16992,-1.19922 0.0996,-0.16123 0.0282,-0.29297 -0.1582,-0.29297 -0.18639,0 -0.33985,-0.23032 -0.33985,-0.51172 0,-0.2814 -0.20173,-0.96493 -0.44922,-1.51953 -0.43184,-0.9677 -0.910036,-2.57582 -0.964836,-3.24805 -0.01435,-0.176 -0.386172,-0.36191 -0.826172,-0.41211 -0.667766,-0.0762 -0.930557,0.16132 -1.591797,1.43945 -0.435686,0.8422 -0.868337,1.60341 -0.960937,1.69141 -0.09258,0.088 -0.325575,0.52094 -0.519531,0.96094 -0.19397,0.44 -0.663266,1.48741 -1.041016,2.32812 -0.37776,0.84071 -0.685547,1.8002 -0.685547,2.13282 0,0.33263 -0.118762,0.65223 -0.263672,0.71093 -1.285462,0.52044 -4.63905,14.28306 -5.347656,21.94727 -0.11797,1.276 -0.351011,2.32031 -0.519531,2.32031 -0.16854,0 -0.22569,0.13396 -0.125,0.29688 0.10069,0.16292 0.03116,2.07115 -0.15625,4.24023 -0.18741,2.16908 -0.416813,4.82946 -0.507813,5.91211 -0.13422,1.59611 -0.282173,1.99789 -0.783203,2.12891 -0.339846,0.0889 -0.617187,0.43236 -0.617187,0.76172 0,0.65562 -1.044123,1.69921 -1.699219,1.69921 -0.22679,0 -0.556029,0.14391 -0.730469,0.31836 -0.28646,0.28646 -1.398762,0.57303 -4.5625,1.17383 -0.589606,0.11195 -1.164907,0.0739 -1.279297,-0.084 -0.11439,-0.15789 -0.627555,-0.50358 -1.140625,-0.76758 -0.557666,-0.28695 -1.095137,-0.93007 -1.335937,-1.59961 -0.28911,-0.80389 -0.420144,-0.93984 -0.464844,-0.48047 -0.0347,0.352 -0.03624,0.83396 -0.0039,1.07031 0.03476,0.25419 -0.538208,0.0184 -1.402344,-0.57617 -0.803466,-0.5528 -1.460937,-1.13207 -1.460937,-1.28906 0,-0.15699 -0.791747,-0.8353 -1.757813,-1.50586 -2.022452,-1.4038 -2.329022,-2.23161 -1.757812,-4.73828 0.800246,-3.51179 -0.119888,-25.07482 -1.283204,-30.08008 -0.816416,-3.51277 -0.906314,-4.31517 -1.083984,-9.66406 -0.07716,-2.32293 -0.224988,-4.36318 -0.330078,-4.53321 -0.10506,-0.17002 -0.07518,-0.35701 0.06641,-0.41601 0.20224,-0.0843 0.832478,-3.63383 1.398438,-7.86719 0.07183,-0.5374 0.528825,-0.50444 1.113281,0.0801 0.26392,0.26392 1.044822,0.56911 1.736328,0.67969 0.763916,0.12215 1.257813,0.37611 1.257813,0.64648 0,0.56471 -1.43951,3.38076 -2.634766,5.1543 -0.897006,1.33101 -0.805273,1.90667 0.126953,0.79883 0.780116,-0.92707 3.148438,-5.04755 3.148438,-5.47852 0,-0.29596 0.483781,-0.35636 1.839843,-0.22656 1.011996,0.0969 3.064555,0.25004 4.560547,0.33984 5.33677,0.32052 10.395319,0.6948 10.136719,0.75 -0.14457,0.0308 -0.02565,0.29271 0.263672,0.58203 2.143052,2.14306 5.669295,3.26588 8.314453,2.64649 0.882576,-0.20667 1.747828,-0.47697 1.923828,-0.59961 0.176,-0.12265 0.9703,-0.46132 1.763664,-0.75391 1.0511,-0.38763 1.65656,-0.8815 2.23438,-1.8164 0.64932,-1.05062 0.97363,-1.28321 1.78516,-1.28321 0.54508,0 1.07786,-0.0857 1.18359,-0.1914 0.10573,-0.10573 0.88081,-0.23607 1.72266,-0.28907 0.8418,-0.053 1.58208,-0.25398 1.64648,-0.44726 0.0644,-0.19328 0.45811,-0.35156 0.87305,-0.35156 0.41495,0 0.83429,-0.13228 0.93359,-0.29297 0.0993,-0.16068 0.79198,-0.39318 1.53906,-0.51758 1.57667,-0.26253 3.43126,-0.91236 5.08203,-1.7793 0.63996,-0.33609 1.3015,-0.61133 1.46875,-0.61133 z m 23.56055,1.34766 c 0.19869,0.0475 0.35707,0.25422 0.54297,0.60156 0.0306,0.0572 0.22889,0.63821 0.32031,0.88672 l 1.22071,4.08985 c -0.006,0.54141 0.42337,1.45823 0.39257,2.12304 -0.0279,0.6037 0.0388,1.20161 0.14453,1.4668 0.0377,0.0186 -0.0254,0.10602 0.006,0.13672 0.0119,0.0124 0.031,0.0726 0.0508,0.11328 -0.39343,0.99 -1.17589,3.56351 -1.60352,4.37695 -0.10776,0.40293 -0.25286,0.86644 -0.22656,0.77344 0.20385,-0.72095 -0.65915,0.28218 -1.26953,0.7168 -0.61038,0.43463 -1.28785,0.81761 -1.50586,0.84961 -0.218,0.032 -0.87156,0.29948 -1.45118,0.5957 -0.57958,0.29621 -2.20528,0.64975 -3.61328,0.78516 -2.27292,0.21859 -2.63293,0.17886 -3.20117,-0.35743 -0.352,-0.33222 -0.96896,-0.87249 -1.37109,-1.20117 -0.63651,-0.52026 -0.74936,-0.96552 -0.875,-3.43164 -0.12497,-2.45292 -0.53427,-5.23918 -1.25196,-8.51172 -0.17549,-0.8002 -0.11126,-0.88086 0.72266,-0.88086 0.5044,0 1.34022,0.21073 1.85742,0.46875 0.51721,0.25802 1.74102,0.56478 2.71875,0.67969 1.61328,0.18961 1.95178,0.11141 3.66797,-0.83984 1.0401,-0.5765 2.432,-1.60093 3.0918,-2.27735 0.85969,-0.88134 1.30167,-1.24323 1.63281,-1.16406 z m -88.537105,2.49805 c -0.278638,0.0215 -0.552925,0.14081 -0.791015,0.3789 -0.49168,0.49165 -0.499952,1.53711 -0.01172,1.53711 0.20538,0 0.279859,0.0932 0.164063,0.20899 -0.11581,0.1158 -0.05149,0.40442 0.144531,0.64062 0.764826,0.92156 2.199219,0.36015 2.199219,-0.86133 0,-1.15018 -0.869157,-1.96886 -1.705078,-1.90429 z m -0.05078,0.31445 c 0.61008,0 1.529259,1.21373 1.324219,1.74805 -0.10382,0.27056 -0.529123,0.49218 -0.945313,0.49218 -0.651476,0 -0.757812,-0.15489 -0.757812,-1.11914 0,-0.64634 0.161306,-1.12109 0.378906,-1.12109 z m -0.328125,6.9375 c 0.994138,-0.0961 3.355186,1.02566 4.876953,2.40039 0.824066,0.74444 1.671786,1.22266 2.169922,1.22266 0.975596,0 3.871837,-1.4087 4.091797,-1.99024 0.08524,-0.22537 0.167994,1.26237 0.183594,3.30664 0.01564,2.0443 0.122308,3.96066 0.236328,4.25782 0.33646,0.87674 -0.824701,2.9704 -2.158203,3.89453 -0.415552,0.28797 -0.723546,0.57517 -0.941406,0.82226 -0.380849,0.0747 -1.054366,0.31268 -1.335938,0.38867 -0.985786,0.26605 -3.824826,-0.7829 -4.007812,-1.48046 -0.08079,-0.308 -0.261714,-0.5586 -0.402344,-0.5586 -0.705596,0 -2.774996,-2.77012 -3.416016,-4.57226 -1.035266,-2.91058 -0.859198,-6.55446 0.367188,-7.57227 0.07979,-0.0662 0.193917,-0.10541 0.335937,-0.11914 z m 59.41601,5.67188 c -0.018,0.006 -0.0304,0.0345 -0.0332,0.0859 -0.0112,0.2056 0.0699,0.60659 0.17969,0.89258 0.10975,0.28598 0.25813,0.46258 0.32812,0.39258 0.07,-0.07 -0.0111,-0.47103 -0.17969,-0.89258 -0.12647,-0.31615 -0.24093,-0.4958 -0.29492,-0.47851 z m -31.474604,1.62304 c -0.09852,-0.0985 -0.276314,0.0789 -0.396484,0.39453 -0.17366,0.45606 -0.138302,0.49338 0.177734,0.17969 0.21869,-0.21706 0.31725,-0.47572 0.21875,-0.57422 z m 32.029294,0.12891 c -0.17392,0.018 -0.20696,0.42301 -0.041,1.01367 l 0.22071,0.78516 0.11328,-0.7461 c 0.0619,-0.41111 0.028,-0.83137 -0.0742,-0.93359 -0.0872,-0.0872 -0.16078,-0.12516 -0.21875,-0.11914 z m 0.0625,1.9668 c -0.0219,0.002 0.007,0.11162 0.0723,0.32812 0.0822,0.27264 0.3391,2.33868 0.57227,4.5918 0.23318,2.25308 0.48555,3.91249 0.56055,3.6875 0.20843,-0.62531 -0.63204,-7.74963 -0.97852,-8.29492 -0.13319,-0.20965 -0.20466,-0.31471 -0.22656,-0.3125 z m -33.880856,0.47265 c -0.02618,-0.0111 -0.05971,-0.007 -0.09961,0.0176 -0.15958,0.0986 -0.289063,0.387 -0.289063,0.64062 0,0.66232 0.216723,0.56947 0.412109,-0.17773 0.06908,-0.26418 0.0551,-0.4472 -0.02344,-0.48047 z m -2.78125,5.91992 c -0.15632,0 -1.126953,2.14698 -1.126953,2.49219 0,0.35732 0.313379,-0.16076 0.792969,-1.30859 0.272026,-0.65096 0.421984,-1.1836 0.333984,-1.1836 z m -1.583984,3.91602 c -0.16372,-0.16372 -0.827335,1.86213 -0.802735,2.45117 0.01178,0.28174 0.222217,-0.12908 0.466797,-0.91406 0.24459,-0.78498 0.395934,-1.47711 0.335938,-1.53711 z m 39.64648,0.0723 c -0.0579,-0.0216 -0.0996,0.16219 -0.0996,0.49219 0,0.44 0.0733,0.62039 0.16211,0.40039 0.0888,-0.22 0.0888,-0.58078 0,-0.80078 -0.0222,-0.055 -0.0432,-0.0846 -0.0625,-0.0918 z m 0.31836,2.24024 c -0.0579,-0.0216 -0.0977,0.16219 -0.0977,0.49219 0,0.44 0.0714,0.61843 0.16016,0.39843 0.0888,-0.22 0.0888,-0.57882 0,-0.79882 -0.0222,-0.055 -0.0432,-0.0846 -0.0625,-0.0918 z m -41.2207,2.2168 c -0.03971,0.0239 -0.104051,0.19407 -0.207031,0.51562 -0.14092,0.44 -0.260625,1.0153 -0.265625,1.2793 -0.0058,0.29407 0.09714,0.23194 0.265625,-0.16016 0.15126,-0.352 0.270625,-0.9273 0.265625,-1.2793 -0.0038,-0.25724 -0.01888,-0.37939 -0.05859,-0.35546 z m 41.48242,0.3164 c -0.0337,0.0336 -0.0568,0.14564 -0.0645,0.33203 -0.0139,0.3373 0.0616,0.52627 0.16797,0.41993 0.1063,-0.10633 0.11775,-0.38229 0.0254,-0.61329 -0.0511,-0.12763 -0.0953,-0.17231 -0.1289,-0.13867 z m -42.126951,2.46485 c -0.06416,0.0733 -0.198628,0.92457 -0.298828,1.89257 -0.11756,1.13618 -0.08835,1.47738 0.08398,0.96094 0.26458,-0.79285 0.439134,-3.10989 0.214844,-2.85351 z m -0.273438,4.49804 c -0.01464,-0.0108 -0.0317,-0.002 -0.05078,0.0254 -0.07633,0.10921 -0.18588,0.5209 -0.3125,1.21094 -0.14459,0.78797 -0.111995,0.97637 0.109375,0.63867 0.17306,-0.264 0.31536,-0.82662 0.31836,-1.25195 0.0025,-0.38515 -0.02054,-0.59067 -0.06445,-0.62305 z m -0.40625,4.70703 c -0.05247,-0.0302 -0.08984,0.2255 -0.08984,0.6875 0,0.616 0.06598,0.86855 0.146484,0.56055 0.0805,-0.308 0.0805,-0.81114 0,-1.11914 -0.02011,-0.077 -0.03915,-0.11884 -0.05664,-0.12891 z m 0.320313,3.83008 c -0.05483,-0.0567 -0.09706,0.1431 -0.101563,0.53906 -0.0065,0.52799 0.06074,0.78111 0.148438,0.56446 0.0877,-0.21665 0.09282,-0.64764 0.01172,-0.95899 -0.02029,-0.0778 -0.04032,-0.12561 -0.05859,-0.14453 z m -0.07422,2.41992 c -0.03364,0.0336 -0.05675,0.14565 -0.06445,0.33204 -0.01389,0.33726 0.06164,0.52626 0.167969,0.41992 0.1063,-0.10633 0.11779,-0.38228 0.02539,-0.61328 -0.05106,-0.12764 -0.09526,-0.17232 -0.128906,-0.13868 z m 0.958985,5.11914 c -0.03364,0.0336 -0.0548,0.14565 -0.0625,0.33204 -0.01389,0.3373 0.06164,0.52626 0.167968,0.41992 0.1063,-0.10633 0.117794,-0.38228 0.02539,-0.61328 -0.05106,-0.12764 -0.09722,-0.17232 -0.130858,-0.13868 z m -6.41211,0.99805 c 0.197465,0.27452 0.448679,0.55315 0.826172,0.89649 0.23261,0.21158 0.701626,0.63731 1.041016,0.94531 0.339376,0.308 0.709225,0.55859 0.822265,0.55859 0.11304,0 0.652263,0.44762 1.199219,0.99414 1.344156,1.34309 5.470112,3.48633 6.710938,3.48633 1.694482,0 5.101621,-0.83986 6.304687,-1.55469 l 1.140625,-0.67773 -0.08398,1.35547 c -0.04577,0.74617 -0.08961,1.3935 -0.09961,1.4375 -0.10055,0.46045 -0.190144,0.61787 -0.55664,0.98437 -0.23319,0.23319 -0.855063,1.0513 -1.382813,1.81836 -0.527756,0.76707 -1.242041,1.4846 -1.585937,1.59375 -0.34389,0.10915 -0.962104,0.58596 -1.375,1.06055 -0.77926,0.89569 -2.22798,1.89182 -3.197266,2.19922 -0.308,0.0977 -0.560547,0.30122 -0.560547,0.45117 0,0.1499 -0.240323,0.18062 -0.533203,0.0684 -0.34988,-0.13426 -0.455714,-0.0798 -0.308594,0.1582 0.30042,0.48609 -1.137589,1.41489 -6.037109,3.89453 -1.490766,0.75449 -2.342742,0.97051 -3.804688,0.97071 -2.001782,2.7e-4 -4.362533,-0.54766 -4.751953,-1.10352 -0.12931,-0.18458 -0.237234,-0.22109 -0.240234,-0.0801 -0.0027,0.14107 -0.353854,-0.12087 -0.78125,-0.58203 -0.758846,-0.81885 -0.774152,-0.94329 -0.669922,-5.375 0.12983,-5.51989 0.349038,-5.54297 0.677734,-5.54297 0.14454,0 0.140431,-0.36778 0.244141,-0.67578 0.583836,-1.73385 2.473203,-4.0831 2.943359,-3.66015 0.1349,0.12143 0.163962,0.0765 0.06445,-0.0996 -0.26104,-0.46213 1.025095,-1.91717 2.238281,-2.53125 0.528049,-0.26729 1.589481,-0.77425 1.755859,-0.99024 z m 57.007811,3.23242 c 0.22577,0.42181 1.23895,1.32461 2.10351,2.03907 0.89196,0.7371 1.53285,1.47926 1.43555,1.63671 -0.0973,0.15747 0.0413,0.20338 0.30664,0.10157 0.28163,-0.10807 0.78814,0.1458 1.2168,0.61133 2.57585,2.79733 3.25782,3.41992 3.75195,3.41992 0.30474,0 0.56919,0.18039 0.58789,0.40039 0.0187,0.22 0.13647,1.22823 0.25977,2.24023 0.16563,1.35938 0.12122,1.83985 -0.16797,1.83985 -0.21525,0 -0.33257,0.17805 -0.25977,0.39648 0.12535,0.37607 -0.46244,1.20313 -0.85547,1.20313 -0.33212,0 -1.62485,1.43402 -1.53515,1.70312 0.0484,0.145 -0.0455,0.18108 -0.20899,0.0801 -0.16351,-0.10106 -1.55413,0.47902 -3.08984,1.28906 -0.87766,0.46294 -1.48998,0.78073 -1.99219,0.99414 -1.03399,0.43938 -1.60362,0.43793 -3.07812,0.36133 -2.07635,-0.10786 -2.69752,-0.327 -6.99219,-2.46094 -3.98426,-1.9797 -4.96279,-2.61476 -6.33594,-4.11719 -0.8933,-0.97737 -1.70591,-2.18971 -1.80664,-2.69335 -0.10074,-0.50368 -0.31803,-0.91602 -0.48242,-0.91602 -0.1644,0 -0.19745,-0.16645 -0.0723,-0.36914 0.12528,-0.2027 0.0162,-0.52545 -0.24414,-0.71875 -0.95905,-0.71198 -1.70195,-6.25897 -0.90429,-6.75195 0.176,-0.10876 0.31836,-0.0652 0.31836,0.0976 0,0.163 0.61343,0.70235 1.36132,1.19727 0.74787,0.49492 2.08038,1.58329 2.96289,2.41797 2.55649,2.41778 3.32302,2.39572 6.12305,-0.17578 0.67884,-0.62345 1.36405,-1.13576 1.52344,-1.13672 0.15939,-8.4e-4 0.73469,-0.3393 1.2793,-0.75391 1.52049,-1.15755 3.65162,-2.16082 3.86328,-1.81836 0.10321,0.16699 0.39889,0.2238 0.65625,0.125 0.14189,-0.0544 0.22908,-0.1444 0.27539,-0.24219 z" />
    </g>
    <path
       id="path7332"
       style="fill:#999999;stroke-width:0.0324278"
       d="m 97.552734,170.55469 c -0.222225,6.1e-4 -0.509888,0.053 -0.857422,0.1582 -0.201027,0.0608 -0.131183,-8.7e-4 -0.182013,0.11034 -0.07749,0.16951 -0.574728,0.67747 -0.767205,0.79591 -0.08725,0.0537 -0.221278,0.11753 -0.298828,0.14063 -0.109228,0.0325 -0.21537,0.11531 -0.466797,0.36718 -0.475821,0.47665 -1.17326,1.01861 -1.71875,1.33789 -0.252418,0.14775 -0.424981,0.2199 -0.605469,0.25 -0.262716,0.0437 -0.390674,0.26121 -0.433594,0.74024 -0.0208,0.23212 -0.08931,0.34536 -0.251953,0.42187 0.0073,0.0262 0.01457,0.0522 0.01953,0.0781 0.01499,0.0934 0.019,0.18695 0.02148,0.28125 0.0018,0.0762 0.0016,0.15231 0.002,0.22851 1.03e-4,0.0241 7e-6,0.0482 0,0.0723 0.138086,0.0618 0.197387,0.20747 0.228516,0.55859 0.0553,0.62382 0.329833,1.20795 0.86914,1.85352 0.802031,0.96006 2.083264,1.77405 3.388672,2.15234 0.157239,0.0456 0.567848,0.14129 0.912109,0.21289 0.645013,0.13409 1.209585,0.28463 1.345703,0.35743 0.04267,0.0229 0.11648,0.0512 0.16211,0.0645 0.416634,0.12183 2.767717,-0.58325 4.468747,-1.3418 2.39611,-1.06851 3.06171,-1.97413 2.75,-3.73828 -0.12351,-0.69901 -0.37349,-1.48125 -0.52539,-1.64453 -0.17851,-0.19183 -0.32702,-0.21093 -1.08203,-0.14453 -0.37473,0.033 -0.48958,0.031 -0.79492,-0.0137 -0.68634,-0.10048 -1.3781,-0.35293 -2.47852,-0.90235 -1.20926,-0.60376 -1.903171,-1.05341 -2.011715,-1.30664 -0.07105,-0.16577 -0.133197,-0.19831 -0.259766,-0.13281 -0.232767,0.12036 -0.346775,0.0254 -0.390625,-0.32813 -0.01838,-0.1482 -0.04669,-0.2381 -0.0918,-0.2832 -0.06029,-0.0603 -0.0779,-0.0621 -0.195312,-0.0234 -0.160726,0.053 -0.276753,0.0252 -0.351563,-0.084 -0.146943,-0.21451 -0.187746,-0.23888 -0.404297,-0.23828 z m 0.486328,0.55078 c 0.202826,0 0.330079,0.13008 0.330079,0.33594 0,0.0808 -0.01641,0.18507 -0.03711,0.23047 -0.05208,0.11422 -0.16089,0.10461 -0.289062,-0.0234 -0.204079,-0.20407 -0.279947,-0.40951 -0.185547,-0.50391 0.0214,-0.0214 0.103584,-0.0391 0.18164,-0.0391 z m 1.400391,2.69141 c 0.965767,0 1.472457,0.038 1.949217,0.14453 0.93619,0.20913 1.02775,0.37722 1.09375,2.02734 0.052,1.30054 -0.0435,1.59545 -0.60156,1.87695 -0.36744,0.18536 -1.20555,0.34381 -2.343751,0.44141 -0.708431,0.0607 -2.059978,0.0874 -2.583984,0.0508 -0.68041,-0.0476 -1.012502,-0.1109 -1.648437,-0.31445 -0.532959,-0.17059 -0.832782,-0.40129 -0.9375,-0.71875 -0.1264,-0.38315 -0.145706,-1.35023 -0.03516,-1.77344 0.164753,-0.63068 0.612315,-1.05861 1.363281,-1.30859 0.818324,-0.27241 2.157619,-0.4258 3.744141,-0.42578 z" />
  </g>
</svg>
