<?xml version="1.0" encoding="UTF-8" standalone="no"?>
<!-- Created with Inkscape (http://www.inkscape.org/) -->

<svg
   version="1.1"
   id="svg4976"
   width="192"
   height="288"
   viewBox="0 0 192 288"
   xmlns="http://www.w3.org/2000/svg"
   xmlns:svg="http://www.w3.org/2000/svg">
  <defs
     id="defs4980" />
  <g
     id="g4982"
     transform="translate(4,4)">
    <g
       id="g4986"
       transform="translate(-0.17690387)">
      <path
         style="fill:#f9e7d3;stroke-width:0.32"
         d="M 66.521184,86.474182 C 65.950797,86.216723 64.32,84.371824 64.32,83.98401 c 0,-0.133978 -0.36,-0.715584 -0.8,-1.292455 -0.44,-0.57687 -0.8,-1.200201 -0.8,-1.385181 0,-0.209923 0.832138,-0.30815 2.21408,-0.261353 l 2.21408,0.07498 0.403472,1.21919 c 0.47761,1.443216 1.497843,2.228397 3.55007,2.732176 2.10793,0.51745 2.942007,0.46418 4.54736,-0.290425 1.127511,-0.529994 1.602493,-1.035059 2.425444,-2.579072 0.987606,-1.852941 1.058672,-1.912394 2.034425,-1.70193 0.556087,0.119946 1.54168,0.428407 2.190208,0.685472 l 1.179139,0.467386 -1.099139,1.71823 C 81.774611,84.316054 81.28,85.205536 81.28,85.347654 c 0,0.142119 -0.324,0.469386 -0.72,0.727264 -0.559427,0.364301 -2.147325,0.48722 -7.12,0.551159 -3.52,0.04526 -6.633469,-0.0231 -6.918816,-0.151895 z m 32.277654,-3.10046 c -0.660636,-0.606772 -1.411782,-1.221092 -1.669212,-1.365156 -0.73258,-0.409971 -0.239719,-1.550038 0.946188,-2.188691 l 1.05961,-0.570637 0.822176,0.93538 c 0.4522,0.51446 0.82673,1.050422 0.83229,1.191027 0.0155,0.390521 2.62301,1.489385 3.55311,1.497328 2.73399,0.02336 5.7295,-2.294304 6.45416,-4.993645 l 0.35454,-1.320672 2.10415,-0.17016 c 1.15728,-0.09359 2.14381,-0.131626 2.19228,-0.08453 0.21396,0.207885 -1.65753,3.376035 -1.99429,3.376035 -0.20642,0 -0.60103,0.468 -0.87692,1.04 -0.64367,1.334515 -3.39861,3.004134 -5.66669,3.434266 -0.94467,0.179155 -2.88593,0.325046 -4.31391,0.324204 -2.51319,-0.0016 -2.634778,-0.03685 -3.797482,-1.104749 z"
         id="path5002" />
      <path
         style="fill:#bd8247;stroke-width:0.32"
         d="m 88.64,113.19003 c -0.616,-0.18955 -2.128,-0.87461 -3.36,-1.52235 -1.232,-0.64774 -3.305776,-1.64472 -4.60839,-2.21551 -2.086951,-0.91447 -5.529712,-3.06528 -7.034237,-4.39452 -0.987904,-0.87281 -5.544487,-3.6833 -7.026787,-4.3341 C 65.790765,100.36361 65.048,99.974627 64.96,99.859139 c -0.088,-0.115485 -0.623107,-0.533357 -1.189126,-0.928605 -0.56602,-0.395244 -1.678829,-1.684307 -2.472909,-2.864582 -0.880506,-1.30873 -1.988067,-2.487907 -2.838883,-3.022445 -1.323818,-0.831705 -1.41642,-0.989475 -1.81234,-3.087776 -0.483427,-2.562054 -0.314377,-4.798557 0.450992,-5.966659 0.295565,-0.451088 1.131469,-1.209168 1.857565,-1.684618 3.433597,-2.248329 4.691101,-4.539155 3.551072,-6.469068 C 62.195974,75.309923 61.829059,74.88 61.691005,74.88 c -0.429395,0 -0.269943,-1.97209 0.370294,-4.579744 0.337559,-1.374861 0.703651,-3.822861 0.813536,-5.44 0.303427,-4.46536 0.207562,-4.27183 2.241904,-4.526003 C 66.086534,60.213085 66.88,59.98031 66.88,59.816973 66.88,59.653638 67.223245,59.52 67.642765,59.52 c 0.745529,0 1.792422,-0.992912 3.749619,-3.556272 0.457811,-0.5996 1.609811,-1.52073 2.56,-2.046954 L 75.68,52.96 81.92,52.94938 c 5.426352,-0.0092 6.636394,-0.107769 9.28,-0.75567 4.339642,-1.063571 11.74165,-1.323491 14.05014,-0.49337 1.18317,0.425463 1.84258,0.909613 2.41313,1.771779 1.07291,1.621268 3.04209,3.487882 3.67955,3.487882 0.5833,0 1.45994,2.36488 1.77931,4.8 0.22661,1.727782 0.73883,2.382445 2.98286,3.812352 0.93774,0.597539 1.89574,1.388205 2.12889,1.75704 0.23315,0.368835 0.57877,1.858195 0.76805,3.309693 0.18927,1.451494 0.65099,3.251494 1.02605,4 0.73246,1.461757 2.04334,2.800915 2.74179,2.800915 0.23663,0 0.43023,0.128365 0.43023,0.285254 0,0.15689 0.56876,0.512826 1.26391,0.79097 1.51953,0.607997 1.93609,1.296109 1.93609,3.198227 0,1.123363 -0.22672,1.738352 -1.04,2.821037 -0.572,0.761482 -1.38857,2.104512 -1.8146,2.984512 -0.91229,1.884387 -1.65718,2.904003 -3.84686,5.265648 -0.8902,0.960106 -1.61854,1.857101 -1.61854,1.993322 0,0.313334 -12.16476,12.421029 -12.47956,12.421029 -0.20792,0 -3.87414,2.59398 -5.13113,3.63044 -0.581726,0.47967 -2.625576,1.32512 -5.230996,2.16383 -2.045069,0.65832 -4.826861,0.74085 -6.598314,0.19576 z m 6.465061,-10.16525 c 4.077658,-0.61117 5.898839,-0.58141 5.557869,-0.92238 -0.33846,-0.33846 -3.687341,0.24041 -5.716591,0.68661 -1.738233,0.38221 -4.418339,0.29675 -5.826339,0.42311 -1.791165,0.16074 -2.367792,0.30764 -1.92,0.48913 0.73175,0.29658 4.826344,-0.21508 7.905061,-0.67647 z m -1.955518,-7.39319 c 1.134637,-0.574963 1.916051,-0.844608 2.178918,-1.598672 0.214825,-0.616246 0.243158,-1.149299 0.07028,-1.322179 -0.17288,-0.17288 -0.432,0.141504 -0.642723,0.779802 -0.777914,2.356381 -4.87681,3.314103 -7.220004,1.645604 -0.981891,-0.699168 -1.191688,-0.847136 -0.768594,-0.162568 0.383827,0.621043 2.609863,1.311168 3.838993,1.32303 1.007303,-0.118557 1.748329,-0.283042 2.54313,-0.665017 z M 80.434906,86.617571 c 0.880694,-0.380889 1.180355,-0.676237 1.044729,-1.029677 -0.199869,-0.520844 1.097987,-2.878732 1.995098,-3.624614 0.391536,-0.325533 0.421974,-0.475382 0.119552,-0.588573 C 83.371142,81.29119 82.694844,81.226675 82.469778,81.001609 81.314232,79.84606 77.803546,79.349875 71.52,79.905229 c -2.816,0.248883 -5.730435,0.374992 -6.476522,0.280243 -1.322278,-0.167926 -3.525334,0.3816 -2.723478,0.679338 0.22,0.08169 0.4,0.290131 0.4,0.463209 0,0.173075 0.362714,0.790224 0.806032,1.371443 0.473811,0.6212 0.724586,1.269002 0.608432,1.571696 -0.200266,0.521882 0.97897,1.93826 2.265536,2.721127 1.025517,0.624022 12.429642,0.319545 14.034906,-0.374714 z m 29.446014,-2.457453 c 1.97988,-1.007667 4.03908,-2.991017 4.03908,-3.89031 0,-1.049296 1.68477,-4.394246 2.32,-4.606138 0.92682,-0.309158 0.65148,-0.878694 -0.32,-0.661897 -1.44291,0.322006 -7.75313,1.446915 -10.16,1.8112 -1.232,0.186467 -2.888,0.567011 -3.68,0.845654 -0.792,0.278643 -2.027,0.712285 -2.744458,0.963645 -1.416816,0.496387 -3.341529,2.069066 -2.766707,2.260672 0.195367,0.06512 0.275895,0.325101 0.178951,0.577731 -0.09694,0.252627 -0.04301,0.459325 0.119849,0.459325 0.399293,0 2.802048,2.155888 2.852365,2.559302 0.02202,0.176384 0.058,0.406826 0.08,0.512093 0.02202,0.105271 1.948,0.140045 4.28,0.07728 3.751,-0.100957 4.42002,-0.205741 5.80092,-0.908554 z M 69.376317,72.914394 72.48,71.588787 77.92,71.435034 c 2.992,-0.08457 5.62,-0.297674 5.84,-0.473578 0.518045,-0.414202 0.51215,-3.361174 -0.0088,-4.390643 C 83.148384,65.37952 81.657174,65.083283 79.615386,65.74921 76.182419,66.868867 69.425987,70.17737 68.16287,71.357296 67.596054,71.886784 67.03457,72.32 66.91513,72.32 c -0.11944,0 -0.472352,0.432 -0.78425,0.96 -0.339136,0.574115 -0.424627,0.96 -0.212678,0.96 0.194924,0 1.751065,-0.596522 3.458092,-1.325606 z M 114.88,68.488218 c 0,-0.37784 -1.69049,-1.288218 -2.3921,-1.288218 -0.27714,0 -1.32829,-0.29977 -2.33589,-0.666154 -1.00761,-0.366387 -2.69601,-0.873401 -3.75201,-1.1267 -1.056,-0.2533 -2.90762,-0.762349 -4.11471,-1.131223 -2.531143,-0.773488 -4.560688,-0.700755 -6.471264,0.231914 -1.081498,0.527942 -1.267578,0.775395 -1.352535,1.798614 -0.05418,0.652551 0.05889,1.480551 0.251258,1.84 C 95.053373,68.782915 95.321555,68.8 104.97126,68.8 c 6.21838,0 9.90874,-0.116118 9.90874,-0.311782 z M 58.12057,81.373904 C 57.721578,80.974912 57.924426,77.87647 58.389824,77.261162 59.057219,76.378784 59.002666,76.00056 57.893027,73.816934 56.899485,71.86177 56.196016,68.85544 56.529008,67.98768 56.6556,67.657782 57.214723,67.52 58.426861,67.52 c 2.359373,0 2.827481,0.678682 2.32751,3.374499 -0.502403,2.708912 -0.406963,3.575536 0.514346,4.670451 0.446208,0.530285 0.810544,1.349104 0.809645,1.819604 -0.0016,0.856316 -1.302148,3.352873 -1.709015,3.280768 -0.118829,-0.02106 -0.628288,0.174886 -1.132128,0.435433 -0.503843,0.260544 -1.006333,0.383463 -1.116649,0.273149 z m 63.1835,-5.464816 c -0.25688,-0.396 -1.0618,-2.553024 -1.34917,-4.220058 -0.50921,-2.953977 -0.30205,-3.085363 0.35654,-5.172099 0.37166,-1.177622 0.86738,-2.300169 1.10159,-2.49455 0.66227,-0.549632 1.39998,-0.07496 1.80883,1.163862 0.3914,1.185962 0.30006,2.323191 -0.48303,6.013757 -0.26142,1.232 -0.4806,2.852 -0.48707,3.6 -0.0131,1.508502 -0.24013,2.199866 -0.94769,1.109088 z"
         id="skin" />
      <path
         style="fill:#b56415;stroke-width:0.32"
         d="M 72.181795,84.195267 C 72.061034,83.999872 71.570768,83.84 71.092317,83.84 c -1.222765,0 -2.351018,-0.865414 -2.230525,-1.710899 0.08022,-0.562864 0.347347,-0.707127 1.458208,-0.787501 1.237933,-0.08957 1.895955,0.346416 0.982429,0.650925 -0.630029,0.210009 -0.05022,1.11104 0.862336,1.340077 C 72.960186,83.53224 73.92,83.121328 73.92,82.581158 c 0,-0.121264 -0.29361,-0.535632 -0.652467,-0.920819 L 72.615069,80.96 73.347533,80.94374 c 0.402857,-0.009 1.343862,-0.0943 2.09112,-0.189677 1.059475,-0.135232 1.401933,-0.06064 1.555187,0.33873 0.237738,0.619539 -0.562141,1.914432 -1.604451,2.597379 -1.006992,0.659805 -2.925287,0.961878 -3.207594,0.505098 z m 30.981745,-2.853145 c -1.8632,-0.767264 -2.46115,-1.318935 -2.01382,-1.85794 0.60865,-0.733369 2.11052,-1.344144 2.57752,-1.048214 0.31949,0.202454 0.32807,0.275514 0.0328,0.279133 -0.5096,0.0062 -0.5203,1.036601 -0.016,1.540899 0.2112,0.2112 0.8592,0.384 1.44,0.384 0.84267,0 1.056,-0.129293 1.056,-0.64 0,-0.352 0.144,-0.64 0.32,-0.64 0.6124,0 0.31526,-0.566595 -0.39448,-0.752198 -1.03022,-0.269408 -0.36968,-0.732487 1.40611,-0.98576 1.68726,-0.24065 2.23088,0.166998 1.41902,1.064089 -0.28163,0.311194 -0.41661,0.661239 -0.29998,0.777875 0.31093,0.310928 -0.86076,1.495994 -1.47911,1.495994 -0.29108,0 -0.80876,0.211421 -1.1504,0.469824 -0.78949,0.597139 -1.26989,0.582602 -2.89762,-0.0877 z"
         id="eye" />
      <path
         style="fill:#9a642e;stroke-width:0.32"
         d="M 55.101821,85.053821 C 54.891818,84.843818 54.72,84.445498 54.72,84.168662 c 0,-0.276838 -0.375341,-1.940038 -0.834093,-3.696 C 53.427155,78.716698 52.938438,76.776 52.799866,76.16 c -0.13857,-0.616 -0.614842,-2.015699 -1.058381,-3.110438 -0.443539,-1.094743 -0.9056,-2.441943 -1.026803,-2.993773 -0.121204,-0.551834 -0.562298,-1.672138 -0.980212,-2.489562 -1.704502,-3.333949 -2.5299,-9.857744 -1.754694,-13.868781 0.54168,-2.802748 2.793334,-9.139209 3.745446,-10.540211 0.434618,-0.63952 0.913863,-1.57552 1.064989,-2.08 0.228144,-0.761558 0.279667,-0.591366 0.303571,1.002765 0.04362,2.908589 0.916666,7.73913 1.637924,9.062544 1.672003,3.067923 2.505712,4.327782 3.945321,5.961974 0.856368,0.972116 1.669277,1.698109 1.806471,1.613322 0.13719,-0.08479 0.327724,0.04984 0.423404,0.299178 0.09568,0.249337 0.506768,0.500579 0.91353,0.558316 0.529894,0.07521 0.71431,0.286378 0.650483,0.74482 -0.049,0.351916 -0.21951,2.439846 -0.378918,4.639846 -0.159408,2.2 -0.299856,4.072 -0.312109,4.16 -0.01226,0.088 -0.29271,-0.283475 -0.623238,-0.825501 -0.840426,-1.378201 -2.166743,-1.874928 -3.818596,-1.430131 -0.83472,0.224765 -1.373404,0.582899 -1.506224,1.001376 -0.356355,1.122771 0.194496,3.773498 1.160279,5.583331 1.044969,1.958231 1.142384,2.866496 0.449862,4.194346 -0.644,1.234819 -0.624621,3.301715 0.03548,3.784397 0.463472,0.338899 0.425706,0.476121 -0.36201,1.31528 -0.483708,0.515296 -1.048745,1.33192 -1.255638,1.814723 -0.291382,0.679961 -0.46223,0.791757 -0.757987,0.496 z M 59.84,61.581114 c 0,-0.274388 -0.144,-0.409888 -0.32,-0.301114 -0.176,0.108774 -0.32,0.333274 -0.32,0.498886 0,0.165613 0.144,0.301114 0.32,0.301114 0.176,0 0.32,-0.224499 0.32,-0.498886 z m 14.133104,22.714758 c 1.601123,-0.4928 3.251168,-2.091533 3.074138,-2.978544 -0.06965,-0.348995 -0.439047,-0.51632 -1.135245,-0.514234 -0.567597,0.0016 -1.031997,-0.1063 -1.031997,-0.24 0,-0.133702 0.650816,-0.243094 1.446259,-0.243094 1.386307,0 1.439946,0.03481 1.293971,0.839808 -0.28414,1.566938 -1.460281,2.867466 -2.954668,3.267155 -1.961108,0.524515 -2.494484,0.423543 -0.692458,-0.131091 z m -3.721072,-0.09479 C 69.411677,84.02095 67.84,82.317562 67.84,81.586915 c 0,-0.45056 1.12528,-0.674109 4,-0.79464 1.95473,-0.08196 2.520173,-0.03654 1.76,0.14136 -0.616,0.144163 -0.97464,0.281072 -0.796976,0.30424 0.177664,0.02317 0.509933,0.341408 0.738371,0.7072 0.473661,0.758451 0.03728,1.574925 -0.841737,1.574925 -0.411127,0 -0.394628,-0.0785 0.09117,-0.433725 0.377136,-0.275769 0.516304,-0.634 0.382128,-0.983651 -0.30351,-0.790938 -1.338742,-0.48425 -1.307552,0.387363 0.02992,0.83656 -0.43569,0.944042 -0.733021,0.169203 -0.115865,-0.301939 -0.04076,-0.5964 0.170042,-0.666665 C 72.148403,81.710531 71.597056,81.28 70.389958,81.28 c -2.079577,0 -2.16575,1.740989 -0.116812,2.360026 0.509769,0.154016 1.214854,0.396268 1.566854,0.538342 l 0.64,0.258317 -0.64,-0.01619 c -0.352,-0.0089 -1.066586,-0.107642 -1.587968,-0.219399 z m 32.024018,-2.48714 c -0.89294,-0.483644 -2.405253,-1.979315 -2.425938,-2.399251 -0.0056,-0.112921 0.336508,-0.292307 0.760158,-0.398637 0.42365,-0.106329 1.03565,-0.29311 1.36,-0.415065 0.34611,-0.130138 0.19314,0.125299 -0.37027,0.618329 -0.94301,0.825204 -0.94867,0.848484 -0.32,1.315168 0.352,0.261303 1.37518,0.725184 2.27374,1.030848 1.52431,0.518528 1.68448,0.520218 2.39121,0.02522 0.4166,-0.291798 0.98831,-0.530544 1.27047,-0.530544 0.28216,0 0.85122,-0.36 1.26458,-0.8 0.47148,-0.501865 0.59304,-0.8 0.32619,-0.8 -0.29644,0 -0.24189,-0.202755 0.17997,-0.668902 0.59402,-0.65639 0.5938,-0.677338 -0.0116,-1.12 C 108.39498,77.14728 108.41762,77.12 109.34888,77.12 c 0.8687,0 0.96863,0.08899 0.80857,0.72 -0.84348,3.325197 -5.0642,5.399808 -7.8814,3.873942 z M 103.744,80.256 c -0.465,-0.465005 -0.50963,-1.536 -0.064,-1.536 0.176,0 0.32,0.369565 0.32,0.821254 0,0.70713 0.12229,0.807184 0.88,0.72 1.33241,-0.153308 1.20506,-1.288537 -0.17624,-1.57104 -0.58093,-0.118816 -1.1245,-0.284284 -1.20792,-0.367712 -0.23866,-0.238652 3.59136,-0.976707 4.07289,-0.784854 0.2372,0.0945 -0.0282,0.183194 -0.58984,0.197088 -1.20789,0.02989 -1.73342,0.632467 -0.77109,0.884125 0.67787,0.177264 0.94583,0.741139 0.3522,0.741139 -0.176,0 -0.32,0.288 -0.32,0.64 0,0.510707 -0.21333,0.64 -1.056,0.64 -0.5808,0 -1.2288,-0.1728 -1.44,-0.384 z M 123.6,77.451658 c -0.572,-0.284675 -1.0378,-0.993645 -1.0351,-1.269716 0.004,-0.440912 0.0426,-0.44358 0.3151,-0.02195 0.21988,0.340247 0.31505,-0.07902 0.32686,-1.44 0.009,-1.056 0.23473,-2.928 0.50126,-4.16 0.26654,-1.232 0.56245,-2.614611 0.65759,-3.072467 0.22953,-1.104649 -1.04325,-4.045536 -1.86354,-4.305885 -1.09124,-0.346348 -2.09986,0.986605 -2.65486,3.508573 l -0.20471,0.930224 -0.92808,-1.125926 c -0.51045,-0.619258 -1.40204,-1.321904 -1.9813,-1.561434 -1.45755,-0.602701 -2.4434,-1.758211 -2.6722,-3.132054 -0.10634,-0.638567 -0.39758,-1.903194 -0.64719,-2.810282 -0.82775,-3.008083 -0.73142,-3.285638 2.18617,-6.299318 3.52567,-3.641786 3.28583,-3.280003 4.53004,-6.833168 0.60442,-1.726045 1.31688,-3.714263 1.58325,-4.418263 0.26637,-0.704 0.73193,-2.3984 1.03457,-3.765334 0.4656,-2.103014 0.48825,-2.692272 0.14721,-3.83056 -0.22167,-0.739875 -0.46621,-1.693555 -0.54341,-2.119288 -0.0772,-0.425734 -0.34255,-1.257981 -0.58968,-1.849439 C 121.51485,29.28392 121.44931,28.8 121.61633,28.8 c 0.16702,0 0.30367,0.109574 0.30367,0.243497 0,0.133924 0.51224,0.817924 1.13832,1.52 0.62608,0.702077 1.50787,1.852503 1.95954,2.556503 0.45167,0.704 1.08965,1.575398 1.41775,1.936438 0.8215,0.90401 2.16038,6.530964 2.57527,10.82321 0.20845,2.156528 0.2716,6.932176 0.16015,12.111907 -0.17205,7.996967 -0.23541,8.70256 -0.97693,10.88 -0.43613,1.280643 -1.10222,3.336445 -1.48022,4.568445 -0.76817,2.503674 -1.5472,4.518089 -1.8547,4.487171 C 124.74723,77.915907 124.172,77.736334 123.6,77.451658 Z M 127.36,60.16 c 0,-0.176 -0.144,-0.32 -0.32,-0.32 -0.176,0 -0.32,0.144 -0.32,0.32 0,0.176 0.144,0.32 0.32,0.32 0.176,0 0.32,-0.144 0.32,-0.32 z m -9.92,-4.141114 c 0,-0.377555 -0.62411,-0.78144 -0.85333,-0.55222 -0.22922,0.229222 0.17466,0.853334 0.55222,0.853334 0.16561,0 0.30111,-0.135501 0.30111,-0.301114 z M 127.04,50.24 c 0,-0.176 -0.144,-0.32 -0.32,-0.32 -0.176,0 -0.32,0.144 -0.32,0.32 0,0.176 0.144,0.32 0.32,0.32 0.176,0 0.32,-0.144 0.32,-0.32 z"
         id="hair2" />
      <path
         style="fill:#6c4c2b;stroke-width:0.32"
         d="m 70.34,84.261405 c 0.230998,-0.09244 0.506998,-0.08107 0.613334,0.02525 0.106333,0.106333 -0.08267,0.181965 -0.42,0.16807 C 70.16055,84.439363 70.084726,84.363542 70.34,84.261392 Z m -1.718838,-0.571229 c -0.341639,-0.2584 -0.458794,-0.4744 -0.260343,-0.48 0.198448,-0.0056 0.54008,0.205824 0.759181,0.469824 0.505853,0.609517 0.299136,0.613734 -0.498838,0.01018 z M 76.16,83.719181 c 0,-0.06645 0.252,-0.318448 0.56,-0.56 0.507539,-0.398039 0.518858,-0.38672 0.120819,0.120819 C 76.422781,83.81304 76.16,83.982554 76.16,83.719181 Z m -4.363459,-0.99704 C 71.685706,82.433302 71.748461,82.043539 71.936,81.856 c 0.487555,-0.487555 1.411331,-0.04195 1.283974,0.619357 -0.141856,0.736601 -1.167251,0.914377 -1.423433,0.246784 z M 72.96,82.4 c 0,-0.264 -0.216,-0.48 -0.48,-0.48 -0.264,0 -0.48,0.216 -0.48,0.48 0,0.264 0.216,0.48 0.48,0.48 0.264,0 0.48,-0.216 0.48,-0.48 z m -4.973158,0.13871 c -0.11601,-0.187708 -0.142298,-0.40992 -0.05842,-0.493801 0.08388,-0.08388 0.237779,0.0697 0.342,0.341289 0.216377,0.563876 0.03197,0.66306 -0.283584,0.152512 z M 104.08,82.339414 c 0.308,-0.08049 0.812,-0.08049 1.12,0 0.308,0.08049 0.056,0.146346 -0.56,0.146346 -0.616,0 -0.868,-0.06586 -0.56,-0.146346 z M 67.52,81.269958 C 67.52,81.099482 67.736,80.96 68,80.96 c 0.264,0 0.48,0.0566 0.48,0.125763 0,0.06917 -0.216,0.20865 -0.48,0.309959 -0.264,0.101305 -0.48,0.04471 -0.48,-0.125764 z m 40,0.209223 c 0,-0.06645 0.252,-0.318448 0.56,-0.56 0.50754,-0.398039 0.51886,-0.38672 0.12082,0.120819 -0.41804,0.53304 -0.68082,0.702554 -0.68082,0.439181 z M 69.7,80.741405 c 0.230998,-0.09244 0.506998,-0.08107 0.613334,0.02525 0.106333,0.106333 -0.08267,0.181965 -0.42,0.16807 C 69.52055,80.919363 69.444726,80.843542 69.7,80.741392 Z m 35.572,-0.632071 c 0.1804,-0.08947 0.328,-0.366668 0.328,-0.616 0,-0.559401 -1.1658,-0.604192 -1.38807,-0.05333 -0.0933,0.231222 -0.17206,0.154742 -0.18667,-0.181254 -0.0196,-0.449808 0.17375,-0.558359 0.85474,-0.48 0.61869,0.07119 0.88,0.283376 0.88,0.714588 0,0.337332 -0.1836,0.650532 -0.408,0.696 -0.2244,0.04547 -0.2604,0.0095 -0.08,-0.08 z M 109.44,79.36 c 0.18838,-0.352 0.41452,-0.64 0.50252,-0.64 0.088,0 0.006,0.288 -0.18252,0.64 -0.18838,0.352 -0.41452,0.64 -0.50252,0.64 -0.088,0 -0.006,-0.288 0.18252,-0.64 z m -8.64,-0.775312 c 0.89159,-0.53719 1.59279,-0.677338 1.104,-0.220653 -0.1672,0.156218 -0.664,0.378224 -1.104,0.493347 l -0.8,0.209316 z m 3.14,-0.723283 c 0.231,-0.09244 0.507,-0.08107 0.61333,0.02525 0.10634,0.106333 -0.0827,0.181965 -0.42,0.16807 -0.37278,-0.01536 -0.4486,-0.09118 -0.19333,-0.193331 z m 1.28,-0.32 c 0.231,-0.09244 0.507,-0.08107 0.61333,0.02525 0.10634,0.106333 -0.0827,0.181965 -0.42,0.16807 -0.37278,-0.01536 -0.4486,-0.09118 -0.19333,-0.193331 z"
         id="path4994" />
      <path
         style="fill:#40250a;stroke-width:0.32"
         d="m 145.19269,108.43033 c -0.27418,-0.5302 -0.63923,-1.38706 -0.63923,-1.61746 0,-0.23041 -0.17855,-0.1766 -0.53055,-0.39643 -0.352,-0.21982 -0.60873,-0.89299 -0.60873,-1.15192 0,-0.25893 -0.3641,-0.69004 -1.07668,-1.05357 -0.71258,-0.36352 -1.73224,-0.89292 -1.82636,-1.13821 -0.21688,-0.56519 -0.74172,-0.57882 -4.82759,-0.93291 -2.81453,-0.24391 -3.57997,-0.6115 -4.52509,-1.33238 -0.60836,-0.46401 -1.13737,-1.11741 -1.13737,-1.356437 0,-0.23903 -0.66752,-1.083336 -1.59804,-2.067352 -1.37044,-1.449223 -1.69937,-1.773481 -2.53144,-1.773481 -0.73079,0 -1.67832,-0.333946 -2.5896,-1.157235 -1.35123,-1.220759 -1.48951,-2.254195 -0.8112,-3.33206 1.40092,-2.226113 0.67945,-0.617029 1.65988,0.499621 0.56858,0.64758 1.05542,0.883465 1.23475,0.772633 0.18294,-0.113063 -0.5349,-0.923186 -0.7308,-1.08104 l -2.08884,-0.70753 1.37741,-2.141918 c 0.52059,-0.809527 1.0021,-1.579014 1.23137,-1.579014 0.22928,0 0.25556,-0.432274 0.36418,-0.865055 0.10862,-0.43278 0.38373,-0.923139 0.63046,-1.127911 0.24673,-0.204768 0.6206,-0.501949 0.6206,-0.832397 0,-0.330451 0.25345,-0.710273 0.42945,-0.710273 0.40964,0 0.38101,-1.61618 -0.0263,-3.061386 -0.17335,-0.614838 -0.53767,-1.405799 -1.01983,-1.795911 l -1.033,-0.678023 0.86818,-0.694441 c 0.41785,-0.334232 1.00891,-2.1401 1.00891,-2.397245 0,-0.933933 0.51333,0.864675 1.1477,2.350278 0.35699,0.836 1.01881,2.449818 1.41339,3.681818 0.39457,1.232 0.71514,2.474409 0.86525,2.780022 0.15011,0.305612 0.39802,0.640065 0.39802,0.838785 0,0.455578 2.48884,4.439034 3.27318,5.166964 6.02797,5.594458 8.08443,8.515093 9.99674,14.141138 0.38885,1.144 0.30957,1.63065 0.32071,1.27255 0.0112,-0.3581 -0.36066,-1.35858 -0.71159,-2.35705 -1.68874,-4.804755 -3.05578,-6.535305 -7.89067,-11.336159 -1.452,-1.441776 -2.57746,-3.020544 -2.57746,-3.164375 0,-0.143827 -0.25318,-0.510581 -0.65819,-0.948782 -1.20034,-1.298708 -2.12086,-3.154295 -3.0855,-6.650746 -0.24282,-0.880109 -0.65062,-2.479745 -1.19288,-3.535636 l -1.64282,-1.951075 0.82243,-2.302545 c 0.42632,-1.193567 0.67657,-2.730908 0.95501,-3.355504 l 0.53911,-1.209324 1.20884,0.525786 c 0.57051,0.248148 1.28842,1.353884 1.80432,2.360594 1.26986,2.478004 1.63492,3.116626 2.3072,3.870882 1.14226,1.281568 1.66704,2.904044 1.66704,6.268355 0,3.259408 0.0499,3.082275 1.25612,4.813286 0.66507,0.954058 1.41631,1.835018 2.07078,2.187018 0.65445,0.352 1.45612,1.079215 1.4566,1.23381 3.2e-4,0.154598 0.58056,0.880759 1.53753,1.785687 1.47297,1.392873 2.54887,2.873807 2.48401,3.533228 -0.009,0.088 0.14703,0.477708 0.36508,0.885132 0.21805,0.407421 0.51014,0.999057 0.57267,1.295636 0.0625,0.296576 0.32249,1.484687 0.61591,2.716687 0.29342,1.231995 0.67724,3.727145 0.75738,5.468335 0.0801,1.74118 -0.15351,3.31663 -0.11791,3.50099 0.0356,0.18437 -0.19457,0.90472 -0.49239,0.97012 -0.64649,-0.15472 -0.98024,-0.77346 -1.29015,-1.12657 z m 0.0317,-6.67033 c -0.62403,-4.190074 -1.65031,-7.150464 -2.93175,-8.631805 -0.48413,-0.559645 -0.9799,-1.548998 -1.33105,-2.026566 -0.35115,-0.477568 -0.92031,-0.733889 -1.24567,-0.837156 -1.00126,-0.317786 -3.51542,-2.193384 -4.5188,-3.336171 -0.6021,-0.685744 -1.27692,-2.145569 -1.83136,-3.934904 -1.90518,-6.148512 -4.04821,-10.819707 -4.09174,-10.501509 -0.0301,0.220009 0.14823,0.820287 0.60011,1.660482 0.78346,1.456711 3.18164,7.738839 3.72958,9.857057 0.49559,1.915875 1.70969,3.430051 3.5026,4.68119 0.98216,0.685376 1.90174,1.335876 2.25374,1.445559 0.73133,0.227875 3.44254,3.656524 4.32884,5.563097 0.73465,1.580349 1.63831,6.044106 1.97216,9.451996 0.16318,1.66576 0.13289,2.1375 0.20455,1.40873 0.0606,-0.616 -0.33977,-2.776 -0.64121,-4.8 z m -3.98761,-0.69612 c 0,-0.32266 -0.20916,-0.54565 -0.33104,-0.66752 -0.12187,-0.12187 -0.22218,-0.557505 -0.28024,-0.94897 -0.0581,-0.391466 -0.65767,-1.143754 -1.25602,-1.671754 -0.59834,-0.528 -1.14956,-1.299636 -1.26314,-1.695636 -0.11358,-0.396 -0.10755,-0.72 -0.34971,-0.72 -0.24216,0 -0.89428,-0.236973 -1.12426,-0.564829 -0.22997,-0.327856 -1.34177,-0.842507 -2.66177,-1.258334 -1.32,-0.415824 -2.73276,-1.067945 -3.12036,-1.468261 -0.3876,-0.400317 -0.8556,-0.665305 -1.04,-0.665305 -0.1844,0 -0.21019,-0.316225 -0.21019,-0.454276 0,-0.138054 -0.48837,-0.274401 -0.98971,-0.570551 -0.50134,-0.29615 -1.50752,-1.218213 -1.93018,-1.838805 -0.81388,-1.195037 -0.79404,-1.572965 -0.43604,-0.635275 0.27534,0.721197 0.64535,1.207245 3.17666,3.331264 1.90841,1.601344 4.2852,2.641101 5.72253,2.641101 0.28045,0 0.63761,0.413789 0.73635,0.671089 0.0987,0.257302 0.56366,0.367369 0.8994,0.473929 0.33574,0.10656 0.67299,0.509133 0.67299,0.665271 0,0.15614 0.31309,0.44062 0.75309,0.88062 0.44,0.44 1.05018,1.257091 1.05018,1.529091 0,0.272 -0.11236,0.322545 0.15164,0.322545 0.264,0 0.77709,0.298496 0.77709,0.491328 0,0.192832 0.20989,0.683302 0.58109,1.204598 0.3712,0.52131 0.53396,1.21386 0.45725,1.29058 -0.0767,0.0767 -1.83094,-0.5127 -3.63072,-1.40536 -1.79978,-0.892663 -4.33849,-2.052517 -5.56513,-2.558341 -1.36337,-0.562211 -2.67844,-1.425229 -3.35874,-2.146551 -0.61206,-0.648979 -1.17539,-1.257741 -1.17539,-1.333693 0,-0.31049 -0.21543,-0.727534 -0.80618,-0.830862 -0.43306,-0.07574 -0.31206,0.07198 0.99854,1.424555 1.87884,1.939002 3.72279,3.223746 5.01954,3.223746 0.36166,0 1.15796,0.295635 1.158,0.427635 4e-5,0.132 0.66877,0.403469 1.94473,0.985485 1.27596,0.582019 2.77701,1.416216 3.39301,1.739116 1.10743,0.8275 1.83548,0.18893 2.03673,0.13237 z M 66.629407,72.94608 c 0.381229,-0.323235 1.079116,-0.998922 1.577887,-1.379901 0.498772,-0.380983 1.245534,-0.844333 1.645957,-1.191831 0.400422,-0.347498 1.230987,-0.782509 1.710565,-0.966688 0.479577,-0.184176 2.111393,-0.997884 3.747879,-1.646073 1.636484,-0.648189 3.400381,-1.007875 3.500845,-0.907407 0.100467,0.100467 0.104342,-0.02646 0.359962,-0.282096 0.668009,-0.66801 3.028242,-0.538728 3.674805,0.175717 0.328842,0.363366 0.659059,1.253441 0.540654,2.146316 L 83.2,70.311498 77.751548,70.732741 c -5.682939,0.439373 -6.443835,0.306861 -10.049435,2.233539 -0.98073,0.524061 -1.497573,0.340037 -1.072706,-0.0202 z m 28.523124,-5.001854 c -0.22,-0.09274 -0.110749,-0.54156 -0.108569,-1.010892 0.0029,-0.628982 0.180192,-1.241519 1.046237,-1.802857 1.480393,-0.959536 3.781785,-0.96845 6.469801,-0.04729 1.056,0.361881 2.76028,0.721342 3.81432,0.839342 1.05404,0.118 2.37368,0.605455 2.60821,0.839989 0.23453,0.234535 0.4609,0.16107 0.80033,0.16107 0.33942,0 1.03729,0.595731 1.03729,0.756278 0,0.166531 -2.89766,0.334664 -6.32064,0.318031 -3.3,-0.01603 -6.67551,0.01625 -7.37951,0.125819 -0.574595,0.102445 -1.419363,-0.06802 -1.967469,-0.179487 z M 63.68,59.481206 c -0.0074,-0.154487 -0.426632,-0.126415 -0.894021,-0.126415 -2.504983,0 -7.762727,-7.197016 -8.167204,-11.205848 -0.08879,-0.88 -0.318689,-1.712316 -0.497374,-1.930674 -0.400035,-0.488852 -0.457054,-5.507758 -0.116487,-7.888967 0.140972,-0.985674 0.544653,-1.923554 0.808452,-2.071183 0.25808,-0.144429 0.292334,-0.415389 0.292334,-0.683216 0,-0.487178 1.188861,-1.72639 1.533555,-1.657232 C 56.9689,33.983811 58.24,33.50281 58.24,33.263325 c 0,-0.128669 0.346621,-0.320941 0.770272,-0.427271 0.423648,-0.106329 0.956634,-0.50738 1.203787,-0.642008 2.749519,-1.497701 0.688641,0.876542 0.543611,5.988218 -0.151936,5.35504 -0.107517,6.17963 0.630453,10.002645 0.695063,3.600726 1.001927,4.544024 2.198304,6.553087 1.515392,2.544784 2.542605,3.478011 3.233216,2.797591 0.215957,-0.21277 -0.266088,-0.124273 -0.431338,-0.144977 -0.953172,-0.119427 -1.321411,-0.784083 -2.635267,-2.912695 -1.174752,-1.903248 -2.09018,-4.575813 -2.930452,-9.589457 -0.427289,-2.549501 -0.150029,-9.798169 0.211256,-12.273209 0.307066,-2.103636 1.683076,-2.660012 2.306654,-2.458611 0.132,0.04263 0.339509,0.123358 0.339509,-0.02331 0,-0.146666 0.05838,-0.470246 0.278378,-0.475824 0.22,-0.0056 1.280452,-0.155613 2.248452,-0.428007 0.968,-0.272394 2.214316,-0.467264 2.729052,-0.581693 0.846144,-0.188103 1.567912,-0.433356 1.167967,0.04855 -0.2433,0.293158 -1.079126,1.799796 -1.384415,2.969705 -0.9404,3.603741 -0.84162,13.361302 0.221521,15.831824 2.047498,4.757942 2.612579,6.217644 3.032534,5.538143 C 72.087547,52.851483 72.214976,52.8 72.040448,52.8 c -0.174525,0 -0.630135,-0.324 -0.755706,-0.72 -0.125574,-0.396 -0.635462,-1.237951 -1.052006,-1.898028 -1.704346,-2.70079 -2.526488,-9.359174 -1.978722,-14.944627 0.300279,-3.061865 0.93461,-4.934577 1.499474,-5.477345 0.09158,-0.088 -0.08704,-0.591735 0.116586,-0.943735 0.203622,-0.352 0.593961,-0.648226 0.786339,-0.604226 0.192377,0.044 0.581965,-0.09717 0.581965,-0.273169 0,-0.461782 5.313056,-0.179038 6.86222,0.30113 9.935352,0.755254 -1.770333,11.027042 -1.596243,16.334366 0.157639,4.108041 1.476407,7.106578 2.433002,7.697788 0.661033,0.408541 -0.99922,0.051 -2.528717,0.232147 -0.884855,0.104797 -1.737212,-0.181434 -1.970572,0.05193 -0.233357,0.23336 -0.921877,0.859391 -1.651665,1.188479 -0.729786,0.329088 -1.14998,0.609908 -1.14998,0.759175 0,0.149271 -0.528413,0.472231 -0.836413,0.785261 -0.308,0.313028 -0.610418,1.232928 -1.050418,1.895574 -0.44,0.662647 -1.541582,1.282164 -2.069582,1.525354 -1.304812,0.600986 -3.972308,1.352367 -3.988943,1.003323 z m 45.65214,-4.943056 c -0.67194,-1.299382 -2.02427,-2.896265 -3.67864,-3.703974 -1.14152,-0.557318 -1.98349,0.08769 -1.40846,-1.388722 0.60646,-1.557127 0.87551,-7.215422 0.69015,-9.125454 -0.32444,-3.343229 -2.24009,-9.389926 -2.99834,-9.389926 -0.14591,0 -0.35375,-0.470261 -0.35375,-0.801781 0,-0.33152 -0.44382,-0.956673 -1.16193,-1.605446 -0.718113,-0.648771 -2.207323,-1.641834 -2.120161,-1.868967 0.08716,-0.227133 1.678286,-0.532301 2.441231,-0.63761 0.76296,-0.105308 2.29003,-0.596316 3.43403,-0.8614 2.56195,-0.593646 4.51112,-1.052306 4.92676,-0.5246 0.17328,0.22 0.46978,1.567292 0.5778,2.021009 0.10802,0.453717 0.49548,1.151144 0.91507,1.603893 1.09608,1.182691 2.49842,5.368187 2.81068,8.897998 0.69347,7.838998 0.034,13.111023 -2.04056,16.800805 -0.43152,0.767479 -0.65389,0.884489 -0.28577,1.117705 0.32625,0.206656 0.39978,0.500916 -0.12835,0.504551 -0.46727,0.0032 -1.11156,-0.153355 -1.43185,-0.772725 z m 2.2555,-0.604489 c 0.24885,-0.396 0.864,-1.883057 1.24539,-3.291057 0.38139,-1.408 0.54165,-2.891658 0.70746,-3.432154 0.41643,-1.357405 0.63731,-3.976054 0.10543,-9.41728 -0.50239,-5.139424 -1.30738,-8.003478 -2.60133,-9.69994 -1.16714,-1.5302 -2.67784,-3.268199 -2.01521,-3.522477 0.27213,-0.104423 1.84868,0.107898 1.96291,0.269128 0.11424,0.161227 1.74107,0.265341 3.56112,0.569202 2.12698,0.355104 3.87561,0.491962 4.477,0.920191 1.01933,0.725828 1.83072,2.839101 1.83072,3.79255 0,0.331673 0.29776,1.443735 0.6617,2.552332 0.59226,1.80414 0.60164,2.276676 0.27796,4.314961 -0.35947,2.263667 -0.59088,3.376092 -1.38625,5.212505 -0.22868,0.528 -0.70586,1.97525 -1.08742,3.16206 -0.38156,1.186806 -0.81452,2.206135 -0.97564,2.305713 -0.16112,0.09958 -0.27084,0.424502 -0.27084,0.735561 0,0.31106 -0.99636,1.545581 -2.05198,2.500131 -1.05561,0.954554 -1.86433,1.776839 -1.86472,1.975949 -6.4e-4,0.343091 -2.58345,2.505777 -2.98378,2.480242 -0.8667,-0.05528 0.15864,-1.031617 0.40748,-1.427617 z M 83.04,52.418552 c -0.704,-0.12592 -1.971867,-0.06844 -2.777199,-0.02848 -3.459426,0.171665 -1.493393,-0.66748 -1.874926,-1.430075 -0.24215,-0.484 -0.990999,-0.911102 -1.243665,-1.21667 -1.4259,-6.717607 -0.289118,-14.934783 2.988417,-20.939678 0.191056,-0.134289 0.697918,-0.211678 1.049918,-0.111756 0.352,0.09992 1.767998,0.520332 3.295106,0.570096 5.191285,0.169167 3.181573,0.742594 3.991135,6.782058 0.279433,2.084624 0.47564,4.869993 0.818232,6.304374 0.852467,3.569139 3.397478,8.973233 0.630879,9.783498 -2.236418,0.204137 -4.64657,0.616199 -6.877897,0.28663 z m 7.661856,-2.959445 c -0.02112,-1.883731 -0.985118,-6.310065 -1.434305,-7.73641 -0.343376,-1.090359 -1.164567,-6.625997 -1.447488,-9.733667 -0.175632,-1.92916 -0.09446,-2.495655 0.609604,-2.443042 0.400883,0.02996 1.415875,-0.09619 2.255536,-0.471438 1.624574,-0.766924 2.386727,-1.065016 3.372972,-1.607284 2.241039,-0.766334 1.47747,-0.672128 2.936139,-0.652377 2.765631,-0.965342 1.325726,0.223153 2.36786,1.060635 0.664226,0.533792 1.664756,1.415249 1.993646,2.053387 0.3289,0.638139 0.68112,1.521866 0.93136,1.828703 0.63139,0.774183 1.54504,3.690908 2.11351,6.816117 0.3935,2.163264 0.48392,3.545608 0.20228,7.032575 -0.18826,2.330739 -0.2832,4.70934 -0.35964,4.785782 -0.0764,0.07644 -2.71434,0.136164 -5.402531,0.294884 C 96.152604,50.845695 93.2,50.698749 92.32,50.833398 l -1.6,0.24482 z M 84.710842,28.78108 c -0.0773,-0.0773 -0.541525,-0.139298 -0.977561,-0.218857 -0.436035,-0.07956 -1.280838,-0.561304 -2.031694,-0.69394 -2.158361,-0.381267 -1.578958,-0.533499 -1.554104,-1.407727 0.01984,-0.69764 0.326064,-1.185309 0.946865,-1.464893 0.151302,-0.06814 0.498514,-0.264067 0.345652,-0.222109 -1.054211,0.289364 -1.716595,0.589243 -1.521722,1.608657 l 0.695071,1.393053 -2.139615,-0.375765 C 77.636341,27.252434 75.865601,27.1343 74.482168,27.1343 c -1.838288,0 -2.747524,-0.387334 -2.747524,-0.688501 0,-0.794085 1.946113,-2.700229 3.199076,-3.130978 1.829469,-0.628941 6.253058,0.06337 7.504888,1.051711 0.197232,0.15572 1.2156,0.0074 2.330605,0.04872 1.86113,0.06901 2.255568,-0.511596 2.459572,0.222837 l -0.06526,1.319656 -0.07867,-0.470981 c -0.234179,-1.402064 0.234746,-1.05217 1.816614,-1.564762 1.012,-0.327931 2.211876,-0.726617 2.490715,-1.034619 0.278838,-0.308002 1.705584,-0.871508 2.981351,-1.414396 1.896329,-0.806961 2.081247,-1.397746 2.648155,-1.107622 1.010605,0.517193 3.45831,3.055739 3.45831,3.539583 -1e-5,0.228281 0.27127,0.138644 0.53527,0.138644 0.63207,0 0.38944,0.269538 -0.46113,-1.036398 -0.396,-0.608001 -1.055317,-1.314502 -1.627317,-1.624055 -0.572,-0.309554 -1.913464,-0.828869 -1.913464,-0.964846 0,-0.423993 2.452994,-0.513791 3.104981,-0.02065 0.34164,0.258403 0.76721,0.518629 0.99979,0.524226 0.71829,0.01729 2.54039,2.41974 2.54039,3.30933 0,0.237948 -1.59731,0.313948 -4.507787,1.052548 -1.734552,0.440182 -1.384285,0.898265 -1.845626,-0.765023 -0.133961,-0.482977 -0.767084,-1.019888 -1.499586,-1.374486 -1.635268,-0.79162 -1.325421,-0.547705 -0.992655,-0.281628 1.06908,0.854832 3.248451,2.534912 2.985657,2.797707 -0.112426,0.112422 -1.166925,0.436594 -1.491981,0.436594 -0.325053,0 -0.807883,0.294631 -1.113495,0.452033 -1.620288,0.834509 -6.149846,2.309329 -6.626958,2.353174 -1.42637,0.131078 -0.804766,-0.404274 -0.924894,-0.948941 -0.331786,-1.504333 -0.04188,-1.471296 -0.06798,-0.231548 -0.0247,1.173577 1.528801,1.354791 -1.439891,1.222113 -0.673995,-0.03012 -1.345193,-0.08535 -1.422492,-0.162655 z"
         id="hair" />
      <path
         style="fill:#533a24;stroke-width:0.32"
         d="m 145.50464,105.12 c -0.33385,-3.40789 -1.25315,-7.699651 -1.9878,-9.28 -0.8863,-1.906573 -3.42551,-5.25704 -4.15684,-5.484915 -0.352,-0.109683 -1.44358,-0.760183 -2.42574,-1.445559 -1.79291,-1.251139 -3.02265,-2.95295 -3.51824,-4.868825 -0.54794,-2.118218 -2.89921,-8.431619 -3.68267,-9.88833 -0.45188,-0.840195 -0.76414,-1.699993 -0.69392,-1.910662 0.30934,-0.928013 2.65564,4.603177 4.56082,10.751689 0.55444,1.789335 1.22926,3.233524 1.83136,3.919268 1.00338,1.142787 3.29864,2.815113 4.2999,3.132899 0.32536,0.103267 0.87888,0.578496 1.23003,1.056064 0.35115,0.477568 1.03456,1.326195 1.51869,1.88584 0.48412,0.559645 1.22202,1.934409 1.63977,3.055033 0.83789,2.247658 1.91849,8.758638 1.74555,10.517498 -0.0717,0.72877 -0.19773,0.22576 -0.36091,-1.44 z m -1.65917,-1.50391 c -1.64955,-5.241127 -3.87564,-8.387415 -9.87157,-13.952138 -0.90198,-0.837114 -3.4139,-4.728054 -3.4139,-5.288102 0,-0.273943 -0.12459,-0.575082 -0.27687,-0.669194 -0.15228,-0.09411 -0.35369,-0.64448 -0.44757,-1.223037 -0.0939,-0.578557 -0.68246,-2.340889 -1.30795,-3.916291 -0.62548,-1.575402 -1.08264,-2.918963 -1.01591,-2.98569 0.19366,-0.193667 1.80057,3.369495 2.25746,5.005719 0.95588,3.423181 1.74941,5.167206 2.93446,6.449373 0.40501,0.438201 0.73638,0.914409 0.73638,1.058236 0,0.143831 1.188,1.441146 2.64,2.882922 4.8619,4.827667 6.27806,6.924371 7.96052,11.785992 0.35609,1.02894 0.60064,2.09524 0.54346,2.36955 -0.0572,0.27431 -0.38952,-0.4085 -0.73851,-1.51734 z M 139.2,101.10351 c -0.616,-0.3229 -2.16396,-1.06328 -3.43992,-1.645299 -1.27596,-0.582016 -2.31996,-1.166211 -2.32,-1.298211 -4e-5,-0.132 -0.29598,-0.24 -0.65764,-0.24 -1.29675,0 -3.37524,-1.269107 -5.25408,-3.208109 -1.31062,-1.352579 -1.71306,-1.938115 -1.28,-1.862371 0.59075,0.103328 1.43164,0.692371 1.43164,1.002861 0,0.07595 0.50078,0.669078 1.11284,1.318057 0.6803,0.721322 1.97973,1.537431 3.3431,2.099642 1.22664,0.505824 3.70281,1.650042 5.50259,2.542704 1.79978,0.892656 3.3351,1.560256 3.41181,1.483546 0.0767,-0.0767 -0.16423,-0.566 -0.53543,-1.08731 -0.3712,-0.521298 -0.67491,-1.105586 -0.67491,-1.298418 0,-0.192832 -0.216,-0.350602 -0.48,-0.350602 -0.264,0 -0.48,-0.222544 -0.48,-0.494544 0,-0.272 -0.36,-0.854547 -0.8,-1.294547 -0.44,-0.44 -0.8,-0.927751 -0.8,-1.083891 0,-0.156138 -0.2747,-0.371076 -0.61044,-0.477636 -0.33574,-0.10656 -0.69122,-0.404262 -0.78995,-0.661564 -0.0987,-0.2573 -0.40899,-0.467818 -0.68944,-0.467818 -1.43733,0 -4.00176,-1.227392 -5.91017,-2.828736 -2.53131,-2.124019 -3.01077,-2.610067 -3.28611,-3.331264 -0.358,-0.93769 0.2007,-0.622307 1.01458,0.57273 0.42266,0.620592 1.17866,1.370656 1.68,1.666806 0.50134,0.29615 0.91153,0.651405 0.91153,0.789459 0,0.138051 0.15088,0.251005 0.33528,0.251005 0.1844,0 0.6524,0.327533 1.04,0.72785 0.3876,0.400316 1.78472,1.068073 3.10472,1.483897 1.32,0.415827 2.58817,1.024295 2.81814,1.352151 0.22998,0.327856 0.61628,0.596102 0.85844,0.596102 0.24216,0 0.53322,0.324 0.6468,0.72 0.11358,0.396 0.69607,1.152 1.29441,1.68 0.59835,0.528 1.13541,1.280288 1.19348,1.671754 0.0581,0.391465 0.20528,0.811466 0.32715,0.933336 0.12187,0.12187 0.22158,0.48558 0.22158,0.80824 0,0.73374 -0.75172,0.71031 -2.24,-0.0698 z m -14.8877,-9.271552 c -1.2148,-1.267974 -0.75526,-1.62455 0.50532,-0.392099 0.54623,0.534048 0.85976,1.053431 0.69673,1.154189 -0.16303,0.100758 -0.70395,-0.242182 -1.20205,-0.76209 z M 72.26,82.661405 c 0.230998,-0.09244 0.506998,-0.08107 0.613334,0.02525 0.106333,0.106333 -0.08267,0.181965 -0.42,0.16807 C 72.08055,82.839363 72.004726,82.763542 72.26,82.661392 Z M 104.16,80 c -0.10877,-0.176 0.0867,-0.32 0.43445,-0.32 0.34772,0 0.70485,-0.18 0.79362,-0.4 0.10192,-0.252592 0.17071,-0.206246 0.18667,0.125763 0.0139,0.289171 -0.20252,0.613171 -0.48091,0.72 C 104.43002,80.38049 104.39199,80.375366 104.16,80 Z M 59.2,61.778886 c 0,-0.165612 0.144,-0.390112 0.32,-0.498886 0.176,-0.108774 0.32,0.02672 0.32,0.301114 0,0.274387 -0.144,0.498886 -0.32,0.498886 -0.176,0 -0.32,-0.135501 -0.32,-0.301114 z M 126.72,60.16 c 0,-0.176 0.144,-0.32 0.32,-0.32 0.176,0 0.32,0.144 0.32,0.32 0,0.176 -0.144,0.32 -0.32,0.32 -0.176,0 -0.32,-0.144 -0.32,-0.32 z M 65.163085,57.192176 C 64.762781,56.791872 63.889818,55.533693 63.223162,54.396221 62.236755,52.713171 61.861549,51.552749 61.208074,48.164045 60.48121,44.394778 60.42071,43.469088 60.569933,38.4 c 0.09067,-3.08 0.266931,-5.852 0.391696,-6.16 0.417741,-1.031259 0.734355,-0.574109 0.443254,0.64 -0.158246,0.66 -0.381459,3.111805 -0.496035,5.448458 -0.215325,4.391465 -0.02131,6.295494 1.17632,11.544035 0.81287,3.562361 3.174461,7.407507 4.549498,7.407507 0.331708,0 0.514108,0.144 0.405334,0.32 -0.328429,0.531411 -1.106813,0.362278 -1.876915,-0.407824 z M 116.62684,55.97871 c -0.11601,-0.187708 -0.13409,-0.418128 -0.0402,-0.512044 0.22922,-0.22922 0.85333,0.174665 0.85333,0.55222 0,0.408951 -0.55245,0.381655 -0.81316,-0.04018 z M 110.72,54.849373 c 0,-0.104845 0.21404,-0.572845 0.47565,-1.04 2.03412,-3.632359 2.65608,-8.907719 1.96769,-16.689373 -0.31226,-3.529811 -1.55981,-7.70425 -2.65589,-8.886941 -0.41959,-0.452749 -0.85128,-1.194402 -0.9593,-1.648119 -0.10802,-0.453717 -0.35196,-1.021549 -0.54209,-1.261848 -0.2702,-0.341499 -0.21318,-0.411379 0.26111,-0.32 0.34329,0.06614 0.71142,0.508092 0.84771,1.017715 0.13249,0.495444 0.63131,1.412657 1.10847,2.038251 1.3031,1.708458 2.05184,4.551006 2.55525,9.700942 0.53188,5.441226 0.57635,8.059875 0.15992,9.41728 -0.16581,0.540496 -0.61603,2.13472 -1.00048,3.54272 -0.70149,2.569101 -1.49873,4.32 -1.96704,4.32 -0.13805,0 -0.251,-0.08578 -0.251,-0.190627 z M 71.240458,52.730198 C 70.834144,52.095782 69.601782,49.517181 68.75041,47.52 67.689219,45.030618 67.49281,35.231853 68.431965,31.632893 68.969856,29.571636 69.550547,28.48 70.109139,28.48 c 0.27376,0 0.01811,0.984675 -0.33231,1.28 -0.987946,0.83259 -1.786109,6.980646 -1.454029,11.2 0.286304,3.637696 0.990102,6.91895 1.818883,8.48 0.37376,0.704 0.897504,1.712 1.163875,2.24 0.266368,0.528 0.61896,1.05 0.78354,1.16 0.17903,0.119661 0.162611,0.284435 -0.04088,0.410198 -0.187056,0.115607 -0.550551,-0.118393 -0.807763,-0.52 z M 77.766106,51.12 C 76.4736,49.130864 76.387859,48.748093 76.242899,44.32 76.131475,40.916253 76.219219,39.316323 76.608122,37.660144 76.889654,36.461222 77.12,35.187821 77.12,34.830362 c 0,-1.014007 2.352454,-6.348669 2.8,-6.349563 0.22,-4.39e-4 0.4,0.143201 0.4,0.319201 0,0.176 -0.110723,0.32 -0.246051,0.32 -0.223351,0 -1.358781,2.888602 -2.271536,5.778925 -1.100237,3.484 -1.322304,13.385782 -0.328007,14.625497 0.509037,0.634682 1.245594,1.906768 1.245594,2.151236 0,0.407248 -0.528106,0.09962 -0.953894,-0.555658 z M 90.105917,47.858813 C 89.984576,46.205798 89.610534,43.702934 89.27471,42.296893 88.938886,40.890851 88.436656,38.034851 88.158643,35.950227 87.88063,33.865603 87.528682,31.692 87.376534,31.12 c -0.215846,-0.811478 -0.17774,-1.04 0.173418,-1.04 0.247526,0 0.453542,0.108 0.457814,0.24 0.07031,2.172336 1.184781,10.134963 1.605296,11.469421 0.289287,0.918029 0.730839,3.659401 1.161149,7.209001 0.100317,0.827514 0.04122,1.563712 -0.134227,1.672144 -0.190752,0.117892 -0.399811,-0.982771 -0.534067,-2.811753 z M 126.4,50.24 c 0,-0.176 0.144,-0.32 0.32,-0.32 0.176,0 0.32,0.144 0.32,0.32 0,0.176 -0.144,0.32 -0.32,0.32 -0.176,0 -0.32,-0.144 -0.32,-0.32 z m -22.39027,-0.51353 c -0.005,-0.194441 0.13845,-2.178355 0.31956,-4.408697 0.268,-3.300371 0.2402,-4.544935 -0.14933,-6.686471 -0.58797,-3.232563 -1.50307,-6.154038 -2.17255,-6.935931 -0.27641,-0.322826 -0.60421,-0.907193 -0.72843,-1.298592 -0.12423,-0.3914 -0.88458,-1.342793 -1.689671,-2.114207 C 98.784214,27.511157 98.303725,26.88 98.521549,26.88 c 0.639366,0 3.238451,2.610005 3.238451,3.252059 0,0.323367 0.11939,0.587941 0.2653,0.587941 0.75825,0 2.78447,6.256771 3.10891,9.6 0.22147,2.282157 -0.30978,8.38071 -0.80379,9.227181 -0.17103,0.293049 -0.31534,0.373731 -0.32069,0.179289 z M 87.36,27.626667 c 0,-1.371455 0.148442,-1.324999 0.426035,0.133333 0.113751,0.597583 0.06524,1.04 -0.114035,1.04 -0.1716,0 -0.312,-0.528 -0.312,-1.173333 z m -7.445638,-1.264949 c -0.190778,-0.997994 0.44256,-1.703188 1.525638,-1.698729 0.52601,0.0022 0.478771,0.09002 -0.265238,0.493268 -0.497885,0.269847 -0.835207,0.67314 -0.749607,0.896206 0.0856,0.223066 0.04427,0.585757 -0.09183,0.80598 -0.163645,0.264785 -0.305549,0.09654 -0.41896,-0.496725 z M 86.96168,25.44 c -0.08411,-0.44 -0.0289,-0.8 0.122694,-0.8 0.151594,0 0.275626,0.36 0.275626,0.8 0,0.44 -0.05521,0.8 -0.122694,0.8 -0.06749,0 -0.191514,-0.36 -0.275626,-0.8 z m 9.505082,-0.879141 c -0.47937,-0.572473 -1.248493,-1.29191 -1.709172,-1.598751 -1.13126,-0.753495 -0.543104,-0.709006 1.092164,0.08261 1.290249,0.6246 2.334787,2.034011 1.767347,2.384709 -0.153322,0.09476 -0.670973,-0.2961 -1.150339,-0.868572 z M 100.48,23.904943 c 0,-0.458189 -2.032378,-2.499683 -3.04,-3.053635 -0.370422,-0.203644 -0.45617,-0.355945 -0.203568,-0.361577 0.841514,-0.01876 2.770468,1.310546 3.483568,2.400644 0.85053,1.300194 0.87226,1.429625 0.24,1.429625 -0.264,0 -0.48,-0.186776 -0.48,-0.415057 z"
         id="hair_outline" />
      <path
         style="fill:#463c2d;stroke-width:0.32"
         d="m 87.84,113.9813 c -1.232,-0.47372 -2.6,-1.10188 -3.04,-1.39592 -0.44,-0.29405 -1.630714,-0.92419 -2.646032,-1.40032 -1.015318,-0.47614 -1.923818,-0.99155 -2.018886,-1.14538 -0.09507,-0.15382 -0.493034,-0.27968 -0.884365,-0.27968 -0.69328,0 -2.080282,-0.86959 -7.1456,-4.48 -1.35808,-0.968 -3.203325,-2.192 -4.100544,-2.72 -3.920909,-2.3074 -6.488077,-4.450726 -7.84433,-6.549229 C 59.644547,95.212848 58.778704,94.272 58.236147,93.92 56.587923,92.850662 55.959475,91.491712 55.758726,88.562832 55.629075,86.671296 55.427558,85.804186 55.035392,85.450403 54.282934,84.7716 53.567574,82.64687 52.823251,78.88 52.475482,77.12 51.910659,75.104 51.568093,74.4 51.22553,73.696 50.772886,72.472 50.562221,71.68 50.351555,70.888 49.755328,69.239888 49.23727,68.01753 46.68527,61.996064 46.412234,55.726899 48.435149,49.6 c 1.356797,-4.109389 1.884217,-5.365072 2.688169,-6.4 0.341802,-0.44 1.082132,-2.190109 1.645175,-3.889133 1.262214,-3.808813 2.161254,-4.99552 4.827936,-6.372713 C 58.742394,32.346326 60.4,31.33359 61.28,30.687629 c 1.699306,-1.247369 4.216506,-2.223047 7.36,-2.85277 2.708179,-0.542519 2.731357,-0.552916 2.511264,-1.126472 -0.250016,-0.651534 2.18639,-3.239595 3.638458,-3.864934 1.486579,-0.6402 4.154428,-0.545429 6.517427,0.23152 2.766643,0.909665 6.499165,0.744979 8.648189,-0.381576 7.217641,-3.783612 8.363107,-4.061759 11.263542,-2.735069 1.00162,0.458148 1.82326,0.942948 1.82588,1.077334 0.003,0.134386 0.48706,0.814458 1.07653,1.511272 l 1.07178,1.266935 2.63017,-0.08966 c 1.4466,-0.04931 3.30216,0.06019 4.12347,0.243331 0.82131,0.183145 2.21329,0.470878 3.09329,0.639405 3.07635,0.589148 4.07793,0.947982 4.93324,1.767414 0.47398,0.454103 1.0339,0.825642 1.24427,0.825642 0.21037,0 0.38249,0.128368 0.38249,0.285263 0,0.156894 0.99841,1.467321 2.2187,2.91206 3.84406,4.551135 4.17964,5.249413 5.46054,11.362677 0.97916,4.673107 1.14592,13.544358 0.43463,23.12 -0.17023,2.291696 -0.12833,2.64 0.31757,2.64 0.28252,0 1.07603,0.711434 1.76336,1.580963 1.15334,1.459088 1.56237,2.200032 3.05779,5.539037 0.29559,0.66 0.65721,1.2 0.8036,1.2 0.62466,0 0.9946,1.938624 0.91689,4.804826 -0.0785,2.895875 -0.0386,3.101264 0.8692,4.475174 0.52333,0.792 1.1689,1.570883 1.43461,1.730851 0.26571,0.159968 1.79407,1.569863 3.39635,3.133101 l 2.91325,2.842246 0.98264,3.266903 c 1.40245,4.662648 1.67087,6.245898 1.67087,9.855608 0,2.78692 -0.0899,3.31874 -0.70018,4.14425 -0.3851,0.52087 -0.79483,0.94704 -0.91051,0.94704 -0.11569,0 -0.97837,-1.26 -1.91707,-2.8 -0.9387,-1.54 -1.93296,-2.98324 -2.20948,-3.20721 -1.28829,-1.04345 -3.09466,-1.71348 -5.07604,-1.88287 -1.1807,-0.10093 -3.17909,-0.5415 -4.44088,-0.97904 -2.14215,-0.74281 -2.39646,-0.93488 -3.83831,-2.898777 -1.27051,-1.730531 -1.8847,-2.258137 -3.46584,-2.977228 -1.05693,-0.480688 -2.26662,-1.243239 -2.68821,-1.694564 -0.42158,-0.451321 -0.87963,-0.750675 -1.01788,-0.665228 -0.13826,0.08545 -0.34183,0.009 -0.45237,-0.169863 -0.23832,-0.385597 -1.44323,-0.440333 -1.44323,-0.06556 0,0.142813 -0.252,0.538931 -0.56,0.880259 -0.308,0.341331 -0.94063,1.13073 -1.40585,1.754221 -1.42554,1.910515 -11.20332,11.47398 -12.16744,11.90074 -0.49869,0.22075 -0.90671,0.5102 -0.90671,0.64324 0,0.13303 -0.18136,0.24188 -0.40302,0.24188 -0.22167,0 -0.58289,0.288 -0.80272,0.64 -0.21982,0.352 -0.59906,0.64 -0.84274,0.64 -0.24367,0 -0.52003,0.20061 -0.61412,0.4458 -0.15853,0.41313 -1.36747,1.05914 -5.0174,2.68108 -1.671942,0.74298 -4.385152,1.36127 -5.85575,1.33442 -0.563338,-0.0103 -2.03225,-0.40629 -3.26425,-0.88 z m 7.398314,-0.98703 c 2.60542,-0.83871 4.64927,-1.68416 5.230996,-2.16383 1.25699,-1.03646 4.92321,-3.63044 5.13113,-3.63044 0.3148,0 12.47956,-12.107696 12.47956,-12.42103 0,-0.136221 0.72834,-1.033216 1.61854,-1.993322 2.18968,-2.361645 2.93457,-3.381261 3.84686,-5.265648 0.42603,-0.88 1.2426,-2.22303 1.8146,-2.984512 0.81328,-1.082685 1.04,-1.697674 1.04,-2.821037 0,-1.902118 -0.41656,-2.59023 -1.93609,-3.198227 C 123.76876,78.23808 123.2,77.882144 123.2,77.725254 123.2,77.568365 123.0064,77.44 122.76977,77.44 c -0.69845,0 -2.00933,-1.339158 -2.74179,-2.800915 -0.37506,-0.748506 -0.83678,-2.548506 -1.02605,-4 -0.18928,-1.451498 -0.5349,-2.940858 -0.76805,-3.309693 -0.23315,-0.368835 -1.19115,-1.159501 -2.12889,-1.75704 -2.24403,-1.429907 -2.75625,-2.08457 -2.98286,-3.812352 -0.31937,-2.43512 -1.19601,-4.8 -1.77931,-4.8 -0.63746,0 -2.60664,-1.866614 -3.67955,-3.487882 -0.57055,-0.862166 -1.22996,-1.346316 -2.41313,-1.771779 -2.30849,-0.830121 -9.710498,-0.570201 -14.05014,0.49337 -2.643606,0.647901 -3.853648,0.746435 -9.28,0.75567 l -6.24,0.01062 -1.727616,0.956775 c -0.950189,0.526224 -2.102189,1.447353 -2.56,2.046953 C 69.435187,58.527088 68.388294,59.52 67.642765,59.52 67.223245,59.52 66.88,59.653638 66.88,59.816973 c 0,0.163337 -0.793466,0.396112 -1.763261,0.51728 -2.034342,0.254173 -1.938477,0.06064 -2.241904,4.526003 -0.109885,1.617139 -0.475977,4.065139 -0.813536,5.44 C 61.421062,72.90791 61.26161,74.88 61.691005,74.88 c 0.138054,0 0.504969,0.429923 0.815366,0.955386 1.140029,1.929913 -0.117475,4.220739 -3.551072,6.469068 -0.726096,0.47545 -1.562,1.23353 -1.857565,1.684618 -0.765369,1.168102 -0.934419,3.404605 -0.450992,5.966659 0.39592,2.098301 0.488522,2.256071 1.81234,3.087776 0.850816,0.534538 1.958377,1.713715 2.838883,3.022445 0.79408,1.180275 1.906889,2.469338 2.472909,2.864582 0.566019,0.395248 1.101126,0.81312 1.189126,0.928605 0.088,0.115488 0.830765,0.504471 1.650586,0.864411 1.4823,0.6508 6.038883,3.46129 7.026787,4.3341 1.504525,1.32924 4.947286,3.48005 7.034237,4.39452 1.302614,0.57079 3.37639,1.56777 4.60839,2.21551 1.232,0.64774 2.744,1.3328 3.36,1.52235 1.771453,0.54509 4.553245,0.46256 6.598314,-0.19576 z M 87.2,103.70125 c -0.447792,-0.18149 0.128835,-0.32839 1.92,-0.48913 1.408,-0.12636 4,-0.44612 5.76,-0.71058 5.32409,-0.80001 5.64349,-0.82605 5.98195,-0.48759 0.79714,0.79714 -11.968356,2.37372 -13.66195,1.6873 z m 0.898333,-7.713829 c -1.346435,-0.631447 -1.912439,-1.159981 -1.5888,-1.483619 0.09549,-0.09549 0.627062,0.14926 1.18127,0.543891 2.343194,1.668499 6.287299,0.799229 7.065213,-1.557152 0.210723,-0.638298 0.469843,-0.952682 0.642723,-0.779802 0.17288,0.17288 0.144547,0.705933 -0.07028,1.322179 -0.262867,0.754064 -0.778925,1.244839 -1.913562,1.819802 -1.863625,0.944371 -3.501609,0.985872 -5.316566,0.134701 z M 66.4,86.992285 C 65.377152,86.369888 63.998813,84.887027 64.013322,84.424614 64.02065,84.191078 64.535414,84.576 65.157251,85.28 l 1.130611,1.28 h 6.776068 c 6.084688,0 6.865859,-0.06089 7.65607,-0.596803 0.542323,-0.367795 0.88,-0.453623 0.88,-0.223671 0,0.205223 -0.54,0.606906 -1.2,0.892631 -1.572112,0.680592 -12.990646,0.974317 -14,0.360128 z m 4.48,-1.949667 C 69.010806,84.558912 68.011146,83.728189 67.524749,82.254387 67.213363,81.31088 66.954176,80.993914 66.587197,81.107821 66.308237,81.19441 65.144,81.148819 64,81.006512 c -1.958538,-0.243629 -2.02841,-0.280186 -1.196522,-0.626026 0.485911,-0.202009 1.493911,-0.289766 2.24,-0.195014 0.746087,0.09475 3.660522,-0.03136 6.476522,-0.280243 4.811408,-0.425245 7.89137,-0.349069 10.16,0.251277 0.484,0.128083 0.88,0.351561 0.88,0.49662 0,0.14506 0.288,0.355152 0.64,0.466874 0.352,0.111722 0.64,0.329328 0.64,0.483571 0,0.154243 -0.612,0.01514 -1.36,-0.309117 -0.748,-0.324259 -1.814982,-0.684742 -2.371069,-0.801078 -0.973936,-0.20375 -1.048656,-0.141002 -2.034425,1.708493 -1.528484,2.867728 -3.730445,3.737171 -7.194506,2.840749 z m 5.187203,-1.057226 c 0.770551,-0.504883 1.802442,-2.395779 1.825635,-3.345392 0.0071,-0.289808 -0.238809,-0.454138 -0.620556,-0.414733 -0.347757,0.0359 -2.072282,0.144906 -3.832282,0.24224 -1.76,0.09734 -3.81631,0.26496 -4.569578,0.372503 -1.462217,0.208755 -1.456588,0.190694 -0.694611,2.230016 0.596451,1.596326 5.911235,2.212816 7.891392,0.915366 z M 72,82.24 c 0,-0.176 0.135501,-0.32 0.301114,-0.32 0.165612,0 0.390112,0.144 0.498886,0.32 0.108774,0.176 -0.02672,0.32 -0.301114,0.32 C 72.224499,82.56 72,82.416 72,82.24 Z m 27.698842,2.590486 C 99.548054,84.586506 100.34988,84.48 102.33744,84.48 c 1.57036,0 3.62812,-0.146579 4.57279,-0.325734 2.26808,-0.430132 5.02302,-2.099751 5.66669,-3.434266 0.5578,-1.15648 1.34308,-1.390147 1.34308,-0.399645 0,0.85441 -2.10472,2.855264 -4.03908,3.839763 -1.37864,0.701664 -2.05164,0.807655 -5.76319,0.907645 -2.81535,0.07585 -4.273765,-0.0026 -4.418888,-0.237277 z m 2.713668,-2.455942 c -0.60912,-0.264221 -1.50327,-0.942586 -1.987,-1.507475 -1.337785,-1.562247 -1.075264,-1.852493 0.30741,-0.339869 2.46225,2.693667 5.38673,2.608291 8.14708,-0.23784 1.03152,-1.063571 1.52,-1.837962 1.52,-2.409645 v -0.842409 l -2.32,0.217372 c -5.26817,0.493607 -9.414547,1.725584 -10.939248,3.250285 -0.292176,0.292176 -0.605802,0.456656 -0.696944,0.365511 -0.313171,-0.313168 1.588432,-1.791584 2.891734,-2.248202 0.717458,-0.25136 1.952458,-0.685002 2.744458,-0.963645 0.792,-0.278643 2.448,-0.659187 3.68,-0.845654 2.40687,-0.364285 8.71709,-1.489194 10.16,-1.8112 0.484,-0.10801 0.88,-0.05871 0.88,0.109558 0,0.530999 -1.68861,1.116813 -3.70415,1.28505 l -1.94415,0.162275 -0.35454,1.320672 c -0.51197,1.90705 -2.32148,3.872947 -4.13302,4.490202 -1.83901,0.626614 -2.81598,0.627766 -4.25163,0.005 z M 104.32,79.349958 c 0,-0.170476 0.216,-0.309958 0.48,-0.309958 0.264,0 0.48,0.05659 0.48,0.125763 0,0.06917 -0.216,0.20865 -0.48,0.309959 -0.264,0.101305 -0.48,0.04471 -0.48,-0.125764 z M 66.130902,73.28 c 0.311898,-0.528 0.66481,-0.96 0.78425,-0.96 0.11944,0 0.680925,-0.433216 1.247741,-0.962704 1.263117,-1.179926 8.019549,-4.488429 11.452515,-5.608086 2.041789,-0.665927 3.532998,-0.36969 4.135814,0.821603 0.520928,1.029469 0.526823,3.976441 0.0088,4.390643 -0.22,0.175904 -2.848,0.389011 -5.84,0.473578 l -5.44,0.153753 -3.103683,1.325607 C 67.66929,73.643478 66.113149,74.24 65.918224,74.24 c -0.211949,0 -0.126458,-0.385885 0.212678,-0.96 z M 70.88,71.30648 c 1.287978,-0.514371 2.645277,-0.673696 6.96,-0.816982 l 5.36,-0.178 v -1.450551 c 0,-0.900691 -0.200755,-1.672384 -0.529597,-2.03575 -0.646563,-0.714445 -2.74144,-0.788445 -3.409449,-0.120435 -0.25562,0.255619 -0.546964,0.382563 -0.647431,0.282096 -0.100464,-0.100468 -1.521609,0.34767 -3.158093,0.995859 -1.636486,0.648189 -3.367811,1.329219 -3.847388,1.513395 -0.479578,0.184179 -1.199578,0.61919 -1.6,0.966688 -0.400423,0.347498 -1.136128,0.943526 -1.6349,1.324509 -2.07184,1.582547 -2.252252,1.846246 -0.693142,1.013123 0.88,-0.470234 2.32,-1.142512 3.2,-1.493952 z m 23.832749,-3.160029 c -0.192371,-0.359449 -0.305437,-1.187449 -0.251258,-1.84 0.08496,-1.023219 0.271037,-1.270672 1.352535,-1.798614 1.910576,-0.932669 3.940121,-1.005402 6.471264,-0.231914 1.20709,0.368874 3.05871,0.877923 4.11471,1.131223 1.056,0.253299 2.7444,0.760313 3.75201,1.1267 1.0076,0.366384 2.05875,0.666154 2.33589,0.666154 0.70161,0 2.3921,0.910378 2.3921,1.288218 0,0.195664 -3.69036,0.311782 -9.90874,0.311782 -9.649705,0 -9.917887,-0.01709 -10.258511,-0.653549 z M 104.4,67.754653 c 3.42298,0.01664 6,-0.09622 6,-0.262749 0,-0.160547 -0.27772,-0.291904 -0.61714,-0.291904 -0.33943,0 -0.80904,-0.191891 -1.04357,-0.426426 -0.23453,-0.234534 -1.28882,-0.522972 -2.34286,-0.640972 -1.05404,-0.118 -2.78043,-0.510631 -3.83643,-0.872512 -2.688016,-0.921159 -4.85673,-0.901188 -6.337123,0.05835 -0.866045,0.561338 -1.175997,0.985914 -1.178915,1.614896 -0.0049,1.045639 0.420899,1.248948 2.076038,0.991364 0.704,-0.109562 3.98,-0.186084 7.28,-0.170045 z m 42.57526,40.832127 c -0.0356,-0.18436 -0.1303,-1.75981 -0.21045,-3.50099 -0.0801,-1.74119 -0.38578,-4.17379 -0.6792,-5.40579 -0.29342,-1.232 -0.58465,-2.482656 -0.64718,-2.779232 -0.0625,-0.296579 -0.29208,-0.872579 -0.51013,-1.28 -0.21805,-0.407424 -0.38937,-0.812768 -0.38071,-0.900768 0.0649,-0.659421 -0.85468,-1.999629 -2.32765,-3.392502 -0.95697,-0.904928 -1.74033,-1.771815 -1.7408,-1.926413 C 140.47882,89.24649 139.9428,88.832 139.28835,88.48 c -0.65447,-0.352 -1.73407,-1.420595 -2.39914,-2.374653 -1.20667,-1.731011 -1.20921,-1.741513 -1.20921,-5.000921 0,-3.364311 -0.35278,-4.799152 -1.49504,-6.08072 -0.67228,-0.754256 -1.13116,-1.517968 -2.40102,-3.995972 -0.5159,-1.00671 -1.31556,-2.012896 -1.85123,-2.329321 l -0.94302,-0.557059 -0.29334,1.209324 c -0.16134,0.665127 -0.55686,2.325322 -0.87893,3.689322 -0.32207,1.364 -0.70074,2.48 -0.8415,2.48 -0.14076,0 -0.25592,0.21039 -0.25592,0.467533 0,0.257145 -0.32032,0.765961 -0.71183,1.130707 l -0.71183,0.663168 0.87665,0.709296 c 0.48216,0.390112 1.01848,1.212346 1.19183,1.827184 0.40746,1.445206 0.40482,3.202112 -0.005,3.202112 -0.176,0 -0.32,0.270368 -0.32,0.600819 0,0.330448 -0.20187,0.768355 -0.4486,0.973123 -0.24673,0.204772 -0.53748,0.726404 -0.6461,1.159184 -0.10862,0.432781 -0.38508,0.786874 -0.61436,0.786874 -0.22927,0 -0.75193,0.741405 -1.16146,1.647565 -0.40953,0.90616 -1.0112,1.91416 -1.33704,2.24 -0.95248,0.95248 -0.73446,1.989657 0.68848,3.2752 0.91128,0.823289 1.57735,1.157235 2.30814,1.157235 0.83207,0 1.34864,0.339894 2.71908,1.789117 0.93052,0.984016 1.69186,1.984685 1.69186,2.223715 0,0.239027 0.49774,0.814248 1.1061,1.278258 0.94512,0.72088 1.58547,0.8852 4.4,1.12911 4.08587,0.35409 4.9547,0.53971 5.17158,1.1049 0.0941,0.24529 0.75415,0.74342 1.46673,1.10694 0.71258,0.36353 1.29559,0.87282 1.29559,1.13175 0,0.25893 0.288,0.65065 0.64,0.87047 0.352,0.21983 0.64,0.5882 0.64,0.81861 0,0.89713 1.00058,2.34615 1.53851,2.22803 0.29782,-0.0654 0.51236,-0.26975 0.47675,-0.45412 z M 57.115446,82.743098 c 0.787716,-0.839159 0.825482,-0.976381 0.36201,-1.31528 -0.660106,-0.482682 -0.679485,-2.549578 -0.03548,-3.784397 0.692522,-1.32785 0.595107,-2.236115 -0.449862,-4.194346 -0.965783,-1.809833 -1.516634,-4.46056 -1.160279,-5.583331 0.13282,-0.418477 0.671504,-0.776611 1.506224,-1.001376 1.651853,-0.444797 2.97817,0.05193 3.818596,1.430131 0.330528,0.542026 0.610982,0.913501 0.623238,0.825501 0.01226,-0.088 0.152701,-1.96 0.312109,-4.16 0.159408,-2.2 0.32992,-4.28793 0.378918,-4.639846 0.06383,-0.458442 -0.120589,-0.669607 -0.650483,-0.74482 -0.406762,-0.05774 -0.81785,-0.308979 -0.91353,-0.558316 C 60.811222,58.76768 60.620688,58.63305 60.483498,58.71784 60.346304,58.802627 59.533395,58.076634 58.677027,57.104518 57.237418,55.470326 56.403709,54.210467 54.731706,51.142544 54.010448,49.81913 53.137398,44.988589 53.093782,42.08 c -0.0239,-1.594131 -0.07543,-1.764323 -0.303571,-1.002765 -0.151126,0.50448 -0.630371,1.44048 -1.064989,2.08 -0.952112,1.401002 -3.203766,7.737463 -3.745446,10.540211 -0.775206,4.011037 0.05019,10.534832 1.754694,13.868781 0.417914,0.817424 0.859008,1.937728 0.980212,2.489562 0.121203,0.55183 0.583264,1.89903 1.026803,2.993773 0.443539,1.094739 0.919811,2.494438 1.058381,3.110438 0.138572,0.616 0.627289,2.556698 1.086041,4.312662 0.458752,1.755962 0.834093,3.419162 0.834093,3.696 0,0.276836 0.171818,0.675156 0.381821,0.885159 0.295757,0.295757 0.466605,0.183961 0.757987,-0.496 0.206893,-0.482803 0.77193,-1.299427 1.255638,-1.814723 z m 3.253901,-2.077776 c 0.406867,0.0721 1.707373,-2.424452 1.709015,-3.280768 9.6e-4,-0.4705 -0.363437,-1.289319 -0.809645,-1.819604 -0.921309,-1.094915 -1.016749,-1.961539 -0.514346,-4.670451 0.499971,-2.695817 0.03186,-3.374499 -2.32751,-3.374499 -1.212138,0 -1.771261,0.137782 -1.897853,0.46768 -0.332992,0.86776 0.370477,3.87409 1.364019,5.829254 1.109639,2.183626 1.164192,2.56185 0.496797,3.444228 -0.465398,0.615308 -0.668246,3.71375 -0.269254,4.112742 0.110316,0.110314 0.612806,-0.01261 1.116649,-0.273149 0.50384,-0.260547 1.013299,-0.456493 1.132128,-0.435433 z M 125.53684,76.72 c 0.26937,-0.572 0.79904,-2.048 1.17704,-3.28 0.378,-1.232 1.04409,-3.287802 1.48022,-4.568445 0.74152,-2.17744 0.80488,-2.883033 0.97693,-10.88 0.11145,-5.179731 0.0483,-9.955379 -0.16015,-12.111907 -0.41489,-4.292246 -1.75377,-9.9192 -2.57527,-10.82321 -0.3281,-0.36104 -0.96608,-1.232438 -1.41775,-1.936438 -0.45167,-0.704 -1.33346,-1.854426 -1.95954,-2.556503 -0.62608,-0.702076 -1.13832,-1.386076 -1.13832,-1.52 0,-0.133923 -0.13665,-0.243497 -0.30367,-0.243497 -0.16702,0 -0.10148,0.48392 0.14565,1.075378 0.24713,0.591458 0.51248,1.423706 0.58968,1.84944 0.0772,0.425732 0.32174,1.379412 0.54341,2.119288 0.34104,1.138288 0.31839,1.727545 -0.14721,3.83056 -0.30264,1.366934 -0.7682,3.061334 -1.03457,3.765334 -0.26637,0.704 -0.97883,2.692218 -1.58325,4.418262 -1.24421,3.553165 -1.00437,3.191383 -4.53004,6.833168 -2.91759,3.01368 -3.01392,3.291236 -2.18617,6.299319 0.24961,0.907088 0.54085,2.171715 0.64719,2.810281 0.2288,1.373844 1.21465,2.529354 2.6722,3.132055 0.57926,0.239529 1.47085,0.942176 1.9813,1.561433 l 0.92808,1.125927 0.20471,-0.930224 c 0.555,-2.521968 1.56362,-3.854922 2.65486,-3.508573 0.82029,0.260349 2.09307,3.201235 1.86354,4.305885 -0.0951,0.457856 -0.39105,1.840467 -0.65759,3.072467 -0.26653,1.232 -0.49209,3.104 -0.50126,4.16 -0.0118,1.360979 -0.10698,1.780246 -0.32686,1.44 -0.27248,-0.421638 -0.3108,-0.41897 -0.3151,0.02195 -0.004,0.416861 1.55886,1.485219 2.27864,1.557594 0.11194,0.01126 0.42393,-0.447536 0.6933,-1.019536 z m -3.28508,-1.92 c 0.006,-0.748 0.22565,-2.368 0.48707,-3.6 0.78309,-3.690566 0.87443,-4.827795 0.48303,-6.013757 -0.40885,-1.238825 -1.14656,-1.713494 -1.80883,-1.163862 -0.23421,0.194381 -0.72993,1.316928 -1.10159,2.49455 -0.65859,2.086736 -0.66248,2.218122 -0.15327,5.172099 0.5043,2.925488 1.11587,4.47097 1.76921,4.47097 0.17194,0 0.31791,-0.612 0.32438,-1.36 z M 67.68,58.71007 c 0.528,-0.24319 1.32,-0.984329 1.76,-1.646976 0.44,-0.662646 1.052,-1.460924 1.36,-1.773952 0.308,-0.31303 0.56,-0.691273 0.56,-0.840544 0,-0.149267 0.597098,-0.540652 1.326883,-0.86974 0.729789,-0.329088 1.544714,-0.81617 1.810947,-1.082404 0.570935,-0.570934 6.061485,-0.848918 8.375901,-0.424067 2.089827,0.383623 6.781235,-0.139718 7.300045,-0.814342 0.227574,-0.295923 0.48135,-0.485459 0.563946,-0.421187 0.08259,0.06427 1.048396,0.02362 2.146224,-0.09033 1.09783,-0.113949 4.059993,-0.333446 6.582582,-0.48777 4.496452,-0.275075 4.615862,-0.265366 6.080002,0.494388 1.79303,0.930416 3.39661,2.376624 4.06202,3.663382 0.45257,0.875184 1.55009,1.294918 1.80478,0.690218 0.0587,-0.13929 0.64667,-0.660381 1.30667,-1.157981 0.66,-0.4976 1.20032,-1.067635 1.2007,-1.266746 3.2e-4,-0.19911 0.86439,-1.143017 1.92,-2.097571 1.05562,-0.95455 1.9193,-1.990054 1.9193,-2.301114 0,-0.311059 0.13183,-0.647036 0.29295,-0.746617 0.16112,-0.09958 0.60514,-1.152077 0.9867,-2.338883 0.38156,-1.18681 0.88085,-2.589834 1.10953,-3.117834 0.79537,-1.836413 1.09312,-2.893555 1.45259,-5.157222 0.32368,-2.038285 0.29219,-2.488708 -0.30007,-4.292848 -0.36394,-1.108597 -0.6617,-2.286998 -0.6617,-2.618671 0,-0.953449 -0.86667,-2.381218 -1.886,-3.107046 -0.60139,-0.428229 -2.11784,-0.863613 -4.24482,-1.218717 -1.82005,-0.303861 -3.38118,-0.646057 -3.46918,-0.760436 -0.24517,-0.318665 -6.00536,0.265939 -8.09561,0.821629 C 101.9238,26.01801 100.7443,26.24 100.32327,26.24 c -0.421024,0 -0.844227,0.127384 -0.940451,0.283076 -0.144493,0.233797 -2.653933,0.772591 -3.222118,0.691811 C 96.069926,27.201981 95.27761,27.555282 94.4,28 c -0.87761,0.444718 -1.665635,0.81342 -1.751168,0.819338 -0.08554,0.0059 -0.840125,0.313594 -1.676864,0.683724 -1.908234,0.844102 -4.580518,0.805426 -8.029043,-0.116204 C 81.588317,29.024834 79.832,28.583297 79.04,28.405664 77.124854,27.976129 71.36,27.72468 71.36,28.070681 c 0,0.150252 -0.41193,0.304574 -0.915398,0.342937 -0.503469,0.03836 -2.051469,0.370978 -3.44,0.739146 C 65.61607,29.52093 64.3,29.832172 64.08,29.844412 c -0.22,0.01224 -0.4,0.150753 -0.4,0.307807 0,0.157053 -0.120432,0.211121 -0.267626,0.12015 -0.147196,-0.09097 -0.786704,0.324205 -1.421129,0.922615 -0.634429,0.59841 -1.737997,1.263138 -2.452375,1.47717 -0.714377,0.214032 -1.29887,0.487241 -1.29887,0.607132 0,0.227709 -1.305117,0.901156 -1.622858,0.837402 C 56.272448,34.04753 55.36,35.154064 55.36,35.641242 c 0,0.267827 -0.211158,0.605126 -0.469238,0.749555 -0.263799,0.147629 -0.579028,1.030227 -0.72,2.015901 -0.340567,2.381209 -0.239322,7.267436 0.160713,7.756288 0.178685,0.218358 0.39753,1.117014 0.486317,1.997014 0.404477,4.008832 5.50743,11.04 8.012413,11.04 0.467389,0 0.849795,0.126544 0.849795,0.281206 0,0.34944 2.695187,-0.17015 4,-0.771136 z M 91.84,27.643374 c 4.272758,-1.82508 5.007088,-2.059755 8.94197,-2.857644 1.31008,-0.265649 2.4503,-0.551331 2.53381,-0.634847 0.40857,-0.408561 -1.48939,-3.030883 -2.19366,-3.030883 -0.18955,0 -0.69483,-0.229458 -1.122853,-0.509906 -0.574528,-0.376446 -1.130134,-0.450449 -2.12279,-0.282741 -1.701674,0.287496 -5.751395,1.99808 -6.20769,2.622099 -0.637392,0.871683 -3.694557,1.711703 -6.315523,1.735322 -1.367706,0.01233 -2.663706,-0.11794 -2.88,-0.289479 C 81.193405,23.380268 76.890922,22.864138 75.033229,23.502782 73.814138,23.921885 72,25.66745 72,26.421356 c 0,0.243725 1.306272,0.429366 3.92,0.557092 2.221219,0.108544 4.50168,0.402739 5.262246,0.678864 0.738234,0.268017 1.81386,0.570391 2.390279,0.671941 0.576419,0.101551 1.112406,0.249012 1.191088,0.327692 0.07868,0.07868 1.091053,0.144226 2.249721,0.145657 1.712938,0.0021 2.615024,-0.21454 4.826666,-1.159228 z"
         id="outline" />
    </g>
  </g>
</svg>
