<?xml version="1.0" encoding="UTF-8" standalone="no"?>
<!-- Created with Inkscape (http://www.inkscape.org/) -->

<svg
   version="1.1"
   id="svg9"
   width="192"
   height="288"
   viewBox="0 0 192 288"
   xmlns="http://www.w3.org/2000/svg"
   xmlns:svg="http://www.w3.org/2000/svg">
  <defs
     id="defs13" />
  <g
     id="g15">
    <g
       id="g177"
       transform="translate(3.7808913,4.1834395)">
      <path
         style="fill:#f0ece1;stroke-width:0.32"
         d="m 50.642003,104.75372 c -2.662214,-1.31242 -5.678423,-5.689228 -5.890279,-9.350674 -0.186636,-3.225575 0.682372,-5.587287 2.923998,-7.31218 1.362717,-1.048586 1.712719,-1.371783 2.145132,-2.578116 0.70888,-1.977626 1.04173,-1.583124 0.293468,-1.583124 -0.560855,0 -0.33248,0.402461 -0.940436,2.184941 -0.120057,0.352 -1.679592,1.057433 -2.633316,1.805433 -1.716391,1.34615 -1.680199,1.589988 -4.253206,1.65185 l -2.697514,0.06486 -1.541021,-1.684278 c -2.929976,-3.202353 -3.280504,-5.533569 -1.136657,-8.882139 0.788758,-1.232 1.976073,-2.626931 2.341218,-3.198931 0.599852,-0.746733 0.775222,-1.170378 0.833797,-1.313485 -0.09296,-0.150416 0.608099,-0.558875 1.042675,-0.967137 C 41.564438,73.182474 41.92,72.955827 41.92,73.087075 c 0,0.131251 0.21424,0.02438 0.476093,-0.237453 0.354237,-0.354236 1.188694,-0.467808 3.260288,-0.443724 1.909376,0.02221 2.824505,-0.08855 2.91248,-0.35248 0.07055,-0.211664 0.295424,-0.562276 0.499712,-0.779133 C 49.272858,71.057427 49.48919,70.592 49.549312,70.24 c 0.06012,-0.352 0.241021,-0.688298 0.401994,-0.747331 0.160976,-0.05903 0.211286,-0.239034 0.111801,-0.4 C 49.963626,68.931702 50.058723,68.8 50.274448,68.8 c 0.215722,0 0.297469,-0.09475 0.181661,-0.210557 -0.115805,-0.115808 -0.07634,-0.372278 0.0877,-0.569939 0.164042,-0.197661 0.366218,-0.734141 0.449274,-1.192176 0.125264,-0.690784 0.0486,-0.806013 -0.449594,-0.675731 -0.330332,0.08638 -0.577228,0.249613 -0.548649,0.362733 0.107961,0.427366 -0.451191,1.64567 -0.755293,1.64567 -0.174528,0 -0.228326,0.144 -0.119552,0.32 0.108774,0.176 0.03677,0.32 -0.16,0.32 -0.196774,0 -0.274925,0.134051 -0.173667,0.297888 0.101261,0.16384 0.03541,0.389789 -0.146333,0.502112 -0.181741,0.112323 -0.250838,0.333021 -0.153549,0.490438 0.280055,0.45314 -1.100733,1.639434 -1.702819,1.46297 C 46.484634,71.465776 45.52,71.360534 44.64,71.319536 42.939498,71.240307 41.6,70.804186 41.6,70.32975 c 0,-0.158137 -0.122013,-0.212115 -0.271136,-0.119948 -0.149126,0.09216 -0.693725,-0.309751 -1.210224,-0.893146 -0.689712,-0.77904 -0.95041,-1.412794 -0.981734,-2.386566 -0.02346,-0.72922 0.09149,-1.408756 0.255443,-1.510084 0.163949,-0.101324 0.215245,-0.318278 0.113984,-0.482118 C 39.405075,64.774051 39.483226,64.64 39.68,64.64 c 0.196774,0 0.268774,-0.144 0.16,-0.32 C 39.731226,64.144 39.803226,64 40,64 c 0.196774,0 0.268774,-0.144 0.16,-0.32 -0.108774,-0.176 -0.02128,-0.32 0.194448,-0.32 0.215722,0 0.301962,-0.09026 0.191648,-0.20057 -0.327654,-0.327657 0.683354,-1.990444 1.457216,-2.396659 0.394179,-0.206912 0.831843,-0.571181 0.972589,-0.809485 C 43.116646,59.714979 43.425238,59.52 43.661664,59.52 c 0.236426,0 0.516253,-0.225126 0.62184,-0.500282 0.105587,-0.275155 0.336992,-0.410656 0.514237,-0.301116 0.177241,0.109542 0.322259,0.02269 0.322259,-0.19305 0,-0.215722 0.09475,-0.297469 0.210557,-0.181661 0.115808,0.115805 0.401971,0.0517 0.635926,-0.142467 0.233952,-0.194163 0.638589,-0.271203 0.899194,-0.1712 0.260605,0.100003 0.545523,0.06581 0.633155,-0.07597 0.08763,-0.141789 1.045523,-0.284388 2.128653,-0.31689 1.696285,-0.0509 1.941789,0.01267 1.770704,0.458515 -0.127984,0.333517 -0.05629,0.467834 0.201593,0.377667 0.220119,-0.07697 0.357463,-0.378928 0.305207,-0.671024 -0.05226,-0.292096 0.127744,-0.616563 0.4,-0.721036 C 52.577245,56.977005 52.8,56.690934 52.8,56.445763 c 0,-0.245168 0.18,-0.447968 0.4,-0.450662 0.297405,-0.0036 0.303923,-0.06602 0.02541,-0.243181 -0.265005,-0.168573 -0.328989,-1.267101 -0.21872,-3.755101 0.08573,-1.934249 0.144845,-4.00432 0.131373,-4.600157 -0.01347,-0.595833 0.138582,-1.279833 0.337904,-1.52 C 53.675283,45.636499 53.740589,45.44 53.621088,45.44 c -0.119501,0 -0.0054,-0.396 0.253632,-0.88 0.258995,-0.484 0.861642,-1.844707 1.33921,-3.023798 0.477568,-1.179088 1.137801,-2.433066 1.467187,-2.786618 0.329382,-0.353552 0.59888,-0.757152 0.59888,-0.89689 0,-0.139737 0.612,-0.917497 1.36,-1.728358 0.748,-0.810858 1.791193,-1.99855 2.318208,-2.639312 0.527014,-0.640765 1.050777,-1.165024 1.16392,-1.165024 0.113142,0 1.036598,-0.792 2.052128,-1.76 1.015526,-0.968 2.017728,-1.76 2.227117,-1.76 0.209385,0 0.712768,-0.288 1.118627,-0.64 0.405859,-0.352 0.931894,-0.64 1.168963,-0.64 0.237072,0 0.43104,-0.144 0.43104,-0.32 0,-0.176 0.210934,-0.32 0.468742,-0.32 0.257808,0 0.613904,-0.271242 0.791328,-0.60276 0.177424,-0.331518 0.82586,-0.697175 1.440973,-0.812571 0.615111,-0.115395 1.337875,-0.429302 1.606144,-0.697571 0.679277,-0.679278 5.526621,-0.935833 8.012813,-0.424094 3.463674,0.712936 6.402608,2.59731 7.233027,4.637645 0.272003,0.668305 0.363722,3.663229 0.317866,10.379351 -0.05267,7.713738 0.02963,9.843456 0.450048,11.646278 0.399661,1.713818 0.590747,2.325767 0.291822,2.600535 -0.468329,0.969984 0.181423,0.36764 -1.177654,1.491219 C 87.851201,55.900217 87.294189,56 86.1644,56 85.409203,56 84.54127,55.86105 84.235658,55.691222 83.381184,55.216397 80.893152,54.18248 80,53.931069 c -0.44,-0.123856 -1.952,-0.706842 -3.36,-1.295527 -3.32048,-1.388291 -6.95448,-2.137936 -8.580227,-1.769987 -3.064925,0.693674 -7.26743,5.455241 -7.26743,7.749205 0,0.372845 -0.981847,2.023355 -1.409021,3.72725 -1.189613,4.745081 -1.269684,5.76624 -0.665197,8.483292 0.296512,1.332762 0.451885,2.56434 0.345273,2.736839 -0.106611,0.172499 -0.0579,0.397648 0.108244,0.500333 0.327792,0.202588 0.238428,2.550876 -0.131578,3.457526 -0.125696,0.308 -0.45313,0.56 -0.727635,0.56 -0.274503,0 -0.418208,0.08089 -0.319344,0.17975 0.09886,0.09886 -0.156237,0.542285 -0.566887,0.985383 -0.410646,0.443094 -0.673718,0.995641 -0.584598,1.227881 0.08912,0.232237 0.03803,0.498887 -0.113533,0.592557 -0.284659,0.17593 -0.274243,2.566163 0.01488,3.414429 0.227626,0.667846 0.511773,2.022947 0.495744,2.364224 -0.0074,0.15632 0.119242,0.37232 0.281296,0.48 0.162055,0.107677 0.663661,1.009082 1.114679,2.003123 0.451017,0.994042 1.122726,2.110042 1.492684,2.48 0.656423,0.656423 0.913997,1.632653 0.430768,1.632653 -0.520435,0 -0.391304,1.991549 -0.60532,4.848329 -0.28536,3.809151 -1.755939,6.325411 -3.470656,6.924551 -1.60255,0.55996 -4.617217,0.14371 -5.840136,-0.45912 z m 2.320728,-6.069258 C 54.297525,97.836196 54.878618,93.652336 53.76,92.64 c -0.352,-0.318557 -0.64,-0.772874 -0.64,-1.009597 0,-0.780601 -0.206364,-0.334935 -0.961013,0.723094 C 51.539643,93.22183 50.72,93.681242 50.72,95.710819 c 0,1.589933 0.622129,2.484164 0.909384,2.830289 0.468192,0.564135 0.699171,0.546378 1.333347,0.143354 z m -1.710074,-1.038299 c -0.347923,-0.915104 -0.384766,-3.835531 -0.08541,-4.615627 0.291958,-0.760829 1.988492,-0.754792 2.57144,0.134897 0.353379,0.539328 0.320396,1.604796 0.177657,2.326418 -0.540928,2.734637 -2.043516,3.785474 -2.663682,2.154312 z M 44.195709,81.76 C 44.961034,79.731875 44.976851,78.447885 44.24,78.164688 43.766109,77.98256 43.803014,77.9152 44.48,77.72663 45.172512,77.533734 44.992353,77.840002 43.974843,77.81239 41.946887,77.757359 40,79.709242 40,82.002947 40,85.124544 42.991437,84.951328 44.195709,81.76 Z m -3.505795,1.890781 c -0.826905,-1.008547 -0.396184,-3.470229 0.714571,-4.686351 0.849655,-0.930249 1.591087,-1.238684 2.327487,-0.903158 0.959111,0.436999 0.972118,1.795465 0.243887,3.538364 -0.861744,2.062448 -2.549557,2.949292 -3.285945,2.051145 z m 6.136947,-17.60201 c 0.877776,-0.865376 1.397715,-1.623088 1.262598,-1.84 -0.126342,-0.202825 -0.188381,-0.688723 -0.137862,-1.079779 0.05051,-0.391053 -0.169927,-1.070528 -0.489875,-1.509942 -0.645639,-0.886724 -1.143085,-1.083421 -0.857444,-0.33905 0.111965,0.291776 6.4e-4,0.48 -0.283632,0.48 -0.566691,0 -2.152057,1.846387 -2.182374,2.54169 -0.145178,3.32966 -0.163398,3.218806 0.529005,3.218553 0.367001,-1.34e-4 1.338816,-0.662297 2.159584,-1.471472 z m -2.263664,-0.645328 c 0.09154,-0.812105 0.44871,-1.856105 0.793721,-2.32 0.682058,-0.917081 1.975303,-1.312297 2.047453,-0.625699 0.200221,1.905318 0.07334,2.377498 -0.844371,3.142256 -0.528,0.44 -1.008,0.908 -1.066666,1.04 -0.05867,0.132 -0.329395,0.24 -0.601619,0.24 -0.399133,0 -0.462729,-0.28584 -0.328518,-1.476557 z M 84.975715,45.14543 c -0.914969,-1.480454 -5.385142,-3.231107 -8.221904,-3.219945 -1.33912,0.0053 -5.894742,1.028781 -6.275987,1.410025 -0.379994,0.379994 1.015789,0.162327 3.18592,-0.496828 3.479872,-1.05698 7.62679,-0.328103 10.036886,1.764118 1.203812,1.04504 1.72184,1.265491 1.275085,0.54263 z m 44.855075,56.4801 c -2.69344,-0.72438 -4.17031,-2.893652 -4.5658,-6.706381 -0.18336,-1.76761 -0.34608,-2.231651 -0.82664,-2.357322 -0.86073,-0.225085 -0.76688,-0.466032 0.85843,-2.204038 1.642,-1.755847 4.7081,-7.667258 5.28934,-10.197789 0.42785,-1.862739 0.40756,-4.376893 -0.0468,-5.794102 -0.17528,-0.546756 -1.17834,-1.819828 -2.22902,-2.829044 L 126.4,69.70191 l 0.004,-3.250953 c 0.005,-4.177117 -1.00018,-6.977077 -2.66342,-10.381823 -1.53569,-3.143632 -1.30647,-3.488583 -1.58719,-2.278746 -1.04737,-0.604882 -3.45541,-2.554656 -4.71974,-3.208408 -4.09931,-2.088701 -5.58672,-2.903212 -8.20347,-2.574642 -2.78465,0.349654 -2.94276,0.41214 -6.03029,2.383241 -6.256064,3.99392 -8.928438,5.286458 -10.933331,5.28808 -1.825961,0.0016 -2.104336,-0.287696 -1.623632,-1.686624 0.167821,-0.488377 0.206874,-1.424377 0.08679,-2.08 C 90.609734,51.256416 90.396509,46.112 90.255987,40.48 90.115466,34.848 89.893594,29.844 89.762941,29.36 c -0.187626,-0.695058 -0.128832,-0.88 0.279753,-0.88 0.284519,0 0.517306,-0.109853 0.517306,-0.244119 0,-0.134265 0.277392,-0.386265 0.616429,-0.56 0.339037,-0.173734 1.646467,-1.018539 2.905401,-1.877342 3.252077,-2.21846 5.449185,-3.124644 9.46014,-3.081745 3.14699,0.03366 3.63586,-0.146854 7.28814,1.423709 3.67628,1.580875 7.75986,4.488409 8.54971,5.964256 0.16856,0.31495 1.31077,1.211399 2.1221,1.79394 1.63328,1.172704 2.30733,2.971727 4.63305,8.741301 2.21095,5.484851 2.35501,5.655586 4.4596,7.17703 2.35622,1.703347 3.924,2.739675 6.32908,3.395778 5.44641,1.485769 8.6823,8.764758 4.93308,10.953574 -3.7479,2.188045 -7.76115,2.561925 -9.3115,1.120757 -1.46336,-1.360297 -2.42054,-1.852416 -2.94833,-1.51583 -0.38589,0.246093 -0.14102,0.606317 1.2831,1.887529 2.1503,1.934532 3.62402,2.284074 6.38894,1.515357 1.12427,-0.312573 2.3138,-0.431846 3.07497,-0.308326 1.2523,0.203219 3.33609,1.243462 3.33609,1.665398 0,0.125431 0.28836,0.537575 0.64081,0.915879 1.36306,1.463075 1.99762,6.854435 1.30393,11.078428 -0.37575,2.287994 -2.08875,3.51792 -5.42541,3.895418 l -2.00001,0.226278 -1.56896,-1.697699 c -1.32971,-1.438825 -1.60265,-1.609891 -1.78992,-1.121856 -0.31148,0.811693 0.74413,2.621107 1.97179,3.379847 0.56282,0.34784 1.54631,0.632438 2.18554,0.632438 1.01568,0 1.16223,0.09751 1.16223,0.773309 0,0.472128 0.33779,1.019369 0.86729,1.405085 0.82338,0.599792 0.8737,0.791491 0.99394,3.786691 0.14653,3.650038 -0.23943,5.447929 -1.48537,6.919117 -0.48247,0.569689 -1.21437,1.539798 -1.62645,2.155798 -0.51368,0.767866 -1.44011,1.44698 -2.94663,2.16 -2.38616,1.12934 -3.6583,1.25082 -6.13199,0.58553 z m 3.92748,-7.064436 c 1.77033,-1.117561 2.33202,-2.07438 2.06217,-3.512825 -0.28472,-1.517664 -1.34584,-2.236042 -2.92448,-1.979866 -0.6444,0.104573 -1.3619,0.380397 -1.59445,0.612944 -0.61636,0.616365 -0.75745,4.233491 -0.19637,5.034544 0.59075,0.843411 1.12086,0.812483 2.65313,-0.154797 z m -2.24619,-0.661926 c -0.4332,-1.139392 -0.3907,-3.452544 0.0719,-3.915168 0.2112,-0.2112 0.9744,-0.384 1.696,-0.384 1.6305,0 2.08,0.430272 2.08,1.991046 0,1.108468 -0.14077,1.312327 -1.50265,2.176 -1.82835,1.159504 -1.95201,1.166471 -2.34527,0.132122 z m 8.15011,-18.230448 c 1.10411,-1.104115 1.2981,-2.114214 0.66304,-3.452506 -1.57507,-3.319216 -3.30163,-2.309484 -2.6507,1.550192 0.27885,1.653434 0.69692,2.713594 1.07011,2.713594 0.0584,0 0.47134,-0.365075 0.91755,-0.81128 z M 138.52927,75.84 c -0.74828,-2.34977 -0.67852,-5.570755 0.11399,-5.263696 0.5811,0.225142 1.51674,1.996688 1.51674,2.871786 0,0.650828 -1.48946,2.835529 -1.63073,2.39191 z M 136.4214,57.31655 c 0.65988,-0.659868 0.8864,-0.908471 0.88555,-1.659508 -0.002,-1.406441 -0.82998,-2.820336 -1.6955,-2.820336 -1.46268,0 -2.98026,2.76093 -2.44858,4.257455 0.59624,1.678253 1.78951,1.691417 3.25853,0.222389 z m -2.99218,-0.0182 c -0.42653,-1.243765 -0.36354,-2.348021 0.65948,-3.525348 1.06705,-1.134298 2.0193,-1.10968 2.65233,0.114464 0.87958,1.700928 -0.1507,3.988168 -1.90413,3.988168 -0.69262,0 -1.54529,-0.218686 -1.40768,-0.577284 z M 97.948189,45.625386 c 1.59999,-1.346304 3.147421,-2.290797 5.511821,-2.657056 1.8441,-0.285661 2.75797,-0.352252 5.48664,0.186042 2.48874,0.490963 3.31283,0.756013 4.18922,0.446357 0.72701,-0.256876 1.7239,-0.44151 0.0161,-0.207427 -0.82022,0.112423 -2.70561,-0.117589 -4.44828,-0.437853 -4.62966,-0.850816 -7.70265,-0.150026 -10.389877,2.153906 -1.528073,1.310112 -1.897782,0.98884 -2.292396,2.492955 -0.115437,0.44 -0.387283,0.912574 0.04986,0.09895 0.437142,-0.813626 1.317432,-1.605083 1.876933,-2.075873 z m 1.089347,-6.506615 c 2.476754,-1.257232 5.466904,-1.630899 8.740864,-0.544951 1.67946,0.557063 1.9684,0.419028 2.08376,0.67376 0.096,0.212038 -3.51277,-1.614809 -6.18216,-1.629855 -1.94253,-0.01094 -2.03062,0.114941 -3.49142,0.798141 -1.841376,0.861188 -4.087018,1.930901 -4.087018,2.490462 0,0.170909 0.313823,-0.08415 0.796466,-0.566793 0.482646,-0.482647 1.258154,-0.773378 2.139508,-1.220764 z m -0.619917,-5.665683 c 1.026195,-0.486963 1.815311,-0.702865 7.098671,-0.504292 4.13054,0.155245 4.96465,0.154284 4.7433,-0.07589 -0.19052,-0.198109 -1.64537,0.09577 -5.07473,0.03441 l -4.46289,-0.135474 -2.560938,0.704747 c -0.907076,0.249619 -1.986667,1.098008 -2.275637,1.539029 -0.852006,1.300329 -0.60152,1.382547 0.423507,0.139011 0.521895,-0.633149 1.470816,-1.398848 2.108717,-1.701549 z"
         id="hair" />
      <path
         style="fill:#ecd9c1;stroke-width:0.32"
         d="m 89.28,110.9848 c -4.04753,-0.83859 -5.458371,-1.30613 -9.12,-3.02228 -1.122032,-0.52589 -4.725738,-3.36854 -7.100845,-5.60125 -0.913465,-0.8587 -1.777465,-1.56357 -1.92,-1.56638 C 70.782061,100.78785 69.341267,99.433856 66.88,96.792333 65.736,95.56455 64.395824,94.250608 63.90183,93.872461 62.678419,92.935955 60.261008,89.264378 59.152179,86.658666 58.491072,85.105088 58.24,83.990118 58.24,82.607818 c 0,-1.707328 0.116218,-2.046368 1.108627,-3.234205 1.485443,-1.777962 1.429623,-2.980698 0.725431,-6.692189 -0.716829,-3.778099 -0.81248,-6.223234 -0.09098,-9.353852 0.696022,-3.020083 0.957186,-4.273497 1.382658,-4.273497 0.200524,-0.239678 0.618942,-0.876521 0.660374,-1.171703 0.427437,-0.600282 0.505271,-0.656573 0.270266,-0.801815 -0.09176,-0.347145 -0.821671,1.054293 -1.402123,0.194228 -0.274242,-0.827535 2.62438,-2.617375 4.012895,-3.617113 2.274774,-1.63785 2.684701,-1.817709 4.142867,-1.817709 2.08104,0 4.933629,0.736007 7.310688,1.886253 1.03361,0.500163 2.383293,1.014499 2.999293,1.142976 0.616,0.128477 1.408,0.410333 1.76,0.626342 0.980074,0.601444 3.336733,1.16496 5.178826,1.238346 1.420508,0.05659 1.790131,-0.05969 2.572771,-0.809376 l 0.913945,-0.875459 0.574528,0.670998 c 0.495626,0.578851 0.848308,0.653568 2.568077,0.544061 1.618554,-0.103062 2.621664,-0.442448 5.332701,-1.80423 1.836536,-0.922509 4.347156,-2.324701 5.579156,-3.115984 2.54756,-1.636231 3.69879,-2.017709 6.45383,-2.138586 1.81205,-0.0795 2.19672,0.04174 5.62349,1.772394 l 3.6784,1.857734 1.90642,1.407292 c 3.36352,2.228856 1.97552,2.087976 2.73411,3.383873 0.19051,1.392386 1.14478,1.785266 0.89084,7.363655 l -0.25354,5.569711 2.08681,2.174032 2.08681,2.174035 -0.16002,2.806503 c -0.15071,2.643203 -0.26507,3.010115 -1.96546,6.305965 -0.993,1.924707 -2.3446,4.090822 -3.00357,4.81359 -3.50921,3.848982 -6.29614,6.552285 -8.39812,8.146128 -1.31593,0.997814 -2.11889,1.681072 -6.55726,5.579754 -0.80146,0.704 -2.06595,1.625 -2.80997,2.04666 -0.74402,0.42166 -2.28877,1.37806 -3.43277,2.12534 -3.594148,2.34773 -9.073626,4.65385 -10.905111,4.58957 C 91.212701,111.30041 90.072,111.14887 89.28,110.98478 Z M 101.79575,92.96 c 9.6e-4,-0.176 -1.19454,-0.595542 -2.656905,-0.932317 -2.578967,-0.59392 -2.860727,-0.596109 -9.378845,-0.07289 -3.696,0.296681 -7.584,0.540601 -8.64,0.542044 -1.555472,0.0022 -1.80448,0.0697 -1.311542,0.355914 0.653171,0.379248 4.028348,0.270208 11.824332,-0.382 4.412743,-0.369168 7.625821,-0.124944 8.86926,0.674147 0.55715,0.358051 1.29104,0.253162 1.2937,-0.184898 z M 89.808899,86.381408 C 90.900787,85.966272 93.44,83.923027 93.44,83.459546 c 0,-0.346567 -0.0718,-0.30226 -2.561002,1.580454 -0.756262,0.572 -1.709936,1.04 -2.119276,1.04 -0.94338,0 -2.756701,-1.089642 -3.050644,-1.833158 -0.193545,-0.489565 -0.227161,-0.473114 -0.246585,0.120665 -0.01568,0.479031 0.389907,0.93616 1.337507,1.507514 1.549901,0.934505 1.780701,0.973347 3.008899,0.506387 z M 114.72,78.722592 c 3.27183,-0.759872 5.1642,-1.604349 6.51939,-2.909286 2.26924,-2.185108 3.02651,-6.051968 1.54098,-7.868752 -0.40679,-0.497504 -1.12275,-1.571303 -1.59102,-2.386215 -1.06587,-1.854909 -2.4333,-2.452982 -6.62698,-2.898441 -9.49626,-1.008711 -20.425071,2.331536 -22.208031,6.787593 -0.536345,1.340464 -1.472157,1.823069 -2.85976,1.4748 C 88.913078,70.776346 88.631958,70.328902 88.216218,68.8876 87.620589,66.822659 87.305744,66.345213 85.92,65.405498 81.036358,62.09375 69.527514,61.668253 64.732806,64.622182 c -1.496851,0.922183 -2.721123,2.951092 -2.899235,4.804714 -0.199062,2.071686 0.73361,4.008691 2.843658,5.905805 1.407635,1.265587 1.93207,1.506569 4.64079,2.132499 2.623661,0.606272 3.602327,0.677718 6.947898,0.507222 4.542461,-0.231491 8.398301,-1.102441 9.643661,-2.178297 C 86.389696,75.379357 87.059379,74.5 87.397763,73.84 c 0.563479,-1.099037 0.729123,-1.200368 1.968739,-1.204368 0.744426,-0.0026 1.641498,-0.08141 1.993498,-0.175562 0.527094,-0.140988 0.714109,0.06783 1.060083,1.183677 0.866739,2.79544 3.521235,4.957709 6.619917,5.392368 0.704,0.09875 3.944,0.202384 7.2,0.230291 4.77071,0.04089 6.41699,-0.06468 8.48,-0.543814 z M 96.716253,77.898829 C 94.738448,76.922282 93.70336,75.674246 92.951869,73.36 92.641651,72.404672 92.215171,71.68 91.963168,71.68 91.719424,71.68 91.52,71.536 91.52,71.36 c 0,-0.176 0.142067,-0.32 0.315706,-0.32 0.173638,0 0.5151,-0.477216 0.758803,-1.060483 0.887712,-2.124592 4.154032,-3.984426 9.965491,-5.674327 1.62036,-0.471177 3.62048,-0.704121 7.23044,-0.842083 6.95941,-0.265971 9.80227,0.443959 10.73709,2.681303 0.26242,0.628044 0.7761,1.546291 1.14152,2.04055 0.54949,0.743219 0.63062,1.183885 0.4691,2.547731 -0.10742,0.906992 -0.45804,2.103181 -0.77915,2.658192 -0.74637,1.290029 -3.1961,2.942147 -5.3107,3.581578 -1.8759,0.567251 -8.14397,1.276973 -13.8083,1.563485 -3.685971,0.186444 -3.907536,0.160889 -5.523747,-0.637117 z m 16.407137,-2.34619 c 2.10173,-0.984026 3.35688,-1.605676 2.80911,-1.835241 -0.4233,-0.177404 -0.22274,-1.916201 0.29765,-2.580454 0.16505,-0.210682 0.25279,-0.786682 0.19497,-1.28 -0.0829,-0.707034 0.0248,-0.897232 0.50867,-0.898301 0.75489,-0.0016 1.06401,-0.769622 0.46521,-1.155737 -1.02301,-0.659648 -2.98289,-0.898509 -7.959,-0.97 -5.26423,-0.07563 -5.28956,-0.07259 -8.48,1.019385 -1.76,0.602384 -2.948,1.144608 -2.64,1.204941 0.374141,0.07329 0.56,0.407555 0.56,1.007152 0,1.024806 0.781446,3.067491 1.29489,3.384819 0.18952,0.11713 0.46561,0.531277 0.61353,0.920323 0.17499,0.460269 0.78933,0.762383 1.69465,1.035733 0.76522,0.231053 1.80361,0.517741 2.41961,0.763203 1.79057,0.713498 6.09142,0.381105 8.22071,-0.615823 z M 72.16,77.575299 c -4.104502,-0.566435 -6.106838,-1.359545 -7.743782,-3.067257 -3.490426,-3.641322 -2.15753,-8.624311 2.68335,-10.031591 2.628474,-0.764118 10.389232,-0.792528 13.314477,-0.04874 4.64775,1.18176 6.51592,2.494902 7.586099,5.332291 0.232339,0.616 0.543354,1.2568 0.691146,1.424 0.477251,0.539926 0.285843,1.136 -0.364788,1.136 -0.413481,0 -0.853152,0.430563 -1.265968,1.239747 C 86.323382,75.004685 84.69185,76.48 83.831059,76.48 c -0.329907,0 -1.434861,0.218566 -2.455446,0.485706 -1.865997,0.488422 -7.427773,0.856323 -9.215613,0.609593 z m 3.275408,-2.414409 c 2.77161,-0.652836 4.24711,-1.287671 4.622317,-1.988752 0.203731,-0.380676 0.331177,-0.734314 0.283213,-0.785863 -0.04797,-0.05155 0.09655,-0.53736 0.321142,-1.079581 0.30591,-0.738531 0.321197,-1.216758 0.06093,-1.906272 -0.336803,-0.892294 -0.450068,-1.070439 0.527201,-1.159452 0.345067,-0.03143 0.493418,-0.02795 0.287851,-0.08214 -1.204022,-0.317403 -8.93528,-1.811821 -12.16184,-1.603706 -1.709328,0.110253 -2.007723,0.120372 -2.570446,0.690644 -0.670835,0.67983 -1.012446,0.655954 -0.48578,1.047963 0.615315,0.457997 0.741942,1.316051 0.24,1.626269 -0.52425,0.324003 -0.363142,1.703072 0.24,2.054368 0.310787,0.181018 0.40492,0.479547 0.18293,0.484946 -0.741222,0.01802 -0.430495,0.480328 0.61707,1.023588 1.051168,0.545127 5.18593,1.946848 5.915408,2.005373 0.217475,0.01744 1.081475,-0.129875 1.92,-0.327385 z M 101.12,60.560368 c 5.10496,-1.996211 6.18072,-2.256429 10.93365,-2.644752 2.45529,-0.200602 4.00509,-0.46769 4.16378,-0.717578 0.39294,-0.618761 0.30806,-1.200668 -0.20379,-1.397084 -0.75766,-0.29074 -8.44392,0.816016 -10.55116,1.51927 -3.13728,1.047021 -7.638611,3.315366 -8.50248,4.284646 -0.44,0.493687 -0.584,0.812567 -0.32,0.708621 0.264,-0.103945 2.28,-0.892851 4.48,-1.753123 z m -17.518,0.582246 c -2.122518,-1.537545 -4.410218,-2.559945 -7.69703,-3.439897 -3.712512,-0.99392 -5.465674,-1.255882 -7.524823,-1.124375 -1.378214,0.08802 -1.529369,0.171997 -1.44,0.8 0.09328,0.655479 0.240647,0.694317 2.239063,0.590141 2.066697,-0.107737 3.130156,0.07865 9.245187,1.620381 1.333417,0.336182 3.133417,1.026963 4,1.535066 2.057427,1.206332 2.834118,1.218656 1.177603,0.01869 z m -48.056736,21.55072 c 0.01536,-0.372784 0.09118,-0.448608 0.193331,-0.193334 0.09244,0.230998 0.08107,0.507002 -0.02525,0.613334 -0.106336,0.106333 -0.181965,-0.08267 -0.16807,-0.42 z M 104.24,22.82807 c 0.22,-0.08877 0.58,-0.08877 0.8,0 0.22,0.08877 0.04,0.161404 -0.4,0.161404 -0.44,0 -0.62,-0.07263 -0.4,-0.161404 z"
         id="skin" />
      <path
         style="display:inline;fill:#1d1417;stroke-width:0.32"
         d="m 90.4,113.92 c -0.352,-0.15126 -1.082474,-0.28514 -1.623274,-0.29751 -1.322131,-0.0302 -6.707907,-2.21681 -8.827705,-3.58395 -0.939962,-0.60622 -2.13953,-1.31289 -2.665709,-1.57038 C 76.219693,107.94767 74.56,106.388 74.56,105.90897 74.56,105.73903 74.344,105.6 74.08,105.6 c -0.264,0 -0.48,-0.12601 -0.48,-0.28002 0,-0.15401 -1.128794,-1.15324 -2.508429,-2.22051 C 68.30391,100.94295 63.68,96.197731 63.68,95.493446 63.68,95.244051 63.464,95.04 63.2,95.04 c -0.264,0 -0.48,-0.152499 -0.48,-0.338886 0,-0.186388 -0.128912,-0.259213 -0.28647,-0.161837 -0.157556,0.09738 -0.369037,-0.03812 -0.469956,-0.301114 C 61.862656,93.975174 61.58337,93.76 61.342938,93.76 c -0.340413,0 -0.453741,0.830275 -0.512128,3.752013 -0.114746,5.742087 -1.321149,7.918717 -4.906583,8.852607 -1.869622,0.48697 -3.910566,0.35445 -5.701133,-0.3702 -1.362848,-0.55155 -3.660544,-3.15292 -4.801952,-5.43661 -0.937875,-1.876472 -1.094243,-2.538376 -1.199305,-5.076677 -0.0922,-2.227555 -1.44e-4,-3.152218 0.388675,-3.904109 C 44.89073,91.035139 45.12,90.498099 45.12,90.3836 c 0,-0.114499 -0.828,-0.171584 -1.84,-0.126854 -3.761306,0.166243 -3.920387,0.118278 -5.627539,-1.696746 -3.246416,-3.451549 -3.583591,-6.280688 -1.173907,-9.849971 1.949244,-2.887271 3.812316,-5.061114 5.076761,-5.923594 L 42.63063,72.05296 41.699789,71.571603 c -0.511962,-0.264745 -1.552627,-1.084781 -2.312586,-1.822294 -1.312393,-1.273635 -1.374093,-1.415434 -1.22927,-2.825123 0.239395,-2.33026 1.873469,-5.493888 3.655049,-7.076317 2.324756,-2.06489 3.630736,-2.552595 6.857421,-2.560842 3.780199,-0.0097 3.6936,0.130615 3.88761,-6.297232 0.168806,-5.592937 6.4e-4,-4.931603 2.670032,-10.509795 1.544726,-3.228182 4.433193,-6.890336 7.443165,-9.436834 2.993731,-2.53276 8.241964,-6.093126 10.12879,-6.871303 2.930848,-1.208758 7.338557,-1.197729 10.947066,0.02739 1.476979,0.501449 4.892934,2.585319 4.892934,2.984889 0,0.117443 0.189744,0.473025 0.421654,0.790182 0.357978,0.489562 0.492919,0.510881 0.893517,0.141161 0.25952,-0.239518 0.705491,-0.579487 0.991047,-0.755487 0.285552,-0.176 1.753446,-1.164146 3.261987,-2.195879 3.321824,-2.271893 4.699251,-2.784207 8.031795,-2.987311 3.11455,-0.189817 5.68714,0.340977 9.43731,1.947165 3.3256,1.424349 4.21878,2.048485 7.50225,5.242429 1.41924,1.380548 2.88416,2.717878 3.25536,2.971842 0.81614,0.558368 1.86884,2.589421 3.74226,7.22026 2.35841,5.829657 2.7224,6.394057 5.36523,8.319286 1.71107,1.246464 3.10185,1.952957 4.96113,2.520173 2.0236,0.617344 2.92522,1.10024 4.16,2.228048 0.86706,0.791933 1.6686,1.443053 1.78122,1.446934 0.41286,0.01421 1.52871,2.856259 1.71557,4.369527 0.26548,2.150048 -0.48295,3.51319 -2.63157,4.792947 -1.75421,1.044835 -1.85008,1.404579 -0.37431,1.404579 0.48828,0 0.97678,0.144 1.08555,0.32 0.10877,0.176 0.48084,0.32 0.82681,0.32 0.37652,0 0.75113,0.321136 0.93319,0.8 0.16729,0.44 0.44812,0.8 0.62408,0.8 0.17596,0 0.61256,0.642384 0.97023,1.42752 1.70722,3.747574 1.5848,11.157242 -0.21538,13.036224 -1.00881,1.05297 -2.3878,1.836096 -3.77893,2.146058 -1.27961,0.285107 -1.46454,1.389696 -0.35444,2.117059 2.22195,1.455878 2.35473,8.986454 0.203,11.513139 -0.29977,0.352 -0.86156,1.169475 -1.24844,1.816614 -0.71486,1.195768 -3.28738,3.114678 -5.30668,3.958398 -2.19539,0.91729 -6.24497,0.27859 -8.093,-1.27643 -1.52634,-1.28433 -2.65414,-3.737795 -2.86292,-6.228118 -0.21705,-2.58904 -0.56727,-3.380048 -1.09727,-2.47831 -0.19142,0.325683 -0.63686,0.829683 -0.98985,1.12 -0.353,0.290316 -0.84175,0.718131 -1.08611,0.950704 -0.24436,0.232569 -0.44483,0.304569 -0.44549,0.16 -6.4e-4,-0.144573 -0.28654,0.205142 -0.63529,0.777142 -0.34876,0.572 -0.75288,1.04 -0.89806,1.04 -0.14517,0 -0.68729,0.41032 -1.2047,0.911824 -0.51741,0.501501 -2.19649,1.80153 -3.73129,2.888948 -1.5348,1.08743 -3.16683,2.47047 -3.62674,3.07344 -0.45991,0.60298 -1.50817,1.4845 -2.32946,1.95894 -0.82129,0.47444 -1.70926,1.05644 -1.97326,1.29333 -0.264,0.2369 -1.10375,1.00735 -1.86611,1.71212 -0.76236,0.70477 -1.51836,1.2814 -1.68,1.2814 -0.16164,0 -0.29389,0.13748 -0.29389,0.3055 0,0.16802 -0.504,0.40005 -1.12,0.51561 -0.616,0.11557 -1.12,0.33809 -1.12,0.4945 0,0.15642 -0.36,0.28439 -0.8,0.28439 -0.44,0 -0.8,0.144 -0.8,0.32 0,0.176 -0.432,0.32 -0.96,0.32 -0.64,0 -0.96,0.16 -0.96,0.48 0,0.30784 -0.315635,0.48365 -0.88,0.49018 -0.484,0.006 -1.159523,0.2216 -1.501162,0.48 -0.675206,0.5107 -2.517523,0.58869 -3.538838,0.14982 z m 4.614893,-3.36854 c 3.22063,-1.237 5.422767,-2.32861 7.705107,-3.81946 1.144,-0.74727 2.68875,-1.70368 3.43277,-2.12534 0.74402,-0.42166 2.00851,-1.34266 2.80997,-2.04666 4.43837,-3.898675 5.24133,-4.581933 6.55726,-5.579747 2.10198,-1.593843 4.88891,-4.297146 8.39812,-8.146128 0.65897,-0.722768 2.01057,-2.888883 3.00357,-4.813591 1.70039,-3.295849 1.81475,-3.662761 1.96546,-6.305964 l 0.16002,-2.806503 -2.12358,-2.199654 -2.12359,-2.199651 -0.003,-4.134381 c -0.003,-5.11576 -0.36897,-7.462125 -1.54587,-9.91104 -2.01446,-4.191703 -1.43883,-5.135072 0.62667,-1.027008 1.76673,3.513574 2.52176,6.794729 2.52176,10.958278 v 3.314071 l 1.80164,1.705657 c 0.9909,0.938115 1.9989,2.169037 2.24,2.735383 0.51254,1.203968 0.55964,4.119878 0.0997,6.170278 -0.53241,2.373354 -3.64103,8.323101 -5.24454,10.037789 -1.61762,1.729782 -1.71748,1.979392 -0.87956,2.198512 0.45698,0.119504 0.64801,0.687113 0.91704,2.724854 0.57812,4.378826 2.37126,6.257205 6.37251,6.675415 1.71562,0.17931 2.12438,0.0933 4.17755,-0.8789 1.57844,-0.74743 2.50545,-1.420886 3.02509,-2.19767 0.41208,-0.616 1.14398,-1.586109 1.62645,-2.155798 1.24594,-1.471188 1.6319,-3.269079 1.48537,-6.919117 -0.12024,-2.9952 -0.17056,-3.186899 -0.99394,-3.786691 -0.5295,-0.385716 -0.86729,-0.932957 -0.86729,-1.405085 0,-0.675802 -0.14655,-0.773309 -1.16223,-0.773309 -0.63923,0 -1.62272,-0.284598 -2.18554,-0.632438 -1.22766,-0.75874 -2.28327,-2.568154 -1.97179,-3.379847 0.18727,-0.488035 0.46021,-0.316969 1.78992,1.121856 l 1.56896,1.697699 2.00001,-0.226278 c 2.01484,-0.227952 3.00078,-0.614147 4.40448,-1.725248 1.90201,-1.505526 1.69655,-11.123802 -0.283,-13.248598 -0.35245,-0.378304 -0.64081,-0.790448 -0.64081,-0.915879 0,-0.421936 -2.08379,-1.462179 -3.33609,-1.665398 -0.76117,-0.12352 -1.9507,-0.0043 -3.07497,0.308326 -2.76492,0.768717 -4.23864,0.419175 -6.38894,-1.515357 -1.42412,-1.281212 -1.66899,-1.641436 -1.2831,-1.887529 0.52852,-0.337053 1.48538,0.155795 2.95456,1.521805 1.54083,1.432624 4.61979,1.034896 8.83732,-1.141568 1.16391,-0.600644 1.97122,-1.844666 1.97122,-3.037575 0,-3.848237 -3.49884,-7.299613 -8.48,-8.364966 -0.528,-0.112925 -1.82308,-0.851079 -2.87795,-1.640339 -1.05488,-0.789261 -2.17454,-1.516455 -2.48814,-1.615991 -0.6268,-0.198937 -2.14898,-3.048224 -3.74638,-7.012675 -1.6601,-4.120077 -3.50575,-7.84 -3.88983,-7.84 -0.19574,0 -1.5263,-1.125486 -2.9568,-2.50108 -3.65493,-3.514658 -4.70944,-4.23265 -8.5209,-5.801706 -3.19001,-1.313226 -3.52999,-1.385076 -6.72,-1.420209 -4.215725,-0.04643 -6.02968,0.484953 -9.389792,2.750657 -1.380384,0.930786 -2.784384,1.834485 -3.12,2.008219 -0.335613,0.173735 -0.610208,0.425735 -0.610208,0.56 0,0.134266 -0.232787,0.244119 -0.517306,0.244119 -0.408585,0 -0.467379,0.184942 -0.279753,0.88 0.130653,0.484 0.352525,5.488 0.493046,11.12 0.140522,5.632 0.353747,10.776416 0.473834,11.432035 0.120086,0.655623 0.08103,1.591623 -0.08679,2.08 -0.480704,1.398928 -0.20233,1.688106 1.623632,1.686624 2.014448,-0.0016 4.750121,-1.328576 10.975497,-5.323686 2.93061,-1.880704 4.30688,-2.343373 7.2282,-2.429946 1.88865,-0.05597 2.30379,0.07493 6.09941,1.923207 l 4.07282,1.983267 c 1.5947,1.473967 2.72815,2.979538 3.08053,5.141852 0,0.427876 -0.15684,-0.318585 -2.09127,-2.17932 l -2.03613,-1.958564 -3.6784,-1.857735 c -3.42677,-1.730656 -3.81144,-1.851897 -5.62349,-1.772393 -2.75504,0.120877 -3.90627,0.502355 -6.45383,2.138585 -1.232,0.791284 -3.74262,2.193476 -5.579155,3.115984 -2.711037,1.361783 -3.714147,1.701168 -5.332701,1.804231 -1.719769,0.109507 -2.072451,0.03479 -2.568077,-0.544061 l -0.574528,-0.670998 -0.913945,0.875459 c -0.78264,0.749686 -1.152263,0.865965 -2.572771,0.809376 C 84.456733,56.660531 82.100074,56.097014 81.12,55.495571 80.768,55.279562 79.976,54.997706 79.36,54.869229 78.744,54.740752 77.394317,54.226416 76.360707,53.726253 73.985405,52.576854 71.131389,51.84 69.05479,51.84 c -1.407094,0 -1.879552,0.18984 -3.693027,1.483907 C 62.800374,55.151677 61.12,56.609709 61.12,57.00441 c 0,0.168326 0.281504,0.147452 0.646614,-0.04795 1.158068,-0.619779 1.257146,-0.01286 0.259815,1.591507 -1.498541,2.41065 -2.848407,9.096102 -2.253082,11.158803 0.623066,2.158816 1.10904,6.073744 0.895351,7.212807 -0.116298,0.619904 -0.710327,1.72422 -1.320071,2.454035 C 58.356218,80.56145 58.24,80.90049 58.24,82.607818 c 0,1.3823 0.251072,2.49727 0.912179,4.050848 1.108829,2.605712 3.52624,6.277289 4.749651,7.213795 0.493994,0.378147 1.83417,1.692089 2.97817,2.919872 2.461267,2.641523 3.902061,3.995517 4.259155,4.002557 0.142535,0.003 1.006535,0.70768 1.92,1.56638 2.375107,2.23271 5.978813,5.07536 7.100845,5.60125 3.661629,1.71615 5.07247,2.18369 9.12,3.02228 2.40055,0.49735 3.534912,0.41164 5.734893,-0.43334 z M 131.10514,94.715891 c -0.56108,-0.801053 -0.41999,-4.418179 0.19637,-5.034544 0.70186,-0.701856 2.66574,-0.868829 3.53327,-0.300406 1.02541,0.671878 1.38833,2.550889 0.69659,3.606617 -0.57016,0.870176 -2.79076,2.372442 -3.50686,2.372442 -0.25752,0 -0.67124,-0.28985 -0.91937,-0.644109 z m 2.75221,-0.948845 c 1.36188,-0.863673 1.50265,-1.067532 1.50265,-2.176 0,-1.560774 -0.4495,-1.991046 -2.08,-1.991046 -0.7216,0 -1.4848,0.1728 -1.696,0.384 -0.72039,0.720387 -0.29184,4.736 0.50543,4.736 0.1459,0 0.94146,-0.428829 1.76792,-0.952954 z m -33.3553,-0.622147 C 99.258611,92.345808 96.045533,92.101584 91.63279,92.470752 83.836806,93.12296 80.461629,93.232 79.808458,92.852752 79.31552,92.566538 79.564528,92.498963 81.12,92.496838 c 1.056,-0.0016 4.944,-0.245363 8.64,-0.542044 6.518118,-0.52322 6.799878,-0.521031 9.378845,0.07289 1.462365,0.336775 2.657965,0.756317 2.656905,0.932317 -0.003,0.438061 -0.73655,0.54295 -1.2937,0.184898 z M 86.8,85.875021 c -0.9476,-0.571354 -1.353181,-1.028483 -1.337507,-1.507514 0.01942,-0.593779 0.05304,-0.61023 0.246585,-0.120665 0.293943,0.743516 2.107264,1.833158 3.050644,1.833158 0.40934,0 1.363014,-0.468 2.119276,-1.04 C 93.368202,83.157286 93.44,83.112979 93.44,83.459546 c 0,0.463481 -2.539213,2.506726 -3.631101,2.921862 C 88.580701,86.848368 88.349901,86.809526 86.8,85.875021 Z M 99.04,79.036115 C 95.941318,78.601456 93.286822,76.439187 92.420083,73.643747 92.074109,72.527898 91.887094,72.319082 91.36,72.46007 c -0.352,0.09415 -1.249072,0.173159 -1.993498,0.175562 -1.239616,0.004 -1.40526,0.105331 -1.968739,1.204368 -0.338384,0.66 -1.008067,1.539357 -1.488185,1.954125 -1.24536,1.075856 -5.1012,1.946806 -9.643661,2.178297 -3.345571,0.170496 -4.324237,0.09905 -6.947898,-0.507222 -2.70872,-0.62593 -3.233155,-0.866912 -4.64079,-2.132499 -2.110048,-1.897114 -3.04272,-3.834119 -2.843658,-5.905805 0.178112,-1.853622 1.402384,-3.882531 2.899235,-4.804714 4.794708,-2.953929 16.303552,-2.528432 21.187194,0.783316 1.385744,0.939715 1.700589,1.417161 2.296218,3.482102 0.41574,1.441302 0.69686,1.888746 1.278361,2.034691 1.387603,0.348269 2.323415,-0.134336 2.85976,-1.4748 1.78296,-4.456057 12.711771,-7.796304 22.208031,-6.787593 4.19368,0.445459 5.56111,1.043532 6.62698,2.898441 0.46827,0.814912 1.18423,1.888711 1.59102,2.386215 1.48553,1.816784 0.72826,5.683644 -1.54098,7.868752 -1.35519,1.304937 -3.24756,2.149414 -6.51939,2.909286 -2.06301,0.47913 -3.70929,0.584704 -8.48,0.543814 -3.256,-0.0279 -6.496,-0.131539 -7.2,-0.230291 z m 11.2,-1.129817 c 4.90921,-0.513828 6.90752,-1.062346 8.99588,-2.46928 1.86408,-1.25584 2.64346,-2.519156 2.90227,-4.704327 0.16152,-1.363846 0.0804,-1.804512 -0.4691,-2.547731 -0.36542,-0.494259 -0.8791,-1.412506 -1.14152,-2.04055 -0.93482,-2.237344 -3.77768,-2.947274 -10.73709,-2.681303 -3.60996,0.137962 -5.61008,0.370906 -7.23044,0.842083 -5.811459,1.689901 -9.077779,3.549735 -9.965491,5.674327 C 92.350806,70.562784 92.009344,71.04 91.835706,71.04 91.662067,71.04 91.52,71.184 91.52,71.36 c 0,0.176 0.199424,0.32 0.443168,0.32 0.252003,0 0.678483,0.724672 0.988701,1.68 0.751491,2.314246 1.786579,3.562282 3.764384,4.538829 1.616211,0.798006 1.837776,0.823561 5.523747,0.637117 2.112,-0.106829 5.712,-0.39017 8,-0.629648 z m -5.6,-1.635828 c -0.792,-0.288512 -1.93784,-0.700915 -2.54631,-0.916457 -0.60847,-0.215539 -1.17189,-0.590368 -1.25204,-0.832954 -0.11314,-0.342441 -0.0447,-0.359181 0.30631,-0.07486 0.48547,0.39328 3.5954,1.327824 5.387,1.618816 1.70641,0.277152 5.43779,-0.515657 7.47075,-1.587315 1.01513,-0.53512 1.95091,-0.867744 2.07949,-0.739158 0.31504,0.315036 -0.68666,1.046502 -2.76691,2.02047 -2.24527,1.051226 -6.50706,1.3024 -8.67829,0.511462 z m 1.0743,-3.850489 c -0.34703,-0.83056 -0.43204,-1.668272 -0.28706,-2.828695 l 0.20599,-1.648675 -1.69662,0.236941 c -0.93313,0.13032 -2.36212,0.40767 -3.17552,0.616336 -0.813394,0.208669 -1.821394,0.330957 -2.239996,0.271754 -0.514006,-0.0727 0.277776,-0.465232 2.438906,-1.209117 3.19559,-1.099955 3.20728,-1.10137 8.48,-1.025619 6.3972,0.09191 8.67597,0.577878 8.22466,1.753984 -0.14793,0.385491 -0.41676,0.433411 -1.24663,0.222204 C 115.83612,68.660995 113.884,68.44777 112.08,68.335261 l -3.28,-0.204563 -0.007,1.374652 c -0.004,0.756058 -0.28483,1.98665 -0.62436,2.73465 -0.81027,1.785069 -1.75472,1.85433 -2.45432,0.179981 z M 81.375613,76.965706 C 82.396198,76.698566 83.501152,76.48 83.831059,76.48 c 0.860791,0 2.492323,-1.475315 3.229475,-2.920253 C 87.47335,72.750563 87.913021,72.32 88.326502,72.32 c 0.650631,0 0.842039,-0.596074 0.364788,-1.136 -0.147792,-0.1672 -0.458807,-0.808 -0.691146,-1.424 -1.070179,-2.837389 -2.938349,-4.150531 -7.586099,-5.332291 -2.925245,-0.743786 -10.686003,-0.715376 -13.314477,0.04874 -4.84088,1.40728 -6.173776,6.390269 -2.68335,10.031591 1.636944,1.707712 3.63928,2.500822 7.743782,3.067257 1.78784,0.24673 7.349616,-0.121171 9.215613,-0.609593 z M 70.88,74.739395 c -2.685558,-0.859805 -4.32,-1.67016 -4.32,-2.141849 0,-0.20945 0.221024,-0.249415 0.56,-0.101258 0.308,0.134618 1.784,0.676358 3.28,1.203869 2.613322,0.921494 2.82448,0.946281 5.38393,0.631965 1.875507,-0.230327 2.948998,-0.537908 3.627113,-1.039261 0.904663,-0.668848 0.942317,-0.67312 0.619725,-0.07035 -0.350502,0.654918 -1.873088,1.297162 -4.59536,1.938378 C 73.546848,75.60573 73.60184,75.610818 70.88,74.739395 Z m 1.239734,-2.248934 C 71.934912,72.008822 72.086192,69.019574 72.33889,68.16 c 0.212896,-0.724189 -2.662586,-0.817194 -4.427415,-0.1432 -1.778761,0.679315 -2.526064,0.215565 -1.425734,-0.884762 0.914371,-0.914371 3.907853,-1.129056 8.074259,-0.579062 6.485363,0.856112 9.955885,2.08649 4.96,1.758432 -1.584,-0.104016 -3.25553,-0.259578 -3.714509,-0.345696 -0.821283,-0.154099 -0.83215,-0.132013 -0.685577,1.393392 0.128441,1.336726 0.03021,1.691056 -0.713936,2.575434 -0.910528,1.082099 -1.984151,1.343161 -2.286244,0.555923 z M 138.31781,76.08 c -0.17631,-0.22 -0.46578,-1.261117 -0.64328,-2.313594 -0.65093,-3.859676 1.07563,-4.869408 2.6507,-1.550192 0.63506,1.338292 0.44107,2.348391 -0.66304,3.452506 -0.94038,0.940381 -0.92431,0.935462 -1.34438,0.41128 z M 140.16,73.44809 c 0,-0.875098 -0.93564,-2.646644 -1.51674,-2.871786 -0.79251,-0.307059 -0.86227,2.913926 -0.11399,5.263696 0.14127,0.443619 1.63073,-1.741082 1.63073,-2.39191 z M 96.96,61.60487 c 0.863869,-0.96928 5.3652,-3.237625 8.50248,-4.284646 2.10724,-0.703254 9.7935,-1.81001 10.55116,-1.51927 0.51185,0.196416 0.59673,0.778323 0.20379,1.397084 -0.15869,0.249888 -1.70849,0.516976 -4.16378,0.717578 -5.32003,0.434659 -5.42105,0.463482 -15.41365,4.397875 -0.264,0.103946 -0.12,-0.214934 0.32,-0.708621 z M 82.424397,61.12393 c -0.866583,-0.508103 -2.666583,-1.198884 -4,-1.535066 -6.115031,-1.541728 -7.17849,-1.728118 -9.245187,-1.620381 -1.998416,0.104176 -2.145783,0.06534 -2.239063,-0.590141 -0.08937,-0.628003 0.06179,-0.711977 1.44,-0.8 4.319971,-0.275897 11.520864,1.88329 15.221853,4.564272 1.656515,1.199972 0.879824,1.187648 -1.177603,-0.01869 z M 133.5112,58.061856 c -0.50079,-0.350768 -0.7112,-0.824134 -0.7112,-1.6 0,-0.810697 1.01723,-2.821957 1.20322,-2.708935 0.13476,0.08189 -0.57365,1.557515 -0.5035,2.647075 0.0864,1.341364 0.22246,1.051706 1.17021,1.142506 1.93908,0.185779 2.86283,-1.535325 1.92673,-3.589847 -0.53018,-1.163597 -1.08849,-1.231824 -2.26799,-0.277149 l -0.59468,0.556922 0.48588,-0.730291 c 0.68507,-1.029679 1.53743,-1.271629 2.40386,-0.170147 1.44023,1.830963 1.06552,3.995961 -0.82858,4.787369 -1.32188,0.552314 -1.41671,0.549927 -2.28395,-0.05751 z M 95.681197,48.128013 c 0.0029,-0.691811 1.367456,-2.42849 2.628214,-3.344874 2.911309,-2.116093 6.071119,-2.73991 10.203659,-2.014429 1.47781,0.259434 3.37103,0.426608 4.20715,0.371495 0.91296,-0.06018 1.47819,0.02762 1.41499,0.219795 -0.17958,0.546048 -3.0465,0.542541 -5.44546,-0.0067 -4.98992,-1.142362 -9.555971,0.296506 -12.105388,3.814678 -0.497399,0.686407 -0.903824,1.118407 -0.903165,0.96 z M 107.36,38.690832 c -1.95682,-0.743898 -4.39356,-1.068005 -7.08936,-0.130832 -1.62567,0.56515 -4.394481,2.891169 -4.691593,2.610001 -0.058,-0.05488 3.192866,-2.353145 3.620953,-2.580501 1.39408,-0.740395 4.11564,-1.228816 5.60376,-1.005658 1.82844,0.274192 6.83159,1.779362 5.44266,1.851596 -1.16963,-0.01981 -2.00642,-0.410063 -2.88642,-0.7446 z m -12,-2.629181 c 0,-0.624089 1.146762,-1.968289 2.365395,-2.609699 2.127122,-1.11958 6.463595,-0.868993 5.980275,-0.499175 -0.25641,0.196194 -2.83591,-3.71e-4 -3.33731,0.0023 -1.345522,0.0072 -2.98428,0.895161 -4.059458,2.199536 C 95.787005,35.787789 95.36,36.195946 95.36,36.061651 Z m 8.48,-3.131379 c -1.0252,-0.121565 -0.0836,-0.207786 2.62111,-0.24 2.32162,-0.02765 4.28762,0.05773 4.36891,0.189728 0.1757,0.285334 -4.71131,0.32048 -6.99002,0.05027 z M 56.631091,104.68472 c 0.611101,-0.2886 1.386848,-1.00383 1.723879,-1.58941 0.627574,-1.09039 1.209161,-4.364414 1.167481,-6.572292 C 59.498803,95.27112 60.113936,93.44 60.558115,93.44 c 0.483229,0 0.225655,-0.97623 -0.430768,-1.632653 -0.369958,-0.369958 -1.041667,-1.485958 -1.492685,-2.48 -0.451017,-0.994041 -0.952624,-1.895446 -1.114678,-2.003123 -0.162054,-0.10768 -0.28864,-0.32368 -0.281296,-0.48 0.01603,-0.341277 -0.268118,-1.696378 -0.495744,-2.364224 -0.28912,-0.848266 -0.299536,-3.238499 -0.01488,-3.414429 0.151562,-0.09367 0.20265,-0.36032 0.113533,-0.592557 -0.08912,-0.23224 0.173952,-0.784787 0.584598,-1.227881 0.41065,-0.443098 0.665747,-0.886522 0.566887,-0.985383 -0.09886,-0.09886 0.04484,-0.17975 0.319344,-0.17975 0.274505,0 0.601939,-0.252 0.727635,-0.56 0.370006,-0.90665 0.459369,-3.254938 0.131577,-3.457526 -0.166144,-0.102685 -0.216585,-0.325034 -0.112086,-0.494112 0.104496,-0.169079 -0.05886,-1.459184 -0.363018,-2.866903 -0.516131,-2.388803 -0.518342,-2.73592 -0.03316,-5.205267 0.285917,-1.455178 0.860304,-3.82121 1.27641,-5.257843 0.416108,-1.436634 0.623987,-2.530125 0.461955,-2.429984 -0.162032,0.100141 -0.04481,-0.301773 0.260509,-0.893146 0.506624,-0.981302 1.153116,-1.668541 3.746851,-3.983005 2.02296,-1.805148 3.967901,-2.470342 5.935808,-2.030121 0.646297,0.144576 1.645203,0.345174 2.219785,0.445779 1.462192,0.25601 3.816375,1.07817 5.515303,1.926134 0.792,0.3953 1.98,0.816887 2.64,0.936861 0.66,0.119975 1.2,0.35561 1.2,0.523632 0,0.168026 0.252,0.306387 0.56,0.307472 0.308,9.6e-4 0.972461,0.217085 1.476579,0.48 1.415965,0.738477 3.454829,0.621939 4.212304,-0.240768 1.883267,-2.144902 1.819482,-1.927824 1.265021,-4.305261 C 89.022048,49.209965 88.938579,47.02143 88.990893,39.36 89.036749,32.643878 88.94503,29.648954 88.673027,28.980649 87.842608,26.940314 84.903674,25.05594 81.44,24.343004 78.953808,23.831265 74.106464,24.08782 73.427187,24.767098 73.158918,25.035367 72.436154,25.349274 71.821043,25.464669 71.20593,25.580065 70.557494,25.945722 70.38007,26.27724 70.202646,26.608758 69.84655,26.88 69.588742,26.88 69.330934,26.88 69.12,27.024 69.12,27.2 c 0,0.176 -0.193968,0.32 -0.431037,0.32 -0.237069,0 -0.763104,0.288 -1.168963,0.64 -0.405859,0.352 -0.909242,0.64 -1.118627,0.64 -0.209389,0 -1.211591,0.792 -2.227117,1.76 -1.01553,0.968 -1.938986,1.76 -2.052128,1.76 -0.113142,0 -0.636906,0.524259 -1.16392,1.165024 -0.527014,0.640762 -1.570208,1.828454 -2.318208,2.639312 -0.748,0.810861 -1.36,1.588621 -1.36,1.728358 0,0.139738 -0.269498,0.543338 -0.59888,0.89689 -0.329386,0.353552 -0.989619,1.60753 -1.467187,2.786618 -0.477568,1.179091 -1.080215,2.539798 -1.33921,3.023798 -0.258998,0.484 -0.373133,0.88 -0.253632,0.88 0.119501,0 0.05419,0.196499 -0.145123,0.436662 -0.199322,0.240167 -0.351376,0.924167 -0.337904,1.52 0.01347,0.595837 -0.04565,2.665908 -0.131373,4.600157 -0.110269,2.488 -0.04628,3.586528 0.21872,3.755101 0.278512,0.177165 0.271994,0.239536 -0.02541,0.243181 -0.22,0.0026 -0.4,0.205494 -0.4,0.450662 0,0.245171 -0.222755,0.531242 -0.495011,0.635719 -0.272256,0.104473 -0.452256,0.42894 -0.4,0.721036 0.05226,0.292096 -0.08509,0.594058 -0.305206,0.671024 -0.257882,0.09017 -0.329578,-0.04415 -0.201594,-0.377667 0.171085,-0.44584 -0.07442,-0.509411 -1.770704,-0.458515 -1.08313,0.0325 -2.041024,0.175101 -2.128653,0.31689 -0.08763,0.141788 -0.37255,0.175977 -0.633155,0.07597 -0.260605,-0.100003 -0.665242,-0.02298 -0.899194,0.1712 -0.233955,0.194163 -0.520118,0.258272 -0.635926,0.142467 C 45.214752,58.228083 45.12,58.30983 45.12,58.525552 c 0,0.215722 -0.145018,0.302592 -0.322259,0.19305 -0.177245,-0.10954 -0.40865,0.02595 -0.514237,0.301116 C 44.177917,59.294874 43.89809,59.52 43.661664,59.52 c -0.236426,0 -0.545018,0.194979 -0.685763,0.433286 -0.140746,0.238304 -0.57841,0.602573 -0.972589,0.809485 -0.773862,0.406215 -1.78487,2.069002 -1.457216,2.396659 0.110314,0.110314 0.02406,0.20057 -0.191648,0.20057 -0.215722,0 -0.303222,0.144 -0.194448,0.32 0.108774,0.176 0.03677,0.32 -0.16,0.32 -0.196774,0 -0.268774,0.144 -0.16,0.32 0.108774,0.176 0.03677,0.32 -0.16,0.32 -0.196774,0 -0.274925,0.134051 -0.173667,0.297888 0.101261,0.16384 0.04997,0.380794 -0.113984,0.482118 -0.163952,0.101328 -0.278899,0.780864 -0.255443,1.510084 0.03133,0.973772 0.292022,1.607526 0.981734,2.386566 0.516499,0.583395 1.061098,0.985309 1.210224,0.893146 C 41.477987,70.117635 41.6,70.171613 41.6,70.32975 c 0,0.474436 1.339498,0.910557 3.04,0.989786 0.88,0.041 1.844634,0.14624 2.143632,0.233872 0.602086,0.176464 1.982874,-1.00983 1.702819,-1.46297 C 48.389162,69.933021 48.458259,69.712323 48.64,69.6 48.821741,69.487677 48.887594,69.261728 48.786333,69.097888 48.685075,68.934051 48.763226,68.8 48.96,68.8 c 0.196774,0 0.268774,-0.144 0.16,-0.32 -0.108774,-0.176 -0.05498,-0.32 0.119552,-0.32 0.304102,0 0.863254,-1.218304 0.755293,-1.64567 -0.02858,-0.11312 0.218317,-0.276349 0.548649,-0.362733 0.498192,-0.130282 0.574858,-0.01504 0.449594,0.675731 -0.08306,0.458035 -0.285232,0.994515 -0.449274,1.192176 -0.164044,0.197661 -0.20351,0.454131 -0.0877,0.569939 C 50.571917,68.705248 50.49017,68.8 50.274448,68.8 c -0.215722,0 -0.310822,0.131702 -0.211341,0.292669 0.09948,0.160966 0.04917,0.340966 -0.111801,0.4 -0.160973,0.05903 -0.341869,0.395331 -0.401994,0.747331 -0.06012,0.352 -0.276454,0.817427 -0.480739,1.034285 -0.204288,0.216857 -0.429159,0.567469 -0.499712,0.779133 -0.08798,0.263926 -1.003104,0.374678 -2.91248,0.35248 -2.071594,-0.0241 -2.906051,0.08949 -3.260288,0.443724 C 42.13424,73.111472 41.92,73.218326 41.92,73.087075 c 0,-0.131248 -0.359434,0.09903 -0.798739,0.511741 -0.439306,0.412704 -0.739306,0.809808 -0.666666,0.882445 0.07264,0.07264 -0.07554,0.372073 -0.329293,0.665405 -1.653296,1.911203 -2.016588,2.411465 -2.368924,3.26208 C 37.539664,78.931936 37.235824,79.36 37.081178,79.36 36.926531,79.36 36.8,79.576 36.8,79.84 c 0,0.264 -0.138451,0.48 -0.307667,0.48 -0.664554,0 -0.972442,2.351517 -0.509354,3.890243 0.441123,1.465735 0.650451,1.788723 2.624445,4.049399 l 1.007424,1.153731 2.603466,-0.0431 c 2.404281,-0.0398 2.694441,-0.118317 3.792576,-1.02624 1.692105,-1.399008 2.930259,-2.619741 2.899619,-2.858825 -0.01446,-0.112864 0.0088,-0.31321 0.0516,-0.44521 0.04284,-0.132 0.09589,-0.404307 0.117894,-0.605123 0.07096,-0.647741 1.09615,-1.106727 1.521629,-0.681248 0.292329,0.292329 0.285366,0.492365 -0.03037,0.872809 -0.22529,0.27146 -0.291187,0.493562 -0.146435,0.493562 0.144748,0 0.09038,0.1728 -0.12082,0.384 -0.2112,0.2112 -0.392179,0.6072 -0.402176,0.88 -0.01,0.2728 -0.839292,1.162598 -1.84288,1.977331 -2.290502,1.859472 -3.007078,3.582954 -2.907507,6.993015 0.05441,1.863379 0.259978,2.694787 1.058045,4.279187 1.42255,2.824179 3.806422,5.178869 5.630518,5.561589 1.731712,0.36333 3.293188,0.19699 4.791092,-0.5104 z M 51.267382,98.70199 C 51.040445,98.447894 50.950077,98.24 51.066566,98.24 c 0.11649,0 0.06842,-0.18 -0.106816,-0.4 C 50.550723,97.32649 50.617824,93.169197 51.04,92.86817 51.216,92.742675 51.519434,92.352 51.714298,92 52.13649,91.23736 53.12,90.962352 53.12,91.606941 c 0,0.249625 0.288,0.714502 0.64,1.033059 0.804026,0.727635 0.864893,3.059309 0.126368,4.840922 -0.624566,1.506707 -0.525088,1.399798 -1.447107,1.555139 -0.417594,0.07035 -0.944938,-0.07998 -1.171879,-0.334071 z m 2.156832,-1.985756 c 0.422132,-1.52 0.423498,-2.514416 0.0045,-3.297271 -0.350745,-0.655369 -1.72831,-0.849795 -2.072713,-0.292537 -0.32457,0.525168 -0.231655,3.59406 0.138259,4.566451 0.289421,0.760809 0.432704,0.843085 0.968685,0.556233 0.345965,-0.185152 0.778521,-0.874947 0.961241,-1.532876 z M 41.28,84.234659 C 40.486656,83.989581 40,83.141085 40,82.002947 c 0,-2.267129 1.764067,-4.266809 3.903251,-4.424576 1.195475,-0.08817 1.250346,-0.06681 0.416749,0.162186 -0.528,0.145046 -0.723405,0.280758 -0.434237,0.301584 1.146231,0.08254 1.19368,1.7268 0.115591,4.005696 -0.789968,1.669849 -1.79097,2.474233 -2.721354,2.186822 z m 1.737923,-1.100246 c 0.271815,-0.388074 0.732061,-1.421687 1.022768,-2.296919 0.521271,-1.569398 0.518631,-1.599369 -0.19152,-2.174412 -0.966265,-0.782436 -1.202745,-0.743284 -2.244166,0.371561 C 39.98079,80.77337 40.063069,83.84 41.733936,83.84 c 0.451488,0 1.001462,-0.302227 1.283987,-0.705587 z m 1.040349,-16.97417 c 0.03205,-0.748134 0.06805,-1.584483 0.08,-1.858553 0.0303,-0.695303 1.615683,-2.54169 2.182374,-2.54169 0.284378,0 0.395597,-0.188224 0.283632,-0.48 -0.285641,-0.744371 0.211805,-0.547674 0.857444,0.33905 0.319948,0.439414 0.54039,1.118889 0.489875,1.509942 -0.05052,0.391056 0.01152,0.876954 0.137862,1.079779 0.315811,0.506992 -2.582112,3.311165 -3.422182,3.311472 -0.58089,2.11e-4 -0.659731,-0.175859 -0.609005,-1.36 z M 45.493334,66.64 C 45.552,66.508 46.032,66.04 46.56,65.6 c 0.917709,-0.764758 1.044592,-1.236938 0.844371,-3.142256 -0.07215,-0.686598 -1.365395,-0.291382 -2.047453,0.625699 C 44.520794,64.207677 44.19335,66.88 44.891715,66.88 c 0.272224,0 0.542951,-0.108 0.601619,-0.24 z M 83.70063,44.6028 c -2.410096,-2.092221 -6.557014,-2.821098 -10.036886,-1.764118 -2.170131,0.659155 -3.565914,0.876822 -3.18592,0.496828 0.390106,-0.390105 4.95121,-1.404624 6.322176,-1.406227 2.70895,-0.0032 6.749354,1.523779 7.99111,3.020007 0.784471,0.945228 0.174077,0.751283 -1.09048,-0.34649 z M 71.832829,38.2304 c 0.844048,-0.797283 1.593705,-1.390531 1.665904,-1.318336 0.177017,0.177021 -2.541715,2.760125 -2.909635,2.764486 -0.16,0.0019 0.39968,-0.64887 1.243731,-1.44615 z m 8.591497,-0.552739 C 80.068467,37.282947 79.50927,36.804 79.181667,36.613334 c -0.518979,-0.302051 -1.84368,-0.580753 -1.386971,-0.68716 0.974279,-0.226995 3.712309,2.033487 3.437647,2.308149 -0.08855,0.08855 -0.452157,-0.161949 -0.80802,-0.556662 z m -7.055599,-0.733583 c 0,-0.163712 0.731273,-0.794779 0.951273,-0.807857 0.22,-0.01309 0.751258,-0.08834 1.18057,-0.167235 1.055788,-0.194039 0.667145,0.141702 -0.577111,0.49855 -0.611693,0.17543 -1.554732,0.657995 -1.554732,0.476542 z m 3.405785,-1.20659 c 0.228127,-0.04959 0.530986,-0.13943 0.874646,0.0613 0.518445,0.302823 0.483671,0.3376 -0.283808,0.283808 -0.508739,-0.03566 -2.468813,0.06314 -1.709598,-0.101901 z m -6.359987,-1.521885 c -0.02163,-0.751219 4.817267,-5.064863 5.704656,-5.085426 0.354176,-0.0082 0.362077,0.08273 0.04082,0.469823 -0.219101,0.264 -0.562093,0.48 -0.762208,0.48 -0.200112,0 -0.543702,0.288 -0.76353,0.64 -0.219827,0.352 -0.567027,0.64 -0.771558,0.64 -0.204531,0 -1.060774,0.756 -1.902762,1.68 -0.9256,1.015754 -1.536633,1.48057 -1.545418,1.175603 z m 10.898073,-3.861155 c -0.422067,-0.533577 -1.070067,-1.092482 -1.44,-1.242011 L 79.2,28.840567 79.886851,28.820283 C 80.46088,28.803332 82.56,30.680772 82.56,31.211134 c 0,0.39883 -0.556682,0.01651 -1.247402,-0.856687 z m -5.242224,-0.92104 c 0,-0.176 0.873626,-0.684634 1.049626,-0.793408 0.176,-0.108774 2.816943,0.0273 2.816943,0.203299 0,0.176 -2.38152,-0.126063 -2.898013,0.258348 -0.165975,0.123531 -0.968556,0.50776 -0.968556,0.331761 z"
         id="path179" />
    </g>
  </g>
</svg>
