<?xml version="1.0" encoding="UTF-8" standalone="no"?>
<!-- Created with Inkscape (http://www.inkscape.org/) -->

<svg
   version="1.1"
   id="svg4909"
   width="192"
   height="288"
   viewBox="0 0 192 288"
   xmlns="http://www.w3.org/2000/svg"
   xmlns:svg="http://www.w3.org/2000/svg">
  <defs
     id="defs4913" />
  <g
     id="g4915"
     transform="translate(5.2494591,2.2501803)">
    <g
       id="g4919"
       transform="translate(0.16666339,0.3333333)">
      <path
         style="fill:#edd9c1;stroke-width:0.32"
         d="m 88.406877,115.64779 c -1.059731,-0.57135 -2.488409,-1.38448 -3.012678,-1.75292 -1.985667,-1.39542 -5.280231,-3.58384 -6.437713,-3.99816 -0.661936,-0.23694 -1.839878,-0.86863 -2.617657,-1.40376 -0.777776,-0.53512 -1.559437,-0.97295 -1.737024,-0.97295 -0.303847,0 -2.200695,-1.4932 -4.361805,-3.43362 -1.284685,-1.1535 -4.102365,-3.1574 -5.338227,-3.79649 -2.392826,-1.237378 -6.702771,-4.945711 -8.490477,-7.305311 -1.056442,-1.394403 -1.261245,-3.467165 -0.553882,-5.605683 1.010884,-3.056128 1.728141,-4.557955 2.711988,-5.678493 C 59.716387,80.394058 59.811258,78.97192 58.88,77.044435 58.084739,75.398435 58.029123,73.92 58.762464,73.92 59.422458,73.92 60.48,72.722762 60.48,71.97559 c 0,-0.311568 0.36,-0.994323 0.8,-1.517232 0.44,-0.522912 0.8,-1.309164 0.8,-1.747228 0,-0.527364 0.216246,-0.853037 0.64,-0.96385 0.461904,-0.12079 0.64,-0.436483 0.64,-1.134464 0,-0.531907 0.216,-1.183101 0.48,-1.447101 0.264,-0.264 0.48,-0.786784 0.48,-1.161744 0,-0.374957 0.144269,-0.592579 0.320598,-0.4836 0.17633,0.108976 0.463328,-0.177261 0.637773,-0.636086 0.174445,-0.458823 0.746141,-1.293223 1.270439,-1.854221 0.524297,-0.560995 1.04038,-1.416608 1.146848,-1.90136 0.10647,-0.484749 0.326502,-0.963514 0.488963,-1.06392 0.162457,-0.100406 0.295379,-0.534058 0.295379,-0.96367 0,-0.975386 0.261453,-0.977396 1.682669,-0.01293 0.622592,0.422499 1.470685,0.786265 1.884656,0.808368 0.413971,0.02211 1.472675,0.07685 2.352675,0.121664 0.88,0.04481 1.758899,0.180505 1.953107,0.301536 0.194208,0.12103 0.796058,0.05286 1.337443,-0.151488 0.741418,-0.279853 1.182855,-0.281098 1.788743,-0.005 0.671155,0.305798 0.820662,0.620806 0.902557,1.901641 0.05985,0.93616 0.241142,1.508275 0.464633,1.466301 0.201565,-0.03785 0.461597,0.438179 0.57785,1.05785 0.116249,0.619673 0.477117,1.392428 0.801926,1.717238 0.324807,0.324806 0.689786,0.90319 0.811059,1.285293 0.121277,0.382102 0.393524,0.628339 0.604996,0.547187 0.211475,-0.08115 0.625161,0.02845 0.919308,0.24352 0.428327,0.3132 0.553085,1.049571 0.626596,3.698413 0.09906,3.569469 0.530393,4.404173 1.248976,2.416963 0.226256,-0.625699 0.599612,-1.137635 0.829683,-1.137635 0.230067,0 0.648774,-0.576 0.930461,-1.28 0.281683,-0.704 0.640176,-1.28 0.796649,-1.28 0.296138,0 1.88097,-3.064525 1.892733,-3.659888 0.016,-0.810813 2.673805,-4.407853 3.761981,-5.091453 1.328665,-0.834675 6.328569,-2.560093 9.031299,-3.116611 1.70438,-0.350951 4.16,-1.472275 4.16,-1.89961 0,-0.115341 0.36,-0.373734 0.8,-0.574214 0.65697,-0.299335 0.8,-0.279914 0.8,0.108637 0,0.260227 0.13099,0.473139 0.29108,0.473139 0.16009,0 0.91049,1.116 1.66757,2.48 1.85052,3.334048 2.76372,5.794105 3.97936,10.72 0.29318,1.188 0.66107,2.16 0.81753,2.16 0.15645,0 0.28446,0.361408 0.28446,0.803133 0,0.441721 0.31355,1.053721 0.69677,1.36 0.38322,0.306275 1.71522,1.635427 2.96,2.953667 1.24478,1.318237 2.79425,2.902237 3.44327,3.52 1.51652,1.443485 2.85873,4.144989 2.91126,5.859587 0.0226,0.738986 -0.22584,1.893712 -0.55218,2.566054 -0.69443,1.430714 -5.42807,6.839895 -7.11317,8.128314 -0.63967,0.489085 -1.99831,1.609245 -3.0192,2.489245 -1.02089,0.88 -2.47505,2.073415 -3.23146,2.652035 -5.63198,4.30823 -6.87227,5.28858 -7.29529,5.76638 -0.264,0.29819 -1.128,1.04531 -1.92,1.66025 -1.49773,1.16291 -2.64629,2.14025 -5.105827,4.34467 -0.799795,0.71684 -1.967648,1.61219 -2.595226,1.98967 -0.627581,0.37748 -0.897297,1.28856 -1.220997,1.64624 -2.095084,0.86861 -4.540674,0.28788 -6.031073,-0.49149 z m 5.160118,-10.70616 c 1.176957,-0.52062 2.016419,-0.65209 3.634995,-0.56929 1.539719,0.0788 2.142599,-0.006 2.246144,-0.31684 0.237399,-0.71203 -4.826252,-0.31942 -7.115596,0.55172 -1.643783,0.62549 -2.382637,0.7111 -5.344813,0.6193 -3.522026,-0.10914 -4.387597,0.22629 -1.227725,0.47578 3.14873,0.24861 6.196717,-0.0484 7.806995,-0.76067 z m -2.7528,-6.726641 c 0.985162,-0.343427 3.501165,-3.046295 3.156515,-3.390947 -0.09948,-0.09948 -0.806912,0.472502 -1.57206,1.271081 -1.765703,1.842848 -3.274832,2.222061 -4.994592,1.25504 -0.640234,-0.360003 -1.357146,-1.037974 -1.593143,-1.506605 -0.533177,-1.058764 -0.821392,-0.868403 -0.39263,0.259325 0.385305,1.013431 2.436086,2.412547 3.573965,2.438291 0.457734,0.01037 1.277612,-0.136428 1.821945,-0.326185 z M 78.193117,90.591907 c 0.854211,-0.372656 1.917632,-0.964281 2.363152,-1.314729 0.707334,-0.556391 0.733565,-0.639751 0.206886,-0.657463 -0.559952,-0.01882 -0.556902,-0.03904 0.04254,-0.282201 0.986195,-0.400036 2.249351,-3.3321 1.99921,-4.640618 -0.104336,-0.545798 0.007,-0.823952 0.362217,-0.904659 0.331568,-0.07534 0.102471,-0.295136 -0.64806,-0.621738 -0.638516,-0.277859 -1.260048,-0.665565 -1.381184,-0.861565 -0.298458,-0.482915 -3.282717,-2.35638 -4.622439,-2.901884 -1.500966,-0.611159 -4.684368,-0.547325 -6.575856,0.131862 -0.869225,0.312118 -2.453225,1.11761 -3.52,1.789984 -1.066771,0.672374 -2.32968,1.319562 -2.806461,1.438198 -1.335408,0.332282 -1.7191,0.967482 -1.186054,1.963495 0.444112,0.829827 0.473459,0.946809 0.564189,2.248937 0.03178,0.45609 0.494176,0.949872 1.328739,1.418925 0.704,0.395671 1.28,0.829555 1.28,0.964189 0,0.482134 2.323219,2.00448 3.946384,2.585962 2.206045,0.790288 6.415616,0.616636 8.646733,-0.356695 z m 32.590853,-2.722733 c 0.65118,-0.232505 1.87518,-0.993993 2.72,-1.692198 0.84482,-0.698205 1.80297,-1.366867 2.12923,-1.485917 0.34381,-0.125453 0.51954,-0.408429 0.41798,-0.673081 -0.0964,-0.251146 -0.0509,-0.501933 0.10111,-0.557303 0.24955,-0.09091 0.12606,-0.978534 -0.4854,-3.48903 -0.16848,-0.691738 -0.0938,-0.82368 0.45258,-0.8 2.27405,0.09855 -1.06277,-2.062288 -5.22367,-3.382714 -3.24476,-1.029696 -5.78284,-1.163798 -8.52222,-0.450281 -1.74525,0.454582 -6.8439,3.208716 -8.196604,4.427561 -0.613456,0.552749 -0.644032,0.692445 -0.24,1.09648 0.254662,0.254663 0.463562,0.776736 0.464221,1.160167 0.0013,0.819737 1.124973,2.777142 1.594099,2.777142 0.178589,0 0.288704,0.170368 0.244704,0.378592 -0.133331,0.630976 3.99819,2.55656 6.04676,2.818224 3.05371,0.390051 7.22269,0.327424 8.49721,-0.127642 z M 63.274515,76.72 c 2.990999,-3.182733 7.873024,-6 10.397367,-6 0.751264,0 2.490649,0.374563 3.865302,0.832365 2.048154,0.682099 2.626048,1.028 3.201091,1.916038 0.452455,0.698727 0.957488,1.085082 1.421725,1.087635 0.897661,0.0049 0.897907,-0.05751 0.01654,-4.199372 L 81.452339,66.953331 80.00617,66.435082 c -1.802362,-0.645892 -2.673376,-0.648356 -4.669165,-0.01322 -5.148938,1.638604 -9.967754,5.02119 -12.43712,8.730291 -1.708103,2.565645 -1.475981,3.537085 0.37463,1.567843 z m 52.509565,-3.243314 c 0,-1.286477 -2.17868,-4.440744 -4.52355,-6.151073 -0.56129,-0.409402 -1.31697,-0.963648 -1.67927,-1.231655 -1.66192,-1.229363 -8.13577,-1.54039 -12.882102,-0.618905 -2.692684,0.522777 -3.713187,0.929197 -3.440608,1.37024 0.07233,0.11703 0.298356,1.431392 0.502285,2.920809 0.20393,1.489415 0.520669,2.800663 0.703869,2.913885 0.183197,0.113223 0.927584,-0.187414 1.654192,-0.668083 4.053564,-2.68153 8.514164,-4.151709 11.415704,-3.762531 1.77015,0.237427 5.47602,2.50647 6.92526,4.240217 1.18006,1.411735 1.32422,1.636949 1.32422,0.987096 z M 56.551126,81.690077 C 56.452352,80.672534 55.851098,77.968 55.215005,75.68 c -1.210096,-4.352656 -1.334419,-6.006781 -0.463847,-6.171437 0.347936,-0.06581 0.682596,0.352227 1.048052,1.309165 0.295292,0.773213 0.893273,1.74064 1.328844,2.149837 0.522602,0.49096 0.791946,1.092256 0.791946,1.767984 0,0.563193 0.216,1.636195 0.48,2.384451 0.640902,1.816512 0.618301,3.647434 -0.05186,4.200819 -0.292522,0.241549 -0.776112,0.839715 -1.074643,1.329258 l -0.542781,0.890077 z M 120.63894,75.258829 C 119.16779,73.840829 118.58135,72.64 119.36,72.64 c 0.176,0 0.3208,-0.612 0.32179,-1.36 9.6e-4,-0.748 0.15508,-1.912086 0.34245,-2.586858 0.37843,-1.362819 2.79483,-4.690016 3.40754,-4.691923 0.626,-0.0019 1.36815,1.766829 1.36906,3.26289 0.001,2.040531 -1.9204,9.535891 -2.44478,9.535891 -0.065,0 -0.8377,-0.693526 -1.71712,-1.541171 z"
         id="skin" />
      <path
         style="fill:#d8610e;stroke-width:0.32"
         d="m 54.942557,83.791846 c -1.268288,-2.20176 -2.749216,-6.032732 -3.241386,-8.385056 -0.364921,-1.744137 -0.72487,-2.480563 -1.868835,-3.823497 -2.809587,-3.298253 -5.670534,-9.20272 -5.911075,-12.199373 -0.182087,-2.268413 0.585958,-5.739219 1.490563,-6.735869 0.32351,-0.356429 0.755008,-0.971581 0.958886,-1.367005 0.203879,-0.395427 0.905876,-0.994294 1.559991,-1.330816 C 49.304246,49.243581 52.16,46.482442 52.16,45.861053 52.16,45.629475 52.304,45.44 52.48,45.44 c 0.176,0 0.32,-0.168662 0.32,-0.374803 0,-0.206141 0.191974,-0.602141 0.426611,-0.88 0.399447,-0.473031 0.91521,-3.31265 1.341379,-7.385197 0.279767,-2.673501 1.169936,-6.72 1.478298,-6.72 0.150541,0 0.272461,0.18 0.270934,0.4 -0.0055,0.799209 3.028064,9.688682 3.412592,10 0.391063,0.316608 1.975904,3.361536 3.299703,6.339658 0.376416,0.846812 1.100774,1.926812 1.609689,2.4 1.194781,1.110908 3.519821,5.697574 3.518144,6.940342 -6.4e-4,0.528 -0.216406,1.372461 -0.479321,1.876579 C 67.415114,58.540698 67.2,59.133184 67.2,59.353216 c 0,0.220032 -0.433533,0.887571 -0.963408,1.483421 -0.529875,0.595849 -1.047082,1.397776 -1.149344,1.782061 -0.115053,0.432339 -0.357734,0.632771 -0.636592,0.525763 C 64.148106,63.028362 64,63.200624 64,63.668621 c 0,0.383401 -0.216,0.913094 -0.48,1.177094 -0.264,0.264 -0.48,0.956919 -0.48,1.539821 0,0.790698 -0.162515,1.10232 -0.64,1.227184 -0.442765,0.115786 -0.64,0.436483 -0.64,1.040627 0,0.520439 -0.323226,1.172819 -0.8,1.614679 -0.44,0.407779 -0.8,1.014256 -0.8,1.347731 0,0.700851 -1.017283,1.984243 -1.572813,1.984243 -0.633213,0 -2.142876,-1.431943 -2.600981,-2.820016 -0.591955,-1.793648 -0.883041,-2.038433 -1.897079,-1.024394 -0.195262,0.754169 -0.359547,0.465023 -0.416647,1.086523 0.425165,0.598028 0.08752,1.225013 0.08752,1.582492 0,0.357475 0.35705,1.092179 0.523172,1.632675 1.645305,5.353158 2.339622,10.247926 1.796985,10.790563 -0.234467,0.234467 -0.577875,-0.08431 -1.1376,-1.055997 z m 69.387683,-5.127964 -1.26976,-1.240503 0.71798,-2.151689 c 0.92268,-2.765152 1.35318,-4.838301 1.5432,-7.43169 0.12631,-1.723808 0.0386,-2.261606 -0.51239,-3.140506 -0.91692,-1.462681 -2.0611,-1.316265 -3.28611,0.420506 -0.49655,0.704 -1.12888,1.600819 -1.40516,1.992931 -0.27629,0.392109 -0.59587,1.760109 -0.71017,3.04 -0.19143,2.143466 -0.2662,2.33001 -0.94771,2.36433 C 117.51427,72.564896 116.8,71.850624 116.8,70.857142 116.8,70.429715 116.67199,70.08 116.51554,70.08 c -0.15646,0 -0.52178,-0.972 -0.81183,-2.16 -1.24002,-5.078918 -4.39218,-12.584538 -5.45674,-12.993046 -1.12811,-0.432896 -0.48368,-1.424756 2.80017,-4.309824 1.25018,-1.098356 2.24001,-2.478615 3.36847,-4.69713 0.62558,-1.229853 3.60537,-5.28 3.88462,-5.28 0.45473,0 1.67084,-3.068333 1.82808,-4.612355 0.25488,-2.502915 0.33383,-2.629741 1.16004,-1.863658 0.39141,0.362922 1.54647,1.052579 2.5668,1.532573 2.78006,1.307814 4.26417,3.35929 5.00224,6.914541 0.42126,2.029174 -0.0159,10.087443 -0.68252,12.579664 -0.48733,1.822077 -0.10977,3.378752 1.73566,7.156102 1.27798,2.615853 1.307,2.745789 0.93269,4.17649 -0.54451,2.081248 -1.60442,4.142397 -4.215,8.196643 -1.24661,1.936 -2.34794,3.916 -2.44739,4.4 -0.0995,0.484 -0.27083,0.858486 -0.38083,0.832192 -0.11,-0.0263 -0.77139,-0.606032 -1.46976,-1.28831 z M 63.260491,75.396921 c 0,-0.177152 0.994113,-1.604299 2.182113,-2.806571 1.583085,-1.602105 2.963882,-2.451217 4.957396,-3.452174 5.075446,-2.548413 7.409072,-3.059834 9.663642,-2.117814 1.064438,0.444752 1.125504,0.566822 1.800892,3.6 0.3845,1.7268 0.698276,3.247638 0.69728,3.379638 -0.004,0.523296 -0.624198,0.182637 -1.804166,-0.990915 C 79.177322,71.43736 76.45031,70.4 73.89887,70.4 c -2.240166,0 -4.47015,0.990083 -7.980288,3.543139 -2.25832,1.642567 -2.658091,1.988835 -2.658091,1.453782 z M 85.396422,68.88 C 85.372454,66.636 85.290438,65.124 85.214166,65.52 85.044374,66.401542 84.48,66.477558 84.48,65.618886 84.48,65.277274 84.336,64.908774 84.16,64.8 c -0.176,-0.108774 -0.32,0.09873 -0.32,0.461114 0,0.362387 -0.08872,0.86896 -0.264717,0.86896 -0.176,0 -0.496905,-0.592187 -0.496905,-1.032187 0,-0.478394 -0.06137,-0.777887 -0.333562,-0.777887 -0.432326,0 -0.829152,-0.924246 -1.298064,-3.023312 -0.164301,-0.735491 -0.277264,-0.841238 -0.512749,-0.48 -0.214045,0.328346 -0.282125,0.11848 -0.233705,-0.720432 0.09785,-1.695398 -0.795738,-2.612998 -2.293812,-2.35544 C 77.000054,57.982621 76.249309,57.956966 72,57.521907 70.753984,57.394336 68.582234,55.751312 68.160038,54.616813 67.235482,52.132394 66.059683,50.060214 64.853379,48.789299 64.357805,48.267184 63.327181,46.544 62.563101,44.96 c -0.76408,-1.584 -1.727847,-3.384 -2.141706,-4 -0.413862,-0.616 -1.157997,-2.416 -1.653638,-4 C 58.272112,35.376 57.662605,33.537085 57.413293,32.873523 57.163984,32.209962 56.96,30.627764 56.96,29.357528 v -2.309522 l 2.173622,-2.084003 c 1.195495,-1.146201 2.743495,-2.35709 3.44,-2.690863 C 63.270131,21.939367 64.056,21.547777 64.32,21.40294 66.331414,20.29943 67.795254,19.84 69.299846,19.84 c 2.352656,0 2.963812,0.301769 5.298692,2.616316 5.328336,5.281935 7.632726,5.569191 15.001462,1.870024 2.376,-1.192773 4.948816,-2.262542 5.71737,-2.377266 0.768553,-0.114724 2.898214,-0.721482 4.73258,-1.348351 2.84505,-0.972259 3.76837,-1.142195 6.28263,-1.156315 2.06921,-0.01162 3.30191,0.140196 4.13714,0.50952 0.65435,0.28934 1.53116,0.526072 1.94847,0.526072 0.9078,0 2.91982,1.471614 3.39172,2.480735 0.18537,0.396405 0.76692,0.982161 1.29233,1.30168 0.67603,0.41112 1.50455,1.654503 2.83422,4.253403 1.84418,3.604515 1.87664,3.713635 1.75427,5.89832 -0.12726,2.272038 -0.8578,5.108851 -1.40229,5.445369 -0.6064,0.374771 -4.23194,5.456234 -4.80976,6.741219 -0.83084,1.847693 -7.20036,8.158327 -9.39868,9.311802 -0.352,0.184698 -1.46196,0.504893 -2.46659,0.711546 -2.38646,0.490899 -5.937399,1.849896 -8.197901,2.863784 -1.553718,0.696876 -3.255509,2.00866 -3.255509,2.755345 0,0.123427 -0.36,0.652243 -0.8,1.175155 -0.44,0.522909 -0.8,1.2192 -0.8,1.547309 0,0.328109 -0.144,0.685559 -0.32,0.794333 -0.176,0.108774 -0.32,0.483818 -0.32,0.83343 0,0.349613 -0.324,0.969466 -0.72,1.377447 -0.920144,0.947987 -1.52,1.968051 -1.52,2.584781 0,0.266387 -0.144,0.484342 -0.32,0.484342 -0.176,0 -0.32,-0.288 -0.32,-0.64 0,-1.294336 -0.564061,-0.590906 -0.769795,0.96 -0.391229,2.949229 -0.829066,1.706541 -0.873783,-2.48 z M 94.4,70.44 c 0,-1.034 -0.08669,-2.313472 -0.192656,-2.843274 -0.217229,-1.086144 -0.571846,-0.96646 4.992656,-1.685001 3.49275,-0.451018 8.73537,-0.146314 9.87757,0.574086 1.26182,0.795847 3.25909,2.515575 3.77196,3.247802 0.33729,0.481545 -0.11933,0.322361 -1.78848,-0.623485 -2.00651,-1.137014 -2.46883,-1.269731 -4.41124,-1.26633 -3.35378,0.0059 -7.022319,1.247024 -10.32981,3.494826 -0.792,0.53825 -1.548,0.979251 -1.68,0.980006 C 94.508,72.31927 94.4,71.474 94.4,70.44 Z"
         id="hair" />
      <path
         style="fill:#9e3500;stroke-width:0.32"
         d="m 126.72973,72.564835 c -0.005,-0.129341 0.35416,-1.490886 0.79892,-3.025657 0.44476,-1.534775 0.93055,-3.732948 1.07952,-4.884836 0.24502,-1.894444 0.27474,-1.956201 0.31135,-0.647004 0.0404,1.444723 -1.26522,7.224016 -1.86393,8.250614 -0.17387,0.298125 -0.32051,0.436224 -0.32586,0.306883 z M 52.640022,70.128659 c -1.507833,-1.999497 -3.729235,-7.453475 -3.654758,-8.973155 0.02707,-0.552246 0.223779,-0.01766 1.105632,3.004496 0.559792,1.918445 1.577661,4.004208 2.78087,5.698426 0.81953,1.153955 0.614749,1.392745 -0.231744,0.270233 z m 4.709936,-1.92023 c -0.401523,-0.778256 -0.671376,-1.47368 -0.59967,-1.545383 0.210387,-0.21039 1.528976,2.188893 1.424746,2.592445 -0.05227,0.202371 -0.423552,-0.268806 -0.825076,-1.047062 z m -1.341004,-3.06488 c -0.475508,-1.250679 -0.381396,-1.4476 0.188902,-0.395258 0.270726,0.499559 0.412989,0.98753 0.316141,1.084381 -0.09685,0.09685 -0.324119,-0.213258 -0.505043,-0.689123 z m 3.070579,-1.63592 c -0.308794,-0.804701 -0.217699,-1.012336 0.159529,-0.363629 0.186781,0.3212 0.272192,0.651411 0.189802,0.733802 -0.08239,0.08239 -0.23959,-0.08419 -0.349331,-0.370173 z m 67.330197,-0.212016 c -0.005,-0.123415 0.22311,-1.059415 0.50769,-2.08 0.28459,-1.020586 0.62055,-3.871613 0.7466,-6.335613 l 0.22917,-4.48 0.0534,3.565773 c 0.0334,2.229414 -0.13962,4.508035 -0.46164,6.08 -0.44131,2.154256 -1.04376,3.975184 -1.07522,3.24984 z M 62.129958,61.413226 c -0.920956,-2.007495 -2.333782,-6.116071 -2.16216,-6.28769 0.06953,-0.06953 0.44936,0.854781 0.844071,2.054022 0.394707,1.199242 1.131584,3.008442 1.637497,4.020442 0.505917,1.012 0.808932,1.84 0.673367,1.84 -0.135562,0 -0.582311,-0.732048 -0.992775,-1.626774 z M 87.210963,60.32 c 0.07947,-1.232 0.145511,-4.1 0.146762,-6.373334 0.0013,-2.273332 0.08217,-4.053437 0.179821,-3.955786 0.289488,0.289488 0.141667,9.564973 -0.17736,11.12912 -0.259399,1.271776 -0.276829,1.178317 -0.149223,-0.8 z m -3.156121,-2.766762 c -1.2608,-4.262758 -2.473965,-9.726803 -2.429901,-10.944176 0.01373,-0.378985 0.361625,0.966938 0.773133,2.990938 0.411504,2.024 1.317459,5.519136 2.013228,7.766966 0.69577,2.247834 1.175863,4.141316 1.066868,4.207744 -0.108992,0.06643 -0.749492,-1.743235 -1.423328,-4.021472 z M 90.731597,55.52 c 0.09457,-0.704 0.317469,-2.130848 0.495337,-3.170774 0.177866,-1.039927 0.351684,-4.279927 0.38626,-7.2 0.05939,-5.01585 0.01507,-5.449927 -0.802224,-7.855501 -0.9881,-2.908336 -0.968141,-3.672359 0.0265,-1.013981 1.261884,3.372694 1.449097,5.40727 1.052592,11.439411 C 91.689025,50.777619 91.307441,54.072 91.042103,55.04 90.657217,56.444138 90.594436,56.54119 90.73161,55.52 Z M 120.81139,55.2 c 0.93903,-2.687286 1.4386,-4.798013 1.73135,-7.31505 0.1871,-1.608723 0.39996,-3.42895 0.47302,-4.04495 0.0731,-0.616 0.064,0.392 -0.0202,2.24 -0.16152,3.546915 -1.14908,8.228829 -1.93818,9.188694 -0.44376,0.539789 -0.45733,0.536 -0.24603,-0.06869 z M 93.577645,54.72 c 1.715693,-7.55479 1.882592,-8.830874 1.912393,-14.621808 0.01648,-3.201997 0.12784,-5.577997 0.247469,-5.28 0.386346,0.962368 0.262951,8.125002 -0.199523,11.581808 -0.510426,3.8152 -1.384928,7.927856 -1.837187,8.64 -0.222483,0.350336 -0.255754,0.263891 -0.123152,-0.32 z M 59.222858,52.617142 c -0.219927,-0.982739 -0.327623,-1.859046 -0.239319,-1.947347 0.0883,-0.0883 0.329709,0.654288 0.536461,1.650205 0.206752,0.995917 0.314445,1.872221 0.239318,1.947347 -0.07513,0.07513 -0.316534,-0.667465 -0.53646,-1.650205 z m 10.863561,0.670592 C 69.834019,52.98361 69.809741,52.8 70.021933,52.8 c 0.386736,0 0.837629,0.607104 0.615712,0.829024 -0.08054,0.08054 -0.328595,-0.07304 -0.551226,-0.34129 z M 72.67616,51.6 c -2.511178,-4.36439 -4.54623,-11.870976 -5.286682,-19.500714 -0.139843,-1.44096 0.300032,-3.910608 0.78329,-4.397702 0.171331,-0.172693 0.1636,0.163457 -0.01834,0.797888 -1.192202,4.156966 1.646736,17.401078 4.931309,23.005347 0.623798,1.064349 1.025043,1.935181 0.891657,1.935181 -0.133388,0 -0.718937,-0.828 -1.301222,-1.84 z m 5.969152,-0.72 C 78.179562,49.56 77.348915,47.214586 76.799434,45.667968 75.535456,42.110275 74.659402,37.5452 74.452838,33.44 l -0.161014,-3.2 0.291523,2.72 c 0.662227,6.178765 1.581763,9.910646 4.098749,16.634496 0.558877,1.492973 0.969766,2.932973 0.913088,3.2 C 79.538506,53.061523 79.111062,52.2 78.645312,50.88 Z M 68.311606,50.702826 c -3.692614,-5.054589 -4.636252,-7.854336 -4.861404,-14.423597 -0.09478,-2.765485 -0.03714,-5.07087 0.134457,-5.377499 0.194525,-0.347596 0.259626,1.019922 0.184743,3.880769 -0.100832,3.852263 -0.02074,4.765536 0.625939,7.137501 0.73423,2.693075 2.943597,7.36 3.484297,7.36 0.154199,0 0.280362,0.208845 0.280362,0.464099 0,0.255255 0.194979,0.579255 0.433286,0.72 0.464362,0.274256 1.293927,1.675357 1.104247,1.865034 -0.06287,0.06288 -0.686541,-0.668963 -1.385927,-1.626307 z M 98.026925,51.52 c 0.10863,-0.616 0.49079,-2.776 0.849241,-4.8 0.640717,-3.617789 0.864151,-9.441072 0.506356,-13.196931 -0.152807,-1.60404 -0.146048,-1.622966 0.143916,-0.403069 0.614712,2.586115 0.388724,9.936842 -0.450956,14.668531 -0.432234,2.435693 -0.889421,4.523693 -1.015975,4.64 C 97.932957,52.544838 97.918294,52.136 98.026925,51.52 Z m 4.122835,-2.08 c 0.003,-0.352 0.11589,-1.072 0.25024,-1.6 0.21942,-0.86231 0.24489,-0.878592 0.25024,-0.16 0.003,0.44 -0.10933,1.16 -0.25024,1.6 -0.20076,0.626877 -0.25492,0.661504 -0.25024,0.16 z m 2.73669,0.299782 c -0.10441,-0.104409 0.15653,-0.862576 0.57987,-1.684809 1.61156,-3.130087 2.43845,-6.652291 2.67982,-11.414973 l 0.22705,-4.48 0.0534,3.859731 c 0.0571,4.129904 -0.43383,6.775939 -2.04484,11.020269 -0.90533,2.385174 -1.22776,2.967322 -1.4953,2.699782 z M 58.585264,49.093334 c 0.01536,-0.372784 0.09118,-0.448608 0.193331,-0.193334 0.09244,0.230998 0.08107,0.506998 -0.02525,0.613334 -0.106336,0.106333 -0.181965,-0.08267 -0.16807,-0.42 z M 87.131523,48.16 c 0.0026,-0.88 0.06455,-1.202019 0.138103,-0.7156 0.07355,0.486419 0.07159,1.206419 -0.0044,1.6 -0.07596,0.393581 -0.136135,-0.0044 -0.133735,-0.8844 z m 22.010137,-0.74625 c -0.0119,-0.234435 0.32654,-1.458435 0.75212,-2.72 0.42558,-1.261561 0.87919,-2.79775 1.00802,-3.41375 0.12882,-0.616 0.29703,-0.938774 0.37379,-0.717277 0.0768,0.221495 -0.24041,1.661495 -0.70481,3.2 -0.94478,3.129981 -1.39691,4.285034 -1.42912,3.651027 z M 102.78329,46.4 c -0.007,-0.264 0.17809,-1.488 0.41131,-2.72 0.27123,-1.432829 0.42402,-1.836413 0.424,-1.12 -4e-5,1.084726 -0.80966,4.806662 -0.83531,3.84 z M 86.800698,45.28 c 0.0036,-0.704 0.06908,-0.95432 0.145625,-0.556269 0.07654,0.398051 0.07363,0.974051 -0.0065,1.28 -0.08009,0.305949 -0.14272,-0.01974 -0.139168,-0.723731 z M 58.327155,44.16 c 0,-0.792 0.06241,-1.116 0.138679,-0.72 0.07628,0.396 0.07628,1.044 0,1.44 -0.07627,0.396 -0.138679,0.072 -0.138679,-0.72 z m 23.027085,0.32 c 0,-0.616 0.06586,-0.868 0.146346,-0.56 0.08049,0.308 0.08049,0.812 0,1.12 -0.08049,0.308 -0.146346,0.056 -0.146346,-0.56 z m -0.302717,-2.72 c 0.0026,-0.88 0.06455,-1.202019 0.138103,-0.7156 0.07355,0.486419 0.07159,1.206419 -0.0044,1.6 -0.07596,0.393581 -0.136135,-0.0044 -0.133735,-0.8844 z m 5.373741,0.613334 c 0.01536,-0.372784 0.09118,-0.448608 0.193331,-0.193334 0.09244,0.230998 0.08107,0.506998 -0.02525,0.613334 -0.106333,0.106333 -0.181965,-0.08267 -0.16807,-0.42 z M 58.007155,41.28 c 0,-0.792 0.06241,-1.116 0.138679,-0.72 0.07628,0.396 0.07628,1.044 0,1.44 -0.07627,0.396 -0.138679,0.072 -0.138679,-0.72 z m 28.098109,-0.506666 c 0.01536,-0.372784 0.09118,-0.448608 0.193331,-0.193334 0.09244,0.230998 0.08107,0.506998 -0.02525,0.613334 -0.106333,0.106333 -0.181965,-0.08267 -0.16807,-0.42 z M 103.79359,37.6 c -9.6e-4,-1.584 0.0531,-2.272346 0.12024,-1.529654 0.0671,0.742688 0.0679,2.038688 0.002,2.88 -0.0661,0.841308 -0.12104,0.233654 -0.12202,-1.350346 z m 7.7756,0.16 c 0.10284,-1.32 0.28818,-2.511146 0.41189,-2.646992 0.22754,-0.249891 -0.19719,4.135949 -0.45777,4.726992 -0.0776,0.176 -0.057,-0.76 0.0459,-2.08 z m -30.830032,-0.8 c 0.0019,-1.056 0.06154,-1.449421 0.132756,-0.874269 0.07122,0.575152 0.06975,1.439152 -0.0033,1.92 -0.07302,0.480848 -0.131287,0.01027 -0.129492,-1.045731 z m 31.286102,-4.506666 c 0.0154,-0.372784 0.0912,-0.448608 0.19334,-0.193334 0.0924,0.230998 0.0811,0.506998 -0.0252,0.613334 -0.10634,0.106333 -0.18197,-0.08267 -0.16807,-0.42 z m -4.24142,-1.837597 c -0.11906,-0.583943 -0.0745,-0.794354 0.12591,-0.59399 0.17065,0.170649 0.25361,0.577568 0.18437,0.904263 -0.0933,0.439941 -0.17373,0.359474 -0.31028,-0.310273 z m -0.23858,-2.322404 c 0.0154,-0.372781 0.0912,-0.448608 0.19334,-0.193333 0.0924,0.231 0.0811,0.507 -0.0252,0.613333 -0.10634,0.106334 -0.18197,-0.08267 -0.16807,-0.42 z"
         id="hair_lines" />
      <path
         style="fill:#04753f;stroke-width:0.32"
         d="m 73.625184,89.6 c -0.0084,-0.44 0.107667,-0.99417 0.258061,-1.231485 0.331312,-0.522797 1.368093,-0.375568 1.567264,0.22256 0.114742,0.344589 0.0068,0.357888 -0.538051,0.06629 C 74.537581,88.456742 74.255414,88.406758 74.285421,88.546298 74.315437,88.685834 74.182611,89.16 73.990272,89.6 l -0.349706,0.8 -0.01539,-0.8 z m -1.608368,0.0104 c -0.25905,-0.160102 -0.104346,-0.250394 0.429021,-0.250394 0.931024,0 1.041747,0.09187 0.405145,0.336157 -0.235961,0.09055 -0.611334,0.05195 -0.834166,-0.08576 z m 0.459629,-0.976144 c -0.121293,-0.196256 -0.134112,-0.443248 -0.02848,-0.548874 0.105625,-0.105622 0.192045,-0.01555 0.192045,0.200176 0,0.215722 0.165814,0.289741 0.368476,0.164487 0.259405,-0.16032 0.210992,-0.342887 -0.163548,-0.616755 -0.495255,-0.362141 -0.494461,-0.419588 0.01142,-0.831156 0.47303,-0.384828 0.518201,-0.374604 0.348556,0.07888 -0.1072,0.286554 -0.05606,0.659859 0.113648,0.829565 0.198074,0.198074 0.142032,0.446758 -0.156518,0.694531 -0.337651,0.280224 -0.525498,0.288211 -0.685606,0.02915 z M 76,88.64 c -0.108774,-0.176 -0.04527,-0.32 0.141114,-0.32 0.186387,0 0.338886,0.144 0.338886,0.32 0,0.176 -0.0635,0.32 -0.141114,0.32 -0.07761,0 -0.230112,-0.144 -0.338886,-0.32 z m -1.76,-1.6 C 73.951587,86.853613 73.912118,86.727843 74.141114,86.724899 74.350726,86.722339 74.611226,86.864 74.72,87.04 c 0.245536,0.39729 0.134758,0.39729 -0.48,0 z m -0.294736,-1.146666 c 0.01536,-0.372784 0.09118,-0.448608 0.193331,-0.193334 0.09244,0.230998 0.08107,0.507002 -0.02525,0.613334 -0.106336,0.106333 -0.181965,-0.08267 -0.16807,-0.42 z m 1.767152,-2.320883 c -0.08144,-0.131779 0.129946,-0.260541 0.469754,-0.286137 0.734899,-0.05536 0.799552,0.09548 0.14808,0.345475 -0.258365,0.09914 -0.536391,0.07244 -0.617834,-0.05934 z M 70.869958,82.72 c -0.08248,-0.264 -0.21744,-0.696 -0.299916,-0.96 -0.232887,-0.745459 0.133168,-0.565101 0.48711,0.24 0.292445,0.665213 0.306858,0.65119 0.189427,-0.184262 -0.06991,-0.497344 -0.01302,-0.785344 0.126413,-0.64 0.266141,0.277417 0.408874,0.949564 0.344922,1.624262 -0.05296,0.558704 -0.666503,0.500819 -0.847956,-0.08 z m 35.294322,-0.893331 c 0.0966,-0.880323 -0.0382,-1.11265 -0.94581,-1.62985 -1.25426,-0.714749 -0.69906,-1.085485 0.6989,-0.466691 0.72008,0.318739 0.90958,0.57289 0.76555,1.026685 -0.10527,0.331699 -0.053,0.69311 0.11614,0.803139 0.17829,0.115974 0.0859,0.429792 -0.21995,0.746717 -0.49352,0.511465 -0.52023,0.480557 -0.41483,-0.48 z M 72.482266,80.963664 c -0.112109,-0.181395 0.01635,-0.23504 0.301113,-0.125763 0.554375,0.212733 0.655805,0.442099 0.195507,0.442099 -0.165612,0 -0.389094,-0.142352 -0.49662,-0.316336 z M 108.32,80.96 c -0.10877,-0.176 -0.0453,-0.32 0.14111,-0.32 0.18639,0 0.33889,0.144 0.33889,0.32 0,0.176 -0.0635,0.32 -0.14111,0.32 -0.0776,0 -0.23012,-0.144 -0.33889,-0.32 z m -7.84,-0.120819 c 0,-0.06645 0.252,-0.318448 0.56,-0.56 0.50754,-0.398039 0.51886,-0.38672 0.12082,0.120819 -0.41804,0.53304 -0.68082,0.702554 -0.68082,0.439181 z m 3.72983,-2.613639 c 0.0975,-0.254025 0.30614,-0.382195 0.4637,-0.284819 0.39683,0.245258 0.36031,0.362471 -0.17723,0.568743 -0.30932,0.118694 -0.4047,0.02416 -0.28647,-0.283924 z m 1.28152,-0.287126 c -0.22314,-0.581482 0.1533,-0.866365 0.69908,-0.529056 0.3127,0.193264 0.30008,0.329949 -0.0579,0.627053 -0.36012,0.29887 -0.4969,0.277965 -0.64117,-0.098 z"
         id="eye_3" />
      <path
         style="fill:#14653a;stroke-width:0.32"
         d="M 71.036128,89.597606 C 70.806179,89.455491 70.455923,89.401421 70.257782,89.477456 69.501984,89.767485 67.408118,87.193501 67.580061,86.185738 67.637398,85.849696 67.509482,85.634102 67.28,85.68 c -0.22,0.044 -0.4,-0.06862 -0.4,-0.250278 0,-0.503482 0.90089,-2.549722 1.122557,-2.549722 0.107366,0 0.106217,0.144 -0.0026,0.32 -0.108775,0.176 -0.08127,0.331018 0.06111,0.344483 0.142388,0.01347 0.474887,0.06579 0.738887,0.116279 0.264,0.05049 0.768,-0.0224 1.12,-0.161991 0.56776,-0.225142 0.574659,-0.256326 0.06111,-0.276278 -0.318387,-0.01238 -0.488435,-0.168842 -0.377888,-0.347712 0.110548,-0.178871 0.335047,-0.242375 0.498887,-0.141114 0.163837,0.101258 0.312243,-0.148393 0.329785,-0.554781 l 0.0319,-0.738886 0.216928,0.776275 c 0.208023,0.7444 0.975604,1.323389 1.021325,0.770391 0.01213,-0.146666 0.07174,-0.638666 0.132483,-1.093332 0.06745,-0.504896 -0.04445,-0.826668 -0.287478,-0.826668 -0.243504,0 -0.354346,0.320787 -0.285642,0.826668 0.108512,0.798989 0.101674,0.80256 -0.204259,0.106666 -0.174089,-0.396 -0.501168,-0.725104 -0.726841,-0.731341 -0.942855,-0.02605 1.28551,-0.926944 2.318486,-0.937318 1.484982,-0.01491 3.757786,1.570797 3.303942,2.305129 -0.08278,0.133943 0.109988,0.245735 0.428375,0.248429 0.476073,0.004 0.496349,0.05711 0.114166,0.298887 -0.255597,0.161692 -0.601846,0.209238 -0.769443,0.105657 -0.167597,-0.103581 -0.21033,-0.0356 -0.09496,0.151072 0.115366,0.186672 0.485552,0.26728 0.82263,0.179133 0.53138,-0.13896 0.641965,0.07261 0.831703,1.591242 0.132921,1.063872 0.08461,2.002313 -0.123053,2.390339 -0.377302,0.704995 -1.539069,1.144457 -1.820723,0.688729 C 75.242874,88.13048 74.87913,88 74.533117,88 c -0.438195,0 -0.685437,0.281622 -0.814714,0.928 -0.159081,0.795414 -0.334086,0.928 -1.224893,0.928 -0.571609,0 -1.22743,-0.116278 -1.457379,-0.258394 z M 73.31857,87.91057 c -0.169706,-0.169706 -0.220848,-0.543012 -0.113648,-0.829565 0.169644,-0.453482 0.124473,-0.463706 -0.348557,-0.07888 -0.505898,0.411568 -0.506691,0.469014 -0.01142,0.831155 0.374541,0.273869 0.422953,0.456435 0.163549,0.616755 -0.202663,0.125255 -0.368477,0.05124 -0.368477,-0.164486 0,-0.215722 -0.08642,-0.305798 -0.192045,-0.200176 -0.105622,0.105626 -0.0928,0.352618 0.02848,0.548874 0.160109,0.259062 0.347955,0.251075 0.685606,-0.02915 0.298551,-0.247773 0.354592,-0.496458 0.156519,-0.694532 z M 74.72,87.04 c -0.108774,-0.176 -0.369274,-0.317795 -0.578886,-0.315101 -0.228996,0.0029 -0.189527,0.128714 0.09889,0.315101 0.614758,0.39729 0.725536,0.39729 0.48,0 z m -1.590483,-0.73145 c 0.185651,-0.0086 0.273273,-0.496998 0.200691,-1.118704 -0.08155,-0.698492 0.03241,-1.216358 0.310483,-1.41103 0.359235,-0.251485 0.351818,-0.28231 -0.04069,-0.169123 -0.264,0.07613 -0.798902,0.02061 -1.188672,-0.123411 -0.415933,-0.153671 -0.788576,-0.132535 -0.902112,0.05116 -0.10639,0.172148 -0.333261,0.22658 -0.504154,0.12096 -0.192822,-0.119171 -0.22166,0.152036 -0.07601,0.714781 0.129088,0.498749 0.237718,1.14824 0.241395,1.443319 0.0037,0.295078 0.119834,0.466579 0.258122,0.381113 0.138285,-0.08546 0.251427,0.01251 0.251427,0.217731 0,0.230538 0.214,0.28433 0.56,0.140772 0.308,-0.127792 0.708282,-0.2392 0.889517,-0.247572 z M 74.138595,85.7 c -0.10215,-0.255274 -0.177977,-0.17945 -0.193331,0.193334 -0.01389,0.337332 0.06173,0.526333 0.16807,0.42 0.106333,-0.106332 0.1177,-0.382336 0.02525,-0.613334 z m -4.256496,-1.396621 c 0.109277,-0.284774 0.05563,-0.413222 -0.125763,-0.301113 -0.173984,0.107526 -0.316336,0.331008 -0.316336,0.49662 0,0.460298 0.229366,0.358868 0.442099,-0.195507 z M 73.28,81.154237 c 0,-0.06917 -0.223478,-0.21152 -0.496621,-0.316336 -0.284774,-0.109277 -0.413222,-0.05563 -0.301113,0.125763 C 72.670189,81.267731 73.28,81.413408 73.28,81.154237 Z M 102.4,86.72 c -0.44,-0.140912 -0.67544,-0.27056 -0.5232,-0.288102 0.15225,-0.01754 0.0293,-0.409629 -0.27319,-0.871296 -0.37628,-0.574276 -0.41317,-0.768925 -0.1168,-0.616272 0.23825,0.122723 0.18343,0.01821 -0.12184,-0.23224 -0.30526,-0.250455 -0.46126,-0.549133 -0.34666,-0.663732 0.1146,-0.114595 0.004,-0.208348 -0.24498,-0.208336 -0.51832,2.3e-5 -0.60225,-2.128688 -0.11434,-2.899788 0.16017,-0.25313 0.29342,-0.712234 0.29611,-1.020234 0.003,-0.308 0.1129,-0.56 0.2449,-0.56 0.132,0 0.32963,0 0.43918,0 0.10955,0 0.002,0.24296 -0.24,0.539914 -0.38375,0.471776 -0.3698,0.513923 0.11057,0.333974 0.30237,-0.113264 0.64861,-0.04598 0.76944,0.14953 0.12805,0.207174 0.0748,0.265913 -0.12763,0.140806 -0.19104,-0.118064 -0.42997,-0.08096 -0.53097,0.08246 -0.101,0.163421 0.069,0.248787 0.37789,0.189706 0.30884,-0.05909 0.67802,-0.118445 0.82041,-0.131911 0.14238,-0.01347 0.16988,-0.168483 0.0611,-0.344483 -0.10877,-0.176 -0.0453,-0.32 0.14111,-0.32 0.18639,0 0.33889,-0.36 0.33889,-0.8 0,-0.44 -0.144,-0.8 -0.32,-0.8 -0.176,0 -0.32,-0.152499 -0.32,-0.338886 0,-0.186388 0.13405,-0.256039 0.29789,-0.154781 0.16384,0.101261 0.38979,0.03541 0.50211,-0.146333 0.28626,-0.463181 0.87964,-0.02909 0.67811,0.49607 -0.10745,0.280013 3e-5,0.367812 0.30635,0.250263 0.34095,-0.130835 0.37856,-0.293514 0.13554,-0.586333 -0.45028,-0.542557 0.6084,-0.971978 1.09351,-0.443546 0.25322,0.275831 0.2398,0.317255 -0.0498,0.153872 -0.26746,-0.150876 -0.33335,-0.05944 -0.20262,0.281223 0.15297,0.398643 0.28996,0.424899 0.65148,0.124864 0.36256,-0.300899 0.37336,-0.432093 0.0519,-0.630768 -0.22323,-0.137965 -0.29623,-0.360493 -0.16222,-0.494503 0.24733,-0.247331 2.99742,1.087783 3.33339,1.618301 0.10362,0.163613 -0.0121,0.17793 -0.26614,0.03294 -0.24719,-0.141079 -0.12544,0.05828 0.27056,0.443024 0.60762,0.590342 0.72,1.039462 0.72,2.877465 0,1.731837 -0.12429,2.29042 -0.60681,2.727095 -0.33375,0.302038 -0.65775,0.413869 -0.72,0.248515 -0.19855,-0.527382 -1.54824,0.206848 -1.85281,1.007923 -0.40514,1.065578 -2.56141,1.474563 -4.50038,0.853597 z m 3.29663,-4.516506 c 0.52412,-0.832377 0.0347,-1.563494 -1.04659,-1.563494 -0.53352,0 -0.97004,0.152499 -0.97004,0.338886 0,0.186388 -0.108,0.272205 -0.24,0.190708 -0.132,-0.0815 -0.25778,0.234003 -0.27952,0.701113 -0.0217,0.467111 0.0258,0.670579 0.10572,0.452151 0.10857,-0.296906 0.26969,-0.272679 0.63835,0.09598 0.58809,0.588083 1.34333,0.497331 1.79208,-0.215348 z m 1.10243,-0.643542 c -0.16915,-0.110029 -0.22141,-0.47144 -0.11614,-0.803139 0.14403,-0.453795 -0.0455,-0.707946 -0.76555,-1.026685 -1.39796,-0.618794 -1.95316,-0.248058 -0.6989,0.466691 0.90759,0.5172 1.04242,0.749527 0.94581,1.62985 -0.1054,0.960557 -0.0787,0.991465 0.41483,0.48 0.30581,-0.316925 0.39824,-0.630743 0.21995,-0.746717 z M 108.8,80.96 c 0,-0.176 -0.1525,-0.32 -0.33889,-0.32 -0.18638,0 -0.24988,0.144 -0.14111,0.32 0.10877,0.176 0.26127,0.32 0.33889,0.32 0.0776,0 0.14111,-0.144 0.14111,-0.32 z"
         id="eye_2" />
      <path
         style="fill:#292724;stroke-width:0.32"
         d="m 88.96,116.67469 c 0,-0.24492 -0.376035,-0.53969 -0.835638,-0.65504 -0.4596,-0.11535 -2.2956,-1.07338 -4.08,-2.12896 -1.784397,-1.05558 -3.460362,-2.03066 -3.724362,-2.16684 -2.780694,-1.43444 -6.898691,-3.95563 -8.294746,-5.07835 -0.954108,-0.76731 -2.502108,-1.85409 -3.44,-2.41507 -0.937888,-0.56097 -1.708329,-1.16631 -1.712086,-1.34519 -0.0078,-0.37252 -2.328016,-2.08524 -2.824835,-2.08524 -0.181175,0 -0.973818,-0.54 -1.761427,-1.2 -0.787613,-0.66 -2.024228,-1.679366 -2.748032,-2.265261 -1.603418,-1.29791 -3.843703,-4.271235 -4.368592,-5.798038 -0.392455,-1.141578 -0.316724,-2.567133 0.232876,-4.383655 0.261338,-0.86376 0.169447,-1.220163 -0.646182,-2.506278 -1.262346,-1.990512 -3.083437,-6.590182 -3.552166,-8.971981 -0.210202,-1.068112 -0.754439,-2.436992 -1.230816,-3.095773 -0.469696,-0.649542 -1.321466,-1.82672 -1.89282,-2.615948 -1.441004,-1.990506 -3.763891,-6.70993 -4.408678,-8.957146 -0.603168,-2.10217 -0.449158,-4.564829 0.422771,-6.760179 0.773306,-1.94704 2.512362,-4.199011 3.670535,-4.753123 1.092707,-0.522794 3.416115,-2.816765 4.752835,-4.692618 0.789849,-1.108419 1.234867,-3.35455 1.743517,-8.8 0.238403,-2.552269 1.087654,-5.833178 1.625424,-6.279485 0.23783,-0.197384 0.432422,-0.717641 0.432422,-1.156128 0,-2.312381 3.220714,-5.420119 7.900723,-7.623587 3.572842,-1.682184 4.725459,-1.923099 6.809171,-1.423225 1.322957,0.317373 2.001632,0.776115 3.837629,2.593992 1.226746,1.214638 2.317011,2.208433 2.422813,2.208433 0.105802,0 0.711549,0.396 1.346106,0.88 1.040096,0.79332 1.408352,0.879583 3.738649,0.875768 2.532231,-0.0041 2.672944,-0.04727 6.904909,-2.116156 2.530416,-1.237046 5.29592,-2.333891 6.67584,-2.647747 1.295715,-0.294704 3.239715,-0.909931 4.32,-1.367173 2.53562,-1.073222 7.49212,-1.410093 9.57898,-0.65104 0.73985,0.269104 1.85901,0.575736 2.48702,0.681403 1.31273,0.220878 3.69595,1.855772 3.97171,2.724605 0.10278,0.323845 0.73801,0.95353 1.41161,1.399299 0.77846,0.515165 1.29316,1.140352 1.41253,1.715765 0.10329,0.497902 0.69361,1.697276 1.31183,2.665276 0.61823,0.968 1.28794,2.12 1.48827,2.56 1.25416,2.754723 1.31156,2.816381 3.55714,3.820458 3.19556,1.428848 4.7168,3.107785 5.65941,6.246048 0.67715,2.254489 0.72661,2.857408 0.53561,6.528681 -0.11574,2.224647 -0.41354,5.282954 -0.66178,6.79624 -0.3145,1.917168 -0.35834,3.081491 -0.14458,3.84 0.32235,1.143805 0.36006,1.234426 1.78124,4.279757 0.59152,1.26753 0.86876,2.345235 0.82319,3.2 -0.0802,1.504794 -2.34527,6.283325 -4.40249,9.287805 -0.76393,1.115696 -1.76432,2.821293 -2.22309,3.790217 l -0.83411,1.761684 0.69455,1.544556 c 1.00909,2.244036 0.96046,4.133872 -0.15575,6.053472 -1.2776,2.19713 -6.60703,8.073725 -8.164,9.002192 -0.71189,0.424522 -1.21049,0.90753 -1.10801,1.073357 0.10249,0.165827 -0.27029,0.55216 -0.8284,0.858519 -1.27966,0.702441 -7.01897,5.163404 -9.01301,7.005504 -0.82846,0.76533 -1.62473,1.39151 -1.76949,1.39151 -0.14476,0 -1.54645,1.224 -3.11486,2.72 -1.5684,1.496 -2.932131,2.7223 -3.030502,2.72511 -0.09837,0.003 -0.666372,0.43481 -1.262221,0.96 -0.59585,0.52519 -1.17185,0.95614 -1.28,0.95766 -0.108151,0.002 -0.727024,0.50553 -1.375277,1.12 -1.157971,1.09764 -1.226704,1.11723 -3.92,1.11723 -2.128515,0 -2.74136,-0.0996 -2.74136,-0.44531 z m 4.96935,-0.84502 c 0.3237,-0.35768 1.102016,-0.95918 1.729597,-1.33666 0.627578,-0.37748 1.795431,-1.27283 2.595226,-1.98967 2.459537,-2.20442 3.608097,-3.18177 5.105827,-4.34467 0.792,-0.61495 1.656,-1.36206 1.92,-1.66025 0.42302,-0.4778 1.66331,-1.45816 7.29529,-5.76638 0.75641,-0.57862 2.21057,-1.77204 3.23146,-2.65204 1.02089,-0.88 2.37953,-2.00016 3.0192,-2.489245 1.6851,-1.288419 6.41874,-6.6976 7.11317,-8.128313 0.32634,-0.672343 0.57482,-1.827069 0.55218,-2.566055 -0.0525,-1.714598 -1.39474,-4.416102 -2.91126,-5.859587 -0.64902,-0.617763 -2.19849,-2.201763 -3.44327,-3.52 -1.24478,-1.31824 -2.57678,-2.647392 -2.96,-2.953667 -0.38322,-0.306279 -0.69677,-0.918279 -0.69677,-1.36 0,-0.441725 -0.12801,-0.803133 -0.28446,-0.803133 -0.15646,0 -0.52435,-0.972 -0.81753,-2.16 -1.21564,-4.925894 -2.12884,-7.385952 -3.97936,-10.72 -0.75708,-1.364 -1.50748,-2.48 -1.66757,-2.48 -0.16009,0 -0.29108,-0.212912 -0.29108,-0.473139 0,-0.388551 -0.14303,-0.407971 -0.8,-0.108637 -0.44,0.20048 -0.8,0.458874 -0.8,0.574214 0,0.439956 -2.47796,1.557978 -4.25837,1.921316 -1.02211,0.208588 -3.10236,0.795668 -4.620033,1.312748 -2.966813,1.010812 -7.278313,3.169462 -2.568938,0.591975 0.816984,-0.447143 5.100791,-1.798323 7.220751,-2.234403 1.00463,-0.206653 2.11459,-0.526848 2.46659,-0.711546 2.19832,-1.153475 8.56784,-7.464109 9.39868,-9.311802 0.57782,-1.284985 4.20336,-6.366448 4.80976,-6.741219 0.54449,-0.336518 1.27503,-3.173331 1.40229,-5.445369 0.12237,-2.184685 0.0899,-2.293805 -1.75427,-5.89832 -1.32967,-2.5989 -2.15819,-3.842283 -2.83422,-4.253403 -0.52541,-0.319519 -1.10696,-0.905275 -1.29233,-1.30168 -0.4719,-1.009121 -2.48392,-2.480735 -3.39172,-2.480735 -0.41731,0 -1.29412,-0.236732 -1.94847,-0.526072 -0.83523,-0.369324 -2.06793,-0.52114 -4.13714,-0.50952 -2.51426,0.01412 -3.43758,0.184056 -6.28263,1.156315 -1.834366,0.626869 -3.964027,1.233627 -4.73258,1.348351 C 94.548816,22.063798 91.976,23.133567 89.6,24.32634 82.231264,28.025507 79.926874,27.738251 74.598538,22.456316 72.263658,20.141769 71.652502,19.84 69.299846,19.84 c -1.504592,0 -2.968432,0.45943 -4.979846,1.56294 -0.264,0.144837 -1.049869,0.536427 -1.746378,0.8702 -0.696505,0.333773 -2.244505,1.544662 -3.44,2.690863 L 56.96,27.048006 v 2.309522 c 0,1.270236 0.203984,2.852434 0.453293,3.515995 0.249312,0.663562 0.858819,2.502477 1.354464,4.086477 0.495641,1.584 1.239776,3.384 1.653638,4 0.413859,0.616 1.377626,2.416 2.141706,4 0.76408,1.584 1.794704,3.307184 2.290278,3.829299 1.206304,1.270915 2.382103,3.343095 3.306659,5.827514 0.422196,1.134499 2.593946,2.777523 3.839962,2.905094 4.249309,0.435059 5.000054,0.460714 6.406486,0.218909 1.498074,-0.257558 2.391661,0.660042 2.293812,2.35544 -0.04842,0.838912 0.01965,1.048778 0.233705,0.720432 0.235485,-0.361238 0.348448,-0.255491 0.512749,0.48 0.468912,2.099066 0.865738,3.023312 1.298064,3.023312 0.266195,0 0.444694,0.298941 0.42992,0.72 -0.01478,0.421549 0.48056,1.13207 0.209091,1.076069 -0.261958,-0.05404 -0.845795,-1.498037 -1.165977,-1.818219 -0.320186,-0.320186 -0.677268,-1.089156 -0.793517,-1.708829 -0.116253,-0.619671 -0.376285,-1.095703 -0.57785,-1.05785 -0.223491,0.04198 -0.404781,-0.530141 -0.464633,-1.466301 -0.0819,-1.280835 -0.231402,-1.595843 -0.902557,-1.901641 -0.605888,-0.276064 -1.047325,-0.274819 -1.788743,0.005 -0.541385,0.204349 -1.143235,0.272518 -1.337443,0.151488 C 76.158899,58.19871 75.28,58.063018 74.4,58.018205 73.52,57.973392 72.461296,57.918643 72.047325,57.896541 71.633354,57.874429 70.785261,57.510672 70.162669,57.088173 68.741453,56.123709 68.48,56.125718 68.48,57.101101 c 0,0.429613 -0.132922,0.863264 -0.295379,0.96367 -0.162461,0.100407 -0.382493,0.579171 -0.488963,1.06392 -0.106468,0.484752 -0.622551,1.340365 -1.146848,1.90136 -0.524298,0.560999 -1.095994,1.395399 -1.270439,1.854221 -0.174445,0.458826 -0.461443,0.745062 -0.637773,0.636086 C 64.464269,63.411392 64.32,63.629014 64.32,64.003971 c 0,0.37496 -0.216,0.897744 -0.48,1.161744 -0.264,0.264 -0.48,0.915194 -0.48,1.447101 0,0.697981 -0.178096,1.013674 -0.64,1.134464 -0.423754,0.110813 -0.64,0.436486 -0.64,0.96385 0,0.438064 -0.36,1.224316 -0.8,1.747228 -0.44,0.522909 -0.8,1.205664 -0.8,1.517232 0,0.747172 -1.057542,1.94441 -1.717536,1.94441 -0.733341,0 -0.677725,1.478435 0.117536,3.124435 0.931258,1.927485 0.836387,3.349623 -0.310598,4.655968 -0.983847,1.120538 -1.701104,2.622365 -2.711988,5.678493 -0.707363,2.138518 -0.50256,4.21128 0.553882,5.605683 1.787706,2.3596 6.097651,6.067933 8.490477,7.305311 1.235862,0.63909 4.053542,2.64299 5.338227,3.79649 2.16111,1.94042 4.057958,3.43362 4.361805,3.43362 0.177587,0 0.959248,0.43783 1.737024,0.97295 0.777779,0.53513 1.955721,1.16682 2.617657,1.40376 1.157482,0.41432 4.651063,2.42584 6.63673,3.82126 3.776358,2.65384 7.086621,3.49239 8.336134,2.1117 z M 85.76,105.7023 c -3.159872,-0.24949 -2.294301,-0.58492 1.227725,-0.47578 2.962176,0.0918 3.70103,0.006 5.344813,-0.6193 2.289344,-0.87114 7.352995,-1.26375 7.115596,-0.55172 -0.103545,0.31056 -0.706425,0.3956 -2.246144,0.31684 -1.618576,-0.0828 -2.458038,0.0487 -3.634995,0.56929 -1.610278,0.7123 -4.658265,1.00928 -7.806995,0.76067 z m 1.187238,-7.973865 c -0.66702,-0.436649 -1.355049,-1.168147 -1.528953,-1.625552 -0.428762,-1.127728 -0.140547,-1.318089 0.39263,-0.259325 0.235997,0.468631 0.952909,1.146602 1.593143,1.506605 1.71976,0.967021 3.228889,0.587808 4.994592,-1.25504 1.743526,-1.819702 2.152569,-1.577894 0.579091,0.34233 -1.838922,2.244163 -3.900327,2.685459 -6.030503,1.290982 z M 69.546384,90.948602 C 67.923219,90.36712 65.6,88.844774 65.6,88.36264 c 0,-0.134634 -0.576,-0.568518 -1.28,-0.964189 -2.097648,-1.178944 -1.604032,-1.799158 0.588736,-0.739728 1.396096,0.674522 1.908333,0.387712 1.710835,-0.957917 -0.210115,-1.431609 0.194519,-2.4436 1.576519,-3.942896 3.994966,-4.334025 9.265692,-2.274163 10.070476,3.935664 0.186378,1.438112 0.12249,1.800138 -0.423552,2.4 -0.35367,0.388535 -0.810099,1.030426 -1.014284,1.426426 -0.495242,0.960477 -0.04125,0.943027 2.163046,-0.08313 2.064982,-0.961303 2.660902,-1.022132 1.564493,-0.159696 -2.572688,2.023676 -7.808013,2.818457 -11.009885,1.671424 z m 4.529498,-0.916704 c 1.992009,-0.678746 2.975907,-1.550186 3.359776,-2.97577 C 77.956864,85.120509 76.502256,80.96 75.30431,80.96 75.050166,80.96 74.92039,80.833533 75.01592,80.67896 75.221334,80.346595 73.686662,80 72.009597,80 c -1.21153,0 -2.486928,0.911853 -2.010295,1.437274 0.132384,0.145932 0.07223,0.168876 -0.13368,0.05098 -0.208563,-0.119418 -0.66918,0.160429 -1.04,0.63185 C 68.45953,82.585517 68.16,82.864605 68.16,82.740298 c 0,-0.124308 -0.23023,0.0042 -0.511626,0.285612 -0.281395,0.281396 -0.587372,1.076356 -0.679952,1.766576 -0.255692,1.906346 1.022637,3.88202 3.190388,4.930781 2.016739,0.975699 1.970115,0.972026 3.917072,0.308631 z M 71.68,85.12 c 0,-0.64 0.16,-0.96 0.48,-0.96 0.32,0 0.48,0.32 0.48,0.96 0,0.64 -0.16,0.96 -0.48,0.96 -0.32,0 -0.48,-0.32 -0.48,-0.96 z m 30.69332,2.885914 c -1.7716,-0.228231 -4.662283,-1.385463 -5.89332,-2.359284 -1.025213,-0.811001 0.117203,-0.665936 2.128224,0.270244 1.899486,0.884259 2.686196,1.022147 2.299986,0.403126 -0.13726,-0.22 -0.26683,-0.875408 -0.28794,-1.456461 -0.0242,-0.666934 0.059,-0.902909 0.22577,-0.64 0.14529,0.229053 0.26637,0.808861 0.26906,1.288464 0.004,0.723402 0.25469,0.985795 1.47071,1.539757 1.562,0.711571 3.05741,0.63073 3.89892,-0.210774 0.24254,-0.242544 0.61672,-0.440986 0.8315,-0.440986 0.21478,0 1.01546,-0.636771 1.77928,-1.415046 l 1.38876,-1.415044 -0.18928,-1.936604 c -0.22546,-2.306653 -0.74475,-3.193648 -2.42141,-4.135984 -1.13786,-0.639511 -1.40743,-0.670439 -2.95346,-0.338874 -3.11832,0.668762 -5.095298,3.084374 -4.60731,5.629562 l 0.17102,0.89199 -0.35669,-0.90433 c -0.267185,-0.677392 -0.258126,-1.256368 0.0361,-2.307206 0.51042,-1.823043 2.8685,-3.538122 5.28953,-3.84719 1.49105,-0.190349 1.72049,-0.123895 3.04,0.880448 1.62146,1.234166 2.18232,2.491785 2.20918,4.953664 0.0158,1.451216 -0.10957,1.783011 -1.01676,2.690201 -0.56915,0.569152 -1.46915,1.311795 -2,1.650323 l -0.96518,0.615501 1.92,-0.213158 c 1.62956,-0.180915 2.25764,-0.458234 4.15197,-1.833258 1.22758,-0.891053 2.43608,-1.634697 2.68556,-1.652547 0.6938,-0.04963 0.8136,0.738803 0.14908,0.981139 -0.32264,0.117661 -1.27782,0.785184 -2.12264,1.483389 -0.84482,0.698205 -2.06882,1.459693 -2.72,1.692198 -1.26243,0.450749 -5.4453,0.518756 -8.41065,0.13674 z M 62.194157,83.355926 c -0.248311,-0.647091 0.356685,-1.324512 1.418969,-1.588832 0.476781,-0.118636 1.73969,-0.765824 2.806461,-1.438198 1.066775,-0.672374 2.650775,-1.477866 3.52,-1.789984 1.891488,-0.679187 5.07489,-0.743021 6.575856,-0.131862 1.339722,0.545504 4.323981,2.418969 4.622439,2.901884 0.121136,0.196 0.742668,0.57826 1.381184,0.84946 0.638512,0.271203 0.977353,0.557702 0.752979,0.636668 -0.224375,0.07897 -1.880375,-0.697619 -3.68,-1.725744 C 76.51993,79.314221 76.173354,79.193469 73.92,79.09311 71.221869,78.972944 69.716723,79.464899 66.742493,81.439082 65.813686,82.055587 64.816662,82.56 64.526877,82.56 64.237094,82.56 63.712,82.848 63.36,83.2 c -0.767485,0.767485 -0.923174,0.788307 -1.165843,0.155926 z M 104.10747,81.73849 c -0.10585,-0.275831 -0.0283,-0.665658 0.17233,-0.866285 0.45038,-0.450381 1.51735,0.46992 1.17918,1.017088 -0.31939,0.516784 -1.13005,0.426333 -1.35151,-0.150803 z M 93.910515,80.01048 c 0.967507,-1.069085 6.633775,-4.193862 8.476715,-4.674656 2.62173,-0.683965 5.21052,-0.568442 8.28647,0.369779 2.54794,0.777168 5.90658,2.399987 6.30657,3.047197 0.45909,0.742822 -0.92302,0.554682 -2.51167,-0.341898 -3.24104,-1.829129 -8.00088,-2.822899 -10.92856,-2.281689 -2.00556,0.370749 -2.01979,0.376857 -6.637506,2.85111 -3.393209,1.818141 -3.846316,1.974144 -2.992019,1.030157 z M 61.76,77.312157 c 0,-0.804711 2.23857,-3.833431 4.187328,-5.665328 2.681642,-2.520839 9.273206,-5.723571 11.789677,-5.728413 0.452646,-9.6e-4 1.473773,0.231629 2.269165,0.516666 l 1.446169,0.518249 0.724205,3.403335 c 0.881363,4.141865 0.881117,4.20431 -0.01654,4.199372 -0.464237,-0.0026 -0.96927,-0.388908 -1.421725,-1.087635 C 80.163232,72.580365 79.585338,72.234464 77.537184,71.552365 76.162531,71.094563 74.423146,70.72 73.671882,70.72 c -2.524343,0 -7.406368,2.817267 -10.397367,6 C 62.220858,77.8412 61.76,78.021389 61.76,77.312157 Z m 4.158582,-3.369018 C 69.42872,71.390083 71.658704,70.4 73.89887,70.4 c 2.55144,0 5.278452,1.03736 6.858778,2.609085 1.179968,1.173552 1.800211,1.514211 1.804166,0.990915 9.6e-4,-0.132 -0.31278,-1.652838 -0.69728,-3.379638 -0.675388,-3.033178 -0.736454,-3.155248 -1.800892,-3.6 -2.25457,-0.94202 -4.588196,-0.430599 -9.663642,2.117814 -1.993514,1.000957 -3.296915,1.949578 -4.88,3.551683 C 63.583808,74.649312 62.979373,75.52 63.555299,75.52 c 0.107415,0 1.170893,-0.709587 2.363283,-1.576861 z M 114.45986,72.48959 c -1.44924,-1.733747 -5.15511,-4.00279 -6.92526,-4.240217 -2.90154,-0.389178 -7.36214,1.081001 -11.415704,3.762531 -0.726608,0.480669 -1.470995,0.781306 -1.654192,0.668083 -0.1832,-0.113222 -0.499939,-1.42447 -0.703869,-2.913885 -0.203929,-1.489417 -0.429958,-2.803779 -0.502285,-2.920809 -0.272579,-0.441043 0.747924,-0.847463 3.440608,-1.37024 4.746332,-0.921485 11.220182,-0.610458 12.882102,0.618905 0.3623,0.268007 1.11798,0.822253 1.67927,1.231655 1.69161,1.233843 3.52638,3.237401 4.23291,4.62232 1.22479,2.4008 0.73502,2.657475 -1.03358,0.541657 z M 96.32,71.338624 c 3.307491,-2.247802 6.97603,-3.488957 10.32981,-3.494826 1.94241,-0.0034 2.40473,0.129316 4.41124,1.26633 1.66915,0.945846 2.12577,1.10503 1.78848,0.623485 -0.51287,-0.732227 -2.51014,-2.451955 -3.77196,-3.247802 -1.1422,-0.7204 -6.38482,-1.025104 -9.87757,-0.574086 -5.564502,0.718541 -5.209885,0.598857 -4.992656,1.685001 C 94.313306,68.126528 94.4,69.406 94.4,70.44 c 0,1.034 0.108,1.879382 0.24,1.87863 0.132,-6.4e-4 0.888,-0.441756 1.68,-0.980006 z M 85.333334,73.386666 C 85.216,73.269334 85.12,71.700739 85.12,69.900902 c 0,-2.810044 -0.07913,-3.307004 -0.56,-3.517136 -0.308,-0.134588 -0.776,-0.226185 -1.04,-0.203548 -0.317597,0.02723 -0.344662,-0.01885 -0.08,-0.136196 0.22,-0.09754 0.4,-0.461852 0.4,-0.809574 0,-0.347722 0.144,-0.543222 0.32,-0.434448 0.176,0.108774 0.32,0.477274 0.32,0.818886 0,0.858672 0.564374,0.782656 0.734166,-0.09889 0.07627,-0.396 0.158288,1.116 0.182256,3.36 0.04472,4.186541 0.482554,5.429229 0.873783,2.48 C 86.475939,69.809094 87.04,69.105664 87.04,70.4 c 0,0.352 0.144,0.64 0.32,0.64 0.176,0 0.32,-0.217955 0.32,-0.484342 0,-0.61673 0.599856,-1.636794 1.52,-2.584781 0.396,-0.407981 0.72,-1.027834 0.72,-1.377447 0,-0.349612 0.144,-0.724656 0.32,-0.83343 0.176,-0.108774 0.32,-0.466224 0.32,-0.794333 0,-0.328109 0.36,-1.0244 0.8,-1.547309 0.44,-0.522912 0.8,-1.060368 0.8,-1.194348 0,-0.606269 1.673184,-2.346916 2.549658,-2.652455 1.269667,-0.442608 1.227955,-0.266768 -0.126256,0.532237 -1.005796,0.593434 -3.680912,4.237984 -3.696682,5.03632 C 90.874944,65.735475 89.290125,68.8 88.993987,68.8 c -0.156473,0 -0.514966,0.576 -0.796649,1.28 -0.281687,0.704 -0.700394,1.28 -0.930461,1.28 -0.230071,0 -0.600557,0.504 -0.823306,1.12 -0.397113,1.098195 -0.684233,1.332672 -1.110237,0.906666 z M 56.016176,82.015997 C 55.66615,79.830922 55.086656,77.458976 54.077318,74.08 53.9196,73.552 53.695699,72.38336 53.57976,71.483024 c -0.188643,-1.464947 -0.134608,-1.690342 0.514195,-2.144781 0.985015,-0.689929 1.685248,-0.25687 2.223946,1.375402 C 56.776006,72.101718 57.953974,73.6 58.587187,73.6 59.142717,73.6 60.16,72.316608 60.16,71.615757 c 0,-0.333475 0.36,-0.939952 0.8,-1.347731 0.476774,-0.44186 0.8,-1.09424 0.8,-1.614679 0,-0.604144 0.197235,-0.924841 0.64,-1.040627 0.477485,-0.124864 0.64,-0.436486 0.64,-1.227184 0,-0.582902 0.216,-1.275821 0.48,-1.539821 0.264,-0.264 0.48,-0.793693 0.48,-1.177094 0,-0.467997 0.148106,-0.640259 0.450656,-0.52416 0.278858,0.107008 0.521539,-0.09342 0.636592,-0.525763 0.102262,-0.384285 0.619469,-1.186212 1.149344,-1.782061 C 66.766467,60.240787 67.2,59.573248 67.2,59.353216 c 0,-0.220032 0.215114,-0.812518 0.478029,-1.316637 C 67.940944,57.532461 68.15664,56.688 68.15735,56.16 c 0.0016,-1.242768 -2.323363,-5.829434 -3.518144,-6.940342 -0.508915,-0.473188 -1.233273,-1.553188 -1.609689,-2.4 -1.323799,-2.978122 -2.90864,-6.02305 -3.299703,-6.339658 -0.384528,-0.311318 -3.418144,-9.200791 -3.412592,-10 0.0016,-0.22 -0.120393,-0.4 -0.270934,-0.4 -0.308362,0 -1.198531,4.046499 -1.478298,6.72 -0.426169,4.072547 -0.941932,6.912166 -1.341379,7.385197 C 52.991974,44.463056 52.8,44.859056 52.8,45.065197 52.8,45.271338 52.656,45.44 52.48,45.44 c -0.176,0 -0.32,0.189475 -0.32,0.421053 0,0.621389 -2.855754,3.382528 -4.229299,4.089177 -0.654115,0.336522 -1.356112,0.935389 -1.559991,1.330816 -0.203878,0.395424 -0.635376,1.010576 -0.958886,1.367005 -0.904605,0.99665 -1.67265,4.467456 -1.490563,6.735869 0.240541,2.996653 3.101488,8.90112 5.911075,12.199373 1.143965,1.342934 1.503914,2.07936 1.868835,3.823497 0.248586,1.188112 0.899197,3.247629 1.445802,4.576708 2.338925,5.6871 3.597437,6.578614 2.869203,2.032499 z m 2.331965,-0.695178 C 59.018301,80.767434 59.040902,78.936512 58.4,77.12 c -0.264,-0.748256 -0.48,-1.821258 -0.48,-2.384451 0,-0.675728 -0.269344,-1.277024 -0.791946,-1.767984 -0.435571,-0.409197 -1.033552,-1.376624 -1.328844,-2.149837 -0.365456,-0.956938 -0.700116,-1.374973 -1.048052,-1.309165 -0.870572,0.164656 -0.746249,1.818781 0.463847,6.171437 0.636093,2.288 1.237347,4.992534 1.336121,6.010077 l 0.179591,1.850077 0.542781,-0.890077 c 0.298531,-0.489543 0.782121,-1.087709 1.074643,-1.329258 z M 126.18083,79.12 c 0.0995,-0.484 1.20078,-2.464 2.44739,-4.4 2.61058,-4.054246 3.67049,-6.115395 4.215,-8.196643 0.37431,-1.430701 0.34529,-1.560637 -0.93269,-4.17649 -1.84543,-3.77735 -2.22299,-5.334025 -1.73566,-7.156102 0.66657,-2.492221 1.10378,-10.55049 0.68252,-12.579664 -0.73807,-3.555251 -2.22218,-5.606727 -5.00224,-6.914541 -1.02033,-0.479994 -2.17539,-1.169651 -2.5668,-1.532573 -0.82621,-0.766083 -0.90516,-0.639257 -1.16004,1.863658 -0.15724,1.544022 -1.37335,4.612355 -1.82808,4.612355 -0.27925,0 -3.25904,4.050147 -3.88462,5.28 -1.12846,2.218515 -2.11829,3.598774 -3.36847,4.69713 -3.28385,2.885068 -3.92828,3.876928 -2.80017,4.309824 1.06456,0.408508 4.21672,7.914128 5.45674,12.993046 0.29005,1.188 0.65537,2.16 0.81183,2.16 0.15645,0 0.28446,0.349715 0.28446,0.777142 0,0.993482 0.71427,1.707754 1.66012,1.660119 0.68151,-0.03432 0.75628,-0.220864 0.94771,-2.36433 0.1143,-1.279891 0.43388,-2.647891 0.71017,-3.04 0.27628,-0.392112 0.90861,-1.288931 1.40516,-1.992931 1.22501,-1.736771 2.36919,-1.883187 3.28611,-0.420506 0.55096,0.8789 0.6387,1.416698 0.51239,3.140506 -0.19002,2.593389 -0.62052,4.666538 -1.5432,7.43169 l -0.71798,2.151689 1.26976,1.240503 c 0.69837,0.682278 1.35976,1.262016 1.46976,1.28831 0.11,0.0263 0.28137,-0.348192 0.38083,-0.832192 z m -3.06191,-4.16 c 0.9278,-2.648067 1.68288,-6.103085 1.68192,-7.695891 -9.6e-4,-1.496061 -0.74306,-3.264839 -1.36906,-3.26289 -0.61271,0.0019 -3.02911,3.329104 -3.40754,4.691923 -0.18737,0.674772 -0.34148,1.838858 -0.34245,2.586858 -9.6e-4,0.748 -0.14579,1.36 -0.32179,1.36 -0.77865,0 -0.19221,1.200829 1.27894,2.618829 0.87942,0.847645 1.65212,1.541171 1.71712,1.541171 0.065,0 0.40829,-0.828 0.76286,-1.84 z"
         id="outline" />
      <path
         style="fill:#123826;stroke-width:0.32"
         d="m 71.12,90.230029 c -0.396,-0.159175 -0.72,-0.443114 -0.72,-0.630976 0,-0.238541 0.186704,-0.241651 0.618963,-0.0103 0.340429,0.182192 1.096429,0.333462 1.68,0.336157 0.802791,0.0037 0.944208,0.0804 0.581037,0.3151 -0.582672,0.376551 -1.205536,0.373677 -2.16,-0.01 z M 68.227162,88.4 c -0.802087,-1.145056 -1.413178,-2.32 -1.206637,-2.32 0.08967,0 0.370518,0.396 0.624102,0.88 0.253584,0.484 0.766893,1.204 1.140685,1.6 0.373789,0.396 0.539814,0.72 0.368944,0.72 -0.17087,0 -0.588064,-0.396 -0.927094,-0.88 z M 103.12,87.350029 c -0.396,-0.159175 -0.71983,-0.330045 -0.71963,-0.379719 2e-4,-0.04967 0.8642,-0.09536 1.92,-0.101532 2.07425,-0.01213 2.52811,0.289526 0.91963,0.611222 -1.19303,0.238605 -1.20483,0.237882 -2.12,-0.129971 z M 71.381651,85.800458 c -0.796838,-1.488912 -0.1256,-2.747895 1.19785,-2.246704 0.62096,0.235158 0.723552,0.472908 0.64,1.483148 -0.07897,0.954861 -0.243594,1.22361 -0.79785,1.302516 -0.440832,0.06276 -0.824333,-0.135984 -1.04,-0.53896 z M 72.64,85.12 c 0,-0.64 -0.16,-0.96 -0.48,-0.96 -0.32,0 -0.48,0.32 -0.48,0.96 0,0.64 0.16,0.96 0.48,0.96 0.32,0 0.48,-0.32 0.48,-0.96 z m 4.825264,0.773334 c 0.01536,-0.372784 0.09118,-0.448608 0.193331,-0.193334 0.09244,0.230998 0.08107,0.507002 -0.02525,0.613334 -0.106336,0.106333 -0.181965,-0.08267 -0.16807,-0.42 z M 101.12,85.421114 c 0,-0.186388 0.144,-0.249888 0.32,-0.141114 0.176,0.108774 0.32,0.261274 0.32,0.338886 0,0.07761 -0.144,0.141114 -0.32,0.141114 -0.176,0 -0.32,-0.152499 -0.32,-0.338886 z M 68.275424,83.560778 c -0.151485,-0.110429 -0.313478,-0.386944 -0.35999,-0.61448 -0.06069,-0.296868 0.07487,-0.331674 0.48,-0.123242 0.310512,0.159754 0.776851,0.356682 1.036313,0.437619 0.338234,0.105507 0.280336,0.19721 -0.204576,0.324019 -0.371977,0.09727 -0.800265,0.08651 -0.951747,-0.0239 z M 110.16716,82.56 c 0,-0.792 0.0624,-1.116 0.13867,-0.72 0.0763,0.396 0.0763,1.044 0,1.44 -0.0763,0.396 -0.13867,0.072 -0.13867,-0.72 z M 76.16,82.396122 c -1.440947,-1.91874 -3.379834,-2.563671 -5.20593,-1.731645 -0.597766,0.272358 -0.737862,0.557075 -0.669196,1.36 L 70.371718,83.04 70.123174,82.08 C 69.780938,80.758118 70.468502,80 72.009597,80 c 1.677065,0 3.211737,0.346595 3.006323,0.67896 -0.09553,0.154573 0.03906,0.28104 0.299094,0.28104 0.441111,0 2.017786,2.13703 1.761488,2.387526 C 77.012426,83.41015 76.6,82.982019 76.16,82.396122 Z m 27.68445,-0.03738 c -0.28669,-0.286694 -0.44097,-0.73047 -0.34285,-0.986173 0.0981,-0.255699 0.1784,-0.525132 0.1784,-0.598739 0,-0.0736 0.13052,-0.133827 0.29004,-0.133827 0.15952,0 0.21519,0.28625 0.1237,0.636112 -0.19384,0.74121 0.71266,1.245491 1.25821,0.699939 0.2519,-0.251904 0.22368,-0.500637 -0.10151,-0.894528 -0.3904,-0.47288 -0.38646,-0.524467 0.0296,-0.387046 0.62874,0.207689 0.79415,1.134201 0.30724,1.720896 -0.50425,0.607584 -1.09786,0.588294 -1.74279,-0.05663 z M 101.799,80.550995 c -0.19745,-0.197449 -0.35462,-0.510195 -0.34927,-0.694995 0.005,-0.1848 0.15316,-0.08998 0.32847,0.21071 0.1758,0.301549 0.53018,0.465568 0.79026,0.365764 0.25935,-0.09952 0.47154,-0.108948 0.47154,-0.02096 0,0.368339 -0.90988,0.470595 -1.241,0.139468 z m -1.319,-0.212109 c 0,-0.165612 0.14235,-0.389094 0.31634,-0.49662 0.18139,-0.112109 0.23504,0.01635 0.12576,0.301113 -0.21273,0.554375 -0.4421,0.655805 -0.4421,0.195507 z M 103.04,79.424 c 0,-0.3168 -0.18,-0.757331 -0.4,-0.97896 -0.32072,-0.323091 -0.28901,-0.360701 0.16,-0.189763 C 103.287,78.440678 103.64449,80 103.2,80 c -0.088,0 -0.16,-0.2592 -0.16,-0.576 z m 0,-1.664 c 0,-0.176 0.1525,-0.32 0.33889,-0.32 0.18638,0 0.24988,0.144 0.14111,0.32 -0.10877,0.176 -0.26127,0.32 -0.33889,0.32 -0.0776,0 -0.14111,-0.144 -0.14111,-0.32 z m 1.19467,-0.359709 c 0.21706,-0.218694 0.47527,-0.317014 0.5738,-0.218489 0.0985,0.09852 -0.0791,0.277456 -0.39467,0.397625 -0.45606,0.173658 -0.49282,0.136903 -0.17913,-0.179136 z"
         id="eye_1" />
    </g>
  </g>
</svg>
