<?xml version="1.0" encoding="UTF-8" standalone="no"?>
<!-- Created with Inkscape (http://www.inkscape.org/) -->

<svg
   version="1.1"
   id="svg4182"
   width="192"
   height="288"
   viewBox="0 0 192 288"
   xmlns="http://www.w3.org/2000/svg"
   xmlns:svg="http://www.w3.org/2000/svg">
  <defs
     id="defs4186" />
  <g
     id="g4188"
     transform="translate(6,4)">
    <g
       id="g4192"
       transform="translate(-0.70762029,0.70761703)">
      <path
         style="fill:#edd9c1;stroke-width:0.32"
         d="m 59.84,189.84423 c -0.264,-0.10188 -1.515853,-0.94952 -2.781894,-1.88363 -2.730596,-2.0147 -2.95985,-2.55078 -3.199095,-7.4806 -0.142064,-2.92736 -0.0729,-3.59872 0.537178,-5.21396 0.385129,-1.01967 1.033107,-2.21312 1.439949,-2.65211 0.863302,-0.93152 0.850796,-1.21208 -0.348224,-7.81393 -0.431527,-2.376 -0.931124,-5.184 -1.110212,-6.24 -0.741564,-4.37269 -1.069878,-5.65925 -2.613091,-10.24 -0.889395,-2.64 -1.745341,-5.052 -1.902102,-5.36 -0.408253,-0.80211 0.187613,-0.7121 1.588752,0.24 0.647517,0.44 1.310665,0.8 1.473664,0.8 0.162998,0 1.597638,0.59943 3.188093,1.33206 2.342777,1.07919 3.264409,1.33736 4.854896,1.36 1.709219,0.0243 2.187523,-0.1136 3.697625,-1.06623 0.953952,-0.60179 2.526461,-1.57979 3.494461,-2.17334 l 1.76,-1.07917 0.186544,1.53334 c 0.357373,2.93753 -1.300854,9.10781 -3.45024,12.83837 -1.049398,1.82139 -2.780058,4.09669 -3.936227,5.17497 -0.471783,0.44 -1.253795,1.53783 -1.737808,2.43962 l -0.880023,1.63961 1.460704,1.56039 c 0.803386,0.85821 1.401168,1.77638 1.3284,2.04038 -0.07277,0.264 -0.305033,2.41604 -0.51615,4.78232 -0.399507,4.4778 -0.228368,10.12881 0.372349,12.29496 0.479373,1.7286 0.174105,2.62981 -1.033373,3.05074 -1.101904,0.38413 -1.169142,0.3883 -1.874176,0.11621 z M 132,182.87121 c -1.056,-0.59792 -2.24495,-1.56055 -2.64211,-2.13917 -0.39715,-0.57862 -0.93727,-1.212 -1.20026,-1.40751 -0.37351,-0.27768 -0.50353,-1.32816 -0.5941,-4.8 -0.0721,-2.76176 -0.3217,-5.25169 -0.65939,-6.57639 l -0.54344,-2.13186 0.84128,-1.66019 0.84129,-1.6602 -1.36297,-3.24794 c -0.74964,-1.78638 -1.4603,-3.39195 -1.57926,-3.56795 -2.32351,-3.43766 -4.87833,-11.84278 -5.59287,-18.4 l -0.22666,-2.08 0.90373,0.90085 c 1.0993,1.0958 3.34779,2.63859 4.27389,2.93253 0.41828,0.13275 1.50547,-0.10002 2.83003,-0.60593 1.99139,-0.7606 5.51111,-1.78745 6.12683,-1.78745 0.14562,0 0.34953,0.756 0.45313,1.68 0.10361,0.924 0.33086,2.4 0.50502,3.28 0.31252,1.57916 0.22352,11.58468 -0.16511,18.56357 l -0.19621,3.52357 1.1347,0.41031 c 0.77627,0.2807 1.54698,0.98717 2.43981,2.23643 2.39863,3.35621 2.73267,4.32263 2.73267,7.90612 0,2.91254 -0.0852,3.36816 -0.94847,5.0719 -1.06609,2.10404 -3.7162,4.69918 -4.76614,4.66727 -0.37696,-0.0115 -1.54939,-0.51004 -2.60539,-1.10796 z"
         id="skin" />
      <path
         style="fill:#f8990c;stroke-width:0.32"
         d="m 73.76,235.48088 c -4.176858,-3.11729 -5.598762,-4.5309 -7.35351,-7.3106 -0.936208,-1.48305 -0.978324,-2.18536 -0.326839,-5.45028 0.606643,-3.04022 1.305715,-15.69457 1.198832,-21.70089 -0.06931,-3.89475 -0.184393,-4.80543 -0.768345,-6.08 -0.377757,-0.82451 -0.800976,-1.93111 -0.940487,-2.45911 -0.13951,-0.528 -0.631245,-2.04 -1.092742,-3.36 -1.692624,-4.84134 -2.086823,-9.77447 -1.326829,-16.60439 l 0.36992,-3.32439 1.520589,1.16273 c 1.304317,0.99735 8.060841,4.22817 9.999411,4.7815 0.352,0.10047 1.861754,0.68995 3.355008,1.30996 1.493251,0.62 3.509251,1.21663 4.48,1.32582 0.970746,0.1092 2.484992,0.43934 3.364992,0.73366 1.29751,0.43394 2.90071,0.53511 8.48,0.53511 h 6.88 l 4.45628,-1.58167 c 2.53393,-0.89937 5.01868,-2.00612 5.76,-2.5656 0.71705,-0.54116 2.38372,-1.6174 3.70372,-2.39164 1.32,-0.77424 2.472,-1.50915 2.56,-1.63313 0.088,-0.12398 1.096,-0.69474 2.24,-1.26836 1.144,-0.57362 2.76063,-1.61078 3.5925,-2.3048 0.83188,-0.69401 1.63577,-1.18566 1.78643,-1.09254 0.57831,0.35741 1.10076,7.29062 0.76991,10.21723 -0.1753,1.55071 -0.25684,3.06271 -0.1812,3.36 0.0756,0.29728 -0.2408,3.42051 -0.7032,6.94051 -0.4624,3.52 -0.89479,6.832 -0.96086,7.36 -0.0661,0.528 -0.27082,2.04 -0.455,3.36 -1.13079,8.10431 -1.22812,13.22801 -0.31608,16.64 2.14371,8.01975 2.3965,10.97175 1.14369,13.35562 -0.7756,1.47583 -3.01804,4.31439 -3.7055,4.69055 -0.35566,0.1946 -1.61956,0.93605 -2.80867,1.64765 -2.66543,1.59509 -3.73632,2.06618 -4.69685,2.06618 -1.37695,0 -3.53545,-0.9774 -4.82517,-2.18491 -2.32643,-2.17812 -4.53601,-3.85289 -6.06037,-4.59348 l -1.5037,-0.73055 0.24964,-7.04553 c 0.40186,-11.34159 0.30902,-17.64593 -0.28991,-19.68553 -2.110982,-7.1888 -5.082738,-13.92 -6.145538,-13.92 -0.494954,0 -0.685165,0.30846 -0.887975,1.44 -0.141952,0.792 -0.466384,2.232 -0.72096,3.2 -0.254579,0.968 -0.753705,3.272 -1.109171,5.12 -0.355466,1.848 -0.924464,4.368 -1.264442,5.6 -0.339974,1.232 -0.841209,4.184 -1.113856,6.56 -0.272646,2.376 -0.59744,5.112 -0.721766,6.08 -0.124326,0.968 -0.236378,4.69313 -0.248998,8.27806 L 89.12,230.47613 88,231.246 c -0.616,0.42343 -1.696,0.92103 -2.4,1.10579 -0.704,0.18475 -1.823498,0.68954 -2.48777,1.12175 -0.664272,0.4322 -2.248272,1.15665 -3.52,1.60987 -1.271728,0.45323 -2.44903,0.95287 -2.61623,1.11032 -0.575894,0.54231 -1.939078,0.24014 -3.216,-0.71285 z M 90.08,178.2142 c -3.332637,-0.32936 -10.02087,-1.85385 -11.600803,-2.64425 -0.835559,-0.41801 -2.459831,-1.06002 -3.609491,-1.42669 -1.149664,-0.36667 -2.958128,-1.09726 -4.018813,-1.62352 -1.060682,-0.52626 -2.295367,-1.0489 -2.743738,-1.16144 -0.448374,-0.11253 -1.255629,-0.60685 -1.793897,-1.09849 -0.538269,-0.49163 -1.466503,-1.19537 -2.06274,-1.56387 C 63.034474,167.94439 61.12,165.95453 61.12,165.44217 c 0,-0.46157 1.488899,-2.78095 1.990685,-3.10106 1.354198,-0.86388 4.882032,-5.8973 5.53063,-7.89095 0.23801,-0.73159 0.818442,-2.33816 1.28985,-3.57016 0.703485,-1.83852 0.865325,-2.81354 0.902969,-5.44 0.07787,-5.43257 -0.717657,-11.94097 -2.014352,-16.48 -0.326812,-1.144 -0.690099,-2.512 -0.807299,-3.04 -0.530099,-2.38813 -1.206035,-4.32 -1.51151,-4.32 -0.429731,0 -0.281376,0.81141 1.118422,6.11709 1.28632,4.87555 2.140605,9.71066 2.140605,12.11545 0,1.53582 -0.05408,1.63303 -1.36,2.44428 -0.748,0.46467 -2.224,1.43848 -3.28,2.16402 -1.851363,1.272 -2.005798,1.31782 -4.32,1.28173 -2.057994,-0.0321 -2.719206,-0.19667 -4.64,-1.15488 -1.232,-0.6146 -2.6,-1.22679 -3.04,-1.36042 -0.44,-0.13363 -1.064214,-0.47531 -1.387146,-0.75928 -0.322931,-0.28397 -1.690931,-1.10953 -3.04,-1.83457 L 46.24,139.29517 46.035818,136.28758 c -0.112301,-1.65417 -0.220301,-4.76998 -0.24,-6.92402 -0.01971,-2.15403 -0.261223,-5.89803 -0.536717,-8.32 -0.497479,-4.37348 -0.496115,-4.41433 0.199913,-5.97994 0.805764,-1.81245 2.910378,-4.18414 4.869744,-5.4877 0.743184,-0.49444 1.927242,-1.43054 2.631242,-2.08023 0.704,-0.64969 1.798413,-1.522 2.432032,-1.93847 2.326621,-1.52927 5.01151,-3.85488 5.377334,-4.65778 l 0.375933,-0.82508 1.154365,1.34862 c 0.634902,0.74173 1.45721,1.48085 1.82735,1.64248 0.370144,0.16163 1.536986,1.00951 2.592986,1.88418 2.760899,2.2868 6.529622,5.18654 7.707568,5.93036 1.47585,0.93194 3.003843,2.22023 6.231568,5.254 1.576426,1.4817 3.205504,2.9217 3.620173,3.2 4.725865,3.17171 7.006243,5.7937 8.719766,10.026 0.480983,1.188 1.028957,2.15953 1.217719,2.15896 0.188764,-6.4e-4 0.761766,-1.04458 1.27334,-2.32 2.389901,-5.95835 3.13226,-7.59896 3.438464,-7.59896 0.149271,0 0.271402,-0.288 0.271402,-0.64 0,-0.352 0.132832,-0.64 0.295184,-0.64 0.162349,0 0.461517,-0.504 0.664816,-1.12 0.2033,-0.616 0.50603,-1.12 0.67274,-1.12 0.1667,0 0.43463,-0.34594 0.59538,-0.76875 0.16075,-0.42282 1.50549,-2.04282 2.9883,-3.6 1.48281,-1.55719 3.2573,-3.47925 3.94331,-4.27125 1.531,-1.76754 3.76655,-4.0067 5.24907,-5.25756 2.40354,-2.02797 4.66156,-4.15961 5.2712,-4.976206 0.352,-0.471488 1.38225,-1.687095 2.28945,-2.701344 l 1.64945,-1.844093 1.82159,2.766054 c 2.2461,3.410659 2.72267,3.861809 4.77038,4.515869 0.89602,0.28619 2.20513,0.91886 2.90913,1.40593 0.704,0.48706 1.856,1.18576 2.56,1.55266 1.2363,0.64432 2.85069,2.33684 3.6354,3.81134 0.42639,0.80123 0.98712,7.15716 0.99578,11.28735 0.005,2.33914 -0.15324,3.14567 -1.12945,5.76 -0.62433,1.672 -1.22211,3.95767 -1.32838,5.07927 -0.16641,1.75624 -0.34181,2.18786 -1.26374,3.10979 -0.64401,0.64401 -1.26157,0.99719 -1.55006,0.88649 -0.30045,-0.1153 -0.47955,0.003 -0.47955,0.31788 0,0.4757 -0.75101,0.77488 -3.36,1.3385 -0.528,0.11407 -1.9238,0.5635 -3.10178,0.99875 -2.34918,0.86798 -2.28508,0.87941 -4.87666,-0.86962 -0.77673,-0.52422 -1.4703,-1.12728 -1.54126,-1.34015 -0.071,-0.21286 -0.47805,-0.39015 -0.90465,-0.39397 -0.7509,-0.007 -0.78075,-0.0988 -0.93565,-2.88694 -0.088,-1.584 -0.0593,-4.176 0.0637,-5.76 0.21101,-2.71677 0.45045,-4.27883 1.38642,-9.04466 0.21653,-1.10256 0.27106,-2.08045 0.12117,-2.17309 -0.14988,-0.0926 -0.35686,0.23347 -0.45996,0.72466 -0.10309,0.4912 -0.31488,1.46909 -0.47064,2.17309 -1.60821,7.26864 -1.87627,13.93589 -0.84561,21.03232 0.71085,4.89449 2.83902,12.24311 4.37579,15.10973 0.66852,1.24703 1.81118,3.62099 2.53925,5.27547 1.15448,2.62348 1.27759,3.11962 0.96272,3.87979 -0.52957,1.2785 -4.07867,4.2767 -6.38499,5.39389 -1.10185,0.53375 -2.45437,1.3138 -3.0056,1.73345 -0.55123,0.41965 -1.64692,1.09138 -2.43485,1.49273 -0.78794,0.40134 -2.2028,1.29868 -3.14414,1.99409 -0.94133,0.6954 -2.67265,1.60082 -3.84738,2.01203 -1.17473,0.41121 -2.85587,1.05886 -3.73587,1.43922 -0.94112,0.40677 -2.52244,0.74652 -3.84,0.825 -4.251149,0.25326 -8.326058,0.29563 -10.24,0.10648 z M 62.573526,100.81495 c -0.313068,-0.34594 -0.640544,-1.261801 -0.727721,-2.035254 l -0.158509,-1.406272 1.314989,-0.210275 c 0.838509,-0.134083 1.545142,-0.06654 1.950173,0.186403 0.980025,0.612035 1.038723,1.18039 0.145075,1.404682 -0.684784,0.171868 -1.819338,1.644496 -1.717351,2.229086 0.08409,0.48198 -0.288467,0.40422 -0.806656,-0.16837 z m 58.224834,-6.59518 c -0.20343,-0.319645 -0.80932,-0.506544 -1.67836,-0.517722 -1.60416,-0.02064 -1.69907,-0.297034 -0.41574,-1.210838 0.67165,-0.478256 1.29113,-0.636788 2.14573,-0.549117 1.55741,0.159773 2.00508,0.83991 1.28061,1.94559 -0.6302,0.961811 -0.89021,1.026624 -1.33224,0.332087 z"
         id="shirt" />
      <path
         style="fill:#2b2b2a;stroke-width:0.32"
         d="m 56.98544,253.2523 c -1.264934,-1.06437 -2.066269,-3.66497 -1.7888,-5.80527 0.622701,-4.80328 2.491664,-9.95553 4.50073,-12.40733 0.667747,-0.8149 2.263091,-2.49879 3.545206,-3.74199 2.316902,-2.24658 2.328272,-2.26587 1.864272,-3.16314 -0.628429,-1.21525 -0.587683,-3.0217 0.156211,-6.92567 0.749875,-3.93535 1.436746,-17.38382 1.115917,-21.8489 -0.13008,-1.81036 -0.440554,-3.49303 -0.767578,-4.16 -0.302028,-0.616 -0.880217,-2.17025 -1.284864,-3.45389 l -0.735721,-2.33388 -0.696032,0.65388 c -1.225475,1.15128 -3.193773,0.8953 -5.437715,-0.70717 -3.18874,-2.27717 -3.562864,-2.75444 -4.136618,-5.27705 -1.040934,-4.57663 -0.360848,-9.6595 1.571395,-11.74443 0.726419,-0.78382 0.752855,-0.94923 0.476848,-2.98364 -0.160717,-1.1846 -0.45071,-3.01782 -0.644435,-4.07382 -0.193722,-1.056 -0.704621,-4.08 -1.135331,-6.72 -0.703245,-4.31048 -1.283261,-6.48674 -3.28353,-12.32 -0.331933,-0.968 -0.794752,-2.41988 -1.028486,-3.22639 -0.353187,-1.21869 -0.639802,-1.57003 -1.696797,-2.08 -2.387098,-1.15169 -2.415078,-1.25844 -2.625571,-10.01693 -0.103146,-4.29183 -0.324115,-8.52349 -0.49104,-9.40368 -0.587891,-3.09994 -0.390986,-5.7533 0.554547,-7.4727 1.149622,-2.09051 3.391325,-4.39881 5.558368,-5.72349 0.97703,-0.59725 2.05703,-1.39811 2.4,-1.77969 0.342973,-0.38158 1.343584,-1.18092 2.223584,-1.77631 4.278042,-2.89442 5.92,-4.74547 5.92,-6.673876 0,-1.314297 0.352461,-1.541539 2.126349,-1.370928 l 1.233651,0.118653 -1.396352,0.269383 -1.396352,0.269382 0.158509,1.406272 c 0.161248,1.430594 1.03664,2.795454 1.578253,2.460714 0.164185,-0.10147 0.222684,-0.26033 0.129993,-0.35302 -0.368998,-0.369 0.794685,-1.94522 1.581991,-2.142824 1.404921,-0.352611 2.835737,0.363668 6.703958,3.356054 1.793946,1.38777 7.060144,4.57098 9.264781,5.6002 0.536371,0.2504 2.127219,1.16976 3.535219,2.04302 1.408,0.87325 2.151993,0.96868 2.341315,0.9765 2.02666,0.53544 3.466854,0.80885 4.810913,0.80112 2.121939,-0.23957 3.222372,-0.43316 4.171933,-1.0082 0.49784,-0.3911 1.240962,-0.70526 1.957161,-1.23326 0.716198,-0.528 2.268888,-1.8787 3.450428,-3.00156 1.18154,-1.12285 2.73885,-2.49085 3.46069,-3.04 1.19456,-0.90877 6.65167,-5.365096 7.80756,-6.37573 0.264,-0.230822 1.30166,-0.954848 2.3059,-1.608944 1.00425,-0.654096 1.90314,-1.314227 1.99753,-1.46696 0.30144,-0.487734 3.49989,-0.04488 3.95732,0.54792 0.38981,0.505181 0.46628,0.489728 1.04,-0.210176 0.71481,-0.872035 0.78901,-1.500499 0.21925,-1.857206 -0.42387,-0.265373 -0.59438,-0.301254 -1.79918,-0.378605 -0.61774,-0.03966 -0.68891,-0.133414 -0.382,-0.503213 0.31282,-0.376924 0.60564,-0.388326 1.71611,-0.06682 1.05752,0.30618 1.39776,0.586653 1.61884,1.334474 0.59777,2.021971 1.87929,4.307226 3.57771,6.379926 0.83004,1.012954 1.57285,1.492454 3.20415,2.068354 1.16798,0.41234 2.50627,1.06951 2.97399,1.46039 0.46771,0.39088 1.44668,1.01329 2.1755,1.38313 0.74073,0.37589 1.97204,1.48793 2.79207,2.52162 1.52493,1.92225 1.71897,2.55494 1.94243,6.3334 0.58614,9.91093 0.61904,9.0418 -0.45423,12 -1.29995,3.58301 -1.5793,4.71506 -1.64892,6.68207 -0.0545,1.53935 -0.16416,1.74151 -1.76728,3.25768 -1.92584,1.82138 -2.0862,2.51935 -1.21532,5.28939 0.39151,1.2453 0.49333,3.26199 0.49127,9.73086 -0.001,4.488 -0.0972,9.26326 -0.21272,10.61169 l -0.21012,2.45169 0.97142,0.50235 c 0.53429,0.27629 1.66088,1.40503 2.50353,2.50831 3.72218,4.87339 4.21638,10.35655 1.3598,15.08704 -1.04954,1.73805 -3.47105,3.93152 -4.68615,4.24486 -1.23106,0.31745 -5.422,-2.01708 -6.60198,-3.67757 -0.89633,-1.26134 -0.99633,-1.32126 -1.06806,-0.64 -0.3115,2.9586 -0.88892,7.46211 -1.69649,13.23163 -0.51734,3.696 -1.08424,9.02082 -1.25977,11.83293 l -0.31916,5.11294 1.32353,5.44706 c 1.67617,6.89845 1.73816,8.66582 0.39392,11.23044 l -0.99711,1.90234 0.83711,0.80611 c 3.76073,3.62149 7.80424,8.1814 8.53681,9.62705 2.20642,4.35417 2.57936,6.97516 1.222,8.58829 -1.52603,1.81358 -2.59641,2.08772 -8.04144,2.05956 -4.9129,-0.0254 -7.11318,-0.38376 -9.99818,-1.62839 -1.89932,-0.8194 -5.29212,-3.25353 -7.57875,-5.4373 -1.20083,-1.14681 -3.00451,-2.80635 -4.00817,-3.68787 -1.56127,-1.37127 -1.87679,-1.84039 -2.18453,-3.24796 -0.19783,-0.90486 -0.31265,-2.6532 -0.25516,-3.8852 l 0.10453,-2.24 -1.44,-0.80285 -1.44,-0.80285 0.0172,-2.23715 c 0.009,-1.23043 0.13295,-6.12515 0.2744,-10.87715 0.27988,-9.4033 0.056,-12.5582 -1.11651,-15.73271 -0.379321,-1.02701 -0.902691,-2.51529 -1.163043,-3.30729 -0.260352,-0.792 -1.070473,-2.84983 -1.800269,-4.57296 -0.951251,-2.24601 -1.386316,-2.97075 -1.536777,-2.56 -0.115434,0.31513 -0.594013,2.37296 -1.063507,4.57296 -0.469495,2.2 -1.267981,5.728 -1.774413,7.84 -1.565453,6.52848 -2.661402,17.86031 -2.343133,24.22737 l 0.203312,4.06737 -1.11913,1.23874 c -0.724323,0.80174 -1.192931,1.70027 -1.328326,2.54698 -0.169171,1.05793 -0.664464,1.78311 -2.588682,3.7902 -1.563635,1.63097 -2.76416,3.25811 -3.501411,4.74565 -2.8604,5.77139 -6.607926,7.97702 -17.690477,10.41188 -5.380268,1.18205 -5.878332,1.19213 -7.123827,0.14411 z M 76.976,236.19373 c 0.1672,-0.15745 1.344502,-0.65709 2.61623,-1.11032 1.271728,-0.45322 2.855728,-1.17767 3.52,-1.60987 0.664272,-0.43221 1.78377,-0.937 2.48777,-1.12175 0.704,-0.18476 1.784,-0.68236 2.4,-1.10579 l 1.12,-0.76987 0.02294,-6.51807 c 0.01261,-3.58493 0.124672,-7.31006 0.248998,-8.27806 0.124327,-0.968 0.44912,-3.704 0.721767,-6.08 0.272646,-2.376 0.773881,-5.328 1.113856,-6.56 0.339977,-1.232 0.908976,-3.752 1.264441,-5.6 0.355466,-1.848 0.854592,-4.152 1.109172,-5.12 0.254576,-0.968 0.579008,-2.408 0.72096,-3.2 0.202809,-1.13154 0.39302,-1.44 0.887974,-1.44 1.0628,0 4.034557,6.7312 6.145542,13.92 0.59893,2.0396 0.69177,8.34394 0.28991,19.68553 l -0.24964,7.04553 1.5037,0.73055 c 1.52436,0.74059 3.73394,2.41536 6.06037,4.59348 1.28972,1.20751 3.44822,2.18491 4.82517,2.18491 0.96053,0 2.03142,-0.47109 4.69685,-2.06618 1.18911,-0.7116 2.45301,-1.45305 2.80867,-1.64765 0.68746,-0.37616 2.9299,-3.21472 3.7055,-4.69055 1.25281,-2.38387 1.00002,-5.33587 -1.14369,-13.35562 -0.91204,-3.41199 -0.81471,-8.53569 0.31608,-16.64 0.18418,-1.32 0.38893,-2.832 0.455,-3.36 0.0661,-0.528 0.49846,-3.84 0.96086,-7.36 0.4624,-3.52 0.77883,-6.64323 0.7032,-6.94051 -0.0756,-0.29729 0.006,-1.80929 0.18121,-3.36 0.33084,-2.92661 -0.19161,-9.85982 -0.76992,-10.21723 -0.15066,-0.0931 -0.95455,0.39853 -1.78643,1.09254 -0.83187,0.69402 -2.4485,1.73118 -3.5925,2.3048 -1.144,0.57362 -2.152,1.14438 -2.24,1.26836 -0.088,0.12398 -1.24,0.85889 -2.56,1.63313 -1.32,0.77424 -2.98667,1.85048 -3.70372,2.39164 -0.74132,0.55948 -3.22607,1.66623 -5.76,2.5656 L 101.6,179.04 h -6.88 c -5.57929,0 -7.18249,-0.10117 -8.48,-0.53511 -0.88,-0.29432 -2.394246,-0.62446 -3.364992,-0.73366 -0.970749,-0.10919 -2.986749,-0.70582 -4.48,-1.32582 C 76.901754,175.8254 75.392,175.23592 75.04,175.13545 c -1.93857,-0.55333 -8.695094,-3.78415 -9.999411,-4.7815 L 63.52,169.19122 l -0.36992,3.32439 c -0.759994,6.82992 -0.365795,11.76305 1.326829,16.60439 0.461497,1.32 0.953232,2.832 1.092742,3.36 0.139511,0.528 0.56273,1.6346 0.940487,2.45911 0.583952,1.27457 0.699036,2.18525 0.768345,6.08 0.106883,6.00632 -0.592189,18.66067 -1.198832,21.70089 -0.651485,3.26492 -0.609369,3.96723 0.326839,5.45028 1.754748,2.7797 3.176652,4.19331 7.35351,7.3106 1.276922,0.95299 2.640106,1.25516 3.216,0.71285 z M 61.714176,189.72802 c 1.207478,-0.42093 1.512746,-1.32214 1.033373,-3.05074 -0.600717,-2.16615 -0.771856,-7.81716 -0.372349,-12.29496 0.211117,-2.36628 0.443382,-4.51832 0.51615,-4.78232 0.07277,-0.264 -0.525014,-1.18217 -1.3284,-2.04038 l -1.460704,-1.56039 0.880023,-1.63961 c 0.484013,-0.90179 1.266025,-1.99962 1.737808,-2.43962 1.156169,-1.07828 2.886829,-3.35358 3.936227,-5.17497 2.149386,-3.73056 3.807613,-9.90084 3.45024,-12.83837 L 69.92,142.37332 l -1.76,1.07917 c -0.968,0.59355 -2.540509,1.57155 -3.494461,2.17334 -1.510102,0.95263 -1.988406,1.09056 -3.697625,1.06623 -1.590487,-0.0226 -2.512119,-0.28081 -4.854896,-1.36 C 54.522563,144.59943 53.087923,144 52.924925,144 c -0.162999,0 -0.826147,-0.36 -1.473664,-0.8 -1.401139,-0.9521 -1.997005,-1.04211 -1.588752,-0.24 0.156761,0.308 1.012707,2.72 1.902102,5.36 1.543213,4.58075 1.871527,5.86731 2.613091,10.24 0.179088,1.056 0.678685,3.864 1.110212,6.24 1.19902,6.60185 1.211526,6.88241 0.348224,7.81393 -0.406842,0.43899 -1.05482,1.63244 -1.439949,2.65211 -0.610074,1.61524 -0.679242,2.2866 -0.537178,5.21396 0.239245,4.92982 0.468499,5.4659 3.199095,7.4806 3.0508,2.25095 3.155267,2.29061 4.65607,1.76742 z m 75.142744,-7.13612 c 0.87523,-0.7869 1.98456,-2.23389 2.51461,-3.28 0.86327,-1.70374 0.94847,-2.15936 0.94847,-5.0719 0,-3.58349 -0.33404,-4.54991 -2.73267,-7.90612 -0.89283,-1.24926 -1.66354,-1.95573 -2.43981,-2.23643 l -1.1347,-0.41031 0.19621,-3.52357 c 0.38863,-6.97889 0.47763,-16.98441 0.16511,-18.56357 -0.17416,-0.88 -0.40141,-2.356 -0.50502,-3.28 -0.1036,-0.924 -0.30751,-1.68 -0.45313,-1.68 -0.61572,0 -4.13544,1.02685 -6.12683,1.78745 -1.32456,0.50591 -2.41175,0.73868 -2.83003,0.60593 -0.9261,-0.29394 -3.17459,-1.83673 -4.27389,-2.93253 l -0.90373,-0.90085 0.22666,2.08 c 0.71454,6.55722 3.26936,14.96234 5.59287,18.4 0.11896,0.176 0.82962,1.78157 1.57926,3.56795 l 1.36297,3.24794 -0.84129,1.6602 -0.84128,1.66019 0.54344,2.13186 c 0.33769,1.3247 0.58734,3.81463 0.65939,6.57639 0.0906,3.47184 0.22059,4.52232 0.5941,4.8 0.26299,0.19551 0.80311,0.82889 1.20026,1.40751 0.7811,1.13798 4.13492,3.21331 5.2475,3.24713 0.38059,0.0116 1.38188,-0.60537 2.25153,-1.38727 z M 100.32,178.10772 c 1.31756,-0.0785 2.89888,-0.41823 3.84,-0.825 0.88,-0.38036 2.56114,-1.02801 3.73587,-1.43922 1.17473,-0.41121 2.90605,-1.31663 3.84738,-2.01203 0.94134,-0.69541 2.3562,-1.59275 3.14414,-1.99409 0.78793,-0.40135 1.88362,-1.07308 2.43485,-1.49273 0.55123,-0.41965 1.90375,-1.1997 3.0056,-1.73345 2.30632,-1.11719 5.85542,-4.11539 6.38499,-5.39389 0.31487,-0.76017 0.19176,-1.25631 -0.96272,-3.87979 -0.72807,-1.65448 -1.87073,-4.02844 -2.53925,-5.27547 -0.67488,-1.25889 -1.79709,-4.28878 -2.52315,-6.81236 -2.9196,-10.14763 -3.23281,-19.26982 -1.00703,-29.32969 0.15576,-0.704 0.36755,-1.68189 0.47064,-2.17309 0.1031,-0.49119 0.31008,-0.81729 0.45996,-0.72466 0.14989,0.0926 0.0954,1.07053 -0.12117,2.17309 -0.93597,4.76583 -1.17541,6.32789 -1.38642,9.04466 -0.12303,1.584 -0.15169,4.176 -0.0637,5.76 0.1549,2.78812 0.18475,2.88022 0.93565,2.88694 0.4266,0.004 0.8337,0.18111 0.90465,0.39397 0.071,0.21287 0.76453,0.81593 1.54126,1.34015 2.59158,1.74903 2.52748,1.7376 4.87666,0.86962 1.17798,-0.43525 2.57378,-0.88468 3.10178,-0.99875 2.60899,-0.56362 3.36,-0.8628 3.36,-1.3385 0,-0.31446 0.1791,-0.43318 0.47955,-0.31788 0.28849,0.1107 0.90605,-0.24248 1.55006,-0.88649 0.92193,-0.92193 1.09733,-1.35355 1.26374,-3.10979 0.10627,-1.1216 0.70405,-3.40727 1.32838,-5.07927 0.97621,-2.61433 1.13436,-3.42086 1.12945,-5.76 -0.009,-4.13019 -0.56939,-10.48612 -0.99578,-11.28735 -0.78471,-1.4745 -2.3991,-3.16702 -3.6354,-3.81134 -0.704,-0.3669 -1.856,-1.0656 -2.56,-1.55266 -0.704,-0.48707 -2.01311,-1.11974 -2.90913,-1.40593 -2.04771,-0.65406 -2.52428,-1.10521 -4.77038,-4.515869 l -1.82159,-2.766054 -1.64945,1.844093 c -0.9072,1.014249 -1.93745,2.229856 -2.28945,2.701344 -0.60964,0.816596 -2.86766,2.948236 -5.2712,4.976206 -1.48252,1.25086 -3.71807,3.49002 -5.24907,5.25756 -0.68601,0.792 -2.4605,2.71406 -3.94331,4.27125 -1.48281,1.55718 -2.82755,3.17718 -2.9883,3.6 -0.16075,0.42281 -0.42868,0.76875 -0.59538,0.76875 -0.16671,0 -0.46944,0.504 -0.67274,1.12 -0.203299,0.616 -0.502467,1.12 -0.664816,1.12 -0.162352,0 -0.295184,0.288 -0.295184,0.64 0,0.352 -0.122131,0.64 -0.271402,0.64 -0.306204,0 -1.048563,1.64061 -3.438464,7.59896 -0.511574,1.27542 -1.084576,2.31942 -1.27334,2.32 -0.188762,6.4e-4 -0.736736,-0.97096 -1.217719,-2.15896 -1.713523,-4.2323 -3.993901,-6.85429 -8.719766,-10.026 -0.414669,-0.2783 -2.043747,-1.7183 -3.620173,-3.2 -3.227725,-3.03377 -4.755718,-4.32206 -6.231568,-5.254 -1.177946,-0.74382 -4.946669,-3.64356 -7.707568,-5.93036 -1.056,-0.87467 -2.222842,-1.72255 -2.592986,-1.88418 -0.37014,-0.16163 -1.192448,-0.90075 -1.82735,-1.64248 l -1.154365,-1.34862 -0.375933,0.82508 c -0.365824,0.8029 -3.050713,3.12851 -5.377334,4.65778 -0.633619,0.41647 -1.728032,1.28878 -2.432032,1.93847 -0.704,0.64969 -1.888058,1.58579 -2.631242,2.08023 -1.959366,1.30356 -4.06398,3.67525 -4.869744,5.4877 -0.696028,1.56561 -0.697392,1.60646 -0.199913,5.97994 0.275494,2.42197 0.517017,6.16597 0.536717,8.32 0.01971,2.15404 0.127699,5.26985 0.24,6.92402 l 0.204182,3.00759 2.452854,1.31825 c 1.349069,0.72504 2.717069,1.5506 3.04,1.83457 0.322932,0.28397 0.947146,0.62565 1.387146,0.75928 0.44,0.13363 1.808,0.74582 3.04,1.36042 1.920794,0.95821 2.582006,1.12278 4.64,1.15488 2.314202,0.0361 2.468637,-0.01 4.32,-1.28173 1.056,-0.72554 2.532,-1.69935 3.28,-2.16402 1.305917,-0.81125 1.36,-0.90846 1.36,-2.44428 0,-2.40479 -0.854285,-7.2399 -2.140605,-12.11545 C 66.219597,122.41141 66.071242,121.6 66.500973,121.6 c 0.305475,0 0.981411,1.93187 1.51151,4.32 0.1172,0.528 0.480487,1.896 0.807299,3.04 1.296695,4.53903 2.092218,11.04743 2.014352,16.48 -0.03764,2.62646 -0.199484,3.60148 -0.902969,5.44 -0.471408,1.232 -1.05184,2.83857 -1.28985,3.57016 -0.648598,1.99365 -4.176432,7.02707 -5.53063,7.89095 -0.501786,0.32011 -1.990685,2.63949 -1.990685,3.10106 0,0.51236 1.914474,2.50222 3.130518,3.25377 0.596237,0.3685 1.524471,1.07224 2.06274,1.56387 0.538268,0.49164 1.345523,0.98596 1.793897,1.09849 0.448371,0.11254 1.683056,0.63518 2.743738,1.16144 1.060685,0.52626 2.869149,1.25685 4.018813,1.62352 1.14966,0.36667 2.773932,1.00868 3.609491,1.42669 1.579933,0.7904 8.268166,2.31489 11.600803,2.64425 1.913942,0.18915 5.988851,0.14678 10.24,-0.10648 z M 96.638675,125.28 c 0.157869,-0.352 0.600483,-1.396 0.983587,-2.32 0.383101,-0.924 0.822816,-1.68 0.977143,-1.68 0.154326,0 0.280595,-0.288 0.280595,-0.64 0,-0.352 0.132832,-0.64 0.295184,-0.64 0.162349,0 0.457315,-0.49127 0.655478,-1.0917 0.198158,-0.60044 0.569328,-1.17192 0.824818,-1.26996 0.25549,-0.098 0.46452,-0.37164 0.46452,-0.608 0,-0.23636 0.85098,-1.35688 1.89108,-2.49005 1.04008,-1.13316 1.83557,-2.11681 1.76773,-2.18589 -0.0678,-0.0691 -0.31245,0.0313 -0.54357,0.22316 -0.23113,0.19182 -1.59394,0.78152 -3.02848,1.31045 -1.434533,0.52893 -3.300907,1.31226 -4.147499,1.74073 -1.756547,0.88901 -8.250327,1.97421 -9.929043,1.65928 -0.573543,-0.10759 -2.440506,-0.90942 -4.148804,-1.78182 -1.708297,-0.87241 -3.256044,-1.5862 -3.439436,-1.5862 -0.47234,0 4.02815,4.18905 6.698022,6.23451 4.013005,3.07448 5.338973,4.70541 6.900541,8.48763 l 1.065785,2.58141 1.072656,-2.65178 c 0.589962,-1.45847 1.201821,-2.93977 1.359693,-3.29177 z"
         id="outline" />
    </g>
  </g>
</svg>
