<?xml version="1.0" encoding="UTF-8" standalone="no"?>
<!-- Created with Inkscape (http://www.inkscape.org/) -->

<svg
   version="1.1"
   id="svg668"
   width="192"
   height="288"
   viewBox="0 0 192 288"
   xmlns="http://www.w3.org/2000/svg"
   xmlns:svg="http://www.w3.org/2000/svg">
  <defs
     id="defs672" />
  <g
     id="g674"
     transform="translate(2)">
    <g
       id="g678"
       transform="translate(2.3538044,0.70761668)">
      <path
         id="skin"
         style="fill:#f0d6bb;stroke-width:0.32"
         d="m 137.19307,171.29434 c -0.42111,0.0709 -0.95199,0.47261 -1.60547,1.20898 -0.69108,0.77874 -1.51301,1.92087 -1.82812,2.53711 -0.31511,0.61623 -1.1285,1.64397 -1.80664,2.28516 -0.67815,0.64118 -1.4176,1.39686 -1.64454,1.67968 -0.57982,0.7226 -1.88297,0.62544 -3.73437,-0.28125 -0.87253,-0.4273 -1.62979,-0.73348 -1.68359,-0.67968 -0.22611,0.22614 -0.48657,8.17003 -0.29297,8.9414 0.2492,0.99289 1.44097,1.68204 3.41797,1.97657 0.78338,0.11671 1.48529,0.2726 1.55859,0.3457 0.47897,0.47726 3.43382,0.0286 5.21875,-0.79102 2.35299,-1.08046 2.60948,-1.3492 4.31641,-4.51758 1.68665,-3.13073 1.89495,-4.43378 1.09765,-6.88281 -0.80973,-2.4872 -1.44035,-4.11605 -1.66992,-4.3164 -0.10084,-0.088 -0.27741,-0.41458 -0.39258,-0.72657 -0.21766,-0.58963 -0.53006,-0.85023 -0.95117,-0.77929 z m -84.404296,3.74609 c -0.355456,0 -0.949219,2.66795 -0.949219,4.26758 0,2.36954 1.646904,7.26378 2.785156,8.27734 0.745912,0.66421 3.585222,1.53488 6.015625,1.84375 1.055999,0.1342 2.102307,0.26301 2.326172,0.28711 0.721202,0.0776 4.554334,-1.82154 4.552734,-2.25586 -0.003,-0.85426 -1.258245,-8.92842 -1.43164,-9.20898 -0.09881,-0.15988 -1.025575,0.29302 -2.058594,1.00586 -1.794258,1.23813 -1.930221,1.27935 -3.042969,0.91211 -0.640649,-0.21144 -1.917032,-0.89077 -2.835937,-1.50977 -0.918905,-0.619 -2.175016,-1.38428 -2.791016,-1.69922 -0.615999,-0.31494 -1.393236,-0.87536 -1.728515,-1.24609 -0.335277,-0.37073 -0.71397,-0.67383 -0.841797,-0.67383 z m 66.097656,27.83984 c -0.12361,0 -0.60833,0.29629 -1.07617,0.65821 -1.22661,0.94889 -4.22388,3.01421 -7.69531,5.30273 -2.53034,1.66811 -6.71192,4.2018 -7.22657,4.37891 -0.17213,0.0592 0.0804,1.114 0.56446,2.34765 0.48326,1.23176 1.02373,2.73298 1.19921,3.33594 0.61323,2.10699 1.61217,8.39642 1.8086,11.38672 0.18581,2.82872 0.25521,3.06429 1.13281,3.80273 0.51449,0.43292 1.11624,0.78711 1.33789,0.78711 0.22165,0 1.28344,0.70448 2.35742,1.56641 1.35145,1.0846 2.72113,1.82638 4.45118,2.40625 1.37485,0.46082 2.71646,0.97593 2.98046,1.14648 0.81406,0.52591 3.82985,0.39683 4.04883,-0.17382 0.50084,-1.30517 -5.22165,-9.42578 -6.64258,-9.42578 -0.33335,0 -0.60742,-0.1253 -0.60742,-0.2793 0,-0.154 -0.0827,-0.76733 -0.18554,-1.36133 -0.14158,-0.81793 -0.10476,-0.96314 0.15429,-0.59961 0.18812,0.264 0.36001,0.33616 0.38281,0.16016 0.0228,-0.176 0.0888,-0.7513 0.14649,-1.2793 0.0577,-0.528 0.2468,-1.46408 0.41992,-2.08008 0.17312,-0.616 0.48193,-1.98501 0.68555,-3.04101 0.20362,-1.056 0.4945,-2.49522 0.64648,-3.19922 0.61389,-2.84369 1.53056,-15.83985 1.11719,-15.83985 z m -45.529297,0.69532 -0.214844,2.46875 c -0.130742,1.4988 -0.0832,2.81421 0.121094,3.35156 0.185024,0.48665 0.335938,1.35253 0.335938,1.92187 0,0.56934 0.121301,1.17069 0.269531,1.33789 0.526284,0.59364 2.627171,6.75919 3.548828,10.41797 1.067234,4.2367 1.371536,8.17553 0.623047,8.04883 -0.252627,-0.0428 -0.766921,0.24586 -1.142578,0.64063 -2.211848,2.32433 -2.87043,3.11594 -3.800782,4.57031 -0.568037,0.88799 -1.247198,1.79184 -1.509765,2.00976 -0.665077,0.55196 -1.908214,3.54327 -1.699219,4.0879 0.429367,1.11891 5.621639,-0.12751 7.957031,-1.91016 1.491193,-1.13826 4.35255,-2.98065 5.701172,-3.66992 0.454761,-0.23243 1.678274,-1.18269 2.71875,-2.11328 l 1.892578,-1.69336 0.115235,-10.53516 c 0.09444,-8.59588 0.03606,-10.59644 -0.31836,-10.87305 -0.573893,-0.4479 -2.64666,-1.49504 -4.427734,-2.23828 -0.787583,-0.32866 -1.882698,-0.90396 -2.433594,-1.27734 -0.550895,-0.37338 -1.756411,-0.92966 -2.679687,-1.23633 -0.923272,-0.30666 -2.438331,-1.17702 -3.367188,-1.93359 z" />
      <path
         style="fill:#c339c7;stroke-width:0.32"
         d="m 55.4925,170.4975 c 0,-1.19161 1.109228,-1.2966 1.624467,-0.16577 0.496624,1.08996 0.292895,1.77161 -0.626551,1.77161 -0.675555,0 -0.997916,-0.79517 -0.997916,-1.60584 z m 77.49879,-1.45288 c -0.38965,-0.38965 -0.17595,-1.94203 0.29207,-2.12163 0.9618,-0.36908 0.98038,-0.33507 0.8322,1.52277 -0.039,0.48848 -0.81911,0.90403 -1.12427,0.59886 z M 91.276134,162.48 c -0.177228,-0.22 -0.655942,-0.88808 -0.77573,-1.44861 -0.388202,-1.81652 1.977047,-3.2188 3.16785,-1.90297 0.670442,0.74083 0.498414,2.21706 -0.163977,3.22801 -0.556355,0.84911 -1.693503,0.78724 -2.228136,0.12357 z m -0.201897,-13.86617 c -0.106832,-0.2784 -0.194237,-0.9984 -0.194237,-1.6 0,-0.93414 0.109552,-1.09383 0.750403,-1.09383 0.958531,0 2.015836,1.08367 2.015836,2.13827 0,1.18276 -2.164585,1.61727 -2.572002,0.55556 z M 89.779309,135.2484 c -0.647408,-0.64741 -0.72721,-0.96802 -0.575648,-2.31267 0.210009,-1.8632 0.63068,-2.52304 2.003474,-2.52304 1.337491,0 2.169859,0.9221 2.182585,2.79354 0.0084,1.24246 -0.412984,1.58001 -1.112875,2.13054 -1.08441,0.853 -1.573472,0.83569 -2.497536,-0.0884 z"
         id="buttons" />
      <path
         style="fill:#9241be;stroke-width:0.32"
         d="m 60,178.90768 c -0.704,-0.32904 -1.775978,-0.97388 -2.38217,-1.43297 -0.606192,-0.45909 -1.339056,-0.83471 -1.628582,-0.83471 -0.28953,0 -0.967546,-0.48477 -1.506704,-1.07726 -1.074662,-1.18098 -1.118362,-1.73094 -0.435638,-5.48274 0.192163,-1.056 0.35022,-2.82452 0.351241,-3.93004 0.0013,-1.51961 0.122941,-2.05651 0.498135,-2.20049 0.618579,-0.23737 1.783763,0.82603 2.582528,2.35693 0.564172,1.08129 1.091824,1.75521 2.783849,3.5556 0.802122,0.85348 2.539456,1.6742 2.780368,1.31344 0.08967,-0.13427 0.360205,-0.29167 0.601194,-0.34978 0.240989,-0.0581 0.883718,-0.50166 1.428288,-0.98566 0.544566,-0.484 1.105261,-0.88 1.245984,-0.88 0.140723,0 0.191907,1.044 0.113747,2.32 -0.07816,1.276 -0.153392,3.0723 -0.167178,3.99178 -0.02272,1.51589 -0.0088,1.94642 -0.863657,2.38847 -0.518518,0.26814 -1.331545,0.93117 -1.806726,1.37155 -1.02664,0.95146 -1.876004,0.67918 -3.594679,-0.12412 z m -2.564454,-6.94894 c 0.304841,-0.30484 0.431366,-0.73663 0.304742,-1.04 -0.119085,-0.28531 -0.223366,-0.69646 -0.231738,-0.91366 -0.01062,-0.27566 -0.144314,-0.161 -0.293615,-0.006 -0.258786,0.26815 -0.463797,0.16296 -0.430002,-0.24949 0.05352,-0.65313 -1.307357,-0.86535 -1.695034,-0.26815 -0.402726,0.62038 -0.340421,1.88963 0.162184,2.30675 0.386938,0.32113 0.211055,0.0216 0.218898,-0.33247 0.0066,-0.2978 0.406517,0.26105 0.658818,0.62082 0.21825,0.31121 0.638598,0.54964 1.305747,-0.11755 z M 127.68,178.65916 c -0.264,-0.0937 -1.00414,-0.5229 -1.64477,-0.95384 -1.09473,-0.73642 -1.1773,-0.91225 -1.37332,-2.92442 -0.11471,-1.1775 -0.29626,-2.78854 -0.40345,-3.58009 -0.16357,-1.20795 -0.12286,-1.38099 0.25333,-1.07695 0.24652,0.19923 0.92299,0.4638 1.50329,0.58793 0.95669,0.20464 1.16556,0.10136 2.24,-1.10761 0.6517,-0.73331 1.90862,-2.07824 2.79314,-2.98874 0.91182,-0.93859 1.95109,-2.44985 2.4,-3.48998 0.43548,-1.009 0.88861,-1.837 1.00696,-1.84 0.11835,-0.003 0.38152,0.49854 0.58482,1.11454 0.2033,0.616 0.48567,1.12 0.62749,1.12 0.14183,0 0.33299,0.28727 0.42481,0.63838 0.0918,0.35112 0.43261,0.73199 0.75732,0.8464 0.81359,0.28665 1.69513,1.42421 1.70115,2.19522 0.007,0.84793 -0.81932,2.05966 -2.81958,4.1365 -0.90528,0.93994 -1.97529,2.28876 -2.37779,2.99738 -0.4025,0.70861 -1.41745,2.02138 -2.25544,2.91726 -1.47288,1.57462 -2.15568,1.8559 -3.41796,1.40802 z m 6.95055,-10.15101 c 0.29954,-0.78783 0.13904,-1.07489 -0.41035,-1.78948 -0.49496,-0.6438 -2.0602,-9.7e-4 -2.0602,0.89252 0,1.92897 1.84747,2.53579 2.47055,0.89696 z M 89.44,172.18741 c -0.528,-0.14309 -2.093978,-0.78379 -3.479949,-1.42378 -1.385974,-0.64 -2.789974,-1.16363 -3.12,-1.16363 -0.330029,0 -0.600051,-0.10985 -0.600051,-0.24412 0,-0.24818 -0.554275,-0.5799 -2.56,-1.5321 -1.553066,-0.73731 -5.389658,-3.61179 -5.770515,-4.32342 -0.172752,-0.3228 -0.736323,-0.83632 -1.252381,-1.14116 -0.516058,-0.30484 -1.190608,-1.02279 -1.498998,-1.59544 -0.308391,-0.57265 -0.788826,-1.10083 -1.067629,-1.17374 -1.006915,-0.26331 -0.853287,-3.24152 0.455824,-5.41252 0.15919,-0.264 0.386003,-0.84183 0.504025,-1.10583 0.118023,-0.264 0.73778,-0.77767 1.122612,-1.39611 0.847356,-1.36174 2.349235,-5.73052 2.603366,-7.57287 0.283558,-2.05568 -0.133543,-2.60305 -2.788993,-5.35598 -2.900624,-3.00712 -5.003289,-6.23025 -5.333564,-7.83938 -0.12952,-0.63103 -0.2396,-2.51533 -0.244621,-4.18733 -0.0086,-2.87997 0.0567,-3.17898 1.241335,-5.68 0.687757,-1.452 1.371757,-2.64 1.52,-2.64 0.148246,0 0.269539,-0.13948 0.269539,-0.30996 0,-0.91702 -1.023987,0.34839 -2.268477,2.8033 l -1.411523,2.78442 0.01373,3.52112 c 0.01258,3.22822 0.08937,3.66752 0.923046,5.28112 1.419101,2.74668 2.606624,4.32432 5.087652,6.75902 l 2.295577,2.25271 -0.04478,2.21892 c -0.02464,1.2204 -0.180313,2.39676 -0.345955,2.61413 -0.165645,0.21737 -0.633226,1.32813 -1.039069,2.46835 -0.405846,1.14022 -1.060336,2.58022 -1.454419,3.2 -0.394086,0.61978 -0.986352,1.73515 -1.316147,2.47861 -0.329795,0.74346 -0.798029,1.35546 -1.040525,1.36 -0.331098,0.006 -0.392176,0.31296 -0.245248,1.23178 0.107606,0.67294 -0.02,2.29294 -0.2836,3.6 -0.263587,1.30707 -0.629683,3.24048 -0.813542,4.29648 -0.367629,2.11144 -1.082615,3.07844 -3.423616,4.63033 -1.969968,1.30592 -2.766839,0.95208 -5.022804,-2.23033 -1.639769,-2.31316 -1.667878,-2.62681 -0.817363,-9.12 0.207482,-1.584 0.523031,-3.384 0.701223,-4 0.178188,-0.616 0.400739,-3.08046 0.49455,-5.47658 0.177872,-4.54315 -0.04937,-6.20903 -1.856122,-13.6073 -0.349744,-1.43213 -0.769241,-4.45613 -0.932217,-6.72 -0.162976,-2.26386 -0.467344,-5.05212 -0.676378,-6.19612 -0.579968,-3.17406 -0.49511,-4.83721 0.328144,-6.43137 1.334669,-2.58447 3.854562,-6.05902 5.615311,-7.2322 2.588029,-1.72439 5.082276,-4.24021 5.603041,-6.15774 0.171399,-0.63111 0.480863,-0.20953 0.612573,1.3055 0.267781,3.08024 1.528691,7.74262 2.77825,10.19453 C 71.505587,115.10445 72,116.16221 72,116.26929 c 0,0.35702 1.981005,4.52826 2.227715,4.69071 0.133642,0.088 0.470784,0.60481 0.749203,1.14847 0.593511,1.15891 4.076884,4.47122 5.015396,4.76909 0.356227,0.11306 0.647686,0.41186 0.647686,0.664 0,0.25214 0.108,0.45762 0.24,0.45662 0.30305,-0.002 3.28,-6.14518 3.28,-6.76822 0,-0.25408 0.124861,-0.59876 0.277469,-0.76596 0.40696,-0.44588 1.322531,-3.3411 1.322531,-4.18212 0,-1.2029 0.542794,-1.15524 1.322509,0.11613 0.405443,0.66109 0.847574,1.34599 0.982509,1.52199 0.134934,0.176 0.583356,0.752 0.996492,1.28 0.41314,0.528 1.022359,1.428 1.353821,2 0.331463,0.572 0.71561,1.04 0.853664,1.04 0.138051,0 0.251005,0.21548 0.251005,0.47884 0,0.26336 0.705123,1.46704 1.566941,2.67483 2.068537,2.89894 2.631507,5.1611 1.835389,7.37504 2.948782,12.85257 -3.777569,10.20211 0.621379,-0.0146 0.437414,-0.84586 0.450867,-1.27546 0.102217,-3.26411 -0.220819,-1.25952 -0.538627,-2.38237 -0.706246,-2.49521 -0.181286,-0.12206 -0.113837,-0.47775 0.166483,-0.87797 0.259184,-0.37003 0.555719,-0.58831 0.65897,-0.48506 0.220832,0.22083 2.073875,-2.23484 2.55944,-3.3918 1.392374,-3.31761 3.334977,-6.49985 3.794477,-6.21587 0.15452,0.0955 0.28095,0.30268 0.28095,0.46039 0,0.3082 1.6376,4.01806 2.46995,5.59548 0.27861,0.528 0.70741,1.392 0.95289,1.92 1.44678,3.11183 1.60506,3.19526 2.6701,1.40747 0.43288,-0.72664 1.00306,-1.56765 1.26706,-1.86891 0.67511,-0.77041 1.54933,-2.22414 2.12795,-3.53856 0.27117,-0.616 0.68433,-1.552 0.91815,-2.08 0.23382,-0.528 0.7961,-2.09238 1.24951,-3.47641 0.73632,-2.24758 0.82439,-3.02557 0.82439,-7.28271 0,-4.69503 0.01,-4.76029 0.64357,-4.36438 0.35397,0.22105 0.7136,0.61827 0.79918,0.88271 0.0856,0.26443 0.55197,0.72204 1.03643,1.01691 4.01158,2.44166 5.37412,3.14885 6.94907,3.6067 1.51128,0.43934 2.23233,0.93685 4.36077,3.00889 1.40255,1.36537 2.59526,2.43734 2.65047,2.38214 0.21904,-0.21904 1.15276,2.4328 1.62295,4.60932 0.84271,3.90085 0.64091,7.9158 -0.76886,15.29683 -2.28053,11.94013 -2.39405,16.49205 -0.51054,20.47345 0.45764,0.96737 0.96967,2.48446 1.13786,3.37131 0.16819,0.88686 0.45026,1.88238 0.62681,2.21228 0.65882,1.23102 -0.81406,4.40828 -3.20002,6.90296 -1.00997,1.056 -2.19399,2.34512 -2.63114,2.8647 -0.7726,0.91829 -0.83022,0.93303 -2.06066,0.52695 -1.15306,-0.38055 -1.31646,-0.57874 -1.83418,-2.22471 -0.31259,-0.99382 -0.86173,-2.59894 -1.22031,-3.56694 -1.33793,-3.61182 -2.1614,-6.23787 -2.1614,-6.89271 0,-0.37136 0.33936,-1.67295 0.75413,-2.89243 0.89265,-2.62449 0.92396,-2.5435 -2.13263,-5.51659 -4.1032,-3.99111 -4.67301,-6.57503 -2.43635,-11.04812 0.71783,-1.43558 1.69411,-3.11415 2.16951,-3.73015 0.47539,-0.616 1.48955,-2.37329 2.25367,-3.90509 l 1.38931,-2.7851 -0.13154,-2.9749 c -0.0857,-1.93794 -0.31466,-3.30954 -0.65688,-3.93491 -0.28893,-0.528 -0.85785,-1.66226 -1.26426,-2.52057 -0.63492,-1.34091 -3.35404,-4.25702 -3.6725,-3.93856 -0.0598,0.0597 0.50651,0.75062 1.25834,1.53528 1.6954,1.76941 3.03885,4.46025 3.44654,6.90315 0.38501,2.30705 0.0719,5.87677 -0.63489,7.23736 -0.62867,1.21028 -2.27602,3.83498 -2.55029,4.06334 -0.74212,0.61791 -3.54045,6.39988 -3.76396,7.77718 -0.17225,1.0615 0.47634,3.06332 1.52373,4.70282 0.16866,0.264 0.38523,0.696 0.48127,0.96 0.0961,0.264 0.63944,0.84 1.20755,1.28 0.5681,0.44 1.57715,1.40652 2.24233,2.14783 l 1.20941,1.34784 -0.50123,1.72414 c -0.90402,3.10973 -5.78172,11.10019 -6.776,11.10019 -0.25039,0 -0.45526,0.1944 -0.45526,0.43201 0,0.23761 -0.9,1.20865 -2,2.15788 -1.1,0.94923 -2.048,1.83482 -2.10667,1.96799 -0.0587,0.13317 -0.31649,0.24212 -0.57296,0.24212 -0.25645,0 -0.85645,0.2877 -1.33333,0.63934 -0.47687,0.35163 -1.51504,0.72786 -2.30704,0.83606 -0.792,0.1082 -1.656,0.30405 -1.92,0.43522 -0.90832,0.45131 -4.606038,0.38845 -5.254739,-0.0893 -0.742506,-0.54687 -0.848842,-0.97245 -1.014787,-4.0613 -0.07092,-1.32 -0.256208,-3.768 -0.411764,-5.44 -0.238278,-2.5612 -0.263974,-2.12021 -0.163152,2.8 0.09973,4.86703 0.04454,5.84 -0.331254,5.84 -0.248006,0 -0.731683,0.38542 -1.074832,0.85649 -0.53712,0.73735 -0.885798,0.86863 -2.506688,0.94378 -1.035533,0.048 -2.314784,-0.0298 -2.842784,-0.17286 z m 4.64361,-10.11325 c 0.805494,-1.30332 0.684595,-2.3462 -0.387824,-3.3453 -0.8964,-0.83513 -1.48226,-0.81655 -2.605908,0.0826 -0.845747,0.6768 -0.894038,0.83555 -0.682755,2.24448 0.159005,1.06032 0.466979,1.70466 1.02432,2.14307 0.98193,0.77238 1.656397,0.48632 2.652167,-1.12487 z m -0.792337,-13.20233 c 0.385187,-0.35885 0.553025,-0.74421 0.553025,-1.14443 0,-0.89761 -1.204658,-2.15277 -2.107154,-2.15277 -0.875418,0 -1.709068,1.08938 -1.434518,2.0105 0.634519,2.12884 1.661197,2.52341 2.988647,1.2867 z m -0.304744,-13.5271 c 0.4916,-0.35006 0.794418,-0.66463 0.906997,-1.11317 0.283274,-1.12866 -0.371319,-3.21898 -0.979476,-3.21898 -0.5628,-0.15994 -0.452189,-0.33983 -0.556288,-0.45603 -0.292871,0.11238 -0.650345,-0.009 -0.650345,-0.17928 0,-0.17048 -0.236538,-0.28049 -0.669681,-0.28049 -0.864448,0 -2.075698,0.93476 -2.081259,1.72356 -0.0019,0.27481 -0.08694,1.0037 -0.188903,1.61976 -0.392838,2.37358 2.176248,3.35916 4.218955,1.90463 z m -13.656263,-9.56855 c -2.869834,-1.78623 -4.072272,-3.35726 -8.027808,-11.78252 -1.240234,-2.64169 -1.938701,-5.4401 -2.344522,-8.39366 l -0.197859,-1.44 1.158595,1.28 c 0.637229,0.704 1.355645,1.7403 1.596483,2.30289 0.530301,1.23875 3.229591,3.89097 4.210637,4.1372 0.389344,0.0977 0.782838,0.37295 0.874429,0.61163 0.195763,0.51016 3.904557,2.41683 4.175024,2.14637 0.101616,-0.10162 0.184755,-0.0168 0.184755,0.18858 0,0.20533 0.297466,0.37333 0.661037,0.37333 0.363571,0 0.968688,0.16465 1.344704,0.36589 0.512941,0.27451 0.714125,0.27451 0.805629,0 0.06708,-0.20124 0.418022,-0.36589 0.779868,-0.36589 0.597392,0 0.788278,0.2282 0.62101,1.60839 -0.25143,2.07463 -3.20182,9.02342 -4.082076,9.75396 -0.205379,0.17045 -0.875174,-0.23555 -1.759906,-0.78617 z m 26.442634,-3.08055 c -0.7991,-1.71002 -1.4529,-3.17175 -1.4529,-3.2483 0,-0.0765 -0.5044,-1.14424 -1.12089,-2.37263 -1.35075,-2.69145 -1.39706,-2.56114 2.1896,-6.16031 3.89456,-3.90815 5.54926,-6.03529 7.42326,-9.54274 l 1.03457,-1.936341 0.19095,2.202341 c 0.56991,6.57294 0.57495,8.29056 0.0313,10.68235 -0.30001,1.32 -0.68229,2.66134 -0.84952,2.98077 -0.16723,0.31942 -0.35867,0.86436 -0.42543,1.21098 -0.17126,0.88928 -2.66748,5.7593 -3.34618,6.52825 -0.31069,0.352 -0.76352,1.06137 -1.00629,1.57637 -0.24278,0.515 -0.61561,0.99307 -0.82852,1.06237 -0.22889,0.0745 -0.98092,-1.14474 -1.84,-2.98311 z"
         id="shirt" />
      <path
         style="fill:#af2427;stroke-width:0.32"
         d="m 64.4,251.51003 c -0.684922,-0.27531 -0.719654,-0.4575 -0.712883,-3.73972 0.006,-2.93126 0.101251,-3.57066 0.632883,-4.25031 0.344173,-0.44 0.62897,-1.19632 0.632883,-1.6807 0.01741,-2.15527 4.624551,-8.23617 7.271367,-9.59738 2.951411,-1.51786 3.858867,-2.05584 4.57248,-2.71074 1.022592,-0.93846 1.230867,-0.92131 1.038403,0.0855 -0.08587,0.44917 -1.136755,1.81895 -2.335315,3.04395 -1.19856,1.225 -2.265821,2.5002 -2.37169,2.83376 -0.105869,0.33357 -0.403008,0.68727 -0.66031,0.786 C 72.210518,236.37913 72,236.64834 72,236.87864 c 0,0.2303 -0.408602,0.86609 -0.908003,1.41286 -0.966695,1.0584 -1.8536,3.60157 -1.540528,4.41742 0.286198,0.74582 3.023203,0.6213 5.393974,-0.24539 1.108007,-0.40506 3.201495,-1.55706 4.652199,-2.56 1.450704,-1.00294 2.782704,-1.82353 2.96,-1.82353 0.177296,0 0.322358,-0.12839 0.322358,-0.28531 0,-0.15692 0.324925,-0.36686 0.722058,-0.46653 0.684083,-0.1717 1.742518,-0.93542 3.86176,-2.78648 0.606876,-0.53008 1.007609,-1.25348 1.137686,-2.05372 0.110445,-0.67947 0.398912,-1.30143 0.64104,-1.38214 0.354243,-0.11808 0.402634,0.22056 0.247741,1.73372 -0.251821,2.46006 -0.361098,3.10607 -0.58969,3.48609 -0.104006,0.1729 -0.380438,1.35837 -0.614291,2.63437 -0.233853,1.276 -0.537939,2.32 -0.675747,2.32 -0.137805,0 -0.253043,0.252 -0.256087,0.56 -0.0057,0.57883 -1.298755,2 -1.819683,2 -0.162256,0 -1.041254,0.36 -1.953328,0.8 -0.912077,0.44 -1.875027,0.8 -2.139891,0.8 -0.264861,0 -0.481568,0.144 -0.481568,0.32 0,0.176 -0.190899,0.32 -0.424221,0.32 -0.233318,0 -0.762419,0.36 -1.175779,0.8 -0.41336,0.44 -0.942461,0.8 -1.175779,0.8 -0.233322,0 -0.424221,0.13043 -0.424221,0.28984 0,0.47946 -4.031926,2.21312 -5.671213,2.43852 -1.650688,0.22696 -3.436147,0.70215 -4.324445,1.15092 -0.701212,0.35425 -2.423193,0.32904 -3.364342,-0.0493 z m 56.88,-4.48581 c -0.792,-0.32418 -1.9994,-0.59725 -2.6831,-0.60682 -1.6474,-0.0231 -5.39754,-0.69061 -5.7809,-1.02903 -0.1672,-0.14761 -0.54378,-0.26837 -0.83684,-0.26837 -0.29307,0 -0.87627,-0.26694 -1.296,-0.59321 -0.67883,-0.52765 -4.45254,-1.47007 -5.25375,-1.31203 -1.00718,0.19866 -1.48789,-0.14484 -2.14777,-1.53476 -0.63043,-1.32789 -0.71617,-1.98826 -0.67835,-5.2249 0.046,-3.94201 0.26913,-4.72625 1.89354,-6.65674 0.46203,-0.5491 0.97126,-0.99836 1.13161,-0.99836 0.16036,0 0.29156,0.95549 0.29156,2.12331 0,1.8946 0.0929,2.20936 0.86211,2.92227 0.47415,0.43944 1.30215,0.98497 1.84,1.2123 0.53784,0.22733 1.68522,1.07542 2.54975,1.88464 0.86452,0.80923 1.94452,1.56006 2.4,1.66852 0.45547,0.10846 0.97214,0.30055 1.14814,0.42687 0.176,0.12631 0.608,0.3103 0.96,0.40888 0.352,0.0986 1.42997,0.47937 2.39548,0.84621 2.35497,0.89478 4.65813,0.89847 5.13456,0.008 0.50704,-0.94741 0.12659,-2.22797 -1.34456,-4.52567 -1.28506,-2.00705 -1.66597,-2.46152 -4.1033,-4.89556 -1.2443,-1.24263 -1.27377,-1.32205 -1.00922,-2.72 0.22321,-1.17955 0.32024,-1.32425 0.53643,-0.8 0.14516,0.352 0.35997,0.712 0.47735,0.8 0.85421,0.64038 4.49808,5.67246 4.80784,6.63948 0.2115,0.66028 0.94275,1.93382 1.62499,2.83008 0.68223,0.89625 1.24043,1.74124 1.24043,1.87775 0,0.13651 0.432,0.74022 0.96,1.34158 0.528,0.60136 0.96,1.36959 0.96,1.70718 0,0.3376 0.16228,0.96997 0.36061,1.40527 1.28069,2.81081 -2.62002,4.71846 -6.4848,3.13654 z"
         id="path682" />
      <path
         style="fill:#24221f;stroke-width:0.32"
         d="m 64.093814,252.10942 c -1.061756,-0.53359 -1.520656,-3.1607 -1.065043,-6.09719 0.196013,-1.26333 0.472381,-2.4489 0.614154,-2.6346 0.141769,-0.1857 0.451872,-1.05763 0.689117,-1.93763 0.35975,-1.33442 2.096611,-4.53711 3.123718,-5.76 0.845357,-1.0065 3.927216,-3.5063 5.017085,-4.06954 1.789017,-0.92455 3.680774,-2.20043 4.559181,-3.07492 0.610483,-0.60775 0.712592,-0.96031 0.556073,-1.92 -0.482976,-2.9613 -1.192937,-5.68913 -2.356003,-9.05232 -1.871706,-5.41232 -1.877843,-5.43181 -2.269264,-7.20505 -0.225184,-1.02015 -0.278662,-2.67399 -0.141238,-4.3677 0.203897,-2.51289 0.169222,-2.77035 -0.443815,-3.29525 -0.365747,-0.31316 -0.594915,-0.68277 -0.509264,-0.82136 0.08565,-0.13858 -0.260035,-1.229 -0.768192,-2.42315 -0.959229,-2.25416 -2.616669,-8.22897 -2.625222,-9.46353 -0.01062,-1.53065 -0.420487,-1.62473 -2.501565,-0.5742 -2.515149,1.26964 -4.536557,1.30366 -8.144707,0.13706 -3.73737,-1.20837 -4.415178,-1.79952 -5.507389,-4.80325 -1.21833,-3.35057 -1.388826,-6.22447 -0.524989,-8.84939 1.546403,-4.69904 2.1148,-7.33548 2.35744,-10.93474 0.06649,-0.98637 0.231895,-1.3046 0.726109,-1.39702 0.352,-0.0658 0.740253,-0.27898 0.862787,-0.47369 0.145229,-0.23078 0.296394,-0.16219 0.434234,0.19702 0.361865,0.943 0.736835,0.60866 0.907277,-0.80897 0.604358,-5.02674 0.925824,-7.52383 1.040185,-8.08 1.012627,-4.92476 0.94897,-8.97634 -0.228765,-14.56 -1.354841,-6.42333 -2.192476,-11.66726 -2.205078,-13.80465 -0.0059,-0.99256 -0.234918,-2.98696 -0.50904,-4.43199 -0.274118,-1.44504 -0.404662,-3.08095 -0.290099,-3.63535 0.705843,-3.41577 4.242646,-8.21203 7.228246,-9.80224 0.637859,-0.33974 1.536701,-1.09202 1.997424,-1.67174 0.46072,-0.57972 1.126835,-1.37288 1.480253,-1.7626 0.353418,-0.38971 0.642576,-0.8257 0.642576,-0.96888 0,-0.14317 0.288,-0.50691 0.64,-0.8083 0.756746,-0.64795 0.797722,-0.50609 0.191126,0.66164 -0.746934,1.43789 -3.12856,3.89909 -4.942713,5.10785 -1.760749,1.17318 -4.501613,4.50042 -5.836282,7.08489 -0.823254,1.59416 -0.908112,3.25731 -0.328144,6.43137 0.209034,1.144 0.513402,3.93226 0.676375,6.19612 0.162976,2.26387 0.582473,5.28787 0.932217,6.72 1.806755,7.39827 2.033994,9.06415 1.856122,13.6073 -0.09381,2.39612 -0.316362,4.86058 -0.494551,5.47658 -0.178192,0.616 -0.49374,2.416 -0.701222,4 -0.850515,6.49319 -0.822406,6.80684 0.817363,9.12 2.255965,3.18241 3.052835,3.53625 5.022803,2.23033 2.341002,-1.55189 3.055988,-2.51889 3.423616,-4.63033 0.18386,-1.056 0.549956,-2.98941 0.813543,-4.29648 0.263587,-1.30706 0.391206,-2.92706 0.2836,-3.6 -0.146928,-0.91882 -0.08585,-1.22557 0.245248,-1.23178 0.242496,-0.005 0.710729,-0.61654 1.040525,-1.36 0.329795,-0.74346 0.92206,-1.85883 1.316147,-2.47861 0.394083,-0.61978 1.048573,-2.05978 1.454419,-3.2 0.405843,-1.14022 0.873424,-2.25098 1.039069,-2.46835 0.165641,-0.21737 0.321321,-1.39373 0.345955,-2.61413 l 0.04478,-2.21892 -2.295578,-2.25271 c -2.481027,-2.4347 -3.66855,-4.01234 -5.087651,-6.75902 -0.83368,-1.6136 -0.910464,-2.0529 -0.923046,-5.28112 l -0.01372,-3.52112 1.411523,-2.78442 c 1.24449,-2.45491 2.268477,-3.72032 2.268477,-2.8033 0,0.17048 -0.121293,0.30996 -0.269539,0.30996 -0.148243,0 -0.832243,1.188 -1.52,2.64 -1.184634,2.50102 -1.249981,2.80003 -1.241335,5.68 0.005,1.672 0.115101,3.5563 0.244621,4.18733 0.330275,1.60913 2.565523,4.8028 5.466147,7.80992 1.356679,1.40648 2.55088,2.8927 2.653783,3.30269 0.275648,1.09827 -0.07218,3.09404 -1.041443,5.97562 -0.770602,2.29096 -1.31537,3.42802 -2.614269,5.45656 -0.221123,0.34534 -0.485331,0.84388 -0.58713,1.10788 -0.101801,0.264 -0.394192,0.984 -0.649757,1.6 -0.587177,1.41531 -0.47511,3.25102 0.209399,3.43002 0.278803,0.0729 0.759238,0.60109 1.067629,1.17374 0.30839,0.57265 0.98294,1.2906 1.498998,1.59544 0.516058,0.30484 1.079629,0.81836 1.252381,1.14116 0.380857,0.71163 4.217449,3.58611 5.770515,4.32342 2.005725,0.9522 2.56,1.28392 2.56,1.5321 0,0.13427 0.273661,0.24412 0.608138,0.24412 0.334476,0 1.882476,0.59685 3.44,1.32634 2.521929,1.18118 3.105948,1.33002 5.336179,1.36 2.380486,0.032 2.53608,-0.01 3.146691,-0.84634 0.353306,-0.484 0.84529,-0.88 1.093296,-0.88 0.375798,0 0.430986,-0.97297 0.331254,-5.84 -0.100822,-4.92021 -0.07513,-5.3612 0.163152,-2.8 0.155556,1.672 0.340848,4.12 0.411764,5.44 0.165945,3.08885 0.272281,3.51443 1.014787,4.0613 0.648701,0.47777 4.346418,0.54063 5.254738,0.0893 0.264,-0.13117 1.128,-0.32702 1.92,-0.43522 0.792,-0.1082 1.83017,-0.48443 2.30704,-0.83606 0.47688,-0.35164 1.07688,-0.63934 1.33333,-0.63934 0.25647,0 0.5143,-0.10895 0.57296,-0.24212 0.0587,-0.13317 1.00667,-1.01876 2.10667,-1.96799 1.1,-0.94923 2,-1.92027 2,-2.15788 0,-0.23761 0.20487,-0.43201 0.45526,-0.43201 0.99428,0 5.87198,-7.99046 6.776,-11.10019 l 0.50123,-1.72414 -1.20941,-1.34784 c -0.66518,-0.74131 -1.67423,-1.70783 -2.24233,-2.14783 -0.56811,-0.44 -1.1115,-1.016 -1.20755,-1.28 -0.096,-0.264 -0.31261,-0.696 -0.48127,-0.96 -1.04739,-1.6395 -1.69598,-3.64132 -1.52373,-4.70282 0.22351,-1.3773 3.02184,-7.15927 3.76396,-7.77718 0.27427,-0.22836 1.92162,-2.85306 2.55029,-4.06334 0.70675,-1.36059 1.0199,-4.93031 0.63489,-7.23736 -0.40769,-2.4429 -1.75114,-5.13374 -3.44654,-6.90315 -0.75183,-0.78466 -1.31809,-1.47553 -1.25834,-1.53528 0.31846,-0.31846 3.03758,2.59765 3.6725,3.93856 0.40641,0.85831 0.97533,1.99257 1.26426,2.52057 0.34222,0.62537 0.57119,1.99697 0.65688,3.93491 l 0.13154,2.9749 -1.38931,2.7851 c -0.76412,1.5318 -1.77828,3.28909 -2.25367,3.90509 -0.4754,0.616 -1.45168,2.29457 -2.16951,3.73015 -2.23666,4.47309 -1.66685,7.05701 2.43635,11.04812 3.05659,2.97309 3.02528,2.8921 2.13263,5.51659 -0.41477,1.21948 -0.75413,2.52107 -0.75413,2.89243 0,0.65484 0.82347,3.28089 2.1614,6.89271 0.35858,0.968 0.90772,2.57312 1.22031,3.56694 0.51772,1.64597 0.68112,1.84416 1.83418,2.22471 1.23044,0.40608 1.28806,0.39134 2.06066,-0.52695 0.43715,-0.51958 1.62117,-1.8087 2.63114,-2.8647 2.38596,-2.49468 3.85884,-5.67194 3.20002,-6.90296 -0.17655,-0.3299 -0.45862,-1.32542 -0.62681,-2.21228 -0.16819,-0.88685 -0.68022,-2.40394 -1.13786,-3.37131 -1.88351,-3.9814 -1.76999,-8.53332 0.51054,-20.47345 1.40977,-7.38103 1.61157,-11.39598 0.76886,-15.29683 -0.47019,-2.17652 -1.40391,-4.82836 -1.62295,-4.60932 -0.0552,0.0552 -1.24792,-1.01677 -2.65047,-2.38214 -2.12844,-2.07204 -2.84949,-2.56955 -4.36077,-3.00889 -1.57495,-0.45785 -2.93749,-1.16504 -6.94907,-3.6067 -0.48446,-0.29487 -0.95085,-0.75248 -1.03643,-1.01691 -0.0856,-0.26444 -0.44521,-0.66166 -0.79918,-0.88271 -0.63394,-0.39591 -0.64357,-0.33065 -0.64357,4.36438 0,4.25714 -0.0881,5.03513 -0.82439,7.28271 -0.45341,1.38403 -1.01569,2.94841 -1.24951,3.47641 -0.23382,0.528 -0.64698,1.464 -0.91815,2.08 -0.57862,1.31442 -1.45284,2.76815 -2.12795,3.53856 -0.264,0.30126 -0.83418,1.14227 -1.26706,1.86891 -1.06504,1.78779 -1.22332,1.70436 -2.6701,-1.40747 -0.24548,-0.528 -0.67428,-1.392 -0.95289,-1.92 C 104.0376,120.50256 102.4,116.7927 102.4,116.4845 c 0,-0.15771 -0.12643,-0.36488 -0.28095,-0.46039 -0.4595,-0.28398 -2.402102,2.89826 -3.794476,6.21587 -0.485565,1.15696 -2.338608,3.61263 -2.55944,3.3918 -0.103251,-0.10325 -0.399786,0.11503 -0.65897,0.48506 -0.28032,0.40022 -0.347769,0.75591 -0.166483,0.87797 0.167619,0.11284 0.485427,1.23569 0.706246,2.49521 0.34865,1.98865 0.335197,2.41825 -0.102217,3.26411 -0.659943,1.27619 -0.635546,2.32852 0.136608,5.89244 0.492713,2.27415 0.56648,3.21289 0.32,4.0723 -0.496899,1.73259 -0.381053,3.64636 0.319683,5.28111 0.64839,1.51263 0.76464,3.3726 0.32,5.12 -0.179622,0.7059 -0.254301,0.3053 -0.282141,-1.51352 -0.02157,-1.40818 -0.253302,-3.01198 -0.538077,-3.7237 -0.585721,-1.46386 -0.662451,-2.72882 -0.315152,-5.19568 0.188336,-1.33775 0.109565,-2.35318 -0.310291,-4 -0.833865,-3.27067 -0.878093,-4.23294 -0.272009,-5.91839 0.796118,-2.21394 0.233148,-4.4761 -1.835389,-7.37504 C 92.225123,124.18588 91.52,122.9822 91.52,122.71884 c 0,-0.26336 -0.112954,-0.47884 -0.251005,-0.47884 -0.138054,0 -0.522201,-0.468 -0.853664,-1.04 -0.331462,-0.572 -0.940681,-1.472 -1.353821,-2 -0.413136,-0.528 -0.861558,-1.104 -0.996492,-1.28 -0.134935,-0.176 -0.577066,-0.8609 -0.982509,-1.52199 C 86.302794,115.12664 85.76,115.07898 85.76,116.28188 c 0,0.84102 -0.915571,3.73624 -1.322531,4.18212 -0.152608,0.1672 -0.277469,0.51188 -0.277469,0.76596 0,0.62304 -2.97695,6.76591 -3.28,6.76822 -0.132,9.6e-4 -0.24,-0.20448 -0.24,-0.45662 0,-0.25214 -0.291459,-0.55094 -0.647686,-0.664 -0.938512,-0.29787 -4.421885,-3.61018 -5.015396,-4.76909 C 74.698499,121.56481 74.361357,121.048 74.227715,120.96 73.981005,120.79755 72,116.62631 72,116.26929 c 0,-0.10708 -0.494413,-1.16484 -1.098694,-2.35057 -1.402727,-2.75246 -2.698477,-7.50356 -2.955533,-10.837 -0.193597,-2.51048 -0.176525,-2.60172 0.486797,-2.60172 0.378086,0 0.68743,-0.13351 0.68743,-0.2967 0,-0.16318 0.422026,-0.243284 0.937834,-0.17801 1.016204,0.12861 2.816838,1.17529 4.342166,2.52404 1.572035,1.39004 1.891334,1.63067 2.163805,1.63067 0.142745,0 0.362288,0.1661 0.487865,0.36911 0.125581,0.20301 1.56033,1.04988 3.18833,1.88192 1.628,0.83205 2.96,1.63795 2.96,1.79089 0,0.15294 0.216,0.27808 0.48,0.27808 0.264,0 0.48,0.144 0.48,0.32 0,0.176 0.231277,0.32 0.513952,0.32 0.282672,0 1.072118,0.44208 1.754323,0.98239 0.682205,0.54032 1.374627,0.89942 1.538717,0.79801 0.16409,-0.10141 0.346643,-0.0755 0.405677,0.0576 0.214361,0.4833 3.715024,2.00199 4.61471,2.00199 1.313149,0 4.17985,-1.51014 6.052621,-3.18844 2.02481,-1.81456 7.83722,-7.44181 10.90241,-10.555122 l 2.34672,-2.383564 0.6882,0.622809 c 0.80003,0.724023 1.58267,2.133946 1.58267,2.851197 0,0.5078 0.9613,1.73574 2.76297,3.52935 1.02615,1.02157 4.41123,2.84949 7.37866,3.98443 1.95697,0.74848 4.03622,2.2729 6.00672,4.40389 1.72518,1.86569 2.47425,3.36497 3.216,6.43691 0.83859,3.47299 0.4235,9.38899 -1.13797,16.21854 -1.27354,5.57024 -1.65218,8.74734 -1.53645,12.89243 0.0944,3.38187 0.23171,4.31032 0.81439,5.50757 0.38545,0.792 0.9393,2.40055 1.23076,3.57456 0.29147,1.17401 0.80331,2.42798 1.13743,2.78662 0.33412,0.35863 0.60749,0.87569 0.60749,1.14902 0,0.96523 1.45345,3.30739 2.50031,4.02912 0.58317,0.40206 1.28049,1.1568 1.5496,1.6772 0.45163,0.87336 0.44176,1.01075 -0.12828,1.78484 -1.41752,1.92494 -1.4401,2.13028 -0.40312,3.6668 0.52882,0.78356 0.96149,1.62373 0.96149,1.86705 0,0.24331 0.1894,0.72643 0.42089,1.07359 0.66937,1.00384 1.17911,3.12706 1.17911,4.91137 0,1.34584 -0.27196,2.15583 -1.49173,4.44287 -1.90907,3.57944 -2.02609,3.70587 -4.50288,4.8649 -2.57076,1.203 -3.532,1.20533 -9.58253,0.0232 -0.0314,-0.006 -0.29029,-0.24431 -0.57524,-0.52926 -0.28495,-0.28495 -0.58691,-0.44928 -0.67101,-0.36518 -0.0841,0.0841 -0.36841,1.43325 -0.63179,2.9981 -0.26339,1.56485 -0.77588,4.14118 -1.13888,5.72518 -0.363,1.584 -0.72586,3.21709 -0.80637,3.62909 -0.0838,0.42892 -0.31607,0.68398 -0.54342,0.59673 -0.21837,-0.0838 -0.69546,0.0893 -1.06019,0.38462 -0.62196,0.50364 -0.67475,0.96329 -0.85023,7.40327 -0.17701,6.49616 -0.58008,9.82488 -2.00064,16.52235 -0.18997,0.89564 -0.0468,1.19905 1.20775,2.56 1.86032,2.01806 4.06073,5.02939 4.95785,6.78497 0.39377,0.77057 1.11431,1.92257 1.60119,2.56 2.24781,2.94285 2.9483,4.22448 3.33668,6.10485 0.48086,2.32808 0.15712,3.20655 -1.62411,4.40691 -1.31937,0.88913 -2.5512,0.91565 -5.07534,0.10929 -1.06384,-0.33986 -2.9906,-0.71626 -4.28168,-0.83645 -1.55413,-0.14468 -3.45775,-0.64771 -5.63296,-1.48851 -2.18243,-0.84359 -4.08915,-1.34674 -5.67906,-1.49861 -1.31644,-0.12575 -2.53915,-0.37425 -2.71713,-0.55223 -0.17798,-0.17798 -0.62473,-1.17921 -0.99279,-2.22494 -0.94481,-2.6845 -0.77096,-7.93331 0.33327,-10.06134 0.41097,-0.792 0.83587,-1.51429 0.94423,-1.60509 0.10835,-0.0908 0.5971,-0.60695 1.08609,-1.147 l 0.88909,-0.9819 -0.50815,-3.17301 c -0.74661,-4.66195 -1.02095,-5.81471 -1.97364,-8.293 -0.47359,-1.232 -0.88165,-2.27663 -0.90678,-2.32139 -0.0252,-0.0448 -0.53708,0.17124 -1.13765,0.48 -1.474196,0.7579 -5.620299,0.75782 -6.777089,-1.4e-4 -0.447091,-0.29294 -1.834835,-0.88967 -3.083875,-1.32606 L 88.96,212.19898 v 8.58133 c 0,6.89138 0.08666,8.65325 0.440067,8.94655 1.00345,0.83279 0.886931,3.9163 -0.345881,9.15314 -0.861533,3.6597 -1.596052,5.0027 -2.975415,5.44025 -1.774253,0.56283 -5.672189,2.59313 -6.81328,3.54881 -2.998736,2.51149 -13.031942,5.31569 -15.171677,4.24036 z m 3.670528,-0.55014 c 0.888298,-0.44877 2.673757,-0.92396 4.324445,-1.15092 1.639287,-0.2254 5.671213,-1.95906 5.671213,-2.43852 0,-0.15941 0.190899,-0.28984 0.424221,-0.28984 0.233318,0 0.762419,-0.36 1.175779,-0.8 0.41336,-0.44 0.942461,-0.8 1.175779,-0.8 0.233322,0 0.424221,-0.144 0.424221,-0.32 0,-0.176 0.216707,-0.32 0.481568,-0.32 0.264864,0 1.227814,-0.36 2.139891,-0.8 0.912074,-0.44 1.791072,-0.8 1.953328,-0.8 0.520928,0 1.813971,-1.42117 1.819683,-2 0.0032,-0.308 0.118282,-0.56 0.256087,-0.56 0.137808,0 0.441894,-1.044 0.675747,-2.32 0.233853,-1.276 0.510285,-2.46147 0.614291,-2.63437 0.228592,-0.38002 0.337869,-1.02603 0.58969,-3.48609 0.154893,-1.51316 0.106502,-1.8518 -0.247741,-1.73372 -0.242128,0.0807 -0.530595,0.70267 -0.64104,1.38214 -0.130077,0.80024 -0.53081,1.52364 -1.137686,2.05372 -2.119242,1.85106 -3.177677,2.61478 -3.86176,2.78648 -0.397133,0.0997 -0.722058,0.30961 -0.722058,0.46653 0,0.15692 -0.145062,0.28531 -0.322358,0.28531 -0.177296,0 -1.509296,0.82059 -2.96,1.82353 -1.450704,1.00294 -3.544192,2.15494 -4.652199,2.56 -2.370771,0.86669 -5.107776,0.99121 -5.393974,0.24539 -0.313072,-0.81585 0.573833,-3.35902 1.540528,-4.41742 C 71.591398,237.74473 72,237.10894 72,236.87864 c 0,-0.2303 0.210518,-0.49951 0.467818,-0.59825 0.257302,-0.0987 0.554441,-0.45243 0.66031,-0.786 0.105869,-0.33356 1.17313,-1.60876 2.37169,-2.83376 1.19856,-1.225 2.249449,-2.59478 2.335315,-3.04395 0.192464,-1.00681 -0.01581,-1.02396 -1.038403,-0.0855 -0.713613,0.6549 -1.621069,1.19288 -4.57248,2.71074 -2.646816,1.36121 -7.253952,7.44211 -7.271367,9.59738 -0.0039,0.48438 -0.28871,1.2407 -0.632883,1.6807 -0.531632,0.67965 -0.626838,1.31905 -0.632883,4.25031 -0.0068,3.28222 0.02797,3.46441 0.712883,3.73972 0.941149,0.37829 2.66313,0.4035 3.364342,0.0493 z m 58.867068,-4.51055 c 1.18204,-0.72072 1.6121,-1.93974 1.0892,-3.08738 -0.19833,-0.43531 -0.36061,-1.06768 -0.36061,-1.40527 0,-0.3376 -0.432,-1.10583 -0.96,-1.70719 -0.528,-0.60136 -0.96,-1.20507 -0.96,-1.34157 0,-0.13651 -0.5582,-0.9815 -1.24043,-1.87776 -0.68224,-0.89626 -1.41349,-2.16979 -1.62499,-2.83008 -0.30976,-0.96702 -3.95363,-5.9991 -4.80784,-6.63948 -0.11738,-0.088 -0.33219,-0.448 -0.47735,-0.8 -0.21619,-0.52424 -0.31322,-0.37955 -0.53643,0.8 -0.26455,1.39796 -0.23508,1.47737 1.00922,2.72 2.43733,2.43405 2.81824,2.88851 4.1033,4.89556 1.47115,2.29771 1.8516,3.57826 1.34456,4.52567 -0.47643,0.89024 -2.77959,0.88655 -5.13456,-0.008 -0.96551,-0.36685 -2.04348,-0.74765 -2.39548,-0.84622 -0.352,-0.0986 -0.784,-0.28257 -0.96,-0.40888 -0.176,-0.12631 -0.69267,-0.3184 -1.14814,-0.42686 -0.45548,-0.10847 -1.53548,-0.8593 -2.4,-1.66852 -0.86453,-0.80922 -2.01191,-1.65731 -2.54975,-1.88464 -0.53785,-0.22733 -1.36585,-0.77287 -1.84,-1.2123 -0.76925,-0.71292 -0.86211,-1.02768 -0.86211,-2.92228 0,-1.16782 -0.1312,-2.12331 -0.29156,-2.12331 -0.16035,0 -0.66958,0.44926 -1.13161,0.99836 -1.62441,1.93049 -1.84749,2.71473 -1.89354,6.65674 -0.0378,3.23664 0.0479,3.89701 0.67835,5.2249 0.65988,1.38992 1.14059,1.73342 2.14777,1.53476 0.80121,-0.15804 4.57492,0.78438 5.25375,1.31203 0.41973,0.32627 1.00293,0.59321 1.296,0.59321 0.29306,0 0.66964,0.12076 0.83684,0.26837 0.38336,0.33842 4.1335,1.00597 5.7809,1.02903 0.6837,0.01 1.8911,0.28264 2.6831,0.60682 1.95648,0.80082 4.06237,0.81047 5.35141,0.0245 z m -52.277996,-4.81761 c 1.15546,-0.35688 2.726528,-1.12648 3.491264,-1.71022 1.491194,-1.13826 4.35354,-2.98028 5.702164,-3.66955 0.454761,-0.23243 1.67814,-1.18399 2.718617,-2.11459 l 1.891776,-1.69198 0.115738,-10.5347 c 0.09444,-8.59589 0.0358,-10.59708 -0.318618,-10.87369 -0.573894,-0.4479 -2.645257,-1.49559 -4.426333,-2.23883 -0.787584,-0.32866 -1.88271,-0.90305 -2.433606,-1.27643 -0.550896,-0.37338 -1.757037,-0.92978 -2.680314,-1.23645 -0.923273,-0.30666 -2.438652,-1.17657 -3.36751,-1.93314 l -1.688835,-1.37557 -0.215287,2.46802 c -0.130742,1.49881 -0.08318,2.8155 0.12112,3.35285 0.185024,0.48665 0.33641,1.35065 0.33641,1.91999 0,0.56934 0.121277,1.17197 0.269507,1.33917 0.526285,0.59364 2.625763,6.75956 3.547421,10.41835 1.067235,4.2367 1.372634,8.1746 0.624144,8.0479 -0.252627,-0.0428 -0.766678,0.24523 -1.142336,0.64 -2.21185,2.32434 -2.87065,3.1166 -3.801002,4.57097 -0.568038,0.88799 -1.247625,1.79281 -1.510192,2.01073 -0.665078,0.55196 -1.90887,3.54255 -1.699875,4.08718 0.245642,0.64014 2.000074,0.56156 4.465747,-0.20001 z m 48.416736,-2.40642 c 0.50084,-1.30517 -5.22312,-9.4247 -6.64405,-9.4247 -0.33335,0 -0.6061,-0.126 -0.6061,-0.28 0,-0.154 -0.0841,-0.766 -0.18694,-1.36 -0.14158,-0.81793 -0.10395,-0.96353 0.1551,-0.6 0.18812,0.264 0.36066,0.336 0.38343,0.16 0.0228,-0.176 0.0886,-0.752 0.14626,-1.28 0.0577,-0.528 0.24653,-1.464 0.41965,-2.08 0.17312,-0.616 0.48136,-1.984 0.68498,-3.04 0.20362,-1.056 0.49456,-2.496 0.64654,-3.2 0.61389,-2.84369 1.53032,-15.84 1.11695,-15.84 -0.12361,0 -0.60752,0.29611 -1.07536,0.65803 -1.22661,0.94889 -4.22405,3.01442 -7.69549,5.30294 -2.53034,1.66811 -6.71293,4.2027 -7.22758,4.37981 -0.17213,0.0592 0.0822,1.11343 0.56619,2.34709 0.48326,1.23176 1.02224,2.73289 1.19773,3.33585 0.61323,2.10699 1.61227,8.39658 1.8087,11.38688 0.18581,2.82872 0.2559,3.06383 1.1335,3.80228 0.51449,0.43292 1.1168,0.78712 1.33845,0.78712 0.22165,0 1.28172,0.70522 2.3557,1.56715 1.35145,1.0846 2.7224,1.82513 4.45245,2.405 1.37486,0.46082 2.71574,0.9774 2.97974,1.14795 0.81406,0.52591 3.83117,0.39525 4.05015,-0.1754 z M 65.447027,188.82007 c 1.140135,-0.51696 2.072311,-1.12896 2.071498,-1.36 -0.0029,-0.85426 -1.257936,-8.92787 -1.431331,-9.20843 -0.09881,-0.15988 -1.024852,0.29255 -2.057872,1.00539 -1.79426,1.23813 -1.930285,1.27889 -3.043034,0.91165 -0.64065,-0.21144 -1.916646,-0.89088 -2.835552,-1.50988 -0.918906,-0.619 -2.174736,-1.38314 -2.790736,-1.69808 -0.616,-0.31494 -1.394317,-0.87594 -1.729597,-1.24667 -0.335277,-0.37073 -0.714182,-0.67405 -0.842009,-0.67405 -0.355456,0 -0.948394,2.66836 -0.948394,4.26799 0,2.36954 1.646813,7.26418 2.785066,8.27774 0.987833,0.87962 4.098156,1.67398 8.341961,2.13049 0.223863,0.0241 1.339863,-0.37919 2.48,-0.89615 z m 69.344963,-0.30213 c 2.35299,-1.08046 2.61012,-1.34956 4.31705,-4.51794 1.68666,-3.13074 1.89437,-4.43391 1.09707,-6.88294 -0.80973,-2.4872 -1.43988,-4.11671 -1.66945,-4.31706 -0.10084,-0.088 -0.27757,-0.41527 -0.39274,-0.72726 -0.43532,-1.17926 -1.24864,-1.04225 -2.55559,0.4305 -0.69108,0.77874 -1.51432,1.92009 -1.82943,2.53633 -0.31511,0.61623 -1.12777,1.64503 -1.80591,2.28622 -0.67815,0.64118 -1.41867,1.39718 -1.64561,1.68 -0.57983,0.7226 -1.88239,0.62397 -3.73379,-0.28272 -0.87253,-0.4273 -1.6304,-0.73292 -1.68416,-0.67916 -0.22615,0.22614 -0.48531,8.1702 -0.29171,8.94157 0.2492,0.99289 1.44095,1.68208 3.41795,1.97661 0.78338,0.11671 1.48433,0.27198 1.55766,0.34505 0.47897,0.47726 3.43373,0.0304 5.21866,-0.7892 z M 63.490512,178.7193 c 0.475181,-0.44038 1.288208,-1.02008 1.806726,-1.28822 0.854852,-0.44205 0.945098,-0.64341 0.967824,-2.1593 0.01379,-0.91948 0.08902,-2.71578 0.167178,-3.99178 0.07816,-1.276 0.02698,-2.32 -0.113747,-2.32 -0.140723,0 -0.701418,0.396 -1.245984,0.88 -0.54457,0.484 -1.187299,0.92755 -1.428288,0.98566 -0.240989,0.0581 -0.511527,0.21551 -0.601194,0.34978 -0.240912,0.36076 -1.978246,-0.45996 -2.780368,-1.31344 -1.692025,-1.80039 -2.219677,-2.47431 -2.783849,-3.5556 -0.798765,-1.5309 -1.963949,-2.5943 -2.582528,-2.35693 -0.375194,0.14398 -0.496733,0.68088 -0.498135,2.20049 -9.6e-4,1.10552 -0.159078,2.87404 -0.351241,3.93004 -0.682724,3.7518 -0.639024,4.30176 0.435638,5.48274 0.539158,0.59249 1.217174,1.07726 1.506704,1.07726 0.289526,0 1.02239,0.37562 1.628582,0.83471 1.396992,1.05798 3.462692,2.02915 4.335444,2.03826 0.370297,0.004 1.062057,-0.35328 1.537238,-0.79367 z m -7.277178,-6.45263 C 55.807642,171.86097 56.002483,171.52 56.64,171.52 c 0.713187,0 0.802842,-0.3778 0.308742,-1.30104 -0.599088,-1.1194 -1.268742,-0.74982 -1.268742,0.70022 0,1.13633 -0.06653,1.26397 -0.48,0.92082 -0.501462,-0.41618 -0.639856,-1.838 -0.235101,-2.41535 0.357843,-0.51044 1.686298,-0.48782 1.885811,0.0321 0.09699,0.25276 0.281264,0.39472 0.409488,0.31548 0.128224,-0.0793 0.239984,0.0296 0.248352,0.24184 0.0084,0.21225 0.112653,0.61935 0.231738,0.90466 0.331322,0.79378 -0.95,1.92488 -1.526954,1.34793 z m 74.884626,4.98447 c 0.83799,-0.89588 1.85294,-2.20865 2.25544,-2.91726 0.4025,-0.70862 1.47251,-2.05744 2.37779,-2.99738 2.00026,-2.07684 2.82622,-3.28857 2.81958,-4.1365 -0.006,-0.77101 -0.88756,-1.90857 -1.70115,-2.19522 -0.32471,-0.11441 -0.6655,-0.49528 -0.75732,-0.8464 -0.0918,-0.35111 -0.28298,-0.63838 -0.42481,-0.63838 -0.14182,0 -0.42419,-0.504 -0.62749,-1.12 -0.2033,-0.616 -0.46647,-1.11754 -0.58482,-1.11454 -0.11835,0.003 -0.57148,0.831 -1.00696,1.84 -0.44891,1.04013 -1.48818,2.55139 -2.4,3.48998 -0.88452,0.9105 -2.14144,2.25543 -2.79314,2.98874 -1.07444,1.20897 -1.28331,1.31225 -2.24,1.10761 -0.5803,-0.12413 -1.25677,-0.3887 -1.50329,-0.58793 -0.37619,-0.30404 -0.4169,-0.131 -0.25333,1.07695 0.10719,0.79155 0.28874,2.40259 0.40345,3.58009 0.19602,2.01217 0.27859,2.188 1.37332,2.92442 2.42982,1.63451 3.17122,1.568 5.06273,-0.45418 z m 1.3933,-8.2701 c -0.6291,-1.17548 -0.40049,-2.0946 0.61647,-2.47846 0.70576,-0.26639 1.01988,-0.26388 1.23032,0.01 0.982,1.27728 0.56051,3.08757 -0.71887,3.08757 -0.46013,0 -0.93659,-0.26147 -1.12792,-0.61896 z m 1.6243,-0.53528 c 0.14818,-1.85784 0.1296,-1.89185 -0.8322,-1.52277 -0.46802,0.1796 -0.68172,1.73198 -0.29207,2.12163 0.30516,0.30517 1.0853,-0.11038 1.12427,-0.59886 z m -51.65484,-44.5055 c 1.645024,-3.57241 2.36927,-5.61174 2.564214,-7.22026 0.167268,-1.38019 0.123696,-1.52 -0.473696,-1.52 -0.361846,0 -0.712787,0.16465 -0.779868,0.36589 -0.0915,0.27451 -0.292688,0.27451 -0.805629,0 C 82.589725,115.36465 81.984608,115.2 81.621037,115.2 81.257466,115.2 80.96,115.032 80.96,114.82667 c 0,-0.20534 -0.08314,-0.2902 -0.184755,-0.18858 -0.270467,0.27046 -3.979261,-1.63621 -4.175024,-2.14637 -0.09159,-0.23868 -0.485085,-0.51392 -0.874429,-0.61163 -0.981046,-0.24623 -3.680336,-2.89845 -4.210637,-4.1372 C 71.274317,107.1803 70.555901,106.144 69.918672,105.44 l -1.158595,-1.28 0.197859,1.44 c 0.405821,2.95356 1.207408,5.67831 2.447642,8.32 2.982073,6.35179 3.890262,8.01877 5.145792,9.44513 1.561696,1.77418 4.075347,3.44426 4.568265,3.03517 0.185418,-0.15388 0.788906,-1.2609 1.341085,-2.46004 z m 25.98069,0.67611 c 0.24278,-0.515 0.69561,-1.22437 1.0063,-1.57637 0.6787,-0.76895 3.17491,-5.63897 3.34617,-6.52825 0.0668,-0.34662 0.2582,-0.89156 0.42543,-1.21098 0.16723,-0.31943 0.54952,-1.66077 0.84953,-2.98077 0.5436,-2.39179 0.53856,-4.10941 -0.0313,-10.68235 l -0.19096,-2.202341 -1.03457,1.936341 c -1.874,3.50745 -3.52869,5.63459 -7.42326,9.54274 -3.58666,3.59917 -3.54034,3.46886 -2.1896,6.16031 0.61649,1.22839 1.12089,2.29608 1.12089,2.37263 0,0.0766 0.6538,1.53828 1.4529,3.2483 0.85908,1.83837 1.61111,3.05761 1.84,2.98311 0.2129,-0.0693 0.58574,-0.54737 0.82851,-1.06237 z m -17.009967,38.58266 c -0.557341,-0.43841 -0.865315,-1.08275 -1.02432,-2.14307 -0.211283,-1.40893 -0.162992,-1.56768 0.682755,-2.24448 1.123648,-0.89917 1.709508,-0.91775 2.605908,-0.0826 1.072419,0.9991 1.193318,2.04198 0.387824,3.3453 -0.99577,1.61119 -1.670237,1.89725 -2.652167,1.12487 z m 2.131754,-1.10777 c 0.662397,-1.01095 0.657648,-2.04523 -0.0128,-2.78606 -0.695466,-0.76848 -1.554525,-0.74108 -2.371251,0.0756 -1.102349,1.10235 -0.319277,3.49915 1.143225,3.49915 0.416413,0 0.943584,-0.3351 1.240819,-0.78874 z M 96,156.71222 c 0,-1.16295 0.12727,-2.19311 0.282822,-2.28924 0.261754,-0.16178 0.102045,3.96754 -0.165164,4.27035 C 96.052944,158.76667 96,157.87516 96,156.71222 Z M 90.760698,149.04 c -0.808215,-1.28159 -0.901693,-2.08942 -0.340829,-2.94541 0.687638,-1.04947 1.636173,-1.03393 2.762621,0.0453 1.077404,1.03222 1.14719,2.08258 0.197171,2.96766 -0.923344,0.86023 -2.052243,0.83112 -2.618963,-0.0675 z m 2.173129,-0.11424 c 0.662915,-0.25438 0.649143,-1.67739 -0.02342,-2.42056 -0.291277,-0.32186 -0.867277,-0.5852 -1.28,-0.5852 -0.640851,0 -0.750403,0.15969 -0.750403,1.09383 0,1.96811 0.556768,2.48641 2.053827,1.91193 z M 89.274323,135.4401 c -0.5284,-0.67175 -0.648275,-1.14487 -0.506749,-2 0.101962,-0.61606 0.186967,-1.34495 0.188903,-1.61976 0.0056,-0.7888 1.231542,-1.90034 2.09599,-1.90034 0.433143,0 1.907119,0.82164 1.877656,1.17442 -0.01465,0.17539 -1.460408,-0.53442 -1.912981,-0.53442 -1.165238,0 -1.611616,0.58477 -1.813481,2.37573 -0.151562,1.34465 -0.07176,1.66526 0.575648,2.31267 0.938579,0.93858 1.479849,0.94531 2.541875,0.0316 0.650154,-0.55935 0.84105,-1.02382 0.85559,-2.08173 0.0103,-0.74895 -0.159897,-1.57695 -0.378211,-1.84 -0.323773,-0.39012 -0.303513,-0.47827 0.10992,-0.47827 0.628451,0 1.274515,2.19821 0.985043,3.35156 -0.499532,1.99029 -3.406102,2.75075 -4.619203,1.20854 z"
         id="path680" />
    </g>
  </g>
</svg>
