<?xml version="1.0" encoding="UTF-8" standalone="no"?>
<!-- Created with Inkscape (http://www.inkscape.org/) -->

<svg
   version="1.1"
   id="svg4518"
   width="192"
   height="288"
   viewBox="0 0 192 288"
   sodipodi:docname="head3.svg"
   inkscape:version="1.2.2 (732a01da63, 2022-12-09)"
   xmlns:inkscape="http://www.inkscape.org/namespaces/inkscape"
   xmlns:sodipodi="http://sodipodi.sourceforge.net/DTD/sodipodi-0.dtd"
   xmlns="http://www.w3.org/2000/svg"
   xmlns:svg="http://www.w3.org/2000/svg">
  <sodipodi:namedview
     id="namedview2385"
     pagecolor="#ffffff"
     bordercolor="#000000"
     borderopacity="0.25"
     inkscape:showpageshadow="2"
     inkscape:pageopacity="0.0"
     inkscape:pagecheckerboard="0"
     inkscape:deskcolor="#d1d1d1"
     showgrid="false"
     inkscape:zoom="2.8263889"
     inkscape:cx="96.058968"
     inkscape:cy="144.1769"
     inkscape:window-width="1920"
     inkscape:window-height="1001"
     inkscape:window-x="-9"
     inkscape:window-y="-9"
     inkscape:window-maximized="1"
     inkscape:current-layer="svg4518" />
  <defs
     id="defs4522" />
  <g
     id="g4524">
    <g
       id="g4528"
       transform="translate(5.6666673,4.1666663)">
      <path
         style="fill:#fae3c7;stroke-width:0.32"
         d="m 87.84,113.50949 c -0.528,-0.21568 -1.882326,-1.00355 -3.009613,-1.75082 C 83.703101,111.0114 82.61991,110.4 82.423299,110.4 c -0.196614,0 -0.858288,-0.40561 -1.47039,-0.90135 C 80.34081,109.00291 78.688,107.98444 77.28,107.2354 c -1.408,-0.74904 -3.064,-1.83306 -3.68,-2.40894 -0.616,-0.57588 -1.696,-1.38241 -2.4,-1.79227 -0.704,-0.40987 -1.856,-1.27883 -2.56,-1.93103 -0.704,-0.65219 -2.194659,-2.031205 -3.312576,-3.064482 -3.702678,-3.422332 -6.438413,-7.959475 -6.444298,-10.687705 -0.0037,-1.705891 1.758445,-5.491965 4.197194,-9.018016 0.731565,-1.057728 0.760416,-2.284602 0.09718,-4.132723 -0.750265,-2.090634 -0.470005,-7.684428 0.51348,-7.684428 0.135888,0 0.47088,-0.375826 0.582384,-0.727135 0.205248,-0.646678 0.246739,-1.164236 -1.116407,-5.086978 C 62.74063,59.503622 62.4,58.085386 62.4,57.550054 c 0,-1.3359 0.841597,-2.993532 2.025712,-3.9899 0.876202,-0.737274 1.177149,-0.810324 2.63329,-0.639184 3.012675,0.354083 5.062588,-0.772039 6.629939,-3.642151 l 0.568937,-1.041837 2.311063,0.154541 c 1.974985,0.132067 2.753133,0.382407 5.351059,1.721507 2.864195,1.476352 3.179411,1.566167 5.450682,1.553069 2.055766,-0.01184 2.644675,-0.148937 4,-0.931126 C 92.244806,50.230496 93.896,49.31279 95.04,48.695626 96.184,48.078464 97.957178,46.880323 98.980394,46.033094 100.83162,44.500272 103.18063,43.52 105.00247,43.52 c 1.16877,0 4.11671,0.777664 5.33383,1.407062 1.54041,0.796576 4.20077,3.57745 4.84762,5.067229 0.887,2.042842 1.12708,4.465501 0.5526,5.57641 -0.3591,0.694422 -0.47829,2.167005 -0.49051,6.060115 -0.0164,5.211802 0.37708,7.919555 1.31375,9.041363 0.24239,0.290301 0.93003,1.355821 1.52809,2.367821 0.59805,1.012 1.18981,1.84 1.31502,1.84 0.12521,0 0.90864,0.972 1.74097,2.16 1.37348,1.960394 1.51128,2.322643 1.49112,3.92 -0.0122,0.968 -0.25008,2.295376 -0.52858,2.949722 -0.27851,0.654348 -0.50638,1.489497 -0.50638,1.855891 0,1.004339 -0.63301,2.723902 -2.44887,4.852036 -0.89949,1.054173 -1.99377,2.363158 -2.52177,2.980873 -1.36985,1.602608 -8.96842,8.964198 -13.10936,13.049618 -2.25231,2.22211 -4.5572,4.12808 -6.4,5.29233 -2.87015,1.81331 -2.889302,1.81977 -5.6,1.89036 -1.580397,0.0411 -3.122214,-0.0935 -3.68,-0.32134 z m 8.463434,-16.40974 c 2.403142,-0.415353 3.086845,-1.218288 3.021766,-1.401216 -0.04171,-0.117252 -0.285987,0.0038 -0.399165,0.22698 -0.599121,1.181266 -9.175862,1.830275 -12.046035,1.240451 -0.704,-0.144675 -1.205253,-0.158974 -1.084192,-0.06536 0.419145,0.324115 5.561254,0.854061 10.507626,-9.6e-4 z m -4.522045,-8.167267 c 0.766445,-0.267184 1.184336,-0.75695 1.80775,-2.118672 0.445975,-0.974131 0.801229,-2.07775 0.789453,-2.45248 -0.01261,-0.40079 -0.193446,-0.13112 -0.439229,0.654931 -0.598688,1.914688 -1.672435,3.520388 -2.502979,3.742992 -1.38505,0.371226 -5.854275,0.215213 -6.456842,-0.225395 -0.320528,-0.234374 -0.691491,-0.990374 -0.824361,-1.68 -0.240291,-1.247155 -0.241779,-1.248221 -0.278381,-0.199315 -0.02538,0.726678 0.207405,1.298752 0.748656,1.84 0.709206,0.70921 1.046269,0.785456 3.472246,0.785456 1.477738,0 3.135396,-0.156384 3.683687,-0.347517 z M 76.93897,81.28881 c 0.715564,-0.347156 1.488297,-0.932842 1.717184,-1.301524 l 0.41615,-0.670329 -0.924614,0.683597 c -1.327808,0.981689 -3.145533,1.316931 -4.86769,0.897744 -1.868224,-0.454743 -2.41928,-0.748679 -4.180595,-2.22994 -1.468173,-1.234732 -2.826759,-1.685004 -2.312739,-0.766505 0.484739,0.866185 4.067433,3.191072 5.522262,3.58352 2.08921,0.563571 3.15663,0.518256 4.630042,-0.196563 z m 30.38449,-2.285994 c 1.73245,-1.1704 2.65335,-2.048637 3.22996,-3.080304 0.9227,-1.65088 0.98614,-2.002512 0.36133,-2.002512 -0.24489,0 -0.66449,0.54791 -0.93244,1.217578 -0.47456,1.186041 -3.03805,3.665513 -4.69931,4.545283 -0.43836,0.232144 -1.68412,0.434467 -2.76838,0.449609 -1.08425,0.01514 -1.9051,0.13553 -1.82411,0.26753 0.081,0.132 1.06128,0.24 2.17841,0.24 1.91442,0 2.17043,-0.09409 4.45454,-1.637184 z M 76.236986,78.5148 c 1.260848,-0.644262 2.007731,-1.954954 1.97414,-3.464374 -0.04432,-1.991226 -1.01559,-4.529975 -2.073705,-5.42032 -1.182589,-0.995082 -1.05669,-1.518391 0.177556,-1.518391 0.624573,0 1.492247,0.578883 2.421075,1.252995 2.661492,1.931616 2.945559,2.113727 0.774016,0.208447 -0.907879,-0.796559 -1.922358,-1.729066 -3.099827,-1.729066 -0.736563,0 -1.637966,0.224396 -2.259531,0.581282 -0.613254,0.352115 -1.923396,0.87528 -2.803396,1.288621 -0.88,0.413344 -2.342655,1.079203 -3.070293,1.677747 -0.727639,0.598541 -1.794192,1.346505 -2.370119,1.662141 -0.704748,0.386233 -0.9415,0.67952 -0.72406,0.89696 0.21744,0.21744 0.683545,0.110403 1.425494,-0.32736 l 1.102413,-0.650439 0.362256,1.353479 c 0.578707,2.162192 1.584495,3.228552 3.548069,4.069848 1.849789,0.792548 2.954676,0.967281 4.615912,0.118428 z m -6.977104,-4.62735 c -0.159181,-0.257565 -0.1037,-0.302861 0.166451,-0.135895 0.234886,0.145165 0.534934,0.06507 0.713805,-0.190557 0.257856,-0.368502 0.28814,-0.365376 0.184224,0.01901 -0.166036,0.614144 -0.767559,0.787879 -1.06448,0.30745 z m 36.835098,2.103921 c 2.78904,-1.056743 3.5521,-4.155269 1.52946,-6.559035 C 107.18371,68.90855 106.91598,68.48 107.0295,68.48 c 0.46165,0 4.21647,2.006614 4.83112,2.581795 0.7831,0.732813 1.41938,0.801658 1.41938,0.153578 0,-0.595232 -2.05434,-1.972903 -5.18027,-3.473962 C 105.93806,66.703382 105.34832,66.56 103.24057,66.56 c -2.95669,0 -3.445533,0.194195 -5.594423,2.2224 -1.862041,1.757466 -1.664547,2.263968 0.231607,0.593994 l 1.162246,-1.02361 0.199011,1.250924 c 0.626575,3.938459 0.878749,4.933876 3.299289,6.047751 1.56054,0.718125 2.32212,0.807672 3.55668,0.339912 z M 99.666842,70.05871 c -0.11601,-0.187708 -0.142298,-0.40992 -0.05842,-0.493801 0.08388,-0.08388 0.237779,0.0697 0.342,0.341289 0.216378,0.563876 0.03197,0.66306 -0.283584,0.152512 z M 99.84,68.818886 c 0,-0.165612 0.142352,-0.389094 0.31634,-0.49662 0.18139,-0.112109 0.23504,0.01635 0.12576,0.301113 -0.21273,0.554375 -0.4421,0.655805 -0.4421,0.195507 z M 68.592462,68.157261 c 1.390803,-1.278284 4.446332,-2.202957 6.447538,-2.209351 0.88,-0.0029 2.464,0.203508 3.52,0.45849 3.406301,0.822483 3.656064,0.61033 2.124538,-1.804634 -0.770109,-1.214336 -1.22882,-1.557788 -2.889047,-2.163139 l -1.973584,-0.719603 -2.630953,0.657827 c -1.886381,0.471658 -2.812077,0.87841 -3.270954,1.437264 -1.006618,1.225933 -2.193563,3.702946 -2.195732,4.18525 -9.6e-4,0.241168 -0.409503,0.706456 -0.655526,1.178014 -0.495222,0.949203 -0.382541,1.481036 0.128458,0.569987 0.176416,-0.314528 0.812385,-1.054383 1.395262,-1.590105 z M 95.453507,67.85113 C 95.666077,67.681251 96.344,67.131661 96.96,66.629818 c 2.902496,-2.364605 6.18451,-3.820758 8.38869,-3.193721 0.70561,0.200726 1.62331,0.681552 1.93131,0.942467 0.308,0.260915 0.5622,0.55031 0.5649,0.391033 0.003,-0.15928 0.11069,-0.145597 0.24,0.0304 0.31888,0.434038 2.67473,1.507043 2.87315,1.308617 0.30331,-0.303305 -0.24665,-1.762681 -0.96033,-2.548348 -0.91568,-1.008032 -5.69391,-3.080266 -7.1026,-3.080266 -0.63113,0 -2.17494,0.56071 -3.744499,1.36 -2.350007,1.19673 -2.754016,1.532874 -3.365271,2.8 -0.732019,1.517466 -1.253856,3.52 -0.91727,3.52 0.109411,0 0.372854,-0.138992 0.585427,-0.30887 z M 60.677091,79.975571 c -0.507433,-1.589097 -0.509753,-3.973389 -0.0052,-5.294662 l 0.541943,-1.419056 -1.166938,-1.694346 c -1.230506,-1.78664 -1.393517,-2.560112 -0.809629,-3.841606 0.376743,-0.826864 1.598419,-1.192663 3.053936,-0.914426 0.573258,0.109587 0.728851,0.290682 0.575114,0.669376 -0.115914,0.285533 -0.363495,1.475991 -0.550179,2.645463 -0.280541,1.757459 -0.2472,2.454988 0.192198,4.020992 0.29239,1.042076 0.531619,2.124665 0.531619,2.405756 0,0.7865 -2.191187,3.960282 -2.362909,3.422509 z m 57.867919,-8.025833 c -0.2982,-0.588356 -0.75004,-1.307258 -1.00408,-1.597559 -0.25403,-0.290304 -0.66696,-1.298304 -0.91761,-2.24 -1.02634,-3.85599 -0.22705,-6.992179 1.78202,-6.992179 1.35223,0 1.49193,0.650525 0.67727,3.153904 -0.81825,2.514403 -0.89505,5.539488 -0.18386,7.241603 0.63476,1.51921 0.36439,1.851111 -0.35374,0.434231 z"
         id="skin" />
      <path
         style="fill:#c46122;stroke-width:0.32"
         d="m 71.723536,77.868307 c -0.880506,-0.444614 -0.992096,-0.605891 -0.613008,-0.885936 0.254902,-0.188304 0.557443,-0.719997 0.672314,-1.181542 0.150684,-0.605443 0.477392,-0.892877 1.173008,-1.032 0.632441,-0.126487 0.967113,-0.388247 0.972758,-0.760829 0.0064,-0.42463 0.237162,-0.2924 0.91408,0.523856 0.560186,0.675498 1.086582,1.022362 1.380413,0.909606 0.785203,-0.301312 1.332637,0.224352 0.959577,0.921421 -0.937718,1.752141 -3.546086,2.471431 -5.459142,1.505424 z m 31.014624,-2.734345 c -1.31264,-0.602029 -1.3766,-0.685188 -0.83286,-1.082788 0.32394,-0.23687 0.7272,-0.345254 0.89613,-0.240851 0.18244,0.112755 0.21976,-0.08546 0.0919,-0.488237 -0.16445,-0.518128 -0.10296,-0.634982 0.26071,-0.49543 0.69373,0.266208 1.80593,-0.431747 1.80593,-1.133299 0,-0.532103 0.10639,-0.502147 0.89239,0.251257 0.49082,0.470464 1.17482,1.028624 1.52,1.240359 0.59842,0.367069 0.57201,0.437769 -0.56769,1.52 -1.36157,1.292912 -2.02929,1.36335 -4.06654,0.428989 z M 104.32,74.24 c 0,-0.176 -0.144,-0.32 -0.32,-0.32 -0.176,0 -0.32,0.144 -0.32,0.32 0,0.176 0.144,0.32 0.32,0.32 0.176,0 0.32,-0.144 0.32,-0.32 z"
         id="eye_lower" />
      <path
         style="fill:#a45806;stroke-width:0.32"
         d="m 71.244278,76.32 c 0.101309,-0.264 0.240788,-0.48 0.309959,-0.48 0.06917,0 0.125763,0.216 0.125763,0.48 0,0.264 -0.139482,0.48 -0.309958,0.48 -0.170474,0 -0.227069,-0.216 -0.125764,-0.48 z m 5.111911,-1.178554 c 0.09242,-0.149536 0.302083,-0.18904 0.465923,-0.08778 0.418682,0.258759 0.371539,0.359667 -0.168035,0.359667 -0.256259,0 -0.390307,-0.122348 -0.297888,-0.271887 z M 103.68,74.221114 c 0,-0.186388 0.144,-0.249888 0.32,-0.141114 0.176,0.108774 0.32,0.261274 0.32,0.338886 0,0.07761 -0.144,0.141114 -0.32,0.141114 -0.176,0 -0.32,-0.152499 -0.32,-0.338886 z m -1.40704,-0.674448 C 102.36361,73.4 102.57327,73.28 102.73889,73.28 c 0.16561,0 0.30111,0.12 0.30111,0.266666 0,0.146668 -0.20967,0.266668 -0.46592,0.266668 -0.25626,0 -0.39176,-0.12 -0.30112,-0.266668 z M 75.52,72.621114 c 0,-0.186388 0.144,-0.249888 0.32,-0.141114 0.176,0.108774 0.32,0.261274 0.32,0.338886 0,0.07761 -0.144,0.141114 -0.32,0.141114 -0.176,0 -0.32,-0.152499 -0.32,-0.338886 z M 102.08,72.64 c 0,-0.176 0.1525,-0.32 0.33889,-0.32 0.18638,0 0.24988,0.144 0.14111,0.32 -0.10877,0.176 -0.26127,0.32 -0.33889,0.32 -0.0776,0 -0.14111,-0.144 -0.14111,-0.32 z M 67.711508,68.062829 C 67.63221,68.052256 67.844,67.202947 68.24,66.779882 c 0.396,-0.423066 0.929687,-1.442471 1.402029,-2.139309 0.721732,-1.064759 1.344643,-1.249786 2.971945,-1.702218 1.064999,-0.296096 2.347612,-0.71197 2.922268,-0.708105 1.694746,0.01139 5.439584,1.941886 4.864544,2.516923 C 80.291836,64.856127 80.030687,64.96 80.19857,64.96 c 0.167878,0 0.63629,0.39112 0.662805,0.74312 0.02653,0.352 -0.312559,0.53688 -0.375419,0.53688 -0.06285,0 -1.082455,-0.08563 -2.19378,-0.370337 -2.427648,-0.621933 -5.85173,-0.614457 -6.964293,0.164814 -0.412659,0.289037 -0.98393,0.525523 -1.269491,0.525523 -0.285562,0 -0.779837,0.288 -1.098394,0.64 -0.500446,0.572075 -0.680864,0.819601 -1.24849,0.862829 z m 27.614131,-2.039238 c 0.316682,-1.447808 1.481521,-2.81924 4.168359,-4.082013 2.759442,-1.296894 4.231652,-1.304184 7.210792,0.195713 1.26467,0.63672 2.50184,1.315358 2.69524,1.562098 0.1934,0.246739 0.35701,0.516902 0.47161,0.402304 0.1146,-0.114599 0.20836,0.03165 0.20836,0.324973 0,0.715376 -0.0624,0.7019 -2.76236,-0.59674 -2.33075,-1.121043 -2.36681,-1.127168 -4.51358,-0.766371 -2.07287,0.348375 -4.323196,1.366087 -5.50366,2.489031 -0.304938,0.290076 -0.879843,0.71711 -1.277574,0.94896 -0.703693,0.410208 -0.923135,0.55504 -0.697187,-0.477955 z M 59.84,65.710589 c 0,-0.445114 -0.251294,-0.707115 -0.574731,-0.821624 -0.840714,-0.297651 -3.552267,-3.409775 -4.258856,-4.794802 -0.488794,-0.958115 -0.635402,-1.982585 -0.689469,-4.817945 -0.06481,-3.398528 -0.02003,-3.684106 0.796314,-5.077069 0.706252,-1.20513 1.190563,-1.608128 2.639184,-2.19608 2.718707,-1.103443 3.536496,-2.535424 6.61414,-11.581626 1.35849,-3.993046 2.57465,-6.025715 4.066932,-6.797404 1.771929,-0.9163 5.07806,-1.210447 11.0148,-0.979988 4.80767,0.186629 6.033811,0.136146 7.92,-0.326088 C 88.595741,28.017166 89.6,27.653739 89.6,27.510347 c 0,-0.143393 0.482397,-0.419919 1.071997,-0.614504 0.589597,-0.194585 2.713597,-1.296574 4.72,-2.448865 4.257465,-2.445093 5.928913,-2.833399 7.975753,-1.852904 0.6957,0.333259 1.26656,0.750208 1.26858,0.926553 0.004,0.370716 6.78882,7.233439 11.54637,11.679373 4.89278,4.572298 6.48184,6.913597 7.97633,11.752186 0.77173,2.498582 0.80788,4.193926 0.13882,6.509734 -1.04133,3.604266 -3.52844,7.239056 -4.93785,7.216422 -0.44,-0.0071 -1.25015,0.09694 -1.80033,0.23112 l -1.00033,0.243962 -0.15479,-2.01671 c -0.10445,-1.360999 6.4e-4,-2.413866 0.32367,-3.238196 0.63497,-1.621046 0.32704,-4.536067 -0.6915,-6.54606 -0.70776,-1.396692 -2.57807,-3.334228 -4.9042,-5.080461 -1.00599,-0.755207 -4.66536,-1.783533 -6.27362,-1.762967 -1.66284,0.02125 -4.38543,1.175812 -5.953415,2.524618 -0.806016,0.69335 -2.329485,1.73912 -3.385485,2.323933 -1.056,0.584809 -2.442483,1.391344 -3.081072,1.792297 -3.308445,2.077274 -6.24596,2.471569 -9.384379,0.914436 -1.083843,-0.537751 -2.06084,-1.260298 -2.243125,-1.407607 C 80.403987,48.32745 76.663763,47.36 75.798262,47.36 c -1.212627,0 -2.481318,0.96551 -3.338736,2.540874 -0.637212,1.170764 -1.103305,1.639388 -1.7779,1.787555 -0.502858,0.110445 -0.775465,0.451582 -0.875871,0.614043 -0.100406,0.162457 -1.191909,0.371001 -2.281521,0.373404 -2.721968,0.006 -3.229085,-0.02662 -4.286992,1.453938 -1.322759,1.85122 -1.261965,3.510116 -0.233898,6.487159 0.461287,1.335779 0.941821,2.6601 0.941821,2.924932 0,0.264829 -0.101021,0.729615 0.0996,1.05086 0.697414,1.116739 -0.05709,1.726448 -2.24208,1.811817 C 59.921174,66.478096 59.84,66.449392 59.84,65.710589 Z"
         id="hair"
         inkscape:label="hair1" />
      <path
         style="fill:#904715;stroke-width:0.32"
         d="M 69.831203,76.621856 C 68.880298,75.955814 68.91431,75.2 69.895184,75.2 c 0.604781,0 0.857891,-0.250608 1.151437,-1.140064 0.322147,-0.976118 0.296358,-1.228352 -0.179347,-1.753997 C 70.41319,71.804182 70.38537,71.603203 70.715018,71.206003 70.936858,70.938701 71.330515,70.72 71.589808,70.72 c 0.259296,0 0.888986,-0.246646 1.399312,-0.548106 l 0.927869,-0.548102 1.379491,1.353869 c 1.057434,1.037792 1.455344,1.724144 1.704384,2.939878 0.243053,1.186509 0.232576,1.509395 -0.0416,1.28185 -0.236928,-0.196634 -0.507997,-0.165443 -0.766762,0.08822 -0.317491,0.311235 -0.560454,0.193846 -1.174796,-0.567613 -0.425991,-0.528 -0.775242,-1.14 -0.776116,-1.36 -9.6e-4,-0.22 -0.135305,-0.4 -0.298732,-0.4 -0.163431,0 -0.527444,-0.230301 -0.808922,-0.511779 -0.782141,-0.782141 -1.432422,-0.08049 -1.14607,1.236601 0.166256,0.764717 0.05093,1.348058 -0.441405,2.232714 -0.763088,1.371162 -0.763165,1.371194 -1.715258,0.70432 z M 75.738595,74.5 c -0.10215,-0.255274 -0.177977,-0.17945 -0.193331,0.193334 -0.01389,0.337332 0.06173,0.526333 0.16807,0.42 0.106333,-0.106336 0.1177,-0.382336 0.02525,-0.613334 z M 76.16,72.818886 c 0,-0.07761 -0.144,-0.230112 -0.32,-0.338886 -0.176,-0.108774 -0.32,-0.04527 -0.32,0.141114 0,0.186387 0.144,0.338886 0.32,0.338886 0.176,0 0.32,-0.0635 0.32,-0.141114 z m 24.4,0.63368 c -0.44141,-0.441363 -0.72,-1.109292 -0.72,-1.726243 0,-1.047952 0.26693,-1.251389 0.86164,-0.656678 0.25087,0.250864 0.53178,0.252173 0.99432,0.0046 0.55978,-0.299587 0.68781,-0.221229 0.97239,0.595117 0.27072,0.776592 0.21618,1.081942 -0.31353,1.755369 -0.75848,0.96425 -0.85675,0.96577 -1.79482,0.02781 z m 2,-0.812566 c 0.10877,-0.176 0.0453,-0.32 -0.14111,-0.32 -0.18639,0 -0.33889,0.144 -0.33889,0.32 0,0.176 0.0635,0.32 0.14111,0.32 0.0776,0 0.23012,-0.144 0.33889,-0.32 z m 3.92586,-0.198515 c -0.65678,-0.419863 -1.28344,-1.119184 -1.39259,-1.554048 -0.14756,-0.587933 -0.48175,-0.843811 -1.30336,-0.997946 -0.96289,-0.18064 -1.09238,-0.315395 -1.00741,-1.048387 0.0863,-0.744291 0.23989,-0.842202 1.33458,-0.850653 0.82904,-0.0064 1.29335,0.15193 1.40768,0.48 0.0938,0.269251 0.41524,0.777549 0.71423,1.129549 0.52975,0.623661 1.72076,3.357763 1.5344,3.522378 -0.0514,0.04537 -0.63075,-0.261031 -1.28753,-0.680893 z"
         id="eye_upper" />
      <path
         style="fill:#73492c;stroke-width:0.32"
         d="m 73.6,78.4 c 0.44,-0.140912 1.088,-0.256205 1.44,-0.256205 0.506774,0 0.473466,0.05334 -0.16,0.256205 -0.44,0.140912 -1.088,0.256205 -1.44,0.256205 -0.506774,0 -0.473466,-0.05334 0.16,-0.256205 z m 2.72,-0.96 c 0.318557,-0.352 0.651194,-0.64 0.739194,-0.64 0.088,0 -0.100637,0.288 -0.419194,0.64 -0.318557,0.352 -0.651194,0.64 -0.739194,0.64 -0.088,0 0.100637,-0.288 0.419194,-0.64 z m -6.24,-0.338886 c 0,-0.186388 0.144,-0.249888 0.32,-0.141114 0.176,0.108774 0.32,0.261274 0.32,0.338886 0,0.07761 -0.144,0.141114 -0.32,0.141114 -0.176,0 -0.32,-0.152499 -0.32,-0.338886 z m 32.48,-1.739332 c -0.528,-0.234304 -1.392,-0.889219 -1.92,-1.455369 -0.742867,-0.796541 -0.805664,-0.949616 -0.27765,-0.676778 0.37529,0.193923 0.76336,0.563674 0.86236,0.821674 0.099,0.257997 0.79995,0.753865 1.55765,1.101926 0.7577,0.348061 1.23364,0.633226 1.05764,0.633699 -0.176,3.2e-4 -0.752,-0.190844 -1.28,-0.425152 z m 4.11508,-0.491385 c 1.08701,-0.971248 1.60197,-1.003725 0.73559,-0.04639 -0.29263,0.323364 -0.47186,0.648244 -0.39828,0.721962 0.0736,0.07372 -0.19822,0.153811 -0.60401,0.177984 -0.69842,0.0416 -0.68418,-0.0039 0.2667,-0.853556 z M 68.8,75.180899 c 0,-0.125542 0.432,-0.291664 0.96,-0.369158 0.528,-0.07749 0.96,-0.03818 0.96,0.08736 0,0.125542 -0.432,0.291664 -0.96,0.369158 -0.528,0.07749 -0.96,0.03818 -0.96,-0.08736 z m 6.745264,-0.487565 c 0.01536,-0.372784 0.09118,-0.448608 0.193331,-0.193334 0.09244,0.230998 0.08107,0.506998 -0.02525,0.613334 -0.106336,0.106333 -0.181965,-0.08267 -0.16807,-0.42 z m 1.432515,-0.631113 c -0.120477,-0.642189 -0.155049,-1.231619 -0.07682,-1.30984 0.07822,-0.07822 0.240793,0.383206 0.361267,1.025398 0.120477,0.642189 0.155049,1.231619 0.07682,1.30984 -0.07822,0.07822 -0.240793,-0.383206 -0.361267,-1.025398 z M 72.209443,74.64 C 72.127862,74.508 72.393613,74.4 72.8,74.4 c 0.406387,0 0.672138,0.108 0.590557,0.24 -0.08158,0.132 -0.347331,0.24 -0.590557,0.24 -0.243226,0 -0.508976,-0.108 -0.590557,-0.24 z m 1.303159,-1.339658 c -0.112135,-0.428796 -0.02707,-0.561392 0.283616,-0.442163 0.503849,0.193344 0.581379,0.619011 0.160163,0.879338 -0.155991,0.09641 -0.355693,-0.100323 -0.443779,-0.437175 z M 68.684278,73.12 c -0.101305,-0.264 -0.04471,-0.48 0.125764,-0.48 0.170476,0 0.309958,0.216 0.309958,0.48 0,0.264 -0.0566,0.48 -0.125763,0.48 -0.06917,0 -0.20865,-0.216 -0.309959,-0.48 z M 70.64,72.60681 c -0.693085,-1.211261 -0.697872,-1.445431 -0.03474,-1.699898 0.441721,-0.169504 0.460144,-0.123101 0.115837,0.291766 -0.337581,0.406762 -0.311687,0.601328 0.147577,1.108807 0.306352,0.338515 0.506224,0.764547 0.444163,0.946739 C 71.250778,73.436416 70.948,73.145078 70.64,72.60681 Z m 1.443808,-0.187764 c 0.297526,-0.297523 0.648211,-0.433692 0.779306,-0.302598 0.131094,0.131091 0.02653,0.372317 -0.232381,0.536051 -0.779063,0.492695 -1.125287,0.344912 -0.546925,-0.233453 z m 30.636762,-0.577328 c -0.32439,-0.982892 -0.44609,-1.077059 -1.00527,-0.777792 -0.46681,0.249828 -0.76507,0.233546 -1.12014,-0.06114 -0.39179,-0.325155 -0.53996,-0.31415 -0.778162,0.05779 C 99.610102,71.383645 99.538189,71.18759 99.57471,70.4 99.60325,69.784 99.50618,69.004378 99.358941,68.667507 99.168454,68.231677 99.199226,68.12175 99.465619,68.28639 99.67153,68.413651 99.84,68.36527 99.84,68.178886 c 0,-0.186387 0.24352,-0.338886 0.54116,-0.338886 0.48472,0 0.47977,0.04489 -0.0474,0.430371 -0.57111,0.41761 -0.57088,0.460314 0.008,1.44 0.62068,1.050714 0.95509,1.19192 1.70223,0.718765 0.43351,-0.274541 0.39033,-1.142413 -0.1169,-2.349136 -0.20842,-0.495853 -0.0237,-0.56 1.61218,-0.56 1.01617,0 1.73908,0.108 1.60648,0.24 -0.1326,0.132 -0.6966,0.24 -1.25333,0.24 -0.85485,0 -1.02741,0.130781 -1.10974,0.841104 -0.0854,0.737018 0.0433,0.86751 1.04,1.054499 0.98165,0.18416 1.1375,0.336141 1.1375,1.109303 0,0.881616 -0.83479,1.955094 -1.52038,1.955094 -0.1925,0 -0.51607,-0.503226 -0.71906,-1.118282 z M 104.256,72.256 c 0.5497,-0.549699 0.47391,-1.753024 -0.12488,-1.982803 -0.74465,-0.285751 -1.09112,0.04841 -1.09112,1.052355 0,1.29249 0.48378,1.662666 1.216,0.930448 z m 2.94553,-0.891376 c -0.2315,-0.701456 -0.68655,-1.515773 -1.01122,-1.809597 C 105.86564,69.261206 105.6,68.798758 105.6,68.527363 c 0,-0.69927 1.90081,1.969936 2.23658,3.14072 0.4145,1.445255 -0.14638,1.177245 -0.63505,-0.303459 z m -31.921031,-0.39471 -1.328125,-1.328128 -1.123555,0.605072 c -0.617955,0.33279 -1.180781,0.539388 -1.250723,0.459107 -0.06994,-0.08028 0.497725,-0.462896 1.261485,-0.850256 l 1.388653,-0.704291 0.973094,0.818806 c 0.960509,0.808214 1.765421,1.969693 1.528912,2.206202 -0.06689,0.06689 -0.71927,-0.476045 -1.449741,-1.206512 z"
         id="eye_detail_2" />
      <path
         style="fill:#573824;stroke-width:0.32"
         d="m 75.84,78.269139 c 0,-0.06092 0.216,-0.290038 0.48,-0.509139 0.276669,-0.229616 0.48,-0.260717 0.48,-0.07342 0,0.17872 -0.216,0.407831 -0.48,0.50914 -0.264,0.101305 -0.48,0.134342 -0.48,0.07342 z m -5.094736,-4.215805 c 0.01536,-0.372784 0.09118,-0.448608 0.193331,-0.193334 0.09244,0.230998 0.08107,0.506998 -0.02525,0.613334 -0.106336,0.106333 -0.181965,-0.08267 -0.16807,-0.42 z m 1.370458,0.02666 c -0.387226,-1.009094 0.762073,-2.029667 1.301948,-1.156128 0.09649,0.156128 -0.06949,0.264128 -0.368854,0.24 -0.299363,-0.02413 -0.600336,0.22872 -0.668832,0.561892 -0.09866,0.47991 0.01523,0.569212 0.548179,0.429843 0.369997,-0.09676 0.592023,-0.04535 0.493392,0.114237 -0.282854,0.45767 -1.10312,0.338419 -1.305833,-0.189844 z M 104.253,71.460752 c 0.13991,-0.731872 0.0722,-0.816778 -0.52622,-0.660275 -0.37773,0.09879 -0.68678,0.05759 -0.68678,-0.09155 0,-0.432624 0.53866,-0.647731 1.09112,-0.435731 0.53375,0.204822 0.70611,1.567136 0.23511,1.858233 -0.15058,0.09306 -0.20153,-0.208739 -0.11323,-0.670668 z"
         id="eye_detail_1" />
      <path
         style="fill:#3c3432;stroke-width:0.32"
         d="m 87.68,114.3656 c -0.792,-0.2869 -2.14281,-1.08052 -3.001802,-1.76362 -0.858988,-0.68309 -1.737385,-1.24198 -1.951987,-1.24198 -0.214601,0 -1.002806,-0.44378 -1.751561,-0.98618 -0.748759,-0.54239 -2.412416,-1.53006 -3.697021,-2.19481 -1.284602,-0.66476 -3.033591,-1.78883 -3.886637,-2.49795 C 72.537946,104.97194 71.408,104.16275 70.88,103.88286 70.352,103.60298 68.992867,102.50684 67.859706,101.44699 66.71151,100.5168 66.030048,99.706624 65.085039,98.499184 63.965859,97.406309 62.521577,95.98224 61.6,95.04 60.788842,94.205765 60.214489,93.052958 59.658355,92.014632 59.322934,91.617562 58.848989,91.078368 58.624698,90.32975 58.158947,88.775213 58.33579,86.117644 58.56,85.44 c 0.442218,-1.207339 0.696497,-2.11951 1.28,-3.154285 0,-0.176 0.226285,-0.546288 0.502858,-0.822857 0.44382,-0.443824 0.447292,-0.558423 0.02957,-0.976164 -0.325204,-0.325203 -0.421044,-0.86294 -0.306288,-1.718512 0.09186,-0.684864 0.02157,-1.33511 -0.156237,-1.444992 -0.215994,-0.133491 -0.21825,-0.598524 -0.0068,-1.401484 0.732857,-2.782912 0.699318,-3.166909 -0.395571,-4.529357 -0.9464,-1.177667 -1.019188,-1.424154 -0.829412,-2.808727 0.11442,-0.834771 0.350653,-1.660384 0.524964,-1.834694 0.590291,-0.590291 0.32143,-1.059466 -1.907319,-3.328355 -2.606637,-2.653587 -3.387952,-4.040701 -3.84256,-6.821927 -0.357078,-2.184563 0.02186,-4.967568 0.842845,-6.189849 0.233178,-0.347159 0.423962,-0.855159 0.423962,-1.128883 0,-0.74384 1.119766,-1.560688 2.593318,-1.891773 0.773638,-0.173824 1.520874,-0.599376 1.828048,-1.041072 0.285747,-0.410887 0.826973,-1.056752 1.202723,-1.435251 0.375751,-0.3785 0.776573,-1.1705 0.890714,-1.76 0.114144,-0.589501 0.420489,-1.503818 0.680768,-2.031818 0.64808,-1.314682 1.530144,-3.451168 1.585369,-3.84 0.233767,-1.645814 1.969488,-5.92 2.404074,-5.92 0.15129,0 0.216346,-0.252 0.144573,-0.56 -0.307002,-1.31746 6.665597,-3.49179 10.110413,-3.152824 0.968,0.09525 3.791779,0.267131 6.275068,0.381956 l 4.515066,0.208773 3.644934,-1.832843 c 2.004711,-1.008064 4.110583,-2.183128 4.679709,-2.611255 1.729399,-1.300939 4.309859,-2.347341 5.796861,-2.350681 1.97965,-0.0044 3.13996,0.702785 5.32837,3.247736 1.056,1.228051 2.28,2.59695 2.72,3.041999 C 111.78871,30.432192 113.52827,32 113.8546,32 c 0.49192,0 2.6254,2.080326 2.6254,2.559987 0,0.205341 0.16269,0.319117 0.36154,0.252832 0.36718,-0.122393 2.19846,1.512083 2.19846,1.962202 0,0.397821 1.15343,1.32488 1.37399,1.104326 0.11113,-0.111129 0.38625,0.212557 0.61138,0.719299 0.22513,0.506746 0.73452,1.279882 1.13198,1.718084 0.39746,0.438201 0.72265,0.906201 0.72265,1.04 0,0.539337 0.0966,0.760096 0.70836,1.619273 0.70836,0.994803 1.36133,3.186423 1.86074,6.245421 0.26666,1.633299 0.22951,2.422221 -0.19348,4.108845 -0.28793,1.148083 -0.72334,2.470441 -0.96759,2.938576 -0.24425,0.468134 -0.44497,0.972189 -0.44606,1.120118 -9.6e-4,0.14793 -0.61397,1.01193 -1.36197,1.92 -1.62909,1.977712 -2.16,2.881619 -2.16,3.67753 0,0.32735 -0.22677,1.04976 -0.50395,1.60536 -0.6596,1.322208 -0.65238,5.358825 0.0125,6.949958 0.27033,0.646992 0.49151,1.557335 0.49151,2.022986 0,0.826643 1.05874,2.694051 2.32065,4.093168 0.94006,1.042285 1.13433,4.371725 0.37782,6.475497 -0.47865,0.769583 -0.60888,1.642474 -0.7714,2.283239 -0.32447,0.760385 -1.06088,2.46333 -2.4771,4.112387 -0.54209,0.631209 -1.04997,1.245197 -1.04997,1.435997 0,0.1908 -0.64144,0.99671 -1.42542,1.790912 -4.90764,4.971597 -10.91161,11.272493 -11.00734,11.551693 -0.17743,0.5175 -6.330876,5.88489 -7.318968,6.38403 -0.488548,0.24679 -1.392269,0.81311 -2.008269,1.25849 -2.093101,1.51336 -2.702576,1.72475 -5.28,1.83124 -1.792263,0.074 -2.991853,-0.0507 -4,-0.41585 z m 9.44,-2.42513 c 2.95398,-1.86627 5.89398,-4.596 14.08,-13.073001 7.78332,-8.059991 10.4,-11.356464 10.4,-13.101856 0,-0.366394 0.22787,-1.201543 0.50638,-1.855891 0.2785,-0.654346 0.51637,-1.981722 0.52858,-2.949722 0.0202,-1.597357 -0.11764,-1.959606 -1.49112,-3.92 -0.83233,-1.188 -1.61576,-2.16 -1.74097,-2.16 -0.12521,0 -0.71697,-0.828 -1.31502,-1.84 -0.59806,-1.012 -1.2857,-2.07752 -1.52809,-2.367821 -0.93667,-1.121808 -1.33012,-3.829561 -1.31375,-9.041363 0.0122,-3.89311 0.13141,-5.365693 0.49051,-6.060115 0.57448,-1.110909 0.3344,-3.533568 -0.5526,-5.57641 -0.64685,-1.489779 -3.30721,-4.270653 -4.84762,-5.067229 C 109.11918,44.297664 106.17124,43.52 105.00247,43.52 c -1.82184,0 -4.17085,0.980272 -6.022076,2.513094 -1.023216,0.847229 -2.796394,2.04537 -3.940394,2.662532 -1.144,0.617164 -2.795194,1.53487 -3.669318,2.039347 -1.355325,0.782189 -1.944234,0.919273 -4,0.931126 -2.271271,0.01309 -2.586487,-0.07672 -5.450682,-1.553069 -2.597926,-1.3391 -3.376074,-1.58944 -5.351059,-1.721507 l -2.311063,-0.154541 -0.568937,1.041837 c -1.567351,2.870112 -3.617264,3.996234 -6.629939,3.642151 -1.456141,-0.17114 -1.757088,-0.09809 -2.63329,0.639184 -2.02567,1.704489 -2.469482,3.825072 -1.393306,6.65734 0.347824,0.915399 0.885607,2.663347 0.805883,2.713592 -0.199223,0.125555 -0.731105,-1.644862 -1.1165,-2.669006 -0.915805,-2.433658 -0.756861,-4.351808 0.50719,-6.120774 1.066471,-1.492461 1.467399,-1.650928 4.192135,-1.656938 1.089612,-0.0026 2.063264,-0.13729 2.16367,-0.299747 0.100406,-0.162461 0.593984,-0.385747 1.096842,-0.496192 0.674595,-0.148167 1.140688,-0.616791 1.7779,-1.787555 C 73.316944,48.32551 74.585635,47.36 75.798262,47.36 c 0.865501,0 4.605725,0.96745 5.013162,1.296707 0.182285,0.147309 1.218208,0.707811 2.302051,1.245562 3.138419,1.557133 6.017008,1.324883 9.325453,-0.752391 C 93.077517,48.748925 94.464,47.94239 95.52,47.357581 c 1.056,-0.584813 2.579469,-1.630583 3.385485,-2.323933 1.567985,-1.348806 4.290575,-2.503357 5.953415,-2.524618 1.60826,-0.02058 5.26763,1.00776 6.27362,1.762967 2.32613,1.746233 4.19644,3.683769 4.9042,5.080461 1.01854,2.009993 1.32647,4.925014 0.6915,6.54606 -0.32289,0.82433 -0.42812,1.877197 -0.32367,3.238196 l 0.15479,2.01671 1.00033,-0.243962 c 0.55018,-0.134182 1.36033,-0.238185 1.80033,-0.23112 1.40941,0.02262 3.89652,-3.612156 4.93785,-7.216422 0.66906,-2.315808 0.63291,-4.011152 -0.13882,-6.509734 C 122.66454,42.113597 121.07548,39.772298 116.1827,35.2 111.42515,30.754066 104.64057,23.891343 104.63633,23.520627 c -0.002,-0.176345 -0.57288,-0.593294 -1.26858,-0.926553 -2.04684,-0.980495 -3.718288,-0.592189 -7.975753,1.852904 -2.006403,1.152291 -4.130403,2.25428 -4.72,2.448865 C 90.082397,27.090428 89.6,27.366954 89.6,27.510347 c 0,0.143392 -1.004259,0.506819 -2.231686,0.807616 -1.886189,0.462234 -3.11233,0.512717 -7.92,0.326088 -5.93674,-0.230459 -9.242871,0.06369 -11.0148,0.979988 -1.492282,0.771689 -2.708442,2.804358 -4.066932,6.797404 -3.077644,9.046202 -3.895433,10.478183 -6.61414,11.581626 -1.448621,0.587952 -1.932932,0.99095 -2.639184,2.19608 -0.816333,1.392963 -0.861124,1.678541 -0.796314,5.077069 0.05407,2.83536 0.200675,3.85983 0.689469,4.817945 0.706589,1.385027 3.432873,4.349837 4.273587,4.647488 0.323437,0.114509 0.56,0.523824 0.56,0.968938 0,0.738803 0.08117,0.767507 1.962685,0.693993 2.184992,-0.08537 2.939494,-0.695078 2.24208,-1.811817 -0.200621,-0.321245 -0.350026,-0.982035 -0.33201,-1.468423 0.03059,-0.826131 0.05284,-0.810617 0.337914,0.235658 0.167837,0.616 0.381539,1.42127 0.474893,1.789494 0.09336,0.368221 -0.03596,0.875191 -0.287373,1.126602 -0.847501,0.847501 -1.130535,1.713821 -1.347315,4.123904 -0.163047,1.812675 -0.0929,2.742662 0.286624,3.800234 0.663238,1.848121 0.634387,3.074995 -0.09718,4.132723 -2.438749,3.526051 -4.200874,7.312125 -4.197194,9.018016 0.0059,2.72823 2.74162,7.265373 6.444298,10.687705 1.117917,1.033277 2.608576,2.412292 3.312576,3.064482 0.704,0.6522 1.856,1.52116 2.56,1.93103 0.704,0.40986 1.784,1.21639 2.4,1.79227 0.616,0.57588 2.272,1.6599 3.68,2.40894 1.408,0.74904 3.06081,1.76751 3.672909,2.26325 0.612102,0.49574 1.273776,0.90135 1.47039,0.90135 0.196611,0 1.279802,0.6114 2.407088,1.35867 2.928151,1.94104 3.610301,2.15234 6.689613,2.07216 2.710698,-0.0706 2.72985,-0.077 5.6,-1.89036 z m -9.724192,-14.3479 c -0.772304,-0.161856 -1.492304,-0.383242 -1.6,-0.491965 -0.107693,-0.108727 0.380192,-0.07932 1.084192,0.06536 2.870173,0.589824 11.461645,-0.294887 12.046035,-1.240451 0.131543,-0.212839 0.311165,-0.31498 0.399165,-0.22698 1.0848,1.0848 -8.516755,2.609242 -11.929392,1.894036 z m -2.770352,-9.098026 c -0.541251,-0.541248 -0.774016,-1.113322 -0.748656,-1.84 0.0366,-1.048906 0.03809,-1.04784 0.278381,0.199315 0.13287,0.689626 0.503833,1.445626 0.824361,1.68 0.602567,0.440608 5.071792,0.596621 6.456842,0.225395 0.830544,-0.222604 1.904291,-1.828304 2.502979,-3.742992 0.245783,-0.786051 0.426637,-1.055721 0.439229,-0.654931 0.01178,0.37473 -0.343478,1.478349 -0.789453,2.45248 C 92.603018,88.967786 91.907811,89.28 88.097702,89.28 c -2.425977,0 -2.76304,-0.07625 -3.472246,-0.785456 z M 72.308928,81.485373 c -1.454829,-0.392448 -5.037523,-2.717335 -5.522262,-3.58352 -0.51402,-0.918499 0.844566,-0.468227 2.312739,0.766505 1.761315,1.481261 2.312371,1.775197 4.180595,2.22994 1.722157,0.419187 3.539882,0.08394 4.86769,-0.897744 l 0.924614,-0.683597 -0.41615,0.670329 c -0.538919,0.868074 -2.755869,1.938749 -3.957184,1.911117 -0.516436,-0.01187 -1.591952,-0.197744 -2.390042,-0.41303 z M 100.69051,80.4 c -0.081,-0.132 0.73986,-0.252387 1.82411,-0.26753 1.08426,-0.01514 2.33002,-0.217465 2.76838,-0.449609 1.66126,-0.87977 4.22475,-3.359242 4.69931,-4.545283 0.26795,-0.669668 0.68755,-1.217578 0.93244,-1.217578 0.62481,0 0.56137,0.351632 -0.36133,2.002512 -0.57661,1.031667 -1.49751,1.909904 -3.22996,3.080304 -2.28411,1.543094 -2.54012,1.637184 -4.45454,1.637184 -1.11713,0 -2.09742,-0.108 -2.17841,-0.24 z M 71.68,78.587878 c -1.963574,-0.841296 -3.028288,-2.099164 -3.606995,-4.261356 l -0.362256,-1.353479 -1.102413,0.650439 c -0.741949,0.437763 -1.208054,0.5448 -1.425494,0.32736 -0.21744,-0.21744 0.0193,-0.510727 0.72406,-0.89696 0.575927,-0.315636 1.629898,-1.050061 2.342154,-1.632061 C 70.006371,69.985888 75.155453,67.52 76.396547,67.52 c 0.757219,0 1.52753,0.441568 3.105242,1.780038 1.154016,0.979024 2.098211,1.84809 2.098211,1.931261 0,0.244963 -1.315258,-0.517446 -3.172093,-1.838755 -1.822397,-1.296803 -2.145517,-1.401466 -2.883936,-0.934131 -0.365971,0.231616 -0.259837,0.453699 0.537421,1.124547 1.810682,1.52359 2.710992,5.922141 1.568928,7.665152 -1.209661,1.846173 -3.558275,2.373213 -5.97032,1.339766 z m 4.16,-0.358211 c 0.264,-0.05539 0.588,-0.111718 0.72,-0.125184 0.132,-0.01347 0.24,-0.245001 0.24,-0.514525 0,-0.269526 0.188976,-0.562563 0.419949,-0.651193 0.315539,-0.121085 0.365577,-0.615843 0.201261,-1.989959 -0.288256,-2.410553 -0.949824,-3.9099 -2.183079,-4.947616 l -1.008889,-0.848924 -1.9944,0.9432 c -1.096919,0.518761 -2.039572,1.07872 -2.094781,1.244355 -0.05521,0.165635 0.128512,0.650496 0.408278,1.077472 0.713795,1.089392 0.189376,2.462707 -0.940419,2.462707 -0.54649,0 -0.816096,-0.181206 -0.833184,-0.56 -0.01389,-0.308 -0.08931,-0.405757 -0.167587,-0.217238 C 68.408397,74.581424 69.375722,76.8 69.783181,76.8 c 0.184025,0 0.255712,0.127629 0.159302,0.283619 -0.09641,0.155991 0.0751,0.371645 0.381117,0.479232 0.306019,0.107584 1.0604,0.405607 1.6764,0.662269 0.996579,0.415232 1.877421,0.416275 3.84,0.0045 z M 72.375322,73.709059 C 72.510186,73.008768 73.44,72.909696 73.44,73.595616 c 0,0.26159 -0.265078,0.526669 -0.589059,0.589062 -0.427648,0.08236 -0.557975,-0.04797 -0.475619,-0.475619 z m -2.046074,-0.141766 c 0.04909,-0.252819 -0.09491,-0.702243 -0.32,-0.99872 -0.341466,-0.449767 -0.499968,-0.470883 -0.956982,-0.127501 -0.4997,0.375456 -0.5041,0.473846 -0.05015,1.121952 0.530957,0.758048 1.180372,0.760138 1.32713,0.0043 z m 32.306602,2.315389 C 100.10689,74.666835 99.162406,73.051859 99.242262,70.08 c 0.03313,-1.232694 0.07982,-1.119126 0.32433,0.78887 0.32479,2.534391 1.058988,3.559488 3.379368,4.718346 1.1845,0.591568 1.51737,0.631146 2.59435,0.308477 1.74702,-0.523424 2.40636,-1.372707 2.40636,-3.099613 0,-1.140656 -0.25126,-1.80048 -1.22277,-3.211069 -1.45699,-2.115488 -1.82091,-2.330329 -3.62449,-2.139747 -1.0544,0.111418 -1.33759,0.25791 -1.19863,0.620038 0.71934,1.87457 0.48917,2.652848 -0.78078,2.640068 -0.37575,-0.0038 -0.35837,-0.07567 0.08,-0.331002 0.87978,-0.512422 0.70956,-1.839946 -0.29459,-2.297466 -0.67615,-0.308076 -0.8823,-0.306227 -0.98733,0.0089 -0.07301,0.219028 -0.243626,0.329703 -0.379149,0.245943 -0.135526,-0.08376 -0.830118,0.347344 -1.543539,0.958006 -2.001626,1.713319 -2.277472,1.312627 -0.349245,-0.507305 2.14889,-2.028205 2.637733,-2.2224 5.594423,-2.2224 2.10775,0 2.69749,0.143382 4.85916,1.181411 3.12593,1.501059 5.18027,2.878729 5.18027,3.473961 0,0.64808 -0.63628,0.579236 -1.41938,-0.153577 C 111.24597,70.486614 107.49115,68.48 107.0295,68.48 c -0.11352,0 0.16068,0.43624 0.60932,0.969421 1.61373,1.917805 1.48199,4.589241 -0.29309,5.943155 -1.38795,1.058646 -3.14666,1.241654 -4.70988,0.490106 z m 0.61691,-3.938215 C 103.03581,71.11488 103.23129,70.72 103.85889,70.72 c 0.48545,0 0.59227,0.565872 0.26687,1.413827 -0.2734,0.712464 -0.65905,0.628813 -0.873,-0.18936 z M 66.84273,70.256061 C 66.555565,69.968899 67.590333,67.84 68.017075,67.84 c 0.200051,0 0.624368,-0.288 0.942925,-0.64 0.318557,-0.352 0.812832,-0.64 1.098394,-0.64 0.285561,0 0.856832,-0.236486 1.269491,-0.525523 1.112563,-0.779271 4.595571,-0.934061 7.023219,-0.312128 1.111325,0.284707 2.072006,0.517651 2.134854,0.517651 0.06285,0 0.09257,-0.288 0.06606,-0.64 -0.02653,-0.352 -0.185568,-0.64 -0.353446,-0.64 -0.167882,0 -0.216093,-0.08914 -0.107143,-0.198096 0.591514,-0.59151 -2.821369,-2.346339 -4.571427,-2.350528 -0.616,-0.0016 -1.975331,0.25336 -3.020736,0.566301 -1.723357,0.515885 -1.851137,0.86808 -3.158499,2.410486 -1.176536,1.388059 -1.668849,2.986261 -1.867893,3.119663 -0.222433,0.149078 0.448042,-1.71648 1.074699,-2.72644 1.514736,-2.441247 1.889399,-2.715946 4.643383,-3.404535 l 2.630953,-0.657827 1.973584,0.719603 c 1.660227,0.605351 2.118938,0.948803 2.889047,2.163139 1.531526,2.414964 1.281763,2.627117 -2.124538,1.804634 -2.682259,-0.647658 -4.81631,-0.570749 -6.940224,0.250112 -1.77921,0.687635 -3.618928,2.079533 -4.260531,3.223437 -0.176416,0.314528 -0.408848,0.483779 -0.516515,0.376112 z M 94.89609,67.12 c 0.334963,-1.535046 0.836947,-2.596179 0.595331,-1.258454 -0.185885,1.029152 -0.169671,1.048681 0.531405,0.64 0.397731,-0.23185 0.972636,-0.658884 1.277574,-0.94896 1.180464,-1.122944 3.43079,-2.140656 5.50366,-2.489031 2.14677,-0.360797 2.18283,-0.354672 4.51358,0.766371 2.69998,1.29864 2.76236,1.312116 2.76236,0.59674 0,-0.293332 -0.0938,-0.439572 -0.20836,-0.324973 -0.1146,0.114598 -0.3666,0.0065 -0.56,-0.240259 -0.71458,-0.911652 -4.91922,-2.763418 -6.33104,-2.788253 -1.50226,-0.02643 -5.423378,1.636761 -6.11588,2.594125 -0.211597,0.292528 -1.182892,1.637001 -1.306662,1.731986 -0.120444,0.09243 0.0387,-0.745538 0.46927,-1.412934 C 96.704653,62.93657 101.51624,60.48 102.89512,60.48 c 1.40869,0 6.18692,2.072234 7.1026,3.080269 0.71368,0.785667 1.26364,2.245043 0.96033,2.548349 -0.19842,0.198425 -2.55427,-0.87458 -2.87315,-1.308618 -0.12931,-0.176 -0.23731,-0.189683 -0.24,-0.0304 -0.003,0.159277 -0.2569,0.07612 -0.5649,-0.184794 -2.21863,-1.879452 -6.5584,-1.019481 -10.32,2.045015 -1.823862,1.485865 -1.884451,1.530182 -2.09192,1.530182 -0.109411,0 -0.09681,-0.468 0.028,-1.04 z M 63.04,76.553062 c 0,-0.281091 -0.239229,-1.36368 -0.531619,-2.405756 -0.439399,-1.566004 -0.472739,-2.263533 -0.192199,-4.020992 0.186685,-1.169472 0.434266,-2.35993 0.55018,-2.645463 0.153737,-0.378694 -0.0019,-0.559789 -0.575114,-0.669376 -1.455517,-0.278237 -2.677194,0.08756 -3.053936,0.914426 -0.583888,1.281494 -0.420877,2.054966 0.809629,3.841606 l 1.166937,1.694346 -0.541942,1.419056 c -0.504598,1.321273 -0.502278,3.705565 0.0052,5.294662 C 60.848813,80.513344 63.04,77.339562 63.04,76.553062 Z m 55.85875,-5.037555 c -0.71119,-1.702115 -0.63439,-4.7272 0.18386,-7.241603 0.81466,-2.503379 0.67496,-3.153904 -0.67727,-3.153904 -2.00907,0 -2.80836,3.136189 -1.78202,6.992179 0.25065,0.941696 0.66358,1.949696 0.91761,2.24 0.25404,0.290301 0.70588,1.009203 1.00408,1.597559 0.71813,1.41688 0.9885,1.084979 0.35374,-0.434231 z"
         id="outline" />
    </g>
  </g>
  <path
     style="fill:#a45806;fill-opacity:1;stroke:#1bff54;stroke-width:0.0147314;stroke-opacity:0"
     d="m 109.54917,78.690412 c -0.13597,-0.06405 -0.22421,-0.240312 -0.18531,-0.370156 0.0212,-0.07088 0.0782,-0.118665 0.14157,-0.118665 0.11074,0 0.36343,0.180801 0.44339,0.317243 0.0305,0.052 0.0345,0.06994 0.0215,0.0944 -0.0463,0.08646 -0.30194,0.133318 -0.42111,0.07718 z"
     id="path21964" />
  <path
     style="fill:#a45806;fill-opacity:1;stroke:#1bff54;stroke-width:0.0147314;stroke-opacity:0"
     d="m 108.1502,77.965492 c -0.0407,-0.0057 -0.10178,-0.02448 -0.13577,-0.04183 -0.10354,-0.05282 -0.11817,-0.117426 -0.0507,-0.223741 0.0983,-0.154875 0.36273,-0.277148 0.51141,-0.236492 0.12213,0.03339 0.2017,0.111421 0.22174,0.217444 0.0325,0.172113 -0.26017,0.324497 -0.5467,0.284615 z"
     id="path21966" />
  <path
     style="fill:#a45806;fill-opacity:1;stroke:#1bff54;stroke-width:0.0147314;stroke-opacity:0"
     d="m 107.83308,77.081248 c -0.0849,-0.09093 -0.0982,-0.327772 -0.0246,-0.439038 0.10968,-0.165733 0.37887,-0.198841 0.44744,-0.05503 0.0214,0.04493 0.0222,0.0603 0.006,0.114983 -0.0396,0.132466 -0.23937,0.37215 -0.33905,0.406899 -0.0445,0.01552 -0.0511,0.01349 -0.0897,-0.02781 z"
     id="path21968" />
  <path
     style="fill:#a45806;fill-opacity:1;stroke:#1bff54;stroke-width:0.0147314;stroke-opacity:0"
     d="m 81.430592,77.104814 c -0.13582,-0.03584 -0.230251,-0.167105 -0.23084,-0.320887 -2.78e-4,-0.07277 0.0056,-0.09114 0.04267,-0.132583 0.03712,-0.04153 0.05211,-0.04792 0.109674,-0.04672 0.153824,0.0032 0.487146,0.288201 0.460633,0.393835 -0.01065,0.04246 -0.102361,0.09441 -0.186997,0.105949 -0.03596,0.0049 -0.07864,0.0112 -0.09485,0.014 -0.0162,0.0028 -0.06134,-0.0033 -0.100293,-0.0136 z"
     id="path21970" />
  <path
     style="fill:#a45806;fill-opacity:1;stroke:#1bff54;stroke-width:0.0147314;stroke-opacity:0"
     d="m 82.168225,79.556942 c -0.116817,-0.03517 -0.187546,-0.122724 -0.159256,-0.197132 0.02282,-0.06001 0.149818,-0.104982 0.295314,-0.104572 0.106683,3.01e-4 0.136354,0.0062 0.200457,0.03969 0.04138,0.02164 0.09441,0.05535 0.117851,0.07492 0.02344,0.01956 0.06416,0.04662 0.09049,0.06012 0.08966,0.04597 0.04564,0.0983 -0.105825,0.125781 -0.100875,0.0183 -0.379684,0.01906 -0.439029,0.0012 z"
     id="path21972" />
  <path
     style="fill:#a45806;fill-opacity:1;stroke:#1bff54;stroke-width:0.0147314;stroke-opacity:0"
     d="m 76.960757,80.938509 c -0.04117,-0.01987 -0.09236,-0.123311 -0.09236,-0.186653 0,-0.03367 0.04522,-0.127424 0.152301,-0.315757 0.08377,-0.147327 0.167851,-0.296041 0.186855,-0.330476 0.01901,-0.03443 0.03916,-0.06261 0.04479,-0.06261 0.01229,0 0.03543,0.05706 0.05975,0.147314 0.02919,0.108333 0.02536,0.420195 -0.0063,0.510852 -0.06862,0.196691 -0.217335,0.298973 -0.345071,0.237328 z"
     id="path21974" />
</svg>
