<?xml version="1.0" encoding="UTF-8" standalone="no"?>
<!-- Created with Inkscape (http://www.inkscape.org/) -->

<svg
   version="1.1"
   id="svg537"
   width="192"
   height="288"
   viewBox="0 0 192 288"
   xmlns="http://www.w3.org/2000/svg"
   xmlns:svg="http://www.w3.org/2000/svg">
  <defs
     id="defs541" />
  <g
     id="g543"
     transform="translate(4,2)"
     style="display:inline">
    <g
       id="g547">
      <path
         style="fill:#fefefe;fill-opacity:1;stroke:#1bff54;stroke-width:0.0208333;stroke-opacity:0"
         d="m 81.825227,85.784987 c -0.05538,-0.08961 0.261954,-0.303111 1.082743,-0.728466 0.528865,-0.274071 0.879117,-0.484218 1.184018,-0.710396 0.195744,-0.145205 0.241346,-0.169272 0.241346,-0.127375 0,0.02827 0.09633,0.02637 0.152411,-0.003 0.12461,-0.06528 0.366912,-0.325081 0.63679,-0.682772 0.104101,-0.137974 0.169041,-0.241335 0.154642,-0.246135 -0.03276,-0.01092 0.194656,-0.322948 0.268092,-0.367838 0.0848,-0.05184 0.210772,-0.235675 0.215563,-0.31459 0.0023,-0.03784 0.05136,-0.150932 0.109788,-0.253077 0.169715,-0.296685 0.233839,-0.464528 0.297205,-0.777922 0.04888,-0.241764 0.04947,-0.285962 0.0075,-0.562993 C 86.04128,80.125488 85.915989,79.56784 85.718954,78.979167 85.44546,78.16206 85.135795,77.507653 84.723266,76.875 c -0.420952,-0.645569 -0.640729,-1.032887 -0.712273,-1.255252 -0.06156,-0.191327 -0.2554,-0.347709 -0.765135,-0.61727 -0.400465,-0.211777 -0.422479,-0.240987 -0.21375,-0.283636 0.169493,-0.03463 1.174461,-0.05078 1.452907,-0.02335 0.88348,0.08704 1.795048,0.351036 2.747771,0.795759 1.343059,0.626929 1.478485,0.77353 1.41342,1.530057 -0.06734,0.782987 -0.173659,1.447915 -0.428287,2.678575 -0.158223,0.764718 -0.223544,1.03718 -0.312534,1.303616 -0.250754,0.750763 -0.527101,1.30548 -1.10877,2.225664 -0.440602,0.697019 -0.681324,0.990188 -0.978477,1.191662 -0.729753,0.494781 -2.079423,1.061326 -3.120221,1.30976 -0.25821,0.06163 -0.84559,0.09825 -0.87269,0.0544 z"
         id="path21040"
         transform="translate(-4,-2)" />
      <path
         style="fill:#fefefe;fill-opacity:1;stroke:#1bff54;stroke-width:0.0208333;stroke-opacity:0"
         d="m 74.135417,83.095855 c -0.04188,-0.02153 -0.125222,-0.03272 -0.252614,-0.0339 l -0.190113,-0.0018 -0.578557,-0.519683 c -1.169595,-1.050576 -1.933925,-1.631936 -2.408939,-1.832272 -0.249792,-0.105348 -0.267715,-0.120376 -0.267578,-0.224348 2.38e-4,-0.179906 0.02675,-0.222767 0.307176,-0.496565 0.231119,-0.225657 0.514265,-0.481444 0.707379,-0.639026 0.03203,-0.02614 0.133246,-0.111247 0.224912,-0.189125 0.224084,-0.190375 0.686763,-0.548766 1.00814,-0.780904 0.256044,-0.184947 1.381534,-0.912212 1.393378,-0.900369 0.0033,0.0033 -0.04085,0.309577 -0.09803,0.680685 -0.05719,0.371108 -0.114747,0.81825 -0.127911,0.993648 -0.05213,0.694599 0.01959,1.818852 0.179063,2.806975 0.02839,0.175892 0.05161,0.360212 0.05161,0.4096 0,0.04939 0.0099,0.122545 0.02197,0.162574 0.0238,0.07881 0.108122,0.586309 0.09848,0.592705 -0.0032,0.0021 -0.034,-0.01056 -0.06838,-0.02824 z"
         id="path21042"
         transform="translate(-4,-2)" />
      <path
         style="fill:#fefefe;fill-opacity:1;stroke:#1bff54;stroke-width:0.0208333;stroke-opacity:0"
         d="m 109.03125,83.186219 c -0.59867,-0.103035 -1.32377,-0.306347 -1.86008,-0.52155 -0.98637,-0.3958 -1.66487,-0.915736 -2.30826,-1.768835 -0.13826,-0.183334 -0.73208,-1.021301 -1.31958,-1.86215 l -1.06819,-1.528816 0.18426,-0.189934 c 0.10134,-0.104464 0.27786,-0.286028 0.39226,-0.403476 0.11441,-0.117447 0.20165,-0.213541 0.19387,-0.213541 -0.0285,0 0.38631,-0.380512 0.60369,-0.553804 0.12303,-0.09808 0.4112,-0.303403 0.64036,-0.456265 1.06993,-0.713683 2.16563,-1.253873 2.74542,-1.353518 0.0753,-0.01295 0.0801,-0.01029 0.11001,0.0613 0.0778,0.186294 0.14495,0.921677 0.17626,1.931198 0.0118,0.379254 0.0165,0.69446 0.0105,0.700459 -0.006,0.006 -0.0109,-3.1e-5 -0.0109,-0.0134 0,-0.01337 -0.019,-0.02431 -0.0422,-0.02431 -0.0614,0 -0.0855,0.08204 -0.0981,0.334189 -0.0139,0.27817 0.0281,0.457478 0.10722,0.457478 0.061,0 0.0741,0.04312 0.0745,0.245384 7.8e-4,0.417856 0.10824,1.070181 0.23214,1.409267 0.16412,0.449116 0.34579,0.756055 1.21559,2.053683 0.66772,0.996147 0.85672,1.304012 0.91843,1.496 0.0417,0.129612 0.0219,0.200568 -0.0649,0.233585 -0.0976,0.03712 -0.52296,0.02028 -0.83223,-0.03295 z"
         id="path21044"
         transform="translate(-4,-2)" />
      <path
         style="fill:#fefefe;fill-opacity:1;stroke:#1bff54;stroke-width:0.0208333;stroke-opacity:0"
         d="m 117.9482,81.236086 c -0.0316,-0.02484 -0.0703,-0.0761 -0.0861,-0.113915 -0.0564,-0.134993 -0.0369,-0.260777 0.10599,-0.682673 0.22347,-0.659923 0.26981,-0.976748 0.25014,-1.710331 -0.0174,-0.65067 -0.0754,-0.981395 -0.16893,-0.964248 -0.0238,0.0044 -0.18812,-0.05161 -0.24537,-0.212836 -0.23172,-0.652511 -0.309,-1.058886 -1.3094,-2.760416 -0.25599,-0.435417 -0.48237,-0.645693 -0.61765,-0.870774 -0.10079,-0.167703 1.74197,0.237238 2.15838,0.339987 1.2853,0.317152 2.27423,0.681048 2.78711,1.196046 0.20045,0.201271 0.27303,0.557385 0.33459,0.770604 0.0288,0.09983 0.0336,0.179307 0.0253,0.416667 -0.0174,0.497874 -0.0561,1.055692 -0.42101,1.793303 -0.43845,0.886377 -0.99612,1.659506 -1.61899,2.260417 -0.29475,0.284353 -0.61672,0.374906 -0.86127,0.501459 -0.18011,0.0932 -0.25102,0.101024 -0.33278,0.03671 z"
         id="path21046"
         transform="translate(-4,-2)" />
      <path
         style="display:inline;fill:#ececec;stroke-width:0.32"
         d="m 79.36,80.789958 c 0,-0.553276 0.763747,-0.94902 1.250701,-0.648067 C 81.111002,80.451094 80.641283,81.28 79.965763,81.28 79.632595,81.28 79.36,81.059482 79.36,80.789958 Z M 112.64,78.08 c 0,-0.352 0.144,-0.64 0.32,-0.64 0.176,0 0.32,0.288 0.32,0.64 0,0.352 -0.144,0.64 -0.32,0.64 -0.176,0 -0.32,-0.288 -0.32,-0.64 z M 71.546704,75.954198 c -0.304874,-0.794483 0.03117,-0.902966 0.438627,-0.141606 0.196576,0.367309 0.223629,0.667408 0.06016,0.667408 -0.16336,0 -0.387817,-0.236611 -0.49879,-0.525802 z M 105.28642,73.127734 C 105.03402,72.82361 105.00974,72.64 105.22193,72.64 c 0.38674,0 0.83763,0.607104 0.61571,0.829024 -0.0805,0.08054 -0.32859,-0.07304 -0.55122,-0.34129 z M 60.087202,70.543914 C 58.45741,66.796756 58.26778,66.50168 58.161149,66.01375 c -0.0577,-0.264 -0.321713,-0.541583 -0.433934,-0.629583 -0.229501,-0.179968 -1.32589,-2.589052 -1.256981,-2.781724 0.02445,-0.06832 -0.108767,-0.483295 -0.283265,-0.591144 -0.1745,-0.107847 -0.542688,-1.327701 -0.945507,-2.863564 -0.664061,-2.531916 -0.350171,-3.009323 -0.15991,-4.573439 0.272486,-2.240082 3.248861,-6.841568 3.757491,-6.527219 0.610505,-0.930041 1.424498,-2.288388 2.416166,-2.759003 0.663438,-0.915426 1.218947,-1.459242 2.401296,-2.048662 0.334333,-0.05102 1.292161,-0.725401 1.873876,-1.256716 1.186807,-1.083981 3.64265,-2.181337 3.302196,-1.343529 -0.125162,0.308 -1.627366,2.42 -1.75953,2.86 -0.2664,0.886906 -0.682432,7.173127 -0.39064,8.180833 0.101927,0.352 0.346548,1.36 0.543604,2.24 0.197056,0.88 0.577008,1.816 0.844339,2.08 0.533312,0.526669 0.520681,0.160589 -0.215271,-6.24 -0.467526,-4.066106 -0.421183,-6.532662 1.131487,-8.478236 0.622227,-0.360579 -0.0995,-0.33948 -0.419036,-1.079349 1.313341,-0.816359 4.118847,-1.701769 4.419265,-1.650462 -0.09613,-0.155543 1.62953,-1.113604 1.886882,-1.212359 0.257354,-0.09875 -0.249059,0.906067 -0.145036,1.074384 0.104025,0.168314 0.308554,-0.144096 0.518166,-0.14679 0.232688,-0.0029 0.249869,0.327075 -0.03754,0.145315 -0.258902,-0.163734 -0.715402,-0.811613 -0.6325,-0.879542 0.467562,-0.383117 2.747519,-2.024608 2.891519,-2.024506 0.09284,6.4e-5 -0.47956,2.637415 -0.444452,4.282074 0.05281,2.473757 0.609404,6.206221 1.546326,10.369475 0.101232,0.449827 0.399898,0.72 0.795936,0.72 0.348646,0 0.63575,-0.108 0.638006,-0.24 0.0038,-0.220822 -0.537145,-2.889059 -1.319385,-6.508278 -0.457965,-2.118864 -0.672497,-3.074558 -0.697252,-5.521025 -0.01651,-1.632599 -0.0078,-2.11767 -0.307465,-1.965852 -0.22,0.11144 -0.70232,-0.65845 -0.397056,-0.909005 0.305264,-0.250455 0.356712,-0.08076 0.267109,-0.170368 -0.252864,-0.252864 2.846409,-3.049936 3.165775,-2.852557 0.155607,0.09617 0.564172,1.468359 0.564172,2.132637 0,0.664278 0.07825,1.286026 0.173878,1.381661 0.09563,0.09563 0.23746,1.235632 0.315168,2.533331 0.118032,1.971037 0.401543,3.993469 1.21506,8.667696 0.05248,0.301533 0.338838,0.817219 0.636355,1.145968 0.297513,0.328752 0.432621,0.725296 0.300237,0.88121 -0.132384,0.155916 0.0097,0.09191 0.315779,-0.142224 0.306061,-0.234141 0.248872,-0.600732 0.140271,-0.77645 C 84.268146,48.361022 84.28311,47.292589 84.14264,46.124253 84.00217,44.955914 83.59799,41.984 83.244461,39.52 c -0.895626,-6.242301 -1.590372,-8.371788 -1.105393,-8.774286 0.154121,-0.536341 0.735709,-0.717177 0.972298,-0.631491 -0.17954,-0.315391 1.186117,-1.63714 1.7094,-1.63714 0.118944,0 0.604107,-0.316839 0.97629,-0.716818 1.013475,-1.08917 2.935987,-1.643051 6.481277,-2.357514 6.294861,-1.26857 11.949317,-0.676734 14.039827,1.551685 0.51575,0.549779 1.41073,1.375469 2.07796,1.796673 0.66723,0.421203 1.481,1.204614 1.732,1.689987 0.251,0.485374 0.71403,1.122153 1.0799,1.45326 0.36587,0.331104 0.68289,0.475117 0.58989,0.625578 0.35905,0.06448 0.43279,0.434147 0.78181,0.328041 -0.10329,0.397388 1.10295,0.897006 1.54647,1.280727 0.68846,0.621984 1.41621,1.110044 1.60449,1.110044 0.5324,0 1.84215,0.376022 1.48626,0.804848 -0.34901,0.420534 -1.36742,3.121279 -0.7299,4.756402 1.0129,2.597837 1.31078,4.581123 1.21325,8.077814 -0.0552,1.9788 -0.20478,3.5988 -0.33242,3.6 -0.12764,0.0013 -0.0921,0.370416 0.079,0.820474 0.20578,0.541226 0.20309,0.751526 -0.008,0.621114 -0.47219,-0.291828 -0.38763,0.665302 0.0941,1.065104 0.31417,0.260742 0.42539,0.180096 0.46432,-0.336695 0.0282,-0.373757 0.23825,-1.122416 0.46687,-1.663686 0.55052,-1.303379 0.58443,-10.542704 0.0407,-11.086848 -0.20625,-0.206394 -0.29884,-0.573719 -0.20576,-0.816272 0.0931,-0.242551 0.0225,-0.441005 -0.1569,-0.441005 -0.17936,0 -0.42439,-0.612 -0.54451,-1.36 -0.12012,-0.748 -0.40974,-1.756 -0.6436,-2.24 -0.51139,-1.058378 -0.041,-1.348615 1.84816,-0.460593 1.20009,0.53853 2.61044,1.895845 2.80755,2.416856 -0.25344,0.307486 0.56632,0.955862 0.57324,1.049234 0.32615,-0.201574 0.71085,0.61436 0.84808,1.388367 0.06,0.338188 0.51399,1.283719 0.89437,2.075719 1.04414,2.174026 1.61411,4.493333 1.61797,6.239743 0.004,1.659875 -0.37398,7.409054 -1.87335,10.317144 l -0.91785,1.780228 -0.61533,-0.877355 c -0.34096,-0.486149 -0.73066,-1.366493 -1.42561,-1.949937 -4.5664,-3.124379 -2.50021,0.278061 -1.99935,-2.035855 -0.37422,-0.353897 -1.18854,-0.963953 -1.84815,-1.304004 -0.6596,-0.340048 -1.94419,-1.252003 -2.94466,-2.260627 -1.36123,-1.44171 -1.14365,-0.85204 -1.86816,-1.484975 -0.56905,-0.42664 -3.77241,-1.583236 -5.28885,-1.888852 -0.616,-0.124147 -1.40522,0.163632 -1.57377,0.06335 -0.16856,-0.100281 -0.77568,-0.498789 -1.22312,-0.543477 -0.44745,-0.04469 -1.16857,-0.289495 -1.87257,-0.381975 -4.77329,-0.627037 -8.204161,-0.47206 -14.300958,0.358318 -1.602457,0.535565 -2.449738,0.737759 -3.785255,1.056598 -0.563355,0.808729 -1.823268,0.796787 -2.68023,1.079995 -0.888941,0.295258 -2.043858,0.919327 -2.782917,1.475938 -1.764269,1.328733 -2.978747,2.243681 -2.978747,2.037741 0,-0.208022 -1.215389,0.757673 -3.335744,2.71759 -0.904435,0.836 -1.701598,1.650453 -1.86059,1.657115 -0.158996,0.0067 -0.983185,0.666574 -1.589636,1.441006 -0.606451,0.774432 -0.938618,1.343563 -1.10736,1.239275 -0.21153,0.103582 -1.003772,0.733494 -1.198357,1.123022 0.14415,0.714496 -0.261277,1.155281 -0.609839,0.93986 -0.370555,0.279505 -0.947213,1.634624 -1.288522,2.235256 -1.238051,2.118621 -2.938396,6.969499 -3.294658,8.015876 -0.508638,-1.359321 -0.665095,-2.72152 -1.192675,-4.016663 z M 60.352635,59.780762 C 60.07081,57.789344 59.876154,55.296 59.920099,54.24 59.983722,52.711155 59.902211,52.32 59.52,52.32 c -0.401526,0 -0.475504,0.627776 -0.452496,3.84 0.02278,3.182099 0.151501,4.159027 0.751251,5.70208 0.398064,1.024144 0.796346,1.789488 0.885069,1.700762 0.08873,-0.08873 -0.06929,-1.790663 -0.351152,-3.78208 z M 122.4533,58.734077 c 0,-0.256259 -0.12235,-0.390307 -0.27189,-0.297888 -0.14953,0.09242 -0.18904,0.302083 -0.0878,0.465923 0.25876,0.418682 0.35967,0.371539 0.35967,-0.168035 z M 122.24,57.261114 c 0,-0.186388 0.10233,-0.364471 0.27833,-0.255697 0.34204,0.211389 0.40693,0.220445 0.48581,-1.90358 0.0598,-1.61113 -0.31793,-2.492877 -0.56773,-1.325149 -0.59883,2.799338 -0.72675,3.823312 -0.47762,3.823312 0.15467,0 0.28121,-0.152499 0.28121,-0.338886 z m -2.43296,-1.20778 c 0.0906,-0.146668 -0.0385,-0.266668 -0.28704,-0.266668 -0.24852,0 -0.37768,0.12 -0.28704,0.266668 C 119.32361,56.2 119.45277,56.32 119.52,56.32 c 0.0672,0 0.19639,-0.12 0.28704,-0.266666 z m -56.492432,-4.35462 c 0.01085,-0.906858 0.240858,-2.497936 0.511171,-3.535735 0.341002,-1.309197 0.386685,-1.95167 0.149203,-2.098441 -0.226675,-0.140093 -0.171091,-0.382714 0.164586,-0.718391 0.462474,-0.462473 0.455203,-0.502966 -0.08302,-0.462422 -0.574426,0.04327 -0.645782,0.183289 -0.772736,1.516275 -0.03352,0.352 -0.159107,0.64 -0.279072,0.64 -0.337446,0 -0.694845,4.941264 -0.440995,6.097034 0.313417,1.426985 0.726083,0.636502 0.750867,-1.43832 z M 123.8351,52.88 c -0.008,-0.910678 -0.43263,-1.363754 -0.96354,-1.02801 -0.3996,0.252698 -0.3889,0.298957 0.0701,0.303111 0.36836,0.0033 0.50219,0.209635 0.41837,0.644899 -0.0678,0.352 0.0125,0.64 0.17837,0.64 0.1659,0 0.29943,-0.252 0.29673,-0.56 z M 76.580147,51.488762 C 76.479619,50.197526 74.415331,41.022941 74.17103,40.781594 c -0.125936,-0.124413 -0.170841,1.108729 -0.09979,2.74031 0.07105,1.631584 0.282087,3.119421 0.46897,3.306304 0.186886,0.186886 0.340595,0.778992 0.341578,1.315792 0.0016,0.850896 0.364377,2.613184 0.815827,3.962611 0.236237,0.706128 0.94688,0.208618 0.882534,-0.617849 z M 60.517779,49.91209 c 0.05636,-0.435648 -0.0086,-0.970442 -0.144272,-1.188426 -0.174691,-0.280592 -0.07836,-0.336925 0.329872,-0.192902 0.451661,0.159347 0.495978,0.116051 0.204503,-0.199783 -0.458048,-0.496329 -1.175674,-0.113446 -0.939741,0.501389 0.09448,0.246198 0.02381,0.447632 -0.157069,0.447632 -0.180864,0 -0.247446,0.131702 -0.147965,0.292669 0.09949,0.160966 0.04784,0.340966 -0.114761,0.4 -0.162605,0.05903 -0.217504,0.509673 -0.121997,1.001427 0.160441,0.826093 0.204656,0.849827 0.581302,0.31209 0.224208,-0.320106 0.453767,-0.938448 0.510128,-1.374096 z m 63.106491,-0.433556 c -0.13353,-0.822844 -0.28183,-1.072496 -0.46524,-0.783196 -0.17787,0.280547 -0.27089,0.07172 -0.27413,-0.615338 -0.005,-1.031462 0.43304,-1.408576 0.74317,-0.64 0.0888,0.22 0.17277,0.0675 0.18667,-0.338886 0.0142,-0.414893 -0.11476,-0.652346 -0.29407,-0.54153 -0.19564,0.120915 -0.639,-0.233454 -0.56797,-0.881947 0.0638,-0.58216 0.0343,-1.294387 -0.10338,-1.646387 -0.76702,-1.95903 -0.72414,-2.162086 -0.77765,-2.856681 -0.0306,-0.397053 0.0673,-0.529094 -0.26111,-0.256527 -0.2362,0.196022 -0.50221,0.283644 -0.59114,0.194713 -0.30577,-0.305776 1.5377,8.007859 1.97097,8.888599 0.5567,1.131641 0.67853,0.984828 0.43388,-0.52282 z M 112.11613,48.56329 c -0.0245,-0.31105 -0.0533,-0.653148 0.13289,-0.538092 0.88492,0.546915 -0.93399,-12.888166 -1.90506,-14.117875 0.15058,-0.66522 -0.019,0.200083 0.0788,-0.668705 -0.42529,-0.76712 -0.23058,-0.952928 -0.30284,-1.592854 -0.022,-0.194831 -0.70345,0.101049 -0.99234,0.211908 -0.40474,0.155314 -0.45607,-0.08186 -0.18873,-0.403996 0.20743,-0.249931 0.67294,-0.775587 0.5072,-1.043832 -0.23672,-0.383032 -0.36282,-0.38372 -0.86169,-0.0047 -0.50053,0.380275 -0.52699,0.379618 -0.18439,-0.0046 0.22,-0.246712 0.39542,-0.599767 0.38982,-0.784567 -0.006,-0.1848 -0.20921,-0.07342 -0.45247,0.24752 -0.38552,0.508604 -0.34188,0.777068 0.33985,2.09108 1.18351,2.28116 2.44893,10.193342 2.27447,14.221377 -0.13163,3.039085 -0.11506,3.133005 0.53625,3.039843 0.41053,-0.05872 0.65501,-0.312665 0.62821,-0.652531 z M 71.583475,45.999059 c 0.06321,-1.275481 0.251923,-2.818723 0.419363,-3.429424 0.211853,-0.772707 0.194781,-1.210608 -0.05615,-1.44 -0.258912,-0.236694 -0.28743,-0.201523 -0.101139,0.124746 0.194416,0.340499 0.121814,0.401568 -0.289674,0.243664 -0.338864,-0.130032 -0.470941,-0.08422 -0.344947,0.119638 0.112294,0.181693 0.02534,0.545808 -0.19319,0.809139 -0.415172,0.500253 -0.514103,5.284205 -0.122384,5.91802 0.385702,0.624083 0.572496,-0.01267 0.688121,-2.345783 z M 89.92,48 c 0,-0.176 -0.252,-0.317795 -0.56,-0.315101 -0.478576,0.0042 -0.490208,0.05 -0.08,0.315101 0.603907,0.390275 0.64,0.390275 0.64,0 z m 5.76,-2.660845 c 0,-3.763705 -0.896541,-10.317273 -1.765581,-12.906096 -0.891901,-2.656925 -2.031152,-5.062994 -2.279625,-4.814518 -0.08831,0.08831 0.281472,1.722263 0.821734,3.63101 C 93.478944,34.861741 94.4,41.472256 94.4,45.198038 c 0,1.558903 0.111578,2.139645 0.4,2.081962 0.22,-0.044 0.360432,0.110704 0.31207,0.343786 -0.04836,0.233081 0.05964,0.332582 0.24,0.221113 C 95.532432,47.73343 95.68,46.605846 95.68,45.339155 Z M 99.468326,47.76 c -0.02842,-0.132 0.134452,-0.672 0.36194,-1.2 0.519404,-1.205536 0.627154,-4.891789 0.252564,-8.64 -0.406804,-4.070499 -1.744424,-8.726432 -2.459236,-8.56 -0.188976,0.044 -0.326541,-0.028 -0.3057,-0.16 0.09455,-0.598815 -0.06642,-1.04 -0.379459,-1.04 -0.368115,0 -0.193232,0.802203 0.52321,2.4 1.535568,3.424598 2.005136,11.589664 0.961558,16.72 -0.111843,0.549834 3.2e-4,0.72 0.475171,0.72 0.341895,0 0.598372,-0.108 0.569952,-0.24 z m 6.938914,-4.746742 c 0.24914,-4.651559 -0.50938,-6.853928 -2.04788,-11.095683 -0.83256,-2.295345 -2.65803,-5.888264 -3.212,-6.230638 -0.39555,-0.244461 -0.79059,0.257038 -0.42918,0.527527 0.41611,0.311422 1.63819,3.418205 2.61384,5.886659 1.42863,3.614528 1.9119,6.343069 1.96581,11.098877 0.0269,2.376 0.12393,4.29754 0.21557,4.44833 0.19473,0.361199 0.68223,-0.684077 0.89384,-4.635072 z m -16.737301,3.88102 c -0.111693,-0.18072 -0.216128,-1.193862 -0.232083,-2.25143 -0.0161,-1.066413 -0.48769,-3.633181 -1.058832,-5.762848 -1.452525,-5.416176 -2.14033,-9.780462 -1.595818,-10.125835 0.229236,-0.145401 0.265594,-0.26657 0.08079,-0.269265 -0.519987,-0.0076 -1.104,0.700795 -1.104,1.3391 0,0.3168 0.140435,0.576 0.31208,0.576 0.197085,0 0.188435,0.324265 -0.02346,0.88 -0.402742,1.056224 -0.211126,2.526 0.990819,7.6 1.170915,4.942998 1.707235,7.437542 1.707235,7.940701 0,0.221187 0.253428,0.402157 0.563175,0.402157 0.309744,0 0.471789,-0.147863 0.360099,-0.32858 z m 29.263391,-9.280201 c 0,-0.256259 -0.12234,-0.390307 -0.27188,-0.297888 -0.14954,0.09242 -0.18904,0.302083 -0.0878,0.465923 0.25876,0.418682 0.35966,0.371539 0.35966,-0.168035 z m -10.89831,-8.30153 c 0.10928,-0.284776 0.0556,-0.05906 -0.12576,0.05305 -0.17399,0.107528 -0.38926,0.247674 -0.38926,0.413287 0,0.460299 0.30229,0.08804 0.51502,-0.466338 z m -1.66798,-0.779214 c 0.0906,-0.146666 -0.0385,-0.266666 -0.28704,-0.266666 -0.24852,0 -0.37768,0.12 -0.28704,0.266666 C 105.88361,28.68 106.01277,28.8 106.08,28.8 c 0.0672,0 0.19639,-0.12 0.28704,-0.266667 z M 95.36,25.6 c 0,-0.176 -0.152499,-0.32 -0.338886,-0.32 -0.186388,0 -0.249888,0.144 -0.141114,0.32 0.108774,0.176 0.261274,0.32 0.338886,0.32 0.07761,0 0.141114,-0.144 0.141114,-0.32 z M 69.558367,71.176867 c 0.183664,-0.33585 0.508357,-0.87986 0.623944,-1.340392 0.212714,-0.847516 3.624383,-4.47791 5.078892,-5.472521 1.09056,-0.745741 4.400365,-0.650725 5.060611,0.102313 0.743658,0.84815 1.507353,2.860315 1.507353,3.603538 0,0.522537 -0.568337,0.803976 -1.136667,0.672469 -2.949882,-0.682582 -5.859595,-0.20785 -8.495192,1.524507 -2.20304,1.448042 -3.479025,2.446278 -3.003524,1.576769 z M 109.3643,65.370736 c -4.70137,-1.596553 -5.92206,-1.670482 -8.66537,-0.726645 -1.023111,0.352 -2.395788,0.949359 -2.338385,0.53688 0.0083,-0.05987 -0.139367,-1.022092 -0.139367,-1.983235 0,-1.396649 0.498119,-2.311822 1.073553,-2.857425 0.673181,-0.638285 0.929839,-0.553967 4.370539,-0.397841 5.38177,0.244215 5.4909,0.363691 7.64505,2.654197 2.13331,2.268345 3.52235,4.106797 3.12395,4.07505 -0.14399,-0.01147 -2.78197,-0.523992 -5.06997,-1.300981 z M 67.023223,39.849411 c 0,-0.639795 -0.404355,-0.973669 -1.255599,-2.07468 -0.476259,-0.616 -0.926428,-1.593708 -1.32446,-2.253708 -0.398035,-0.66 -0.87622,-1.045321 -1.017625,-1.045321 -0.344278,0 -1.596244,-1.726458 -1.596244,-2.259572 0,-0.232945 -0.324633,-0.821383 -0.919462,-1.343649 -1.718614,-1.508964 -2.879091,-4.245731 -2.872864,-6.547158 0.0035,-1.30619 0.307167,-2.289292 0.685231,-2.866291 0.636272,-0.554628 0.458395,-1.082797 0.762722,-1.726847 0.278897,-0.386849 0.183742,-0.835728 0.617873,-1.033128 0.407869,-1.748228 1.792435,-4.429346 2.646564,-4.687393 0.4745,-0.680949 1.13729,-1.767507 1.26401,-1.871851 -0.121303,-0.316113 0.09426,-0.506052 0.297766,-0.506052 0.194832,0 0.206923,-0.123723 0.206923,-0.346959 0,-0.526101 3.419671,-3.7019104 4.474272,-4.247585 0.78328,-0.4052873 2.184681,-0.8271408 6.271916,-1.5656717 2.983821,-0.5391526 10.100356,0.3028763 14.015754,1.4161433 0.968,0.2752317 2.388179,0.5056468 3.155952,0.512033 1.459802,0.012144 8.747388,-2.3486019 9.669248,-3.1322608 C 102.38306,4.0332573 102.76142,3.84 102.94602,3.84 c 0.18458,0 0.51356,-0.2144144 0.73106,-0.4764768 0.21749,-0.262062 0.52312,-0.3975636 0.67918,-0.3011144 0.15606,0.096449 0.28374,0.026183 0.28374,-0.1561464 0,-0.5824571 1.52993,-1.3716306 2.22898,-1.1497605 0.36317,0.1152667 0.57772,0.3432083 0.47678,0.5065369 C 107.24482,2.4263675 107.31422,2.56 107.49998,2.56 c 0.59903,0 3.16494,2.9702288 3.71909,4.3051107 0.29565,0.7121891 0.65574,1.5828893 0.8002,1.9348893 0.56072,1.36629 0.94073,4.154281 0.94073,6.901761 0,2.267903 -0.17247,3.355875 -0.82181,5.184249 -0.452,1.272694 -1.12826,3.21399 -1.50282,4.31399 -0.37455,1.1 -0.80623,3.791667 -1.03569,3.791667 -0.3238,-0.72766 -0.61592,-0.392731 -1.07449,-0.782172 -0.37673,-0.312657 -0.23631,-0.907314 0.11223,-1.902932 0.57898,-1.654081 1.77728,-8.886313 1.7607,-10.626563 -0.0195,-2.046566 -0.49991,-3.887384 -1.81098,-6.9392349 C 107.88665,7.1102646 107.25964,6.08 106.96779,6.08 c -0.3241,0 -0.40594,0.1789117 -0.25615,0.56 0.12107,0.308 0.44014,1.208 0.70906,2 0.26892,0.792 0.60304,1.584 0.7425,1.76 0.13945,0.176 0.43796,1.424695 0.66335,2.774878 0.35525,2.128082 0.33751,2.873562 -0.13329,5.6 -0.96767,5.603837 -0.58316,7.720219 -0.52035,8.627504 0.0607,0.876877 -1.46669,-0.612464 -2.38473,-1.323505 -0.32382,-0.250805 0.55296,-0.06868 1.00375,-0.599245 0.51891,-0.610743 0.51996,-0.631366 0.0122,-0.238317 -0.30576,0.236657 -1.03998,0.986304 -1.32604,0.876532 0.10486,-0.514047 -0.31353,-0.332735 -0.6668,-0.854982 -0.36409,0.284218 -0.33945,0.137032 -0.87375,-0.0768 -0.41868,-0.167565 -1.11883,-0.501291 -0.88111,-0.512447 0.31208,-0.01465 1.29686,-0.742545 1.21583,-1.752718 -0.0639,-0.797311 0.0483,-1.548991 0.26098,-1.747581 0.83085,-0.775815 0.94603,-7.713851 0.15333,-9.235754 C 104.52107,11.619904 104.13305,10.748 103.82425,10 c -0.3088,-0.748 -0.66157,-1.36 -0.78395,-1.36 -0.12237,0 -0.39296,-0.324 -0.6013,-0.72 -0.43712,-0.8308518 -0.32181,-0.426752 0.63361,2.22049 0.96464,2.672768 1.0938,5.674297 0.43874,10.195637 l -0.24774,4.416876 -1.42448,-0.235568 c -0.49048,-0.08111 -2.062958,-0.207856 -3.74723,-0.224912 -1.960621,-0.01986 -3.143438,0.36446 -3.158043,0.141359 -0.09896,-1.511787 -0.295303,-3.841899 -0.535659,-4.082905 -0.171001,-0.171464 -0.163827,-0.521499 0.01763,-0.860579 0.197994,-0.369959 0.192714,-0.641504 -0.01498,-0.769863 C 94.22439,18.611467 94.08,18.026728 94.08,17.421115 94.08,16.815501 93.947725,16.32 93.786058,16.32 c -0.172244,0 -0.221229,1.646837 -0.118314,3.97768 l 1.904796,4.040179 -2.970854,0.436172 c -0.68501,0.100571 -1.627754,0.32942 -2.137809,0.491771 -1.063993,0.33867 -1.696751,-0.2958 -2.230399,-1.572651 C 88.04656,23.245918 87.879357,22.808 87.861914,22.72 87.844474,22.632 87.747696,22.416 87.646858,22.24 87.347702,21.717869 87.333274,14.126635 87.626186,11.36 87.810125,9.6225872 87.788176,8.7284733 87.557878,8.5773994 87.108854,8.2828442 87.116906,8.2660493 86.913664,9.9215411 86.816534,10.712693 86.584304,11.864 86.397594,12.48 c -0.436922,1.441508 -0.426032,7.846111 0.0167,9.830738 0.187638,0.841094 0.549184,1.848196 0.803433,2.238003 0.254247,0.389808 3.378936,0.573897 3.378936,0.638254 0,0.06436 -3.298584,1.143676 -4.134584,1.73645 -0.836,0.592774 -1.477416,1.321047 -1.565416,1.427412 -4.325223,3.102829 -1.690859,2.900611 -3.446246,2.755393 -0.531117,0 -0.725287,-1.81141 -0.483585,-1.662027 0.224342,0.138651 0.286902,0.419389 0.144723,0.649443 -0.16216,0.262381 -0.121504,0.325533 0.115338,0.179157 0.236681,-0.146279 0.298518,-0.05079 0.175206,0.270557 -0.104816,0.273141 0.160002,0.84037 0.0028,0.84037 -0.157168,0 -0.38993,0.128183 -0.38993,0.297583 -1.261628,1.313737 -3.419203,3.824577 -4.757285,4.23915 0.224538,0.363308 -0.387203,1.05098 -0.820771,0.783018 0,0 -0.635443,0.363653 -1.139784,0.691133 -0.387248,-0.01302 -0.81043,0.209327 -0.736702,0.328623 0.177888,0.287827 -1.615948,0.984639 -1.960441,0.77173 -0.147779,-0.09133 -0.587819,0.38034 -0.646853,0.51344 C 70.853791,39.232471 67.696086,40 67.352912,40 c -0.0841,0 -0.329689,0.02541 -0.329689,-0.150589 z m 5.567897,-2.662768 c 0.481082,0.375997 0.485923,0.358813 0.05358,-0.190166 -0.261418,-0.331936 -1.028525,-0.952755 -1.704685,-1.379597 -4.776317,-3.015155 -7.069597,-9.994415 -5.488288,-16.702785 0.265245,-1.125247 0.391689,-2.33128 0.280985,-2.680073 -0.146969,-0.463062 -0.09101,-0.566023 0.207386,-0.381601 0.283235,0.175049 0.351094,0.102543 0.221094,-0.236235 C 66.003126,15.204279 67.62761,11.2 67.952778,11.2 c 0.05971,0 -0.06947,0.756 -0.28706,1.68 -0.977235,4.149834 -1.200726,6.368535 -0.99815,9.909101 0.113568,1.984905 0.351824,3.657364 0.529459,3.716575 0.177635,0.05921 0.322973,0.392575 0.322973,0.740807 0,1.174405 1.650682,4.133683 3.106118,5.568531 0.794989,0.783741 1.487786,1.424986 1.539552,1.424986 0.05176,0 -0.07234,-0.358877 -0.275779,-0.797504 -0.20344,-0.438627 -0.474963,-0.798627 -0.603389,-0.8 -0.128422,-0.0013 -0.518179,-0.560525 -0.866128,-1.24256 C 68.354512,27.350512 67.441613,22.156878 68.13087,18.374558 68.352829,17.156551 68.671926,15.296 68.839974,14.24 69.182608,12.086933 70.013226,9.8904077 70.630861,9.5040992 71.117923,9.1994608 71.174067,8.1206294 70.717546,7.8384829 70.338915,7.6044774 69.334602,8.523673 69.236173,9.1943027 69.14241,9.8331546 68.904374,10.022278 68.504848,9.7753562 68.282301,9.6378147 68.355008,9.2721866 68.718032,8.703313 69.25295,7.8650755 69.325075,7.9423304 68.73895,8.4083883 c -0.33201,0.264 -0.763184,0.6877283 -0.868131,0.6175277 -0.300224,-0.2008173 -1.954461,2.869307 -1.73151,3.230048 0.109766,0.177607 0.04869,0.229667 -0.135731,0.11569 -0.185242,-0.114485 -0.421581,0.136513 -0.528077,0.560829 -0.106026,0.422433 -0.289856,1.021061 -0.408515,1.330283 -0.163527,0.426136 -0.105764,0.497474 0.238633,0.294722 0.300656,-0.176999 0.273178,-0.05943 -0.08122,0.347506 -0.894166,1.026731 -1.644518,5.93857 -1.452266,9.506595 0.09281,1.722375 0.307264,3.306375 0.476576,3.52 0.169312,0.213626 0.406647,0.936443 0.527415,1.60626 0.120765,0.669816 0.487539,1.485816 0.815056,1.813333 0.327517,0.327517 0.499485,0.710738 0.382153,0.851602 -0.117334,0.140864 0.04574,0.05736 0.362397,-0.185571 0.52393,-0.401948 0.562461,-0.368509 0.428247,0.371645 -0.115783,0.638489 0.1388,1.085552 1.184268,2.079644 1.870858,1.778928 3.11928,2.672256 3.449367,2.468253 0.155312,-0.09599 0.293757,0.01398 0.307651,0.244359 0.02042,0.338627 0.05704,0.339686 0.191117,0.0055 0.135542,-0.337808 0.262518,-0.337808 0.694739,0 z M 67.84,10.56 c 0,-0.176 0.144,-0.32 0.32,-0.32 0.176,0 0.32,0.144 0.32,0.32 0,0.176 -0.144,0.32 -0.32,0.32 -0.176,0 -0.32,-0.144 -0.32,-0.32 z m 8.937472,19.76 c -1.578333,-4.018054 -1.620122,-4.219425 -1.610429,-7.76 0.0053,-1.936 0.160455,-4.24 0.344787,-5.12 0.184333,-0.88 0.424989,-2.071497 0.534791,-2.647771 0.109801,-0.576273 0.32423,-1.124772 0.476509,-1.218885 C 76.675408,13.479231 76.8,13.165369 76.8,12.875872 76.8,12.586376 77.448,11.017474 78.24,9.3894243 79.032,7.7613741 79.68,6.3507331 79.68,6.2546666 79.68,6.1586 79.352746,6.08 78.952768,6.08 78.449539,6.08 78.039309,6.4258061 77.620934,7.2026848 77.046499,8.2693411 76.98665,8.298513 76.421683,7.787225 75.857565,7.2767046 75.76792,7.3135264 74.67529,8.5045402 c -2.815565,3.0690888 -3.840528,5.3293818 -4.241264,9.3529988 -0.384941,3.865026 0.58526,11.077034 1.428998,10.622461 0.323267,-0.174165 0.32495,-0.137575 -0.104102,-2.264082 -0.162471,-0.805245 -0.240599,-3.302153 -0.173616,-5.548683 0.09988,-3.350058 0.262121,-4.457434 0.902147,-6.157831 C 73.566413,11.642871 76.8,7.5998138 76.8,9.1172883 76.8,9.3827798 76.685821,9.6 76.546269,9.6 c -0.139555,0 -0.516282,0.828 -0.837171,1.84 -0.320893,1.012 -0.699511,2.128 -0.841373,2.48 -1.228999,3.04946 -1.380266,11.21168 -0.255469,13.784894 C 75.044941,28.694756 77.131731,32 77.324,32 77.38636,32 77.140429,31.244 76.777472,30.32 Z M 72.553334,29.246667 C 72.446998,29.140333 72.170998,29.128965 71.94,29.221403 c -0.255274,0.102152 -0.17945,0.177978 0.193334,0.193333 0.337332,0.01389 0.526333,-0.06174 0.42,-0.16807 z M 80.57288,27.42058 c -0.213866,-0.385319 -0.35631,-0.814414 -0.316544,-0.953543 0.03977,-0.13913 -0.07725,-0.532401 -0.260029,-0.873935 -0.182781,-0.341534 -0.461005,-1.645718 -0.618269,-2.898186 -0.445411,-3.54726 0.452381,-8.374762 2.212576,-11.897227 C 82.123776,9.7307376 82.56,8.696567 82.56,8.4995318 82.56,8.3024966 82.848,7.9337072 83.2,7.68 83.552,7.4262928 83.84,7.0345034 83.84,6.8093571 83.84,6.2095082 82.649072,6.3101542 82,6.964857 81.231462,7.7400595 79.53463,11.30632 78.919114,13.44 78.104378,16.264286 77.674835,19.817924 77.90369,21.840723 78.122013,23.770435 79.263264,27.2 79.687088,27.2 c 0.131046,0 0.31737,0.302489 0.414051,0.672197 0.09709,0.371292 0.329059,0.577468 0.518189,0.46058 0.239181,-0.147823 0.225181,-0.422814 -0.04645,-0.912197 z m 4.157632,-0.674924 c -0.0738,-0.697525 -0.452019,-4.580465 -1.022336,-6.585656 -0.275318,-0.968 -0.502288,-2.228 -0.504378,-2.8 -0.0022,-0.572 -0.158444,-1.04 -0.347459,-1.04 -0.540621,0 0.616849,7.150778 1.499527,10.129865 0.201652,0.680591 0.447916,0.988328 0.374646,0.295791 z m 14.164157,-4.053063 c 0.196451,-0.367074 0.273203,-0.751388 0.17056,-0.854031 -0.102643,-0.102644 0.06569,-0.465351 0.374073,-0.806017 0.847628,-0.93636 0.817058,-8.706836 -0.04278,-10.872545 -0.602128,-1.5166125 -1.435629,-2.1783965 -1.007578,-0.8 0.552579,1.779406 0.569293,7.537094 0.02893,9.965934 C 98.120032,20.66467 97.742166,21.76 97.578173,21.76 c -0.447299,0 -0.359114,1.202076 0.101827,1.38807 0.70031,0.282582 0.849638,0.226587 1.214669,-0.455477 z M 93.76,15.04 c 0,-0.176 -0.144,-0.32 -0.32,-0.32 -0.176,0 -0.32,0.144 -0.32,0.32 0,0.176 0.144,0.32 0.32,0.32 0.176,0 0.32,-0.144 0.32,-0.32 z M 88,8 C 87.736,7.8293901 87.376,7.6898003 87.2,7.6898003 c -0.176,0 -0.104,0.1395898 0.16,0.3101997 0.264,0.1706099 0.624,0.3101997 0.8,0.3101997 C 88.336,8.3101997 88.264,8.1706099 88,8 Z m 17.92,-5.3144479 c 0,-0.2648408 -0.62135,-0.4146085 -0.76381,-0.1841053 -0.0924,0.1495376 0.0416,0.2718865 0.29789,0.2718865 0.25625,0 0.46592,-0.039502 0.46592,-0.087781 z M 80.382866,33.183462 c -0.308794,-0.804702 1.761468,-2.554003 2.138696,-1.905295 0.186781,0.3212 -0.290308,1.797244 -0.372698,1.879635 -0.08239,0.08239 -1.656257,0.311643 -1.765998,0.02566 z m 30.318904,-2.895057 c -0.44732,-0.701977 -1.47579,-1.512831 -1.31789,-1.572732 0.59788,-0.226813 3.57295,-4.73066 4.71142,-8.715673 0.52173,-1.826217 0.57348,-5.329152 0.11345,-7.68 -0.1722,-0.88 -0.31678,-1.849164 -0.32128,-2.153699 -0.005,-0.3045346 -0.14538,-0.6384847 -0.31305,-0.7421116 -0.16767,-0.1036268 -0.22201,-0.322462 -0.12075,-0.4863008 C 113.55492,8.7740499 113.50327,8.64 113.33889,8.64 113.1745,8.64 113.04,8.2713821 113.04,7.8208493 c 0,-1.4775303 -4.03562,-6.4931577 -5.28092,-6.5633406 -0.76402,-0.043059 0.88757,-0.57264928 1.84092,-0.59030003 1.17241,-0.0217066 2.59199,0.68044813 2.47207,1.22273793 -0.0484,0.2186935 0.0279,0.3260454 0.16944,0.2385599 0.42463,-0.2624348 3.67469,2.929314 3.41337,3.3521316 -0.13277,0.2148304 -0.0971,0.2937817 0.0826,0.1827417 0.33418,-0.2065328 1.09963,1.5825568 2.3619,5.5204192 0.97643,3.046145 1.0174,7.907981 0.0791,9.384857 -0.26174,0.411956 -0.31347,0.592197 -0.37844,1.318488 -0.022,0.245929 -0.76323,1.217929 -1.64717,2.16 -0.99314,1.058436 -1.72276,2.996767 -2.72662,4.693345 l -1.64029,2.772154 z"
         id="hair" />
      <path
         style="fill:#fbd7c8;stroke-width:0.32"
         d="m 88.164863,114.53999 c 0.523807,0.20062 -1.637818,-0.94473 -2.16665,-1.42618 -0.528832,-0.48145 -1.556243,-1.3438 -2.461376,-1.80175 -0.905133,-0.45796 -2.836199,-1.63197 -4.214871,-2.67257 -1.378669,-1.04059 -2.649031,-1.89199 -2.873949,-1.89199 -0.224919,0 -1.149715,-0.62926 -2.080566,-1.38561 -0.930848,-0.75636 -2.44238,-1.70215 -3.244377,-2.08903 -0.801997,-0.38688 -1.632561,-0.90872 -2.011204,-1.26148 -0.378643,-0.35276 -0.803319,-0.6518 -0.880065,-0.6518 -0.07675,0 -0.914434,-0.41157 -1.505045,-0.96553 -0.590614,-0.553955 -1.36001,-1.189382 -1.88801,-1.412054 -0.528,-0.222676 -1.296045,-0.88854 -1.706768,-1.326924 -0.706867,-0.75447 -0.590558,-0.991607 -0.03767,-1.301022 0.808826,-0.452643 0.478295,-0.810354 -0.345593,-0.369423 -0.532227,0.284839 -0.843203,0.23496 -1.547405,-0.248201 -0.484726,-0.332573 -1.614719,-0.715484 -2.090962,-1.003688 -0.658176,-0.398304 -1.018393,-1.227294 -1.534604,-2.960644 -0.777738,-2.611491 -0.510227,-3.580916 0.822205,-5.098472 0.525456,-0.59846 0.840793,-1.051293 0.840793,-1.171802 0,-0.120509 0.263409,-0.750414 0.674475,-1.31067 1.670144,-2.276298 2.388506,-3.973195 2.161322,-9.162929 -0.05189,-1.18521 -0.290812,-2.378144 0.457518,-4.247011 0.559712,-1.397814 1.429543,-2.699848 1.551015,-2.791554 0.121476,-0.0917 0.340696,-0.546656 0.601739,-1.074656 1.467562,-2.968336 6.399082,-8.166744 9.854768,-10.274024 0.572,-0.348806 1.019167,-0.733433 1.019167,-0.880188 0,-0.146755 0.385777,-0.481205 0.729965,-0.590446 0.344189,-0.109242 1.245612,-0.574955 2.079555,-1.264084 1.182704,-0.977328 2.553237,-1.519829 5.749979,-2.539947 5.590323,-1.783942 7.372244,-2.233284 13.191214,-2.019834 4.012867,0.147196 5.642527,0.391232 8.659137,1.153139 4.67422,1.180573 5.74848,1.755493 8.00025,3.884866 0.99721,0.943001 2.10469,1.626159 2.31703,1.626159 0.21234,0 1.40653,1.287743 2.71267,2.598131 2.06747,2.074192 2.25867,2.730617 2.73875,4.441618 0.50247,1.790784 0.50665,2.014848 0.0471,2.522676 -0.7577,0.837257 -0.38012,1.646707 0.4808,1.768976 0.63534,0.09023 0.83241,0.544905 0.9022,2.097958 0.14261,3.173165 0.80416,6.888418 1.24517,7.254424 0.23786,0.197408 0.19726,0.969253 0.39591,1.571173 0.19865,0.601923 0.91446,0.490416 1.06854,0.490416 0.86123,0 0.79578,5.067993 0.0711,6.753129 -0.24855,0.577972 -0.44274,1.812471 -0.72435,2.616014 -1.08627,3.099552 -5.7622,9.107385 -9.00215,11.516422 -2.49686,1.856522 -6.95067,5.386322 -7.84482,6.507262 -0.32077,0.40214 -0.56774,0.88741 -0.77799,0.88741 -0.21025,0 -1.0373,0.61672 -1.91428,1.37049 -2.29509,1.97265 -5.21355,3.77377 -6.9995,4.31067 -0.44,0.13227 -0.938796,0.35079 -1.184825,0.54925 -0.419475,0.33838 -3.751844,1.00573 -7.023508,1.37149 -0.813106,0.18683 -4.105015,-0.79808 -2.311834,-0.0982 z m 10.826423,-9.39848 c -0.02678,-0.16417 -0.789376,-0.2544 -1.554583,-0.67157 -1.259548,-0.68669 -1.559821,-0.87777 -4.16712,-0.72329 -4.384496,0.25977 -5.927508,0.22867 -5.715632,0.57148 0.116092,0.18784 1.388704,-0.0873 3.854391,-0.20079 3.615427,-0.16639 4.346212,0.0257 5.346241,0.57795 1.145814,0.63273 2.324019,0.98123 2.236703,0.44622 z m -3.832232,-7.162557 c 1.237085,-0.46593 2.876389,-2.682628 3.035912,-4.616074 0.136915,-1.659434 -0.412494,-0.859161 -0.578521,-0.228843 -0.846293,3.212949 -2.639267,5.57614 -5.344211,5.170508 -1.186966,-0.177997 -2.256771,-0.979637 -3.668784,-2.47276 -0.931308,-0.984806 -1.789624,-2.129261 -1.920098,-2.670547 -0.218621,-0.906964 -0.185561,-0.164713 -0.177437,-0.06494 0.102679,1.260916 0.34491,1.627093 1.951953,3.402789 2.153811,2.379843 4.001225,2.496766 6.701186,1.479867 z M 83.429088,90.32 c 1.710195,-1.606554 2.65377,-3.632102 2.814915,-6.04272 0.100762,-1.507338 0.05785,-1.94608 -0.136662,-1.39728 -0.155949,0.44 -0.297901,1.275901 -0.315443,1.857555 -0.04778,1.584263 -1.121895,3.656317 -2.576663,4.970611 C 82.502854,90.35176 81.92,90.95071 81.92,91.039168 c 0,0.39799 0.6492,0.08861 1.509088,-0.719168 z M 104.16,88.96 c 0.11517,-0.186352 -0.20586,-0.172686 -0.76865,-0.172686 -0.57766,0 -1.22499,-0.424863 -1.60922,-0.837282 -0.83533,-0.896624 -3.224536,-5.421501 -3.944293,-7.470032 -0.859731,-2.446925 -0.883434,-2.16225 -1.030432,-2.015248 -0.245002,0.244998 2.285042,3.729918 3.736295,6.539809 1.3764,2.664967 1.65731,4.078198 2.88478,4.097513 0.29762,0.0047 0.62275,0.03393 0.73152,-0.142074 z M 80.796511,83.882057 c 0.69654,-0.381507 1.555849,-1.089111 1.95047,-1.791216 0.657907,-1.087253 0.332356,-0.898834 0.610987,-1.766915 0.291958,-0.564582 0.59673,-1.336432 0.677267,-1.715219 0.530931,-2.497024 0.784521,-3.808295 0.650617,-4.024958 -0.08427,-0.136352 0.455012,-0.335488 0.200562,-0.647926 -0.03459,-0.04247 0.561408,0.198427 -1.12736,-0.944376 l -1.856137,-0.83603 -3.36375,-0.427217 c -0.477132,-0.0606 -3.753632,0.282314 -4.654912,0.674583 -0.681495,0.296611 -1.325128,0.716377 -1.570341,0.716377 -0.577303,0 -4.015012,1.610446 -5.353914,2.846369 -1.019011,0.940637 -1.359424,1.794464 -0.715437,1.794464 0.188154,0 0.250099,0.422678 0.147389,1.005689 -0.159987,0.9081 0.250013,0.945538 1.898787,2.42125 3.453904,3.091376 4.068664,3.282845 8.380178,3.232841 1.517445,-0.08931 3.000425,0.06393 4.125594,-0.537716 z m 30.612999,-2.771293 c 1.232,-0.45256 2.53463,-1.042136 3.10179,-1.283157 1.70377,-0.724038 4.22012,-4.027236 3.31203,-4.588468 C 117.30305,74.91759 116.74038,73.28 117.15018,73.28 c 0.18388,0 0.28832,-0.311014 0.23208,-0.691142 -0.14123,-0.954564 -2.79374,-1.598284 -7.10715,-2.077913 -5.28025,-0.587136 -9.83721,1.90145 -10.731777,2.965066 C 98.269496,74.990575 97.283418,75.52 98.009674,75.52 c 0.225321,0 0.981321,0.806003 1.68,1.791114 0.698686,0.985113 1.441066,1.973571 1.649756,2.196572 0.24729,0.26425 0.0901,0.472759 0.17689,0.747911 0.0989,0.313596 1.03609,0.792163 2.25949,1.388226 2.89482,0.36536 5.33612,0.263022 7.6337,-0.533059 z M 86.076342,79.559309 C 85.797696,79.288915 85.72808,79.477152 85.795018,80.32 c 0.125859,1.584794 0.426163,1.956854 0.548291,0.679309 0.05682,-0.594378 -0.06331,-1.242378 -0.266967,-1.44 z M 69.962577,71.895667 c 0.361894,-0.337159 1.683478,-1.11201 2.949584,-1.785552 2.0703,-1.101357 2.68941,-1.121382 4.847839,-1.129673 1.32,-0.0051 2.847167,-0.135748 3.419167,0.01517 l 0.6025,0.08689 0.229166,-1.055249 c 0.351936,-1.620572 -2.41516,-5.718214 -6.065026,-4.41575 -1.399718,0.499495 -5.227105,4.372364 -6.034775,6.154755 -0.287959,0.635475 -1.008981,1.388061 -1.385838,1.723341 -0.512323,1.393127 -0.343713,1.790018 1.437383,0.406068 z M 115.12225,66.91766 c 0,-0.696842 -3.26091,-4.671721 -3.71214,-4.994497 -2.6442,-1.891486 -4.37253,-2.149745 -8.45894,-2.398809 -2.5568,-0.155836 -3.260717,0.04809 -3.703865,0.403909 -0.474489,0.380985 -1.210342,3.056387 -1.105629,3.838175 0.123239,0.920092 0.256334,1.839409 0.103846,1.898079 -0.27046,0.10406 -0.06816,-0.865987 -0.500325,0.86193 -0.01741,0.06961 0.636252,-0.317226 1.488492,-0.740957 0.852241,-0.423728 2.090791,-0.75805 2.662301,-0.940994 1.083,-0.346679 3.8674,-0.308288 4.97132,0.160515 1.08302,0.45993 1.77772,0.755883 2.34954,0.868696 0.30106,0.0594 1.20594,0.326336 2.13688,0.665212 2.18307,0.794682 3.76852,1.089266 3.76852,0.378741 z M 58.563997,83.847466 c -0.258163,-0.482381 -0.722825,-1.374486 -0.595052,-2.601827 0.637577,-6.124304 0.736648,-5.624652 -0.140549,-6.950185 -1.011469,-1.528429 -1.2589,-3.473088 -0.712151,-4.131878 0.588662,-0.709296 0.971029,-0.537666 2.25419,1.028261 1.45368,1.774025 2.340754,3.534061 1.645026,4.595926 -0.564167,0.861069 -0.744054,1.050072 -0.04513,0.470014 0.3947,-0.327571 0.634616,-0.160375 0.807953,0.530252 0.221463,0.882388 -0.05134,3.199414 -0.468133,3.733638 -0.137315,0.176 -0.425834,0.865666 -0.628423,1.481666 -0.202588,0.616 -0.614875,1.488341 -0.941653,1.913074 l -0.781641,0.668076 z m 65.881853,-8.809044 c -0.40472,-1.064508 -0.49901,-3.418149 -0.10286,-3.003186 0.15964,0.1672 1.3196,1.564705 1.49739,2.223323 0.3789,1.403651 -0.86615,2.819575 -1.3504,1.545895 z m -0.60824,-5.735302 c -0.0578,-1.165712 -0.27207,-2.836299 -0.44285,-3.516747 -0.0975,-0.388473 -0.2467,-1.556074 0.14435,-1.993323 l 0.54259,-0.977647 0.82647,0.418243 c 0.95784,0.484724 0.56972,4.504343 -8.7e-4,6.408814 -0.38507,1.285228 -1.02149,0.632826 -1.06969,-0.33934 z"
         id="skin" />
      <path
         style="fill:#ddddd5;stroke-width:0.32"
         d="m 80.32,82.119181 c 0,-0.06645 0.252,-0.318448 0.56,-0.56 0.507539,-0.398039 0.518858,-0.38672 0.120819,0.120819 C 80.582781,82.21304 80.32,82.382554 80.32,82.119181 Z m -1.28,-1.460295 c 0,-0.165612 0.142352,-0.389094 0.316336,-0.49662 0.181395,-0.112109 0.23504,0.01635 0.125763,0.301113 C 79.269366,81.017754 79.04,81.119184 79.04,80.658886 Z M 67.2,77.319181 c 0,-0.06645 0.252,-0.318448 0.56,-0.56 0.507539,-0.398039 0.518858,-0.38672 0.120819,0.120819 C 67.462781,77.41304 67.2,77.582554 67.2,77.319181 Z M 59.818755,61.86208 c -0.59975,-1.543053 -0.728461,-2.519981 -0.751251,-5.70208 -0.02301,-3.212224 0.05097,-3.84 0.452496,-3.84 0.382211,0 0.463722,0.391155 0.400099,1.92 -0.04395,1.056 0.150711,3.549344 0.432573,5.540762 0.281859,1.991417 0.439878,3.693353 0.351152,3.78208 -0.08872,0.08873 -0.487005,-0.676618 -0.885069,-1.700762 z m 62.274915,-2.959968 c -0.10126,-0.16384 -0.0618,-0.373504 0.0878,-0.465923 0.14954,-0.09242 0.27188,0.04163 0.27188,0.297888 0,0.539574 -0.1009,0.586717 -0.35966,0.168035 z m -3.5538,-2.314122 -0.93987,-1.012006 0.86995,0.612006 c 0.47846,0.336605 0.87446,0.737642 0.88,0.891191 0.006,0.153552 0.26205,0.08155 0.57005,-0.16 0.50754,-0.398039 0.51886,-0.38672 0.12082,0.120819 -0.24155,0.308 -0.46661,0.56 -0.50013,0.56 -0.0335,0 -0.48389,-0.455405 -1.00082,-1.01201 z M 121.97322,56.08 c 0.56201,-2.889664 0.62627,-3.093866 0.85642,-2.721475 0.19056,0.30832 0.22961,1.900832 0.0868,3.540361 -0.0201,0.230388 -0.18048,0.329888 -0.35648,0.221114 -0.176,-0.108774 -0.32,-0.04527 -0.32,0.141114 0,0.186387 -0.12654,0.338886 -0.28121,0.338886 -0.15958,0 -0.15334,-0.657398 0.0144,-1.52 z M 67.95695,55.969834 C 67.75727,55.722426 67.430509,54.8 67.230813,53.92 c -0.199696,-0.88 -0.445827,-1.888 -0.546957,-2.24 -0.10113,-0.352 -0.223907,-2.168691 -0.272842,-4.037094 -0.100019,-3.818922 0.54944,-6.560964 1.534576,-6.479034 0.290138,0.02413 0.457898,-0.06878 0.372804,-0.20647 -0.08509,-0.137687 0.06045,-0.332909 0.323443,-0.433828 0.262989,-0.100918 0.478163,-0.03551 0.478163,0.145354 0,0.180864 0.18,0.22359 0.4,0.09495 0.22,-0.12864 0.172141,0.04286 -0.106352,0.381117 -1.738522,2.111578 -2.12576,5.586237 -1.263245,11.335005 0.459962,3.065696 0.395968,4.220144 -0.193453,3.489834 z m 51.27601,0.0835 c -0.0906,-0.146668 0.0385,-0.266668 0.28704,-0.266668 0.24852,0 0.37768,0.12 0.28704,0.266668 C 119.71639,56.2 119.58723,56.32 119.52,56.32 c -0.0672,0 -0.19639,-0.12 -0.28704,-0.266666 z M 117.504,54.976 c -0.46262,-0.462621 -0.51629,-1.335533 -0.065,-1.056598 0.21101,0.130412 0.2137,-0.07989 0.008,-0.621114 -0.17112,-0.450058 -0.20668,-0.81927 -0.079,-0.820474 0.12765,-0.0013 0.27724,-1.6212 0.33243,-3.6 0.0975,-3.496691 -0.20036,-5.479977 -1.21325,-8.077814 -0.71793,-1.841312 -0.93769,-3.773798 -0.50018,-4.398429 0.37929,-0.541504 0.44521,-0.507225 0.8981,0.467015 0.26882,0.578278 0.58832,1.663414 0.71,2.411414 0.12168,0.748 0.36799,1.36 0.54735,1.36 0.17936,0 0.24995,0.198454 0.15688,0.441005 -0.0931,0.242553 -6.4e-4,0.609878 0.20576,0.816272 0.54375,0.544144 0.50984,9.783469 -0.0407,11.086848 -0.22862,0.54127 -0.43926,1.29727 -0.46809,1.68 -0.0288,0.382733 -0.065,0.695875 -0.0803,0.695875 -0.0154,0 -0.20071,-0.1728 -0.41191,-0.384 z M 62.563741,53.137034 C 62.309891,51.981264 62.66729,47.04 63.004736,47.04 c 0.119965,0 0.245549,-0.288 0.279072,-0.64 0.126954,-1.332986 0.19831,-1.473005 0.772736,-1.516275 0.538227,-0.04054 0.545498,-5.1e-5 0.08302,0.462422 -0.335677,0.335677 -0.391261,0.578298 -0.164586,0.718391 0.237482,0.146771 0.191799,0.789244 -0.149203,2.098441 -0.270313,1.037799 -0.500339,2.628877 -0.511171,3.535735 -0.02477,2.074822 -0.43745,2.865305 -0.750867,1.43832 z M 77.44,53.639181 c 0,-0.06645 0.252,-0.318448 0.56,-0.56 C 78.507539,52.681142 78.518858,52.692461 78.120819,53.2 77.702781,53.73304 77.44,53.902554 77.44,53.639181 Z M 123.36,52.8 c 0.0838,-0.435264 -0.05,-0.641568 -0.41837,-0.644899 -0.45897,-0.0042 -0.46967,-0.05041 -0.0701,-0.303111 0.31099,-0.196672 0.55447,-0.167766 0.71509,0.0849 0.34306,0.539635 0.31211,1.503107 -0.0483,1.503107 -0.16589,0 -0.24616,-0.288 -0.17837,-0.64 z M 75.697613,52.106611 c -0.45145,-1.349427 -0.814272,-3.111715 -0.815827,-3.962611 -9.6e-4,-0.5368 -0.154692,-1.128906 -0.341578,-1.315792 -0.186883,-0.186883 -0.39792,-1.67472 -0.46897,-3.306304 -0.07105,-1.631581 -0.02614,-2.864723 0.09979,-2.74031 0.244301,0.241347 2.308589,9.415932 2.409117,10.707168 0.06435,0.826467 -0.646297,1.323977 -0.882534,0.617849 z M 59.426349,50.974096 c -0.09551,-0.491754 -0.04061,-0.942394 0.121997,-1.001427 0.162601,-0.05903 0.214246,-0.239034 0.114761,-0.4 -0.09948,-0.160967 -0.0329,-0.292669 0.147965,-0.292669 0.180864,0 0.251546,-0.201434 0.157069,-0.447632 -0.235933,-0.614835 0.481693,-0.997718 0.939741,-0.501389 0.291475,0.315834 0.247158,0.35913 -0.204503,0.199783 -0.40823,-0.144023 -0.504563,-0.08769 -0.329872,0.192902 0.328007,0.526858 0.140605,1.839446 -0.365856,2.562522 -0.376646,0.537737 -0.420861,0.514003 -0.581302,-0.31209 z M 125.18238,50.4 c 0.007,-0.528 0.0782,-0.705261 0.15938,-0.39391 0.0811,0.31135 0.0758,0.74335 -0.0119,0.96 -0.0876,0.216649 -0.15403,-0.03809 -0.14751,-0.56609 z M 78.57016,50.16 c -0.919856,-4.087414 -1.47776,-7.81073 -1.562915,-10.430493 -0.09237,-2.841638 -0.04025,-3.199849 0.516166,-3.547334 0.3404,-0.212586 0.70089,-0.304541 0.801085,-0.204346 0.100192,0.100195 0.0057,0.182173 -0.210048,0.182173 -0.215722,0 -0.320003,0.116848 -0.231738,0.259664 0.08827,0.142816 0.190525,1.402816 0.227242,2.8 0.03672,1.397184 0.251206,3.404336 0.476643,4.460336 1.062135,4.975309 1.421287,6.738755 1.417507,6.96 -0.0022,0.132 -0.28936,0.24 -0.638006,0.24 -0.396038,0 -0.694704,-0.270173 -0.795936,-0.72 z m 44.62023,-0.158646 c -0.43327,-0.88074 -2.27674,-9.194375 -1.97097,-8.888599 0.0889,0.08893 0.35494,0.0013 0.59114,-0.194713 0.3303,-0.274125 0.42944,-0.232186 0.42944,0.18166 0,0.34529 0.14331,0.451968 0.4,0.297757 0.29985,-0.180141 0.29596,-0.111881 -0.0156,0.272624 -0.3203,0.39537 -0.3273,0.567475 -0.0306,0.750871 0.26486,0.163692 0.30362,0.0977 0.12423,-0.211511 -0.14341,-0.247193 -0.14247,-0.342256 0.002,-0.211251 0.27836,0.252266 0.46613,1.54143 0.51295,3.52168 0.0156,0.659926 0.15852,1.11943 0.3176,1.021114 0.15907,-0.09832 0.27786,0.15374 0.26396,0.560128 -0.0139,0.406387 -0.0979,0.558886 -0.18666,0.338886 -0.31013,-0.768576 -0.74803,-0.391462 -0.74317,0.64 0.003,0.687062 0.0963,0.895885 0.27412,0.615338 0.18342,-0.2893 0.33171,-0.03965 0.46524,0.783196 0.24466,1.507648 0.12283,1.654461 -0.43387,0.52282 z M 83.920698,49.455418 c 0.132384,-0.155914 -0.0029,-0.552458 -0.300237,-0.88121 -0.297517,-0.328749 -0.583875,-0.844435 -0.636355,-1.145968 -0.809069,-4.648662 -1.096055,-6.678694 -1.20858,-8.549021 -0.07415,-1.232429 -0.210425,-2.456429 -0.302838,-2.72 C 81.380275,35.895648 81.263114,35.176 81.212333,34.56 c -0.05994,-0.727082 -0.241005,-1.089152 -0.516119,-1.03207 -0.236579,0.04908 -0.3283,-0.06657 -0.207632,-0.261818 0.118887,-0.192358 0.410256,-0.275261 0.647488,-0.184224 0.292116,0.112096 0.367402,-9.6e-4 0.233252,-0.350678 -0.136864,-0.356669 -0.07577,-0.440602 0.197699,-0.271591 0.266038,0.164419 0.362541,0.06138 0.294381,-0.314307 -0.05577,-0.307404 0.09864,-0.628537 0.343142,-0.713628 0.244496,-0.08509 0.362285,-0.02162 0.261754,0.141046 -0.272224,0.440467 1.240579,12.795523 1.981804,16.185398 0.206208,0.943056 0.152333,1.28144 -0.253059,1.589453 -0.283273,0.215225 -0.406729,0.263753 -0.274345,0.107837 z m 27.030972,-3.27944 c 0.17446,-4.028036 -1.09096,-11.940218 -2.27447,-14.221377 -0.68173,-1.314013 -0.72537,-1.582477 -0.33985,-2.091081 0.24326,-0.320936 0.44687,-0.43232 0.45247,-0.24752 0.006,0.1848 -0.16982,0.537855 -0.38982,0.784567 -0.31398,0.352107 -0.26839,0.348666 0.21204,-0.016 0.4737,-0.359563 0.64262,-0.373706 0.74733,-0.06257 0.0744,0.221096 0.30299,0.304344 0.50796,0.184994 0.20497,-0.11935 0.0847,0.116706 -0.26733,0.524569 l -0.64,0.741569 0.66519,-0.348489 c 0.58203,-0.304921 0.6575,-0.260736 0.60368,0.353438 -0.0338,0.386059 0.0752,0.875618 0.24236,1.087909 0.16713,0.212288 0.21712,0.526339 0.1111,0.697888 -0.10602,0.171549 -0.067,0.389642 0.0867,0.48465 0.26839,0.165875 0.60563,1.662025 1.30542,5.791478 0.53189,3.138669 0.81335,8.609139 0.43078,8.372698 -0.18617,-0.115056 -0.31367,0.03954 -0.28914,0.350592 0.0268,0.339865 -0.21769,0.593811 -0.62821,0.652531 -0.65131,0.09316 -0.66788,-6.4e-4 -0.53625,-3.039843 z m -40.056316,2.168864 c -0.391719,-0.633815 -0.292788,-5.417767 0.122384,-5.91802 0.218547,-0.263331 0.305484,-0.627446 0.19319,-0.809139 -0.125994,-0.203862 0.0061,-0.24967 0.344947,-0.119638 0.411488,0.157904 0.48409,0.09684 0.289674,-0.243664 -0.186291,-0.326269 -0.157773,-0.36144 0.101139,-0.124746 0.250931,0.229392 0.268003,0.667293 0.05615,1.44 -0.16744,0.610701 -0.35615,2.153943 -0.419363,3.429424 -0.115625,2.333095 -0.302419,2.969866 -0.688121,2.345783 z M 96.9,48.421405 c 0.230998,-0.09244 0.507002,-0.08107 0.613334,0.02525 0.106333,0.106333 -0.08267,0.181965 -0.42,0.16807 C 96.72055,48.599363 96.644726,48.523542 96.9,48.421392 Z M 59.053667,48.022112 c -0.101261,-0.16384 -0.06176,-0.373504 0.08778,-0.465923 0.14954,-0.09242 0.271888,0.04163 0.271888,0.297888 0,0.539574 -0.100908,0.586717 -0.359668,0.168035 z M 89.28,48 c -0.410208,-0.265098 -0.398576,-0.310912 0.08,-0.315101 0.308,-0.0026 0.56,0.139101 0.56,0.315101 0,0.390275 -0.03609,0.390275 -0.64,0 z m 5.83207,-0.376214 C 95.160432,47.390704 95.02,47.236 94.8,47.28 c -0.288422,0.05768 -0.4,-0.523059 -0.4,-2.081962 0,-3.725782 -0.921056,-10.336297 -1.943472,-13.948487 -0.540262,-1.908747 -0.910045,-3.542702 -0.821734,-3.63101 0.248473,-0.248476 1.387724,2.157593 2.279625,4.814518 1.296752,3.86296 2.323018,14.864656 1.437651,15.41184 -0.180358,0.111469 -0.288358,0.01197 -0.24,-0.221113 z M 98.423203,47.28 c 1.043578,-5.130336 0.57401,-13.295402 -0.961558,-16.72 -0.716442,-1.597797 -0.891325,-2.4 -0.52321,-2.4 0.313037,0 0.47401,0.441185 0.379459,1.04 -0.02083,0.132 0.116724,0.204 0.3057,0.16 0.714812,-0.166432 2.052432,4.489501 2.459236,8.56 0.37459,3.748211 0.26684,7.434464 -0.252564,8.64 -0.227488,0.528 -0.390362,1.068 -0.36194,1.2 0.02842,0.132 -0.228057,0.24 -0.569952,0.24 -0.47471,0 -0.587014,-0.170166 -0.475171,-0.72 z m 7.090197,0.514163 C 105.42176,47.643373 105.32476,45.576 105.29783,43.2 c -0.0539,-4.755808 -0.53718,-7.484349 -1.96581,-11.098877 -0.97565,-2.468454 -2.53106,-5.575237 -2.94717,-5.886659 -0.24218,-0.181258 0.11289,-0.57144 0.95842,-1.053187 0.25742,-0.146664 0.34172,-0.0026 0.25673,0.438723 -0.0696,0.361402 -0.0162,0.588918 0.1186,0.50559 0.69642,-0.430413 3.67664,6.710026 4.52236,10.835322 0.61078,2.97927 0.002,12.054483 -0.72756,10.853251 z M 88.746666,46.820701 c 0,-0.503159 -0.53632,-2.997703 -1.707236,-7.940701 -1.201945,-5.074 -1.393561,-6.543776 -0.990819,-7.6 0.211904,-0.555735 0.220554,-0.88 0.02346,-0.88 C 85.900435,30.4 85.76,30.1408 85.76,29.824 c 0,-0.638305 0.584013,-1.346683 1.104,-1.3391 0.1848,0.0027 0.148442,0.123864 -0.08079,0.269265 -0.544512,0.345373 0.143293,4.709659 1.595818,10.125835 0.571142,2.129667 1.042742,4.696435 1.058832,5.762848 0.01597,1.057568 0.12039,2.07071 0.232083,2.25143 0.11169,0.180717 -0.05035,0.32858 -0.360099,0.32858 -0.309747,0 -0.563174,-0.18097 -0.563174,-0.402157 z M 62.24,44.48 c 0.318557,-0.352 0.651194,-0.64 0.739194,-0.64 0.088,0 -0.100637,0.288 -0.419194,0.64 -0.318557,0.352 -0.651194,0.64 -0.739194,0.64 -0.088,0 0.100637,-0.288 0.419194,-0.64 z m 1.44,-0.818701 c 0,-0.06533 0.288,-0.272915 0.64,-0.461299 0.353574,-0.189229 0.64,-0.21097 0.64,-0.04858 0,0.161667 -0.288,0.369251 -0.64,0.461302 -0.352,0.09205 -0.64,0.11391 -0.64,0.04858 z m 57.79619,-3.719853 c 0.0924,-0.149536 0.30208,-0.18904 0.46592,-0.08778 0.41868,0.258759 0.37154,0.359667 -0.16803,0.359667 -0.25626,0 -0.39031,-0.122348 -0.29789,-0.271887 z M 74.706842,38.37871 c -0.32834,-0.531267 -0.03364,-0.604937 0.425776,-0.106435 0.226937,0.24625 0.271436,0.447725 0.09888,0.447725 -0.172551,0 -0.408647,-0.153581 -0.524659,-0.34129 z m 43.866828,-0.596598 c -0.10126,-0.16384 -0.0618,-0.373504 0.0878,-0.465923 0.14954,-0.09242 0.27188,0.04163 0.27188,0.297888 0,0.539574 -0.1009,0.586717 -0.35966,0.168035 z M 72.62743,37.264854 c -0.328227,-0.395488 -0.463942,-0.41159 -0.674284,-0.08 -0.215117,0.339117 -0.264244,0.338432 -0.268247,-0.0037 -0.0026,-0.230387 -0.131974,-0.340348 -0.287286,-0.244358 -0.330087,0.204003 -1.578509,-0.689325 -3.449367,-2.468253 -1.045468,-0.994093 -1.300051,-1.441155 -1.184268,-2.079645 0.134214,-0.740153 0.09568,-0.773592 -0.428247,-0.371644 -0.316653,0.242928 -0.479731,0.326435 -0.362397,0.185571 0.117332,-0.140864 -0.05464,-0.524086 -0.382153,-0.851602 -0.327517,-0.327517 -0.694291,-1.143517 -0.815056,-1.813334 -0.120768,-0.669816 -0.358103,-1.392633 -0.527415,-1.606259 -0.169312,-0.213625 -0.383769,-1.797625 -0.476576,-3.52 -0.192252,-3.568025 0.5581,-8.479864 1.452266,-9.506595 0.354397,-0.406937 0.381875,-0.524506 0.08122,-0.347506 -0.344397,0.202752 -0.40216,0.131414 -0.238633,-0.294722 0.118659,-0.309223 0.302489,-0.90785 0.408515,-1.330283 0.106496,-0.424316 0.342835,-0.675314 0.528077,-0.560829 0.184419,0.113977 0.248736,0.06715 0.142924,-0.104054 -0.105814,-0.171206 0.148266,-1.018093 0.564618,-1.881971 0.416349,-0.8638772 0.694323,-1.6720983 0.617722,-1.7960462 -0.07661,-0.1239481 -0.0029,-0.3096592 0.163827,-0.4126915 0.16671,-0.103032 0.407309,-0.018733 0.534662,0.1873315 C 68.181699,8.6139949 68.119258,8.6525872 67.84,8.4799968 67.554842,8.303759 67.498118,8.3457085 67.662326,8.6113997 67.842819,8.9034432 68.073619,8.8554755 68.57921,8.4208426 L 69.25488,7.84 68.710998,8.703313 c -0.359075,0.5699616 -0.429123,0.9342387 -0.20615,1.0720432 0.399526,0.2469218 0.637562,0.057798 0.731325,-0.5810535 0.09843,-0.6706297 1.102742,-1.5898253 1.481373,-1.3558198 0.456521,0.2821465 0.400377,1.3609779 -0.08669,1.6656163 -0.617635,0.3863085 -1.448253,2.5828338 -1.790887,4.7359008 -0.168048,1.056 -0.487145,2.916551 -0.709104,4.134558 -0.689257,3.78232 0.223642,8.975954 2.289504,13.025378 0.347949,0.682035 0.737706,1.241187 0.866128,1.24256 0.128426,0.0013 0.399949,0.361373 0.603389,0.8 0.203443,0.438627 0.327543,0.797504 0.275779,0.797504 -0.05177,0 -0.744563,-0.641245 -1.539552,-1.424986 C 69.170682,31.380166 67.52,28.420888 67.52,27.246483 c 0,-0.348232 -0.145338,-0.681595 -0.322973,-0.740807 -0.177635,-0.05921 -0.415891,-1.73167 -0.529459,-3.716575 -0.202576,-3.540566 0.02093,-5.759267 0.99815,-9.909101 0.217591,-0.924 0.346768,-1.68 0.28706,-1.68 -0.325168,0 -1.949652,4.004279 -1.791588,4.416186 0.13,0.338778 0.06214,0.411284 -0.221094,0.236235 -0.2984,-0.184422 -0.354355,-0.08146 -0.207386,0.381601 0.110704,0.348793 -0.01574,1.554826 -0.280985,2.680073 -1.580499,6.704934 0.705606,13.669159 5.48359,16.704801 1.151242,0.73143 2.648061,2.141104 2.273463,2.141104 -0.09373,0 -0.355335,-0.222816 -0.581348,-0.495146 z M 68.48,10.56 c 0,-0.176 -0.144,-0.32 -0.32,-0.32 -0.176,0 -0.32,0.144 -0.32,0.32 0,0.176 0.144,0.32 0.32,0.32 0.176,0 0.32,-0.144 0.32,-0.32 z m 9.76,23.36 c 0.318557,-0.352 0.428282,-0.64 0.243834,-0.64 -0.184448,0 -0.421117,-0.223478 -0.525933,-0.496621 -0.115824,-0.301837 -0.05815,-0.414777 0.147056,-0.287955 0.185693,0.114765 0.522064,-0.04357 0.747488,-0.351856 0.302806,-0.414111 0.472784,-0.458713 0.650752,-0.170755 0.132489,0.214371 0.15447,0.476185 0.04885,0.581811 -0.105626,0.105622 -0.19425,-0.01197 -0.196944,-0.26129 -0.004,-0.373269 -0.05969,-0.368559 -0.315101,0.02667 -0.433507,0.670806 -0.394918,1.040938 0.08,0.767286 0.22,-0.126768 0.0509,0.152733 -0.375779,0.621114 -0.426682,0.468381 -0.844999,0.8516 -0.929597,0.8516 -0.0846,0 0.106819,-0.288 0.425376,-0.64 z M 61.626912,31.474738 C 61.458378,31.035547 61.505203,31.015749 61.912675,31.35392 62.467952,31.814761 62.525744,32 62.114237,32 61.957066,32 61.73777,31.763632 61.626912,31.474738 Z M 76.115808,30.32 c -1.645795,-2.525516 -1.88784,-3.268591 -2.187165,-6.714575 -0.301744,-3.473876 0.09822,-7.599043 0.939082,-9.685425 0.141862,-0.352 0.52048,-1.468 0.841373,-2.48 C 76.029987,10.428 76.406714,9.6 76.546269,9.6 76.685821,9.6 76.8,9.3827798 76.8,9.1172883 c 0,-1.5174745 -3.233587,2.5255827 -4.312547,5.3921157 -0.640026,1.700397 -0.802263,2.807773 -0.902147,6.157831 -0.06698,2.24653 0.01114,4.743438 0.173616,5.548683 0.429052,2.126507 0.427369,2.089917 0.104102,2.264082 -0.843738,0.454573 -1.813939,-6.757435 -1.428998,-10.622461 0.400736,-4.023617 1.425699,-6.28391 4.241264,-9.3529988 C 75.76792,7.3135264 75.857565,7.2767046 76.421683,7.787225 76.98665,8.298513 77.046499,8.2693411 77.620934,7.2026848 78.039309,6.4258061 78.449539,6.08 78.952768,6.08 79.352746,6.08 79.68,6.1586 79.68,6.2546666 c 0,0.096067 -0.648,1.5067075 -1.44,3.1347577 -0.792,1.6280497 -1.44,3.1969517 -1.44,3.4864477 0,0.289497 -0.124592,0.603359 -0.27687,0.697472 -0.152279,0.09411 -0.366708,0.642612 -0.476509,1.218885 C 75.936819,15.368503 75.696163,16.56 75.51183,17.44 c -0.184332,0.88 -0.339488,3.184 -0.344787,5.12 -0.0097,3.540575 0.0321,3.741946 1.610429,7.76 0.362957,0.924 0.608893,1.68 0.546528,1.68 -0.06236,0 -0.606051,-0.756 -1.208192,-1.68 z m 5.126298,0.16 c -0.02083,-0.132 -0.01325,-0.370804 0.0169,-0.530675 0.03014,-0.159871 -0.112189,-0.393871 -0.316272,-0.52 -0.20408,-0.126129 0.04032,-0.226483 0.54311,-0.223009 0.50279,0.0035 0.733267,0.06977 0.51217,0.147331 -0.221098,0.07756 -0.320599,0.272717 -0.221114,0.433684 C 81.87637,29.948299 81.79677,30.08 81.6,30.08 c -0.196774,0 -0.268774,0.144 -0.16,0.32 0.108774,0.176 0.117274,0.32 0.01888,0.32 -0.09839,0 -0.195939,-0.108 -0.216781,-0.24 z M 107.52,29.852516 c 0,-0.183784 0.252,-0.531784 0.56,-0.773334 0.518,-0.406245 0.52479,-0.391184 0.0906,0.200818 -0.2582,0.352 -0.5102,0.7 -0.56,0.773333 -0.0498,0.07333 -0.0906,-0.01703 -0.0906,-0.200817 z M 71.94,29.221404 c 0.230998,-0.09244 0.506998,-0.08107 0.613334,0.02526 0.106333,0.106333 -0.08267,0.181965 -0.42,0.16807 -0.372784,-0.01535 -0.448608,-0.09118 -0.193334,-0.19333 z m 33.85296,-0.688071 c -0.0906,-0.146666 0.0385,-0.266666 0.28704,-0.266666 0.24852,0 0.37768,0.12 0.28704,0.266666 C 106.27639,28.68 106.14723,28.8 106.08,28.8 c -0.0672,0 -0.19639,-0.12 -0.28704,-0.266667 z M 107.15918,28.24 c -0.39804,-0.507538 -0.38672,-0.518856 0.12082,-0.120818 0.308,0.24155 0.56,0.49355 0.56,0.56 0,0.263371 -0.26278,0.09386 -0.68082,-0.439182 z m 2.60082,0.221115 c 0,-0.186387 -0.13529,-0.255275 -0.30063,-0.153084 -0.16535,0.102191 -0.27871,-0.105311 -0.2519,-0.461115 0.0268,-0.355804 0.20581,-0.646916 0.39781,-0.646916 0.192,0 0.65554,-0.9 1.03009,-2 0.37456,-1.1 1.05082,-3.041296 1.50282,-4.31399 0.64934,-1.828374 0.82181,-2.916346 0.82181,-5.184249 0,-2.74748 -0.38001,-5.535471 -0.94073,-6.901761 -0.14446,-0.352 -0.50455,-1.2227002 -0.8002,-1.9348893 C 110.66492,5.5302288 108.09901,2.56 107.49998,2.56 c -0.18576,0 -0.23363,-0.1684712 -0.10637,-0.3743804 0.15698,-0.2540026 0.0548,-0.3066273 -0.31773,-0.1636654 -0.32617,0.1251628 -0.46974,0.08228 -0.35361,-0.1056196 0.10752,-0.173984 0.007,-0.3207134 -0.22338,-0.3260654 -0.26185,-0.00608 -0.21162,-0.1305131 0.13397,-0.3319076 0.39378,-0.2294715 0.81506,-0.186593 1.46405,0.1490147 1.8088,0.9353669 4.94309,5.0117136 4.94309,6.4288103 0,0.4420972 0.1345,0.8038134 0.29889,0.8038134 0.16438,0 0.21603,0.1340499 0.11478,0.2978886 -0.10126,0.1638388 -0.0469,0.382674 0.12075,0.4863008 0.16767,0.1036269 0.30854,0.437577 0.31305,0.7421116 0.005,0.304535 0.14908,1.273699 0.32128,2.153699 0.46003,2.350848 0.40828,5.853783 -0.11345,7.68 -0.64427,2.255134 -2.21486,6.52648 -2.85338,7.76 -0.50729,0.979981 -1.48192,1.441093 -1.48192,0.701115 z M 80.101139,27.872197 C 80.004458,27.502489 79.818134,27.2 79.687088,27.2 79.263264,27.2 78.122013,23.770435 77.90369,21.840723 77.674835,19.817924 78.104378,16.264286 78.919114,13.44 79.53463,11.30632 81.231462,7.7400595 82,6.964857 82.649072,6.3101542 83.84,6.2095082 83.84,6.8093571 83.84,7.0345034 83.552,7.4262928 83.2,7.68 c -0.352,0.2537072 -0.64,0.6224966 -0.64,0.8195318 0,0.1970352 -0.436224,1.2312058 -0.969386,2.2981572 -1.760195,3.522465 -2.657987,8.349967 -2.212576,11.897227 0.157264,1.252468 0.435488,2.556652 0.618269,2.898186 0.182784,0.341534 0.299799,0.734805 0.260029,0.873935 -0.03977,0.139129 0.102678,0.568224 0.316544,0.953543 0.271629,0.489383 0.285629,0.764374 0.04645,0.912197 -0.18913,0.116888 -0.421094,-0.08929 -0.518189,-0.46058 z m 27.749531,-0.652265 c -0.3946,-0.737313 -0.21064,-2.5717 0.86149,-8.590355 0.45772,-2.569489 0.47349,-3.303757 0.11686,-5.44 C 108.60227,11.831309 108.30265,10.576 108.1632,10.4 c -0.13946,-0.176 -0.47358,-0.968 -0.7425,-1.76 -0.26892,-0.792 -0.58799,-1.692 -0.70906,-2 -0.14979,-0.3810883 -0.0679,-0.56 0.25615,-0.56 0.29185,0 0.91886,1.0302646 1.61931,2.6607651 1.33431,3.1059489 1.79425,4.9026799 1.80508,7.0513979 0.008,1.602057 -1.03452,8.028275 -1.6691,10.287837 -0.19771,0.704 -0.33328,1.388 -0.30128,1.52 0.11368,0.468785 -0.24435,0.230532 -0.57113,-0.380068 z m -23.115633,0.0632 C 84.100589,27.138459 84.032259,26.944428 83.383994,23.446654 82.682835,19.663502 82.435283,16.32 82.856339,16.32 c 0.189015,0 0.34537,0.468 0.347459,1.04 0.0022,0.572 0.22906,1.832 0.504378,2.8 0.916445,3.222148 1.400419,5.736361 1.214909,6.311367 -0.136419,0.422833 -0.105088,0.459192 0.122195,0.141802 0.249232,-0.348039 0.340832,-0.335163 0.496211,0.06975 0.222026,0.578588 -0.04142,0.774662 -0.806454,0.600211 z M 87.04,27.074236 c 0,-0.06917 0.223478,-0.21152 0.496621,-0.316334 0.284774,-0.109279 0.413222,-0.05563 0.301113,0.125763 C 87.649811,27.187731 87.04,27.333409 87.04,27.074236 Z m 0.482342,-1.478024 c 0.101341,-0.163974 -0.02976,-0.626202 -0.291312,-1.027173 -0.261564,-0.400971 -0.629094,-1.417207 -0.816732,-2.258301 -0.442746,-1.984627 -0.453636,-8.38923 -0.01671,-9.830738 0.18671,-0.616 0.418941,-1.767307 0.51607,-2.5584589 0.203242,-1.6554918 0.195191,-1.6386969 0.644215,-1.3441417 0.230297,0.1510739 0.252246,1.0451878 0.06831,2.7826006 -0.319904,3.021667 -0.266262,10.420822 0.07887,10.88 0.132291,0.176 0.271107,0.464 0.30848,0.64 0.154694,0.728466 0.429049,1.30957 0.851276,1.80306 0.39634,0.463235 0.334621,0.562419 -0.5396,0.867174 -0.542918,0.189263 -0.904208,0.209953 -0.802864,0.04598 z m 7.191578,-0.163537 c -0.33817,-0.407471 -0.318374,-0.454297 0.120819,-0.285764 0.288893,0.110859 0.525261,0.330156 0.525261,0.487325 0,0.411507 -0.185238,0.353717 -0.64608,-0.201561 z m 11.23275,0.396775 c 0.0733,-0.0498 0.42133,-0.301802 0.77333,-0.56 0.592,-0.434243 0.60706,-0.427452 0.20082,0.09055 -0.24155,0.308 -0.58955,0.56 -0.77334,0.56 -0.18378,0 -0.27415,-0.04075 -0.20081,-0.09055 z M 104.96,25.159182 c 0,-0.06645 0.252,-0.31845 0.56,-0.56 0.50754,-0.398038 0.51886,-0.38672 0.12082,0.120818 -0.41804,0.533039 -0.68082,0.702553 -0.68082,0.439182 z m 10.24,-0.32 c 0,-0.06645 0.252,-0.31845 0.56,-0.56 0.50754,-0.398038 0.51886,-0.38672 0.12082,0.120818 -0.41804,0.533039 -0.68082,0.702553 -0.68082,0.439182 z m -12.16,-0.880997 c 0,-0.374998 0.23313,-2.138998 0.51807,-3.92 0.60892,-3.806053 0.44117,-7.327285 -0.46937,-9.851917 C 102.11582,7.4887382 102.00052,7.0865443 102.439,7.92 c 0.20834,0.396 0.47893,0.72 0.6013,0.72 0.12238,0 0.47515,0.612 0.78395,1.36 0.3088,0.748 0.69682,1.619904 0.86228,1.937564 0.79508,1.526469 0.67688,8.460358 -0.1575,9.23979 -0.21366,0.199589 -0.3247,0.904836 -0.25596,1.625678 0.08,0.838992 -0.0277,1.367623 -0.31583,1.550164 -0.68952,0.436825 -0.91724,0.338755 -0.91724,-0.395011 z M 93.727766,21.810042 C 93.710038,20.462519 93.636346,18.676 93.564006,17.84 c -0.07774,-0.89843 8.71e-4,-1.52 0.192234,-1.52 0.178067,0 0.32376,0.495501 0.32376,1.101115 0,0.605613 0.14439,1.190352 0.320864,1.29942 0.207693,0.128359 0.212973,0.399904 0.01498,0.769863 -0.178352,0.333254 -0.187386,0.692061 -0.02166,0.860579 0.156323,0.158963 0.367587,1.027704 0.469478,1.930536 0.164656,1.459032 0.11361,1.660248 -0.459203,1.810042 -0.602576,0.157577 -0.64655,0.0093 -0.676688,-2.281513 z M 97.2,23.78807 c 0.22,-0.08877 0.58,-0.08877 0.8,0 0.22,0.08877 0.04,0.161404 -0.4,0.161404 -0.44,0 -0.62,-0.07263 -0.4,-0.161404 z m 0.48,-0.64 C 97.219059,22.962076 97.130874,21.76 97.578173,21.76 c 0.163993,0 0.541859,-1.09533 0.839699,-2.434066 0.540368,-2.42884 0.523654,-8.186528 -0.02893,-9.965934 -0.428051,-1.3783965 0.40545,-0.7166125 1.007578,0.8 0.85984,2.165709 0.89041,9.936185 0.04278,10.872545 -0.308384,0.340666 -0.476717,0.703373 -0.374073,0.806017 0.226108,0.22611 -0.434058,1.531785 -0.756487,1.496175 -0.125808,-0.01389 -0.408742,-0.0979 -0.628742,-0.186667 z M 93.12,15.04 c 0,-0.176 0.144,-0.32 0.32,-0.32 0.176,0 0.32,0.144 0.32,0.32 0,0.176 -0.144,0.32 -0.32,0.32 -0.176,0 -0.32,-0.144 -0.32,-0.32 z M 87.36,8 C 87.096,7.8293901 87.024,7.6898003 87.2,7.6898003 c 0.176,0 0.536,0.1395898 0.8,0.3101997 0.264,0.1706099 0.336,0.3101997 0.16,0.3101997 -0.176,0 -0.536,-0.1395898 -0.8,-0.3101997 z M 114.51918,3.92 C 114.12114,3.4124621 114.13246,3.4011437 114.64,3.7991824 115.17304,4.2172205 115.34255,4.48 115.07918,4.48 c -0.0664,0 -0.31845,-0.252 -0.56,-0.56 z M 104.39299,2.9079594 c 0.13625,-0.5060556 1.11547,-0.7549657 1.36726,-0.3475492 0.0895,0.1448742 -0.0899,0.2244448 -0.39873,0.1768237 -0.30884,-0.047621 -0.68048,0.07302 -0.82588,0.2680911 -0.17516,0.2349918 -0.22329,0.2021364 -0.14265,-0.097366 z m 7.71368,-1.133883 c 0,-0.256258 0.12234,-0.3903079 0.27188,-0.2978886 0.14954,0.092419 0.18904,0.302085 0.0878,0.4659237 -0.25876,0.4186822 -0.35966,0.3715385 -0.35966,-0.1680351 z"
         id="hair_lines" />
      <path
         style="fill:#a99e96;stroke-width:0.32"
         d="m 81.92,91.039168 c 0,-0.08846 0.582854,-0.687408 1.295235,-1.331002 1.454768,-1.314294 2.52888,-3.386348 2.576663,-4.970611 0.01754,-0.581654 0.159494,-1.417555 0.315443,-1.857555 0.194515,-0.5488 0.237424,-0.110058 0.136662,1.39728 -0.161145,2.410618 -1.10472,4.436166 -2.814915,6.04272 C 82.5692,91.127776 81.92,91.437158 81.92,91.039168 Z m 20.1193,-2.297955 C 101.12468,88.173584 99.921206,86.4 100.45065,86.4 c 0.17976,0 0.47496,0.276771 0.656,0.615046 0.59293,1.107908 1.32321,1.624954 2.29509,1.624954 0.55587,0 0.87325,0.133942 0.75826,0.32 -0.28871,0.467142 -1.16037,0.377213 -2.1207,-0.218787 z M 99.06617,84.24 c -0.498935,-1.012 -1.162144,-2.56 -1.473802,-3.44 -0.311654,-0.88 -0.674627,-1.888 -0.806605,-2.24 -0.163209,-0.435306 -0.134909,-0.537651 0.08848,-0.32 0.180644,0.176 0.50474,0.896 0.720215,1.6 0.215475,0.704 0.957072,2.396 1.64799,3.76 0.690919,1.364 1.138012,2.48 0.993542,2.48 -0.14446,0 -0.670889,-0.828 -1.169823,-1.84 z M 69.970042,81.655296 c -0.440013,-0.486208 -0.451399,-0.58863 -0.06545,-0.58863 0.256989,0 0.400688,0.107702 0.319335,0.239337 -0.08135,0.131632 0.03298,0.30392 0.254076,0.382858 0.221098,0.07893 0.317111,0.236118 0.213367,0.349293 -0.103747,0.113174 -0.428346,-0.05911 -0.721331,-0.382858 z M 86.061984,81.76 c -0.09791,-0.176 -0.218045,-0.824 -0.266966,-1.44 -0.06694,-0.842848 0.0026,-1.031085 0.281324,-0.760691 0.203655,0.197622 0.323789,0.845622 0.266967,1.44 C 86.28649,81.59369 86.159891,81.936 86.061984,81.76 Z m 19.791376,-0.383734 c 0.33543,-0.128624 0.33647,-0.258205 0.006,-0.687386 -0.28305,-0.367056 -0.18922,-0.342358 0.30664,0.08072 0.39297,0.335277 0.71449,0.628633 0.71449,0.651901 0,0.02326 -0.324,0.05827 -0.72,0.07779 -0.396,0.01952 -0.53399,-0.03585 -0.30664,-0.123024 z M 81.152963,80.693334 c -0.09065,-0.146668 0.03852,-0.266668 0.287037,-0.266668 0.248515,0 0.377683,0.12 0.287037,0.266668 C 81.636394,80.84 81.507226,80.96 81.44,80.96 c -0.06723,0 -0.196394,-0.12 -0.287037,-0.266666 z m 0.792301,-1.52 c 0.01536,-0.372784 0.09118,-0.448608 0.193331,-0.193334 0.09244,0.230998 0.08107,0.506998 -0.02525,0.613334 -0.106333,0.106333 -0.181965,-0.08267 -0.16807,-0.42 z M 69.83424,77.76 c 0,-0.616 0.06586,-0.868 0.146346,-0.56 0.08049,0.308 0.08049,0.812 0,1.12 -0.08049,0.308 -0.146346,0.056 -0.146346,-0.56 z m 43.30633,-0.226198 c -0.17365,-0.456064 -0.1369,-0.49282 0.17914,-0.179136 0.21869,0.217068 0.31701,0.475276 0.21849,0.573801 -0.0985,0.09853 -0.27746,-0.07908 -0.39763,-0.394665 z M 113.98238,76.32 c 0.007,-0.528 0.0782,-0.705261 0.15938,-0.39391 0.0811,0.31135 0.0758,0.74335 -0.0119,0.96 -0.0876,0.216649 -0.15403,-0.03809 -0.14751,-0.56609 z M 71.065264,75.618886 c -0.03651,-0.550681 0.529792,-0.815212 0.802067,-0.374662 0.138013,0.223309 0.09335,0.289248 -0.110557,0.163226 -0.188163,-0.116292 -0.415043,-0.03053 -0.504179,0.190556 -0.116,0.287725 -0.169251,0.293661 -0.187331,0.02086 z m 32.319996,-0.285552 c 0.0154,-0.372784 0.0912,-0.448608 0.19334,-0.193334 0.0924,0.230998 0.0811,0.506998 -0.0252,0.613334 -0.10634,0.106333 -0.18197,-0.08267 -0.16807,-0.42 z M 79.319181,73.36 c -0.398039,-0.507539 -0.38672,-0.518858 0.120819,-0.120819 0.308,0.241552 0.56,0.493552 0.56,0.56 0,0.263373 -0.262781,0.09386 -0.680819,-0.439181 z m 25.634399,0.07227 c -0.58826,-0.708807 -0.25351,-0.790292 0.40642,-0.09893 0.308,0.322666 0.43363,0.586666 0.27918,0.586666 -0.15445,0 -0.46297,-0.219478 -0.6856,-0.487734 z m 6.58526,-1.282442 C 111.1972,71.891421 111.07157,71.68 111.25966,71.68 c 0.18808,0 0.52124,0.216 0.74034,0.48 0.4983,0.600422 0.34155,0.596963 -0.46116,-0.01018 z m 12.64642,-0.97649 c 0.0154,-0.372784 0.0912,-0.448608 0.19334,-0.193334 0.0924,0.230998 0.0811,0.506998 -0.0252,0.613334 -0.10634,0.106333 -0.18197,-0.08267 -0.16807,-0.42 z M 68.8,60.32 c 0.41336,-0.44 0.823562,-0.8 0.911562,-0.8 0.088,0 -0.178202,0.36 -0.591562,0.8 -0.41336,0.44 -0.823562,0.8 -0.911562,0.8 -0.088,0 0.178202,-0.36 0.591562,-0.8 z m 1.92,-1.540131 c 0,-0.05507 0.468,-0.523072 1.04,-1.04 L 72.8,56.8 71.860131,57.84 C 70.984042,58.809427 70.72,59.027088 70.72,58.779869 Z m 54.42526,-9.686535 c 0.0154,-0.372784 0.0912,-0.448608 0.19334,-0.193334 0.0924,0.230998 0.0811,0.506998 -0.0252,0.613334 -0.10634,0.106333 -0.18197,-0.08267 -0.16807,-0.42 z m -67.032297,-0.72 c -0.09065,-0.146668 0.03852,-0.266668 0.287037,-0.266668 0.248515,0 0.377683,0.12 0.287037,0.266668 C 58.596394,48.52 58.467226,48.64 58.4,48.64 c -0.06723,0 -0.196394,-0.12 -0.287037,-0.266666 z M 59.52,47.239181 c 0,-0.06645 0.252,-0.318448 0.56,-0.56 C 60.587539,46.281142 60.598858,46.292461 60.200819,46.8 59.782781,47.33304 59.52,47.502554 59.52,47.239181 Z m 1.28,-1.28 c 0,-0.06645 0.252,-0.318448 0.56,-0.56 0.507539,-0.398039 0.518858,-0.38672 0.120819,0.120819 C 61.062781,46.05304 60.8,46.222554 60.8,45.959181 Z M 81.6,30.279182 c 0,-0.06645 0.252,-0.31845 0.56,-0.56 0.507539,-0.398038 0.518858,-0.38672 0.120819,0.120818 C 81.862781,30.373039 81.6,30.542553 81.6,30.279182 Z m 2.56,-1.92 c 0,-0.06645 0.252,-0.31845 0.56,-0.56 0.507539,-0.398038 0.518858,-0.38672 0.120819,0.120818 C 84.422781,28.453039 84.16,28.622553 84.16,28.359182 Z M 94.32,24.10807 c 0.22,-0.08877 0.58,-0.08877 0.8,0 0.22,0.08877 0.04,0.161404 -0.4,0.161404 -0.44,0 -0.62,-0.07263 -0.4,-0.161404 z m 24.42526,-5.734737 c 0.0154,-0.372781 0.0912,-0.448608 0.19334,-0.193333 0.0924,0.231 0.0811,0.507 -0.0252,0.613333 -0.10634,0.106334 -0.18197,-0.08267 -0.16807,-0.42 z"
         id="path555" />
      <path
         style="fill:#3f84e4;stroke-width:0.32"
         d="m 72.285312,82.678202 c -0.292512,-0.352455 -0.296333,-0.555181 -0.01574,-0.835764 0.203741,-0.20374 0.370438,-0.684006 0.370438,-1.067257 0,-0.950669 0.874906,-1.689274 1.150452,-0.971219 0.411248,1.071702 2.686118,0.349657 2.694448,-0.85522 0.0026,-0.389808 0.137904,-0.919017 0.300464,-1.176019 0.254976,-0.403104 0.378611,-0.392118 0.900297,0.08 0.332605,0.301002 0.747427,0.547277 0.921831,0.547277 0.1744,0 0.630108,0.36 1.012684,0.8 0.508548,0.58488 0.572167,0.8 0.236592,0.8 -0.646067,0 -0.935849,0.590938 -0.52974,1.080272 0.43854,0.528406 -0.30384,1.634125 -0.952074,1.418045 -0.247082,-0.08236 -0.628106,0.02912 -0.846717,0.247734 -0.583513,0.583514 -4.747059,0.529632 -5.242925,-0.06785 z M 107.45595,80.56 c -0.0729,-0.22 -0.10629,-0.868 -0.0742,-1.44 0.15144,-2.702278 0.059,-2.490912 0.79701,-1.82305 0.86725,0.784852 1.70433,0.289741 1.84155,-1.089222 0.0551,-0.55425 0.1735,-1.007728 0.26301,-1.007728 0.0895,0 0.80461,0.376157 1.58911,0.835907 1.22079,0.715427 1.36736,0.907367 1.01698,1.331722 -0.22516,0.272697 -0.40938,0.779965 -0.40938,1.127257 0,0.347293 -0.288,0.79202 -0.64,0.988279 -0.352,0.196259 -0.72212,0.467465 -0.8225,0.602681 -0.21655,0.291716 -2.14955,0.874154 -2.90115,0.874154 -0.29033,0 -0.58751,-0.18 -0.6604,-0.4 z"
         id="eye_lower" />
      <path
         style="fill:#2865bf;stroke-width:0.32"
         d="m 74.07233,83.180826 c 0.588918,-0.175725 1.071267,-0.165229 1.264,0.02749 0.202227,0.202227 -0.132186,0.302012 -0.95233,0.284166 -1.249174,-0.02717 -1.252832,-0.03085 -0.31167,-0.31167 z M 71.352954,81.69735 C 70.538384,80.412909 70.4,79.881258 70.4,78.036237 c 0,-1.286378 0.149267,-2.250717 0.369443,-2.386794 0.215735,-0.133331 0.283069,-0.08857 0.161837,0.107584 -0.114182,0.184749 0.0076,0.41848 0.270557,0.519399 0.262989,0.100918 0.478163,0.404006 0.478163,0.673532 0,0.269524 0.224499,0.490042 0.498886,0.490042 0.274388,0 0.409888,-0.144 0.301114,-0.32 -0.108774,-0.176 -0.04527,-0.32 0.141114,-0.32 0.611683,0 0.354048,-1.232061 -0.301114,-1.44 -1.82183,-0.578227 0.307693,-1.813427 4.08,-2.366547 0.924,-0.135482 1.68,-0.126432 1.68,0.0201 0,0.146541 0.288,0.266438 0.64,0.266438 0.352,0 0.64,0.123904 0.64,0.275344 0,0.15144 0.384262,0.83544 0.853917,1.52 0.940355,1.370647 1.768928,4.3052 1.389101,4.919776 -0.296448,0.479664 -1.530935,-0.08965 -2.181162,-1.005904 -0.229981,-0.324067 -0.578643,-0.589216 -0.774803,-0.589216 -0.196163,0 -0.641037,-0.252 -0.988608,-0.56 -0.522883,-0.46335 -0.659328,-0.481264 -0.790599,-0.103795 -0.102985,0.296138 -0.339571,0.07304 -0.674278,-0.635814 -0.683005,-1.446503 -1.459955,-1.56434 -2.103898,-0.319088 -1.067212,2.063756 0.617348,4.327577 1.879431,2.525702 0.404483,-0.577482 0.510899,-0.616945 0.510899,-0.18947 0,1.067869 -2.316323,1.659034 -2.689549,0.686423 C 73.514906,79.085894 72.64,79.824493 72.64,80.775168 c 0,0.383251 -0.166698,0.863517 -0.370438,1.067258 -0.280583,0.280582 -0.271079,0.490156 0.03918,0.864 0.225289,0.271459 0.316816,0.493561 0.203388,0.493561 -0.113427,0 -0.635059,-0.676192 -1.15918,-1.502649 z M 79.244278,82.08 c 0.101309,-0.264 0.33042,-0.48 0.50914,-0.48 0.187299,0 0.156198,0.203331 -0.07342,0.48 -0.219101,0.264 -0.448214,0.48 -0.509139,0.48 -0.06092,0 -0.0279,-0.216 0.07342,-0.48 z m 27.196172,-2.091194 c -0.47593,-0.53416 -0.99791,-0.889264 -1.15994,-0.789123 -0.41842,0.258599 -1.50223,-2.293625 -1.6917,-3.983721 -0.19235,-1.715786 0.40048,-2.790442 1.88048,-3.408823 1.18963,-0.497062 4.07947,-0.282198 5.14681,0.382672 0.53818,0.335248 0.73208,0.344752 0.85473,0.0419 0.0908,-0.224205 0.16945,-0.15224 0.18391,0.168285 0.0139,0.308 0.24976,0.56 0.52415,0.56 0.27438,0 0.42416,0.120906 0.33283,0.268682 -0.0913,0.147772 0.11617,0.795251 0.46111,1.438838 0.72668,1.35583 0.90443,3.235894 0.22717,2.402723 -0.5835,-0.717817 -2.74171,-1.944038 -3.06737,-1.742771 -0.15347,0.09485 -0.44101,-0.183024 -0.63898,-0.617507 -0.43103,-0.946016 -1.18557,-1.024576 -1.64239,-0.171002 -0.49389,0.922848 -0.40238,1.777485 0.25394,2.37144 0.7978,0.722003 1.2973,0.664874 1.66476,-0.190403 0.23786,-0.553626 0.29094,-0.580035 0.22969,-0.114298 -0.13522,1.028272 -1.06042,1.379495 -1.82092,0.691248 -0.64737,-0.585859 -0.65952,-0.582867 -0.70445,0.173453 -0.0251,0.42328 -0.0427,1.381597 -0.039,2.129597 0.004,0.748 -0.0239,1.36 -0.0614,1.36 -0.0374,0 -0.45747,-0.437037 -0.93341,-0.971194 z m -0.2995,-6.564044 c 0.27238,-0.272381 0.4421,-0.542493 0.37715,-0.600247 -0.35856,-0.318825 -1.45591,-0.453581 -1.82174,-0.223712 -0.34202,0.214903 -0.3222,0.367645 0.10285,0.792695 0.64736,0.64736 0.72386,0.649142 1.34174,0.03126 z m 3.23905,7.316643 c 0.231,-0.09244 0.507,-0.08107 0.61333,0.02525 0.10634,0.106333 -0.0827,0.181965 -0.42,0.16807 -0.37278,-0.01536 -0.4486,-0.09118 -0.19333,-0.193331 z m 1.6625,-0.668266 c 10e-4,-0.128227 0.36137,-0.39959 0.8,-0.60303 0.43862,-0.203443 0.7975,-0.262557 0.7975,-0.131367 0,0.131191 -0.36,0.402554 -0.8,0.603034 -0.44,0.200477 -0.79888,0.25959 -0.7975,0.131363 z"
         id="eye_upper" />
      <path
         style="fill:#404144;stroke-width:0.32"
         d="m 87.396867,115.01232 c -0.595725,-0.26915 -1.473661,-0.87702 -1.950969,-1.35084 -0.477312,-0.47381 -1.934804,-1.40685 -3.238871,-2.07341 -1.30407,-0.66656 -2.947977,-1.76089 -3.653129,-2.43184 -0.705152,-0.67095 -1.80081,-1.40748 -2.434794,-1.63673 -0.633984,-0.22925 -1.712141,-0.90846 -2.395901,-1.50936 C 73.03944,105.40925 71.904,104.61944 71.2,104.25501 c -0.704,-0.36442 -1.881946,-1.07489 -2.617658,-1.5788 -0.735708,-0.50392 -1.481904,-0.91621 -1.658208,-0.91621 -0.176304,0 -0.628166,-0.432 -1.004134,-0.96 -0.375968,-0.528 -0.884506,-0.96 -1.130083,-0.96 -0.245575,0 -1.370122,-0.864 -2.498989,-1.92 C 61.162061,96.864 60.126387,96 59.989427,96 59.472365,96 57.6,94.347354 57.6,93.890966 57.6,93.628912 57.312,92.849978 56.96,92.16 56.007808,90.293552 56.115926,88.536416 57.27143,87.098544 58.201213,85.941552 58.213715,85.878278 57.820989,84.317309 57.53455,83.178813 57.502934,82.122538 57.710915,80.64 c 0.453242,-3.230838 0.388317,-5.34999 -0.183661,-5.99473 -0.765504,-0.86288 -1.472265,-3.283926 -1.2267,-4.202121 0.155238,-0.580464 0.531452,-0.89336 1.318339,-1.096464 0.605609,-0.156314 1.144841,-0.326999 1.198294,-0.379299 0.05345,-0.0523 -0.431209,-1.22736 -1.077027,-2.611239 -2.1648,-4.638803 -2.38015,-5.144259 -2.382131,-5.591197 -9.6e-4,-0.244723 -0.212266,-0.848121 -0.469293,-1.340889 -0.334656,-0.641594 -0.432592,-1.640877 -0.344989,-3.520032 0.137568,-2.950906 1.004989,-5.112999 2.822554,-7.035363 3.108739,-3.287988 3.975213,-4.274452 4.135923,-4.708666 0.09771,-0.264 1.129251,-0.952922 2.29231,-1.530938 2.231188,-1.108851 2.751853,-1.700672 2.787124,-3.168025 0.02115,-0.879562 0.02992,-0.883875 0.368899,-0.181037 0.439779,0.911866 0.512969,0.90681 2.902787,-0.200541 1.092662,-0.506294 2.329942,-1.026121 2.749514,-1.155165 1.643558,-0.505497 4.448873,-2.450233 6.318115,-4.379913 3.697104,-3.81665 4.161808,-4.267084 5.837472,-5.658227 2.177091,-1.807431 3.097238,-2.246552 6.242269,-2.978994 3.289011,-0.765975 9.737726,-1.139586 10.981336,-0.636212 0.49387,0.199904 1.18595,0.415087 1.53795,0.478184 1.13892,0.204151 1.89656,0.616775 3.10831,1.692836 0.65357,0.580385 1.77645,1.426521 2.49529,1.880303 0.71884,0.453781 1.3966,1.070909 1.50616,1.371393 0.10955,0.300485 0.44094,0.862128 0.73642,1.248097 0.52943,0.691563 0.55686,0.65963 1.88755,-2.197254 0.81589,-1.751634 1.92922,-3.517913 2.81301,-4.462748 2.90118,-3.1016 3.81584,-8.527027 2.17326,-12.890965 -0.44,-1.168973 -0.8,-2.3473441 -0.8,-2.6186039 0,-0.9309322 -1.65095,-4.1324327 -2.50533,-4.8583037 -0.47007,-0.3993626 -1.40619,-1.2633627 -2.08028,-1.9200001 -1.19491,-1.16399094 -1.2844,-1.19340748 -3.5735,-1.17476464 C 107.26223,0.83556198 106.761,0.95961619 105.7065,1.7037843 102.46739,3.9896285 101.1195,4.7575242 99.2,5.4105434 93.268138,7.4285805 93.329603,7.4143578 91.432928,7.2077875 90.417037,7.097145 89.020973,6.8073174 88.33056,6.5637261 86.667699,5.9770342 78.45343,5.3150848 76.116634,5.579463 c -3.467399,0.3922916 -6.51504,1.1689258 -7.61048,1.9393879 -2.02378,1.4233971 -5.499652,5.8366921 -7.286317,9.2513961 -2.304643,4.404671 -2.739171,5.514208 -2.895303,7.392956 -0.142364,1.713058 -0.04857,2.132647 0.858407,3.84 0.560029,1.054238 1.279117,2.141422 1.597971,2.415963 0.318854,0.274541 0.829456,0.994541 1.134672,1.599999 0.305213,0.605459 1.023567,1.604836 1.596342,2.220835 1.484239,1.596246 3.381214,4.525718 3.156894,4.729838 C 66.617126,39.016877 66.006408,38.2845 65.76,38.08 65.496,37.860899 65.28,37.483267 65.28,37.240819 65.28,36.998368 65.136,36.8 64.96,36.8 c -0.176,0 -0.32,-0.192275 -0.32,-0.427277 0,-0.235001 -0.648,-1.08456 -1.44,-1.88791 -0.792,-0.803347 -1.44,-1.60648 -1.44,-1.784739 0,-0.17826 -0.70367,-1.166242 -1.563709,-2.195516 -0.860041,-1.029274 -1.796041,-2.427452 -2.08,-3.107062 -1.010259,-2.417888 -0.464528,-5.737335 1.458743,-8.872888 C 60.072765,17.713143 60.48,16.893693 60.48,16.70361 c 0,-0.488278 3.353414,-5.33902 5.074675,-7.3405604 1.940195,-2.2561235 3.45537,-3.2474493 5.520016,-3.6115536 6.24144,-1.100689 7.635693,-1.2394598 9.456695,-0.9412301 1.027737,0.1683149 2.64103,0.3068611 3.585094,0.3078807 0.944061,0.00102 3.235325,0.3749216 5.091696,0.8308934 l 3.375222,0.82904 4.188301,-1.3742864 c 2.303565,-0.7558576 4.236301,-1.4889258 4.294971,-1.62904 0.0587,-0.1401146 0.27466,-0.2560406 0.48,-0.2576141 0.20533,-0.00157 1.29648,-0.7193917 2.42478,-1.5951522 2.27491,-1.76573811 3.2471,-2.05649165 6.23918,-1.86597021 1.92917,0.12284036 2.11856,0.20977242 3.5661,1.63685661 C 114.61752,2.5217932 115.41965,3.2 115.55924,3.2 c 0.43674,0 1.88778,2.7471021 2.82427,5.3468883 0.49393,1.3712115 1.05971,2.8984857 1.25727,3.3939437 0.19757,0.495457 0.35922,2.244289 0.35922,3.886293 0,4.061747 -0.85707,6.84397 -2.72547,8.847423 -0.75633,0.811002 -1.66598,2.044635 -2.02145,2.741408 -0.35547,0.696772 -0.87283,1.454857 -1.14969,1.684633 C 113.82652,29.330366 113.6,29.8431 113.6,30.24 c 0,0.3969 -0.216,0.9009 -0.48,1.12 -0.264,0.2191 -0.4718,0.560732 -0.46178,0.759181 0.0323,0.640144 3.28718,2.878259 5.18735,3.56695 1.9842,0.719149 4.73486,3.098727 5.32207,4.60409 3.42369,8.776969 3.27749,8.246781 2.90723,10.542793 -0.18864,1.169844 -0.47807,2.990986 -0.64316,4.046986 -0.16509,1.056 -0.42393,2.604 -0.57521,3.44 -0.15127,0.836 -0.2208,1.52 -0.15451,1.52 0.0663,0 -0.0365,0.29344 -0.22846,0.652086 -0.47989,0.896679 -0.12352,1.805908 0.79851,2.037322 1.41589,0.355366 1.47897,3.868784 0.12295,6.848144 -0.66412,1.459165 -0.57955,2.350096 0.32019,3.373094 0.37726,0.428948 0.52576,1.2612 0.54241,3.04 0.0137,1.463316 0.24985,3.093469 0.58661,4.049354 0.43037,1.221658 0.51742,2.12968 0.36809,3.84 -0.23569,2.699642 -0.76392,4.947814 -1.31575,5.6 -0.22338,0.264 -0.45348,0.674768 -0.51134,0.912819 -0.0579,0.238051 -0.51068,0.848458 -1.00628,1.356461 -0.49559,0.508 -0.81109,1.069232 -0.70111,1.247178 0.10998,0.177948 0.0835,0.323689 -0.0589,0.323868 -0.14239,1.8e-4 -0.6632,0.72018 -1.15735,1.6 -0.49415,0.879821 -1.06755,1.599674 -1.27421,1.599674 -0.20666,0 -1.09836,0.756384 -1.98154,1.680854 -1.90479,1.993837 -5.48163,5.182986 -6.73574,6.005676 -0.49042,0.32171 -1.41529,1.13585 -2.05526,1.8092 -3.47557,3.65681 -11.733164,8.46841 -15.610304,9.09593 -3.726707,0.60317 -6.220368,0.63705 -7.407619,0.10066 z m 6.17553,-0.96473 c 5.634518,-0.99298 11.064153,-4.32615 18.221043,-11.18562 0.37761,-0.36191 1.54521,-1.29791 2.59467,-2.08 8.09343,-6.031445 13.21045,-15.013989 11.68385,-20.510133 -0.17845,-0.64249 -0.53765,-1.249968 -0.79821,-1.349955 -0.26056,-0.09999 -0.47375,-0.371866 -0.47375,-0.604176 0,-0.232311 -0.30006,-0.992832 -0.6668,-1.690045 -0.46271,-0.879651 -0.7676,-2.345072 -0.99612,-4.787661 -0.40352,-4.313165 -0.40543,-4.32 -1.20704,-4.32 -0.80168,0 -0.88613,-1.128733 -0.14567,-1.946934 0.4595,-0.507738 0.4562,-0.729056 -0.0371,-2.4873 -0.45039,-1.605161 -0.89879,-2.303043 -2.66438,-4.14672 C 117.91528,57.719834 116.528,56.497178 116,56.222035 c -0.528,-0.275142 -1.72792,-1.221801 -2.66649,-2.103689 -1.35324,-1.271517 -2.21437,-1.766816 -4.16,-2.392724 -2.19011,-0.704553 -3.37294,-1.02639 -4.37351,-1.189977 -0.176,-0.02877 -0.65761,-0.180679 -1.07025,-0.337562 C 102.4076,49.695402 93.13623,49.47721 90.358288,49.883398 86.718374,50.415626 80.547622,52.509965 79.032938,53.727197 78.353462,54.273238 77.645085,54.72 77.458765,54.72 77.272445,54.72 77.12,54.837328 77.12,54.980733 c 0,0.143401 -0.504,0.501072 -1.12,0.794822 -0.616,0.293751 -1.12,0.680419 -1.12,0.859267 0,0.178848 -0.18,0.32792 -0.4,0.331274 -0.22,0.0034 -1.259984,0.75935 -2.311075,1.68 -3.595901,3.149635 -5.961546,5.786522 -6.956295,7.753904 -0.355958,0.704 -0.819606,1.496 -1.030329,1.76 -0.210723,0.264 -0.789751,1.516326 -1.286727,2.782944 -0.681628,1.737229 -0.886336,2.75913 -0.833324,4.16 0.161292,4.26256 0.07492,5.08513 -0.747104,7.115501 -0.458368,1.132144 -1.146893,2.392144 -1.530052,2.8 -0.383161,0.407856 -0.563555,0.74376 -0.400873,0.746454 0.162678,0.0026 0.144166,0.110695 -0.04114,0.24 -0.855143,0.59672 -2.063069,2.625799 -2.062925,3.465306 3.2e-4,1.837117 1.769578,5.569795 2.640038,5.569795 0.165552,0 0.715434,0.295101 1.221959,0.655779 0.749398,0.533616 1.046854,0.588397 1.596806,0.294074 0.835779,-0.447296 1.245872,-0.128848 0.532439,0.413453 -0.708208,0.538329 -0.26456,1.075942 2.167164,2.626172 1.05521,0.672698 2.06321,1.405662 2.24,1.628802 0.409511,0.51689 4.322122,3.02172 4.720007,3.02172 0.164643,0 1.057843,0.648 1.984889,1.44 0.927047,0.792 1.886013,1.44068 2.131037,1.44152 0.245027,9.6e-4 1.597501,0.87967 3.005501,1.95298 1.408,1.0733 3.160432,2.21454 3.894294,2.53609 0.733863,0.32154 1.885863,1.07783 2.56,1.68063 2.130829,1.90534 3.202506,2.09101 7.598103,1.31637 z m 3.233725,-9.14728 c -1.171258,-0.61731 -1.60152,-0.65482 -5.340935,-0.46556 -4.274905,0.21636 -5.815897,-0.16745 -2.417059,-0.602 4.464422,-0.5708 6.837558,-0.47011 8.56535,0.3634 0.888196,0.42848 1.528013,0.91963 1.421824,1.09145 -0.281958,0.45622 -0.799299,0.36634 -2.22918,-0.38729 z m -5.630525,-6.214736 c -2.116941,-0.625248 -4.839341,-3.964854 -4.749607,-5.826406 0.01763,-0.365642 0.146362,-0.273885 0.4,0.285098 0.698356,1.539084 2.928768,3.874384 4.259879,4.460211 1.485197,0.653638 3.231069,0.459481 4.262605,-0.474045 0.634534,-0.574246 1.712278,-2.662624 2.140915,-4.148518 0.364243,-1.262669 0.935366,-0.940042 0.810921,0.458086 -0.155171,1.743338 -1.699331,4.23097 -3.021894,4.868246 -1.64,0.790234 -2.45199,0.864912 -4.102819,0.377328 z M 72.286502,84.281216 c -0.967849,-0.296986 -1.956153,-0.951933 -2.88,-1.908566 -0.773574,-0.801028 -1.734192,-1.58841 -2.134704,-1.749732 -0.760556,-0.306345 -1.261523,-1.139859 -0.901484,-1.499897 0.32544,-0.325443 2.156336,0.83768 3.33543,2.118915 0.96871,1.052627 1.068957,0.964029 0.500019,-0.441936 -0.409385,-1.01168 0.388871,-0.414432 1.092304,0.817254 0.934259,1.635853 1.884794,1.996864 4.530455,1.720666 2.544838,-0.265674 3.392508,-0.672326 4.915526,-2.358125 1.289267,-1.427065 1.542006,-1.432669 0.530227,-0.01174 -0.710064,0.997191 -2.397446,2.143431 -3.758768,2.553331 -0.853574,0.257015 -0.847449,0.264263 0.244493,0.289338 1.788058,0.04106 3.379795,-0.544979 4.448131,-1.637702 1.147895,-1.174093 1.300551,-0.945312 0.303527,0.454883 C 81.418861,84.162592 79.642995,84.790237 76.48,84.759664 74.984,84.7452 73.096928,84.529907 72.286502,84.281226 Z M 103.80118,81.829162 C 102.4016,81.416166 101.44,80.769645 101.44,80.241635 c 0,-0.183811 0.19693,-0.15656 0.46273,0.06403 0.43331,0.359616 3.65743,1.257706 4.60571,1.282935 0.26692,0.0071 0.11611,-0.359799 -0.4,-0.973156 -0.87217,-1.036528 -1.10544,-1.78207 -0.42844,-1.369382 0.22,0.134106 0.66245,0.574605 0.98323,0.978883 1.14455,1.442506 5.23646,0.474704 6.41283,-1.516739 0.63368,-1.072736 0.67971,-2.81545 0.0971,-3.677005 C 112.70333,74.336394 112.27218,73.28 112.45844,73.28 c 0.0651,0 0.40042,0.478083 0.74518,1.062406 0.75904,1.286477 1.03686,2.940157 0.6945,4.133901 -0.57336,1.999187 2.17075,-0.01392 2.94766,-2.162419 0.41742,-1.154342 1.25323,-1.537242 1.20907,-0.553888 -0.083,1.847962 -2.90131,4.586762 -5.13622,4.991309 -0.46275,0.08376 -1.31286,0.396118 -1.88913,0.694121 -1.32764,0.686548 -5.45888,0.905866 -7.22832,0.383732 z M 74.14313,79.76 c -0.739501,-1.318157 -0.164768,-3.92 0.865907,-3.92 1.119661,0 1.784457,2.193885 1.018861,3.362333 -0.494452,0.75463 -1.592074,1.079395 -1.884768,0.557667 z m -4.001472,-1.781037 c -0.03391,-1.023571 0.0993,-2.161798 0.296038,-2.529395 0.350026,-0.654032 0.331158,-0.652714 -0.88,0.06151 -0.680733,0.401427 -1.55479,1.071655 -1.942346,1.489395 -0.783974,0.845028 -1.69535,1.006813 -1.69535,0.300954 0,-0.77521 2.859686,-2.858336 5.92,-4.312397 2.480352,-1.178502 4.331872,-1.552877 7.450826,-1.506544 2.374576,0.03528 2.638262,0.112445 4.414243,1.291869 2.125104,1.411277 1.867539,1.952182 -0.341632,0.717453 -0.789258,-0.441123 -1.904909,-0.837059 -2.479226,-0.879856 -1.490073,-0.111034 -4.933789,0.323446 -6.788681,0.856502 -1.834359,0.527155 -3.615399,2.000643 -2.97632,2.462362 0.282102,0.203811 0.239356,0.237901 -0.144349,0.11512 -0.46625,-0.149197 -0.56152,0.112707 -0.658343,1.809814 L 70.203315,79.84 Z m 11.34399,0.04356 c -0.13096,-0.823613 -0.497334,-1.831613 -0.81417,-2.24 C 80.354646,75.374134 79.92072,74.68 79.707197,74.24 c -0.29592,-0.609789 -0.16001,-0.533706 0.571622,0.32 1.008717,1.177024 1.792291,3.34848 1.573907,4.361648 -0.07093,0.329094 -0.236118,-0.07551 -0.367078,-0.899126 z m 26.563952,-1.16772 c -0.6081,-0.671942 -0.67294,-1.42904 -0.19834,-2.31584 0.47744,-0.892112 1.17837,-0.761933 1.73944,0.323053 0.35851,0.693286 0.40502,1.157994 0.17614,1.76 -0.36621,0.963197 -0.98083,1.046512 -1.71724,0.232787 z M 72.376774,76.131997 c -0.231616,-0.370877 -0.35966,-0.735776 -0.284547,-0.81089 0.222007,-0.222006 0.938279,0.787376 0.816973,1.151293 -0.06122,0.183654 -0.30081,0.03046 -0.532426,-0.340403 z M 97.882237,74.96 c 1.652749,-3.036992 7.004073,-5.246192 11.451873,-4.727699 4.7259,0.550912 7.75288,1.309321 8.02169,2.00984 0.32812,0.855069 -0.39987,0.995965 -2.1558,0.417241 -2.3446,-0.772739 -4.24402,-1.054214 -3.95468,-0.586048 0.15021,0.243037 0.026,0.273863 -0.39283,0.09748 -1.51114,-0.636397 -4.31747,-0.80897 -5.45131,-0.335219 -0.71782,0.299923 -1.0428,0.607613 -0.89477,0.847139 0.13889,0.22472 0.0947,0.29103 -0.10964,0.164714 -0.18816,-0.116292 -0.428,-0.03053 -0.53299,0.190556 -0.10498,0.221098 -0.12921,0.07208 -0.0539,-0.331152 0.11685,-0.625206 0.0349,-0.702416 -0.55645,-0.524406 -1.5173,0.456717 -2.72195,1.17392 -3.745458,2.229907 -1.157625,1.194368 -2.161817,1.532631 -1.625785,0.547645 z M 68.010659,72.712387 C 67.899606,72.422992 68.14335,71.870362 68.594845,71.387898 69.020954,70.932554 69.659283,69.984 70.013357,69.28 c 0.354073,-0.704 1.722569,-2.324 3.041101,-3.6 2.488614,-2.408339 3.030438,-2.624595 5.825542,-2.32513 1.943792,0.208256 3.52472,2.521376 3.304064,4.834308 -0.08543,0.895472 -0.218678,1.068182 -0.744064,0.964406 -0.352,-0.06953 -1.864,-0.138051 -3.36,-0.152275 -2.448714,-0.0233 -2.911498,0.07369 -4.64,0.972297 -1.056,0.548986 -2.666726,1.501533 -3.579389,2.116768 -1.368829,0.922736 -1.692758,1.031652 -1.849952,0.622013 z M 70.88,70.904317 c 0.528,-0.374695 1.824,-1.10945 2.88,-1.632791 C 75.482925,68.417667 75.992035,68.32 78.72,68.32 h 3.04 L 81.65472,67.36 C 81.522134,66.150976 80.361107,64.38423 79.52,64.111568 78.539706,63.793782 76.190909,63.960282 75.400512,64.403581 74.390778,64.969894 70.4,69.327859 70.4,69.864179 c 0,0.247232 -0.321347,0.858042 -0.714109,1.357354 -0.735043,0.934457 -0.470742,0.864246 1.194109,-0.317216 z m 7.46,2.157088 c 0.230998,-0.09244 0.506998,-0.08107 0.613334,0.02525 0.106333,0.106333 -0.08267,0.181965 -0.42,0.16807 C 78.16055,73.239363 78.084726,73.163542 78.34,73.061392 Z M 105.92,72.96 c 0,-0.176 0.144,-0.32 0.32,-0.32 0.176,0 0.32,0.144 0.32,0.32 0,0.176 -0.144,0.32 -0.32,0.32 -0.176,0 -0.32,-0.144 -0.32,-0.32 z m 7.04,-5.757795 c -0.616,-0.134307 -2.416,-0.701015 -4,-1.259351 -3.89692,-1.373603 -5.47475,-1.500118 -7.94186,-0.6368 -1.087977,0.380717 -2.231023,0.913719 -2.540102,1.184452 -0.309078,0.270729 -0.657296,0.396902 -0.773814,0.280384 -0.291309,-0.291309 0.499091,-1.701632 0.961306,-1.715277 0.205958,-0.0061 1.35872,-0.334525 2.5617,-0.729879 2.62781,-0.863625 3.20569,-0.798249 8.71273,0.985652 2.21645,0.717977 4.10537,1.229945 4.19761,1.137708 0.2436,-0.243596 -0.45401,-1.152592 -2.82025,-3.67487 -2.00688,-2.139213 -2.17894,-2.247008 -3.98735,-2.498115 -1.03948,-0.144336 -3.16362,-0.265507 -4.7203,-0.269267 -2.763251,-0.0067 -2.848652,0.0159 -3.603075,0.953158 -0.64152,0.796982 -0.655823,1.867438 -0.604745,2.4 0.118319,1.23366 0.04398,2.517118 -0.252528,1.833243 -0.479056,-1.10488 -0.01782,-4.516193 0.78014,-5.236389 0.563844,-0.508892 1.163048,-0.591888 4.065918,-0.563155 1.87254,0.01853 4.1957,0.204538 5.16258,0.413341 1.55341,0.335469 1.99518,0.629411 3.79679,2.526301 3.33889,3.515462 4.24053,5.256915 2.66636,5.149859 C 114.3235,67.462976 113.576,67.336512 112.96,67.202205 Z M 60.469757,82.111037 C 60.68992,81.443939 61.069402,80.516051 61.313056,80.049066 62.071798,78.594845 61.738064,75.221069 60.96,76.48 c -0.112323,0.181741 -0.347654,0.241795 -0.522957,0.13345 -0.193795,-0.11977 -0.118035,-0.418759 0.193267,-0.762743 0.411687,-0.454909 0.453447,-0.826358 0.213149,-1.895853 -0.323328,-1.439017 -2.441321,-4.301356 -3.037449,-4.104921 -0.583655,0.192326 -1.186576,1.617501 -0.83361,1.970467 0.169181,0.169181 0.3076,0.560406 0.3076,0.869389 0,0.308985 0.36,1.092278 0.8,1.740656 0.872253,1.285337 1.059741,3.244723 0.46113,4.819184 -0.45752,1.203373 -0.448701,3.716707 0.0161,4.585181 0.370758,0.692771 0.38911,0.694672 0.945171,0.09781 0.311888,-0.334775 0.7472,-1.154487 0.967363,-1.821584 z m 64.942553,-7.911674 c -0.21834,-0.769651 -0.57838,-1.599174 -0.8001,-1.843389 -0.32845,-0.361779 -0.37348,-0.183952 -0.24313,0.96 0.19516,1.712612 0.75736,2.965581 1.15309,2.569853 0.16947,-0.169472 0.12446,-0.860448 -0.10986,-1.686464 z M 61.810317,71.28 c 0.19103,-0.484 0.449859,-0.88 0.575171,-0.88 0.125315,0 0.227846,-0.186819 0.227846,-0.415155 0,-0.228336 0.493194,-1.272336 1.095988,-2.32 C 64.312115,66.617181 65.018723,65.328 65.279558,64.8 c 0.950055,-1.923155 9.720999,-10.08 10.838884,-10.08 0.135497,0 0.812278,-0.481686 1.503958,-1.070413 1.654477,-1.408221 2.110518,-1.633481 6.322346,-3.122909 7.70567,-2.72495 16.438884,-2.704937 25.153504,0.05765 2.79778,0.886909 3.50949,1.264471 5.16043,2.737571 1.05328,0.939824 2.30951,1.912752 2.79162,2.162061 0.48211,0.249309 1.5528,1.187411 2.37932,2.084669 0.82651,0.897258 1.63792,1.631376 1.80313,1.631376 0.1652,0 0.58769,0.58072 0.93885,1.290486 l 0.63848,1.290487 0.36831,-1.050487 c 0.70764,-2.018339 2.06539,-9.065097 2.08293,-10.810486 0.0283,-2.81736 -1.90365,-8.075965 -4.02202,-10.947523 -1.05314,-1.427587 -2.41109,-2.315274 -4.83566,-3.161072 -0.658,-0.229539 -1.738,-0.897107 -2.4,-1.483482 -0.662,-0.586377 -1.58513,-1.300521 -2.0514,-1.586982 -0.46627,-0.286464 -1.24899,-1.155596 -1.73937,-1.931407 -0.49039,-0.775811 -1.17982,-1.564812 -1.53209,-1.753336 -0.7689,-0.411504 -0.95527,-0.551793 -2.60078,-1.957678 -1.08252,-0.924879 -2.4122,-1.61763 -3.04,-1.583811 -0.088,0.0047 -0.51057,-0.124669 -0.93905,-0.287577 -1.61512,-0.614066 -7.359628,-0.355877 -10.845104,0.487438 -1.817286,0.439694 -3.566716,0.98979 -3.887625,1.222437 C 84.62833,28.923323 82.24,30.857308 82.24,31.089662 c 0,0.154916 -1.116,1.403826 -2.48,2.775356 -2.620483,2.63495 -4.578189,3.907139 -8.24,5.354659 -2.138102,0.845193 -4.939514,2.261171 -5.28,2.668781 -0.088,0.105347 -0.808,0.535641 -1.6,0.956204 -2.976682,1.580663 -8.487146,7.981373 -9.181834,10.665216 -0.725817,2.8041 -0.0072,7.410877 1.482343,9.502746 0.36272,0.509395 0.659491,1.127142 0.659491,1.372774 0,0.245632 0.133546,0.583402 0.296768,0.750602 0.163219,0.1672 0.674282,1.312 1.13569,2.544 0.461404,1.232 1.119862,2.71623 1.463232,3.298291 0.343369,0.582061 0.647356,1.590061 0.675523,2.24 L 61.222422,74.4 61.342707,73.28 c 0.06616,-0.616 0.276579,-1.516 0.46761,-2 z m 62.568283,-0.3 c -0.10216,-0.255274 -0.17798,-0.17945 -0.19334,0.193334 -0.0139,0.337332 0.0617,0.526333 0.16807,0.42 0.10634,-0.106336 0.1177,-0.382336 0.0252,-0.613334 z m 0.98277,-4.411853 c 0.12447,-1.784726 0.0488,-2.198637 -0.52044,-2.848537 l -0.66606,-0.760388 -0.33355,0.877322 c -0.18346,0.482528 -0.243,1.560051 -0.13231,2.394493 0.1107,0.834441 0.24167,2.005821 0.29105,2.603065 0.14478,1.751191 0.16174,1.769924 0.70062,0.774045 0.28328,-0.52352 0.58059,-1.89152 0.66069,-3.04 z"
         id="outline" />
      <path
         style="display:inline;fill:#000000;fill-opacity:0;stroke:#000000;stroke-width:0.0208333;stroke-opacity:0"
         d="m 84.263329,76.135417 c -0.168925,-0.301012 -0.207111,-0.37923 -0.251745,-0.515669 -0.0627,-0.191673 -0.256793,-0.348133 -0.765726,-0.61727 -0.400465,-0.211777 -0.422479,-0.240987 -0.21375,-0.283636 0.169493,-0.03463 1.174461,-0.05078 1.452907,-0.02335 0.688312,0.06782 1.459416,0.261352 2.174854,0.545858 0.445675,0.17723 1.179047,0.52918 1.485965,0.713124 0.173466,0.103963 0.365286,0.272435 0.414152,0.363741 l 0.0246,0.04597 -2.093402,0.0054 -2.093403,0.0054 z"
         id="path19182"
         transform="translate(-4,-2)" />
      <path
         style="display:inline;fill:#000000;fill-opacity:0;stroke:#000000;stroke-width:0.0104167;stroke-opacity:0"
         d="m 83.46994,84.760964 c 0.0026,-0.0026 0.06077,-0.03844 0.12934,-0.07972 0.173488,-0.104435 0.378742,-0.242523 0.558582,-0.375796 l 0.152654,-0.113126 0.03144,0.03144 c 0.03976,0.03976 0.06165,0.03945 0.14096,-0.0019 0.0471,-0.02458 0.105348,-0.0747 0.220967,-0.190104 0.156427,-0.156139 0.279306,-0.301519 0.461183,-0.545632 0.115077,-0.154455 0.133217,-0.186643 0.118482,-0.210238 -0.0086,-0.01375 0.01131,-0.04619 0.101582,-0.165623 0.06175,-0.08169 0.135115,-0.167398 0.163045,-0.19047 0.127192,-0.105067 0.22785,-0.258618 0.216414,-0.330133 -0.0052,-0.03275 0.0021,-0.05133 0.05568,-0.141782 0.215225,-0.36304 0.294789,-0.569924 0.367428,-0.955394 0.0299,-0.158655 0.0254,-0.251781 -0.02967,-0.614129 -0.07355,-0.483936 -0.167006,-0.966533 -0.247417,-1.277641 -0.195419,-0.756076 -0.568469,-1.696596 -0.905794,-2.283653 -0.04383,-0.07628 -0.170211,-0.277765 -0.280843,-0.44774 -0.110632,-0.169976 -0.225067,-0.34721 -0.254299,-0.393854 l -0.05315,-0.08481 h 2.087805 2.087806 l 0.01095,0.03385 c 0.07305,0.225845 0.06851,0.441173 -0.0251,1.190105 -0.0975,0.780053 -0.138181,1.00627 -0.438331,2.4375 -0.131679,0.627894 -0.150608,0.70431 -0.237658,0.959402 -0.176423,0.516993 -0.402453,1.025332 -0.636384,1.431223 -0.545799,0.947009 -0.980668,1.581925 -1.244773,1.817389 -0.132887,0.118475 -0.416757,0.303836 -0.699521,0.456771 l -0.09015,0.04876 h -0.882945 c -0.48562,0 -0.880847,-0.0021 -0.878283,-0.0047 z"
         id="path19184"
         transform="translate(-4,-2)" />
    </g>
  </g>
</svg>
