<?xml version="1.0" encoding="UTF-8" standalone="no"?>
<!-- Created with Inkscape (http://www.inkscape.org/) -->

<svg
   version="1.1"
   id="svg9"
   width="192"
   height="288"
   viewBox="0 0 192 288"
   xmlns="http://www.w3.org/2000/svg"
   xmlns:svg="http://www.w3.org/2000/svg">
  <defs
     id="defs13" />
  <g
     id="g15">
    <g
       id="g177"
       transform="translate(-2,8)">
      <path
         style="display:inline;fill:#fbd7c7;stroke-width:0.32"
         d="m 93.182706,107.07248 c -2.39632,-0.64322 -5.163664,-1.69904 -6.128051,-2.33803 -0.283968,-0.18815 -1.501273,-1.25481 -2.705126,-2.37036 -1.203853,-1.11555 -3.059517,-2.465058 -4.123696,-2.998917 -1.645139,-0.825299 -4.765283,-2.858608 -5.294877,-3.450522 -0.639619,-0.714883 -3.063114,-2.331709 -4.8,-3.202301 -1.144,-0.573414 -2.757587,-1.563993 -3.58575,-2.201283 -0.828164,-0.637289 -1.980164,-1.504896 -2.56,-1.928013 -0.579837,-0.42312 -1.519968,-1.335932 -2.089178,-2.028473 -0.569213,-0.692544 -1.505213,-1.575488 -2.08,-1.962106 -2.561405,-1.722851 -3.106474,-6.584896 -1.151629,-10.272576 0.375392,-0.708147 0.938979,-2.247875 1.252416,-3.421619 0.512103,-1.91769 0.523847,-2.307056 0.115811,-3.84 -0.24974,-0.938256 -0.455782,-2.043702 -0.457872,-2.456547 -0.0058,-1.146429 0.990868,-2.609373 1.777703,-2.609373 0.575542,0 0.771417,-0.341194 1.240022,-2.16 1.355261,-5.260195 1.412522,-5.396211 2.814503,-6.685488 0.750185,-0.689878 1.867974,-1.453581 2.483974,-1.69712 1.63097,-0.64481 2.199472,-1.238208 2.594595,-2.708208 0.216067,-0.80384 0.833146,-1.767437 1.598653,-2.496365 1.394643,-1.328009 1.525837,-1.926653 0.64161,-2.927715 -0.332829,-0.376806 -1.242957,-1.405104 -2.022509,-2.285104 -1.869939,-2.110893 -2.583312,-3.210979 -3.251943,-5.014794 -0.304748,-0.822137 -0.762508,-1.667769 -1.017248,-1.879184 -0.756819,-0.628105 -0.540688,-1.783891 0.496842,-2.656918 0.528,-0.444282 0.96,-0.881664 0.96,-0.971958 0,-0.381725 1.673792,-1.923405 3.004355,-2.767223 0.789696,-0.500809 2.51408,-1.767427 3.831968,-2.814704 1.317885,-1.047277 3.090848,-2.159776 3.939917,-2.472224 0.849069,-0.312448 3.311792,-1.437965 5.472717,-2.501142 3.834409,-1.886538 4.002937,-1.936291 7.003171,-2.067514 3.232035,-0.141357 11.616366,0.386701 15.147876,0.954039 4.09294,0.657532 7.19542,1.997907 8.62491,3.726252 0.58659,0.709229 1.88078,1.824925 2.87597,2.479319 1.89646,1.247037 2.57912,2.468934 2.57912,4.616419 0,0.528246 0.1671,1.585242 0.37135,2.34888 0.33518,1.253206 0.27565,1.682198 -0.61119,4.404592 -1.93063,5.926611 -1.73146,7.346301 1.10245,7.858365 1.42849,0.258118 1.59249,0.388998 2.31538,1.847689 0.6411,1.293648 0.78187,2.073229 0.8,4.430336 0.0214,2.78034 0.0489,2.882279 0.98201,3.640093 0.71957,0.584384 1.27791,0.758874 2.22938,0.696704 l 1.26937,-0.08294 -0.0993,2.871863 c -0.0546,1.579523 -0.16939,2.985331 -0.2551,3.124016 -0.26972,0.436412 0.58547,6.108588 1.06011,7.031404 0.24934,0.484749 1.00645,1.247396 1.68247,1.694768 1.39906,0.925856 2.13892,2.404957 2.41763,4.833248 0.34578,3.012656 -1.67243,9.718071 -3.65432,12.141373 -0.44566,0.544919 -1.44256,1.876365 -2.21532,2.958771 -1.26903,1.77752 -2.15687,2.543037 -5.79497,4.996576 -0.616,0.415431 -1.43855,1.045834 -1.82789,1.4009 -0.38933,0.355065 -1.39733,1.113686 -2.24,1.68582 -0.84266,0.572135 -2.61211,1.855949 -3.93211,2.852914 -1.32,0.99698 -2.904,2.00193 -3.52,2.23324 -0.616,0.23131 -1.768,0.94959 -2.56,1.59618 -2.38806,1.9496 -2.94142,2.20613 -6.20947,2.87856 -3.863596,0.79496 -5.43512,0.78875 -8.498784,-0.0336 z m 0.521456,-14.02653 c 2.832964,-0.227609 3.8897,-0.19183 5.10096,0.172704 0.855127,0.257354 1.649168,0.338375 1.803518,0.184023 0.15435,-0.154355 -0.5417,-0.44776 -1.580958,-0.666419 -2.094217,-0.440618 -8.949804,-0.0097 -9.941644,0.624969 -0.468007,0.299453 -0.429584,0.325098 0.244918,0.163488 0.44,-0.105424 2.407942,-0.320867 4.373206,-0.478765 z m 2.64512,-10.018307 c 0.42808,-0.217405 1.197149,-1.115283 1.709047,-1.995283 0.511897,-0.88 1.256541,-1.96 1.654765,-2.4 0.965966,-1.067302 1.253666,-1.92 0.647816,-1.92 -0.25847,0 -0.469954,0.155766 -0.469954,0.346144 0,0.190381 -0.486067,0.946381 -1.08015,1.68 -0.594084,0.733622 -1.315575,1.797587 -1.603312,2.364371 -0.643082,1.266727 -1.389367,1.690019 -2.975501,1.687699 -3.061274,-0.0045 -5.163469,-1.485488 -5.559248,-3.91654 l -0.221683,-1.361674 -0.04005,1.335446 c -0.04902,1.634269 1.053898,3.105108 2.986708,3.983063 1.491401,0.677449 3.822675,0.770093 4.951564,0.196774 z M 83.935313,69.417041 c 1.315421,-0.58183 3.524472,-2.125113 3.400773,-2.563142 -0.09776,-0.346176 1.601164,-2.868489 2.132304,-3.165731 0.716694,-0.401082 -0.186255,-1.374956 -1.563359,-2.078054 -1.467002,-0.748995 -8.24109,-1.750177 -10.254075,-1.658906 -2.11381,0.09584 -3.588284,0.392247 -6.26815,1.270285 -3.585834,1.174874 -4.670288,1.443321 -4.670288,1.827407 0,0.594301 0.880486,2.764599 1.416188,3.076567 0.310634,0.180903 0.383245,0.331786 0.16225,0.337162 -0.719094,0.0175 -0.09636,0.851534 0.909462,1.791118 1.337453,1.249367 2.407533,1.498059 6.546752,1.752449 4.362326,0.268103 6.453203,0.178233 8.188143,-0.589155 z M 114.17746,68.62122 c 4.42848,-0.683347 5.8255,-1.035539 6.99472,-2.461104 1.78359,-2.174646 2.48206,-2.88183 2.11425,-3.325014 -0.33741,-0.406553 -0.29565,-2.174108 0.0747,-3.162742 0.48139,-1.284963 0.4256,-1.341647 -0.006,-1.341647 -0.24809,0 -0.26443,0.144 -0.3732,0.32 -0.30124,0.487411 -1.46524,0.399324 -2.0877,-0.223786 -1.39826,-1.399696 -13.21557,1.053016 -16.12119,2.220973 -1.09149,0.438743 -1.86793,1.362038 -2.29844,1.922028 -0.43036,0.559796 -1.0355,0.678231 -1.54292,1.293671 -1.033938,1.254045 -1.684545,1.913573 -0.58315,0.973717 0.52926,-0.451639 0.0884,-0.210527 -0.22055,0.189342 -0.37187,0.481392 0.18897,0.812611 1.41951,1.168803 0.76101,0.220282 1.62923,0.39199 1.92937,0.381571 0.30014,-0.01043 0.51614,0.118621 0.48,0.286749 -0.13576,0.631523 1.59434,1.348991 3.75808,1.776617 2.46373,0.454729 4.67742,0.250178 6.46252,-0.01918 z M 67.090956,58.79236 c 0.108774,-0.176 0.755898,-0.32 1.438054,-0.32 0.682154,0 1.645658,-0.155997 2.141114,-0.346659 1.476406,-0.568157 5.588131,-1.295491 12.186806,-2.155767 2.619645,-0.341526 2.8365,-0.578012 2.310861,-2.520064 -0.65911,-2.435184 -0.678761,-2.445606 -4.132265,-2.192105 -2.358522,0.173126 -3.424195,0.562668 -5.529389,1.411552 -3.492659,1.408352 -9.547117,5.245393 -9.547117,6.153604 0,0.287466 0.939712,0.280463 1.131936,-0.03056 z m 54.880004,-3.671782 c 0,-0.259482 -0.468,-0.710429 -1.04,-1.002106 -0.572,-0.29168 -1.7165,-1.158128 -2.54333,-1.925443 -1.70533,-1.582586 -2.78959,-1.54233 -5.91786,-2.303565 -4.69421,-1.142294 -9.88659,-1.584203 -11.15839,-0.636967 -0.33882,0.252348 -0.42479,0.911053 -0.51842,2.748745 -0.0733,1.439053 -0.0716,2.256643 0.004,2.332112 0.0755,0.07547 0.22007,-0.04601 0.87622,-0.190645 0.65615,-0.144656 2.36324,-0.635554 4.10159,-0.826038 l 3.36258,-0.368465 3.55198,0.503966 c 9.13296,1.29581 9.28172,2.416166 9.28172,1.668406 z M 58.071033,73.439614 c 0.106848,-0.304009 0.217862,-1.750278 0.246697,-3.213932 0.04454,-2.261098 -0.0738,-2.937143 -0.787174,-4.496736 -0.461779,-1.009556 -0.8396,-1.927946 -0.8396,-2.040871 0,-0.112928 -0.244198,-0.475155 -0.542659,-0.804953 -0.298464,-0.329799 -0.587725,-0.989136 -0.6428,-1.465197 -0.05507,-0.476061 -0.184839,-1.317325 -0.288362,-1.869475 -0.189577,-1.01112 0.562864,-2.67609 1.209389,-2.67609 0.621392,0 2.744877,1.988138 3.435018,3.216077 l 0.715721,1.273456 -0.663152,1.073005 c -0.749219,1.212259 -0.839184,2.730124 -0.284694,4.803296 0.329449,1.231779 0.287437,1.717776 -0.324423,3.753014 -0.386585,1.285898 -0.866086,2.487206 -1.065558,2.669574 -0.262022,0.239556 -0.308758,0.178173 -0.168403,-0.221168 z m 72.985147,-5.300579 c -1.06946,-0.693785 -1.24526,-1.819529 -1.21528,-7.782291 0.0255,-5.072522 0.11992,-6.173165 0.63676,-7.422752 0.62803,-1.518435 1.47183,-1.907906 2.51881,-1.540642 1.18514,0.415724 0.79547,2.013916 -0.55844,5.63901 -2.15345,5.76591 -2.16914,5.88479 -1.1684,8.855424 0.62778,1.863542 0.54441,2.742883 -0.21345,2.251251 z"
         id="path193" />
      <path
         style="display:inline;fill:#eb8925;stroke-width:0.32"
         d="m 60.373756,59.437778 c -0.271498,-0.525021 -0.887536,-1.158279 -1.368973,-1.407239 -0.968406,-0.500784 -1.936585,-1.463382 -1.969526,-1.958179 -0.01171,-0.176 -0.417978,-0.429818 -0.902803,-0.564038 -1.578247,-0.436932 -2.331501,-1.345812 -2.534266,-3.05786 -0.157834,-1.332649 -0.08109,-1.684246 0.492915,-2.258249 0.379395,-0.379395 1.088455,-0.679853 1.604403,-0.679853 1.404362,0 2.352781,-0.943635 2.435591,-2.423309 0.03868,-0.691181 0.09048,-1.570406 0.115094,-1.953833 0.02461,-0.383431 0.296765,-0.948836 0.604765,-1.256461 0.443818,-0.44328 0.57481,-1.198087 0.631379,-3.638189 0.115517,-4.982781 0.912182,-7.421128 3.227098,-7.421128 1.726147,0 2.956376,1.012368 4.401963,4.015651 0.623405,1.295152 1.666162,2.788867 2.277605,3.418451 1.345408,1.385322 3.452158,4.030297 3.452158,4.385193 0,0.141379 -0.893765,0.586419 -1.411451,0.969161 -0.600563,0.444016 -1.187869,1.372275 -1.622614,2.564611 -0.622544,1.707386 -0.825421,1.939363 -2.349988,2.687082 -3.421065,1.677846 -4.118512,2.633926 -5.144896,7.052771 -0.6307,2.715325 -1.122854,3.102611 -1.938454,1.525418 z m 8.335034,-2.635306 c 0.713808,-0.401562 1.992556,-1.21793 2.84166,-1.81415 0.849108,-0.596218 2.641082,-1.515856 3.982167,-2.043639 2.05175,-0.807462 2.914121,-0.965366 5.439245,-0.995961 l 3.000905,-0.03636 0.422355,1.417645 c 0.232295,0.779702 0.362538,1.514429 0.289428,1.63272 -0.07311,0.118294 -1.109575,0.30736 -2.303261,0.42015 -2.783226,0.262979 -5.708013,0.712579 -8.730333,1.342032 -1.32,0.274912 -3.264,0.569104 -4.32,0.65376 l -1.92,0.153917 z m 48.9746,-2.500892 c -0.528,-0.134701 -2.82575,-0.686818 -4.98718,-1.187291 -3.60825,-0.835482 -3.98863,-1.134591 -5.37514,-0.744351 -2.37164,0.66751 -5.96906,1.267849 -6.19864,1.034432 -0.11468,-0.116605 -0.13131,-0.978938 -0.0369,-1.916298 0.14408,-1.431229 0.29619,-1.751664 0.94935,-2 1.59335,-0.605789 5.77047,-0.583296 11.32856,0.620829 2.39174,0.518157 4.53247,1.754164 5.99066,3.254526 1.00471,1.500196 0.0996,1.285613 -1.67071,0.938153 z m 7.9171,-0.810593 c -0.75538,-0.755382 -1.13403,-0.99319 -1.00096,-2.96 0.10894,-1.610294 -0.0772,-2.540996 -0.5555,-3.866199 -0.76099,-2.108106 -1.15354,-2.912428 -2.52736,-2.912428 -0.56287,0 -1.28814,-0.19359 -1.61173,-0.430202 -0.5622,-0.411094 -0.56532,-0.542537 -0.0701,-2.96 0.28502,-1.391388 0.81024,-3.287344 1.16717,-4.213232 0.7315,-1.897516 0.80161,-3.026976 0.30927,-4.982224 -0.49018,-1.946652 -0.0187,-2.998115 1.46972,-3.277334 1.71901,-0.32249 2.63225,0.248768 3.49218,2.184448 0.49027,1.103555 1.63335,2.571437 3.33697,4.285136 1.42519,1.433626 2.71986,2.945626 2.87704,3.36 0.15718,0.414374 0.29063,1.923469 0.29655,3.353546 0.009,2.081318 0.16972,2.943315 0.80737,4.32 1.23513,2.666678 1.30258,3.07167 0.57628,3.460374 -0.34888,0.186717 -1.05817,0.339488 -1.57619,0.339488 -1.11084,0 -1.4161,0.316506 -2.16039,2.24 -0.30647,0.792 -0.84841,1.764 -1.2043,2.16 -0.90959,1.012077 -2.55865,0.965974 -3.626,-0.101373 z"
         id="path191" />
      <path
         style="display:inline;fill:#3abb83;stroke-width:0.32"
         d="m 76.530956,69.19236 c 0,-0.264 0.216,-0.48 0.48,-0.48 0.264,0 0.48,-0.144 0.48,-0.32 0,-0.176 0.130451,-0.32 0.289891,-0.32 0.159443,0 0.123443,0.358877 -0.08,0.797504 -0.405638,0.874573 -1.169891,1.085251 -1.169891,0.322496 z m 1.780723,0.19353 c -0.09738,-0.157556 0.03813,-0.369037 0.301114,-0.469956 0.262989,-0.100918 0.478163,-0.04853 0.478163,0.116426 0,0.164954 0.216,0.217027 0.48,0.115722 0.264,-0.101309 0.48,-0.0248 0.48,0.170041 0,0.421763 -1.484742,0.479613 -1.739277,0.06777 z m 3.099277,-0.05916 c 0.760429,-0.442909 0.706099,-1.141517 -0.105277,-1.353699 -0.523395,-0.136871 -0.621721,-0.05952 -0.46104,0.362678 0.146909,0.386023 0.106355,0.439607 -0.14448,0.190899 -0.221225,-0.21935 -0.247875,-0.618342 -0.0729,-1.09135 0.230995,-0.624438 0.308947,-0.659254 0.479712,-0.214246 0.202707,0.528246 1.183984,0.760243 1.183984,0.279923 0,-0.138288 0.293997,-0.251431 0.653325,-0.251431 0.638285,0 0.637171,0.01219 -0.04835,0.529274 -0.482438,0.363904 -0.645936,0.742406 -0.523283,1.211427 0.149373,0.57121 0.04013,0.680573 -0.671654,0.672426 -0.731879,-0.0084 -0.772199,-0.05507 -0.290042,-0.335901 z m -8.701501,-0.91709 c -1.201926,-1.122768 -1.290179,-1.701626 -0.180995,-1.187171 0.438627,0.20344 0.798627,0.544825 0.8,0.758633 0.0047,0.729076 1.11225,1.047626 2.014672,0.579444 0.763504,-0.396109 0.81007,-0.38712 0.506637,0.0978 -0.559626,0.894349 -2.042378,0.776916 -3.140314,-0.24871 z m 37.376955,-0.646634 c -0.4155,-0.346144 -0.59309,-0.634144 -0.39463,-0.64 0.19844,-0.0059 0.5329,0.196708 0.74323,0.450144 0.21033,0.253434 0.69597,0.521821 1.07918,0.59642 l 0.69677,0.135635 -0.68455,0.04358 c -0.3765,0.02397 -1.0245,-0.239632 -1.44,-0.585776 z m 2.63121,0.17888 c 0.0733,-0.07176 0.96337,-0.283244 1.97785,-0.469968 1.28321,-0.236185 2.11053,-0.605513 2.71868,-1.213657 0.73467,-0.734679 0.89086,-0.787418 0.97884,-0.330538 0.16264,0.844487 -0.57338,1.325443 -2.6813,1.752109 -1.94155,0.392992 -3.24441,0.507024 -2.99407,0.262054 z m -37.146664,-1.46768 c 0,-0.106166 0.575542,-0.186012 1.278986,-0.177436 0.70344,0.0086 1.27944,0.129424 1.28,0.268553 6.4e-4,0.13913 -0.574986,0.218976 -1.278986,0.177437 -0.704,-0.04154 -1.28,-0.162387 -1.28,-0.268554 z m 38.400004,-0.340732 c 0,-0.186388 0.144,-0.249888 0.32,-0.141114 0.176,0.108774 0.32,0.261274 0.32,0.338886 0,0.07761 -0.144,0.141114 -0.32,0.141114 -0.176,0 -0.32,-0.152499 -0.32,-0.338886 z m -0.96,-2.071156 c 0,-0.517564 0.50003,-0.635305 0.77927,-0.183488 0.0974,0.157556 -0.0381,0.369037 -0.30111,0.469956 -0.29045,0.111456 -0.47816,-0.001 -0.47816,-0.286468 z M 72.690956,62.95236 c -0.58495,-0.378022 -0.07971,-0.378022 0.8,0 0.421997,0.181338 0.476499,0.281008 0.16,0.292608 -0.264,0.0097 -0.696,-0.121997 -0.96,-0.292608 z m 43.440004,-4.05193 c 0.22,-0.08877 0.58,-0.08877 0.8,0 0.22,0.08877 0.04,0.161405 -0.4,0.161405 -0.44,0 -0.62,-0.07263 -0.4,-0.161405 z"
         id="path189" />
      <path
         style="display:inline;fill:#1ec57a;stroke-width:0.32"
         d="m 79.090956,69.033576 c 0,-0.49689 -1.38729,-1.119347 -1.53137,-0.687104 -0.143171,0.42951 -1.02863,0.498483 -1.02863,0.08012 0,-0.640608 -1.063347,-0.669091 -1.503786,-0.04028 -0.362012,0.516848 -0.580006,0.5809 -1.075148,0.315908 -0.837015,-0.447956 -0.781492,-1.01496 0.181369,-1.852157 0.819216,-0.712301 1.437565,-0.901677 1.437565,-0.440272 0,0.14159 0.56344,0.290685 1.25209,0.331318 1.160403,0.06847 1.267913,0.0019 1.468195,-0.910054 0.181523,-0.826461 0.326825,-0.950039 0.90791,-0.772151 1.519677,0.465213 1.884672,1.481088 1.128461,3.140791 -0.365677,0.802573 -1.236656,1.389872 -1.236656,0.833875 z m 1.896221,0.26545 c -0.299149,-1.341888 -0.261315,-1.477623 0.366128,-1.313543 0.691629,0.180867 0.731133,1.062784 0.05765,1.287027 -0.22,0.07325 -0.410701,0.08518 -0.423779,0.02653 z M 110.43072,67.56797 c -0.32607,-0.392887 -0.33234,-0.557706 -0.0284,-0.745584 0.21465,-0.132656 0.2994,-0.477981 0.18835,-0.767386 -0.23536,-0.613331 0.63741,-1.621267 1.2231,-1.412525 0.21843,0.07785 0.92584,-0.06569 1.57203,-0.318982 0.87532,-0.343104 1.33911,-0.37264 1.81896,-0.115831 0.35424,0.189584 0.99675,0.344698 1.42779,0.344698 0.47773,0 0.84042,0.21864 0.92895,0.56 0.34467,1.328912 -0.57283,1.846486 -1.27633,0.72 -0.21983,-0.352 -0.52898,-0.64 -0.68701,-0.64 -0.15803,0 -0.21202,0.288 -0.11997,0.64 0.0921,0.352 0.30657,0.64 0.47671,0.64 0.17014,0 0.25255,0.170374 0.18314,0.378608 -0.12053,0.361594 -3.17502,1.157603 -4.60795,1.200848 -0.37445,0.0113 -0.86919,-0.206432 -1.09942,-0.483846 z m 1.61534,-1.17561 c -0.004,-0.562147 -0.0694,-0.618112 -0.29889,-0.25528 -0.16169,0.255597 -0.22299,0.579597 -0.13621,0.72 0.27755,0.449098 0.44013,0.27545 0.4351,-0.46472 z m 2.36336,-0.222595 c -0.16736,-0.174215 -1.07846,-0.322279 -1.07846,-0.175261 0,0.05803 0.0849,0.326874 0.18876,0.59743 0.14862,0.387277 0.27789,0.409863 0.60773,0.10617 0.23042,-0.21216 0.35731,-0.44991 0.28197,-0.528339 z m -31.956198,0.946259 c -0.112109,-0.181395 0.01635,-0.23504 0.301113,-0.125763 0.554375,0.212733 0.655805,0.442099 0.195507,0.442099 -0.165612,0 -0.389094,-0.142352 -0.49662,-0.316336 z"
         id="path185" />
      <path
         style="display:inline;fill:#149e60;stroke-width:0.32"
         d="m 76.210956,69.401259 c 0,-0.149104 -0.303565,-0.406553 -0.674592,-0.572109 -0.643482,-0.287129 -0.648099,-0.322585 -0.100083,-0.768899 0.519952,-0.423465 0.552925,-0.410419 0.347264,0.13737 -0.18488,0.492432 -0.14385,0.536057 0.220086,0.234016 0.362963,-0.301232 0.447325,-0.219245 0.447325,0.434739 0,0.44329 -0.054,0.805984 -0.12,0.805984 -0.066,0 -0.12,-0.121994 -0.12,-0.271101 z m 3.844899,-0.288899 c -0.0026,-0.396 0.123696,-0.72 0.280864,-0.72 0.341379,0 0.760832,0.98007 0.52177,1.219133 -0.09214,0.09214 -0.169738,-0.03647 -0.172432,-0.285799 -0.004,-0.37327 -0.05969,-0.36856 -0.315101,0.02666 -0.250838,0.388148 -0.311136,0.342221 -0.315101,-0.24 z m -2.387539,-0.42809 c 0.09923,-0.16055 0.411914,-0.29191 0.694858,-0.29191 0.606422,0 0.282188,0.413939 -0.403005,0.514506 -0.259744,0.03812 -0.391079,-0.06205 -0.291853,-0.222596 z m 4.62264,-0.283782 c 0,-0.168086 0.288,-0.459744 0.64,-0.648128 0.352,-0.188384 0.64,-0.297453 0.64,-0.242374 0,0.05508 -0.288,0.346732 -0.64,0.648124 -0.352,0.301392 -0.64,0.410461 -0.64,0.242378 z m 30.020004,-0.226723 c 0.23099,-0.09244 0.507,-0.08107 0.61333,0.02525 0.10633,0.106333 -0.0827,0.181965 -0.42,0.16807 -0.37278,-0.01536 -0.44861,-0.09118 -0.19333,-0.193331 z M 80.825586,66.621003 c -0.274627,-0.657277 -0.81288,-1.260691 -1.284502,-1.44 -1.046541,-0.397894 -1.018317,-0.403859 -1.189542,0.251357 -0.105879,0.405149 -0.156608,0.352739 -0.183466,-0.189526 -0.02042,-0.41224 -0.29648,-1.079252 -0.613475,-1.482244 -0.483315,-0.614435 -0.664119,-0.668547 -1.12,-0.335196 -0.606237,0.443289 -0.731485,2.091126 -0.199383,2.623228 0.245687,0.245687 0.114573,0.300356 -0.457878,0.190925 -0.531878,-0.101673 -1.045555,0.07344 -1.524602,0.519738 -1.492323,1.39031 -2.614828,0.584621 -2.493987,-1.790083 0.100819,-1.981168 0.194291,-2.121712 1.024413,-1.540272 0.90496,0.633856 1.096733,0.611504 1.518739,-0.177024 0.263293,-0.491965 0.254531,-0.779664 -0.03434,-1.127735 -0.437354,-0.526979 -0.451939,-0.506851 0.737472,-1.017456 0.566496,-0.243193 1.755318,-0.30728 3.378387,-0.182118 2.168672,0.167238 2.644141,0.318057 3.547629,1.125325 1.309977,1.170464 1.871302,2.480592 1.698179,3.963529 -0.109981,0.942074 -0.245008,1.12472 -0.736474,0.996199 -0.378393,-0.09895 -0.601798,0.0097 -0.601798,0.292668 0,0.891786 -1.002918,0.425485 -1.46537,-0.681315 z m -3.65463,-4.487529 c 0,-0.274388 -0.144,-0.409888 -0.32,-0.301114 -0.176,0.108774 -0.32,0.333274 -0.32,0.498886 0,0.165613 0.144,0.301114 0.32,0.301114 0.176,0 0.32,-0.224499 0.32,-0.498886 z M 108.4391,66.6098 c -0.47748,-0.410707 -0.86814,-0.885648 -0.86814,-1.055424 0,-0.169776 -0.15116,-0.359066 -0.3359,-0.42065 -0.44411,-0.148035 -0.7019,-3.379676 -0.32337,-4.053798 0.27214,-0.484675 0.31371,-0.482186 0.51128,0.03059 0.11827,0.306989 0.36621,0.464739 0.55096,0.350557 0.18852,-0.116515 0.24172,-0.05521 0.12125,0.139725 -0.11806,0.191033 -0.0323,0.461232 0.19056,0.600444 1.59661,0.997296 3.65812,-0.50799 2.40789,-1.758214 -0.31643,-0.316435 -0.30869,-0.452106 0.038,-0.666403 0.46675,-0.288464 4.78702,-0.833763 5.31928,-0.671389 0.176,0.05369 0.56916,0.08642 0.8737,0.07273 0.30453,-0.0137 0.65078,0.132198 0.76944,0.324192 0.13669,0.221174 0.0511,0.263644 -0.2337,0.115907 -0.28341,-0.147034 -0.26428,-0.07664 0.0518,0.190557 1.06641,0.901523 1.61532,2.579744 1.40206,4.286627 -0.14593,1.168022 -0.34373,1.630438 -0.69741,1.630438 -0.27153,0 -0.56273,-0.264 -0.64711,-0.586669 -0.0877,-0.335286 -0.44594,-0.588729 -0.8361,-0.591484 -1.27663,-0.009 -3.23944,-0.87688 -3.35711,-1.484372 -0.16918,-0.873433 -0.68404,-1.390806 -1.38406,-1.390806 -0.52092,0 -0.60425,0.191981 -0.52082,1.2 0.0837,1.010931 0.21276,1.195997 0.81932,1.174592 0.396,-0.01398 0.72,0.10433 0.72,0.262899 0,0.158573 -0.3365,0.244215 -0.74777,0.19032 -0.9426,-0.12352 -1.91919,0.811088 -1.66951,1.597747 0.13031,0.410567 -0.0353,0.688589 -0.54998,0.923076 -0.60548,0.275872 -0.89086,0.202742 -1.6046,-0.411194 z m 9.05186,-3.33744 c 0,-0.176 -0.216,-0.32 -0.48,-0.32 -0.264,0 -0.48,0.144 -0.48,0.32 0,0.176 0.216,0.32 0.48,0.32 0.264,0 0.48,-0.144 0.48,-0.32 z m -5.70948,3.2 c 0,-0.44 0.0726,-0.62 0.16141,-0.4 0.0888,0.22 0.0888,0.58 0,0.8 -0.0888,0.22 -0.16141,0.04 -0.16141,-0.4 z m 1.74148,0.128 c -0.11389,-0.296781 -0.13507,-0.611603 -0.0471,-0.699603 0.088,-0.088 0.25318,0.08282 0.36707,0.379603 0.11388,0.296781 0.13506,0.611603 0.0471,0.699603 -0.088,0.088 -0.25318,-0.08282 -0.36706,-0.379603 z m 2.2589,-0.448 c -0.3119,-0.528 -0.42311,-0.96 -0.24714,-0.96 0.33619,0 1.31624,1.244339 1.31624,1.671203 0,0.549927 -0.53396,0.19472 -1.0691,-0.711203 z"
         id="path183" />
      <path
         style="display:inline;fill:#224f37;stroke-width:0.32"
         d="m 75.307068,69.694056 -1.063891,-0.181696 1.111654,-0.342163 c 0.892195,-0.274618 1.079671,-0.258823 0.949651,0.08 -0.242108,0.630928 0.882663,0.518669 1.381018,-0.137837 0.404858,-0.533334 0.425587,-0.533334 0.43528,0 0.0077,0.42473 0.28072,0.56 1.130176,0.56 0.680054,0 1.121926,-0.157123 1.124899,-0.4 0.0036,-0.290925 0.06901,-0.299722 0.24,-0.03226 0.129306,0.202259 0.595101,0.436211 1.035101,0.519897 1.142973,0.217386 -5.062589,0.152883 -6.343888,-0.06594 z m 7.23192,-0.419405 c -0.146762,-0.361872 -0.0082,-0.760851 0.394755,-1.136208 0.751072,-0.699728 0.943011,-3.376765 0.324919,-4.531686 -0.756128,-1.412839 -2.266151,-2.402835 -3.984368,-2.612221 l -1.623338,-0.197824 1.92,0.05276 c 1.690086,0.04644 2.034957,0.171047 2.88,1.040605 1.462464,1.50489 1.76,2.184653 1.76,4.020967 0,1.31903 -0.134499,1.771363 -0.616147,2.07216 -0.33888,0.211632 -0.664183,0.714272 -0.72289,1.116972 -0.091,0.624221 -0.140096,0.649949 -0.332931,0.174477 z M 72.530956,69.03236 c -0.250298,-0.404992 0.173322,-0.404992 0.8,0 0.413661,0.267328 0.405213,0.310877 -0.06111,0.315101 -0.297612,0.0027 -0.630112,-0.139101 -0.738886,-0.315101 z m 37.120004,-0.623491 c 0.59235,-0.239264 0.56943,-0.291191 -0.30794,-0.697511 -1.53482,-0.710787 -2.43293,-1.740227 -2.91465,-3.340838 -0.51937,-1.725725 -0.34931,-3.319517 0.41592,-3.89816 0.69448,-0.525136 1.06813,-0.508272 0.85822,0.03874 -0.23801,0.62025 0.72767,1.481261 1.66135,1.481261 0.9928,0 1.32553,-0.806138 0.6437,-1.559549 -0.48655,-0.537635 -0.46696,-0.600342 0.29625,-0.948083 0.44949,-0.204803 1.42248,-0.353126 2.1622,-0.329613 l 1.34495,0.04276 -1.50655,0.21046 c -1.72124,0.240452 -2.13276,0.51272 -1.59212,1.05336 0.45863,0.458628 0.49636,1.420157 0.0662,1.686036 -0.17188,0.106227 -0.75103,0.248636 -1.28699,0.316467 -0.78304,0.0991 -1.11078,-0.06101 -1.66819,-0.814944 -0.78505,-1.061837 -1.20043,-0.778243 -1.20563,0.823107 -0.007,2.038182 0.5754,3.184134 2.28104,4.491235 0.91059,0.697821 2.10036,1.357808 2.64394,1.46664 0.75052,0.150259 0.56484,0.202599 -0.77166,0.217507 -1.19342,0.01331 -1.55397,-0.06359 -1.12,-0.238873 z m 3.53862,0.01363 c -0.13562,-0.21944 0.0961,-0.350141 0.62079,-0.350141 1.2247,0 3.7757,-0.663734 4.2541,-1.106864 0.22743,-0.210662 0.56526,-1.307798 0.75074,-2.43808 0.32169,-1.960397 0.29519,-2.136125 -0.57524,-3.815056 l -0.91245,-1.76 -1.75828,0.08508 c -1.06279,0.05143 -1.59303,-0.02368 -1.3405,-0.189875 0.22978,-0.151232 1.13627,-0.300394 2.01442,-0.331476 1.50868,-0.0534 1.61519,-0.0033 1.93339,0.909498 0.18521,0.531306 0.44272,0.900515 0.57224,0.820464 0.12953,-0.08005 0.25027,0.02813 0.26834,0.240381 0.018,0.212256 0.17489,1.284317 0.34852,2.382355 0.53942,3.411366 -0.12406,4.589238 -2.93058,5.202579 -0.73926,0.161559 -1.72323,0.385434 -2.1866,0.497501 -0.48446,0.117165 -0.93445,0.05496 -1.05889,-0.146378 z M 71.756348,67.942962 c -0.56991,-0.686701 -0.65321,-4.225584 -0.117469,-4.990461 0.247034,-0.352691 0.361331,-0.783354 0.253994,-0.957031 -0.109939,-0.177888 0.01286,-0.235942 0.281257,-0.132956 0.262029,0.10055 0.403092,0.373891 0.313479,0.607427 -0.166695,0.434397 1.051977,1.020461 1.399443,0.672995 0.103328,-0.103325 0.01357,-0.570381 -0.199434,-1.037898 -0.480505,-1.054592 -0.108758,-1.487891 1.124356,-1.310518 l 0.918982,0.132186 -1.051344,0.255097 c -0.985027,0.239011 -1.018742,0.291123 -0.534493,0.826211 0.408032,0.450874 0.441735,0.71146 0.160083,1.237732 -0.423596,0.791497 -0.617123,0.817017 -1.501008,0.19792 -0.368041,-0.257789 -0.760083,-0.377789 -0.871203,-0.266669 -0.330413,0.330413 -0.229312,3.926473 0.129223,4.596406 0.387481,0.724013 0.227769,0.812547 -0.305866,0.169559 z m 4.518608,-1.854602 c -0.565322,-0.565322 -0.46704,-2.204723 0.159645,-2.662966 0.455881,-0.333351 0.636685,-0.279239 1.12,0.335196 0.711686,0.904762 0.749382,2.2569 0.07018,2.517533 -0.714451,0.27416 -0.913949,0.246115 -1.349827,-0.189763 z m 1.536,-1.083923 c 0,-0.460666 -1.255181,-1.283533 -1.316912,-0.863335 -0.216163,1.471428 0.186989,2.230647 0.87937,1.656023 0.240649,-0.199722 0.437542,-0.556432 0.437542,-0.792688 z m 33.824394,-0.974349 c -0.12341,-0.123418 -0.22439,-0.71441 -0.22439,-1.313318 0,-0.932317 0.0988,-1.074218 0.68731,-0.986666 0.9575,0.142451 1.49141,1.060294 1.03675,1.782256 -0.38476,0.610979 -1.14423,0.873168 -1.49967,0.517728 z m 0.91976,-0.9824 c -0.13165,-1.234778 -0.82415,-1.337286 -0.82415,-0.121994 0,0.64281 0.15967,0.986666 0.45817,0.986666 0.30726,0 0.4278,-0.284794 0.36598,-0.864672 z m 3.97585,0.224672 c 0,-0.176 0.216,-0.32 0.48,-0.32 0.264,0 0.48,0.144 0.48,0.32 0,0.176 -0.216,0.32 -0.48,0.32 -0.264,0 -0.48,-0.144 -0.48,-0.32 z M 76.530956,62.331246 c 0,-0.165612 0.144,-0.390112 0.32,-0.498886 0.176,-0.108774 0.32,0.02672 0.32,0.301114 0,0.274387 -0.144,0.498886 -0.32,0.498886 -0.176,0 -0.32,-0.135501 -0.32,-0.301114 z"
         id="path181" />
      <path
         style="display:inline;fill:#373530;stroke-width:0.32"
         d="m 94.610956,108.48951 c -4.567088,-1.06049 -7.713059,-2.62112 -10.443514,-5.18072 -1.241731,-1.16404 -3.232044,-2.6269 -4.422918,-3.25082 -1.190874,-0.623911 -2.61241,-1.487911 -3.15897,-1.919997 -2.87232,-2.270743 -5.067996,-3.740419 -9.061942,-6.065613 -2.84384,-1.655626 -7.312656,-5.019958 -7.312656,-5.505306 0,-0.180745 -0.581805,-0.860451 -1.292896,-1.510454 -2.003571,-1.831443 -2.687536,-4.971811 -1.887053,-8.66424 0.171696,-0.792 0.386765,-2.952 0.477923,-4.8 0.154036,-3.12255 0.103405,-3.518301 -0.716425,-5.6 -0.485197,-1.232 -0.968464,-2.312 -1.07393,-2.4 -0.105462,-0.088 -0.524736,-0.856531 -0.931712,-1.70785 -0.676912,-1.415961 -0.704374,-1.66136 -0.322294,-2.88 0.229718,-0.732681 0.53663,-1.46895 0.682029,-1.63615 0.649024,-0.746349 -0.117226,-1.922909 -2.097239,-3.220266 -0.636281,-0.416905 -0.685625,-0.6467 -0.517187,-2.408451 0.102413,-1.071168 0.372336,-2.062608 0.599827,-2.203206 0.227491,-0.140599 0.37776,-0.383533 0.33393,-0.539853 -0.04383,-0.156323 0.58463,-0.379251 1.396579,-0.495395 0.811949,-0.116144 1.62751,-0.304643 1.812358,-0.418887 0.184852,-0.114243 0.33609,-1.1383 0.33609,-2.275689 0,-1.867629 0.0738,-2.1016 0.76177,-2.415059 0.72319,-0.329508 0.770304,-0.535776 0.930326,-4.07314 0.274912,-6.077129 0.976109,-7.239036 4.380733,-7.25903 2.409961,-0.01414 2.037481,0.212147 4.887171,-2.969206 0.66,-0.736813 1.2,-1.265204 1.2,-1.174199 0,0.091 0.576,-0.215718 1.28,-0.681603 0.704,-0.465885 1.28,-0.971926 1.28,-1.124541 0,-0.152611 0.183997,-0.277475 0.408883,-0.277475 0.224887,0 0.652138,-0.252 0.949447,-0.56 1.443603,-1.49551 2.16167,-2.123472 2.16167,-1.890413 0,0.140871 0.226285,0.02982 0.502858,-0.246729 0.276569,-0.276573 0.780569,-0.502858 1.12,-0.502858 0.339427,0 0.617142,-0.126531 0.617142,-0.281178 0,-0.154646 0.468,-0.470192 1.04,-0.701209 0.572,-0.231015 1.151808,-0.602506 1.288464,-0.82553 0.136653,-0.223027 0.444595,-0.33024 0.68431,-0.238249 0.473984,0.181884 3.707226,-1.437431 3.707226,-1.856704 0,-0.141421 0.193875,-0.25713 0.430835,-0.25713 0.23696,0 0.88664,-0.227386 1.443738,-0.505302 0.87792,-0.437965 2.494828,-0.959763 12.129165,-0.818295 7.213206,0.105917 11.534656,1.09888 12.056846,1.506284 0.60611,0.472886 1.964,0.743182 2.58072,1.09258 0.61672,0.349395 1.94872,1.431011 2.96,2.403591 1.01128,0.972579 2.33483,2.01871 2.94121,2.324732 0.60638,0.306026 1.32816,0.970474 1.60395,1.476554 0.47574,0.873005 0.61864,0.922442 2.78947,0.96505 2.53047,0.04967 3.62407,0.648816 3.62407,1.985516 0,0.402336 0.15869,0.829597 0.35265,0.949469 0.19395,0.119872 0.55589,0.704371 0.80429,1.298887 0.24841,0.594512 0.62971,1.083168 0.84735,1.085897 0.63928,0.008 3.33098,2.964211 4.218,4.632467 0.66768,1.255735 0.81771,1.978487 0.81771,3.939354 0,1.917229 0.1665,2.753414 0.82572,4.146909 1.67098,3.53215 1.38846,4.876307 -1.0249,4.876307 -0.77046,0 -1.40082,0.144 -1.40082,0.32 0,0.176 0.43556,0.32 0.96792,0.32 1.33218,0 1.69822,1.027664 1.28345,3.60321 -0.17256,1.071468 -0.45369,2.034614 -0.62474,2.140329 -0.39219,0.242384 -1.0432,2.776327 -1.00673,3.918483 0.0154,0.481722 -0.19892,0.988743 -0.48574,1.149258 -0.41811,0.233984 -0.48141,0.66744 -0.34143,2.337978 0.38515,4.596502 0.65766,5.654403 1.87883,7.293897 0.46298,0.621571 0.56844,1.408995 0.56844,4.244343 0,1.914652 -0.13159,3.731232 -0.29242,4.036844 -0.16083,0.305613 -0.45916,1.383658 -0.66295,2.395658 -0.20379,1.012 -0.48323,1.84 -0.62097,1.84 -0.13773,0 -0.45432,0.638829 -0.70351,1.419619 -0.28016,0.877831 -1.09178,2.088835 -2.12661,3.173117 -0.92045,0.964419 -1.67354,1.8472 -1.67354,1.961728 0,0.506432 -1.77065,2.458803 -2.8157,3.104678 -0.63102,0.389994 -1.83427,1.292228 -2.67389,2.004967 -2.10428,1.786285 -3.07549,2.495171 -4.75041,3.467293 -0.792,0.459676 -2.232,1.514598 -3.2,2.344278 -0.968,0.82967 -2.62706,1.90355 -3.68678,2.38639 -1.05974,0.48285 -2.72636,1.53615 -3.70361,2.34068 -1.76127,1.44997 -3.88568,2.57451 -4.22417,2.23602 -0.0967,-0.0967 -1.28241,0.053 -2.63488,0.33269 -2.362884,0.48866 -4.718954,0.59954 -6.070564,0.28569 z m 7.070534,-1.38343 c 3.26805,-0.67243 3.82141,-0.92896 6.20947,-2.87856 0.792,-0.64659 1.944,-1.36487 2.56,-1.59618 0.616,-0.23131 2.2,-1.23626 3.52,-2.23324 1.32,-0.996969 3.08945,-2.280783 3.93211,-2.852918 0.84267,-0.572134 1.85067,-1.330755 2.24,-1.68582 0.38934,-0.355066 1.21189,-0.985469 1.82789,-1.4009 3.6381,-2.453539 4.52594,-3.219056 5.79497,-4.996576 0.77276,-1.082406 1.76966,-2.413852 2.21532,-2.958771 1.98189,-2.423302 4.0001,-9.128717 3.65432,-12.141373 -0.27871,-2.428291 -1.01857,-3.907392 -2.41763,-4.833248 -0.67602,-0.447372 -1.43313,-1.210019 -1.68247,-1.694768 -0.47464,-0.922816 -1.32983,-6.594992 -1.06011,-7.031404 0.0857,-0.138685 0.2005,-1.544493 0.2551,-3.124016 l 0.0993,-2.871863 -1.26937,0.08294 c -0.95147,0.06217 -1.50981,-0.11232 -2.22938,-0.696704 -0.93312,-0.757814 -0.96062,-0.859753 -0.98201,-3.640093 -0.0181,-2.357107 -0.1589,-3.136688 -0.8,-4.430336 -0.72289,-1.458691 -0.88689,-1.589571 -2.31538,-1.847689 -2.83391,-0.512064 -3.03308,-1.931754 -1.10245,-7.858365 0.88684,-2.722394 0.94637,-3.151386 0.61119,-4.404592 -0.20425,-0.763638 -0.37135,-1.820634 -0.37135,-2.34888 0,-2.147485 -0.68266,-3.369382 -2.57912,-4.616419 -0.99519,-0.654394 -2.28938,-1.77009 -2.87597,-2.479319 -1.42949,-1.728345 -4.53197,-3.06872 -8.62491,-3.726252 -3.53151,-0.567338 -11.915841,-1.095396 -15.147876,-0.954039 -3.000234,0.131223 -3.168762,0.180976 -7.003171,2.067514 -2.160925,1.063177 -4.623648,2.188694 -5.472717,2.501142 -0.849069,0.312448 -2.622032,1.424947 -3.939917,2.472224 -1.317888,1.047277 -3.042272,2.313895 -3.831968,2.814704 -1.330563,0.843818 -3.004355,2.385498 -3.004355,2.767223 0,0.09029 -0.432,0.527676 -0.96,0.971958 -1.03753,0.873027 -1.253661,2.028813 -0.496842,2.656918 0.25474,0.211415 0.7125,1.057047 1.017248,1.879184 0.668631,1.803815 1.382004,2.903901 3.251943,5.014794 0.779552,0.88 1.68968,1.908298 2.022509,2.285104 0.884227,1.001062 0.753033,1.599706 -0.64161,2.927715 -0.765507,0.728928 -1.382586,1.692525 -1.598653,2.496365 -0.395123,1.47 -0.963625,2.063398 -2.594595,2.708208 -0.616,0.243539 -1.733789,1.007242 -2.483974,1.69712 -1.401981,1.289277 -1.459242,1.425293 -2.814503,6.685488 -0.468605,1.818806 -0.66448,2.16 -1.240022,2.16 -0.786835,0 -1.783504,1.462944 -1.777703,2.609373 0.0022,0.412845 0.208132,1.518291 0.457872,2.456547 0.408036,1.532944 0.396292,1.92231 -0.115811,3.84 -0.313437,1.173744 -0.877024,2.713472 -1.252416,3.421619 -1.954845,3.68768 -1.409776,8.549725 1.151629,10.272576 0.574787,0.386618 1.510787,1.269562 2.08,1.962106 0.56921,0.692541 1.509341,1.605353 2.089178,2.028473 0.579836,0.423117 1.731836,1.290724 2.56,1.928013 0.828163,0.63729 2.44175,1.627869 3.58575,2.201283 1.736886,0.870592 4.160381,2.487418 4.8,3.202301 0.529594,0.591914 3.649738,2.625223 5.294877,3.450522 1.064179,0.533859 2.919843,1.883371 4.123696,2.998921 1.203853,1.11555 2.421158,2.18221 2.705126,2.37036 1.859485,1.23207 7.648589,2.96774 10.001075,2.9985 0.816628,0.0107 2.898218,-0.27142 4.62576,-0.62687 z M 89.086038,93.361227 c 0.99184,-0.634621 7.847427,-1.065587 9.941644,-0.624969 1.039258,0.218659 1.735308,0.512064 1.580958,0.666419 -0.15435,0.154352 -0.948391,0.07333 -1.803518,-0.184023 -1.21126,-0.364534 -2.267996,-0.400313 -5.10096,-0.172704 -1.965264,0.157898 -3.933206,0.373341 -4.373206,0.478765 -0.674502,0.16161 -0.712925,0.135965 -0.244918,-0.163488 z m 2.31168,-10.530358 c -1.93281,-0.877955 -3.035725,-2.348794 -2.986708,-3.983063 l 0.04005,-1.335446 0.221683,1.361674 c 0.395779,2.431052 2.497974,3.912067 5.559248,3.91654 1.586134,0.0022 2.332419,-0.420972 2.975501,-1.687699 0.287737,-0.566784 1.009228,-1.630749 1.603312,-2.364371 0.594083,-0.733619 1.08015,-1.489619 1.08015,-1.68 0,-0.190378 0.211486,-0.346144 0.469956,-0.346144 0.60585,0 0.31815,0.852698 -0.647818,1.92 -0.398224,0.44 -1.142868,1.52 -1.654765,2.4 -0.511898,0.88 -1.280967,1.777878 -1.709047,1.995283 -1.128889,0.573319 -3.460163,0.480675 -4.951564,-0.196774 z M 76.530956,70.295704 c -4.338394,-0.208266 -6.662298,-0.882083 -7.830554,-2.270477 -0.445196,-0.529085 -0.809446,-1.094921 -0.809446,-1.257421 0,-0.555571 0.565923,-0.296163 1.086211,0.497895 0.285898,0.436336 0.959741,1.020835 1.497424,1.298883 1.827459,0.945014 10.06216,1.824538 11.829815,1.263507 0.344601,-0.109373 0.62655,-0.448355 0.62655,-0.753296 0,-0.558253 0.574416,-1.322435 0.994042,-1.322435 0.124323,0 0.150729,0.288 0.05868,0.64 -0.22423,0.857459 0.211827,0.80617 1.702624,-0.200262 1.139565,-0.769316 1.190618,-0.778903 0.604656,-0.113543 -0.796669,0.904618 -3.107725,1.969104 -4.8,2.210909 -0.704,0.100592 -2.936,0.103402 -4.96,0.0062 z m -4.811453,-1.955936 c -0.366438,-0.714515 -0.357856,-0.723098 0.195024,-0.195027 0.318083,0.303811 0.490573,0.640144 0.383309,0.747408 -0.107264,0.107264 -0.367517,-0.141309 -0.578333,-0.552381 z m 35.851457,0.496928 c -1.10123,-0.204202 -3.2,-1.130806 -3.2,-1.412787 0,-0.127191 0.58694,0.05914 1.30431,0.41407 1.09086,0.539712 1.94187,0.645783 5.2,0.648128 6.75051,0.0049 9.10721,-0.995315 11.4432,-4.85647 0.44467,-0.734992 0.75972,-0.978039 0.98099,-0.756771 0.3355,0.335497 -0.51713,1.864217 -2.05864,3.691033 -1.19477,1.415898 -4.13021,2.180749 -8.86986,2.31112 -2.2,0.06051 -4.36,0.04327 -4.8,-0.03832 z m 1.74116,-0.94199 c -0.59649,-0.477885 -0.59257,-0.483792 0.0988,-0.14874 0.396,0.191901 0.72,0.415844 0.72,0.497652 0,0.24487 -0.16596,0.174156 -0.81884,-0.348912 z M 71.171654,65.67236 c 0.0036,-0.704 0.06908,-0.95432 0.145625,-0.556269 0.07654,0.398051 0.07363,0.974051 -0.0065,1.28 -0.08009,0.305949 -0.14272,-0.01974 -0.139168,-0.723731 z m 5.476707,0.08395 c -0.254199,-0.357143 -0.287667,-0.707479 -0.154317,-1.615204 0.06173,-0.420198 1.316912,0.402669 1.316912,0.863335 0,0.700595 -0.821123,1.231629 -1.162595,0.751869 z m 7.587859,-0.750612 c 0.01536,-0.372784 0.09118,-0.448608 0.193331,-0.193334 0.09244,0.230998 0.08107,0.507002 -0.02525,0.613334 -0.106333,0.106333 -0.181965,-0.08267 -0.16807,-0.42 z m 16.1467,-0.693334 c 2.45638,-3.319696 4.11012,-4.294867 9.09852,-5.365181 7.65213,-1.641843 9.48435,-1.764249 11.36005,-0.758934 0.98754,0.529293 1.38465,0.598697 1.83092,0.32 0.8693,-0.542887 1.17653,-0.429011 0.98237,0.364115 -0.35124,1.434746 -0.65537,1.522518 -2.4233,0.699382 -1.50982,-0.702966 -2.78052,-0.995542 -2.78052,-0.640214 0,0.07654 0.14043,0.508544 0.31208,0.96 0.47823,1.25784 0.0397,0.975078 -0.50331,-0.324534 l -0.47856,-1.14537 -1.66511,0.182102 c -3.83127,0.418999 -5.54463,0.717911 -6.20407,1.082349 -0.38443,0.212458 -1.04112,0.386285 -1.45932,0.386285 -0.4182,0 -1.67574,0.358733 -2.79454,0.797187 -1.54421,0.605175 -2.47623,1.26032 -3.86951,2.72 -2.076237,2.1752 -2.728576,2.510631 -1.4057,0.722813 z m 19.02804,-1.120496 c 0,-0.630938 -0.0932,-1.410938 -0.2071,-1.733331 -0.16658,-0.471491 -0.12505,-0.510205 0.21229,-0.197882 0.23066,0.213559 0.39947,0.917939 0.37514,1.56529 -0.0579,1.54079 -0.38033,1.850985 -0.38033,0.365923 z m -7.68,-0.26617 c 0,-1.215292 0.6925,-1.112784 0.82415,0.121994 0.0618,0.579878 -0.0587,0.864672 -0.36598,0.864672 -0.2985,0 -0.45817,-0.343856 -0.45817,-0.986666 z m -45.257594,0.382925 c -0.300215,-0.485757 0.947123,-1.192502 2.69014,-1.524243 0.435904,-0.08297 1.227904,-0.352093 1.76,-0.598058 0.5321,-0.245968 1.936772,-0.686067 3.121495,-0.977993 2.004995,-0.494055 2.511309,-0.494205 7.317078,-0.0022 2.839667,0.290733 5.614349,0.724198 6.165955,0.963254 1.380685,0.598362 2.329367,1.363181 2.044381,1.648163 -0.130643,0.130647 -0.490419,0.0092 -0.799497,-0.269801 -1.09802,-0.99129 -5.311376,-1.597136 -11.441962,-1.645261 -3.330899,-0.02614 -3.835187,0.03763 -3.80369,0.481056 0.02547,0.358531 -0.195296,0.485776 -0.739206,0.42607 -0.426534,-0.04682 -1.794682,0.335136 -3.040323,0.8488 -2.400355,0.989828 -2.991872,1.107284 -3.274371,0.650189 z m -0.82241,-4.356259 c 0,-0.088 0.313018,-0.473018 0.695594,-0.855594 0.548444,-0.548444 1.106921,-0.704652 2.64,-0.738409 1.069424,-0.02355 3.168406,-0.302672 4.664406,-0.620269 3.197642,-0.678854 5.374813,-1.017197 8.570694,-1.331923 1.281882,-0.126237 2.390346,-0.326048 2.463258,-0.444019 0.07291,-0.117975 -0.05749,-0.852439 -0.289786,-1.632141 l -0.422355,-1.417645 -3.000905,0.03636 c -2.537968,0.03075 -3.384423,0.187228 -5.486976,1.014342 -1.367338,0.537888 -3.186157,1.480944 -4.041821,2.095677 -1.715443,1.232422 -4.259998,2.780867 -4.442225,2.598643 -0.296646,-0.29665 5.893258,-4.117088 8.306439,-5.09016 2.092864,-0.84391 3.373168,-1.136582 5.728247,-1.309459 3.453504,-0.253501 3.473155,-0.243079 4.132265,2.192105 0.525639,1.942052 0.308784,2.178538 -2.310861,2.520064 -6.598675,0.860276 -10.7104,1.58761 -12.186806,2.155767 -0.495456,0.190662 -1.45896,0.346659 -2.141114,0.346659 -0.682156,0 -1.32928,0.144 -1.438054,0.32 -0.198672,0.321459 -1.44,0.459382 -1.44,0.16 z m 52.960004,-3.876202 c -9.70514,-2.375968 -9.15884,-2.315731 -13.01474,-1.435068 -1.46589,0.3348 -3.20526,0.685747 -3.86526,0.779881 l -1.2,0.171152 v -2.532505 c 0,-3.498218 0.24141,-3.648237 5.52922,-3.435949 2.15093,0.08635 4.84678,0.402275 5.99078,0.702048 1.144,0.299769 2.61214,0.683827 3.26254,0.853456 0.66147,0.172515 1.93052,0.989782 2.88,1.85472 0.9336,0.850467 2.16546,1.786739 2.73746,2.080601 1.20466,0.618893 1.39611,1.48928 0.32,1.454788 -0.396,-0.0127 -1.584,-0.234599 -2.64,-0.493124 z m 0.4,-1.266828 c -0.484,-0.262576 -0.88,-0.609482 -0.88,-0.770906 0,-0.625798 -2.34186,-2.034688 -4.0876,-2.459149 -5.14188,-1.250205 -10.34642,-1.723133 -12.00853,-1.091203 -0.65316,0.248336 -0.80527,0.568771 -0.94935,2 -0.0944,0.93736 -0.0777,1.799693 0.0369,1.916298 0.22927,0.233091 3.82652,-0.366717 6.19007,-1.032141 1.39109,-0.391639 1.83833,-0.345159 6.08,0.631878 2.51815,0.580035 4.72246,1.100314 4.89846,1.15617 0.176,0.05586 0.608,0.107158 0.96,0.114009 0.5266,0.01024 0.48407,-0.07214 -0.24,-0.464956 z M 59.304994,70.991208 c 0.61186,-2.035238 0.653872,-2.521235 0.324423,-3.753014 -0.55449,-2.073172 -0.464525,-3.591037 0.284694,-4.803296 l 0.663152,-1.073005 -0.715721,-1.273456 c -0.690141,-1.227939 -2.813626,-3.216077 -3.435018,-3.216077 -0.646525,0 -1.398966,1.66497 -1.209389,2.67609 0.103523,0.55215 0.233287,1.393414 0.288362,1.869475 0.05508,0.476061 0.344336,1.135398 0.6428,1.465197 0.298461,0.329798 0.542659,0.692025 0.542659,0.804953 0,0.112925 0.377821,1.031315 0.8396,2.040871 0.713373,1.559593 0.831718,2.235638 0.787174,4.496736 -0.02883,1.463654 -0.139849,2.909923 -0.246697,3.213932 -0.140355,0.399341 -0.09362,0.460724 0.168403,0.221168 0.199472,-0.182368 0.678973,-1.383676 1.065558,-2.669574 z m 71.964636,-5.103424 c -1.0042,-2.980928 -0.973,-3.214016 1.19015,-8.890326 0.59784,-1.56881 1.11401,-3.602567 1.16637,-4.595648 0.0302,-0.573008 -1.26676,-1.268349 -2.00545,-1.075178 -0.29492,0.07713 -0.80929,0.800438 -1.14304,1.60736 -0.51684,1.249587 -0.61125,2.35023 -0.63676,7.422752 -0.03,5.962762 0.14582,7.088506 1.21528,7.782291 0.75786,0.491632 0.84123,-0.387709 0.21345,-2.251251 z M 62.31221,57.91236 c 1.026384,-4.418845 1.723831,-5.374925 5.144896,-7.052771 1.522954,-0.746928 1.727824,-0.980746 2.346823,-2.678403 0.464784,-1.274717 1.023088,-2.123092 1.774192,-2.695984 l 1.095987,-0.835952 -1.031574,-1.281088 c -0.56737,-0.704599 -1.62928,-1.925242 -2.359808,-2.712538 -0.730528,-0.787296 -1.834976,-2.484234 -2.45433,-3.770973 -1.444778,-3.0016 -2.180854,-3.692291 -3.934922,-3.692291 -0.773952,0 -1.561161,0.204358 -1.832521,0.475718 -0.87072,0.87072 -1.495347,3.490855 -1.573415,6.600026 -0.06044,2.40728 -0.194592,3.168019 -0.636582,3.609994 -0.308,0.307987 -0.580144,0.873689 -0.604765,1.25712 -0.02461,0.383427 -0.07641,1.262652 -0.115094,1.953833 -0.08281,1.479674 -1.031229,2.423309 -2.435591,2.423309 -0.515948,0 -1.225008,0.300458 -1.604403,0.679853 -0.574003,0.574003 -0.650749,0.9256 -0.492915,2.258249 0.202765,1.712048 0.956019,2.620928 2.534266,3.05786 0.484825,0.13422 0.891088,0.388038 0.902803,0.564038 0.03294,0.494797 1.00112,1.457395 1.969526,1.958179 0.481437,0.24896 1.097475,0.882218 1.368973,1.407239 0.8156,1.577193 1.307754,1.189907 1.938454,-1.525418 z m 66.91428,-4.32 c 0.35589,-0.396 0.89783,-1.368 1.2043,-2.16 0.74429,-1.923494 1.04955,-2.24 2.16039,-2.24 0.51802,0 1.22731,-0.152771 1.57619,-0.339488 0.7263,-0.388704 0.65885,-0.793696 -0.57628,-3.460374 -0.63765,-1.376685 -0.79875,-2.238682 -0.80737,-4.32 -0.006,-1.430077 -0.13937,-2.939172 -0.29655,-3.353546 -0.15718,-0.414374 -1.45185,-1.926374 -2.87704,-3.36 -1.70362,-1.713699 -2.8467,-3.181581 -3.33697,-4.285136 -0.85993,-1.93568 -1.77317,-2.506938 -3.49218,-2.184448 -1.48837,0.279219 -1.9599,1.330682 -1.46972,3.277334 0.49234,1.955248 0.42223,3.084708 -0.30927,4.982224 -0.35693,0.925888 -0.88215,2.821844 -1.16717,4.213232 -0.4952,2.417463 -0.49208,2.548906 0.0701,2.96 0.32359,0.236612 1.04886,0.430202 1.61173,0.430202 0.56286,0 1.30669,0.252 1.65295,0.56 1.08356,0.963837 1.80625,3.510202 1.72567,6.080336 -0.0658,2.098707 0.004,2.39672 0.72691,3.12 1.04561,1.045606 2.70323,1.082246 3.60429,0.07966 z"
         id="path179" />
    </g>
  </g>
</svg>
