<?xml version="1.0" encoding="UTF-8" standalone="no"?>
<!-- Created with Inkscape (http://www.inkscape.org/) -->

<svg
   version="1.1"
   id="svg2"
   width="192"
   height="288"
   viewBox="0 0 192 288"
   xmlns="http://www.w3.org/2000/svg"
   xmlns:svg="http://www.w3.org/2000/svg">
  <defs
     id="defs6" />
  <g
     id="g8">
    <g
       id="g287"
       transform="translate(-2,-44)">
      <path
         id="white"
         style="display:inline;fill:#fefefe;stroke-width:0.32"
         d="m 116.4082,119.37695 c -0.5513,0.008 -1.20767,0.039 -2.04687,0.084 -4.2197,0.22614 -4.99053,0.50087 -9,3.19336 -2.65819,1.78492 -2.93918,2.06637 -2.77539,2.78515 0.53651,2.3544 1.7242,3.38326 4.8457,4.19727 1.19275,0.31104 2.45659,0.56922 2.80859,0.57422 0.63138,0.008 0.62975,0.003 0.0176,-0.46094 -0.34163,-0.2584 -0.74254,-0.4707 -0.89258,-0.4707 -0.15005,0 -0.66235,-0.36065 -1.13867,-0.80274 -0.78227,-0.72606 -0.86623,-1.01955 -0.86523,-3.03711 l 0.002,-2.23437 1.52344,-1.52149 c 1.40186,-1.40112 1.64236,-1.5222 3.03711,-1.5 3.88558,0.0618 6.84206,3.30422 5.89453,6.4668 -0.19961,0.66625 -0.816,1.67482 -1.36914,2.24023 -0.55314,0.56576 -0.83926,1.0293 -0.63672,1.0293 1.58364,0 4.93209,-2.76613 6.00195,-4.95898 0.95377,-1.95491 1.50086,-2.72071 1.94336,-2.72071 0.51686,0 0.51612,-0.47107 0.002,-0.8789 -0.22,-0.17405 -1.61341,-0.71639 -3.09766,-1.20508 -1.25785,-0.41415 -1.99511,-0.63177 -2.83594,-0.72461 -0.42041,-0.0464 -0.86666,-0.0624 -1.41797,-0.0547 z m -7.16406,2.98633 c -0.0383,-0.002 -0.081,0.01 -0.125,0.0371 -0.176,0.10877 -0.31836,0.33243 -0.31836,0.49805 0,0.16561 0.14236,0.30078 0.31836,0.30078 0.176,0 0.32031,-0.22366 0.32031,-0.49805 0,-0.20581 -0.0805,-0.33291 -0.19531,-0.33789 z m -15.341796,3.4961 c -0.238952,0.006 -0.578429,0.2933 -1.011719,0.86523 -0.465104,0.61392 -1.873979,2.15955 -3.130859,3.43555 -1.785838,1.81261 -2.141319,2.3185 -1.623047,2.3125 1.516864,-0.0179 3.558708,-0.71876 4.675781,-1.60352 1.042453,-0.82567 1.221486,-1.16959 1.417969,-2.74219 0.18881,-1.51117 0.07013,-2.27811 -0.328125,-2.26757 z m 20.351566,1.88867 c -0.0899,0.002 -0.18028,0.0116 -0.26758,0.0293 -0.23281,0.0471 -0.45095,0.15017 -0.61719,0.31641 -0.27316,0.27317 -0.40928,0.7243 -0.30273,1.00195 0.35889,0.93525 2.45312,0.52157 2.45312,-0.48437 0,-0.46416 -0.46862,-0.77996 -0.99805,-0.84961 -0.0882,-0.0116 -0.17767,-0.0161 -0.26757,-0.0137 z" />
      <path
         style="display:inline;fill:#be8347;stroke-width:0.32"
         d="m 94.260342,161.75392 c -0.868809,-0.43665 -1.768809,-0.79392 -2,-0.79392 -0.231187,0 -0.421993,-0.108 -0.424012,-0.24 -0.0019,-0.132 -0.57802,-0.51517 -1.28,-0.85148 -0.701981,-0.33632 -1.27633,-0.70976 -1.27633,-0.82987 0,-0.12011 -1.404,-0.90512 -3.12,-1.74447 -1.716,-0.83936 -3.502541,-1.88397 -3.970093,-2.32135 -0.467552,-0.4374 -0.935574,-0.74521 -1.040054,-0.68405 -0.185219,0.10844 -5.744525,-5.171 -5.779751,-5.48878 -0.0098,-0.088 -0.988019,-1.13164 -2.17392,-2.31919 -1.1859,-1.18756 -2.156182,-2.27759 -2.156182,-2.42229 0,-0.59147 3.044112,-2.81177 4.545846,-3.31564 0.865079,-0.29025 4.978311,-3.05922 6.574154,-4.42562 0.22,-0.18837 0.4,-0.25501 0.4,-0.14809 0,0.39756 1.797578,-1.10243 2.18367,-1.82217 0.565005,-1.05324 1.813725,-1.547 3.912375,-1.547 2.611225,0 5.09021,-1.06421 4.573525,-1.90022 -0.09424,-0.15247 0.289158,-0.51978 0.431548,-0.73978 0.471488,-0.72849 1.001961,-4.22328 0.69815,-4.59944 -0.315475,-0.3906 -0.200653,-0.8636 0.7004,-2.88525 0.32473,-0.72858 0.689005,-1.73658 0.809501,-2.24 0.120496,-0.50342 0.332909,-1.06163 0.472032,-1.24047 0.385619,-0.49571 1.244454,-7.14752 1.473977,-11.41617 0.112452,-2.09136 0.304378,-3.86423 0.4265,-3.9397 0.122124,-0.0755 0.971385,0.50239 1.887242,1.28416 1.83371,1.56523 2.86012,1.92079 6.43108,2.22783 2.18883,0.1882 2.54078,0.13244 4,-0.63367 0.88,-0.46201 1.78,-1.07392 2,-1.35981 0.22,-0.28589 0.4,-0.39796 0.4,-0.24904 0,0.14891 0.27014,0.0263 0.60031,-0.27252 0.86151,-0.77965 2.68952,-1.01884 3.1888,-0.41724 0.24815,0.29901 0.40846,1.55307 0.42328,3.3113 0.0238,2.82281 0.72115,3.04265 1.26993,3.62234 0.1361,0.14377 0.11115,0.12971 0.21673,0.40485 0.37036,0.29858 1.37012,0.83141 1.56728,0.9941 -0.092,0.27792 -2.02888,0.43189 -4.92225,0.57569 -3.89369,0.19351 -5.8508,0.45681 -9.38408,1.26247 -3.48597,0.79487 -3.6577,0.88207 -4.64,2.35601 -0.528,0.79227 -1.068,1.44365 -1.2,1.44753 -0.416665,0.0122 -0.260908,1.92505 0.16,1.96494 0.77868,0.0738 1.30228,-0.0941 2.12632,-0.68195 1.45253,-1.03618 7.93085,-2.80566 11.23368,-3.06835 3.73327,-0.29693 3.69238,-0.29706 8.79371,0.0288 4.0549,0.259 4.73535,0.46054 4.87398,1.4436 0.79565,5.64257 0.94704,9.88085 0.39011,10.9215 -0.24834,0.46401 -0.23912,0.76363 0.0336,1.09224 0.43342,0.52224 1.12461,0.25056 2.70128,-1.06177 l 0.95267,-0.79295 0.44045,1.07943 c 0.76935,1.88545 0.35134,3.67631 -1.5003,6.42765 -0.91282,1.35635 -2.08849,2.7194 -2.61259,3.02899 -0.5241,0.3096 -0.95291,0.73585 -0.95291,0.94724 0,0.21139 -0.11063,0.43234 -0.24585,0.49101 -0.13522,0.0587 -0.56722,0.52208 -0.96,1.02982 -0.39278,0.50773 -0.71415,0.80421 -0.71415,0.65884 0,-0.14538 -0.18,-0.0446 -0.4,0.22406 -0.58731,0.71708 -7.56293,7.06596 -9.44231,8.59394 -0.54118,0.44 -1.60806,1.38407 -2.37083,2.09794 -0.76277,0.71387 -1.65253,1.39859 -1.97724,1.52162 -0.32471,0.12302 -0.6655,0.51095 -0.75732,0.86206 -0.0918,0.35111 -0.28722,0.63838 -0.43422,0.63838 -0.147,0 -0.78846,0.53665 -1.42547,1.19256 -0.637,0.6559 -1.49757,1.41518 -1.91237,1.68728 -0.4148,0.27211 -1.3342,1.0314 -2.04311,1.68731 -0.70892,0.65591 -1.61928,1.25393 -2.02303,1.32893 -0.40376,0.075 -0.7701,0.16507 -0.8141,0.20014 -0.044,0.0351 -0.224,0.0998 -0.4,0.14378 -0.176,0.044 -0.356,0.10707 -0.4,0.14014 -0.044,0.0331 -1.087996,0.12034 -2.319996,0.19392 -1.910768,0.11413 -2.472176,0.0171 -3.819658,-0.66013 z m 7.926628,-19.25872 c 0.6701,-0.34187 1.60537,-0.71063 1.86215,-1.11676 0.69439,-1.09827 1.87088,-4.09852 1.87088,-4.77107 0,-1.16183 -0.81662,-0.25336 -1.19173,1.32578 -0.54953,2.31337 -0.84627,3.38292 -2.07446,4.20969 -2.38166,1.60325 -6.449517,1.40516 -8.430354,-2.74709 -0.396181,-0.83047 -0.371829,-0.68644 -0.276747,-0.17885 0.129865,0.69329 3.608366,4.1431 5.953701,4.1431 0.6848,0 1.61645,-0.52295 2.28656,-0.8648 z m 14.87443,-12.52465 c 1.99451,-0.88227 4.31811,-3.16298 5.37622,-5.3588 0.47491,-0.98555 1.08238,-1.74843 1.08238,-1.88641 0,-0.13798 0.39349,-0.58899 0.87443,-1.00225 0.76599,-0.6582 0.4716,-0.71245 0.056,-1.10024 -0.26094,-0.24348 -1.35443,-0.93512 -2.85043,-1.4223 -2.62719,-0.85556 -2.87286,-0.87828 -7.2,-0.66581 -2.464,0.12099 -4.6168,0.35617 -4.784,0.52262 -0.1672,0.16645 -0.54557,0.30264 -0.84082,0.30264 -0.29525,0 -0.72945,0.23211 -0.96489,0.5158 -0.23544,0.28368 -0.67193,0.60768 -0.96999,0.72 -0.96456,0.36346 -5.4003,4.00172 -5.4003,4.4294 0,0.22814 0.27656,0.4148 0.61457,0.4148 0.40862,0 0.68162,0.29491 0.81463,0.88 0.27445,1.20724 1.87922,2.58442 3.34003,3.20823 2.92057,1.24718 8.50698,1.47971 10.85217,0.44232 z"
         id="skin" />
      <path
         style="display:inline;fill:#342216;stroke-width:0.32"
         d="m 109.09836,128.83509 c -0.62395,-0.36071 0.14703,-1.69998 -0.22684,-0.51505 -0.436,0 -1.35376,-0.44959 -1.12644,-1.04197 0.10131,-0.264 0.67456,-0.87803 0.51718,-0.87803 -0.15739,0 -0.65158,1.17185 -0.67066,-0.96101 0.34906,-0.89716 0.14086,-0.60435 0.29789,-1.536 -0.15619,-0.59726 0.25356,-0.96739 0.83005,-0.65886 0.84544,0.45247 1.16802,0.29427 0.95098,-0.8411 -0.23493,-1.22895 1.52282,-2.27065 3.50191,-1.79398 1.78753,0.43055 2.72197,1.46655 1.63201,1.54866 -0.56295,0.0424 -0.61446,-0.0105 -0.24044,-0.24697 0.26177,-0.16552 0.5632,-0.082 0.37253,-0.0847 -0.51978,-0.007 -0.0862,-0.44927 0.10105,0.0386 0.10905,0.28419 -0.50489,-0.33291 0.0629,-0.44647 0.93632,-0.18727 1.95075,1.55683 2.11406,2.60692 0.0526,0.33819 0.14274,1.59277 0.2814,1.81499 0.38458,0.61629 -1.05233,3.24343 -1.73968,3.24343 -0.31813,0 -0.73321,-0.44687 -0.73321,-0.64171 -0.3806,-0.25107 -0.62072,-0.15075 -1.06679,0.0576 -0.34911,0 -0.55739,0.69622 -0.47465,1.25007 0.0788,0.52773 -3.59137,0.6951 -3.10496,-0.47242 -0.30414,0.22151 -0.55637,0.0559 -1.27829,-0.44203 z m 3.42327,-0.79607 c 0,-0.52267 0.0695,-0.89222 -0.65546,-0.48478 -0.36054,0.20264 -0.6095,0.76576 0.2405,0.76576 0.45037,0 0.41496,0.009 0.41496,-0.28098 z m 0.70922,-2.36957 c 0.38125,-0.91246 0.46213,-0.82087 0.14284,-1.39774 -0.21697,-0.39198 0.13642,-1.12771 0.19071,-1.39171 0.0543,-0.264 -0.0436,0.45093 -0.67695,1.10217 -1.24575,1.28099 -1.26245,1.2336 -0.47179,2.02426 1.12374,0.56363 0.38199,0.68159 0.81519,-0.33698 z m 1.96915,0.74944 c 0,-0.731 -0.50452,-1.13699 -0.80624,-0.64878 -0.26882,0.43494 0.0443,1.26989 0.4762,1.26989 0.18152,0 0.33004,-0.2795 0.33004,-0.62111 z m 1.07762,-2.51032 c 0.0855,-0.13829 -0.11146,-0.25143 -0.43762,-0.25143 -0.32616,0 -0.52308,0.11314 -0.43762,0.25143 0.0855,0.13829 0.28239,0.25143 0.43762,0.25143 0.15523,0 0.35216,-0.11314 0.43762,-0.25143 z M 111.68,121.92 c 0,-0.176 -0.396,-0.30564 -0.88,-0.2881 l -0.88,0.0319 0.8,0.2562 c 0.44,0.14091 0.836,0.27056 0.88,0.2881 0.044,0.0175 0.08,-0.1121 0.08,-0.2881 z"
         id="eye1" />
      <path
         style="display:inline;fill:#352b25;stroke-width:0.32"
         d="m 110.08,128.96 c -0.28841,-0.18639 -0.32788,-0.31216 -0.0989,-0.3151 0.20962,-0.003 0.47012,0.1391 0.57889,0.3151 0.24554,0.39729 0.13476,0.39729 -0.48,0 z m -0.93474,-0.50667 c 0.0154,-0.37278 0.0912,-0.4486 0.19334,-0.19333 0.0924,0.231 0.0811,0.507 -0.0252,0.61333 -0.10634,0.10634 -0.18197,-0.0827 -0.16807,-0.42 z M 114.72,127.68 c -0.10877,-0.176 -0.0453,-0.32 0.14111,-0.32 0.18639,0 0.33889,0.144 0.33889,0.32 0,0.176 -0.0635,0.32 -0.14111,0.32 -0.0776,0 -0.23012,-0.144 -0.33889,-0.32 z m -1.28,-0.32 c 0.10877,-0.176 0.33327,-0.32 0.49889,-0.32 0.16561,0 0.30111,0.144 0.30111,0.32 0,0.176 -0.2245,0.32 -0.49889,0.32 -0.27438,0 -0.40988,-0.144 -0.30111,-0.32 z m -5.6,-0.46111 c 0,-0.27439 0.144,-0.49889 0.32,-0.49889 0.176,0 0.32,0.1355 0.32,0.30111 0,0.16562 -0.144,0.39012 -0.32,0.49889 -0.176,0.10877 -0.32,-0.0267 -0.32,-0.30111 z m 4.48,0.0184 c 0,-0.0675 0.2882,-0.19804 0.64044,-0.29016 0.35224,-0.0921 0.55975,-0.0369 0.46112,0.12268 -0.17224,0.27869 -1.10156,0.41998 -1.10156,0.16748 z m 4.48,-0.15955 c 0,-0.176 0.144,-0.409 0.32,-0.51777 0.176,-0.10878 0.32,-0.0538 0.32,0.12223 0,0.176 -0.144,0.40899 -0.32,0.51777 -0.176,0.10877 -0.32,0.0538 -0.32,-0.12223 z M 111.41052,125.44 c 0,-0.44 0.0726,-0.62 0.16141,-0.4 0.0888,0.22 0.0888,0.58 0,0.8 -0.0888,0.22 -0.16141,0.04 -0.16141,-0.4 z M 116.96,124.8 c -0.10877,-0.176 -0.0453,-0.32 0.14111,-0.32 0.18639,0 0.33889,0.144 0.33889,0.32 0,0.176 -0.0635,0.32 -0.14111,0.32 -0.0776,0 -0.23012,-0.144 -0.33889,-0.32 z m -7.63572,-1.12 c 0.10131,-0.264 0.33042,-0.48 0.50914,-0.48 0.1873,0 0.1562,0.20333 -0.0734,0.48 -0.2191,0.264 -0.44821,0.48 -0.50914,0.48 -0.0609,0 -0.0279,-0.216 0.0734,-0.48 z m 6.0781,0.22857 c -0.0855,-0.13829 0.11146,-0.25143 0.43762,-0.25143 0.32616,0 0.52308,0.11314 0.43762,0.25143 -0.0855,0.13829 -0.28239,0.25143 -0.43762,0.25143 -0.15523,0 -0.35216,-0.11314 -0.43762,-0.25143 z m -2.32697,-0.31347 c -0.26601,-0.17154 -0.24989,-0.34152 0.0596,-0.62869 0.34245,-0.31772 0.41502,-0.27146 0.37649,0.24 -0.0262,0.34848 -0.0531,0.63139 -0.0596,0.62869 -0.007,-0.003 -0.17596,-0.11069 -0.37649,-0.24 z m 1.95111,-1.37691 c -0.11619,-0.188 -0.42017,-0.26165 -0.67551,-0.16367 -0.25534,0.098 -0.3874,0.0538 -0.29347,-0.0982 0.27368,-0.44283 1.72855,-0.31839 1.91353,0.16366 0.19799,0.51595 -0.63298,0.60232 -0.94455,0.0982 z M 110.56,120.96 c 0.10877,-0.176 0.34177,-0.32 0.51777,-0.32 0.176,0 0.231,0.144 0.12223,0.32 -0.10877,0.176 -0.34177,0.32 -0.51777,0.32 -0.176,0 -0.231,-0.144 -0.12223,-0.32 z m 1.44,0 c 0.264,-0.17061 0.624,-0.3102 0.8,-0.3102 0.176,0 0.104,0.13959 -0.16,0.3102 -0.264,0.17061 -0.624,0.3102 -0.8,0.3102 -0.176,0 -0.104,-0.13959 0.16,-0.3102 z"
         id="eye2" />
      <path
         id="hair1"
         style="display:inline;fill:#3e190f;stroke-width:0.32"
         d="m 122.11914,58.228516 c -0.52273,-0.04624 -1.29219,0.131065 -2.32031,0.548828 -2.76029,1.121602 -8.07392,1.823112 -12.88477,1.888672 -3.98757,0.05434 -6.28141,0.858061 -6.28141,1.494409 0,0.162354 0.36078,0.5242 0.20524,0.4802 -0.38405,-0.108643 -5.200047,3.859109 -4.957323,4.101831 0.106041,0.10604 0.405198,0.456763 0.232714,0.456763 -0.172483,0 -0.50948,0.49745 -0.748047,1.105469 -0.238568,0.608018 -0.543612,1.037968 -0.677734,0.955078 -0.134118,-0.08289 -0.332812,-0.0031 -0.443359,0.175781 -0.110547,0.17887 -0.01359,0.327478 0.216797,0.330078 0.310908,0.0036 -0.165498,0.06683 -0.447426,0.246094 -0.785653,0.499567 -1.272699,3.383275 -1.076014,4.628906 0.104216,0.659999 0.06183,1.199219 -0.09375,1.199219 -0.155587,0 -0.02152,-0.588088 -0.136426,-1.306641 -0.221827,-1.38722 0.649533,-4.475772 1.408764,-5.267017 0.621658,-0.647869 -0.127374,-1.281328 -1.142601,-1.078282 -0.698794,0.139759 -1.285219,-0.09026 -3.174097,-1.06515 l -2.379041,-1.208422 -4.617615,-0.04926 c -5.629891,0.22088 -8.695532,1.242759 -11.810973,3.345435 -2.504698,1.690472 -7.391961,5.984791 -7.835669,6.977123 -0.157392,0.352 -0.973014,1.492933 -1.921314,2.859644 -0.948303,1.366716 -1.791284,4.067894 -2.357825,5.517175 -0.566543,1.449286 -1.591533,3.079338 -1.901379,3.783338 -0.94998,2.158449 -3.29093,13.442383 -3.29353,16.022043 -0.0036,3.51766 -2.234598,8.51786 -4.71388,11.57561 -1.518138,1.87236 -0.550451,2.57624 2.022632,1.76704 0.779352,-0.2451 2.324334,-0.75584 3.540454,-1.13476 1.216124,-0.37892 2.902584,-1.13641 3.423559,-1.57478 1.138949,-0.95836 2.525877,-2.15692 2.52566,-1.81153 -2.43e-4,0.38198 -3.815758,2.75496 -4.910157,3.29492 -2.312016,1.14072 -2.776621,4.19278 -1.599205,7.46609 0.334738,0.9306 0.993957,2.55533 1.304553,3.61133 0.310594,1.056 0.623896,2.48812 0.96637,3.23703 0.497625,1.08821 0.637195,1.60908 0.496286,3.33399 -0.258594,3.16476 0.04895,3.88523 -0.80664,5.25976 -0.426685,0.68549 -1.42831,1.67036 -1.575635,1.9184 -0.224304,0.37763 0.618203,0.19608 2.450635,0.025 1.795666,-0.16768 2.631368,-0.18948 3.437231,-0.93247 1.581995,-1.45859 3.098117,-2.85556 4.000269,-3.09683 0.89342,-0.23893 1.508409,-0.92028 1.607421,-2.86718 0.113915,3.07 -0.115617,4.32287 -1.552734,7.06836 -0.41486,0.79254 -1.28431,2.15136 -1.626953,2.94335 -0.342647,0.792 -0.723169,1.78264 -1.114697,2.19028 -1.006412,1.04781 0.293047,1.79069 1.54342,0.85493 0.57679,-0.43166 1.704757,-1.67202 2.883777,-2.3245 1.17902,-0.65247 2.737818,-1.05741 2.966797,-1.28125 0.228979,-0.22384 0.794157,-0.45251 1.410156,-0.69922 0.616,-0.2467 1.809454,-1.18654 2.689453,-1.82227 0.879999,-0.63573 2.200385,-1.19371 2.783203,-1.42968 0.582819,-0.23597 2.033649,-1.41486 3.298828,-2.35352 1.26518,-0.93865 2.176735,-1.89834 2.408204,-1.90234 0.231468,-0.004 1.573798,-0.45119 2.486328,-1.37696 0.91253,-0.92577 2.163297,-2.0353 2.779297,-2.46679 1.740737,-1.21933 4.185724,-3.43382 5.175781,-4.89258 0.494847,-0.72911 0.56287,-1.91883 0.83789,-2.22461 0.939181,-1.04425 2.953568,-5.45761 3.425782,-8.3418 0.25934,-1.584 0.64868,-4.85642 0.826172,-7.23242 0.565455,-7.56949 0.565092,-8.66581 1,-10.550785 0.893702,-3.873449 4.733171,-8.966227 7.785021,-10.274402 1.60647,-0.68861 0.99039,-0.506804 0.022,0.0031 -1.32111,0.69557 -4.40178,4.046041 -5.92704,6.604907 -1.054669,1.76937 -1.415834,2.76553 -1.751095,4.994567 -0.514784,3.422353 -0.2667,3.608553 0.24176,3.608553 0.233069,-1e-5 1.209885,0.39736 1.900815,1.09849 1.70383,1.72897 3.64596,2.59926 6.79687,2.42187 2.28714,-0.12876 2.89915,-0.25197 5.42969,-1.79102 2.97993,-1.81235 3.93036,-2.31452 4.51367,-1.2246 0.18219,0.34043 0.48829,1.76226 0.48829,3.3496 0,2.73098 0.0121,3.0419 0.78515,3.58594 0.44931,0.31622 1.42147,1.29328 2.16016,1.94336 0.85378,0.75135 1.93438,1.25984 2.74804,1.39453 1.81236,0.3 3.06987,1.27592 3.92579,2.79883 0.99953,1.77834 1.57154,7.84555 1.09961,10.39844 -0.17818,0.96412 0.0293,1.94262 0.0293,2.01172 0,0.14535 1.91473,-0.71407 2.96193,-1.65011 0.91497,-0.81784 1.40059,-1.9114 2.64549,-5.6331 0.84192,-2.51693 1.32851,-4.77078 1.26563,-6.99804 0.15762,2.01694 -0.24837,3.93284 -1.21094,6.92773 -0.51682,1.60795 -0.54297,3.24125 -0.54297,3.4668 0,0.22554 -0.88954,0.62176 -1.32954,1.09653 -0.93843,1.0126 -0.41631,1.25706 0.2104,2.75698 0.26402,0.63184 -0.01,1.51004 -0.0137,2.06055 -0.008,1.17418 -0.45823,3.46015 -1.2168,4.08789 -0.29189,0.24155 -0.52929,0.65077 -0.52929,0.90821 0,0.4671 -2.10197,2.23435 -6.78907,6.85156 -1.63916,1.61473 -2.46946,2.91396 -2.27734,3.14648 0.15981,0.19341 0.87839,1.56434 1.75781,3.26172 0.87942,1.69739 1.77418,3.7913 2.22852,4.0918 l 0.98633,0.65039 2.20117,-2.09375 c 2.98567,-2.83991 2.584,-3.96323 2.27344,-7.8418 -0.14484,-1.80887 -0.84361,-3.47634 -0.84961,-3.65234 -0.007,-0.176 0.20475,-0.32032 0.46875,-0.32032 0.3372,0 0.53576,0.4756 0.66992,1.59961 0.31267,2.61967 0.61991,5.91898 0.9043,6.49805 0.14612,0.29752 1.1408,2.50667 2.26562,4.85352 1.12483,2.34686 2.79264,5.01218 3.05664,5.16797 1.0232,0.6038 1.3418,-0.32795 1.3418,-4.23633 0,-3.78497 0.18022,-4.15127 1.53515,-8.16797 1.33218,-3.94922 1.46177,-4.37949 2.16602,-5.70703 2.36864,-4.46502 3.15276,-9.96366 1.91992,-13.45899 -0.35653,-1.01082 -1.06211,-1.83019 -1.56836,-1.27734 -0.29184,0.3187 -0.65724,1.7922 -1.08398,2.4082 -0.42674,0.616 -0.85663,1.1913 -0.95313,1.2793 -0.29606,0.27003 -2.01065,1.75693 -2.50781,2.86523 -0.2592,0.57784 -0.42215,1.92652 -0.84766,2.88868 -0.48963,1.10713 -0.6595,1.92578 -0.99609,1.92578 -0.38184,0 -0.4659,-0.15655 -0.29883,-0.5586 0.12798,-0.308 0.41591,-1.13584 0.63867,-1.83984 0.46386,-1.46593 2.76992,-4.67067 3.16797,-4.83008 0.1465,-0.0587 -0.13118,-0.67161 -0.13086,-0.87695 4.1e-4,-0.20533 0.70191,-0.79025 1.23243,-1.40625 1.17352,-1.36259 2.63622,-4.71802 3.54882,-7.29883 1.55943,-4.41 2.72169,-14.90329 1.61219,-17.04883 -0.29017,-0.56114 -1.11063,-1.01953 -1.28211,-1.01953 -0.17148,0 0.35284,-0.30491 0.35284,-0.67773 0,-0.64001 -2.19426,-2.771905 -2.80554,-2.782945 -0.15581,-0.0028 -0.52916,-0.364688 -0.93694,-0.804687 -0.40777,-0.44 -1.24241,-0.535426 -1.47559,-0.535426 -0.23319,0 -1.64871,0.915123 -2.39065,2.411118 -0.74194,1.496 -0.91051,2.67453 -1.07741,2.67453 -0.77454,0 -0.047,-0.46899 1.42509,-3.515335 2.99858,-6.205428 3.91953,-8.319978 4.04883,-9.597656 0.0713,-0.704 -0.20137,-2.781127 -0.0117,-4.453125 0.18966,-1.671999 0.6151,-3.786603 0.51201,-4.754603 -0.2368,-2.223511 -0.67271,-4.524694 -0.99622,-4.524694 -0.1364,0 -1.10317,-0.627127 -1.5529,-1.394532 -1.06694,-1.820603 -2.14705,-3.813061 -2.91557,-3.813061 -0.3344,0 -0.917,-0.339259 -0.917,-0.482849 0,-0.525663 -2.80939,-1.659301 -4.83428,-2.032507 -1.144,-0.210848 -4.04787,-0.704169 -5.85464,-0.763379 -1.80675,-0.0592 -2.13952,0.143336 -3.33203,0.06641 -0.35212,-0.02272 -4.23989,-0.201608 -6.3164,0.08398 -1.45687,0.200372 -6.25586,2.226685 -9.11901,3.56012 -1.4885,0.693232 -6.32079,3.714618 -8.294784,5.345838 -0.863817,0.713814 -1.385321,1.572272 -1.482691,1.474902 -0.09737,-0.09737 0.460159,-0.382687 1.076038,-0.90387 3.223207,-2.727637 7.045167,-5.371104 8.828687,-6.1875 5.21959,-2.389237 7.71921,-3.137792 9.84778,-3.336768 1.232,-0.115165 2.72253,-0.373465 3.36594,-0.465405 l 1.61023,-0.344873 0.40151,-2.341101 c 0.12291,-1.263334 0.3229,-3.141016 0.64325,-4.065015 0.42906,-1.237528 0.24035,-1.934647 -0.63086,-2.011718 z M 73.15625,87.3125 c 0.44031,-0.04475 -0.43036,0.552207 -1.838744,2.07588 -0.836,0.904434 -1.828385,2.02622 -2.260462,2.545617 -2.22066,2.669467 -4.521765,8.830293 -4.803138,12.864833 -0.21961,3.1489 0.372651,13.91775 1.095703,20.76562 0.208933,1.97877 0.315418,4.37688 0.402344,6.33985 -0.02395,-0.23692 -0.03825,-0.44706 -0.07031,-0.70508 -0.27337,-2.2 -0.504837,-4.52246 -0.591797,-5.31445 -0.325037,-2.96034 -1.10491,-16.28076 -1.09961,-18.76368 0.01461,-6.7802 2.715371,-13.333795 7.812793,-18.250961 0.865772,-0.835157 1.089037,-1.530779 1.353223,-1.557629 z m 53.0293,0.03711 c 0.2411,-0.05099 0.18211,0.154049 0.3415,0.65625 0.11266,0.354951 0.88113,1.186549 1.54479,1.525122 0.96143,0.490489 1.2024,0.925903 1.87974,2.48772 0.79899,1.842324 0.58425,2.081209 0.58425,6.733252 0,4.708996 0.30616,5.030916 1.10716,6.619136 0.46308,0.91815 0.84363,1.96126 0.95255,2.04926 0.23475,0.18967 1.08376,1.37251 1.57048,3.18903 -0.47933,-1.13038 -1.11255,-2.28651 -1.98438,-3.50782 l -1.52467,-2.9414 -0.0273,-5.121097 c -0.0235,-4.645979 0.0389,-5.215742 -0.62513,-6.598352 -0.46598,-0.970268 -1.566,-2.066985 -2.4085,-2.631286 -0.91835,-0.615106 -1.22085,-0.974949 -1.29115,-1.578955 -0.0609,-0.52304 -0.36041,-0.82987 -0.1193,-0.88086 z m -10.55664,26.24023 c -2.76701,0.0194 -5.50674,0.14835 -5.66797,0.24805 -0.30428,0.18805 -1.28612,0.72851 -2.1211,0.75781 -0.264,0.009 -0.93304,-0.0493 -1.37304,0.0996 -0.44,0.14888 -1.43289,0.39024 -2.24414,0.49805 -1.30221,0.17305 -1.75655,0.43503 -2.70313,1.76562 -0.5897,0.82893 -1.26439,1.54917 -1.38476,1.60157 -0.1203,0.0524 0.16606,0.47089 0.25585,0.81445 h -0.437495 c 0.198175,0.75783 1.479875,0.96154 2.171875,0.26953 0.28193,-0.28192 2.18492,-1.09105 4.52539,-1.85937 l 4.38672,-1.43946 7.21875,-0.0996 c 5.97663,0.17375 7.58548,-0.10936 7.13672,-0.4375 -0.30319,-0.2217 -1.40677,-0.87585 -2.14649,-0.99414 -0.73972,-0.11829 -1.65081,-0.46823 -1.94921,-0.73828 -0.44308,-0.40094 -1.55951,-0.51513 -5.66797,-0.48633 z m -45.734379,30.36719 -0.982422,1.07617 c -0.678021,0.41983 -2.173063,0.5682 -2.789062,0.86328 -2.035761,0.97518 -2.117913,2.00113 -2.164063,3.38477 -0.06422,1.92545 0.236008,4.04224 1.433594,5.44922 1.547234,1.81776 0.773875,2.47777 1.501953,4.21875 l 0.625,1.49609 1.107422,-0.91601 c 0.575785,-0.47593 1.205554,-1.32769 1.480469,-1.67969 0.82084,-1.05101 2.152626,-3.72125 2.585937,-5.59961 0.223308,-0.968 -0.08669,-2.12489 0.152344,-2.26562 0.239034,-0.14075 0.433594,-0.45277 0.433594,-0.69336 0,-0.24058 0.180391,-0.5049 0.400391,-0.5879 0.249305,-0.0941 0.29593,-0.87109 -0.601563,-1.75 -0.791999,-0.77558 -1.536653,-1.7844 -1.935547,-2.07812 z" />
      <path
         id="eye3"
         style="display:inline;fill:#3e190f;stroke-width:0.32"
         d="m 110.80078,121.63281 -0.88086,0.0312 0.80078,0.25586 c 0.44,0.14091 0.83491,0.27156 0.87891,0.28906 0.044,0.0175 0.0801,-0.11306 0.0801,-0.28906 0,-0.176 -0.39491,-0.30461 -0.87891,-0.28711 z m 3.9375,0.60742 c -0.27439,0 -0.49805,0.14432 -0.49805,0.32032 0,0.176 0.13518,0.32031 0.30079,0.32031 0.16562,0 0.38927,-0.14431 0.49804,-0.32031 0.10877,-0.176 -0.0264,-0.32032 -0.30078,-0.32032 z m 0.0156,3.32032 c -0.33576,-0.0375 -0.58561,0.51261 -0.39258,1.01562 0.0981,0.25558 0.32628,0.46289 0.50781,0.46289 0.41109,0 0.43869,-1.17518 0.0332,-1.42578 -0.0504,-0.0312 -0.10047,-0.0474 -0.14843,-0.0527 z m -5.47461,1.58593 c -0.23045,0 -0.34401,0.19308 -0.25391,0.42774 0.0901,0.23467 0.20361,0.42578 0.25391,0.42578 0.0503,0 0.16581,-0.19111 0.25586,-0.42578 0.0901,-0.23466 -0.0254,-0.42774 -0.25586,-0.42774 z m 3.11328,0.24024 c -0.11104,0.009 -0.27199,0.07 -0.52735,0.16797 -0.27839,0.10683 -0.50586,0.3233 -0.50585,0.48047 0,0.15716 0.35653,0.28515 0.79101,0.28515 0.57076,0 0.73854,-0.13369 0.60547,-0.48047 -0.10506,-0.27378 -0.15658,-0.40965 -0.26758,-0.44531 -0.0277,-0.009 -0.0587,-0.01 -0.0957,-0.008 z" />
      <path
         style="display:inline;fill:#443c39;stroke-width:0.32"
         d="m 65.28,162.92023 c 0,-0.15387 0.216,-0.89197 0.48,-1.64023 0.264,-0.74826 0.48,-1.81249 0.48,-2.36497 0,-0.90141 -1.021891,-3.3068 -1.578272,-3.71503 -0.469683,-0.34462 -0.953187,-2.1864 -1.155082,-4.4 -0.194892,-2.1368 -0.477564,-2.75899 -0.924736,-2.03545 -0.09673,0.1565 -0.564441,0.38208 -1.039369,0.50128 -0.474928,0.1192 -1.254515,0.49515 -1.732423,0.83545 -1.079481,0.76866 -1.136572,0.76748 -1.344515,-0.0277 -0.124909,-0.47767 0.06723,-0.76859 0.736026,-1.11444 0.550131,-0.28448 1.050422,-0.90847 1.275718,-1.59112 0.203863,-0.61771 0.545335,-1.23221 0.758829,-1.36557 0.515446,-0.32197 3.277386,-6.04091 3.555677,-7.36247 0.153101,-0.72706 0.100905,-1.04 -0.173469,-1.04 -0.380982,0 -2.254086,1.43187 -4.209658,3.21801 -1.100508,1.00515 -2.186649,1.3235 -4.875721,1.42908 -1.061178,0.0417 -1.960071,0.23411 -2.026666,0.4339 -0.169926,0.50977 -0.924774,0.44525 -1.132793,-0.0968 -0.10042,-0.26169 0.144083,-0.66487 0.574044,-0.94659 1.227978,-0.8046 2.650464,-3.2214 3.06154,-5.20153 1.123219,-4.3503 -0.795273,-7.2165 -1.920448,-11.15605 C 53.965278,124.50778 52.8,121.3921 52.8,120.25475 c 0,-0.59771 0.16312,-1.24987 0.36249,-1.44924 0.199369,-0.19937 0.275891,-0.58817 0.170044,-0.864 -0.213756,-0.55704 -1.343737,-0.68115 -1.652534,-0.18151 -0.108774,0.176 -0.532813,0.32 -0.942307,0.32 -0.409495,0 -1.156995,0.21511 -1.661114,0.47803 -0.504118,0.26291 -1.395139,0.47891 -1.980041,0.48 -1.381588,0.003 -1.286007,-0.84865 0.176195,-1.56915 0.568003,-0.27988 1.036003,-0.73578 1.04,-1.0131 0.004,-0.27732 0.379069,-0.85332 0.833494,-1.28 0.454423,-0.42668 1.37017,-1.87373 2.034992,-3.21567 1.261261,-2.54585 1.855594,-5.22064 2.586413,-11.64011 0.200368,-1.76 0.499027,-3.813334 0.66369,-4.562963 -0.135341,-1.826083 0.61334,-3.302915 1.201308,-4.71905 0.442343,-1.818294 1.453799,-4.63568 2.663978,-7.420432 0.909128,-2.05101 1.351053,-3.070058 2.806499,-5.217555 0.09729,-0.088 0.526243,-0.664 0.953226,-1.28 0.426982,-0.616 0.966982,-1.235155 1.2,-1.375901 1.6925,-1.941983 3.561103,-4.19626 5.365955,-5.664099 0.117056,0 1.033296,-0.557168 2.036086,-1.23815 1.59561,-1.083559 4.584573,-2.457943 6.651706,-3.058586 0.368544,-0.107088 2.373235,-0.321818 4.454867,-0.477181 3.937853,-0.293901 6.68937,0.0813 7.825693,1.06713 0.916307,0.794947 2.086934,1.277126 3.52936,1.453737 1.530611,0.187405 1.848637,-0.02634 2.837536,-1.90695 0.504419,-0.959277 4.133124,-4.097066 5.635974,-4.873498 0.83603,-0.431929 1.93839,-0.558803 5.01892,-0.577644 4.35002,-0.02662 6.59378,-0.327799 11.14757,-1.4964 2.52599,-0.648228 3.50982,-1.101415 5.81864,-2.680295 1.52826,-1.045088 2.86453,-1.761203 2.96949,-1.591363 0.10497,0.169837 -0.33733,0.999638 -0.98289,1.843997 -1.8876,2.468902 -2.8009,4.98272 -3.11549,8.575203 l -0.16813,1.92 2.61919,0.08686 c 3.27716,0.108681 8.73872,0.965901 9.8833,1.551235 2.24887,0.329211 3.38168,1.822832 4.57589,3.184214 0.616,0.672519 1.12,1.350381 1.12,1.506368 0,0.155988 0.54,0.942359 1.2,1.747495 l 0.89042,1.463881 0.70761,5.486876 c 0.14967,1.160494 -0.71994,8.758177 -1.40836,10.077297 -0.48883,1.675011 -1.32731,3.170846 -1.42652,4.722285 0.0203,0.212579 0.72085,0.776947 1.55685,1.254147 2.09487,1.195779 3.2041,2.455752 4.31992,4.906962 l 0.95247,2.09238 -0.19452,5.68513 c -0.15268,4.4621 -0.33257,6.0949 -0.8362,7.58991 -0.35292,1.04762 -0.64167,2.09704 -0.64167,2.33204 0,0.23499 -0.3757,1.1812 -0.8349,2.10268 -0.87914,1.7642 -0.87414,2.123 0.0631,4.53024 0.64343,1.65262 0.74512,5.20207 0.23379,8.16 -0.35177,2.03488 -1.37525,4.36167 -2.03698,5.73268 -0.94078,1.78903 -1.51791,3.80687 -2.08499,5.48514 -1.57644,4.64107 -1.43271,6.36011 -1.405,7.56848 0.22265,2.02066 0.18776,3.50556 0.49425,5.18411 0.22357,1.2111 0.20662,1.24297 -0.53922,1.01379 -0.42353,-0.13013 -1.03419,-0.27099 -1.35702,-0.31302 -1.02818,-0.13385 -2.79147,-2.80613 -5.24653,-7.95118 -0.7779,-1.63024 -1.36641,-2.48 -1.71754,-2.48 -0.47308,0 -2.84896,3.44997 -2.84896,4.13692 0,0.13808 -0.50643,0.9143 -1.1254,1.72495 -0.75867,0.99359 -1.28606,1.41225 -1.6184,1.28472 -0.27804,-0.1067 -0.4128,-0.39814 -0.30907,-0.66844 0.10115,-0.2636 0.0403,-0.65232 -0.13524,-0.86382 -0.17553,-0.21151 -0.36506,-0.66126 -0.42117,-0.99944 -1.32501,-1.89038 -1.84939,-4.37794 -3.26373,-6.00793 -0.73774,-1.69092 -0.17454,-2.07626 -1.96482,-0.60103 -2.85523,2.33392 -3.92797,3.25762 -4.9124,4.22991 -0.62137,0.61371 -1.63377,1.52557 -2.24977,2.02636 -0.616,0.5008 -2.20932,1.94267 -3.54071,3.20417 -5.29327,5.01538 -6.45223,5.68121 -10.283815,5.90812 -2.321654,0.13749 -2.604326,0.0787 -4.876125,-1.01427 -1.32638,-0.63812 -2.53904,-1.16022 -2.694796,-1.16022 -0.500493,0 -3.365508,-1.35524 -3.814772,-1.8045 -0.238995,-0.239 -0.784467,-0.52237 -1.21216,-0.62971 C 85.46993,158.41844 85.12,158.20593 85.12,158.05353 c 0,-0.1524 -0.468,-0.51689 -1.04,-0.80996 -0.572,-0.29308 -1.112,-0.62553 -1.2,-0.73878 -0.088,-0.11325 -0.921008,-0.7571 -1.85113,-1.43077 -0.930118,-0.67368 -2.513027,-2.08654 -3.517568,-3.1397 -2.32552,-2.43806 -2.8204,-2.71198 -3.609507,-1.99784 -1.694164,4.27253 -2.728004,6.24311 -4.461795,10.39342 0,0.17055 -0.18,0.3103 -0.4,0.31054 -0.22,2.5e-4 -1.048,0.57605 -1.84,1.27956 -1.437722,1.27709 -1.92,1.52834 -1.92,1.00023 z m 35.12,-0.70009 c 0.044,-0.0331 0.224,-0.0961 0.4,-0.14014 0.176,-0.044 0.356,-0.1087 0.4,-0.14378 0.044,-0.0351 0.41034,-0.12514 0.8141,-0.20014 0.40375,-0.075 1.31411,-0.67302 2.02303,-1.32893 0.70891,-0.65592 1.62831,-1.4152 2.04311,-1.68731 0.4148,-0.27211 1.27537,-1.03138 1.91237,-1.68729 0.63701,-0.6559 1.27847,-1.19255 1.42547,-1.19255 0.147,0 0.3424,-0.28727 0.43422,-0.63838 0.0918,-0.35112 0.43261,-0.73905 0.75732,-0.86207 0.32471,-0.12302 1.21447,-0.80775 1.97724,-1.52161 0.76277,-0.71387 1.82965,-1.65794 2.37083,-2.09794 1.87938,-1.52799 8.855,-7.87686 9.44231,-8.59394 0.22,-0.26861 0.4,-0.36944 0.4,-0.22407 0,0.14538 0.32137,-0.1511 0.71415,-0.65883 0.39278,-0.50774 0.82478,-0.97116 0.96,-1.02983 0.13522,-0.0587 0.24585,-0.27961 0.24585,-0.491 0,-0.21139 0.42881,-0.63765 0.95291,-0.94724 0.5241,-0.3096 1.69977,-1.67264 2.61259,-3.02899 1.85164,-2.75135 2.26965,-4.5422 1.5003,-6.42765 l -0.44045,-1.07944 -0.95267,0.79295 c -1.57667,1.31233 -2.26786,1.58401 -2.70128,1.06177 -0.27272,-0.3286 -0.28194,-0.62823 -0.0336,-1.09224 0.55693,-1.04065 0.40554,-5.27892 -0.39011,-10.92149 -0.13863,-0.98306 -0.81908,-1.1846 -4.87398,-1.44361 -5.10133,-0.32584 -5.06044,-0.32571 -8.79371,-0.0288 -3.30283,0.26269 -9.78115,2.03217 -11.23368,3.06834 -0.82404,0.58783 -1.34764,0.75577 -2.12632,0.68196 -0.420912,-0.0399 -0.576669,-1.95274 -0.16,-1.96495 0.132,-0.004 0.672,-0.65525 1.2,-1.44752 0.9823,-1.47394 1.15403,-1.56114 4.64,-2.35602 3.53328,-0.80566 5.49039,-1.06895 9.38408,-1.26246 2.89337,-0.1438 4.20478,-0.32905 4.2968,-0.60696 0.0729,-0.22 -0.0801,-0.4 -0.33998,-0.4 -0.39967,-0.22676 -0.76649,-0.53076 -1.16258,-0.81132 -0.61132,-0.61096 -0.90212,-0.9559 -0.92593,-3.77871 -0.0148,-1.75823 -0.17513,-3.01229 -0.42328,-3.31129 -0.49928,-0.6016 -2.32729,-0.36242 -3.1888,0.41723 -0.33017,0.29879 -0.60031,0.42142 -0.60031,0.27251 0,-0.14892 -0.18,-0.0369 -0.4,0.24904 -0.22,0.28589 -1.12,0.8978 -2,1.35981 -1.45922,0.76611 -1.81117,0.82187 -4,0.63367 -3.57096,-0.30704 -4.59737,-0.6626 -6.43108,-2.22783 -0.915861,-0.78177 -1.765122,-1.35964 -1.887246,-1.28416 -0.122122,0.0755 -0.314048,1.84834 -0.4265,3.9397 -0.229523,4.26865 -1.088358,10.92046 -1.473977,11.41617 -0.139123,0.17884 -0.351536,0.73705 -0.472032,1.24047 -0.120496,0.50342 -0.488736,1.51142 -0.818311,2.24 -0.866563,1.91568 -1.041302,2.68338 -0.663872,2.91665 0.183162,0.1132 0.333018,0.35895 0.333018,0.54611 0,0.2071 -0.197651,0.17626 -0.504986,-0.0788 -0.432883,-0.35926 -0.62391,-0.26204 -1.337872,0.68082 -0.458086,0.60496 -1.861292,2.14392 -3.11824,3.41992 -1.785872,1.81295 -2.1404,2.31829 -1.622128,2.31218 1.313322,-0.0155 3.487335,-0.66762 4.26504,-1.27936 0.940202,-0.73957 1.627863,-0.5012 0.893879,0.30984 -0.692567,0.76528 -2.623827,1.29734 -4.709024,1.29734 -2.032992,0 -3.283069,0.50322 -3.842999,1.547 -0.386092,0.71974 -2.18367,2.21973 -2.18367,1.82217 0,-0.10692 -0.18,-0.0403 -0.4,0.14809 -1.595843,1.3664 -5.709075,4.13537 -6.574154,4.42562 -1.501734,0.50387 -4.545846,2.72417 -4.545846,3.31564 0,0.1447 0.970282,1.23473 2.156182,2.42229 1.185901,1.18755 2.164167,2.23119 2.17392,2.31919 0.03523,0.31778 5.594532,5.59722 5.779751,5.48878 0.10448,-0.0612 0.572502,0.24665 1.040054,0.68405 0.467552,0.43738 2.254093,1.48199 3.970093,2.32135 1.716,0.83935 3.12,1.62436 3.12,1.74447 0,0.12011 0.574349,0.49355 1.27633,0.82987 0.70198,0.33631 1.27798,0.71948 1.28,0.85148 0.0019,0.132 0.192825,0.24 0.424012,0.24 0.231191,0 1.131191,0.35727 2,0.79392 1.347482,0.67724 1.90889,0.77427 3.819658,0.66014 1.232,-0.0736 2.276,-0.16085 2.32,-0.19392 z M 94.464,150.976 c -0.621731,-0.62173 -0.438883,-1.04486 0.201197,-0.4656 0.938016,0.8489 2.470249,0.62655 6.333433,-0.91907 2.53228,-1.01313 3.86447,-1.38753 4.43112,-1.24531 0.96354,0.24184 1.08059,0.77398 0.17025,0.77398 -0.352,0 -0.64,-0.1483 -0.64,-0.32956 0,-0.18125 -0.54,-0.0491 -1.2,0.2936 -3.37305,1.75161 -8.411008,2.77695 -9.296,1.89196 z m 2.623661,-8.43474 c -1.770775,-0.92482 -3.306791,-2.54575 -3.317856,-3.50126 -0.006,-0.51639 0.107267,-0.45195 0.586329,0.33364 1.803933,2.95814 5.694886,4.21766 8.076546,2.61441 1.22819,-0.82677 1.74606,-1.74153 2.29559,-4.0549 0.37511,-1.57914 1.19173,-2.48761 1.19173,-1.32578 0,0.67255 -1.17649,3.6728 -1.87088,4.77107 -0.64538,1.02074 -2.657,1.98156 -4.14871,1.98156 -0.713888,0 -1.913911,-0.34931 -2.812749,-0.81874 z M 109.28,130.66096 c -1.32737,-0.17028 -4.64,-1.40084 -4.64,-1.72365 0,-0.14556 0.468,-0.0715 1.04,0.1645 1.33674,0.55161 4.71744,1.24742 4.94673,1.01813 0.0968,-0.0968 -0.23863,-0.36018 -0.74538,-0.58531 -0.50674,-0.22513 -1.28135,-0.73623 -1.72135,-1.13578 -0.70792,-0.64283 -0.79982,-0.98353 -0.79843,-2.96001 l 0.002,-2.23356 1.52308,-1.52264 c 1.40668,-1.40627 1.6389,-1.52012 3.03843,-1.48971 1.4052,0.0305 4.23535,0.98796 4.23535,1.43279 0,0.1071 0.35996,0.61313 0.79992,1.12451 1.55477,1.80716 1.34714,4.24142 -0.52509,6.15638 -0.54492,0.55737 -0.82506,1.01339 -0.62252,1.01339 1.54517,0 5.0929,-2.89468 5.93449,-4.84208 0.63437,-1.46792 1.7685,-3.10071 1.77109,-2.54981 0.005,1.01617 -1.82616,4.13149 -3.25164,5.53262 -2.23611,2.1979 -3.89344,2.82994 -7.26693,2.77132 -1.51765,-0.0264 -3.19135,-0.10336 -3.71935,-0.17109 z m 6.54641,-2.00529 c 0.35947,-0.41448 0.65359,-0.88406 0.65359,-1.04352 0,-0.15946 0.16625,-0.18717 0.36944,-0.0616 0.22051,0.13628 0.28291,0.0883 0.15478,-0.119 -0.11806,-0.19104 -0.0683,-0.43779 0.11056,-0.54833 0.57611,-0.35606 0.35739,-1.88055 -0.50925,-3.54953 -0.76553,-1.47427 -1.0065,-1.67619 -2.57768,-2.16 -2.08782,-0.6429 -2.95632,-0.65847 -3.73687,-0.067 -0.40002,0.3031 -0.52135,0.65954 -0.37813,1.1108 0.12974,0.40877 0.0266,0.84883 -0.26812,1.1435 -0.55638,0.55638 -1.16473,0.62958 -1.16473,0.14013 0,-0.18638 -0.1223,-0.2633 -0.27177,-0.17091 -0.14948,0.0924 -0.29539,1.00088 -0.32425,2.01888 -0.0442,1.56062 0.0737,1.99675 0.75177,2.78069 0.44234,0.51138 0.80425,0.83194 0.80425,0.71236 0,-0.11958 0.51116,0.0448 1.13591,0.36534 1.57325,0.80712 4.3225,0.51819 5.2505,-0.5518 z m -3.93308,-2.149 c -0.36594,-0.36595 -0.21398,-1.83896 0.25335,-2.45569 0.6312,-0.83302 1.77332,-0.42621 1.77332,0.63162 0,1.54238 -1.2149,2.63583 -2.02667,1.82407 z M 109.44,122.70111 c 0,-0.27438 -0.144,-0.40988 -0.32,-0.30111 -0.176,0.10877 -0.32,0.33327 -0.32,0.49889 0,0.16561 0.144,0.30111 0.32,0.30111 0.176,0 0.32,-0.2245 0.32,-0.49889 z m -8,2.32409 c 0,-0.42768 4.43574,-4.06594 5.4003,-4.4294 0.29806,-0.11232 0.73455,-0.43632 0.96999,-0.72 0.23544,-0.28369 0.66964,-0.5158 0.96489,-0.5158 0.29525,0 0.67362,-0.13619 0.84082,-0.30264 0.1672,-0.16645 2.32,-0.40163 4.784,-0.52262 4.32714,-0.21247 4.57281,-0.18975 7.2,0.66581 3.01663,0.98239 3.87223,1.53522 3.28496,2.12249 -0.27681,0.27681 -0.62909,0.24738 -1.42628,-0.11916 -0.58228,-0.26772 -2.05731,-0.81272 -3.27785,-1.2111 -1.96858,-0.64255 -2.62573,-0.70255 -5.81957,-0.53139 -2.12908,0.1141 -4.09914,0.39982 -4.82083,0.69916 -1.73571,0.71995 -7.11458,4.40169 -7.12865,4.87945 -0.0157,0.5324 -0.97178,0.51784 -0.97178,-0.0148 z M 69.607245,157.6 c 0.820841,-1.05101 1.964221,-3.72164 2.397533,-5.6 0.223305,-0.968 0.60158,-1.87516 0.840614,-2.0159 0.239034,-0.14075 0.434608,-0.45275 0.434608,-0.69334 0,-0.24058 0.18,-0.50537 0.4,-0.58841 0.249306,-0.0941 -0.142506,-0.68226 -1.04,-1.56117 -0.792,-0.77559 -1.677254,-1.73876 -1.967232,-2.14038 l -0.527232,-0.7302 -1.232768,0.76332 c -0.678022,0.41983 -1.736768,1.00475 -2.352768,1.29983 -2.035763,0.97518 -2.554915,1.56338 -2.601062,2.94702 -0.06422,1.92545 0.549254,3.72924 1.746841,5.13622 1.547239,1.81776 1.814221,2.45705 1.814221,4.34414 v 1.68321 l 0.793699,-1.10217 C 68.750237,158.73598 69.33233,157.952 69.607245,157.6 Z M 138.4,154.48 c 0,-3.78497 0.0483,-4.06329 1.40328,-8.08 1.33218,-3.94922 1.54955,-4.51246 2.2538,-5.84 2.36864,-4.46502 3.15327,-9.96413 1.92043,-13.45946 -0.35653,-1.01082 -0.39804,-1.03285 -0.90429,-0.48 -0.29184,0.3187 -0.87976,1.08346 -1.3065,1.69946 -0.42674,0.616 -0.85482,1.192 -0.9513,1.28 -0.29606,0.27003 -1.30445,2.02231 -1.80161,3.13061 -0.2592,0.57784 -0.81942,1.83784 -1.24493,2.8 -0.48963,1.10714 -0.96892,1.74939 -1.30551,1.74939 -0.38183,0 -0.46621,-0.15795 -0.29914,-0.56 0.12798,-0.308 0.41923,-1.15448 0.64721,-1.88108 0.39726,-1.26608 1.07001,-2.66062 1.44673,-2.99892 0.098,-0.088 0.36746,-0.628 0.59882,-1.2 0.23136,-0.572 0.54719,-1.04 0.70183,-1.04 0.15465,0 0.28152,-0.18 0.28193,-0.4 3.2e-4,-0.22 0.43482,-0.904 0.96534,-1.52 1.17353,-1.36259 2.9024,-4.63068 3.815,-7.21149 1.55943,-4.41 2.27958,-14.90271 1.17007,-17.04825 -0.29017,-0.56114 -0.6679,-1.02026 -0.83938,-1.02026 -0.17148,0 -0.31178,-0.30504 -0.31178,-0.67786 0,-0.64001 -1.75203,-2.505999 -2.36331,-2.51703 -0.15581,-0.0029 -0.61694,-0.36511 -1.02472,-0.80511 -0.40777,-0.44 -0.93219,-0.8 -1.16537,-0.8 -0.23319,0 -1.03101,1.224 -1.77295,2.72 -0.74194,1.496 -1.48553,2.72 -1.65243,2.72 -0.77454,0 -0.57586,-0.86771 0.8962,-3.914051 2.99858,-6.205434 3.91935,-8.408269 4.04865,-9.685949 0.0713,-0.704 0.2847,-2.648 0.47435,-4.32 0.18964,-1.672 0.26045,-3.832 0.15736,-4.8 -0.2368,-2.223514 -0.80544,-4.48 -1.12896,-4.48 -0.1364,0 -0.61597,-0.627878 -1.0657,-1.395283 C 138.97618,72.624112 137.05652,70.72 136.288,70.72 c -0.3344,0 -0.608,-0.117485 -0.608,-0.261075 0,-0.525664 -2.45511,-1.615514 -4.48,-1.98872 -1.144,-0.210848 -3.55827,-0.431805 -5.36504,-0.491011 -1.80676,-0.05921 -3.39076,-0.170589 -3.52,-0.24752 -0.30319,-0.180493 -4.11606,-0.0121 -6.19258,0.2735 -1.45687,0.200372 -6.37256,1.945674 -9.23571,3.279111 -1.4885,0.693232 -6.18758,3.847824 -8.161585,5.479046 -0.863818,0.713815 -1.65024,1.218179 -1.74761,1.12081 -0.425718,-0.425719 7.170085,-6.161175 9.682945,-7.311424 5.2196,-2.389239 7.851,-3.31609 9.97958,-3.515066 1.232,-0.115165 2.76643,-0.284614 3.40984,-0.376553 l 1.16983,-0.167159 0.22348,-2.296969 c 0.12291,-1.263335 0.48559,-3.05297 0.80594,-3.97697 0.6865,-1.980048 0.60461,-2.01456 -2.13705,-0.900525 -2.76029,1.121603 -7.63744,1.886346 -12.44829,1.951904 -3.98758,0.05434 -6.54375,0.497088 -6.54375,1.133437 0,0.162352 -0.12726,0.259184 -0.2828,0.215184 -0.38405,-0.108643 -4.846058,4.124477 -4.603334,4.3672 0.106041,0.106038 0.05168,0.1928 -0.120807,0.1928 -0.172483,0 -0.508797,0.497472 -0.747366,1.105491 -0.23857,0.608019 -0.543495,1.037671 -0.677616,0.954781 -0.134119,-0.08289 -0.334304,-0.0044 -0.444851,0.174509 -0.110548,0.17887 -0.01251,0.327424 0.217888,0.330118 0.310912,0.0036 0.320979,0.06715 0.03905,0.246423 -0.785654,0.499568 -1.758768,3.383046 -1.562083,4.628678 0.104215,0.66 0.06218,1.2 -0.0934,1.2 -0.155588,0 -0.376893,-0.587904 -0.491796,-1.306458 -0.221827,-1.387222 0.562135,-4.565155 1.321367,-5.3564 0.621657,-0.647872 0.492016,-0.794396 -0.523213,-0.59135 -0.698794,0.13976 -1.55112,-0.135315 -3.44,-1.110205 L 87.2,66.17959 82.803562,66.352074 c -5.629898,0.22088 -8.475274,0.976867 -11.590717,3.079545 -2.504701,1.690474 -7.12664,5.896048 -7.570349,6.888381 -0.157392,0.352 -1.062051,1.758221 -2.010352,3.124934 -0.948304,1.366717 -2.187722,3.670717 -2.754262,5.12 -0.566544,1.449287 -1.283588,3.211066 -1.593434,3.915066 -0.949981,2.158451 -3.200883,13.35382 -3.20353,15.93349 -0.0036,3.51766 -1.925318,8.60689 -4.404601,11.66465 -1.518141,1.87236 -1.346407,2.04543 1.226678,1.23623 0.779354,-0.2451 2.412016,-0.75566 3.628138,-1.13458 1.216125,-0.37892 2.637385,-1.04762 3.158361,-1.48599 1.138951,-0.95836 2.790567,-1.84741 2.790349,-1.50202 -2.43e-4,0.38198 -3.189753,3.06826 -4.284153,3.60822 -2.31202,1.14072 -3.00449,3.83468 -1.827072,7.108 0.334739,0.9306 0.862739,2.556 1.173334,3.612 0.310595,1.056 0.844925,2.53274 1.187398,3.28165 0.497639,1.08821 0.587271,1.79509 0.446327,3.52 -0.258595,3.16477 -0.389347,3.69748 -1.244941,5.07201 -0.426685,0.68549 -0.89633,1.44928 -1.043654,1.69732 -0.224304,0.37763 0.08802,0.41775 1.920451,0.24663 1.795667,-0.16768 2.364528,-0.36682 3.17039,-1.10982 1.581997,-1.45859 3.364752,-2.67851 4.266906,-2.91978 1.274841,-0.34094 1.444003,-1.52282 0.874246,-6.10801 -0.273369,-2.2 -0.568189,-4.648 -0.655145,-5.44 -0.325037,-2.96034 -1.103725,-16.21898 -1.098375,-18.7019 0.01462,-6.78021 2.986695,-13.580929 8.084122,-18.4981 2.308726,-2.227088 2.563737,-1.25529 0.310323,1.182589 -0.836,0.904435 -1.873517,2.069392 -2.305594,2.58879 -2.220662,2.669469 -4.418486,8.558371 -4.699859,12.592911 -0.219609,3.14891 0.310128,13.66783 1.033181,20.51571 0.269459,2.552 0.570317,6.22715 0.668573,8.167 0.192022,3.79109 -0.08343,5.14652 -1.656637,8.152 -0.414861,0.79255 -1.034637,2.089 -1.37728,2.881 -0.342646,0.792 -0.943334,1.77352 -1.334864,2.18116 -1.006413,1.04781 -0.546605,1.25901 0.70377,0.32325 0.57679,-0.43166 2.013363,-1.31868 3.192384,-1.97116 1.17902,-0.65247 2.33102,-1.36945 2.56,-1.59329 0.228979,-0.22384 0.920326,-0.60883 1.536326,-0.85554 0.616,-0.2467 1.84,-0.96869 2.72,-1.60442 0.88,-0.63573 2.076854,-1.34894 2.659674,-1.58491 0.582819,-0.23597 2.094819,-1.19703 3.36,-2.13569 1.26518,-0.93865 2.489712,-1.70952 2.72118,-1.71302 0.231469,-0.004 1.167469,-0.76383 2.08,-1.6896 0.912532,-0.92577 2.163146,-2.03625 2.779146,-2.46774 1.740739,-1.21933 4.030221,-3.46462 5.020278,-4.92338 0.494848,-0.72911 1.124736,-1.57585 1.399757,-1.88163 0.939181,-1.04425 2.547155,-5.51984 3.01937,-8.40403 0.259341,-1.584 0.616752,-4.824 0.794243,-7.2 0.565456,-7.5695 0.691504,-8.76077 1.126413,-10.645747 0.893702,-3.873453 4.911979,-9.150602 7.963829,-10.458778 1.60647,-0.688611 2.05169,-0.329555 0.5526,0.445658 -1.32621,0.685808 -4.35732,4.134889 -5.88258,6.693757 -1.054665,1.769372 -1.388934,2.73096 -1.724195,4.96 -0.514742,3.42233 -0.514419,3.24511 -0.006,3.24511 0.233069,0 0.989069,0.57365 1.680005,1.27478 1.70383,1.72898 3.64695,2.35001 6.79787,2.17262 2.28714,-0.12876 2.64782,-0.25361 5.17837,-1.79266 2.97993,-1.81236 4.52543,-2.1257 5.10874,-1.03578 0.18219,0.34043 0.33126,1.91771 0.33126,3.50506 0,2.73098 0.0439,2.917 0.81692,3.46104 0.44931,0.31622 1.42131,1.10682 2.16,1.7569 0.85378,0.75135 1.8094,1.25914 2.62308,1.39383 1.81236,0.3 3.10767,1.18493 3.96359,2.70784 0.99948,1.77834 1.79239,8.28807 1.32046,10.84096 -0.17823,0.96412 -0.32405,1.80946 -0.32405,1.87852 0,0.14535 1.60574,-1.06707 2.65294,-2.00311 0.91496,-0.81784 1.26727,-1.5583 2.51217,-5.28 1.83459,-5.48456 1.40718,-9.15699 -1.74645,-15.00619 l -1.65727,-3.07381 -0.0259,-5.12 c -0.0235,-4.645984 -0.0936,-5.261066 -0.75766,-6.643677 -0.46599,-0.970269 -1.21231,-1.845539 -2.0548,-2.40984 -0.91836,-0.615107 -1.354,-1.152313 -1.42429,-1.75632 -0.12172,-1.04608 0.74417,-1.2292 1.06296,-0.224797 0.11266,0.354951 0.74782,0.922378 1.41147,1.260951 0.96144,0.490489 1.3794,1.013907 2.05674,2.575725 0.79899,1.842326 0.85009,2.257641 0.85009,6.909689 0,4.708999 0.0409,5.030679 0.84196,6.618909 0.46309,0.91815 0.93109,1.74136 1.04,1.82936 0.31453,0.25412 1.01079,2.17879 1.85219,5.12 0.95721,3.34601 0.82735,5.68392 -0.5545,9.98332 -0.51681,1.60795 -0.93965,3.10808 -0.93965,3.33363 0,0.22554 -0.36,0.79852 -0.8,1.27329 -0.93845,1.0126 -0.94671,1.07919 -0.32,2.57912 0.264,0.63184 0.47683,1.59921 0.47297,2.14972 -0.008,1.17418 -0.94369,3.37236 -1.70226,4.0001 -0.29189,0.24155 -0.53071,0.64981 -0.53071,0.90725 0,0.46711 -1.79197,2.41094 -6.47907,7.02815 -1.63916,1.61473 -2.38062,2.56124 -2.1885,2.79376 0.15982,0.19341 1.01009,1.74043 1.88951,3.43781 0.87942,1.69739 1.84321,3.45894 2.14175,3.91457 l 0.5428,0.82843 1.67018,-2.31458 c 2.41119,-3.34148 2.54085,-3.78714 2.23029,-7.66571 -0.14485,-1.80887 -0.26866,-3.43286 -0.27516,-3.60886 -0.006,-0.176 0.2042,-0.32 0.4682,-0.32 0.3372,0 0.53681,0.47598 0.67096,1.6 0.31267,2.61967 0.92869,5.91998 1.21307,6.49905 0.14612,0.29752 1.18599,2.46111 2.31082,4.80796 1.89576,3.95533 2.48789,4.8178 3.32515,4.84326 0.19644,0.006 0.32,-1.50378 0.32,-3.91027 z m -36.49313,-34.99259 c 0.28193,-0.28192 2.41621,-1.17466 4.74286,-1.98387 l 4.23027,-1.47129 7.34455,0.0268 c 5.97912,0.0218 7.24207,-0.0482 6.79331,-0.37629 -0.30319,-0.2217 -1.15647,-0.49986 -1.89619,-0.61815 -0.73972,-0.11829 -1.5891,-0.43602 -1.88751,-0.70607 -0.44308,-0.40098 -1.46503,-0.48455 -5.5735,-0.45576 -2.76701,0.0194 -5.16285,0.11679 -5.32408,0.21644 -0.30428,0.18805 -1.6616,0.44699 -2.49658,0.47628 -0.264,0.009 -0.84,0.13864 -1.28,0.28752 -0.44,0.14888 -1.46374,0.35889 -2.27499,0.4667 -1.30221,0.17305 -1.60057,0.37256 -2.54715,1.70316 -0.5897,0.82893 -1.17067,1.55005 -1.29104,1.60248 -0.377,0.16422 0.0862,1.34466 0.52764,1.34466 0.23091,0 0.65049,-0.23067 0.93241,-0.51259 z"
         id="outline" />
    </g>
  </g>
</svg>
