<?xml version="1.0" encoding="UTF-8" standalone="no"?>
<!-- Created with Inkscape (http://www.inkscape.org/) -->

<svg
   version="1.1"
   id="svg9"
   width="192"
   height="288"
   viewBox="0 0 192 288"
   xmlns="http://www.w3.org/2000/svg"
   xmlns:svg="http://www.w3.org/2000/svg">
  <defs
     id="defs13" />
  <g
     id="g15">
    <g
       id="g177"
       transform="translate(3.7808913,4.1834395)">
      <path
         id="whites"
         style="fill:#ffffff;stroke:#1bff54;stroke-opacity:0"
         d="m 101.63145,73.238329 c 0.0699,1.531288 1.31896,3.113756 1.70273,4.488944 0.87066,1.103977 2.17825,1.837427 3.33885,2.410313 1.03444,0.544077 6.03756,0.747191 9.3317,0.287468 3.45515,-1.891088 4.78446,-2.253725 4.99758,-3.184278 0.14675,-0.908778 -0.01,-2.047849 -2e-5,-2.896806 0.0815,-1.477888 0.11816,-1.90226 -1.12772,-2.609338 -3.27664,-0.09209 -7.05252,-0.459058 -9.97297,-0.398024 -1.3799,-0.300302 -5.64804,0.858985 -8.27015,1.901721 z m -27.906634,-2.47666 c -1.374756,0.15713 -3.099963,0.170172 -4.024578,1.061428 -0.62461,2.084771 -1.015448,4.049471 0.729715,5.594596 1.87363,0.687757 4.185253,1.952947 6.058966,2.16708 2.155096,0.432408 4.573943,-0.463895 6.257989,-1.127755 1.776659,-0.141367 1.916681,-3.266437 2.233431,-5.019666 0.325542,-1.187153 -0.695964,-1.366097 -2.144969,-1.923849 -3.08777,-0.0864 -5.990558,-0.612072 -9.110554,-0.751834 z"
         transform="translate(-3.7808913,-4.1834395)" />
      <path
         style="fill:#f0ece1;stroke-width:0.32"
         d="m 50.642003,104.75372 c -2.662214,-1.31242 -5.678423,-5.689228 -5.890279,-9.350674 -0.186636,-3.225575 0.682372,-5.587287 2.923998,-7.31218 1.362717,-1.048586 1.712719,-1.371783 2.145132,-2.578116 0.70888,-1.977626 1.04173,-1.583124 0.293468,-1.583124 -0.560855,0 -0.33248,0.402461 -0.940436,2.184941 -0.120057,0.352 -1.679592,1.057433 -2.633316,1.805433 -1.716391,1.34615 -1.680199,1.589988 -4.253206,1.65185 l -2.697514,0.06486 -1.541021,-1.684278 c -2.929976,-3.202353 -3.280504,-5.533569 -1.136657,-8.882139 0.788758,-1.232 1.976073,-2.626931 2.341218,-3.198931 0.599852,-0.746733 0.775222,-1.170378 0.833797,-1.313485 -0.09296,-0.150416 0.608099,-0.558875 1.042675,-0.967137 C 41.564438,73.182474 41.92,72.955827 41.92,73.087075 c 0,0.131251 0.21424,0.02438 0.476093,-0.237453 0.354237,-0.354236 1.188694,-0.467808 3.260288,-0.443724 1.909376,0.02221 2.824505,-0.08855 2.91248,-0.35248 0.07055,-0.211664 0.295424,-0.562276 0.499712,-0.779133 C 49.272858,71.057427 49.48919,70.592 49.549312,70.24 c 0.06012,-0.352 0.241021,-0.688298 0.401994,-0.747331 0.160976,-0.05903 0.211286,-0.239034 0.111801,-0.4 C 49.963626,68.931702 50.058723,68.8 50.274448,68.8 c 0.215722,0 0.297469,-0.09475 0.181661,-0.210557 -0.115805,-0.115808 -0.07634,-0.372278 0.0877,-0.569939 0.164042,-0.197661 0.366218,-0.734141 0.449274,-1.192176 0.125264,-0.690784 0.0486,-0.806013 -0.449594,-0.675731 -0.330332,0.08638 -0.10814,0.499793 -0.07956,0.612913 -0.437864,1.195224 -1.055865,2.566521 -1.445849,3.576108 0.280055,0.45314 -1.632366,1.389254 -2.234452,1.21279 -0.298993,-0.08763 -1.41999,0.213669 -2.29999,0.172671 -1.778342,-0.121371 -3.589589,-1.179985 -4.708995,-2.190515 -0.689712,-0.77904 -1.044228,-1.756792 -1.075552,-2.730564 0.07479,-1.929246 1.391109,-5.358704 3.116586,-6.354954 1.101845,-0.455201 2.256746,-1.747002 3.02287,-2.268492 1.469342,-0.523166 3.442255,-0.686124 4.788938,-0.731825 2.493789,-0.178469 1.755434,0.299235 2.521141,-0.462061 0.349631,-1.515731 0.453661,-3.19741 0.514066,-4.990849 0.08573,-1.934249 0.05103,-4.00432 0.03755,-4.600157 0.426924,-0.953255 0.655861,-2.240658 0.955565,-3.05557 0.258995,-0.484 0.861642,-1.657072 1.33921,-2.836163 0.477568,-1.179088 1.262891,-2.589428 1.592277,-2.94298 0.329382,-0.353552 0.514079,-0.673994 0.567608,-0.803073 0.187635,-0.452462 0.36182,-1.011314 1.10982,-1.822175 0.748,-0.810858 1.822465,-1.936005 2.34948,-2.576767 1.020133,-1.107822 2.340756,-2.002514 3.247321,-2.862479 0.996996,-1.128906 2.396386,-1.661884 3.439561,-2.431273 2.062245,-1.515539 3.734632,-2.574021 5.813373,-3.674354 0.960729,-0.429098 5.808073,-0.873288 8.294265,-0.361545 3.463674,0.712936 6.777879,2.941308 7.608298,4.981643 0.272003,0.668305 0.488808,3.725774 0.442958,10.441896 -0.05267,7.713738 0.09217,9.780911 0.512593,11.583733 0.399661,1.713818 0.309294,2.419584 0.01037,2.694352 -0.468329,0.969984 -0.06876,0.24255 -1.427834,1.366129 C 87.851201,55.900217 87.294189,56 86.1644,56 c -0.755197,0 -1.842038,0.173775 -2.14765,0.0039 -0.854474,-0.474825 -3.217416,-1.446197 -4.110568,-1.697608 -0.44,-0.123856 -2.170907,-0.550479 -3.578907,-1.139164 -3.32048,-1.388291 -6.110122,-2.137936 -7.735869,-1.769987 -3.064925,0.693674 -7.799063,4.923608 -7.799063,7.217572 0,0.372845 -0.981847,2.023355 -1.409021,3.72725 -1.189613,4.745081 -0.87165,5.898918 -0.267163,8.61597 -0.0057,2.254317 1.035647,5.057663 0.486811,6.8122 -0.778946,0.486212 -1.33584,1.572822 -1.770229,2.194221 -0.671732,0.960618 -1.00339,3.020524 -0.526888,4.484326 0.227626,0.667846 0.543045,2.05422 0.527016,2.395497 -0.0074,0.15632 -0.474936,0.37232 -0.312882,0.48 0.162055,0.107677 1.101477,1.009082 1.552495,2.003123 0.451017,0.994042 1.216543,1.859862 1.586501,2.22982 0.656423,0.656423 0.382364,1.882833 -0.100865,1.882833 -0.520435,0 -0.391304,1.991549 -0.60532,4.848329 -0.28536,3.809148 -1.755939,6.325408 -3.470656,6.924548 -1.60255,0.55996 -4.617217,0.14371 -5.840136,-0.45912 z m 2.320728,-6.069258 C 54.297525,97.836196 54.878618,93.652336 53.76,92.64 c -0.352,-0.318557 -0.64,-0.772874 -0.64,-1.009597 0,-0.780601 -0.206364,-0.334935 -0.961013,0.723094 C 51.539643,93.22183 50.72,93.681242 50.72,95.710819 c 0,1.589933 0.622129,2.484164 0.909384,2.830289 0.468192,0.564135 0.699171,0.546378 1.333347,0.143354 z m -1.710074,-1.038299 c -0.347923,-0.915104 -0.384766,-3.835531 -0.08541,-4.615627 0.291958,-0.760829 1.988492,-0.754792 2.57144,0.134897 0.353379,0.539328 0.320396,1.604796 0.177657,2.326418 -0.540928,2.734637 -2.043516,3.785474 -2.663682,2.154312 z M 44.195709,81.76 C 44.961034,79.731875 44.976851,78.447885 44.24,78.164688 43.766109,77.98256 43.803014,77.9152 44.48,77.72663 45.172512,77.533734 44.992353,77.840002 43.974843,77.81239 41.946887,77.757359 40,79.709242 40,82.002947 40,85.124544 42.991437,84.951328 44.195709,81.76 Z m -3.505795,1.890781 c -0.826905,-1.008547 -0.396184,-3.470229 0.714571,-4.686351 0.849655,-0.930249 1.591087,-1.238684 2.327487,-0.903158 0.959111,0.436999 0.972118,1.795465 0.243887,3.538364 -0.861744,2.062448 -2.549557,2.949292 -3.285945,2.051145 z m 6.136947,-17.60201 c 0.877776,-0.865376 1.397715,-1.623088 1.262598,-1.84 -0.126342,-0.202825 -0.188381,-0.688723 -0.137862,-1.079779 0.05051,-0.391053 -0.169927,-1.070528 -0.489875,-1.509942 -0.645639,-0.886724 -1.143085,-1.083421 -0.857444,-0.33905 0.111965,0.291776 6.4e-4,0.48 -0.283632,0.48 -0.566691,0 -2.152057,1.846387 -2.182374,2.54169 -0.145178,3.32966 -0.163398,3.218806 0.529005,3.218553 0.367001,-1.34e-4 1.338816,-0.662297 2.159584,-1.471472 z m -2.263664,-0.645328 c 0.09154,-0.812105 0.44871,-1.856105 0.793721,-2.32 0.682058,-0.917081 1.975303,-1.312297 2.047453,-0.625699 0.200221,1.905318 0.07334,2.377498 -0.844371,3.142256 -0.528,0.44 -1.008,0.908 -1.066666,1.04 -0.05867,0.132 -0.329395,0.24 -0.601619,0.24 -0.399133,0 -0.462729,-0.28584 -0.328518,-1.476557 z m 85.205043,36.659907 c -2.69344,-0.72438 -4.45176,-3.237654 -4.84725,-7.050383 -0.18336,-1.76761 0.0292,-1.637473 -0.45137,-1.763144 -0.86073,-0.225085 -1.26724,-1.498026 0.35807,-3.236032 1.642,-1.755847 4.83319,-7.32326 5.41443,-9.853791 0.42785,-1.862739 0.43883,-4.376893 -0.0155,-5.794102 -0.17528,-0.546756 -1.03609,-1.503427 -2.16647,-2.422501 l -2.41066,-1.960034 0.28545,-3.532406 c 0.005,-4.177117 -0.53109,-6.977077 -2.19433,-10.381823 -1.53569,-3.143632 -1.30647,-3.488583 -1.58719,-2.278746 -1.04737,-0.604882 -3.45541,-2.554656 -4.71974,-3.208408 -4.09931,-2.088701 -5.4929,-2.340306 -8.10965,-2.011736 -2.78465,0.349654 -2.7864,0.28705 -5.87393,2.258151 -6.256064,3.99392 -9.178618,5.286458 -11.183511,5.28808 -1.825961,0.0016 -2.479606,-0.81933 -1.998902,-2.218258 0.167821,-0.488377 0.05051,-1.330559 -0.06957,-1.986182 C 90.078101,51.256416 89.958693,46.112 89.818171,40.48 89.67765,34.848 89.674686,29.937818 89.544033,29.453818 89.356407,28.75876 89.634109,28.48 90.042694,28.48 c 0.284519,0 0.329671,-0.234943 0.329671,-0.369209 0,-0.134265 0.214847,-0.417538 0.553884,-0.591273 0.339037,-0.173734 1.677739,-1.018539 2.936673,-1.877342 3.252077,-2.21846 5.668093,-2.968281 9.679048,-2.925382 3.14699,0.03366 3.63586,-0.146854 7.28814,1.423709 3.67628,1.580875 7.75986,4.488409 8.54971,5.964256 0.16856,0.31495 1.31077,1.211399 2.1221,1.79394 1.63328,1.172704 2.30733,2.971727 4.63305,8.741301 2.21095,5.484851 2.35501,5.655586 4.4596,7.17703 2.35622,1.703347 3.924,2.739675 6.32908,3.395778 5.44641,1.485769 8.6823,8.764758 4.93308,10.953574 -3.7479,2.188045 -7.91751,3.124831 -9.46786,1.683663 -1.46336,-1.360297 -1.98273,-2.165142 -2.51052,-1.828556 -0.38589,0.246093 0.0779,0.324864 1.50201,1.606076 2.1503,1.934532 2.87348,1.908804 5.6384,1.140087 1.12427,-0.312573 2.53271,-0.244208 3.29388,-0.120688 1.2523,0.203219 3.68009,1.46237 3.68009,1.884306 0,0.125431 0.41345,0.537575 0.7659,0.915879 1.36306,1.463075 1.80998,7.104615 1.11629,11.328608 -0.37575,2.287994 -2.22404,4.152656 -5.58177,4.114326 l -2.09383,-0.0239 -1.78787,-1.697699 c -1.4207,-1.349053 -1.00847,-1.578619 -1.19574,-1.090584 -0.31148,0.811693 0.58777,2.058202 1.81543,2.816942 0.56282,0.34784 1.48376,0.632438 2.12299,0.632438 1.01568,0 1.34987,0.535325 1.34987,1.211124 0,0.472128 0.18143,0.706644 0.71093,1.09236 0.82338,0.599792 1.21769,1.072944 1.33793,4.068144 0.14653,3.650038 -0.36452,5.791927 -1.61046,7.263115 -0.48247,0.569689 -1.21437,1.227072 -1.62645,1.843072 -0.51368,0.767866 -1.44011,1.603335 -2.94663,2.316355 -2.38616,1.12934 -4.12739,1.40719 -6.60108,0.7419 z m 3.99003,-7.502256 c 1.77033,-1.117561 2.33202,-2.07438 2.06217,-3.512825 -0.28472,-1.517664 -1.34584,-2.236042 -2.92448,-1.979866 -0.6444,0.104573 -1.3619,0.380397 -1.59445,0.612944 -0.61636,0.616365 -0.75745,4.233491 -0.19637,5.034544 0.59075,0.843411 1.12086,0.812483 2.65313,-0.154797 z m -2.24619,-0.661926 c -0.4332,-1.139392 -0.3907,-3.452544 0.0719,-3.915168 0.2112,-0.2112 0.9744,-0.384 1.696,-0.384 1.6305,0 2.08,0.430272 2.08,1.991046 0,1.108468 -0.14077,1.312327 -1.50265,2.176 -1.82835,1.159504 -1.95201,1.166471 -2.34527,0.132122 z m 8.15011,-18.230448 c 1.10411,-1.104115 1.2981,-2.114214 0.66304,-3.452506 -1.57507,-3.319216 -3.30163,-2.309484 -2.6507,1.550192 0.27885,1.653434 0.69692,2.713594 1.07011,2.713594 0.0584,0 0.47134,-0.365075 0.91755,-0.81128 z M 138.52927,75.84 c -0.74828,-2.34977 -0.67852,-5.570755 0.11399,-5.263696 0.5811,0.225142 1.51674,1.996688 1.51674,2.871786 0,0.650828 -1.48946,2.835529 -1.63073,2.39191 z M 136.4214,57.31655 c 0.65988,-0.659868 0.8864,-0.908471 0.88555,-1.659508 -0.002,-1.406441 -0.82998,-2.820336 -1.6955,-2.820336 -1.46268,0 -2.98026,2.76093 -2.44858,4.257455 0.59624,1.678253 1.78951,1.691417 3.25853,0.222389 z m -2.99218,-0.0182 c -0.42653,-1.243765 -0.36354,-2.348021 0.65948,-3.525348 1.06705,-1.134298 2.0193,-1.10968 2.65233,0.114464 0.87958,1.700928 -0.1507,3.988168 -1.90413,3.988168 -0.69262,0 -1.54529,-0.218686 -1.40768,-0.577284 z"
         id="hair1" />
      <path
         style="fill:#ecd9c1;stroke-width:0.32"
         d="m 89.28,110.9848 c -4.04753,-0.83859 -5.458371,-1.30613 -9.12,-3.02228 -1.122032,-0.52589 -4.725738,-3.36854 -7.100845,-5.60125 -0.913465,-0.8587 -1.777465,-1.56357 -1.92,-1.56638 C 70.782061,100.78785 69.341267,99.433856 66.88,96.792333 65.736,95.56455 64.395824,94.250608 63.90183,93.872461 62.678419,92.935955 60.261008,89.264378 59.152179,86.658666 58.491072,85.105088 58.24,83.990118 58.24,82.607818 c 0,-1.707328 0.116218,-2.046368 1.108627,-3.234205 1.485443,-1.777962 1.429623,-2.980698 0.725431,-6.692189 -0.716829,-3.778099 -0.81248,-6.223234 -0.09098,-9.353852 0.696022,-3.020083 0.957186,-4.273497 1.382658,-4.273497 0.200524,-0.239678 0.618942,-0.876521 0.660374,-1.171703 0.427437,-0.600282 0.505271,-0.656573 0.270266,-0.801815 -0.09176,-0.347145 -0.821671,1.054293 -1.402123,0.194228 -0.274242,-0.827535 2.62438,-2.617375 4.012895,-3.617113 2.274774,-1.63785 2.684701,-1.817709 4.142867,-1.817709 2.08104,0 4.933629,0.736007 7.310688,1.886253 1.03361,0.500163 2.383293,1.014499 2.999293,1.142976 0.616,0.128477 1.408,0.410333 1.76,0.626342 0.980074,0.601444 3.336733,1.16496 5.178826,1.238346 1.420508,0.05659 1.790131,-0.05969 2.572771,-0.809376 l 0.913945,-0.875459 0.574528,0.670998 c 0.495626,0.578851 0.848308,0.653568 2.568077,0.544061 1.618554,-0.103062 2.621664,-0.442448 5.332701,-1.80423 1.836536,-0.922509 4.347156,-2.324701 5.579156,-3.115984 2.54756,-1.636231 3.69879,-2.017709 6.45383,-2.138586 1.81205,-0.0795 2.19672,0.04174 5.62349,1.772394 l 3.6784,1.857734 1.90642,1.407292 c 3.36352,2.228856 1.97552,2.087976 2.73411,3.383873 0.19051,1.392386 1.14478,1.785266 0.89084,7.363655 l -0.25354,5.569711 2.08681,2.174032 2.08681,2.174035 -0.16002,2.806503 c -0.15071,2.643203 -0.26507,3.010115 -1.96546,6.305965 -0.993,1.924707 -2.3446,4.090822 -3.00357,4.81359 -3.50921,3.848982 -6.29614,6.552285 -8.39812,8.146128 -1.31593,0.997814 -2.11889,1.681072 -6.55726,5.579754 -0.80146,0.704 -2.06595,1.625 -2.80997,2.04666 -0.74402,0.42166 -2.28877,1.37806 -3.43277,2.12534 -3.594148,2.34773 -9.073626,4.65385 -10.905111,4.58957 C 91.212701,111.30041 90.072,111.14887 89.28,110.98478 Z m 25.44,-32.262208 c 3.27183,-0.759872 5.1642,-1.604349 6.51939,-2.909286 2.26924,-2.185108 3.02651,-6.051968 1.54098,-7.868752 -0.40679,-0.497504 -1.12275,-1.571303 -1.59102,-2.386215 -1.06587,-1.854909 -2.4333,-2.452982 -6.62698,-2.898441 -9.49626,-1.008711 -20.425071,2.331536 -22.208031,6.787593 -0.536345,1.340464 -1.472157,1.823069 -2.85976,1.4748 C 88.913078,70.776346 88.631958,70.328902 88.216218,68.8876 87.620589,66.822659 87.305744,66.345213 85.92,65.405498 81.036358,62.09375 69.527514,61.668253 64.732806,64.622182 c -1.496851,0.922183 -2.721123,2.951092 -2.899235,4.804714 -0.199062,2.071686 0.73361,4.008691 2.843658,5.905805 1.407635,1.265587 1.93207,1.506569 4.64079,2.132499 2.623661,0.606272 3.602327,0.677718 6.947898,0.507222 4.542461,-0.231491 8.398301,-1.102441 9.643661,-2.178297 C 86.389696,75.379357 87.059379,74.5 87.397763,73.84 c 0.563479,-1.099037 0.729123,-1.200368 1.968739,-1.204368 0.744426,-0.0026 1.641498,-0.08141 1.993498,-0.175562 0.527094,-0.140988 0.714109,0.06783 1.060083,1.183677 0.866739,2.79544 3.521235,4.957709 6.619917,5.392368 0.704,0.09875 3.944,0.202384 7.2,0.230291 4.77071,0.04089 6.41699,-0.06468 8.48,-0.543814 z M 96.716253,77.898829 C 94.738448,76.922282 93.70336,75.674246 92.951869,73.36 92.641651,72.404672 92.215171,71.68 91.963168,71.68 91.719424,71.68 91.52,71.536 91.52,71.36 c 0,-0.176 0.142067,-0.32 0.315706,-0.32 0.173638,0 0.5151,-0.477216 0.758803,-1.060483 0.887712,-2.124592 3.755998,-4.470912 9.567461,-6.160813 1.62036,-0.471177 3.84161,-0.659895 7.45157,-0.797857 6.95941,-0.265971 10.46566,0.886219 11.40048,3.123563 0.26242,0.628044 0.73187,1.369387 1.09729,1.863646 0.54949,0.743219 0.89598,1.360789 0.73446,2.724635 -0.10742,0.906992 -0.5465,2.280085 -0.86761,2.835096 -0.74637,1.290029 -3.5499,3.119051 -5.6645,3.758482 -1.8759,0.567251 -8.40933,0.923165 -14.07366,1.209677 -3.685971,0.186444 -3.907536,0.160889 -5.523747,-0.637117 z m 16.407137,-2.34619 c 2.10173,-0.984026 3.35688,-1.605676 2.80911,-1.835241 -0.4233,-0.177404 -0.22274,-1.916201 0.29765,-2.580454 0.16505,-0.210682 0.25279,-0.786682 0.19497,-1.28 -0.0829,-0.707034 0.0248,-0.897232 0.50867,-0.898301 0.75489,-0.0016 1.06401,-0.769622 0.46521,-1.155737 -1.02301,-0.659648 -2.98289,-0.898509 -7.959,-0.97 -5.26423,-0.07563 -5.28956,-0.07259 -8.48,1.019385 -1.76,0.602384 -2.948,1.144608 -2.64,1.204941 0.374141,0.07329 0.56,0.407555 0.56,1.007152 0,1.024806 0.781446,3.067491 1.29489,3.384819 0.18952,0.11713 0.46561,0.531277 0.61353,0.920323 0.17499,0.460269 0.78933,0.762383 1.69465,1.035733 0.76522,0.231053 1.80361,0.517741 2.41961,0.763203 1.79057,0.713498 6.09142,0.381105 8.22071,-0.615823 z M 72.16,77.575299 c -4.104502,-0.566435 -6.106838,-1.359545 -7.743782,-3.067257 -3.490426,-3.641322 -2.59979,-9.022345 2.24109,-10.429625 2.628474,-0.764118 10.787266,-0.836754 13.712511,-0.09297 4.64775,1.18176 6.560146,2.937162 7.630325,5.774551 0.232339,0.616 0.543354,1.2568 0.691146,1.424 0.477251,0.539926 0.285843,1.136 -0.364788,1.136 -0.413481,0 -0.853152,0.430563 -1.265968,1.239747 C 86.323382,75.004685 84.69185,76.48 83.831059,76.48 c -0.329907,0 -1.434861,0.218566 -2.455446,0.485706 -1.865997,0.488422 -7.427773,0.856323 -9.215613,0.609593 z m 3.275408,-2.414409 c 2.77161,-0.652836 4.24711,-1.287671 4.622317,-1.988752 0.203731,-0.380676 0.331177,-0.734314 0.283213,-0.785863 -0.04797,-0.05155 0.09655,-0.53736 0.321142,-1.079581 0.30591,-0.738531 0.321197,-1.216758 0.06093,-1.906272 -0.336803,-0.892294 -0.450068,-1.070439 0.527201,-1.159452 0.345067,-0.03143 0.493418,-0.02795 0.287851,-0.08214 -1.204022,-0.317403 -8.93528,-1.811821 -12.16184,-1.603706 -1.709328,0.110253 -2.007723,0.120372 -2.570446,0.690644 -0.670835,0.67983 -1.012446,0.655954 -0.48578,1.047963 0.615315,0.457997 0.741942,1.316051 0.24,1.626269 -0.52425,0.324003 -0.363142,1.703072 0.24,2.054368 0.310787,0.181018 0.40492,0.479547 0.18293,0.484946 -0.741222,0.01802 -0.430495,0.480328 0.61707,1.023588 1.051168,0.545127 5.18593,1.946848 5.915408,2.005373 0.217475,0.01744 1.081475,-0.129875 1.92,-0.327385 z M 101.12,60.560368 c 5.10496,-1.996211 6.18072,-2.256429 10.93365,-2.644752 2.45529,-0.200602 4.00509,-0.46769 4.16378,-0.717578 0.39294,-0.618761 0.30806,-1.200668 -0.20379,-1.397084 -0.75766,-0.29074 -8.44392,0.816016 -10.55116,1.51927 -3.13728,1.047021 -7.638611,3.315366 -8.50248,4.284646 -0.44,0.493687 -0.584,0.812567 -0.32,0.708621 0.264,-0.103945 2.28,-0.892851 4.48,-1.753123 z m -17.518,0.582246 c -2.122518,-1.537545 -4.410218,-2.559945 -7.69703,-3.439897 -3.712512,-0.99392 -5.465674,-1.255882 -7.524823,-1.124375 -1.378214,0.08802 -1.529369,0.171997 -1.44,0.8 0.09328,0.655479 0.240647,0.694317 2.239063,0.590141 2.066697,-0.107737 3.130156,0.07865 9.245187,1.620381 1.333417,0.336182 3.133417,1.026963 4,1.535066 2.057427,1.206332 2.834118,1.218656 1.177603,0.01869 z m -48.056736,21.55072 c 0.01536,-0.372784 0.09118,-0.448608 0.193331,-0.193334 0.09244,0.230998 0.08107,0.507002 -0.02525,0.613334 -0.106336,0.106333 -0.181965,-0.08267 -0.16807,-0.42 z M 104.24,22.82807 c 0.22,-0.08877 0.58,-0.08877 0.8,0 0.22,0.08877 0.04,0.161404 -0.4,0.161404 -0.44,0 -0.62,-0.07263 -0.4,-0.161404 z"
         id="skin" />
      <path
         style="display:inline;fill:#1d1417;stroke-width:0.32"
         d="m 88.776726,113.62249 c -1.322131,-0.0302 -6.707907,-2.21681 -8.827705,-3.58395 -0.939962,-0.60622 -2.13953,-1.31289 -2.665709,-1.57038 -2.24846,-1.70694 -4.272447,-3.87738 -6.191741,-5.36869 -3.660305,-3.135829 -6.471823,-6.814884 -9.748633,-9.33947 -0.340413,0 -0.453741,0.830275 -0.512128,3.752013 -0.114746,5.742087 -1.321149,7.918717 -4.906583,8.852607 -1.869622,0.48697 -3.910566,0.35445 -5.701133,-0.3702 -1.362848,-0.55155 -3.660544,-3.15292 -4.801952,-5.43661 -0.937875,-1.876472 -1.094243,-2.538376 -1.199305,-5.076677 -0.0922,-2.227555 -1.44e-4,-3.152218 0.388675,-3.904109 C 44.89073,91.035139 45.12,90.498099 45.12,90.3836 c 0,-0.114499 -0.828,-0.171584 -1.84,-0.126854 -3.761306,0.166243 -3.920387,0.118278 -5.627539,-1.696746 -3.246416,-3.451549 -3.583591,-6.280688 -1.173907,-9.849971 1.949244,-2.887271 3.812316,-5.061114 5.076761,-5.923594 L 42.63063,72.05296 41.699789,71.571603 c -0.511962,-0.264745 -1.552627,-1.084781 -2.312586,-1.822294 -1.312393,-1.273635 -1.374093,-1.415434 -1.22927,-2.825123 0.239395,-2.33026 1.873469,-5.493888 3.655049,-7.076317 2.324756,-2.06489 3.630736,-2.552595 6.857421,-2.560842 3.780199,-0.0097 3.6936,0.130615 3.88761,-6.297232 0.168806,-5.592937 6.4e-4,-4.931603 2.670032,-10.509795 1.544726,-3.228182 4.433193,-6.890336 7.443165,-9.436834 2.993731,-2.53276 8.241964,-6.093126 10.12879,-6.871303 2.930848,-1.208758 7.338557,-1.197729 10.947066,0.02739 1.476979,0.501449 4.892934,2.585319 4.892934,2.984889 0,0.117443 0.189744,0.473025 0.421654,0.790182 0.357978,0.489562 0.492919,0.510881 0.893517,0.141161 0.25952,-0.239518 0.705491,-0.579487 0.991047,-0.755487 0.285552,-0.176 1.753446,-1.164146 3.261987,-2.195879 3.321824,-2.271893 4.699251,-2.784207 8.031795,-2.987311 3.11455,-0.189817 5.68714,0.340977 9.43731,1.947165 3.3256,1.424349 4.21878,2.048485 7.50225,5.242429 1.41924,1.380548 2.88416,2.717878 3.25536,2.971842 0.81614,0.558368 1.86884,2.589421 3.74226,7.22026 2.35841,5.829657 2.7224,6.394057 5.36523,8.319286 1.71107,1.246464 3.10185,1.952957 4.96113,2.520173 2.0236,0.617344 2.92522,1.10024 4.16,2.228048 0.86706,0.791933 1.6686,1.443053 1.78122,1.446934 0.41286,0.01421 1.52871,2.856259 1.71557,4.369527 0.26548,2.150048 -0.48295,3.51319 -2.63157,4.792947 -1.75421,1.044835 -1.85008,1.404579 -0.37431,1.404579 2.22798,0.57318 3.51469,1.97836 4.43986,3.66752 1.70722,3.747574 1.5848,11.157242 -0.21538,13.036224 -1.00881,1.05297 -2.3878,1.836096 -3.77893,2.146058 -1.27961,0.285107 -1.46454,1.389696 -0.35444,2.117059 2.22195,1.455878 2.35473,8.986454 0.203,11.513139 -0.29977,0.352 -0.86156,1.169475 -1.24844,1.816614 -0.71486,1.195768 -3.28738,3.114678 -5.30668,3.958398 -2.19539,0.91729 -6.24497,0.27859 -8.093,-1.27643 -1.52634,-1.28433 -2.65414,-3.737795 -2.86292,-6.228118 -0.21705,-2.58904 -0.56727,-3.380048 -1.09727,-2.47831 -1.63813,1.740805 -3.54183,3.578687 -5.2595,4.95967 -0.51741,0.501501 -2.19649,1.80153 -3.73129,2.888948 -1.5348,1.08743 -3.16683,2.47047 -3.62674,3.07344 -1.23431,1.42234 -2.78296,2.18799 -4.30272,3.25227 -1.5519,1.41698 -3.11277,2.96229 -4.96,3.81463 -2.360283,0.87413 -4.803012,1.96883 -7.021162,2.86907 -1.854363,0.7857 -3.409236,0.0718 -5.162112,-0.14769 z m 6.238167,-3.07103 c 3.22063,-1.237 5.422767,-2.32861 7.705107,-3.81946 1.144,-0.74727 2.68875,-1.70368 3.43277,-2.12534 0.74402,-0.42166 2.00851,-1.34266 2.80997,-2.04666 4.43837,-3.898675 5.24133,-4.581933 6.55726,-5.579747 2.10198,-1.593843 4.88891,-4.297146 8.39812,-8.146128 0.65897,-0.722768 2.01057,-2.888883 3.00357,-4.813591 1.70039,-3.295849 1.81475,-3.662761 1.96546,-6.305964 l 0.16002,-2.806503 -2.12358,-2.199654 -2.12359,-2.199651 -0.003,-4.134381 c -0.003,-5.11576 -0.36897,-7.462125 -1.54587,-9.91104 -2.01446,-4.191703 -1.43883,-5.135072 0.62667,-1.027008 1.76673,3.513574 2.52176,6.794729 2.52176,10.958278 v 3.314071 l 1.80164,1.705657 c 0.9909,0.938115 1.9989,2.169037 2.24,2.735383 0.51254,1.203968 0.55964,4.119878 0.0997,6.170278 -0.53241,2.373354 -3.64103,8.323101 -5.24454,10.037789 -1.61762,1.729782 -1.71748,1.979392 -0.87956,2.198512 0.45698,0.119504 0.64801,0.687113 0.91704,2.724854 0.57812,4.378826 2.37126,6.257205 6.37251,6.675415 1.71562,0.17931 2.12438,0.0933 4.17755,-0.8789 1.57844,-0.74743 2.50545,-1.420886 3.02509,-2.19767 0.41208,-0.616 1.14398,-1.586109 1.62645,-2.155798 1.24594,-1.471188 1.6319,-3.269079 1.48537,-6.919117 -0.12024,-2.9952 -0.17056,-3.186899 -0.99394,-3.786691 -0.5295,-0.385716 -0.86729,-0.932957 -0.86729,-1.405085 0,-0.675802 -0.14655,-0.773309 -1.16223,-0.773309 -0.63923,0 -1.62272,-0.284598 -2.18554,-0.632438 -1.22766,-0.75874 -2.28327,-2.568154 -1.97179,-3.379847 0.18727,-0.488035 0.46021,-0.316969 1.78992,1.121856 l 1.56896,1.697699 2.00001,-0.226278 c 2.01484,-0.227952 3.00078,-0.614147 4.40448,-1.725248 1.90201,-1.505526 1.69655,-11.123802 -0.283,-13.248598 -0.35245,-0.378304 -0.64081,-0.790448 -0.64081,-0.915879 0,-0.421936 -2.08379,-1.462179 -3.33609,-1.665398 -0.76117,-0.12352 -1.9507,-0.0043 -3.07497,0.308326 -2.76492,0.768717 -4.23864,0.419175 -6.38894,-1.515357 -1.42412,-1.281212 -1.66899,-1.641436 -1.2831,-1.887529 0.52852,-0.337053 1.48538,0.155795 2.95456,1.521805 1.54083,1.432624 4.61979,1.034896 8.83732,-1.141568 1.16391,-0.600644 1.97122,-1.844666 1.97122,-3.037575 0,-3.848237 -3.49884,-7.299613 -8.48,-8.364966 -0.528,-0.112925 -1.82308,-0.851079 -2.87795,-1.640339 -1.05488,-0.789261 -2.17454,-1.516455 -2.48814,-1.615991 -0.6268,-0.198937 -2.14898,-3.048224 -3.74638,-7.012675 -1.6601,-4.120077 -3.50575,-7.84 -3.88983,-7.84 -0.19574,0 -1.5263,-1.125486 -2.9568,-2.50108 -3.65493,-3.514658 -4.70944,-4.23265 -8.5209,-5.801706 -3.19001,-1.313226 -3.52999,-1.385076 -6.72,-1.420209 -4.215725,-0.04643 -6.02968,0.484953 -9.389792,2.750657 -1.380384,0.930786 -2.784384,1.834485 -3.12,2.008219 -0.335613,0.173735 -0.610208,0.425735 -0.610208,0.56 0,0.134266 -0.76442,0.74448 -1.048939,0.74448 -0.408585,0 0.06425,-0.315419 0.25188,0.379639 0.130653,0.484 0.352525,5.488 0.493046,11.12 0.140522,5.632 0.353747,10.776416 0.473834,11.432035 0.120086,0.655623 0.08103,1.591623 -0.08679,2.08 -0.480704,1.398928 -0.20233,1.688106 1.623632,1.686624 2.014448,-0.0016 4.750121,-1.328576 10.975497,-5.323686 2.93061,-1.880704 4.30688,-2.343373 7.2282,-2.429946 1.88865,-0.05597 2.30379,0.07493 6.09941,1.923207 l 4.07282,1.983267 c 1.5947,1.473967 2.72815,2.979538 3.08053,5.141852 0,0.427876 -0.15684,-0.318585 -2.09127,-2.17932 l -2.03613,-1.958564 -3.6784,-1.857735 c -3.42677,-1.730656 -3.81144,-1.851897 -5.62349,-1.772393 -2.75504,0.120877 -3.90627,0.502355 -6.45383,2.138585 -1.232,0.791284 -3.74262,2.193476 -5.579155,3.115984 -2.711037,1.361783 -3.714147,1.701168 -5.332701,1.804231 -1.719769,0.109507 -2.072451,0.03479 -2.568077,-0.544061 l -0.574528,-0.670998 -0.913945,0.875459 c -0.78264,0.749686 -1.152263,0.865965 -2.572771,0.809376 C 84.456733,56.660531 82.100074,56.097014 81.12,55.495571 80.768,55.279562 79.976,54.997706 79.36,54.869229 78.744,54.740752 77.394317,54.226416 76.360707,53.726253 73.985405,52.576854 71.131389,51.84 69.05479,51.84 c -1.407094,0 -1.879552,0.18984 -3.693027,1.483907 C 62.800374,55.151677 61.12,56.609709 61.12,57.00441 c 0,0.168326 0.281504,0.147452 0.646614,-0.04795 1.158068,-0.619779 1.257146,-0.01286 0.259815,1.591507 -1.498541,2.41065 -2.848407,9.096102 -2.253082,11.158803 0.623066,2.158816 1.10904,6.073744 0.895351,7.212807 -0.116298,0.619904 -0.710327,1.72422 -1.320071,2.454035 C 58.356218,80.56145 58.24,80.90049 58.24,82.607818 c 0,1.3823 0.251072,2.49727 0.912179,4.050848 1.108829,2.605712 3.52624,6.277289 4.749651,7.213795 0.493994,0.378147 1.83417,1.692089 2.97817,2.919872 2.461267,2.641523 3.902061,3.995517 4.259155,4.002557 0.142535,0.003 1.006535,0.70768 1.92,1.56638 2.375107,2.23271 5.978813,5.07536 7.100845,5.60125 3.661629,1.71615 5.07247,2.18369 9.12,3.02228 2.40055,0.49735 3.534912,0.41164 5.734893,-0.43334 z M 131.10514,94.715891 c -0.56108,-0.801053 -0.41999,-4.418179 0.19637,-5.034544 0.70186,-0.701856 2.66574,-0.868829 3.53327,-0.300406 1.02541,0.671878 1.38833,2.550889 0.69659,3.606617 -0.57016,0.870176 -2.79076,2.372442 -3.50686,2.372442 -0.25752,0 -0.67124,-0.28985 -0.91937,-0.644109 z m 2.75221,-0.948845 c 1.36188,-0.863673 1.50265,-1.067532 1.50265,-2.176 0,-1.560774 -0.4495,-1.991046 -2.08,-1.991046 -0.7216,0 -1.4848,0.1728 -1.696,0.384 -0.72039,0.720387 -0.29184,4.736 0.50543,4.736 0.1459,0 0.94146,-0.428829 1.76792,-0.952954 z m -33.3553,-0.622147 C 99.258611,92.345808 96.045533,92.101584 91.63279,92.470752 83.836806,93.12296 80.461629,93.232 79.808458,92.852752 79.31552,92.566538 79.564528,92.498963 81.12,92.496838 c 1.056,-0.0016 4.944,-0.245363 8.64,-0.542044 6.518118,-0.52322 6.799878,-0.521031 9.378845,0.07289 1.462365,0.336775 2.657965,0.756317 2.656905,0.932317 -0.003,0.438061 -0.73655,0.54295 -1.2937,0.184898 z M 86.8,85.875021 c -0.9476,-0.571354 -1.353181,-1.028483 -1.337507,-1.507514 0.01942,-0.593779 0.05304,-0.61023 0.246585,-0.120665 0.293943,0.743516 2.107264,1.833158 3.050644,1.833158 0.40934,0 1.363014,-0.468 2.119276,-1.04 C 93.368202,83.157286 93.44,83.112979 93.44,83.459546 c 0,0.463481 -2.539213,2.506726 -3.631101,2.921862 C 88.580701,86.848368 88.349901,86.809526 86.8,85.875021 Z M 99.04,79.036115 C 95.941318,78.601456 93.286822,76.439187 92.420083,73.643747 92.074109,72.527898 91.887094,72.319082 91.36,72.46007 c -0.352,0.09415 -1.249072,0.173159 -1.993498,0.175562 -1.239616,0.004 -1.40526,0.105331 -1.968739,1.204368 -0.338384,0.66 -1.008067,1.539357 -1.488185,1.954125 -1.24536,1.075856 -5.1012,1.946806 -9.643661,2.178297 -3.345571,0.170496 -4.324237,0.09905 -6.947898,-0.507222 -2.70872,-0.62593 -3.233155,-0.866912 -4.64079,-2.132499 -2.110048,-1.897114 -3.04272,-3.834119 -2.843658,-5.905805 0.178112,-1.853622 1.402384,-3.882531 2.899235,-4.804714 4.794708,-2.953929 16.303552,-2.528432 21.187194,0.783316 1.385744,0.939715 1.700589,1.417161 2.296218,3.482102 0.41574,1.441302 0.69686,1.888746 1.278361,2.034691 1.387603,0.348269 2.323415,-0.134336 2.85976,-1.4748 1.78296,-4.456057 12.711771,-7.796304 22.208031,-6.787593 4.19368,0.445459 5.56111,1.043532 6.62698,2.898441 0.46827,0.814912 1.18423,1.888711 1.59102,2.386215 1.48553,1.816784 0.72826,5.683644 -1.54098,7.868752 -1.35519,1.304937 -3.24756,2.149414 -6.51939,2.909286 -2.06301,0.47913 -3.70929,0.584704 -8.48,0.543814 -3.256,-0.0279 -6.496,-0.131539 -7.2,-0.230291 z m 11.2,-1.129817 c 4.90921,-0.513828 6.90752,-1.062346 8.99588,-2.46928 1.86408,-1.25584 2.64346,-2.519156 2.90227,-4.704327 0.16152,-1.363846 0.0804,-1.804512 -0.4691,-2.547731 -0.36542,-0.494259 -0.8791,-1.412506 -1.14152,-2.04055 -0.93482,-2.237344 -3.77768,-2.947274 -10.73709,-2.681303 -3.60996,0.137962 -5.61008,0.370906 -7.23044,0.842083 -5.811459,1.689901 -9.077779,3.549735 -9.965491,5.674327 C 92.350806,70.562784 92.009344,71.04 91.835706,71.04 91.662067,71.04 91.52,71.184 91.52,71.36 c 0,0.176 0.199424,0.32 0.443168,0.32 0.252003,0 0.678483,0.724672 0.988701,1.68 0.751491,2.314246 1.786579,3.562282 3.764384,4.538829 1.616211,0.798006 1.837776,0.823561 5.523747,0.637117 2.112,-0.106829 5.712,-0.39017 8,-0.629648 z m -5.6,-1.635828 c -0.792,-0.288512 -1.93784,-0.700915 -2.54631,-0.916457 -0.60847,-0.215539 -1.17189,-0.590368 -1.25204,-0.832954 -0.11314,-0.342441 -0.0447,-0.359181 0.30631,-0.07486 0.48547,0.39328 3.5954,1.327824 5.387,1.618816 1.70641,0.277152 5.43779,-0.515657 7.47075,-1.587315 1.01513,-0.53512 1.95091,-0.867744 2.07949,-0.739158 0.31504,0.315036 -0.68666,1.046502 -2.76691,2.02047 -2.24527,1.051226 -6.50706,1.3024 -8.67829,0.511462 z m 1.0743,-3.850489 c -0.34703,-0.83056 -0.43204,-1.668272 -0.28706,-2.828695 l 0.20599,-1.648675 -1.69662,0.236941 c -0.93313,0.13032 -2.36212,0.40767 -3.17552,0.616336 -0.813394,0.208669 -1.821394,0.330957 -2.239996,0.271754 -0.514006,-0.0727 0.277776,-0.465232 2.438906,-1.209117 3.19559,-1.099955 3.20728,-1.10137 8.48,-1.025619 6.3972,0.09191 8.67597,0.577878 8.22466,1.753984 -0.14793,0.385491 -0.41676,0.433411 -1.24663,0.222204 C 115.83612,68.660995 113.884,68.44777 112.08,68.335261 l -3.28,-0.204563 -0.007,1.374652 c -0.004,0.756058 -0.28483,1.98665 -0.62436,2.73465 -0.81027,1.785069 -1.75472,1.85433 -2.45432,0.179981 z M 81.375613,76.965706 C 82.396198,76.698566 83.501152,76.48 83.831059,76.48 c 0.860791,0 2.492323,-1.475315 3.229475,-2.920253 C 87.47335,72.750563 87.913021,72.32 88.326502,72.32 c 0.650631,0 0.842039,-0.596074 0.364788,-1.136 -0.147792,-0.1672 -0.458807,-0.808 -0.691146,-1.424 -1.070179,-2.837389 -2.938349,-4.150531 -7.586099,-5.332291 -2.925245,-0.743786 -10.686003,-0.715376 -13.314477,0.04874 -4.84088,1.40728 -6.173776,6.390269 -2.68335,10.031591 1.636944,1.707712 3.63928,2.500822 7.743782,3.067257 1.78784,0.24673 7.349616,-0.121171 9.215613,-0.609593 z M 70.88,74.739395 c -2.685558,-0.859805 -4.32,-1.67016 -4.32,-2.141849 0,-0.20945 0.221024,-0.249415 0.56,-0.101258 0.308,0.134618 1.784,0.676358 3.28,1.203869 2.613322,0.921494 2.82448,0.946281 5.38393,0.631965 1.875507,-0.230327 2.948998,-0.537908 3.627113,-1.039261 0.904663,-0.668848 0.942317,-0.67312 0.619725,-0.07035 -0.350502,0.654918 -1.873088,1.297162 -4.59536,1.938378 C 73.546848,75.60573 73.60184,75.610818 70.88,74.739395 Z m 1.239734,-2.248934 C 71.934912,72.008822 72.086192,69.019574 72.33889,68.16 c 0.212896,-0.724189 -2.662586,-0.817194 -4.427415,-0.1432 -1.778761,0.679315 -2.526064,0.215565 -1.425734,-0.884762 0.914371,-0.914371 3.907853,-1.129056 8.074259,-0.579062 6.485363,0.856112 9.955885,2.08649 4.96,1.758432 -1.584,-0.104016 -3.25553,-0.259578 -3.714509,-0.345696 -0.821283,-0.154099 -0.83215,-0.132013 -0.685577,1.393392 0.128441,1.336726 0.03021,1.691056 -0.713936,2.575434 -0.910528,1.082099 -1.984151,1.343161 -2.286244,0.555923 z M 138.31781,76.08 c -0.17631,-0.22 -0.46578,-1.261117 -0.64328,-2.313594 -0.65093,-3.859676 1.07563,-4.869408 2.6507,-1.550192 0.63506,1.338292 0.44107,2.348391 -0.66304,3.452506 -0.94038,0.940381 -0.92431,0.935462 -1.34438,0.41128 z M 140.16,73.44809 c 0,-0.875098 -0.93564,-2.646644 -1.51674,-2.871786 -0.79251,-0.307059 -0.86227,2.913926 -0.11399,5.263696 0.14127,0.443619 1.63073,-1.741082 1.63073,-2.39191 z M 96.96,61.60487 c 0.863869,-0.96928 5.3652,-3.237625 8.50248,-4.284646 2.10724,-0.703254 9.7935,-1.81001 10.55116,-1.51927 0.51185,0.196416 0.59673,0.778323 0.20379,1.397084 -0.15869,0.249888 -1.70849,0.516976 -4.16378,0.717578 -5.32003,0.434659 -5.42105,0.463482 -15.41365,4.397875 -0.264,0.103946 -0.12,-0.214934 0.32,-0.708621 z M 82.424397,61.12393 c -0.866583,-0.508103 -2.666583,-1.198884 -4,-1.535066 -6.115031,-1.541728 -7.17849,-1.728118 -9.245187,-1.620381 -1.998416,0.104176 -2.145783,0.06534 -2.239063,-0.590141 -0.08937,-0.628003 0.06179,-0.711977 1.44,-0.8 4.319971,-0.275897 11.520864,1.88329 15.221853,4.564272 1.656515,1.199972 0.879824,1.187648 -1.177603,-0.01869 z M 133.5112,58.061856 c -0.50079,-0.350768 -0.7112,-0.824134 -0.7112,-1.6 0,-0.810697 1.01723,-2.821957 1.20322,-2.708935 0.13476,0.08189 -0.57365,1.557515 -0.5035,2.647075 0.0864,1.341364 0.22246,1.051706 1.17021,1.142506 1.93908,0.185779 2.86283,-1.535325 1.92673,-3.589847 -0.53018,-1.163597 -1.08849,-1.231824 -2.26799,-0.277149 l -0.59468,0.556922 0.48588,-0.730291 c 0.68507,-1.029679 1.53743,-1.271629 2.40386,-0.170147 1.44023,1.830963 1.06552,3.995961 -0.82858,4.787369 -1.32188,0.552314 -1.41671,0.549927 -2.28395,-0.05751 z M 95.681197,48.128013 c 0.0029,-0.691811 1.367456,-2.42849 2.628214,-3.344874 2.911309,-2.116093 6.071119,-2.73991 10.203659,-2.014429 1.47781,0.259434 3.37103,0.426608 4.20715,0.371495 0.91296,-0.06018 1.47819,0.02762 1.41499,0.219795 -0.17958,0.546048 -3.0465,0.542541 -5.44546,-0.0067 -4.98992,-1.142362 -9.555971,0.296506 -12.105388,3.814678 -0.497399,0.686407 -0.903824,1.118407 -0.903165,0.96 z M 107.36,38.690832 c -1.95682,-0.743898 -4.39356,-1.068005 -7.08936,-0.130832 -1.62567,0.56515 -4.394481,2.891169 -4.691593,2.610001 -0.058,-0.05488 3.192866,-2.353145 3.620953,-2.580501 1.39408,-0.740395 4.11564,-1.228816 5.60376,-1.005658 1.82844,0.274192 6.83159,1.779362 5.44266,1.851596 -1.16963,-0.01981 -2.00642,-0.410063 -2.88642,-0.7446 z m -12,-2.629181 c 0,-0.624089 1.146762,-1.968289 2.365395,-2.609699 2.127122,-1.11958 6.463595,-0.868993 5.980275,-0.499175 -0.25641,0.196194 -2.83591,-3.71e-4 -3.33731,0.0023 -1.345522,0.0072 -2.98428,0.895161 -4.059458,2.199536 C 95.787005,35.787789 95.36,36.195946 95.36,36.061651 Z m 8.48,-3.131379 c -1.0252,-0.121565 -0.0836,-0.207786 2.62111,-0.24 2.32162,-0.02765 4.28762,0.05773 4.36891,0.189728 0.1757,0.285334 -4.71131,0.32048 -6.99002,0.05027 z M 56.631091,104.68472 c 0.611101,-0.2886 1.386848,-1.00383 1.723879,-1.58941 0.627574,-1.09039 1.209161,-4.364414 1.167481,-6.572292 C 59.498803,95.27112 60.113936,93.44 60.558115,93.44 c 0.483229,0 0.225655,-0.97623 -0.430768,-1.632653 -0.369958,-0.369958 -1.041667,-1.485958 -1.492685,-2.48 -1.086764,-1.564864 -1.424833,-3.051325 -1.891718,-4.847347 -0.460412,-1.963953 -0.08186,-3.640693 0.683251,-5.234867 0.898683,-0.859562 0.423647,-0.388629 1.613866,-1.725133 0.406644,-2.434554 0.102275,-4.725619 -0.343527,-6.818541 -0.516131,-2.388803 -0.518342,-2.73592 -0.03316,-5.205267 0.285917,-1.455178 0.860304,-3.82121 1.27641,-5.257843 0.416108,-1.436634 0.623987,-2.530125 0.461955,-2.429984 -0.162032,0.100141 -0.04481,-0.301773 0.260509,-0.893146 0.506624,-0.981302 1.153116,-1.668541 3.746851,-3.983005 2.02296,-1.805148 3.967901,-2.470342 5.935808,-2.030121 0.646297,0.144576 1.645203,0.345174 2.219785,0.445779 1.462192,0.25601 3.816375,1.07817 5.515303,1.926134 0.792,0.3953 1.98,0.816887 2.64,0.936861 0.66,0.119975 1.2,0.35561 1.2,0.523632 0,0.168026 0.252,0.306387 0.56,0.307472 0.308,9.6e-4 0.972461,0.217085 1.476579,0.48 1.415965,0.738477 3.454829,0.621939 4.212304,-0.240768 1.883267,-2.144902 1.819482,-1.927824 1.265021,-4.305261 C 89.022048,49.209965 88.938579,47.02143 88.990893,39.36 89.036749,32.643878 88.94503,29.648954 88.673027,28.980649 87.842608,26.940314 84.903674,25.05594 81.44,24.343004 78.953808,23.831265 74.106464,24.08782 73.427187,24.767098 71.289489,25.607314 69.313058,27.05681 67.52,28.16 c -2.125751,1.138398 -3.551808,2.712564 -5.397872,4.16 -0.113142,0 -0.636906,0.524259 -1.16392,1.165024 -0.527014,0.640762 -1.570208,1.828454 -2.318208,2.639312 -1.329546,1.726156 -2.671989,3.608201 -3.426067,5.411866 -0.477568,1.179091 -1.080215,2.539798 -1.33921,3.023798 -0.391045,0.941429 -0.527812,1.860051 -0.736659,2.836662 0.01347,0.595837 -0.04565,2.665908 -0.131373,4.600157 -0.156423,2.126375 -0.139766,4.352684 -0.701701,5.084663 -0.551942,1.126141 -1.814477,0.851361 -2.802594,0.774786 -1.854908,0.131412 -3.765581,0.322607 -5.218892,1.16345 -0.677346,0.677922 -1.595829,1.136819 -2.280192,1.743053 C 40.72999,61.725144 40.66526,62.985544 40,64 c -0.484463,0.685901 -0.762824,2.068399 -0.863094,2.93009 0.03133,0.973772 0.292022,1.607526 0.981734,2.386566 1.199974,1.167829 2.973385,1.89962 4.52136,2.00288 0.88,0.041 1.844634,0.14624 2.143632,0.233872 0.602086,0.176464 1.982874,-1.00983 1.702819,-1.46297 0.475508,-0.618197 0.692769,-1.261165 0.940736,-1.867893 0.304102,0 0.675619,-1.280849 0.567658,-1.708215 -0.02858,-0.11312 0.218317,-0.276349 0.548649,-0.362733 0.498192,-0.130282 0.574858,-0.01504 0.449594,0.675731 -0.243501,0.54937 -0.40661,1.321795 -0.536974,1.762115 -0.405914,0.504305 -0.619132,1.138806 -0.906802,1.650557 -0.06012,0.352 -0.276454,0.817427 -0.480739,1.034285 -0.204288,0.216857 -0.429159,0.567469 -0.499712,0.779133 -0.08798,0.263926 -1.003104,0.374678 -2.91248,0.35248 -2.071594,-0.0241 -2.906051,0.08949 -3.260288,0.443724 -1.003831,0.478332 -1.75408,1.271787 -2.270791,2.297044 -1.653296,1.911203 -2.016588,2.411465 -2.368924,3.26208 -0.383203,0.730262 -0.858321,1.202358 -1.264045,1.911254 -0.664554,0 -0.972442,2.351517 -0.509354,3.890243 0.441123,1.465735 0.650451,1.788723 2.624445,4.049399 l 1.007424,1.153731 2.603466,-0.0431 c 2.404281,-0.0398 2.694441,-0.118317 3.792576,-1.02624 1.692105,-1.399008 2.930259,-2.619741 2.899619,-2.858825 -0.01446,-0.112864 0.0088,-0.31321 0.0516,-0.44521 0.04284,-0.132 0.09589,-0.404307 0.117894,-0.605123 0.07096,-0.647741 1.09615,-1.106727 1.521629,-0.681248 0.292329,0.292329 0.285366,0.492365 -0.03037,0.872809 -0.22529,0.27146 -0.291187,0.493562 -0.146435,0.493562 0.144748,0 0.09038,0.1728 -0.12082,0.384 -0.2112,0.2112 -0.392179,0.6072 -0.402176,0.88 -0.01,0.2728 -0.839292,1.162598 -1.84288,1.977331 -2.290502,1.859472 -3.007078,3.582954 -2.907507,6.993015 0.05441,1.863379 0.259978,2.694787 1.058045,4.279187 1.42255,2.824179 3.806422,5.178869 5.630518,5.561589 1.731712,0.36333 3.293188,0.19699 4.791092,-0.5104 z M 50.95975,97.84 C 50.550723,97.32649 50.617824,93.169197 51.04,92.86817 51.216,92.742675 51.519434,92.352 51.714298,92 52.13649,91.23736 53.12,90.962352 53.12,91.606941 c 0,0.249625 0.288,0.714502 0.64,1.033059 0.804026,0.727635 0.864893,3.059309 0.126368,4.840922 -0.624566,1.506707 -0.525088,1.399798 -1.447107,1.555139 -1.02996,0.03164 -1.25371,-0.488702 -1.479511,-1.196061 z m 2.464464,-1.123766 c 0.422132,-1.52 0.423498,-2.514416 0.0045,-3.297271 -0.350745,-0.655369 -1.72831,-0.849795 -2.072713,-0.292537 -0.32457,0.525168 -0.231655,3.59406 0.138259,4.566451 0.289421,0.760809 0.432704,0.843085 0.968685,0.556233 0.345965,-0.185152 0.778521,-0.874947 0.961241,-1.532876 z M 41.28,84.234659 C 40.486656,83.989581 40,83.141085 40,82.002947 c 0,-2.267129 1.764067,-4.266809 3.903251,-4.424576 1.195475,-0.08817 1.250346,-0.06681 0.416749,0.162186 -0.528,0.145046 -0.723405,0.280758 -0.434237,0.301584 1.146231,0.08254 1.19368,1.7268 0.115591,4.005696 -0.789968,1.669849 -1.79097,2.474233 -2.721354,2.186822 z m 1.737923,-1.100246 c 0.271815,-0.388074 0.732061,-1.421687 1.022768,-2.296919 0.521271,-1.569398 0.518631,-1.599369 -0.19152,-2.174412 -0.966265,-0.782436 -1.202745,-0.743284 -2.244166,0.371561 C 39.98079,80.77337 40.063069,83.84 41.733936,83.84 c 0.451488,0 1.001462,-0.302227 1.283987,-0.705587 z m 1.040349,-16.97417 c 0.03205,-0.748134 0.06805,-1.584483 0.08,-1.858553 0.0303,-0.695303 1.615683,-2.54169 2.182374,-2.54169 0.284378,0 0.395597,-0.188224 0.283632,-0.48 -0.285641,-0.744371 0.211805,-0.547674 0.857444,0.33905 0.319948,0.439414 0.54039,1.118889 0.489875,1.509942 -0.05052,0.391056 0.01152,0.876954 0.137862,1.079779 0.315811,0.506992 -2.582112,3.311165 -3.422182,3.311472 -0.58089,2.11e-4 -0.659731,-0.175859 -0.609005,-1.36 z M 45.493334,66.64 C 45.552,66.508 46.032,66.04 46.56,65.6 c 0.917709,-0.764758 1.044592,-1.236938 0.844371,-3.142256 -0.07215,-0.686598 -1.365395,-0.291382 -2.047453,0.625699 C 44.520794,64.207677 44.19335,66.88 44.891715,66.88 c 0.272224,0 0.542951,-0.108 0.601619,-0.24 z M 83.70063,44.6028 c -2.410096,-2.092221 -6.557014,-2.821098 -10.036886,-1.764118 -2.170131,0.659155 -3.565914,0.876822 -3.18592,0.496828 0.390106,-0.390105 4.95121,-1.404624 6.322176,-1.406227 2.70895,-0.0032 6.749354,1.523779 7.99111,3.020007 0.784471,0.945228 0.174077,0.751283 -1.09048,-0.34649 z M 71.832829,38.2304 c 0.844048,-0.797283 1.593705,-1.390531 1.665904,-1.318336 0.177017,0.177021 -2.541715,2.760125 -2.909635,2.764486 -0.16,0.0019 0.39968,-0.64887 1.243731,-1.44615 z m 8.591497,-0.552739 C 80.068467,37.282947 79.50927,36.804 79.181667,36.613334 c -0.518979,-0.302051 -1.84368,-0.580753 -1.386971,-0.68716 0.974279,-0.226995 3.712309,2.033487 3.437647,2.308149 -0.08855,0.08855 -0.452157,-0.161949 -0.80802,-0.556662 z m -7.055599,-0.733583 c 0,-0.163712 0.731273,-0.794779 0.951273,-0.807857 0.22,-0.01309 0.751258,-0.08834 1.18057,-0.167235 1.055788,-0.194039 0.667145,0.141702 -0.577111,0.49855 -0.611693,0.17543 -1.554732,0.657995 -1.554732,0.476542 z m 3.405785,-1.20659 c 0.228127,-0.04959 0.530986,-0.13943 0.874646,0.0613 0.518445,0.302823 0.483671,0.3376 -0.283808,0.283808 -0.508739,-0.03566 -2.468813,0.06314 -1.709598,-0.101901 z m -6.359987,-1.521885 c -0.02163,-0.751219 4.817267,-5.064863 5.704656,-5.085426 0.354176,-0.0082 0.362077,0.08273 0.04082,0.469823 -0.219101,0.264 -0.562093,0.48 -0.762208,0.48 -0.200112,0 -0.543702,0.288 -0.76353,0.64 -0.219827,0.352 -0.567027,0.64 -0.771558,0.64 -0.204531,0 -1.060774,0.756 -1.902762,1.68 -0.9256,1.015754 -1.536633,1.48057 -1.545418,1.175603 z m 10.898073,-3.861155 c -0.422067,-0.533577 -1.070067,-1.092482 -1.44,-1.242011 L 79.2,28.840567 79.886851,28.820283 C 80.46088,28.803332 82.56,30.680772 82.56,31.211134 c 0,0.39883 -0.556682,0.01651 -1.247402,-0.856687 z m -5.242224,-0.92104 c 0,-0.176 0.873626,-0.684634 1.049626,-0.793408 0.176,-0.108774 2.816943,0.0273 2.816943,0.203299 0,0.176 -2.38152,-0.126063 -2.898013,0.258348 -0.165975,0.123531 -0.968556,0.50776 -0.968556,0.331761 z"
         id="outline" />
    </g>
  </g>
</svg>
