<?xml version="1.0" encoding="UTF-8" standalone="no"?>
<!-- Created with Inkscape (http://www.inkscape.org/) -->

<svg
   version="1.1"
   id="svg1099"
   width="192"
   height="288"
   viewBox="0 0 192 288"
   xmlns="http://www.w3.org/2000/svg"
   xmlns:svg="http://www.w3.org/2000/svg">
  <defs
     id="defs1103" />
  <g
     id="g1105">
    <g
       id="g1580"
       transform="translate(-2,-12)">
      <path
         style="display:inline;fill:#ebdc97;stroke-width:0.32"
         d="m 55.890608,113.39634 1.514474,-2.83634 -0.0051,-3.68 -0.0051,-3.68 -1.934781,-3.68 c -1.064131,-2.024 -2.457443,-4.467894 -3.09625,-5.430874 -1.402374,-2.114032 -1.602,-3.049436 -1.422192,-6.664118 0.120941,-2.431242 0.291712,-3.089869 1.344368,-5.185008 0.663207,-1.32 1.759655,-3.114742 2.436551,-3.98832 0.676896,-0.873574 1.147273,-1.723334 1.045283,-1.888358 -0.233283,-0.37746 -1.740995,1.383523 -2.96439,3.462361 -0.569645,0.967959 -0.984896,1.404269 -1.065943,1.12 C 51.13744,78.840768 49.981181,75.645926 49.194861,73.92 c -1.132576,-2.485942 -1.518912,-6.048506 -0.869354,-8.016685 0.440269,-1.334029 3.873728,-4.829264 6.347632,-6.46184 1.499447,-0.989513 4.917744,-5.417024 5.868787,-7.601475 1.881578,-4.321798 2.537005,-5.405907 4.456045,-7.370547 1.381818,-1.414653 2.611056,-2.331635 3.802029,-2.836231 0.968,-0.410124 1.976,-0.874265 2.24,-1.031424 2.348864,-1.398278 2.16431,-1.389849 6.764365,-0.308969 2.361433,0.55487 5.009494,1.359472 5.884576,1.788003 0.875081,0.428534 1.897472,0.783658 2.271981,0.789162 1.226803,0.01802 2.815648,0.898576 4.161891,2.306544 1.398966,1.463107 2.098557,2.76662 2.66688,4.969062 0.190969,0.74008 0.540742,1.53912 0.777267,1.775645 0.71185,0.711853 1.349629,2.200701 1.896426,4.427078 0.697897,2.841603 1.282121,11.728595 0.875436,13.31681 -0.171097,0.668176 -0.542243,2.140995 -0.824771,3.272931 -0.642793,2.575341 -1.010182,3.269632 -1.694243,3.201779 -1.043482,-0.103501 -1.283542,0.03539 -3.143728,1.818944 -3.190995,3.059527 -5.783264,4.272439 -10.453856,4.891315 -4.842954,0.641716 -8.079142,2.146384 -9.981978,4.641133 -0.717126,0.940199 -0.895065,1.720019 -1.439987,6.310762 -0.341965,2.880902 -0.710102,5.775203 -0.818083,6.431783 -0.228912,1.3919 -2.339075,4.8449 -4.342477,7.10588 -1.819693,2.05365 -6.50392,6.65578 -8.051632,7.91051 l -1.211933,0.98251 z M 64.309667,87.2 c 0.413187,-1.232 1.098938,-2.793606 1.523891,-3.470234 0.424954,-0.676627 0.702941,-1.299932 0.617754,-1.385123 -0.330531,-0.330531 -1.935901,2.947616 -2.655309,5.422109 -0.648685,2.231242 -0.747875,3.215955 -0.698755,6.936813 l 0.05725,4.336435 0.201958,-4.8 c 0.160077,-3.804554 0.35776,-5.264541 0.953213,-7.04 z M 59.99663,85.211824 c 0.302116,-0.917498 0.750468,-1.83513 0.996336,-2.039184 C 61.238835,82.968589 61.44,82.598269 61.44,82.349712 c 0,-0.248557 1.257539,-1.756419 2.794528,-3.350803 4.297507,-4.457984 7.336976,-6.009783 12.725472,-6.496992 3.555283,-0.321453 8.16,-2.409559 8.16,-3.70032 0,-0.16088 -0.36247,0.06996 -0.805494,0.512989 -1.283546,1.283545 -4.141376,2.369036 -7.163383,2.720873 -3.731728,0.434467 -5.710313,1.033418 -8.090003,2.448979 -2.119274,1.260653 -5.599667,4.591421 -7.602394,7.275562 -1.481068,1.984995 -2.593657,5.414061 -2.535276,7.813891 L 58.9669,91.36 59.207115,89.12 c 0.132118,-1.232 0.487398,-2.990678 0.789515,-3.908176 z M 70.24,79.545555 c 0.88,-0.464336 1.24,-0.755574 0.8,-0.6472 -1.037011,0.255421 -4.16,2.357795 -4.16,2.800483 0,0.187495 0.396,-0.03034 0.88,-0.48407 0.484,-0.453731 1.6,-1.20488 2.48,-1.669213 z m -9.051197,-3.829341 c 0.57816,-0.684083 1.105034,-1.38559 1.170835,-1.558912 0.156653,-0.412627 3.17216,-3.240246 4.556359,-4.272467 C 67.512198,69.440237 68.936,68.548845 70.08,67.903962 l 2.08,-1.172516 4.8,-0.02682 c 5.753331,-0.03215 7.269123,-0.472118 9.042448,-2.624624 0.61623,-0.748 0.993776,-1.353331 0.838986,-1.345184 -0.154788,0.0082 -0.713434,0.562413 -1.241434,1.231696 -1.528189,1.937101 -3.22672,2.397984 -8.96,2.43122 -4.016698,0.0233 -4.982771,0.124412 -5.92,0.619699 -0.616,0.325529 -1.192,0.694489 -1.28,0.819913 -0.088,0.125428 -0.664,0.46754 -1.28,0.760256 -0.616,0.292717 -1.624,0.972346 -2.24,1.510292 -2.438278,2.129312 -3.840131,3.487904 -3.842774,3.724182 -0.0016,0.136358 -0.469527,0.75505 -1.04,1.374867 -1.333764,1.44912 -3.117226,4.058835 -3.117226,4.561386 0,0.214291 0.498963,-0.32992 1.108803,-1.209357 0.609843,-0.879437 1.581843,-2.158678 2.16,-2.842762 z M 78.24,77.763312 c 3.702915,-0.5752 4.951802,-0.918835 7.2,-1.981101 2.411021,-1.1392 6.780493,-4.409475 5.903878,-4.418681 -0.184867,-0.0019 -1.122489,0.697347 -2.083603,1.553974 C 87.122723,74.822672 83.311587,76.8 81.777085,76.8 c -1.096851,0 -3.714941,0.474256 -7.857085,1.423283 -2.425638,0.555751 -1.768218,0.485751 4.32,-0.459971 z M 55.668659,70.683437 c 0.01693,-0.770323 3.125818,-3.785367 4.623984,-4.484381 1.075232,-0.50168 1.140285,-0.576806 0.366387,-0.42312 -0.931664,0.185014 -3.004227,1.627779 -4.113872,2.86377 -0.637318,0.709888 -1.831542,3.203139 -1.813817,3.786825 0.0167,0.550419 0.924013,-1.136845 0.937318,-1.743094 z m 12.67257,-5.428125 c 2.685145,-0.487437 4.168413,-1.468749 7.224205,-4.779446 3.023609,-3.275824 4.019241,-3.796704 7.314566,-3.82672 1.451475,-0.01322 1.934957,-0.111517 1.6,-0.325296 -0.264,-0.168493 -1.272,-0.216586 -2.24,-0.106874 -3.271722,0.370813 -4.08273,0.84905 -7.384688,4.354602 -3.651869,3.877036 -4.562499,4.312745 -9.79791,4.68799 -3.319024,0.237888 -3.360496,0.249658 -1.036173,0.294118 1.331677,0.02547 3.275677,-0.108796 4.32,-0.298374 z M 56.811526,62.88 c 0.191648,-0.861171 0.144404,-0.829498 -0.45894,0.307661 -0.790224,1.489382 -0.842336,1.762793 -0.213642,1.120912 C 56.39136,64.050858 56.694022,63.408 56.811526,62.88 Z m 1.829453,-2.4 c 0.334519,0 2.929088,-1.69265 3.065687,-2 0.162652,-0.365968 1.211497,-0.289094 3.244998,0.23784 1.563392,0.405114 2.033091,0.413024 3.086189,0.05197 1.578806,-0.541286 3.369318,-2.832768 3.987603,-5.103292 1.210534,-4.445463 6.24191,-6.534896 12.579862,-5.224183 2.826944,0.584624 3.112874,0.61104 2.434682,0.224912 -0.934458,-0.532029 -5.021456,-1.06504 -7.215642,-0.941037 -4.003187,0.226244 -6.991728,2.410135 -8.178544,5.976509 -0.806,2.422039 -2.436854,4.394275 -3.98775,4.822499 -0.765187,0.211277 -1.515222,0.166596 -2.57935,-0.15366 C 64.253478,58.123203 63.217821,57.92 62.777258,57.92 61.869398,57.92 59.2,59.37689 59.2,59.872374 c 0,0.17897 -0.126611,0.247146 -0.28136,0.151508 -0.391792,-0.242144 -1.993882,1.420211 -1.749619,1.815436 0.109465,0.17712 0.428569,-0.05627 0.70912,-0.518643 C 58.158694,60.858304 58.501968,60.48 58.640979,60.48 Z M 68.888474,46.914765 c 1.198812,-1.075287 3.734188,-2.3008 5.374022,-2.597616 0.648432,-0.117373 2.199382,0.01152 3.586509,0.298025 2.803315,0.57904 3.214291,0.610845 2.979261,0.230564 -0.223079,-0.360951 -3.373332,-0.800922 -5.788266,-0.8084 -3.258762,-0.01008 -7.514162,2.875799 -8.007099,5.120129 C 66.921397,49.66514 66.407235,49.92 66.282672,49.92 c -0.124563,0 -0.250845,0.323491 -0.280627,0.718867 -0.03427,0.454928 0.296313,0.07308 0.900377,-1.04 0.524989,-0.967376 1.418714,-2.175222 1.986052,-2.684102 z M 131.35322,103.2 c 0.5992,-5.890387 0.6001,-5.828864 -0.10772,-7.334688 -0.67611,-1.438358 -1.57588,-2.126944 -3.32844,-2.547238 C 127.09732,93.121488 125.12,90.8892 125.12,90.160349 c 0,-1.024995 -1.17542,-2.57833 -2.37923,-3.144189 -1.74723,-0.821296 -2.28458,-1.819725 -2.74274,-5.09616 -0.44376,-3.173562 -1.28715,-5.17505 -2.56366,-6.08401 -0.72332,-0.515049 -1.62393,-0.689286 -4.37706,-0.846806 -3.15931,-0.180765 -3.73525,-0.120986 -6.50184,0.674838 -1.66951,0.480244 -3.76936,1.220301 -4.66635,1.644573 -0.89698,0.424272 -2.153126,0.771405 -2.791437,0.771405 -1.267168,0 -4.063312,-1.20439 -4.048365,-1.743766 0.0051,-0.184928 0.300064,-1.344234 0.655421,-2.576234 0.355357,-1.232 0.845504,-2.93679 1.089216,-3.788422 0.353991,-1.236996 0.385223,-2.620746 0.15528,-6.88 -0.337779,-6.256685 -0.89223,-8.697677 -2.555709,-11.251578 -0.87095,-1.337146 -2.015033,-4.859494 -1.651398,-5.084234 0.606086,-0.374582 0.557002,-1.125408 -0.07458,-1.140819 -1.233632,-0.03011 -0.853325,-0.754323 0.516083,-0.982774 2.97111,-0.495655 7.161429,-2.118797 9.443129,-3.657847 1.26872,-0.855772 2.85162,-1.735776 3.51757,-1.955555 0.66594,-0.219782 2.6519,-1.156217 4.41324,-2.080966 3.78296,-1.986154 5.85703,-2.479824 10.43904,-2.484688 4.57198,-0.0049 6.77223,0.770237 8.32447,2.932489 0.59005,0.821917 1.81576,2.214394 2.7238,3.094394 2.07098,2.007005 2.67512,3.879594 2.67512,8.291782 0,2.639869 -0.18051,3.692906 -1.28,7.467021 -0.704,2.416557 -1.27526,4.899418 -1.26946,5.517469 0.006,0.650224 0.40621,1.797917 0.94955,2.723728 0.51645,0.88 1.17526,2.032 1.46401,2.56 0.28874,0.528 0.79562,1.176 1.12638,1.44 0.79503,0.63455 2.83298,5.537347 3.05934,7.36 0.19538,1.57312 -0.75548,5.27783 -1.7396,6.777776 -0.77254,1.177475 -2.29172,3.14527 -3.21559,4.165178 -0.66502,0.734137 -0.75658,1.08591 -0.61336,2.356556 0.0926,0.821482 0.81519,1.781432 1.18537,2.245327 1.22412,1.53399 1.51704,2.727895 1.72741,4.791434 0.30887,3.029613 -0.40176,4.099079 -2.85035,6.703729 l -2.1058,2.24 z m -2.70983,-16.183741 c -0.52292,-1.482941 -0.9536,-3.086857 -0.95708,-3.564256 -0.009,-1.258765 -1.24659,-4.440893 -2.089,-5.372003 -0.57895,-0.639907 -0.75275,-1.283786 -0.86848,-3.217504 -0.16547,-2.764685 -1.31979,-5.712077 -2.53871,-6.482214 -1.69756,-1.072544 -5.86814,-2.264352 -7.95012,-2.271872 -3.0316,-0.01094 -7.40526,1.621132 -9.50764,3.547881 -0.54234,0.49704 -1.23875,1.054423 -1.54758,1.238627 -0.30882,0.184205 -0.48917,0.544205 -0.40076,0.8 0.1143,0.33073 0.62747,-0.01363 1.77641,-1.192112 1.69865,-1.74232 3.13339,-2.595635 5.51957,-3.28279 0.792,-0.228074 1.85749,-0.541882 2.36775,-0.697347 1.51644,-0.462029 2.54622,-0.335271 5.80795,0.714928 1.88665,0.607453 3.44818,1.327043 3.99286,1.84 1.22725,1.155779 2.23144,4.088499 2.23144,6.516896 0,1.631955 0.13066,2.110937 0.76055,2.787997 0.85186,0.915654 2.11945,4.09718 2.11945,5.319609 0,1.132525 1.79948,6.445091 2.08603,6.158541 0.0815,-0.08147 -0.27973,-1.361437 -0.80264,-2.844381 z m 6.14805,-10.43104 c -0.2247,-0.09034 -0.67916,-0.694685 -1.0099,-1.342989 -1.21092,-2.373603 -3.67845,-5.237689 -6.10183,-7.082454 -1.36621,-1.040006 -3.02111,-2.622582 -3.67755,-3.516838 -1.57758,-2.149095 -4.37968,-4.399335 -5.85715,-4.703604 -0.65175,-0.13422 -2.40901,-0.247481 -3.90501,-0.251686 -2.58311,-0.0073 -2.89716,0.07232 -6.24,1.581366 -3.93107,1.774583 -8.943382,5.254269 -8.380013,5.817639 0.227629,0.227629 2.126983,-1.135181 3.576623,-2.566269 0.52613,-0.519402 2.61413,-1.748973 4.64,-2.732378 L 111.52,60 l 3.04,0.05557 c 1.672,0.03056 3.45197,0.213069 3.95548,0.405568 1.29232,0.494071 4.2454,3.090413 5.36361,4.715677 0.51915,0.754563 2.07358,2.231875 3.45428,3.282909 2.45756,1.870787 4.91409,4.722707 6.14323,7.132022 0.36975,0.724768 0.83789,1.198144 1.1699,1.182989 0.34789,-0.01587 0.40173,-0.08628 0.14494,-0.189516 z m -4.82836,-14.561805 c -0.90369,-0.73512 -1.64308,-1.442726 -1.64308,-1.572457 0,-0.129731 -0.91455,-0.747319 -2.03232,-1.372416 -1.78209,-0.996599 -2.10257,-1.32505 -2.60278,-2.667539 -0.77142,-2.070384 -1.58432,-2.88281 -3.1598,-3.157978 -1.50244,-0.262413 -7.23343,-0.236493 -8.6851,0.03928 -1.74901,0.332256 -5.28,1.540055 -5.28,1.806055 0,0.1439 -0.12655,0.261638 -0.28123,0.261638 -0.37311,0 -3.59929,1.950874 -5.0269,3.039763 -1.610744,1.22857 -1.10533,1.383837 0.5635,0.173114 2.72979,-1.980439 5.32351,-3.469984 7.33705,-4.213587 1.82843,-0.675242 2.58414,-0.756343 7.06077,-0.757732 4.78181,-0.0016 5.04917,0.03219 5.79245,0.729549 0.42859,0.402109 0.97012,1.30944 1.2034,2.016291 0.53195,1.611824 1.11964,2.286493 2.59985,2.984669 0.64289,0.303232 2.07217,1.333568 3.17617,2.289632 1.104,0.956064 2.14538,1.738301 2.31418,1.738301 0.16881,0 -0.43247,-0.601462 -1.33616,-1.336586 z m -1.32308,-6.6807 c -0.44,-0.35368 -1.20275,-0.861664 -1.695,-1.128858 -1.18376,-0.642544 -1.89087,-1.242854 -3.82757,-3.249466 -2.61346,-2.707804 -3.78169,-3.125622 -8.71743,-3.117779 -3.49734,0.0056 -4.51682,0.125821 -6.4,0.754999 -1.728,0.577324 -5.22883,2.494521 -7.49333,4.103644 -0.0733,0.05211 -0.063,0.16512 0.023,0.25113 0.086,0.08601 0.85785,-0.309987 1.7152,-0.88 3.15823,-2.099754 3.88138,-2.478557 6.07508,-3.182259 1.8004,-0.577539 2.99359,-0.720083 6.08,-0.726339 4.58343,-0.0093 5.84169,0.458611 8.38098,3.116604 1.64846,1.725524 2.11815,2.109799 4.57902,3.746333 1.62396,1.079965 2.50151,1.293866 1.28,0.311991 z M 99.920701,47.898122 c 1.372929,-1.402749 3.546619,-2.733079 7.410649,-4.535418 4.9399,-2.304166 5.59469,-2.303149 8.06578,0.01258 2.293,2.148813 2.59216,2.209824 5.37392,1.095952 2.9866,-1.195894 4.02484,-1.191696 6.95579,0.02813 3.47327,1.445533 3.36329,1.409414 2.96217,0.972758 -0.19304,-0.210147 -1.39596,-0.80734 -2.67315,-1.327097 -2.86431,-1.165639 -4.64041,-1.199827 -7.21586,-0.138903 -1.056,0.435008 -2.21187,0.791591 -2.56859,0.792407 -0.35673,9.6e-4 -1.22073,-0.583277 -1.92,-1.297981 -1.45444,-1.48654 -2.88758,-2.22055 -4.33555,-2.22055 -0.83372,0 -7.45043,2.649926 -7.97586,3.194246 -0.088,0.09116 -0.39591,0.309754 -0.68424,0.485754 -2.22498,1.358141 -4.748253,3.269856 -4.751648,3.6 -0.0062,0.607722 0.223869,0.49545 1.356589,-0.661878 z M 99.721693,94.32 c -0.316768,-1.18201 -0.227319,-3.993645 0.153654,-4.829786 0.410623,-0.901219 0.894913,-1.154774 3.987353,-2.087644 1.84474,-0.556487 3.02695,-0.676176 6.4,-0.647949 l 4.1373,0.03462 -2.32148,0.424281 c -2.83431,0.518013 -3.47925,0.715242 -3.99663,1.222208 -0.22104,0.216592 -1.3546,0.796567 -2.51903,1.288826 -2.13506,0.902601 -3.945,2.592649 -4.81022,4.4916 -0.46207,1.014137 -0.778458,1.046006 -1.030947,0.103844 z m -9.324919,0.07478 c -0.110547,-0.178871 -0.324035,-0.249178 -0.474416,-0.156237 -0.15038,0.09294 -0.589356,-0.27471 -0.9755,-0.817002 -0.386148,-0.542291 -1.081159,-1.133808 -1.544471,-1.31448 -1.100925,-0.429315 -10.746521,-0.700572 -11.478,-0.32279 -0.826985,0.42711 -2.964848,0.76655 -2.961587,0.470227 0.004,-0.365974 3.63592,-2.654499 4.212698,-2.654499 0.266371,0 1.334854,-0.299427 2.374406,-0.665392 2.809718,-0.989139 7.250723,-0.743338 9.800195,0.542426 2.035184,1.026396 2.38817,1.724016 2.008727,3.96992 -0.210864,1.248089 -0.56242,1.594448 -0.962052,0.947827 z"
         id="hair1" />
      <path
         style="display:inline;fill:#d88d65;stroke-width:0.32"
         d="M 94.88,130.37708 C 91.816534,128.87107 87.928973,126.446 86.65511,125.24639 86.0748,124.6999 84.88,123.77229 84,123.18502 c -0.88,-0.58727 -1.648,-1.18415 -1.706666,-1.32639 -0.05867,-0.14225 -0.2847,-0.25863 -0.502294,-0.25863 -0.217594,0 -0.688906,-0.324 -1.047357,-0.72 -0.358451,-0.396 -1.061104,-1.008 -1.561449,-1.36 -0.500343,-0.352 -1.493034,-1.07613 -2.205975,-1.60919 -0.712944,-0.53305 -1.985981,-1.37048 -2.828976,-1.86094 -0.842992,-0.49047 -1.994992,-1.28567 -2.56,-1.76713 -0.565005,-0.48146 -2.056505,-1.47769 -3.314448,-2.21384 C 65.988381,110.73202 64.32,109.14457 64.32,108.30781 c 0,-0.24369 0.804861,-1.6251 1.788576,-3.06978 0.983718,-1.44468 1.931261,-2.99824 2.105654,-3.45236 0.418644,-1.09015 1.128509,-5.624758 1.381604,-8.82567 0.29063,-3.6756 0.418828,-4.149123 1.489952,-5.503408 1.740348,-2.200426 4.798579,-3.520214 9.874214,-4.261242 4.182605,-0.610652 6.967072,-1.950236 9.822032,-4.725296 1.675798,-1.628902 2.889328,-2.29232 3.25792,-1.781062 0.110026,0.152618 1.0268,0.688563 2.037277,1.190995 1.57103,0.781152 2.056771,0.880589 3.352489,0.686285 0.833392,-0.124976 2.022642,-0.485981 2.642772,-0.802237 0.62013,-0.316256 2.35894,-0.950541 3.86402,-1.409523 2.25607,-0.688 3.36936,-0.834512 6.34104,-0.834512 2.11327,0 3.8937,0.15319 4.30349,0.370278 1.76862,0.936932 2.77896,3.352404 2.77896,6.643805 0,2.133107 1.08992,4.083459 2.76509,4.947991 1.06114,0.547641 1.50499,1.077664 2.30951,2.757926 1.37091,2.863216 1.6914,3.201302 3.62994,3.829203 1.23431,0.399802 1.89877,0.845856 2.44294,1.639981 0.72247,1.054326 0.73989,1.229978 0.5207,5.250816 -0.12473,2.288 -0.34026,4.448 -0.47897,4.8 -0.22342,0.56698 -4.48921,4.95409 -11.12366,11.44 -1.21521,1.188 -2.36653,2.16 -2.5585,2.16 -0.19197,0 -1.42989,0.972 -2.75095,2.16 -4.80776,4.32355 -5.87511,5.17006 -9.00507,7.14195 -5.06433,3.19055 -6.679148,3.46126 -10.23103,1.71513 z m 5.55862,-11.19444 c 0.92113,-0.27355 1.75706,-0.71175 1.85762,-0.9738 0.2312,-0.60251 -0.17106,-1.03972 -0.4867,-0.52899 -0.7031,1.13762 -7.401412,1.90079 -9.030577,1.02889 -0.373091,-0.19967 -0.656117,-0.20646 -0.618963,-0.0267 0.11465,0.55471 5.34732,1.02532 8.11811,0.20248 z M 98.928646,111.44 c 1.270444,-1.38299 2.282094,-2.97593 2.042264,-3.21576 -0.1204,-0.1204 -0.34031,-0.004 -0.48868,0.25843 -0.14837,0.26253 -0.714473,1.08933 -1.258003,1.83733 -0.900451,1.23918 -1.111581,1.36 -2.376637,1.36 -1.540732,0 -2.120006,-0.4492 -2.90088,-2.24952 -0.279312,-0.64396 -0.486921,-0.86854 -0.494185,-0.53459 -0.0183,0.84156 0.836147,2.34984 1.656848,2.92469 1.1604,0.81277 2.880489,0.64137 3.819273,-0.38058 z m -13.981169,-7.24407 c 2.595581,-0.495 4.012523,-0.87888 4.012523,-1.76448 0,-0.35483 0.37705,-0.74998 0.936867,-0.98187 1.151907,-0.47714 1.987376,-1.35715 1.686944,-1.776889 -0.123097,-0.171981 -1.071253,-0.656181 -1.994913,-1.272181 -0.923658,-0.616 -1.886027,-1.446612 -1.886369,-1.649627 -6.4e-4,-0.454169 -1.813972,-0.725142 -7.095915,-0.948969 -3.698972,-0.156752 -4.097,0.126739 -6.576005,0.882879 -1.48672,0.453479 -2.985057,0.939156 -3.273588,0.939156 -0.838605,0 -1.082618,0.232253 -0.456397,1.178233 0.319603,0.4828 1.05536,1.571118 1.494887,2.418488 0.441219,0.85062 1.366064,1.7209 1.95186,2.08442 2.343961,1.45457 6.898301,1.71124 11.200106,0.89084 z m 24.467383,-1.47033 c 2.50889,-0.44438 5.8158,-1.46756 6.81291,-2.16506 0.44,-0.30778 1.25147,-1.265831 1.80327,-2.297143 0.86354,-1.613959 1.23586,-2.028523 1.11452,-3.543397 -0.0775,-0.968 -0.21312,-2.105382 -0.30129,-2.527517 l -0.34375,-0.584074 -3.87206,0.159474 c -2.79676,0.115186 -4.31112,0.104629 -6.10784,1.011615 -1.07834,0.544342 -1.96062,1.103929 -1.96062,1.243526 0,0.139594 -0.612,0.522474 -1.36,0.850842 -1.48662,0.652617 -1.86934,1.042745 -2.67438,2.726134 -0.29458,0.616 -0.45941,1.708599 -0.78667,2.175767 -0.75614,1.079433 -1.09448,0.915813 -0.16609,1.148833 0.44039,0.11053 0.95405,0.60329 1.19404,1.14548 0.23165,0.52333 0.63986,1.01095 0.90714,1.08359 0.97788,0.26579 3.89132,-0.10049 5.74082,-0.42807 z M 91.950733,94.041658 c -0.08935,-3.831149 -0.157495,-3.974516 -2.435824,-5.124612 -2.901584,-1.464713 -6.303575,-1.62183 -10.445328,-0.482396 -1.678794,0.461849 -3.56168,1.221244 -4.256659,1.716771 -1.600599,1.141241 -2.789181,1.906144 -3.692922,2.376544 -0.865696,0.450598 -1.008643,1.414656 -0.16,1.079046 0.308,-0.121801 1.064,-0.299136 1.68,-0.394073 0.616,-0.09494 1.968493,-0.45112 3.005539,-0.791517 1.637267,-0.537411 2.227159,-0.577706 4.48,-0.306007 1.426954,0.172093 3.261386,0.235725 4.076515,0.141402 2.069802,-0.239507 3.625792,0.349091 4.450525,1.683539 0.474253,0.767357 0.915869,1.099645 1.46144,1.099645 0.539501,0 0.876093,0.247955 1.085981,0.8 0.553114,1.454797 0.812131,0.83433 0.750733,-1.798342 z m 9.108267,0.53559 c 0.63705,-1.374861 2.98126,-3.66089 4.14854,-4.04559 0.65586,-0.216151 2.06367,-0.871591 3.12849,-1.456532 1.70505,-0.936646 2.32424,-1.088969 5.19003,-1.276777 2.44716,-0.160371 3.37742,-0.110829 3.75171,0.199801 0.27373,0.227178 0.60006,0.310682 0.72518,0.185565 0.35138,-0.351376 -1.07751,-1.285427 -2.74204,-1.792445 -2.40307,-0.73198 -9.01823,-0.584361 -11.42091,0.254861 -1.056,0.368845 -2.28,0.749456 -2.72,0.845802 -1.877738,0.411165 -2.942454,3.828688 -2.097901,6.733843 0.469283,1.614278 0.567744,1.736029 1.123361,1.38904 0.33495,-0.209178 0.74604,-0.676083 0.91354,-1.037568 z"
         id="skin" />
      <path
         style="display:inline;fill:#30b2ca;stroke-width:0.32"
         d="m 78.553441,102.90164 c -0.90181,-0.2934 -0.626079,-2.52052 -0.08522,-2.89935 0.334176,-0.234069 0.737301,-1.607051 0.737301,-2.020594 0,-0.621027 0.9198,0.350304 1.514482,0.502544 0.396,0.101376 0.908166,0.447894 1.138144,0.770042 0.229981,0.322144 0.78754,0.472221 1.021031,0.472221 0.612317,0 2.363767,0.404837 0.631107,2.253777 -1.245296,1.32886 -4.545154,1.0553 -4.956841,0.92136 z m 2.226235,-1.86164 -0.01811,-0.0347 -0.348318,0.39774 c -0.590074,1.13131 -0.363024,0.27165 0.228895,0.27165 0.328608,0 0.138887,0.0773 0.137537,-0.63465 z m -5.51203,0.28068 C 75.200426,101.13779 76.82881,100.704 77.14239,100 c 0.313581,-0.704 0.833055,-1.599293 0.846108,-1.288906 0.01306,0.310388 0.157871,0.685768 0.377871,1.058368 0.320358,0.542578 -0.145829,2.841308 -0.467692,2.957858 -0.221098,0.08 -0.06656,-1.10967 0.02634,-0.95936 0.0929,0.15032 -0.426509,0.64079 -0.777721,0.61433 -0.351216,-0.0265 -1.309701,-0.35988 -1.376923,-0.54277 z m 34.386174,-1.376455 c -0.29718,-0.07841 -0.45566,0.336935 -0.72524,0.05139 l -0.18491,-0.195868 -0.48924,-0.08615 c -1.23853,-0.218086 -0.72942,-0.431632 -0.37757,-1.70593 0.50145,-1.816109 2.59295,-3.66216 2.59295,-2.163696 0,0.560839 -0.274,1.182317 0.15847,1.295411 0.352,0.09205 0.36484,0.06527 0.36484,0.220743 0,0.155472 -0.0507,0.07631 0.22373,0.07631 0.27438,0 0.54357,0.147782 0.43003,-0.03593 -0.11354,-0.183712 0.14001,-0.191175 0.36726,-0.464999 0.22725,-0.273821 0.31375,-0.487613 0.27625,-0.979549 -0.0578,-0.758775 0.0245,-1.414793 0.67061,-1.37551 0.51733,0.03146 1.59991,0.467617 1.48123,0.777018 -0.12567,0.327655 -0.0406,-0.292605 0.36167,-0.446979 0.47058,-0.18058 1.35713,1.434076 1.35713,1.87781 0,0.06887 -0.35967,0.671167 -0.85532,1.226331 -1.3905,1.557456 -3.84318,2.406793 -5.65188,1.929597 z M 114.64,97.06807 c -0.22,-0.08877 -0.58,-0.08877 -0.8,0 -0.22,0.08877 -0.04,0.161405 0.4,0.161405 0.44,0 0.62,-0.07263 0.4,-0.161405 z"
         id="eye2" />
      <path
         style="display:inline;fill:#a19251;stroke-width:0.32"
         d="m 63.097248,94.703565 c -0.04912,-3.720858 0.05007,-4.705571 0.698755,-6.936813 0.719408,-2.474493 2.324778,-5.75264 2.655309,-5.422109 0.08519,0.08519 -0.1928,0.708496 -0.617754,1.385123 C 64.23559,86.274122 63.573405,89.083754 63.356454,94.24 l -0.201958,4.8 z M 58.92345,89.573891 c -0.05838,-2.39983 1.054208,-5.828896 2.535276,-7.813891 2.002727,-2.684141 5.48312,-6.014909 7.602394,-7.275562 2.37969,-1.415561 4.358275,-2.014512 8.090003,-2.448979 3.022007,-0.351837 5.879837,-1.437328 7.163383,-2.720873 C 84.75753,68.871562 85.12,68.640717 85.12,68.801597 c 0,1.290761 -4.604717,3.378867 -8.16,3.70032 -5.388496,0.487209 -8.427965,2.039008 -12.725472,6.496992 C 62.697539,80.593293 61.44,82.101155 61.44,82.349712 c 0,0.248557 -0.201165,0.618877 -0.447034,0.822928 -0.657792,0.54592 -1.511497,3.388976 -1.785852,5.94736 l -0.240215,2.24 z m 70.02247,-0.48951 C 128.00619,86.616448 127.36,84.423414 127.36,83.702099 c 0,-1.222429 -1.26759,-4.403955 -2.11945,-5.319609 -0.62989,-0.67706 -0.76055,-1.156042 -0.76055,-2.787997 0,-2.428397 -1.00419,-5.361117 -2.23144,-6.516896 -0.54468,-0.512957 -2.10621,-1.232547 -3.99286,-1.84 -3.26173,-1.050199 -4.29151,-1.176957 -5.80795,-0.714928 -0.51026,0.155465 -1.57575,0.469273 -2.36775,0.697347 -2.38618,0.687155 -3.82092,1.54047 -5.51957,3.28279 -1.14894,1.178464 -1.66211,1.522842 -1.77641,1.192112 -0.0884,-0.255795 0.0919,-0.615795 0.40076,-0.8 0.30883,-0.184204 1.00524,-0.741587 1.54758,-1.238627 2.10238,-1.926749 6.47604,-3.558832 9.50764,-3.547881 2.08198,0.0075 6.25256,1.199328 7.95012,2.271872 1.21892,0.770137 2.37324,3.717529 2.53871,6.482214 0.11573,1.933718 0.28953,2.577597 0.86848,3.217504 0.84241,0.93111 2.07985,4.113238 2.089,5.372003 0.003,0.477399 0.43416,2.081315 0.95708,3.564256 0.52291,1.482944 0.8841,2.762915 0.80264,2.844381 -0.0815,0.08147 -0.30652,-0.26785 -0.50011,-0.776259 z M 66.88,81.698838 c 0,-0.442688 3.122989,-2.545062 4.16,-2.800483 0.44,-0.108374 0.08,0.182864 -0.8,0.6472 -0.88,0.464333 -1.996,1.215482 -2.48,1.669213 -0.484,0.453734 -0.88,0.671565 -0.88,0.48407 z m -8.96,-1.930505 c 0,-0.502551 1.783462,-3.112266 3.117226,-4.561392 0.570473,-0.619818 1.038473,-1.238509 1.04,-1.374867 0.0026,-0.236279 1.404496,-1.594871 3.842774,-3.724183 0.616,-0.537945 1.624,-1.217574 2.24,-1.510291 0.616,-0.292717 1.192,-0.634829 1.28,-0.760256 0.088,-0.125424 0.664,-0.494384 1.28,-0.819914 0.937229,-0.495286 1.903302,-0.596412 5.92,-0.619699 5.73328,-0.03323 7.431811,-0.494118 8.96,-2.431219 0.528,-0.669283 1.086646,-1.223546 1.241434,-1.231696 0.15479,-0.0082 -0.222756,0.597184 -0.838986,1.345184 -1.773325,2.152506 -3.289117,2.592474 -9.042448,2.624624 l -4.8,0.02682 -2.08,1.172515 c -1.144,0.644883 -2.567802,1.536275 -3.164003,1.980874 -1.384199,1.032221 -4.399706,3.85984 -4.556359,4.272467 -0.0658,0.173322 -0.592675,0.874829 -1.170835,1.558912 -0.578157,0.684083 -1.550157,1.963325 -2.16,2.842762 C 58.418963,79.438413 57.92,79.982624 57.92,79.768333 Z m 16,-1.54505 C 78.062144,77.274256 80.680234,76.8 81.777085,76.8 c 1.534502,0 5.345638,-1.977328 7.48319,-3.882496 0.961114,-0.856627 1.898736,-1.555917 2.083603,-1.553974 0.876615,0.0092 -3.492857,3.279481 -5.903878,4.418681 -2.248198,1.062266 -3.497085,1.405901 -7.2,1.981101 -6.088218,0.945722 -6.745638,1.015722 -4.32,0.459971 z m 59.5566,-2.631536 c -1.22914,-2.409315 -3.68567,-5.261235 -6.14323,-7.132022 -1.3807,-1.051034 -2.93513,-2.528346 -3.45428,-3.282909 -1.11821,-1.625264 -4.07129,-4.221606 -5.36361,-4.715677 C 118.01197,60.26864 116.232,60.086134 114.56,60.055571 L 111.52,60 l -3.68339,1.788006 c -2.02587,0.983405 -4.11387,2.212976 -4.64,2.732378 -1.44964,1.431088 -3.348994,2.793898 -3.576623,2.566269 -0.563369,-0.56337 4.448943,-4.043056 8.380013,-5.817639 3.34284,-1.509043 3.65689,-1.58863 6.24,-1.581366 1.496,0.0042 3.25326,0.117466 3.90501,0.251686 1.47747,0.304269 4.27957,2.554509 5.85715,4.703604 0.65644,0.894256 2.31134,2.476832 3.67755,3.516838 2.42338,1.844765 4.89091,4.708851 6.10183,7.082454 0.33074,0.648304 0.7852,1.252647 1.0099,1.342989 0.25679,0.103239 0.20295,0.173639 -0.14494,0.189517 -0.33201,0.01517 -0.80015,-0.458221 -1.1699,-1.182989 z M 54.731341,72.426531 c -0.01773,-0.583686 1.176499,-3.076937 1.813817,-3.786825 1.109645,-1.235991 3.182208,-2.678756 4.113872,-2.86377 0.773898,-0.153686 0.708845,-0.07856 -0.366387,0.42312 -1.498166,0.699014 -4.607072,3.714058 -4.623984,4.484381 -0.01331,0.606249 -0.920608,2.293513 -0.937318,1.743094 z m 10.326061,-7.166963 c 5.235411,-0.375245 6.146041,-0.810954 9.79791,-4.68799 3.301958,-3.505552 4.112966,-3.983789 7.384688,-4.354602 0.968,-0.109712 1.976,-0.06162 2.24,0.106874 0.334957,0.213779 -0.148525,0.312073 -1.6,0.325296 -3.295325,0.03002 -4.290957,0.550896 -7.314566,3.82672 -1.471012,1.593718 -3.271012,3.243513 -4,3.666214 -1.653316,0.958666 -4.395863,1.471827 -7.544205,1.411606 -2.324323,-0.04446 -2.282851,-0.05623 1.036173,-0.294118 z M 55.68,64.616234 c 0,-0.0885 0.302662,-0.73136 0.672586,-1.428573 C 56.95593,62.050502 57.003174,62.018829 56.811526,62.88 56.634205,63.6768 55.68,65.140944 55.68,64.616234 Z m 73.30506,-2.994535 c -1.104,-0.956064 -2.53328,-1.9864 -3.17617,-2.289632 -1.48021,-0.698176 -2.0679,-1.372845 -2.59985,-2.984669 -0.23328,-0.706851 -0.77481,-1.614182 -1.2034,-2.016291 -0.74328,-0.697363 -1.01064,-0.731037 -5.79245,-0.729549 -4.47663,0.0013 -5.23234,0.08249 -7.06077,0.757732 -2.01354,0.743603 -4.60726,2.233148 -7.33705,4.213587 -1.66883,1.210723 -2.174244,1.055456 -0.5635,-0.173114 1.42761,-1.088889 4.65379,-3.039763 5.0269,-3.039763 0.15468,0 0.28123,-0.117738 0.28123,-0.261638 0,-0.266 3.53099,-1.473799 5.28,-1.806055 1.45167,-0.275776 7.18266,-0.301696 8.6851,-0.03928 1.57548,0.275168 2.38838,1.087594 3.1598,3.157978 0.50021,1.342489 0.82069,1.67094 2.60278,2.667539 1.11777,0.625097 2.03232,1.242685 2.03232,1.372416 0,0.129731 0.73939,0.837337 1.64308,1.572457 0.90369,0.735124 1.50497,1.336586 1.33616,1.336586 -0.1688,0 -1.21018,-0.782237 -2.31418,-1.738301 z M 57.169021,61.839318 C 56.924758,61.444093 58.526848,59.781738 58.91864,60.023882 59.073389,60.11952 59.2,60.051344 59.2,59.872374 59.2,59.37689 61.869398,57.92 62.777258,57.92 c 0.440563,0 1.47622,0.203203 2.301456,0.451562 1.064128,0.320256 1.814163,0.364937 2.57935,0.15366 1.550896,-0.428224 3.18175,-2.40046 3.98775,-4.822499 1.186816,-3.566374 4.175357,-5.750265 8.178544,-5.976509 2.194186,-0.124003 6.281184,0.409008 7.215642,0.941037 0.678192,0.386128 0.392262,0.359712 -2.434682,-0.224912 -6.337952,-1.310713 -11.369328,0.77872 -12.579862,5.224183 -0.618285,2.270524 -2.408797,4.562006 -3.987603,5.103292 -1.053098,0.36105 -1.522797,0.35314 -3.086189,-0.05197 -2.033501,-0.526934 -3.082346,-0.603808 -3.244998,-0.23784 -0.136599,0.30735 -2.731168,2 -3.065687,2 -0.139011,0 -0.482285,0.378304 -0.762838,0.840675 -0.280551,0.462375 -0.599655,0.695763 -0.70912,0.518643 z M 127.36,55.030723 c -2.46087,-1.636534 -2.93056,-2.020809 -4.57902,-3.746333 -2.53928,-2.657993 -3.79754,-3.125897 -8.38098,-3.116604 -3.0864,0.0063 -4.2796,0.1488 -6.08,0.726339 -2.1937,0.703702 -2.91685,1.082505 -6.07508,3.182259 -0.85735,0.570013 -1.62919,0.966013 -1.7152,0.88 -0.086,-0.08601 -0.0964,-0.199018 -0.023,-0.25113 2.2645,-1.609123 5.76534,-3.52632 7.49333,-4.103644 1.88319,-0.629178 2.90267,-0.749444 6.4,-0.754999 4.93574,-0.0078 6.10398,0.409975 8.71744,3.117779 1.93669,2.006612 2.6438,2.606922 3.82756,3.249466 1.19935,0.651002 2.57386,1.771594 2.175,1.773206 -0.176,6.4e-4 -0.968,-0.429641 -1.76,-0.956339 z M 66.002045,50.638867 C 66.031827,50.243491 66.153939,49.92 66.273408,49.92 c 0.119466,0 0.312115,-0.396 0.428109,-0.88 0.28384,-1.184378 2.503465,-3.178912 4.658483,-4.186067 1.284659,-0.600391 2.278554,-0.820935 3.68,-0.816595 2.414934,0.0075 5.565187,0.447449 5.788266,0.8084 0.23503,0.380281 -0.175946,0.348476 -2.979261,-0.230564 -2.734557,-0.564838 -3.967888,-0.439817 -6.329005,0.641562 -2.14585,0.98279 -3.470458,2.228381 -4.617578,4.342131 -0.604064,1.113079 -0.934646,1.494928 -0.900377,1.04 z M 98.564112,48.56 c 0.0034,-0.330144 2.526668,-2.241859 4.751648,-3.6 0.28833,-0.176 0.59624,-0.394589 0.68424,-0.485754 0.52543,-0.54432 7.14214,-3.194246 7.97586,-3.194246 1.44797,0 2.88111,0.73401 4.33555,2.220538 0.69927,0.714704 1.56327,1.298796 1.92,1.29798 0.35672,-9.6e-4 1.51259,-0.357398 2.56859,-0.792406 2.57545,-1.060925 4.35155,-1.026736 7.21586,0.138902 1.27719,0.519757 2.48011,1.116951 2.67315,1.327098 0.40112,0.436656 0.5111,0.472774 -2.96217,-0.972758 -2.93095,-1.219828 -3.96919,-1.224026 -6.95579,-0.02813 -2.78176,1.113872 -3.08092,1.05286 -5.37392,-1.095952 -2.47109,-2.315716 -3.12588,-2.316733 -8.06578,-0.01258 -3.86403,1.802339 -6.03772,3.132668 -7.410649,4.535417 -1.13272,1.157328 -1.362835,1.2696 -1.356589,0.661879 z"
         id="hair_lines" />
      <path
         style="display:inline;fill:#2291a4;stroke-width:0.32"
         d="m 77.301142,102.11421 c -0.0833,-0.13479 0.126928,-0.22456 0.467181,-0.19949 0.850672,0.0627 1.063271,0.34068 0.304247,0.39786 -0.340983,0.0257 -0.688125,-0.0636 -0.771428,-0.19837 z M 80,101.77889 c 0,-0.16562 0.142352,-0.3891 0.316336,-0.49662 0.181395,-0.11211 0.23504,0.0164 0.125763,0.30111 C 80.229366,102.13775 80,102.23918 80,101.77889 Z m 3.338336,-1.11128 C 83.224093,100.21243 82.938394,99.84 82.703456,99.84 c -0.234941,0 -0.618672,-0.273414 -0.852739,-0.60759 -0.234064,-0.334176 -0.779162,-0.658176 -1.211325,-0.72 -0.432163,-0.06182 -1.050454,-0.374045 -1.373984,-0.693821 -0.779123,-0.77009 -1.103171,-0.174229 -1.760269,1.804107 -0.350582,1.055514 -0.894685,1.375384 -1.322461,1.407614 -0.634988,0.0478 -1.998565,0.47926 -1.673643,-0.0465 0.106576,-0.17244 0.09184,-0.88634 -0.379538,-0.80087 -0.943956,0.17117 -1.346793,-1.136328 -0.431356,-1.37572 0.331994,-0.08682 1.272579,-0.777983 1.515667,-1.283692 0.37154,-0.772922 0.92026,-0.76452 1.99154,-0.793842 0.700919,-0.0192 2.218652,-0.117325 3.274652,-0.176062 1.056,-0.05873 2.150675,-0.01962 2.502675,0.08694 0.352,0.106547 1.810712,0.267347 2.458108,0.376326 1.017539,0.171287 1.45751,0.888965 1.384672,1.572156 -0.04634,0.434668 -0.867887,0.946722 -1.013157,1.07844 -0.145267,0.131719 -0.63237,0.1532 -0.488018,-0.1108 0.366144,-0.669245 0.332607,-0.720108 -0.803602,0.710904 l -0.97471,1.22761 -0.207715,-0.82761 z M 82.88,99.2 c 0,-0.176 -0.224499,-0.32 -0.498886,-0.32 -0.274388,0 -0.409888,0.144 -0.301114,0.32 0.108774,0.176 0.333274,0.32 0.498886,0.32 0.165613,0 0.301114,-0.144 0.301114,-0.32 z m 0.32,-0.96 c 0,-0.176 -0.152499,-0.32 -0.338886,-0.32 -0.186388,0 -0.249888,0.144 -0.141114,0.32 0.108774,0.176 0.261274,0.32 0.338886,0.32 0.07761,0 0.141114,-0.144 0.141114,-0.32 z m -5.087875,2.14545 c -0.404775,-0.674023 -0.397955,-0.680842 0.153065,-0.15307 0.317194,0.30381 0.507834,0.62126 0.423648,0.70545 -0.08419,0.0842 -0.343705,-0.16439 -0.576713,-0.55238 z M 108.88,99.62807 c -0.48289,-0.194848 -0.52713,-0.951728 -0.0721,-1.232969 0.18036,-0.111469 0.30731,-0.08397 0.28211,0.06111 -0.11447,0.658919 0.0727,1.028039 0.58996,1.1632 0.37654,0.0984 0.40275,0.150231 0.08,0.158202 -0.264,0.0065 -0.66,-0.06077 -0.88,-0.149546 z m -2.6491,-0.226836 c -2.26502,-0.995866 -3.37874,-3.736089 -1.2841,-3.396176 1.06904,0.173482 2.50072,0.146965 2.52109,-0.379187 0.0703,-1.81495 2.21728,-3.705809 6.00375,-3.152995 l 3.64555,-0.16272 -0.40852,2.459064 c -0.0263,1.20864 -0.13333,1.868006 -0.50488,1.939558 -0.68268,0.131476 -1.57884,-1.486179 -1.00825,-1.959725 0.25354,-0.210419 0.41512,-0.279035 0.41512,-0.460763 0,-0.181728 -0.0587,-0.04685 -0.4107,0.271708 -0.352,0.318557 -0.64,0.772874 -0.64,1.009597 0,0.23672 -0.1594,0.430403 -0.35424,0.430403 -0.19483,0 -0.28054,-0.192035 -0.19048,-0.426742 0.11616,-0.302708 -0.11003,-0.410455 -0.77821,-0.370704 -0.51808,0.03082 -1.20031,0.09536 -1.29185,-0.05275 -0.3365,-0.544477 -1.0911,-0.404587 -1.97338,0.530194 -0.49835,0.528 -1.03136,0.96 -1.18446,0.96 -0.26613,0 -0.82718,2.13991 -0.69217,2.64 0.0871,0.322784 -0.57286,0.738384 -1.71838,0.234731 z M 107.2,97.6 c 0,-0.176 -0.0635,-0.32 -0.14111,-0.32 -0.0776,0 -0.23012,0.144 -0.33889,0.32 -0.10877,0.176 -0.0453,0.32 0.14111,0.32 0.18639,0 0.33889,-0.144 0.33889,-0.32 z m 4.16,0.605552 c 0,-0.465222 0.57252,-0.602954 0.73596,-0.177046 0.0897,0.233654 -0.0393,0.424828 -0.28647,0.424828 -0.24722,0 -0.44949,-0.111504 -0.44949,-0.247782 z m -1.16957,-0.779354 c -0.10423,-0.27159 -0.11799,-0.565302 -0.0306,-0.652691 0.0874,-0.08739 0.2357,0.134819 0.32958,0.493802 0.19941,0.762537 -0.0222,0.880285 -0.29898,0.158889 z"
         id="eye1" />
      <path
         style="display:inline;fill:#28798a;stroke-width:0.32"
         d="m 79.76,102.49941 c 0.308,-0.0805 0.812,-0.0805 1.12,0 0.308,0.0805 0.056,0.14635 -0.56,0.14635 -0.616,0 -0.868,-0.0659 -0.56,-0.14635 z M 80.342493,101.84 c 0.01235,-0.132 0.146246,-0.528 0.297507,-0.88 0.243699,-0.56712 0.277578,-0.53979 0.297507,0.24 0.01238,0.484 -0.121507,0.88 -0.297507,0.88 -0.176,0 -0.309878,-0.108 -0.297507,-0.24 z m -5.223731,-0.60001 C 74.635443,100.98675 74.24,100.64016 74.24,100.46978 c 0,-0.17038 -0.036,-0.40343 -0.08,-0.517892 -0.044,-0.114461 0.252768,-0.258896 0.659482,-0.320966 0.406716,-0.06207 0.658249,0.01859 0.558963,0.179235 -0.299309,0.484293 0.192608,1.358723 0.662848,1.178283 0.241289,-0.0926 0.438707,-0.0374 0.438707,0.12272 0,0.5447 -0.480691,0.59019 -1.361238,0.12883 z m 8.721238,0.0282 c 0,-0.0785 0.504,-0.80296 1.12,-1.609961 0.616,-0.807005 1.12,-1.593725 1.12,-1.748269 0,-0.154544 -0.54,-0.368988 -1.2,-0.47654 -0.66,-0.107552 -1.488,-0.330404 -1.84,-0.495226 -0.796528,-0.37297 1.063421,-0.09858 2.64,0.389466 1.202707,0.37231 1.292688,0.702217 0.4,1.46656 -0.352,0.301392 -0.64,0.653436 -0.64,0.782323 0,0.128883 -0.36,0.594337 -0.8,1.034337 -0.44,0.44 -0.8,0.73579 -0.8,0.65731 z m -5.44,-0.9109 c 0,-0.0675 0.288198,-0.19804 0.640442,-0.29016 0.352243,-0.09211 0.559744,-0.0369 0.461113,0.12268 C 79.329315,100.46853 78.4,100.60982 78.4,100.35732 Z m 29.68,-0.72925 c 0.22,-0.08877 0.58,-0.08877 0.8,0 0.22,0.08877 0.04,0.161405 -0.4,0.161405 -0.44,0 -0.62,-0.07263 -0.4,-0.161405 z M 73.32056,98.681229 C 73.104861,98.207821 73.092118,97.92 73.286861,97.92 73.459088,97.92 73.6,98.125984 73.6,98.377744 c 0,0.25176 0.324,0.50671 0.72,0.566563 0.718931,0.108656 0.718982,0.109107 0.0337,0.303485 -0.518061,0.146947 -0.771325,0.0081 -1.03314,-0.566563 z M 82.08,99.2 c -0.108774,-0.176 0.02672,-0.32 0.301114,-0.32 0.274387,0 0.498886,0.144 0.498886,0.32 0,0.176 -0.135501,0.32 -0.301114,0.32 -0.165612,0 -0.390112,-0.144 -0.498886,-0.32 z m 23.98437,-0.04183 c -0.36059,-0.175184 -0.84899,-0.63344 -1.08532,-1.018342 L 104.54934,97.44 l 0.71431,0.635824 c 0.39287,0.349702 1.09727,0.80601 1.56533,1.01401 0.46806,0.208003 0.63502,0.380134 0.37102,0.382518 -0.264,0.0022 -0.77503,-0.139002 -1.13563,-0.314186 z M 77.855133,98.218739 c 0.428125,-0.728489 0.428579,-0.855366 0.004,-1.123177 -0.333779,-0.210541 0.08724,-0.309098 1.39111,-0.325639 1.445719,-0.01834 1.543898,0.0052 0.432919,0.10385 l -1.436829,0.127568 0.796829,0.606547 c 0.786089,0.598374 0.786928,0.60401 0.0622,0.418182 -0.497757,-0.127628 -0.895571,0.0055 -1.233757,0.412781 -0.455158,0.548199 -0.456611,0.52881 -0.01648,-0.220112 z M 114.72,98.24 c 0.31856,-0.352 0.65119,-0.64 0.73919,-0.64 0.088,0 -0.10063,0.288 -0.41919,0.64 -0.31856,0.352 -0.65119,0.64 -0.73919,0.64 -0.088,0 0.10063,-0.288 0.41919,-0.64 z m -32,0 c -0.108774,-0.176 -0.04527,-0.32 0.141114,-0.32 0.186387,0 0.338886,0.144 0.338886,0.32 0,0.176 -0.0635,0.32 -0.141114,0.32 -0.07761,0 -0.230112,-0.144 -0.338886,-0.32 z m 24,-0.64 c 0.10877,-0.176 0.26127,-0.32 0.33889,-0.32 0.0776,0 0.14111,0.144 0.14111,0.32 0,0.176 -0.1525,0.32 -0.33889,0.32 -0.18638,0 -0.24988,-0.144 -0.14111,-0.32 z m 4.26,0.101405 c 0.231,-0.09244 0.507,-0.08107 0.61333,0.02525 0.10634,0.106333 -0.0827,0.181965 -0.42,0.16807 -0.37278,-0.01536 -0.4486,-0.09118 -0.19333,-0.193331 z M 75.52,97.28 c 0,-0.176 0.152499,-0.32 0.338886,-0.32 0.186388,0 0.249888,0.144 0.141114,0.32 -0.108774,0.176 -0.261274,0.32 -0.338886,0.32 C 75.583501,97.6 75.52,97.456 75.52,97.28 Z m 28.86082,-0.292614 c 0.0738,-0.248938 0.48636,-0.672055 0.91672,-0.940263 0.60653,-0.378 0.67453,-0.384157 0.30246,-0.02739 -0.264,0.253146 -0.67652,0.676263 -0.91672,0.940263 -0.35162,0.386464 -0.41056,0.391801 -0.30246,0.02739 z M 106.88,96.32 c 0.264,-0.170611 0.624,-0.310198 0.8,-0.310198 0.176,0 0.104,0.139587 -0.16,0.310198 -0.264,0.170611 -0.624,0.310198 -0.8,0.310198 -0.176,0 -0.104,-0.139587 0.16,-0.310198 z m 3.47918,-1.068589 C 110.60073,94.959133 111.0511,94.72 111.36,94.72 c 0.3089,0 0.75927,0.239133 1.00082,0.531411 0.402,0.486416 0.37822,0.493443 -0.28082,0.08302 -0.61744,-0.384512 -0.82256,-0.384512 -1.44,0 -0.65904,0.410419 -0.68282,0.403392 -0.28082,-0.08302 z m 4.20082,0.207783 c 0,-0.176 0.288,-0.580637 0.64,-0.899194 0.352,-0.318557 0.64,-0.435194 0.64,-0.259194 0,0.176 -0.288,0.580637 -0.64,0.899194 -0.352,0.318557 -0.64,0.435194 -0.64,0.259194 z m -6.69474,-0.460013 c -0.0139,-0.286448 0.22674,-0.718448 0.53474,-0.96 0.48662,-0.381635 0.51322,-0.376288 0.20297,0.04082 -0.19637,0.264 -0.437,0.696 -0.53474,0.96 -0.14865,0.40152 -0.18183,0.394845 -0.20297,-0.04082 z m 8.44018,-0.948448 0.11372,-1.149271 -2.2528,0.04861 c -1.25215,0.02701 -1.98485,-0.05659 -1.64957,-0.18824 0.33176,-0.130269 1.43121,-0.246976 2.44321,-0.259344 1.70786,-0.02086 1.83838,0.02922 1.81751,0.697507 -0.0124,0.396 -0.14923,1.008 -0.30414,1.36 -0.21336,0.484832 -0.25407,0.36136 -0.16793,-0.509267 z M 109.44,93.44 c 0.264,-0.170611 0.624,-0.310198 0.8,-0.310198 0.176,0 0.104,0.139587 -0.16,0.310198 -0.264,0.170611 -0.624,0.310198 -0.8,0.310198 -0.176,0 -0.104,-0.139587 0.16,-0.310198 z m 1.54,-0.538595 c 0.231,-0.09244 0.507,-0.08107 0.61333,0.02525 0.10634,0.106333 -0.0827,0.181965 -0.42,0.16807 -0.37278,-0.01536 -0.4486,-0.09118 -0.19333,-0.193331 z"
         id="eye4" />
      <path
         style="display:inline;fill:#285158;stroke-width:0.32"
         d="m 78.88,103.13205 c -1.682451,-0.15821 -4.64,-1.37624 -4.64,-1.91093 0,-0.23162 -0.115306,-0.42112 -0.256234,-0.42112 -0.377916,0 -1.706947,-2.871248 -1.490864,-3.220877 0.101677,-0.164518 0.53185,-0.299123 0.95594,-0.299123 0.553926,0 0.7192,0.135174 0.58688,0.48 -0.119578,0.31161 0.0082,0.48 0.364278,0.48 0.343149,0 0.482989,-0.170653 0.373546,-0.45585 -0.102685,-0.267596 0.165862,-0.679142 0.650284,-0.996547 0.643744,-0.421798 1.607076,-0.545187 4.380692,-0.561107 1.955513,-0.01123 4.231456,0.09504 5.057651,0.236154 1.428067,0.243907 2.817827,1.126195 2.817827,1.788892 0,0.518 -2.330026,2.918528 -3.126874,3.221488 -0.413401,0.15717 -0.663494,0.42839 -0.555763,0.6027 0.113479,0.18361 -0.01789,0.23492 -0.31224,0.12196 -0.404985,-0.15541 -0.241011,-0.45682 0.807879,-1.48498 1.922704,-1.884729 2.456144,-2.77248 1.881696,-3.131536 C 85.318227,96.920838 82.27753,96.569789 79.202019,96.753091 77.440909,96.858051 75.91,96.947546 75.8,96.951965 75.69,96.956381 75.5136,97.392 75.408,97.92 c -0.152502,0.762509 -0.358221,0.96 -1,0.96 -0.50489,0 -0.808,-0.180067 -0.808,-0.48 0,-0.264 -0.146426,-0.48 -0.325392,-0.48 -0.178963,0 0.02387,0.689216 0.450726,1.531587 1.028695,2.030033 2.945927,2.976243 6.311735,3.115023 2.813017,0.11599 2.917158,0.14217 1.882931,0.47339 -0.852998,0.27318 -1.050285,0.27915 -3.04,0.0921 z m 28.33528,-2.95584 c -0.2556,-0.16169 -0.57435,-0.226229 -0.70833,-0.14342 -0.39589,0.24467 -2.82695,-2.377641 -2.82695,-3.049353 0,-0.371987 0.40031,-0.816263 1.00916,-1.12 1.12573,-0.561584 1.97586,-0.67529 1.23084,-0.164627 -0.37941,0.260064 -0.31236,0.309331 0.32,0.2351 0.44,-0.05165 0.81392,-0.30991 0.83093,-0.57391 0.13129,-2.037606 3.12023,-3.219088 8.12907,-3.21329 2.49263,0.0029 3.09793,0.05621 2.64,0.23257 -0.23637,0.09103 -0.4,0.732214 -0.4,1.567386 0,0.827305 -0.14816,1.413334 -0.35732,1.413334 -0.19978,0 -0.28353,0.282179 -0.18996,0.64 0.0921,0.352 0.0368,0.64 -0.12268,0.64 -0.15952,0 -0.29004,0.191901 -0.29004,0.426445 0,0.414534 -2.0061,2.218208 -3.33916,3.002215 -0.77374,0.45506 -5.24786,0.53627 -5.92556,0.10755 z m 6.54381,-1.071144 c 1.55584,-0.881143 2.57526,-2.645725 2.88601,-4.99561 l 0.22886,-1.730541 -2.94791,0.209248 c -3.19669,0.226909 -5.65135,1.066247 -5.95292,2.035514 -0.39573,1.271936 -0.71158,1.536323 -1.8354,1.536323 -1.90086,0 -2.11709,0.552381 -0.91646,2.341203 0.95072,1.416471 6.41997,1.803297 8.53782,0.603863 z m -3.4501,-2.367732 c -0.20638,-1.075152 0.27873,-1.763715 1.15033,-1.632777 1.60058,0.240451 1.46033,2.236045 -0.17098,2.432777 -0.66269,0.07992 -0.83792,-0.06323 -0.97935,-0.8 z m 1.47775,0.08606 c 0.22483,-0.585891 -0.59387,-1.329638 -0.90661,-0.823609 -0.26369,0.426665 0.0267,1.280214 0.43559,1.280214 0.16269,0 0.37465,-0.205472 0.47102,-0.456605 z M 77.934307,99.565082 C 77.663142,98.710717 78.051834,97.92 78.742979,97.92 c 0.785418,0 1.297549,0.967139 0.893987,1.688262 -0.409436,0.731618 -1.465244,0.704848 -1.702659,-0.04318 z M 79.36,99.2 c 0,-0.176 -0.216,-0.32 -0.48,-0.32 -0.264,0 -0.48,0.144 -0.48,0.32 0,0.176 0.216,0.32 0.48,0.32 0.264,0 0.48,-0.144 0.48,-0.32 z"
         id="eye3" />
      <path
         style="display:inline;fill:#523e24;stroke-width:0.32"
         d="m 94.877453,131.31639 c -0.878599,-0.46398 -2.361843,-1.36398 -3.296096,-2 -0.934253,-0.63601 -2.113024,-1.37239 -2.619495,-1.63639 -0.50647,-0.264 -1.750979,-1.19725 -2.765577,-2.07388 -2.042701,-1.76495 -3.836035,-3.04612 -4.263831,-3.04612 -0.153516,0 -0.32712,-0.108 -0.385788,-0.24 -0.378144,-0.85083 -6.311488,-5.02394 -8.506666,-5.98301 -0.748,-0.32681 -1.36,-0.69199 -1.36,-0.81151 0,-0.11953 -0.36,-0.41 -0.8,-0.64548 -0.44,-0.23548 -0.8,-0.61707 -0.8,-0.84798 0,-0.2309 -0.391178,-0.51801 -0.86928,-0.638 -0.478106,-0.12 -1.153258,-0.48274 -1.500339,-0.8061 C 67.363296,112.26456 66.890474,112 66.659661,112 66.428848,112 66.24,111.856 66.24,111.68 c 0,-0.176 -0.181821,-0.32 -0.404048,-0.32 -0.348006,0 -1.15688,-0.86236 -1.886912,-2.01167 -0.134419,-0.21162 -0.403946,-0.13914 -0.742858,0.19977 -0.292544,0.29255 -0.439776,0.5319 -0.32718,0.5319 0.112595,0 -0.469821,0.54 -1.294253,1.2 -0.824435,0.66 -2.346269,2.05 -3.381859,3.08889 -1.035591,1.03888 -1.88289,1.78242 -1.88289,1.6523 0,-0.13012 -0.899818,0.51529 -1.999594,1.43424 -2.47712,2.06983 -3.314342,2.48743 -3.849088,1.91989 -0.308988,-0.32794 -0.30358,-0.44737 0.0257,-0.56766 0.992589,-0.36259 4.222986,-4.42567 4.222986,-5.3115 0,-0.25179 0.208109,-0.63051 0.462464,-0.84161 0.939917,-0.78006 1.52569,-3.43174 1.403005,-6.35112 -0.106535,-2.53497 -0.250333,-3.06194 -1.610925,-5.90343 -0.821674,-1.716 -1.637501,-3.12 -1.81295,-3.12 -0.468503,0 -2.882842,-5.129098 -3.191146,-6.779379 -0.312739,-1.674 0.129056,-5.996659 0.731584,-7.158029 0.313814,-0.604883 0.341293,-1.121331 0.106352,-1.999088 C 50.634157,80.692576 50.5012,79.764 50.512922,79.28 c 0.01171,-0.484 -0.111338,-0.88 -0.273469,-0.88 -0.162131,0 -0.444413,-0.612 -0.627293,-1.36 -0.616016,-2.519574 -1.016896,-3.455645 -1.826717,-4.265466 -0.764723,-0.764726 -0.800358,-0.95742 -0.693526,-3.750339 0.0891,-2.329414 0.273891,-3.260704 0.884957,-4.459961 0.42479,-0.833674 1.035459,-1.59928 1.357046,-1.701348 0.32159,-0.102067 1.013366,-0.808614 1.537283,-1.570102 0.532624,-0.774144 1.369584,-1.529891 1.898474,-1.714262 1.157741,-0.403591 3.414585,-2.648442 4.767997,-4.742656 0.553024,-0.855728 1.162518,-1.739677 1.354438,-1.964333 0.191917,-0.224656 0.36448,-0.728656 0.383475,-1.12 0.01898,-0.391344 0.312845,-1.024874 0.652999,-1.407843 0.340156,-0.382973 0.52903,-0.841021 0.419721,-1.017888 -0.109312,-0.176871 -0.0524,-0.412029 0.126474,-0.522576 C 60.653651,48.692678 60.8,48.33929 60.8,48.017917 c 0,-0.32137 0.36,-0.820192 0.8,-1.10849 0.44,-0.288301 0.801706,-0.700861 0.803792,-0.916803 0.005,-0.521786 2.865344,-3.47711 3.178186,-3.283763 0.134438,0.08309 0.399872,-0.190071 0.589846,-0.607021 0.196086,-0.430365 0.831408,-0.918486 1.469606,-1.12911 0.618308,-0.204061 2.023293,-0.806548 3.122189,-1.338861 1.098896,-0.532311 2.438631,-0.979245 2.977187,-0.993181 1.434276,-0.03712 7.102167,1.312288 9.139194,2.175856 0.968,0.410368 2.425075,0.894893 3.237942,1.07672 2.117239,0.473597 3.213952,0.935386 3.655463,1.539184 0.707341,0.967347 4.935101,0.315744 9.473693,-1.460131 0.4659,-0.182301 0.910782,-0.267767 0.988622,-0.189927 0.0778,0.07784 0.40297,-0.14735 0.7225,-0.500428 0.31954,-0.353079 0.77465,-0.641962 1.01138,-0.641962 0.23672,0 0.4304,-0.141088 0.4304,-0.313526 0,-0.389914 5.03781,-2.886474 5.82462,-2.886474 0.36205,0 0.57538,-0.237293 0.57538,-0.64 0,-0.466061 0.21333,-0.64 0.78494,-0.64 0.92171,0 2.41506,-0.625376 2.41506,-1.011366 0,-0.147748 0.28297,-0.268634 0.62882,-0.268634 0.34585,0 1.25294,-0.211898 2.01576,-0.47088 2.41788,-0.82089 6.42899,-1.11312 8.9864,-0.654704 2.76294,0.495254 5.15481,1.495309 5.71259,2.388467 0.22571,0.361415 0.59174,0.657117 0.81341,0.657117 0.22166,0 0.40302,0.18312 0.40302,0.406938 0,0.223814 0.92756,1.317427 2.06123,2.430249 1.88534,1.850659 2.10245,2.205053 2.54424,4.153063 1.06304,4.687347 0.98349,8.137308 -0.26676,11.56975 -1.06355,2.919885 -1.21334,3.501686 -1.42112,5.52 -0.1223,1.188 -0.12558,2.16 -0.007,2.16 0.11828,0 0.29461,0.252 0.39183,0.56 0.30198,0.956659 1.61673,3.070371 2.53639,4.077718 0.48319,0.529255 0.87919,1.12465 0.88,1.323101 9.6e-4,0.198448 0.19953,0.525184 0.4416,0.72608 0.24206,0.200893 0.62445,1.023635 0.84974,1.828314 0.2253,0.804678 0.60325,1.537347 0.83989,1.628157 0.58021,0.222646 0.57313,3.997225 -0.0117,6.241017 -0.67005,2.570752 -1.29159,3.795472 -2.72808,5.375613 -0.72,0.792 -1.30929,1.597683 -1.30953,1.790403 -2.5e-4,0.192723 -0.26539,0.590183 -0.58922,0.883242 -0.81599,0.738461 -0.45776,2.990822 0.69323,4.358707 1.13258,1.345994 1.33555,2.189949 1.33555,5.553443 0,2.321907 -0.0999,2.898815 -0.56,3.235275 -0.308,0.22522 -0.56,0.62905 -0.56,0.8974 0,0.26836 -0.34372,0.71313 -0.76381,0.98838 -0.42009,0.27526 -1.06971,0.99545 -1.44361,1.60043 -0.3739,0.60498 -0.95385,1.17163 -1.28879,1.25922 -0.33492,0.0876 -0.85574,0.63646 -1.15735,1.21972 -0.30162,0.58326 -1.42453,1.85997 -2.49537,2.83712 -1.07084,0.97717 -2.31241,2.1975 -2.75903,2.71185 -1.52023,1.75076 -4.98334,4.98481 -5.33787,4.98481 -0.10378,0 -0.76806,0.612 -1.47619,1.36 -0.70812,0.748 -1.41136,1.324 -1.56275,1.28 -0.15139,-0.044 -0.27525,0.0671 -0.27525,0.24686 0,0.17977 -0.36,0.49089 -0.8,0.69136 -0.44,0.20048 -0.8,0.4923 -0.8,0.64849 0,0.39374 -1.45698,1.68382 -3.36,2.9751 -0.88,0.59712 -2.23812,1.73844 -3.01804,2.53627 -0.77992,0.79782 -1.93192,1.61801 -2.56,1.82263 -0.62808,0.20462 -1.21396,0.47218 -1.30196,0.59458 -0.088,0.1224 -1.15891,0.82153 -2.3798,1.55363 -2.00318,1.20119 -2.42498,1.33108 -4.322542,1.33108 -1.654618,0 -2.443194,-0.17979 -3.700205,-0.84361 z m 5.634007,-0.2217 c 0.77725,-0.23391 2.84706,-1.32865 4.59957,-2.43274 3.12996,-1.97189 4.19731,-2.8184 9.00507,-7.14195 1.32106,-1.188 2.55898,-2.16 2.75095,-2.16 0.19197,0 1.34329,-0.972 2.5585,-2.16 6.63445,-6.48591 10.90024,-10.87302 11.12366,-11.44 0.13871,-0.352 0.35424,-2.512 0.47897,-4.8 0.21919,-4.020838 0.20177,-4.19649 -0.5207,-5.250816 -0.54417,-0.794125 -1.20863,-1.240179 -2.44294,-1.639981 C 126.126,93.441302 125.80551,93.103216 124.4346,90.24 123.63008,88.559738 123.18623,88.029715 122.12509,87.482074 120.44992,86.617542 119.36,84.66719 119.36,82.534083 c 0,-3.291401 -1.01034,-5.706873 -2.77896,-6.643805 C 116.17125,75.67319 114.39082,75.52 112.27755,75.52 c -2.97168,0 -4.08497,0.146512 -6.34104,0.834512 -1.50508,0.458982 -3.24389,1.093267 -3.86402,1.409523 -0.62013,0.316256 -1.80938,0.677261 -2.642772,0.802237 -1.295718,0.194304 -1.781459,0.09487 -3.352489,-0.686285 -1.010477,-0.502432 -1.927251,-1.038377 -2.037277,-1.190995 -0.368592,-0.511258 -1.582122,0.15216 -3.25792,1.781062 -2.85496,2.77506 -5.639427,4.114644 -9.822032,4.725296 -5.075635,0.741028 -8.133866,2.060816 -9.874214,4.261242 -1.071124,1.354285 -1.199322,1.827808 -1.489952,5.503408 -0.253095,3.200912 -0.96296,7.73552 -1.381604,8.82567 -0.174393,0.45412 -1.121936,2.00768 -2.105654,3.45236 -0.983715,1.44468 -1.788576,2.82609 -1.788576,3.06978 0,0.83676 1.668381,2.42421 3.952835,3.76109 1.257943,0.73615 2.749443,1.73238 3.314448,2.21384 0.565008,0.48146 1.717008,1.27666 2.56,1.76713 0.842995,0.49046 2.116032,1.32789 2.828976,1.86094 0.712941,0.53306 1.705632,1.25719 2.205975,1.60919 0.500345,0.352 1.202998,0.964 1.561449,1.36 0.358451,0.396 0.829763,0.72 1.047357,0.72 0.217594,0 0.443626,0.11638 0.502294,0.25863 0.05867,0.14224 0.826666,0.73912 1.706666,1.32639 0.88,0.58727 2.0748,1.51488 2.65511,2.06137 2.298112,2.16416 9.720797,6.2162 11.454032,6.25275 0.544029,0.0115 1.625072,-0.17053 2.402318,-0.40445 z M 93.04,119.30807 c -0.484,-0.17677 -0.88,-0.45847 -0.88,-0.626 0,-0.18359 0.245872,-0.173 0.618963,0.0267 1.629165,0.8719 8.327477,0.10873 9.030577,-1.0289 0.31564,-0.51072 0.7179,-0.0735 0.4867,0.529 -0.44962,1.17167 -6.945683,1.94312 -9.25624,1.09923 z m 2.069373,-7.48749 c -0.820701,-0.57485 -1.675152,-2.08313 -1.656848,-2.92469 0.0073,-0.33395 0.214873,-0.10937 0.494185,0.53459 0.780874,1.80032 1.360148,2.24952 2.90088,2.24952 1.265056,0 1.476186,-0.12082 2.376637,-1.36 0.54353,-0.748 1.109633,-1.5748 1.258003,-1.83733 0.14837,-0.26254 0.36828,-0.37883 0.48868,-0.25843 0.23983,0.23983 -0.77182,1.83277 -2.042264,3.21576 -0.938784,1.02195 -2.658873,1.19335 -3.819273,0.38058 z m -18.825095,-7.33172 c -0.899644,-0.2202 -2.094547,-0.6714 -2.655334,-1.00266 C 72.676608,102.92364 71.04,100.63324 71.04,99.863018 c 0,-0.740298 0.617584,-0.277495 1.391149,1.042492 1.10912,1.89257 1.418403,2.09717 4.233757,2.80071 3.8116,0.9525 8.350697,0.68053 11.095094,-0.6648 1.347693,-0.66065 1.631606,-0.29898 0.399197,0.50853 -1.906691,1.24931 -8.482551,1.76924 -11.874919,0.93891 z M 103.6,103.13941 c -1.15782,-0.30257 -0.49838,-0.57511 1.1198,-0.4628 2.8353,0.19678 8.00951,-1.01125 11.05291,-2.58055 0.40329,-0.207948 1.16594,-1.285583 1.69634,-2.396934 0.53,-1.110518 1.17229,-2.019126 1.4273,-2.019126 0.25501,0 0.46365,0.151942 0.46365,0.337651 0,0.724752 -2.12308,4.242709 -2.88,4.772189 -2.39675,1.67657 -10.08708,3.07944 -12.88,2.34957 z M 82.4,102.4 c 0.108774,-0.176 0.468774,-0.32 0.8,-0.32 0.331226,0 0.691226,-0.144 0.8,-0.32 0.108774,-0.176 0.369274,-0.3168 0.578886,-0.31288 0.209613,0.004 0.02112,0.28871 -0.418886,0.63288 -0.83,0.64924 -2.10697,0.88141 -1.76,0.32 z m 18.4,-1.7906 c 0,-0.10483 0.26775,-0.57283 0.595,-1.040002 0.32726,-0.467168 0.83604,-1.353398 1.13062,-1.969398 0.80504,-1.683389 1.18776,-2.073517 2.67438,-2.726134 0.748,-0.328368 1.36,-0.711248 1.36,-0.850842 0,-0.139597 0.88228,-0.699184 1.96062,-1.243526 1.79818,-0.907722 2.3019,-1.004896 6.08,-1.172925 2.74236,-0.121965 4.11938,-0.07256 4.11938,0.147805 0,0.42863 -1.32272,0.67974 -2.10909,0.400396 -0.97086,-0.344876 -6.02688,0.274125 -7.45253,0.912404 -0.71425,0.319782 -1.60154,0.966489 -1.97174,1.437123 -0.3702,0.470633 -0.86218,0.855699 -1.09329,0.855699 -1.11256,0 -2.1591,1.006634 -3.27669,3.151728 -0.65571,1.25855 -1.3777,2.288272 -1.60443,2.288272 -0.22673,0 -0.41223,-0.0858 -0.41223,-0.1906 z M 78.024079,99.222113 c 0,-0.176 0.547695,-0.917052 0.811695,-0.917052 0.264,0 0.878034,0.741052 0.878034,0.917052 0,0.176 -0.636147,0.651695 -0.900147,0.651695 -0.264,0 -0.789582,-0.475695 -0.789582,-0.651695 z M 89.211261,98.72 c -0.64752,-0.44 -1.262967,-0.8 -1.367664,-0.8 -0.104698,0 -0.480359,-0.270176 -0.834803,-0.600394 -0.86456,-0.805459 -2.929223,-1.117744 -7.223335,-1.09254 -2.744621,0.0161 -3.745577,0.140777 -4.311203,0.536956 C 75.069094,97.047811 74.28327,97.28 73.727981,97.28 c -0.55529,0 -1.18888,0.216 -1.407981,0.48 -0.446979,0.538579 -2.56,0.662352 -2.56,0.149958 0,-0.181526 0.18,-0.380592 0.4,-0.442374 0.22,-0.06178 1.777523,-0.501568 3.461165,-0.977306 2.811891,-0.794544 3.385158,-0.850758 7.04,-0.690371 C 85.975078,96.033104 88,96.298694 88,96.762474 c 0,0.209388 0.812061,0.915491 1.804579,1.569116 1.141379,0.751658 1.580291,1.18841 1.194282,1.18841 -0.335661,0 -1.140083,-0.36 -1.7876,-0.8 z M 114.72,98.88 c 0.31856,-0.352 0.65119,-0.64 0.73919,-0.64 0.088,0 -0.10063,0.288 -0.41919,0.64 -0.31856,0.352 -0.65119,0.64 -0.73919,0.64 -0.088,0 0.10063,-0.288 0.41919,-0.64 z m -3.8784,-2.064675 c -0.0981,-0.255575 -0.19127,-0.976375 -0.0721,-1.169347 0.31274,-0.506029 1.46314,0.746317 1.23831,1.332208 -0.22632,0.589783 -0.93846,0.430796 -1.16627,-0.162891 z M 91.2,95.84 c -0.209888,-0.552045 -0.54648,-0.8 -1.085981,-0.8 -0.545571,0 -0.987187,-0.332288 -1.46144,-1.099645 -0.824733,-1.334448 -2.380723,-1.923046 -4.450525,-1.683539 -0.815129,0.09432 -2.649561,0.03069 -4.076515,-0.141402 -2.252841,-0.271699 -2.842733,-0.231404 -4.48,0.306007 C 74.608493,92.761818 73.256,93.118 72.64,93.212938 c -0.616,0.09494 -1.372,0.272272 -1.68,0.394073 -0.848643,0.33561 -0.705696,-0.628448 0.16,-1.079046 0.903741,-0.4704 2.092323,-1.235303 3.692922,-2.376544 0.694979,-0.495527 2.577865,-1.254922 4.256659,-1.716771 4.141753,-1.139434 7.543744,-0.982317 10.445328,0.482396 2.278329,1.150096 2.346473,1.293463 2.435824,5.124612 C 92.012131,96.67433 91.753114,97.294797 91.2,95.84 Z m 0.158826,-2.393046 C 91.738269,91.20105 91.38529,90.50343 89.350099,89.477034 86.800627,88.19127 82.359622,87.945469 79.549904,88.934608 78.510352,89.300573 77.441869,89.6 77.175498,89.6 c -0.576778,0 -4.208676,2.288525 -4.212698,2.654499 -0.0033,0.296323 2.134602,-0.04312 2.961587,-0.470227 0.731479,-0.377782 10.377075,-0.106525 11.478,0.32279 0.463312,0.180672 1.158323,0.772189 1.544471,1.31448 0.386144,0.542292 0.82512,0.90994 0.9755,0.817002 0.150381,-0.09294 0.363869,-0.02262 0.474416,0.156237 0.399632,0.646621 0.751188,0.300262 0.962052,-0.947827 z m 25.466434,2.36638 c 0.0154,-0.372784 0.0912,-0.448608 0.19334,-0.193334 0.0924,0.230998 0.0811,0.507002 -0.0252,0.613334 -0.10634,0.106333 -0.18197,-0.08267 -0.16807,-0.42 z M 99.022099,94.225776 c -0.844553,-2.905155 0.220163,-6.322678 2.097901,-6.733843 0.44,-0.09635 1.664,-0.476957 2.72,-0.845802 2.40268,-0.839222 9.01784,-0.986841 11.42091,-0.254861 1.66453,0.507018 3.09342,1.441069 2.74204,1.792445 -0.12512,0.125117 -0.45145,0.04161 -0.72518,-0.185565 -0.37429,-0.31063 -1.30455,-0.360172 -3.75171,-0.199801 -2.86579,0.187808 -3.48498,0.340131 -5.19003,1.276777 -1.06482,0.584941 -2.47263,1.240381 -3.12849,1.456532 -1.16728,0.3847 -3.51149,2.670729 -4.14854,4.04559 -0.1675,0.361485 -0.57859,0.82839 -0.91354,1.037568 -0.555617,0.346989 -0.654078,0.225238 -1.123361,-1.38904 z m 1.730541,-0.0096 c 0.86522,-1.89895 2.67516,-3.588998 4.81022,-4.4916 1.16443,-0.492259 2.29799,-1.072234 2.51903,-1.288826 0.51738,-0.506966 1.16232,-0.704195 3.99663,-1.222208 l 2.32148,-0.424281 -4.1373,-0.03462 c -3.37305,-0.02822 -4.55526,0.09146 -6.4,0.647949 -3.09244,0.93287 -3.57673,1.186425 -3.987353,2.087645 -0.589667,1.294172 -0.38216,5.549785 0.270613,5.549785 0.12722,0 0.40023,-0.370729 0.60668,-0.823844 z M 59.52,111.59348 c 3.75625,-3.69295 5.293446,-5.47705 6.892621,-7.9997 1.514451,-2.389 1.503677,-2.34482 2.387638,-9.791783 0.544922,-4.590743 0.722861,-5.370563 1.439987,-6.310762 1.902836,-2.494749 5.139024,-3.999417 9.981978,-4.641133 4.670592,-0.618876 7.262861,-1.831788 10.453856,-4.891315 1.860186,-1.783549 2.100246,-1.922445 3.143728,-1.818944 0.684061,0.06785 1.05145,-0.626438 1.694243,-3.201779 0.282528,-1.131936 0.653674,-2.604755 0.824771,-3.272931 C 96.745507,68.076918 96.161283,59.189926 95.463386,56.348323 94.916589,54.121946 94.27881,52.633098 93.56696,51.921245 93.330435,51.68472 92.980662,50.88568 92.789693,50.1456 92.22137,47.943158 91.521779,46.639645 90.122813,45.176538 88.77657,43.76857 87.187725,42.888022 85.960922,42.869994 85.586413,42.86449 84.564022,42.509366 83.688941,42.080832 82.813859,41.652301 80.165798,40.847699 77.804365,40.292829 73.20431,39.211949 73.388864,39.20352 71.04,40.601798 c -0.264,0.157159 -1.272,0.6213 -2.24,1.031424 -1.190973,0.504596 -2.420211,1.421578 -3.802029,2.836231 -1.91904,1.96464 -2.574467,3.048749 -4.456045,7.370547 -0.951043,2.184451 -4.36934,6.611962 -5.868787,7.601475 -2.473904,1.632576 -5.907363,5.127811 -6.347632,6.46184 -0.649558,1.968179 -0.263222,5.530743 0.869354,8.016685 0.78632,1.725926 1.942579,4.920768 2.542694,7.025683 0.08105,0.284269 0.496298,-0.152041 1.065943,-1.12 1.223395,-2.078838 2.731107,-3.839821 2.96439,-3.462361 0.10199,0.165024 -0.368387,1.014784 -1.045283,1.888358 -0.676896,0.873578 -1.773344,2.66832 -2.436551,3.98832 -1.052656,2.095139 -1.223427,2.753766 -1.344368,5.185008 -0.179808,3.614682 0.01981,4.550086 1.422192,6.664118 0.638807,0.96298 2.032119,3.406874 3.09625,5.430874 l 1.934781,3.68 0.0051,3.68 0.0051,3.68 -1.514474,2.83634 -1.514473,2.83634 1.211932,-0.98251 c 0.66656,-0.54038 2.43593,-2.18589 3.93193,-3.65669 z M 135.71971,99.36 c 0.42328,-1.547002 0.12332,-5.024054 -0.53497,-6.201309 -0.25794,-0.46128 -0.77186,-1.21824 -1.14205,-1.682134 -0.37018,-0.463895 -0.74882,-1.515565 -0.84142,-2.337047 -0.14322,-1.270646 -0.0517,-1.622419 0.61336,-2.356556 0.92387,-1.019908 2.44305,-2.987703 3.21559,-4.165178 0.98412,-1.499946 1.93498,-5.204656 1.7396,-6.777776 -0.22636,-1.822653 -2.26431,-6.72545 -3.05934,-7.36 -0.33076,-0.264 -0.83764,-0.912 -1.12638,-1.44 -0.28875,-0.528 -0.94756,-1.68 -1.46401,-2.56 -0.54334,-0.925811 -0.94346,-2.073504 -0.94955,-2.723728 -0.006,-0.618051 0.56546,-3.100912 1.26946,-5.517469 1.09949,-3.774115 1.28,-4.827152 1.28,-7.467021 0,-4.412188 -0.60414,-6.284777 -2.67512,-8.291782 -0.90804,-0.88 -2.13375,-2.272477 -2.7238,-3.094394 -1.55224,-2.162252 -3.75249,-2.93734 -8.32447,-2.932489 -4.58201,0.0049 -6.65608,0.498534 -10.43904,2.484688 -1.76134,0.924749 -3.7473,1.861184 -4.41324,2.080966 -0.66595,0.219779 -2.24885,1.099783 -3.51757,1.955555 -2.2817,1.53905 -6.472018,3.162192 -9.443128,3.657847 -1.369408,0.228451 -1.749715,0.952669 -0.516083,0.982774 0.631581,0.01542 0.680665,0.766237 0.07458,1.140819 -0.363635,0.22474 0.780448,3.747088 1.651398,5.084234 1.663479,2.553901 2.21793,4.994893 2.555709,11.251578 0.229943,4.259254 0.198711,5.643004 -0.15528,6.88 -0.243713,0.851632 -0.73386,2.556422 -1.089217,3.788422 -0.355357,1.232 -0.650297,2.391306 -0.655421,2.576234 -0.01494,0.539376 2.781197,1.743766 4.048365,1.743766 0.638311,0 1.894457,-0.347133 2.791437,-0.771405 0.89699,-0.424272 2.99684,-1.164329 4.66635,-1.644573 2.76659,-0.795824 3.34253,-0.855603 6.50184,-0.674838 2.75313,0.15752 3.65374,0.331757 4.37706,0.846806 1.27651,0.90896 2.1199,2.910448 2.56366,6.08401 0.45816,3.276435 0.99551,4.274864 2.74274,5.09616 1.20381,0.565859 2.37923,2.119194 2.37923,3.144189 0,0.728851 1.97732,2.961139 2.79706,3.157725 1.75256,0.420294 2.65233,1.10888 3.32844,2.547238 0.70782,1.505824 0.70692,1.444301 0.10772,7.334688 l -0.19532,1.92 2.1058,-2.24 c 1.40282,-1.49223 2.2227,-2.6673 2.45601,-3.52 z"
         id="outline" />
    </g>
  </g>
</svg>
