<?xml version="1.0" encoding="UTF-8" standalone="no"?>
<!-- Created with Inkscape (http://www.inkscape.org/) -->

<svg
   version="1.1"
   id="svg1135"
   width="192"
   height="288"
   viewBox="0 0 192 288"
   xmlns="http://www.w3.org/2000/svg"
   xmlns:svg="http://www.w3.org/2000/svg">
  <defs
     id="defs1139" />
  <g
     id="g1141">
    <g
       id="g1562"
       transform="translate(10,-14)">
      <path
         style="display:inline;fill:#fbd7c8;stroke-width:0.32"
         d="m 83.41705,130.23403 c -0.496624,-0.14903 -1.640845,-0.65679 -2.542717,-1.12837 -0.901869,-0.47157 -2.329482,-1.06223 -3.172471,-1.31257 -0.842988,-0.25034 -1.92926,-0.82268 -2.413936,-1.27186 -0.484675,-0.44918 -1.386736,-1.02672 -2.004576,-1.28341 -0.617843,-0.25669 -1.654905,-0.89221 -2.304585,-1.41227 -0.64968,-0.52005 -1.260586,-0.94555 -1.357568,-0.94555 -1.542071,0 -6.112499,-9.22917 -7.083421,-14.30372 -0.524768,-2.74272 -0.604982,-6.36753 -0.147174,-6.65047 0.170832,-0.10558 0.73968,0.0299 1.264108,0.30111 1.372989,0.71 4.474045,0.62751 6.673284,-0.17752 1.007603,-0.36884 2.63583,-0.88447 3.618281,-1.14585 C 75.915248,100.3797 76.8,99.384819 76.8,97.694627 c 0,-0.509645 0.165405,-1.092032 0.367568,-1.294195 0.661866,-0.661866 -0.526824,-1.600234 -3.1042,-2.857018 -2.827492,-1.378742 -4.786944,-1.766737 -8.931648,-1.769332 -1.628,-9.6e-4 -3.235159,-0.157007 -3.235159,-0.31861 0,-0.161607 -0.42219,-0.979243 -0.517816,-1.22844 -0.371641,-0.968483 6.621609,-2.636251 9.752607,-2.247682 1.617786,0.200775 2.694277,0.475579 5.195304,2.383204 1.205556,0.919523 0.927703,-0.198142 1.170025,-1.271023 0.385851,-1.708356 -0.06104,-1.416249 -0.81105,-1.701401 -1.102698,-0.419245 -6.832776,-0.105692 -9.389611,0.334619 -1.158416,0.199491 -2.82865,0.503473 -3.655585,0.899716 -0.826931,0.396247 -1.902345,0.206963 -1.969427,0.139881 -0.06708,-0.06708 0.0059,-1.075977 0.162074,-2.24199 0.313644,-2.340954 1.775731,-5.787779 3.8724,-9.129062 1.230412,-1.96081 1.434371,-2.137796 2.614518,-2.268775 1.151494,-0.127801 1.451597,0.0054 2.989248,1.326711 2.185446,1.877974 4.461901,3.204796 5.521587,3.218236 0.756266,0.0096 2.779863,-0.787798 3.169165,-1.248793 0.442486,-0.523981 3.427565,-2.817632 3.880598,-2.981751 0.918855,-0.332867 3.233143,0.399527 4.343744,1.37465 0.592861,0.520538 1.348916,0.946432 1.680125,0.946432 0.33121,0 0.686199,0.18 0.788867,0.4 0.149332,0.32 0.224,0.32 0.373332,0 0.102668,-0.22 0.38334,-0.4 0.623715,-0.4 0.240377,0 0.821469,-0.504 1.291315,-1.12 0.469846,-0.616 1.057693,-1.12 1.306326,-1.12 0.248637,0 0.537949,-0.223811 0.642919,-0.49736 0.162067,-0.422342 0.305347,-0.389795 0.949958,0.215782 0.417504,0.392228 0.759101,0.896884 0.759101,1.121456 0,0.224576 0.180419,0.523476 0.400928,0.664221 0.220512,0.140746 0.794445,0.836656 1.275408,1.546471 0.48096,0.709814 1.452544,1.85504 2.159064,2.544944 1.45466,1.420432 1.76258,3.075136 0.5646,2.651757 -1.337603,-0.472726 -4.893764,0.146426 -8.901911,1.414302 -1.884035,0.595964 -6.677907,3.099991 -6.282933,3.353623 0.357139,0.229336 0.610447,1.308804 1.006217,2.584804 0.801388,2.583757 0.605313,2.99083 0.278714,0.81291 -0.277382,-1.849721 0.392278,-3.518078 2.526553,-4.867377 0.452377,-0.449507 2.113252,-1.270881 2.264061,-1.35292 2.201984,-0.964192 5.70946,-1.196266 7.964006,-1.237198 l 3.414703,0.147079 0.5053,1.059613 c 0.27791,0.582784 0.50529,1.183337 0.50529,1.334563 0,0.151222 -0.828,0.422445 -1.84,0.602714 -1.012,0.180272 -3.116259,0.91654 -4.676128,1.636153 -2.223533,1.025783 -3.353549,1.809082 -5.231613,3.626429 -1.317513,1.274922 -2.373084,2.939074 -2.817042,3.33246 l -0.834302,0.739265 1.459543,1.378726 C 91.183206,99.09072 91.84,99.870627 91.84,100.06555 c 0,0.59817 2.853866,0.77832 6.783635,0.42823 4.668985,-0.41595 6.775795,-0.858698 7.392125,-1.553479 0.79726,-0.898736 1.82424,-2.919799 1.82424,-3.590035 0,-0.346647 0.11591,-0.630266 0.25759,-0.630266 0.25468,0 2.92873,2.679814 6.71173,6.72621 2.81629,3.01237 2.91073,3.41898 1.27776,5.50115 -2.1334,2.72028 -15.65401,15.97319 -17.718952,17.36815 -1.03847,0.70153 -2.004221,1.4592 -2.146112,1.68372 -0.141891,0.22452 -0.933891,0.76963 -1.76,1.21137 -0.826109,0.44173 -2.166131,1.23201 -2.97783,1.75618 -2.147652,1.38687 -5.771479,1.95614 -8.067136,1.26725 z m 6.48358,-12.30422 c 0.890653,-0.45132 1.61937,-0.96217 1.61937,-1.1352 0,-0.36788 -0.537296,-0.42569 -0.693334,-0.0746 -0.05867,0.132 -0.564967,0.49441 -1.125114,0.80536 -1.125104,0.62457 -8.782922,1.38142 -11.209645,1.10789 -0.882934,-0.0995 -1.289094,-0.0381 -1.157421,0.17491 0.133383,0.21582 2.042788,0.26214 5.57482,0.13524 4.922742,-0.17685 5.507372,-0.26161 6.991324,-1.01359 z m -4.765849,-7.84863 c 1.724419,-0.47905 2.281293,-1.02223 2.315715,-2.25875 0.03098,-1.1131 -1.072186,-3.27736 -1.308768,-2.56761 -0.07007,0.21022 0.103373,0.63722 0.385434,0.94889 0.28206,0.31168 0.512838,1.01965 0.512838,1.57327 0,0.80625 -0.201395,1.11073 -1.011888,1.52985 -1.2788,0.66129 -4.319024,0.93852 -5.452784,0.49722 -1.026816,-0.39967 -1.972234,-2.06279 -1.771008,-3.11543 0.07877,-0.41209 0.02003,-0.67311 -0.130547,-0.58005 -0.845728,0.52269 0.215376,3.48134 1.422982,3.96766 0.958797,0.38612 3.656416,0.38877 5.038026,0.005 z"
         id="skin" />
      <path
         style="display:inline;fill:#098e3d;stroke-width:0.32"
         d="M 64.298435,100.10286 C 63.96911,99.706053 63.442759,98.740269 63.741351,98.262144 63.950762,97.926823 64.64,97.726483 64.64,97.47935 c 0,-0.256716 -0.313773,-0.90621 0.280413,-1.008949 0.572,-0.0989 2.248487,-0.518951 2.839342,-0.638048 0.907641,-0.182948 1.220191,0.534571 1.826875,1.240613 0.394938,0.45962 1.363938,0.742228 1.478146,0.62802 0.490486,-0.490487 -0.214227,0.618005 -0.774432,1.290018 -1.093152,1.311326 -5.137138,2.141796 -5.991909,1.111856 z m -0.742246,-2.241414 c 0.09242,-0.149536 0.302083,-0.18904 0.465923,-0.08778 0.418682,0.258759 0.371539,0.359667 -0.168035,0.359667 -0.256259,0 -0.390307,-0.122348 -0.297888,-0.271887 z M 97.712746,97.282141 C 96.692496,96.870496 96.095398,96.492459 96.72393,95.797944 97.032448,95.457032 97.587242,95.04 97.450413,95.04 c -0.136826,0 -0.08623,-0.195856 0.112438,-0.435235 0.198666,-0.239383 0.697571,-0.370938 1.108675,-0.292352 0.42513,0.08127 1.000905,-0.559404 1.289638,-0.848136 0.955666,-0.95567 3.882206,-0.226443 3.882206,0.930591 0,0.924345 -2.00062,3.132874 -4.920109,3.184847 -0.287963,0.0051 -0.832525,-0.145062 -1.210515,-0.297574 z M 95.52,95.36 C 95.411226,95.184 95.474726,95.04 95.661114,95.04 95.847501,95.04 96,95.184 96,95.36 c 0,0.176 -0.0635,0.32 -0.141114,0.32 -0.07761,0 -0.230112,-0.144 -0.338886,-0.32 z"
         id="eye2" />
      <path
         style="display:inline;fill:#2b6644;stroke-width:0.32"
         d="m 64.720704,100.8 c 0.07118,-0.264 0.478147,-0.51792 0.904362,-0.56428 3.046387,-0.331294 3.549555,-0.482558 4.301011,-1.292968 0.515929,-0.55641 0.786048,-0.689283 0.77143,-0.379482 -0.03387,0.717978 -0.451753,1.65042 -0.715328,1.59615 -0.494025,-0.1017 -2.142179,0.38454 -2.142179,0.63199 0,0.14331 -0.599754,0.1258 -1.332787,-0.0389 -1.002803,-0.22531 -1.404979,-0.19708 -1.624362,0.11402 -0.224214,0.31795 -0.261673,0.30258 -0.162147,-0.0665 z m -1.055373,-1.307408 c -0.196451,-0.367072 -0.296909,-0.72768 -0.223238,-0.80135 0.07367,-0.07367 0.298249,0.226662 0.499065,0.667404 0.440983,0.967854 0.226269,1.072124 -0.275827,0.133946 z M 99.68,97.6 c 0.108774,-0.176 0.261274,-0.32 0.33889,-0.32 0.0776,0 0.14111,0.144 0.14111,0.32 0,0.176 -0.1525,0.32 -0.338886,0.32 -0.186388,0 -0.249888,-0.144 -0.141114,-0.32 z M 62.447946,96.437322 c -0.03968,-1.094576 0.0675,-1.352868 0.62151,-1.497744 0.60777,-0.158935 0.624979,-0.125517 0.186771,0.362678 C 62.990752,95.598016 62.711072,96.272 62.63472,96.8 62.520477,97.590006 62.487402,97.525782 62.447946,96.437322 Z M 71.2,97.28 c 0.108774,-0.176 0.261274,-0.32 0.338886,-0.32 0.07761,0 0.141114,0.144 0.141114,0.32 0,0.176 -0.152499,0.32 -0.338886,0.32 -0.186388,0 -0.249888,-0.144 -0.141114,-0.32 z m 29.28,0.02157 c 0,-0.187866 0.1936,-0.341568 0.43023,-0.341568 1.27888,0 3.0725,-2.775261 3.08495,-4.773334 0.009,-1.375616 0.33776,-0.486557 0.43756,1.181728 0.0863,1.442179 0.0135,1.657177 -0.66599,1.966755 -0.41956,0.191165 -0.67422,0.49096 -0.56591,0.666211 0.10831,0.175251 0.0547,0.31864 -0.1191,0.31864 -0.17381,0 -0.51303,0.197002 -0.75381,0.437782 -0.60497,0.604973 -1.84793,0.970733 -1.84793,0.543783 z m -5.16455,-0.65092 c -0.986804,-0.82209 -0.26513,-0.830029 1.076816,-0.01184 0.88568,0.54 0.941852,0.638988 0.363184,0.64 -0.3765,6.4e-4 -1.0245,-0.282013 -1.44,-0.628157 z M 65.123226,96.63478 c 0.110547,-0.178871 0.335046,-0.242375 0.498886,-0.141114 0.443853,0.274314 0.361091,0.466333 -0.200998,0.466333 -0.274388,0 -0.408436,-0.146349 -0.297888,-0.325219 z M 71.68,96.46585 c 0,-0.03712 0.216,-0.246749 0.48,-0.46585 0.389283,-0.323075 0.48,-0.31032 0.48,0.06749 0,0.256217 -0.216,0.465849 -0.48,0.465849 -0.264,0 -0.48,-0.03037 -0.48,-0.06748 z M 94.105824,95.84 c 0.04354,-0.176 -0.03002,-0.707814 -0.163459,-1.181811 -0.298515,-1.060375 0.08452,-1.873536 0.517817,-1.099283 0.160391,0.286601 0.608464,0.535449 0.995719,0.552992 0.650233,0.02947 0.642896,0.04899 -0.0959,0.25528 -0.44,0.12286 -0.801837,0.458345 -0.80408,0.745516 -0.0022,0.287175 -0.122246,0.640298 -0.266669,0.78472 C 94.144829,96.041837 94.062288,96.016 94.105824,95.84 Z m 0.440509,-1.417888 c 0.101261,-0.16384 0.06176,-0.373504 -0.08778,-0.465923 -0.14954,-0.09242 -0.271888,0.04163 -0.271888,0.297888 0,0.539574 0.100908,0.586717 0.359668,0.168035 z m -27.80576,0.39169 c -0.173658,-0.456064 -0.136903,-0.49282 0.179136,-0.179136 0.218694,0.217068 0.317014,0.475276 0.218489,0.573801 -0.09852,0.09852 -0.277456,-0.07908 -0.397625,-0.394665 z M 71.52,94.72 c -0.318557,-0.352 -0.45735,-0.64 -0.308435,-0.64 0.148918,0 -0.0088,-0.218339 -0.350403,-0.4852 -0.575997,-0.44992 -0.557175,-0.457821 0.258838,-0.108637 0.484,0.207114 0.88,0.629453 0.88,0.938535 0,0.309084 0.18,0.634601 0.4,0.723372 0.230896,0.09317 0.251862,0.172084 0.0496,0.186666 C 72.256874,95.34863 71.838557,95.072 71.52,94.72 Z m -8.032,-1.780669 c 0,-0.460521 0.186208,-0.779331 0.455181,-0.779331 0.344509,0 0.368525,0.104416 0.09878,0.429443 -0.196022,0.236192 -0.276073,0.509773 -0.177891,0.607955 0.09818,0.09818 0.05373,0.255632 -0.09878,0.349888 -0.152509,0.09426 -0.27729,-0.179321 -0.27729,-0.607955 z m 1.454464,-0.889795 c 0.156099,-0.156099 1.303226,-0.137373 2.627306,0.04289 l 2.35023,0.319961 -2.627306,-0.04289 c -1.480179,-0.02416 -2.506329,-0.163866 -2.35023,-0.319965 z m 29.70344,0.05656 c 0.185952,-0.185952 0.526982,-0.275133 0.757843,-0.198179 0.239664,0.07989 0.09461,0.224941 -0.338096,0.338096 -0.532272,0.13919 -0.657209,0.09754 -0.419747,-0.139917 z M 95.68,91.52 c -0.386166,-0.249562 -0.335558,-0.311158 0.258886,-0.315101 0.412023,-0.0029 0.651396,0.136659 0.541114,0.315101 -0.237821,0.3848 -0.204563,0.3848 -0.8,0 z m 7.82684,-0.66129 c -0.11601,-0.187708 -0.12451,-0.427708 -0.0189,-0.533334 0.10563,-0.105622 0.19205,-0.01555 0.19205,0.200176 0,0.215722 0.144,0.303222 0.32,0.194448 0.176,-0.108774 0.32,-0.04527 0.32,0.141114 0,0.439379 -0.54111,0.437779 -0.81316,-0.0026 z m 0.38649,-0.832044 c -0.11733,-0.117332 -0.21333,-0.362132 -0.21333,-0.544 0,-0.200512 0.14905,-0.18162 0.37867,0.048 0.20826,0.208268 0.30426,0.453068 0.21333,0.544 -0.0909,0.09093 -0.26133,0.06933 -0.37867,-0.048 z M 102.4,89.269958 c 0,-0.170476 0.216,-0.309958 0.48,-0.309958 0.264,0 0.48,0.0566 0.48,0.125763 0,0.06917 -0.216,0.20865 -0.48,0.309959 -0.264,0.101305 -0.48,0.04471 -0.48,-0.125764 z M 101.12,88.96 c 0,-0.176 0.2245,-0.32 0.49889,-0.32 0.27438,0 0.40988,0.144 0.30111,0.32 -0.10877,0.176 -0.33327,0.32 -0.49889,0.32 -0.16561,0 -0.30111,-0.144 -0.30111,-0.32 z"
         id="eye3" />
      <path
         id="hair1"
         style="display:inline;fill:#6d1414;stroke-width:0.32"
         d="m 108.8418,36.460938 c -0.924,0.129475 -1.78359,0.508313 -2.30664,0.564453 -0.52306,0.05614 -1.29578,0.289709 -1.35938,0.480468 -0.0636,0.190829 -0.34292,0.216797 -0.8164,0.216797 -0.47417,0 -1.18987,0.144268 -1.55274,0.398438 -0.36288,0.254099 -2.07984,0.820987 -3.457031,1.18164 -1.249237,0.327243 -2.120934,0.705543 -2.519531,0.97461 0.02398,-0.02985 0.04252,-0.05229 0.06641,-0.08203 -0.269729,0.118147 -0.54068,0.235147 -0.8125,0.347657 -0.09077,0.03757 -0.312231,0.118924 -0.460937,0.177734 -0.02908,0.309587 -0.279485,0.650713 -0.820313,0.867188 -0.732703,0.293236 -1.464691,0.589192 -2.197265,0.882812 -0.484018,0.19398 -0.958997,0.392134 -1.449219,0.570313 -0.226902,0.08247 -0.455158,0.156255 -0.683594,0.234375 -0.348159,0.112859 -0.940053,0.30766 -1.298828,0.410156 -0.621291,0.177512 -1.257484,0.303445 -1.894531,0.408203 -0.51354,0.07252 -1.025947,0.13767 -1.544922,0.15625 -0.223534,0.008 -0.687217,0.0119 -0.910156,-0.04102 -0.0026,-6.24e-4 -0.0052,-0.0013 -0.0078,-0.002 -0.05349,0.07417 -0.113217,0.145325 -0.15625,0.22461 -0.314688,-0.0019 -0.565801,-0.01711 -0.824218,-0.002 -0.792,0.05701 -1.917849,0.120141 -2.738282,0.138671 -12.439362,0.312272 -0.987891,0.882285 -2.242187,0.306641 -1.580092,-0.95609 -4.171184,-1.460307 -6.1875,-0.818359 -2.198004,0.825531 -4.935745,0.563459 -7.435547,0.146484 -1.957187,0.153767 -4.307477,-0.712777 -6.511719,-0.914063 -2.479278,-0.115942 -6.007419,0.839252 -8.902344,1.169922 -1.252461,0.595551 -2.387403,2.043317 -4.130859,2.097657 -2.066005,1.51716 -4.827967,3.422266 -7.037109,5.097656 -2.09794,2.980868 -5.498836,5.89865 -6.986329,9.6875 -1.178141,1.886966 -2.943296,5.048467 -3.808593,7.521484 -0.71657,2.821322 -1.549254,6.141143 -1.792969,9.283203 -0.166504,1.28312 -0.626842,3.964312 -0.824219,6.076172 -0.366827,3.92565 -0.971616,8.859308 -1.507812,11.267578 -0.490436,2.202506 -0.67546,6.908792 -0.63086,9.337882 -0.477314,4.68295 -0.728821,9.61638 -0.455078,14.3711 -0.211485,4.03184 -0.361858,6.90212 2.695313,12.57422 0,0.40681 0.408184,1.25781 0.548828,1.25781 0.357723,0 0.992187,-2.50142 0.992187,-3.54687 0,-0.47851 1.073538,-1.07944 1.396485,-1.73243 0.907946,-2.07113 0.291447,-4.7325 2.289062,-6.02343 0.131037,-0.27684 0.339497,-0.40665 0.46875,-0.66797 -1.713326,3.18582 -3.514072,6.64554 -3.951172,10.35351 -0.0077,0.84998 -0.317364,2.05772 -0.451172,2.76172 -0.295807,1.5567 0.152474,8.74223 0.59375,9.51563 0.85102,3.38338 2.989983,7.90163 5.44336,10.59375 0.102543,0.10254 0.18869,-2.43462 0.19059,-5.10446 0.0033,-4.32825 0.109899,-5.26224 0.990235,-8.87758 1.342321,-5.51352 1.640574,-6.27557 2.537489,-8.85742 0.867187,-2.63303 1.444111,-4.756 2.6611,-6.92245 1.208961,-2.11607 2.774813,-4.97398 4.544543,-6.25327 0.785311,-1.22044 2.4074,-1.88973 3.554058,-2.46258 3.597091,-1.77792 3.658014,-1.86145 3.625694,-7.63679 -0.211849,-3.49931 0.825588,-5.9061 1.679687,-8.850544 0.251542,-1.6854 1.029325,-3.233924 1.468557,-4.708734 0.786646,-1.373875 1.102314,-2.477694 0.530269,-0.615235 -0.252739,2.015194 -1.106147,3.430013 -1.791015,5.303711 -1.201638,2.385982 -1.828189,5.124812 -1.828125,8.236322 3.8e-5,1.7475 0.239742,3.78752 0.442382,4.41602 0.51185,1.58695 1.505716,4.0258 1.795294,4.0258 1.99048,2.92868 4.845635,6.47961 7.586067,8.51978 2.201933,1.94071 5.35498,4.48527 7.880358,5.9399 0.354157,0.0141 0.270105,-3.84026 -0.202237,-4.77685 -0.605348,-2.61119 -1.684572,-4.50316 -2.221712,-6.97914 -1.346748,-3.47482 -1.653669,-3.97173 -2.114137,-4.66601 -1.089176,-2.71563 -1.99743,-5.43272 -2.110351,-7.83789 -0.179574,-4.07796 -0.229945,-4.5103 -1.289063,-5.64356 C 59.871897,98.677966 59.3854,97.3834 58.333021,95.896388 58.224246,95.209402 57.8034,94.172627 57.387708,93.782131 c -1.00915,-0.948212 -1.067063,-0.740235 0.08691,-0.740235 1.603068,-0.915839 3.224894,-3.550383 3.474609,-5.230469 2.809071,-8.515724 3.10518,-12.661656 8.39547,-12.977024 0.623515,0.818837 1.875142,1.005344 2.211954,1.005344 0.219687,0 0.335204,0.449766 0.433594,0.759766 1.509526,1.514984 3.294342,2.843134 5.58789,2.912109 0.926509,-1.027164 2.372016,-1.235291 3.308594,-2.117187 0.695244,-0.654723 1.50761,-1.345607 1.657216,-1.345607 0.466419,-2.123841 -0.07219,-4.873383 -1.069336,-6.835938 -0.557923,-2.231054 -1.885966,-3.729406 -2.902343,-5.392577 0.361743,-0.450263 -0.397875,-0.612239 -0.03613,-1.062501 0.740114,1.87326 1.953164,3.741518 3.09082,5.521485 0.483123,1.488619 0.526318,3.683644 2.15332,4.111328 0.311833,0 0.358037,-4.204465 0.04102,-4.400391 -0.409697,-2.521383 -2.731161,-7.300547 -2.659176,-8.066406 1.80667,2.51583 2.061754,7.524775 3.776369,7.728516 1.622543,0.103066 1.495397,-2.753163 2.145507,-4.132813 0.818928,-1.739345 1.370185,-1.847458 2.654297,-2.30957 0.599056,-0.215597 0.764707,-0.27447 1.30664,0.03711 0.253611,0.145725 0.656752,-0.01104 0.894532,0.120117 -0.898673,0.232957 -1.580904,0.0016 -2.568359,0.210937 -1.142921,0.437404 -1.320341,1.929901 -2.185547,2.900391 -1.168379,2.073248 -2.568429,5.374843 -2.947266,8.691406 0.08698,0.592529 0.481512,1.8086 0.773438,1.90039 1.223194,0.384905 2.018983,0.446784 2.808593,1.322266 0.860951,0.93731 3.183711,1.394781 4.546876,0.740234 0.444269,-0.973491 1.476408,-1.111646 2.351562,-2.226562 0.830712,-1.537396 -1.141556,-2.389352 0.380859,-0.888672 1.542006,2.103941 2.967339,3.747206 4.638672,5.949219 0,0.465603 4.387487,4.265611 5.087897,4.441406 0.98919,0.248269 0.46686,0.311289 -0.44922,0.550781 -0.35203,0.09205 -0.4444,0.581888 -0.4414,0.69336 0.0173,0.714704 1.46914,1.669779 3.55859,1.927734 1.81649,0.224256 1.62318,-2.14e-4 2.06444,0.535156 0.49615,0.602016 0.54592,0.403367 0.15431,0.794922 -0.39164,0.391626 -0.3414,0.263625 -1.4707,-0.3125 -0.71959,-0.36704 -1.29407,-1.25 -1.55469,-1.25 -0.74856,0 -1.26575,1.632688 -0.70703,2.25 0.28124,0.310768 0.38086,0.714108 0.38086,0.97461 0,0.260433 0.44652,0.891546 0.67578,1.205078 0.37899,0.518239 0.8452,0.783013 1.22851,0.320312 0.7328,-0.882903 0.1747,-0.948232 0.0996,0.681641 -0.0733,1.606986 1.09112,2.970703 1.90625,2.970703 0.2384,0 0.42778,0.168344 0.73829,0.652344 0.31052,0.48393 1.06273,1.503777 1.98828,2.423828 0.92554,0.920052 2.2099,1.750838 2.2207,1.886718 0.0108,0.13588 0.12566,0.90559 0.84961,1.43359 0.72394,0.528 1.39277,1.19857 1.56445,1.72657 0.17169,0.528 0.33748,1.03114 0.44531,1.11914 0.0715,0.058 0.16237,0.72298 0.28126,1.06054 l -0.83008,-1.14843 -0.94727,1.4375 c -0.86281,1.30925 -3.04111,4.1096 -4.47265,5.2539 -0.65054,0.51976 -1.36637,1.20316 -1.55274,1.59766 -0.18636,0.3945 -1.10877,1.11411 -1.81055,1.59961 -1.2492,0.86421 -0.92776,2.16561 -0.29101,2.82226 0.7772,0.80235 0.80183,10.74648 0.26953,18.72071 -0.20695,3.09992 -0.21513,4.30624 0.11719,5.28125 0.23679,0.69471 0.64937,1.93717 0.60937,2.20117 -0.11263,0.74362 1.552,-1.34282 2.60742,-3.13086 -1.50974,2.89285 -4.21788,7.22339 -6.89453,10.32617 -2.01396,2.24938 -3.05954,4.34691 -5.244146,6.56445 -0.308,0.29072 -0.789063,0.95408 -0.789063,1.27735 0,0.69437 0.637941,0.9161 4.187499,-1.65039 4.42518,-3.19702 9.0859,-6.36499 14.13086,-9.57813 -0.27772,0.16627 -0.47098,0.47369 -0.70703,0.58203 -0.66,0.30294 -1.37905,1.15936 -1.37305,1.3711 0.74635,1.30691 2.06638,2.07454 3.58984,3.36914 0.87343,1.12967 2.63157,1.29185 4.1836,2.03906 2.17317,1.02394 4.85741,2.52835 6.45703,4.86914 0.63899,1.39905 1.49894,4.15084 2.13281,4.05274 0.3602,0 1.55596,-1.15467 2.26758,-2.67188 0.94762,-2.04873 0.39548,-5.47774 0.48828,-8.08984 -0.81209,-3.67899 -2.10873,-7.23482 -2.76172,-10.23828 -0.1664,-1.4716 0.23888,-4.89844 0.69141,-4.89844 0.52439,-1.36382 1.00178,-2.87957 2.20508,-4.36524 1.50515,-2.36039 1.88034,-6.38826 0.73633,-9.08593 -0.88628,-2.05662 -0.82273,-2.10801 1.49804,-1.91797 1.7034,0.3428 9.00332,5.35934 13.67969,8.14258 0.4879,0.73011 0.99797,0.7854 1.14062,-0.30274 -1.06603,-4.53508 -5.47822,-8.56523 -8.58397,-10.79883 -0.63053,-0.52522 -2.43326,-1.45116 -3.86719,-2.0039 -1.43393,-0.55274 -2.62886,-1.13491 -2.79492,-1.43164 -0.4063,-0.72603 -0.0291,-1.11682 0.85352,-1.45703 0.70373,-0.27123 0.52299,-0.65437 -0.0957,-0.89063 -0.89383,-0.69921 0.43573,-0.0607 3.90235,0.99805 1.14302,0.3284 1.73785,0.25898 3.68372,-0.34324 2.22263,-0.6879 2.42738,-0.85147 2.91872,-2.35295 0.61774,-1.88863 0.67623,-3.27573 0.24805,-5.65304 -0.52688,-2.92528 -1.5819,-4.8243 -3.40764,-5.80363 -1.6294,-0.874017 -2.5304,-0.69835 -1.96939,0.46467 0.779,0.92268 2.0451,2.20768 2.49963,3.21843 0.33215,0.704 0.81317,1.75474 0.96327,2.06036 0.4434,0.90276 0.34713,2.5377 -0.22525,3.50667 -1.57347,1.81496 -2.83123,1.20604 -4.68572,1.17754 -2.31552,-0.7886 -2.97662,-1.94833 -4.85824,-3.88809 0,-0.20585 -0.14398,-0.79995 -0.43864,-0.96485 -0.76451,-0.42785 -1.41864,-2.67019 -1.60547,-5.91992 -0.14266,-2.481122 -0.588,-2.800781 -1.12695,-2.800781 -0.55142,0 -0.0563,-0.65102 -0.11914,-2.703125 0.002,-2.668827 0.53207,-6.203709 1.30273,-7.185546 0.16475,-0.209728 0.6551,-0.911454 0.77344,-1.439454 0.11836,-0.52793 -0.10384,-1.423172 0.13867,-1.951172 1.10774,-2.411553 1.84812,-3.474027 1.62305,-9.248046 -0.4767,-12.229118 -0.65593,-12.422118 -2.39844,-15.839844 -0.85239,-1.67186 -1.66794,-3.433047 -1.89062,-3.873047 -0.22268,-0.44 -0.44665,-1.075476 -0.57617,-1.691406 -0.24452,-1.162887 -1.29519,-3.182727 -1.69922,-3.460938 -0.1278,-0.088 -0.17678,-0.656588 -0.54492,-1.382812 -0.36815,-0.726292 -0.98827,-1.503239 -1.25977,-1.607422 -0.2715,-0.104182 -0.55859,-0.322007 -0.55859,-0.5625 0,-0.642881 -5.86983,-5.307848 -8.14258,-6.447266 -1.07785,-0.540334 -1.68853,-0.779791 -1.79102,-1.046875 -0.27407,-0.714138 -2.2878,-1.604274 -4.72461,-1.865234 -1.18108,-0.126483 -2.18164,-0.05763 -2.18164,-0.244141 0,-0.225654 -1.07932,-0.746583 -2.19726,-0.589843 z M 77.349609,54.880859 c -0.155054,0.220931 -0.30641,0.443798 -0.46289,0.664063 -0.506603,-0.496129 -1.105883,-1.533867 -1.203626,-1.793162 -0.136112,-0.361082 -0.703216,-0.136183 -1.111585,0.416774 -0.622086,0.842134 -2.239126,1.151943 -3.214022,0.672125 -0.381885,-0.187901 -1.205819,-0.450024 -1.768587,-0.560232 -0.84088,-0.164682 -1.582642,0.01478 -2.169865,0.690147 -0.392809,0.451944 -0.818139,0.770476 -1.050402,0.770476 -0.262509,0 -0.318295,0.683925 -0.318295,1.32668 0,0.949953 -1.364551,4.025564 -1.820756,4.398559 -0.659319,0.539047 -1.556435,4.312329 -1.402214,5.404425 -0.529294,1.647222 -1.458021,3.20839 -2.281065,4.622289 -1.853285,3.518798 -3.051304,6.993755 -3.344154,10.465005 -0.07231,0.930259 0.239435,0.759076 0.170899,1.485351 -0.289378,0.365344 -0.505809,0.76639 -0.792969,1.132813 1.456169,-3.349452 1.060988,-7.637667 2.489798,-10.185798 0.68762,-2.934877 2.801014,-4.921447 3.282259,-7.591482 0.805347,-1.904576 0.801487,-2.892205 1.305947,-4.532573 1.306494,-2.050579 1.489676,-3.803115 2.096897,-5.384007 0.47009,0 0.511976,-1.35586 0.04076,-1.36776 -0.561949,-0.01421 1.169574,-1.227314 1.748297,-1.227314 0.260378,0 0.77264,-0.167418 1.180317,-0.434538 0.661674,-0.433519 0.496603,-0.58591 1.324655,-0.15737 0.510061,0.266035 1.525789,0.692528 1.8573,0.693488 1.125786,0.0037 3.112652,-0.943849 3.112652,-1.375129 0.140322,-0.430517 1.742728,1.148518 2.330649,1.86717 z m 17.109375,5.91211 c 0.447643,-0.261114 0.875469,0.325584 1.333985,0.257812 -0.793139,0.067 -1.285985,0.324483 -2.12207,0.520508 0.393928,-0.144389 0.274144,-0.462115 0.788085,-0.77832 z m 5.363282,1.035156 c 0.394194,0.217303 0.862664,0.01106 1.230464,0.236328 0.96953,0.171818 5.35016,4.736428 6.47071,6.785156 2.42319,4.074047 6.43245,8.712317 8.79101,12.638672 0,0.246438 0.45649,1.037708 0.89649,1.560547 0.37767,0.448545 0.37259,0.832805 0.38086,1.023438 -0.49259,-0.740105 -1.41248,-2.006888 -1.6211,-2.400391 -0.27311,-0.515092 -0.96162,-1.497061 -1.36914,-1.943359 -0.91753,-1.004922 -2.11523,-2.511152 -2.11523,-2.789063 0,-0.113795 -0.29776,-1.011738 -0.74219,-1.361328 -2.12543,-2.490744 -3.67961,-5.259625 -5.72266,-8.207031 0,-0.510254 -5.30841,-5.187538 -6.199214,-5.542969 z m 0.658204,21.935547 c 0,-0.487923 -4.231924,-0.04935 -8.101564,0.935547 -1.43019,0.363949 -5.156791,2.370255 -5.888672,3.083984 -0.214669,0.209449 -1.017828,0.56586 -0.410156,1.396485 0.578575,0.790688 0.934426,1.112874 2.029297,0.07227 0.493066,-0.468718 0.79525,-1.250864 0.53125,-1.121094 -0.264,0.12984 -0.201014,0.0095 0.140625,-0.267578 0.341638,-0.276983 0.774865,-0.503906 0.962891,-0.503906 0.187955,0 0.525907,-0.293515 0.75,-0.652344 0.224023,-0.358759 0.530129,-0.576805 0.679687,-0.484375 0.149559,0.09243 0.612612,-0.09437 1.029297,-0.416015 0.935415,-0.722118 3.11587,-1.018708 6.109375,-1.296875 1.255617,-0.116704 2.16797,-0.57908 2.16797,-0.746094 z m 17.56055,0.974609 c 0.49681,0.742898 1.89639,2.54656 2.14453,2.751953 0.0897,0.0743 0.0948,0.541121 0.24804,1.029297 -0.11394,-0.331458 -0.39843,-0.868692 -0.81836,-1.449219 -0.8835,-1.222228 -1.01149,-1.509321 -1.57421,-2.332031 z m -43.494145,2.44336 c -1.036039,-0.02197 -7.40647,0.376339 -7.54928,0.396719 -0.616735,0.06448 -3.34808,0.698834 -3.097923,1.173723 0.06734,0.127831 3.700954,-0.426426 4.391116,-0.485304 0.294154,-0.02509 1.011101,-0.29573 1.857542,-0.188354 1.627138,0.206413 3.690654,0.882513 3.853623,0.882513 0.318406,0 0.660414,0.214515 0.761719,0.478515 0.101309,0.264 0.369364,0.480469 0.595703,0.480469 0.226339,0 0.482017,0.183198 0.568359,0.408203 0.08634,0.225001 0.462094,0.433007 0.833985,0.460937 1.005232,0.07573 1.40038,-1.52973 0.582031,-2.623046 -0.556352,-0.743366 -1.153652,-0.949525 -2.796875,-0.984375 z m 46.013675,1.634765 c 0.33983,0.634194 1.31858,1.688545 1.75,2.324219 0.4513,0.664954 0.625,1.219467 0.625,1.310547 0,0.09108 0.41812,1.011267 0.88867,2.005859 0.0989,0.208979 0.0716,0.50366 0.1543,0.689453 -0.55097,-1.487015 -1.18864,-3.185547 -1.34766,-3.185546 -0.1075,0 -0.32132,-0.263362 -0.75195,-1.140626 -0.43063,-0.877194 -1.50668,-1.532256 -1.63868,-1.535156 -0.12318,-0.0026 0.26552,-0.245225 0.32032,-0.46875 z m -59.753909,2.93457 c -0.619597,0 -2.243165,1.667289 -2.243165,2.198243 0,0.210439 0.433139,1.285426 0.84375,2.05957 0.410682,0.774145 0.846125,2.022906 0.966797,2.506836 0.245725,0.985568 1.480469,1.000607 1.480469,0.101563 0,-0.320054 -0.237993,-1.300539 -0.499023,-2.179688 -0.334868,-1.127546 -0.436715,-1.678316 -0.230469,-2.397461 0.24186,-0.843242 0.105542,-2.289063 -0.318359,-2.289063 z m 63.724609,5.862305 c 0.0951,0.585195 0.34936,0.78606 0.39258,1.757813 0.0807,1.814406 0.33747,3.440756 0.49023,3.535156 0.0737,0.0456 -0.003,0.24616 -0.0391,0.38281 -0.0457,-0.20159 -0.11558,-0.5215 -0.17578,-0.63086 -0.17394,-0.31597 -0.51994,-1.58974 -0.49024,-2.869138 0.0179,-0.769477 -0.1025,-1.428241 -0.17773,-2.175781 z m 0.99023,6.197269 c 0.21732,0.25665 0.72528,0.50976 0.86329,0.50976 0.16802,0 0.01,0.52706 0.12304,1.13086 0.11294,0.602 0.21195,1.26544 0.45703,1.36328 -0.33722,-0.48272 -0.63795,-0.81069 -1.25586,-2.33398 -0.10498,-0.25882 -0.12804,-0.41361 -0.1875,-0.66992 z m 1.44727,3.00976 c 0.24685,0.0952 0.64258,0.32507 0.64258,0.59375 0,0.26952 0.0932,0.50506 0.18945,0.65235 0.40299,0.61618 0.0937,0.14461 0.0937,0.63671 0,0.4928 0.44804,1.11797 0.63867,1.3086 0.0236,0.0236 -0.0619,0.30349 -0.041,0.33594 -0.1766,-0.44775 -0.37512,-0.87969 -0.44922,-1.27539 -0.1236,-0.66 -0.48193,-1.22793 -0.57813,-1.33008 -0.10355,-0.10998 -0.36311,-0.7319 -0.49609,-0.92188 z m -8.14648,0.98438 c 0.13358,0.59827 0.37109,1.09823 0.37109,1.40429 0,0.15907 -0.22739,0.53384 -0.24805,0.7129 0.16534,-0.9741 0.004,-1.54961 -0.12304,-2.11719 z m -68.261235,5.83447 c -1.307946,1.50164 -2.975668,2.40411 -4.479492,3.24072 -1.845444,1.03003 -2.677981,1.7745 -4.325684,3.94581 -1.424402,2.05477 -2.471675,3.98071 -3.436523,6.01903 -0.529035,2.08094 -1.294564,3.76222 -2.01416,5.57423 -0.818894,2.41212 -0.931371,3.86079 -1.629884,6.15527 -0.739374,1.7266 -1.515332,8.4155 -1.439452,11.69726 l 0.145999,2.7505 0.875,0.061 c 1.697538,0.0219 2.91345,4.68683 4.246093,7.43555 0.523264,1.40542 6.192805,7.09717 7.030763,7.09717 1.827141,0.52379 3.310539,2.92454 4.815917,3.22558 1.031905,0 1.67334,-0.30558 1.67334,-0.83594 -1.462451,-2.84894 -1.267126,-5.82768 -1.278808,-8.2456 -0.01194,-4.69002 0.453321,-5.76122 1.100586,-8.70117 0.733779,-1.74014 1.52272,-5.62204 3.787109,-7.07032 2.011671,-1.68227 4.327484,-3.14066 5.899414,-4.42285 0.625661,-0.58225 1.119967,-1.63604 1.828068,-2.28481 1.587897,-1.96521 1.474244,-4.12564 2.075099,-6.57095 0.896234,-3.62664 0.772104,-3.77104 -0.462326,-4.8944 -4.033098,-2.77411 -6.582849,-4.62282 -9.623677,-7.79291 -0.365044,-0.36147 -0.650779,-0.76544 -0.761653,-1.06696 -0.865869,-1.0284 -2.98464,-6.57795 -4.025729,-5.31624 z m 66.675295,1.18311 c -0.19614,0.42016 -0.14764,0.61438 -0.36914,1.05664 -0.77302,1.54275 -1.43618,3.38964 -1.63086,4.18164 -0.13434,0.54655 -0.41162,1.0126 -0.64844,1.47851 0.0988,-0.5023 4.3e-4,-1.77616 0.15625,-2.14062 0.85748,-2.00566 1.76843,-3.32036 2.49219,-4.57617 z m 10.23633,4.01562 c -0.13861,0.54188 0.0205,0.6366 -0.14258,1.18359 -0.42386,1.76784 -1.05462,3.31036 -1.5625,4.87696 0.64363,-1.9777 1.23994,-4.01677 1.70508,-6.06055 z m -13.34375,8.9707 c -0.0187,0.9142 -0.0228,1.06965 -0.0606,2.06446 -0.0623,1.60575 -0.2513,7.66132 -1.46289,9.99609 -0.0301,0.0618 -0.1303,0.18029 -0.16211,0.24414 1.26385,-2.62519 1.52239,-4.6322 1.5293,-10.15234 10e-4,-1.08154 0.14915,-1.22288 0.15625,-2.15235 z m -46.841421,2.48676 c -1.595276,0.14785 -1.906904,6.38128 -1.240994,7.04727 0.577619,0.23583 0.925342,-0.1349 1.212891,-0.49484 0.514288,0 1.21633,-2.04355 1.21913,-3.58411 0.0024,-1.31471 -0.601849,-3.07635 -1.191027,-2.96832 z m 56.255481,5.78668 c -0.10972,1.0738 -0.32811,1.59367 -0.38477,2.63867 -0.1082,1.9029 -0.42515,3.62985 -1.58789,5.50586 -0.0982,0.2583 -0.93431,0.69582 -1.33593,1.10156 1.7344,-2.07472 2.813,-5.4162 3.11718,-8.18164 0.0537,-0.62501 0.13499,-0.48819 0.19141,-1.06445 z" />
      <path
         style="display:inline;fill:#126232;stroke-width:0.32"
         d="m 64.64,100.53751 c -0.264,-0.11963 -0.526653,-0.42947 -0.583674,-0.688531 -0.08663,-0.393584 -0.0077,-0.387296 0.48,0.03824 0.321021,0.280101 0.799674,0.588691 1.063674,0.685761 0.426666,0.15688 0.426666,0.1768 0,0.17927 -0.264,0.002 -0.696,-0.0951 -0.96,-0.21474 z m -0.96,-1.615235 c 0,-0.220025 -0.128912,-0.320374 -0.28647,-0.222998 -0.77906,0.481485 -0.913194,-2.544058 -0.15017,-3.387191 0.612134,-0.6764 0.766506,-1.854595 0.321021,-2.45014 -0.176208,-0.235565 -0.184304,-0.393632 -0.01856,-0.362106 0.667165,0.126893 0.903149,-0.04969 0.454166,-0.33984 -0.386166,-0.249562 -0.335558,-0.311158 0.258887,-0.315101 0.406387,-0.0026 0.671062,0.104839 0.588169,0.238963 -0.0829,0.134125 1.015351,0.285959 2.440547,0.337402 2.272548,0.08204 2.680471,0.189795 3.316551,0.876138 0.398909,0.430428 0.635062,0.782598 0.524787,0.782598 -0.110275,0 0.124867,0.346342 0.522544,0.769648 0.710608,0.756406 0.712982,0.785002 0.138051,1.662458 -0.321744,0.491046 -0.543123,1.139948 -0.491952,1.442006 0.05117,0.302054 -0.05785,0.642445 -0.242272,0.756426 C 70.859926,98.831293 70.72,98.62056 70.72,98.205552 c 0,-0.391722 -0.09344,-0.618774 -0.207651,-0.504566 -0.114208,0.114208 -0.510208,-0.137693 -0.88,-0.55978 -0.790451,-0.90223 -2.126967,-1.153017 -2.867859,-0.538128 -0.386263,0.320567 -0.636132,0.342631 -0.948103,0.08372 -0.497238,-0.41267 -1.170128,0.09612 -1.186563,0.897202 C 64.617632,98.177478 63.68,99.498598 63.68,98.922275 Z m 0.64,-0.876723 c 0,-0.264842 -0.621354,-0.414608 -0.763811,-0.184106 -0.09242,0.14954 0.04163,0.271888 0.297888,0.271888 0.256256,0 0.465923,-0.0395 0.465923,-0.08778 z m 2.170732,-2.514069 c 0.190787,-1.000407 0.343343,-1.05249 -0.597607,-0.435956 -0.689348,0.451677 -0.284745,0.356781 0.03894,0.746797 0.524263,0.631696 0.416692,0.433642 0.558669,-0.310841 z m 29.660471,0.986984 c -0.347161,-0.242841 -0.908013,-0.494841 -1.246333,-0.56 -0.444176,-0.08554 -0.628732,-0.409747 -0.664076,-1.166544 -0.03343,-0.715917 0.05503,-0.944099 0.279129,-0.72 0.453703,0.453703 1.123703,0.410167 1.640471,-0.106601 0.366236,-0.366237 0.362636,-0.573533 -0.02285,-1.31658 -0.53472,-1.030672 -0.567879,-1.234707 -0.159648,-0.982409 0.16384,0.101261 0.388339,0.03776 0.498886,-0.141114 0.110547,-0.17887 0.01251,-0.329798 -0.217888,-0.335395 -0.253261,-0.0061 -0.16583,-0.202006 0.221114,-0.495325 0.352,-0.266832 0.885094,-0.421536 1.184656,-0.343792 0.299561,0.07774 0.587561,0.0311 0.64,-0.103622 0.158134,-0.406301 2.815346,-1.573335 2.815346,-1.23648 0,0.171888 0.288,0.221117 0.64,0.109395 0.35887,-0.113901 0.64,-0.0575 0.64,0.128394 0,0.182336 0.23053,0.243056 0.51229,0.134934 0.54264,-0.20823 1.07791,0.376083 1.07791,1.176672 0,0.426666 -0.0345,0.426666 -0.3102,0 -0.2169,-0.335635 -0.31167,-0.356675 -0.3151,-0.06996 -0.003,0.225526 0.1904,0.484988 0.4291,0.576585 0.32196,0.123549 0.37376,0.495971 0.20065,1.442643 -0.2886,1.578234 -0.41562,1.710471 -1.22621,1.276656 -0.93432,-0.500035 -2.25521,-0.424864 -2.841806,0.161725 -0.288732,0.288733 -0.82998,0.446032 -1.25511,0.364762 -0.411104,-0.07859 -0.91001,0.05297 -1.108675,0.292352 C 97.364192,94.844144 97.313597,95.04 97.450422,95.04 c 0.136829,0 -0.0036,0.278925 -0.312163,0.619837 -0.308521,0.340909 -0.466339,0.772909 -0.35071,0.96 0.280611,0.454038 0.121401,0.428678 -0.636336,-0.10137 z M 96,95.36 c 0,-0.176 -0.152499,-0.32 -0.338886,-0.32 -0.186388,0 -0.249888,0.144 -0.141114,0.32 0.108774,0.176 0.261274,0.32 0.338886,0.32 C 95.936499,95.68 96,95.536 96,95.36 Z m 3.253046,-2.101893 c 0.29626,-0.553568 0.692607,-0.397651 0.06011,-0.393414 -0.961776,0.0064 -0.805956,-0.04476 -0.530202,0.401424 0.356058,0.576112 0.09977,0.683952 0.470097,-0.008 z"
         id="eye1" />
      <path
         id="outline"
         style="display:inline;fill:#3d3934;stroke-width:0.32"
         d="m 109.0918,36.277344 c -1.19257,0.05181 -2.4229,0.33262 -4.38477,0.873047 -3.64604,1.00435 -5.533529,1.745921 -10.146483,3.984375 -4.597001,2.230705 -6.840041,2.885239 -11.34375,3.310546 -3.223924,0.304451 -3.269766,0.300103 -5.421875,-0.662109 -1.365649,-0.610579 -1.510372,-0.613192 -5.074219,-0.09766 -3.857734,0.558066 -6.11958,0.473282 -9.40625,-0.351563 -4.346997,-1.090949 -11.765238,-0.09363 -15.9375,2.142578 -0.620123,0.332368 -1.363288,0.603516 -1.652344,0.603516 -0.289051,0 -0.704727,0.216469 -0.923828,0.480469 -0.219101,0.264 -0.576553,0.478516 -0.792969,0.478515 -0.392322,0 -5.247517,4.030965 -6.347656,5.269532 -2.135475,2.404174 -3.843305,4.668468 -4.46289,5.917968 -0.520179,1.049032 -1.700219,2.842712 -2.472657,3.759766 -0.179044,0.212573 -0.324218,0.471454 -0.324218,0.574219 0,0.102768 -0.432938,1.110917 -0.960938,2.240234 -0.527995,1.129317 -0.958984,2.246281 -0.958984,2.482422 0,0.236138 -0.15977,0.587502 -0.353516,0.78125 -0.88804,0.888043 -1.977046,6.29383 -2.40625,11.935547 -0.11381,1.495995 -0.31282,2.863067 -0.441406,3.039062 -0.128586,0.176 -0.330026,1.617182 -0.447266,3.201172 -0.11724,1.583995 -0.349568,3.456157 -0.515625,4.160157 -0.166056,0.703995 -0.304394,1.968893 -0.308594,2.810547 -0.0042,0.841647 -0.237833,2.064402 -0.519531,2.71875 -0.563689,1.309376 -0.636422,2.280274 -0.970703,13.031256 -0.394837,12.69864 -0.307507,16.88194 0.363281,17.55273 0.264,0.264 0.478428,0.67173 0.478516,0.9043 2.21e-4,0.57957 1.260083,3.87089 1.625,4.24609 0.16262,0.1672 0.294922,0.5446 0.294922,0.83985 0,0.29525 0.216469,0.71644 0.480469,0.93554 0.330468,0.27427 0.480622,1.00939 0.482422,2.35938 0.0037,2.76971 0.565799,7.38088 1.173828,9.64062 0.91238,3.39096 5.343591,11.67969 6.24414,11.67969 0.232652,0 0.289864,-0.64025 0.173828,-1.91992 -0.15523,-1.71194 -0.109147,-1.91992 0.414063,-1.91992 0.733304,0 1.59215,0.83151 1.59375,1.54297 6.63e-4,0.29542 0.433519,1.40103 0.962891,2.45703 0.529368,1.056 1.104978,2.44199 1.279296,3.07812 0.384054,1.4015 5.872357,7.32227 6.78711,7.32227 0.328824,0 0.958442,0.36078 1.398437,0.80078 0.44,0.44 1.086024,0.79883 1.435547,0.79883 0.349523,0 0.724191,0.25254 0.833984,0.56054 0.109799,0.308 0.339535,0.74094 0.509766,0.96094 0.172569,0.22302 1.000849,0.39844 1.871094,0.39844 1.478219,0 1.560547,-0.044 1.560547,-0.85352 0,-0.47014 -0.192797,-1.08351 -0.427735,-1.36132 -0.871358,-1.03055 -1.246044,-3.915 -1.064453,-8.19336 0.210473,-4.95887 0.401494,-6.54993 0.841797,-6.99024 0.181056,-0.18106 0.331071,-0.55142 0.332031,-0.82422 0.0011,-0.2728 0.185537,-0.85687 0.410157,-1.29687 0.224616,-0.44 0.611016,-1.42556 0.859375,-2.19141 0.248353,-0.76585 0.835371,-1.77408 1.304687,-2.24023 1.729433,-1.71776 3.255814,-2.92774 3.691406,-2.92774 0.246157,0 0.625877,-0.28862 0.845704,-0.64062 0.219823,-0.352 0.570597,-0.64063 0.777343,-0.64063 0.206745,0 0.782906,-0.43098 1.28125,-0.95898 0.498345,-0.528 1.086071,-0.96094 1.306641,-0.96094 0.220573,0 0.400391,-0.28667 0.40039,-0.63867 0,-0.352 0.206848,-0.64063 0.458985,-0.64063 0.252141,0 0.546291,-0.27882 0.654297,-0.61914 0.12554,-0.39554 0.418428,-0.5755 0.810547,-0.5 0.66708,0.12847 2.795868,-1.62795 2.423828,-2 -0.121728,-0.12172 -0.341534,-0.0285 -0.488281,0.20899 -0.488774,0.79085 -0.978366,0.0119 -0.947266,-1.50781 0.04861,-2.37532 0.685869,-4.67672 1.330078,-4.80079 0.307236,-0.0592 0.562759,0.0835 0.568359,0.31641 0.01903,0.79186 0.818442,1.51688 1.480469,1.34375 0.637289,-0.16665 0.638023,-0.19 0.0625,-2.89844 -0.31904,-1.50142 -0.582084,-3.03825 -0.583984,-3.41601 -0.0019,-0.37776 -0.05781,-1.33496 -0.125,-2.12696 -0.06719,-0.792 -0.05686,-1.25906 0.02344,-1.03906 0.0803,0.22 0.316439,0.39844 0.523438,0.39844 0.206995,0 0.555567,0.28862 0.77539,0.64062 0.219827,0.352 0.587086,0.64063 0.816407,0.64063 0.229317,0 0.715649,0.27767 1.080078,0.61719 0.364427,0.33951 0.931015,0.66225 1.259765,0.71875 0.328759,0.0565 1.026686,0.49464 1.550782,0.97265 0.524095,0.47802 1.640573,1.04451 2.480468,1.25977 0.839904,0.21526 1.527344,0.50961 1.527344,0.65234 0,0.14272 0.160972,0.25977 0.359375,0.25977 0.1984,0 1.314348,0.46706 2.478516,1.03906 1.900428,0.93377 2.39345,1.03818 4.83789,1.02148 2.047177,-0.014 3.041448,-0.17571 4.003907,-0.65429 2.570292,-1.27808 5.991042,-3.45354 7.457031,-4.74024 0.826344,-0.72529 2.206005,-1.88162 3.066405,-2.57031 0.8604,-0.6887 2.76863,-2.44846 4.24023,-3.91016 1.93538,-1.92229 2.67578,-2.48696 2.67578,-2.04101 0,0.33908 0.12101,0.69065 0.26758,0.78125 0.14656,0.0906 0.25263,2.04852 0.49024,4.3789 0.35003,3.43304 0.0855,5.14303 0.0273,9.32813 -0.0923,6.63294 -0.24948,8.77769 0.31055,10.92773 0.4441,1.70503 0.37789,3.07813 -0.15039,3.07813 -0.14361,0 -0.35552,0.29723 -0.47071,0.66016 -0.37697,1.18768 -3.85498,5.56444 -6.47461,8.14843 -0.748,0.73784 -1.35937,1.43717 -1.35937,1.55469 0,0.11751 -0.41468,0.67878 -0.921873,1.24609 -2.933966,3.28172 -4.199219,4.8587 -4.199219,5.24024 0,0.61509 1.089734,0.53238 1.691406,-0.12891 0.280234,-0.308 1.057475,-0.84749 1.728516,-1.19922 0.671038,-0.35172 1.98321,-1.25172 2.91406,-2 0.93085,-0.74827 1.86497,-1.36128 2.07812,-1.36328 0.21315,-0.002 0.89182,-0.47511 1.50782,-1.05273 0.616,-0.57763 1.69639,-1.39675 2.40039,-1.82031 0.704,-0.42356 1.35145,-0.85092 1.43945,-0.94922 0.49399,-0.55175 4.03832,-3.03676 4.24024,-2.97266 0.13195,0.0419 0.24023,-0.0496 0.24023,-0.20508 0,-0.15547 0.27852,-0.35621 0.61914,-0.44531 0.58444,-0.15283 1.5744,0.3463 2.52344,1.27344 0.23257,0.2272 0.59335,0.41405 0.80078,0.41406 0.20742,1e-5 0.77998,0.50315 1.27148,1.11914 0.54439,0.68227 1.17352,1.12109 1.61133,1.12109 0.39528,0 1.28418,0.28863 1.97461,0.64063 0.69043,0.352 1.45009,0.63867 1.68945,0.63867 0.23936,0 0.62756,0.18039 0.86133,0.40039 0.23377,0.22 1.28957,1.12 2.34571,2 1.97625,1.64671 2.793,2.92609 3.73242,5.83985 0.2979,0.92395 0.66354,1.67968 0.8125,1.67968 0.14896,0 0.48029,-0.3949 0.73632,-0.8789 0.25608,-0.484 0.9275,-1.74483 1.49219,-2.80078 l 1.02735,-1.91993 L 134.93555,156 c -0.15128,-3.56452 -0.79426,-7.44653 -1.48438,-8.96094 -0.16041,-0.352 -0.60869,-1.54135 -0.99609,-2.64453 -0.86168,-2.45375 -0.70676,-5.41943 0.3418,-6.54492 0.35412,-0.38016 0.64257,-0.91735 0.64257,-1.19531 0,-0.27795 0.37264,-1.05123 0.82617,-1.71875 0.45359,-0.66751 0.89392,-1.60088 0.97852,-2.07422 0.0847,-0.47334 0.37035,-1.19642 0.63672,-1.60547 0.36619,-0.56232 0.43544,-1.22456 0.28125,-2.71875 -0.11216,-1.08695 -0.24276,-2.3643 -0.28906,-2.83789 -0.0463,-0.47359 -0.26499,-1.079 -0.48633,-1.3457 -1.21493,-1.4639 2.04042,-1.62071 4.18359,-0.20118 0.79155,0.5243 1.70154,1.24587 2.02344,1.60157 0.3219,0.3557 0.74687,0.64648 0.94336,0.64648 0.19649,0 1.36161,0.73355 2.58984,1.63086 1.22823,0.89732 2.80972,1.92367 3.51367,2.28125 0.704,0.35758 1.3781,0.81266 1.49805,1.00977 0.85765,1.40923 1.14807,1.6154 1.66602,1.18554 1.21086,-1.00492 0.16181,-3.98508 -2.76367,-7.84765 -2.6675,-3.52196 -6.59115,-6.31084 -10.64063,-7.56446 -1.69751,-0.52551 -2.24011,-1.24348 -1.38867,-1.83984 0.63761,-0.44661 1.26645,-0.41192 4.19726,0.23242 1.30534,0.28697 1.79664,0.23796 3.35938,-0.33594 3.16779,-1.16333 4.23242,-2.70908 4.23242,-6.15039 0,-2.19834 -1.25321,-6.42737 -2.20703,-7.45117 -0.93303,-1.0015 -5.33456,-3.630858 -6.07813,-3.630858 -0.37201,0 -0.67578,0.189616 -0.67578,0.421875 0,0.469698 1.42511,1.818363 1.92188,1.818363 0.17465,0 0.31836,0.36078 0.31836,0.80078 0,0.44 0.28862,1.08745 0.64062,1.43945 0.352,0.352 0.63867,0.7171 0.63868,0.8125 0,0.0954 0.28931,0.48409 0.64257,0.86328 0.75916,0.81486 1.27239,2.49343 1.27539,4.16406 0.002,1.4638 -0.89761,2.48047 -2.19726,2.48047 -2.07034,0 -2.9658,-0.43453 -5.16992,-2.5 -1.98903,-1.86387 -2.30533,-2.3268 -2.86133,-4.19726 -1.25985,-4.238227 -1.60632,-10.254648 -0.77539,-13.498049 0.65193,-2.544704 2.3021,-6.746717 2.81445,-7.166016 0.30022,-0.245696 0.3345,-1.991372 0.14844,-7.519531 -0.30049,-8.927552 -0.76902,-13.569231 -1.51758,-15.039063 -0.31372,-0.615995 -1.24239,-2.432718 -2.06445,-4.035156 -0.82206,-1.602438 -1.49986,-3.113823 -1.50586,-3.359375 -0.006,-0.245552 -0.28885,-1.022567 -0.62891,-1.726562 -0.34006,-0.704 -0.62291,-1.446196 -0.62891,-1.650391 -0.0126,-0.430304 -2.10635,-3.137046 -3.23828,-4.185547 -1.54927,-1.435137 -2.71837,-2.392413 -3.89257,-3.191406 -0.66,-0.449085 -1.19922,-0.927043 -1.19922,-1.060547 0,-0.133501 -0.54122,-0.481502 -1.20117,-0.773438 -1.89469,-0.838062 -2.64864,-1.329135 -3.15821,-2.05664 -0.69233,-0.98843 -1.2733,-1.221512 -4.94531,-1.982422 -1.81591,-0.376294 -2.97149,-0.553767 -4.16406,-0.501953 z m 1.52734,0.578125 c 0.28026,0.01728 0.41992,0.08248 0.41992,0.195312 0,0.186506 0.96736,0.441877 2.14844,0.56836 2.43681,0.260955 4.19273,0.893218 4.4668,1.607421 0.10249,0.267084 1.06863,0.926398 2.14648,1.466797 2.27275,1.139483 7.55859,5.286742 7.5586,5.929688 0,0.240493 0.22264,0.522771 0.49414,0.626953 0.2715,0.104183 0.79591,0.783474 1.16406,1.509766 0.36814,0.726289 0.77259,1.392468 0.90039,1.480468 0.40403,0.278211 1.19689,2.036267 1.44141,3.199219 0.12947,0.616 0.41599,1.479922 0.63867,1.919922 0.22268,0.44 1.10273,2.167849 1.95507,3.839844 1.74251,3.417986 1.76159,3.545497 2.23829,15.77539 0.22507,5.774414 0.0999,6.933955 -1.00782,9.345703 -0.24251,0.528 -0.5379,1.391927 -0.65625,1.919922 -0.11834,0.528 -0.35087,1.132069 -0.51562,1.341797 -0.77136,0.981902 -1.5273,4.549728 -1.5293,7.21875 -0.002,2.538652 0.0541,2.798828 0.60547,2.798828 0.53895,0 0.62687,0.319462 0.76953,2.800781 0.18683,3.24973 0.84291,5.78309 1.60742,6.21094 0.29466,0.1649 0.53516,0.46798 0.53516,0.67383 0,0.20585 0.97216,1.28788 2.16016,2.40429 1.73214,1.6278 2.3182,2.00137 2.95703,1.88086 0.43812,-0.0826 1.03237,-0.0252 1.32031,0.12891 0.78707,0.42123 2.96561,-0.56045 3.58984,-1.61719 0.5779,-0.97832 0.70328,-2.8777 0.24805,-3.76562 -0.15668,-0.30562 -0.55354,-1.16868 -0.88086,-1.91602 -0.32732,-0.74733 -0.74569,-1.30237 -0.92969,-1.23437 -0.184,0.068 -0.35601,-0.16794 -0.38281,-0.52344 -0.0268,-0.35551 -0.34386,-0.96125 -0.70508,-1.3457 -1.03329,-1.09988 -0.783,-1.16919 0.91602,-0.25782 1.82574,0.97933 2.74265,2.49855 3.26953,5.42383 0.42818,2.37731 0.36969,3.69536 -0.24805,5.58399 -0.49134,1.50213 -0.52346,1.52694 -2.74609,2.21484 -1.94587,0.60224 -2.42534,0.6448 -3.56836,0.3164 -2.22381,-0.63886 -5.27852,-2.26247 -5.71094,-3.03515 -0.15497,-0.27693 -0.46709,-0.50391 -0.69531,-0.50391 -0.76664,0 -2.43359,-1.00181 -2.43359,-1.46289 0,-0.25111 -0.13469,-0.45703 -0.29883,-0.45703 -0.16414,0 -0.39028,-0.28667 -0.50195,-0.63867 -0.2346,-0.73917 -0.79883,-0.86361 -0.79883,-0.17578 0,0.94877 0.77406,2.11358 1.87109,2.81445 0.62137,0.39698 1.35629,0.86502 1.63477,1.04102 0.27847,0.176 0.93658,0.62092 1.46093,0.98828 0.52435,0.36736 1.2398,0.77784 1.5918,0.91211 0.61938,0.23626 0.61758,0.2522 -0.0859,0.52343 -0.88265,0.34021 -1.19145,1.02983 -0.78515,1.75586 0.16606,0.29673 1.47622,0.99219 2.91015,1.54493 1.43393,0.55274 3.12143,1.43571 3.75196,1.96093 0.63054,0.52522 1.62173,1.34999 2.20117,1.83399 0.57943,0.484 1.19247,0.88086 1.36328,0.88086 0.17081,0 1.00578,1.08039 1.85547,2.40039 0.84969,1.32 1.62917,2.39844 1.73047,2.39844 0.22924,-1e-5 0.84791,1.46793 1.11328,2.64062 0.11644,0.51458 0.0637,0.88086 -0.12695,0.88086 -0.17936,0 -0.32618,-0.11689 -0.32618,-0.25781 0,-0.14093 -0.61337,-0.57087 -1.36132,-0.95703 -1.61758,-0.83508 -2.45317,-1.35984 -3.0625,-1.91993 -0.24732,-0.22731 -1.26179,-0.92632 -2.25391,-1.55468 -0.99212,-0.62835 -2.55812,-1.71936 -3.48047,-2.42383 -1.44902,-1.10671 -1.95515,-1.30297 -3.72852,-1.44531 -2.25444,-0.18097 -4.35351,0.0948 -4.35351,0.57226 0,0.16802 0.42944,0.30469 0.95508,0.30469 0.80053,0 1.03842,0.196 1.46484,1.20117 1.14471,2.69837 0.86062,6.67802 -0.64453,9.03906 -1.571,2.4644 -1.77539,2.88992 -1.77539,3.66993 0,0.44614 -0.12164,0.81054 -0.26953,0.81054 -0.45253,0 -1.10976,3.38192 -0.94336,4.85352 0.0863,0.76281 0.53435,2.18482 0.99609,3.16015 0.46173,0.97534 0.98525,2.77534 1.16211,4 0.17686,1.22467 0.44791,2.66054 0.60352,3.19141 0.15562,0.53087 0.30448,2.1144 0.33008,3.51953 0.0385,2.11535 -0.0897,2.84641 -0.74805,4.25 -0.43729,0.93234 -1.00606,1.9045 -1.26172,2.16016 -0.70762,0.70761 -1.15039,0.48497 -1.15039,-0.57813 0,-0.33891 -0.28667,-0.98224 -0.63867,-1.42968 -0.352,-0.44749 -0.64063,-0.99187 -0.64063,-1.21094 0,-0.21906 -0.68171,-0.95552 -1.51562,-1.63672 -0.83392,-0.6812 -1.76373,-1.48261 -2.06446,-1.78125 -0.67316,-0.66849 -2.05035,-1.37757 -3.2207,-1.6582 -0.484,-0.11605 -0.87891,-0.3528 -0.87891,-0.52539 0,-0.17265 -0.49646,-0.31446 -1.10351,-0.31446 -0.88295,0 -1.27348,-0.22148 -1.94922,-1.10742 -0.46459,-0.6091 -1.14703,-1.2027 -1.51758,-1.32031 -0.75406,-0.23933 -1.80206,-1.3678 -1.81836,-1.95703 -0.006,-0.21175 0.5275,-0.63261 1.1875,-0.93555 1.61324,-0.74048 4.54348,-3.23239 4.89844,-4.16602 0.15753,-0.41433 0.43487,-0.7539 0.61523,-0.7539 0.18036,0 0.32813,-0.25937 0.32813,-0.57617 0,-0.3168 0.13182,-0.71171 0.29297,-0.87891 0.16116,-0.1672 0.36944,-1.74391 0.46484,-3.50391 0.22409,-4.13298 0.92173,-8.91461 1.50391,-10.32031 0.16401,-0.396 0.4316,-1.04345 0.5957,-1.43945 0.16409,-0.396 0.51432,-1.2258 0.77734,-1.8418 0.26308,-0.616 0.57257,-1.76659 0.6875,-2.55859 0.11497,-0.792 0.33675,-1.87239 0.49415,-2.40039 1.37892,-4.62584 1.99325,-9.47749 1.28906,-10.18164 -0.19063,-0.19062 -0.34571,-0.74939 -0.34571,-1.24219 0,-0.4928 -0.14431,-0.89649 -0.32031,-0.89649 -0.176,0 -0.32031,-0.22071 -0.32031,-0.49023 0,-0.26953 -0.20253,-0.56741 -0.44922,-0.66211 -0.2467,-0.0947 -0.54102,-0.66572 -0.6543,-1.26953 -0.11327,-0.6038 -0.34369,-1.09766 -0.51171,-1.09766 -0.16802,0 -0.30469,-0.27948 -0.30469,-0.62109 0,-0.34162 -0.1246,-0.69857 -0.27735,-0.79297 -0.15276,-0.0944 -0.34508,-1.65629 -0.42578,-3.470703 -0.12084,-2.717022 -0.29731,-3.617945 -1.00195,-5.107422 -0.47055,-0.994657 -0.85547,-1.883529 -0.85547,-1.974609 0,-0.09108 -0.36901,-0.709981 -0.82031,-1.375 -0.45129,-0.665021 -1.05621,-1.715192 -1.34375,-2.333985 -0.28753,-0.618792 -0.60857,-1.197156 -0.71485,-1.285156 -0.29283,-0.242505 -2.24023,-3.204891 -2.24023,-3.408203 0,-0.09777 -0.36078,-0.605999 -0.80078,-1.128906 -0.44,-0.522909 -0.79883,-1.152 -0.79883,-1.398438 0,-0.246439 -0.36078,-0.684355 -0.80078,-0.972656 -0.44,-0.288298 -0.80078,-0.71232 -0.80078,-0.941406 0,-0.229092 -0.10628,-0.464768 -0.23828,-0.523438 -0.44029,-0.195683 -1.68164,-2.152549 -1.68164,-2.652344 0,-0.271121 -0.11982,-0.49414 -0.26758,-0.49414 -0.28231,0 -3.1503,-3.541811 -3.75781,-4.640625 -0.19462,-0.352 -0.79829,-1.451539 -1.3418,-2.445313 -1.12055,-2.048857 -5.66328,-6.875057 -6.63281,-7.046875 -0.36813,-0.06524 -0.68254,-0.410885 -0.74024,-0.814453 -0.22063,-1.543768 -3.640947,-1.600416 -6.080076,-0.09961 -0.920325,0.56628 -1.850143,0.938469 -2.066406,0.826172 -0.216265,-0.112298 -0.73437,-0.400349 -1.152344,-0.640625 -0.541998,-0.311581 -1.000488,-0.350363 -1.599609,-0.134766 -1.284177,0.462112 -1.737713,0.936306 -2.556641,2.675781 -0.414289,0.879995 -0.882323,1.850642 -1.039062,2.15625 -0.156739,0.305613 -0.285156,0.808754 -0.285156,1.119141 0,0.387902 -0.249619,0.564453 -0.796875,0.564453 -0.612635,0 -0.753953,-0.127688 -0.617188,-0.558594 0.09776,-0.307995 0.05289,-0.560547 -0.09961,-0.560547 -0.152506,0 -0.460605,-0.539223 -0.683594,-1.199218 C 82.680627,62.431334 81.686022,60.311312 81.125,59.845703 80.857752,59.623904 80.640625,59.240085 80.640625,58.994141 80.640625,58.257738 79.069139,56 78.556641,56 c -0.261795,0 -0.476563,-0.160071 -0.476563,-0.355469 0,-0.35212 -2.688832,-3.164062 -3.02539,-3.164062 -0.09631,0 -0.173829,0.193547 -0.173829,0.429687 0,0.43128 -1.952274,1.171669 -3.078125,1.167969 -0.331576,-0.0011 -1.01917,-0.220292 -1.529296,-0.486328 -0.828052,-0.431901 -1.008183,-0.431825 -1.669922,0.002 -0.407677,0.26712 -0.954466,0.486328 -1.214844,0.486328 -0.578723,0 -2.431155,1.575636 -1.869141,1.589844 0.184179,0.49563 0.05128,0.660297 -0.240234,1.591797 0,0.341607 -0.142364,0.709585 -0.318359,0.818359 -0.176,0.108774 -0.320313,0.60355 -0.320313,1.09961 0,0.496059 -0.21578,1.080777 -0.478516,1.298828 -0.262735,0.218049 -0.637541,0.991252 -0.832031,1.71875 -0.194493,0.727492 -0.625204,1.925934 -0.958984,2.662109 -0.333789,0.736171 -0.521289,1.561606 -0.416016,1.835937 0.105274,0.274339 -0.11216,1.01308 -0.482422,1.640626 -0.370254,0.627537 -0.675787,1.383701 -0.679687,1.68164 -0.0039,0.297939 -0.28864,0.901797 -0.632813,1.341797 -0.344168,0.44 -0.628908,0.958071 -0.632812,1.150391 -0.0039,0.192312 -0.365679,0.984087 -0.802735,1.759765 -1.260979,2.237978 -1.494063,2.888479 -1.763671,4.929688 -0.139482,1.055995 -0.291181,2.064234 -0.337891,2.240234 -0.04671,0.176 0.0325,0.589749 0.175781,0.919922 0.150224,0.346176 0.103818,1.033472 -0.109375,1.623047 -0.203338,0.562318 -0.369141,1.458954 -0.369141,1.992187 10e-7,1.186255 -0.598238,2.986329 -0.992187,2.986329 -0.15878,0 -0.289063,0.288191 -0.289063,0.642578 10e-7,0.354383 -0.12595,0.89556 -0.28125,1.201172 -0.155294,0.305608 -0.427396,1.131942 -0.603515,1.835937 -0.176115,0.703995 -0.617299,2.143224 -0.982422,3.199219 -0.36512,1.055995 -0.82868,2.56738 -1.029297,3.359375 -0.200615,0.791995 -0.495452,1.690474 -0.654297,1.996094 -0.158848,0.30561 -0.289062,0.83411 -0.289062,1.17383 0,0.33972 -0.170668,0.67404 -0.38086,0.74414 -0.275482,0.0918 -0.375088,1.48454 -0.355468,4.98828 0.03232,5.77534 0.04073,5.75529 -3.556641,7.53321 -1.332117,0.65831 -2.572248,1.47917 -2.755859,1.82226 -0.183616,0.34309 -0.52661,0.62305 -0.763672,0.62305 -0.514125,0 -4.347656,4.92167 -4.347657,5.58203 10e-7,0.25274 -0.126701,0.54002 -0.283203,0.63672 -0.156498,0.0967 -0.384649,0.57292 -0.505859,1.05859 -0.121209,0.48566 -0.42802,1.11474 -0.683594,1.39844 -0.255566,0.2837 -0.528333,0.93115 -0.605468,1.43945 -0.07714,0.5083 -0.49007,1.93207 -0.917969,3.16407 -0.89698,2.5825 -1.108786,3.3439 -2.451172,8.85742 -0.880401,3.61599 -0.986935,4.58386 -0.990235,8.91211 -0.002,2.67049 -0.08886,4.77046 -0.191406,4.66797 -0.234167,-0.23417 -0.64905,-0.95722 -1.794922,-3.1211 -0.497945,-0.94034 -1.052262,-1.80002 -1.230468,-1.91016 -0.17821,-0.11009 -0.396125,-0.75977 -0.484375,-1.44335 -0.08825,-0.68362 -0.291584,-1.37968 -0.451172,-1.54688 -0.159587,-0.1672 -0.289063,-0.56363 -0.289063,-0.88281 0,-0.31919 -0.142006,-0.83111 -0.316406,-1.13672 -0.441346,-0.7734 -0.89158,-7.95893 -0.595703,-9.51563 0.133808,-0.70395 0.250112,-1.97619 0.257812,-2.82617 0.0128,-1.41912 1.289617,-5.37345 1.97461,-6.11718 0.153985,-0.1672 0.279297,-0.57848 0.279297,-0.91211 0,-0.33363 0.264535,-0.98791 0.58789,-1.45508 0.32336,-0.46717 0.68611,-1.06608 0.804688,-1.33008 0.118578,-0.264 0.503362,-0.91145 0.855468,-1.43945 0.352112,-0.528 0.727508,-1.21154 0.833985,-1.51954 0.106476,-0.30795 0.308103,-0.56054 0.449219,-0.56054 0.141115,0 0.587427,-0.53922 0.992187,-1.19922 0.870059,-1.4187 0.973694,-1.56073 2.027344,-2.76758 0.444996,-0.5097 0.808594,-1.11419 0.808594,-1.34375 0,-0.22955 0.183976,-0.53308 0.408203,-0.67383 0.224224,-0.14074 0.683407,-0.68684 1.019531,-1.21484 0.336128,-0.528 1.699607,-2.32791 3.03125,-3.99805 2.297376,-2.88132 2.683006,-3.44423 3.765625,-5.51562 0.251139,-0.4805 0.59101,-0.95867 0.755859,-1.06055 0.164858,-0.10189 0.300782,-0.445572 0.300782,-0.765627 0,-0.320064 0.216473,-0.761368 0.480468,-0.980469 0.264,-0.219101 0.478516,-0.652558 0.478516,-0.962891 0,-0.310324 0.215601,-0.976354 0.478516,-1.480468 0.26291,-0.504118 0.483534,-1.132485 0.490234,-1.396485 0.0067,-0.264 0.224022,-0.759928 0.482422,-1.101562 0.258403,-0.341638 0.46875,-1.007664 0.46875,-1.480469 0,-0.472812 0.216469,-1.038712 0.480469,-1.257813 0.305137,-0.25324 0.480468,-0.961187 0.480468,-1.941406 0,-0.848055 0.153801,-1.637717 0.341797,-1.753906 0.187998,-0.116192 0.25774,-0.431604 0.154297,-0.701172 -0.221974,-0.578456 0.425318,-5.859697 0.775391,-6.324219 0.132637,-0.176 0.332357,-0.895614 0.443359,-1.599609 0.235725,-1.494993 0.665719,-3.572011 1.160156,-5.599609 0.193132,-0.792 0.435828,-2.127132 0.539063,-2.966797 0.103235,-0.83967 0.313542,-1.604499 0.466797,-1.699219 0.153254,-0.09472 0.279297,-0.538659 0.279297,-0.986328 0,-0.447673 0.392045,-1.511067 0.871093,-2.363282 0.479056,-0.852212 0.756279,-1.663643 0.617188,-1.802734 -0.317542,-0.317543 -1.472822,1.149763 -1.482422,1.882813 -0.0039,0.299713 -0.167326,0.947171 -0.365234,1.439453 C 53.843102,66.956933 53.564657,67.648 53.423828,68 c -0.140829,0.352 -0.345062,1.071614 -0.455078,1.599609 -0.572309,2.746662 -0.831366,3.95867 -1.09375,5.121094 -0.158909,0.703995 -0.533569,2.576166 -0.832031,4.160156 -0.298468,1.583995 -0.672356,3.129939 -0.832031,3.435547 -0.15968,0.305612 -0.291016,1.636602 -0.291016,2.958985 0,1.389551 -0.135372,2.404296 -0.320313,2.404297 -0.175995,0 -0.320312,0.616306 -0.320312,1.36914 0,0.752836 -0.222137,1.685877 -0.494141,2.074219 -0.271998,0.388335 -0.55257,1.175749 -0.625,1.748047 -0.07243,0.572296 -0.283229,1.0892 -0.466797,1.15039 -0.18356,0.06119 -0.333984,0.347316 -0.333984,0.634766 0,0.663246 -0.953667,3.2714 -1.427734,3.904297 -0.197763,0.264 -0.565287,0.911458 -0.816407,1.439453 -0.623535,1.31105 -2.374869,4.10438 -3.144531,5.01367 -3.035739,3.58647 -3.570312,4.27392 -3.570312,4.59571 0,0.20222 -0.360782,0.53194 -0.800782,0.73242 -0.439995,0.20047 -0.798828,0.63244 -0.798828,0.96093 0,0.3285 -0.288625,0.85918 -0.640625,1.17774 -0.351995,0.31856 -0.640625,0.71723 -0.640625,0.88672 0,0.16949 -0.436581,0.83147 -0.970703,1.4707 -1.52245,1.82208 -1.587891,1.91535 -1.58789,2.25195 0,0.17469 -0.188798,0.43347 -0.417969,0.57422 -0.456903,0.28061 -2.462891,3.45929 -2.462891,3.90235 0,0.1518 -0.206025,0.44598 -0.457031,0.65429 -0.251005,0.20832 -0.705672,1.19799 -1.011719,2.19922 -0.306048,1.00124 -0.821584,2.35487 -1.144531,3.00781 -0.322947,0.65299 -0.585938,1.57814 -0.585938,2.05665 0,1.0461 -0.667672,2.99609 -1.02539,2.99609 -0.140644,0 -0.25586,-0.33343 -0.25586,-0.74024 0,-0.40681 -0.286676,-1.04795 -0.638671,-1.42578 -0.352,-0.37783 -0.640626,-0.86326 -0.640626,-1.07812 10e-7,-0.65037 -0.774794,-2.64886 -1.201171,-3.09961 -0.854377,-6.26253 0.09405,-8.67282 -0.0039,-12.7793 0.01024,-2.47065 0.08728,-5.45452 -0.01563,-8.5293 0.279676,-2.30003 0.398241,-7.037598 0.888672,-9.240229 0.536266,-2.40847 1.240525,-7.341664 1.607422,-11.267579 0.197377,-2.111985 0.49561,-4.890643 0.662109,-6.173828 0.262552,-2.052826 0.517696,-4.093084 1.080079,-6.226562 0.121553,-0.923995 0.485855,-2.254989 0.808593,-2.958984 2.00501,-4.373535 2.507241,-5.499634 2.679688,-6 0.106149,-0.308 0.330508,-0.560547 0.498047,-0.560547 0.16754,0 0.39379,-0.404024 0.501953,-0.896485 0.108163,-0.492455 0.533234,-1.258716 0.945312,-1.703125 0.41208,-0.444408 0.85398,-1.156863 0.982422,-1.583984 0.128441,-0.427126 0.72866,-1.280485 1.332032,-1.896485 2.091905,-2.135687 3.953125,-4.271898 3.953124,-4.535156 10e-7,-0.14551 0.216474,-0.265625 0.480469,-0.265625 0.264,0 0.480469,-0.144312 0.480469,-0.320312 0,-0.176 0.206973,-0.31836 0.458984,-0.31836 0.252013,0 0.764662,-0.432942 1.140625,-0.960937 0.375968,-0.528 0.88297,-0.958984 1.125,-0.958984 0.242035,0 0.627441,-0.267963 0.857422,-0.59375 0.372406,-0.527555 2.229545,-1.680088 2.65625,-1.648438 C 46.754846,46.757054 48,46.289228 48,46.056641 c 0,-0.339252 1.211777,-1.006141 2.076172,-1.142579 0.353664,-0.05582 1.364145,-0.256147 2.24414,-0.445312 3.412187,-0.733488 4.54682,-0.868238 6.400391,-0.757812 2.434067,0.145 4.279516,0.386664 4.636719,0.607421 0.152976,0.09455 1.012205,0.188795 1.908203,0.208985 0.895995,0.02018 1.707264,0.163892 1.802734,0.318359 0.263747,0.426752 4.629541,0.222859 5.826172,-0.271484 0.579748,-0.239518 1.181799,-0.356236 1.337891,-0.259766 0.156093,0.09647 0.373828,0.03043 0.484375,-0.148437 0.330976,-0.535529 1.27738,-0.373392 2.808594,0.482422 1.14207,0.638315 1.488302,1.031825 1.646484,1.875 0.11017,0.587252 0.485429,1.327138 0.833984,1.642578 0.348557,0.315435 0.634766,0.716466 0.634766,0.892578 0,0.176109 0.394911,0.837806 0.878906,1.46875 1.076005,1.402681 1.679688,2.520284 1.679688,3.109375 0,0.243882 0.144312,0.443359 0.320312,0.443359 0.176,0 0.320313,0.279481 0.320313,0.621094 0,0.341612 0.144312,0.709585 0.320312,0.818359 0.176,0.108774 0.320313,-0.08941 0.320313,-0.441406 0,-0.352 -0.116668,-0.711598 -0.257813,-0.798828 -0.141149,-0.08723 -0.454601,-0.88815 -0.697265,-1.779297 -0.242669,-0.891147 -0.558945,-1.619141 -0.703125,-1.619141 -0.144186,0 -0.261719,-0.201879 -0.261719,-0.447265 0,-0.245389 -0.439737,-0.915559 -0.976563,-1.490235 -1.161001,-1.242857 -1.659863,-2.118337 -1.767578,-3.099609 -0.07186,-0.6546 0.06146,-0.727287 1.41211,-0.757812 0.820498,-0.01854 2.139645,-0.07971 2.93164,-0.136719 0.791995,-0.05701 1.826404,-0.112517 2.298828,-0.123047 0.472432,-0.01053 0.948635,-0.163884 1.058594,-0.341797 0.109955,-0.177917 0.68404,-0.324219 1.275391,-0.324219 0.591345,0 1.482207,-0.196854 1.980469,-0.4375 2.973556,-1.436128 3.829366,-1.803374 4.1875,-1.802734 0.219995,4.9e-4 0.398437,-0.144313 0.398437,-0.320313 0,-0.175995 0.24102,-0.320312 0.535156,-0.320312 0.294141,0 0.775409,-0.215362 1.06836,-0.480469 0.292936,-0.26511 1.657961,-0.777949 3.035156,-1.138672 1.377203,-0.360718 2.801183,-0.863023 3.164063,-1.117187 0.36287,-0.25417 1.04731,-0.462891 1.52148,-0.462891 0.47418,0 0.91492,-0.156827 0.97852,-0.347656 0.0636,-0.190829 0.54335,-0.393079 1.06641,-0.449219 0.52305,-0.05614 1.70686,-0.206397 2.63086,-0.335937 0.55892,-0.07837 0.9795,-0.109062 1.25976,-0.0918 z M 75.195312,53.841797 c 0.106049,-0.03737 0.178038,0.04016 0.246094,0.220703 0.170381,0.451993 0.663662,0.957895 2.519532,2.583984 0.505915,0.443283 1.206598,1.413555 1.558593,2.15625 0.352,0.742701 0.74886,1.351616 0.88086,1.353516 0.131995,0.002 0.240234,0.364688 0.240234,0.804688 0,0.439995 0.139854,0.798828 0.3125,0.798828 0.172646,0 0.40519,0.360781 0.515625,0.800781 0.110432,0.439995 0.315582,0.798828 0.457031,0.798828 0.14145,0 0.355826,0.576224 0.47461,1.279297 0.118787,0.703074 0.347127,1.359675 0.507812,1.458984 0.160688,0.09931 0.291016,0.522185 0.291016,0.941406 0,0.419226 0.13789,0.848084 0.304687,0.951172 C 83.820927,68.18616 83.921208,72 83.609375,72 c -0.445296,0 -1.029863,-1.215412 -1.039063,-2.160156 -0.0056,-0.572 -0.154078,-1.039063 -0.330078,-1.039063 -0.175995,0 -0.320312,-0.212624 -0.320312,-0.472656 0,-0.58667 -1.885481,-4.129525 -2.275391,-4.275391 -0.156823,-0.05867 -0.285156,-0.291748 -0.285156,-0.519531 0,-0.227782 -0.214516,-0.593399 -0.478516,-0.8125 -0.263995,-0.219101 -0.480468,-0.669552 -0.480468,-1 0,-0.330451 -0.116953,-0.601562 -0.259766,-0.601562 -0.142813,0 -0.579348,-0.297502 -0.970703,-0.66211 -0.39136,-0.364603 -0.844663,-0.617157 -1.00586,-0.560547 -0.436248,0.1532 -3.84375,4.511532 -3.84375,4.916016 0,0.191734 -0.432942,0.761727 -0.960937,1.267578 -0.527995,0.505856 -0.958984,1.087224 -0.958984,1.291016 0,0.203795 -0.281027,0.622119 -0.623047,0.93164 -0.342026,0.30953 -0.712261,0.980484 -0.824219,1.490235 -0.111962,0.509745 -0.392109,0.927734 -0.623047,0.927734 -0.230934,0 -0.509855,0.355579 -0.61914,0.791016 -0.109286,0.435431 -0.556354,1.319724 -0.994141,1.964843 -0.437792,0.64512 -0.796875,1.312315 -0.796875,1.482422 0,0.170112 -0.430989,0.854832 -0.958984,1.521485 C 64.432938,77.147117 64,77.897004 64,78.146484 c 0,0.249488 -0.290758,0.764658 -0.646484,1.146485 -0.355728,0.381826 -0.734792,1.132948 -0.841797,1.667969 -0.107002,0.535012 -0.31939,1.049801 -0.472657,1.144531 -0.153262,0.09472 -0.279296,0.447741 -0.279296,0.783203 0,0.335463 -0.200939,1.226319 -0.447266,1.980469 -0.246323,0.754145 -0.541645,2.045519 -0.65625,2.86914 -0.150515,1.081729 -0.515186,1.83071 -1.3125,2.701172 -0.607067,0.662763 -1.103516,1.393441 -1.103516,1.623047 0,0.250519 -0.384852,0.417969 -0.960937,0.417969 -1.154043,0 -1.218265,0.426723 -0.208985,1.375 0.415692,0.390561 0.836538,1.256308 0.945313,1.943359 0.107945,0.681822 0.443857,1.51369 0.746094,1.847656 0.302235,0.333972 0.564463,0.934901 0.582031,1.335938 0.01756,0.401032 0.428842,1.154668 0.914062,1.673828 1.059183,1.13326 1.109489,1.34587 1.289063,5.42383 0.09528,2.16382 0.318532,3.54222 0.689453,4.25781 0.301699,0.58204 0.473095,1.34649 0.38086,1.69922 -0.09593,0.36683 0.01123,0.71113 0.25,0.80273 0.229576,0.0881 0.508304,0.7268 0.61914,1.41993 0.129868,0.81212 0.37084,1.25976 0.677734,1.25976 0.339869,0 0.476563,0.35531 0.476563,1.24219 0,0.9934 0.134524,1.2794 0.671875,1.41992 0.369706,0.0967 0.582739,0.32189 0.472656,0.5 -0.110083,0.17812 0.235208,1.24437 0.767578,2.37109 0.532377,1.12677 0.966797,2.43837 0.966797,2.91407 0,0.4757 0.195861,1.25325 0.435547,1.72851 0.239683,0.47526 0.517588,1.69308 0.617188,2.70508 0.0996,1.012 0.08413,1.83508 -0.03516,1.83008 -0.187246,-0.007 -1.521827,-1.1154 -3.283203,-2.72656 -0.27876,-0.255 -0.662954,-0.46485 -0.853515,-0.46485 -0.19057,0 -0.394455,-0.10892 -0.453125,-0.24218 -0.16432,-0.37339 -2.722052,-2.31641 -3.048828,-2.31641 -0.602179,0 -6.493894,-6.31346 -6.496094,-6.96094 -7.61e-4,-0.22 -0.146266,-0.40039 -0.322266,-0.40039 -0.176,0 -0.320312,-0.28667 -0.320312,-0.63867 0,-0.352 -0.107931,-0.64063 -0.240235,-0.64063 -0.289643,0 -1.439322,-2.27633 -1.951172,-3.86328 -0.202705,-0.6285 -0.369102,-2.57086 -0.36914,-4.31836 -6.4e-5,-3.11216 0.577594,-5.75268 1.779297,-8.138669 0.221602,-0.439995 0.504807,-1.341965 0.628906,-2.003906 0.124103,-0.661937 0.353718,-1.282466 0.509766,-1.378906 0.156043,-0.09645 0.283203,-0.518279 0.283203,-0.9375 0,-0.419226 0.144312,-0.850211 0.320312,-0.958985 0.176,-0.108774 0.31836,-0.754508 0.318359,-1.435546 0,-0.68104 0.198863,-1.437148 0.441407,-1.679688 0.24254,-0.242541 0.542575,-0.900862 0.666015,-1.462891 0.123443,-0.562024 0.33889,-1.021484 0.478516,-1.021484 0.296208,0 0.59537,-2.083194 0.943359,-6.560547 0.244659,-3.147847 1.078567,-6.560547 1.603516,-6.560547 0.147181,0 0.350714,-0.409823 0.451172,-0.912109 0.100457,-0.502288 0.694774,-1.788149 1.320312,-2.855469 0.625542,-1.067319 1.136719,-2.135775 1.136719,-2.375 0,-0.239223 0.225149,-0.756036 0.5,-1.148437 0.27486,-0.392407 0.463242,-0.964729 0.419922,-1.271485 -0.154221,-1.092161 0.949991,-4.658153 1.609375,-5.197265 0.456205,-0.372995 1.630859,-3.776545 1.630859,-4.726563 0,-0.64282 0.159301,-1.033203 0.421875,-1.033203 0.232263,0 0.743752,-0.37031 1.136719,-0.822266 0.587223,-0.675361 0.897336,-0.785775 1.738281,-0.621093 0.562768,0.110208 1.334847,0.355002 1.716797,0.542968 0.974961,0.479818 2.868149,0.04923 3.490235,-0.792968 0.204215,-0.276479 0.345127,-0.427477 0.451171,-0.464844 z M 84.800781,56 c -0.176,0 -0.320312,0.791771 -0.320312,1.759766 0,0.967995 0.144312,1.759765 0.320312,1.759765 0.176,0 0.31836,-0.79177 0.31836,-1.759765 C 85.119141,56.791771 84.976781,56 84.800781,56 Z m 11.857422,4.59375 c 0.275766,-0.009 0.590659,0.0049 0.941406,0.04297 0.616,0.06688 1.229329,0.131348 1.361329,0.142578 0.131995,0.01123 0.202203,0.192795 0.158203,0.402344 -0.044,0.209544 0.208547,0.441748 0.560547,0.517578 0.692892,0.149264 5.919922,5.21428 5.919922,5.736328 0,0.174778 0.42989,0.804541 0.95508,1.400391 0.52519,0.595844 0.95798,1.317296 0.96093,1.601562 0.003,0.284265 0.29254,0.882589 0.64454,1.330078 0.352,0.447495 0.64062,0.96987 0.64062,1.16211 0,0.192235 0.15096,0.349609 0.33594,0.349609 0.18498,0 0.54042,0.49206 0.79101,1.091797 0.25059,0.599736 0.81925,1.375018 1.26368,1.724609 0.44443,0.34959 0.80859,0.729955 0.80859,0.84375 0,0.277911 1.26411,2.043841 2.18164,3.048828 0.40752,0.446368 0.96322,1.23289 1.23633,1.748047 0.46912,0.884881 1.6328,2.601899 3.67969,5.431641 0.49651,0.686401 0.90234,1.442093 0.90234,1.679687 0,0.237593 0.10823,0.4346 0.24023,0.4375 0.132,0.0027 0.59281,0.722351 1.02344,1.59961 0.43063,0.877259 0.87102,1.595703 0.97852,1.595703 0.21021,0 0.91434,1.624805 1.58593,3.658203 0.22878,0.692622 0.39103,2.306552 0.36133,3.585937 -0.0297,1.27939 0.0897,2.58442 0.26367,2.90039 0.17395,0.31598 0.55037,1.15147 0.83594,1.85547 0.8636,2.12901 1.51798,3.35937 1.78711,3.35937 0.14031,0 0.35687,0.53922 0.48047,1.19922 0.12359,0.66 0.40129,1.63216 0.61914,2.16016 0.40254,0.97563 0.40277,0.98185 -0.79492,6.24023 -1.0037,4.40674 -1.43513,6.04863 -1.82031,6.92969 -0.24246,0.5546 -0.44141,1.22898 -0.44141,1.5 0,0.27101 -0.13933,0.57973 -0.31055,0.68555 -0.68597,0.42395 -1.42357,4.37368 -1.93945,10.38476 -0.18978,2.21137 -0.5525,4.43818 -0.80664,4.94922 -0.25413,0.51104 -0.46289,1.04965 -0.46289,1.19727 0,0.28051 -1.09493,1.6657 -1.91992,2.42773 -0.67452,0.62305 -5.34283,3.92578 -5.54883,3.92578 -0.15655,0 -2.41017,1.49601 -5.9707,3.96289 -0.792,0.54874 -1.6756,1.14236 -1.96289,1.31836 -0.28731,0.176 -1.72653,1.1911 -3.19922,2.25586 -1.47271,1.06476 -2.85813,2.04411 -3.078128,2.17774 -0.625048,0.37964 -0.490591,-0.84669 0.160158,-1.46094 0.66107,-0.624 1.00637,-1.06287 1.77734,-2.26367 0.31435,-0.4896 0.68277,-0.82133 0.82031,-0.73633 0.13753,0.085 0.74298,-0.44846 1.34571,-1.1875 0.60273,-0.73903 1.38433,-1.6437 1.73633,-2.00977 0.92902,-0.96621 3.04101,-4.12069 3.04101,-4.54297 0,-0.19832 0.21011,-0.47939 0.4668,-0.62304 0.51077,-0.28584 3.50238,-5.06506 3.84375,-6.14063 0.11685,-0.36817 0.33091,-0.66992 0.47656,-0.66992 0.43601,0 0.67054,-2.35719 0.93945,-9.43945 0.14034,-3.696 0.35878,-7.07953 0.48438,-7.51953 0.1256,-0.44 0.38736,-1.44824 0.58203,-2.24024 0.19468,-0.792 0.98675,-2.70264 1.75977,-4.24609 1.39788,-2.79118 2.32617,-5.63639 2.32617,-7.125 0,-0.9191 -0.70195,-3.75768 -0.98633,-3.98828 -0.10853,-0.088 -0.33808,-0.5931 -0.50977,-1.1211 -0.17168,-0.528 -0.90496,-1.39192 -1.6289,-1.91992 -0.72395,-0.528 -1.32514,-1.07115 -1.33594,-1.20703 -0.0108,-0.13588 -0.77563,-0.999803 -1.70117,-1.91992 -0.92555,-0.920116 -1.93753,-2.068735 -2.24805,-2.552735 -0.31051,-0.483995 -0.75965,-0.880859 -0.99805,-0.880859 -0.81578,0 -1.2647,-0.972962 -1.1914,-2.580078 0.0744,-1.630003 -0.21056,-1.953281 -0.94336,-1.070313 -0.38401,0.462703 -0.4609,0.457776 -0.83984,-0.06055 -0.22926,-0.313532 -0.41602,-0.784424 -0.41602,-1.044922 0,-0.260502 -0.23048,-0.728295 -0.51172,-1.039063 -0.55872,-0.617377 -0.36578,-1.244141 0.38281,-1.244141 0.26062,0 1.06166,0.300864 1.78125,0.667969 1.1293,0.576125 1.37205,0.604512 1.76368,0.212891 0.39158,-0.391625 0.37505,-0.548375 -0.1211,-1.150391 -0.44128,-0.535435 -1.12496,-0.765978 -2.9414,-0.990234 -2.08945,-0.257955 -2.89286,-0.628981 -2.91016,-1.34375 -0.003,-0.111472 0.28472,-0.277091 0.63672,-0.369141 0.91608,-0.239562 0.78997,-1.079856 -0.19922,-1.328125 -0.70041,-0.175795 -4.60156,-3.749175 -4.60156,-4.214843 0,-0.08065 -0.396868,-0.570777 -0.880863,-1.089844 -1.5346,-1.645809 -1.949676,-2.177281 -1.810547,-2.316406 0.07448,-0.07448 -0.369184,-0.655562 -0.986328,-1.291016 -0.617152,-0.635454 -1.123047,-1.256751 -1.123047,-1.38086 0,-0.124107 -0.394911,-0.742107 -0.878906,-1.373046 -1.076005,-1.402686 -1.679688,-2.520289 -1.679688,-3.109375 0,-0.243882 -0.10915,-0.44336 -0.242187,-0.44336 -0.133037,0 -0.441418,-0.46902 -0.683594,-1.041015 -0.242176,-0.572 -0.64608,-1.206295 -0.898438,-1.410157 -0.381433,-0.308136 -0.387779,-0.483015 -0.04297,-1.035156 0.349906,-0.560296 0.331859,-0.746262 -0.109375,-1.1875 -0.646649,-0.646645 -1.22461,-0.335594 -1.22461,0.658203 0,0.410784 -0.196147,0.821445 -0.4375,0.914063 -0.448984,0.172291 -1.002064,1.767467 -0.71289,2.05664 0.16768,0.16768 1.181979,-0.727427 1.162109,-1.02539 -0.107369,-1.61058 0.510684,-0.872703 2.265625,2.703125 C 92.82513,71.365574 93.78,72.949125 94,72.953125 c 0.418426,0.0076 0.434712,0.04375 0.556641,1.207031 0.0516,0.492285 -0.09527,0.720703 -0.464844,0.720703 -0.29729,0 -0.877656,0.358829 -1.291016,0.798829 -0.413353,0.439995 -0.638273,0.800781 -0.498047,0.800781 0.140234,0 0.09634,0.190078 -0.09766,0.423828 -0.204928,0.246922 -0.911917,0.40396 -1.6875,0.375 -1.033089,-0.03858 -1.525015,-0.26068 -2.177734,-0.984375 -0.789675,-0.875547 -1.716199,-1.454939 -2.939453,-1.839844 -0.291926,-0.09186 -0.588802,-0.628109 -0.675782,-1.220703 -0.176776,-1.204478 0.275092,-3.154297 0.730469,-3.154297 0.167728,0 0.304688,-0.416618 0.304688,-0.925781 0,-0.556637 0.205187,-1.003923 0.515625,-1.123047 0.339352,-0.130247 0.457485,-0.428684 0.341797,-0.871094 -0.160016,-0.611902 -0.0012,-1.11624 0.794921,-2.519531 0.149766,-0.264 0.353545,-0.696942 0.453125,-0.960937 0.355981,-0.94377 0.688083,-1.440513 0.96875,-1.445313 0.156816,-0.0027 0.47151,-0.123124 0.699219,-0.267578 0.227712,-0.14446 0.588498,-0.125387 0.800781,0.04102 1.017041,0.797126 5.025391,0.203676 5.025391,-0.74414 0,-0.407927 0.471535,-0.642984 1.298828,-0.669922 z m -20.833984,1.220703 c 0.557848,-0.101001 1.718902,0.914474 2.080078,2.105469 0.12009,0.395995 0.350148,0.720703 0.509765,0.720703 0.159619,0 0.527948,0.467063 0.820313,1.039063 0.292365,0.571995 0.728593,1.156133 0.96875,1.296874 0.240156,0.140745 0.438493,0.499574 0.439453,0.798829 0.0011,0.299249 0.199238,0.924535 0.441406,1.388671 C 81.970018,70.862188 82.59688,73.276033 82.5,74.621094 82.445363,75.379652 82.278513,76 82.128906,76 c -0.149606,0 -0.841359,0.539219 -1.535156,1.199219 -0.6938,0.659995 -1.452463,1.201172 -1.6875,1.201172 -0.23504,0 -0.607071,0.216473 -0.826172,0.480468 -0.219101,0.264 -0.489161,0.459515 -0.599609,0.435547 -0.110451,-0.02397 -0.560005,-0.110036 -1,-0.191406 -1.181269,-0.218461 -4.137161,-2.069802 -4.34375,-2.720703 -0.09839,-0.31 -0.360326,-0.564453 -0.580078,-0.564453 -0.516912,0 -2.371974,-2.093358 -2.494141,-2.814453 -0.05166,-0.30497 0.20963,-0.984263 0.580078,-1.509766 0.370448,-0.525499 0.785536,-1.315864 0.921875,-1.755859 0.136339,-0.44 0.515045,-0.988777 0.841797,-1.21875 C 71.733002,68.311035 72,67.903161 72,67.634766 c 0,-0.2684 0.503141,-1.101774 1.119141,-1.853516 0.615995,-0.751739 1.121093,-1.532038 1.121093,-1.732422 0,-0.200381 0.28863,-0.543845 0.640625,-0.763672 0.352,-0.219828 0.638672,-0.653231 0.638672,-0.96289 0,-0.316379 0.118737,-0.474146 0.304688,-0.507813 z m -7.404297,11.587891 c 0.245334,0.07861 0.363456,0.510214 0.1875,0.96875 -0.107402,0.279877 -0.325251,0.509765 -0.482422,0.509765 -0.378715,0 -0.36704,-1.192435 0.01367,-1.427734 0.103939,-0.06424 0.199472,-0.07698 0.28125,-0.05078 z m 26.804687,1.341797 c 0.136655,0.03104 0.333949,0.191356 0.65625,0.49414 0.417504,0.392227 0.759766,0.896521 0.759766,1.121094 0,0.224576 0.179882,0.523318 0.400391,0.664063 0.220507,0.140741 0.794432,0.837048 1.27539,1.546874 0.48096,0.709814 1.451684,1.855023 2.158204,2.544922 1.45467,1.42044 1.76208,2.616828 0.56445,2.195313 -1.03144,-0.363024 -3.768089,-0.354897 -5.134763,0.335937 l -0.115235,0.05859 c -0.169128,-0.0182 -0.806187,0.08618 -2.257812,0.417969 -0.23127,0.05286 -6.218563,2.454333 -6.239538,2.764233 -0.0024,0.0349 0.320587,-0.159912 0.507116,-0.219311 -0.478523,0.271845 -0.683935,0.358054 -1.673828,0.978515 -0.148287,0.09295 -0.456956,0.892735 -0.167969,1.552735 0.288996,0.659995 0.674405,1.812547 0.857422,2.560547 0.387676,1.584419 0.913631,1.872162 0.560547,0.30664 -0.130754,-0.579755 -0.12019,-1.37153 0.02344,-1.759765 0.08793,-0.237688 0.114219,-0.387652 0.0957,-0.496094 0.38667,-0.277774 0.942479,-0.789389 1.523437,-1.505859 0.258991,-0.319402 0.615486,-0.561319 0.765625,-0.664063 0.33044,-0.22613 0.427844,-0.331812 0.501953,-0.425781 0.07525,0.04783 0.239953,-0.01345 0.435547,-0.175782 0.245082,-0.203395 1.882927,-1.134731 2.118445,-1.428497 0.224297,-5.29e-4 0.730184,-0.210055 1.451868,-0.391815 1.027752,-0.258848 3.476479,-0.500179 5.441406,-0.537109 l 3.572269,-0.06836 0.50781,1.064453 c 0.27907,0.585196 0.50781,1.188618 0.50781,1.339844 0,0.151222 -0.84132,0.422469 -1.86914,0.603516 -1.02781,0.181043 -3.228311,0.977027 -4.890624,1.769531 -2.645514,1.261246 -3.371424,1.801756 -5.8125,4.333984 -1.533861,1.591138 -2.78711,3.070079 -2.787109,3.28711 0,0.21703 0.894033,-0.511242 1.988281,-1.619141 1.922607,-1.946592 1.999734,-1.98928 2.267578,-1.263672 0.923342,2.501407 1.784098,3.271946 4.4375,3.964844 1.579222,0.412395 1.94665,0.409992 3.164064,-0.01953 1.74448,-0.615488 3.50195,-1.943439 3.50195,-2.646485 0,-0.437605 -0.14954,-0.389269 -0.78515,0.25586 -1.94079,1.969847 -3.32479,2.436835 -5.699223,1.927734 -2.263341,-0.485282 -3.660726,-1.48418 -3.90625,-2.792969 -0.227226,-1.211209 0.541884,-2.978515 1.296874,-2.978515 0.269864,0 0.417402,-0.11997 0.326172,-0.267578 -0.14525,-0.235027 1.810595,-1.545259 2.44336,-1.636719 0.129734,-0.01875 0.919114,-0.32771 1.753906,-0.685547 1.216431,-0.521419 1.751011,-0.591751 2.697271,-0.351562 0.95472,0.24235 1.15005,0.216715 1.01367,-0.138672 -0.11537,-0.300652 0.0837,-0.439453 0.63281,-0.439454 1.46063,0 3.32395,4.131163 2.93555,6.509766 -0.25793,1.579604 -1.32454,3.620704 -2.03907,3.900391 -1.02249,0.400248 -8.790837,1.429644 -11.019528,1.460944 -2.167296,0.0304 -2.220554,0.0499 -1.009765,0.33984 0.828033,0.19824 2.701019,0.18997 5.304687,-0.0234 4.889156,-0.40105 7.115296,-0.852819 7.749996,-1.56836 0.79726,-0.898724 1.82422,-2.919608 1.82422,-3.589844 0,-0.346642 0.11614,-0.628906 0.25782,-0.628906 0.25468,0 2.92798,2.678246 6.71093,6.72461 2.81629,3.01237 2.91227,3.41979 1.2793,5.50196 -2.1334,2.72023 -15.65576,15.97418 -17.720703,17.36914 -1.038465,0.70153 -2.002641,1.45907 -2.144532,1.68359 -0.141891,0.22452 -0.933661,0.7692 -1.759765,1.21094 -0.826109,0.44173 -2.166822,1.23169 -2.978516,1.75586 -0.811695,0.52416 -2.23574,1.09738 -3.164063,1.27343 -3.090025,0.58602 -4.593682,0.35633 -7.445312,-1.13476 -0.901864,-0.47157 -2.330844,-1.06216 -3.173828,-1.3125 -0.842983,-0.25034 -1.929387,-0.82231 -2.414063,-1.27149 -0.48467,-0.44918 -1.386066,-1.02651 -2.003906,-1.2832 -0.617838,-0.25669 -1.655012,-0.89205 -2.304687,-1.41211 -0.64968,-0.52005 -1.260442,-0.94531 -1.357422,-0.94531 -1.542066,0 -6.113068,-9.23014 -7.083985,-14.30469 -0.524763,-2.74271 -0.604292,-6.36745 -0.146484,-6.65039 0.170832,-0.10558 0.773258,0.0479 1.337891,0.33984 1.359386,0.70297 5.248188,0.46734 7.470703,-0.45117 0.879995,-0.36368 2.321177,-0.87382 3.201172,-1.13476 L 76,100.20508 l -1.748047,0.1875 c -0.96179,0.10332 -2.579048,0.52518 -3.59375,0.9375 -2.23263,0.9072 -4.960076,0.98525 -6.865234,0.19726 l -1.333985,-0.55078 v -2.968748 c 0,-2.278503 0.1,-2.96875 0.431641,-2.96875 0.237613,10e-7 0.512698,-0.129474 0.611328,-0.289062 0.09863,-0.159572 -0.09002,-0.219082 -0.419922,-0.132812 -0.48187,0.126008 -0.644519,-0.07595 -0.822265,-1.023438 -0.251744,-1.341902 -0.07748,-1.69125 0.574218,-1.150391 0.351203,0.291472 0.492592,0.26545 0.638672,-0.115234 0.133696,-0.3484 0.624818,-0.481514 1.716797,-0.464844 2.424342,0.03702 5.007029,0.48398 5.142578,0.890625 0.06836,0.205081 0.435748,0.536739 0.816407,0.736328 0.686662,0.360038 0.686827,0.356936 0.08203,-0.324218 -0.812273,-0.91483 -0.474825,-0.867255 1.939453,0.273437 1.117508,0.528 2.16535,0.960938 2.328125,0.960938 0.162774,0 0.664435,0.467067 1.115234,1.039062 0.861303,1.092859 1.16244,0.861654 0.363281,-0.279297 -0.669543,-0.955909 -5.030764,-2.989419 -7.158203,-3.33789 -0.999886,-0.163783 -3.139732,-0.299822 -4.755859,-0.300782 -2.714107,-0.0017 -2.954966,-0.0536 -3.154297,-0.68164 -0.135175,-0.425888 -0.05519,-0.784768 0.216797,-0.960938 1.041448,-0.674551 3.872409,-1.278667 6.835938,-1.458984 0.713178,-0.04339 1.020304,0.0083 1.221364,-0.108881 0.157072,0.390338 4.242636,1.288568 4.415354,1.288568 0.07038,0 0.105819,-0.03533 0.134766,-0.07422 0.0186,0.02495 -0.296872,-0.0658 -0.262212,-0.03004 0.419812,0.43312 2.263472,1.703873 2.490726,1.703873 0.243089,0 0.74356,-0.871854 0.804687,-1.06836 -0.02856,0.121467 0.08157,-7.2e-4 0.09955,-0.630996 l -0.105399,-1.261594 c 0,-0.471281 -0.23429,-0.903969 -0.560547,-1.035156 -0.308,-0.123846 -2.656983,-0.204107 -5.220703,-0.179687 -4.596786,0.0438 -6.51739,0.345201 -8.978516,1.410156 -0.637643,0.275917 -1.224318,0.435838 -1.304688,0.355468 -0.08037,-0.08037 -0.01755,-1.10157 0.138672,-2.267578 0.313644,-2.340938 1.774435,-5.787638 3.871094,-9.128906 1.230407,-1.9608 1.435097,-2.136598 2.615234,-2.267578 1.151489,-0.127801 1.450636,0.0049 2.988282,1.326172 2.185436,1.877964 4.461803,3.20531 5.521484,3.21875 0.756261,0.0096 2.78062,-0.78901 3.169922,-1.25 0.442486,-0.523981 3.427831,-2.816351 3.880859,-2.980469 0.91885,-0.332868 3.233154,0.399882 4.34375,1.375 0.592861,0.520538 1.348479,0.945313 1.679688,0.945313 0.33121,0 0.686394,0.18039 0.789062,0.40039 0.149332,0.32 0.223715,0.32 0.373047,0 0.102668,-0.22 0.382672,-0.40039 0.623047,-0.40039 0.240377,0 0.823123,-0.503146 1.292969,-1.119141 0.469841,-0.615995 1.056059,-1.121094 1.304687,-1.121094 0.248637,0 0.539562,-0.222549 0.644532,-0.496093 0.08103,-0.211171 0.156318,-0.310339 0.292968,-0.279297 z m 3.929688,8.865234 c 0.815147,-0.03876 1.326173,0.0085 1.326173,0.154297 0,0.167015 -1.027527,0.400874 -2.283204,0.517578 -2.464907,0.229091 -5.057058,0.776474 -5.498047,1.162109 -0.417126,0.0999 -1.751177,0.768357 -1.978516,0.957032 -0.241571,0.200483 -0.424558,0.477873 -0.457031,0.660156 -0.320354,0.04367 -1.130794,0.41414 -1.482422,0.763672 -0.877185,0.871956 -1.357155,1.437058 -1.59375,1.789062 -0.04245,-0.0036 -0.071,-0.01367 -0.123047,-0.01367 -0.367786,0 -0.67081,-0.304322 -0.794922,-0.798828 -0.06121,-0.24389 1.940865,-1.84722 2.625,-2.533203 1.519003,-0.61222 3.624157,-1.517578 3.90625,-1.517578 0.197511,0 1.416057,-0.371863 2.253907,-0.673828 L 94.880859,84.164062 96,83.976562 c 1.219387,-0.203818 2.33915,-0.328427 3.154297,-0.367187 z m -23.5625,3.753906 c 0.888841,-0.0052 1.246817,0.124298 1.492187,0.824219 l 0.623047,1.777344 c -0.212382,0.03318 -0.523632,0.884198 -0.746093,0.798828 -0.240594,-0.09232 -1.897176,-1.212721 -2.201172,-1.291016 0.01,-0.05477 0.0074,-0.118202 -0.03906,-0.193359 -0.108774,-0.176 -0.341578,-0.318359 -0.517578,-0.318359 -0.150972,-10e-7 -3.003955,-0.934538 -3.8125,-0.919922 0.0094,-0.01178 0.0041,-0.0233 0.01172,-0.03516 -0.03445,-8e-6 -0.06912,1.48e-4 -0.103516,0 -0.05575,-2e-4 -0.112219,-8.59e-4 -0.167969,-0.002 -0.07122,-0.0013 -0.14179,-0.0033 -0.21289,-0.0078 -0.07333,-0.0048 -0.147563,-0.01048 -0.220703,-0.01758 -0.0165,-0.002 -0.04462,-0.0039 -0.04492,-0.0059 -5.32e-4,-0.0036 5.03e-4,-0.0025 0,-0.0059 -0.02229,0.004 -0.04415,0.0068 -0.06641,0.0098 -0.05156,0.0064 -0.102407,0.0096 -0.154297,0.01172 -0.0453,0.0016 -0.0914,0.0016 -0.136719,0.002 -0.04307,2.76e-4 -0.08583,-4.4e-5 -0.128906,0 -0.05302,0.0016 -0.10461,0.01442 -0.15625,0.02539 -0.0665,0.01647 -0.133209,0.03242 -0.199219,0.05078 -0.062,0.0167 -0.124077,0.03221 -0.185547,0.05078 -0.06812,0.02114 -0.138224,0.02896 -0.208984,0.03516 -0.08037,0.0058 -0.161648,0.0067 -0.242188,0.0078 -0.08753,0.001 -0.176142,0.0018 -0.263672,0.002 -0.128312,0.0044 -0.254853,0.01897 -0.382812,0.0293 -0.0869,0.0075 -0.174549,0.01067 -0.261719,0.01367 -0.07597,0.0022 -0.152516,0.0034 -0.228516,0.0039 -0.06885,3.81e-4 -0.136228,-7.9e-5 -0.205078,0 -0.0607,-0.0018 -0.12111,0.0043 -0.18164,0.0078 -0.05424,0.0036 -0.110313,0.0072 -0.164063,0.01563 -0.04169,0.01097 -0.08555,0.0064 -0.126953,0.01758 -0.05873,0.01399 -0.118244,0.02507 -0.177734,0.03516 -0.06144,0.01289 -0.122544,0.02639 -0.183594,0.04102 -0.06358,0.01699 -0.129893,0.02575 -0.195313,0.03125 -0.05914,0.0028 -0.117981,0.01083 -0.175781,0.02344 -0.06,0.01214 -0.118644,0.02506 -0.177734,0.04102 -0.05237,0.01556 -0.107557,0.01885 -0.160157,0.0332 -0.06492,0.01843 -0.128629,0.04148 -0.193359,0.06055 -0.07549,0.02017 -0.151428,0.03613 -0.228515,0.04883 -0.03297,0.0088 -0.06873,0.0046 -0.101563,0.01367 -0.0052,0.0014 -0.01063,0.0059 -0.01563,0.0078 -0.03207,0.0086 -0.0599,0.02337 -0.08984,0.03711 -0.04396,0.01879 -0.0915,0.0276 -0.138672,0.0332 -0.02883,7e-4 -0.05506,0.0062 -0.08203,0.01563 -0.01844,0.01358 -0.04335,0.02255 -0.06445,0.03125 -0.182158,0.07527 -0.271509,-0.05673 -0.1875,-0.160156 0.0063,-0.02589 0.01794,-0.05442 0.03711,-0.08398 0.02117,-0.03265 0.04007,-0.06634 0.06836,-0.09375 0.03944,-0.03845 0.07886,-0.07931 0.128906,-0.103515 0.0434,-0.01819 0.08952,-0.0301 0.136719,-0.0332 0.0077,-5.1e-4 0.01418,-0.002 0.02148,-0.002 0.03355,5.4e-5 0.06331,0.0045 0.08789,0.01367 0.02296,-0.01541 0.03643,-0.03487 0.07422,-0.04297 0.01991,-0.0043 0.03904,-0.0099 0.05859,-0.01563 0.06886,-0.01927 0.139095,-0.03375 0.208985,-0.04883 0.108392,-0.02669 0.216801,-0.05186 0.326172,-0.07422 0.127213,-0.02837 0.253913,-0.06183 0.382812,-0.08203 0.102827,-0.01713 0.205369,-0.03235 0.308594,-0.04687 0.07801,-0.01261 0.155722,-0.02777 0.232422,-0.04688 0.07659,-0.02294 0.153248,-0.04933 0.230468,-0.07031 0.0472,-0.01442 0.09288,-0.03035 0.138672,-0.04883 0.06653,-0.02194 0.135108,-0.03582 0.205078,-0.04102 0.08186,-0.0088 0.163614,-0.01697 0.246094,-0.01367 0.100175,-2.8e-5 0.200607,1.19e-4 0.300781,0 0.09857,-1.58e-4 0.196352,-0.0011 0.294922,-0.002 0.106375,-0.001 0.213977,-7.18e-4 0.320313,-0.0039 0.112377,-0.0036 0.223719,-0.0086 0.335937,-0.01563 0.07983,-0.0032 0.160345,-0.0086 0.240235,-0.0098 0.04836,-5e-4 0.09625,-9.18e-4 0.144531,-0.0039 0.04923,-0.0035 0.09821,-0.0088 0.146484,-0.01953 0.09122,-0.01919 0.182008,-0.04434 0.273438,-0.0625 0.09397,-0.01512 0.18803,-0.02947 0.28125,-0.04883 0.05674,-0.0096 0.114325,-0.01869 0.171875,-0.02148 h 0.15625 c 0.05799,10e-7 0.115838,-3e-6 0.173828,0 0.04947,3e-6 0.09897,-1.9e-5 0.148437,0 0.04488,2e-5 0.08989,-1.55e-4 0.134766,0 0.04177,2e-4 0.08324,0.0012 0.125,0.002 0.0316,6.4e-4 0.06408,2.52e-4 0.0957,0.002 0.003,-0.0013 0.0067,-0.0036 0.0098,-0.0039 0.0032,-3.69e-4 -0.0029,0.0055 0,0.0059 0.01911,0.0011 0.0376,0.0022 0.05664,0.0039 0.02851,0.0031 0.0576,0.0082 0.08594,0.01367 0.289165,-0.185119 2.916599,-0.109714 3.935547,-0.146484 0.429603,-0.0155 0.783796,-0.03342 1.080078,-0.03516 z m 28.466793,2.941407 c -0.0177,0.03011 0.006,0.102753 0.0742,0.21289 0.12777,0.20673 0.23242,1.200869 0.23242,2.208984 0,1.374238 0.0795,1.690879 0.31641,1.267579 0.36916,-0.659648 0.0399,-3.34735 -0.44726,-3.648438 -0.0975,-0.06022 -0.15808,-0.07112 -0.17579,-0.04102 z M 99.107422,92.5625 c -0.398118,0.05109 -0.813034,0.27672 -0.88086,0.628906 -0.08751,0.454427 0.124656,0.595862 0.705079,0.513672 0.411652,-0.05829 0.955078,-0.458656 0.955078,-0.722656 0,-0.346997 -0.381183,-0.471015 -0.779297,-0.419922 z M 60.5625,92.800781 c 0.423901,0 0.462563,0.176224 0.220703,1.019531 -0.206246,0.719145 -0.153227,1.489577 0.181641,2.617188 0.261095,0.879214 0.474609,1.859634 0.474609,2.179688 0,0.899109 -0.599978,0.688692 -0.845703,-0.296876 -0.120672,-0.483995 -0.556115,-1.512899 -0.966797,-2.287109 -0.410676,-0.774209 -0.746094,-1.580511 -0.746094,-1.791015 0,-0.530954 1.061979,-1.441407 1.681641,-1.441407 z m 5.794922,1.751953 c -0.143462,-0.016 -0.307468,0.07591 -0.572266,0.269532 -0.388659,0.284168 -0.532978,0.64354 -0.398437,0.99414 0.13017,0.339219 0.475754,0.508643 0.90625,0.445313 0.862053,-0.126819 1.042084,-0.595517 0.507812,-1.326172 -0.17766,-0.242966 -0.299897,-0.366814 -0.443359,-0.382813 z m 5.785156,1.888672 c -0.175573,-0.0097 -0.441514,0.395765 -0.611328,1.076172 -0.121209,0.485664 -0.389415,1.1071 -0.595703,1.38086 -0.206288,0.273755 0.01991,0.09029 0.503906,-0.40625 0.484,-0.496534 0.880859,-1.197031 0.880859,-1.556641 0,-0.333277 -0.07239,-0.488335 -0.177734,-0.494141 z M 62.8125,98.642578 c -0.07042,0.07894 0.167634,0.51066 0.636719,1.117188 0.170147,0.219995 0.368766,0.400394 0.441406,0.400394 0.235446,0 -0.523419,-1.238475 -0.902344,-1.47266 -0.09467,-0.05851 -0.152309,-0.07124 -0.175781,-0.04492 z m 6.994141,1.380862 c -0.145,0.0127 -0.387368,0.0723 -0.69336,0.17578 -0.611975,0.20691 -1.185437,0.4466 -1.273437,0.5332 -0.088,0.0867 0.272786,0.0549 0.800781,-0.0703 0.527995,-0.12521 1.099509,-0.36487 1.271484,-0.5332 0.08599,-0.0842 0.03953,-0.11818 -0.105468,-0.10547 z m -3.566407,0.81445 c -0.260995,0 -0.522703,0.0185 -0.720703,0.0566 -0.395995,0.0763 -0.0713,0.13867 0.720703,0.13867 0.792,0 1.116699,-0.0624 0.720704,-0.13867 -0.198,-0.0382 -0.459704,-0.0566 -0.720704,-0.0566 z m 20.027344,4.27734 c -0.05275,0.007 -0.09543,0.05 -0.125,0.13868 -0.07007,0.21022 0.102705,0.63759 0.384766,0.94921 0.282055,0.31168 0.511719,1.0206 0.511718,1.57422 0,0.80625 -0.20123,1.11018 -1.011718,1.5293 -1.278795,0.66129 -4.317417,0.93935 -5.451172,0.49805 -1.026811,-0.39967 -1.97271,-2.0626 -1.771484,-3.11524 0.07877,-0.41209 0.01972,-0.67317 -0.13086,-0.58007 -0.845723,0.52264 0.216227,3.48047 1.423828,3.96679 0.958792,0.38617 3.655505,0.38912 5.03711,0.006 1.724409,-0.47905 2.281986,-1.02329 2.316406,-2.25976 0.02711,-0.97397 -0.814372,-2.75304 -1.183594,-2.70704 z m 31.423832,0.33985 0.54101,1.27344 c 0.47513,1.11491 0.49447,1.54787 0.15235,3.50781 -0.2147,1.22997 -0.72138,2.88566 -1.12696,3.67969 -0.71548,1.40067 -1.49267,3.09427 -2.51367,5.48242 -0.76887,1.7984 -1.13167,5.11801 -1.13867,10.42578 -0.007,5.59625 -0.30916,7.49762 -1.61914,10.17578 -0.97012,1.98336 -2.61855,4.20646 -2.49024,3.35938 0.04,-0.264 -0.12063,-1.04748 -0.35742,-1.74219 -0.33232,-0.97501 -0.36906,-2.18068 -0.16211,-5.28125 0.5323,-7.97488 0.25572,-17.91836 -0.52148,-18.72071 -0.63675,-0.6573 -0.24334,-1.63383 1.00586,-2.49804 0.70178,-0.4855 1.42692,-1.20511 1.61328,-1.59961 0.18637,-0.3945 0.8729,-1.14235 1.52344,-1.66211 1.43219,-1.1443 3.84772,-3.9922 4.56836,-5.38477 z m -66.849613,8.46484 c 0.310746,0 3.110654,4.07891 3.46875,5.05274 0.110874,0.30152 0.500125,0.8436 0.865234,1.20507 0.365113,0.36147 1.041619,1.08108 1.501953,1.59961 0.930056,1.04763 2.814971,2.70313 3.078125,2.70313 0.09326,0 0.402491,0.25059 0.6875,0.55859 0.718778,0.77675 2.499777,2 2.91211,2 0.187818,0 0.85325,0.46617 1.478515,1.03516 1.234495,1.12336 1.220518,0.93911 0.324219,4.5664 -0.260935,1.056 -0.635244,2.73276 -0.832031,3.72657 -0.258791,1.30695 -0.645839,2.10274 -1.398438,2.8789 -0.57227,0.59019 -1.144168,1.3465 -1.271484,1.67969 -0.127318,0.33324 -0.315195,0.52269 -0.417969,0.41992 -0.102772,-0.10277 -0.566011,0.16417 -1.029297,0.59375 -0.463282,0.42958 -1.030536,0.78125 -1.259765,0.78125 -0.229225,0 -0.590162,0.14807 -0.802735,0.33008 -0.212565,0.182 -0.63136,0.5067 -0.929687,0.7207 -0.298329,0.21399 -0.585002,0.60152 -0.638672,0.86133 -0.126214,0.61095 -0.712738,1.23949 -1.263672,1.35547 -0.693598,0.14602 -2.513672,3.0002 -2.513672,3.94141 0,0.25865 -0.129941,0.4707 -0.287109,0.4707 -0.34897,0 -0.619596,0.67257 -1.035156,2.56055 -0.647261,2.9406 -1.070534,4.01115 -1.058594,8.70117 0.01231,4.83466 0.629473,7.61719 1.142578,7.61719 0.152826,0 0.277344,0.28862 0.277344,0.64062 0,0.53036 -0.214124,0.64063 -1.246094,0.64063 -1.05052,0 -1.275469,-0.12203 -1.439453,-0.77539 -0.130851,-0.52135 -0.497008,-0.84144 -1.121094,-0.97852 -0.509909,-0.11199 -1.180709,-0.48219 -1.490234,-0.82422 -0.309526,-0.34202 -0.856365,-0.62304 -1.216797,-0.62304 -0.838023,0 -6.080252,-5.41099 -6.603516,-6.81641 -0.209536,-0.5628 -0.872658,-2.0449 -1.472656,-3.29297 -0.599995,-1.24807 -1.089844,-2.49603 -1.089844,-2.77539 0,-0.78094 -0.909189,-1.51367 -1.878906,-1.51367 h -0.875 l -0.06055,-2.64063 c -0.07588,-3.28241 0.79767,-9.87301 1.537109,-11.59961 0.150752,-0.352 0.346377,-1.07356 0.435547,-1.60156 0.366544,-2.17056 0.76237,-3.61423 1.267579,-4.62695 0.293842,-0.58903 0.533203,-1.3079 0.533203,-1.59766 0,-0.28976 0.154155,-0.67955 0.341797,-0.86719 0.187636,-0.18765 0.417695,-0.82827 0.509765,-1.42382 0.09207,-0.59556 0.3689,-1.31004 0.617188,-1.5879 0.24828,-0.27781 0.451172,-0.8027 0.451171,-1.16601 10e-7,-0.36331 0.216474,-0.74439 0.480469,-0.8457 C 39.783543,124.9026 40,124.53864 40,124.19531 c 0,-0.34334 0.900005,-1.81033 2,-3.25976 1.647833,-2.17131 2.39466,-2.85474 4.240234,-3.88477 1.231995,-0.68759 2.490833,-1.33003 2.798828,-1.42773 0.308,-0.0977 0.560547,-0.38486 0.560547,-0.63867 0,-0.25391 0.129552,-0.38256 0.28711,-0.28516 0.157556,0.0974 0.367831,-0.0378 0.46875,-0.30078 0.100918,-0.26299 0.320709,-0.47852 0.486328,-0.47852 z m 40.390625,2.56836 c -0.153829,-0.0166 -0.328231,0.0569 -0.40625,0.23242 -0.05867,0.132 -0.564858,0.49374 -1.125,0.80469 -1.125099,0.62457 -8.782276,1.38095 -11.208984,1.10742 -0.882934,-0.0995 -1.289872,-0.0373 -1.158204,0.17578 0.133383,0.21584 2.04416,0.26167 5.576172,0.13477 4.922717,-0.17685 5.506288,-0.26169 6.990235,-1.01367 0.890648,-0.45132 1.61914,-0.96174 1.61914,-1.13477 0,-0.18393 -0.133281,-0.29009 -0.287109,-0.30664 z" />
    </g>
  </g>
</svg>
