<?xml version="1.0" encoding="UTF-8" standalone="no"?>
<!-- Created with Inkscape (http://www.inkscape.org/) -->

<svg
   version="1.1"
   id="svg59"
   width="192"
   height="288"
   viewBox="0 0 192 288"
   xmlns="http://www.w3.org/2000/svg"
   xmlns:svg="http://www.w3.org/2000/svg">
  <defs
     id="defs63" />
  <g
     id="g65">
    <g
       id="g177"
       transform="translate(5.4268239,3.8913393)">
      <path
         style="display:inline;fill:#e9d8c5;stroke-width:0.32"
         d="m 91.556262,116.13332 c -0.948057,-0.33224 -2.525577,-0.79579 -3.155286,-1.28233 -0.629706,-0.48654 -1.726026,-1.11886 -2.436262,-1.48924 -0.710234,-0.37038 -1.935268,-1.46315 -3.072612,-2.09208 -1.137344,-0.62893 -2.181344,-1.0734 -2.32,-0.98771 -0.138656,0.0857 -0.252102,0.0194 -0.252102,-0.14733 0,-0.16673 -0.9,-0.88747 -2,-1.60164 -5.02209,-3.26059 -15.650948,-10.096712 -17.01658,-12.235521 -1.156198,-1.810804 -1.639803,-5.41692 -1.628024,-6.410971 0.0046,-0.389485 0.0015,-1.749001 0.222354,-2.492613 l 1.177018,-3.962802 1.503538,3.729716 c 1.34995,3.348724 2.852356,6.204462 5.212622,7.266891 1.252915,0.563977 2.174195,0.677347 5.809072,0.714854 5.036397,0.05197 7.097498,-0.401677 9.359946,-2.060115 0.81216,-0.595335 1.832899,-1.330954 2.26831,-1.634704 0.435411,-0.303754 1.057174,-1.095754 1.381699,-1.76 0.58808,-1.203699 0.742893,-1.260515 2.373911,-0.871219 0.609907,0.145574 1.081488,-0.02013 1.815856,-0.638061 0.897158,-0.754909 1.009667,-0.780394 1.176908,-0.266576 0.28874,0.887113 2.798842,3.504483 3.86337,4.028473 2.345613,1.154573 5.11595,1.819658 7.57958,1.819658 2.18424,0 2.79426,-0.136374 4.65207,-1.04 2.33743,-1.136909 7.12835,-5.469766 7.12835,-6.446797 0,-0.304121 0.23258,-1.264006 0.51683,-2.133075 0.44218,-1.351894 0.2234,-2.69223 1.30841,-2.73809 0.99256,-0.04195 4.1356,1.875988 3.84786,2.341559 1.1417,0.623383 3.16741,2.631161 3.29283,4.255471 6.4e-4,0.753652 -1.56388,2.359733 -1.82327,2.98053 -0.67103,1.605994 -3.13026,3.883363 -4.44406,4.736058 -0.616,0.399805 -1.68912,2.341936 -3.24586,3.319672 -1.53984,0.967122 -3.34206,3.022112 -4.38013,3.995272 -1.03806,0.97317 -4.06206,3.94827 -6.72,6.61133 -3.688898,3.69601 -5.287007,5.06723 -6.75261,5.79394 -2.640883,1.30945 -3.261773,1.39204 -5.243738,0.69745 z m 5.036064,-12.13361 c 1.258221,-0.57995 2.287674,-1.18914 2.287674,-1.35375 0,-0.16461 -0.108,-0.24564 -0.24,-0.18007 -3.71791,1.84693 -4.551997,2.15658 -6.318698,2.34578 -1.905334,0.20405 -2.462627,0.11488 -6.321302,-1.01135 -0.308,-0.0899 -0.181656,-0.0869 -0.181656,0.0907 0,0.69261 2.626459,1.36431 5.573982,1.26311 2.494032,-0.0856 3.240906,-0.25144 5.2,-1.15445 z m -3.914659,-6.558683 c 1.128179,-0.562195 1.567966,-1.230698 2.082898,-2.146893 0.402492,-0.716135 0.909163,-1.331072 0.817659,-1.422576 -0.0915,-0.0915 -0.340032,0.169962 -0.552285,0.581034 -0.597257,1.156717 -1.641549,2.186122 -2.701139,2.662634 -1.938784,0.8719 -2.48698,1.072542 -3.966061,0.245864 -1.644013,-0.918855 -1.738335,-0.936321 -0.175554,0.06451 1.376429,0.881488 2.548421,0.985186 4.494482,0.01542 z M 70.846054,93.137078 c -1.556416,-0.371756 -4.453772,-2.159148 -5.580908,-3.442886 -1.456458,-1.658816 -1.959997,-3.080634 -2.147527,-6.063888 -0.143126,-2.276854 -0.06927,-2.807424 0.579079,-4.16 0.40872,-0.852669 1.547769,-2.343011 2.531219,-3.311878 1.588483,-1.564925 2.150086,-1.882474 5.030905,-2.844634 2.874426,-0.960026 3.471303,-1.05721 5.254122,-0.855507 2.537206,0.287053 4.25673,1.277126 6.47463,3.727987 2.460653,2.719107 3.809535,6.041911 3.135695,10.958109 -0.258326,1.884714 -1.893317,2.988569 -4.983355,4.515385 -3.303866,1.632471 -7.264538,2.200884 -10.29386,1.477312 z m 8.68567,-3.723536 c 2.121763,-0.671706 3.256604,-1.162169 3.247694,-1.300793 0.270206,-0.761522 0.393919,-0.853061 0.104738,-1.333328 0,-0.362387 -0.06134,-0.532929 -0.0043,-0.699421 0.0071,-0.440945 -0.06209,-0.617257 -0.32,-1.08865 0,-0.267529 -0.520953,-0.654769 -0.72,-1.158649 -0.135719,-0.343568 -0.1032,-0.179794 -0.16,-0.458231 -0.06064,-0.297275 -0.51501,-0.255563 -0.722733,-0.435176 -0.221974,-0.191937 -8.614835,-0.543666 -10.626056,-0.824234 -0.789703,-0.110165 -1.770191,0.561479 -2.650191,0.846637 -0.88,0.285159 -1.87318,0.574841 -2.094959,0.615714 -1.249859,0.230343 -1.460604,0.89873 -0.207189,0.907488 0.448292,0.388315 0.283492,0.77069 0.606218,0.931683 0.385968,0.444841 -0.02001,0.29225 0.388064,0.448842 0.278758,0.10697 0.879752,0.46066 0.879752,0.82561 0,0.694685 0.213547,0.542712 1.899201,2.352872 l 1.083126,1.094532 3.453101,0.06486 c 3.092066,0.05808 4.26004,-0.288459 5.843512,-0.789752 z M 67.238813,80.32 c 1.089225,-0.704 2.115856,-1.28 2.281401,-1.28 0.165543,0 0.729229,-0.304934 1.252634,-0.677632 1.116547,-0.79505 5.00648,-1.86903 6.798045,-1.876883 1.084861,-0.0048 1.434694,0.194717 2.63568,1.502835 1.588691,1.730413 2.163824,1.608678 1.71895,-0.363834 C 81.31463,74.915869 79.746806,73.961094 76.96,74.600579 c -2.167392,0.497351 -7.373853,2.809667 -9.017958,4.005098 -1.262464,0.917936 -2.792606,2.7349 -2.407294,2.7349 0.09771,0 0.614842,-0.316577 1.704065,-1.020577 z M 99.31656,91.398205 c -1.684077,-0.455815 -4.887296,-2.933114 -6.118432,-4.731853 -1.150678,-1.681194 -1.387376,-2.69913 -1.576147,-6.778394 -0.135418,-2.926348 -0.08529,-3.271753 0.700051,-4.823961 1.521274,-3.006743 3.720656,-4.294957 8.797968,-5.153101 3.65806,-0.618269 4.39631,-0.590861 6.08,0.225722 0.792,0.384118 1.92801,0.924518 2.52446,1.200889 1.33684,0.619437 3.41377,3.164563 3.88224,4.757411 1.3992,4.757444 0.60231,9.355623 -2.79177,12.55753 -3.28234,3.096502 -7.35014,3.868528 -11.49837,2.745757 z m 3.83253,-3.443824 c 3.98161,-0.802234 5.64242,-2.11655 7.02135,-4.848182 1.37649,-1.529877 0.75398,-3.007322 1.21689,-4.181975 0.337,-0.73995 0.32776,-0.755027 0.61267,-1.256944 0.28194,-0.496686 0.24912,-0.618645 -0.30098,-0.958623 -0.59314,-0.366589 -4.71782,1.590388 -8.3375,3.448871 -2.58068,1.325024 -7.472381,4.350459 -5.92905,3.851442 0.562637,-0.181924 0.547645,-0.114208 -0.135779,0.613264 -0.422537,0.449772 -0.60367,0.817766 -0.402515,0.817766 0.201155,0 0.282851,0.216 0.181546,0.48 -0.124573,0.32463 0.016,0.48 0.434262,0.48 0.34015,0 0.956656,0.36 1.370016,0.8 0.41336,0.44 1.12246,0.810122 1.57578,0.822493 0.74759,0.02042 0.76472,0.04806 0.18422,0.297507 -0.57073,0.245251 -0.54646,0.277453 0.22425,0.297507 0.47534,0.01238 1.35218,-0.475206 2.28484,-0.663126 z M 95.556608,77.349117 c 2.743997,-1.578071 3.786589,-1.984429 6.043392,-2.355453 1.408,-0.231478 3.676,-0.423747 5.04,-0.427267 1.364,-0.0035 2.48,-0.143872 2.48,-0.311898 0,-0.521257 -2.24458,-0.815264 -6.08,-0.796384 -4.109952,0.02022 -6.778314,0.701565 -8.806694,2.248688 -1.207517,0.921015 -1.41425,1.891875 -0.756436,3.552365 L 93.833741,80.16 94.35687,78.949117 c 0.287722,-0.665984 0.827604,-1.385984 1.199738,-1.6 z M 88.064,85.696 c -0.219088,-0.219088 -0.384,-1.268195 -0.384,-2.442874 0,-2.486675 -0.955193,-5.694388 -1.753305,-6.372871 -0.103517,-0.088 -0.457828,-0.921714 -0.941495,-1.754613 -1.829898,-3.151149 -4.218259,-4.445133 -8.599978,-4.659364 -3.456128,-0.168979 -6.014486,0.332704 -9.120374,1.788461 -2.235882,1.047978 -4.143465,4.042147 -4.988025,6.818605 -0.162384,0.533833 -1.309132,1.149762 -1.283922,-2.113344 0.01088,-1.408061 0.0058,-3.111465 -0.103261,-3.771465 -0.188269,-1.13903 0.212373,-1.486624 1.031439,-1.486624 0.474598,0 1.2233,-0.308066 1.607729,-0.516438 0.384429,-0.208371 1.774603,-0.01914 3.034597,-0.357046 2.713212,-0.727629 3.821681,-0.550785 4.652933,-1.469937 0.329283,-0.364106 1.425318,-0.857355 2.085318,-1.194203 1.54008,-0.762787 0.633974,-0.282893 2.227406,-0.976771 0.471065,0 1.911957,-1.392809 2.106862,0.723286 0.112193,1.218092 8.08077,1.533048 8.32112,1.231308 1.281779,-1.609175 6.142574,-4.335007 6.142574,-5.380607 0,-0.415744 0.580282,-1.065452 0.729002,-1.065452 0.369795,0 2.235329,0.62111 2.235329,1.041523 0,0.448595 1.607811,1.126328 5.746071,1.312511 3.42854,0.154252 3.25,0.15885 5.24476,-1.048586 0.8478,-0.51318 0.65019,-1.757299 1.14318,-1.508882 0.49718,0.16234 0.87102,0.322905 0.82242,-0.101941 0,-1.339165 2.29316,-0.541226 2.70075,1.147408 0.23984,0.993673 0.31958,1.495136 0.58358,1.632839 1.74385,0.909584 3.52349,2.015574 4.08082,2.015574 0.53619,0 0.77447,0.856015 0.77447,1.734322 0,0.594448 0.40399,1.549871 0.1691,1.744818 -0.32211,0.267322 0.0125,1.642674 0.20041,3.027388 0.26292,1.937482 -1.21108,1.639906 -1.5376,0.08206 -0.57025,-2.720707 -2.13583,-4.787954 -5.16086,-6.178425 -1.29711,-0.596224 -1.99363,-0.695795 -4.81373,-0.679559 -2.92825,0.01686 -3.80795,-0.01855 -6.45732,0.890857 -4.77209,1.638032 -5.99512,2.523184 -7.495597,5.424832 -1.511008,2.922016 -1.931936,7.521072 -0.951673,10.397981 0.407795,1.196816 0.627088,1.755456 0.315386,2.131037 C 89.955137,86.331712 88.593152,86.225152 88.064,85.696 Z"
         id="skin" />
      <path
         style="display:inline;fill:#9a3034;stroke-width:0.32"
         d="M 70.72,94.735709 C 68.552211,94.451338 66.962476,93.90415 65.480642,92.535504 64.199113,91.351865 62.26242,88.080368 62.26242,87.145046 c 0,-0.339376 -0.02576,-0.631341 -0.211389,-0.81697 -0.185626,-0.185626 -0.705161,-1.727204 -0.790188,-3.229553 -0.123437,-2.180935 -0.03247,-2.865128 0.360434,-3.258034 0.270653,-0.270656 0.526494,-0.64478 0.526494,-0.901449 0,-0.256672 0.715184,-1.565992 1.463184,-2.797499 1.554826,-2.559863 2.854202,-3.545546 6.217325,-4.661552 3.010646,-0.999044 8.803267,-1.094716 10.693558,-0.159231 1.789456,0.885584 4.918162,4.386128 4.918162,5.35009 0,0.209373 0.477355,0.455604 0.752511,0.561191 0.570797,0.569772 0.660788,1.612206 0.806893,2.274241 0.374362,0.734288 0.498573,1.968094 0.543597,3.897643 0.07284,3.121254 -0.01665,3.10903 1.821955,3.116611 1.750861,0.0072 1.795177,-0.593738 0.949513,-2.853975 -1.336873,-3.57312 -0.202674,-8.803468 2.271195,-12.046879 2.190544,-2.871949 11.985296,-5.895627 15.195766,-4.554203 1.93962,0.458252 3.81689,1.477939 5.1261,2.726591 1.82404,2.398974 2.99508,6.215506 3.27493,8.954625 0.17625,2.015776 -0.0804,2.807093 -0.68909,4.791893 -0.40167,1.309776 -0.70144,2.4971 -0.66615,2.638496 0.0353,0.141392 -0.62239,0.97998 -1.46153,1.863523 -0.83913,0.883545 -1.57369,1.739859 -1.63236,1.902921 -0.0587,0.16306 -0.30351,0.296474 -0.54409,0.296474 -0.24059,0 -0.55259,0.18 -0.69334,0.4 -0.42213,0.659837 -2.26903,1.961463 -2.88294,1.963575 -0.31513,9.6e-4 -0.79085,0.233299 -1.29497,0.496214 -2.90473,1.514925 -10.379988,-0.146981 -12.981429,-3.576626 -0.657927,-0.867387 -1.38293,-1.751341 -1.38293,-1.979891 0,-0.754669 -0.363768,-0.601177 -1.116245,0.201525 -0.616176,0.657312 -1.155828,0.620244 -2.135319,0.461294 -0.647369,-0.105053 -1.229558,-0.34857 -1.29375,-0.541146 -0.06419,-0.192576 -0.425325,0.276266 -0.802515,1.041869 -0.851965,1.72928 -1.503936,2.626915 -2.125802,2.926807 -0.987811,0.476364 -1.771803,1.24194 -2.346856,1.762353 -1.458509,1.319933 -7.161627,1.897448 -11.413144,1.33973 z m 7.661284,-1.658622 c 2.039347,-0.528448 3.361554,-0.987583 3.003346,-1.345788 0.860061,-0.250081 1.269335,-0.708238 1.996548,-1.25421 0.466,-0.418 1.116899,-1.020439 1.394385,-1.333337 1.412021,-1.592221 1.21284,-3.96286 1.110645,-7.325465 C 85.658156,80.1825 84.894176,77.71351 83.978197,76.850759 83.50416,76.392965 80.98487,73.760843 79.782675,73.144273 c -0.760262,-0.389917 -2.111126,-0.84636 -3.410745,-0.939647 -1.878948,-0.13487 -2.63554,-0.14518 -5.355421,0.76322 -3.830298,1.279274 -5.796259,3.114942 -7.28696,6.057016 -0.796118,1.571235 -0.822397,2.141356 -0.806013,4.015138 0.02442,2.793258 0.445904,5.121981 1.896698,6.816909 1.193859,1.394755 4.138658,3.106229 5.77461,3.496984 1.768656,0.422455 5.788309,0.24096 7.78644,-0.276806 z M 107.06821,90.98248 c 1.78249,-0.797744 4.25491,-2.578843 5.35851,-4.128708 0.89139,-1.251837 1.84526,-4.894582 1.84526,-6.152 0,-1.331475 -0.52493,-5.28369 -0.9952,-6.17803 -1.07616,-2.046553 -2.74566,-3.352737 -5.68938,-4.543479 -1.5776,-0.638147 -2.0053,-0.734509 -3.97493,-0.575283 -4.991984,0.403553 -9.611079,1.808881 -11.521901,5.756113 -0.520867,1.075968 -0.792759,2.046967 -0.820017,4.163022 -0.06012,4.667219 1.075692,7.540296 4.249897,10.222885 2.402567,2.030464 3.53596,2.36447 7.446641,2.435503 2.14421,0.03895 2.72445,-0.383901 4.10112,-1.000023 z"
         id="glasses" />
      <path
         style="display:inline;fill:#8d4e1c;stroke-width:0.32"
         d="m 73.399221,89.952097 c -1.037434,-0.29664 -1.677379,-1.509354 -2.114984,-2.240736 -0.262329,-0.438438 0.103965,-1.220258 -0.04843,-1.440558 -0.265793,-0.384238 -0.345837,-1.240956 -0.282148,-1.640739 0.06027,-0.378344 0.433328,-0.694319 0.324554,-0.870319 -0.177862,-0.287789 0.516917,-0.126256 0.55898,-0.770633 0.01735,-0.265794 0.687134,-0.312475 0.687134,-0.488475 0,-0.490563 3.765273,-0.266358 4.770662,0.253549 1.287273,0.665677 2.382124,1.682909 2.613494,3.520285 0.199917,1.587603 0.216394,2.153615 -0.78319,2.865382 -1.030845,0.734029 -4.33534,1.209904 -5.726076,0.812244 z m 2.558897,-3.185819 C 76.691475,85.95593 76.309037,85.12 75.204947,85.12 c -1.320742,0 -1.743613,0.69048 -0.94672,1.545846 0.789216,0.84712 1.012224,0.860298 1.699891,0.100432 z M 74.88,83.84 c 0,-0.176 -0.0635,-0.32 -0.141114,-0.32 -0.07761,0 -0.230112,0.144 -0.338886,0.32 -0.108774,0.176 -0.04527,0.32 0.141114,0.32 0.186387,0 0.338886,-0.144 0.338886,-0.32 z m 29.16615,3.870911 c -0.22097,-0.204211 -1.02708,-0.254698 -1.28689,-0.308371 -1.29168,-0.266839 -2.948148,-3.521053 -1.82474,-4.122285 0.37426,-0.200294 1.02981,-0.578302 1.02981,-1.039538 0,-0.487769 -0.092,-1.281736 0.20484,-1.281736 0.264,0 0.52586,-0.26597 0.52586,-0.422889 0,-0.156921 0.57592,-0.395237 0.99957,-0.501567 0.42365,-0.106329 1.21007,-0.40461 1.48135,-0.508709 0.7293,-0.279859 3.13605,2.020778 3.12572,3.090314 -0.005,0.477932 0.006,2.134648 -0.29872,2.812805 -0.4437,0.987472 -1.01791,1.30231 -2.23797,1.765433 -1.16284,0.441408 -1.41215,0.799957 -1.71883,0.516543 z m 1.36976,-2.88429 c 0.41537,-0.458983 0.4742,-0.761043 0.23369,-1.2 C 105.25876,82.913293 104.11028,81.92 103.67634,81.92 c -0.42704,0 -0.40373,0.557536 0.0294,0.701898 0.24084,0.08028 0.22657,0.376649 -0.047,0.97719 -0.31281,0.686528 -0.31006,0.961581 0.0135,1.351437 0.54317,0.65447 1.07346,0.61679 1.74378,-0.123904 z"
         id="eye1" />
      <path
         style="display:inline;fill:#65482e;stroke-width:0.32"
         d="m 75.78,89.701405 c 0.230998,-0.09244 0.506998,-0.08107 0.613334,0.02525 0.106333,0.106333 -0.08267,0.181965 -0.42,0.16807 C 75.60055,89.879363 75.524726,89.803542 75.78,89.701392 Z m 1.254666,-0.141114 c 0.217068,-0.218694 0.475276,-0.317014 0.573801,-0.218489 0.09852,0.09852 -0.07908,0.277456 -0.394665,0.397625 -0.456064,0.173658 -0.49282,0.136903 -0.179136,-0.179136 z M 73.22,89.381405 c 0.230998,-0.09244 0.506998,-0.08107 0.613334,0.02525 0.106333,0.106333 -0.08267,0.181965 -0.42,0.16807 C 73.04055,89.559363 72.964726,89.483542 73.22,89.381392 Z m 5.001434,-0.391363 c 0.09856,-0.159479 0.467059,-0.214682 0.818886,-0.122679 0.880496,0.230256 0.80129,0.412637 -0.179206,0.412637 -0.450388,0 -0.738244,-0.13048 -0.63968,-0.289958 z m -6.537623,-0.481853 c 0.208253,-0.208253 0.441712,-0.190666 0.683895,0.05152 0.27694,0.27694 0.198892,0.354988 -0.316189,0.316188 -0.450435,-0.03393 -0.575959,-0.159452 -0.367706,-0.367705 z m 7.674775,-0.346483 c 0.218323,-0.263063 0.324252,-0.756292 0.235401,-1.096061 -0.11424,-0.436848 -0.02992,-0.567255 0.287898,-0.445293 0.511504,0.196282 0.460777,1.025914 -0.09903,1.619648 -0.534298,0.566678 -0.903076,0.498624 -0.424272,-0.07829 z m 22.884644,-0.166925 c 0.11054,-0.178871 0.33504,-0.242375 0.49888,-0.141114 0.44385,0.274314 0.36109,0.466333 -0.201,0.466333 -0.27438,0 -0.40843,-0.146349 -0.29788,-0.325219 z M 71.36,86.701114 c 0,-0.362388 0.137712,-0.573776 0.306026,-0.469751 0.168313,0.104023 0.224905,0.400522 0.125763,0.658887 C 71.537955,87.551725 71.36,87.473776 71.36,86.701114 Z m 4.101728,0.151683 c 0.516422,-0.361715 0.670147,-0.705923 0.535923,-1.2 -0.170457,-0.627453 -0.153872,-0.637808 0.175843,-0.109792 0.288573,0.462128 0.248285,0.710934 -0.194313,1.2 C 75.672077,87.082352 75.267085,87.36 75.079203,87.36 c -0.187885,0 -0.01574,-0.22824 0.382525,-0.507203 z m 26.982532,0.08054 c -0.2672,-0.321964 -0.24101,-0.426668 0.10674,-0.426668 0.25347,0 0.39342,0.109104 0.31101,0.242448 -0.0824,0.133347 0.10392,0.308643 0.41407,0.389548 0.47154,0.122999 0.4786,0.153178 0.0431,0.184218 -0.28645,0.02042 -0.68016,-0.15488 -0.87492,-0.389546 z M 104.32,87.04 c 0.62668,-0.404992 1.0503,-0.404992 0.8,0 -0.10877,0.176 -0.44127,0.317795 -0.73889,0.315101 -0.46632,-0.0042 -0.47477,-0.04777 -0.0611,-0.315101 z M 73.773667,86.102112 c -0.101261,-0.16384 -0.03776,-0.388339 0.141114,-0.498886 0.17887,-0.110548 0.325219,0.02349 0.325219,0.297888 0,0.562089 -0.192019,0.644851 -0.466333,0.200998 z m 32.973243,-0.136851 c 0.11086,-0.288893 0.42616,-0.525261 0.70066,-0.525261 0.2745,0 0.4391,0.04075 0.36576,0.09055 -0.0733,0.0498 -0.38863,0.28617 -0.70065,0.525261 -0.49392,0.378461 -0.54125,0.366743 -0.36577,-0.09055 z M 79.36,85.438531 c 0,-0.411475 -0.243926,-1.017673 -0.542058,-1.347104 -0.509411,-0.562896 -0.509411,-0.586441 0,-0.390963 0.298132,0.114406 0.542058,0.345101 0.542058,0.512659 0,0.167555 0.112269,0.235261 0.249485,0.150458 0.302387,-0.186887 0.27103,1.302569 -0.03384,1.607437 C 79.45704,86.089626 79.36,85.850006 79.36,85.438531 Z m -8.294736,-0.185197 c 0.01536,-0.372784 0.09118,-0.448608 0.193331,-0.193334 0.09244,0.230998 0.08107,0.507002 -0.02525,0.613334 -0.106336,0.106333 -0.181965,-0.08267 -0.16807,-0.42 z M 103.63918,84.88 c -0.38163,-0.486624 -0.37629,-0.513219 0.0408,-0.202966 0.264,0.196368 0.696,0.436998 0.96,0.534736 0.40152,0.148649 0.39484,0.181833 -0.0408,0.202966 -0.28645,0.01389 -0.71845,-0.226736 -0.96,-0.534736 z m -2.78866,-0.4 c 0,-0.44 0.0726,-0.62 0.16141,-0.4 0.0888,0.22 0.0888,0.58 0,0.8 -0.0888,0.22 -0.16141,0.04 -0.16141,-0.4 z m 4.61005,-0.0938 c 0.12017,-0.31559 0.2991,-0.49319 0.39763,-0.394665 0.0985,0.09852 2e-4,0.356733 -0.21849,0.573801 -0.31604,0.313684 -0.35279,0.276928 -0.17914,-0.179136 z m 2.08469,-0.09286 c 0.0154,-0.372784 0.0912,-0.448608 0.19334,-0.193334 0.0924,0.230998 0.0811,0.507002 -0.0252,0.613334 -0.10634,0.106333 -0.18197,-0.08267 -0.16807,-0.42 z m -36.020233,-1.0852 c -0.258595,-0.418416 0.477907,-0.7732 0.844365,-0.406742 0.204835,0.204835 0.143219,0.379018 -0.177635,0.502141 -0.270192,0.103683 -0.570221,0.06076 -0.66673,-0.0954 z M 77.44,83.2 c -0.253805,-0.156861 -0.355235,-0.39143 -0.225398,-0.521267 0.129836,-0.129837 0.404064,-0.06807 0.609398,0.137267 0.483491,0.483491 0.213629,0.753354 -0.384,0.384 z m 23.20227,0.0037 c -0.11211,-0.181395 0.0164,-0.23504 0.30111,-0.125763 0.55437,0.212733 0.6558,0.442099 0.19551,0.442099 -0.16562,0 -0.3891,-0.142352 -0.49662,-0.316336 z M 104,82.496624 c 0,-0.375811 0.108,-0.552966 0.24,-0.39368 0.132,0.159286 0.36007,0.379245 0.50683,0.4888 0.14676,0.109555 0.0388,0.28671 -0.24,0.39368 C 104.14191,83.125459 104,82.988624 104,82.496624 Z m -28.54,0.164781 c 0.230998,-0.09244 0.506998,-0.08107 0.613334,0.02525 0.106333,0.106333 -0.08267,0.181965 -0.42,0.16807 C 75.28055,82.839363 75.204726,82.763542 75.46,82.661392 Z m 32.14631,-1.359235 c 0.0256,-0.339808 0.15436,-0.551197 0.28614,-0.469754 0.13178,0.08144 0.15848,0.359469 0.0593,0.617834 -0.24999,0.651472 -0.40083,0.586819 -0.34548,-0.14808 z M 102.08,81.421299 c 0,-0.06533 0.288,-0.272915 0.64,-0.461299 0.35357,-0.189229 0.64,-0.21097 0.64,-0.04858 0,0.161667 -0.288,0.369251 -0.64,0.461302 -0.352,0.09205 -0.64,0.11391 -0.64,0.04858 z m 4.68821,-0.611049 c -0.0991,-0.258365 -0.0724,-0.536391 0.0593,-0.617834 0.13178,-0.08144 0.26054,0.129946 0.28614,0.469754 0.0553,0.734899 -0.0955,0.799552 -0.34548,0.14808 z M 104.96,80.130611 c 0,-0.02874 0.19918,-0.217555 0.44263,-0.419597 0.33725,-0.279891 0.48096,-0.267452 0.60364,0.05225 0.0978,0.254742 -0.0761,0.419597 -0.44263,0.419597 -0.332,0 -0.60364,-0.02352 -0.60364,-0.05225 z"
         id="eye3" />
      <path
         style="display:inline;fill:#55311e;stroke-width:0.32"
         d="m 78.02,89.381405 c 0.230998,-0.09244 0.506998,-0.08107 0.613334,0.02525 0.106333,0.106333 -0.08267,0.181965 -0.42,0.16807 C 77.84055,89.559363 77.764726,89.483542 78.02,89.381392 Z m 0.96,-0.64 c 0.230998,-0.09244 0.506998,-0.08107 0.613334,0.02525 0.106333,0.106333 -0.08267,0.181965 -0.42,0.16807 C 78.80055,88.919363 78.724726,88.843542 78.98,88.741392 Z m 24.7,-1.061405 -0.8,-0.256205 0.88,-0.0319 c 0.484,-0.01754 0.88,0.112109 0.88,0.288109 0,0.176 -0.036,0.305645 -0.08,0.288102 -0.044,-0.01754 -0.44,-0.14719 -0.88,-0.288102 z m -2.03215,-0.964218 C 100.74977,85.764262 100.10392,83.52 100.72817,83.52 c 0.18255,0 0.25848,0.280822 0.16872,0.624048 -0.15225,0.582195 0.87534,2.437738 1.63843,2.958554 0.17938,0.122428 0.25225,0.296496 0.16193,0.386816 -0.0903,0.09032 -0.56255,-0.257818 -1.0494,-0.773636 z m -30.564272,0.110391 c -0.02397,-0.381607 -0.126452,-0.957607 -0.227741,-1.28 -0.174339,-0.554909 -0.164682,-0.555815 0.181053,-0.01696 0.200867,0.313059 0.30335,0.889059 0.227737,1.28 -0.137334,0.710093 -0.137513,0.710109 -0.181049,0.01696 z m 34.111092,0.174118 c 0.21706,-0.218694 0.47527,-0.317014 0.5738,-0.218489 0.0985,0.09852 -0.0791,0.277456 -0.39467,0.397625 -0.45606,0.173658 -0.49282,0.136903 -0.17913,-0.179136 z M 74.386842,86.69871 c -0.11601,-0.187708 -0.124509,-0.427708 -0.01888,-0.533334 0.105625,-0.105622 0.192044,-0.02403 0.192044,0.18129 0,0.574412 0.888055,0.442259 1.254368,-0.186666 0.179396,-0.308 0.330551,-0.4088 0.335901,-0.224 0.02467,0.852419 -1.342518,1.443757 -1.763427,0.76271 z M 79.68,86.221114 c 0,-0.274388 0.144,-0.409888 0.32,-0.301114 0.176,0.108774 0.32,0.333274 0.32,0.498886 0,0.165613 -0.144,0.301114 -0.32,0.301114 -0.176,0 -0.32,-0.224499 -0.32,-0.498886 z M 74.24,85.44 c 0,-0.176 0.152499,-0.32 0.338886,-0.32 0.186388,0 0.249888,0.144 0.141114,0.32 -0.108774,0.176 -0.261274,0.32 -0.338886,0.32 C 74.303501,85.76 74.24,85.616 74.24,85.44 Z m 32.96,-0.32 c 0,-0.176 0.144,-0.32 0.32,-0.32 0.176,0 0.32,0.144 0.32,0.32 0,0.176 -0.144,0.32 -0.32,0.32 -0.176,0 -0.32,-0.144 -0.32,-0.32 z m -3.44127,-0.4 c -0.1758,-0.22 -0.21502,-0.687718 -0.0871,-1.039376 0.19518,-0.536794 0.25695,-0.472618 0.38503,0.4 0.17094,1.164714 0.15288,1.203475 -0.29788,0.639376 z M 70.963578,84.615232 c -0.102756,-0.166259 0.01642,-0.580224 0.2648,-0.919923 0.484784,-0.662983 0.556764,-0.398666 0.164332,0.603449 -0.13327,0.34032 -0.32638,0.48273 -0.429132,0.316474 z m 34.341682,-0.67177 c -0.0139,-0.383094 -0.27726,-0.76239 -0.58526,-0.842876 -0.52483,-0.137152 -0.5242,-0.148676 0.0101,-0.183466 0.62063,-0.04042 1.02814,0.658272 0.76541,1.312323 -0.0907,0.225805 -0.1763,0.09712 -0.19019,-0.285981 z M 74.4,83.84 c 0.108774,-0.176 0.261274,-0.32 0.338886,-0.32 0.07761,0 0.141114,0.144 0.141114,0.32 0,0.176 -0.152499,0.32 -0.338886,0.32 -0.186388,0 -0.249888,-0.144 -0.141114,-0.32 z m -1.875722,-0.8 c -0.101305,-0.264 -0.04471,-0.48 0.125764,-0.48 0.170476,0 0.309958,0.216 0.309958,0.48 0,0.264 -0.05659,0.48 -0.125763,0.48 -0.06917,0 -0.20865,-0.216 -0.309959,-0.48 z m 28.945032,-0.56 c 0.42388,-0.396 0.8203,-0.607158 0.88094,-0.469242 0.17058,0.387949 -0.6111,1.189242 -1.16012,1.189242 -0.35929,0 -0.28419,-0.193683 0.27918,-0.72 z M 76.42,82.661405 c 0.230998,-0.09244 0.506998,-0.08107 0.613334,0.02525 0.106333,0.106333 -0.08267,0.181965 -0.42,0.16807 C 76.24055,82.839363 76.164726,82.763542 76.42,82.661392 Z m 31.4249,-0.478179 c -0.003,-0.5405 -0.31615,-1.101604 -0.84806,-1.52 C 106.53311,80.298451 106.30683,80 106.49399,80 c 0.86967,0 2.08102,1.893718 1.64858,2.577242 -0.21968,0.347225 -0.29399,0.248854 -0.29767,-0.394016 z M 103.36,82.24 c 0,-0.176 0.144,-0.32 0.32,-0.32 0.176,0 0.32,0.144 0.32,0.32 0,0.176 -0.144,0.32 -0.32,0.32 -0.176,0 -0.32,-0.144 -0.32,-0.32 z m 0.1152,-1.84751 c 0.10744,-0.173843 0.56839,-0.387389 1.02433,-0.474547 0.97771,-0.186903 0.63736,0.228067 -0.4596,0.560371 -0.4732,0.143347 -0.68635,0.110953 -0.56473,-0.08582 z"
         id="eye2" />
      <path
         style="display:inline;fill:#31302b;stroke-width:0.32"
         d="m 53.512947,109.13355 c -0.295214,-1.08141 -0.864271,-0.98642 -1.217043,-1.95357 -0.309221,-1.46065 -0.998287,-2.89763 -1.296046,-3.46068 -0.418426,-0.90738 -0.614626,-1.66407 -0.985339,-2.60112 -0.328136,-0.78693 -0.413894,-1.376192 -0.584497,-2.398277 -0.385261,-2.084416 -0.311725,-6.019565 0.125574,-6.72 0.299884,-0.692688 0.185295,-1.236871 0.76785,-2.76864 0.214987,-0.518716 0.333683,-1.503358 0.557427,-2.031358 0.223741,-0.528 0.40217,-1.721104 0.396512,-2.651341 -0.0581,-1.417247 -0.14055,-1.658939 -0.290731,-2.482736 -0.219835,-0.864112 -1.165821,-2.829048 -1.305962,-4.173299 -0.70453,-1.690798 -0.424189,-0.845611 -0.891404,-2.130028 -0.405348,-0.519775 -0.268848,-1.269302 -0.59744,-1.689037 -0.351485,-0.448979 -0.264619,-1.01081 -0.595206,-1.598736 -0.761631,-1.489804 -2.024935,-3.886826 -1.947838,-4.499901 -1.916615,-4.731219 -1.510911,-10.522414 -0.993665,-15.437994 0.08521,-1.132229 0.486208,-2.143913 0.498608,-2.3743 -0.08344,-1.329377 0.460577,-2.86104 1.029973,-3.715962 0.2635,-0.809531 0.749187,-1.24774 1.061375,-1.886553 0.348493,-1.411302 2.60168,-5.902442 3.557517,-7.090976 2.18624,-2.718477 4.172128,-4.447293 6.24239,-5.434307 2.133651,-1.017242 2.219395,-1.030168 5.92,-0.892447 3.407351,0.126808 4.34864,0.228656 6.752749,0.730652 0.416768,0.08702 0.657571,0.258412 0.53512,0.380867 -0.195366,0.195363 2.38664,0.590454 8.072525,1.235235 2.127737,0.241283 4.336432,-0.357027 5.683219,-1.539521 1.53018,-1.343533 7.641975,-4.238934 10.55138,-4.998628 2.86799,-0.74888 9.003395,-1.473398 12.639995,-1.49263 1.86811,-0.0099 2.71473,0.146257 3.82011,0.704522 0.78105,0.394467 1.53868,0.717214 1.68361,0.717214 0.44043,0 4.09628,2.595437 4.09628,2.90811 0,0.160539 0.23041,0.29189 0.512,0.29189 0.2816,0 1.01601,0.504 1.63201,1.12 0.616,0.616 1.17596,1.12 1.24433,1.12 0.20307,0 1.45974,1.071043 2.06505,1.76 2.27185,2.58584 3.18661,3.777955 3.18661,4.152797 0,0.238627 0.1178,0.481869 0.26178,0.540537 0.14397,0.05867 0.92253,1.546666 1.73012,3.306666 1.31175,2.858746 1.50965,3.600202 1.85564,6.952755 0.21302,2.064013 0.28701,4.440013 0.16443,5.28 -0.46805,3.207319 -2.40646,10.402797 -3.10842,11.538583 -1.1135,1.801692 -1.01425,4.428499 0.26858,7.108662 1.35653,2.83415 2.02787,4.372403 2.02787,4.646502 0,0.126378 0.51662,1.080228 1.14804,2.119664 0.98332,1.618714 1.1847,2.290493 1.40345,4.68186 0.22898,2.503046 0.0925,4.774262 -0.42742,7.111974 -0.81186,3.650509 -1.60293,6.555178 -1.98442,7.286461 -0.25064,0.480448 -0.45659,1.059277 -0.45768,1.28629 -0.003,0.69269 -1.37364,3.13474 -1.51915,2.70725 -0.0749,-0.22 -0.33682,-0.4 -0.58211,-0.4 -0.24527,0 -0.69369,-0.396 -0.99647,-0.88 -0.3028,-0.484 -0.59561,-0.94149 -0.65068,-1.01664 -0.0551,-0.0751 -0.31009,0.14085 -0.56668,0.48 -0.25658,0.33915 -0.47109,0.45141 -0.47669,0.24946 -0.006,-0.20622 -0.4488,-0.3465 -1.01069,-0.32 -0.95026,0.0448 -1.04267,-0.0611 -1.84,-2.107915 -0.46172,-1.185303 -0.9475,-2.157303 -1.0795,-2.16 -0.132,-0.0026 -0.2461,0.535094 -0.25355,1.195094 -0.0218,1.927437 -0.72786,4.475691 -1.19644,4.317991 -0.2255,-0.0759 -0.3695,0.0423 -0.32,0.26257 0.0495,0.22031 -0.29259,0.62303 -0.76021,0.89494 -1.0599,0.61631 -2.37067,0.13208 -2.81647,-1.04048 -0.16162,-0.42507 -0.44044,-0.86345 -0.6196,-0.97418 -0.17918,-0.11074 -0.44196,-0.66565 -0.33173,-0.95288 0.14823,-0.386302 0.28847,-0.22475 -0.0476,-0.031 -0.24991,0.14409 -0.0363,-0.18717 0.47459,-0.736131 0.51093,-0.548963 1.03479,-0.93271 1.16414,-0.852771 0.12934,0.07994 0.83717,-0.656057 1.51689,-1.467394 2.04398,-2.439747 2.37514,-2.719319 2.16115,-2.304369 -0.13558,0.262902 -0.28753,0.285583 0.0457,0.157727 0.27625,-0.106009 0.53252,-0.520078 0.48541,-0.808053 -0.0494,-0.301824 0.36291,-0.102248 0.53373,-0.294023 0.33204,-0.372764 0.56757,-1.053228 1.08622,-1.475481 1.39005,-2.159786 2.26661,-4.366603 1.40318,-6.570793 -0.30279,-0.462119 -0.39366,-0.767101 -0.53825,-0.677741 -0.14459,0.08936 -0.0577,-0.06134 -0.18508,-0.267435 -0.40604,-0.592004 -0.21857,-0.6661 -1.14974,-1.349599 -0.41958,-0.536109 -1.117,-0.64129 -1.49056,-0.722456 -1.323,-0.756905 -1.41277,-0.882719 -2.35558,-0.617783 -0.20773,0 -0.20869,-0.730573 -0.22039,-2.250701 -0.0105,-1.364 0.12077,-3.2 -0.0446,-4.08 -0.58594,-3.117661 -0.71626,-5.183443 -0.3416,-5.414992 0.43949,-0.271619 0.48499,-2.745008 0.0505,-2.745008 -0.19134,-0.497232 -0.81512,-0.708242 -1.73943,-0.500912 -0.8917,-0.672091 -0.6626,-0.482646 -0.99202,-0.892968 -0.74647,0.126269 -1.13452,-0.02166 -1.73578,-0.661654 -0.42596,-0.453495 -0.46625,-0.694685 -0.51947,-0.824423 -0.67586,-1.51706 -0.95518,-2.274354 -1.01064,-2.95403 -0.0621,-0.732604 -0.27418,-1.15336 -0.45144,-1.212448 -0.17727,-0.05909 0.0506,-0.858856 0.0506,-1.460188 0,-0.601334 -0.0791,-0.996051 -0.25515,-0.996051 -0.176,0 -0.41728,-0.406563 -0.41728,-0.764755 0,-0.717232 -0.74281,-1.967409 -1.38261,-2.369006 -0.22422,-0.140745 -0.53739,-0.499699 -0.53739,-0.658954 0,-0.375577 -1.03988,-1.556871 -2.14088,-2.278276 -0.47551,-0.311562 -1.07534,-0.876443 -1.07534,-1.136385 0,-0.259942 0.1245,-0.326698 -0.1395,-0.326698 -0.3549,0 -0.16608,0.09502 -0.14945,1.100577 0.0164,0.988144 -0.36389,0.943751 -0.18424,0.483927 0.23936,-0.61265 0.77849,-0.431356 1.15409,0.270443 0.21338,0.39872 0.28749,1.120169 0.18449,1.444678 -0.11651,0.367082 -0.18035,0.35293 0.12392,0.469804 0.26925,0.103318 0.78139,0.778151 0.78139,1.123105 0,0.34495 0.1025,0.599975 0.3665,0.863975 0.264,0.264 0.4822,1.064641 0.4849,1.56121 0.004,0.700522 -0.29852,0.649362 -0.0578,0.276933 0.2646,-0.409446 0.68384,-0.267339 0.68802,0.214051 0.005,0.525421 0.53147,1.823244 0.93184,2.188086 0.308,0.928012 1.04117,3.010125 0.33257,2.914448 -0.35261,-0.21261 -0.4388,-0.346556 -0.73866,-0.590531 -0.13898,-0.532803 -0.14915,-0.533021 -0.18422,-0.0039 -0.14236,0.547174 -0.38683,0.639708 -0.70642,0.978302 -2.27877,1.622095 -2.3904,-0.141433 -2.32751,-1.399204 0.0821,-1.185591 0.0443,-1.560985 -0.31728,-1.83806 -0.27192,-0.208397 -0.23202,-1.045041 -0.30769,-1.661041 -0.0757,-0.616 0.20566,0.138381 0.209,1.696218 0.004,1.900573 0.0875,2.815107 -0.1764,2.978186 -0.29033,0.17943 -0.46608,0.328398 -0.0769,0.477732 0.28991,0.111251 0.46992,0.104082 0.36038,0.281327 -0.278,0.449808 0.0108,0.189254 0.47633,-0.276316 0.29867,-0.298666 0.77169,-0.687901 1.0828,-0.374506 0.0759,1.001908 -0.11062,1.144916 -1.06314,1.364666 -0.66015,0.102811 -2.11422,0.215914 -2.93503,0.01529 -1.875859,-0.08934 -3.805083,-0.20111 -5.745843,-0.580813 -2.816761,-1.560228 -3.250472,-2.551949 -3.636549,-7.842918 -0.713565,-2.118185 -0.383554,-2.540543 0.05474,-2.26966 0.176,0.108774 0.109218,0.174351 0.109218,-0.111897 0,-0.356669 0.04468,-0.251802 -0.352368,-0.125786 C 91.442967,54.57166 90.957092,54.267264 90.621521,53.41203 90.379287,52.794754 90.251424,52.16 90.020272,52.16 c -0.541434,0 -0.0095,0.646566 0.537529,1.448797 0.55552,0.814633 2.165702,4.90501 2.646857,6.971794 0.313575,1.346947 -0.463174,1.518337 -0.880105,2.3541 -0.273818,0.54888 -0.451441,1.450386 -0.71179,1.666456 -0.260349,0.216071 -0.0032,-0.474731 -0.0032,-0.286645 0,0.18809 -0.542048,0.8313 -0.312791,0.517764 1.025549,-0.712272 1.67857,-1.15834 0.829269,0.62869 -0.864436,0.524087 -1.218577,0.794635 -1.748517,1.249964 -1.207409,1.048051 -1.49992,1.299973 -2.555305,2.060394 -0.379859,0.172907 -1.153615,0.488919 -1.577923,0.792312 -0.582164,0.486835 -0.694908,0.523689 -1.256839,0.692638 -1.400996,0.279305 -1.237869,0.09806 -2.072,0.06525 -0.475689,-0.264284 -0.652146,-0.34292 -1.323031,-0.404094 -1.369701,-0.173435 -2.960359,-0.580369 -3.874224,-1.220668 0.0085,-0.113142 -0.188912,-0.676198 -0.438804,-1.251232 -0.249891,-0.575037 -0.636863,-0.420724 -0.643874,-0.156724 -0.716883,0.148851 -1.796813,0.565242 -2.636134,1.000942 -1.307115,0.806036 -1.204427,0.797198 -2.211958,1.214678 -2.06593,1.029752 -2.574875,0.658943 -4.484542,1.409852 -0.20742,0.194848 -1.110489,0.316205 -2.006822,0.26968 -1.120742,-0.05818 -1.781046,0.06676 -2.114339,0.400054 -0.266554,0.266554 -0.767824,0.410592 -1.113933,0.32008 -0.383718,-0.100342 -0.75007,0.04236 -0.938803,0.365677 -0.417559,0.715334 -0.41552,0.169878 0.0022,-0.610797 0.228345,-0.426665 0.03378,-0.456824 -0.194567,-0.456824 -0.182192,0 -0.535946,-0.291572 -0.548318,-0.687572 -0.01235,-0.396 0.360381,-0.55401 0.194193,-0.90601 -0.211546,-0.44807 -0.390009,-0.671277 -0.292275,0.769789 0.07813,1.151916 4.519412,-1.377546 0.759759,3.350776 -0.210434,0.264652 -1.132363,-1.882901 -1.099253,-1.338997 0.818357,0.642805 1.37447,-0.368524 1.450202,2.200752 -0.03021,1.272174 0.652747,3.539145 0.160101,5.100373 -0.20352,0.245229 -0.288643,1.459923 -0.301264,2.769383 -0.01261,1.309459 -0.219326,1.758746 -0.338333,2.141089 -0.255596,1.057497 -0.53713,2.043651 -0.927564,2.895603 0.01942,0.932751 0.08719,1.613504 0.08733,2.408237 -0.154616,1.571763 0.637594,2.619149 1.14157,3.911498 0.123049,0.379447 0.340862,0.721723 0.492045,1.090864 0.17024,0.167776 0.225313,0.423374 0.307136,0.647952 0.393186,0.298411 0.876569,1.177261 1.409527,1.93461 0.606656,-0.168973 1.218764,0.991031 1.307078,1.104015 0.09461,0.254757 0.341491,0.313125 0.445673,0.501324 0.592219,0.499532 1.216544,1.204536 1.597289,1.624506 0.2064,-0.12756 0.105077,0.1301 -0.03097,0.35026 0.273379,0.38956 0.140395,0.54889 0.168447,0.65856 0.311321,0.82689 0.170558,0.86494 0.362237,2.0849 -0.206928,-0.0442 -0.02493,0.4013 0.04653,1.33845 0.127814,1.67623 -0.341991,2.30347 -0.744794,2.05452 -0.144887,-0.0895 -0.495045,-0.0279 -0.595964,0.2351 -0.224585,0.58525 -1.043227,0.78096 -1.043227,0.21349 -0.22719,-0.161 -0.623327,0.0779 -0.73384,0.11594 -0.45784,0.70312 -0.886831,1.13752 -1.463714,0.44242 -0.813727,-0.57587 -1.019064,0.12911 -1.202446,0.23635 -1.17978,0.60286 -1.13773,-0.2323 -1.994689,0.0299 -1.277962,0.37072 -1.91285,0.25852 -3.225434,0.48392 -0.751685,-0.36737 -1.504197,0.36593 -2.187555,0.3921 -0.358515,-0.027 -0.63895,-0.12721 -0.623187,-0.22267 z m 60.835213,-9.796989 c 0.21982,-0.352 0.48636,-0.456561 0.42415,-0.456561 -0.0622,0 -0.37375,0.288 -0.69231,0.64 -0.31856,0.352 -0.69974,0.54828 -0.5388,0.54828 0.16094,0 0.58713,-0.379719 0.80696,-0.731719 z M 57.676791,71.726503 c 0,-0.264 -0.07914,-0.350289 -0.255144,-0.350289 -0.176,0 -0.434383,-0.18 -0.435468,-0.4 -9.6e-4,-0.22 -0.230259,-0.864428 -0.509277,-1.392428 -0.638419,-1.208115 -0.988828,-6.564899 -0.556399,-8.753497 0.50408,-2.551258 1.411532,-4.631105 1.717836,-5.150289 0.155754,-0.264 -0.04237,-0.84907 0.114612,-1.20107 0.156976,-0.352 0.685914,-0.904962 1.056519,-1.327893 0.370602,-0.422931 0.608968,-1.070322 0.608968,-1.280114 0,-0.209792 0.417712,-0.674505 0.769712,-0.993062 0.760518,-0.688262 1.049192,-0.584941 0.386994,-0.584941 -0.264,0 -0.204363,0.220256 -0.204363,0.370557 0,0.150297 -0.197861,0.321226 -0.637861,0.795994 -0.44,0.474768 -0.848642,0.975817 -0.848642,1.172889 0,0.197075 -0.219215,0.634295 -0.447513,0.912154 -0.582569,0.70904 -1.677274,3.644291 -2.311962,6.105197 -0.309619,1.200499 -0.874272,3.303367 -0.892765,5.150289 -0.02704,2.700435 0.621149,3.50719 1.259693,4.992428 0.82248,1.913066 0.518038,2.057369 0.952883,2.057369 0.154451,0 0.232177,0.140706 0.232177,-0.123294 z m 4.007353,-2.275637 c -0.238144,-1.012 0.0836,-2.060194 0.08085,-2.804927 -0.0066,-1.774688 0.340197,-6.024292 0.653387,-6.024292 0.134653,0 -0.220011,-0.173493 0.01269,-0.332238 0.0647,-0.04413 -0.25379,0.121735 -0.25379,1.011947 0,0.410784 0.05834,0.953749 -0.187419,1.048056 -0.258915,0.09936 -0.186439,0.741672 -0.319124,1.728312 -0.125942,0.936522 -1.081332,1.53435 -1.251134,1.744663 -0.04012,0.264855 0.975737,-2.058595 1.139956,1.777613 0.0022,2.095514 -0.212844,3.399016 0.345404,3.399016 0.295745,-1.095785 0.057,-0.357032 -0.220822,-1.54815 z M 74.53185,67.481853 c 0.631862,-0.220269 -1.128172,0.686084 -1.227093,0.428295 -0.08846,-0.230525 1.04503,-2.012796 0.931046,-2.685295 -0.24272,-1.432029 -0.494561,-3.635481 -0.999319,-3.947439 -0.717245,-0.44328 -0.169407,-0.101697 0.640817,1.610972 0.971104,2.052749 0.586661,3.175803 -0.197301,3.679867 -0.429882,0.2764 -0.441728,0.32415 -0.05098,0.205507 0.279961,-0.08501 0.691334,-0.04188 0.914166,0.09584 0.258605,0.159827 0.101318,0.250393 -0.434854,0.250393 -0.905908,0 -1.360631,-0.39102 -0.833549,-0.716774 0.526397,-0.325331 -0.01453,-1.922658 -0.729205,-3.538294 -0.365907,-0.827196 -0.404575,-1.718624 -0.303911,-1.980947 0.32111,-0.836806 -1.6874,-3.317923 -1.881912,-2.896418 -0.09884,0.214179 1.228287,1.812149 1.772095,2.220005 0.205997,0.154496 -0.112989,0.363814 -0.36802,0.528944 -0.314887,0.203888 0.106675,0.515336 0.421562,1.392428 0.217891,0.606918 0.109142,1.167956 0.273577,1.286388 0.164435,0.118435 2.09593,2.084981 2.112343,3.022546 0.02557,1.461315 -1.498286,1.402122 -1.160183,1.402122 0.05135,0 0.555673,-0.161161 1.120717,-0.358137 z m 0.07399,-0.886762 c -0.266963,-0.169155 -0.310685,-0.351414 -0.113533,-0.473264 0.176349,-0.108989 0.403203,0.01702 0.504122,0.28 0.212041,0.552573 0.19207,0.562455 -0.390589,0.193264 z m 43.41069,0.08601 c -0.11575,-0.187293 -0.26563,-1.541293 -0.33307,-3.127792 -0.0918,-2.159891 -0.52063,-3.556991 -1.27204,-5.75461 -0.55192,-1.614208 -1.01704,-2.837 -1.17231,-2.895665 -0.15528,-0.05866 -0.28232,-0.464824 -0.28232,-0.724229 0,-1.4204 -4.58244,-9.84363 -5.40222,-9.875489 -0.61667,-0.02397 0.0193,0.825855 1.07693,2.081551 0.64406,0.764649 1.65267,2.393726 2.24135,3.659797 0.58869,1.26607 1.22995,2.309499 1.40521,2.417816 0.17526,0.108314 0.25379,0.726792 0.25379,1.156404 0,0.429613 -0.002,0.408194 0.15468,0.408194 0.15641,0 0.57079,0.700311 0.68303,1.298627 0.11225,0.598314 0.33521,1.166662 0.59455,1.381897 0.25934,0.215235 0.50395,1.020115 0.50395,1.491363 0,0.471251 0.0881,0.734153 0.27508,0.921113 0.18696,0.18696 0.5535,2.27161 0.79472,4.27585 0.24123,2.00424 0.39962,3.534145 0.41144,3.578145 0.0118,0.044 -0.0368,0.225925 0.14959,0.225925 0.25791,-0.0037 -0.38133,-0.727009 -0.0824,-0.518897 z M 65.753594,80.589254 c 1.325766,-1.575584 3.26312,-2.840998 6.566406,-4.288966 6.4276,-2.817482 8.743424,-2.498227 9.605523,1.324198 0.444874,1.972512 -0.130259,2.094247 -1.71895,0.363834 -1.200986,-1.308118 -1.550819,-1.507594 -2.63568,-1.502835 -1.791565,0.0078 -5.681498,1.081833 -6.798045,1.876883 C 70.249443,78.735066 69.685757,79.04 69.520214,79.04 c -0.165545,0 -1.192176,0.576 -2.281401,1.28 -1.089223,0.704 -2.060349,1.28 -2.158055,1.28 -0.09771,0 0.205069,-0.454835 0.672836,-1.010746 z M 93.47687,79.259168 c -0.657814,-1.66049 -0.451081,-2.63135 0.756436,-3.552365 2.02838,-1.547123 4.696742,-2.228461 8.806694,-2.248688 3.83542,-0.01888 6.08,0.275127 6.08,0.796384 0,0.168026 -1.116,0.308381 -2.48,0.311898 -1.364,0.0035 -3.632,0.195789 -5.04,0.427267 -2.256803,0.371024 -3.299395,0.777382 -6.043392,2.355453 -0.372134,0.214016 -0.912016,0.934016 -1.199738,1.6 L 93.833741,80.16 Z M 46.708906,70.799517 c -1.230466,-2.605813 0.138884,-0.351219 0.546297,0.771945 -0.05917,0.05917 -0.304998,-0.288211 -0.546297,-0.771945 z m 45.236051,-7.621493 c 0.56426,-1.289471 2.849216,-2.446679 3.138861,0.122468 0.09687,0.859221 -0.581812,0.571012 -1.380583,-0.151865 -0.656531,-0.594153 -0.915181,-0.478061 -0.984477,0.441869 -0.02579,0.34256 -0.106688,0.54552 -0.191438,0.736335 -0.126024,0.283744 -2.866924,4.071968 -0.582363,-1.148807 z m 18.028373,-0.991358 c -0.11733,-0.117332 -0.20895,-0.441332 -0.2036,-0.72 0.008,-0.416096 0.0704,-0.402272 0.34933,0.07733 0.34457,0.592541 0.24468,1.033072 -0.14573,0.642666 z m -2.18025,-2.337842 c -0.32666,-0.919735 -0.96773,-2.188805 -1.36515,-2.72107 -0.39742,-0.532263 -0.97121,-1.522043 -1.33455,-2.358043 -0.53591,-1.233098 -0.50854,-2.038845 -0.13374,-2.038845 0.25411,0 0.88357,0.605134 0.88357,0.869134 0,0.264 0.32235,0.431358 0.49835,0.431358 0.176,0 0.44971,0.166758 0.44971,0.350758 0,0.184 0.16544,0.613478 0.60544,1.053478 0.44,0.44 1.51341,1.009453 1.51341,1.265453 0,0.256 -0.94026,0.578953 -0.78154,0.578953 0.15872,0 0.84282,0.896204 0.96535,1.951932 0.14183,1.221968 0.16729,1.63279 0.38251,1.499776 0.19828,-0.122541 0.30851,0.495103 0.17461,0.711769 -0.40967,0.662851 -1.25474,0.10378 -1.85797,-1.594653 z"
         id="hair1" />
      <path
         style="display:inline;fill:#2a2a26;stroke-width:0.32"
         d="m 60.604438,73.804733 c 0.112308,-0.619325 0.04339,-0.854835 -0.22054,-0.753613 -0.229664,0.08808 -0.403664,-0.177475 -0.433101,-0.660995 -0.03062,-0.50312 0.04487,-0.656016 0.2,-0.405015 0.194547,0.314781 0.302061,0.317693 0.490201,0.01328 0.132548,-0.214467 0.06921,-0.496112 -0.140761,-0.625878 -0.233677,-0.144422 -0.336778,-0.782189 -0.265802,-1.644224 l 0.115955,-1.408285 0.265703,1.36 c 0.146137,0.748 0.407862,1.36 0.581609,1.36 0.173748,0 0.08002,0.36 -0.208275,0.8 -0.288301,0.44 -0.374045,0.8 -0.190547,0.8 0.334189,0 0.202064,1.505722 -0.164266,1.872055 -0.106441,0.106441 -0.120019,-0.211853 -0.03018,-0.707322 z M 58.24,72.64 c 0,-0.176 0.135501,-0.32 0.301114,-0.32 0.165612,0 0.390112,0.144 0.498886,0.32 0.108774,0.176 -0.02672,0.32 -0.301114,0.32 C 58.464499,72.96 58.24,72.816 58.24,72.64 Z m -1.204147,-0.72 c -0.177379,-0.22 -0.663011,-1.192 -1.079181,-2.16 -1.358637,-3.160157 -0.906934,-9.066922 1.07673,-14.08 0.383033,-0.968 0.883216,-1.987338 1.111513,-2.265197 C 58.373213,53.136944 58.56,52.748365 58.56,52.55129 c 0,-0.197072 0.36,-0.746762 0.8,-1.22153 0.44,-0.474768 0.8,-0.986189 0.8,-1.136486 0,-0.150301 0.216,-0.273274 0.48,-0.273274 0.662198,0 0.600518,0.431738 -0.16,1.12 -0.352,0.318557 -0.64,0.750842 -0.64,0.960634 0,0.209792 -0.303222,0.727472 -0.673824,1.150403 -0.370605,0.422931 -0.802259,1.056963 -0.959235,1.408963 -0.156979,0.352 -0.412848,0.856 -0.568602,1.12 -0.306304,0.519184 -0.889478,2.728742 -1.393558,5.28 -0.432429,2.188598 -0.114448,7.431885 0.523971,8.64 0.279018,0.528 0.508192,1.14 0.509277,1.36 9.6e-4,0.22 0.145971,0.4 0.321971,0.4 0.176,0 0.32,0.216 0.32,0.48 0,0.583843 -0.445414,0.624144 -0.884147,0.08 z m 4.485657,-0.458493 c -0.03059,-0.319824 -0.152393,-1.697501 -0.270656,-3.061501 -0.207376,-2.391849 -0.724873,-3.408502 -0.814432,-1.6 -0.03865,0.780407 -0.05954,0.796522 -0.184566,0.142388 -0.07754,-0.40569 -0.0019,-0.90969 0.16775,-1.12 0.169802,-0.210314 0.41178,-1.148634 0.537722,-2.085156 0.132685,-0.98664 0.416915,-1.77488 0.67583,-1.874236 C 61.878922,61.768678 62.08,61.355424 62.08,60.94464 c 0,-0.890211 0.496838,-1.29929 0.756426,-0.622813 0.100918,0.262989 0.06721,0.478163 -0.0749,0.478163 -0.142118,0 -0.446877,1.211629 -0.677248,2.692512 -0.37879,2.434973 -0.314361,4.961568 0.172058,6.747488 0.09587,0.352 -0.01773,0.901677 -0.252439,1.221501 -0.412441,0.562 -0.428617,0.562 -0.482384,0 z m 6.324909,-1.533766 C 67.594019,69.62361 67.569741,69.44 67.781933,69.44 c 0.386736,0 0.837629,0.607104 0.615712,0.829024 -0.08054,0.08054 -0.328595,-0.07304 -0.551226,-0.34129 z m -0.453456,-1.074405 c -0.09065,-0.146668 0.04485,-0.266668 0.301114,-0.266668 0.256256,0 0.465923,0.12 0.465923,0.266668 0,0.146666 -0.135501,0.266666 -0.301114,0.266666 -0.165612,0 -0.37528,-0.12 -0.465923,-0.266666 z M 72,68.378067 c 0,-0.597408 0.521917,-0.988016 0.774365,-0.579545 0.09822,0.158928 -0.03583,0.466908 -0.297888,0.684403 C 72.089062,68.804448 72,68.784848 72,68.378067 Z m 1.421162,-0.687891 c -0.54338,-0.410989 -0.553402,-0.471098 -0.08005,-0.48 0.297612,-0.0056 0.617603,-0.133933 0.711084,-0.285194 0.09349,-0.151257 -0.150016,-0.240752 -0.541113,-0.198873 -0.645939,0.06917 -0.714192,-0.06987 -0.744995,-1.517613 -0.01866,-0.876563 -0.16265,-1.687072 -0.32,-1.801126 -0.157348,-0.114052 -0.464365,-0.703936 -0.682256,-1.310855 -0.314887,-0.877091 -0.314887,-1.156112 0,-1.36 0.255027,-0.165129 0.282163,-0.342019 0.07617,-0.496515 -0.543808,-0.407856 -1.825392,-2.361274 -1.658598,-2.52807 0.531532,-0.531533 2.592793,2.366019 2.274044,3.196665 -0.09901,0.258026 0.134704,1.200739 0.51937,2.094922 0.417066,0.969494 0.64169,2.01895 0.556445,2.599747 -0.08944,0.609421 -0.0135,0.931562 0.202896,0.860672 0.670611,-0.21968 0.53463,-1.802714 -0.307818,-3.583507 -0.827622,-1.74945 -0.878553,-2.372963 -0.157427,-1.927283 0.946541,0.584995 2.384829,5.386969 1.561101,5.212009 -0.486938,-0.103424 -0.583152,0.7812 -0.12072,1.109946 0.190854,0.135677 0.0859,0.237171 -0.248179,0.24 -0.31839,0.0026 -0.48989,0.148899 -0.381116,0.324899 0.276122,0.446774 0.06709,0.399242 -0.658838,-0.149824 z M 117.73852,67.12 c -0.0118,-0.044 -0.21885,-1.71983 -0.46008,-3.72407 -0.24122,-2.00424 -0.59155,-3.79704 -0.77851,-3.984 -0.18696,-0.18696 -0.33993,-0.725498 -0.33993,-1.196749 0,-0.471248 -0.21219,-1.032919 -0.47153,-1.248154 -0.25934,-0.215235 -0.56337,-0.880867 -0.67562,-1.479181 C 114.90061,54.88953 114.6808,54.4 114.52439,54.4 c -0.15642,0 -0.28439,-0.351501 -0.28439,-0.781114 0,-0.429612 -0.14339,-0.869737 -0.31865,-0.978051 -0.17526,-0.108317 -0.8003,-1.232816 -1.38899,-2.498886 -0.58868,-1.266071 -1.59729,-2.927575 -2.24135,-3.692224 -1.05765,-1.255696 -1.54768,-2.624365 -0.93101,-2.600397 0.81978,0.03187 5.84,8.925293 5.84,10.345693 0,0.259405 0.12704,0.519645 0.28232,0.578313 0.15527,0.05867 0.73389,1.427383 1.28581,3.041591 0.75141,2.197619 1.03431,3.659574 1.12611,5.819465 0.0674,1.5865 0.21732,3.037783 0.33307,3.225076 0.11575,0.187292 0.058,0.340534 -0.12842,0.340534 -0.18639,0 -0.34856,-0.036 -0.36037,-0.08 z M 88.180573,66.466198 c 0.120169,-0.31559 0.299101,-0.49319 0.397625,-0.394665 0.09852,0.09852 2.05e-4,0.356733 -0.218489,0.573801 -0.316039,0.313684 -0.352794,0.276928 -0.179136,-0.179136 z m 1.615616,-0.284748 c 0.09242,-0.149536 0.302083,-0.18904 0.465923,-0.08778 0.418682,0.258759 0.371539,0.359667 -0.168035,0.359667 -0.256259,0 -0.390307,-0.122348 -0.297888,-0.271887 z m 13.737181,-1.243076 c 0.10296,-0.166592 -0.05,-0.393916 -0.33992,-0.505168 -0.38917,-0.149334 -0.4242,-0.265875 -0.13387,-0.445305 0.26387,-0.163079 0.39125,-1.174896 0.38718,-3.075469 -0.003,-1.557837 0.0558,-2.328432 0.13149,-1.712432 0.0757,0.616 0.36005,1.290506 0.63197,1.498902 0.36233,0.277687 0.46439,0.816352 0.38209,2.016535 -0.0964,1.405014 -0.0362,1.617702 0.42375,1.497318 0.34702,-0.09083 0.47874,0.0091 0.37351,0.283258 -0.0901,0.234784 -0.38807,0.33703 -0.66855,0.229401 -0.28467,-0.109241 -0.42276,-0.05948 -0.31568,0.11378 0.10468,0.169372 -0.0908,0.329129 -0.43442,0.355011 -0.34362,0.02589 -0.54051,-0.08924 -0.43755,-0.255831 z m -6.091104,-0.29471 c -0.112109,-0.181395 0.01635,-0.23504 0.301113,-0.125763 0.554375,0.212733 0.655805,0.442099 0.195507,0.442099 -0.165612,0 -0.389094,-0.142352 -0.49662,-0.316336 z M 99.84,64.64 c 0,-0.176 0.2245,-0.32 0.49889,-0.32 0.27438,0 0.40988,0.144 0.30111,0.32 -0.10877,0.176 -0.33327,0.32 -0.49889,0.32 C 99.975501,64.96 99.84,64.816 99.84,64.64 Z M 91.6,64.12929 c 0.308,-0.362826 0.56,-0.810714 0.56,-0.995306 0,-0.184589 0.197373,-0.499424 0.438608,-0.699632 C 93.065242,62.047082 93.116458,62.310464 91.658544,57.6 91.358941,56.632 90.773206,55.14417 90.356906,54.293709 89.48969,52.522064 89.432566,52.16 90.020272,52.16 c 0.231152,0 0.618438,0.505043 0.860637,1.12232 0.335571,0.855238 0.578237,1.07856 1.019728,0.938435 0.397043,-0.126016 0.579363,-0.0201 0.579363,0.336567 0,0.286246 -0.144,0.431452 -0.32,0.322678 -0.438298,-0.270883 -0.411603,-0.09173 0.301962,2.026451 0.342076,1.015447 0.656985,2.522903 0.699795,3.349907 0.06121,1.182567 0.196137,1.503642 0.631865,1.503642 0.30472,0 0.817812,0.08195 1.140205,0.182102 C 95.256224,62.042259 95.16,61.90336 94.72,61.633443 94.232723,61.334518 94.107632,61.14016 94.4,61.13624 c 0.745686,-0.01002 1.316547,0.468035 1.157565,0.969344 -0.07926,0.24993 -0.232359,0.856304 -0.340218,1.347504 -0.115421,0.525629 -0.337971,0.805411 -0.540893,0.68 -0.219299,-0.135536 -0.230547,-0.285878 -0.03091,-0.413088 0.19144,-0.121984 0.205543,-0.489642 0.03615,-0.942515 -0.371258,-0.992557 -1.580608,-0.820275 -2.116509,0.301517 -0.220445,0.461449 -0.653795,1.034966 -0.962999,1.274483 -0.535785,0.415033 -0.535888,0.404505 -0.0022,-0.224195 z M 100,63.68 c 0.10877,-0.176 0.26127,-0.32 0.33889,-0.32 0.0776,0 0.14111,0.144 0.14111,0.32 0,0.176 -0.1525,0.32 -0.33889,0.32 C 99.954726,64 99.891226,63.856 100,63.68 Z m 10.08,-0.64 c -0.264,-0.170611 -0.36632,-0.312406 -0.22738,-0.315101 0.43011,-0.0084 -0.51914,-0.858233 -0.95857,-0.858233 -0.22773,0 -0.42875,0.3 -0.44672,0.666668 -0.0219,0.447079 -0.14718,0.297757 -0.38033,-0.453334 -0.19121,-0.616 -0.42851,-1.192 -0.52733,-1.28 -0.39991,-0.356131 -0.97997,-1.626134 -0.98457,-2.155658 -0.004,-0.481392 -0.0505,-0.493788 -0.3151,-0.08434 -0.24068,0.372429 -0.3113,0.277664 -0.3151,-0.422858 -0.003,-0.496569 -0.2209,-1.118857 -0.4849,-1.382857 -0.264,-0.264 -0.48,-0.762234 -0.48,-1.107184 0,-0.344954 -0.22029,-0.711722 -0.48954,-0.81504 -0.30457,-0.116874 -0.41878,-0.410787 -0.30227,-0.777869 0.103,-0.324509 0.0127,-0.916246 -0.20071,-1.314966 -0.3756,-0.701799 -0.39588,-0.70474 -0.63524,-0.09209 -0.17965,0.459824 -0.25341,0.261008 -0.26975,-0.727136 -0.0166,-1.005552 0.10261,-1.36 0.45751,-1.36 0.264,0 0.48,0.212682 0.48,0.472624 0,0.259942 0.38905,0.727539 0.86456,1.039101 1.101,0.721405 2.33544,1.951341 2.33544,2.326918 0,0.159255 0.18346,0.404711 0.40768,0.545456 0.6398,0.401597 1.51232,1.927411 1.51232,2.644643 0,0.358192 0.144,0.651258 0.32,0.651258 0.176,0 0.32,0.492 0.32,1.093334 0,0.601332 0.18,1.166368 0.4,1.255639 0.30802,0.124979 0.29729,0.234064 -0.0466,0.474368 -0.27303,0.190771 -0.35962,0.5388 -0.22278,0.895395 0.17978,0.468525 0.27737,0.496717 0.49583,0.143242 0.1875,-0.303386 0.2567,-0.176423 0.22278,0.408742 -0.0271,0.466854 -0.0492,0.846723 -0.0492,0.844154 0,-0.0026 -0.216,-0.144263 -0.48,-0.314874 z m -0.64,-1.938886 c 0,-0.186388 -0.12989,-0.258612 -0.28864,-0.160496 -0.15875,0.09811 -0.38889,-0.685389 -0.51142,-1.741114 C 108.51741,58.143776 108.2873,57.28 108.12858,57.28 c -0.15872,0 -0.28858,-0.209456 -0.28858,-0.465456 0,-0.256 -0.36,-0.825453 -0.8,-1.265453 -0.44,-0.44 -0.8,-0.950547 -0.8,-1.134547 0,-0.184 -0.144,-0.334544 -0.32,-0.334544 -0.176,0 -0.32,-0.216 -0.32,-0.48 0,-0.264 -0.2079,-0.48 -0.46201,-0.48 -0.3748,0 -0.33731,0.286902 0.1986,1.52 0.36334,0.836 0.98577,1.955491 1.38319,2.487754 0.39742,0.532265 0.98985,1.720265 1.31651,2.64 0.32666,0.919737 0.77613,1.672246 0.99882,1.672246 0.22269,0 0.40489,-0.152499 0.40489,-0.338886 z m -18.534736,0.79222 c 0.01536,-0.372784 0.09118,-0.448608 0.193331,-0.193334 0.09244,0.230998 0.08107,0.506998 -0.02525,0.613334 -0.106333,0.106333 -0.181965,-0.08267 -0.16807,-0.42 z M 74.24,61.12 c 0,-0.176 0.152499,-0.32 0.338886,-0.32 0.186388,0 0.249888,0.144 0.141114,0.32 -0.108774,0.176 -0.261274,0.32 -0.338886,0.32 C 74.303501,61.44 74.24,61.296 74.24,61.12 Z m 20.017779,-1.457779 c -0.120477,-0.642189 -0.155049,-1.231619 -0.07682,-1.30984 0.07822,-0.07822 0.240793,0.383206 0.361267,1.025398 0.120477,0.642189 0.155049,1.231619 0.07682,1.30984 -0.07822,0.07822 -0.240793,-0.383206 -0.361267,-1.025398 z M 92.853645,56.336336 C 92.666451,55.79935 92.634192,55.36 92.781955,55.36 c 0.293127,0 0.775488,1.589222 0.550618,1.814096 -0.07622,0.07621 -0.291735,-0.300778 -0.478928,-0.83776 z"
         id="hair_lines" />
      <path
         style="display:inline;fill:#292317;stroke-width:0.32"
         d="m 90.88,116.41481 c -0.792,-0.38758 -1.488,-0.81946 -1.546666,-0.95975 -0.05867,-0.14028 -0.359225,-0.25506 -0.667907,-0.25506 -0.308681,0 -1.365616,-0.576 -2.348739,-1.28 -1.269821,-0.74431 -2.555391,-1.74419 -3.694806,-2.3379 -0.669965,-0.26807 -2.055329,-1.10326 -2.445469,-1.44197 -0.768873,-0.66753 2.312592,0.75526 6.486029,3.36483 3.838224,2.39997 6.333052,3.37785 7.652419,2.99946 2.667088,-0.76491 4.52496,-2.14317 9.252559,-6.86397 6.39585,-6.38666 9.56923,-9.872297 10.2987,-9.872297 0.37502,0 -11.28279,11.861137 -13.71638,13.923497 -3.913746,3.31673 -6.502658,4.07727 -9.26974,2.72316 z M 78.804925,109.36 c -0.739843,-0.396 -1.601616,-0.93805 -1.91505,-1.20456 -0.31343,-0.26651 -1.073875,-0.83699 -1.689875,-1.26773 -4.212349,-2.94556 -9.846251,-6.68541 -9.505713,-7.02595 0.088,-0.088 0.842724,0.09837 1.439361,0.6916 0.596633,0.59323 2.788774,1.77468 4.356182,2.98217 3.902807,3.00659 4.533776,3.46654 6.83017,4.97884 1.735875,1.14318 2.252614,1.56563 1.91505,1.56563 -0.04672,0 -0.690279,-0.324 -1.430125,-0.72 z m 8.488374,-4.49588 c -1.301526,-0.42721 -2.545613,-1.40398 -1.373299,-1.0782 0.352,0.0978 1.484483,0.41701 2.516634,0.70932 1.358624,0.38477 2.430908,0.47211 3.884668,0.31643 1.766701,-0.1892 2.600788,-0.49885 6.318698,-2.34578 0.132,-0.0656 0.24,0.0155 0.24,0.18007 0,0.16461 -1.029453,0.7738 -2.287674,1.35375 -1.959353,0.90313 -2.705641,1.06877 -5.2,1.1542 -1.706582,0.0585 -3.403638,-0.0615 -4.099027,-0.28979 z m 26.860431,-5.681617 c 0.37382,-0.559811 1.43093,-1.373149 1.481,-1.425956 0.32237,0.186444 -0.0385,0.546064 -0.95067,1.480256 -0.66767,0.68376 -1.28595,1.243197 -1.37395,1.243197 -0.088,0 0.18833,-0.626412 0.84362,-1.297497 z M 64.523209,98.666666 C 64.463302,98.648331 64.282696,98.30005 64.111612,98.16 63.80237,97.906854 63.992,97.76 63.786666,97.76 c -0.205332,0 -0.651899,-1.640536 -1.127487,-1.40271 -0.129861,0.06494 0.660185,1.231253 0.92,1.207729 0.35816,-0.03243 0.702578,0.133647 1.060821,0.514981 0.513997,0.547123 1.813619,2.08773 1.430362,2.08773 -0.267123,0 -1.249517,-1.409968 -1.547153,-1.501064 z M 88.08,97.563184 c -0.572,-0.366317 -1.04,-0.818211 -1.04,-1.004205 0,-0.188211 0.24833,-0.130761 0.56,0.129549 0.927498,0.774659 2.351363,1.263318 3.076771,1.05592 2.111389,-0.603651 3.506291,-1.659446 4.349168,-3.291856 0.212253,-0.411072 0.456864,-0.676454 0.543584,-0.589738 0.24569,0.245693 -0.706774,1.900637 -1.543485,2.681872 -0.95846,0.894909 -2.864169,1.696855 -4.01576,1.689882 C 89.520624,98.231728 88.652,97.929504 88.08,97.563184 Z M 62.260573,96.093802 c -0.173658,-0.456064 -0.136903,-0.49282 0.179136,-0.179136 0.218694,0.217068 0.317014,0.475276 0.218489,0.573801 -0.09852,0.09852 -0.277456,-0.07908 -0.397625,-0.394665 z M 70.24,95.054957 C 69.36,94.925965 68.129379,94.592176 67.50529,94.3132 65.382566,93.36432 62.08,89.150915 62.08,87.391635 c 0,-0.348627 -0.144,-0.722861 -0.32,-0.831635 -0.176,-0.108774 -0.32,-0.693274 -0.32,-1.298886 0,-0.605613 -0.108,-1.100791 -0.24,-1.100394 -0.132,3.2e-4 -0.191824,-1.016794 -0.132941,-2.260426 0.07472,-1.578147 0.243875,-2.313648 0.56,-2.434956 0.249117,-0.0956 0.452941,-0.380141 0.452941,-0.632324 0,-0.716249 1.249638,-3.020358 2.423434,-4.468377 2.065926,-2.548573 6.919417,-4.140983 11.881788,-3.898359 4.422695,0.216234 6.848775,1.550676 8.650093,4.757901 0.486576,0.866343 0.992685,1.575315 1.124685,1.575495 0.132,1.79e-4 0.675669,1.06847 0.389045,1.181622 -0.158566,0.0626 -0.365045,-0.644269 -0.629045,-0.745574 -0.264,-0.101309 -0.48,-0.355501 -0.48,-0.564874 0,-0.965344 -3.223165,-4.295066 -5.009882,-5.175507 -0.979072,-0.482458 -1.948486,-0.607104 -4.750118,-0.610752 -3.035866,-0.004 -3.890867,0.121069 -6.216467,0.909024 -1.483059,0.502486 -2.894167,1.111309 -3.135799,1.352937 -0.241628,0.241632 -0.612217,0.550506 -0.823529,0.686391 -0.459159,0.295257 -1.821216,2.194893 -1.831322,2.554102 C 63.668979,76.52617 63.384173,77 63.04,77.44 c -0.344173,0.44 -0.62897,1.108595 -0.632883,1.485763 -0.0039,0.377171 -0.244202,0.776743 -0.533968,0.887936 -0.455799,0.174906 -0.501354,0.595754 -0.337786,3.120451 0.103984,1.605053 0.341069,3.070282 0.526851,3.256064 0.185783,0.185783 0.337786,0.621341 0.337786,0.967911 0,1.016182 1.907107,4.103641 3.275952,5.303517 2.223558,1.949078 3.420358,2.297459 8.084048,2.353193 4.379046,0.05234 6.954058,-0.443472 8.211005,-1.580995 0.575053,-0.520413 1.521184,-1.12385 2.508995,-1.600214 0.621866,-0.299892 1.273837,-1.197527 2.125802,-2.926807 0.37719,-0.765603 0.740288,-1.22855 0.80688,-1.028771 0.06659,0.199779 0.70704,0.44183 1.423209,0.537891 1.112781,0.149255 1.39145,0.0611 1.916371,-0.606227 0.63584,-0.808339 1.407738,-0.848486 1.407738,-0.07322 0,0.599357 2.807021,3.450912 4,4.063462 3.301978,1.695447 8.31101,2.37129 10.08,1.360045 0.44,-0.251526 1.05783,-0.462426 1.37296,-0.468659 0.61787,-0.01222 2.46538,-1.198643 2.88294,-1.851341 0.14075,-0.22 0.45275,-0.4 0.69334,-0.4 0.24058,0 0.48543,-0.133414 0.54409,-0.296474 0.0587,-0.163062 0.79323,-1.019376 1.63236,-1.902921 0.83914,-0.883543 1.49682,-1.722131 1.46153,-1.863523 -0.0353,-0.141396 0.26743,-1.337082 0.6727,-2.657082 0.86886,-2.82992 0.76243,-5.975446 -0.3092,-9.137584 -1.22028,-3.600794 -2.44715,-5.068486 -5.43072,-6.496694 -1.53523,-0.7349 -2.14825,-0.839645 -4.8,-0.820148 -2.46585,0.01814 -3.52349,0.191309 -5.6,0.916954 -5.777392,2.018934 -6.915866,2.957421 -8.520726,7.023958 -1.14328,2.896938 -1.238093,6.037386 -0.261111,8.648608 0.845664,2.260237 0.52144,3.067223 -1.229421,3.060007 -0.653808,-0.0026 -1.357715,-0.112381 -1.564236,-0.243741 -0.225117,-0.14319 -0.404324,-1.262582 -0.447476,-2.795101 -0.07707,-2.737181 -0.562185,-5.270288 -1.091724,-5.700621 -0.200199,-0.162691 -0.03809,-0.21798 0.238054,-0.143763 0.625572,0.168135 1.165683,2.885843 1.182518,5.384125 0.01501,2.229872 0.34248,2.864 1.478941,2.864 1.247904,0 1.545693,-0.753533 0.967911,-2.449229 -0.980263,-2.876909 -0.559335,-7.475965 0.951673,-10.397981 1.500477,-2.901648 2.723507,-3.7868 7.495597,-5.424832 2.64937,-0.909404 3.47175,-1.045974 6.4,-1.062832 3.64003,-0.02096 5.14436,0.424583 7.49993,2.221261 1.21161,0.924141 2.74007,3.277792 2.74007,4.219392 0,0.325501 0.23638,0.929303 0.5253,1.341783 0.85771,1.22456 0.92773,7.08807 0.11132,9.321689 -0.35014,0.957943 -0.63662,2.019632 -0.63662,2.359309 0,1.032848 -4.70986,5.335101 -7.12835,6.51144 -1.85781,0.903626 -2.46783,1.04 -4.65207,1.04 -2.46363,0 -5.233967,-0.665085 -7.57958,-1.819658 -1.064528,-0.52399 -3.57463,-3.14136 -3.86337,-4.028473 -0.167241,-0.513818 -0.27975,-0.488333 -1.176908,0.266576 -0.734368,0.617929 -1.205949,0.783635 -1.815856,0.638061 -1.631018,-0.389296 -1.785831,-0.33248 -2.373911,0.871219 -0.324525,0.664246 -0.946288,1.456246 -1.381699,1.76 -0.435411,0.30375 -1.45615,1.039369 -2.26831,1.634704 -0.81216,0.595337 -2.278394,1.300569 -3.258301,1.567184 -2.002557,0.544857 -7.038106,0.760585 -9.461645,0.405344 z m 48.81199,-0.835836 C 119.43467,93.811777 120,93.458784 120,93.336605 c 0,-0.122179 0.45028,-0.832899 1.00062,-1.579376 0.55034,-0.746477 1.03654,-2.356516 1.3276,-2.000796 0.18116,0.221417 -0.8167,1.855567 -0.92534,2.163567 -0.10864,0.308 -0.32473,0.56 -0.4802,0.56 -0.15547,0 -0.24668,0.11479 -0.20268,0.255091 0.095,0.302887 -4.51461,5.72147 -5.69295,5.65268 -0.12982,-0.0076 3.6423,-3.761306 4.02494,-4.16865 z M 70.526054,93.457078 c -1.556416,-0.371756 -4.453772,-2.159148 -5.580908,-3.442886 -1.503584,-1.712486 -1.97384,-3.108659 -2.150964,-6.386122 -0.140566,-2.600992 -0.07469,-3.106668 0.583597,-4.48 0.408125,-0.85144 1.546688,-2.340777 2.530138,-3.309644 1.588605,-1.565047 2.149987,-1.882442 5.032016,-2.845005 2.806694,-0.937402 3.538848,-1.061623 5.431997,-0.921629 2.749804,0.203344 4.2808,0.99007 6.575283,3.378822 2.715517,2.827085 3.214617,4.066762 3.175766,7.888055 -0.01776,1.748265 -0.142713,3.289753 -0.277648,3.425526 -0.134931,0.135773 -0.197427,-0.841725 -0.138877,-2.172214 0.163328,-3.711453 -0.594435,-6.058125 -2.711737,-8.397818 -2.224938,-2.458637 -3.942522,-3.448595 -6.481773,-3.735878 -1.782819,-0.201703 -2.379696,-0.104519 -5.254122,0.855507 -2.880819,0.96216 -3.442422,1.279709 -5.030905,2.844634 -0.98345,0.968867 -2.122499,2.459209 -2.531219,3.311878 -0.648349,1.352576 -0.722205,1.883146 -0.579079,4.16 0.267504,4.255488 1.574509,6.352755 5.23457,8.399578 1.643184,0.918918 2.484688,1.171644 4.361888,1.309984 2.637763,0.194387 5.580264,-0.262379 7.358774,-1.14232 0.675676,-0.3343 2.23996,-1.088583 2.32263,-0.984794 0.07219,0.09064 -1.251094,0.997309 -1.820719,1.302163 -2.051449,1.097903 -7.326167,1.592458 -10.048708,0.942163 z M 98.927974,91.72407 C 98.0208,91.502262 96.805702,90.766566 95.439379,89.611856 92.265174,86.929267 91.015526,83.979869 91.075648,79.31265 c 0.07581,-5.88528 2.880842,-8.701648 9.696472,-9.735671 4.00456,-0.607545 5.09812,-0.577549 6.67232,0.183021 0.72855,0.352 1.48168,0.64 1.67361,0.64 0.19193,0 0.52288,0.136771 0.73546,0.303939 3.94572,3.102909 4.51754,4.280419 4.51437,9.296061 -0.002,3.105981 -0.11035,3.908211 -0.69488,5.14305 -0.93875,1.983116 -3.27237,4.311056 -5.80541,5.79128 -2.01615,1.178169 -2.20304,1.223817 -4.82251,1.177884 -1.4988,-0.02627 -3.351493,-0.200947 -4.117106,-0.388144 z m 7.742966,-0.668518 c 2.29335,-0.942938 5.60177,-3.956333 6.34099,-5.775552 1.33322,-3.28105 1.5133,-6.061994 0.59477,-9.185082 -0.46847,-1.592848 -2.5454,-4.137974 -3.88224,-4.757411 -0.59645,-0.276371 -1.73246,-0.816771 -2.52446,-1.200889 -1.68369,-0.816583 -2.42194,-0.843991 -6.08,-0.225722 -5.077312,0.858144 -7.276694,2.146358 -8.797968,5.153101 -0.785344,1.552208 -0.835469,1.897613 -0.700051,4.823961 0.188771,4.079264 0.425469,5.0972 1.576147,6.778394 1.231136,1.798739 4.434355,4.276038 6.118432,4.731853 2.37489,0.642793 5.28771,0.507081 7.35438,-0.342653 z m -3.54485,-3.277309 c 0.30781,-0.09368 1.93571,-0.442679 2.15236,-0.355009 0.21665,0.08766 -1.1846,0.704357 -1.71259,0.697835 -4.332477,0.88341 -3.954007,0.726743 -0.43977,-0.342826 z m 2.88931,-0.927104 c 1.67355,-0.870957 1.70388,-0.917037 1.96301,-2.982205 0.0974,-0.776086 0.26853,-1.496086 0.38033,-1.6 0.11179,-0.103913 0.10399,0.495066 -0.0173,1.331066 -0.13002,0.895882 -0.0966,1.52 0.0815,1.52 0.32822,0 1.83504,-3.002694 2.16345,-4.311213 C 110.69803,80.363955 110.91777,80 111.07469,80 c 0.52184,0 0.29512,1.338099 -0.54325,3.20625 -0.87821,1.956915 -2.47519,3.38808 -4.57919,4.103753 -1.65078,0.561511 -1.63175,0.423203 0.0631,-0.458864 z m -1.82411,-1.966521 C 104.08608,84.779411 104,84.357334 104,83.946666 104,83.413334 104.18286,83.2 104.64,83.2 c 0.4617,0 0.64,0.213334 0.64,0.765763 0,0.73473 -0.69027,1.317303 -1.08871,0.918855 z M 99.565169,81.79147 c 0.518791,-0.393005 7.174661,-3.653352 9.099751,-4.180497 1.04229,-0.285411 2.16406,-0.668464 2.49281,-0.851226 0.41167,-0.228861 0.70074,-0.229277 0.92868,-0.0013 0.37726,0.377264 -0.15647,0.629107 -3.12641,1.475216 -1.78438,0.508352 -3.25471,1.103699 -5.84,2.364663 -0.65904,0.321443 -1.0418,0.744339 -1.0449,1.154483 -0.004,0.528403 -0.0601,0.559913 -0.3056,0.171641 -0.24659,-0.39 -0.47647,-0.409248 -1.27733,-0.106956 -0.53714,0.202748 -3.288784,2.152364 -3.288784,2.152364 l -0.02375,-0.371246 z m -17.233127,9.304412 c 1.355792,-0.634957 2.804433,-2.645662 3.133222,-3.201879 0.38826,-0.656824 0.326945,-1.480659 0.418237,-1.253107 0.479715,1.195757 -1.627175,4.172765 -3.715312,4.69177 -0.534976,0.132966 -0.491498,0.07014 0.163853,-0.236784 z M 70.08,90.193738 c -0.777322,-0.307514 -2.88,-2.848 -2.88,-3.479658 0,-0.674061 0.530026,-0.217747 1.693597,1.458061 1.079926,1.555341 1.337462,1.747859 2.338147,1.747859 1.098166,0 1.112861,-0.01667 0.6264,-0.711203 -0.750675,-1.071741 -0.597808,-1.359037 0.221856,-0.416941 0.53839,0.618806 1.141405,0.876419 2.390672,1.021312 1.83673,0.213027 5.06287,-0.305642 6.809328,-1.094739 1.76879,-0.799191 1.800573,-0.80296 1.028288,-0.122029 C 80.936755,89.80569 72.037571,90.96816 70.08,90.193738 Z m 51.84,-0.235968 c 0,-0.176 0.144,-0.408996 0.32,-0.51777 0.176,-0.108774 0.18828,-1.83804 0.35315,-1.899653 0.47508,-0.177554 -0.17715,2.430879 -0.35315,2.539653 -0.176,0.108774 -0.32,0.05377 -0.32,-0.12223 z M 74.56,86.098886 c 0,-0.341612 0.114877,-0.692112 0.25528,-0.778886 0.455968,-0.281805 1.123414,0.361242 0.921392,0.887706 C 75.459203,86.930778 74.56,86.847619 74.56,86.098886 Z m 46.90579,-0.813523 c -0.4676,-0.613049 -0.65707,-1.040535 -0.42105,-0.949965 0.20207,0.07754 0.92219,0.958943 1.33012,1.851849 0.41011,0.897692 0.36242,1.891226 0.15855,1.383899 -0.18208,-0.453105 -0.60003,-1.672733 -1.06762,-2.285783 z M 64.6412,83.92 c 0.0016,-0.300806 2.373638,-1.282218 3.7588,-1.555107 0.572,-0.112691 1.04,-0.297888 1.04,-0.411546 0,-0.223206 10.227885,0.464317 11.47776,0.771539 1.356227,0.333367 0.571661,0.389738 -1.71776,0.123424 -1.232,-0.143312 -3.75417,-0.275916 -5.604826,-0.294678 -2.861088,-0.02899 -3.705238,0.08869 -5.638713,0.786131 C 65.641293,84.17489 64.63905,84.350301 64.6412,83.92 Z m 14.219962,-0.229824 c -0.341639,-0.2584 -0.458794,-0.4744 -0.260343,-0.48 0.198448,-0.0056 0.54008,0.205824 0.759181,0.469824 0.505853,0.609517 0.299136,0.613734 -0.498838,0.01018 z"
         id="outline" />
    </g>
  </g>
</svg>
