<?xml version="1.0" encoding="UTF-8" standalone="no"?>
<!-- Created with Inkscape (http://www.inkscape.org/) -->

<svg
   version="1.1"
   id="svg1135"
   width="192"
   height="288"
   viewBox="0 0 192 288"
   xmlns="http://www.w3.org/2000/svg"
   xmlns:svg="http://www.w3.org/2000/svg">
  <defs
     id="defs1139" />
  <g
     id="g1141">
    <g
       id="g1562"
       transform="translate(10,-14)">
      <path
         style="display:inline;fill:#fbd7c8;stroke-width:0.32"
         d="m 83.41705,130.23403 c -0.496624,-0.14903 -1.640845,-0.65679 -2.542717,-1.12837 -0.901869,-0.47157 -2.329482,-1.06223 -3.172471,-1.31257 -0.842988,-0.25034 -1.92926,-0.82268 -2.413936,-1.27186 -0.484675,-0.44918 -1.386736,-1.02672 -2.004576,-1.28341 -0.617843,-0.25669 -1.654905,-0.89221 -2.304585,-1.41227 -0.64968,-0.52005 -1.260586,-0.94555 -1.357568,-0.94555 -1.542071,0 -6.112499,-9.22917 -7.083421,-14.30372 -0.524768,-2.74272 -0.604982,-6.36753 -0.147174,-6.65047 0.170832,-0.10558 0.73968,0.0299 1.264108,0.30111 1.372989,0.71 4.474045,0.62751 6.673284,-0.17752 1.007603,-0.36884 2.63583,-0.88447 3.618281,-1.14585 C 75.915248,100.3797 76.8,99.384819 76.8,97.694627 c 0,-0.509645 0.165405,-1.092032 0.367568,-1.294195 0.661866,-0.661866 -0.526824,-1.600234 -3.1042,-2.857018 -2.827492,-1.378742 -4.786944,-1.766737 -8.931648,-1.769332 -1.628,-9.6e-4 -3.235159,-0.157007 -3.235159,-0.31861 0,-0.161607 -0.42219,-0.979243 -0.517816,-1.22844 -0.371641,-0.968483 6.621609,-2.636251 9.752607,-2.247682 1.617786,0.200775 2.694277,0.475579 5.195304,2.383204 1.205556,0.919523 0.927703,-0.198142 1.170025,-1.271023 0.385851,-1.708356 -0.06104,-1.416249 -0.81105,-1.701401 -1.102698,-0.419245 -6.832776,-0.105692 -9.389611,0.334619 -1.158416,0.199491 -2.82865,0.503473 -3.655585,0.899716 -0.826931,0.396247 -1.902345,0.206963 -1.969427,0.139881 -0.06708,-0.06708 0.0059,-1.075977 0.162074,-2.24199 0.313644,-2.340954 1.775731,-5.787779 3.8724,-9.129062 1.230412,-1.96081 1.434371,-2.137796 2.614518,-2.268775 1.151494,-0.127801 1.451597,0.0054 2.989248,1.326711 2.185446,1.877974 4.461901,3.204796 5.521587,3.218236 0.756266,0.0096 2.779863,-0.787798 3.169165,-1.248793 0.442486,-0.523981 3.427565,-2.817632 3.880598,-2.981751 0.918855,-0.332867 3.233143,0.399527 4.343744,1.37465 0.592861,0.520538 1.348916,0.946432 1.680125,0.946432 0.33121,0 0.686199,0.18 0.788867,0.4 0.149332,0.32 0.224,0.32 0.373332,0 0.102668,-0.22 0.38334,-0.4 0.623715,-0.4 0.240377,0 0.821469,-0.504 1.291315,-1.12 0.469846,-0.616 1.057693,-1.12 1.306326,-1.12 0.248637,0 0.537949,-0.223811 0.642919,-0.49736 0.162067,-0.422342 0.305347,-0.389795 0.949958,0.215782 0.417504,0.392228 0.759101,0.896884 0.759101,1.121456 0,0.224576 0.180419,0.523476 0.400928,0.664221 0.220512,0.140746 0.794445,0.836656 1.275408,1.546471 0.48096,0.709814 1.452544,1.85504 2.159064,2.544944 1.45466,1.420432 1.76258,3.075136 0.5646,2.651757 -1.337603,-0.472726 -4.893764,0.146426 -8.901911,1.414302 -1.884035,0.595964 -6.677907,3.099991 -6.282933,3.353623 0.357139,0.229336 0.610447,1.308804 1.006217,2.584804 0.801388,2.583757 0.605313,2.99083 0.278714,0.81291 -0.277382,-1.849721 0.392278,-3.518078 2.526553,-4.867377 0.452377,-0.449507 2.113252,-1.270881 2.264061,-1.35292 2.201984,-0.964192 5.70946,-1.196266 7.964006,-1.237198 l 3.414703,0.147079 0.5053,1.059613 c 0.27791,0.582784 0.50529,1.183337 0.50529,1.334563 0,0.151222 -0.828,0.422445 -1.84,0.602714 -1.012,0.180272 -3.116259,0.91654 -4.676128,1.636153 -2.223533,1.025783 -3.353549,1.809082 -5.231613,3.626429 -1.317513,1.274922 -2.373084,2.939074 -2.817042,3.33246 l -0.834302,0.739265 1.459543,1.378726 C 91.183206,99.09072 91.84,99.870627 91.84,100.06555 c 0,0.59817 2.853866,0.77832 6.783635,0.42823 4.668985,-0.41595 6.775795,-0.858698 7.392125,-1.553479 0.79726,-0.898736 1.82424,-2.919799 1.82424,-3.590035 0,-0.346647 0.11591,-0.630266 0.25759,-0.630266 0.25468,0 2.92873,2.679814 6.71173,6.72621 2.81629,3.01237 2.91073,3.41898 1.27776,5.50115 -2.1334,2.72028 -15.65401,15.97319 -17.718952,17.36815 -1.03847,0.70153 -2.004221,1.4592 -2.146112,1.68372 -0.141891,0.22452 -0.933891,0.76963 -1.76,1.21137 -0.826109,0.44173 -2.166131,1.23201 -2.97783,1.75618 -2.147652,1.38687 -5.771479,1.95614 -8.067136,1.26725 z m 6.48358,-12.30422 c 0.890653,-0.45132 1.61937,-0.96217 1.61937,-1.1352 0,-0.36788 -0.537296,-0.42569 -0.693334,-0.0746 -0.05867,0.132 -0.564967,0.49441 -1.125114,0.80536 -1.125104,0.62457 -8.782922,1.38142 -11.209645,1.10789 -0.882934,-0.0995 -1.289094,-0.0381 -1.157421,0.17491 0.133383,0.21582 2.042788,0.26214 5.57482,0.13524 4.922742,-0.17685 5.507372,-0.26161 6.991324,-1.01359 z m -4.765849,-7.84863 c 1.724419,-0.47905 2.281293,-1.02223 2.315715,-2.25875 0.03098,-1.1131 -1.072186,-3.27736 -1.308768,-2.56761 -0.07007,0.21022 0.103373,0.63722 0.385434,0.94889 0.28206,0.31168 0.512838,1.01965 0.512838,1.57327 0,0.80625 -0.201395,1.11073 -1.011888,1.52985 -1.2788,0.66129 -4.319024,0.93852 -5.452784,0.49722 -1.026816,-0.39967 -1.972234,-2.06279 -1.771008,-3.11543 0.07877,-0.41209 0.02003,-0.67311 -0.130547,-0.58005 -0.845728,0.52269 0.215376,3.48134 1.422982,3.96766 0.958797,0.38612 3.656416,0.38877 5.038026,0.005 z"
         id="path1576" />
      <path
         style="display:inline;fill:#098e3d;stroke-width:0.32"
         d="M 64.298435,100.10286 C 63.96911,99.706053 63.442759,98.740269 63.741351,98.262144 63.950762,97.926823 64.64,97.726483 64.64,97.47935 c 0,-0.256716 -0.313773,-0.90621 0.280413,-1.008949 0.572,-0.0989 2.248487,-0.518951 2.839342,-0.638048 0.907641,-0.182948 1.220191,0.534571 1.826875,1.240613 0.394938,0.45962 1.363938,0.742228 1.478146,0.62802 0.490486,-0.490487 -0.214227,0.618005 -0.774432,1.290018 -1.093152,1.311326 -5.137138,2.141796 -5.991909,1.111856 z m -0.742246,-2.241414 c 0.09242,-0.149536 0.302083,-0.18904 0.465923,-0.08778 0.418682,0.258759 0.371539,0.359667 -0.168035,0.359667 -0.256259,0 -0.390307,-0.122348 -0.297888,-0.271887 z M 97.712746,97.282141 C 96.692496,96.870496 96.095398,96.492459 96.72393,95.797944 97.032448,95.457032 97.587242,95.04 97.450413,95.04 c -0.136826,0 -0.08623,-0.195856 0.112438,-0.435235 0.198666,-0.239383 0.697571,-0.370938 1.108675,-0.292352 0.42513,0.08127 1.000905,-0.559404 1.289638,-0.848136 0.955666,-0.95567 3.882206,-0.226443 3.882206,0.930591 0,0.924345 -2.00062,3.132874 -4.920109,3.184847 -0.287963,0.0051 -0.832525,-0.145062 -1.210515,-0.297574 z M 95.52,95.36 C 95.411226,95.184 95.474726,95.04 95.661114,95.04 95.847501,95.04 96,95.184 96,95.36 c 0,0.176 -0.0635,0.32 -0.141114,0.32 -0.07761,0 -0.230112,-0.144 -0.338886,-0.32 z"
         id="path1570" />
      <path
         style="display:inline;fill:#2b6644;stroke-width:0.32"
         d="m 64.720704,100.8 c 0.07118,-0.264 0.478147,-0.51792 0.904362,-0.56428 3.046387,-0.331294 3.549555,-0.482558 4.301011,-1.292968 0.515929,-0.55641 0.786048,-0.689283 0.77143,-0.379482 -0.03387,0.717978 -0.451753,1.65042 -0.715328,1.59615 -0.494025,-0.1017 -2.142179,0.38454 -2.142179,0.63199 0,0.14331 -0.599754,0.1258 -1.332787,-0.0389 -1.002803,-0.22531 -1.404979,-0.19708 -1.624362,0.11402 -0.224214,0.31795 -0.261673,0.30258 -0.162147,-0.0665 z m -1.055373,-1.307408 c -0.196451,-0.367072 -0.296909,-0.72768 -0.223238,-0.80135 0.07367,-0.07367 0.298249,0.226662 0.499065,0.667404 0.440983,0.967854 0.226269,1.072124 -0.275827,0.133946 z M 99.68,97.6 c 0.108774,-0.176 0.261274,-0.32 0.33889,-0.32 0.0776,0 0.14111,0.144 0.14111,0.32 0,0.176 -0.1525,0.32 -0.338886,0.32 -0.186388,0 -0.249888,-0.144 -0.141114,-0.32 z M 62.447946,96.437322 c -0.03968,-1.094576 0.0675,-1.352868 0.62151,-1.497744 0.60777,-0.158935 0.624979,-0.125517 0.186771,0.362678 C 62.990752,95.598016 62.711072,96.272 62.63472,96.8 62.520477,97.590006 62.487402,97.525782 62.447946,96.437322 Z M 71.2,97.28 c 0.108774,-0.176 0.261274,-0.32 0.338886,-0.32 0.07761,0 0.141114,0.144 0.141114,0.32 0,0.176 -0.152499,0.32 -0.338886,0.32 -0.186388,0 -0.249888,-0.144 -0.141114,-0.32 z m 29.28,0.02157 c 0,-0.187866 0.1936,-0.341568 0.43023,-0.341568 1.27888,0 3.0725,-2.775261 3.08495,-4.773334 0.009,-1.375616 0.33776,-0.486557 0.43756,1.181728 0.0863,1.442179 0.0135,1.657177 -0.66599,1.966755 -0.41956,0.191165 -0.67422,0.49096 -0.56591,0.666211 0.10831,0.175251 0.0547,0.31864 -0.1191,0.31864 -0.17381,0 -0.51303,0.197002 -0.75381,0.437782 -0.60497,0.604973 -1.84793,0.970733 -1.84793,0.543783 z m -5.16455,-0.65092 c -0.986804,-0.82209 -0.26513,-0.830029 1.076816,-0.01184 0.88568,0.54 0.941852,0.638988 0.363184,0.64 -0.3765,6.4e-4 -1.0245,-0.282013 -1.44,-0.628157 z M 65.123226,96.63478 c 0.110547,-0.178871 0.335046,-0.242375 0.498886,-0.141114 0.443853,0.274314 0.361091,0.466333 -0.200998,0.466333 -0.274388,0 -0.408436,-0.146349 -0.297888,-0.325219 z M 71.68,96.46585 c 0,-0.03712 0.216,-0.246749 0.48,-0.46585 0.389283,-0.323075 0.48,-0.31032 0.48,0.06749 0,0.256217 -0.216,0.465849 -0.48,0.465849 -0.264,0 -0.48,-0.03037 -0.48,-0.06748 z M 94.105824,95.84 c 0.04354,-0.176 -0.03002,-0.707814 -0.163459,-1.181811 -0.298515,-1.060375 0.08452,-1.873536 0.517817,-1.099283 0.160391,0.286601 0.608464,0.535449 0.995719,0.552992 0.650233,0.02947 0.642896,0.04899 -0.0959,0.25528 -0.44,0.12286 -0.801837,0.458345 -0.80408,0.745516 -0.0022,0.287175 -0.122246,0.640298 -0.266669,0.78472 C 94.144829,96.041837 94.062288,96.016 94.105824,95.84 Z m 0.440509,-1.417888 c 0.101261,-0.16384 0.06176,-0.373504 -0.08778,-0.465923 -0.14954,-0.09242 -0.271888,0.04163 -0.271888,0.297888 0,0.539574 0.100908,0.586717 0.359668,0.168035 z m -27.80576,0.39169 c -0.173658,-0.456064 -0.136903,-0.49282 0.179136,-0.179136 0.218694,0.217068 0.317014,0.475276 0.218489,0.573801 -0.09852,0.09852 -0.277456,-0.07908 -0.397625,-0.394665 z M 71.52,94.72 c -0.318557,-0.352 -0.45735,-0.64 -0.308435,-0.64 0.148918,0 -0.0088,-0.218339 -0.350403,-0.4852 -0.575997,-0.44992 -0.557175,-0.457821 0.258838,-0.108637 0.484,0.207114 0.88,0.629453 0.88,0.938535 0,0.309084 0.18,0.634601 0.4,0.723372 0.230896,0.09317 0.251862,0.172084 0.0496,0.186666 C 72.256874,95.34863 71.838557,95.072 71.52,94.72 Z m -8.032,-1.780669 c 0,-0.460521 0.186208,-0.779331 0.455181,-0.779331 0.344509,0 0.368525,0.104416 0.09878,0.429443 -0.196022,0.236192 -0.276073,0.509773 -0.177891,0.607955 0.09818,0.09818 0.05373,0.255632 -0.09878,0.349888 -0.152509,0.09426 -0.27729,-0.179321 -0.27729,-0.607955 z m 1.454464,-0.889795 c 0.156099,-0.156099 1.303226,-0.137373 2.627306,0.04289 l 2.35023,0.319961 -2.627306,-0.04289 c -1.480179,-0.02416 -2.506329,-0.163866 -2.35023,-0.319965 z m 29.70344,0.05656 c 0.185952,-0.185952 0.526982,-0.275133 0.757843,-0.198179 0.239664,0.07989 0.09461,0.224941 -0.338096,0.338096 -0.532272,0.13919 -0.657209,0.09754 -0.419747,-0.139917 z M 95.68,91.52 c -0.386166,-0.249562 -0.335558,-0.311158 0.258886,-0.315101 0.412023,-0.0029 0.651396,0.136659 0.541114,0.315101 -0.237821,0.3848 -0.204563,0.3848 -0.8,0 z m 7.82684,-0.66129 c -0.11601,-0.187708 -0.12451,-0.427708 -0.0189,-0.533334 0.10563,-0.105622 0.19205,-0.01555 0.19205,0.200176 0,0.215722 0.144,0.303222 0.32,0.194448 0.176,-0.108774 0.32,-0.04527 0.32,0.141114 0,0.439379 -0.54111,0.437779 -0.81316,-0.0026 z m 0.38649,-0.832044 c -0.11733,-0.117332 -0.21333,-0.362132 -0.21333,-0.544 0,-0.200512 0.14905,-0.18162 0.37867,0.048 0.20826,0.208268 0.30426,0.453068 0.21333,0.544 -0.0909,0.09093 -0.26133,0.06933 -0.37867,-0.048 z M 102.4,89.269958 c 0,-0.170476 0.216,-0.309958 0.48,-0.309958 0.264,0 0.48,0.0566 0.48,0.125763 0,0.06917 -0.216,0.20865 -0.48,0.309959 -0.264,0.101305 -0.48,0.04471 -0.48,-0.125764 z M 101.12,88.96 c 0,-0.176 0.2245,-0.32 0.49889,-0.32 0.27438,0 0.40988,0.144 0.30111,0.32 -0.10877,0.176 -0.33327,0.32 -0.49889,0.32 -0.16561,0 -0.30111,-0.144 -0.30111,-0.32 z"
         id="path1572" />
      <path
         id="path1564"
         style="display:inline;fill:#6d1414;stroke-width:0.32"
         d="m 108.8418,36.460938 c -0.924,0.129475 -1.78359,0.508313 -2.30664,0.564453 -0.52306,0.05614 -1.29578,0.289709 -1.35938,0.480468 -0.0636,0.190829 -0.34292,0.216797 -0.8164,0.216797 -0.47417,0 -1.18987,0.144268 -1.55274,0.398438 -0.36288,0.254099 -2.07984,0.820987 -3.457031,1.18164 -1.249237,0.327243 -2.120934,0.705543 -2.519531,0.97461 0.02398,-0.02985 0.04252,-0.05229 0.06641,-0.08203 -0.269729,0.118147 -0.54068,0.235147 -0.8125,0.347657 -0.09077,0.03757 -0.312231,0.118924 -0.460937,0.177734 -0.02908,0.309587 -0.279485,0.650713 -0.820313,0.867188 -0.732703,0.293236 -1.464691,0.589192 -2.197265,0.882812 -0.484018,0.19398 -0.958997,0.392134 -1.449219,0.570313 -0.226902,0.08247 -0.455158,0.156255 -0.683594,0.234375 -0.348159,0.112859 -0.940053,0.30766 -1.298828,0.410156 -0.621291,0.177512 -1.257484,0.303445 -1.894531,0.408203 -0.51354,0.07252 -1.025947,0.13767 -1.544922,0.15625 -0.223534,0.008 -0.687217,0.0119 -0.910156,-0.04102 -0.0026,-6.24e-4 -0.0052,-0.0013 -0.0078,-0.002 -0.05349,0.07417 -0.113217,0.145325 -0.15625,0.22461 -0.314688,-0.0019 -0.565801,-0.01711 -0.824218,-0.002 -0.792,0.05701 -1.917849,0.120141 -2.738282,0.138671 -12.439362,0.312272 -0.987891,0.882285 -2.242187,0.306641 -1.580092,-0.95609 -4.171184,-1.460307 -6.1875,-0.818359 -2.198004,0.825531 -4.935745,0.563459 -7.435547,0.146484 -1.957187,0.153767 -4.307477,-0.712777 -6.511719,-0.914063 -2.479278,-0.115942 -6.007419,0.839252 -8.902344,1.169922 -1.252461,0.595551 -2.387403,2.043317 -4.130859,2.097657 -2.066005,1.51716 -4.827967,3.422266 -7.037109,5.097656 -2.09794,2.980868 -5.498836,5.89865 -6.986329,9.6875 -1.178141,1.886966 -2.943296,5.048467 -3.808593,7.521484 -0.71657,2.821322 -1.549254,6.141143 -1.792969,9.283203 -0.166504,1.28312 -0.626842,3.964312 -0.824219,6.076172 -0.366827,3.92565 -0.971616,8.859308 -1.507812,11.267578 -0.490436,2.202506 -0.67546,6.908792 -0.63086,9.337882 -0.477314,4.68295 -0.728821,9.61638 -0.455078,14.3711 -0.211485,4.03184 -0.361858,6.90212 2.695313,12.57422 0,0.40681 0.408184,1.25781 0.548828,1.25781 0.357723,0 0.992187,-2.50142 0.992187,-3.54687 0,-0.47851 1.073538,-1.07944 1.396485,-1.73243 0.907946,-2.07113 0.291447,-4.7325 2.289062,-6.02343 0.131037,-0.27684 0.339497,-0.40665 0.46875,-0.66797 -1.713326,3.18582 -3.514072,6.64554 -3.951172,10.35351 -0.0077,0.84998 -0.317364,2.05772 -0.451172,2.76172 -0.295807,1.5567 0.152474,8.74223 0.59375,9.51563 0.85102,3.38338 2.989983,7.90163 5.44336,10.59375 0.102543,0.10254 0.18869,-2.43462 0.19059,-5.10446 0.0033,-4.32825 0.109899,-5.26224 0.990235,-8.87758 1.342321,-5.51352 1.640574,-6.27557 2.537489,-8.85742 0.867187,-2.63303 1.444111,-4.756 2.6611,-6.92245 1.208961,-2.11607 2.774813,-4.97398 4.544543,-6.25327 0.785311,-1.22044 2.4074,-1.88973 3.554058,-2.46258 3.597091,-1.77792 3.658014,-1.86145 3.625694,-7.63679 -0.211849,-3.49931 0.825588,-5.9061 1.679687,-8.850544 0.251542,-1.6854 1.029325,-3.233924 1.468557,-4.708734 0.786646,-1.373875 1.102314,-2.477694 0.530269,-0.615235 -0.252739,2.015194 -1.106147,3.430013 -1.791015,5.303711 -1.201638,2.385982 -1.828189,5.124812 -1.828125,8.236322 3.8e-5,1.7475 0.239742,3.78752 0.442382,4.41602 0.51185,1.58695 1.505716,4.0258 1.795294,4.0258 1.99048,2.92868 4.845635,6.47961 7.586067,8.51978 2.201933,1.94071 5.35498,4.48527 7.880358,5.9399 0.354157,0.0141 0.270105,-3.84026 -0.202237,-4.77685 -0.605348,-2.61119 -1.684572,-4.50316 -2.221712,-6.97914 -1.346748,-3.47482 -1.653669,-3.97173 -2.114137,-4.66601 -1.089176,-2.71563 -1.99743,-5.43272 -2.110351,-7.83789 -0.179574,-4.07796 -0.229945,-4.5103 -1.289063,-5.64356 C 59.871897,98.677966 59.3854,97.3834 58.333021,95.896388 58.224246,95.209402 57.8034,94.172627 57.387708,93.782131 c -1.00915,-0.948212 -1.067063,-0.740235 0.08691,-0.740235 1.603068,-0.915839 3.224894,-3.550383 3.474609,-5.230469 2.809071,-8.515724 3.10518,-12.661656 8.39547,-12.977024 0.623515,0.818837 1.875142,1.005344 2.211954,1.005344 0.219687,0 0.335204,0.449766 0.433594,0.759766 1.509526,1.514984 3.294342,2.843134 5.58789,2.912109 0.926509,-1.027164 2.372016,-1.235291 3.308594,-2.117187 0.695244,-0.654723 1.50761,-1.345607 1.657216,-1.345607 0.466419,-2.123841 -0.07219,-4.873383 -1.069336,-6.835938 -0.557923,-2.231054 -1.885966,-3.729406 -2.902343,-5.392577 0.361743,-0.450263 -0.397875,-0.612239 -0.03613,-1.062501 0.740114,1.87326 1.953164,3.741518 3.09082,5.521485 0.483123,1.488619 0.526318,3.683644 2.15332,4.111328 0.311833,0 0.358037,-4.204465 0.04102,-4.400391 -0.409697,-2.521383 -2.731161,-7.300547 -2.659176,-8.066406 1.80667,2.51583 2.061754,7.524775 3.776369,7.728516 1.622543,0.103066 1.495397,-2.753163 2.145507,-4.132813 0.818928,-1.739345 1.370185,-1.847458 2.654297,-2.30957 0.599056,-0.215597 0.764707,-0.27447 1.30664,0.03711 0.253611,0.145725 0.656752,-0.01104 0.894532,0.120117 -0.898673,0.232957 -1.580904,0.0016 -2.568359,0.210937 -1.142921,0.437404 -1.320341,1.929901 -2.185547,2.900391 -1.168379,2.073248 -2.568429,5.374843 -2.947266,8.691406 0.08698,0.592529 0.481512,1.8086 0.773438,1.90039 1.223194,0.384905 2.018983,0.446784 2.808593,1.322266 0.860951,0.93731 3.183711,1.394781 4.546876,0.740234 0.444269,-0.973491 1.476408,-1.111646 2.351562,-2.226562 0.830712,-1.537396 -1.141556,-2.389352 0.380859,-0.888672 1.542006,2.103941 2.967339,3.747206 4.638672,5.949219 0,0.465603 4.387487,4.265611 5.087897,4.441406 0.98919,0.248269 0.46686,0.311289 -0.44922,0.550781 -0.35203,0.09205 -0.4444,0.581888 -0.4414,0.69336 0.0173,0.714704 1.46914,1.669779 3.55859,1.927734 1.81649,0.224256 1.62318,-2.14e-4 2.06444,0.535156 0.49615,0.602016 0.54592,0.403367 0.15431,0.794922 -0.39164,0.391626 -0.3414,0.263625 -1.4707,-0.3125 -0.71959,-0.36704 -1.29407,-1.25 -1.55469,-1.25 -0.74856,0 -1.26575,1.632688 -0.70703,2.25 0.28124,0.310768 0.38086,0.714108 0.38086,0.97461 0,0.260433 0.44652,0.891546 0.67578,1.205078 0.37899,0.518239 0.8452,0.783013 1.22851,0.320312 0.7328,-0.882903 0.1747,-0.948232 0.0996,0.681641 -0.0733,1.606986 1.09112,2.970703 1.90625,2.970703 0.2384,0 0.42778,0.168344 0.73829,0.652344 0.31052,0.48393 1.06273,1.503777 1.98828,2.423828 0.92554,0.920052 2.2099,1.750838 2.2207,1.886718 0.0108,0.13588 0.12566,0.90559 0.84961,1.43359 0.72394,0.528 1.39277,1.19857 1.56445,1.72657 0.17169,0.528 0.33748,1.03114 0.44531,1.11914 0.0715,0.058 0.16237,0.72298 0.28126,1.06054 l -0.83008,-1.14843 -0.94727,1.4375 c -0.86281,1.30925 -3.04111,4.1096 -4.47265,5.2539 -0.65054,0.51976 -1.36637,1.20316 -1.55274,1.59766 -0.18636,0.3945 -1.10877,1.11411 -1.81055,1.59961 -1.2492,0.86421 -0.92776,2.16561 -0.29101,2.82226 0.7772,0.80235 0.80183,10.74648 0.26953,18.72071 -0.20695,3.09992 -0.21513,4.30624 0.11719,5.28125 0.23679,0.69471 0.64937,1.93717 0.60937,2.20117 -0.11263,0.74362 1.552,-1.34282 2.60742,-3.13086 -1.50974,2.89285 -4.21788,7.22339 -6.89453,10.32617 -2.01396,2.24938 -3.05954,4.34691 -5.244146,6.56445 -0.308,0.29072 -0.789063,0.95408 -0.789063,1.27735 0,0.69437 0.637941,0.9161 4.187499,-1.65039 4.42518,-3.19702 9.0859,-6.36499 14.13086,-9.57813 -0.27772,0.16627 -0.47098,0.47369 -0.70703,0.58203 -0.66,0.30294 -1.37905,1.15936 -1.37305,1.3711 0.74635,1.30691 2.06638,2.07454 3.58984,3.36914 0.87343,1.12967 2.63157,1.29185 4.1836,2.03906 2.17317,1.02394 4.85741,2.52835 6.45703,4.86914 0.63899,1.39905 1.49894,4.15084 2.13281,4.05274 0.3602,0 1.55596,-1.15467 2.26758,-2.67188 0.94762,-2.04873 0.39548,-5.47774 0.48828,-8.08984 -0.81209,-3.67899 -2.10873,-7.23482 -2.76172,-10.23828 -0.1664,-1.4716 0.23888,-4.89844 0.69141,-4.89844 0.52439,-1.36382 1.00178,-2.87957 2.20508,-4.36524 1.50515,-2.36039 1.88034,-6.38826 0.73633,-9.08593 -0.88628,-2.05662 -0.82273,-2.10801 1.49804,-1.91797 1.7034,0.3428 9.00332,5.35934 13.67969,8.14258 0.4879,0.73011 0.99797,0.7854 1.14062,-0.30274 -1.06603,-4.53508 -5.47822,-8.56523 -8.58397,-10.79883 -0.63053,-0.52522 -2.43326,-1.45116 -3.86719,-2.0039 -1.43393,-0.55274 -2.62886,-1.13491 -2.79492,-1.43164 -0.4063,-0.72603 -0.0291,-1.11682 0.85352,-1.45703 0.70373,-0.27123 0.52299,-0.65437 -0.0957,-0.89063 -0.89383,-0.69921 0.43573,-0.0607 3.90235,0.99805 1.14302,0.3284 1.73785,0.25898 3.68372,-0.34324 2.22263,-0.6879 2.42738,-0.85147 2.91872,-2.35295 0.61774,-1.88863 0.67623,-3.27573 0.24805,-5.65304 -0.52688,-2.92528 -1.5819,-4.8243 -3.40764,-5.80363 -1.6294,-0.874017 -2.5304,-0.69835 -1.96939,0.46467 0.779,0.92268 2.0451,2.20768 2.49963,3.21843 0.33215,0.704 0.81317,1.75474 0.96327,2.06036 0.4434,0.90276 0.34713,2.5377 -0.22525,3.50667 -1.57347,1.81496 -2.83123,1.20604 -4.68572,1.17754 -2.31552,-0.7886 -2.97662,-1.94833 -4.85824,-3.88809 0,-0.20585 -0.14398,-0.79995 -0.43864,-0.96485 -0.76451,-0.42785 -1.41864,-2.67019 -1.60547,-5.91992 -0.14266,-2.481122 -0.588,-2.800781 -1.12695,-2.800781 -0.55142,0 -0.0563,-0.65102 -0.11914,-2.703125 0.002,-2.668827 0.53207,-6.203709 1.30273,-7.185546 0.16475,-0.209728 0.6551,-0.911454 0.77344,-1.439454 0.11836,-0.52793 -0.10384,-1.423172 0.13867,-1.951172 1.10774,-2.411553 1.84812,-3.474027 1.62305,-9.248046 -0.4767,-12.229118 -0.65593,-12.422118 -2.39844,-15.839844 -0.85239,-1.67186 -1.66794,-3.433047 -1.89062,-3.873047 -0.22268,-0.44 -0.44665,-1.075476 -0.57617,-1.691406 -0.24452,-1.162887 -1.29519,-3.182727 -1.69922,-3.460938 -0.1278,-0.088 -0.17678,-0.656588 -0.54492,-1.382812 -0.36815,-0.726292 -0.98827,-1.503239 -1.25977,-1.607422 -0.2715,-0.104182 -0.55859,-0.322007 -0.55859,-0.5625 0,-0.642881 -5.86983,-5.307848 -8.14258,-6.447266 -1.07785,-0.540334 -1.68853,-0.779791 -1.79102,-1.046875 -0.27407,-0.714138 -2.2878,-1.604274 -4.72461,-1.865234 -1.18108,-0.126483 -2.18164,-0.05763 -2.18164,-0.244141 0,-0.225654 -1.07932,-0.746583 -2.19726,-0.589843 z M 77.349609,54.880859 c -0.155054,0.220931 -0.30641,0.443798 -0.46289,0.664063 -0.506603,-0.496129 -1.105883,-1.533867 -1.203626,-1.793162 -0.136112,-0.361082 -0.703216,-0.136183 -1.111585,0.416774 -0.622086,0.842134 -2.239126,1.151943 -3.214022,0.672125 -0.381885,-0.187901 -1.205819,-0.450024 -1.768587,-0.560232 -0.84088,-0.164682 -1.582642,0.01478 -2.169865,0.690147 -0.392809,0.451944 -0.818139,0.770476 -1.050402,0.770476 -0.262509,0 -0.318295,0.683925 -0.318295,1.32668 0,0.949953 -1.364551,4.025564 -1.820756,4.398559 -0.659319,0.539047 -1.556435,4.312329 -1.402214,5.404425 -0.529294,1.647222 -1.458021,3.20839 -2.281065,4.622289 -1.853285,3.518798 -3.051304,6.993755 -3.344154,10.465005 -0.07231,0.930259 0.239435,0.759076 0.170899,1.485351 -0.289378,0.365344 -0.505809,0.76639 -0.792969,1.132813 1.456169,-3.349452 1.060988,-7.637667 2.489798,-10.185798 0.68762,-2.934877 2.801014,-4.921447 3.282259,-7.591482 0.805347,-1.904576 0.801487,-2.892205 1.305947,-4.532573 1.306494,-2.050579 1.489676,-3.803115 2.096897,-5.384007 0.47009,0 0.511976,-1.35586 0.04076,-1.36776 -0.561949,-0.01421 1.169574,-1.227314 1.748297,-1.227314 0.260378,0 0.77264,-0.167418 1.180317,-0.434538 0.661674,-0.433519 0.496603,-0.58591 1.324655,-0.15737 0.510061,0.266035 1.525789,0.692528 1.8573,0.693488 1.125786,0.0037 3.112652,-0.943849 3.112652,-1.375129 0.140322,-0.430517 1.742728,1.148518 2.330649,1.86717 z m 17.109375,5.91211 c 0.447643,-0.261114 0.875469,0.325584 1.333985,0.257812 -0.793139,0.067 -1.285985,0.324483 -2.12207,0.520508 0.393928,-0.144389 0.274144,-0.462115 0.788085,-0.77832 z m 5.363282,1.035156 c 0.394194,0.217303 0.862664,0.01106 1.230464,0.236328 0.96953,0.171818 5.35016,4.736428 6.47071,6.785156 2.42319,4.074047 6.43245,8.712317 8.79101,12.638672 0,0.246438 0.45649,1.037708 0.89649,1.560547 0.37767,0.448545 0.37259,0.832805 0.38086,1.023438 -0.49259,-0.740105 -1.41248,-2.006888 -1.6211,-2.400391 -0.27311,-0.515092 -0.96162,-1.497061 -1.36914,-1.943359 -0.91753,-1.004922 -2.11523,-2.511152 -2.11523,-2.789063 0,-0.113795 -0.29776,-1.011738 -0.74219,-1.361328 -2.12543,-2.490744 -3.67961,-5.259625 -5.72266,-8.207031 0,-0.510254 -5.30841,-5.187538 -6.199214,-5.542969 z m 0.658204,21.935547 c 0,-0.487923 -4.231924,-0.04935 -8.101564,0.935547 -1.43019,0.363949 -5.156791,2.370255 -5.888672,3.083984 -0.214669,0.209449 -1.017828,0.56586 -0.410156,1.396485 0.578575,0.790688 0.934426,1.112874 2.029297,0.07227 0.493066,-0.468718 0.79525,-1.250864 0.53125,-1.121094 -0.264,0.12984 -0.201014,0.0095 0.140625,-0.267578 0.341638,-0.276983 0.774865,-0.503906 0.962891,-0.503906 0.187955,0 0.525907,-0.293515 0.75,-0.652344 0.224023,-0.358759 0.530129,-0.576805 0.679687,-0.484375 0.149559,0.09243 0.612612,-0.09437 1.029297,-0.416015 0.935415,-0.722118 3.11587,-1.018708 6.109375,-1.296875 1.255617,-0.116704 2.16797,-0.57908 2.16797,-0.746094 z m 17.56055,0.974609 c 0.49681,0.742898 1.89639,2.54656 2.14453,2.751953 0.0897,0.0743 0.0948,0.541121 0.24804,1.029297 -0.11394,-0.331458 -0.39843,-0.868692 -0.81836,-1.449219 -0.8835,-1.222228 -1.01149,-1.509321 -1.57421,-2.332031 z m -43.494145,2.44336 c -1.036039,-0.02197 -1.831799,0.368291 -1.974609,0.388671 -3.425966,0.490444 0.815785,1.390626 1.429687,1.390626 0.318406,0 0.660414,0.214515 0.761719,0.478515 0.101309,0.264 0.369364,0.480469 0.595703,0.480469 0.226339,0 0.482017,0.183198 0.568359,0.408203 0.08634,0.225001 0.462094,0.433007 0.833985,0.460937 1.005232,0.07573 1.40038,-1.52973 0.582031,-2.623046 -0.556352,-0.743366 -1.153652,-0.949525 -2.796875,-0.984375 z m 46.013675,1.634765 c 0.33983,0.634194 1.31858,1.688545 1.75,2.324219 0.4513,0.664954 0.625,1.219467 0.625,1.310547 0,0.09108 0.41812,1.011267 0.88867,2.005859 0.0989,0.208979 0.0716,0.50366 0.1543,0.689453 -0.55097,-1.487015 -1.18864,-3.185547 -1.34766,-3.185546 -0.1075,0 -0.32132,-0.263362 -0.75195,-1.140626 -0.43063,-0.877194 -1.50668,-1.532256 -1.63868,-1.535156 -0.12318,-0.0026 0.26552,-0.245225 0.32032,-0.46875 z m -59.753909,2.93457 c -0.619597,0 -2.243165,1.667289 -2.243165,2.198243 0,0.210439 0.433139,1.285426 0.84375,2.05957 0.410682,0.774145 0.846125,2.022906 0.966797,2.506836 0.245725,0.985568 1.480469,1.000607 1.480469,0.101563 0,-0.320054 -0.237993,-1.300539 -0.499023,-2.179688 -0.334868,-1.127546 -0.436715,-1.678316 -0.230469,-2.397461 0.24186,-0.843242 0.105542,-2.289063 -0.318359,-2.289063 z m 63.724609,5.862305 c 0.0951,0.585195 0.34936,0.78606 0.39258,1.757813 0.0807,1.814406 0.33747,3.440756 0.49023,3.535156 0.0737,0.0456 -0.003,0.24616 -0.0391,0.38281 -0.0457,-0.20159 -0.11558,-0.5215 -0.17578,-0.63086 -0.17394,-0.31597 -0.51994,-1.58974 -0.49024,-2.869138 0.0179,-0.769477 -0.1025,-1.428241 -0.17773,-2.175781 z m 0.99023,6.197269 c 0.21732,0.25665 0.72528,0.50976 0.86329,0.50976 0.16802,0 0.01,0.52706 0.12304,1.13086 0.11294,0.602 0.21195,1.26544 0.45703,1.36328 -0.33722,-0.48272 -0.63795,-0.81069 -1.25586,-2.33398 -0.10498,-0.25882 -0.12804,-0.41361 -0.1875,-0.66992 z m 1.44727,3.00976 c 0.24685,0.0952 0.64258,0.32507 0.64258,0.59375 0,0.26952 0.0932,0.50506 0.18945,0.65235 0.40299,0.61618 0.0937,0.14461 0.0937,0.63671 0,0.4928 0.44804,1.11797 0.63867,1.3086 0.0236,0.0236 -0.0619,0.30349 -0.041,0.33594 -0.1766,-0.44775 -0.37512,-0.87969 -0.44922,-1.27539 -0.1236,-0.66 -0.48193,-1.22793 -0.57813,-1.33008 -0.10355,-0.10998 -0.36311,-0.7319 -0.49609,-0.92188 z m -8.14648,0.98438 c 0.13358,0.59827 0.37109,1.09823 0.37109,1.40429 0,0.15907 -0.22739,0.53384 -0.24805,0.7129 0.16534,-0.9741 0.004,-1.54961 -0.12304,-2.11719 z m -68.261235,5.83447 c -1.307946,1.50164 -2.975668,2.40411 -4.479492,3.24072 -1.845444,1.03003 -2.677981,1.7745 -4.325684,3.94581 -1.424402,2.05477 -2.471675,3.98071 -3.436523,6.01903 -0.529035,2.08094 -1.294564,3.76222 -2.01416,5.57423 -0.818894,2.41212 -0.931371,3.86079 -1.629884,6.15527 -0.739374,1.7266 -1.515332,8.4155 -1.439452,11.69726 l 0.145999,2.7505 0.875,0.061 c 1.697538,0.0219 2.91345,4.68683 4.246093,7.43555 0.523264,1.40542 6.192805,7.09717 7.030763,7.09717 1.827141,0.52379 3.310539,2.92454 4.815917,3.22558 1.031905,0 1.67334,-0.30558 1.67334,-0.83594 -1.462451,-2.84894 -1.267126,-5.82768 -1.278808,-8.2456 -0.01194,-4.69002 0.453321,-5.76122 1.100586,-8.70117 0.733779,-1.74014 1.52272,-5.62204 3.787109,-7.07032 2.011671,-1.68227 4.327484,-3.14066 5.899414,-4.42285 0.625661,-0.58225 1.119967,-1.63604 1.828068,-2.28481 1.587897,-1.96521 1.474244,-4.12564 2.075099,-6.57095 0.896234,-3.62664 0.772104,-3.77104 -0.462326,-4.8944 -4.033098,-2.77411 -6.582849,-4.62282 -9.623677,-7.79291 -0.365044,-0.36147 -0.650779,-0.76544 -0.761653,-1.06696 -0.865869,-1.0284 -2.98464,-6.57795 -4.025729,-5.31624 z m 66.675295,1.18311 c -0.19614,0.42016 -0.14764,0.61438 -0.36914,1.05664 -0.77302,1.54275 -1.43618,3.38964 -1.63086,4.18164 -0.13434,0.54655 -0.41162,1.0126 -0.64844,1.47851 0.0988,-0.5023 4.3e-4,-1.77616 0.15625,-2.14062 0.85748,-2.00566 1.76843,-3.32036 2.49219,-4.57617 z m 10.23633,4.01562 c -0.13861,0.54188 0.0205,0.6366 -0.14258,1.18359 -0.42386,1.76784 -1.05462,3.31036 -1.5625,4.87696 0.64363,-1.9777 1.23994,-4.01677 1.70508,-6.06055 z m -13.34375,8.9707 c -0.0187,0.9142 -0.0228,1.06965 -0.0606,2.06446 -0.0623,1.60575 -0.2513,7.66132 -1.46289,9.99609 -0.0301,0.0618 -0.1303,0.18029 -0.16211,0.24414 1.26385,-2.62519 1.52239,-4.6322 1.5293,-10.15234 10e-4,-1.08154 0.14915,-1.22288 0.15625,-2.15235 z m -46.841421,2.48676 c -1.595276,0.14785 -1.906904,6.38128 -1.240994,7.04727 0.577619,0.23583 0.925342,-0.1349 1.212891,-0.49484 0.514288,0 1.21633,-2.04355 1.21913,-3.58411 0.0024,-1.31471 -0.601849,-3.07635 -1.191027,-2.96832 z m 56.255481,5.78668 c -0.10972,1.0738 -0.32811,1.59367 -0.38477,2.63867 -0.1082,1.9029 -0.42515,3.62985 -1.58789,5.50586 -0.0982,0.2583 -0.93431,0.69582 -1.33593,1.10156 1.7344,-2.07472 2.813,-5.4162 3.11718,-8.18164 0.0537,-0.62501 0.13499,-0.48819 0.19141,-1.06445 z" />
      <path
         style="display:inline;fill:#126232;stroke-width:0.32"
         d="m 64.64,100.53751 c -0.264,-0.11963 -0.526653,-0.42947 -0.583674,-0.688531 -0.08663,-0.393584 -0.0077,-0.387296 0.48,0.03824 0.321021,0.280101 0.799674,0.588691 1.063674,0.685761 0.426666,0.15688 0.426666,0.1768 0,0.17927 -0.264,0.002 -0.696,-0.0951 -0.96,-0.21474 z m -0.96,-1.615235 c 0,-0.220025 -0.128912,-0.320374 -0.28647,-0.222998 -0.77906,0.481485 -0.913194,-2.544058 -0.15017,-3.387191 0.612134,-0.6764 0.766506,-1.854595 0.321021,-2.45014 -0.176208,-0.235565 -0.184304,-0.393632 -0.01856,-0.362106 0.667165,0.126893 0.903149,-0.04969 0.454166,-0.33984 -0.386166,-0.249562 -0.335558,-0.311158 0.258887,-0.315101 0.406387,-0.0026 0.671062,0.104839 0.588169,0.238963 -0.0829,0.134125 1.015351,0.285959 2.440547,0.337402 2.272548,0.08204 2.680471,0.189795 3.316551,0.876138 0.398909,0.430428 0.635062,0.782598 0.524787,0.782598 -0.110275,0 0.124867,0.346342 0.522544,0.769648 0.710608,0.756406 0.712982,0.785002 0.138051,1.662458 -0.321744,0.491046 -0.543123,1.139948 -0.491952,1.442006 0.05117,0.302054 -0.05785,0.642445 -0.242272,0.756426 C 70.859926,98.831293 70.72,98.62056 70.72,98.205552 c 0,-0.391722 -0.09344,-0.618774 -0.207651,-0.504566 -0.114208,0.114208 -0.510208,-0.137693 -0.88,-0.55978 -0.790451,-0.90223 -2.126967,-1.153017 -2.867859,-0.538128 -0.386263,0.320567 -0.636132,0.342631 -0.948103,0.08372 -0.497238,-0.41267 -1.170128,0.09612 -1.186563,0.897202 C 64.617632,98.177478 63.68,99.498598 63.68,98.922275 Z m 0.64,-0.876723 c 0,-0.264842 -0.621354,-0.414608 -0.763811,-0.184106 -0.09242,0.14954 0.04163,0.271888 0.297888,0.271888 0.256256,0 0.465923,-0.0395 0.465923,-0.08778 z m 2.170732,-2.514069 c 0.190787,-1.000407 0.343343,-1.05249 -0.597607,-0.435956 -0.689348,0.451677 -0.284745,0.356781 0.03894,0.746797 0.524263,0.631696 0.416692,0.433642 0.558669,-0.310841 z m 29.660471,0.986984 c -0.347161,-0.242841 -0.908013,-0.494841 -1.246333,-0.56 -0.444176,-0.08554 -0.628732,-0.409747 -0.664076,-1.166544 -0.03343,-0.715917 0.05503,-0.944099 0.279129,-0.72 0.453703,0.453703 1.123703,0.410167 1.640471,-0.106601 0.366236,-0.366237 0.362636,-0.573533 -0.02285,-1.31658 -0.53472,-1.030672 -0.567879,-1.234707 -0.159648,-0.982409 0.16384,0.101261 0.388339,0.03776 0.498886,-0.141114 0.110547,-0.17887 0.01251,-0.329798 -0.217888,-0.335395 -0.253261,-0.0061 -0.16583,-0.202006 0.221114,-0.495325 0.352,-0.266832 0.885094,-0.421536 1.184656,-0.343792 0.299561,0.07774 0.587561,0.0311 0.64,-0.103622 0.158134,-0.406301 2.815346,-1.573335 2.815346,-1.23648 0,0.171888 0.288,0.221117 0.64,0.109395 0.35887,-0.113901 0.64,-0.0575 0.64,0.128394 0,0.182336 0.23053,0.243056 0.51229,0.134934 0.54264,-0.20823 1.07791,0.376083 1.07791,1.176672 0,0.426666 -0.0345,0.426666 -0.3102,0 -0.2169,-0.335635 -0.31167,-0.356675 -0.3151,-0.06996 -0.003,0.225526 0.1904,0.484988 0.4291,0.576585 0.32196,0.123549 0.37376,0.495971 0.20065,1.442643 -0.2886,1.578234 -0.41562,1.710471 -1.22621,1.276656 -0.93432,-0.500035 -2.25521,-0.424864 -2.841806,0.161725 -0.288732,0.288733 -0.82998,0.446032 -1.25511,0.364762 -0.411104,-0.07859 -0.91001,0.05297 -1.108675,0.292352 C 97.364192,94.844144 97.313597,95.04 97.450422,95.04 c 0.136829,0 -0.0036,0.278925 -0.312163,0.619837 -0.308521,0.340909 -0.466339,0.772909 -0.35071,0.96 0.280611,0.454038 0.121401,0.428678 -0.636336,-0.10137 z M 96,95.36 c 0,-0.176 -0.152499,-0.32 -0.338886,-0.32 -0.186388,0 -0.249888,0.144 -0.141114,0.32 0.108774,0.176 0.261274,0.32 0.338886,0.32 C 95.936499,95.68 96,95.536 96,95.36 Z m 3.253046,-2.101893 c 0.29626,-0.553568 0.692607,-0.397651 0.06011,-0.393414 -0.961776,0.0064 -0.805956,-0.04476 -0.530202,0.401424 0.356058,0.576112 0.09977,0.683952 0.470097,-0.008 z"
         id="path1566" />
      <path
         style="display:inline;fill:#3d3934;stroke-width:0.32"
         d="m 49.048858,170.8 c -0.170231,-0.22 -0.399341,-0.652 -0.50914,-0.96 -0.109798,-0.308 -0.485606,-0.56 -0.835129,-0.56 -0.349523,0 -0.995498,-0.36 -1.435498,-0.8 -0.44,-0.44 -1.069043,-0.8 -1.397872,-0.8 -0.914758,0 -6.402813,-5.92189 -6.786867,-7.32339 -0.174323,-0.63613 -0.750077,-2.02061 -1.27945,-3.07661 -0.529372,-1.056 -0.963036,-2.16172 -0.963699,-2.45714 -0.0016,-0.71146 -0.860406,-1.54286 -1.593715,-1.54286 -0.52321,0 -0.567933,0.20806 -0.412698,1.92 0.116036,1.27967 0.05768,1.92 -0.174972,1.92 -0.900554,0 -5.332197,-8.28904 -6.244582,-11.68 -0.608029,-2.25979 -1.168902,-6.87111 -1.17261,-9.64082 -0.0018,-1.34999 -0.152153,-2.08491 -0.482626,-2.35918 -0.264,-0.2191 -0.48,-0.63993 -0.48,-0.93518 0,-0.29525 -0.133052,-0.67362 -0.295672,-0.84082 -0.364917,-0.3752 -1.623946,-3.66729 -1.624167,-4.24686 -8.8e-5,-0.23257 -0.216161,-0.63886 -0.480161,-0.90286 -0.670793,-0.67079 -0.757168,-4.85554 -0.362326,-17.55428 0.334281,-10.751018 0.406453,-11.720336 0.970147,-13.029722 0.281698,-0.654348 0.515614,-1.878348 0.519813,-2.72 0.0042,-0.841654 0.143498,-2.106278 0.309554,-2.810278 0.166057,-0.704 0.397845,-2.576 0.515085,-4.16 0.11724,-1.584 0.31837,-3.024 0.446956,-3.2 0.128586,-0.176 0.32691,-1.544 0.44072,-3.04 0.429204,-5.641747 1.519741,-11.04769 2.407786,-11.935734 0.193746,-0.193748 0.352265,-0.545472 0.352265,-0.78161 0,-0.236141 0.432,-1.353334 0.96,-2.482656 0.528,-1.129322 0.96,-2.137395 0.96,-2.240163 0,-0.102765 0.146494,-0.360771 0.325543,-0.573344 0.772438,-0.917059 1.952054,-2.71128 2.472233,-3.760317 0.61959,-1.24951 2.327347,-3.514285 4.462832,-5.918474 C 38.760752,51.06913 43.615827,47.04 44.008154,47.04 c 0.216416,0 0.572745,-0.216 0.791846,-0.48 0.219101,-0.264 0.634864,-0.48 0.92392,-0.48 0.289056,0 1.032934,-0.271939 1.653062,-0.604307 4.172282,-2.236208 11.589812,-3.233354 15.936829,-2.1424 3.286685,0.824845 5.549885,0.909357 9.407639,0.351286 3.563862,-0.515552 3.707462,-0.512784 5.073116,0.0978 2.152119,0.962217 2.198135,0.967846 5.422074,0.663395 4.503734,-0.425312 6.746339,-1.079808 11.34336,-3.310528 4.612979,-2.238464 6.50156,-2.98 10.1476,-3.984355 3.92374,-1.080855 4.91624,-1.123978 8.54806,-0.371389 3.67201,0.760915 4.25331,0.993917 4.94564,1.982352 0.50957,0.72751 1.26401,1.218778 3.1587,2.056845 0.66,0.291936 1.2,0.640019 1.2,0.77352 0,0.133504 0.54,0.610166 1.2,1.059251 1.17425,0.798998 2.34315,1.75784 3.89247,3.192982 1.13193,1.048506 3.2258,3.753978 3.23839,4.184282 0.006,0.204195 0.28908,0.947264 0.62914,1.651264 0.34006,0.704 0.62317,1.480906 0.62914,1.726458 0.006,0.245552 0.68346,1.757552 1.50552,3.36 0.82206,1.602448 1.75133,3.417542 2.06505,4.033542 0.74856,1.469837 1.21696,6.112403 1.51745,15.04 0.18606,5.528189 0.15154,7.274304 -0.14868,7.52 -0.51235,0.419299 -2.16238,4.619974 -2.81431,7.164688 -0.83093,3.243421 -0.486,9.260067 0.77385,13.498304 0.556,1.87046 0.8724,2.3347 2.86143,4.19857 2.20417,2.06547 3.10021,2.49844 5.17055,2.49844 1.29965,0 2.20039,-1.0162 2.19821,-2.48 -0.003,-1.67068 -0.51675,-3.34895 -1.27591,-4.16381 -0.35326,-0.37919 -0.6423,-0.76745 -0.6423,-0.86281 0,-0.0954 -0.288,-0.46138 -0.64,-0.81338 -0.352,-0.352 -0.64,-1 -0.64,-1.44 0,-0.44 -0.14291,-0.8 -0.31756,-0.8 -0.49677,0 -1.92244,-1.348008 -1.92244,-1.817711 0,-0.232259 0.30441,-0.422291 0.67647,-0.422291 0.74357,0 5.14473,2.628972 6.07776,3.630472 0.95382,1.0238 2.20577,5.25315 2.20577,7.45154 0,3.44131 -1.06299,4.98645 -4.23078,6.14978 -1.56274,0.5739 -2.05466,0.62311 -3.36,0.33614 -2.93086,-0.64434 -3.55934,-0.67916 -4.19695,-0.23255 -0.85144,0.59636 -0.30978,1.31459 1.38773,1.8401 4.04948,1.25362 7.97331,4.04335 10.64081,7.56531 2.92553,3.86262 3.97542,6.84303 2.76456,7.84795 -0.51795,0.42986 -0.80963,0.22218 -1.66728,-1.1871 -0.11995,-0.19711 -0.79409,-0.65094 -1.49809,-1.00852 -0.704,-0.35758 -2.28492,-1.38432 -3.51315,-2.28164 -1.22823,-0.89731 -2.39391,-1.63148 -2.5904,-1.63148 -0.19649,0 -0.62064,-0.29103 -0.94254,-0.64673 -0.3219,-0.3557 -1.23291,-1.0757 -2.02446,-1.6 -2.14317,-1.41958 -5.39703,-1.26422 -4.1821,0.19968 0.22134,0.2667 0.44029,0.87239 0.48654,1.34598 0.0463,0.47359 0.17587,1.75039 0.28803,2.83734 0.15419,1.49419 0.0858,2.15768 -0.28039,2.72 -0.26637,0.40905 -0.55357,1.13101 -0.63822,1.60435 -0.0846,0.47334 -0.52502,1.40677 -0.97861,2.07428 -0.45358,0.66752 -0.8247,1.44109 -0.8247,1.71904 0,0.27796 -0.28978,0.81642 -0.64395,1.19658 -1.04856,1.12549 -1.20333,4.08995 -0.34165,6.5437 0.3874,1.10318 0.8356,2.29378 0.99601,2.64578 0.69012,1.51441 1.33308,5.39548 1.48436,8.96 l 0.16298,3.84 -1.02671,1.92 c -0.56469,1.056 -1.23623,2.316 -1.49231,2.8 -0.25608,0.484 -0.58749,0.88 -0.73645,0.88 -0.14896,0 -0.51458,-0.756 -0.81248,-1.68 -0.93942,-2.91376 -1.75747,-4.19329 -3.73377,-5.84 -1.05614,-0.88 -2.11151,-1.78 -2.34528,-2 -0.23377,-0.22 -0.62087,-0.4 -0.86023,-0.4 -0.23936,0 -1.00009,-0.288 -1.69052,-0.64 -0.69043,-0.352 -1.57874,-0.64 -1.97402,-0.64 -0.43781,0 -1.06795,-0.43772 -1.61234,-1.11999 -0.4915,-0.61599 -1.06336,-1.11999 -1.27078,-1.12 -0.20743,-1e-5 -0.56743,-0.1859 -0.8,-0.4131 -0.94904,-0.92714 -1.93912,-1.42705 -2.52356,-1.27422 -0.34062,0.0891 -0.6193,0.28916 -0.6193,0.44463 0,0.15547 -0.108,0.2484 -0.24,0.20651 -0.20192,-0.0641 -3.74601,2.41949 -4.24,2.97124 -0.088,0.0983 -0.736,0.52526 -1.44,0.94882 -0.704,0.42356 -1.784,1.24271 -2.4,1.82034 -0.616,0.57762 -1.2944,1.05147 -1.50755,1.053 -0.21315,0.002 -1.14915,0.615 -2.08,1.36327 -0.93085,0.74828 -2.241487,1.64828 -2.91253,2 -0.671046,0.35173 -1.449363,0.8915 -1.729597,1.1995 -0.601677,0.66129 -1.690323,0.74488 -1.690323,0.12979 0,-0.38154 1.263846,-1.95954 4.197827,-5.24126 0.507193,-0.56731 0.922173,-1.12762 0.922173,-1.24513 0,-0.11752 0.612,-0.81735 1.36,-1.55519 2.61963,-2.58404 6.09672,-6.9606 6.47369,-8.14833 0.11519,-0.36293 0.32694,-0.65988 0.47055,-0.65988 0.52828,0 0.59614,-1.37443 0.15204,-3.07946 -0.56003,-2.15009 -0.40411,-4.29339 -0.3118,-10.92638 0.0582,-4.1851 0.32413,-5.89529 -0.0259,-9.32833 -0.23761,-2.33043 -0.34556,-4.28833 -0.49212,-4.37891 -0.14657,-0.0906 -0.26648,-0.44212 -0.26648,-0.7812 0,-0.44595 -0.74026,0.11876 -2.67564,2.0411 -1.4716,1.4617 -3.3796,3.22111 -4.24,3.90981 -0.8604,0.68869 -2.240462,1.84559 -3.066811,2.57088 -1.465994,1.2867 -4.887242,3.46067 -7.457549,4.73875 -0.962464,0.47858 -1.955408,0.6411 -4.002595,0.65511 -2.444455,0.0167 -2.938829,-0.0876 -4.839267,-1.02137 -1.164173,-0.572 -2.279005,-1.04 -2.477405,-1.04 -0.198403,0 -0.360733,-0.11678 -0.360733,-0.2595 0,-0.14273 -0.687194,-0.43563 -1.527098,-0.65089 -0.8399,-0.21526 -1.9559,-0.78248 -2.48,-1.2605 -0.524096,-0.47801 -1.221884,-0.91532 -1.550643,-0.9718 -0.328755,-0.0565 -0.895907,-0.38049 -1.260339,-0.72 -0.364429,-0.33952 -0.850227,-0.61731 -1.079549,-0.61731 -0.229321,0 -0.596806,-0.288 -0.816633,-0.64 -0.219828,-0.352 -0.56905,-0.64 -0.776045,-0.64 -0.206999,0 -0.442061,-0.18 -0.522365,-0.4 -0.0803,-0.22 -0.09103,0.248 -0.02384,1.04 0.06719,0.792 0.123744,1.74908 0.125667,2.12684 0.0019,0.37776 0.264528,1.91528 0.583568,3.4167 0.575523,2.70844 0.575034,2.73117 -0.06226,2.89782 -0.662032,0.17313 -1.461261,-0.55296 -1.480291,-1.34482 -0.0056,-0.23291 -0.261552,-0.37506 -0.568788,-0.31589 -0.644214,0.12407 -1.28206,2.42514 -1.330668,4.80046 -0.0311,1.51971 0.458883,2.30001 0.947657,1.50916 0.146752,-0.23746 0.366416,-0.33214 0.488144,-0.21042 0.372045,0.37205 -1.756361,2.12921 -2.423446,2.00074 -0.392119,-0.0755 -0.684275,0.1051 -0.809815,0.50064 -0.108006,0.34032 -0.402678,0.61877 -0.654819,0.61877 -0.252137,0 -0.458435,0.288 -0.458435,0.64 0,0.352 -0.180467,0.64 -0.40104,0.64 -0.22057,0 -0.808778,0.432 -1.307123,0.96 -0.498349,0.528 -1.075242,0.96 -1.281987,0.96 -0.206746,0 -0.55576,0.288 -0.775588,0.64 -0.219827,0.352 -0.601084,0.64 -0.847241,0.64 -0.435597,0 -1.960407,1.20979 -3.68985,2.92755 -0.469321,0.46615 -1.056512,1.47415 -1.30487,2.24 -0.248359,0.76585 -0.635338,1.75245 -0.859959,2.19245 -0.22462,0.44 -0.409286,1.0232 -0.410371,1.296 -9.6e-4,0.2728 -0.150105,0.64413 -0.331161,0.82519 -0.440308,0.44031 -0.632084,2.03137 -0.842557,6.99024 -0.181591,4.27841 0.193222,7.16322 1.064585,8.19377 0.234938,0.27786 0.427162,0.88986 0.427162,1.36 0,0.80956 -0.08259,0.8548 -1.560819,0.8548 -0.87025,0 -1.697754,-0.17698 -1.870323,-0.4 z M 51.84,169.92 c 0,-0.352 -0.12504,-0.64 -0.277866,-0.64 -0.51311,0 -1.129215,-2.78257 -1.141522,-7.61728 -0.01194,-4.69002 0.409698,-5.76207 1.056959,-8.70272 0.415565,-1.88798 0.687696,-2.56 1.036666,-2.56 0.157168,0 0.285763,-0.21162 0.285763,-0.47027 0,-0.94121 1.820682,-3.79514 2.514285,-3.94116 0.550934,-0.11598 1.137088,-0.74524 1.263302,-1.35619 0.05367,-0.25981 0.341671,-0.64747 0.64,-0.86146 0.298327,-0.214 0.716336,-0.538 0.928906,-0.72 0.212573,-0.18201 0.574045,-0.33092 0.80327,-0.33092 0.229229,0 0.795827,-0.35148 1.259114,-0.78106 0.463286,-0.42958 0.926425,-0.69697 1.029197,-0.5942 0.102774,0.10277 0.29103,-0.0857 0.418348,-0.41894 0.127316,-0.33319 0.699709,-1.08869 1.271984,-1.67888 0.752599,-0.77616 1.139504,-1.57305 1.398295,-2.88 0.196787,-0.99381 0.571286,-2.67092 0.832221,-3.72692 0.896304,-3.62734 0.909488,-3.44212 -0.325012,-4.56548 -0.62527,-0.56899 -1.290521,-1.03452 -1.478339,-1.03452 -0.412333,0 -2.193654,-1.22325 -2.912432,-2 -0.285014,-0.308 -0.594512,-0.56 -0.687769,-0.56 -0.263159,0 -2.148327,-1.65516 -3.078388,-2.70279 -0.460339,-0.51853 -1.135712,-1.23853 -1.500825,-1.6 -0.365114,-0.36147 -0.75456,-0.9039 -0.865434,-1.20542 -0.358096,-0.97383 -3.158937,-5.05179 -3.469683,-5.05179 -0.165619,0 -0.383696,0.21517 -0.484614,0.47816 -0.100919,0.26299 -0.3124,0.39849 -0.469956,0.30112 -0.157558,-0.0974 -0.28647,0.0306 -0.28647,0.28451 0,0.25386 -0.252,0.54149 -0.56,0.63918 -0.308,0.0977 -1.568,0.74019 -2.8,1.42778 -1.845584,1.03003 -2.592157,1.71419 -4.24,3.8855 -1.1,1.44943 -2,2.91625 -2,3.25959 0,0.34333 -0.216,0.70713 -0.48,0.80844 -0.264,0.10131 -0.48,0.48145 -0.48,0.84476 0,0.36331 -0.203142,0.8879 -0.451427,1.16576 -0.248288,0.27786 -0.526762,0.99248 -0.618835,1.58804 -0.09207,0.59555 -0.320932,1.23635 -0.508573,1.424 -0.187642,0.18764 -0.341165,0.57824 -0.341165,0.868 0,0.28976 -0.240422,1.00877 -0.534269,1.5978 -0.505209,1.01272 -0.900681,2.4568 -1.267225,4.62736 -0.08917,0.528 -0.285456,1.248 -0.436208,1.6 -0.739444,1.7266 -1.61256,8.31754 -1.536679,11.6 l 0.06103,2.64 h 0.873821 c 0.969722,0 1.879533,0.7327 1.879533,1.51364 0,0.27936 0.490912,1.52907 1.090912,2.77714 0.600003,1.24807 1.262355,2.72969 1.471891,3.29249 0.523264,1.40542 5.764647,6.81673 6.602675,6.81673 0.360432,0 0.90858,0.27984 1.218106,0.62186 0.30953,0.34203 0.979984,0.7135 1.489898,0.82549 0.624086,0.13708 0.990659,0.45679 1.12151,0.97814 0.163984,0.65336 0.389174,0.77451 1.439699,0.77451 1.031975,0 1.245309,-0.10964 1.245309,-0.64 z m 80.51056,-6.86484 c 0.25566,-0.25566 0.82262,-1.22766 1.25991,-2.16 0.65831,-1.40359 0.78706,-2.13459 0.74851,-4.24994 -0.0256,-1.40513 -0.17388,-2.98913 -0.3295,-3.52 -0.15561,-0.53087 -0.42765,-1.96722 -0.60451,-3.19189 -0.17686,-1.22466 -0.69936,-3.02466 -1.16109,-4 -0.46174,-0.97533 -0.9101,-2.39744 -0.99636,-3.16025 -0.1664,-1.4716 0.49106,-4.85308 0.94359,-4.85308 0.14789,0 0.26889,-0.36507 0.26889,-0.81126 0,-0.78001 0.20547,-1.20434 1.77647,-3.66874 1.50515,-2.36109 1.78872,-6.34163 0.64401,-9.04 -0.42642,-1.00517 -0.66424,-1.2 -1.46477,-1.2 -0.52564,0 -0.95571,-0.13748 -0.95571,-0.3055 0,-0.47742 2.0991,-0.75343 4.35359,-0.57246 1.77337,0.14234 2.28038,0.33888 3.7294,1.44559 0.92235,0.70447 2.48874,1.79497 3.48086,2.42332 0.99212,0.62836 2.0062,1.32845 2.25352,1.55576 0.60938,0.56009 1.44505,1.08363 3.06263,1.91871 0.748,0.38616 1.36,0.81742 1.36,0.95835 0,0.14092 0.14674,0.25623 0.3261,0.25623 0.19068,0 0.2434,-0.36542 0.12696,-0.88 -0.26537,-1.17269 -0.88423,-2.64 -1.11347,-2.64 -0.1013,0 -0.87938,-1.08 -1.72907,-2.4 -0.84969,-1.32 -1.68465,-2.4 -1.85546,-2.4 -0.17081,0 -0.78466,-0.396 -1.36409,-0.88 -0.57944,-0.484 -1.56942,-1.30973 -2.19996,-1.83495 -0.63053,-0.52522 -2.31964,-1.40719 -3.75357,-1.95993 -1.43393,-0.55274 -2.74302,-1.24776 -2.90908,-1.54449 -0.4063,-0.72603 -0.0981,-1.41606 0.78455,-1.75627 0.70368,-0.27123 0.70648,-0.28812 0.0871,-0.52438 -0.352,-0.13427 -1.06901,-0.54469 -1.59336,-0.91205 -0.52435,-0.36736 -1.18121,-0.81193 -1.45968,-0.98793 -0.27848,-0.176 -1.01472,-0.6448 -1.63609,-1.04178 -1.09703,-0.70087 -1.87087,-1.86451 -1.87087,-2.81328 0,-0.68783 0.5654,-0.56411 0.8,0.17506 0.11172,0.352 0.33742,0.64 0.50156,0.64 0.16414,0 0.29844,0.20545 0.29844,0.45656 0,0.46108 1.66662,1.46344 2.43326,1.46344 0.22822,0 0.54174,0.22658 0.69671,0.50351 0.43242,0.77268 3.48679,2.39585 5.7106,3.03476 1.14302,0.3284 1.62284,0.28586 3.56871,-0.31638 2.22263,-0.6879 2.25378,-0.71304 2.74512,-2.21522 0.61774,-1.88863 0.67629,-3.20621 0.24811,-5.58352 -0.52688,-2.92528 -1.44294,-4.44567 -3.26868,-5.425 -1.69902,-0.91137 -1.95036,-0.84019 -0.91707,0.25969 0.36122,0.3845 0.67867,0.98996 0.70545,1.34547 0.0268,0.3555 0.19924,0.59074 0.38324,0.52274 0.184,-0.068 0.60235,0.48783 0.92967,1.23516 0.32732,0.74734 0.72332,1.60883 0.88,1.91445 0.45523,0.88792 0.33028,2.78873 -0.24762,3.76705 -0.62423,1.05674 -2.80371,2.03817 -3.59078,1.61694 -0.28794,-0.1541 -0.882,-0.21256 -1.32012,-0.12992 -0.63883,0.12051 -1.22441,-0.25175 -2.9566,-1.87955 -1.188,-1.11641 -2.16,-2.19826 -2.16,-2.40411 0,-0.20585 -0.24108,-0.50918 -0.53574,-0.67408 -0.76451,-0.42785 -1.42013,-2.96226 -1.60696,-6.21199 -0.14266,-2.481334 -0.23019,-2.8 -0.76914,-2.8 -0.5514,0 -0.60793,-0.261338 -0.60572,-2.8 0.002,-2.669037 0.7584,-6.236771 1.52976,-7.218678 0.16475,-0.209728 0.39638,-0.813322 0.51472,-1.341322 0.11835,-0.528 0.4136,-1.392 0.65611,-1.92 1.10774,-2.411763 1.23269,-3.570691 1.00762,-9.34513 -0.4767,-12.229958 -0.4947,-12.356864 -2.23721,-15.77487 -0.85239,-1.672 -1.73199,-3.4 -1.95467,-3.84 -0.22268,-0.44 -0.51084,-1.304 -0.64036,-1.92 -0.24452,-1.162957 -1.03604,-2.921789 -1.44007,-3.2 -0.1278,-0.088 -0.53358,-0.75424 -0.90172,-1.480534 -0.36815,-0.726292 -0.89149,-1.405773 -1.16299,-1.509956 -0.2715,-0.104182 -0.49363,-0.386188 -0.49363,-0.626681 0,-0.642951 -5.28698,-4.789347 -7.55973,-5.928835 -1.07785,-0.540404 -2.04359,-1.201076 -2.14608,-1.46816 -0.27407,-0.714208 -2.02996,-1.345844 -4.46677,-1.606804 -1.18108,-0.126483 -2.14742,-0.382566 -2.14742,-0.569072 0,-0.225654 -0.56206,-0.260304 -1.68,-0.103564 -0.924,0.129545 -2.10796,0.281472 -2.63101,0.337612 -0.52306,0.05614 -1.00306,0.258205 -1.06667,0.449034 -0.0636,0.190829 -0.50361,0.34696 -0.97779,0.34696 -0.47417,0 -1.15903,0.207955 -1.5219,0.462125 -0.36288,0.254169 -1.78658,0.757264 -3.163782,1.117987 -1.3772,0.360723 -2.74368,0.872765 -3.036621,1.137875 C 96.669286,41.063094 96.188944,41.28 95.894803,41.28 95.600662,41.28 95.36,41.424 95.36,41.6 c 0,0.176 -0.18,0.3196 -0.4,0.31911 -0.358134,-6.4e-4 -1.212362,0.367216 -4.185933,1.803354 C 90.275805,43.96311 89.384304,44.16 88.792954,44.16 c -0.591351,0 -1.165149,0.145565 -1.275104,0.323482 -0.109959,0.177913 -0.586455,0.332099 -1.058887,0.342633 -0.472429,0.01053 -1.506963,0.0658 -2.298963,0.122813 -0.792,0.05701 -2.111318,0.118829 -2.931821,0.137366 -1.350649,0.03053 -1.484313,0.102128 -1.412454,0.756733 0.107715,0.981277 0.607219,1.856928 1.76823,3.099795 0.536826,0.574676 0.976045,1.245632 0.976045,1.491021 0,0.245386 0.117968,0.446157 0.262154,0.446157 0.144185,0 0.4607,0.729126 0.703369,1.620278 0.242669,0.891152 0.556698,1.691652 0.697847,1.778887 0.141145,0.08723 0.25663,0.446605 0.25663,0.798605 0,0.352 -0.144,0.551004 -0.32,0.44223 -0.176,-0.108774 -0.32,-0.477274 -0.32,-0.818886 0,-0.341613 -0.144,-0.621114 -0.32,-0.621114 -0.176,0 -0.32,-0.199539 -0.32,-0.443421 0,-0.589091 -0.60399,-1.707126 -1.68,-3.109817 -0.484,-0.630944 -0.88,-1.291261 -0.88,-1.46737 0,-0.176112 -0.285184,-0.578288 -0.633741,-0.893728 -0.34856,-0.31544 -0.723881,-1.054013 -0.834051,-1.64127 -0.158182,-0.843175 -0.504483,-1.237748 -1.646563,-1.876068 -1.531219,-0.855814 -2.477895,-1.018636 -2.808871,-0.483107 -0.110547,0.178871 -0.328707,0.246291 -0.4848,0.149821 -0.156092,-0.09647 -0.75814,0.02054 -1.337888,0.260058 -1.196636,0.494348 -5.562662,0.696435 -5.826409,0.269683 -0.09547,-0.154467 -0.906666,-0.297367 -1.802666,-0.317552 -0.896003,-0.02019 -1.754259,-0.114058 -1.907235,-0.208605 -0.357203,-0.220762 -2.203699,-0.462726 -4.637776,-0.607731 -1.853581,-0.110426 -2.987798,0.02378 -6.4,0.757273 -0.88,0.189165 -1.889363,0.38961 -2.243027,0.445431 C 49.212573,45.050035 48,45.717318 48,46.05657 c 0,0.232592 -1.245341,0.700985 -1.761914,0.662681 -0.42671,-0.03165 -2.283824,1.120845 -2.65623,1.6484 C 43.351875,48.693443 42.96568,48.96 42.723645,48.96 42.48161,48.96 41.975968,49.392 41.6,49.92 41.224032,50.448 40.710224,50.88 40.458211,50.88 40.206195,50.88 40,51.024 40,51.2 c 0,0.176 -0.216,0.32 -0.48,0.32 -0.264,0 -0.48,0.119056 -0.48,0.264566 0,0.263258 -1.863034,2.399732 -3.954954,4.535434 -0.603372,0.616 -1.202128,1.469466 -1.330569,1.896592 -0.128442,0.427126 -0.570688,1.140205 -0.982768,1.584618 -0.412083,0.444409 -0.837738,1.210944 -0.945901,1.703404 C 31.717645,61.997075 31.492071,62.4 31.324531,62.4 c -0.167539,0 -0.391466,0.252 -0.497615,0.56 -0.172447,0.500371 -0.67553,1.626445 -2.68055,6 -0.322743,0.704 -0.686258,2.036 -0.807811,2.96 -0.562383,2.133488 -0.818736,4.174092 -1.081288,6.226928 -0.166504,1.28319 -0.464223,4.061072 -0.6616,6.173072 -0.366897,3.92593 -1.070288,8.859216 -1.606554,11.267696 -0.490436,2.202646 -0.609677,6.940744 -0.889353,9.240824 0.102905,3.07478 0.02652,6.05745 0.01628,8.5281 0.098,4.10648 -0.850377,6.51794 0.004,12.78052 0.426382,0.45075 1.2,2.44859 1.2,3.09896 0,0.21486 0.288,0.69979 0.64,1.07762 0.352,0.37783 0.64,1.01981 0.64,1.42662 0,0.40681 0.115072,0.73966 0.255716,0.73966 0.357723,0 1.024284,-1.94932 1.024284,-2.99547 0,-0.47851 0.264229,-1.40429 0.587176,-2.05728 0.322947,-0.65299 0.837579,-2.00644 1.143627,-3.00768 0.306047,-1.00123 0.761818,-1.99086 1.012823,-2.19918 0.251006,-0.20831 0.456374,-0.50296 0.456374,-0.65476 0,-0.44306 2.006422,-3.62092 2.463325,-3.90153 0.229171,-0.14075 0.416675,-0.39882 0.416675,-0.57351 0,-0.3366 0.06641,-0.43076 1.58887,-2.25284 0.534122,-0.63923 0.97113,-1.30091 0.97113,-1.4704 0,-0.16949 0.288,-0.56879 0.64,-0.88735 0.352,-0.31856 0.64,-0.84796 0.64,-1.17646 0,-0.32849 0.36,-0.76129 0.8,-0.96176 0.44,-0.20048 0.8,-0.53 0.8,-0.73227 0,-0.32179 0.534227,-1.00955 3.569981,-4.59602 0.769667,-0.90929 2.522297,-3.70244 3.145837,-5.01349 0.25112,-0.528 0.618387,-1.176 0.81615,-1.44 C 46.40608,97.927098 47.36,95.319219 47.36,94.655968 c 0,-0.28745 0.150192,-0.572698 0.333757,-0.633888 0.183568,-0.06119 0.393017,-0.579494 0.465446,-1.151795 0.07243,-0.572298 0.35424,-1.358275 0.626243,-1.746615 C 49.05745,90.735328 49.28,89.801638 49.28,89.048797 49.28,88.295958 49.424,87.68 49.6,87.68 c 0.184941,0 0.32,-1.014781 0.32,-2.404342 0,-1.322388 0.130646,-2.654388 0.290326,-2.96 0.15968,-0.305613 0.534528,-1.851658 0.832996,-3.435658 0.298467,-1.584 0.672684,-3.456 0.831593,-4.16 0.262384,-1.162429 0.520947,-2.373328 1.093261,-5.12 0.110016,-0.528 0.315254,-1.248 0.456083,-1.6 0.140829,-0.352 0.417984,-1.042774 0.615898,-1.535056 0.197913,-0.492282 0.363046,-1.140282 0.36696,-1.44 0.0096,-0.73305 1.164464,-2.200029 1.482006,-1.882486 0.139091,0.139091 -0.139059,0.950163 -0.618115,1.80238 C 54.791955,65.797053 54.4,66.860602 54.4,67.308275 c 0,0.447674 -0.125392,0.89145 -0.278646,0.986167 -0.153255,0.09472 -0.363111,0.859216 -0.466346,1.698886 -0.103235,0.83967 -0.345722,2.174672 -0.538854,2.966672 -0.494442,2.027613 -0.92504,4.105002 -1.160765,5.6 -0.111002,0.704 -0.310346,1.424 -0.442983,1.6 -0.350073,0.464522 -0.998828,5.746678 -0.776854,6.325139 0.103443,0.269568 0.03426,0.585187 -0.153738,0.701379 C 50.393818,87.302707 50.24,88.091642 50.24,88.939702 c 0,0.980224 -0.174858,1.687053 -0.48,1.940298 -0.264,0.219101 -0.48,0.78521 -0.48,1.258022 0,0.47281 -0.211421,1.139178 -0.469824,1.480816 -0.2584,0.341639 -0.47529,0.837162 -0.481971,1.101162 -0.0067,0.264 -0.227261,0.892461 -0.490176,1.396579 C 47.575114,96.620698 47.36,97.287066 47.36,97.597395 c 0,0.310333 -0.216,0.743504 -0.48,0.962605 -0.264,0.219101 -0.48,0.660234 -0.48,0.980298 0,0.32006 -0.13488,0.665292 -0.299738,0.767182 -0.164854,0.10188 -0.505209,0.57838 -0.756348,1.05888 -1.082624,2.07139 -1.467706,2.63565 -3.765092,5.51702 -1.331648,1.67014 -2.696192,3.46862 -3.03232,3.99662 -0.336124,0.528 -0.794595,1.07516 -1.018819,1.2159 -0.224227,0.14075 -0.407683,0.44372 -0.407683,0.67327 0,0.22956 -0.364093,0.8344 -0.809094,1.3441 -1.053655,1.20685 -1.157101,1.34803 -2.027165,2.76673 -0.404765,0.66 -0.851399,1.2 -0.992519,1.2 -0.141116,0 -0.343696,0.252 -0.450172,0.56 -0.106477,0.308 -0.481687,0.992 -0.833799,1.52 -0.352111,0.528 -0.737221,1.176 -0.855799,1.44 -0.118578,0.264 -0.480164,0.86223 -0.803524,1.3294 -0.32336,0.46717 -0.587928,1.12237 -0.587928,1.456 0,0.33363 -0.125987,0.7434 -0.279972,0.9106 -0.684993,0.74378 -1.961167,4.69946 -1.973964,6.11858 -0.0077,0.84998 -0.123415,2.12142 -0.257223,2.82542 -0.295877,1.5567 0.152721,8.74226 0.594067,9.51566 0.1744,0.30561 0.317092,0.81681 0.317092,1.136 0,0.31918 0.130572,0.71714 0.290159,0.88434 0.159588,0.1672 0.362365,0.86333 0.450617,1.54695 0.08825,0.68363 0.306266,1.33307 0.484476,1.44321 0.178211,0.11014 0.731434,0.96962 1.229384,1.90996 1.145877,2.16388 1.562298,2.88748 1.796465,3.12165 0.102541,0.10254 0.188089,-1.99856 0.190112,-4.6691 0.0033,-4.32825 0.110931,-5.29607 0.991337,-8.91211 1.342391,-5.51352 1.552743,-6.27401 2.449728,-8.85656 0.427904,-1.232 0.841117,-2.65588 0.918253,-3.16418 0.07714,-0.5083 0.349354,-1.1563 0.604925,-1.44 0.255574,-0.2837 0.563853,-0.91318 0.685062,-1.39884 0.12121,-0.48567 0.348429,-0.96216 0.504932,-1.05889 0.156502,-0.0967 0.28455,-0.38264 0.28455,-0.63538 0,-0.66036 3.832333,-5.58271 4.346458,-5.58271 0.237062,0 0.581254,-0.28071 0.76487,-0.6238 0.183616,-0.34309 1.423766,-1.16247 2.755888,-1.82083 3.597373,-1.77792 3.587974,-1.75801 3.555651,-7.53335 -0.01962,-3.50379 0.07948,-4.89614 0.354967,-4.98797 0.210192,-0.0701 0.382166,-0.40534 0.382166,-0.74506 0,-0.33972 0.129965,-0.86772 0.288813,-1.17333 0.158845,-0.30562 0.45295,-1.20366 0.653565,-1.99566 0.200617,-0.792 0.663494,-2.304 1.028614,-3.36 0.365123,-1.056 0.807955,-2.496 0.98407,-3.2 0.176119,-0.704 0.447277,-1.530045 0.602576,-1.835658 0.1553,-0.305612 0.282362,-0.845612 0.282362,-1.2 0,-0.354387 0.129914,-0.644342 0.288694,-0.644342 0.393949,0 0.991306,-1.798774 0.991306,-2.985034 0,-0.533238 0.166368,-1.429609 0.369706,-1.991932 0.213193,-0.589575 0.25942,-1.276544 0.109196,-1.62272 C 56.655622,82.030141 56.576611,81.616 56.623325,81.44 c 0.04671,-0.176 0.199049,-1.184 0.338531,-2.24 0.269613,-2.041219 0.502509,-2.692342 1.763498,-4.93033 0.437056,-0.775683 0.797849,-1.567683 0.801763,-1.76 C 59.531021,72.31735 59.815827,71.8 60.16,71.36 c 0.344173,-0.44 0.62897,-1.04377 0.632883,-1.341709 0.0039,-0.297939 0.310058,-1.055155 0.680317,-1.682697 0.370262,-0.627546 0.587069,-1.36545 0.481795,-1.639789 -0.105273,-0.274336 0.08169,-1.101123 0.415479,-1.837299 0.333785,-0.73618 0.766009,-1.933732 0.960502,-2.661229 0.19449,-0.727498 0.568582,-1.50113 0.831322,-1.719184 C 64.425034,60.260042 64.64,59.675766 64.64,59.179702 c 0,-0.49606 0.144,-0.990928 0.32,-1.099702 0.176,-0.108774 0.32,-0.477274 0.32,-0.818886 0.291509,-0.931505 0.424179,-1.095591 0.24,-1.591226 C 64.957981,55.65568 66.810381,54.08 67.389104,54.08 c 0.260378,0 0.806966,-0.218554 1.214643,-0.485674 0.661744,-0.43359 0.840691,-0.433801 1.668743,-0.0019 0.510131,0.266036 1.198803,0.484589 1.530384,0.485674 C 72.92873,54.0818 74.88,53.340698 74.88,52.909418 c 0,-0.23614 0.0788,-0.429347 0.175114,-0.429347 0.336563,0 3.024886,2.812605 3.024886,3.16473 0,0.195398 0.214192,0.35527 0.475987,0.35527 0.512503,0 2.084013,2.258055 2.084013,2.994458 0,0.245949 0.218656,0.628646 0.485904,0.850445 0.561027,0.465609 1.555507,2.585401 2.437229,5.195097 0.222989,0.66 0.530211,1.2 0.682717,1.2 0.152502,0 0.197296,0.252 0.09954,0.56 -0.136765,0.430906 0.0058,0.56 0.618435,0.56 0.547261,0 0.796173,-0.176435 0.796173,-0.564342 0,-0.310387 0.12824,-0.814387 0.284979,-1.12 0.156739,-0.305613 0.623946,-1.275658 1.03824,-2.155658 0.818928,-1.739485 1.272647,-2.214448 2.556829,-2.67656 0.599126,-0.215597 1.057997,-0.176998 1.6,0.134583 0.417974,0.240281 0.936893,0.528758 1.153158,0.641056 0.216263,0.112297 1.146202,-0.259146 2.066532,-0.825431 2.439139,-1.500816 5.859354,-1.445568 6.079984,0.09821 0.0577,0.403568 0.37215,0.749783 0.74028,0.815021 0.96953,0.171818 5.5113,4.997383 6.63185,7.04625 0.54351,0.993779 1.14743,2.09487 1.34205,2.44687 0.60751,1.098819 3.47514,4.64 3.75745,4.64 0.14776,0 0.26865,0.221831 0.26865,0.492957 0,0.499795 1.23971,2.458026 1.68,2.653709 0.132,0.05867 0.24,0.294105 0.24,0.523197 0,0.229091 0.36,0.652412 0.8,0.94071 0.44,0.288301 0.8,0.725814 0.8,0.972253 0,0.246438 0.36,0.875907 0.8,1.398816 0.44,0.522912 0.8,1.030739 0.8,1.128509 0,0.203312 1.94723,3.167344 2.24011,3.409849 0.10628,0.088 0.42849,0.666285 0.71602,1.285082 0.28754,0.618793 0.89204,1.669187 1.34333,2.334208 0.4513,0.665024 0.82054,1.283654 0.82054,1.374736 0,0.09108 0.385,0.979424 0.85555,1.974086 0.70464,1.489482 0.88143,2.390387 1.00227,5.107424 0.0807,1.814414 0.27169,3.376184 0.42445,3.470584 0.15275,0.0944 0.27773,0.45115 0.27773,0.79277 0,0.34161 0.13748,0.62111 0.3055,0.62111 0.16802,0 0.39818,0.49403 0.51145,1.09783 0.11328,0.60381 0.40781,1.17529 0.65451,1.26996 0.24669,0.0947 0.44854,0.39264 0.44854,0.66217 0,0.26952 0.144,0.49004 0.32,0.49004 0.176,0 0.32,0.4032 0.32,0.896 0,0.4928 0.15596,1.05197 0.34659,1.24259 0.70419,0.7042 0.09,5.55557 -1.28897,10.18141 -0.1574,0.528 -0.38025,1.608 -0.49522,2.4 -0.11498,0.792 -0.42429,1.944 -0.68737,2.56 -0.26307,0.616 -0.61258,1.444 -0.77667,1.84 -0.1641,0.396 -0.43255,1.044 -0.59656,1.44 -0.58218,1.4057 -1.27818,6.18697 -1.50227,10.32 -0.0954,1.76 -0.30536,3.3368 -0.46652,3.504 -0.16115,0.1672 -0.29301,0.5632 -0.29301,0.88 0,0.3168 -0.14756,0.576 -0.32792,0.576 -0.18036,0 -0.45681,0.339 -0.61434,0.75333 -0.35496,0.93363 -3.2845,3.42542 -4.89774,4.1659 -0.66,0.30294 -1.19521,0.72404 -1.18935,0.93579 0.0163,0.58923 1.06474,1.71691 1.8188,1.95624 0.37055,0.11761 1.05384,0.71219 1.51843,1.32129 0.67574,0.88594 1.06545,1.10745 1.9484,1.10745 0.60705,0 1.10372,0.14126 1.10372,0.31391 0,0.17264 0.396,0.40885 0.88,0.5249 1.17035,0.28063 2.54765,0.98972 3.22081,1.65821 0.30073,0.29864 1.22907,1.10033 2.06299,1.78153 0.83391,0.6812 1.5162,1.41778 1.5162,1.63684 0,0.21907 0.288,0.76444 0.64,1.21193 0.352,0.44749 0.64,1.09091 0.64,1.42982 0,1.0631 0.44294,1.28563 1.15056,0.57802 z M 84.48,57.76 c 0,-0.968 0.144,-1.76 0.32,-1.76 0.176,0 0.32,0.792 0.32,1.76 0,0.968 -0.144,1.76 -0.32,1.76 -0.176,0 -0.32,-0.792 -0.32,-1.76 z m 18.51764,99.21593 c 1.47269,-1.06476 2.91269,-2.07993 3.2,-2.25593 0.28729,-0.176 1.17036,-0.76896 1.96236,-1.3177 3.56058,-2.46693 5.81378,-3.9623 5.97033,-3.9623 0.206,0 4.87515,-3.30388 5.54967,-3.92693 0.82499,-0.76203 1.92,-2.14583 1.92,-2.42634 0,-0.14762 0.20793,-0.68653 0.46206,-1.19757 0.25414,-0.51104 0.61734,-2.73846 0.80712,-4.94983 0.51588,-6.01113 1.25354,-9.96075 1.93951,-10.3847 0.17122,-0.10582 0.31131,-0.41414 0.31131,-0.68515 0,-0.27102 0.19837,-0.94652 0.44083,-1.50112 0.38518,-0.88106 0.81609,-2.52162 1.81979,-6.92836 1.19769,-5.25843 1.19844,-5.26437 0.7959,-6.24 -0.21785,-0.528 -0.49721,-1.5 -0.6208,-2.16 -0.1236,-0.66 -0.33952,-1.2 -0.47983,-1.2 -0.26913,0 -0.92408,-1.23099 -1.78768,-3.36 -0.28557,-0.704 -0.66153,-1.53853 -0.83548,-1.85451 -0.17395,-0.31597 -0.292,-1.62128 -0.26234,-2.900671 0.0297,-1.279395 -0.13324,-2.892867 -0.36202,-3.585494 C 123.15673,94.105917 122.4516,92.48 122.24139,92.48 c -0.1075,0 -0.54779,-0.71776 -0.97842,-1.595024 -0.43063,-0.877264 -0.89097,-1.597264 -1.02297,-1.6 -0.132,-0.0029 -0.24,-0.19937 -0.24,-0.436963 0,-0.237594 -0.40624,-0.993594 -0.90275,-1.68 -2.04689,-2.829757 -3.20967,-4.546471 -3.67879,-5.431357 -0.27311,-0.515162 -0.83,-1.301862 -1.23752,-1.74823 C 113.26341,78.983434 112,77.216922 112,76.939011 c 0,-0.113795 -0.36363,-0.492931 -0.80806,-0.842521 -0.44443,-0.349591 -1.01308,-1.126314 -1.26367,-1.726055 C 109.67768,73.770698 109.32131,73.28 109.13633,73.28 108.95135,73.28 108.8,73.122714 108.8,72.930474 c 0,-0.19224 -0.288,-0.715661 -0.64,-1.163156 -0.352,-0.447494 -0.6423,-1.046208 -0.64511,-1.330473 -0.003,-0.284266 -0.43481,-1.004359 -0.96,-1.600208 C 106.0297,68.240787 105.6,67.610272 105.6,67.435494 c 0,-0.522048 -5.22711,-5.586368 -5.92,-5.735632 -0.352,-0.07583 -0.604,-0.309318 -0.56,-0.518867 0.044,-0.209549 -0.028,-0.390189 -0.16,-0.401424 -0.132,-0.01123 -0.744,-0.07514 -1.36,-0.142022 -1.403005,-0.15232 -2.24,0.08129 -2.24,0.625193 0,0.947821 -4.008938,1.541808 -5.025984,0.744682 -0.212288,-0.166387 -0.572288,-0.18433 -0.8,-0.03987 -0.227709,0.144454 -0.542323,0.264854 -0.699139,0.267549 -0.280672,0.0048 -0.61377,0.501129 -0.969751,1.444899 -0.09958,0.264 -0.303587,0.696 -0.453353,0.96 -0.79608,1.403296 -0.955168,1.907331 -0.795152,2.519238 0.115693,0.44241 -9.6e-4,0.740864 -0.340317,0.871111 C 85.965866,68.149475 85.76,68.5976 85.76,69.154237 85.76,69.663405 85.622768,70.08 85.45504,70.08 c -0.455382,0 -0.906634,1.950867 -0.729853,3.15535 0.08698,0.592599 0.382935,1.127223 0.674861,1.219079 1.223264,0.384905 2.149926,0.965161 2.939606,1.840713 0.652724,0.7237 1.145258,0.946413 2.178352,0.984996 0.775588,0.02896 1.482714,-0.128218 1.687642,-0.37514 0.193994,-0.23375 0.237984,-0.424998 0.09775,-0.424998 -0.140231,0 0.08324,-0.36 0.496598,-0.8 0.41336,-0.44 0.9948,-0.8 1.29209,-0.8 0.369574,0 0.516659,-0.227715 0.465059,-0.72 C 94.435216,72.996714 94.418426,72.960336 94,72.952691 c -0.22,-0.004 -1.175782,-1.588019 -2.123958,-3.52 -1.754951,-3.575843 -2.371984,-4.311849 -2.264615,-2.701264 0.01987,0.297968 -0.99456,1.192109 -1.16224,1.024429 -0.289174,-0.289178 0.263002,-1.883645 0.711991,-2.055936 C 89.402531,65.607302 89.6,65.195434 89.6,64.78465 c 0,-0.993802 0.577802,-1.303991 1.224451,-0.657341 0.441239,0.441238 0.45817,0.626905 0.108259,1.187206 -0.344819,0.552141 -0.337388,0.726685 0.04405,1.034826 0.252358,0.203862 0.656976,0.838659 0.899152,1.410659 0.242176,0.572 0.549164,1.04 0.682201,1.04 0.133037,0 0.241885,0.199539 0.241885,0.443421 0,0.589091 0.60399,1.707126 1.68,3.109817 0.484,0.630944 0.88,1.248717 0.88,1.372829 0,0.124109 0.504941,0.745578 1.122093,1.381037 0.617149,0.635459 1.061149,1.21632 0.986665,1.290803 -0.139129,0.13913 0.276637,0.670938 1.811242,2.316752 0.484,0.519072 0.880002,1.009757 0.880002,1.09041 0,0.465673 3.90052,4.037926 4.60093,4.213721 0.98919,0.248269 1.11515,1.088928 0.19907,1.32849 -0.352,0.09205 -0.6378,0.25857 -0.6351,0.370042 0.0173,0.714774 0.81947,1.085168 2.90892,1.343123 1.81649,0.224256 2.49972,0.45415 2.941,0.98959 0.49615,0.602016 0.51273,0.759562 0.1211,1.151187 -0.39163,0.391626 -0.63277,0.362375 -1.76207,-0.21375 -0.71959,-0.36711 -1.52159,-0.667472 -1.78221,-0.667472 -0.74859,0 -0.94171,0.627978 -0.38299,1.24536 0.28124,0.310768 0.51135,0.778173 0.51135,1.038675 0,0.260503 0.18758,0.730167 0.41684,1.043699 0.37899,0.518311 0.45517,0.523863 0.83918,0.06116 0.7328,-0.882973 1.01793,-0.559472 0.94355,1.070541 -0.0733,1.607126 0.3764,2.580563 1.19223,2.580563 0.2384,0 0.68751,0.396 0.99802,0.88 0.31052,0.484 1.32183,1.632826 2.24738,2.552947 0.92554,0.920122 1.6916,1.784125 1.70235,1.920005 0.0108,0.13588 0.61188,0.67905 1.33583,1.20705 0.72394,0.528 1.45674,1.392 1.62842,1.92 0.17169,0.528 0.40096,1.032 0.50949,1.12 0.28438,0.2306 0.98671,3.06988 0.98671,3.98898 0,1.48861 -0.92927,4.33357 -2.3272,7.12475 -0.77302,1.54345 -1.56476,3.45427 -1.75944,4.24627 -0.19467,0.792 -0.45671,1.8 -0.58231,2.24 -0.1256,0.44 -0.34318,3.824 -0.48352,7.52 -0.26891,7.08231 -0.50357,9.44 -0.93958,9.44 -0.14565,0 -0.36043,0.30123 -0.47728,0.6694 -0.34137,1.07557 -3.33319,5.85538 -3.84396,6.14122 -0.25669,0.14365 -0.46671,0.42349 -0.46671,0.62186 0,0.42228 -2.11093,3.57703 -3.04,4.54324 -0.352,0.36607 -1.13315,1.27025 -1.73588,2.00928 -0.60273,0.73904 -1.20841,1.27415 -1.34594,1.18915 -0.13754,-0.085 -0.50726,0.24605 -0.82161,0.73565 -0.77097,1.2008 -1.1155,1.63984 -1.77657,2.26384 -0.650744,0.61425 -0.785055,1.84082 -0.160002,1.46118 0.220002,-0.13363 1.604932,-1.11413 3.077642,-2.17889 z M 111.98639,140 c 1.30998,-2.67816 1.61266,-4.57945 1.61995,-10.17575 0.007,-5.30777 0.36928,-8.62704 1.13815,-10.42544 1.021,-2.38815 1.79721,-4.08178 2.51269,-5.4825 0.40558,-0.79403 0.91309,-2.45003 1.12779,-3.68 0.34212,-1.95994 0.32337,-2.39353 -0.15176,-3.50849 l -0.54212,-1.27219 -0.52554,1.01559 c -0.72064,1.39257 -3.13661,4.23947 -4.56885,5.38377 -0.65054,0.51976 -1.33528,1.26778 -1.52165,1.66228 -0.18636,0.3945 -0.91302,1.1145 -1.6148,1.6 -1.2492,0.86421 -1.64253,1.84138 -1.00578,2.49873 0.7772,0.80235 1.05464,10.74595 0.52234,18.72088 -0.20695,3.10062 -0.16991,4.30499 0.16241,5.28 0.23679,0.69471 0.3978,1.47912 0.35781,1.74312 -0.12831,0.84713 1.51924,-1.37664 2.48936,-3.36 z m -23.665881,-9.7601 c 0.928323,-0.17605 2.351977,-0.74896 3.163677,-1.27312 0.811699,-0.52417 2.151721,-1.31445 2.97783,-1.75618 0.826109,-0.44174 1.618109,-0.98685 1.76,-1.21137 0.141891,-0.22452 1.107642,-0.98219 2.146112,-1.68372 2.064942,-1.39496 15.585552,-14.64787 17.718952,-17.36815 1.63297,-2.08217 1.53853,-2.48878 -1.27776,-5.50115 -3.783,-4.046396 -6.45705,-6.72621 -6.71173,-6.72621 -0.14168,0 -0.25759,0.283619 -0.25759,0.630266 0,0.670236 -1.02698,2.691299 -1.82424,3.590028 -0.63475,0.715546 -2.86177,1.165716 -7.750925,1.566766 -2.603683,0.21357 -4.476797,0.22194 -5.304835,0.0237 -1.210794,-0.2899 -1.156122,-0.3082 1.011184,-0.33861 2.228701,-0.0313 9.995676,-1.062136 11.018216,-1.462389 0.71453,-0.279687 1.78155,-2.319783 2.03948,-3.899392 0.3884,-2.378618 -1.47409,-6.510349 -2.93472,-6.510349 -0.54909,0 -0.74936,0.138826 -0.63399,0.439478 0.13638,0.355392 -0.0573,0.382138 -1.01207,0.139783 -0.94626,-0.240189 -1.48209,-0.170509 -2.698522,0.350915 -0.834797,0.357837 -1.623962,0.665952 -1.753696,0.684704 -0.632765,0.09146 -2.589239,1.401706 -2.443984,1.636733 0.09123,0.147613 -0.05493,0.268387 -0.324794,0.268387 -0.754995,0 -1.524845,1.766797 -1.297619,2.978016 0.245529,1.308794 1.644041,2.308854 3.907392,2.794141 2.374433,0.509101 3.757353,0.04097 5.698143,-1.928887 0.63561,-0.645129 0.78498,-0.693894 0.78498,-0.256284 0,0.703046 -1.75687,2.030944 -3.50135,2.646432 -1.217418,0.429532 -1.584916,0.431785 -3.164148,0.01939 -2.653417,-0.692903 -3.514889,-1.462263 -4.438236,-3.96368 -0.267844,-0.725613 -0.3441,-0.683108 -2.266717,1.263494 -1.094253,1.107904 -1.989549,1.8368 -1.989549,1.61977 0,-0.217031 1.254979,-1.696445 2.788845,-3.287588 2.441091,-2.532243 3.165725,-3.072662 5.811254,-4.333913 1.662323,-0.792509 3.863341,-1.589056 4.891151,-1.770099 1.02782,-0.181047 1.86875,-0.452903 1.86875,-0.604125 0,-0.151226 -0.22832,-0.753751 -0.50739,-1.338947 l -0.50738,-1.063997 -3.572616,0.06715 c -1.964937,0.03693 -4.413507,0.278941 -5.441264,0.537789 -1.027756,0.258851 -1.747756,0.362121 -1.6,0.229494 0.429808,-0.385798 3.033575,-0.938122 5.505584,-1.167872 C 99.452621,84.1636 100.48,83.931466 100.48,83.764451 c 0,-0.29168 -2.041216,-0.194621 -4.48,0.213024 l -1.12,0.18721 1.224016,-0.473898 c 1.428067,-0.552896 3.904544,-0.744077 4.935984,-0.381053 1.19763,0.42152 0.89007,-0.773756 -0.5646,-2.194201 -0.70652,-0.689904 -1.678104,-1.83513 -2.159064,-2.544944 C 97.835373,77.860758 97.26144,77.164848 97.040928,77.024102 96.820419,76.883357 96.64,76.584458 96.64,76.359882 c 0,-0.224573 -0.341597,-0.729229 -0.759101,-1.121456 -0.644611,-0.605578 -0.787891,-0.638125 -0.949958,-0.215783 -0.10497,0.273549 -0.394282,0.49736 -0.642919,0.49736 -0.248633,0 -0.83648,0.504 -1.306326,1.12 -0.469846,0.616 -1.050938,1.12 -1.291315,1.12 -0.240375,0 -0.521047,0.18 -0.623715,0.4 -0.149332,0.32 -0.224,0.32 -0.373332,0 -0.102668,-0.22 -0.457657,-0.4 -0.788867,-0.4 -0.331209,0 -1.087264,-0.425894 -1.680125,-0.946432 C 87.113741,75.838448 84.799453,75.106054 83.880598,75.438922 83.427565,75.60304 80.442486,77.896691 80,78.420672 79.610698,78.881667 77.587101,79.679056 76.830835,79.669466 75.771149,79.656026 73.494694,78.329203 71.309248,76.451229 69.771597,75.12991 69.471494,74.996717 68.32,75.124518 c -1.180147,0.13098 -1.384106,0.307965 -2.614518,2.268775 -2.096669,3.341283 -3.558756,6.788109 -3.8724,9.129062 -0.156221,1.166013 -0.218285,2.185779 -0.137917,2.266147 0.08037,0.08037 0.667833,-0.07962 1.305481,-0.355542 2.461136,-1.06496 4.38121,-1.366595 8.978016,-1.4104 2.563735,-0.02442 4.913338,0.0569 5.221338,0.180746 0.326262,0.131187 0.56,0.562803 0.56,1.034089 v 0.808919 l -0.675414,-0.858653 c -0.611402,-0.777271 -0.855332,-0.852157 -2.573764,-0.790144 -1.05374,0.03803 -1.999008,0.237424 -2.124585,0.448169 -0.136746,0.229479 -1.492071,0.456685 -3.426237,0.574368 -2.963539,0.180317 -5.79279,0.784228 -6.834243,1.458784 -0.271991,0.17617 -0.35361,0.535325 -0.218435,0.961213 0.199331,0.628045 0.440121,0.680093 3.154243,0.681805 1.616137,9.6e-4 3.756525,0.135859 4.756416,0.299642 2.127449,0.348476 6.488173,2.382118 7.157721,3.338032 0.799159,1.140956 0.498864,1.373337 -0.362444,0.280473 -0.450804,-0.572 -0.952823,-1.04 -1.115597,-1.04 -0.162775,0 -1.210282,-0.432 -2.327795,-0.96 -2.414288,-1.140697 -2.751741,-1.188272 -1.939463,-0.273437 0.604797,0.681159 0.604147,0.683706 -0.08252,0.323668 -0.380659,-0.199594 -0.748042,-0.530692 -0.816403,-0.735773 -0.135549,-0.40665 -2.717175,-0.85408 -5.141527,-0.891098 -1.091984,-0.01667 -1.583676,0.116407 -1.717372,0.464807 -0.14608,0.380684 -0.286487,0.405872 -0.63769,0.1144 -0.651702,-0.540864 -0.826653,-0.190474 -0.574909,1.151433 0.177751,0.947488 0.3392,1.148554 0.821075,1.022541 0.329901,-0.08627 0.519124,-0.02627 0.420493,0.133302 -0.09863,0.159588 -0.373737,0.290157 -0.61135,0.290157 -0.331645,0 -0.432023,0.689623 -0.432023,2.968141 v 2.968136 l 1.334272,0.55186 c 1.905168,0.78799 4.632541,0.70941 6.865181,-0.19779 1.014707,-0.41232 2.631847,-0.8342 3.593642,-0.93752 L 76,100.20497 l -1.6,0.47445 c -0.88,0.26094 -2.32,0.772 -3.2,1.13568 -2.222525,0.91851 -6.11279,1.1526 -7.472186,0.44963 -0.564633,-0.29198 -1.16638,-0.4445 -1.337212,-0.33892 -0.457808,0.28294 -0.377594,3.90776 0.147174,6.65047 0.970922,5.07455 5.54135,14.30372 7.083421,14.30372 0.09698,0 0.707888,0.4255 1.357568,0.94555 0.64968,0.52006 1.686742,1.15558 2.304585,1.41227 0.61784,0.25669 1.519901,0.83423 2.004576,1.28341 0.484676,0.44918 1.570948,1.02152 2.413936,1.27186 0.842989,0.25034 2.270602,0.841 3.172471,1.31257 2.851645,1.49109 4.356131,1.72026 7.446176,1.13424 z M 77.334486,118.80816 c -0.131673,-0.21305 0.274487,-0.27443 1.157421,-0.17491 2.426723,0.27353 10.084541,-0.48332 11.209645,-1.10789 0.560147,-0.31095 1.066448,-0.67336 1.125114,-0.80536 0.156038,-0.35108 0.693334,-0.29327 0.693334,0.0746 0,0.17303 -0.728717,0.68388 -1.61937,1.1352 -1.483952,0.75198 -2.068582,0.83674 -6.991324,1.01359 -3.532032,0.1269 -5.441437,0.0806 -5.57482,-0.13524 z m 2.762269,-8.73193 c -1.207606,-0.48632 -2.26871,-3.44497 -1.422982,-3.96766 0.150576,-0.0931 0.209321,0.16796 0.130547,0.58005 -0.201226,1.05264 0.744192,2.71576 1.771008,3.11543 1.13376,0.4413 4.173984,0.16407 5.452784,-0.49722 0.810493,-0.41912 1.011888,-0.7236 1.011888,-1.52985 0,-0.55362 -0.230778,-1.26159 -0.512838,-1.57327 -0.282061,-0.31167 -0.455508,-0.73867 -0.385434,-0.94889 0.236582,-0.70975 1.339757,1.45451 1.308768,2.56761 -0.03442,1.23652 -0.591296,1.7797 -2.315715,2.25875 -1.38161,0.38382 -4.079229,0.38117 -5.038026,-0.005 z M 65.52,100.89417 c 0.396,-0.0763 1.044,-0.0763 1.44,0 0.396,0.0763 0.072,0.13867 -0.72,0.13867 -0.792,0 -1.116,-0.0624 -0.72,-0.13867 z m 2.32,-0.16165 c 0.088,-0.0866 0.660714,-0.3268 1.272694,-0.53371 0.611984,-0.206909 0.971984,-0.238477 0.8,-0.0701 -0.17198,0.16833 -0.744694,0.4085 -1.272694,0.53371 -0.528,0.12522 -0.888,0.15678 -0.8,0.0701 z M 63.449005,99.76 c -0.625447,-0.808704 -0.838845,-1.305654 -0.46017,-1.071619 0.378925,0.234185 1.137053,1.471619 0.901607,1.471619 -0.07264,0 -0.27129,-0.18 -0.441437,-0.4 z m 7.486064,-0.862256 c 0.206288,-0.27376 0.47424,-0.895104 0.595449,-1.380768 C 71.802221,96.428317 72.32,96.047328 72.32,96.936067 c 0,0.35961 -0.396,1.060093 -0.88,1.556627 -0.484,0.496538 -0.711219,0.67881 -0.504931,0.40505 z M 65.386576,95.81617 c -0.134541,-0.350605 0.009,-0.709293 0.397664,-0.993466 0.529597,-0.387251 0.660986,-0.372598 1.016307,0.113334 0.534272,0.73066 0.355015,1.199588 -0.507043,1.326407 -0.430496,0.06333 -0.776758,-0.107056 -0.906928,-0.446275 z m 38.979144,-3.090365 c 0,-1.008125 -0.10454,-2.002093 -0.23231,-2.208823 -0.13613,-0.220275 -0.0947,-0.290796 0.10022,-0.170361 0.48717,0.301088 0.81721,2.987885 0.44805,3.647533 -0.23689,0.423305 -0.31596,0.105894 -0.31596,-1.268349 z m -6.138859,0.465655 c 0.135651,-0.704381 1.660299,-0.903561 1.660299,-0.209567 0,0.264 -0.54397,0.6658 -0.955627,0.724094 -0.580423,0.08219 -0.792186,-0.0601 -0.704672,-0.514527 z M 86.815062,91.76 C 86.632045,91.012 86.24585,89.86 85.956854,89.2 85.667862,88.54 85.574602,88 85.74961,88 c 0.175008,0 0.40855,0.36 0.518985,0.8 0.124112,0.494506 0.427997,0.8 0.795783,0.8 0.479097,0 0.544134,0.137504 0.333872,0.705894 -0.14362,0.38824 -0.154144,1.18024 -0.02339,1.76 0.353084,1.565527 -0.172122,1.278535 -0.559798,-0.305894 z M 76.48,90.890042 c 0,-0.170474 0.216,-0.227069 0.48,-0.125764 0.264,0.101309 0.48,0.240788 0.48,0.309959 0,0.06917 -0.216,0.125763 -0.48,0.125763 -0.264,0 -0.48,-0.139482 -0.48,-0.309958 z M 74.08,89.28 c -0.108774,-0.176 -0.05377,-0.32 0.12223,-0.32 0.176,0 0.408996,0.144 0.51777,0.32 0.108774,0.176 0.05377,0.32 -0.12223,0.32 -0.176,0 -0.408996,-0.144 -0.51777,-0.32 z m 14.701162,-1.455917 c 0.687936,-0.513971 1.273372,-0.620646 1.00271,-0.18271 -0.09565,0.154755 -0.500144,0.363593 -0.898886,0.464086 -0.699444,0.176272 -0.703101,0.166359 -0.103824,-0.281376 z M 90.24,87.118365 c 0,-0.176 0.216,-0.499264 0.48,-0.718365 0.267757,-0.222218 0.48,-0.25687 0.48,-0.07837 0,0.176 -0.216,0.499264 -0.48,0.718365 -0.267757,0.222218 -0.48,0.25687 -0.48,0.07836 z M 92.4,84.58807 c 0.22,-0.08877 0.58,-0.08877 0.8,0 0.22,0.08877 0.04,0.161405 -0.4,0.161405 -0.44,0 -0.62,-0.07263 -0.4,-0.161405 z M 68.572669,128.4 c -0.0996,-1.012 -0.377194,-2.22885 -0.616877,-2.70411 C 67.716106,125.22063 67.52,124.44258 67.52,123.96688 c 0,-0.4757 -0.435578,-1.78681 -0.967955,-2.91358 -0.532375,-1.12677 -0.877885,-2.19441 -0.767802,-2.37253 0.110083,-0.17811 -0.102339,-0.40295 -0.472045,-0.49963 C 64.774842,118.04062 64.64,117.75608 64.64,116.76268 c 0,-0.88688 -0.136349,-1.24268 -0.476218,-1.24268 -0.306899,0 -0.547872,-0.44808 -0.67774,-1.26025 -0.110836,-0.69313 -0.38936,-1.33232 -0.618941,-1.42042 -0.238768,-0.0916 -0.345645,-0.43466 -0.249715,-0.80149 0.09224,-0.35273 -0.07914,-1.11754 -0.380839,-1.69958 -0.370921,-0.71559 -0.594173,-2.09444 -0.689456,-4.25826 -0.179574,-4.07796 -0.230137,-4.29067 -1.289325,-5.42393 -0.485225,-0.51916 -0.896595,-1.272057 -0.91415,-1.673094 C 59.326048,98.581939 59.06441,97.98057 58.76217,97.646598 58.459933,97.312627 58.124323,96.481517 58.016378,95.79969 57.907603,95.112634 57.48575,94.245846 57.070058,93.85528 56.060768,92.906998 56.125952,92.48 57.28,92.48 c 0.57609,0 0.96,-0.166947 0.96,-0.417466 0,-0.229606 0.496694,-0.959731 1.103766,-1.622499 0.797319,-0.870467 1.16162,-1.6208 1.312135,-2.702534 0.114605,-0.823626 0.40991,-2.114535 0.656233,-2.868685 0.246327,-0.75415 0.447866,-1.645651 0.447866,-1.981114 0,-0.335462 0.125402,-0.687433 0.278669,-0.782156 0.153267,-0.09473 0.366217,-0.609972 0.473219,-1.144989 0.107005,-0.535021 0.485603,-1.285171 0.841331,-1.667002 C 63.70895,78.911728 64,78.395197 64,78.145709 64,77.896224 64.432,77.146653 64.96,76.48 c 0.528,-0.666653 0.96,-1.351283 0.96,-1.521395 0,-0.170112 0.358192,-0.837123 0.795984,-1.482243 0.437792,-0.645124 0.885405,-1.52922 0.994691,-1.964656 C 67.819965,71.076269 68.09833,70.72 68.329264,70.72 c 0.230938,0 0.511488,-0.417069 0.62345,-0.926819 0.111958,-0.509751 0.483398,-1.180067 0.825424,-1.489597 C 70.120163,67.994058 70.4,67.574067 70.4,67.370272 c 0,-0.203792 0.432,-0.784416 0.96,-1.290272 0.528,-0.505856 0.96,-1.076608 0.96,-1.268342 0,-0.404484 3.408208,-4.761383 3.844461,-4.914583 0.161197,-0.05661 0.613293,0.195392 1.004653,0.56 0.39136,0.364608 0.828412,0.662925 0.971225,0.662925 0.142813,0 0.259661,0.270368 0.259661,0.600819 0,0.330448 0.216,0.78008 0.48,0.999181 0.264,0.219101 0.48,0.584733 0.48,0.812515 0,0.227783 0.128307,0.462151 0.28513,0.520819 0.38991,0.145866 2.27487,3.687204 2.27487,4.273879 0,0.260032 0.144,0.472787 0.32,0.472787 0.176,0 0.324579,0.468 0.330176,1.04 0.0092,0.944749 0.593933,2.16 1.039229,2.16 0.311833,0 0.210883,-3.814413 -0.106138,-4.010339 C 83.33647,67.886573 83.2,67.459226 83.2,67.04 83.2,66.620774 83.068531,66.196518 82.907843,66.09721 82.747158,65.997901 82.518502,65.341402 82.399715,64.638323 82.280931,63.935245 82.068013,63.36 81.926563,63.36 81.785114,63.36 81.579027,63 81.468595,62.56 81.35816,62.12 81.12655,61.76 80.953904,61.76 80.781258,61.76 80.64,61.4 80.64,60.96 c 0,-0.44 -0.108,-0.801651 -0.24,-0.80367 -0.132,-0.0019 -0.528,-0.611335 -0.88,-1.354036 -0.352,-0.7427 -1.053933,-1.713046 -1.559853,-2.156329 -1.855875,-1.626099 -2.349305,-2.132154 -2.519686,-2.584147 -0.136112,-0.361082 -0.288032,-0.307549 -0.696471,0.245408 -0.622086,0.842204 -2.514563,1.271632 -3.489529,0.791814 -0.381955,-0.187971 -1.154909,-0.431936 -1.717677,-0.542144 -0.84095,-0.164682 -1.150483,-0.054 -1.737706,0.621366 C 67.406106,55.630218 66.894554,56 66.662291,56 66.399712,56 66.24,56.390989 66.24,57.033814 c 0,0.950023 -1.173491,4.353191 -1.629696,4.726186 -0.659389,0.539117 -1.763821,4.105568 -1.6096,5.197734 0.04332,0.306756 -0.146122,0.878797 -0.420973,1.271204 C 62.30488,68.621344 62.08,69.138134 62.08,69.377357 c 0,0.239225 -0.511808,1.308221 -1.13735,2.375545 -0.625543,1.067325 -1.219543,2.351556 -1.32,2.853844 C 59.522192,75.109037 59.319578,75.52 59.172397,75.52 c -0.524954,0 -1.359178,3.412138 -1.603837,6.56 -0.347994,4.477373 -0.647638,6.56 -0.943846,6.56 -0.139626,0 -0.354861,0.459843 -0.478304,1.021872 -0.12344,0.562029 -0.422884,1.220317 -0.665424,1.462858 C 55.238442,91.36727 55.04,92.122931 55.04,92.803971 c 0,0.681043 -0.144,1.327255 -0.32,1.436029 -0.176,0.108774 -0.32,0.540774 -0.32,0.96 0,0.419226 -0.127677,0.841136 -0.283725,0.937581 -0.156048,0.09644 -0.385257,0.716941 -0.50936,1.378883 C 53.482816,98.17841 53.199965,99.08 52.978358,99.52 c -1.201708,2.38599 -1.778489,5.02507 -1.778425,8.13728 3.8e-5,1.7475 0.165923,3.6915 0.368633,4.32 0.51185,1.58695 1.661236,3.86272 1.950884,3.86272 0.132304,0 0.24055,0.288 0.24055,0.64 0,0.352 0.144,0.64 0.32,0.64 0.176,0 0.320621,0.18 0.321382,0.4 0.0022,0.64748 5.894852,6.96 6.497031,6.96 0.326781,0 2.883933,1.94423 3.048253,2.31762 0.05867,0.13331 0.262588,0.24238 0.453158,0.24238 0.190566,0 0.574566,0.20863 0.853331,0.46363 1.761386,1.61121 3.096474,2.72024 3.283725,2.72771 0.119283,0.005 0.135389,-0.81934 0.03579,-1.83134 z M 61.44,98.61808 c 0,-0.320054 -0.213626,-1.30128 -0.474726,-2.180499 -0.334868,-1.127616 -0.388586,-1.898935 -0.18234,-2.61808 C 61.024794,92.976189 60.986762,92.8 60.562861,92.8 59.943194,92.8 58.88,93.710982 58.88,94.241936 c 0,0.210509 0.336013,1.016189 0.746694,1.790403 C 60.037376,96.806554 60.472118,97.836 60.59279,98.32 60.838515,99.305568 61.44,99.517194 61.44,98.61808 Z M 78.08,78.88 c 0.219101,-0.264 0.590669,-0.48 0.825709,-0.48 0.235037,0 0.995001,-0.54 1.688806,-1.2 0.693802,-0.66 1.383866,-1.2 1.533472,-1.2 0.149607,0 0.316714,-0.620643 0.371351,-1.379206 0.09688,-1.345066 -0.52904,-3.758772 -1.415079,-5.456903 -0.242173,-0.464141 -0.441203,-1.088736 -0.442288,-1.38799 -9.6e-4,-0.299255 -0.198461,-0.659255 -0.438617,-0.8 C 79.963197,66.835155 79.527501,66.252 79.235136,65.68 c -0.292365,-0.572 -0.66217,-1.04 -0.821789,-1.04 -0.159622,0 -0.388473,-0.324 -0.508563,-0.72 C 77.423216,62.332 75.52,61.057507 75.52,62.323024 c 0,0.309664 -0.288,0.742886 -0.64,0.962714 -0.352,0.219827 -0.64,0.563635 -0.64,0.764016 0,0.200384 -0.504,0.979398 -1.12,1.731142 -0.616,0.751747 -1.12,1.586413 -1.12,1.854813 0,0.2684 -0.267341,0.676166 -0.594093,0.906147 C 71.079155,68.771834 70.700262,69.32 70.563923,69.76 c -0.136339,0.44 -0.550982,1.229958 -0.92143,1.755462 -0.370448,0.525508 -0.631271,1.204986 -0.579607,1.509956 0.122167,0.7211 1.977517,2.814582 2.494429,2.814582 0.219757,0 0.480058,0.253638 0.578448,0.563638 0.206589,0.650906 3.162963,2.502794 4.344237,2.721255 0.44,0.08137 0.890368,0.167561 1.000819,0.191529 C 77.591267,79.34039 77.860899,79.144 78.08,78.88 Z m -9.473197,-4.508877 c 0.234608,-0.611382 -0.05316,-1.174409 -0.468915,-0.917456 -0.38072,0.235299 -0.390845,1.426333 -0.01213,1.426333 0.157171,0 0.373638,-0.228995 0.48104,-0.508877 z"
         id="path1568" />
    </g>
  </g>
</svg>
