<?xml version="1.0" encoding="UTF-8" standalone="no"?>
<!-- Created with Inkscape (http://www.inkscape.org/) -->

<svg
   version="1.1"
   id="svg2"
   width="192"
   height="288"
   viewBox="0 0 192 288"
   sodipodi:docname="head16.svg"
   inkscape:version="1.2.2 (732a01da63, 2022-12-09)"
   xmlns:inkscape="http://www.inkscape.org/namespaces/inkscape"
   xmlns:sodipodi="http://sodipodi.sourceforge.net/DTD/sodipodi-0.dtd"
   xmlns="http://www.w3.org/2000/svg"
   xmlns:svg="http://www.w3.org/2000/svg">
  <defs
     id="defs6" />
  <sodipodi:namedview
     id="namedview4"
     pagecolor="#ffffff"
     bordercolor="#000000"
     borderopacity="0.25"
     inkscape:showpageshadow="2"
     inkscape:pageopacity="0.0"
     inkscape:pagecheckerboard="0"
     inkscape:deskcolor="#d1d1d1"
     showgrid="false"
     inkscape:zoom="2.8263889"
     inkscape:cx="76.953317"
     inkscape:cy="108.08845"
     inkscape:window-width="1920"
     inkscape:window-height="1001"
     inkscape:window-x="-9"
     inkscape:window-y="-9"
     inkscape:window-maximized="1"
     inkscape:current-layer="g8" />
  <g
     inkscape:groupmode="layer"
     inkscape:label="Image"
     id="g8">
    <g
       id="g170"
       inkscape:label="g170"
       transform="translate(4,6)">
      <path
         id="path178"
         style="display:inline;fill:#635b58;stroke-width:0.32"
         inkscape:label="hair1"
         d="m 97.568359,22.421875 c -0.324367,0.0031 -0.719252,0.151688 -1.224609,0.431641 -0.542357,0.300449 -1.072275,0.345047 -1.757812,0.148437 -1.398865,-0.401188 -1.689009,-0.358888 -2.341797,0.341797 -0.383098,0.411207 -0.731301,0.530159 -1.023438,0.349609 -0.243533,-0.150505 -0.626293,-0.203627 -0.851562,-0.117187 -0.22527,0.08645 -0.662215,0.01639 -0.970703,-0.15625 -0.395482,-0.221322 -0.768064,-0.178251 -1.263672,0.146484 -0.628406,0.411749 -0.844232,0.387388 -2.03711,-0.234375 l -1.333984,-0.695312 -0.917969,0.876953 c -0.869694,0.83322 -0.953368,0.85091 -1.652344,0.361328 -0.953163,-0.667621 -1.146767,-0.649478 -1.392578,0.125 -0.240675,0.758301 -0.885526,0.829952 -1.441406,0.160156 -0.570241,-0.687098 -0.86588,-0.598733 -1.349609,0.400391 -0.364921,0.753727 -0.592379,0.865067 -1.576172,0.779297 -1.076606,-0.09386 -1.180362,-0.01943 -1.667969,1.199218 -0.538356,1.345486 -1.049887,1.652274 -1.369141,0.820313 -0.335925,-0.875402 -0.998094,-0.497398 -1.683593,0.960937 -0.632886,1.346408 -0.75762,1.439454 -1.929688,1.439454 -1.154357,0 -1.28444,0.0909 -1.632812,1.146484 -0.330816,1.002381 -0.477797,1.121468 -1.171875,0.947266 -1.462833,-0.367148 -1.983242,0.04919 -2.210938,1.765625 -0.11536,0.869623 -0.275862,1.580078 -0.357422,1.580078 -0.08156,0 -0.531461,-0.298999 -0.998047,-0.666016 l -0.847656,-0.667969 -0.388672,0.908204 c -0.213236,0.499015 -0.39249,1.22181 -0.40039,1.607421 -0.01871,0.90905 -0.477833,1.179458 -0.978516,0.576172 C 60.579384,36.694972 60.221043,36.480469 60,36.480469 c -0.420029,0 -1.200515,2.488605 -0.921875,2.939453 0.08814,0.142621 0.02931,0.259766 -0.128906,0.259766 -0.158218,0 -0.479593,-0.582101 -0.714844,-1.294922 -0.235254,-0.712822 -0.546158,-1.371168 -0.691406,-1.460938 -0.479964,-0.296637 -0.902344,1.483605 -0.902344,3.798828 0,2.114239 -0.03769,2.234123 -0.498047,1.658203 -0.459662,-0.575048 -0.487168,-0.472624 -0.378906,1.378907 0.06432,1.099998 6.54e-4,2 -0.142578,2 -0.143232,0 -0.261719,-0.288627 -0.261719,-0.640625 0,-0.352 -0.144313,-0.638672 -0.320313,-0.638672 -0.188507,0 -0.318359,1.130031 -0.318359,2.75 0,2.527818 -0.05569,2.763624 -0.675781,2.925781 -0.642699,0.168071 -0.667299,0.32932 -0.527344,3.410156 0.130717,2.877437 0.257089,3.428694 1.142578,5.00586 0.547306,0.974824 1.346527,2.102963 1.775391,2.505859 l 0.779297,0.732422 0.582031,-0.986328 c 1.686901,-2.855696 3.99889,-0.781111 4.433594,3.976562 0.181933,1.991218 0.113693,2.425949 -0.613281,3.917969 -0.599539,1.230465 -0.816407,2.190982 -0.816407,3.597656 v 1.917969 l 1.75,-1.904297 c 0.962859,-1.047348 1.842857,-2.269677 1.955078,-2.716797 0.112221,-0.447118 0.331361,-0.8125 0.488282,-0.8125 0.156917,0 0.285156,-0.213363 0.285156,-0.472656 0,-0.512641 1.307694,-3.426361 1.65625,-3.691406 0.118045,-0.08976 0.316713,-0.575488 0.443359,-1.080078 0.131635,-0.524483 0.624308,-1.140599 1.150391,-1.4375 1.372398,-0.774531 1.651101,-2.232547 1.248047,-6.535157 -0.461821,-4.929929 -0.430049,-6.485968 0.142578,-7.058593 0.264,-0.264 0.480469,-0.6987 0.480469,-0.966797 0,-0.961771 3.668701,-4.03421 4.820312,-4.03711 0.275072,-6.6e-4 0.922527,-0.446521 1.439453,-0.990234 0.516928,-0.54371 1.372391,-1.208791 1.900391,-1.478516 1.986668,-1.014871 3.656669,-2.18605 3.667969,-2.572265 0.0064,-0.22 0.336422,-0.401704 0.732422,-0.402344 0.395998,-6.56e-4 1.151689,-0.261351 1.679687,-0.580078 0.922219,-0.556694 2.577886,-1.064202 4.958984,-1.521485 2.19966,-0.422435 7.813532,-0.413457 8.320313,0.01367 0.264,0.222505 1.468433,0.490982 2.675778,0.597657 1.79281,0.158398 2.33123,0.343402 2.94336,1.003906 0.41224,0.444814 0.93762,0.818208 1.16602,0.830078 1.2598,0.06552 2.6128,0.339186 3.17969,0.642578 0.85543,0.457821 1.875,1.494645 1.875,1.90625 0,0.181526 0.20252,0.407283 0.44921,0.501953 0.2467,0.09467 0.53775,0.644965 0.64649,1.22461 0.10875,0.579642 0.48152,1.313466 0.83008,1.628906 0.34856,0.31544 0.63476,0.748636 0.63476,0.96289 0,0.642352 1.61365,5.381422 1.98438,5.828126 0.18918,0.22794 0.45977,0.952595 0.60156,1.609374 0.81025,3.75319 1.00494,4.470375 1.42773,5.242188 0.2559,0.467155 0.4668,1.131456 0.4668,1.476562 0,0.83024 1.16909,2.289374 2.12891,2.654297 0.42161,0.160294 0.88885,0.617067 1.03711,1.015625 0.20759,0.558058 0.32337,0.191717 0.5039,-1.595703 0.28936,-2.864957 1.1557,-4.352239 2.61914,-4.496093 0.58249,-0.05726 1.19364,0.105746 1.48633,0.398437 0.74841,0.748401 1.17797,0.604301 1.39258,-0.46875 0.10633,-0.531659 0.31939,-1.043942 0.47266,-1.138672 0.15327,-0.09472 0.27929,-0.947307 0.27929,-1.894531 0,-0.947224 0.14236,-1.811148 0.31836,-1.919922 0.56511,-0.349258 0.3425,-3.132797 -0.39648,-4.953125 -0.39435,-0.9714 -0.79302,-1.839734 -0.88672,-1.927734 -0.90558,-0.850355 -1.27539,-2.10009 -1.27539,-4.308594 0,-1.999123 -0.11196,-2.522121 -0.65235,-3.0625 -0.55216,-0.552182 -0.82102,-0.604032 -1.76367,-0.34375 -1.02436,0.282838 -1.14881,0.238703 -1.55859,-0.548828 -0.24481,-0.470493 -0.81866,-1.204182 -1.27539,-1.63086 -0.45672,-0.42668 -0.8358,-0.931777 -0.8418,-1.121093 -0.0127,-0.395875 -4.39986,-4.02474 -6.06836,-5.019532 -0.616,-0.36727 -1.59583,-1.121308 -2.17773,-1.675781 -0.94541,-0.90083 -1.23882,-0.999804 -2.75586,-0.933594 -1.34719,0.0588 -1.81612,-0.05737 -2.27149,-0.560547 -0.31562,-0.348753 -0.91728,-0.634765 -1.33593,-0.634765 -0.42389,0 -1.17662,-0.424378 -1.69922,-0.958985 -1.14259,-1.168847 -1.52426,-1.200818 -1.91992,-0.160156 -0.427536,1.124483 -0.784303,0.998452 -1.365238,-0.480468 -0.340036,-0.865645 -0.685949,-1.26306 -1.226563,-1.257813 z m 4.439451,36.181641 c -1.52362,0.02695 -2.768678,0.1669 -3.447263,0.416015 l -1.121094,0.41211 0.08203,2.363281 c 0.04524,1.300469 -0.08961,2.489129 -0.0039,2.720703 0.118564,0.320407 0.785164,0.516834 1.94336,-0.08789 3.077407,-1.606798 4.936947,-2.182635 8.345707,-1.800781 1.68997,0.189312 3.93814,0.665333 4.99414,1.058594 1.056,0.393258 2.39892,0.786289 2.98633,0.873047 l 1.06836,0.158203 -0.47853,-0.925781 c -0.3079,-0.595411 -1.57083,-1.582172 -3.54687,-2.771485 -2.78807,-1.678054 -3.31068,-1.874622 -5.70899,-2.15039 -1.78722,-0.205504 -3.58965,-0.292573 -5.11328,-0.265626 z m -19.623044,0.753906 c -1.484226,-0.114071 -4.464611,0.756191 -7.589844,2.255859 -2.259487,1.084235 -3.032857,1.649163 -3.984375,2.90625 -0.649543,0.858139 -1.295512,1.609299 -1.435547,1.667969 -0.140035,0.05867 -0.653893,0.928427 -0.653893,1.177759 0,0.629642 0.663302,-0.04647 1.823815,-0.931665 1.14666,-0.8746 2.457077,-1.295921 6.095703,-1.957032 3.303146,-0.600124 5.551653,-0.59733 7,0.0078 l 1.160156,0.484375 v -1.554688 c 0,-1.918834 -0.755854,-3.509145 -1.875,-3.947265 -0.147015,-0.05755 -0.328984,-0.09308 -0.541015,-0.109375 z m 21.816404,11.521484 c -0.026,0.0093 -0.051,0.02042 -0.0762,0.03125 0.0258,0.04099 0.0529,0.07309 0.084,0.09375 -0.003,-0.04154 -0.005,-0.08299 -0.008,-0.125 z m -31.718748,0.292969 c -0.0077,0.0014 -0.02479,0.0089 -0.04102,0.01758 0.01258,-0.003 0.02433,-0.0076 0.03711,-0.01172 0.0089,-0.0057 0.0093,-0.0068 0.0039,-0.0059 z m 51.527348,5.087891 c -0.13873,-0.03221 -0.19812,0.263673 -0.32422,1.023437 -0.11648,0.701774 -0.33688,1.564016 -0.49024,1.916016 -0.15336,0.351998 -0.36977,1.238939 -0.48047,1.970703 -0.11071,0.731765 -0.40276,1.595689 -0.64843,1.919922 -0.24568,0.324232 -0.45105,1.071326 -0.45703,1.660156 -0.0109,1.147598 -0.61513,2.161214 -2.79297,4.683594 -0.75719,0.876978 -1.37696,1.77698 -1.37696,2 0,0.223024 -0.29008,0.40625 -0.64648,0.40625 -0.46773,0 -0.70344,0.274974 -0.8457,0.986328 -0.15682,0.784051 -0.32653,0.95148 -0.82813,0.820312 -0.47448,-0.124083 -0.71638,0.0607 -0.97656,0.75 -0.19015,0.503757 -0.65481,1.058053 -1.0332,1.230469 -0.37841,0.172413 -0.94984,0.865345 -1.26954,1.539063 -0.3197,0.67372 -1.05118,1.721863 -1.625,2.330078 -1.31186,1.390536 -1.89923,1.039646 -2.22461,-1.326172 -0.12386,-0.900567 -0.61697,-2.513408 -1.0957,-3.583984 -0.47874,-1.070574 -0.96627,-2.306096 -1.08398,-2.746094 -0.11771,-0.44 -0.57855,-1.210276 -1.02344,-1.710938 -0.63698,-0.71684 -0.90273,-0.830839 -1.25195,-0.541015 -0.34461,0.286001 -0.51436,0.241255 -0.75977,-0.197266 -0.29541,-0.527866 -0.38383,-0.529937 -1.38477,-0.04492 -0.97471,0.472316 -3.872889,1.104861 -6.123042,1.337891 -0.490846,0.05083 -1.05932,0.260492 -1.263672,0.464844 -0.204352,0.20435 -0.547586,0.371093 -0.761718,0.371093 -0.214132,0 -0.442423,0.161269 -0.507813,0.357422 -0.235197,0.705592 -4.304649,0.344817 -5.333984,-0.472656 -0.242004,-0.192189 -0.854007,-0.304963 -1.359375,-0.251953 -1.017265,0.106704 -1.55371,-0.311023 -2.464844,-1.916016 -0.807461,-1.422364 -1.826283,-1.346942 -4.00586,0.294922 -0.907364,0.683515 -2.011173,1.335696 -2.451171,1.449219 -0.44,0.113527 -1.115539,0.700279 -1.501953,1.302734 -0.531539,0.828715 -0.999505,1.144617 -1.923829,1.300781 -0.910501,0.153827 -1.414425,0.48731 -1.978515,1.310547 C 71.298536,95.50209 70.77184,96 70.544922,96 c -0.714728,0 -1.425593,-0.37394 -1.431641,-0.753906 -0.006,-0.377014 -1.383075,-2.218908 -2.232422,-2.984375 -1.727126,-1.556565 -2.893506,-2.341797 -3.478515,-2.341797 -0.44192,0 -0.976318,-0.467326 -1.550782,-1.359375 -1.399525,-2.17325 -1.691406,-2.81868 -1.691406,-3.732422 0,-0.923608 -0.511639,-1.628906 -1.183594,-1.628906 -0.304353,0 -0.416015,0.644496 -0.416015,2.40039 0,1.319998 0.128539,2.400391 0.285156,2.400391 0.156618,0 0.573063,0.611377 0.925781,1.359375 0.818963,1.736745 1.818212,2.803085 3.527344,3.763672 0.854401,0.4802 1.436539,1.068468 1.564453,1.578125 0.112121,0.446718 0.395923,1.0053 0.63086,1.240234 0.234933,0.234938 0.866511,1.062993 1.402343,1.841797 0.53583,0.778802 1.18815,1.416016 1.449219,1.416016 0.261065,0 0.555561,0.21145 0.654297,0.46875 0.09873,0.2573 0.466553,0.558271 0.818359,0.669921 0.351808,0.11166 0.831953,0.65785 1.066407,1.21289 0.234456,0.55504 0.742647,1.22428 1.128906,1.48828 2.430874,1.66145 3.237356,2.33 3.404297,2.81446 0.309326,0.89765 3.841467,4.1762 5.037109,4.67578 0.610452,0.25506 1.297449,0.76196 1.525391,1.12695 0.227946,0.365 0.573191,0.66406 0.767578,0.66406 0.194387,0 0.614366,0.28789 0.933594,0.64063 0.319224,0.35274 1.168625,0.79112 1.888671,0.97461 2.121007,0.5405 3.070313,0.9927 3.070313,1.46289 0,0.24265 0.220712,0.4414 0.490234,0.4414 0.269526,0 0.577742,0.23079 0.685547,0.51172 0.144189,0.3758 0.448636,0.45871 1.150391,0.31836 0.52467,-0.10489 1.872143,-0.18945 2.994141,-0.18945 1.522092,0 2.039062,-0.11356 2.039062,-0.44336 0,-0.63322 1.784202,-1.88073 3.898438,-2.72656 1.413882,-0.56565 2.250712,-1.21417 3.759762,-2.91211 1.06766,-1.20132 1.94141,-2.39557 1.94141,-2.6543 0,-0.44341 0.9601,-1.2391 2.39844,-1.98828 0.73798,-0.38439 3.04135,-4.58648 2.82422,-5.15234 -0.1914,-0.49878 0.43061,-0.874999 0.70703,-0.42774 0.26424,0.42756 1.43164,-0.546936 1.43164,-1.195311 0,-0.242247 0.21451,-0.523695 0.47851,-0.625 0.264,-0.101309 0.48047,-0.306382 0.48047,-0.455078 0,-0.148698 0.50314,-0.759174 1.11914,-1.357422 0.616,-0.598252 1.1211,-1.325015 1.1211,-1.615235 0,-0.290219 0.13298,-0.527343 0.29492,-0.527343 0.28182,0 2.18521,-1.876567 3.5332,-3.482422 0.35141,-0.418631 0.73624,-1.282555 0.85547,-1.919922 0.11923,-0.637371 0.39279,-1.302516 0.60937,-1.478516 0.21661,-0.176 0.70701,-1.256394 1.08985,-2.40039 0.38285,-1.143998 0.99542,-2.310242 1.36133,-2.59375 0.88704,-0.687277 1.22456,-4.882632 0.47265,-5.88086 -0.17114,-0.227208 -0.28395,-0.365437 -0.36718,-0.384765 z M 95.050781,94.71875 c 0.635419,0.02556 1.274188,0.192309 1.384766,0.480469 0.101305,0.263998 0.402504,0.480469 0.667969,0.480469 0.641441,0 1.537109,1.408231 1.537109,2.416015 0,0.443148 -0.216154,1.053299 -0.478516,1.355469 -0.262359,0.302166 -0.568232,0.940278 -0.68164,1.417968 -0.246698,1.03914 -1.380446,1.4094 -5,1.63477 -1.319997,0.0822 -2.661086,-0.0723 -2.925086,0.009 -0.938782,0.29037 -1.840993,0.15386 -2.668664,-0.93128 -0.719368,-0.94314 -0.824458,-1.36403 -0.742188,-2.941405 l 0.0957,-1.839844 2.240235,-0.210937 c 2.550234,-0.240199 5.026936,-0.953858 5.208984,-1.5 0.09332,-0.279958 0.725911,-0.396654 1.361328,-0.371094 z"
         sodipodi:nodetypes="sssssssssccsssssssssssssccccsssssssssssssssscccsssccssssssssscsscsssssscsssssssssssssssssssscssssscssssssssssscccsssscccsssssssssccccsssccccccccccsssssscsssssssssssssssssssssssssssssssssssssssssssssssssssssssscsssssssssssssssssssssssssssscscccss" />
      <path
         id="path174"
         style="display:inline;fill:#6a3013;stroke-width:0.32"
         inkscape:label="eye1"
         d="m 107.48828,67.199219 c -0.97814,0 -4.122,1.05872 -4.125,1.388672 -0.001,0.14725 0.42903,0.431563 0.95703,0.630859 1.23849,0.467482 1.08036,1.329173 -0.1281,2.485767 -0.80086,0.76723 -0.78261,0.901308 -1.13951,0.471264 -0.5109,-0.615551 -0.97046,-0.351882 -0.98046,0.5625 -0.0102,0.962703 1.1114,4.392517 1.70952,4.617749 0.26765,0.100787 0.95767,0.614882 1.39767,0.873474 0.44,0.258592 1.6845,0.462925 2.0365,0.453125 0.50669,-0.01407 0.36099,-0.373702 -0.0343,-0.54591 -0.27464,-0.119629 -0.30955,-0.732685 -0.56291,-0.958648 -0.25338,-0.226 -1.1337,-0.269743 -1.47029,-0.50229 -0.44182,-0.305189 -0.54011,-0.591623 -0.35156,-1.029297 0.14322,-0.333413 0.7874,-0.835288 0.754,-1.115234 -0.0952,-0.798814 0.0136,-2.270445 0.36904,-2.050781 0.17633,0.108979 0.91736,0.08365 0.91736,-0.163501 0,-0.247107 -0.0766,-0.611507 0.26143,-0.917408 0.584,-0.528475 -0.0166,-0.459773 1.86792,0.09759 1.09102,0.322627 2.44426,0.932754 2.87229,1.328754 0.42803,0.39596 0.51128,5.207694 1.93908,1.758062 0.13906,-0.335988 -0.57868,-2.321063 -1.4655,-4.095684 -0.84423,-1.689369 -1.03307,-2.197448 -2.40638,-2.788232 -0.86493,-0.37208 -2.0257,-0.50083 -2.41784,-0.50083 z m -31.324218,2.240234 c -3.398598,0 -3.700919,0.134261 -2.882812,1.283203 0.842728,1.183519 0.810131,1.432455 -0.296875,2.220703 -0.793506,0.565053 -1.061127,0.608273 -1.761719,0.289063 -1.097568,-0.500102 -1.536086,-0.404086 -1.446996,1.548334 0.0775,1.698329 0.741404,3.973443 1.32359,3.973443 0.181866,0 0.208472,-0.0055 0.112024,0.150525 -0.09645,0.156057 -0.0055,0.484305 0.256555,0.7018 0.262061,0.217491 0.498675,0.739899 0.498675,0.971198 0,0.234609 0.81262,0.07878 1.392871,0.150794 2.269024,0.281554 4.918798,0.18732 5.615234,-0.199219 0.683156,-0.379184 0.975164,-0.79859 2.228516,-3.201172 0.636853,-1.220837 0.309304,-3.504993 -0.726563,-5.070313 -0.438094,-0.662031 -0.796874,-1.340608 -0.796874,-1.507812 0,-0.912049 -1.066685,-1.310547 -3.515626,-1.310547 z m -0.861328,2.699219 c 0.169137,-0.0094 0.35649,0.08662 0.654297,0.283203 0.870248,0.57435 0.620825,1.932229 -0.04319,3.263245 l -0.240501,1.725194 0.905487,-1.013403 c 0.437951,-0.411432 0.752228,-1.128276 0.643835,-1.322692 -0.113604,-0.203757 -0.01988,-0.191498 0.220703,0.03125 0.300808,0.278463 0.322774,0.50273 0.07617,0.800781 -0.188143,0.22746 -0.266738,0.808969 -0.173828,1.292969 0.136745,0.712293 0.340893,0.880859 1.072266,0.880859 0.788685,0 0.894987,0.112668 0.835937,0.88086 -0.05748,0.747867 -0.211412,0.878906 -1.021484,0.878906 -0.524253,0 -1.142427,0.18043 -1.375,0.40039 -0.539875,0.510676 -0.866134,0.50496 -1.396484,-0.02539 -0.234144,-0.234141 -0.583622,-0.374467 -0.775391,-0.310547 -0.19177,0.06392 -0.752238,-0.03685 -1.246094,-0.224609 l -0.898437,-0.341797 0.853515,-0.890625 c 0.469661,-0.490217 0.756518,-0.989579 0.636719,-1.109375 -0.473888,-0.473891 -1.013587,-0.170013 -1.414062,0.796875 -0.263251,0.6355 -0.474777,0.845474 -0.566407,0.560546 -0.08049,-0.250258 -0.28806,-0.547388 -0.460937,-0.660156 -0.198762,-0.129652 -0.154836,-0.56455 0.11914,-1.183594 0.253149,-0.571869 0.523802,-0.833731 0.650391,-0.628906 0.121866,0.197187 0.475471,0.25016 0.808594,0.121094 0.570956,-0.221229 0.569596,-0.2468 -0.0293,-0.6875 -0.60996,-0.448846 -0.608939,-0.457031 0.04297,-0.457031 1.041134,0 1.499874,1.83921 0.818359,3.28125 -0.381527,0.80722 -0.362218,0.878906 0.232422,0.878906 0.356519,0 0.648437,-0.18068 0.648437,-0.402344 0,-0.221664 0.273443,-0.574601 0.607422,-0.783203 0.514509,-0.321315 0.632343,-0.279091 0.777344,0.275391 0.242064,0.925617 1.074646,0.41748 1.074646,-0.708985 0,-0.923506 -0.633853,-1.246599 -1.018005,-0.625 -0.107049,0.173206 -0.685714,-0.981564 -1.205011,-1.512798 -1.094075,-1.119224 -0.862887,-1.969435 0.01648,-2.848799 0.225605,-0.225603 -9.7e-5,-0.605586 0.169001,-0.614965 z m 33.457036,1.232422 c -0.0544,-0.03304 -0.17472,0.08548 -0.3125,0.322265 -0.2293,0.394076 -0.55329,0.512727 -1.03125,0.378907 -0.55028,-0.154105 -0.59617,-0.123029 -0.2168,0.142578 0.264,0.184835 0.55945,0.337244 0.65625,0.339844 0.30247,0.0084 0.94575,-0.74736 0.93555,-1.09961 -0.001,-0.0462 -0.0132,-0.07297 -0.0312,-0.08398 z m 4.43359,0.566406 c -0.009,-1.93e-4 -0.0203,0.0046 -0.0312,0.01563 -0.089,0.08822 -0.23514,0.529835 -0.36133,1.246094 -0.10664,0.605266 -0.10965,1.010448 0.006,0.90039 0.11007,-0.110057 0.27539,-0.680936 0.36719,-1.269531 0.0954,-0.611848 0.0837,-0.891226 0.0195,-0.892578 z m -5.81641,1.058594 c -0.17272,0.02487 -0.36404,0.242038 -0.43945,0.630859 -0.0569,0.293415 0.0909,0.533203 0.33008,0.533203 0.2392,0 0.43555,-0.290438 0.43554,-0.644531 1e-5,-0.378003 -0.15344,-0.544398 -0.32617,-0.519531 z M 108.5,75.238281 c -0.0336,-0.0044 -0.0644,-0.0034 -0.0937,0.002 -0.19557,0.03597 -0.28575,0.276489 -0.0957,0.583985 0.11778,0.190581 0.35989,0.255267 0.53906,0.144531 0.21853,-0.135079 0.21301,-0.313151 -0.0156,-0.542969 -0.11551,-0.115513 -0.23328,-0.174447 -0.33398,-0.1875 z m -30.623047,0.955078 c 0.04366,0.01548 0.123673,0.08354 0.242188,0.201172 0.218654,0.217068 0.31727,0.475689 0.21875,0.574219 -0.09852,0.09852 -0.276316,-0.07894 -0.396485,-0.394531 -0.08683,-0.228032 -0.122806,-0.35192 -0.0957,-0.378907 0.0067,-0.0067 0.01669,-0.0071 0.03125,-0.002 z m 1.162109,0.28711 c 0.176,0 0.319101,0.108234 0.316407,0.240234 -0.0027,0.132 -0.145796,0.45475 -0.316407,0.71875 -0.250801,0.388147 -0.310453,0.341947 -0.314453,-0.240234 -0.0027,-0.396 0.138493,-0.71875 0.314453,-0.71875 z m -3.003906,3.001953 c -0.11475,0.0051 -0.195312,0.132139 -0.195312,0.33789 0,0.274387 0.144312,0.5 0.320312,0.5 0.176,0 0.320313,-0.135168 0.320313,-0.300781 0,-0.165612 -0.144313,-0.391226 -0.320313,-0.5 -0.044,-0.02719 -0.08675,-0.0388 -0.125,-0.03711 z"
         sodipodi:nodetypes="ccscccsscsscccsssccsssccsscsssssscssssssccccsccsssscsscccscsscsssscsscssssssssscsccssscscssssssssccsscccccsssccsscsscssssc" />
      <path
         style="display:inline;fill:#864729;stroke-width:0.32"
         d="m 75.46,80.214285 c -0.234144,-0.234141 -0.582614,-0.373415 -0.774384,-0.309491 -0.19177,0.06392 -0.752733,-0.0374 -1.246589,-0.225165 l -0.89792,-0.341386 0.853927,-0.891309 c 0.46966,-0.490217 0.75591,-0.989324 0.636112,-1.10912 -0.473888,-0.473891 -1.013447,-0.169657 -1.413962,0.797271 -0.263251,0.635545 -0.475178,0.844928 -0.566806,0.56 -0.08049,-0.250298 -0.287786,-0.547347 -0.460663,-0.660115 -0.198761,-0.129652 -0.155011,-0.564928 0.119005,-1.183972 0.253149,-0.571907 0.523418,-0.833164 0.650006,-0.628339 0.121866,0.197184 0.475856,0.250183 0.80898,0.121117 0.570988,-0.221229 0.569948,-0.24593 -0.02886,-0.68663 C 72.528877,75.208243 72.529648,75.2 73.181517,75.2 c 1.041174,0 1.499507,1.83792 0.817952,3.28 -0.381527,0.807264 -0.362327,0.88 0.232313,0.88 0.356519,0 0.648218,-0.18136 0.648218,-0.403024 0,-0.221664 0.27329,-0.573696 0.607309,-0.782298 0.514509,-0.321315 0.633459,-0.27926 0.778461,0.275223 0.242064,0.925657 0.85423,0.417718 0.85423,-0.708787 0,-1.004976 -0.276323,-1.176791 -0.896,-0.557114 -0.226157,0.226157 -0.384,0.249085 -0.384,0.05578 0,-0.180518 0.355562,-0.662253 0.790138,-1.070515 0.434576,-0.408262 0.701449,-0.901363 0.593056,-1.095779 -0.113604,-0.203754 -0.02029,-0.189795 0.220297,0.03295 0.300807,0.278503 0.321843,0.501949 0.07532,0.8 -0.188138,0.22746 -0.266048,0.809562 -0.173133,1.293562 0.136745,0.712333 0.341081,0.88 1.072454,0.88 0.788727,0 0.894931,0.111808 0.835885,0.88 -0.05748,0.747907 -0.210717,0.88 -1.020829,0.88 -0.524253,0 -1.143472,0.18 -1.376045,0.4 -0.539875,0.510691 -0.866752,0.504675 -1.397142,-0.02573 z m 1.02,-0.195399 c 0,-0.165612 -0.144,-0.390112 -0.32,-0.498886 -0.176,-0.108774 -0.32,0.02672 -0.32,0.301114 0,0.274387 0.144,0.498886 0.32,0.498886 0.176,0 0.32,-0.135501 0.32,-0.301114 z M 107.40959,78.32 c 0.0815,-0.131987 -0.76296,0.194103 -0.36075,-0.24 0.19024,-0.205324 -0.59346,-0.220291 -0.69678,-0.489536 -0.11957,-0.311594 -0.43579,-0.428986 -0.86995,-0.322954 -0.37516,0.09162 -0.49448,0.08137 -0.26515,-0.02278 0.319,-0.144873 0.28798,-0.28368 -0.13199,-0.590771 -0.37688,-0.275584 -0.47153,-0.591446 -0.30196,-1.00768 0.13585,-0.333453 0.28149,-1.081318 0.32365,-1.661926 0.1166,-1.606026 1.05841,-2.054266 1.74142,-0.898036 0.67969,1.15063 0.70327,1.338967 1.31346,0.832557 0.54145,-0.449363 0.46697,-1.97278 -0.0552,-2.49487 -1.02244,-1.022442 2.87981,0.114285 4.25131,1.247171 0.58366,0.482103 0.85559,0.954819 0.74667,1.297978 -0.0942,0.296848 -0.23425,0.875229 -0.31118,1.285286 -0.0769,0.410061 0.0352,1.196858 -0.15622,1.559252 -0.38138,0.722006 -2.96498,1.970939 -3.50089,1.639727 -0.18416,-0.113818 -0.52902,0.01035 -0.41499,0.194854 0.12485,0.202019 -0.23048,-0.01454 -0.69253,-0.04225 -0.42195,-0.02531 -0.7005,-0.154016 -0.619,-0.286016 z m 0.29327,-2.803808 c 0,-0.756006 -0.61549,-0.667395 -0.76632,0.110326 -0.0569,0.293415 0.0922,0.533482 0.33142,0.533482 0.2392,0 0.4349,-0.289715 0.4349,-0.643808 z m 1.13036,-0.09098 c -0.41072,-0.410717 -0.82722,-0.09328 -0.52315,0.398714 0.11778,0.190579 0.36075,0.255907 0.53992,0.145171 0.21856,-0.135079 0.21304,-0.314067 -0.0168,-0.543885 z M 78.724899,77.2 C 78.722205,76.804 78.864,76.48 79.04,76.48 c 0.400934,0 0.400934,0.339597 0,0.96 -0.250838,0.388147 -0.311136,0.342221 -0.315101,-0.24 z m -0.784326,-0.626198 c -0.173658,-0.456064 -0.136903,-0.49282 0.179136,-0.179136 0.218694,0.217068 0.317014,0.475276 0.218489,0.573801 -0.09852,0.09852 -0.277456,-0.07908 -0.397625,-0.394665 z"
         id="path176"
         inkscape:label="eye2"
         sodipodi:nodetypes="csscsssssssssssssssssssssssssssccssssscssssssssscsscssssccsssscssccssssssss" />
      <path
         id="path182"
         style="display:inline;fill:#6a3013;fill-opacity:1;stroke-width:0.32"
         inkscape:label="skin"
         d="m 95.839844,36.056641 c -0.424253,-0.0064 -0.929351,-0.0021 -1.523438,0.0098 -4.220708,0.08463 -6.494991,0.475107 -8.742187,1.503906 -0.996343,0.456141 -2.08138,0.830079 -2.41211,0.830079 -0.330731,0 -0.606881,0.18039 -0.613281,0.40039 -0.011,0.376726 -1.727899,1.587669 -3.509766,2.476563 -0.439998,0.219494 -1.303923,0.868766 -1.919921,1.443359 -0.616,0.574599 -1.622282,1.206226 -2.238282,1.404297 -1.357298,0.436428 -3.766539,2.668027 -4.035156,3.738281 -0.107124,0.426807 -0.312144,0.777344 -0.455078,0.777344 -0.566737,0 -0.674373,2.167298 -0.314453,6.365234 0.433972,5.061647 0.187297,6.742857 -1.080078,7.320313 -0.802491,0.365639 -2.281385,2.703406 -3.583783,6.294989 -0.516321,1.423844 -1.300958,2.540093 -2.667901,3.981097 -1.038916,1.095207 -1.868512,1.895731 -1.868512,2.050355 0,0.154624 -0.304675,0.50238 -0.462061,0.50238 -0.481406,0 -1.681016,1.752107 -2.099384,2.700476 -0.685038,1.552882 -0.477213,2.537364 0.884766,4.185547 0.814139,0.985224 1.28125,1.872319 1.28125,2.4375 0,0.942369 0.285136,1.578002 1.691406,3.761718 0.6154,0.955617 1.097073,1.359375 1.617187,1.359375 0.407113,0 1.076875,0.360782 1.490235,0.800782 0.413358,0.439998 0.927547,0.798828 1.140625,0.798828 0.213082,0 0.608743,0.340555 0.880859,0.755859 0.272119,0.415305 0.701781,0.961537 0.955078,1.214844 0.253302,0.253299 0.698891,0.922935 0.990235,1.486328 0.675029,1.30536 1.103245,1.28909 2.197265,-0.08203 0.589936,-0.73936 1.258806,-1.177231 2.021485,-1.320313 0.820661,-0.153955 1.336689,-0.519222 1.83789,-1.300781 0.383206,-0.597557 1.058049,-1.176508 1.498047,-1.287109 0.44,-0.110599 1.303924,-0.587439 1.919922,-1.060547 3.052416,-2.344364 4.175062,-2.421383 5.529297,-0.375 0.451977,0.682984 1.12092,1.320455 1.486328,1.416015 0.598268,0.156451 0.664063,0.03341 0.664063,-1.236328 0,-1.040037 0.126425,-1.410156 0.480468,-1.410156 0.354611,0 0.478516,0.371998 0.478516,1.421875 0,0.78161 0.153293,1.515566 0.339844,1.630859 0.186547,0.115293 1.398459,0.230713 2.693359,0.257813 1.984348,0.04152 2.47242,-0.05639 3.101563,-0.623047 0.410548,-0.369773 0.998642,-0.76044 1.30664,-0.869141 0.456,-0.160936 0.558594,-0.587172 0.558594,-2.289062 0,-1.566165 0.111643,-2.089844 0.443359,-2.089844 0.567466,0 0.826532,0.993457 0.832032,3.183594 0.0034,1.356398 0.09001,1.659994 0.388672,1.361328 0.211198,-0.2112 0.824528,-0.388531 1.361328,-0.394531 0.536798,-0.006 1.551866,-0.28885 2.255854,-0.628906 0.704,-0.340058 1.66173,-0.271052 1.91323,-0.277052 0.72316,-0.01717 1.85426,0.641327 1.85426,0.948658 0,0.153211 0.7676,0.228719 1.03134,0.492456 0.26373,0.263735 0.57128,0.866198 0.6836,1.337891 0.11231,0.47169 0.62737,1.721345 1.14453,2.777343 0.51717,1.055998 1.02179,2.603454 1.12109,3.439454 0.13492,1.135938 0.51558,1.718548 0.91582,1.718548 0.72337,0 1.96004,-1.75459 2.22481,-2.82597 0.11805,-0.477693 0.45168,-0.945213 0.74218,-1.039063 0.29051,-0.09386 0.7823,-0.61679 1.0918,-1.162109 0.30949,-0.545322 0.83111,-1.062388 1.16016,-1.148438 0.32905,-0.08605 0.75749,-0.504607 0.95117,-0.929687 0.19368,-0.425085 0.49796,-0.773438 0.67773,-0.773438 0.17977,0 0.32813,-0.131049 0.32813,-0.292969 0,-0.161918 0.86163,-1.158502 1.91601,-2.21289 1.92687,-1.926873 2.40763,-2.740638 2.73829,-4.63086 0.0985,-0.562949 0.36712,-1.310109 0.5957,-1.662109 0.22859,-0.352 0.48832,-1.412712 0.57812,-2.355469 0.0898,-0.942756 0.31037,-1.80668 0.48829,-1.919922 0.55575,-0.35371 0.91536,-2.999899 0.68164,-5.013671 -0.20314,-1.75034 -0.70397,-3.094544 -2.98243,-7.992188 -0.40939,-0.879998 -0.82867,-1.853421 -0.93164,-2.164062 -0.10298,-0.31064 -0.53369,-0.695254 -0.95507,-0.855469 -1.00417,-0.381785 -2.02874,-1.712927 -2.30665,-2.994141 -0.12228,-0.563733 -0.36895,-1.119181 -0.54687,-1.232422 -0.17792,-0.113242 -0.39407,-0.941087 -0.48047,-1.839843 -0.0864,-0.898757 -0.28195,-1.632813 -0.43555,-1.632813 -0.15361,0 -0.27929,-0.544147 -0.27929,-1.208984 0,-0.664841 -0.22974,-1.535754 -0.50977,-1.935547 C 113.5757,50.897863 112,46.368666 112,45.681641 c 0,-0.170118 -0.36078,-0.736856 -0.80078,-1.259766 -0.44,-0.522907 -0.79883,-1.234154 -0.79883,-1.580078 0,-0.345926 -0.14863,-0.803052 -0.33008,-1.015625 -2.15259,-2.521801 -2.12389,-2.502211 -3.95703,-2.691406 -0.98667,-0.101834 -1.79297,-0.323933 -1.79297,-0.494141 0,-0.170217 -0.19931,-0.233525 -0.4414,-0.140625 -0.25495,0.09783 -0.5793,-0.136796 -0.77149,-0.558594 -0.34859,-0.765086 -1.63363,-1.131772 -3.998045,-1.138672 -0.669908,-0.002 -1.278301,-0.180895 -1.363281,-0.402343 -0.08349,-0.217586 -0.633495,-0.324424 -1.90625,-0.34375 z m 27.283206,21.660156 c -1.16549,-0.02948 -2.0931,1.743644 -2.36328,4.658203 -0.17738,1.9135 -0.10161,2.309566 0.83398,4.345703 1.42791,3.107575 1.81871,4.03502 2.08984,4.958985 0.12912,0.439998 0.38893,0.992621 0.57813,1.228515 0.28165,0.351162 0.42492,0.322002 0.78906,-0.160156 0.57313,-0.758894 0.29236,-3.951239 -0.44726,-5.080078 -0.4433,-0.676506 -0.50309,-1.485032 -0.37891,-5.146485 0.14547,-4.289245 0.13716,-4.348432 -0.58984,-4.679687 -0.17498,-0.07973 -0.34523,-0.120789 -0.51172,-0.125 z m -20.41211,0.169922 c 2.17174,-0.04713 4.53938,0.164953 6.4082,0.65039 1.71156,0.444585 4.16016,1.579245 4.16016,1.927735 0,0.135843 0.64956,0.589309 1.44336,1.009765 0.79381,0.420457 1.51867,0.998415 1.60937,1.283203 0.0907,0.284788 0.44937,0.775356 0.79688,1.089844 0.34751,0.31449 0.63086,0.78314 0.63086,1.041016 0,0.653268 -3.59237,0.39259 -4.38868,-0.31836 -0.90256,-0.805816 -2.92669,-1.202186 -6.52343,-1.279296 -3.59841,-0.07715 -5.37779,0.297948 -7.400394,1.5625 -1.825329,1.141212 -2.048127,1.019071 -2.275391,-1.253907 -0.109984,-1.099998 -0.290309,-2.52703 -0.402344,-3.171875 -0.184276,-1.060631 -0.117018,-1.217056 0.712891,-1.638672 1.081585,-0.549471 3.056768,-0.855208 5.228518,-0.902343 z m -20.724612,0.824219 c 0.781388,0.04335 1.368331,0.349279 2.417969,1.058593 0.503352,0.340156 1.357912,4.668254 1.027344,5.203125 -0.167005,0.270221 -0.62475,0.319297 -1.476563,0.15625 -2.804535,-0.536827 -7.298914,-0.527494 -10.079382,0.300355 -1.608913,0.479032 -3.795618,1.812453 -3.795618,2.135192 0,0.151543 -0.707198,-0.10053 -0.97672,-0.10053 -0.269526,0 -0.417732,0.260696 -0.519037,0.524694 -0.101309,0.264 -0.470665,0.41413 -0.820313,0.41413 -0.366602,0 -0.485094,0.358055 -0.581604,0.727124 -0.27423,1.048654 -0.518175,1.047055 -0.282844,-0.0244 0.203111,-0.924757 0.354787,-1.367975 2.559424,-3.699219 0.517257,-0.546958 0.941407,-1.245266 0.941407,-1.550781 0,-0.305517 0.269414,-0.626542 0.599609,-0.712891 0.330192,-0.08635 0.772707,-0.477286 0.982422,-0.86914 0.236768,-0.442404 0.91812,-0.856247 1.798828,-1.091797 0.780088,-0.208643 1.417969,-0.513091 1.417969,-0.675782 0,-0.162689 0.465026,-0.397119 1.03125,-0.521484 C 76.796687,59.86001 77.48022,59.641917 77.75,59.5 c 0.269776,-0.141914 1.384594,-0.417915 2.478516,-0.613281 0.749827,-0.133914 1.28898,-0.201791 1.757812,-0.175781 z m -22.476562,1.128906 c -0.139462,0 -0.626384,0.442871 -1.082032,0.984375 -0.739383,0.878711 -0.828125,1.258313 -0.828125,3.53125 0,1.622767 0.161547,2.804248 0.445313,3.255859 0.244931,0.389808 0.415083,1.176049 0.376953,1.748047 -0.03813,0.571998 -0.09422,1.399844 -0.125,1.839844 C 58.264475,71.662071 58.042063,72 57.771484,72 c -0.810158,0 -1.373632,3.401724 -0.925781,5.585938 l 0.193359,0.945312 0.621094,-0.765625 c 0.341101,-0.421242 0.701802,-1.171127 0.800782,-1.666016 0.136661,-0.68331 0.362307,-0.90039 0.939453,-0.90039 0.735038,0 0.759765,-0.08206 0.759765,-2.496094 0,-1.372798 0.120668,-2.631628 0.267578,-2.798828 0.146909,-0.1672 0.525533,-1.006665 0.841797,-1.865235 0.814075,-2.209971 0.495976,-5.576292 -0.671875,-7.107421 -0.458244,-0.600794 -0.948426,-1.091797 -1.08789,-1.091797 z m 47.416014,5.86914 c 0.5855,-0.01832 1.40023,0.0594 2.75195,0.220704 1.71774,0.20498 3.19521,0.414646 3.28321,0.466796 0.088,0.05215 0.8739,0.189629 1.74804,0.306641 0.87415,0.117011 1.77254,0.365245 1.9961,0.550781 0.22356,0.185538 0.75168,0.250482 1.17383,0.144532 0.48921,-0.122784 0.91164,-0.01743 1.16601,0.289062 0.32956,0.397101 0.25236,0.616951 -0.44336,1.261719 -0.71489,0.662536 -0.84179,1.048243 -0.84179,2.554687 0,0.976401 -0.14432,1.775391 -0.32032,1.775391 -0.176,0 -0.32031,0.214577 -0.32031,0.476562 0,0.462624 -0.53001,1.237945 -1.67969,2.453125 -0.308,0.325552 -0.48839,0.591797 -0.40039,0.591797 0.62118,0 -1.58196,1.521949 -3.50781,2.423828 -1.98759,0.930795 -2.66748,1.090947 -4.53516,1.066407 -3.96529,-0.05209 -3.94134,-0.341219 -6.79101,-5.169922 -1.918748,-3.251278 -1.165034,-3.725958 0.67217,-5.638111 0.67984,-0.707579 0.88252,-1.26965 0.88252,-1.141186 0,0.128467 0.43336,-0.219332 0.96289,-0.773438 0.52953,-0.5541 1.15519,-1.007812 1.39062,-1.007812 0.23543,0 0.88029,-0.22593 1.4336,-0.501953 0.43539,-0.217212 0.7934,-0.331294 1.3789,-0.34961 z m -28.716033,2.782239 c 1.708561,0.113897 2.44638,-0.185026 2.926972,0.129871 0.430731,0.282211 0.789875,0.401683 0.796875,0.265625 0.007,-0.136058 0.227662,0.148814 0.490234,0.632812 0.262576,0.484 0.649212,1.168329 0.805945,1.168329 0.156729,0 0.415153,0.238582 0.627649,0.882452 0.511272,1.549166 0.194471,4.779683 -0.664063,6.775391 -0.73243,1.702582 -1.652684,2.523743 -3.759765,3.355469 -1.403451,0.553985 -2.488744,0.601662 -5.462891,0.242187 -1.122555,-0.135678 -1.814044,-0.395654 -2.015625,-0.755859 -0.16879,-0.30161 -0.487922,-0.546875 -0.708984,-0.546875 -0.221063,0 -0.889943,-0.360783 -1.486328,-0.800781 -0.596387,-0.44 -1.345072,-1.021912 -1.826307,-1.021912 -1.596518,10e-7 -2.013537,-0.434011 -2.013537,-4.120666 l 0.243243,-3.1831 0.761157,0.06634 c 0.486622,0.04241 1.951176,-0.667966 3.22901,-1.541644 l 2.001526,-1.342628 4.054126,-0.481389 c 0.847652,-0.02164 0.767853,0.194191 1.337372,0.232156 z m 17.010956,26.555652 c -0.399036,0.01582 -1.148897,0.0305 -1.22232,0.250763 -0.173149,0.519453 -2.636219,1.138572 -5.164331,1.340607 -1.424353,0.113827 -2.130519,0.542817 -2.246161,0.844177 -0.245472,0.639688 0.161362,3.318358 0.503906,3.318358 0.156436,0 0.406424,0.32275 0.556641,0.71875 0.268366,0.70747 0.342381,0.71727 4.232421,0.53711 2.177423,-0.10085 4.218312,-0.29807 4.535157,-0.43945 0.316843,-0.14138 0.65861,-0.67196 0.759765,-1.17774 0.101155,-0.505764 0.31878,-0.919919 0.482422,-0.919919 0.16364,0 0.540338,-0.638743 0.486688,-1.473352 -0.08319,-1.294264 -0.513472,-1.623512 -1.264032,-1.981726 C 96.396861,95.833458 96,95.508193 96,95.341797 96,95.124443 95.61974,95.03106 95.220703,95.046875 Z m -2.839844,3.059784 c 2.134456,-0.01814 4.676285,0.102828 4.996094,0.422638 0.253735,0.253731 -0.873954,-0.0022 -3.919854,-0.0022 -4.238865,0 -5.369402,0.11722 -2.556483,-0.246631 0.523266,-0.06768 0.768758,-0.167714 1.480243,-0.173761 z"
         sodipodi:nodetypes="ccsscssssssssssssssssssssssssssssssssssssssssscssssssssssssssssssssssssssscsssssssscscsssssscssssssssssssssssssssssssssssssssssssssssssscscccssssssssssssssssssssssssssssssssssssssssssscscccssssssssssssssssssssss" />
      <path
         style="display:inline;fill:#3a3b2d;stroke-width:0.32"
         d="M 89.478477,116.62488 C 89.380362,116.3692 89.079568,116.16 88.810042,116.16 88.540518,116.16 88.32,115.97915 88.32,115.75812 c 0,-0.43593 -1.072704,-0.96893 -2.950816,-1.46618 -1.30135,-0.34454 -3.048934,-1.45647 -3.707328,-2.35885 -0.229981,-0.3152 -0.625981,-0.57309 -0.88,-0.57309 -0.254022,0 -0.461856,-0.11712 -0.461856,-0.26027 0,-0.14315 -0.504,-0.45803 -1.12,-0.69973 -0.616,-0.2417 -1.12,-0.53454 -1.12,-0.65076 0,-0.29677 -1.149053,-1.58924 -1.412883,-1.58924 -0.348688,0 -1.765904,-1.72107 -1.777005,-2.15799 -0.009,-0.35241 -0.783606,-0.99262 -3.196832,-2.64201 -0.386259,-0.264 -0.894115,-0.93412 -1.128573,-1.48916 -0.234454,-0.55504 -0.742822,-1.10963 -1.129702,-1.23242 -0.988877,-0.31386 -1.824042,-1.06619 -2.902295,-2.61443 -0.511744,-0.734806 -1.110956,-1.531945 -1.331577,-1.77142 -0.220624,-0.239476 -0.620669,-0.858733 -0.888992,-1.376132 -0.268323,-0.517395 -0.916323,-1.160256 -1.44,-1.428579 -1.141863,-0.585069 -2.429571,-1.904413 -3.045715,-3.120541 -0.247258,-0.488025 -0.705354,-1.230739 -1.017991,-1.650473 -0.65151,-0.874688 -0.805744,-4.755504 -0.231632,-5.828243 0.282928,-0.528656 0.142167,-0.818311 -0.88,-1.810804 L 56.48,79.856317 v -3.579386 c 0,-3.209491 0.07441,-3.680227 0.72,-4.5552 0.840358,-1.138937 0.907277,-2.31047 0.24,-4.201731 -0.264,-0.748256 -0.48,-2.253258 -0.48,-3.344451 0,-1.707767 -0.112499,-2.089677 -0.808038,-2.743101 C 54.231315,59.628096 52.809437,56.092493 52.809027,53.12 52.808707,50.492125 53.023213,49.699955 53.789584,49.499542 54.326243,49.359203 54.4,49.029258 54.4,46.768845 54.4,45.354755 54.544,44.108774 54.72,44 c 0.176,-0.108774 0.32,-0.634755 0.32,-1.168845 0,-0.701952 0.17737,-1.017456 0.64,-1.138435 0.538794,-0.140899 0.64,-0.436486 0.64,-1.86921 0,-3.014585 1.160461,-4.462953 1.973818,-2.46351 l 0.357974,0.88 0.320397,-1.04 c 0.340307,-1.104643 1.325136,-1.414675 2.083811,-0.656 0.298666,0.298666 0.386262,0.138666 0.394176,-0.72 0.0056,-0.6072 0.201472,-1.356 0.43528,-1.664 C 62.34672,33.552362 63.68,33.38808 63.68,33.938886 c 0,0.761716 0.629994,-0.120124 0.823779,-1.153094 0.219959,-1.172483 1.097565,-1.667449 2.367613,-1.335324 0.481395,0.125888 0.699277,-0.07439 0.968544,-0.890276 0.342694,-1.038376 0.99625,-1.426384 2.41848,-1.435822 0.458742,-0.003 0.829683,-0.39255 1.223152,-1.28437 0.43535,-0.986744 0.742717,-1.28 1.341584,-1.28 0.427267,0 0.776848,0.144 0.776848,0.32 0,0.717508 0.537296,0.248474 0.916429,-0.8 0.397689,-1.09979 0.698393,-1.254403 2.202822,-1.132618 0.500551,0.04052 0.810778,-0.182512 1.020263,-0.733495 0.429123,-1.128684 0.925004,-1.323289 1.665142,-0.653473 0.626355,0.566842 0.660138,0.562153 1.210944,-0.168065 0.535683,-0.710173 0.609021,-0.72339 1.343507,-0.242135 0.720899,0.472352 0.845507,0.463813 1.728893,-0.118478 1.166784,-0.769097 1.862176,-0.795845 2.559568,-0.09845 0.449142,0.449142 0.696157,0.474386 1.565578,0.16 C 88.992038,22.666988 89.92,22.608284 89.92,22.96 c 0,0.407895 1.735014,0.279343 2.19296,-0.162483 0.264646,-0.255332 1.135443,-0.401515 2.24,-0.376034 0.993872,0.02293 2.276358,-0.06106 2.849971,-0.186648 1.212823,-0.26553 1.991895,0.217439 2.007245,1.244347 0.01,0.666526 0.02,0.667819 0.478618,0.06155 0.682636,-0.902436 1.640896,-0.839765 2.405016,0.157292 0.36676,0.478558 1.11624,0.959988 1.66551,1.069843 0.54928,0.109855 1.27345,0.4484 1.60928,0.752322 0.41078,0.371741 1.15073,0.553768 2.261,0.556199 1.45499,0.0032 1.85879,0.166286 3.4104,1.377497 0.968,0.755635 2.84,2.194047 4.16,3.19647 3.13297,2.379218 3.84,3.000204 3.84,3.372709 0,0.169207 0.432,0.720493 0.96,1.225076 0.528,0.504585 0.96,1.132176 0.96,1.394646 0,0.56593 -0.0995,0.552848 1.25338,0.164851 0.96083,-0.275561 1.18411,-0.217417 1.89499,0.493466 0.69832,0.69832 0.83335,1.187235 1.01204,3.664518 0.14202,1.968999 0.36942,3.03905 0.73067,3.438224 0.97545,1.077866 1.84432,3.531287 1.86283,5.260106 0.0317,2.957469 -0.4028,6.298262 -0.86947,6.685568 C 126.6,56.552384 126.4,56.943453 126.4,57.218557 c 0,0.275107 -0.324,0.845075 -0.72,1.266598 -0.66872,0.711824 -0.72,1.056144 -0.72,4.834698 0,3.335645 0.10085,4.222208 0.56,4.922963 0.61241,0.934646 0.78054,3.90311 0.24,4.237184 -0.176,0.108774 -0.32,0.542496 -0.32,0.963827 0,0.421335 -0.15525,1.106803 -0.34501,1.523271 -0.22582,0.495619 -0.24895,1.302297 -0.067,2.335056 0.37474,2.126544 -0.0587,4.831689 -0.91703,5.723507 -0.37586,0.390515 -0.95808,1.604893 -1.29384,2.698617 -0.33576,1.093722 -0.81897,2.068599 -1.07381,2.166391 -0.25484,0.09779 -0.46335,0.566029 -0.46335,1.040528 0,1.242765 -3.53979,5.788803 -4.50747,5.788803 -0.16089,0 -0.29253,0.272771 -0.29253,0.606157 0,0.333389 -0.432,1.068617 -0.96,1.633843 -0.528,0.565226 -0.96,1.146752 -0.96,1.292278 0,0.145527 -0.288,0.356 -0.64,0.467722 -0.352,0.111722 -0.64,0.466019 -0.64,0.787328 0,0.321309 -0.20237,0.661862 -0.44972,0.756772 -0.24735,0.0949 -0.92297,0.86633 -1.50137,1.71424 -0.57841,0.84791 -1.16804,1.58966 -1.31028,1.64833 -0.14225,0.0587 -0.26321,0.34666 -0.26881,0.64 -0.0151,0.79071 -0.62835,1.44315 -2.15994,2.29791 -0.84354,0.47077 -1.44603,1.06711 -1.56764,1.55164 -0.10864,0.43285 -0.68009,1.21069 -1.26988,1.72854 -0.5898,0.51784 -1.07681,1.10662 -1.08225,1.30839 -0.0157,0.58412 -2.58086,2.3558 -4.084817,2.82133 -1.290781,0.39954 -3.013946,1.65141 -3.298311,2.39621 -0.06984,0.18293 -1.590185,0.41955 -3.378547,0.52583 -2.674637,0.15896 -3.283219,0.11076 -3.429958,-0.27164 z M 93.96,116.48 c 1.522096,0 2.04,-0.11222 2.04,-0.44202 0,-0.63322 1.78455,-1.88163 3.89879,-2.72746 1.41388,-0.56565 2.25095,-1.2139 3.76,-2.91184 1.06766,-1.20132 1.94121,-2.39591 1.94121,-2.65464 0,-0.44341 0.96059,-1.23989 2.39893,-1.98907 0.73798,-0.38439 3.04023,-4.5848 2.8231,-5.15066 -0.1914,-0.49876 0.43121,-0.875942 0.70763,-0.42868 0.26424,0.42756 1.43034,-0.546891 1.43034,-1.195268 0,-0.242247 0.216,-0.523335 0.48,-0.62464 0.264,-0.101309 0.48,-0.305856 0.48,-0.454554 0,-0.148698 0.504,-0.75984 1.12,-1.35809 0.616,-0.598252 1.12,-1.325184 1.12,-1.615404 0,-0.290221 0.1325,-0.527674 0.29444,-0.527674 0.28182,0 2.18508,-1.875283 3.53307,-3.481142 0.35141,-0.418631 0.73647,-1.282631 0.8557,-1.92 0.11923,-0.637373 0.394,-1.302858 0.6106,-1.478858 0.21661,-0.176 0.70707,-1.256 1.08991,-2.4 0.38285,-1.144 0.99547,-2.311962 1.36138,-2.595472 0.88704,-0.687277 1.22334,-4.882256 0.47143,-5.880486 -0.45638,-0.605888 -0.48904,-0.575626 -0.69081,0.64 -0.11648,0.701776 -0.33725,1.563958 -0.49061,1.915958 -0.15336,0.352 -0.36941,1.23872 -0.48011,1.970486 -0.11071,0.731767 -0.40229,1.595767 -0.64796,1.92 -0.24568,0.324234 -0.45126,1.071284 -0.45686,1.660116 -0.0109,1.1476 -0.61561,2.161516 -2.79347,4.6839 -0.75719,0.87698 -1.37671,1.77698 -1.37671,2 0,0.223024 -0.2916,0.405498 -0.648,0.405498 -0.46773,0 -0.70284,0.27417 -0.8451,0.985526 -0.15682,0.784052 -0.326,0.951821 -0.8276,0.820653 -0.47448,-0.124083 -0.71602,0.06175 -0.9762,0.751043 -0.19015,0.503757 -0.65533,1.056986 -1.03374,1.229402 -0.37841,0.172413 -0.94959,0.864704 -1.26929,1.538422 -0.3197,0.673722 -1.05076,1.722576 -1.62458,2.330791 -1.31188,1.390533 -1.89968,1.040393 -2.22506,-1.325431 -0.12386,-0.900569 -0.61689,-2.513324 -1.09562,-3.583904 C 106.41607,93.515926 105.92807,92.28 105.81036,91.84 c -0.11771,-0.44 -0.57801,-1.209632 -1.0229,-1.710294 -0.63698,-0.716842 -0.90312,-0.83208 -1.25234,-0.542256 -0.34461,0.286003 -0.51385,0.242252 -0.75926,-0.196269 -0.29541,-0.527869 -0.38489,-0.530826 -1.38583,-0.04581 -0.97473,0.472316 -3.872324,1.10608 -6.122481,1.33911 -0.490848,0.05083 -1.059648,0.259619 -1.264,0.463971 C 93.799197,91.352803 93.4568,91.52 93.242666,91.52 c -0.214132,0 -0.442829,0.160493 -0.508215,0.356646 -0.235197,0.705594 -4.30512,0.345501 -5.334457,-0.471974 C 87.15799,91.21248 86.546506,91.098605 86.041136,91.151613 85.023869,91.258317 84.488109,90.842054 83.576973,89.237059 82.76951,87.814691 81.749341,87.889658 79.56976,89.531526 78.662394,90.215043 77.56,90.867171 77.12,90.980694 c -0.44,0.113527 -1.116157,0.699332 -1.502573,1.301789 -0.531539,0.828717 -1,1.145623 -1.924326,1.301789 -0.910503,0.153827 -1.414583,0.48783 -1.978675,1.311069 C 71.298118,95.502902 70.771843,96 70.544925,96 69.830195,96 69.120227,95.625731 69.114176,95.245763 69.10816,94.868749 67.729347,93.027066 66.88,92.261597 65.15287,90.70503 63.986781,89.92 63.40177,89.92 62.95985,89.92 62.426678,89.452051 61.852214,88.56 60.452685,86.386746 60.16,85.741165 60.16,84.827421 60.16,83.903811 59.647955,83.2 58.976,83.2 c -0.304355,0 -0.416,0.644102 -0.416,2.4 0,1.32 0.128141,2.4 0.284758,2.4 0.156618,0 0.573351,0.612 0.926071,1.36 0.818963,1.736749 1.818659,2.803366 3.527795,3.763955 0.854403,0.480202 1.437555,1.067831 1.565469,1.577488 0.112121,0.44672 0.396077,1.004442 0.631014,1.239376 0.234935,0.234938 0.865565,1.064365 1.401399,1.843171 0.53583,0.778804 1.187843,1.41601 1.448912,1.41601 0.261065,0 0.555452,0.210518 0.654188,0.467818 0.09873,0.257302 0.46736,0.559182 0.819168,0.670832 0.351808,0.11166 0.831479,0.65715 1.065933,1.21219 0.234458,0.55504 0.742314,1.22516 1.128573,1.48916 2.43088,1.66145 3.238272,2.3284 3.405213,2.81286 0.309328,0.89767 3.841021,4.17656 5.036665,4.67614 0.610452,0.25506 1.296407,0.76238 1.524349,1.12737 0.227946,0.365 0.573485,0.66363 0.767872,0.66363 0.194387,0 0.614615,0.28861 0.933843,0.64135 0.319226,0.35274 1.169546,0.79148 1.889594,0.97497 2.121011,0.5405 3.069184,0.99231 3.069184,1.4625 0,0.24265 0.220518,0.44118 0.490042,0.44118 0.269526,0 0.578249,0.22986 0.686054,0.51079 0.144189,0.37575 0.448198,0.46035 1.149955,0.32 C 91.490723,116.56586 92.838,116.48 93.96,116.48 Z m -5.536662,-13.66413 c -0.383165,-0.0739 -1.074356,-0.62945 -1.535981,-1.23467 -0.71937,-0.94314 -0.825603,-1.36342 -0.743338,-2.9408 L 86.24,96.8 88.48,96.589021 c 2.55024,-0.240199 5.028099,-0.953319 5.210147,-1.499463 0.18664,-0.559916 2.524419,-0.465878 2.745575,0.110442 0.101305,0.264 0.401392,0.48 0.666857,0.48 0.641443,0 1.537421,1.407696 1.537421,2.415482 0,0.443148 -0.214659,1.052953 -0.477021,1.355123 -0.262361,0.302166 -0.569811,0.940235 -0.683219,1.417925 -0.246698,1.03914 -1.380198,1.40986 -4.99976,1.63523 -1.32,0.0822 -2.616,0.21625 -2.88,0.29791 -0.264,0.0816 -0.793498,0.088 -1.176662,0.0142 z m 7.992742,-1.19963 c 0.316845,-0.14138 0.658845,-0.67087 0.76,-1.17665 0.101155,-0.505772 0.317811,-0.91959 0.481453,-0.91959 0.163645,0 0.253645,-0.682861 0.2,-1.517472 C 97.774346,96.708262 97.63056,96.423283 96.88,96.065069 96.396,95.834074 96,95.508934 96,95.342538 c 0,-0.434708 -1.522726,-0.374356 -1.669571,0.06617 -0.173149,0.519453 -2.901479,1.24817 -5.429597,1.450205 -1.424355,0.113827 -2.197206,0.322189 -2.312848,0.623549 -0.245472,0.63969 0.160886,3.317538 0.50343,3.317538 0.156436,0 0.407332,0.324 0.557549,0.72 0.268368,0.70747 0.342032,0.71681 4.23208,0.53665 2.177427,-0.10085 4.218192,-0.29903 4.535037,-0.44041 z m -7.277494,-3.02617 c -0.452365,-0.731939 7.509206,-0.790278 8.239113,-0.06037 0.253735,0.253735 -0.808905,0.350301 -3.854813,0.350301 -2.312812,0 -4.28575,-0.130467 -4.3843,-0.289931 z M 110.47731,98.32 c 0.46037,-0.484 0.93363,-1.270838 1.05168,-1.748534 0.11805,-0.477693 0.45232,-0.945322 0.74282,-1.039175 0.29051,-0.09386 0.78141,-0.616816 1.09091,-1.162137 0.30949,-0.545322 0.83194,-1.061895 1.16099,-1.147946 0.32905,-0.08605 0.75674,-0.504246 0.95042,-0.929328 0.19368,-0.425085 0.49924,-0.77288 0.67901,-0.77288 0.17977,0 0.32686,-0.13248 0.32686,-0.2944 0,-0.16192 0.86268,-1.157085 1.91708,-2.211475 1.92687,-1.926877 2.40798,-2.740352 2.73864,-4.630576 0.0985,-0.562951 0.36607,-1.311549 0.59465,-1.663549 0.22859,-0.352 0.4891,-1.41135 0.57892,-2.354109 0.0898,-0.942758 0.3089,-1.806758 0.48682,-1.92 0.55577,-0.353712 0.91585,-3.000803 0.68213,-5.014579 -0.20314,-1.750342 -0.70458,-3.093658 -2.98304,-7.991312 -0.40939,-0.88 -0.8286,-1.85416 -0.93157,-2.164803 -0.10298,-0.31064 -0.53201,-0.695888 -0.95341,-0.856103 -1.00417,-0.381785 -2.03039,-1.712905 -2.3083,-2.994121 -0.12228,-0.563735 -0.3679,-1.117623 -0.54582,-1.230864 -0.17792,-0.113242 -0.39415,-0.941242 -0.48051,-1.84 -0.0864,-0.898759 -0.2827,-1.634109 -0.4363,-1.634109 -0.15361,0 -0.27929,-0.543958 -0.27929,-1.208797 0,-0.664841 -0.22911,-1.535907 -0.50914,-1.935702 C 113.57578,50.897226 112,46.368723 112,45.681696 c 0,-0.170118 -0.36,-0.737142 -0.8,-1.260054 -0.44,-0.522909 -0.8,-1.233776 -0.8,-1.5797 0,-0.345926 -0.14846,-0.802876 -0.32991,-1.015449 -2.15259,-2.521805 -2.12301,-2.501683 -3.95615,-2.69088 -0.98667,-0.101834 -1.79394,-0.32441 -1.79394,-0.494618 0,-0.170208 -0.19808,-0.233459 -0.44017,-0.140557 -0.25495,0.09783 -0.57981,-0.137552 -0.772,-0.55935 C 102.75924,37.176 101.47438,36.810403 99.109958,36.803523 98.440048,36.801603 97.831402,36.62145 97.746426,36.4 97.635107,36.109888 96.692819,36.018048 94.31647,36.065696 90.095754,36.150326 87.821395,36.54185 85.574195,37.570653 84.57785,38.026794 83.492061,38.4 83.161331,38.4 c -0.330733,0 -0.606589,0.18 -0.613014,0.4 -0.01101,0.376726 -1.726448,1.58769 -3.508317,2.476586 -0.44,0.219494 -1.304,0.869209 -1.92,1.443804 -0.616,0.574599 -1.624,1.206781 -2.24,1.404852 -1.357302,0.436428 -3.765997,2.668489 -4.034614,3.738745 C 70.738262,48.290794 70.53367,48.64 70.390736,48.64 c -0.566739,0 -0.673558,2.168211 -0.313638,6.366157 0.433974,5.061657 0.185628,6.742057 -1.081751,7.319513 -0.802493,0.365639 -2.081565,2.770317 -3.383965,6.361908 -0.516323,1.423846 -1.235491,2.517859 -2.602438,3.958867 C 61.970026,73.741654 61.12,74.764243 61.12,74.918867 61.12,75.073491 60.991229,75.2 60.833843,75.2 c -0.481408,0 -2.10063,1.706685 -2.518998,2.655056 -0.68504,1.552886 -0.476826,2.537466 0.885155,4.185651 0.814141,0.985226 1.28,1.872378 1.28,2.437559 0,0.942371 0.285942,1.578012 1.692214,3.761734 0.615402,0.955619 1.095904,1.36 1.61602,1.36 0.407113,0 1.078406,0.36 1.491766,0.8 0.41336,0.44 0.925898,0.8 1.138976,0.8 0.213082,0 0.610061,0.339795 0.882179,0.755101 0.272119,0.415305 0.702007,0.962345 0.955306,1.215648 0.253302,0.253299 0.698918,0.921504 0.990262,1.484899 0.675031,1.305366 1.101693,1.28951 2.195715,-0.08162 0.589936,-0.73936 1.260583,-1.176886 2.023264,-1.319968 0.820663,-0.153955 1.336359,-0.518925 1.837562,-1.300486 C 75.68647,91.356019 76.36,90.776614 76.8,90.666013 c 0.44,-0.110599 1.304,-0.588183 1.92,-1.061293 3.052422,-2.344368 4.175232,-2.420291 5.529469,-0.373904 0.451977,0.682986 1.120745,1.319974 1.486153,1.41553 C 86.333894,90.802797 86.4,90.679782 86.4,89.410042 86.4,88.370003 86.525955,88 86.88,88 c 0.354611,0 0.48,0.371235 0.48,1.421114 0,0.781612 0.15263,1.515446 0.339181,1.630739 0.186547,0.115293 1.398643,0.231792 2.693545,0.258886 1.984352,0.04152 2.471677,-0.0564 3.10082,-0.623056 C 93.904096,90.31791 94.492,89.926429 94.8,89.817728 c 0.456,-0.160938 0.56,-0.585792 0.56,-2.287686 0,-1.566167 0.11096,-2.090042 0.442678,-2.090042 0.567466,0 0.827466,0.993859 0.832954,3.184 0.0034,1.356445 0.0897,1.658666 0.388368,1.36 0.2112,-0.2112 0.8232,-0.388886 1.36,-0.394858 0.5368,-0.006 1.552,-0.289084 2.256,-0.629142 1.61217,-0.778733 1.80151,-0.80489 2.51547,-0.345356 0.88394,0.06888 1.31374,0.478271 1.80453,0.725535 0,0.168045 0.21578,0.521319 0.47952,0.785056 0.26373,0.263735 0.57141,0.86545 0.68373,1.337143 0.11231,0.471692 0.62735,1.721622 1.14451,2.777622 0.51717,1.056 1.02155,2.604 1.12085,3.44 0.21433,1.804534 0.80798,1.986435 2.0887,0.64 z M 73.970989,81.943328 C 72.848432,81.807648 72.156669,81.548586 71.955088,81.188381 71.786298,80.886771 71.467331,80.64 71.246269,80.64 71.025206,80.64 70.356387,80.28 69.76,79.84 69.163613,79.4 68.281923,79.04 67.800688,79.04 66.708749,79.04 65.92,78.281984 65.92,77.232592 v -0.801696 l 0.828445,0.98455 C 67.204093,77.95695 67.861558,78.4 68.209485,78.4 c 0.347923,0 0.923456,0.155667 1.27896,0.345926 0.967728,0.517914 1.03159,0.183866 0.255635,-1.337129 -0.634112,-1.242963 -0.673408,-1.606403 -0.414266,-3.831434 l 0.286301,-2.458208 -1.248291,0.440423 C 66.896317,72.078755 65.92,72.126787 65.92,71.68 c 0,-0.176 0.382419,-0.32 0.849821,-0.32 0.488467,0 1.795117,-0.64632 3.072953,-1.52 l 2.223136,-1.52 4.101514,-0.104922 c 2.922867,-0.07477 4.315754,0.01373 4.847043,0.307984 C 81.424512,68.75016 81.868,68.905376 82,68.867984 c 0.132,-0.03739 0.24,0.0686 0.24,0.23553 0,0.166931 0.36,0.691958 0.8,1.166726 0.44,0.474768 0.798752,1.022189 0.797226,1.216486 -0.0016,0.194301 -0.505405,-0.176982 -1.119728,-0.825075 -1.069456,-1.128243 -2.261616,-1.784198 -2.609824,-1.43599 -0.09025,0.09025 0.244598,0.859312 0.744115,1.709024 0.918768,1.562886 1.668224,3.834841 1.694089,5.135581 0.01645,0.82678 -1.133753,3.012835 -1.781347,3.385635 C 80.520038,79.596646 80.32,80.004746 80.32,80.36279 c 0,0.594154 0.111786,0.562452 1.280397,-0.363104 0.704217,-0.55775 1.201216,-0.807753 1.104441,-0.555564 -0.247462,0.64488 -1.664195,1.622112 -3.271315,2.256489 -1.403453,0.553987 -2.488381,0.602192 -5.462534,0.242717 z m 5.003289,-1.413568 c 0.683156,-0.379184 0.975152,-0.79864 2.228544,-3.201302 0.636893,-1.220877 0.309696,-3.505613 -0.726211,-5.070973 C 80.038477,71.595414 79.68,70.916922 79.68,70.749718 79.68,69.837629 78.612336,69.44 76.163315,69.44 c -3.398758,0 -3.69943,0.133872 -2.881283,1.282854 0.842768,1.183559 0.809552,1.431386 -0.297494,2.219674 -0.80256,0.571472 -1.055866,0.611251 -1.782919,0.279984 -1.141529,-0.520115 -1.366992,-0.09175 -1.122211,2.132125 0.137894,1.252771 0.488774,2.178752 1.217171,3.212134 0.56288,0.798567 1.023421,1.582605 1.023421,1.742311 0,0.632934 5.57825,0.817926 6.654278,0.220678 z m -4.059993,-4.335475 c -0.830227,-0.830227 -0.919792,-2.943063 -0.157091,-3.705763 0.454851,-0.454852 0.599497,-0.461764 1.2,-0.05733 0.539241,0.363171 0.678457,0.77183 0.662118,1.943596 -0.01258,0.90112 -0.218995,1.682036 -0.525715,1.988756 -0.460035,0.460035 -0.565098,0.444953 -1.179312,-0.169261 z M 72.64,71.858886 c 0,-0.429612 -0.146349,-0.871564 -0.325219,-0.982112 -0.178871,-0.110547 -0.233495,-0.349414 -0.121383,-0.530812 0.300717,-0.486573 -0.953734,0.227881 -1.449971,0.825808 -0.222163,0.267692 -0.329686,0.671555 -0.238944,0.897472 0.09546,0.237651 0.184186,0.14104 0.210538,-0.229242 0.04223,-0.593466 0.06659,-0.587648 0.33495,0.08 C 71.458886,72.937322 72.64,72.891923 72.64,71.85889 Z m 31.12,8.103104 c -0.572,-0.165158 -1.04,-0.423203 -1.04,-0.57343 0,-0.15023 0.54,-0.08043 1.2,0.155104 1.31486,0.469235 2.99565,0.528096 4.24,0.148486 1.00593,-0.30688 0.45921,-0.541827 -1.76,-0.756336 -1.41774,-0.13704 -1.75675,-0.327721 -2.97605,-1.67392 -1.63404,-1.804112 -2.1505,-2.93368 -2.41305,-5.277753 -0.10745,-0.959277 -0.20404,-1.816141 -0.21464,-1.904141 -0.0106,-0.088 -0.37338,0.272 -0.80618,0.8 -0.565622,0.690045 -0.787347,0.809869 -0.78849,0.426112 C 99.200717,71.012474 99.776,70.172723 100.48,69.44 c 0.704,-0.732723 1.28,-1.227117 1.28,-1.098653 0,0.128467 0.43325,-0.219782 0.96278,-0.773888 0.52953,-0.554102 1.15541,-1.007459 1.39084,-1.007459 0.23543,0 0.88075,-0.225837 1.43406,-0.501862 0.87082,-0.434423 1.42568,-0.45178 4.12916,-0.129165 1.71774,0.204982 3.19516,0.41536 3.28316,0.467507 0.088,0.05215 0.87522,0.19055 1.74938,0.307562 0.87415,0.117011 1.77228,0.36455 1.99584,0.550086 0.22356,0.185536 0.75186,0.25065 1.17401,0.144698 0.90765,-0.227805 1.79591,0.574038 1.24556,1.12438 -0.23477,0.234778 -0.52667,0.234084 -0.96836,-0.0022 -0.34775,-0.186112 -0.6989,-0.27176 -0.78033,-0.190332 -0.0814,0.08143 -1.14437,-0.183658 -2.36208,-0.589082 -1.32135,-0.439933 -2.58306,-0.66544 -3.12933,-0.559312 l -0.91532,0.177824 0.71269,0.64 c 0.39198,0.352 1.06752,1.432 1.50118,2.4 1.00339,2.239683 0.92343,4.917491 -0.1919,6.426051 -0.40023,0.541344 -0.64,1.071959 -0.53281,1.179146 0.41311,0.413107 3.17592,-2.744269 4.13472,-4.725197 0.93451,-1.930739 1.0145,-2.011782 1.11482,-1.129357 0.0594,0.522855 -0.0486,1.002855 -0.24,1.066666 -0.19144,0.06381 -0.34807,0.318377 -0.34807,0.565699 0,0.438461 -0.54563,1.226074 -1.68,2.425082 -0.308,0.325552 -0.488,0.59191 -0.4,0.59191 0.62118,0 -1.58236,1.523242 -3.50821,2.425123 -1.98759,0.930797 -2.6672,1.090551 -4.53488,1.066016 -1.2083,-0.01587 -2.66491,-0.16399 -3.23691,-0.329149 z m 6.8,-1.969209 c 0.83801,-0.296087 1.5705,-0.877597 2.1213,-1.684051 1.0479,-1.534304 0.95104,-2.975415 -0.38914,-5.78968 -0.82805,-1.738864 -1.11259,-2.037856 -2.51231,-2.64 C 108.91168,67.505571 107.88052,67.2 107.48838,67.2 c -0.97814,0 -4.12321,1.057843 -4.12606,1.387795 -10e-4,0.14729 0.42968,0.430861 0.95768,0.630157 1.2385,0.467482 1.25677,1.417984 0.0495,2.574618 -0.73289,0.70215 -0.97892,0.789868 -1.26125,0.449683 -0.27062,-0.326074 -0.14328,-0.514461 0.55736,-0.824595 0.67286,-0.297834 0.86534,-0.56552 0.74301,-1.033312 -0.19502,-0.745744 -1.57151,-1.174951 -2.29816,-0.716592 -0.58009,0.36591 -0.70097,1.567769 -0.1473,1.464521 0.23893,-0.04455 0.30991,0.32752 0.20749,1.087575 -0.1142,0.847363 0.0875,1.654185 0.75682,3.026988 0.50189,1.029431 1.04518,1.872023 1.20732,1.872426 0.16214,3.2e-4 0.52214,0.197946 0.8,0.438979 1.26071,1.093629 3.31142,1.252042 5.6252,0.434538 z M 106.88,73.6 c -0.79717,-0.797168 -0.8173,-1.660358 -0.0548,-2.350403 0.86716,-0.784768 1.24432,-0.653363 1.64963,0.574733 0.26583,0.805488 0.2695,1.281763 0.0136,1.76 -0.44006,0.822246 -0.79832,0.825737 -1.60839,0.01568 z M 66.723062,69.106058 C 66.926173,68.181299 67.25489,67.736774 69.459533,65.405526 69.97679,64.858566 70.4,64.161085 70.4,63.855568 c 0,-0.305517 0.270157,-0.626131 0.600352,-0.71248 0.330192,-0.08635 0.771936,-0.477606 0.981651,-0.869462 0.236768,-0.442404 0.918941,-0.856266 1.799651,-1.091818 C 74.561744,60.973165 75.2,60.669344 75.2,60.506653 c 0,-0.162691 0.463274,-0.397552 1.029498,-0.521917 0.56622,-0.124365 1.25022,-0.342227 1.52,-0.484144 0.269776,-0.141914 1.385532,-0.417872 2.479456,-0.613238 1.999545,-0.357104 2.496572,-0.252026 4.175996,0.88288 0.503354,0.340156 1.357844,4.667475 1.027274,5.202348 -0.167005,0.270221 -0.625366,0.318436 -1.477181,0.155389 -2.804541,-0.536829 -7.254569,-0.30495 -10.035043,0.522899 -1.608915,0.479034 -3.84,1.590858 -3.84,1.913597 0,0.151543 -0.220518,0.275533 -0.490042,0.275533 -0.269526,0 -0.572931,0.216 -0.674236,0.48 -0.101309,0.264 -0.470269,0.48 -0.819917,0.48 -0.366602,0 -0.706573,0.270931 -0.803085,0.64 -0.27423,1.048656 -0.804989,0.737517 -0.569658,-0.333942 z m 3.822359,-2.673242 c 1.146662,-0.874602 2.455945,-1.294781 6.094579,-1.955891 3.303152,-0.600157 5.552573,-0.597789 7.000922,0.0074 L 84.8,64.968579 V 63.41345 c 0,-1.918839 -0.75465,-3.508148 -1.873798,-3.946269 -1.176125,-0.460423 -4.5589,0.432672 -8.130602,2.146582 -2.259491,1.084237 -3.033869,1.64888 -3.985389,2.905971 -0.649545,0.858141 -1.295568,1.608256 -1.435603,1.666922 -0.305194,0.127859 -0.344355,1.013334 -0.04481,1.013334 0.115386,0 0.662419,-0.345232 1.215626,-0.767184 z M 97.172576,63.6 c -0.109984,-1.1 -0.291635,-2.5276 -0.40367,-3.172445 -0.184276,-1.060633 -0.116215,-1.216886 0.713696,-1.638502 2.163174,-1.098947 7.899748,-1.223453 11.637398,-0.252576 1.71156,0.444585 4.16,1.57911 4.16,1.9276 0,0.135843 0.64948,0.590998 1.44328,1.011456 0.79381,0.420457 1.51748,0.997475 1.60817,1.282265 0.0907,0.284788 0.44921,0.775104 0.79672,1.089594 0.34751,0.31449 0.63183,0.78279 0.63183,1.040666 0,0.65327 -3.5917,0.39311 -4.38801,-0.31784 -0.90256,-0.805818 -2.92678,-1.20304 -6.52354,-1.280148 -3.59841,-0.07715 -5.37949,0.299101 -7.402092,1.563655 C 97.621027,65.994941 97.39984,65.872982 97.172576,63.6 Z m 5.674744,-0.752307 c 1.64214,-0.491661 2.28648,-0.520352 4.96,-0.220861 1.68997,0.189312 3.93668,0.665965 4.99268,1.059226 1.056,0.39326 2.4006,0.786003 2.98801,0.872761 l 1.06802,0.157741 -0.47827,-0.924867 c -0.3079,-0.595411 -1.57165,-1.582941 -3.54769,-2.772256 -2.78808,-1.678058 -3.31143,-1.875216 -5.70974,-2.150986 -3.5745,-0.411008 -7.203156,-0.346829 -8.56033,0.151402 l -1.12,0.411165 0.08223,2.364492 c 0.116311,3.344394 0.120288,3.349402 1.915802,2.411914 0.837078,-0.437066 2.371258,-1.048944 3.409288,-1.359731 z M 58.460038,76.099802 C 58.596701,75.41649 58.822854,75.2 59.4,75.2 c 0.735043,0 0.76,-0.08196 0.76,-2.496 0,-1.3728 0.120198,-2.6328 0.26711,-2.8 0.146909,-0.1672 0.525872,-1.006467 0.842138,-1.865037 0.814077,-2.209977 0.495821,-5.575478 -0.672032,-7.106611 C 60.13897,60.331558 59.64993,59.84 59.510464,59.84 c -0.139462,0 -0.626371,0.44305 -1.082019,0.984554 C 57.689056,61.703267 57.6,62.08287 57.6,64.355811 c 0,1.622771 0.161565,2.803834 0.445331,3.255447 0.244931,0.389808 0.414131,1.176742 0.376,1.748742 -0.03813,0.572 -0.09453,1.4 -0.125331,1.84 -0.0324,0.462854 -0.253088,0.8 -0.523667,0.8 -0.81016,0 -1.374381,3.401478 -0.926528,5.585696 l 0.193904,0.945696 0.620185,-0.765894 c 0.341101,-0.421242 0.701168,-1.170807 0.800144,-1.665696 z m 6.045306,-6.486855 C 64.617565,69.165827 64.83777,68.8 64.994691,68.8 65.15161,68.8 65.28,68.587853 65.28,68.32856 c 0,-0.512643 1.306074,-3.426723 1.65463,-3.691766 0.118045,-0.08976 0.318247,-0.576055 0.444893,-1.080647 0.131635,-0.524483 0.624423,-1.139894 1.150506,-1.436797 1.3724,-0.774531 1.650902,-2.233251 1.247846,-6.535868 -0.461821,-4.92994 -0.430502,-6.48514 0.142125,-7.057767 0.264,-0.264 0.48,-0.699353 0.48,-0.967453 0,-0.961772 3.668518,-4.03431 4.820131,-4.037065 0.275072,-6.4e-4 0.923072,-0.446051 1.44,-0.989767 C 77.177059,41.987718 78.032,41.322179 78.56,41.052454 80.546672,40.037581 82.217034,38.866218 82.228317,38.48 82.234749,38.26 82.564,38.079462 82.96,38.078803 c 0.396,-6.4e-4 1.152,-0.261971 1.68,-0.580697 0.922221,-0.556695 2.578896,-1.065223 4.96,-1.522506 2.199664,-0.422438 7.813219,-0.412704 8.32,0.01443 0.264,0.222506 1.467837,0.491837 2.67519,0.598512 1.79281,0.1584 2.33259,0.342198 2.94472,1.002704 0.41224,0.444816 0.93641,0.818474 1.16481,0.830352 1.2598,0.06552 2.61273,0.338742 3.17962,0.642134 0.85545,0.457821 1.87566,1.494704 1.87566,1.906311 0,0.181526 0.20185,0.407501 0.44854,0.502166 0.2467,0.09467 0.53752,0.646381 0.64626,1.226026 0.10875,0.579645 0.4829,1.31199 0.83146,1.62743 0.34856,0.31544 0.63374,0.748829 0.63374,0.963085 0,0.642352 1.61339,5.381808 1.98412,5.828512 0.18918,0.227942 0.45997,0.951808 0.60176,1.608589 0.81025,3.753197 1.00605,4.471709 1.42884,5.243523 0.2559,0.467155 0.46528,1.131738 0.46528,1.476845 0,0.83024 1.17079,2.288102 2.13061,2.653027 0.42161,0.160294 0.88788,0.617542 1.03614,1.016102 0.20759,0.558058 0.32346,0.191053 0.50399,-1.596371 0.28936,-2.864963 1.15588,-4.3524 2.61934,-4.496256 0.58249,-0.05726 1.19423,0.107309 1.48692,0.4 0.74841,0.748403 1.17772,0.603674 1.39233,-0.469379 0.10633,-0.531661 0.31873,-1.04416 0.472,-1.138886 0.15327,-0.09473 0.27867,-0.947232 0.27867,-1.894458 0,-0.947226 0.144,-1.811226 0.32,-1.92 0.56511,-0.349258 0.34198,-3.133482 -0.397,-4.953814 C 126.24865,46.074784 125.84932,45.208 125.75561,45.12 124.85003,44.269645 124.48,43.019766 124.48,40.811258 c 0,-1.999127 -0.1114,-2.522663 -0.65179,-3.063044 -0.55218,-0.552182 -0.82183,-0.604838 -1.76448,-0.344556 -1.02436,0.282838 -1.14803,0.239318 -1.55781,-0.548215 -0.24481,-0.470493 -0.81879,-1.204544 -1.27552,-1.631222 -0.45672,-0.426682 -0.83537,-0.930682 -0.84144,-1.12 -0.0127,-0.395875 -4.40046,-4.025396 -6.06896,-5.02019 -0.616,-0.367272 -1.59611,-1.121426 -2.17801,-1.675899 -0.94541,-0.900834 -1.23871,-1.000245 -2.75575,-0.934032 -1.34719,0.0588 -1.81621,-0.05682 -2.27158,-0.56 -0.31562,-0.348755 -0.91639,-0.6341 -1.33504,-0.6341 -0.42389,0 -1.17702,-0.425393 -1.69962,-0.96 -1.14259,-1.168851 -1.52434,-1.200664 -1.92,-0.16 -0.42753,1.124485 -0.784778,0.998924 -1.365715,-0.48 -0.544058,-1.385033 -1.103117,-1.573731 -2.450739,-0.827189 -0.542359,0.300451 -1.072346,0.345271 -1.757885,0.148661 -1.398867,-0.40119 -1.688599,-0.358895 -2.341389,0.341792 -0.383098,0.411209 -0.731309,0.530157 -1.023446,0.349607 -0.243533,-0.150512 -0.627101,-0.202931 -0.852372,-0.116487 -0.22527,0.08644 -0.66198,0.01592 -0.97047,-0.156717 -0.395482,-0.221322 -0.768179,-0.17807 -1.263789,0.146667 -0.628406,0.411749 -0.844297,0.386854 -2.037177,-0.234909 l -1.334279,-0.695465 -0.916211,0.877786 c -0.869696,0.833222 -0.953597,0.851602 -1.652573,0.36202 C 81.24079,23.208143 81.045811,23.22552 80.8,24 c -0.240675,0.758303 -0.884118,0.829796 -1.44,0.16 -0.570243,-0.6871 -0.867402,-0.599126 -1.351133,0.4 -0.364921,0.753733 -0.590861,0.865631 -1.574656,0.779859 -1.076608,-0.09386 -1.181209,-0.01865 -1.668816,1.2 -0.538358,1.345488 -1.050419,1.652104 -1.369673,0.820141 -0.335927,-0.875404 -0.996621,-0.498339 -1.682122,0.96 -0.632886,1.346407 -0.758352,1.44 -1.930422,1.44 -1.154359,0 -1.283479,0.0907 -1.631853,1.146285 -0.330816,1.002385 -0.477949,1.121277 -1.172029,0.947073 -1.462835,-0.367148 -1.984307,0.04906 -2.212003,1.765503 C 64.651933,34.488486 64.490813,35.2 64.409248,35.2 c -0.08157,0 -0.530051,-0.300285 -0.996637,-0.667302 l -0.848336,-0.6673 -0.387705,0.9073 c -0.213236,0.499017 -0.394199,1.222803 -0.402138,1.608416 -0.01872,0.909052 -0.476672,1.178649 -0.977357,0.575363 C 60.579584,36.694416 60.220784,36.48 59.999741,36.48 c -0.420029,0 -1.200874,2.48984 -0.922234,2.940688 0.08814,0.142621 0.03082,0.259312 -0.127401,0.259312 -0.158218,0 -0.480148,-0.583219 -0.715399,-1.296042 C 57.999453,37.671136 57.688134,37.01447 57.542886,36.924704 57.062922,36.628067 56.64,38.406765 56.64,40.721994 c 0,2.114243 -0.03616,2.235088 -0.496525,1.659168 -0.459667,-0.57505 -0.487846,-0.472695 -0.379584,1.378838 0.06432,1.1 -2.4e-4,2 -0.143472,2 -0.143232,0 -0.260419,-0.288 -0.260419,-0.64 0,-0.352 -0.144,-0.64 -0.32,-0.64 -0.188509,0 -0.32,1.129987 -0.32,2.749958 0,2.527824 -0.05449,2.764208 -0.674579,2.926365 -0.642701,0.168071 -0.667635,0.3292 -0.52768,3.410042 0.130717,2.877443 0.256512,3.42887 1.142003,5.006038 0.547306,0.974826 1.34599,2.102048 1.774854,2.504944 l 0.779751,0.732538 0.582064,-0.985354 c 1.686905,-2.855702 3.999827,-0.782214 4.434531,3.975469 0.181933,1.991222 0.113837,2.42641 -0.613139,3.918432 C 61.018266,69.948899 60.8,70.908973 60.8,72.315651 v 1.918787 l 1.750653,-1.904272 c 0.962861,-1.04735 1.84247,-2.270099 1.954691,-2.717219 z m 60.807006,0.702567 c -0.10091,-1.014468 -0.42015,-2.205693 -0.70941,-2.647168 -0.44327,-0.676506 -0.50278,-1.485594 -0.3786,-5.147053 0.14547,-4.289255 0.138,-4.348624 -0.58902,-4.679879 -1.39984,-0.637804 -2.56742,1.20257 -2.8762,4.533501 -0.17738,1.913504 -0.10147,2.308944 0.83412,4.345085 1.42791,3.107581 1.8192,4.036035 2.09033,4.96 0.40975,1.396336 0.8565,1.74553 1.36751,1.068896 0.3176,-0.420547 0.39229,-1.116189 0.26127,-2.433382 z"
         id="path172"
         inkscape:label="outline"
         sodipodi:nodetypes="cssssssssscssssssssssscssssscssssssscsssssssscsssssssssssssssscsssssssssssssscsssssssscssssssssssssssssscsssccssssssssssssssssssssssssssssssssssssssssssssssssssssssssssssssssssssssssssssssssssscsscssssssssccsssssssssssssssssssssssssssssssssssscssssssssssscsssssssssssssssssssssssssssssssssssssssssssscsccssssssssssscssssscsssscssssscsssssssssssssssssssssssssssssssssssssscsssssssssssssssssssscssscssssscssssssccssssscssssssssscsssssscssssssssssssssssssssssssccssssssssssssssssssssssssscsssscssssssssssssssssscssssssssssscssscsssssssssssssssssssssssssscsssssssssssssssssssssscssssssssssssssscssssssssssssssssssscsssscsssssssssss" />
    </g>
  </g>
</svg>
