<?xml version="1.0" encoding="UTF-8" standalone="no"?>
<!-- Created with Inkscape (http://www.inkscape.org/) -->

<svg
   version="1.1"
   id="svg2"
   width="192"
   height="288"
   viewBox="0 0 192 288"
   xmlns="http://www.w3.org/2000/svg"
   xmlns:svg="http://www.w3.org/2000/svg">
  <defs
     id="defs6" />
  <g
     id="g8"
     transform="translate(6,-4)">
    <g
       id="g116"
       transform="translate(1.0614251,-27.95086)">
      <path
         id="whites"
         style="display:inline;fill:#ffffff;stroke:#1bff54;stroke-opacity:0"
         d="m 101.38821,76.488944 c 0.6181,2.665893 1.2461,7.987711 2.34384,10.393122 0.9238,1.27273 2.59608,1.190497 3.95814,1.039304 2.47513,0.258096 4.94713,-0.809795 6.52333,-1.945946 1.81073,-1.005657 3.02054,-3.058944 2.94114,-4.842752 -0.573,-1.631231 -1.2984,-2.796397 -2.63136,-3.80344 -5.58362,-1.791207 -6.72615,-1.512475 -10.94595,-1.724816 M 73.503679,87.390661 c 1.853671,1.097194 4.012146,1.816539 6.855499,2.30689 2.402247,0.17513 4.38842,-0.24937 5.881603,-2.041521 0.392256,-1.783724 0.441162,-4.14824 -0.06791,-5.926755 -0.03108,-1.712928 -0.841169,-3.313045 -1.065034,-4.854594 -1.56008,-0.592308 -3.421765,-0.246555 -5.052877,0.347098 -5.020469,4.30589 -7.202159,4.524496 -6.551276,10.168839 z"
         transform="translate(-7.0614251,31.95086)" />
      <path
         style="display:inline;fill:#391e15;stroke-width:0.32"
         d="m 103.44725,168.4751 c -1.64334,-0.79188 -1.24197,-0.57926 -1.29731,-0.74529 -0.0553,-0.16603 -0.56685,0.11053 -0.86641,0.18213 -0.98188,0.2347 -1.644389,-0.64077 -1.835229,-3.02528 -0.103518,-1.29337 0.313494,-2.51431 0.223993,-2.65913 -0.0895,-0.14482 -0.370188,-0.66334 -0.191321,-0.77388 0.178869,-0.11055 0.148314,-0.35789 0.148314,-0.60369 0,-0.86974 2.711723,-3.40996 3.387853,-3.40996 0.18858,0 -0.0552,-0.41481 -0.0552,-0.65153 0,-0.23673 0.68603,-0.46991 1.03803,-0.78847 0.352,-0.31856 0.64,-0.75291 0.64,-0.96522 0,-0.2393 0.26011,-0.94701 0.75646,-0.85213 0.6742,0.12888 0.38875,0.19583 0.7861,-0.75522 0.37111,-0.88818 0.74287,-1.22594 1.252,-1.0928 0.61702,0.16136 0.69384,0.50008 0.73867,-2.66154 0.0259,-1.82453 0.0742,-4.67399 0.10736,-6.16999 0.0347,-1.56359 -0.6501,-2.95461 -0.89309,-3.69042 -0.63203,-1.91385 0.25926,-3.15583 1.45,-3.85838 0.98313,-0.58006 1.62859,-1.64271 1.42135,-2.29388 -0.1105,-0.34721 1.09406,-2.36155 1.41212,-2.36155 0.5281,0 0.2045,-3.22689 -0.41612,-4.18732 -0.34118,-0.528 -0.30942,-1.12355 -0.4159,-1.43155 -0.10648,-0.308 -0.32587,-0.56 -0.48753,-0.56 -0.16167,0 -0.13,-0.30631 0.0704,-0.68069 0.22897,-0.42783 -0.41394,-0.79897 -0.60829,-0.92423 -0.45985,-0.29646 0.0854,-1.75865 0.69549,-2.47122 0.29432,-0.34375 0.76758,-0.40386 0.6733,-0.40386 -0.0943,0 0.15914,-0.35307 0.56314,-0.78459 1.1216,-1.19802 1.18073,-2.1695 1.18073,-2.40889 0,-0.12002 0.5754,0.062 0.84623,-0.13603 0.84143,-0.61527 1.40419,-4.65378 1.40419,-6.71884 0,-1.03761 0.51939,-1.84288 0.34339,-1.95165 -0.176,-0.10877 -0.80649,-0.30037 -0.80649,-0.64199 0,-0.34161 0.35928,-0.79801 0.20381,-0.79801 -0.15547,0 -0.84534,-0.33553 -0.93845,-0.69156 -0.0931,-0.35604 0.29039,-0.70781 0.25762,-0.83577 -0.0328,-0.12797 -0.82153,-0.41098 -0.99601,-0.73701 -0.17449,-0.32604 -0.6407,-1.82032 -0.71169,-3.32063 -0.10692,-2.259644 0.28825,-2.737726 -0.25898,-3.212334 -0.83292,-1.088888 -0.51068,-2.395014 -1.96979,-2.55621 -1.55454,-1.104065 -3.06983,-1.852914 -4.93031,-2.306639 -0.82136,-0.09839 -2.2047,-0.347149 -2.96596,-0.714951 -1.99071,-0.392818 -3.913318,-1.615168 -3.813989,-2.564056 0.276608,-0.154796 1.344681,-0.756296 1.562689,-1.282616 0.21801,-0.526317 0.1824,-1.397242 0.51548,-1.502954 0.33307,-0.105715 0.47291,-0.309024 0.47291,-0.613965 0,-0.304937 0.79196,-0.506105 1.00316,-0.717305 0.2112,-0.2112 -0.6901,-0.693582 -0.81371,-0.693582 -0.12361,0 0.56846,-0.24687 1.15956,-0.81887 1.00836,-0.975773 1.54825,-2.244871 2.88547,-5.477284 0.71919,-1.73848 1.19378,-6.454974 0.54263,-7.67291 -0.38099,-1.907639 -1.02281,-2.916501 -1.39104,-4.012116 0.76991,-0.504567 1.74845,-0.211531 3.10818,0.03697 1.35973,0.248483 3.75692,0.34601 5.16492,0.378887 2.34435,-0.838081 4.32271,0.08163 5.95459,1.16729 0.76574,0 2.01817,0.760125 3.22339,1.971696 1.12255,1.185204 1.4823,1.911551 2.84133,2.594791 -0.61392,1.649307 0.17105,2.482402 0.38455,3.832943 0.0308,1.580659 1.59404,2.524551 2.15471,3.562831 0.59985,1.038628 0.89657,2.409241 1.46189,3.161471 2.05546,1.292479 3.49738,3.174921 4.13724,4.926981 -0.002,1.958584 1.01703,3.281146 2.14146,4.796261 1.3673,1.903229 1.7125,4.465861 2.6009,6.536411 0.29625,0 0.002,4.79131 -0.29319,4.97403 -0.13537,0.0837 -0.0242,1.92468 -0.0774,4.09116 -0.13307,5.42319 -0.31679,5.73602 -1.12708,6.87396 -0.39577,0.55581 -0.58197,1.24626 -0.62997,1.69649 -0.0718,0.67385 -2.45307,2.56859 -2.95219,2.56859 -0.0771,0 -0.44524,0.18149 -0.81802,-0.19128 -1.80437,0.24529 -1.76221,3.40768 -1.76265,3.49284 -0.003,3.18964 0.79372,6.32969 1.05779,7.25844 0.0705,0.24792 0.80624,0.40176 0.74709,1.15284 -0.0499,0.63407 0.0811,1.05943 0.29129,1.26957 0.46965,0.46965 0.96216,1.42635 1.21412,3.29336 0.20679,1.53239 0.58429,3.25874 1.13323,4.45454 0.43041,0.93761 0.25301,4.57387 -0.20427,5.7432 -0.19377,0.49546 -0.17541,1.57738 -0.17541,2.51237 0,1.12071 -0.34046,2.10108 -0.6569,2.3637 -0.264,0.2191 -0.52423,0.60219 -0.52423,0.90537 0,0.64313 -1.07489,1.92391 -1.84141,2.03641 -0.47378,0.0695 -3.09399,2.59709 -2.6909,2.59709 0.0905,0 -0.81227,0.12933 -1.03322,0.3955 -2.01179,1.7817 0.005,1.34391 -1.77179,2.42986 -0.58448,0 -0.90465,0.5135 -0.90465,0.94309 0,0.45884 -2.68849,2.68216 -3.1369,2.5492 -1.60101,0.55865 -2.13564,0.88602 -2.97888,1.74152 -1.03397,1.13019 -2.35451,0.48709 -3.39103,1.41267 -0.97744,0.37317 -1.72504,-0.11771 -1.95303,0.85414 0.0363,0.73099 -1.07897,0.37858 -1.69691,0.4945 -0.61795,0.11593 -1.03509,0.21558 -1.03509,0.3836 -3.74384,0.0828 -4.26784,0.35503 -7.04122,-0.25743 z m -43.618592,-1.30616 c -0.423423,0.42294 0.111166,-3.77191 0.539694,-4.35177 0.35328,-0.47804 0.18064,-9.42478 -0.177268,-9.99237 -0.15192,-0.24093 -0.09253,-0.82629 0.07892,-0.99774 0.40561,-0.40561 -0.257692,-2.43129 -0.790563,-2.43129 -0.220934,0 -0.62283,-0.17684 -0.62283,-0.44703 0,-0.43658 -0.552966,-2.00901 -1.013766,-2.43297 -0.23673,-1.08885 -0.475285,-1.88563 -0.911432,-2.62831 -0.675009,-1.2897 -0.890255,-3.44553 -0.618667,-4.39851 1.157839,-2.3794 1.533234,-3.91532 3.459636,-5.93318 0,-0.72382 1.546662,-1.02079 2.526604,-0.0819 1.727617,1.25977 3.278334,3.5392 5.006712,4.13659 1.061214,0.81852 2.599744,1.94085 3.171064,3.02309 1.948071,0.90272 4.272879,3.46252 5.211436,4.93851 0.510724,0.28581 0.290671,0.49415 -0.204141,1.97924 -0.290563,0.8721 -0.188827,1.995 -0.314462,2.171 -1.060365,1.0194 -0.685003,2.38613 -0.861988,3.45887 -1.494983,0.78694 -0.710758,1.37206 -1.090868,2.50473 -0.159756,1.2223 -1.088403,2.40247 -1.82354,3.26193 -0.406707,0.26649 -0.83064,0.86329 -1.212342,1.54244 -0.381702,0.67915 -1.449848,1.81292 -2.157435,2.30328 -2.560733,0.95356 -0.65018,0.91786 -2.930754,2.24452 -0.88,0.51395 -1.732678,0.67897 -1.732678,0.8532 -0.889187,0.36504 -1.665315,1.19323 -2.625744,1.64573 -0.601822,0 -0.673222,-0.18549 -0.861372,-0.41219 z M 49.816154,137.83155 c -0.707517,-1.84667 -1.45055,-3.8685 -1.794583,-5.55578 0.181191,-3.05688 1.254262,-5.51221 2.56281,-7.63363 0.02451,-0.65168 -0.08186,-1.4359 0.03392,-1.36435 0.865173,-2.46139 2.544412,-4.13191 2.985423,-5.95356 0.230486,-0.98487 1.172085,-1.41371 2.933548,-3.18264 0.559504,-0.56187 0.400113,-1.61917 0.456609,-1.97117 1.031116,-1.62307 1.434291,-2.8545 1.719878,-4.67845 0.776435,-2.81 1.371906,-4.74435 1.393356,-6.83922 0.161576,-2.174827 0.986647,-4.629113 1.633092,-6.005576 0.731435,-1.159201 1.155055,-1.67385 1.571948,-3.048078 -0.09485,-0.492534 0.497245,-1.224002 1.914221,-2.392681 0.934008,-0.60409 3.953579,-0.765564 2.071076,-1.255901 -2.590643,-0.06124 -2.770695,1.511622 -3.854894,2.874593 -0.969644,1.553407 -1.074943,3.095673 -2.005526,4.711797 -1.108218,1.818099 -1.395471,3.39796 -1.535794,6.305436 0.309644,3.56605 -1.567589,7.53255 -2.982577,10.11103 -0.938916,2.91559 -2.809464,5.18681 -4.680629,7.78188 0,0.38698 -0.614034,1.84791 -0.878034,1.94922 -1.543097,-0.28359 -1.449838,-2.67938 -1.548681,-4.00648 -0.437707,-2.63391 -1.093169,-4.26933 -2.529353,-6.0226 -1.057499,-2.37209 -2.560521,-3.8987 -2.785789,-6.226 -0.08751,-1.64771 0.841112,-10.653234 1.341205,-12.34981 0.09154,-0.310557 0.724343,-0.537401 0.865687,-0.450044 0.141347,0.08736 -0.36283,-0.832465 -0.255524,-1.503511 0.125868,-0.787143 0.859609,-1.719528 1.585325,-2.466773 1.366185,-1.641341 2.846504,-3.095095 3.970596,-4.51589 1.588855,-0.216976 1.796616,-1.805694 2.756774,-2.806696 2.204259,-1.239854 3.6494,-2.015458 5.559762,-2.558442 1.666085,-2.083668 1.921226,-4.82873 3.545094,-6.679368 1.668879,-1.214069 2.354389,-2.925684 3.932646,-4.059634 1.461763,-1.732513 2.14813,-2.562066 3.478036,-3.863718 1.731064,-0.494501 4.300983,-3.093647 4.986596,-3.570403 1.553886,0.523018 1.962266,-1.163676 3.136039,-2.009455 0.515533,-0.515469 1.93943,-0.634553 7.437363,-0.467708 0.352,0.01069 1.371322,0.249517 2.427322,0.206397 1.056,-0.04311 2.46891,0.186262 2.923586,0.401611 0.454672,0.215344 1.900173,0.708433 3.104116,0.987645 2.608524,0.604957 4.710822,1.781911 5.278452,2.99392 -0.10829,0.965758 0.66782,2.114061 0.67726,2.775871 2.1122,1.857386 0.32806,-0.211752 2.24224,1.67281 0.10601,0.333994 -0.46539,1.046963 -0.13462,1.151946 0.34727,0.110217 1.49008,0.712653 1.61665,1.30482 0.12056,0.564022 0.24215,1.26253 0.43237,1.498187 0.54835,0.679325 0.69276,6.15902 0.18844,7.069062 -1.02888,2.951404 -2.32284,4.743359 -3.8082,6.91726 -1.883977,2.545846 -3.887533,3.935157 -4.227739,4.817035 -0.779884,0.124853 -2.356806,0.677843 -2.41975,0.715498 -0.140746,0.22 -0.399901,0.404019 -0.575901,0.408934 -1.579216,0.04409 -4.153514,1.246108 -4.153514,1.479926 -1.763256,0.582604 -3.532672,1.186065 -5.758654,1.872798 -2.283294,0.875586 -4.122787,1.604862 -6.070928,2.579541 -2.019004,1.214251 -2.629668,1.385937 -4.07338,2.432977 -3.365244,4.261484 -5.162673,3.304984 -7.472272,5.425664 -0.470944,0.43668 -1.057748,0.44016 -1.195902,0.44016 -0.138156,0 0.08867,0.5009 -0.09052,0.8969 -0.40312,0.89082 -1.502243,1.77529 -1.944447,2.34897 -0.624919,0.81072 -0.533752,4.21977 -0.495566,6.9499 0.291932,2.14592 0.311546,4.21231 1.765513,6.25324 0.781237,1.73145 0.811843,2.07662 -1.083717,5.27522 0.11695,0.54318 -0.450398,2.19147 -1.70963,3.54535 -1.808078,2.11865 -3.921009,4.66437 -5.434462,6.66691 -0.631491,2.84411 -1.10741,5.12077 -3.598297,6.3455 -1.651584,-1.60761 -2.723139,-4.02047 -3.428065,-5.73044 z M 55.090525,142.4 c 0,-0.44 0.07263,-0.62 0.161405,-0.4 0.08877,0.22 0.08877,0.58 0,0.8 -0.08877,0.22 -0.161405,0.04 -0.161405,-0.4 z m 9.922059,-19.8966 c 0.01796,-0.41293 0.06458,-0.85732 -0.135656,-0.8169 -0.20024,0.0404 -0.853734,-0.45005 -1.019776,-1.19805 -0.166042,-0.748 -0.549286,-1.75803 -0.689497,-1.75803 -1.058602,-1.64363 0.586051,-6.95885 1.315823,-2.05651 -0.635522,1.7991 -1.19007,-0.1788 0.172969,0.48856 -0.114249,0.18486 1.160379,1.04718 1.318989,1.1595 1.125161,0.89526 -0.492671,3.89552 -0.05544,1.99803 0.223734,-1.36834 0.21948,-1.78815 0.240035,-0.16 0.0089,0.704 0.265728,1.72845 0.138327,2.16845 -0.684788,0.9607 -1.317054,1.33952 -1.285774,0.17495 z M 111.147,118.08 c 0.11821,-0.616 -0.3378,-1.35908 0.0137,-1.65129 0.42348,-0.35208 1.12552,-1.05526 1.12552,-1.82394 0,-1.06081 0.0547,-1.8383 0.64,-1.52506 0.352,0.18838 1.43149,1.54597 1.42589,1.93578 -1.10456,2.21714 -1.97889,2.81148 -2.5765,3.74531 -0.48581,0.39957 -1.22219,1.0458 -1.02664,0.0268 z m -46.627,-1 c -0.301235,-1.50618 -0.815227,-4.05692 -0.463013,-4.68434 0.171562,-0.30562 0.656894,-1.58215 0.916353,-2.24215 2.412552,-2.74047 2.682325,-1.95896 2.276205,-0.5066 -0.281804,0.76517 -0.273536,0.83948 0.03694,0.94554 0.455475,0.1556 0.06422,1.08755 -0.374569,1.08755 -0.488296,2.3688 -1.497897,5.04784 -1.113706,5.98958 0.08826,1.08957 -1.049775,0.55249 -1.278191,-0.58958 z m 49.01425,-3.86648 c -0.0795,-0.22743 -0.88024,-1.73729 -0.91448,-3.40929 -0.0557,-2.72161 0.60597,-4.39284 1.02578,-3.85945 0.52485,0.66689 1.50989,5.16773 1.3475,6.83707 -0.10798,1.10991 -1.19383,1.18942 -1.4588,0.43167 z M 63.36,111.98111 c 0,-0.18638 0.144,-0.24988 0.32,-0.14111 0.176,0.10877 0.32,0.26127 0.32,0.33889 0,0.0776 -0.144,0.14111 -0.32,0.14111 -0.176,0 -0.32,-0.1525 -0.32,-0.33889 z m 0,-0.76338 c 0,-0.56007 0.778623,-3.40112 1.058498,-3.40112 1.176341,-2.2629 3.378488,-4.26659 5.803937,-5.2457 0.394515,0 0.730359,0.75586 -0.0212,1.86946 -1.116775,1.08277 -1.709295,3.44628 -2.478323,4.41864 -0.236103,-1.32309 -1.017278,-1.09302 -2.229074,1.06688 -0.348333,0.88777 -2.133835,1.84154 -2.133835,1.29184 z m 42.13464,-5.49571 c -1.60192,-1.45078 -2.60938,-2.31801 -2.93875,-2.31938 -0.51227,-0.002 -1.8362,-2.01443 -1.34432,-2.02916 0.21134,-0.006 1.3435,0.0488 2.19158,0.23072 1.37343,0.29455 2.11167,1.01829 2.78977,2.29652 0.74689,1.4079 -0.0639,2.39578 -0.69828,1.8213 z m -28.562887,-2.95207 c -0.47336,-0.33155 -1.404897,-0.8564 -2.466597,-0.78282 -1.964016,0.13613 -1.668039,-0.91015 0.307316,-1.25354 2.164652,-0.3763 4.47907,0.35547 4.601179,0.98954 -0.52294,0.83216 -0.148562,1.2643 -2.441898,1.04682 z m 19.23586,-3.018402 c -0.01312,-1.958467 0.649842,-2.505356 2.505957,-2.505356 1.51657,0 2.38199,0.199272 3.30642,1.259224 l 1.1368,1.30345 -3.04192,0.243534 c -2.35178,0.18829 -2.16138,-0.116 -2.432589,0.34923 -0.273828,0.46973 -1.470069,0.0357 -1.474668,-0.650082 z"
         id="hair1" />
      <path
         style="display:inline;fill:#fbd8c8;stroke-width:0.32"
         d="m 84.32,150.02894 c -0.704,-0.36452 -1.568,-0.91703 -1.92,-1.22778 -0.352,-0.31076 -1.941434,-1.22658 -3.532077,-2.03515 -1.901616,-0.96666 -3.382937,-1.99342 -4.325353,-2.99807 -2.009034,-2.14172 -6.297952,-5.91139 -7.82257,-6.8755 -0.704,-0.44519 -1.554317,-1.1161 -1.889597,-1.49093 -0.335277,-0.37483 -0.753741,-0.68151 -0.929917,-0.68151 -0.176176,0 -0.892102,-0.5833 -1.59094,-1.29622 l -1.270621,-1.29623 0.736317,-0.78377 c 0.404976,-0.43108 0.646092,-0.78378 0.535817,-0.78378 -0.110275,0 0.172567,-0.396 0.628538,-0.88 0.455971,-0.484 1.169315,-1.6406 1.585209,-2.57023 0.808596,-1.80741 1.488935,-2.31369 2.318688,-1.72547 1.667258,1.18193 2.74161,1.39702 6.116506,1.22454 3.29968,-0.16864 5.393306,-0.63182 7.290531,-1.61292 1.365104,-0.70592 4.009367,-3.99548 4.550394,-5.66086 0.519872,-1.60025 1.304614,-2.61844 1.520029,-1.9722 0.20144,0.60432 1.510268,0.47514 2.780755,-0.27447 1.033897,-0.61001 1.138291,-0.62081 1.138291,-0.11777 0,0.78131 1.200531,2.62991 2.647898,4.07728 1.685136,1.68513 4.292265,2.52369 8.392102,2.69923 l 3.2,0.137 2.6638,-1.30206 c 1.4651,-0.71614 2.70993,-1.30207 2.76631,-1.30207 0.0564,0 -0.012,0.50746 -0.15184,1.12768 -0.32395,1.43632 -0.18127,2.0372 1.15222,4.85259 0.59923,1.26514 1.08951,2.45532 1.08951,2.64484 0,0.55777 -1.95491,3.88895 -3.25996,5.555 -0.66352,0.84705 -1.37936,2.14305 -1.59075,2.88 -0.8023,2.79687 -8.874724,9.30872 -14.125069,11.39438 -3.133197,1.24464 -6.640039,1.36327 -8.704221,0.29445 z m 3.992205,-8.36447 c 1.852288,-0.0311 3.727795,0.0607 4.167795,0.20384 l 0.8,0.26031 -0.8,-0.70551 c -0.750701,-0.66204 -1.00809,-0.69381 -4.176848,-0.51542 -1.857267,0.10455 -3.839664,0.3847 -4.405328,0.62254 -1.211046,0.50921 -1.020934,0.97677 0.207283,0.50981 0.461616,-0.17551 2.35481,-0.34451 4.207098,-0.37557 z m 1.678441,-8.72353 c 0.805562,-0.27448 1.676064,-0.74248 1.934452,-1.04 0.57656,-0.66388 1.021504,-3.26094 0.558684,-3.26094 -0.17808,0 -0.323782,0.55368 -0.323782,1.2304 0,1.44986 -0.565987,2.06607 -2.536118,2.76117 -2.001325,0.70611 -2.51698,0.61933 -3.770925,-0.63461 -1.005626,-1.00563 -1.101408,-1.24819 -0.916128,-2.32 0.149379,-0.86412 0.115993,-1.06348 -0.120058,-0.71696 -0.659945,0.96881 -0.372054,2.26872 0.751229,3.392 1.240883,1.24088 2.152877,1.36233 4.422646,0.58894 z M 69.44,124 c -0.737302,-0.616 -1.537862,-1.12 -1.779018,-1.12 -0.614448,0 -1.100982,-1.03768 -1.100982,-2.34819 v -1.11025 l 1.704269,0.92307 c 1.333872,0.72245 2.21196,0.8579 4.321819,1.01735 2.606073,0.19696 5.058984,-0.28188 5.447503,-0.91052 0.09254,-0.14972 0.430771,-1.79534 0.522297,-3.92448 0.12263,-2.85279 0.04856,-4.21322 -0.281558,-5.1714 -0.246381,-0.71513 -0.374103,-1.58269 -0.283824,-1.92791 0.149958,-0.57345 -1.007021,-0.33058 -1.824712,-0.36185 -1.859303,-0.0711 -3.362636,0.2194 -4.367772,1.13567 -0.2163,0.19718 -1.115446,0.86251 -1.998102,1.47851 -0.882656,0.616 -1.759942,1.408 -1.949523,1.76 -0.267191,0.4961 -0.306464,0.22612 -0.174666,-1.20072 0.258794,-2.80169 1.483987,-5.4718 2.536282,-5.52741 0.420621,-0.0222 2.204025,-0.85884 2.427987,-1.13898 0.420224,-0.52566 2.765088,-0.99177 4.081526,-0.81133 1.812964,0.24849 4.27409,1.70071 6.360432,3.75305 1.495431,1.47105 2.202231,5.90944 1.236071,7.76197 -0.262915,0.50412 -0.478029,1.1089 -0.478029,1.34395 0,0.65623 -1.788909,3.15807 -3.049632,4.265 -1.46599,1.28716 -3.20873,2.16236 -5.48784,2.75599 C 72.26527,125.43263 70.987373,125.29279 69.44,124 Z m 28.374083,-3.66091 c -1.026256,-0.49995 -2.28895,-1.3143 -2.805987,-1.80966 -2.078224,-1.99106 -2.996154,-8.54949 -1.580349,-11.29131 0.819223,-1.58649 2.720887,-3.32652 4.733184,-4.33088 1.758823,-0.87784 2.899019,-0.87075 3.640469,0.0226 0.21321,0.2569 0.83112,0.66052 1.37312,0.89693 0.54202,0.23642 1.3752,0.8041 1.85152,1.26152 0.47631,0.45741 1.01631,0.83166 1.2,0.83166 0.51323,0 0.39588,-1.47024 -0.15377,-1.92642 -0.99055,-0.82208 -0.14932,-0.67266 1.02878,0.18272 1.59608,1.15889 3.51779,3.65496 4.34335,5.64147 0.58972,1.41902 0.62149,1.79537 0.29826,3.53346 -0.20479,1.10118 -0.64401,2.24572 -1.01222,2.63765 -0.35774,0.38081 -0.65116,0.82709 -0.65203,0.99175 -0.003,0.57253 -4.13594,3.19695 -6.07851,3.80154 -2.62805,0.81794 -3.97055,0.63614 -6.185817,-0.44307 z m 7.742067,-1.63248 c 2.11643,-1.06111 4.20284,-3.04766 3.97427,-4.24334 -0.0912,-0.47682 0.008,-1.0768 0.22129,-1.33328 0.59351,-0.71514 -2.50505,-3.32614 -4.53304,-4.00152 -0.85556,-0.28492 -1.53862,-0.68686 -1.73412,-0.83913 -0.60404,-0.47048 -5.019344,-1.07273 -6.300268,-0.78384 -2.05122,0.46263 -2.156352,0.67759 -1.940999,3.96877 0.135885,2.07668 0.418163,3.44348 0.972704,4.70985 0.429696,0.98127 0.736883,1.97059 0.682637,2.19848 -0.05424,0.22789 0.333376,0.68349 0.861376,1.01245 1.448739,0.90259 5.59123,0.41704 7.79615,-0.68844 z M 104.64,117.63918 c 0,-0.0664 0.252,-0.31845 0.56,-0.56 0.50754,-0.39804 0.51886,-0.38672 0.12082,0.12082 -0.41804,0.53304 -0.68082,0.70255 -0.68082,0.43918 z m -18.24792,-4.22001 c -0.171645,-0.45146 -0.31425,-1.42346 -0.316899,-2.16 -0.0067,-1.86703 -0.613853,-3.41671 -2.002573,-5.11146 -1.142006,-1.39367 -3.675203,-3.10771 -4.592912,-3.10771 -0.558141,0 -0.551616,-0.13536 0.0639,-1.32563 0.276976,-0.53561 0.424537,-1.0529 0.32791,-1.14953 -0.238464,-0.23846 -3.862579,-0.17136 -5.107232,0.0946 -0.992384,0.21203 -0.987225,0.20091 0.435725,-0.939314 0.792,-0.634637 1.549066,-1.155283 1.682365,-1.156989 0.133302,-0.0016 1.933302,-0.806461 4,-1.788339 5.113334,-2.429322 4.807734,-2.296352 6.930141,-3.015328 1.040876,-0.352605 1.959132,-0.574467 2.040569,-0.49303 0.08144,0.08144 0.525811,-0.04352 0.987495,-0.277677 0.461686,-0.234157 1.731964,-0.579904 2.822838,-0.768323 1.090877,-0.188423 2.375184,-0.547856 2.854016,-0.798743 0.809872,-0.424333 1.012266,-0.381005 2.901187,0.621088 1.11682,0.592487 2.30802,1.077245 2.6471,1.077245 0.33909,0 0.6928,0.12343 0.78604,0.274285 0.0932,0.150857 1.07373,0.449373 2.17888,0.663366 1.10516,0.213997 2.30997,0.447437 2.67738,0.518762 1.13742,0.220809 2.22014,1.304912 3.23905,3.243193 1.49144,2.837184 1.73746,6.499194 0.34293,5.104674 -0.97027,-0.97028 -4.69169,-2.69896 -6.28062,-2.91749 -1.31395,-0.180713 -1.87535,-0.468067 -2.88289,-1.475603 C 100.9278,97.332506 100.78787,97.28 98.791885,97.28 96.465677,97.28 96.32,97.413939 96.32,99.552768 c 0,1.132492 -0.148029,1.364762 -1.458464,2.288442 -1.321658,0.93159 -2.811619,2.88457 -3.477978,4.55879 -0.140099,0.352 -0.492777,2.0581 -0.783731,3.79133 l -0.529005,3.15133 -1.275411,0.44385 c -1.766153,0.61464 -2.046262,0.57182 -2.403331,-0.36734 z"
         id="skin" />
      <path
         style="display:inline;fill:#93a4aa;stroke-width:0.32"
         d="m 71.223478,120.08853 c -0.627824,-0.16011 -1.512323,-1.04088 -2.146102,-2.13705 -0.296211,-0.51233 -0.266307,-0.5757 0.189174,-0.40092 0.581293,0.22306 1.43953,-0.43305 1.475108,-1.1277 0.0119,-0.23258 0.177916,-0.0989 0.368899,0.29714 0.563977,1.16939 2.169443,0.83407 2.169443,-0.45312 0,-0.45001 0.138701,-0.69893 0.325219,-0.58365 0.178871,0.11054 0.249549,0.32343 0.157059,0.47308 -0.09249,0.14965 0.02346,0.4637 0.257639,0.69789 0.234189,0.23419 0.48751,0.5698 0.562941,0.7458 0.07543,0.176 0.317142,0.3 0.537142,0.27556 0.985539,-0.10951 -0.09648,1.45713 -1.375478,1.99153 -1.111706,0.4645 -1.451076,0.49431 -2.521044,0.22144 z m 1.67472,-1.857 c -0.09852,-0.0985 -0.277456,0.0791 -0.397625,0.39467 -0.173658,0.45606 -0.136903,0.49282 0.179136,0.17913 0.218694,-0.21706 0.317014,-0.47527 0.218489,-0.5738 z M 100.88,117.68944 c -0.396,-0.19098 -0.72,-0.46924 -0.72,-0.61834 0,-0.14911 0,-0.3791 0,-0.5111 0,-0.132 0.132,-0.24 0.29333,-0.24 0.54095,0 0.81245,-0.51213 0.405,-0.76395 -0.31045,-0.19187 -0.32101,-0.46374 -0.0459,-1.1826 l 0.35726,-0.93345 0.44998,1.06446 c 0.62665,1.48235 1.54454,1.28333 1.68067,-0.36441 l 0.10034,-1.21462 0.61966,0.78776 c 0.34081,0.43326 0.61965,1.01704 0.61965,1.29728 0,0.28024 0.1525,0.50953 0.33889,0.50953 0.18638,0 0.24988,-0.144 0.14111,-0.32 -0.10877,-0.176 0.029,-0.32 0.3062,-0.32 0.63504,0 0.56995,1.8223 -0.0739,2.06938 -0.23807,0.0913 -0.32948,0.33337 -0.20313,0.5378 0.14283,0.2311 0.09,0.28534 -0.13972,0.14338 -0.20319,-0.12558 -0.36944,-0.0758 -0.36944,0.11055 0,0.44122 -2.81833,0.40248 -3.76,-0.0517 z M 101.76,116.8 c 0,-0.176 -0.0635,-0.32 -0.14111,-0.32 -0.0776,0 -0.23012,0.144 -0.33889,0.32 -0.10877,0.176 -0.0453,0.32 0.14111,0.32 0.18639,0 0.33889,-0.144 0.33889,-0.32 z m 2.27971,-0.72533 c -0.31604,-0.31369 -0.35279,-0.27693 -0.17914,0.17913 0.12017,0.31559 0.2991,0.49319 0.39763,0.39467 0.0985,-0.0985 2e-4,-0.35674 -0.21849,-0.5738 z m 2.54555,-1.70134 c 0.0154,-0.37278 0.0912,-0.4486 0.19334,-0.19333 0.0924,0.231 0.0811,0.507 -0.0252,0.61333 -0.10634,0.10634 -0.18197,-0.0827 -0.16807,-0.42 z m -32.237842,-1.61405 c -0.556922,-0.5936 -0.874375,-1.07928 -0.705456,-1.07928 0.413606,0 1.878038,1.48581 1.878038,1.90546 0,0.43003 0.01766,0.44248 -1.172582,-0.82618 z m 24.999424,-2.38057 c -0.249072,-0.40301 0.0071,-0.71682 0.663948,-0.81322 0.25974,-0.0381 0.38962,0.0644 0.28862,0.22782 -0.101,0.16342 -0.342152,0.19916 -0.535903,0.0794 -0.226681,-0.1401 -0.279421,-0.0279 -0.147929,0.31478 0.228371,0.59512 0.05649,0.71742 -0.268736,0.1912 z M 103.95918,109.84 c -0.39804,-0.50754 -0.38672,-0.51886 0.12082,-0.12082 0.53304,0.41804 0.70255,0.68082 0.43918,0.68082 -0.0665,0 -0.31845,-0.252 -0.56,-0.56 z"
         id="eye2" />
      <path
         style="display:inline;fill:#768f98;stroke-width:0.32"
         d="m 70.578445,120.66984 c -0.09863,-0.15958 0.10887,-0.21479 0.461113,-0.12268 0.747197,0.1954 0.841648,0.41284 0.179328,0.41284 -0.253612,0 -0.541811,-0.13057 -0.640441,-0.29016 z m -0.81552,-1.46632 c -0.217495,-0.26206 -0.545373,-0.38381 -0.728627,-0.27055 -0.19984,0.12351 -0.23665,0.0497 -0.09197,-0.18437 0.181264,-0.29329 0.392375,-0.25349 0.849444,0.16015 0.334524,0.30274 0.60823,0.60012 0.60823,0.66085 0,0.23788 -0.259667,0.0887 -0.637075,-0.36608 z m 2.737648,-0.57732 c 0.120169,-0.31559 0.299101,-0.49319 0.397625,-0.39467 0.09853,0.0985 2.05e-4,0.35674 -0.218489,0.5738 -0.316039,0.31369 -0.352794,0.27693 -0.179136,-0.17913 z m 29.823157,-0.45252 c 0.39805,-0.0765 0.97405,-0.0736 1.28,0.006 0.30595,0.0801 -0.0197,0.14272 -0.72373,0.13917 -0.704,-0.004 -0.95432,-0.0691 -0.55627,-0.14563 z m -27.936316,-0.43404 c -0.101852,-0.1648 -0.06869,-0.30184 0.0737,-0.30454 0.142387,-0.003 0.06931,-0.12511 -0.162388,-0.27203 -0.231702,-0.14693 -0.454627,-0.46872 -0.495392,-0.71511 -0.13406,-0.8103 -0.846854,-1.86733 -1.49206,-2.21263 -0.531175,-0.28428 -0.691924,-0.21233 -0.990698,0.44341 -0.279024,0.61239 -0.249235,0.99804 0.136864,1.772 0.27143,0.54409 0.38255,0.98926 0.246934,0.98926 -0.135616,0 -0.402832,-0.324 -0.593817,-0.72 -0.190983,-0.396 -0.356989,-0.52972 -0.368899,-0.29714 -0.03992,0.77939 -0.863175,1.31449 -1.661789,1.08013 -0.626912,-0.18397 -0.775949,-0.46554 -0.85177,-1.60923 -0.0551,-0.83115 0.03178,-1.3098 0.21696,-1.19535 0.169875,0.10499 0.400935,-0.0992 0.513466,-0.45376 0.112531,-0.35456 0.347398,-0.64465 0.521923,-0.64465 0.174528,0 0.240221,-0.12476 0.145984,-0.27723 -0.26975,-0.43647 0.814294,-1.22673 2.199392,-1.60335 0.84776,-0.23051 1.331798,-0.23743 1.465584,-0.021 0.109869,0.17777 0.404246,0.26995 0.654176,0.20483 0.24993,-0.0651 0.337613,-0.0551 0.194854,0.0223 -0.142758,0.0774 -0.01552,0.41041 0.282768,0.74 0.298279,0.3296 0.689332,0.50841 0.869005,0.39737 0.197427,-0.12202 0.227591,-0.0416 0.07623,0.20332 -0.139584,0.22586 -0.08689,0.50631 0.119056,0.63359 0.370502,0.22898 0.482793,1.25405 0.336902,3.07551 -0.05482,0.68446 -0.253184,0.98862 -0.664963,1.01964 -0.322762,0.0243 -0.670173,-0.0906 -0.772026,-0.25543 z m 25.327824,-0.34644 c -0.2687,-0.38362 -0.414054,-0.81803 -0.323008,-0.96535 0.09105,-0.14732 0.01756,-0.26785 -0.163302,-0.26785 -0.180864,0 -0.245955,-0.216 -0.14465,-0.48 0.101309,-0.264 0.02931,-0.48 -0.16,-0.48 -0.189558,0 -0.25239,-0.23923 -0.139856,-0.53249 0.136464,-0.35563 0.0812,-0.4564 -0.166377,-0.30339 -0.242205,0.1497 -0.304653,0.057 -0.180144,-0.2675 0.104816,-0.27314 0.03117,-0.49662 -0.163664,-0.49662 -0.194832,0 -0.354237,-0.3754 -0.354237,-0.83424 0,-0.64202 0.121024,-0.78779 0.525261,-0.63267 0.459072,0.17616 0.469155,0.1326 0.08,-0.34568 -0.392663,-0.48259 -0.378234,-0.52211 0.122144,-0.33453 0.484333,0.18157 0.517344,0.11917 0.225469,-0.4262 -0.250941,-0.46888 -0.231175,-0.87 0.07427,-1.50729 0.346998,-0.72399 0.641638,-0.87823 1.771926,-0.92756 0.74564,-0.0325 1.43883,0.0753 1.54043,0.23972 0.1016,0.16439 0.31877,0.21604 0.48261,0.11478 0.16384,-0.10125 0.29789,-0.008 0.29789,0.20812 0,0.21572 0.0899,0.30234 0.19972,0.19249 0.10985,-0.10985 0.43385,0.0529 0.72,0.36175 0.28616,0.30881 0.37628,0.34704 0.20028,0.085 -0.23462,-0.34937 -0.21571,-0.41389 0.0709,-0.24182 0.49791,0.29893 1.73615,3.07317 1.52451,3.41562 -0.0877,0.14184 -0.0361,0.30619 0.11463,0.36522 0.1507,0.059 0.3539,0.71936 0.45155,1.4674 0.10144,0.77711 0.0534,1.28337 -0.11202,1.18112 -0.15926,-0.0984 -0.28956,-0.38646 -0.28956,-0.64008 0,-0.25361 -0.2245,-0.46111 -0.49889,-0.46111 -0.27438,0 -0.40988,0.144 -0.30111,0.32 0.10877,0.176 0.0453,0.32 -0.14111,0.32 -0.18639,0 -0.34103,-0.252 -0.34365,-0.56 -0.003,-0.308 -0.49178,-1.13575 -1.08703,-1.83944 -1.0433,-1.23337 -1.10455,-1.25926 -1.70121,-0.7193 -0.34041,0.30808 -0.71645,0.48902 -0.83563,0.40211 -0.11919,-0.0869 -0.0884,-0.003 0.0683,0.18563 0.17229,0.20775 0.0938,0.72702 -0.19855,1.31298 -0.40221,0.80624 -0.41089,1.01421 -0.0516,1.23626 0.45903,0.2837 0.1684,0.78176 -0.45619,0.78176 -0.537297,0 -0.473668,0.9255 0.0787,1.1448 0.31794,0.12622 0.35237,0.2547 0.10862,0.40535 -0.19628,0.12131 -0.57672,-0.0933 -0.845424,-0.47695 z m -0.09966,-7.20569 c -0.131492,-0.34266 -0.07875,-0.45488 0.147929,-0.31478 0.193751,0.11974 0.434903,0.084 0.535903,-0.0794 0.2166,-0.35046 -0.433388,-0.29143 -1.053573,0.0957 -0.365552,0.22817 -0.365552,0.31448 0,0.5461 0.588365,0.37281 0.603833,0.36245 0.369741,-0.24759 z M 101.28,116.8 c 0.10877,-0.176 0.26127,-0.32 0.33889,-0.32 0.0776,0 0.14111,0.144 0.14111,0.32 0,0.176 -0.1525,0.32 -0.33889,0.32 -0.18638,0 -0.24988,-0.144 -0.14111,-0.32 z m 2.58057,-0.5462 c -0.17365,-0.45606 -0.1369,-0.49282 0.17914,-0.17913 0.21869,0.21706 0.31701,0.47527 0.21849,0.5738 -0.0985,0.0985 -0.27746,-0.0791 -0.39763,-0.39467 z m -1.92735,-1.03242 c -0.12707,-0.20559 -0.003,-0.256 0.32246,-0.13109 0.29667,0.11385 0.66594,0.007 0.84098,-0.24366 0.2597,-0.37169 0.2901,-0.36609 0.18118,0.0334 -0.15793,0.57923 -1.05661,0.8074 -1.34462,0.34138 z"
         id="eye1" />
      <path
         style="display:inline;fill:#b02401;stroke-width:0.32"
         d="m 68.8,125.9965 c -1.804003,-0.89411 -2.56,-1.59917 -2.56,-2.38754 0,-0.59568 0.128061,-0.74829 0.506173,-0.6032 0.278393,0.10684 0.624768,0.19424 0.769721,0.19424 0.144954,0 0.866804,0.504 1.604106,1.12 1.154141,0.96426 1.571731,1.12 3.003043,1.12 3.175658,0 6.781475,-1.29771 8.987325,-3.23447 1.260723,-1.10693 3.049632,-3.60877 3.049632,-4.265 0,-0.23505 0.215114,-0.83983 0.478029,-1.34395 1.011894,-1.94022 -0.131993,-6.85822 -1.645922,-8.31766 -1.39529,-1.34506 -2.626748,-2.45324 -4.112473,-3.16048 -1.998662,-0.95143 -4.387701,-0.95252 -6.939816,0.25812 -1.001104,0.47489 -1.901104,0.86344 -2,0.86344 -0.54561,0 -0.0068,-1.29521 1.029731,-2.4755 1.155033,-1.31518 1.252336,-1.3572 3.270451,-1.41256 3.4156,-0.0937 7.228991,1.43063 9.289202,3.84972 1.492055,1.75197 2.219051,3.45143 2.225979,5.37751 0.01043,2.89672 0.730918,3.44244 3.344118,2.53288 1.451283,-0.50513 1.611719,-0.82777 1.925447,-3.87205 0.354048,-3.43552 2.06742,-6.81442 4.13182,-8.14827 0.551888,-0.35658 1.435434,-0.94796 1.963434,-1.31417 0.882074,-0.61178 1.284768,-0.65305 4.9609,-0.50851 3.878,0.15247 4.06968,0.1942 6.24,1.35823 1.23151,0.66051 2.3111,1.2854 2.3991,1.38864 0.088,0.10325 0.7,0.59023 1.36,1.08219 1.19202,0.88851 1.20002,0.90978 1.20309,3.19817 0.005,3.84481 -0.69245,8.64405 -1.32334,9.10412 -0.30199,0.22022 -0.6517,0.86764 -0.77713,1.43872 -0.52403,2.38592 0.11657,2.44962 -4.08517,4.53577 -2.95969,1.46943 -3.17619,1.21933 -5.92145,1.06115 -3.544688,-0.20425 -7.006406,-1.28929 -7.488413,-2.34718 -0.18959,-0.4161 -0.601033,-0.83791 -0.91432,-0.93734 -0.629731,-0.19987 -2.213267,-2.6958 -2.213267,-3.4885 0,-0.67545 -0.585027,-0.6317 -1.847734,0.13818 C 87.57799,117.49276 86.72,117.63006 86.72,117.12 c 0,-0.45156 -0.930163,-0.39812 -1.392541,0.08 -0.212755,0.22 -0.593693,1.03678 -0.846534,1.81506 -0.541027,1.66538 -3.317968,5.13184 -4.683072,5.83776 -2.71679,1.40491 -9.235463,2.01715 -10.997853,1.14368 z m 36.02433,-5.10207 c 1.73804,-0.61457 5.57567,-3.117 5.57567,-3.63576 0,-0.22672 0.33556,-0.67617 0.74569,-0.99878 0.69129,-0.54377 1.23526,-2.17953 1.257,-3.77989 0.0178,-1.30748 -0.22672,-2.72 -0.47076,-2.72 -0.13856,0 -0.25193,-0.19433 -0.25193,-0.43184 0,-0.99921 -3.09186,-4.68628 -4.96,-5.91483 -3.38734,-2.22764 -5.36686,-2.45946 -8.48,-0.9931 -5.182714,2.44118 -7.001706,6.48375 -5.49095,12.2032 0.357884,1.35489 0.791366,2.72289 0.963286,3.04 0.575542,1.06159 2.112144,2.29528 3.887664,3.12129 1.460413,0.67942 2.114054,0.7977 3.84,0.69486 1.144,-0.0682 2.66695,-0.33148 3.38433,-0.58515 z"
         id="glasses" />
      <path
         style="display:inline;fill:#31261d;stroke-width:0.32"
         d="m 98.621581,164.79912 c -0.05605,-1.09295 0.03508,-1.91912 0.211686,-1.91912 -0.0074,-2.35934 2.006003,-4.39406 3.354063,-6.30598 0.46365,-0.7403 1.67318,-1.9643 2.68783,-2.72 1.01466,-0.75571 1.89369,-1.48459 1.95341,-1.61974 1.14845,-1.39043 0.98716,-3.53679 1.14171,-5.29578 -0.44975,-1.6119 0.44873,-10.69168 -1.65027,-5.65341 -3.516,3.15718 -7.610856,5.88289 -11.359998,8.36484 -1.622135,0.94553 -3.359002,1.14059 -4.797907,1.57756 -1.657444,0.19738 -4.129538,0.53958 -5.307591,-0.38117 -2.407068,-1.31477 -5.302313,-2.83579 -7.426371,-4.35708 l -0.967824,-0.55077 c -0.07481,0.8143 -0.433932,1.60046 -0.745845,2.27027 -0.638175,3.06586 -1.727189,6.16384 -2.761025,8.91127 -1.410232,1.89123 -2.916935,4.18128 -4.417579,5.81978 -1.698831,1.26131 -3.774441,2.67004 -5.261576,3.78022 -0.223143,0 -0.935504,0.36 -1.583021,0.8 -1.53177,1.04086 -2.564378,1.0761 -2.344579,0.08 0.735126,-3.33147 1.0964,-11.48212 0.648912,-14.64 -0.112231,-0.792 -0.565847,-2.232 -1.008036,-3.2 -1.047982,-2.47716 -2.15407,-3.35412 -2.869078,-5.81924 -0.532812,-2.32356 -2.024336,0.46295 -2.033581,1.24035 -0.0042,0.87575 -0.594035,1.89096 -0.672662,1.15778 -0.01526,-0.14239 -0.07857,-0.75999 -0.140663,-1.37244 -0.100265,-0.93136 -0.680208,-1.51883 -1.04214,-2.29979 -1.254087,-1.97464 -2.925619,-4.2206 -3.509446,-6.4 -0.892417,-1.96126 -1.37894,-4.47838 -0.92503,-6.20143 0.891686,-2.04482 1.140838,-4.44955 1.811792,-6.38106 0.645113,-2.7922 0.07754,-7.06154 -1.023904,-9.87958 -1.474129,-1.47012 -2.487439,-3.36355 -3.474743,-4.92404 -0.964029,-2.07324 -1.540989,-6.33276 -0.995776,-7.3515 0.177187,-0.33109 0.354778,-1.746564 0.394643,-3.145514 C 44.546845,96.984595 44.687795,95.624 44.820205,95.36 45.176141,94.650317 46.08,91.517299 46.08,90.99321 c 0.996741,-2.121418 2.220466,-3.703361 3.40791,-4.946711 1.557648,-1.624435 3.493213,-3.649437 4.301255,-4.500006 2.37534,-1.969694 5.093554,-2.17162 6.466112,-4.461837 1.358855,-2.331956 2.933098,-4.683423 4.544701,-6.567798 1.948469,-1.972044 3.560434,-5.114778 6.000022,-6.198852 2.78433,-2.238315 5.997447,-4.548709 8.953386,-6.138163 0.196262,-0.58879 11.297638,-0.433545 12.925209,0.180749 0.682771,0.257699 2.033405,0.636109 3.001405,0.840912 3.256051,0.688886 3.837907,0.967898 4.62775,2.219091 0.41708,0.660688 0.85789,1.865264 0.97959,2.676835 0.20168,1.344852 0.32456,1.508826 1.38697,1.850781 2.91686,1.282076 6.33844,1.088481 9.04749,1.35817 4.30522,0.432032 5.65,0.689472 7.04,1.347705 2.37544,0.695053 3.49829,2.592355 4.92196,3.857802 1.67749,1.773654 2.3273,4.500684 3.20029,6.546554 0.50401,1.333586 1.12523,2.817443 2.01863,3.741558 0.1789,0.484 0.80499,1.408294 1.3913,2.053984 1.85726,1.481645 2.40076,3.435959 3.24491,5.251517 0.38561,0.718025 0.98911,1.870025 1.34111,2.56 0.41366,0.939724 1.0498,1.752721 1.68196,2.511984 1.51117,3.737445 1.62625,8.188185 1.3911,11.871035 -0.59245,8.96554 -1.09686,10.69864 -3.80404,13.07032 -0.92988,0.81464 -1.91038,1.48116 -2.17889,1.48116 -0.26851,0 -0.40929,0.12768 -0.31284,0.28374 0.0965,0.15606 -0.0391,0.46169 -0.30111,0.67918 -0.54415,0.4516 -0.6682,4.0747 -0.19274,5.62933 0.15605,0.51026 0.5328,1.86375 0.83721,3.00775 0.30441,1.144 0.74084,2.512 0.96984,3.04 1.49906,3.45629 2.19163,7.86233 1.99501,12.69195 0.16066,2.68684 -0.75559,4.51013 -1.5258,6.80624 -2.59856,2.48337 -4.572,4.00235 -6.39293,6.25802 -2.0325,2.5816 -5.15886,3.53815 -7.61335,5.12379 -2.21667,1.51835 -4.31853,2.61383 -6.57128,3.48508 -1.55214,0.69961 -6.40485,1.08919 -8.38244,0.67294 -2.95218,-0.49637 -5.663276,-1.48457 -5.858119,-4.4789 z m 14.200839,2.74351 c 2.94659,-0.84768 4.60065,-2.88114 7.14039,-3.76037 5.41747,-3.47978 6.70017,-5.60782 10.67578,-9.33739 1.80377,-1.04941 2.79163,-3.12869 2.80141,-4.86322 1.49481,-5.04486 -0.1637,-8.1185 -0.79779,-12.62165 -0.10595,-1.78327 -1.11822,-3.06332 -1.24004,-4.60716 -0.78325,-2.7495 -1.78024,-5.57908 -1.80489,-8.41128 0.003,-2.6632 0.0631,-2.9576 0.64734,-3.14304 6.24363,-2.3946 6.3298,-7.59726 6.42144,-11.29756 0.0532,-2.16648 0.2074,-4.00749 0.34277,-4.09116 1.15633,-3.24801 -0.92182,-5.78663 -1.00884,-8.872677 -0.53793,-1.639597 -1.44848,-1.959565 -2.24,-3.416048 -0.96404,-2.15969 -1.81418,-5.019114 -3.25934,-6.2044 -1.49823,-1.177311 -2.41548,-2.896509 -3.15149,-4.549523 -1.12402,-2.077145 -2.28593,-3.67769 -3.03008,-5.773786 -0.19046,-1.288968 -0.78052,-2.528057 -1.43908,-3.339705 0,-0.190487 -0.70444,-1.054487 -1.56541,-1.92 -1.20522,-1.211571 -1.79426,-1.573661 -2.56,-1.573661 -2.13801,-0.684887 -4.10744,-1.029286 -5.95459,-1.078838 -1.408,-0.03288 -3.67251,-0.263082 -5.03224,-0.511565 -1.35973,-0.248483 -2.5594,-0.364631 -2.66592,-0.258099 0.88965,1.226863 0.90947,2.359216 1.16991,3.348726 0.65115,1.217936 0.53037,6.465142 -0.18882,8.203622 -1.33722,3.232413 -1.92134,4.280381 -2.9297,5.256154 -1.44132,2.017881 -2.41049,3.775319 -3.900088,5.496614 -0.01095,1.759098 2.068838,0.997575 3.415958,1.635309 2.48447,1.037263 5.56253,1.289 7.32951,2.911437 2.30862,1.983159 3.31044,4.652267 3.41469,6.76322 0.071,1.50031 0.27184,2.99459 0.44633,3.32063 0.56828,1.32528 1.1392,2.59872 1.66036,3.79279 0.176,0.10877 0.32,1.04672 0.32,2.08433 0,2.06506 -1.22615,5.97089 -2.06758,6.58616 -0.81031,0.96557 -1.4052,1.87884 -2.02696,2.54492 -1.0276,1.12539 -1.41561,2.5356 -1.26854,3.7039 -0.11668,1.59917 0.4376,2.36017 1.17596,3.64069 0.62062,0.96043 1.35076,2.63128 1.16666,3.56946 -1.82377,3.70616 -5.38846,6.32002 -4.54752,8.91054 0.24299,0.73581 0.39706,2.43641 0.36238,4 -0.0332,1.496 -0.0815,4.21279 -0.10736,6.03732 -0.0448,3.16162 -0.13995,2.7152 -0.69445,3.14802 -1.5824,1.17057 -2.8344,1.82323 -3.83259,3.13466 -0.90574,1.87579 -3.66689,3.0492 -3.84,5.11532 -1.076784,3.36093 -0.745087,5.44413 1.98994,6.61449 4.02315,0.97366 7.29828,1.30666 10.67249,-0.18718 z M 64.96,164.63994 c 2.833591,-3.20904 6.71241,-6.28535 8.026291,-10.25619 0.640059,-1.92842 0.79546,-3.55281 1.254567,-5.10375 0.741669,-1.28368 1.009185,-2.87908 0.739734,-3.79643 -2.018601,-2.53599 -4.798491,-4.05026 -6.760872,-6.2293 -2.011296,-1.95383 -4.096442,-3.64677 -6.097637,-5.29395 -1.700856,-1.28759 -1.452675,-0.4434 -2.282083,0.75968 -1.130474,1.71259 -2.259445,3.56304 -3.129219,5.29966 -0.680409,1.97926 0.617271,4.63369 1.530095,6.54034 1.255669,1.88671 2.534369,4.07001 2.436695,6.13212 0.357904,0.56759 0.397866,9.60278 0.04459,10.08082 -0.428528,0.57986 -0.56809,3.71434 -0.185885,4.17487 2.402397,-0.94945 2.512575,-1.18009 4.423724,-2.30787 z m 28.064221,-14.90545 c 5.250345,-2.08566 13.322769,-8.59751 14.125069,-11.39438 0.21139,-0.73695 0.92723,-2.03295 1.59075,-2.88 1.30505,-1.66605 3.25996,-4.99723 3.25996,-5.555 0,-0.18952 -0.49028,-1.3797 -1.08951,-2.64484 -1.33349,-2.81539 -1.47617,-3.41627 -1.15222,-4.85259 0.13988,-0.62022 0.20821,-1.12768 0.15184,-1.12768 -0.0564,0 -1.30121,0.58593 -2.76631,1.30207 l -2.6638,1.30206 -3.2,-0.137 c -4.099837,-0.17554 -6.706966,-1.0141 -8.392102,-2.69923 C 91.440531,119.60053 90.24,117.75193 90.24,116.97062 c 0,-0.50304 -0.104394,-0.49224 -1.138291,0.11777 -1.270487,0.74961 -2.579315,0.87879 -2.780755,0.27447 -0.215415,-0.64624 -1.000157,0.37195 -1.520029,1.9722 -0.541027,1.66538 -3.18529,4.95494 -4.550394,5.66086 -1.897225,0.9811 -3.990851,1.44428 -7.290531,1.61292 -3.374896,0.17248 -4.449248,-0.0426 -6.116506,-1.22454 -0.829753,-0.58822 -1.510092,-0.0819 -2.318688,1.72547 -0.683117,1.54034 -1.946972,2.9868 -2.749564,4.23401 l -0.736317,0.78377 1.270621,1.29623 c 0.698838,0.71292 1.414764,1.29622 1.59094,1.29622 0.176176,0 0.59464,0.30668 0.929917,0.68151 0.33528,0.37483 1.185597,1.04574 1.889597,1.49093 1.524618,0.96411 5.813536,4.73378 7.82257,6.8755 0.942416,1.00465 2.423737,2.03141 4.325353,2.99807 1.590643,0.80857 3.180077,1.72439 3.532077,2.03515 2.519434,2.22423 6.495309,2.57351 10.624221,0.93333 z m -9.956647,-7.57358 c -0.463174,-0.46318 2.099949,-1.0767 5.235578,-1.25322 3.168758,-0.17839 3.426147,-0.14662 4.176848,0.51542 l 0.8,0.70551 -0.8,-0.26031 c -1.085123,-0.35309 -7.331392,-0.22501 -8.374893,0.17173 -0.461616,0.17551 -0.928505,0.2299 -1.037533,0.12087 z M 85.568,132.352 c -1.123283,-1.12328 -1.411174,-2.42319 -0.751229,-3.392 0.236051,-0.34652 0.269437,-0.14716 0.120058,0.71696 -0.18528,1.07181 -0.0895,1.31437 0.916128,2.32 1.253945,1.25394 1.7696,1.34072 3.770925,0.63461 1.970131,-0.6951 2.536118,-1.31131 2.536118,-2.76117 0,-0.67672 0.145702,-1.2304 0.323782,-1.2304 0.46282,0 0.01789,2.59706 -0.558684,3.26094 -0.571325,0.65785 -3.052874,1.53906 -4.334103,1.53906 -0.636662,0 -1.28215,-0.34716 -2.022995,-1.088 z m -29.25619,4.86449 c 1.661081,-2.51503 3.152827,-4.83983 5.12488,-6.97649 1.19592,-1.60408 4.024903,-5.72595 3.080541,-6.99886 -0.285245,-0.31519 -0.41448,-0.67722 -0.287194,-0.80451 0.127287,-0.12729 0.09099,-0.3316 -0.08066,-0.45403 -0.694634,-0.49544 -1.471028,-3.82283 -1.507949,-6.4626 -0.03819,-2.73013 0.534038,-6.18341 1.158957,-6.99413 0.442204,-0.57368 1.054841,-1.63505 1.457961,-2.52587 0.376292,-0.7411 1.137597,-1.07361 1.684461,-1.51397 1.231258,-1.14168 3.027795,-2.08603 3.968496,-2.08603 1.023591,-0.40798 0.804533,-1.29204 1.813776,-1.89075 0.08784,-0.33591 0.788637,-1.047615 1.557322,-1.58156 C 75.051075,98.393747 76.04,97.687421 76.48,97.358083 c 0.44,-0.329341 1.304,-0.797465 1.92,-1.040275 0.616,-0.24281 1.202582,-0.561021 1.303517,-0.707136 2.531585,-1.202396 5.596022,-1.925151 7.862198,-2.970672 2.194786,-0.854801 4.920445,-1.493414 6.994285,-1.591066 0.768156,-0.392025 1.471437,-1.076837 2.022678,-1.610918 0.200976,-0.441094 0.47609,-0.784042 0.611367,-0.762106 1.894819,-0.71818 3.433035,-3.236978 4.725955,-4.895734 1.52101,-1.718252 2.09316,-4.198859 3.0082,-5.988003 0.6963,-2.939002 0.0661,-5.688925 -0.75349,-8.257667 -0.76049,-1.419769 -1.99901,-2.30936 -3.37471,-3.064522 -0.10745,-1.498036 -0.38108,-2.5682 -0.982592,-3.840922 -0.567632,-1.212009 -2.006538,-2.035155 -4.615062,-2.640112 -4.495941,-0.898957 -10.902413,-1.916738 -15.627031,-0.72991 -3.684948,1.933132 -6.958927,5.264269 -9.777792,7.015833 -2.168638,2.157336 -3.575893,4.106994 -5.313264,6.22202 -2.020262,1.905365 -2.365702,4.78574 -4.164259,6.281331 -2.455831,2.006306 -5.732696,1.950837 -6.87775,4.901776 -2.09281,1.875203 -3.424166,3.561528 -4.96712,5.509965 -0.725716,0.747245 -1.1941,1.591177 -1.319968,2.37832 -1.733286,4.024681 -2.500191,9.178785 -2.393629,13.772655 0.854432,2.86697 2.69198,5.41687 3.870249,7.61906 0.6508,0 1.222199,1.86578 1.444893,4.71799 0.127021,1.62689 0.359735,2.87839 0.517136,2.78111 0.834485,0.45731 0.983025,0.0789 1.246189,-0.59117 0,-0.38697 0.36,-1.19154 0.8,-1.78793 0.44,-0.59639 0.8,-1.33587 0.8,-1.64328 0,-0.30742 0.144,-0.64795 0.32,-0.75672 0.176,-0.10877 0.32,-0.46187 0.32,-0.78465 0,-0.32278 0.215174,-0.66945 0.47817,-0.77037 0.838556,-1.32871 2.430654,-3.19425 2.596217,-3.97954 0.688842,-1.64372 0.93214,-3.15055 1.486067,-4.7831 0.172711,-0.21871 0.381834,-1.80271 0.464717,-3.52 0.140323,-2.907476 0.60448,-4.664241 1.712698,-6.48234 0.684774,-1.123408 1.359728,-2.797459 1.548233,-3.84 1.009521,-1.577537 3.356984,-4.372581 5.329386,-3.96752 1.13184,0.284074 0.964096,1.007853 -0.315462,1.361155 -0.604986,0.167043 -1.335306,0.497811 -1.622935,0.73504 -2.259301,2.054554 -3.16915,5.196745 -4.452291,7.777875 -0.620227,1.05834 -0.829533,1.869492 -0.843875,3.27043 -0.02144,2.09487 -0.307338,3.85231 -1.083773,6.66231 -0.197012,1.3508 -0.569494,2.88626 -1.107238,4.00071 -0.589881,0.96743 -1.072527,1.98114 -1.73264,2.78159 -1.761463,1.76893 -2.039671,2.15354 -2.270157,3.13841 -0.721157,2.27587 -1.976798,4.43855 -3.073875,6.39582 -0.461621,2.88174 -2.460052,6.03727 -2.817863,8.64418 0.507516,2.80657 2.127168,5.44778 3.144621,7.92732 0.56249,1.1675 1.381808,2.03675 2.348739,2.55285 -0.285373,-2.39946 1.539039,-3.89764 2.443071,-5.58368 z m 21.1754,-11.5747 c 0.817964,-0.25929 1.917459,-0.69393 2.443321,-0.96587 1.365104,-0.70592 4.009367,-3.99548 4.550394,-5.66086 0.252841,-0.77828 0.633779,-1.59506 0.846534,-1.81506 0.462378,-0.47812 1.392541,-0.53156 1.392541,-0.08 0,0.51006 0.85799,0.37276 1.992266,-0.3188 1.262707,-0.76988 1.847734,-0.81363 1.847734,-0.13818 0,0.7927 1.583536,3.28863 2.213267,3.4885 0.313287,0.0994 0.72473,0.52124 0.91432,0.93734 0.482007,1.05789 3.943725,2.14293 7.488413,2.34718 2.74474,0.15815 2.81024,0.14421 5.81609,-1.23805 2.12119,-0.97543 3.15109,-1.63563 3.4073,-2.18418 0.20196,-0.43241 0.64472,-0.98057 0.98391,-1.21815 0.69297,-0.83067 1.36913,-1.87399 1.43465,-2.24067 0.33915,0.33381 1.07978,-0.74046 1.09189,-1.58377 0.006,-0.38981 -0.24673,-0.84624 -0.56073,-1.01428 -0.4432,-0.2372 -0.54267,-0.60165 -0.44467,-1.62927 0.14439,-1.51411 0.33605,-1.52029 0.5263,-0.017 0.15496,1.22438 0.31262,1.43623 0.83061,1.11609 0.55342,-0.34203 0.1863,-5.06227 -0.47184,-6.06671 -0.28021,-0.42767 -0.50948,-1.13532 -0.50948,-1.57256 0,-0.54628 -0.37539,-1.07478 -1.2,-1.68943 -0.66,-0.49196 -1.272,-0.97894 -1.36,-1.08219 -0.088,-0.10324 -1.16759,-0.72813 -2.3991,-1.38864 -2.17032,-1.16403 -2.362,-1.20576 -6.24,-1.35823 -3.676132,-0.14454 -4.078826,-0.10327 -4.9609,0.50851 -0.528,0.36621 -1.411546,0.95759 -1.963434,1.31417 -2.0644,1.33385 -3.777772,4.71275 -4.13182,8.14827 -0.313728,3.04428 -0.474164,3.36692 -1.925447,3.87205 -2.6132,0.90956 -3.333696,0.36384 -3.344118,-2.53288 -0.01789,-4.96887 -5.536765,-9.39121 -11.515181,-9.22723 -2.018115,0.0554 -2.115418,0.0974 -3.270451,1.41256 -1.036573,1.18029 -1.575341,2.4755 -1.029731,2.4755 0.0989,0 0.998896,-0.38855 2,-0.86344 2.56359,-1.21608 5.007232,-1.35167 7.002361,-0.38853 0.845802,0.40831 1.825821,1.01325 2.177821,1.34433 0.352,0.33107 1.017344,0.79978 1.478547,1.04158 1.940208,1.01719 3.253453,6.77269 2.081411,9.12211 -0.285977,0.57325 -0.519958,1.22894 -0.519958,1.45707 0,0.64548 -1.799635,3.1549 -3.049632,4.25241 -2.20585,1.93676 -5.811667,3.23447 -8.987325,3.23447 -1.431312,0 -1.848902,-0.15574 -3.003043,-1.12 -0.737302,-0.616 -1.459152,-1.12 -1.604106,-1.12 -0.144953,0 -0.491328,-0.0874 -0.769721,-0.19424 -0.378112,-0.14509 -0.506173,0.008 -0.506173,0.6032 0,0.78837 0.755997,1.49343 2.56,2.38754 1.043254,0.51706 6.660707,0.28769 8.68721,-0.35471 z M 97.6,120.78472 c -1.77552,-0.82601 -3.312122,-2.0597 -3.887664,-3.12129 -0.17192,-0.31711 -0.605402,-1.68511 -0.963286,-3.04 -1.510756,-5.71945 0.308236,-9.76202 5.49095,-12.2032 3.11314,-1.46636 5.09266,-1.23454 8.48,0.9931 1.86814,1.22855 4.96,4.91562 4.96,5.91483 0,0.23751 0.11337,0.43184 0.25193,0.43184 0.24404,0 0.48851,1.41252 0.47076,2.72 -0.0217,1.60036 -0.56571,3.23612 -1.257,3.77989 -0.41013,0.32261 -0.74569,0.77206 -0.74569,0.99878 0,0.51876 -3.83763,3.02119 -5.57567,3.63576 -0.71738,0.25367 -2.24033,0.51698 -3.38433,0.58515 -1.725946,0.10284 -2.379587,-0.0154 -3.84,-0.69486 z m 6.37779,-0.11313 c 1.94257,-0.60459 6.09757,-3.11843 6.10062,-3.69097 9.6e-4,-0.16465 0.29429,-0.61094 0.65203,-0.99174 0.36821,-0.39193 0.80743,-1.53648 1.01222,-2.63765 0.32323,-1.7381 0.29146,-2.11445 -0.29826,-3.53347 -0.82556,-1.98651 -2.74727,-4.48258 -4.34335,-5.64146 -1.1781,-0.85539 -2.01933,-1.0048 -1.02878,-0.18272 0.54965,0.45617 0.667,1.92642 0.15377,1.92642 -0.18369,0 -0.72369,-0.37425 -1.2,-0.83167 -0.47632,-0.45742 -1.3095,-1.0251 -1.85152,-1.26151 -0.542,-0.23641 -1.15991,-0.64004 -1.37312,-0.89694 -0.74145,-0.89339 -1.881646,-0.90048 -3.640469,-0.0226 -2.012297,1.00436 -3.913961,2.74438 -4.733184,4.33087 -1.415805,2.74182 -0.497875,9.30025 1.580349,11.29132 1.303706,1.24903 4.437258,2.71548 5.843394,2.73462 0.64432,0.009 2.05116,-0.25784 3.1263,-0.59246 z m -6.004728,-1.12635 C 97.128678,119.05788 96.407542,118.4 96.717709,118.4 c 0.113139,0 0.725686,0.30679 1.361216,0.68177 0.965069,0.5694 1.508656,0.65641 3.298295,0.52794 2.7533,-0.19764 4.61186,-1.11985 6.5153,-3.23287 1.82231,-2.02295 2.41745,-1.79571 0.72055,0.27512 -1.78116,2.17368 -3.8095,3.08323 -7.17307,3.21657 -1.871642,0.0742 -2.952966,-0.0267 -3.466938,-0.32329 z m 7.374028,-1.9474 c 0.12491,-0.19377 0.36778,-0.70456 0.53972,-1.13508 0.19764,-0.49487 0.32008,-0.58984 0.33291,-0.25821 0.0112,0.2885 -0.23172,0.79929 -0.53972,1.13508 -0.308,0.33579 -0.45781,0.45199 -0.33291,0.25821 z m 0.84705,-3.35784 c -0.11322,-0.792 -0.52205,-2.13777 -0.90851,-2.9906 -0.5743,-1.26736 -0.96711,-1.6676 -2.15038,-2.19101 -0.79624,-0.35222 -1.83809,-0.5831 -2.3152,-0.51307 -0.48529,0.0712 -1.052744,-0.071 -1.287983,-0.32283 -0.409657,-0.43854 -1.413878,-0.39848 -3.532067,0.14087 -0.617846,0.15732 -0.717834,0.11527 -0.439123,-0.1847 0.646627,-0.69597 2.73991,-0.95524 5.197033,-0.64371 1.30416,0.16535 2.53115,0.42522 2.72664,0.57749 0.1955,0.15227 1.05546,0.50998 1.91102,0.7949 1.62829,0.54227 4.89596,3.4515 4.53421,4.03684 -0.10291,0.1665 -0.7925,-0.35405 -1.53242,-1.15678 -1.2297,-1.33406 -2.68161,-2.24982 -3.02406,-1.90736 -0.0759,0.0759 0.16762,0.7369 0.54109,1.46897 0.4744,0.9299 0.64989,1.78307 0.58233,2.83101 L 106.4,115.68 Z m -4.42288,0.34104 c -0.47054,-0.87921 -0.41015,-1.7972 0.14874,-2.26104 0.97202,-0.8067 1.83513,0.83797 1.24576,2.37383 -0.26653,0.69459 -0.99389,0.63575 -1.3945,-0.11279 z m -3.331727,-0.19341 c -0.308794,-0.8047 -0.217699,-1.01234 0.159529,-0.36363 0.186781,0.3212 0.272192,0.65141 0.189802,0.7338 -0.08239,0.0824 -0.23959,-0.0842 -0.349331,-0.37017 z m 7.134227,-10.53114 c -0.6781,-1.27823 -0.92986,-1.47125 -2.30329,-1.7658 -0.84808,-0.18188 -1.71488,-0.32551 -1.92622,-0.31918 -0.49188,0.0147 1.40699,1.58478 1.91926,1.5869 0.32937,10e-4 0.89457,0.42634 2.49649,1.87712 0.63434,0.57448 0.56065,0.0289 -0.18624,-1.37904 z m -30.271232,20.78503 c 2.27911,-0.59363 4.02185,-1.46883 5.48784,-2.75599 1.260723,-1.10693 3.049632,-3.60877 3.049632,-4.265 0,-0.23505 0.215114,-0.83983 0.478029,-1.34395 0.96616,-1.85253 0.25936,-6.29092 -1.236071,-7.76197 -2.086342,-2.05234 -4.547468,-3.50456 -6.360432,-3.75305 -1.316438,-0.18044 -3.661302,0.28567 -4.081526,0.81133 -0.223962,0.28014 -2.007366,1.11675 -2.427987,1.13898 -1.052295,0.0556 -2.277488,2.72572 -2.536282,5.52741 -0.131798,1.42684 -0.09252,1.69682 0.174666,1.20072 0.189581,-0.352 1.066867,-1.144 1.949523,-1.76 0.882656,-0.616 1.781802,-1.28133 1.998102,-1.47851 0.997552,-0.90936 2.52368,-1.40149 4.346087,-1.40149 1.507459,0 1.935891,0.10623 1.935891,0.48 0,0.38288 -0.473203,0.48 -2.338838,0.48 -1.561066,0 -2.545405,0.15624 -2.96,0.46982 -0.588548,0.44516 -0.567847,0.47036 0.394284,0.48 2.448538,0.0246 4.082272,3.16828 3.31298,6.37505 -0.419037,1.74675 -1.210439,2.75867 -2.69258,3.44286 -0.949654,0.43838 -0.885635,0.45344 1.380135,0.32471 1.705187,-0.0969 2.483062,-0.28144 2.755277,-0.65372 0.532761,-0.72859 0.880307,-0.64773 0.47456,0.11041 -0.886711,1.65683 -7.107876,1.6786 -10.141549,0.0355 L 66.56,119.42156 v 1.11025 c 0,1.31051 0.486534,2.34819 1.100982,2.34819 0.241156,0 1.041716,0.504 1.779018,1.12 1.547373,1.29279 2.82527,1.43263 5.862528,0.64152 z M 66.160042,120.16 66.143882,118.88 65.92,120.32 c -0.123133,0.792 -0.245504,1.18293 -0.271939,0.86874 -0.0504,-0.59901 -0.94776,-2.1632 -1.441667,-2.51296 -0.356871,-0.87132 -0.506098,-1.92054 -0.474759,-2.75371 -0.13311,-1.14018 -0.154211,-1.15947 -0.437686,-0.4 -0.324007,0.86805 -0.05269,3.51793 0.360192,3.51793 0.140211,0 0.390777,0.612 0.556819,1.36 0.166042,0.748 0.465728,1.32692 0.665968,1.2865 0.200237,-0.0404 0.470253,0.24758 0.600029,0.64 0.23583,0.71311 0.236086,0.71306 0.467603,-0.0865 0.127405,-0.44 0.224371,-1.376 0.215482,-2.08 z m 4.646259,0.32557 c -0.948224,-0.41222 -2.323907,-2.12039 -2.323907,-2.88557 0,-0.176 0.275123,0.13119 0.611385,0.68265 2.005603,3.28911 6.168426,2.4846 6.743271,-1.30322 0.465116,-3.06476 -0.754356,-5.3867 -2.829066,-5.3867 -1.716278,0 -2.958701,0.69219 -3.738483,2.08282 -0.455213,0.81181 -0.775047,1.0909 -0.996439,0.86951 -0.909952,-0.90995 -1.713062,0.58839 -1.713062,3.19602 0,1.04837 0.14656,1.26344 1.304438,1.91421 1.357428,0.76291 2.673386,1.23902 3.495562,1.26468 0.264,0.008 0.01485,-0.18724 -0.553699,-0.4344 z m 0.938608,-3.44736 c -0.592471,-0.71388 -0.74953,-1.97625 -0.319037,-2.56427 0.381002,-0.52043 0.472442,-0.52542 1.134269,-0.0619 0.83791,0.5869 0.942153,1.79991 0.217001,2.52506 -0.605721,0.60572 -0.612832,0.60642 -1.032233,0.10107 z M 65.6,118.88 c 0,-0.264 -0.139482,-0.48 -0.309958,-0.48 -0.170474,0 -0.227069,0.216 -0.125764,0.48 0.101309,0.264 0.240788,0.48 0.309959,0.48 0.06917,0 0.125763,-0.216 0.125763,-0.48 z m -0.332522,-1.52 c 0.161908,-0.83134 0.389065,-1.22676 0.592051,-1.52 -0.07453,-1.10151 0.699187,-4.16 1.052368,-4.16 0.438784,0 0.343558,-0.88772 -0.111917,-1.04332 -0.310474,-0.10606 -0.318742,-0.35728 -0.03694,-1.12245 0.298554,-0.81064 0.284666,-0.95571 -0.07816,-0.81648 -0.242672,0.0931 -0.361552,0.29822 -0.264176,0.45578 0.09738,0.15756 0.01718,0.28647 -0.178166,0.28647 -0.195367,0 -0.567498,0.54 -0.826957,1.2 -0.259459,0.66 -0.612112,1.45004 -0.783674,1.75566 -0.352214,0.62742 -0.413161,3.17816 -0.111926,4.68434 0.228416,1.14207 0.835738,1.36957 0.747478,0.28 z m 23.527933,-3.57349 1.275411,-0.44385 0.529005,-3.15133 c 0.290954,-1.73323 0.643632,-3.43933 0.783731,-3.79133 0.666359,-1.67422 2.15632,-3.6272 3.477978,-4.55879 C 96.171971,100.91753 96.32,100.68526 96.32,99.552768 96.32,97.413939 96.465677,97.28 98.791885,97.28 c 1.995985,0 2.135915,0.05251 3.334595,1.251187 1.00754,1.007536 1.56894,1.29489 2.88289,1.475603 1.58893,0.21853 5.31035,1.94721 6.28062,2.91749 1.39453,1.39452 1.14851,-2.26749 -0.34293,-5.104674 -1.01891,-1.938281 -2.10163,-3.022384 -3.23905,-3.243193 -0.36741,-0.07133 -1.57222,-0.304765 -2.67738,-0.518762 -1.10515,-0.213993 -2.08565,-0.512509 -2.17888,-0.663366 C 102.75851,93.24343 102.4048,93.12 102.06571,93.12 c -0.33908,0 -1.53028,-0.484758 -2.647099,-1.077245 -1.888921,-1.002093 -2.091315,-1.045421 -2.901187,-0.621088 -0.478832,0.250887 -1.763139,0.61032 -2.854016,0.798743 -1.090874,0.188419 -2.361152,0.534166 -2.822838,0.768323 -0.461684,0.23416 -0.906058,0.359113 -0.987495,0.277677 -0.08144,-0.08144 -0.999693,0.140425 -2.040569,0.49303 -2.122407,0.718976 -1.816807,0.586006 -6.930141,3.015328 -2.066698,0.981878 -3.866698,1.78663 -4,1.788339 -0.133299,0.0016 -0.890365,0.522352 -1.682365,1.156989 -1.42295,1.140224 -1.428109,1.151344 -0.435725,0.939314 1.244653,-0.26593 4.868768,-0.33303 5.107232,-0.0946 0.09663,0.0966 -0.05093,0.61392 -0.32791,1.14953 -0.615517,1.19027 -0.622042,1.32563 -0.0639,1.32563 0.917709,0 3.450906,1.71404 4.592912,3.10771 1.38872,1.69475 1.995856,3.24443 2.002573,5.11146 0.0058,1.6191 0.480889,2.98258 1.036899,2.97601 0.224355,-0.003 0.981856,-0.20455 1.683331,-0.44867 z M 64,112.17889 c 0,-0.0776 -0.144,-0.23012 -0.32,-0.33889 -0.176,-0.10877 -0.32,-0.0453 -0.32,0.14111 0,0.18639 0.144,0.33889 0.32,0.33889 0.176,0 0.32,-0.0635 0.32,-0.14111 z m 0.918896,-2.47413 c 0.563068,-0.74553 3.379189,-4.16312 2.902992,-1.97712 -0.287654,0.75659 -0.267408,0.80211 0.18849,0.42375 0.230627,-1.57874 0.9263,-2.50766 1.721766,-3.67975 0.751562,-1.1136 0.853533,-1.43164 0.459018,-1.43164 -0.609037,0 -4.268269,2.89627 -4.269968,3.37966 -0.356674,0.75414 -0.810219,1.28339 -1.193114,2.06034 -0.279875,0 -1.36808,2.17766 -1.36808,2.73773 0,0.5497 1.210563,-0.6252 1.558896,-1.51297 z M 78.975613,101.502 c -0.122109,-0.63407 -1.905815,-0.83513 -4.070467,-0.45883 -1.975351,0.34339 -2.005972,0.90319 -0.04196,0.76706 1.0617,-0.0736 1.816333,0.0532 2.289693,0.38478 0.843399,0.59074 1.986275,0.15621 1.82273,-0.69301 z m 21.099257,-1.847632 2.77656,0.110272 -1.18102,-1.08232 C 100.63353,97.732086 100.27859,97.6 98.762022,97.6 c -1.856115,0 -2.121046,0.281533 -2.107923,2.24 0.0046,0.6858 0.05096,0.72178 0.324791,0.25205 0.271209,-0.46524 0.738534,-0.531308 3.09598,-0.437682 z"
         id="outline" />
    </g>
  </g>
</svg>
