<?xml version="1.0" encoding="UTF-8" standalone="no"?>
<!-- Created with Inkscape (http://www.inkscape.org/) -->

<svg
   version="1.1"
   id="svg305"
   width="192"
   height="288"
   viewBox="0 0 192 288"
   sodipodi:docname="head11.svg"
   inkscape:version="1.2.2 (732a01da63, 2022-12-09)"
   xmlns:inkscape="http://www.inkscape.org/namespaces/inkscape"
   xmlns:sodipodi="http://sodipodi.sourceforge.net/DTD/sodipodi-0.dtd"
   xmlns="http://www.w3.org/2000/svg"
   xmlns:svg="http://www.w3.org/2000/svg">
  <sodipodi:namedview
     id="namedview14"
     pagecolor="#ffffff"
     bordercolor="#000000"
     borderopacity="0.25"
     inkscape:showpageshadow="2"
     inkscape:pageopacity="0.0"
     inkscape:pagecheckerboard="0"
     inkscape:deskcolor="#d1d1d1"
     showgrid="false"
     inkscape:zoom="11.305556"
     inkscape:cx="79.031941"
     inkscape:cy="65.056511"
     inkscape:window-width="1920"
     inkscape:window-height="1001"
     inkscape:window-x="-9"
     inkscape:window-y="-9"
     inkscape:window-maximized="1"
     inkscape:current-layer="g315" />
  <defs
     id="defs309" />
  <g
     id="g311">
    <g
       id="g315"
       transform="translate(10,-16)">
      <path
         id="path131"
         style="display:inline;fill:#903d12;stroke-width:0.32"
         inkscape:label="eye1"
         d="m 104.61328,95.080078 c -0.11116,-0.0046 -0.23801,0.01433 -0.35351,0.06055 -0.25527,0.102151 -0.17939,0.177999 0.19335,0.193359 0.3373,0.0139 0.52627,-0.06163 0.41993,-0.167968 -0.0532,-0.05316 -0.1486,-0.08136 -0.25977,-0.08594 z m 2.30469,0.54102 c -0.9828,0.02305 -2.13701,-0.704772 -2.41923,-0.721155 -2.58009,-0.149773 -6.89904,-0.830793 -6.604923,0.924165 1.358443,1.700803 2.367313,2.6472 2.122933,1.391368 l -0.13268,-1.232781 -4.526902,-0.728204 c -1.893461,0.27737 -0.638533,1.85383 0.184068,2.66007 0.506668,0.496585 1.528022,1.743945 1.198481,1.466081 -0.431793,-0.36408 0.741105,0.418646 1.283721,0.551166 1.070984,0.261572 1.464115,-0.244782 1.255926,0.411162 -0.131382,0.41395 0.272756,0.1604 0.720434,0.32539 1.773952,0.65375 6.187082,-0.49772 7.345462,-1.741092 0.7985,-0.857094 1.53121,-0.585269 0.65028,-0.939362 0.42713,-0.107597 0.55739,-0.753195 0.64796,-0.502046 l -0.11616,-1.702654 c 0.22861,-0.162603 -0.62657,-0.185158 -1.60937,-0.162108 z m -36.486329,1.376948 c -1.064351,0.01846 -2.434793,0.233581 -2.085065,0.887055 0.406673,0.759862 -1.522695,4.985699 -1.837559,5.972389 -0.126371,0.396 3.112792,0.0111 3.225224,0.0111 0.331225,0 1.597949,-0.3957 1.597949,-0.76791 0,-0.18858 0.417634,-0.6769 0.675446,-0.6769 0.758598,0 2.453849,-4.509048 1.867278,-5.751874 -0.786443,-1.666314 -2.204634,0.438627 -2.954991,0.351501 -0.173903,-0.02019 -0.336234,-0.02803 -0.488281,-0.02539 z M 105,97.105469 c 0.0502,-0.0077 0.0884,-0.0054 0.11523,0.0059 0.0537,0.02243 0.058,0.08118 0.002,0.171875 -0.10752,0.173984 -0.33048,0.316406 -0.4961,0.316406 -0.46029,0 -0.35905,-0.228673 0.19532,-0.441406 0.0712,-0.02732 0.1334,-0.04504 0.18359,-0.05273 z m -36.824728,1.553649 c -0.07018,-4.6e-4 -2.731157,0.271356 -2.807926,0.282956 -0.395996,0.0604 -3.040084,0.558702 -3.117284,1.123076 -0.06643,0.48562 1.31137,1.27514 1.113824,1.27514 -0.248164,0 -0.236164,0.6132 0.03906,0.94484 0.219102,0.264 0.934909,0.92273 1.265357,0.92273 0.457267,0 2.705115,-1.70276 2.261003,-2.35196 -0.41396,-0.60513 0.830598,-0.84461 0.33933,-0.84787 z m -3.509396,4.147172 c -0.318541,0.059 1.063274,0.53142 1.554602,0.72964 2.611241,-0.76872 1.064383,-2.46555 -1.554602,-0.72964 z m 4.107562,-0.0465 c -0.111167,-0.005 -0.238017,0.0143 -0.353516,0.0605 -0.255274,0.10213 -0.179421,0.17796 0.193359,0.19336 0.33733,0.0139 0.526255,-0.0616 0.419922,-0.16797 -0.05317,-0.0531 -0.148602,-0.0814 -0.259765,-0.0859 z"
         sodipodi:nodetypes="ssssssssccccsssssscccssssssssssscccssccccssssscccccssccss" />
      <path
         id="path319"
         style="display:inline;fill:#702f0d;stroke-width:0.32"
         inkscape:label="hair2"
         d="m 89.978516,51.236328 c -1.839426,0.0804 0.0731,2.872906 0.03125,4 -0.146867,3.954913 -0.17502,11.850299 -0.580078,14.166016 -0.19826,1.133448 -0.929763,1.286019 0.203124,1.255859 1.560931,-0.04155 1.077069,-0.571601 1.142579,-1.84375 0.05367,-1.042095 -0.142899,-2.119909 0.02344,-2.287109 0.166336,-0.1672 0.3721,-0.859576 0.375,-1.484375 0.003,-0.6248 0.630427,-2.455064 0.990234,-4.039063 0.359805,-1.583998 0.447462,-3.299002 0.544922,-3.785156 0.09746,-0.486153 0.170463,-0.808067 0.326172,-0.904297 0.155706,-0.09623 0.527344,-0.471075 0.527344,-0.804687 0,-0.333613 0.238501,-0.865455 0.691406,-1.31836 0.653268,-0.653267 0.867945,-1.238936 0.705078,-1.980468 -0.195666,-0.890863 -0.673698,-0.97414 -2.101562,-0.875 -0.823989,0.0572 -2.556354,-0.11371 -2.878906,-0.09961 z m -8.378907,1.132813 c -1.425012,0.0629 -2.925296,0.425538 -3.439453,0.832031 -0.538578,0.425794 -1.081171,1.752817 -0.517578,2.316406 0.25128,0.25128 0.550473,0.95143 0.666016,1.636719 0.244483,1.450091 0.768146,3.345711 1.164062,4.257812 0.260742,0.600691 0.40552,1.486989 0.865235,6.828125 0.120004,1.362724 -0.08642,2.660911 1.333984,2.160157 1.457933,0 1.400272,0.195825 1.240234,-1.966797 -0.09443,-1.275999 -1.098849,-3.932783 -1.285156,-5.472656 -0.273856,-2.263508 0.152266,-3.104253 0.537109,-4.763672 0.261817,-1.128907 0.539349,-2.309931 0.429688,-2.595704 -0.111023,-0.289336 -0.510257,-0.85244 -0.207031,-1.1875 0.299487,-0.33093 1.226108,-0.958629 1.167969,-1.36914 -0.0894,-0.631236 -1.00787,-0.717591 -1.955079,-0.675781 z m 18.951171,1.779297 c -0.879909,0.08523 -1.602608,0.529005 -1.779296,1.328124 -0.116746,0.528 -0.82851,1.502814 -1.3125,2.382813 -1.040435,1.891729 -1.571032,4.949175 -1.669922,7.484375 -0.03914,1.003583 0.244888,1.928941 0.119141,2.054688 -0.125748,0.125749 -0.582031,0.443066 -0.582031,0.677734 0,0.234666 0.575735,1.199219 0.927734,1.199219 0.426666,0 1.900391,-0.389741 1.900391,-0.816407 0,-0.351999 -0.631078,-1.103515 -0.455078,-1.103515 0.175999,0 0.259325,-0.751892 0.265625,-1.587891 0.01698,-2.264289 0.768435,-4.765774 1.808594,-6.328125 0.507832,-0.762792 1.261712,-1.674996 1.486332,-2.080078 0.22463,-0.405081 0.64872,-0.670994 0.99609,-0.78125 0.73989,-0.234829 0.7225,-0.985224 0.125,-1.773437 -0.30664,-0.40453 -1.09585,-0.72737 -1.83008,-0.65625 z m -26.580077,0.191406 c -0.39644,0.03738 -0.919321,0.170517 -1.619141,0.414062 -1.719709,0.598479 -2.334411,0.809744 -1.298828,1.720703 1.246415,1.096418 2.443282,3.869235 2.990235,8.003907 0.232912,1.760679 0.557902,3.731189 0.667969,4.378906 0.155049,0.912399 0.694129,1.167439 1.179687,1.130859 0.481344,-0.03626 1.152984,-0.154726 0.986328,-0.654297 -0.119344,-0.357753 -0.303869,-2.564653 -0.355469,-5.041015 -0.06367,-3.055821 -0.777179,-5.020102 -1.097656,-5.78711 -0.259706,-0.621561 0.09367,-1.672387 -0.02734,-2.388671 -0.193876,-1.14755 -0.236462,-1.889497 -1.425781,-1.777344 z m -6.472656,2.271484 c -0.295653,-0.01017 -0.629925,0.108668 -0.78125,0.353516 -0.110547,0.178862 -0.298129,0.270022 -0.417969,0.201172 -0.119837,-0.06885 -0.486184,-0.02886 -0.8125,0.08984 -0.555635,0.202125 -1.028835,0.47519 -0.285156,1.359375 1.306518,1.553372 2.052791,2.87577 2.6875,5.396485 0.33072,1.313432 0.626738,2.683255 0.791016,2.800781 0.164277,0.117527 0.325488,0.364365 0.386718,0.765625 0.06124,0.401261 0.523409,1.009803 0.783203,1.296875 0.259795,0.287069 0.871094,0.88721 0.871094,1.416016 0,0.528809 0.09753,1.060422 0.216797,1.179687 0.198564,0.198566 1.24797,-0.226226 1.681641,-0.316406 0.651206,-0.135411 0.409439,-0.362045 0.201171,-0.570313 -0.208267,-0.208265 -0.466796,-0.545746 -0.466796,-0.804687 0,-0.258941 0.09374,-0.73209 -0.169922,-1.023438 -0.291642,-0.322258 -0.671511,-1.410652 -0.798828,-2.953125 -0.115104,-1.39451 -0.285282,-2.652234 -0.404297,-2.740234 -0.119017,-0.088 -0.501858,-0.636063 -0.769531,-1.164062 -0.267673,-0.528 -0.593746,-1.641814 -0.914063,-2.257813 -0.977237,-1.879307 -1.246094,-2.102752 -1.246094,-2.605469 0,-0.274826 -0.257081,-0.413655 -0.552734,-0.423828 z m 38.726563,1.632813 c -0.23651,0.02835 -0.4043,0.261009 -0.4043,0.761718 0,0.421171 -0.0387,0.627207 -0.30273,0.728516 -0.26396,0.101305 -0.23828,0.599343 -0.23828,0.835937 0,0.236599 -0.82943,0.623051 -1.35742,1.128907 -0.528,0.505855 -0.98529,1.248475 -0.98829,1.435547 -0.003,0.187071 -0.26143,0.534394 -0.71093,0.960937 -0.50099,0.475405 -0.44792,1.203606 -0.35352,1.564453 0.0953,0.364461 -0.43413,0.514298 -0.8125,0.716797 -0.33613,0.179888 -1.361328,1.406146 -1.361328,1.751953 10e-7,0.426051 1.322418,0.03125 1.779298,0.03125 0.42185,0 1.49834,0.352153 1.39844,0.0918 -0.19252,-0.501711 -0.11558,-1.712943 0.25976,-1.576172 0.14626,0.0533 0.51432,-0.827235 0.57422,-1.144531 0.15746,-0.834095 3.61568,-4.001953 4.29883,-4.001953 0.47061,0 -0.17364,-0.297542 -0.27344,-1.203125 -0.13451,-1.220634 -0.98749,-2.14439 -1.50781,-2.082031 z m -43.884766,1.511718 c -0.356459,0.01183 -0.857007,0.227649 -1.564453,0.759766 -0.358743,0.269834 0.725498,4.321376 1.228515,4.900391 0.241385,0.277858 1.035156,0.559632 1.035156,0.761718 0,0.202083 0.05278,0.877164 0.466797,1.148438 0.414016,0.271273 1.025392,0.810016 1.359375,1.466797 0.33398,0.656783 1.190745,1.559891 1.552735,2.08789 0.36199,0.528 0.470562,1.675942 0.808593,2.335938 0.213979,0.38925 0.538794,1.088074 0.857422,1.53125 0.313336,0.309582 0.75,-1.516004 0.75,-2.316406 0,-1.141253 -0.306221,-1.440055 -0.933593,-2.021485 -0.44,-0.407779 -0.517305,-0.845483 -0.578125,-0.970703 -0.110565,-0.227658 -0.448673,-0.659458 -0.888672,-1.236328 -0.44,-0.576869 -0.777344,-1.106157 -0.777344,-1.285156 0,-0.178998 -0.410471,-0.728396 -0.640625,-0.869141 -0.468713,-0.286637 -1.349736,-2.506998 -1.679687,-3.875 -0.15613,-0.647315 0.07328,-2.453468 -0.996094,-2.417969 z m -3.523438,2.324219 c -0.1408,0 -0.255859,0.430985 -0.255859,0.958984 0,0.672202 -0.155999,0.960938 -0.519531,0.960938 -0.444787,0 -0.876818,0.273328 -0.503907,0.722656 0.23941,0.288467 0.390548,0.688713 0.335938,1.105469 -0.09489,0.724127 1.534216,4.384782 2.035156,4.607422 0.132,0.05867 0.306641,0.256666 0.306641,0.494141 0,0.237471 0.384244,0.784455 0.71875,0.890624 0.334501,0.106166 0.652868,0.370995 0.761718,0.804688 0.108848,0.433696 0.456152,0.853516 0.716797,0.853516 0.260646,0 0.363282,0.216469 0.363282,0.480468 0,0.322058 1.007276,0.746094 1.664062,0.746094 0.538388,0 0.851624,-0.387853 0.771485,-0.683594 -0.0718,-0.26496 -0.358051,-0.936391 -0.730469,-1.761718 -0.37242,-0.825325 -1.05311,-1.81944 -1.244141,-1.9375 -0.191027,-0.118064 -0.481224,-0.611234 -0.832031,-1.339844 -0.350809,-0.728607 -0.86969,-1.950188 -1.289063,-2.742188 -0.419372,-0.791999 -0.945825,-1.879216 -0.953125,-2.416015 -0.01263,-0.93438 -0.802637,-1.744141 -1.345703,-1.744141 z m 52.857424,1.166016 c -0.23816,0.04843 -0.43555,0.197794 -0.43555,0.445312 0,1.007919 -0.85828,2.190243 -1.76172,2.388672 -0.93482,0.205322 -2.78281,3.066793 -2.37304,3.476563 0.32924,0.32924 0.83614,0.520985 1.94531,-0.621094 1.1556,-1.189884 2.39233,-2.199219 3.32031,-2.199219 0.49294,0 0.8125,-0.211522 0.8125,-1.501953 0,-0.850667 -0.72877,-1.720965 -0.83398,-1.826172 -0.15819,-0.158195 -0.43567,-0.210541 -0.67383,-0.162109 z m -56.582033,2.59375 c -0.334978,0.06398 -0.708169,0.391864 -1.074219,0.886718 -2.595191,2.218156 -1.188624,3.402197 -0.04297,5.669922 0.154394,0.305612 0.746094,0.82843 0.746094,1.16211 0,0.601919 1.977833,3.417968 2.519531,3.417968 0.155293,0 0.326172,0.150063 0.326172,0.414063 0,0.503093 1.669188,0.755371 1.945313,0.308594 0.08812,-0.142573 -0.219629,-1.411263 -0.736328,-2.496094 -1.463721,-3.073127 -2.376778,-5.299406 -2.376953,-6.433594 -8.6e-5,-0.571999 -0.153919,-0.847071 -0.205079,-0.974609 -0.115302,-0.287469 -0.04751,-0.698689 -0.257812,-1.25586 -0.212681,-0.563453 -0.508773,-0.763198 -0.843749,-0.699218 z m 60.587893,2.607422 c -0.20741,-0.07824 -0.4633,0.168062 -0.67774,0.783203 -0.22448,0.643916 -0.81883,0.930592 -2.0625,1.539062 -0.96126,0.470301 -1.96299,0.65625 -2.25195,0.65625 -0.28897,0 -0.86026,0.464407 -1.08008,0.816407 -0.21983,0.351999 -0.61342,0.707031 -0.84765,0.707031 -0.5973,0 -1.73121,1.462865 -1.49219,1.849609 0.63138,1.885479 2.42863,-0.245411 3.05469,-0.941406 0,-0.171481 0.3062,-0.578125 0.97656,-0.578125 0.67036,0 1.67594,0.07676 2.01758,-0.181641 0.69787,-0.527834 3.48437,-0.952436 3.48437,-0.457031 0,0.176 0.22315,0.320313 0.4961,0.320313 0.38092,-10e-7 0.2991,-0.260218 -0.35157,-1.113282 -0.51781,-0.678892 -0.86136,-1.548897 -0.88086,-2.238281 -0.0193,-0.680655 -0.17736,-1.08387 -0.38476,-1.162109 z m -64.125002,2.642578 c -0.672912,0.208115 -1.504831,2.703543 -0.910157,3.853515 0.274317,0.530467 0.167969,1.016215 0.167969,1.376953 0,0.360739 0.05447,0.589844 0.230469,0.589844 0.176,0 0.410156,0.292596 0.410156,0.623047 0,0.330448 0.413735,0.956681 0.677734,1.175781 0.264,0.219101 0.435547,0.385784 0.435547,0.613282 0,0.2275 0.434812,0.821865 0.830078,1.265625 0.592358,0.66503 1.78234,1.740503 2,1.351562 0.342938,-0.612792 -0.08002,-3.389001 -0.667968,-3.876953 -0.252688,-0.209712 -0.4375,-0.803403 -0.4375,-0.96875 0,-0.319757 -1.230743,-3.092961 -1.982422,-4.488281 -0.247434,-0.459305 -0.986738,-0.947194 -0.859375,-1.083985 0.127366,-0.136785 0.369468,-0.51329 0.105469,-0.43164 z m 65.632812,4 c -0.36192,0.0024 -0.70923,0.102111 -0.90625,0.273437 -0.1672,0.145399 -1.04003,0.371606 -1.83203,0.609375 -1.84583,0.554135 -2.23322,1.153332 -2.01172,1.511719 0.25322,0.40973 1.17879,0.573212 2.19141,0.05469 0.47526,-0.24336 1.50959,-0.411957 2.43359,-0.537109 1.12229,-0.152009 1.53285,0.0325 1.43555,-0.988281 -0.0629,-0.660535 -0.70735,-0.927833 -1.31055,-0.923828 z m -67.839844,3.09375 c -0.138412,-0.02148 -0.302269,0.03989 -0.505859,0.216797 -0.208229,0.180934 0.0614,4.882929 0.173828,5.519531 0.312138,1.767457 0.503802,1.068359 0.849609,1.068359 0.345808,0 0.451172,-0.04977 0.451172,0.212891 0,0.262662 0.557666,0.595772 0.941406,1.037109 0.794349,0.913583 1.427363,1.225047 1.980469,0.558594 0.302659,-0.364688 0.634766,-0.940898 0.246094,-1.646484 -0.271635,-0.493126 -0.720194,-1.30511 -0.996094,-1.884766 -0.275903,-0.579657 -1.195974,-1.133289 -1.449219,-1.230469 -0.253244,-0.09718 -0.330166,-1.308605 -0.765624,-2.259765 -0.326592,-0.713373 -0.510544,-1.527353 -0.925782,-1.591797 z" />
      <path
         style="display:inline;fill:#8a421b;stroke-width:0.32"
         d="m 65.92,102.84347 c -1.853699,-0.83079 -2.729014,-1.35376 -2.56,-1.52953 0.088,-0.0915 -0.128,-0.39927 -0.48,-0.6839 -0.352,-0.28462 -0.453693,-0.42242 -0.225984,-0.30622 0.227712,0.1162 0.606122,0.0519 0.840915,-0.14302 0.328391,-0.272534 0.465923,-0.20505 0.596026,0.29245 0.09302,0.35572 0.02099,0.64675 -0.160096,0.64675 -0.194906,0 -0.166695,0.19584 0.06914,0.48 0.219101,0.264 0.668733,0.48 0.999181,0.48 0.946733,0 0.838464,-1.82972 -0.119181,-2.01417 -0.520672,-0.100281 -0.432083,-0.150739 0.32,-0.182252 0.809482,-0.03392 1.04,0.08592 1.04,0.540642 0,0.77164 1.30784,1.97578 2.145933,1.97578 0.836051,0 1.153446,-1.12305 0.891302,-3.153696 -0.143584,-1.112237 -0.106656,-1.351939 0.146727,-0.952432 0.407737,0.64289 0.520745,2.709368 0.202668,3.706128 -0.126368,0.396 -0.137769,0.72 -0.02534,0.72 0.331232,0 1.118714,-0.88493 1.118714,-1.25714 0,-0.18858 0.210934,-0.34286 0.468742,-0.34286 0.694877,0 1.152864,-1.09197 0.928496,-2.213805 -0.11699,-0.584928 -0.0647,-0.986195 0.12852,-0.986195 1.119319,0 0.448499,2.90413 -0.901337,3.90212 -0.519434,0.38403 -0.944426,0.88716 -0.944426,1.11806 0,0.60057 -3.07216,0.53425 -4.48,-0.0967 z m 1.6,-0.0861 c 0,-0.15547 -0.288,-0.35799 -0.64,-0.45004 -0.693363,-0.18132 -0.895104,0.25645 -0.24,0.52079 0.630458,0.25439 0.88,0.23433 0.88,-0.0707 z m 1.513334,0.0893 c -0.106336,-0.10634 -0.382336,-0.1177 -0.613334,-0.0252 -0.255274,0.10215 -0.17945,0.17798 0.193334,0.19333 0.337332,0.0139 0.526333,-0.0617 0.42,-0.16807 z M 99.44,99.97697 c -0.50216,-0.272429 -0.88,-0.74898 -0.88,-1.109901 0,-0.543466 -0.08643,-0.578519 -0.614016,-0.249034 -0.482973,0.301623 -0.721248,0.294464 -1.116477,-0.03355 -0.276352,-0.229354 -0.431149,-0.532391 -0.34399,-0.673418 0.08716,-0.141024 -0.02243,-0.329341 -0.243523,-0.418477 -0.296061,-0.11936 -0.284804,-0.168726 0.04273,-0.187331 0.244595,-0.01389 0.652352,0.226736 0.906122,0.534736 0.396323,0.481018 0.438528,0.486125 0.299219,0.03622 -0.12511,-0.404061 -0.0032,-0.484922 0.533878,-0.35378 1.070992,0.261568 1.529245,0.74888 1.321056,1.404829 -0.136281,0.429379 0.01885,0.674336 0.552775,0.872775 0.408226,0.151724 0.922226,0.207381 1.142226,0.123673 0.22,-0.0837 0.4,0.0072 0.4,0.202048 0,0.49155 -0.94993,0.42088 -1.999999,-0.148793 z m 2.64,0.39707 c 0,-0.0583 1.00259,-0.440789 2.22797,-0.850024 1.22538,-0.409232 2.15903,-0.8556 2.07478,-0.991926 -0.0842,-0.136327 -0.007,-0.338317 0.17203,-0.448864 0.53743,-0.332151 0.36935,-0.806109 -0.39478,-1.113255 -0.66179,-0.266006 -0.66826,-0.291398 -0.08,-0.314057 0.352,-0.01357 0.964,-0.111482 1.36,-0.217607 0.83479,-0.223715 1.04833,0.647226 0.2352,0.959258 -0.26664,0.10232 -0.61255,0.522025 -0.76868,0.932678 -0.18921,0.497664 -0.74783,0.892432 -1.6752,1.18384 -0.76522,0.240461 -1.52812,0.556157 -1.69532,0.701557 -0.29053,0.25265 -1.456,0.37944 -1.456,0.1584 z m -1.7104,-1.759237 C 100.07832,98.292944 99.84,97.626541 99.84,97.133904 c 0,-0.868461 -0.03964,-0.889363 -1.303549,-0.687254 -0.856179,0.136908 -1.234077,0.09603 -1.101117,-0.119101 C 97.546675,96.147395 98.186867,96 98.857987,96 c 1.170433,0 1.228343,0.0508 1.419313,1.245072 0.36051,2.254534 2.54939,2.251904 3.0819,-0.0037 l 0.25529,-1.081363 0.0327,1.017142 c 0.018,0.559431 -0.19352,1.243431 -0.4701,1.52 -0.67897,0.678973 -2.15782,0.635603 -2.80754,-0.08234 z m 3.9504,-1.140566 c 0,-0.06917 0.22348,-0.21152 0.49662,-0.316336 0.28478,-0.109277 0.41322,-0.05563 0.30111,0.125763 -0.18792,0.304067 -0.79773,0.449744 -0.79773,0.190573 z m -0.95901,-2.068474 c -6.4e-4,-0.26464 0.1967,-0.358374 0.50518,-0.24 0.2784,0.106832 0.9984,0.194237 1.6,0.194237 0.60161,0 1.09383,0.109069 1.09383,0.242378 0,0.133308 -0.71956,0.241308 -1.59901,0.24 -1.13145,-0.0016 -1.5993,-0.129351 -1.6,-0.436615 z M 100.32,95.04 c 0.10877,-0.176 0.51327,-0.309878 0.89889,-0.297507 0.67595,0.0217 0.67815,0.03236 0.0611,0.297507 -0.88079,0.37849 -1.19392,0.37849 -0.96,0 z"
         id="path327"
         inkscape:label="eye2" />
      <path
         id="path325"
         style="display:inline;fill:#903d12;stroke-width:0.32"
         inkscape:label="skin"
         d="m 101.14258,67.894531 c -0.51771,0.0382 -1.01045,0.197469 -1.312502,0.498047 -0.425,0.42294 -0.637199,0.73662 -1.300781,0.59961 -0.510583,-0.105417 -1.348985,-0.279086 -1.861328,-0.384766 -0.718397,-0.148179 -1.405752,-0.248535 -1.66211,0.230469 -1.173932,2.193518 -3.223784,3.698093 -4.246093,2.675781 -0.285773,-0.285773 0.279973,-1.172552 -0.740235,-1.138672 -1.610534,0.05349 -1.105102,0.347255 -1.480469,1.296875 -0.933271,2.361052 -1.573129,2.446461 -3.970703,0.992187 -0.89948,-0.545588 -1.647771,-0.894384 -1.847656,-1.482421 -0.246122,-0.724057 0.177068,-0.902604 -1.041015,-0.839844 -1.641706,0.08458 -0.962891,0.273025 -0.962891,1.460937 0,1.140875 -0.118356,1.102142 -0.683594,1.25 -0.501537,0.131155 -0.771374,0.187289 -1.677734,-0.701172 -0.67982,-0.666388 -1.457031,-2.080083 -1.457031,-2.277343 0,-0.442563 -1.340367,-0.323697 -1.623047,-0.04102 -0.113261,0.113222 0.06221,0.440808 0.171875,1.025391 0.232021,1.236785 0.456322,1.004568 -1.34961,0.25 -1.46303,-0.611316 -2.882812,-0.210486 -2.882812,0.40625 0,0.62927 -0.520939,0.828615 -1.626953,0.617187 -0.760394,-0.14536 -1.107422,0.333248 -1.107422,1.070313 0,1.224821 -1.215926,1.785333 -2.339844,1.560547 -0.871217,-0.174243 -1.173936,0.279021 -1.007813,1.302734 0.135235,0.833358 0.102206,1.143992 -0.470703,1.677734 -0.907684,0.845638 -2.312502,1.095558 -3.103515,0.601563 -0.766068,-0.478431 -1.640726,-0.158304 -1.154297,0.328125 0.98322,0.98322 0.233569,2.593215 -1.453125,3.048828 -0.502077,0.135625 -0.860157,0.798269 -0.935547,1.953125 -0.126893,1.943721 -0.781025,2.225584 -2.972656,2.302734 -1.631495,0.05743 -1.646083,0.433978 -1.748047,1.324219 -0.09542,0.833138 0.395264,3.219676 1.099609,5.205078 -0.03626,-0.07126 -0.06898,-0.158344 -0.105469,-0.226562 -0.235451,-0.440188 -0.566093,-1.876565 -0.791015,-2.976563 -0.224921,-1.099998 -0.992803,-2.044922 -1.191406,-2.044922 -0.427414,0 -1.476704,-1.318874 -1.779297,-2.107422 -0.116576,-0.303796 -0.984382,-0.75 -1.253906,-0.75 -0.701316,0 -0.596021,1.841782 0.173828,3.039063 1.009125,1.569398 1.499588,3.173409 1.863281,4.984375 0.355238,1.76885 0.132869,4.412331 -0.394531,4.738281 -0.16583,0.10249 -0.300782,1.490953 -0.300782,2.976563 0,1.48561 -0.549801,3.04969 0.398438,3.05469 0.325402,0.002 0.713292,-0.21961 1.123047,-0.57031 -1.517576,2.18061 -2.382813,3.85854 -2.382813,5.10547 0,1.64287 0.834487,4.41513 1.34961,4.74023 0.223009,0.14075 0.470703,0.50454 0.470703,0.72852 0,1.10477 8.116039,7.44965 12.996093,10.10937 4.031471,2.19725 6.50062,3.68233 9.197266,5.41016 1.276366,0.81601 2.347246,1.52606 4.232422,2.56836 0.608234,0.3584 0.995753,0.42196 1.794922,0.71094 0.548865,0.28383 2.123994,0.53922 3.203125,0.78515 1.145585,0.26107 3.019944,0.77037 4.472656,0.69727 2.124988,-0.107 3.070541,-0.42516 5.318359,-1.53907 1.44755,-0.71732 3.109684,-2.14845 3.964844,-2.85546 0.855162,-0.707 1.680769,-1.28516 1.833985,-1.28516 0.153214,0 1.042855,-0.75569 1.976559,-1.67969 0.93371,-0.924 5.73478,-5.38473 10.53321,-10.04687 4.7984,-4.66216 9.35543,-9.03244 9.74804,-9.73828 0.39262,-0.70584 0.87082,-2.08555 1.08985,-3.04102 0.38973,-1.70006 0.35675,-2.07111 -0.53711,-3.18945 -1.43228,-1.791978 -2.26184,-2.790951 -2.89844,-3.759772 l 0.74219,0.929687 0.25586,-1.568359 c 0.43902,-1.659632 0.36834,-3.284149 -0.59571,-5.207031 -0.68077,-1.357874 -0.6528,-1.78227 -0.47851,-3.455078 0.6475,-6.214414 0.0923,-6.209395 -0.86328,-6.449219 -1.12225,-0.281666 -1.89118,0.469 -2.15039,2.029297 -0.0266,-0.541652 -0.068,-0.882813 -0.14649,-0.882813 -0.15572,0 -0.32812,-0.331594 -0.32812,-0.683594 0,-0.715683 -0.772,-1.041171 -2.60938,-0.615234 -1.38717,0.321571 -2.16797,0.02708 -2.16797,-0.853516 0,-0.247166 -0.22893,-0.662866 -0.69726,-1.03125 -0.7204,-0.566666 -1.41758,-0.972273 -1.48828,-2.523437 -0.0777,-1.705311 -0.20715,-2.261279 -0.97461,-2.355469 -1.03094,-0.126525 -0.87591,-0.650926 -0.66016,-1.980468 0.15174,-0.935072 -0.1938,-1.282051 -1.46875,-1.978516 -0.76405,-0.417383 -1.5407,-0.937721 -1.69922,-1.292969 -0.23302,-0.522213 -1.16449,-0.796092 -2.02734,-0.732422 z m -5.652346,16.283203 c 1.325562,-0.02013 2.72298,0.357344 4.263672,1.095704 1.237984,0.593284 2.576214,1.255342 2.892574,1.363281 0.31636,0.107939 1.10655,0.62772 1.81055,1.074219 0.704,0.446498 1.36491,0.881688 1.62891,0.99414 0.52433,0.22334 1.17968,0.542716 1.17968,0.820313 1e-5,0.469956 -1.36149,-0.07676 -2.75195,-0.81836 -1.36958,-0.730458 -2.1262,-0.750983 -4.921873,-0.783203 -3.481719,-0.04013 -6.203272,0.534258 -7.126953,1.484375 -0.573263,0.589673 -0.958778,0.797084 -1.359375,0.396485 -0.11734,-0.117332 -0.03711,-0.710265 -0.03711,-1.804688 0,-1.813219 -0.210083,-1.998978 0.591797,-2.541016 1.250412,-0.84523 2.504518,-1.261123 3.830078,-1.28125 z m -20.582031,3.601563 c 2.698569,0.07246 4.033578,1.591295 2.873047,3.759765 -0.330746,0.618002 -0.4525,0.137038 -3.191406,-0.05469 -5.123622,-0.35865 -8.632579,0.375742 -13.136719,2.726563 -1.090338,0.569068 -1.259766,1.132763 -1.259766,0.861328 0,-0.06096 0.352898,-0.374501 0.621094,-0.91211 0.321881,-0.645224 0.880742,-0.915488 1.773438,-1.267578 0.743802,-0.293363 1.596415,-0.976122 2.246093,-1.492187 0.64968,-0.51607 1.182886,-1.160157 1.347657,-1.160157 0.164766,0 0.694621,-0.09852 0.90625,-0.353515 0.211627,-0.254995 0.8033,-0.314455 1.449218,-0.511719 0.645923,-0.197262 1.616752,-0.486052 1.96875,-0.640625 0.352,-0.154576 1.339727,-0.57248 2.330079,-0.765625 0.753975,-0.147046 1.449519,-0.206174 2.072265,-0.189453 z m 38.640627,3.712891 c 0.22603,0.06627 0.1061,0.457499 -0.28906,1.27539 -0.34078,0.705326 -0.61914,1.569654 -0.61915,1.921875 0,0.776372 -0.89333,2.027344 -1.23046,2.027344 -0.13377,0 -0.49193,0.606961 -0.60743,1.132812 -0.24391,1.110488 -1.15911,1.933594 -2.17968,1.933594 -0.38934,0 -1.37149,0.421437 -1.77735,0.773437 -0.40586,0.352 -0.74175,0.57422 -1.07031,0.57422 -0.32857,0 -1.3655,0.33734 -2.0625,0.77734 -0.99367,0.62727 -1.48978,0.88368 -2.9375,0.86328 -1.015486,-0.0143 -2.079423,-0.22502 -2.607421,-0.46679 -0.528,-0.24176 -1.376845,-0.40216 -1.751953,-0.41016 -0.392007,-0.008 -1.021804,-0.28933 -1.511719,-0.93164 -0.468803,-0.61464 -1.201175,-1.205635 -1.626953,-1.312499 -1.097026,-0.275334 -0.83021,-1.010556 -0.0625,-2.746094 0.529729,-1.197544 0.873527,-1.582895 1.9375,-2.050781 2.633635,-1.158161 3.312402,-1.169922 8.791016,-1.169922 4.67312,0 5.65234,-0.138839 5.65234,-0.546875 0,-0.264 0.21344,-0.414063 0.42188,-0.414063 0.20843,0 0.98096,-0.1911 1.74414,-0.560547 0.9882,-0.478379 1.56108,-0.736189 1.78711,-0.669921 z m -58.375002,3.029296 c 0.56305,1.059576 0.86087,1.655154 0.679688,2.451172 -0.03943,-0.523906 -0.316476,-1.46904 -0.679688,-2.451172 z m 17.873047,0.1875 c 1.96237,0 2.077319,-0.08032 3.359375,1.310547 0.720449,0.781598 1.416921,1.626694 1.521484,2.121094 0.104566,0.494403 0.244437,1.168241 0.310547,1.496094 0.06611,0.327851 -0.22949,0.973201 -0.658203,1.435551 -0.428715,0.46234 -0.779297,0.96033 -0.779297,1.10546 0,0.5879 -2.776316,3.43563 -3.644531,3.73829 -1.091025,0.38023 -5.091823,0.38496 -6.34375,0.008 -0.477248,-0.14384 -1.498131,-0.68773 -2.267578,-1.20703 -0.769448,-0.51929 -2.189571,-1.48628 -3.232422,-1.93164 L 59.566406,102.03906 59,100.10156 59.03125,98.207031 h 2.960938 c 0.387465,0 0.745282,-0.01268 1.089843,-0.02734 0.235485,-0.06213 0.469688,-0.126526 0.708985,-0.173829 0.235845,-0.03997 0.472347,-0.07797 0.710937,-0.09766 0.180054,-0.02378 0.359435,-0.0526 0.541016,-0.0625 0.136656,-0.01414 0.273693,-0.03015 0.410156,-0.04687 0.06239,-0.05532 0.159459,-0.103259 0.283203,-0.142578 0.06302,-0.04992 0.137367,-0.08474 0.207031,-0.125 0.20389,-0.117819 0.423843,-0.207409 0.642579,-0.292969 0.329081,-0.131035 0.675304,-0.204289 1.023437,-0.261719 0.201492,-0.02939 0.40141,-0.06595 0.599609,-0.111328 0.177428,-0.100302 0.356336,-0.200375 0.511719,-0.30664 0.07805,-0.06213 0.155207,-0.125851 0.236328,-0.183594 0.03054,-0.02174 0.06231,-0.04054 0.09375,-0.06055 0.118106,-0.09745 0.220891,-0.192047 0.294922,-0.28125 0.216071,-0.260349 0.44723,-0.673828 0.783203,-0.673828 0.335974,0 0.959242,-0.03874 1.060547,-0.302734 0.136612,-0.356022 0.37039,-0.347656 1.857422,-0.347658 z m 19.46875,14.558596 c 0.06572,-0.2539 0.0061,-0.0858 -0.193359,0.70898 -0.08768,0.34936 -0.208672,0.69731 -0.34375,1.03906 0.282155,-0.83881 0.474134,-1.50475 0.537109,-1.74804 z m -11.349609,1.16406 c 0.02965,-0.006 0.101068,0.002 0.214843,0.002 0.158717,0 0.09768,0.16591 0.431641,0.69336 0.489464,0.77306 1.423865,1.55637 2.490234,2.16797 -0.931551,-0.52847 -1.755355,-1.15583 -2.263672,-1.82226 -0.671664,-0.8806 -0.961992,-1.02424 -0.873046,-1.04102 z m 3.974609,3.29688 c 0.839378,0.38557 1.709515,0.6476 2.476563,0.70703 0.751328,0.0582 1.299087,0.075 1.753906,0.002 -0.472424,0.23203 -0.874175,0.25908 -1.035156,0.24414 -0.964368,-0.0896 -2.113762,-0.44744 -3.195313,-0.95312 z m 9.367187,7.03125 c 0.162334,0.002 0.295369,0.0187 0.396485,0.0508 0.933268,0.29618 0.461588,0.22775 -0.830078,0.21875 -1.265125,-0.009 -7.824045,1.92018 -9.748047,2.89453 -1.304635,0.66069 -1.035708,0.99906 -1.048828,0.60156 -0.02073,-0.62833 8.79547,-3.79538 11.230468,-3.76562 z"
         sodipodi:nodetypes="sssssssssssscsscscsssssssssssscsssssssssccsssscccscsssscssscccssscssssssssssssssssssssssssssssssssssssssssssssssssssscssssssssscccssssssccsccccsccccccsccccscsssssscscsscscccsccccsccssss" />
      <path
         style="display:inline;fill:#6f442a;stroke-width:0.32"
         d="m 65.6,103.04 c -0.616,-0.33724 -0.8968,-0.61921 -0.624,-0.62659 0.2728,-0.007 0.675888,0.16659 0.89575,0.38659 0.219863,0.22 1.292663,0.48604 2.384,0.5912 l 1.98425,0.19121 -1.76,0.0354 c -1.186256,0.0238 -2.12511,-0.1645 -2.88,-0.57779 z m 4.8,-0.0215 c 0,-0.18782 0.504,-0.81683 1.12,-1.39779 0.616,-0.58096 1.124579,-1.32729 1.130176,-1.658512 0.0056,-0.331216 0.2216,-0.881737 0.48,-1.223376 0.665984,-0.880505 0.584746,-0.456947 -0.293037,1.527878 -0.419574,0.94873 -1.066659,1.93775 -1.437965,2.19783 -0.371305,0.26007 -0.580019,0.56794 -0.463804,0.68415 0.116214,0.11624 0.0433,0.21132 -0.162036,0.21132 C 70.568,103.36 70.4,103.20633 70.4,103.01851 Z m -7.44327,-1.43147 c -1.009127,-0.93571 -1.178039,-1.62064 -0.257968,-1.04604 0.34032,0.21253 0.59232,0.49158 0.56,0.62012 -0.03232,0.12853 0.229238,0.45529 0.581238,0.72611 0.352,0.27082 0.494528,0.49699 0.31673,0.50259 -0.177799,0.006 -0.717799,-0.35565 -1.2,-0.80278 z m 3.979049,0.0723 C 66.553101,101.25203 66.24,100.67603 66.24,100.37938 66.24,100.0588 65.988042,99.84 65.618886,99.84 c -0.999744,0 -1.047107,-0.540666 -0.04985,-0.569021 0.919062,-0.02614 1.057005,0.136791 1.904259,2.249021 0.429843,1.07161 0.356211,1.0907 -0.537517,0.13938 z m 1.920867,-0.24432 c 0.249751,-0.71643 0.243021,-1.20515 -0.02467,-1.792675 -0.306809,-0.673373 -0.513072,-0.772173 -1.24,-0.593955 -0.837459,0.205315 -0.84664,0.194345 -0.231971,-0.277149 1.076778,-0.825959 1.666682,-0.629043 1.90392,0.635552 0.237197,1.264357 -0.03715,3.013167 -0.472701,3.013167 -0.152857,0 -0.123417,-0.44322 0.06543,-0.98494 z m 32.260694,-0.92664 c 0.26254,-0.16598 0.77204,-0.22782 1.13222,-0.13742 0.36019,0.0904 1.35377,-0.13521 2.20796,-0.501358 1.95226,-0.836838 2.37738,-0.567686 0.47013,0.297648 -1.42288,0.64557 -4.76514,0.94479 -3.81031,0.34113 z m -3.094642,-0.742877 c -1.567111,-0.826781 -3.864205,-3.632032 -3.374836,-4.121401 0.213204,-0.213204 0.401805,-0.187383 0.565463,0.07742 0.158291,0.256121 0.114265,0.316179 -0.123882,0.168995 -0.717565,-0.443479 -0.327597,0.306013 0.866298,1.664969 0.664649,0.756538 1.486512,1.401828 1.826358,1.433978 0.606199,0.05734 2.438581,1.524396 1.868592,1.496036 -0.159881,-0.008 -0.892477,-0.33195 -1.627993,-0.720001 z m 8.767142,-1.195328 c 0.0935,-0.357385 0.42278,-0.826893 0.73182,-1.043357 0.30904,-0.21646 0.63439,-0.680054 0.723,-1.030208 0.15423,-0.60951 0.16268,-0.608073 0.19822,0.03376 0.0204,0.368723 -0.25088,0.93104 -0.60288,1.249597 -0.352,0.318557 -0.64,0.772874 -0.64,1.009597 0,0.23672 -0.13052,0.430403 -0.29004,0.430403 -0.15952,0 -0.21358,-0.292406 -0.12012,-0.649789 z m -5.91035,0.11769 c -0.22028,-0.08887 -0.48946,-0.717831 -0.59817,-1.397696 -0.18294,-1.14401 -0.284245,-1.244237 -1.359493,-1.345015 L 97.76,95.816285 98.72,95.582934 c 4.08585,-0.993155 4.64,-0.860448 4.64,1.111168 0,1.713943 -1.05119,2.550397 -2.48051,1.973783 z m 1.33434,-0.302138 c 0.35685,-0.136921 0.50617,-0.615181 0.50617,-1.621238 0,-1.367962 -0.0364,-1.422829 -0.88,-1.325763 -0.73739,0.08484 -0.8965,0.27318 -0.98183,1.162156 -0.056,0.583498 0.0696,1.267498 0.27918,1.52 0.43817,0.527965 0.40933,0.520871 1.07648,0.264861 z"
         id="path323"
         inkscape:label="eye3" />
      <path
         id="path317"
         style="display:inline;fill:#3e1910;stroke-width:0.32"
         inkscape:label="hair1"
         d="m 97.892578,50.126953 c -0.170832,0.01122 -0.33285,0.05102 -0.480469,0.126953 -1.006613,0.517799 -2.702165,2.438289 -2.703125,3.111328 -4.13e-4,0.308 -0.355031,0.913626 -0.707031,1.265625 -0.352,0.352 -0.484375,0.833657 -0.484375,1.097657 0,0.263999 -0.144313,0.458984 -0.320312,0.458984 -0.176,0 -0.341797,0.46049 -0.341797,0.861328 0,0.400841 -0.196561,0.879404 -0.435547,1.226563 -0.238988,0.34716 -0.599602,1.395391 -0.720703,2.27539 -0.353411,2.568177 -0.14456,2.788323 -0.457031,2.882813 -0.253602,0.07669 -0.04297,0.858391 -0.04297,1.476562 0,0.61817 -0.428417,1.556884 -0.628907,2.111328 -0.219369,0.60665 -0.0099,1.623986 0.125,2.523438 0.197799,1.31902 0.273866,1.738281 0.976563,1.738281 0.906917,0 2.859521,-1.93886 3.306641,-3.140625 0.160303,-0.430863 0.715593,-1.607954 0.746093,-2.751953 0.03048,-1.143999 0.202224,-2.588969 0.382813,-3.292969 0.517391,-2.016971 1.898426,-5.644531 2.195312,-5.644531 0.148192,0 0.357422,-0.315911 0.357422,-0.566406 0,-0.2505 0.204532,-0.705607 0.644532,-1.228516 1.070632,-1.272373 1.244582,-3.200362 0.169921,-3.982422 C 98.9924,50.324863 98.405076,50.093288 97.892578,50.126953 Z M 85.986328,50.3125 c -0.131743,0.0036 -0.243216,0.02211 -0.328125,0.05469 -1.22054,0.468363 -3.098456,4.131703 -3.548828,7.785156 -0.308787,2.504916 0.28065,8.332838 0.849609,10.380859 0.173015,0.622768 -0.06151,1.61881 -0.06055,2.265625 0.0016,1.04525 0.574433,1.528522 1.783203,2.232422 1.80722,1.052396 2.787302,1.014851 3.537109,-0.205078 1.006748,-1.637976 0.996056,-2.995006 1.369141,-10.15625 0.347743,-6.67486 0.338896,-10.398434 -0.447266,-11.345703 -0.342647,-0.412862 -2.232092,-1.036902 -3.154297,-1.011719 z m -11.019531,2.408203 c -0.222935,0.01041 -0.396331,0.176617 -0.394531,0.542969 0.0021,0.439999 0.222628,1.55186 0.490234,2.255859 1.18694,3.122531 1.462674,4.496581 1.402344,8.800781 -0.06845,4.883868 0.282332,6.269224 2.240234,7.988282 0.602579,0.529071 1.453317,0.652344 1.619141,0.652344 0.956185,-10e-7 -0.173506,-11.975564 -1.357422,-13.578126 -0.130022,-0.175999 -0.974516,-1.11699 -1.173828,-2.0625 -0.379702,-1.801253 -1.021849,-3.802734 -1.525391,-3.802734 -0.162653,0 -0.377523,-0.09825 -0.611328,-0.40625 -0.194681,-0.256446 -0.466518,-0.401035 -0.689453,-0.390625 z m -5.814453,2.458985 c -0.218318,0.01115 -0.406569,0.05459 -0.515625,0.140624 -0.660096,0.520755 -0.525097,2.336299 0.542969,4.408204 0.55559,1.077769 1.121383,2.34516 1.390624,2.86914 0.269244,0.523981 0.496404,1.658842 0.558594,2.63086 0.136048,2.126183 1.973528,5.226817 3.111328,5.935546 1.095861,0.682609 1.279297,0.64311 1.279297,-0.283203 0,-0.439999 -0.139463,-0.800781 -0.310547,-0.800781 -0.400636,0 -0.755671,-2.613184 -1.207031,-5.671875 -0.530553,-3.595378 -1.28294,-5.690219 -2.486328,-7.210937 -0.596236,-0.753463 -1.00635,-1.439374 -0.9375,-1.550782 0.15211,-0.246132 -0.770829,-0.500258 -1.425781,-0.466796 z m 35.326176,0.433593 c -1.66343,-0.08147 -4.13465,2.197078 -5.332036,4.986328 -0.264652,0.616493 -0.61137,1.663407 -0.851562,2.191407 -0.514027,1.129956 -0.79702,5.034686 -0.480469,5.546875 0.120813,0.195473 1.029562,0.487683 1.476563,0.433593 0.674143,-0.08157 1.164874,-0.363194 1.593754,-1.759765 0.51339,-1.671762 0.98833,-2.718126 3.02343,-4.931641 0.58296,-0.634076 0.85333,-1.838508 0.95313,-2.326172 0.0998,-0.48766 0.66118,-0.809567 0.81445,-0.904297 0.15327,-0.09472 0.30078,-0.805537 0.30078,-1.390625 0,-0.820565 -0.64517,-1.657608 -1.17773,-1.796875 -0.10311,-0.02696 -0.20942,-0.0434 -0.32031,-0.04883 z m -40.052739,2.007813 c -0.395599,-0.03435 -0.838013,0.162788 -1.015625,0.441406 -0.421226,0.660764 -0.901471,3.578001 -0.458984,4.662109 0.986716,2.417483 2.16744,3.568021 2.728516,4.302735 0.339144,0.444101 0.871686,1.731219 1.560546,2.699218 0.688861,0.968 1.453256,1.985079 1.644532,2.205079 0.191273,0.219999 1.345122,0.488281 1.591796,0.488281 0.567191,0 0.673768,-0.955247 0.269532,-1.205078 -0.458855,-0.283587 -1.558615,-3.902905 -2.359375,-6.4375 -0.892697,-2.8256 -2.847859,-6.575761 -3.591797,-7.039063 -0.110114,-0.06858 -0.237274,-0.105737 -0.369141,-0.117187 z m 44.431639,3.568359 c -0.60543,-0.01265 -1.14346,0.08364 -1.34961,0.332031 -0.2191,0.264 -0.42254,0.435547 -0.64258,0.435547 -0.5404,0 -3.29196,3.01537 -3.67968,4.035157 -0.54012,1.420619 -0.13976,3.052519 0.65039,3.433593 0.63722,0.29696 1.66978,0.346251 2.41601,0.04883 0,-0.175999 0.25255,-0.631107 0.56055,-0.957031 0.308,-0.325923 0.98527,-1.155477 1.45117,-1.707031 0.4659,-0.551555 1.06115,-0.978971 1.48633,-1.140625 0.84205,-0.320147 1.82481,-2.804196 1.47461,-3.716797 -0.16101,-0.419597 -1.35814,-0.742587 -2.36719,-0.763672 z m -48.322264,0.943359 c -0.118753,-0.0088 -0.231459,0.06085 -0.277344,0.183594 -0.28445,0.760949 1.082689,5.022331 2.376954,6.798828 0.384671,0.528 0.965835,1.702987 1.318359,2.666016 0.352525,0.963026 0.865841,2.231137 1.195313,2.412109 0.329471,0.18097 0.671754,0.287813 0.8125,0.507813 0.313032,0.489303 1.439797,0.536546 1.720703,0.08203 0.36053,-0.58335 -0.526999,-2.798807 -2.939453,-6.019531 -2.089819,-2.78999 -3.240703,-4.419041 -3.896485,-6.335938 -0.06766,-0.197774 -0.191794,-0.28615 -0.310547,-0.294922 z m -3.615234,2.027344 c -0.518151,0.0337 -1.368789,1.482386 -1.175781,2.431641 0.329874,1.622411 1.121642,4.651597 1.595703,5.75 0.239357,0.554597 0.613281,1.031451 0.613281,1.140625 0,0.373744 1.764169,3.058823 2.726563,4.099609 0.688664,0.744762 1.683002,1.190894 2.382812,1.183594 1.103935,-0.0115 2.294922,-0.988551 2.294922,-1.669922 0,-0.250752 -1.474776,-1.929862 -3.142578,-3.595703 -3.322145,-3.318244 -3.791678,-4.060676 -4.294922,-6.824219 -0.185721,-1.019877 -0.65533,-2.286604 -0.800781,-2.4375 -0.05643,-0.05854 -0.125198,-0.08294 -0.199219,-0.07813 z m 56.974608,2.708985 c -1.73865,0 -4.33424,1.273628 -5.85937,2.841797 -1.73268,1.781566 -2.22603,2.733572 -1.98438,3.363281 0.27182,0.708348 1.31726,0.955884 2.61719,-0.148438 0.616,-0.523308 1.07259,-1.031106 1.28515,-1.208984 0.21258,-0.177879 0.45718,-0.677735 0.89454,-0.677735 1.55356,0 4.8164,-1.932319 4.8164,-3.042968 0,-0.633043 -0.69317,-1.126953 -1.76953,-1.126953 z m -61.755858,1.429687 c -0.148253,0.03134 -0.261655,0.181416 -0.273438,0.449219 -0.06025,1.369238 0.596736,4.21407 1.341797,5.863281 2.154232,4.768421 2.932802,6.491171 3.691407,7.087891 0.828402,0.634779 1.999017,0.382642 3.246093,-0.111328 1.155663,-1.0023 0.70528,-2.404337 -1.121093,-3.259766 -0.898899,-0.421021 -2.279215,-1.260168 -2.957032,-1.917969 -1.811825,-1.758315 -2.166159,-2.833407 -3.197265,-7.291015 -0.138264,-0.597732 -0.483381,-0.872551 -0.730469,-0.820313 z m 63.523438,4.558594 c -2.30312,-0.0072 -6.09956,0.756609 -6.55273,1.566406 -0.15708,0.280676 -0.33037,0.378906 -0.59961,0.378906 -0.38523,0 -0.70686,0.531179 -0.5293,1.34961 0.12409,0.571999 0.32164,1.321866 0.51953,1.451172 0.19789,0.129307 0.86574,0.149743 0.9707,0.152343 0.29111,0.0075 2.54684,-0.660939 2.72852,-0.908203 0.21791,-0.296581 2.03756,-1.166135 3.70898,-1.673828 1.65856,-0.503781 2.16257,-1.41134 1.37891,-2.02539 -0.25645,-0.200944 -0.85729,-0.288627 -1.625,-0.291016 z m -65.994141,1.912109 c -0.197941,-0.0083 -0.336098,0.299621 -0.431641,0.97461 -0.21964,1.551704 1.217482,4.763747 2.853516,6.751953 0.148589,0.180576 0.694459,0.912123 1.023437,1.435547 0.722502,1.149534 1.523823,1.999447 2.150391,2.246093 0.820764,0.323091 1.573558,0.0714 2.154297,-0.570312 0.777359,-0.858972 0.300908,-1.780613 -1.685547,-3.09961 -2.417723,-1.605358 -3.113111,-2.388537 -4.503906,-5.294921 -0.735682,-1.537375 -1.230645,-2.429499 -1.560547,-2.44336 z m 68.767581,2.142578 c -1.49222,0.02856 -4.14727,0.512752 -5.98243,1.101563 -1.66576,0.534601 -2.14661,0.966518 -2.22851,1.542969 0.167,0.359832 0.25298,0.87516 0.92383,1.095703 0.35731,0 1.22912,-0.150969 1.45117,-0.388672 0.29191,-0.31249 0.86449,-0.368542 2.41211,-0.257813 2.9559,0.211495 4.47991,-0.385469 5.01367,-1.382812 0.37348,-0.697823 -0.16073,-1.324166 -0.55859,-1.576172 -0.16553,-0.104847 -0.53385,-0.144285 -1.03125,-0.134766 z M 96.689453,84.53125 c -0.371051,0.0059 -0.80457,0.02985 -1.337891,0.06641 -3.327711,0.228087 -4.54864,1.070035 -4.5625,3.16211 -0.01077,1.628241 1.167759,2.231873 2.228516,1.33789 1.478911,-1.246391 5.736179,-1.811142 8.433592,-1.3125 3.48202,0.643687 2.52283,-0.576338 -2.109373,-2.677734 -0.990069,-0.44914 -1.53919,-0.593727 -2.652344,-0.576172 z m -22.021484,3.052734 c -0.30725,-0.01945 -0.64314,-0.01391 -1.013672,0.01953 -2.099656,0.189474 -7.42659,2.609511 -8.777344,3.738281 -0.482156,0.319004 -0.720965,0.749351 -1.203125,1.068359 l 1.671875,-0.08008 C 65.971963,92.300265 66.577125,92.0651 66.929688,92 c 0.352565,-0.06511 1.379347,-0.13479 2.037109,-0.316406 0.999858,-0.276069 5.305574,-0.353261 7.695312,-0.06836 0.503418,0.06002 1.036582,-0.447379 1.113282,-1.236328 0.07608,-0.782492 -0.254878,-1.44723 -0.955079,-2.001953 -0.56686,-0.44909 -1.230594,-0.734614 -2.152343,-0.792969 z" />
      <path
         style="display:inline;fill:#463734;stroke-width:0.32"
         d="m 82.866522,134.01031 c -0.610981,0.0346 -0.753206,-0.17044 -1.186522,-0.32891 -0.308,-0.27378 -1.107824,-0.64666 -1.777389,-0.8286 -0.669561,-0.18195 -3.261561,-1.61593 -5.76,-3.18664 C 71.644176,128.09546 68.52,126.25677 67.2,125.58019 c -3.572553,-2.2846 -7.669847,-4.14857 -10.24,-6.22019 -0.792,-0.70351 -1.543133,-1.27931 -1.669184,-1.27956 -0.494688,-9.6e-4 -2.908298,-2.49 -3.988739,-4.11341 -1.983075,-2.97964 -2.402615,-5.90444 -1.194362,-8.32644 0.269939,-0.54111 0.473181,-1.2396 0.451648,-1.55221 -0.36023,-5.230079 -0.346304,-5.945276 0.13552,-6.960646 C 51.669443,95.074 51.049376,91.245018 49.275325,88.361821 48.587632,87.244173 48.336554,86.492992 48.439789,85.862022 48.52096,85.36591 48.599213,84.852 48.613686,84.72 48.62816,84.588 49.072,84.48 49.6,84.48 c 0.637824,0 0.96,0.160272 0.96,0.477565 0,0.599977 1.266109,2.082435 1.778525,2.082435 0.21071,0 0.556179,-0.208534 0.767705,-0.463408 0.302663,-0.364688 0.279383,-0.654413 -0.109289,-1.36 C 52.725306,84.723466 52.277318,83.845734 52.001418,83.266077 51.725514,82.686419 51.292576,82.132643 51.039331,82.035462 50.173149,81.703078 48.96,78.460755 48.96,76.478134 c 0,-1.608793 0.101094,-1.910768 0.791011,-2.362819 0.766986,-0.502547 0.805869,-0.489568 1.28,0.427306 0.268944,0.520077 0.488989,1.240749 0.488989,1.601488 0,0.360739 0.144,0.655891 0.32,0.655891 0.176,0 0.32,0.270368 0.32,0.600819 0,0.330448 0.216,0.78008 0.48,0.999181 0.264,0.219101 0.48,0.589312 0.48,0.822694 0,0.233383 0.35369,0.805968 0.785974,1.272413 l 0.785975,0.84808 0.191773,-0.764083 C 55.065603,79.854422 54.776208,78.822762 54.092918,77.76 c -0.169734,-0.264 -0.68384,-1.344 -1.142451,-2.4 -0.458614,-1.056 -1.021721,-2.28 -1.251353,-2.72 -0.390887,-0.748992 -0.392093,-2.686029 -0.0029,-4.420774 0.122492,-0.545767 0.352822,-0.714247 0.87495,-0.64 0.548816,0.07804 0.759936,0.389529 0.935862,1.380774 0.479428,2.701299 0.655837,3.373533 0.929722,3.542803 0.155706,0.09623 0.283104,0.50953 0.283104,0.918435 0,0.714992 2.300234,3.378762 2.917648,3.378762 0.155293,0 0.282352,0.216 0.282352,0.48 0,0.503094 0.806317,0.667549 1.082442,0.220771 0.08812,-0.142573 -0.262548,-1.146819 -0.779248,-2.231651 -1.463722,-3.07313 -2.222858,-5.254931 -2.223034,-6.38912 -8.6e-5,-0.572 -0.112589,-1.04 -0.250003,-1.04 -0.413405,0 -0.941933,-1.750778 -0.680071,-2.252765 0.134055,-0.256979 0.321607,-0.719235 0.416781,-1.027235 0.224131,-0.725315 1.877837,-0.749088 2.470055,-0.03551 0.239408,0.288467 0.390601,0.865468 0.33599,1.282224 -0.09489,0.724128 1.446147,4.317312 1.947088,4.539952 0.132,0.05867 0.24,0.300963 0.24,0.538438 0,0.237472 0.273683,0.51863 0.608189,0.6248 0.334502,0.106166 0.697245,0.547869 0.806096,0.981562 0.108848,0.433696 0.411165,0.788534 0.671811,0.788534 0.260646,0 0.473904,0.216 0.473904,0.48 0,0.322058 0.322099,0.48 0.978886,0.48 0.538388,0 0.915472,-0.108 0.837968,-0.24 -0.07751,-0.132 -0.445625,-0.915267 -0.818044,-1.740595 C 63.666262,71.43408 63.205261,70.662214 63.01423,70.544154 62.823203,70.42609 62.379882,69.733357 62.029075,69.004746 61.678266,68.276138 61.048122,67.032 60.628749,66.24 60.209376,65.448 59.860317,64.340166 59.853062,63.778144 59.844358,63.103725 59.604579,62.591485 59.14784,62.271571 l -0.692032,-0.484717 0.772032,-0.64278 c 0.424618,-0.35353 0.844032,-0.645367 0.932032,-0.648528 0.492086,-0.01766 0.894336,0.677996 1.427213,2.468281 0.328038,1.102106 0.789113,2.163738 1.024611,2.359184 0.235498,0.195443 0.428176,0.550403 0.428176,0.788794 0,0.238393 0.338742,0.655395 0.752762,0.926669 0.414016,0.271273 1.024777,1.030595 1.357241,1.687376 0.332467,0.656784 0.771405,1.41015 0.975418,1.67415 0.728128,0.942214 2.034579,3.491654 2.034579,3.970323 0,0.669984 -1.180848,1.243943 -2.089862,1.015795 -0.697933,-0.175168 -0.738074,-0.113235 -0.575584,0.888077 0.137696,0.848515 0.02,1.220487 -0.556007,1.757111 -0.907686,0.845638 -2.754121,1.227859 -3.545136,0.733862 -0.76607,-0.478419 -1.14384,-0.467597 -0.657411,0.01882 0.983222,0.983222 -0.0093,3.013264 -1.696,3.468877 -0.502077,0.135625 -0.66071,0.490121 -0.736102,1.644979 -0.126893,1.943725 -0.80482,2.534618 -2.996455,2.611763 -1.631497,0.05743 -1.712189,0.101543 -1.814153,0.991786 -0.126669,1.105923 1.001846,4.841817 2.068672,6.848243 1.306528,2.457238 1.2404,2.657814 -2.67226,8.105304 -1.762684,2.45414 -2.649702,4.3681 -2.649702,5.71738 0,1.64287 0.679405,4.23846 1.194528,4.56356 0.223011,0.14075 0.405472,0.43917 0.405472,0.66316 0,1.10476 7.938582,7.22863 12.818646,9.88838 4.031479,2.19725 6.500836,3.63782 9.197488,5.36566 1.636874,1.0488 3.045943,1.9069 3.131258,1.9069 0.08532,0 0.531683,0.24673 0.99192,0.54829 0.460237,0.30156 0.995171,0.58504 1.188742,0.62995 0.193568,0.0449 1.215946,0.39891 2.271946,0.78667 1.474765,0.54153 2.662058,0.71083 5.12,0.73006 3.142566,0.0246 3.248819,6.4e-4 5.92,-1.3295 1.496,-0.745 3.41968,-1.933 4.274842,-2.64 0.855164,-0.70701 1.680201,-1.28547 1.833417,-1.28547 0.153216,0 1.042519,-0.756 1.976229,-1.68 0.93371,-0.924 5.62364,-5.49449 10.42207,-10.15665 4.79842,-4.66216 9.04564,-9.05416 9.43825,-9.76 0.39262,-0.70584 0.89306,-2.0651 1.11209,-3.02057 0.38973,-1.70006 0.37871,-1.76166 -0.51515,-2.88 -2.86455,-3.58393 -3.23004,-4.189764 -4.55038,-7.542772 -0.23368,-0.593434 -0.68237,-2.389258 -1.0832,-4.335418 -0.0924,-0.44848 -0.18909,-2.14048 -0.21494,-3.76 -0.0257,-1.619504 -0.17427,-2.944566 -0.32998,-2.944566 -0.15572,0 -0.28312,-0.288 -0.28312,-0.64 0,-0.715683 -0.24262,-0.753942 -2.08,-0.328003 -1.38717,0.321571 -2.72,-0.215552 -2.72,-1.096147 0,-0.247168 -0.36549,-0.73689 -0.81219,-1.088269 -0.60048,-0.472336 -0.86024,-1.044567 -0.99652,-2.195223 -0.17156,-1.448512 -0.12637,-1.582758 0.65219,-1.937494 0.57157,-0.260422 1.83161,-1.444464 1.80949,-0.811996 -0.007,0.188589 -1.27258,1.195403 -1.63877,1.291163 -0.49419,0.129235 -0.61904,0.348326 -0.48437,0.850041 0.0998,0.371763 0.1834,0.846231 0.1858,1.054368 0.008,0.662451 1.13461,0.766941 2.2679,0.210275 0.60306,-0.296217 1.16847,-0.636569 1.25647,-0.756339 0.21791,-0.296582 2.10462,-1.099734 3.77604,-1.607427 1.65856,-0.503782 1.91966,-0.837386 1.136,-1.451437 -0.69084,-0.541321 -2.5658,-0.449917 -5.28331,0.257568 -1.48856,0.38753 -1.78179,0.394701 -1.64577,0.04024 0.0976,-0.254269 0.65176,-0.431312 1.35012,-0.431312 0.65152,0 1.46412,-0.211421 1.80576,-0.469824 C 113.83671,72.282336 116.8,72.144595 116.8,72.64 c 0,0.176 0.36,0.32 0.8,0.32 0.72,0 0.8,0.128 0.8,1.28 0,1.203181 -0.0565,1.28 -0.94111,1.28 -0.51762,0 -1.01249,0.115485 -1.09973,0.25663 -0.0872,0.141149 -0.89685,0.457664 -1.79916,0.70337 -0.90231,0.245706 -1.71256,0.563238 -1.80056,0.705629 -0.31503,0.509731 0.7999,0.611917 1.69168,0.155043 1.21024,-0.620022 3.87646,-0.938896 5.06888,-0.606224 1.79098,0.499667 1.08863,2.941088 -1.03196,3.587155 l -0.88804,0.270554 0.76444,0.232867 c 0.75946,0.231347 0.76272,0.251853 0.4995,3.14392 -0.40585,4.459238 -0.32809,5.857302 0.36855,6.626099 0.4978,0.549354 0.6275,1.28113 0.7182,4.052074 0.11022,3.367113 0.11606,3.388755 1.36,5.036342 0.84537,1.119691 1.24931,1.984671 1.24931,2.675261 0,1.57252 -1.48944,4.76376 -2.73296,5.85559 -0.60887,0.53459 -1.10704,1.14248 -1.10704,1.35087 0,0.20838 -0.72,1.08805 -1.6,1.95482 -2.73951,3.37991 -5.98422,5.58061 -8.72797,8.25068 -5.99542,5.84846 -8.574888,8.18104 -10.95203,9.9038 -2.659264,1.92722 -5.778109,3.58583 -7.905971,4.20442 -1.787114,0.51953 -5.413866,0.59101 -6.667507,0.13141 z M 51.862886,102.48 c 0.681332,-0.5693 3.207319,-4.281101 3.574743,-5.252896 0.193494,-0.511766 -0.629018,-3.074211 -1.523651,-4.746762 C 53.678525,92.040154 53.301853,90.78 53.076931,89.68 c -0.224921,-1.1 -0.57144,-2 -0.770045,-2 -0.427414,0 -1.852246,-1.539094 -2.154841,-2.327642 C 50.035469,85.04856 49.719568,84.8 49.450042,84.8 c -0.701316,0 -0.595837,1.842717 0.174012,3.04 1.009127,1.569402 1.588602,2.996275 1.952295,4.807245 0.355238,1.768854 0.132563,4.47823 -0.394839,4.804182 -0.301027,0.186045 -0.441363,5.588573 -0.145168,5.588573 0.08599,0 0.457933,-0.252 0.826544,-0.56 z m 67.594464,-9.04 c -0.10154,-0.616 -0.54043,-1.829699 -0.97531,-2.69711 -0.68079,-1.357876 -0.76256,-1.847188 -0.58827,-3.52 0.6475,-6.214426 0.66568,-5.833492 -0.28986,-6.073316 -1.16279,-0.291843 -1.64031,0.183303 -1.87026,1.860983 -0.21905,1.598141 0.23479,6.438429 0.78286,8.349443 0.45713,1.593933 1.45419,3.904605 2.14025,4.96 l 0.52003,0.8 0.23259,-1.28 c 0.12792,-0.704 0.14951,-1.784 0.048,-2.4 z M 57.109213,85.45192 c 0.77736,-0.858973 0.499526,-1.359437 -1.486931,-2.678435 -2.417725,-1.60536 -3.246445,-2.587098 -4.637242,-5.493485 -1.177091,-2.459802 -1.229114,-2.517306 -1.329104,-1.469178 -0.148835,1.56009 1.129178,4.609287 2.765213,6.597495 0.148589,0.180576 0.539328,0.756576 0.868307,1.28 1.442742,2.295472 2.779763,2.912781 3.819757,1.763603 z m 2.681824,-4.129456 c 1.155664,-1.002301 0.880976,-1.76313 -0.945399,-2.61856 C 57.946739,78.282883 56.656694,77.400211 55.978877,76.74241 54.16705,74.984093 53.523779,73.577613 52.492672,69.12 52.27145,68.163629 52.228224,68.122182 52.1968,68.836323 c -0.06025,1.369239 0.529978,3.970771 1.27504,5.619984 2.154234,4.768426 2.934083,6.204829 3.692688,6.801549 1.041952,0.819597 1.736307,0.836678 2.626509,0.06461 z m 52.587453,-1.43465 c 0.29191,-0.312492 0.9965,-0.389772 2.54412,-0.279043 2.9559,0.211495 4.23736,-0.07708 4.77112,-1.074425 0.37346,-0.697824 0.36934,-0.858634 -0.0285,-1.11064 -0.66211,-0.419389 -4.25723,0.0035 -6.70411,0.788566 -1.66619,0.534602 -2.10149,0.811277 -2.18336,1.387728 -0.0772,0.543808 0.0567,0.72 0.54738,0.72 0.3573,0 0.83131,-0.194483 1.05336,-0.432186 z M 64.4,77.954544 c 0.308,-0.233805 0.56,-0.630259 0.56,-0.881014 0,-0.250752 -1.36457,-1.818877 -3.032374,-3.48472 -3.322148,-3.318247 -3.85849,-4.170941 -4.361735,-6.934487 -0.185721,-1.019878 -0.456685,-1.977782 -0.602137,-2.128678 -0.451437,-0.46832 -1.0193,1.048259 -0.79872,2.133123 0.329875,1.622413 1.165708,4.45119 1.639769,5.549594 0.239357,0.554598 0.435197,1.097686 0.435197,1.20686 0,0.373744 1.721488,2.903991 2.683882,3.944778 1.047174,1.132474 2.451152,1.372605 3.476118,0.594544 z m 2.971936,-3.413859 c 0.360531,-0.583351 -0.54809,-2.267843 -2.960547,-5.48857 -2.089821,-2.789993 -3.131171,-4.575216 -3.786954,-6.492115 -0.135318,-0.395549 -0.275661,-0.488285 -0.367427,-0.24279 -0.284451,0.76095 1.349331,4.866291 2.643597,6.64279 0.384672,0.528 0.987837,1.747933 1.340361,2.710963 0.352525,0.963027 0.910522,1.899027 1.239994,2.08 0.329472,0.18097 0.714195,0.509037 0.854941,0.729037 0.313033,0.489302 0.755129,0.5152 1.036035,0.06068 z M 82.88,124.52447 c 0,-1.04614 10.605651,-4.5378 12.223514,-4.02431 0.93327,0.29621 0.32927,0.78059 -0.9624,0.7718 -1.265127,-0.009 -7.780676,1.96444 -9.704682,2.93879 -1.304637,0.66069 -1.556432,0.71144 -1.556432,0.31372 z m 4.286054,-9.62739 c -1.602371,-0.38274 -4.467001,-2.17436 -5.370448,-3.35884 -0.895555,-1.17413 -1.002131,-1.45824 -0.54703,-1.45824 0.158717,0 0.561811,0.43155 0.89577,0.959 0.983433,1.55322 3.493632,2.97178 5.539094,3.13024 1.562592,0.12105 1.856867,0.0432 2.583731,-0.68368 0.451162,-0.45116 1.091434,-1.61798 1.422829,-2.59293 0.607712,-1.78786 1.363274,-2.50532 0.964298,-0.91567 -0.451623,1.79941 -1.656048,3.80583 -2.70162,4.50057 -1.160121,0.77084 -1.25567,0.78523 -2.786624,0.41955 z m -20.353772,-8.97363 c -0.477248,-0.14384 -1.497271,-0.68641 -2.26672,-1.20571 -0.76945,-0.51929 -2.286976,-1.28849 -3.372279,-1.70932 C 60.087978,102.58758 59.2,102.06252 59.2,101.84163 c 0,-0.2209 0.108,-0.40057 0.24,-0.39927 0.224861,0.002 3.042973,1.44198 6.157395,3.14582 1.048234,0.57347 2.061952,0.78961 4.341066,0.92558 l 2.973475,0.1774 1.944032,-1.85429 C 75.925187,102.81701 76.8,102.08577 76.8,102.2119 c 0,0.56105 -2.803869,3.41051 -3.644195,3.70344 -1.091027,0.38034 -5.091594,0.38545 -6.343523,0.008 z M 66.56,104.21541 c -2.142253,-0.71805 -3.721776,-1.77356 -4.88135,-3.26192 -0.641645,-0.82358 -1.211962,-1.633429 -1.267376,-1.799669 C 60.355859,98.987578 59.99241,98.8276 59.603606,98.798314 59.214803,98.769034 58.825456,98.559424 58.73839,98.332531 58.61543,98.012106 59.323805,97.92 61.911158,97.92 c 1.875533,0 3.417488,-0.139827 3.528842,-0.32 0.108774,-0.176 0.455149,-0.32 0.769722,-0.32 0.729785,0 2.40495,-0.831117 2.915788,-1.44664 0.216071,-0.260349 0.667741,-0.47336 1.003716,-0.47336 0.335974,0 0.693747,-0.216 0.795052,-0.48 0.136279,-0.355133 0.699482,-0.48 2.165015,-0.48 1.871683,0 2.044022,0.06611 3.127929,1.2 0.630909,0.66 1.308135,1.514534 1.504944,1.898963 0.467309,0.912803 0.447456,1.734893 -0.02176,0.901037 -0.984332,-1.749274 -2.270326,-3.04 -3.02886,-3.04 -0.606877,0 -0.755357,0.132339 -0.628308,0.56 0.550586,1.85329 0.520672,2.293024 -0.279193,4.10414 -1.019722,2.30893 -2.475072,3.87639 -3.98985,4.2972 -1.38784,0.38556 -1.787142,0.37239 -3.214195,-0.10593 z m 4.701587,-1.38633 c 1.121629,-1.32079 2.35696,-4.016507 2.146675,-4.684437 -0.09962,-0.316445 -0.01766,-0.772336 0.182148,-1.013088 0.283881,-0.342057 0.219718,-0.483299 -0.293562,-0.646208 C 72.935581,96.370685 72.64,96.142576 72.64,95.978435 c 0,-0.47575 -0.527811,-0.355334 -2.321568,0.529648 -0.923139,0.455447 -2.438288,1.097018 -3.367002,1.425712 -0.928713,0.328698 -1.893062,0.802125 -2.142998,1.052058 -0.331853,0.331853 -0.803453,0.390605 -1.748371,0.217814 -0.937623,-0.171456 -1.393696,-0.116419 -1.656186,0.199859 C 61.12721,99.73689 61.147712,99.84 61.490662,99.84 c 0.246964,0 0.60048,0.40125 0.785594,0.89167 0.503034,1.33269 4.467949,3.17476 6.624851,3.07785 1.302861,-0.0585 1.727296,-0.23483 2.36048,-0.98044 z m -3.771427,-1.28394 c -0.197462,-0.49783 -0.497507,-1.17116 -0.666765,-1.4963 -0.367517,-0.705992 -0.344873,-0.735883 0.769232,-1.015506 0.727181,-0.182508 0.931719,-0.08612 1.236448,0.582685 0.402755,0.883951 0.04372,2.493051 -0.604483,2.709121 -0.206474,0.0688 -0.53697,-0.28218 -0.734432,-0.78 z m 30.58984,1.0033 c -0.528,-0.24176 -1.266368,-0.44607 -1.640819,-0.45401 -0.374448,-0.008 -0.878448,-0.25739 -1.12,-0.55434 -0.390749,-0.48038 -0.368605,-0.5117 0.200819,-0.28405 2.085072,0.83359 5.43736,1.44907 6.36785,1.16914 1.52478,-0.45871 4.47875,-1.74485 5.41203,-2.35636 0.46068,-0.30185 1.04587,-0.54882 1.30041,-0.54882 0.67342,0 1.9086,-1.594896 2.56374,-3.310352 0.3129,-0.819306 0.77299,-1.489648 1.02244,-1.489648 0.24944,0 0.45353,0.137226 0.45353,0.304944 0,0.509328 -0.72643,1.935056 -0.98594,1.935056 -0.13377,0 -0.3377,0.430246 -0.4532,0.956099 -0.24634,1.121565 -1.53736,2.243901 -2.58116,2.243901 -0.40369,0 -0.95935,0.22537 -1.23481,0.50082 -0.27545,0.27545 -0.87201,0.56813 -1.32569,0.6504 -0.45367,0.0823 -1.38773,0.5049 -2.07567,0.93918 -1.44189,0.91022 -4.256269,1.05231 -5.90353,0.29804 z m 0,-2.25055 c -0.88,-0.433631 -1.88287,-1.171938 -2.228602,-1.640687 -0.885443,-1.200505 -2.081072,-2.461763 -2.187296,-2.30736 -0.04925,0.07159 -0.370576,0.673888 -0.71406,1.338451 -0.85682,1.657754 -0.959959,1.017191 -0.1361,-0.845283 0.532285,-1.203318 0.942266,-1.632358 2.007476,-2.10079 C 97.455059,93.584058 98.464096,93.44 103.94272,93.44 c 4.67314,0 5.49728,-0.07196 5.49728,-0.48 0,-0.264 0.18555,-0.48 0.41234,-0.48 0.22679,0 0.97723,-0.288 1.66766,-0.64 0.69043,-0.352 1.43238,-0.64 1.64877,-0.64 0.5679,0 0.86916,0.621974 0.37151,0.766992 -2.78697,0.812134 -3.36888,1.186061 -3.73204,2.398176 -0.20253,0.675997 -0.36824,1.582458 -0.36824,2.014358 0,0.435917 -0.50171,1.371412 -1.12773,2.102775 -2.21527,2.588039 -6.95715,3.429419 -10.23227,1.815589 z m 7.23998,-0.341589 c 1.03401,-0.464035 1.88002,-1.038816 1.88002,-1.27729 0,-0.238473 0.288,-0.613446 0.64,-0.833273 0.47727,-0.298064 0.64,-0.74625 0.64,-1.762714 V 94.72 h -2.54111 c -1.54859,0 -2.62869,-0.14169 -2.76532,-0.362762 -0.50125,-0.811036 -8.375228,0.607738 -8.694879,1.566692 -0.05947,0.178393 0.330503,0.804579 0.866595,1.391526 0.536093,0.586947 0.974714,1.185197 0.974714,1.329446 0,0.144253 0.9,0.688045 2,1.208432 2.578,1.219596 4.45042,1.247146 6.99998,0.102967 z m -4.18263,-1.855399 c -0.20956,-0.252502 -0.33519,-0.936502 -0.27918,-1.52 0.0853,-0.888976 0.24444,-1.077312 0.98183,-1.162156 0.84358,-0.09707 0.88,-0.0422 0.88,1.325763 0,1.006057 -0.14932,1.484317 -0.50617,1.621254 -0.66715,0.25601 -0.63831,0.263104 -1.07648,-0.264861 z M 59.84,95.249165 c 0,-0.06096 0.21943,-0.550698 0.487626,-1.088307 0.321881,-0.645226 0.947302,-1.158768 1.84,-1.510858 0.743804,-0.293363 1.883929,-0.955626 2.533609,-1.471693 0.64968,-0.51607 1.316048,-0.938307 1.480819,-0.938307 0.164768,0 0.472733,-0.208634 0.684362,-0.463632 0.211629,-0.254995 0.913261,-0.62503 1.559181,-0.822294 C 69.07152,88.75681 69.888,88.468938 70.24,88.314365 c 0.352,-0.154576 1.450291,-0.439079 2.440643,-0.632224 4.02121,-0.784247 6.794295,1.231395 5.365946,3.900288 -0.330746,0.618003 -0.541088,0.647213 -3.28,0.455491 -5.123632,-0.35865 -8.565837,0.35361 -13.069987,2.704435 C 60.606262,95.31143 59.84,95.520602 59.84,95.249165 Z m 7.201024,-3.537095 c 0.352566,-0.06511 1.179197,-0.266972 1.83696,-0.448588 0.999859,-0.276074 5.372275,-0.264685 7.762016,0.02022 0.503418,0.06002 0.66081,-0.137748 0.737514,-0.926698 0.07608,-0.782493 -0.0998,-1.159315 -0.8,-1.714038 -0.755815,-0.598784 -1.175383,-0.685968 -2.657514,-0.552218 -2.099658,0.189475 -7.449245,2.233318 -8.8,3.36209 l -0.96,0.802236 1.12,-0.212313 c 0.616,-0.116775 1.408461,-0.265584 1.761024,-0.330688 z m 23.73231,-1.685404 C 90.656,89.909334 90.56,88.917894 90.56,87.823469 c 0,-1.813223 0.07812,-2.042669 0.88,-2.584707 2.500829,-1.690464 5.277331,-1.796778 8.358723,-0.320058 1.237987,0.593286 2.509717,1.167018 2.826077,1.274957 0.31636,0.107939 1.1512,0.561574 1.8552,1.008073 0.704,0.4465 1.496,0.903824 1.76,1.016276 0.52433,0.22334 1.6,1.251014 1.6,1.528611 0,0.469958 -2.00188,0.07887 -3.39234,-0.66273 -1.36958,-0.730464 -1.97199,-0.840771 -4.76766,-0.872992 -3.481725,-0.04013 -6.048784,0.490131 -6.972467,1.44025 -0.573264,0.589673 -1.5336,0.776118 -1.934199,0.375517 z m 2.001469,-1.172436 c 1.478912,-1.246396 5.492243,-1.964966 8.189657,-1.466323 3.48202,0.643687 3.07666,0.129952 -1.555548,-1.971446 -1.320093,-0.598861 -1.924374,-0.678064 -4.057658,-0.531847 -3.327715,0.228087 -4.127356,0.783309 -4.1412,2.875386 -0.01078,1.628243 0.503991,1.988214 1.564749,1.09423 z M 105.89651,73.556112 c -0.2013,-0.376141 -0.2916,-1.142378 -0.20067,-1.702749 0.15076,-0.928973 0.048,-1.083696 -1.16525,-1.753744 -1.75287,-0.968109 -2.81663,-2.556707 -2.32595,-3.473542 0.19545,-0.365203 0.49739,-0.637469 0.67098,-0.60504 0.17359,0.03243 0.3666,-0.229037 0.42891,-0.581037 0.15422,-0.871219 3.25527,-4 3.96454,-4 0.31401,0 0.57093,-0.216 0.57093,-0.48 0,-0.362666 0.39111,-0.48 1.6,-0.48 0.88,0 1.6,0.144 1.6,0.32 0,0.176 0.20025,0.32 0.44499,0.32 0.27032,0 0.49631,0.439626 0.57574,1.12 0.0719,0.616 0.0157,1.12 -0.12499,1.12 -0.14066,0 -0.25574,0.223152 -0.25574,0.495891 0,1.038826 -0.95559,2.332288 -1.87171,2.533504 -0.59199,0.130019 -1.2839,0.705456 -1.92994,1.605056 -1.27289,1.772461 -0.74375,2.26056 0.76571,0.70632 1.18172,-1.216781 2.78954,-2.140771 3.7251,-2.140771 0.37751,0 0.59084,-0.231085 0.59084,-0.64 0,-0.352 0.112,-0.64 0.24888,-0.64 0.13689,0 0.49548,0.288 0.79687,0.64 0.30139,0.352 0.8374,0.64 1.19112,0.64 0.7882,0 0.85629,1.011674 0.17745,2.636362 -0.35148,0.841216 -0.88898,1.321622 -2.19189,1.959078 C 112.23301,71.619949 111.21978,72 110.93082,72 c -0.28897,0 -0.70526,0.288 -0.92508,0.64 -0.21983,0.352 -0.59134,0.64 -0.82557,0.64 -0.23424,0 -0.64189,0.216 -0.90589,0.48 -0.7045,0.704506 -1.94871,0.597818 -2.37777,-0.203888 z M 108.16,72.638307 c 0.616,-0.523309 1.29392,-1.097011 1.50649,-1.274889 0.21258,-0.177879 0.74435,-0.323418 1.18171,-0.323418 1.55357,0 4.3518,-2.000467 4.3518,-3.111117 C 115.2,67.29584 115.03704,67.2 113.96068,67.2 c -1.73865,0 -4.02461,1.098342 -5.54975,2.666512 -1.73268,1.781568 -2.2256,2.578691 -1.98395,3.2084 0.27182,0.708349 0.43309,0.667718 1.73302,-0.436605 z M 105.92,69.12 c 0,-0.176 0.252,-0.586662 0.56,-0.912586 0.308,-0.325923 0.9412,-1.043856 1.4071,-1.595411 0.4659,-0.551555 1.19498,-1.135088 1.62016,-1.296742 0.84205,-0.320147 1.69151,-2.449165 1.34131,-3.361767 -0.25762,-0.67136 -2.45885,-0.695865 -3.00857,-0.03349 -0.2191,0.264 -0.57839,0.48 -0.79843,0.48 -0.5404,0 -2.9827,2.683498 -3.37042,3.703286 -0.54012,1.420621 -0.3813,2.565082 0.40885,2.946157 0.92439,0.445815 1.84,0.480925 1.84,0.07056 z m -21.36223,3.942784 c -1.741146,-1.01383 -1.998519,-1.531075 -2.338138,-4.698938 -0.153533,-1.432115 -0.425712,-3.863744 -0.604838,-5.403619 -0.258544,-2.222563 -0.229808,-3.213197 0.139382,-4.805117 0.255789,-1.102944 0.387728,-2.301104 0.2932,-2.662582 -0.100979,-0.38615 0.03529,-0.829165 0.330378,-1.074064 C 82.653987,54.18921 82.88,53.800406 82.88,53.554458 c 0,-0.580039 1.327834,-2.665303 2.185696,-3.432471 0.966554,-0.864371 2.778922,-0.456262 4.074554,0.917507 0.945449,1.002468 1.017472,1.25424 1.226358,4.287146 0.141709,2.05753 0.101104,3.447875 -0.112342,3.846707 C 90.070419,59.516864 89.92,61.346723 89.92,63.239699 c 0,4.682675 -0.767811,8.885328 -1.84895,10.120301 -0.663735,0.758179 -1.877034,0.655536 -3.51328,-0.297216 z m 3.395715,-1.011338 c 0.60672,-1.099865 0.820669,-2.142716 1.049677,-5.116441 C 89.412992,61.613219 89.556499,52.8 89.233322,52.8 89.082995,52.8 88.96,52.529632 88.96,52.199181 c 0,-0.731146 -0.506461,-1.160704 -1.707213,-1.447984 -1.318413,-0.315431 -1.998701,0.0087 -2.77312,1.321229 -0.995801,1.68776 -1.526406,3.445641 -1.862157,6.169292 -0.308787,2.504919 0.01539,8.177952 0.584356,10.225975 0.173011,0.622768 0.315369,1.661517 0.316348,2.308333 0.0016,1.044646 0.153712,1.264921 1.361786,1.971817 0.748,0.437687 1.574074,0.770874 1.835718,0.740416 0.261648,-0.03046 0.81864,-0.677021 1.237767,-1.436813 z m -9.544903,0.371968 C 76.401242,70.340314 76.061907,69.185139 75.974566,64.13752 75.918454,60.89473 75.754438,59.294669 75.38833,58.418442 75.108749,57.749312 74.88,56.793037 74.88,56.293386 c 0,-0.521501 -0.306682,-1.206416 -0.72,-1.607981 -0.396,-0.384739 -0.54,-0.597853 -0.32,-0.473581 0.282454,0.159549 0.4,-0.06467 0.4,-0.762982 0,-1.236596 0.602218,-1.490292 1.92,-0.808842 0.55977,0.289469 1.21033,0.452413 1.44569,0.362096 0.325852,-0.12504 0.385024,0.100154 0.248073,0.944086 -0.125635,0.774192 -0.02298,1.281636 0.340522,1.683306 0.286208,0.316253 0.655619,1.284995 0.820918,2.152758 0.313936,1.648055 0.536343,2.426372 0.999504,3.497754 0.577335,1.335494 1.18625,12 0.685168,12 -0.180141,0 -0.519309,0.06677 -0.753702,0.14839 -0.234397,0.08162 -0.926311,-0.370624 -1.537591,-1.004976 z M 80.608541,70.96 C 80.583101,67.917808 79.141363,60.375488 78.391158,59.36 78.261136,59.184 77.99168,58.266403 77.792368,57.320893 77.412666,55.519638 76.549827,53.76 76.046285,53.76 c -0.162653,0 -0.487024,-0.252 -0.720829,-0.56 -0.389344,-0.512893 -0.424778,-0.492704 -0.421232,0.24 0.0022,0.44 0.222816,1.376 0.490422,2.08 1.186941,3.122534 1.395258,4.495795 1.334928,8.8 -0.05053,3.60513 0.0356,4.518253 0.520474,5.518051 0.572029,1.179498 2.484467,3.121949 3.073718,3.121949 0.165821,0 0.293972,-0.9 0.284775,-2 z M 69.2,72.734166 c -0.457286,-0.08808 -0.72,-0.369657 -0.72,-0.771702 0,-0.348163 -0.36,-0.966659 -0.8,-1.374438 -0.44,-0.40778 -0.8,-0.855309 -0.8,-0.994516 0,-0.139206 -0.36,-0.725084 -0.8,-1.301955 -0.44,-0.57687 -0.8,-1.195305 -0.8,-1.374304 0,-0.178998 -0.18777,-0.440605 -0.417264,-0.58135 -0.69993,-0.429255 -2.448262,-4.691962 -2.45808,-5.993181 -0.0096,-1.277091 0.76448,-2.762938 1.541008,-2.957834 0.608182,-0.152643 0.945418,0.02691 1.611722,0.858141 1.455273,1.815479 2.174636,3.299181 2.795993,5.766803 0.331018,1.314596 0.736263,2.486327 0.900541,2.603853 0.164278,0.117527 0.348794,0.541991 0.410029,0.943251 0.06124,0.401261 0.334694,0.976368 0.607683,1.278016 0.276256,0.305261 1.246299,2.720246 1.188424,3.225794 C 71.366511,72.877842 70.46087,70.991152 69.572739,69.12 69.029744,67.976 68.267018,66.032 67.877789,64.8 66.985091,61.974397 65.294829,58.577728 64.55089,58.114426 64.110435,57.840122 63.912608,57.868509 63.675792,58.24 c -0.421226,0.660765 -0.392954,2.980835 0.04953,4.064944 0.986717,2.417485 1.681705,3.832883 2.242781,4.567597 0.339145,0.444102 1.180246,1.599459 1.869107,2.567459 1.852253,2.602813 1.874848,2.621379 2.912963,2.393373 1.174016,-0.257859 1.259008,0.377312 0.108992,0.814547 -0.451456,0.171645 -0.847456,0.29247 -0.88,0.268502 C 69.946627,72.892454 69.596,72.810438 69.2,72.734166 Z m 4.72,-0.833577 C 72.960544,71.449526 72.02535,70.413421 72.010646,69.785197 72.00479,69.535056 71.784275,69.092019 71.520608,68.800672 71.228966,68.478413 70.959251,67.277949 70.831933,65.735475 70.716829,64.340963 70.525274,63.128 70.406259,63.04 70.287242,62.952 69.970861,62.448 69.703187,61.92 69.435514,61.392 68.992115,60.528 68.717856,60 c -1.106947,-2.131075 -1.273331,-2.695722 -1.053008,-3.573555 0.124634,-0.496576 0.376659,-1.083671 0.560061,-1.304656 1.167001,-1.406147 3.922931,0.812035 5.065334,4.076973 0.632986,1.80904 0.924394,3.4443 1.739469,9.761238 0.146945,1.236343 0.729687,3.84541 -0.310765,0.245955 -0.261757,-0.568723 -0.700707,-2.440723 -0.975443,-4.16 -0.70689,-4.423622 -1.295795,-6.234502 -2.537968,-7.804233 -0.596237,-0.753463 -1.027731,-1.461085 -0.958877,-1.572493 0.202813,-0.32816 -0.930435,-0.25057 -1.366659,0.09357 -0.660096,0.520755 -0.457901,1.805709 0.610166,3.877616 0.555591,1.07777 1.230458,2.388294 1.4997,2.912275 0.269244,0.523981 0.540425,1.747981 0.60262,2.72 0.143581,2.243895 1.521354,5.206311 2.764093,5.94321 0.763981,0.453011 0.373611,-1.254827 0.664388,-1.576792 0.493576,-0.546512 0.810508,1.428085 0.814134,1.960891 0.0055,0.81007 -0.621904,0.908547 -1.915101,0.30059 z M 90.759587,71.513872 C 90.167514,70.921798 90.004435,66.74336 90.56,66.4 c 0.176,-0.108774 0.322474,-0.729274 0.325494,-1.378886 0.0029,-0.649613 0.299882,-2.477114 0.65969,-4.061114 0.359805,-1.584 0.733933,-3.277763 0.831398,-3.763917 0.09746,-0.486153 0.304605,-0.962653 0.460314,-1.058886 0.155706,-0.09623 0.283104,-0.447923 0.283104,-0.781536 0,-0.333613 0.37056,-0.97713 0.823466,-1.430035 0.658566,-0.658567 0.781635,-1.013924 0.614576,-1.774548 C 94.390864,51.389933 94.456835,51.2 94.888381,51.2 c 0.296576,0 0.967065,-0.36 1.489977,-0.8 0.522909,-0.44 1.335696,-0.797514 1.806196,-0.79447 1.22168,0.0079 2.295446,1.261347 2.295446,2.679574 0,0.736016 0.15133,1.154896 0.41723,1.154896 0.22947,0 0.88104,0.478538 1.44793,1.063414 0.79883,0.824196 1.23326,1.033684 1.93117,0.931255 1.36191,-0.199888 1.96367,0.60727 1.96367,2.633952 0,1.218496 -0.13654,1.755302 -0.48,1.887101 -0.264,0.101305 -0.48,0.377769 -0.48,0.614364 0,0.236599 -0.432,0.844058 -0.96,1.349914 -0.528,0.505856 -0.96249,1.072797 -0.96553,1.259869 -0.003,0.187072 -0.3733,0.68912 -0.8228,1.115664 -0.51277,0.486585 -0.75842,1.000582 -0.65931,1.379574 0.092,0.351952 -0.037,0.678845 -0.30912,0.78328 -0.2569,0.09858 -0.66823,0.660647 -0.91408,1.249034 -0.51262,1.226889 -1.701173,1.692086 -2.912757,1.140051 C 96.979885,68.502781 96.618973,67.2 97.28,67.2 c 0.176,0 0.32513,-0.684 0.331398,-1.52 0.01699,-2.264291 0.745095,-4.89993 1.785255,-6.462282 0.50784,-0.762793 1.107127,-1.718329 1.331747,-2.123411 0.22463,-0.405081 0.69263,-0.82672 1.04,-0.936976 0.73989,-0.234829 0.76727,-0.431507 0.16977,-1.219721 -0.30664,-0.404528 -0.76429,-0.55112 -1.49852,-0.48 -0.879906,0.08523 -1.092626,0.26327 -1.269314,1.06239 -0.116746,0.528 -0.608256,1.68 -1.092246,2.56 -1.030682,1.874 -1.769984,4.722912 -1.86842,7.2 -0.03846,0.968 -0.153468,1.904 -0.255561,2.08 -0.102093,0.176 -0.271584,0.681363 -0.376647,1.123034 -0.282038,1.185657 -2.160748,3.080947 -3.302601,3.331737 -0.716179,0.157299 -1.141543,0.07283 -1.515274,-0.300899 z m 2.840093,-1.530483 c 1.371274,-1.331763 1.657226,-2.110848 1.726314,-4.703389 0.0305,-1.144 0.203184,-2.656 0.383772,-3.36 0.517392,-2.016973 1.963904,-5.6 2.260791,-5.6 0.148192,0 0.269443,-0.20495 0.269443,-0.455446 0,-0.2505 0.36,-0.883287 0.8,-1.406196 1.07063,-1.272374 1.06746,-2.889084 -0.0072,-3.671145 -0.642947,-0.467888 -0.919469,-0.504691 -1.509942,-0.200951 -1.006615,0.517799 -2.4812,2.260698 -2.482103,2.933738 -3.2e-4,0.308 -0.288752,0.848 -0.640752,1.2 -0.352,0.352 -0.64,0.856 -0.64,1.12 0,0.264 -0.144,0.48 -0.32,0.48 -0.176,0 -0.32,0.327958 -0.32,0.728797 0,0.400841 -0.195536,1.012841 -0.434521,1.36 C 92.446493,58.755958 92.151878,59.76 92.030778,60.64 c -0.353412,2.568179 -0.38009,2.695981 -0.610922,2.926816 -0.120918,0.120918 -0.219853,0.725626 -0.219853,1.343798 0,0.61817 -0.164038,1.577584 -0.364528,2.132029 -0.219366,0.60665 -0.275273,1.603267 -0.14039,2.50272 0.197798,1.319021 0.317689,1.494637 1.020387,1.494637 0.46791,0 1.244886,-0.435706 1.884211,-1.056611 z m 6.84327,-3.347069 c 0.51339,-1.671763 1.14189,-2.629936 3.177,-4.843453 0.58296,-0.634077 1.14156,-1.551862 1.24133,-2.039526 0.0998,-0.487661 0.30678,-0.96416 0.46005,-1.058887 0.15327,-0.09472 0.27867,-0.650931 0.27867,-1.236019 0,-0.820566 -0.15786,-1.105072 -0.69042,-1.244339 -1.64981,-0.431437 -3.9986,1.609808 -5.275817,4.585011 C 99.36911,61.4156 98.956061,62.352 98.715869,62.88 c -0.514023,1.129958 -0.951639,4.769075 -0.635088,5.281264 0.120813,0.195478 0.585389,0.311162 1.03239,0.257075 0.674144,-0.08157 0.900899,-0.385446 1.329779,-1.782019 z"
         id="path321"
         inkscape:label="outline" />
      <path
         id="path346"
         style="display:inline;fill:#702f0d;stroke-width:0.32"
         inkscape:label="eye4"
         d="m 102.37109,93.744141 c -1.47443,-0.02848 -4.277817,0.392735 -5.195309,0.867187 -0.513999,0.265802 -1.618398,0.482422 -1.96875,0.482422 -0.920648,0 -0.635714,0.851002 0.01172,1.566406 0.709973,0.784514 0.698538,0.785862 2.199219,-0.349609 0.691352,-0.523104 1.58221,-0.951172 1.980469,-0.951172 0.398262,0 0.813102,-0.144313 0.921872,-0.320313 0.27034,-0.437417 2.40039,-0.40612 2.40039,0.03516 0,0.199733 0.23318,0.264319 0.53516,0.148437 0.90593,-0.347637 3.30469,0.151226 3.30469,0.6875 0,0.361968 0.21352,0.424818 0.8789,0.257813 1.09632,-0.275155 1.32901,-0.27865 1.34961,-0.931641 0.0295,-0.936935 -1.18494,-0.892578 -3.04492,-0.892578 -1.43817,0 -2.32597,-0.187857 -2.46094,-0.40625 -0.0768,-0.124359 -0.42063,-0.183866 -0.91211,-0.193359 z m -30.181637,1.71289 c -0.473424,0.05594 -1.222998,0.354003 -2.320312,0.898438 -1.017909,0.505039 -2.586178,0.969786 -3.269532,1.195312 -0.873617,0.288322 -1.835474,0.986793 -2.271484,1.498047 -0.220998,-0.06148 -0.519202,-0.09598 -0.910156,-0.09375 -2.929751,-0.321258 -3.447354,0.603809 -1.34375,1.253902 0.448999,0.0871 0.917035,0.10623 1.52539,-0.11718 C 63.879196,99.861412 64,99.872941 64,100.13281 c 0,0.2629 0.131615,0.25074 0.447266,-0.041 0.209019,-0.1932 0.322921,-0.375566 0.349609,-0.539066 0.940128,-0.172937 2.545552,-0.686177 2.845703,-0.986328 0.179072,-0.179072 0.56922,-0.326172 0.867188,-0.326172 0.29797,0 0.625253,-0.216469 0.726562,-0.480468 0.313849,-0.817878 2.236279,-0.599655 3.199219,0.363281 l 0.84375,0.84375 v -1.003906 c 0,-0.552 -0.14236,-1.001953 -0.318359,-1.001953 -0.176,-10e-7 -0.09961,-0.599173 -0.09961,-0.951172 0,-0.423592 -0.198451,-0.608671 -0.671875,-0.552735 z m 26.173828,2.890625 c -0.03825,0.0074 -0.07905,0.02554 -0.123047,0.05273 -0.175999,0.108774 -0.320312,0.341578 -0.320312,0.517578 0,0.176 0.144313,0.229867 0.320312,0.121093 0.176,-0.108773 0.320313,-0.341578 0.320313,-0.517578 0,-0.131999 -0.08252,-0.195997 -0.197266,-0.173828 z" />
    </g>
  </g>
</svg>
