<?xml version="1.0" encoding="UTF-8" standalone="no"?>
<!-- Created with Inkscape (http://www.inkscape.org/) -->

<svg
   version="1.1"
   id="svg2"
   width="192"
   height="288"
   viewBox="0 0 192 288"
   sodipodi:docname="head18.svg"
   inkscape:version="1.2.2 (732a01da63, 2022-12-09)"
   xmlns:inkscape="http://www.inkscape.org/namespaces/inkscape"
   xmlns:sodipodi="http://sodipodi.sourceforge.net/DTD/sodipodi-0.dtd"
   xmlns="http://www.w3.org/2000/svg"
   xmlns:svg="http://www.w3.org/2000/svg">
  <defs
     id="defs6" />
  <sodipodi:namedview
     id="namedview4"
     pagecolor="#ffffff"
     bordercolor="#000000"
     borderopacity="0.25"
     inkscape:showpageshadow="2"
     inkscape:pageopacity="0.0"
     inkscape:pagecheckerboard="0"
     inkscape:deskcolor="#d1d1d1"
     showgrid="false"
     inkscape:zoom="1.4131944"
     inkscape:cx="165.93612"
     inkscape:cy="62.624079"
     inkscape:window-width="1920"
     inkscape:window-height="1001"
     inkscape:window-x="-9"
     inkscape:window-y="-9"
     inkscape:window-maximized="1"
     inkscape:current-layer="g8" />
  <g
     inkscape:groupmode="layer"
     inkscape:label="Image"
     id="g8">
    <g
       id="g170"
       transform="translate(0,4)">
      <path
         id="path180"
         style="display:inline;fill:#fefefe;stroke-width:0.32"
         d="m 114.47656,70.75 c -0.5617,0.01263 -1.23449,0.04973 -2.10156,0.101562 -4.2435,0.253702 -5.32888,0.645597 -9.04492,3.25586 -2.42588,1.703955 -3.51031,2.693359 -2.95313,2.693359 0.1622,0 0.47449,0.467063 0.69336,1.039063 0.5439,1.421412 1.91605,2.419997 4.29102,3.121094 1.09918,0.324466 2.35883,0.594609 2.79883,0.599609 0.73508,0.0083 0.71209,-0.03472 -0.29102,-0.535156 -1.64884,-0.822582 -2.36655,-2.012687 -2.52344,-4.181641 -0.13099,-1.810922 -0.0903,-1.935665 1.07422,-3.224609 2.10902,-2.334413 3.90464,-2.798784 6.38086,-1.652344 2.07865,0.962373 3.04831,2.231856 3.25781,4.261719 0.18827,1.824116 -0.11473,2.637458 -1.61328,4.332031 -0.73219,0.827973 -0.63977,0.873134 0.66407,0.320312 1.56334,-0.662891 4.19796,-3.267545 4.85351,-4.796875 0.33552,-0.782716 1.0212,-1.724499 1.52344,-2.09375 0.8073,-0.593522 0.85794,-0.724928 0.43359,-1.132812 -0.264,-0.25376 -1.69091,-0.858708 -3.17187,-1.34375 -1.2687,-0.415532 -1.99531,-0.633198 -2.83789,-0.720703 -0.4213,-0.04376 -0.8719,-0.0556 -1.4336,-0.04297 z m -7.15429,2.974609 c -0.0388,-0.0012 -0.0822,0.01143 -0.12696,0.03906 -0.17891,0.110547 -0.24384,0.334207 -0.14258,0.498047 0.27431,0.443842 0.4668,0.360906 0.4668,-0.201172 0,-0.205798 -0.0809,-0.332299 -0.19726,-0.335938 z m -15.337895,3.517579 c -0.251553,-0.02963 -0.571352,0.26233 -1.171875,1.009765 -0.560325,0.697404 -1.925717,2.193959 -3.035156,3.326172 -1.109442,1.13221 -2.017578,2.121506 -2.017578,2.197266 0,0.273707 3.05093,-0.327479 3.835937,-0.75586 1.776685,-0.969535 2.244444,-1.577636 2.630859,-3.419922 0.301913,-1.439332 0.299988,-1.921125 -0.0059,-2.226562 -0.07658,-0.07658 -0.152477,-0.120993 -0.236328,-0.130859 z m 20.396485,1.921874 c -0.11357,-0.0013 -0.22239,0.0115 -0.32617,0.03516 -0.62268,0.141916 -1.03184,0.705279 -0.79883,1.3125 0.20395,0.531464 0.86684,0.57625 1.72461,0.117187 0.88482,-0.473531 0.76437,-1.16388 -0.24805,-1.417968 -0.11968,-0.03004 -0.23799,-0.04554 -0.35156,-0.04688 z" />
      <path
         style="display:inline;fill:#bd8247;stroke-width:0.32"
         d="m 93.12,113.68911 c -0.264,-0.0992 -0.876,-0.45764 -1.36,-0.79653 -0.484,-0.33889 -0.88,-0.5387 -0.88,-0.44401 0,0.17275 -2.040362,-1.09549 -2.811978,-1.74787 -0.226588,-0.19157 -1.994358,-1.1656 -3.928377,-2.16451 -1.934023,-0.9989 -3.837008,-1.98697 -4.228861,-2.19571 -0.391856,-0.20874 -2.008086,-1.6939 -3.591622,-3.30037 C 74.735622,101.43364 72.468,99.135248 71.28,97.93256 70.092,96.729869 69.12,95.607766 69.12,95.438995 69.12,94.992 72.605594,92.456525 73.746397,92.073686 74.281878,91.893984 75.656,91.074058 76.8,90.251629 77.944,89.4292 79.6,88.302778 80.48,87.748467 81.36,87.19416 82.638646,86.15999 83.321434,85.450317 84.527549,84.196707 84.623485,84.16 86.693629,84.16 c 2.50831,0 4.953913,-1.010355 5.03472,-2.08 0.02659,-0.352 0.522673,-2.006411 0.796625,-3.141362 0.334038,-1.383881 -0.138094,-2.12698 -0.350981,-2.383492 -0.330627,-0.398384 0.255524,-2.170423 1.112791,-3.435146 0.930292,-1.372454 2.247482,-7.223606 2.600176,-13.820992 0.249043,-4.658528 0.488221,-4.976624 2.277238,-3.028666 1.555744,1.693959 2.797352,2.169946 6.384512,2.447588 2.75205,0.213004 3.02919,0.178003 4.15548,-0.524852 2.02486,-1.263606 2.19073,-1.369068 3.32155,-2.111881 2.3298,-1.530413 3.34202,-0.759504 3.09202,2.354909 -0.21464,2.674022 0.14896,3.976278 1.36026,4.871833 0.52909,0.391171 0.96198,0.850909 0.96198,1.021642 0,0.179577 -1.33038,0.310419 -3.15632,0.310419 -1.73598,0 -3.93198,0.153946 -4.88,0.342099 -0.94803,0.188157 -2.02544,0.381914 -2.39426,0.430573 -0.36882,0.04866 -0.81627,0.178512 -0.99434,0.288566 -0.17808,0.110055 -1.17231,0.284538 -2.20943,0.387738 -2.59443,0.258173 -2.9964,0.410928 -3.896639,1.4808 -1.599411,1.90079 -2.332825,3.211075 -2.139065,3.821558 0.257916,0.812621 0.881091,0.766983 2.316914,-0.169683 2.17131,-1.416461 7.36638,-2.889645 11.43314,-3.242134 3.55835,-0.308423 4.15631,-0.307152 9.06575,0.01926 4.76133,0.316566 4.63036,0.190307 5.18524,4.99879 0.34289,2.97136 0.32926,4.308835 -0.0811,7.962429 -0.0765,0.681469 0.0287,0.787798 0.71014,0.717642 0.44,-0.0453 1.09341,-0.441296 1.45202,-0.88 C 128.21063,80.358941 128.7542,80 129.05994,80 c 1.10205,0 1.53623,2.688115 0.74143,4.590349 -0.65117,1.55847 -3.35526,5.196829 -4.1973,5.647475 -0.40349,0.215942 -0.9128,0.727414 -1.13179,1.136605 -0.21899,0.40919 -2.05513,2.229341 -4.0803,4.044777 -2.02517,1.815437 -4.13781,3.776327 -4.69476,4.357533 -0.55694,0.581201 -1.39709,1.308941 -1.86698,1.617181 -0.4699,0.30825 -1.70832,1.38072 -2.75206,2.38327 -1.04374,1.00254 -2.03743,1.82281 -2.20822,1.82281 -0.17078,0 -0.86839,0.65427 -1.55024,1.45393 -1.87748,2.20189 -6.53432,5.88755 -7.801336,6.17436 -2.713706,0.61431 -5.46295,0.81232 -6.398384,0.46082 z m 4.96,-11.81823 c 1.408,-0.44678 3.0492,-1.0486 3.64711,-1.33737 0.59791,-0.28877 1.46191,-0.49457 1.92,-0.45733 l 0.83289,0.0677 -0.84611,-0.32731 c -0.70708,-0.273527 -1.39064,-0.107527 -4.159999,1.01024 -2.440793,0.98515 -3.798182,1.34752 -5.152041,1.37537 -1.801008,0.0371 -2.39352,0.32376 -1.28185,0.62025 0.815235,0.21744 2.150563,-0.0347 5.04,-0.95155 z m 3.01656,-8.254637 c 0.93565,-0.648409 1.41406,-1.320697 1.93935,-2.725305 0.38351,-1.025511 0.63866,-2.203498 0.567,-2.617751 -0.15094,-0.872445 -0.23772,-0.703664 -1.07299,2.086906 -0.9899,3.307161 -2.905379,4.318579 -6.36992,3.363465 -0.822982,-0.226883 -1.822707,-0.908355 -2.8,-1.908643 -1.595258,-1.632797 -2.025334,-1.595577 -0.8,0.06923 0.714272,0.970451 1.753178,1.67104 3.6,2.427674 1.432173,0.586755 3.508275,0.294224 4.93656,-0.695578 z m 14.3186,-12.123117 c 2.38177,-1.206937 4.35624,-3.263814 5.58021,-5.813126 0.59151,-1.232 1.05753,-2.42 1.03561,-2.64 -0.0219,-0.22 0.17069,-0.4 0.42804,-0.4 0.25796,0 0.42148,-0.228627 0.36444,-0.509533 -0.0661,-0.325635 -1.14287,-0.855795 -2.98346,-1.468957 -2.68094,-0.893113 -3.11223,-0.947414 -6.24,-0.785638 -1.848,0.09558 -3.648,0.228502 -4,0.29537 -0.352,0.06687 -1.25279,0.230486 -2.00176,0.363596 -0.79668,0.141584 -1.54961,0.510196 -1.81443,0.888279 -0.24897,0.355446 -0.60185,0.554064 -0.78418,0.441376 -0.18233,-0.112688 -0.5704,0.159702 -0.86238,0.605309 -0.29197,0.445609 -0.7255,0.810198 -0.96339,0.810198 -0.23789,0 -0.94133,0.5088 -1.56319,1.130666 -0.62187,0.621868 -1.13287,1.017868 -1.13557,0.88 -0.008,-0.411146 -0.624876,0.674665 -0.630201,1.109334 -0.0026,0.22 0.195491,0.4 0.440411,0.4 0.24492,0 0.53673,0.364269 0.64848,0.809488 0.11174,0.445219 0.55935,1.119187 0.99469,1.497706 0.43533,0.378521 0.79152,0.864166 0.79152,1.079209 0,0.445706 1.11184,0.895747 4.32,1.748621 3.04518,0.809542 6.238,0.641082 8.37516,-0.441898 z"
         id="path178"
         inkscape:label="skin"
         sodipodi:nodetypes="ssssssssssssssssssssssssssssssssssssscssssssssssssssssscsscssssssssssssssssssssssssssccssssss" />
      <path
         id="path172"
         style="display:inline;fill:#3e190f;stroke-width:0.32"
         inkscape:label="eye2"
         d="M 108.88086,72.992188 108,73.023438 l 0.80078,0.255859 c 0.44,0.140912 0.83491,0.271522 0.87891,0.289062 0.044,0.01754 0.0801,-0.113062 0.0801,-0.289062 0,-0.176 -0.39491,-0.304649 -0.87891,-0.287109 z m 4.00005,0.466695 c -0.27439,0 -0.71696,0.347584 -0.71696,0.523584 0,0.176 0.3228,0.398493 0.48841,0.398493 0.16562,0 0.87401,-0.316311 0.98278,-0.492311 0.10877,-0.176 -0.47985,-0.429766 -0.75423,-0.429766 z m -0.10945,3.461039 c -0.30339,0.03141 -0.65177,0.590956 -0.4708,1.062534 0.0981,0.255571 0.62337,0.527389 0.8049,0.527389 0.41119,0 0.28233,-1.284631 -0.12316,-1.535236 -0.0504,-0.03118 -0.10047,-0.04934 -0.14844,-0.05469 -0.021,-0.0023 -0.0423,-0.0021 -0.0625,0 z m -5.4121,1.585937 c -0.23045,0 -0.68801,0.271248 -0.59791,0.505916 0.0901,0.234666 0.46943,0.59778 0.51973,0.59778 0.0503,0 0.47852,-0.37875 0.56857,-0.613416 0.0901,-0.234668 -0.25994,-0.49028 -0.49039,-0.49028 z m 3.11328,0.240235 c -0.11105,0.0094 -0.50653,0.06998 -0.76189,0.167968 -0.27839,0.106829 -0.27132,0.323298 -0.27132,0.480469 0,0.157168 0.35654,0.285157 0.79102,0.285157 0.57076,0 0.97308,-0.133697 0.84001,-0.480469 -0.10506,-0.273777 -0.30942,-0.534118 -0.20503,-0.586039 0.26939,-0.133991 -0.35579,0.129726 -0.39279,0.132926 z"
         sodipodi:nodetypes="cccssscssssssssscssssscsssssssss" />
      <path
         style="display:inline;fill:#342216;stroke-width:0.32"
         d="m 108.77784,80.579741 c -0.53697,-0.326554 -1.11166,-0.510087 -1.27708,-0.40785 -0.37551,0.232074 -0.37712,0.07061 -0.009,-0.897725 0.21337,-0.561206 0.18217,-0.7675 -0.11609,-0.7675 -0.23799,0 -0.34399,0.244371 -0.25448,0.586668 0.0844,0.322666 0.0101,0.586666 -0.16509,0.586666 -0.55378,0 -1.09313,-1.805587 -0.97068,-3.249584 0.10875,-1.282496 0.18212,-1.382845 0.94526,-1.292883 0.93367,0.110067 1.33484,-0.525536 1.04943,-1.662685 -0.13829,-0.551005 0.0115,-0.801226 0.65534,-1.09457 1.05669,-0.481456 1.63086,-0.472918 3.12204,0.04644 2.25882,0.78671 4.03895,3.2088 3.62667,4.934553 -0.11546,0.483303 -0.22814,1.0524 -0.2504,1.264656 -0.0222,0.212259 -0.16047,0.31176 -0.30713,0.221114 -0.14667,-0.09064 -0.26887,-0.04831 -0.27157,0.09408 -0.003,0.142387 -0.13363,0.46224 -0.29096,0.710784 -0.24379,0.385126 -0.35902,0.378937 -0.77986,-0.0419 -0.27159,-0.271594 -0.42976,-0.557844 -0.35149,-0.636119 0.0783,-0.07827 -0.28385,-0.07977 -0.80471,-0.0033 -0.91352,0.134074 -1.41586,0.825325 -1.21913,1.677587 0.14407,0.624122 -1.2601,0.582916 -2.33111,-0.0684 z M 110.93333,79.2 c 0,-0.522672 -0.21078,-0.58369 -0.98716,-0.285763 -0.75857,0.291091 -0.6095,0.765763 0.2405,0.765763 0.45037,0 0.74666,-0.190477 0.74666,-0.48 z m 0.29425,-1.044899 c 0.19118,-0.129306 0.50435,-0.693546 0.69596,-1.253866 0.2865,-0.837862 0.25319,-1.127289 -0.18759,-1.629913 -0.6708,-0.764919 -1.21568,-0.592119 -1.82042,0.577318 -0.57136,1.104886 -0.11661,2.541558 0.80447,2.541558 0.088,0 0.31641,-0.105792 0.50758,-0.235097 z M 113.28,77.778886 c 0,-0.730998 -0.50452,-1.136985 -0.80624,-0.64878 -0.26882,0.43494 0.0443,1.269894 0.4762,1.269894 0.18152,0 0.33004,-0.279501 0.33004,-0.621114 z m 0,-3.858886 c 0.38815,-0.250838 0.34222,-0.311136 -0.24,-0.315101 -0.396,-0.0027 -0.72,0.139101 -0.72,0.315101 0,0.400934 0.3396,0.400934 0.96,0 z m -3.52,-0.64 c 0,-0.176 -0.396,-0.305645 -0.88,-0.288102 l -0.88,0.0319 0.8,0.256198 c 0.44,0.140912 0.836,0.27056 0.88,0.288102 0.044,0.01754 0.08,-0.112102 0.08,-0.288102 z"
         id="path174"
         inkscape:label="eye1" />
      <path
         id="path278"
         style="display:inline;fill:#3e190f;stroke-width:0.32"
         inkscape:label="hair1"
         d="m 121.95898,8.3730469 c -0.17954,0.053971 -0.48228,0.2975391 -0.77343,0.6386719 -0.72481,0.8492145 -2.94575,1.8691402 -4.07227,1.8691402 -0.34844,0 -0.63281,0.14236 -0.63281,0.31836 0,0.175998 -0.10824,0.293315 -0.24024,0.259765 -0.32769,-0.08329 -4.75345,0.668029 -6.27148,1.064454 -0.67741,0.176896 -2.98251,0.282658 -5.12109,0.236328 -3.47173,-0.07521 -4.02512,-0.01015 -5.167972,0.607422 -1.456665,0.787151 -5.480533,4.471282 -5.359376,4.90625 0.044,0.157962 -0.06423,0.287109 -0.240234,0.287109 -0.176,0 -0.320312,0.214516 -0.320312,0.478515 0,0.264 -0.144313,0.480469 -0.320313,0.480469 -0.176,0 -0.320312,0.288626 -0.320312,0.640625 0,0.352 -0.106282,0.604547 -0.238282,0.560547 -0.131999,-0.044 -0.265077,0.0345 -0.294921,0.175781 -0.02984,0.141279 -0.252795,0.574217 -0.496094,0.960938 -0.768927,1.222201 -1.305025,3.344016 -1.101563,4.361328 0.107935,0.539641 0.07031,0.980469 -0.08203,0.980469 -0.884898,0 -0.179613,-5.646717 0.832031,-6.66211 0.628019,-0.630351 0.51582,-0.789746 -0.427734,-0.609375 -0.582621,0.111374 -1.660585,-0.237395 -3.439453,-1.111328 l -2.591797,-1.273437 -4.318359,0.166015 c -4.590454,0.174668 -7.237705,0.606072 -8.800782,1.435547 -1.367256,0.725561 -5.010479,3.007847 -5.708984,3.576172 -1.083324,0.881428 -4.4561,4.446546 -4.816406,5.091797 -0.195616,0.350316 -1.101628,1.740003 -2.013672,3.087891 -0.912041,1.347886 -2.113193,3.6221 -2.669922,5.054687 -0.556726,1.432588 -1.128063,2.892141 -1.269531,3.244141 -0.59633,1.483774 -0.977385,2.601015 -1.09375,3.201172 -0.06825,0.351999 -0.344559,1.504548 -0.613282,2.560547 -0.268723,1.055998 -0.792698,4.006596 -1.164062,6.558593 -1.275176,8.76298 -1.546909,9.934851 -2.923828,12.611328 -0.715872,1.391522 -1.791647,3.047212 -2.390625,3.679688 -1.20711,1.27462 -0.924145,1.598756 0.90625,1.041015 5.29552,-1.613604 6.657761,-2.100465 7.167968,-2.5625 0.897289,-0.812565 2.386879,-1.718593 2.552735,-1.552734 0.225136,0.225133 -3.154746,3.10007 -3.882813,3.302734 -0.351999,0.09798 -0.999453,0.628007 -1.439453,1.177735 -0.673989,0.842069 -0.799526,1.329476 -0.789062,3.091797 0.0074,1.248735 0.225028,2.54234 0.539062,3.210937 0.289328,0.616 0.840745,2.271689 1.22461,3.679688 0.383862,1.407998 0.914385,2.983504 1.179687,3.5 0.364859,0.710306 0.432002,1.489101 0.275391,3.199219 -0.113879,1.243502 -0.224174,2.478187 -0.246094,2.742187 -0.02192,0.264 -0.307283,0.822454 -0.632813,1.242187 -0.325529,0.419735 -0.591796,0.93972 -0.591796,1.15625 0,0.216531 -0.308338,0.786074 -0.685547,1.265626 l -0.685547,0.873046 1.884766,-0.232422 c 1.037211,-0.127724 2.031031,-0.252223 2.207031,-0.277343 0.176,-0.02513 1.184235,-0.740177 2.240234,-1.587891 1.055999,-0.847714 2.515815,-1.815611 3.244141,-2.15039 1.705621,-0.784007 1.875643,-1.623538 1.263672,-6.240235 -0.687635,-5.187512 -0.793246,-6.340328 -1.3125,-14.351562 -0.590596,-9.111537 -0.591492,-11.903108 -0.002,-14.685547 1.118406,-5.27851 4.176207,-10.677336 7.957032,-14.052735 2.060482,-1.839531 2.032389,-0.675849 -0.03711,1.546875 -1.836273,1.972235 -2.953125,3.289724 -2.953125,3.482422 0,0.07885 -0.342713,0.645209 -0.759765,1.259766 -0.41705,0.614559 -1.317051,2.60081 -2,4.414062 l -1.240235,3.296875 0.06055,7.361329 c 0.04068,4.845141 0.299367,9.654302 0.75586,14.078124 1.330216,12.890922 1.266563,14.087235 -0.984375,18.357422 -0.522937,0.992043 -0.952805,1.962735 -0.953125,2.15625 -3.75e-4,0.193514 -0.423996,0.981548 -0.941407,1.751954 -0.51741,0.770405 -0.888511,1.451331 -0.826171,1.513671 0.131926,0.131926 1.531847,-0.571811 1.767578,-0.888671 0.088,-0.118285 1.276626,-0.826524 2.640625,-1.574219 1.363998,-0.747692 2.480468,-1.465433 2.480468,-1.59375 0,-0.128314 0.53922,-0.427504 1.199219,-0.666016 0.659999,-0.238512 1.925101,-0.953093 2.810547,-1.585937 1.904916,-1.361477 2.908625,-1.949219 3.324219,-1.949219 0.166784,0 1.35583,-0.791767 2.642578,-1.759766 1.286744,-0.967999 2.523731,-1.761719 2.75,-1.761719 0.226269,0 1.307753,-0.854141 2.402344,-1.90039 2.705232,-2.585761 3.429687,-3.225909 3.429687,-3.025391 0,0.378928 3.221979,-2.912931 4.060547,-4.148437 0.494848,-0.729111 1.12537,-1.575075 1.400391,-1.88086 0.941103,-1.046387 2.569579,-5.566828 3.035156,-8.425781 0.25592,-1.571499 0.611832,-4.873893 0.791015,-7.337891 0.712617,-9.799308 0.919021,-11.015315 2.341797,-13.755859 1.147381,-2.210078 5.820493,-7.205078 6.740233,-7.205078 0.52004,0 0.474,0.12909 -0.32031,0.896484 -4.09255,3.953904 -6.074384,7.259626 -6.714844,11.205079 -0.551167,3.395283 -0.549795,3.259765 -0.0098,3.259765 0.24352,0 0.939885,0.53922 1.548828,1.199219 1.622865,1.758932 2.244956,2.019767 5.646476,2.373047 3.22573,0.335023 5.12828,0.0303 4.64844,-0.746094 -0.156,-0.25241 -0.0577,-0.309421 0.30078,-0.171875 0.29287,0.112384 0.53125,0.065 0.53125,-0.105469 0,-0.170476 0.2831,-0.308593 0.62891,-0.308593 0.34581,-10e-7 0.78329,-0.286541 0.9707,-0.636719 0.4092,-0.764604 1.93629,-1.603516 2.91992,-1.603516 1.5031,0 1.88086,0.809289 1.88086,4.033203 0,2.847757 0.036,3.000517 0.83594,3.550782 0.4597,0.316214 1.43316,1.101835 2.16406,1.746093 0.81624,0.719485 1.82218,1.261121 2.60547,1.402344 3.28099,0.591548 4.5193,2.439851 5.10547,7.621094 0.2338,2.066423 0.30617,4.373769 0.17188,5.486328 -0.12782,1.055999 -0.18782,1.972049 -0.13282,2.037109 0.2079,0.246125 3.21758,-2.188533 3.58008,-2.896484 0.9433,-1.842251 2.38345,-6.973912 2.53516,-9.033203 0.1345,-1.825553 0.009,-2.806634 -0.64063,-5.035157 -0.88002,-3.017538 -1.03296,-3.36314 -2.74609,-6.169921 l -1.1582,-1.896485 v -4.982422 c 0,-4.456151 -0.0779,-5.170875 -0.73047,-6.755859 -0.54998,-1.335839 -1.00796,-1.923248 -1.86133,-2.382813 -1.26311,-0.680232 -1.87403,-1.566045 -1.58984,-2.30664 0.19935,-0.519507 0.12127,-0.575999 3.06054,2.242187 1.81356,1.738844 2.2767,3.606052 2.2168,8.941407 -0.0533,4.752276 0.0792,5.441422 1.43555,7.505859 0.43794,0.6666 1.25016,2.571884 1.80468,4.234375 1.262,3.783576 1.36546,7.068184 0.32422,10.257812 -1.53774,4.710502 -1.76548,5.323543 -2.33593,6.292969 -0.55287,0.939548 -0.55933,1.098938 -0.0996,2.199219 0.85438,2.044842 0.46973,4.350097 -0.98829,5.925781 -0.41605,0.449629 -0.75586,1.000258 -0.75586,1.22461 0,0.224351 -0.82784,1.23583 -1.83984,2.248047 -1.012,1.012215 -2.48925,2.52281 -3.28125,3.355468 -0.792,0.832658 -1.9716,2.039554 -2.62305,2.683594 -0.65144,0.644038 -1.08301,1.246744 -0.95898,1.339844 0.12402,0.0931 1.14272,2.006002 2.26562,4.249996 1.12292,2.244 2.13173,4.07627 2.24024,4.07227 0.37126,-0.0144 3.46419,-4.63087 3.87891,-5.78906 0.32412,-0.905276 0.34182,-1.878858 0.0781,-4.480472 -0.18525,-1.827937 -0.21941,-3.447744 -0.0762,-3.599609 0.45435,-0.481687 0.95508,0.119709 0.95508,1.144531 0,1.110344 0.86578,5.828123 1.25,6.8125 0.89537,2.29391 4.43465,9.22369 4.83008,9.45703 1.02319,0.6038 1.12109,0.2912 1.12109,-3.61719 0,-3.7747 0.0506,-4.07426 1.39062,-8.080074 1.39596,-4.172844 1.72178,-5.02888 2.24805,-5.919922 1.21463,-2.056564 2.59166,-6.942311 2.59766,-9.21875 0.004,-1.491928 -0.56717,-4.206342 -0.98047,-4.664063 -0.14505,-0.160647 -0.44618,-0.09117 -0.69727,0.160157 -1.0706,1.071633 -3.91555,5.755315 -4.73828,7.802734 -0.82033,2.041454 -1.61988,3.106674 -2.02734,2.699219 -0.52898,-0.528986 3.98883,-9.772648 4.96679,-10.16211 0.43935,-0.174963 2.74854,-4.587082 3.44727,-6.58789 1.26557,-3.623933 2.44733,-14.589844 1.57227,-14.589844 -0.23576,0 -0.2352,-0.12246 0.002,-0.408203 0.39023,-0.470201 -0.63457,-3.111328 -1.20703,-3.111328 -0.1846,0 -0.33399,-0.266588 -0.33399,-0.591797 0,-0.795458 -3.61623,-4.207031 -4.45898,-4.207031 -0.51867,0 -0.96125,0.601782 -1.9961,2.71875 -1.27037,2.598752 -1.86523,3.307637 -1.86523,2.220703 0,-0.498425 0.37161,-1.369069 2.80078,-6.541016 0.70264,-1.495999 1.50556,-3.368157 1.78321,-4.160156 0.79556,-2.26938 1.57147,-8.686749 1.3457,-11.128907 -0.24252,-2.623364 -0.79005,-4.871093 -1.1875,-4.871093 -0.1621,0 -0.49268,-0.467063 -0.73438,-1.039063 -0.52211,-1.235564 -3.21672,-4.080078 -3.86523,-4.080078 -0.40341,0 -0.86711,-0.305036 -2.18555,-1.439453 -0.43211,-0.371801 -0.70937,-0.445469 -3.07812,-0.808594 -0.968,-0.148393 -2.33507,-0.363902 -3.03907,-0.480469 -2.39893,-0.39721 -8.95493,-0.46301 -11.35937,-0.113281 -2.32807,0.338623 -4.49972,1.008982 -7.26367,2.242188 -0.73835,0.329429 -1.50482,0.599609 -1.70313,0.599609 -0.49058,0 -3.08259,1.508799 -4.56836,2.658203 -1.425849,1.103057 -1.905696,1.00239 -0.625,-0.130859 1.79599,-1.589211 3.05135,-2.284768 7.19532,-3.990234 3.92624,-1.615869 5.83162,-2.100118 9.80273,-2.486329 1.65885,-0.161331 1.95003,-0.530048 1.95703,-2.476562 0.006,-1.850089 1.17349,-5.624658 1.99414,-6.4453126 0.34281,-0.3427779 0.53233,-0.7118104 0.42188,-0.8222656 -0.0276,-0.027614 -0.073,-0.031662 -0.13282,-0.013672 z m -7.97075,56.8260591 c -2.27107,-1e-5 -4.82311,0.0802 -6.38276,0.404162 -1.62493,0.337522 -3.84049,0.738371 -4.73253,0.738371 -1.46492,0 -1.79167,0.209182 -2.78716,1.293037 -0.606183,0.659999 -0.883648,1.427681 -0.884608,1.552824 -8.42e-4,0.125145 -0.525938,0.574872 -0.900549,0.923873 -0.396054,0.368983 -0.382427,0.780739 -0.271326,1.070268 0.232278,0.6053 0.727528,0.645549 1.074219,0.08594 0.27765,-0.448172 3.900324,-2.141623 4.617184,-2.158203 0.24199,-0.0056 0.71295,-0.215986 1.04688,-0.46875 0.33393,-0.252767 0.71437,-0.39366 0.8457,-0.3125 0.13133,0.08117 0.81219,-0.05524 1.51367,-0.302734 0.70149,-0.247501 2.33751,-0.537328 3.63477,-0.644532 1.29725,-0.107203 3.51923,0.232599 4.13523,0.14294 0.616,-0.08965 2.56375,-0.306143 4.17588,-0.136922 4.32443,0.453945 5.39548,-0.547006 1.73592,-1.242481 -1.08318,-0.205846 -1.99279,-0.880268 -2.09761,-1.039333 -1.93933,-0.02829 -2.93748,0.08331 -4.72291,0.09404 z M 68.419922,95.738281 c -0.05027,-0.130471 -0.580348,0.14525 -1.845703,0.923828 -0.87735,0.53984 -2.211552,1.305734 -2.964844,1.703125 -1.325695,0.699357 -1.37302,0.777693 -1.46875,2.441406 -0.131644,2.28782 0.03345,2.8167 1.453125,4.66406 1.777287,2.31271 2.005859,2.8386 2.005859,4.60547 0,0.88238 0.04812,1.60352 0.107422,1.60352 0.0593,0 0.865654,-1.15051 1.791016,-2.55664 1.625969,-2.47075 2.582031,-4.78418 2.582031,-6.25 0,-0.38818 0.429888,-1.19322 0.955078,-1.78907 0.525187,-0.59585 0.956085,-1.179662 0.958985,-1.296871 0.0028,-0.11721 -0.561431,-0.662895 -1.25586,-1.21289 -0.694428,-0.549997 -1.353456,-1.28216 -1.46289,-1.626953 -0.109434,-0.344794 -0.413257,-0.626954 -0.675782,-0.626954 -0.262531,0 -0.38807,-0.144312 -0.279297,-0.320312 0.08045,-0.130169 0.116365,-0.218228 0.09961,-0.261719 z"
         sodipodi:nodetypes="cssssssssssssssssssscccsssssssssssssssssssssssscccssssccsssscccsscsssssssssssssssssscsssssssssssssssccsscccssssscssssssssssssccccsssscscssssssscssssssssssssssssssssscsscccssscsssssssssssccsssssssssscsssss" />
      <path
         style="display:inline;fill:#404138;stroke-width:0.32"
         d="m 92.320371,114.21887 c -0.527795,-0.15736 -1.103795,-0.47437 -1.28,-0.70446 C 90.864166,113.28432 90,112.68191 89.12,112.17573 c -0.88,-0.50618 -1.680874,-1.0414 -1.779722,-1.18938 -0.09884,-0.14798 -1.342156,-0.83119 -2.762915,-1.51826 -1.420758,-0.68706 -2.680384,-1.40645 -2.799165,-1.59865 -0.118784,-0.19219 -0.425686,-0.34944 -0.682006,-0.34944 -0.5468,0 -3.976192,-2.21833 -3.976192,-2.57203 0,-0.28908 -3.33888,-3.54117 -4.036512,-3.93158 -0.848733,-0.47498 -1.723488,0.65216 -1.723488,2.22074 0,0.93078 -0.194803,1.56371 -0.600294,1.9504 -0.330164,0.31486 -0.69954,0.93247 -0.820839,1.37247 -0.322019,1.16809 -1.521017,3.52 -1.794486,3.52 -0.129251,0 -0.325354,0.36 -0.435786,0.8 -0.110435,0.44 -0.343357,0.8 -0.517603,0.8 -0.17425,0 -0.768864,0.432 -1.321366,0.96 -0.5525,0.528 -1.073783,0.96 -1.158407,0.96 -0.08462,0 -0.05343,-1.15125 0.06931,-2.55834 0.20832,-2.38815 0.184458,-2.54382 -0.358682,-2.34009 -0.484688,0.18181 -0.517084,0.13843 -0.194012,-0.25978 0.313484,-0.38641 0.267478,-0.56479 -0.24,-0.93056 -0.34531,-0.24888 -0.627835,-0.55839 -0.627835,-0.68779 0,-0.1294 -0.432,-0.96795 -0.96,-1.86344 -0.750419,-1.27271 -0.96,-2.00932 -0.96,-3.37408 0,-0.96026 -0.08367,-1.74592 -0.185926,-1.74592 -0.10226,0 -1.170621,0.49418 -2.374135,1.09819 -2.647203,1.32854 -3.250761,0.8804 -1.249421,-0.92769 0.700909,-0.633233 1.191527,-1.28539 1.09026,-1.449242 -0.101268,-0.163853 0.08977,-0.571808 0.424531,-0.906567 0.334758,-0.334758 1.126902,-1.686141 1.76032,-3.003069 0.633417,-1.316928 1.372774,-2.57792 1.643021,-2.802201 C 62.961024,91.507178 63.29647,88.96 62.929165,88.96 c -0.432999,0 -2.279095,1.180182 -3.931149,2.51313 -1.750205,1.412131 -2.216518,1.621804 -4.32,1.942441 -4.012378,0.61161 -4.374576,0.501245 -3.014371,-0.918502 0.874691,-0.912979 1.323795,-1.582935 2.156557,-3.217069 0.257552,-0.505395 0.402236,-2.047107 0.392889,-4.186528 -0.01251,-2.863971 -0.118534,-3.555254 -0.687075,-4.48 C 53.156262,80.012064 52.75087,78.944 52.625142,78.24 52.499418,77.536 52.260435,76.788122 52.094074,76.578048 51.639181,76.003638 50.888112,72.954093 50.883798,71.664 c -0.0022,-0.6248 0.159322,-1.29912 0.358692,-1.49849 0.199369,-0.199369 0.275891,-0.588169 0.170044,-0.864 C 51.198778,68.74447 50.068797,68.620358 49.76,69.12 c -0.108774,0.176 -0.532813,0.32 -0.942307,0.32 -0.409495,0 -1.156995,0.215114 -1.661114,0.478029 C 46.090598,70.473974 44.16,70.559834 44.16,70.051293 c 0,-0.438752 1.305955,-1.546432 1.84,-1.560647 0.22,-0.0059 0.4,-0.149692 0.4,-0.319635 0,-0.169942 0.771363,-1.501942 1.714141,-2.96 2.254064,-3.486032 2.675328,-4.733891 3.271584,-9.691011 0.275209,-2.288 0.645494,-5.168 0.822854,-6.4 0.177363,-1.232 0.391959,-2.816 0.476883,-3.52 0.08492,-0.704 0.350346,-1.712 0.589834,-2.24 0.239488,-0.528 0.724192,-1.896 1.07712,-3.04 0.635949,-2.061408 1.260038,-3.702829 2.147578,-5.648362 C 56.752995,34.11704 56.96,33.50504 56.96,33.311638 56.96,33.118237 57.104,32.96 57.28,32.96 c 0.176,0 0.32,-0.154784 0.32,-0.343965 0,-0.502368 2.748816,-4.669976 3.510074,-5.321783 0.357459,-0.306068 0.649926,-0.74534 0.649926,-0.976161 0,-0.230822 0.509264,-0.720148 1.131696,-1.087392 0.622432,-0.367245 1.346131,-1.082388 1.608218,-1.589208 C 64.762,23.134671 65.188736,22.72 65.448218,22.72 65.707699,22.72 65.92,22.499481 65.92,22.229957 c 0,-0.269524 0.252,-0.583896 0.56,-0.698605 0.308,-0.114708 1.496,-0.813583 2.64,-1.553055 1.144,-0.739472 2.872,-1.594488 3.84,-1.900037 0.968,-0.305548 2.011606,-0.683127 2.319123,-0.839065 0.307517,-0.155938 2.683517,-0.37142 5.28,-0.478848 L 85.28,16.565021 l 2.793763,1.485151 c 3.537239,1.880378 4.607914,1.741913 5.955338,-0.770172 0.533427,-0.9945 4.167593,-4.10989 5.751984,-4.93089 0.980815,-0.508237 1.824185,-0.605689 5.018915,-0.579939 3.92706,0.03165 7.32544,-0.428805 11.68,-1.582558 1.7852,-0.4729935 3.1118,-1.1224434 5.17864,-2.5352488 1.52826,-1.0446487 2.86394,-1.7613511 2.96819,-1.592672 0.10425,0.168679 -0.3836,1.0639491 -1.08412,1.9894889 -1.44925,1.9147885 -2.50872,4.5009779 -2.87745,7.0239149 -0.13889,0.950347 -0.29045,1.871904 -0.33679,2.047904 -0.32004,1.215458 -0.0492,1.352172 2.79153,1.409056 3.26522,0.06538 8.50084,0.877049 9.74411,1.510604 0.47526,0.242187 1.13232,0.44034 1.46013,0.44034 0.63997,0 2.31576,1.559976 2.31576,2.15572 0,0.198385 0.432,0.668311 0.96,1.04428 0.528,0.375969 0.96,0.927136 0.96,1.224815 0,0.297679 0.288,0.721094 0.64,0.940922 0.352,0.219827 0.64,0.59906 0.64,0.842738 0,0.243679 0.19749,0.518838 0.43888,0.611466 0.30022,0.115205 0.56628,1.313948 0.84212,3.794236 0.36644,3.294905 0.33696,4.564194 -0.17342,7.465823 -0.0929,0.528 -0.2177,1.248 -0.27738,1.6 -0.0597,0.352 -0.1269,1.372886 -0.14936,2.268634 -0.0352,1.403475 -0.15057,1.678633 -0.83453,1.990268 -0.54448,0.24808 -0.7308,0.525543 -0.59337,0.883658 0.11017,0.287117 0.0534,0.615498 -0.12611,0.729734 -0.17953,0.11424 -0.42606,0.667072 -0.54784,1.228519 -0.19474,0.89783 -0.11284,1.079203 0.6798,1.505459 1.80958,0.973136 4.59053,3.975526 5.43388,5.866579 0.80585,1.806938 0.8203,1.965575 0.66388,7.287149 -0.13523,4.60088 -0.29557,5.943462 -1.03949,8.703952 -0.48377,1.795171 -1.14902,3.553152 -1.47832,3.906618 -0.77632,0.833283 -0.75975,2.271104 0.0466,4.041094 0.93327,2.048659 1.1053,3.990826 0.63209,7.13591 -0.29235,1.943028 -0.78515,3.533674 -1.64728,5.317044 -0.67657,1.399542 -1.23013,2.675616 -1.23013,2.835721 0,0.160109 -0.49167,1.607031 -1.09261,3.215383 -1.97625,5.289258 -2.21826,7.843938 -1.285,13.564278 0.1962,1.20258 0.15116,1.36 -0.38905,1.36 -1.4057,0 -3.66578,-2.10611 -4.77025,-4.44525 -2.37681,-5.03382 -3.17273,-6.43475 -3.65584,-6.43475 -0.50854,0 -2.23345,2.55473 -2.86279,4.24 -0.18074,0.484 -0.47618,0.88 -0.65654,0.88 -0.18036,0 -0.32792,0.1909 -0.32792,0.42422 0,0.61878 -1.38995,1.82502 -1.79879,1.56105 -0.27414,-0.177 -0.79344,-2.02891 -0.82589,-2.94527 -0.003,-0.088 -0.25103,-0.52 -0.55091,-0.96 -0.29989,-0.44 -1.11206,-2.05868 -1.80483,-3.59705 -0.69277,-1.538384 -1.33973,-2.798384 -1.43769,-2.800003 -0.098,-0.0016 -0.88996,0.6632 -1.76,1.477376 -0.87004,0.814177 -2.15789,1.930177 -2.86189,2.479997 -1.30854,1.02197 -2.34413,1.9519 -7.17134,6.43968 -4.43378,4.12201 -5.71,5.08794 -7.478862,5.66045 -1.805619,0.58441 -5.83526,0.71373 -7.429427,0.23842 z M 97.28,113.62644 c 0.968,-0.15942 1.975274,-0.33858 2.238384,-0.39815 1.267016,-0.28681 5.923856,-3.97247 7.801336,-6.17436 0.68185,-0.79966 1.37946,-1.45393 1.55024,-1.45393 0.17079,0 1.16448,-0.82027 2.20822,-1.82281 1.04374,-1.00255 2.28216,-2.07502 2.75206,-2.38327 0.46989,-0.30824 1.31004,-1.03598 1.86698,-1.617181 0.55695,-0.581206 2.66959,-2.542096 4.69476,-4.357533 2.02517,-1.815436 3.86131,-3.635587 4.0803,-4.044777 0.21899,-0.409191 0.7283,-0.920663 1.13179,-1.136605 0.84204,-0.450646 3.54613,-4.089005 4.1973,-5.647475 C 130.59617,82.688115 130.16199,80 129.05994,80 c -0.30574,0 -0.84931,0.358941 -1.20792,0.797642 -0.35861,0.438704 -1.01202,0.834704 -1.45202,0.88 -0.68147,0.07016 -0.78668,-0.03617 -0.71014,-0.717642 0.41039,-3.653594 0.42402,-4.991069 0.0811,-7.962429 -0.55488,-4.808483 -0.42391,-4.682224 -5.18524,-4.99879 -4.90944,-0.326416 -5.5074,-0.327687 -9.06575,-0.01926 -4.06676,0.352489 -9.26183,1.825673 -11.43314,3.242134 -1.435823,0.936666 -2.058998,0.982304 -2.316914,0.169683 -0.19376,-0.610483 0.539654,-1.920768 2.139065,-3.821558 0.900239,-1.069872 1.302209,-1.222627 3.896639,-1.4808 1.03712,-0.1032 2.03135,-0.277683 2.20943,-0.387738 0.17807,-0.110054 0.62552,-0.23991 0.99434,-0.288566 0.36882,-0.04866 1.44623,-0.242416 2.39426,-0.430573 0.94802,-0.188153 3.14402,-0.342099 4.88,-0.342099 1.82594,0 3.15632,-0.130842 3.15632,-0.310419 0,-0.170733 -0.43289,-0.630471 -0.96198,-1.021642 -1.2113,-0.895555 -1.5749,-2.197811 -1.36026,-4.871833 0.25,-3.114413 -0.76222,-3.885322 -3.09202,-2.354909 -1.13082,0.742813 -1.29669,0.848275 -3.32155,2.111881 -1.12629,0.702855 -1.40343,0.737856 -4.15548,0.524852 -3.58716,-0.277642 -4.828768,-0.753629 -6.384512,-2.447588 -1.789017,-1.947958 -2.028195,-1.629862 -2.277238,3.028666 -0.199568,3.733046 -0.918851,9.819405 -1.384048,11.711402 -0.112186,0.456275 -0.597744,1.62159 -1.079011,2.58959 -1.133117,2.279088 -1.36704,3.098486 -0.956919,3.351955 0.183162,0.1132 0.333018,0.358951 0.333018,0.546112 0,0.209559 -0.190752,0.181987 -0.496509,-0.07177 -0.422563,-0.350698 -0.646374,-0.225479 -1.502816,0.840816 -0.553469,0.689085 -1.912861,2.178064 -3.02087,3.308838 -1.10801,1.130775 -1.956941,2.113578 -1.886512,2.184003 0.335744,0.335748 3.214771,-0.401043 4.212326,-1.078003 1.239395,-0.841078 1.852871,-0.974435 1.665059,-0.361955 -0.27352,0.89199 -2.889334,1.84 -5.077049,1.84 -2.070144,0 -2.16608,0.03671 -3.372195,1.290317 C 82.638646,86.15999 81.36,87.19416 80.48,87.748467 79.6,88.302778 77.944,89.4292 76.8,90.251629 75.656,91.074058 74.281878,91.893984 73.746397,92.073686 72.605594,92.456525 69.12,94.992 69.12,95.438995 c 0,0.168771 0.972,1.290874 2.16,2.493565 1.188,1.202688 3.455622,3.50108 5.039162,5.10755 1.583536,1.60647 3.199766,3.09163 3.591622,3.30037 0.391853,0.20874 2.294838,1.19681 4.228861,2.19571 1.934019,0.99891 3.701789,1.97294 3.928377,2.16451 0.771616,0.65238 2.811978,1.92062 2.811978,1.74787 0,-0.0947 0.396,0.10512 0.88,0.44401 1.573862,1.102 2.520486,1.22785 5.52,0.73386 z m -4.24,-10.80401 c -1.11167,-0.29649 -0.519158,-0.58319 1.28185,-0.62025 1.353859,-0.0278 2.711248,-0.39022 5.152041,-1.37537 2.769359,-1.117767 3.452919,-1.283767 4.159999,-1.01024 l 0.84611,0.32731 -0.83289,-0.0677 c -0.45809,-0.0372 -1.32209,0.16856 -1.92,0.45733 -1.3482,0.65113 -5.873577,2.09958 -7.16711,2.29399 -0.528,0.0794 -1.212,0.0771 -1.52,-0.005 z m 3.12,-8.510609 c -1.846822,-0.756634 -2.885728,-1.457223 -3.6,-2.427674 -1.225334,-1.664809 -0.795258,-1.702029 0.8,-0.06923 0.977293,1.000288 1.977018,1.68176 2.8,1.908643 3.464541,0.955114 5.38002,-0.0563 6.36992,-3.363465 0.83527,-2.79057 0.92205,-2.959351 1.07299,-2.086906 0.0717,0.414253 -0.18349,1.59224 -0.567,2.617751 -0.52529,1.404608 -1.0037,2.076896 -1.93935,2.725305 -1.428285,0.989802 -3.504387,1.282333 -4.93656,0.695578 z m 10.88,-12.376797 c -2.90466,-0.772189 -4.32,-1.297485 -4.32,-1.603344 0,-0.135139 0.82537,0.02659 1.83415,0.359379 2.5041,0.826109 4.24585,1.084483 4.24585,0.62984 0,-0.198496 -0.108,-0.343846 -0.24,-0.323005 -1.24219,0.196135 -2.86088,-1.558387 -3.13709,-3.400339 -0.29987,-1.999677 0.0516,-3.108326 1.3913,-4.388653 2.02613,-1.936329 3.00719,-2.198921 5.23819,-1.402054 1.35759,0.484906 3.10412,1.783123 3.12989,2.326486 0.01,0.205332 0.17587,0.426055 0.36918,0.49049 0.19331,0.06444 0.42723,0.789219 0.51981,1.610624 0.13828,1.226816 0.0173,1.751219 -0.67768,2.937082 -0.46531,0.793987 -1.09522,1.588828 -1.3998,1.76631 -0.30459,0.177485 -0.39033,0.327078 -0.19054,0.332429 1.54838,0.04148 5.25217,-3.066666 6.14982,-5.16081 0.32971,-0.769187 0.83515,-1.594115 1.1232,-1.833174 1.53856,-1.276893 -0.88955,3.38591 -2.61869,5.028781 -3.14892,2.991817 -6.84978,3.844284 -11.41759,2.629958 z m 6.30988,-1.54721 c 0.49002,-0.289459 0.97312,-0.785222 1.07357,-1.101699 0.10044,-0.316473 0.29226,-0.507651 0.42626,-0.424838 0.13399,0.08281 0.26184,-0.0231 0.28409,-0.235354 0.0222,-0.212256 0.13703,-0.792313 0.25505,-1.289011 0.30522,-1.284522 -1.1356,-3.980643 -1.88106,-3.519923 -0.17971,0.111069 -0.2301,0.04564 -0.11201,-0.145434 0.25068,-0.405613 -0.16894,-0.714777 -1.71578,-1.264147 -1.40724,-0.499789 -1.99563,-0.50503 -3.04451,-0.02714 -0.64382,0.293344 -0.79363,0.543565 -0.65534,1.09457 0.0986,0.392864 0.092,0.941737 -0.0147,1.219724 -0.22312,0.581437 -1.40548,0.69256 -1.40548,0.132093 0,-0.952477 -0.43104,0.20144 -0.56075,1.501149 -0.16573,1.66072 0.43435,3.469162 1.07018,3.225168 0.27829,-0.106787 0.35177,0.01213 0.21989,0.355808 -0.127,0.330944 -0.0706,0.437427 0.15706,0.296707 0.19533,-0.12072 0.79801,0.04984 1.3393,0.379015 1.15854,0.70455 3.18646,0.617155 4.5642,-0.196698 z m -3.13322,-2.232713 c -0.64743,-0.443322 -0.77184,-1.396211 -0.30113,-2.306461 0.60474,-1.169437 1.14962,-1.342237 1.82042,-0.577318 0.44078,0.502624 0.47409,0.792051 0.18759,1.629913 -0.3152,0.921751 -0.77368,1.488963 -1.20354,1.488963 -0.088,0 -0.3145,-0.105792 -0.50334,-0.235097 z M 107.52,74.061114 c 0,-0.274388 -0.144,-0.409888 -0.32,-0.301114 -0.176,0.108774 -0.32,0.333274 -0.32,0.498886 0,0.165613 0.144,0.301114 0.32,0.301114 0.176,0 0.32,-0.224499 0.32,-0.498886 z m -7.675101,2.398755 c 0.0051,-0.473879 0.621441,-1.617456 0.630201,-1.169203 0.003,0.137868 0.5137,-0.258132 1.13557,-0.88 0.62186,-0.621866 1.3253,-1.130666 1.56319,-1.130666 0.23789,0 0.67142,-0.364589 0.96339,-0.810198 0.29198,-0.445607 0.68005,-0.717997 0.86238,-0.605309 0.18233,0.112688 0.53521,-0.08593 0.78418,-0.441376 0.26482,-0.378083 1.01775,-0.746695 1.81443,-0.888279 0.74897,-0.13311 1.64976,-0.296726 2.00176,-0.363596 0.352,-0.06687 2.152,-0.199786 4,-0.29537 3.12777,-0.161776 3.55906,-0.107475 6.24,0.785638 1.84059,0.613162 2.91734,1.143322 2.98346,1.468957 0.14534,0.715738 -0.38746,0.646048 -3.64343,-0.476553 -2.76251,-0.952461 -2.99035,-0.979312 -6.68217,-0.787485 -2.75529,0.143168 -4.21713,0.373321 -5.23722,0.824557 -1.5205,0.672585 -5.10503,3.093424 -6.54064,4.417267 -0.59861,0.552006 -0.878432,0.664438 -0.875101,0.351616 z M 67.498115,109.1234 c 1.625971,-2.47075 2.581885,-4.78507 2.581885,-6.25089 0,-0.38818 0.429699,-1.1933 0.95489,-1.78915 0.525187,-0.59585 0.957187,-1.179261 0.96,-1.29647 0.0029,-0.11721 -0.563056,-0.663108 -1.257485,-1.213104 C 70.042976,98.023789 69.385274,97.29169 69.27584,96.946896 69.166406,96.602102 68.862077,96.32 68.599552,96.32 68.337024,96.32 68.211226,96.176 68.32,96 c 0.321795,-0.520675 -0.05843,-0.376579 -1.745571,0.661526 -0.877351,0.53984 -2.211514,1.306669 -2.964807,1.704061 -1.325696,0.699357 -1.372793,0.777658 -1.468528,2.441373 -0.131644,2.28782 0.03282,2.81582 1.452487,4.66318 1.777289,2.31271 2.006419,2.83865 2.006419,4.60552 0,0.88238 0.04852,1.60434 0.107818,1.60434 0.0593,0 0.864934,-1.15047 1.790297,-2.5566 z M 136.48,105.84 c 0,-3.77471 0.0516,-4.07418 1.39166,-8.08 1.39595,-4.172848 1.72093,-5.028957 2.24719,-5.92 1.21464,-2.056566 2.59113,-6.941856 2.59737,-9.218298 0.004,-1.491929 -0.56586,-4.207408 -0.97915,-4.665129 -0.14506,-0.160647 -0.44784,-0.09133 -0.69893,0.16 -1.07059,1.071635 -3.9141,5.756006 -4.73683,7.803427 -0.82034,2.041456 -1.62099,3.106992 -2.02844,2.699536 -0.52899,-0.528986 3.99034,-9.773597 4.96831,-10.163059 0.43935,-0.174963 2.74736,-4.587379 3.4461,-6.588189 1.26557,-3.623936 2.44703,-14.588288 1.57195,-14.588288 -0.23575,0 -0.23514,-0.12345 0.002,-0.409194 C 144.65147,56.400605 143.6281,53.76 143.05564,53.76 c -0.1846,0 -0.33564,-0.26608 -0.33564,-0.59129 0,-0.795459 -3.61616,-4.20871 -4.45891,-4.20871 -0.51867,0 -0.96121,0.60303 -1.99606,2.72 -1.27038,2.598755 -1.86503,3.306429 -1.86503,2.219494 0,-0.498425 0.37233,-1.367542 2.8015,-6.539494 0.70264,-1.496 1.5047,-3.368 1.78235,-4.16 0.79557,-2.269382 1.57188,-8.688502 1.34611,-11.130662 C 140.08744,29.445971 139.53953,27.2 139.14208,27.2 c -0.1621,0 -0.4925,-0.468 -0.7342,-1.04 -0.52211,-1.235565 -3.21703,-4.08 -3.86554,-4.08 -0.40341,0 -0.86723,-0.305582 -2.18567,-1.44 -0.43211,-0.371801 -0.70791,-0.44417 -3.07667,-0.807295 -0.968,-0.148393 -2.336,-0.365177 -3.04,-0.481744 -2.39894,-0.397211 -8.95378,-0.462004 -11.35822,-0.112274 -2.32807,0.338623 -4.50026,1.009143 -7.26422,2.24235 -0.73835,0.32943 -1.50471,0.598963 -1.70302,0.598963 -0.49058,0 -3.08353,1.508003 -4.5693,2.657408 -1.425858,1.103058 -1.906174,1.003159 -0.62547,-0.130091 1.79599,-1.589212 3.0515,-2.285597 7.19547,-3.991065 3.92625,-1.61587 5.83152,-2.098879 9.80263,-2.48509 1.65885,-0.161332 1.95073,-0.530755 1.95723,-2.477271 0.006,-1.850091 1.17435,-5.623336 1.995,-6.4439912 0.34278,-0.3427782 0.53286,-0.7136057 0.42241,-0.8240611 -0.11046,-0.110455 -0.51846,0.1713178 -0.90667,0.6261619 C 120.46103,9.861216 118.24004,10.88 117.11352,10.88 c -0.34844,0 -0.63352,0.144 -0.63352,0.32 0,0.176 -0.108,0.292549 -0.24,0.258998 -0.32769,-0.08329 -4.75361,0.66759 -6.27164,1.064015 -0.67741,0.176901 -2.98141,0.283734 -5.12,0.237407 -3.47173,-0.07521 -4.02551,-0.01012 -5.16836,0.607453 -1.456666,0.787152 -5.481158,4.469954 -5.36,4.904922 0.044,0.157963 -0.064,0.287205 -0.24,0.287205 -0.176,0 -0.32,0.216 -0.32,0.48 0,0.264 -0.144,0.48 -0.32,0.48 -0.176,0 -0.32,0.288 -0.32,0.64 0,0.352 -0.108,0.604 -0.24,0.56 -0.132,-0.044 -0.264413,0.03559 -0.294253,0.176871 -0.02982,0.141279 -0.253312,0.573279 -0.496611,0.96 -0.768928,1.222202 -1.304832,3.344649 -1.10137,4.361962 0.10793,0.539642 0.07159,0.981167 -0.08075,0.981167 -0.884899,0 -0.179952,-5.647463 0.831693,-6.662857 0.628019,-0.630347 0.516147,-0.789884 -0.427408,-0.609512 -0.582621,0.111374 -1.66113,-0.236892 -3.44,-1.110826 L 85.28,17.54374 80.96,17.708117 c -4.590458,0.174668 -7.236922,0.606523 -8.8,1.435999 -1.367258,0.725561 -5.010595,3.007558 -5.709101,3.575884 -1.083325,0.881429 -4.454925,4.446981 -4.815232,5.092233 -0.195616,0.350316 -1.101881,1.739756 -2.013926,3.087645 -0.912042,1.347888 -2.11376,3.622826 -2.67049,5.055415 C 56.394525,37.387882 55.823274,38.848 55.681805,39.2 c -0.59633,1.483776 -0.978016,2.599843 -1.094381,3.2 -0.06825,0.352 -0.343955,1.504 -0.612678,2.56 -0.268724,1.056 -0.792432,4.008 -1.163796,6.56 -1.275177,8.762989 -1.546563,9.933565 -2.923484,12.610045 -0.715872,1.391523 -1.791658,3.047523 -2.390637,3.68 -1.207111,1.274621 -0.924637,1.59951 0.90576,1.041769 5.295526,-1.613606 6.656909,-2.10032 7.167117,-2.562355 0.897289,-0.812566 2.387414,-1.719008 2.55327,-1.553149 0.225136,0.225133 -3.154909,3.100244 -3.882976,3.302909 -0.352,0.09798 -1,0.627927 -1.44,1.177655 -0.67399,0.84207 -0.798045,1.328992 -0.787584,3.091315 0.0074,1.248736 0.224435,2.543213 0.53847,3.211811 0.289328,0.616 0.840119,2.272 1.223984,3.68 0.383863,1.408 0.914999,2.982586 1.180301,3.499082 0.364855,0.710307 0.43193,1.489881 0.275319,3.2 C 55.116611,87.142586 55.005507,88.376 54.98359,88.64 54.96167,88.904 54.677402,89.463421 54.351872,89.883155 54.026342,90.30289 53.76,90.823469 53.76,91.04 c 0,0.216531 -0.30863,0.786048 -0.685843,1.2656 l -0.685843,0.871907 1.885843,-0.232224 C 55.31137,92.817558 56.304,92.692499 56.48,92.667373 c 0.176,-0.02512 1.184,-0.739271 2.24,-1.586986 1.056,-0.847715 2.515901,-1.815213 3.244227,-2.149993 1.705623,-0.784007 1.875859,-1.624669 1.263888,-6.24137 -0.687635,-5.187517 -0.792989,-6.339686 -1.312243,-14.350928 -0.590573,-9.111546 -0.590816,-11.903152 -0.0013,-14.685594 1.118406,-5.278515 4.174701,-10.6771 7.95553,-14.052502 2.060483,-1.839533 2.03312,-0.676906 -0.03638,1.545821 C 67.997469,43.118058 66.88,44.435526 66.88,44.628224 c 0,0.07884 -0.341222,0.646176 -0.758275,1.260733 -0.41705,0.61456 -1.31705,2.600957 -2,4.414211 L 62.88,53.6 l 0.06179,7.36 c 0.04068,4.845146 0.298729,9.656173 0.755222,14.08 1.330218,12.890934 1.266096,14.08609 -0.984845,18.356282 -0.522937,0.992044 -0.951104,1.962048 -0.951481,2.155564 -3.2e-4,0.193514 -0.424023,0.98218 -0.941434,1.752586 -0.517411,0.770406 -0.889744,1.451744 -0.827405,1.51408 0.131927,0.131926 1.532423,-0.572528 1.768154,-0.889389 0.088,-0.118285 1.276,-0.826813 2.64,-1.574509 1.364,-0.747692 2.48,-1.464428 2.48,-1.592745 0,-0.128314 0.54,-0.428445 1.2,-0.666957 0.66,-0.238512 1.924454,-0.95144 2.809901,-1.584285 C 72.794819,91.149149 73.798963,90.56 74.214557,90.56 c 0.166784,0 1.356032,-0.792 2.642781,-1.76 1.286745,-0.968 2.524665,-1.76 2.750934,-1.76 0.226269,0 1.30697,-0.856022 2.401562,-1.902272 C 84.715069,82.551965 85.44,81.912781 85.44,82.113299 c 0,0.378928 3.221744,-2.912134 4.060278,-4.147641 0.494848,-0.729111 1.124736,-1.575847 1.399757,-1.881632 0.941104,-1.046388 2.56969,-5.567796 3.035267,-8.426752 C 94.191222,66.085773 94.547216,62.784 94.7264,60.32 95.439018,50.520682 95.64593,49.305606 97.068707,46.565059 98.21609,44.354979 102.88797,39.36 103.80771,39.36 c 0.52003,0 0.47406,0.128643 -0.32025,0.896038 -4.092558,3.953908 -6.073559,7.260173 -6.71402,11.205629 C 96.222288,54.856954 96.222736,54.72 96.76277,54.72 c 0.24352,0 0.940992,0.54 1.549936,1.2 1.622867,1.758934 2.244124,2.020109 5.645654,2.373389 3.22573,0.335024 5.12824,0.02922 4.6484,-0.747171 -0.156,-0.252407 -0.0577,-0.308186 0.30075,-0.17064 0.29287,0.112384 0.53249,0.06485 0.53249,-0.10562 0,-0.170476 0.28293,-0.309958 0.62874,-0.309958 0.34581,0 0.78208,-0.286509 0.96949,-0.636688 0.4092,-0.764605 1.93704,-1.603312 2.92068,-1.603312 1.5031,0 1.88109,0.810739 1.88109,4.034656 0,2.84776 0.0359,3.000141 0.83583,3.550406 0.4597,0.316215 1.43383,1.102058 2.16473,1.746317 0.81624,0.719485 1.82089,1.260083 2.60418,1.401306 3.28099,0.591549 4.51921,2.439933 5.10538,7.621181 0.23378,2.066425 0.30599,4.373574 0.1717,5.486134 -0.12746,1.056 -0.18678,1.973232 -0.13182,2.038294 0.2079,0.246125 3.21658,-2.189852 3.57908,-2.897804 0.9433,-1.842253 2.38358,-6.973965 2.53529,-9.033258 0.1345,-1.825555 0.01,-2.806403 -0.64012,-5.034928 -0.88002,-3.017542 -1.03347,-3.362202 -2.7466,-6.168986 L 128.16,55.566637 v -4.983319 c 0,-4.456156 -0.0772,-5.170822 -0.72977,-6.755808 -0.54998,-1.33584 -1.0087,-1.92271 -1.86207,-2.382275 -1.26311,-0.680233 -1.87319,-1.565721 -1.589,-2.306317 0.19935,-0.519507 0.12156,-0.576486 3.06084,2.241703 1.81356,1.738845 2.27643,3.605968 2.21656,8.941328 -0.0533,4.752281 0.0784,5.441609 1.43474,7.506048 0.43794,0.666601 1.24996,2.572224 1.80448,4.234717 1.262,3.78358 1.36597,7.067654 0.32473,10.257286 -1.53774,4.710506 -1.76525,5.323472 -2.33571,6.292899 -0.55287,0.939549 -0.56014,1.098797 -0.10042,2.199079 0.85439,2.044844 0.4701,4.349846 -0.98792,5.925532 -0.41605,0.449629 -0.75646,1.001072 -0.75646,1.225424 0,0.224352 -0.828,1.236093 -1.84,2.248311 -1.012,1.012217 -2.488,2.521661 -3.28,3.35432 -0.792,0.832659 -1.973,2.040864 -2.62445,2.684905 -0.65145,0.644039 -1.08298,1.247152 -0.95895,1.340256 0.12402,0.0931 1.14424,2.005274 2.26715,4.249274 1.12292,2.244 2.13045,4.07655 2.23896,4.07234 0.37126,-0.0144 3.46554,-4.63062 3.88026,-5.78881 0.32417,-0.905274 0.34095,-1.878388 0.0772,-4.480004 -0.18528,-1.827939 -0.21967,-3.447779 -0.0764,-3.599644 0.45435,-0.481687 0.95621,0.118249 0.95621,1.143072 0,1.110345 0.86547,5.828668 1.24969,6.813046 0.89537,2.29391 4.43488,9.22394 4.83031,9.45728 1.02318,0.6038 1.12,0.29111 1.12,-3.61728 z M 99.104099,71.266938 c 0.277651,-0.448173 3.899061,-2.140535 4.615921,-2.157114 0.24199,-0.0056 0.71319,-0.216986 1.04712,-0.46975 0.33393,-0.252765 0.7146,-0.393162 0.84593,-0.311997 0.13133,0.08117 0.83487,-0.06273 1.56342,-0.319783 2.32884,-0.82166 7.11926,-1.101888 12.88722,-0.753865 3.52147,0.212473 3.74177,-0.258099 0.43807,-0.935719 -1.04402,-0.214137 -1.98002,-0.513068 -2.08,-0.664291 -0.36156,-0.54687 -7.73629,-0.347846 -10.8162,0.291901 -1.62493,0.337523 -3.68427,0.61368 -4.57631,0.61368 -1.46492,0 -1.72857,0.116144 -2.72406,1.2 -0.606183,0.66 -1.102839,1.30239 -1.10368,1.427533 -9.6e-4,0.125145 -0.308029,0.513085 -0.68264,0.862086 -0.396055,0.368983 -0.601146,0.842938 -0.490045,1.132467 0.232278,0.605303 0.728563,0.644464 1.075254,0.08485 z"
         id="path176"
         inkscape:label="outline" />
    </g>
  </g>
</svg>
