<?xml version="1.0" encoding="UTF-8" standalone="no"?>
<!-- Created with Inkscape (http://www.inkscape.org/) -->

<svg
   version="1.1"
   id="svg9"
   width="192"
   height="288"
   viewBox="0 0 192 288"
   xmlns="http://www.w3.org/2000/svg"
   xmlns:svg="http://www.w3.org/2000/svg">
  <defs
     id="defs13" />
  <g
     id="g15">
    <g
       id="g177"
       transform="translate(4.117482,3.2971133)">
      <path
         style="fill:#ecd8c1;stroke-width:0.32"
         d="m 87.600067,112.49722 c -1.634141,-0.48715 -3.052928,-1.17938 -4.16,-2.02967 -0.924038,-0.70971 -2.685977,-1.74912 -3.915424,-2.30981 -1.229443,-0.56068 -2.773785,-1.50587 -3.431869,-2.10041 -1.125129,-1.01648 -4.878723,-2.98783 -6.652774,-3.49397 -0.44,-0.12553 -1.343078,-0.6549 -2.006842,-1.17637 -0.663763,-0.52148 -1.959763,-1.26027 -2.88,-1.641752 C 62.916659,99.066832 62.269926,98.653434 61.07191,97.52 60.746358,97.212 60.48,97.006064 60.48,97.062365 c 0,0.0563 -0.651101,-0.503971 -1.44689,-1.245043 l -1.446889,-1.347408 0.154278,-2.034957 c 0.08485,-1.119226 0.159952,-2.131879 0.16689,-2.250343 0.0069,-0.11846 0.457376,0.229383 1.000979,0.772986 0.75401,0.754006 1.050557,0.887747 1.250634,0.564016 0.144243,-0.233392 0.147129,-0.653235 0.0064,-0.932982 C 59.147312,88.564634 58.45369,83.52 59.193498,83.52 c 0.172422,0 0.612156,0.585421 0.977184,1.300938 0.917395,1.798246 1.411363,1.470224 1.516441,-1.006999 0.124352,-2.931587 -0.154907,-3.804871 1.323351,-1.925549 0.461413,0.586599 1.09055,0.99161 1.291296,0.99161 0.35991,0 2.761462,3.504992 2.788672,4.282224 1.847469,1.137348 4.290823,1.867691 6.422782,1.888995 2.410685,-0.0019 4.925637,-0.233942 4.82453,-0.664992 -0.05365,-0.22871 0.323539,-1.123987 2.032355,-4.823949 0.517616,-1.120745 0.863341,-2.115494 0.768281,-2.210556 -0.09506,-0.09506 -0.02765,-0.347796 0.149834,-0.561632 0.58865,-0.70928 -4.245638,-2.441974 -6.354091,-2.9474 -2.647729,-0.634699 -5.02616,-0.07218 -5.861954,0.130225 -0.164753,0.0399 -0.886777,0.146445 -1.633856,0.262618 -0.747078,0.116169 -2.112557,0.514464 -3.0344,0.885101 -0.92184,0.370633 -1.76944,0.580515 -1.883555,0.4664 -0.333306,-0.333303 0.503229,-4.011693 1.345405,-5.916007 C 64.291597,72.708163 64.64,71.714118 64.64,71.462045 c 0,-0.455389 2.743958,-6.259011 3.358624,-7.103674 0.74401,-1.022406 2.52153,-2.561885 2.776246,-2.404461 0.151562,0.09367 0.188496,0.311197 0.08208,0.483392 -0.299805,0.485095 0.502301,3.413936 0.985763,3.59946 0.654916,0.251315 1.092087,-0.565924 2.202208,-4.116762 0.05502,-0.176 0.326666,-0.824 0.603645,-1.44 0.442352,-0.983782 0.529549,-1.042163 0.71696,-0.48 0.479354,1.437891 2.479367,5.729552 2.824176,6.060176 0.435623,0.417696 1.009559,0.447632 1.383635,0.07217 0.262512,-0.263488 0.305946,-0.57254 0.386231,-2.748121 L 80,62.288438 l 0.733533,0.689117 c 1.090838,1.024791 2.209392,3.339143 3.432701,7.102445 0.600713,1.848 1.221369,3.450579 1.379232,3.561283 0.328988,0.230717 0.07343,3.435923 -0.401322,5.03345 -0.344838,1.160361 -0.389574,3.889865 -0.06356,3.878022 0.10968,-0.004 0.703418,-0.602515 1.319418,-1.33007 0.616,-0.727555 1.227226,-1.807737 1.638538,-2.176198 0.411309,-0.368457 1.30123,-1.617391 1.935566,-2.761391 0.634333,-1.144 1.104838,-2.096037 1.255753,-2.199717 0.150915,-0.103676 0.316648,-0.757747 0.396315,-1.607632 0.167123,-1.782864 1.049441,-2.254979 1.488888,-1.469731 0.730262,1.304902 1.265839,0.178887 2.223417,-2.604361 0.356208,-1.035338 1.267113,-1.947997 1.603856,-2.308394 0.86768,-0.928624 3.439375,-6.402234 3.991375,-8.495261 0.30641,-1.16183 0.47133,-1.466531 0.48523,-0.896518 0.0277,1.13528 1.50216,5.690716 2.08984,6.456656 0.67308,0.877232 1.45101,0.432569 1.45224,-0.830096 0.002,-1.530128 0.94186,-6.66234 1.36162,-7.431229 0.33607,-0.615594 0.37444,-0.58841 0.58489,0.4144 0.12387,0.590265 0.45134,1.598265 0.72771,2.24 0.27637,0.641731 0.92916,2.822787 1.45064,4.846787 1.17776,4.571101 1.56228,4.878217 2.10586,4.878217 0.23664,0 0.92137,-0.593145 1.59168,-2.004726 0.67032,-1.411577 1.34728,-2.645942 1.50437,-2.743027 0.65997,-0.407885 1.30841,2.395824 1.59563,6.899226 0.16313,2.55767 0.34053,4.79431 0.39423,4.97031 0.0576,0.188726 -1.5546,0.470605 -3.93,0.687123 -7.18864,0.655251 -9.09968,1.229149 -10.5446,2.042608 -3.15762,1.777658 -6.113847,4.076365 -6.110904,3.929155 0.0028,-0.142517 0.154106,0.156138 0.357299,0.03056 0.234397,-0.144867 0.282346,-0.0874 0.131171,0.1572 -0.214534,0.347127 0.110228,1.302772 1.189552,3.500362 0.414199,0.843338 1.617431,1.77327 2.749902,2.125296 0.59245,0.18416 0.70241,0.14049 0.49858,-0.198019 -0.21418,-0.355693 -0.16281,-0.354215 0.28387,0.0082 0.39064,0.316918 0.84099,0.601809 0.60321,0.888321 -0.49637,0.598083 1.46288,0.560767 4.73427,0.243657 2.32426,-0.225303 2.97808,-0.199873 4.49387,-1.17193 2.2157,-1.420909 2.25246,-1.468106 3.50976,-4.506608 0.7433,-1.796339 0.93827,-2.601994 0.68983,-2.850439 -0.24845,-0.248444 -0.29062,-0.184625 -0.70207,0.138498 -0.5228,0.410579 -0.39712,0.125724 0.003,-0.384721 0.24155,-0.308 0.41724,-0.125021 0.68459,-0.319236 0.37878,-0.275159 0.39445,-0.226665 0.60082,-0.613334 0.5283,-0.599324 0.29713,-1.037097 0.32,-1.306666 -0.42667,-0.327753 -0.31569,-0.573609 0.12611,-0.559841 1.2241,0.03815 0.48113,1.418699 0.83389,4.101688 0.38135,2.900435 0.58887,3.671587 1.0097,3.752086 0.40365,0.07721 0.32644,-0.367625 0.59338,-1.612309 0.19266,-0.898378 0.63692,-1.75699 0.63692,-2.006136 0,-0.453379 0.93722,-1.115507 1.57896,-1.115507 0.18757,0 0.34104,0.283552 0.34104,0.630112 0,0.346563 0.36,1.732944 0.8,3.080848 0.44,1.347904 0.8,2.931466 0.8,3.51903 0,1.110602 -0.75782,3.081866 -1.55695,4.05001 -0.25423,0.308 -0.36751,0.56 -0.25173,0.56 0.11579,0 -0.3697,0.524195 -1.07886,1.164877 -0.70915,0.640681 -1.226,1.228249 -1.14855,1.305702 0.27174,0.271735 -8.31616,8.810153 -11.37211,11.306583 -1.6985,1.38753 -3.88252,2.87407 -4.85336,3.30342 -0.97085,0.42936 -2.01359,1.15977 -2.317203,1.62315 -1.167504,1.78184 -5.2228,3.38719 -8.461235,3.34952 -0.792,-0.009 -2.555971,-0.34943 -3.919933,-0.75603 z m 0.02049,-8.30624 c 0.619907,-0.74693 2.534586,-1.22191 5.098375,-1.43541 1.831178,-0.15248 2.02708,-0.006 2.02708,-0.37178 0,-0.63534 -2.745972,-0.54182 -4.131016,0.0124 -1.473417,0.58959 -3.845903,1.79143 -3.845903,2.16259 0,0.46834 0.41123,0.16265 0.851464,-0.36781 z m 4.895935,-6.009943 c 1.187421,-0.605779 3.116915,-2.653849 2.740092,-3.030671 -0.357843,-0.357843 -0.756404,0.0166 -1.377159,1.068705 -0.3684,0.624394 -1.325827,1.483811 -2.056438,1.813273 -1.60865,0.725399 -2.810283,0.205479 -4.271307,-1.612569 -0.564099,-0.701949 -0.931055,-1.292178 -1.046126,-1.271996 -0.07865,0.01379 1.345109,2.529928 2.292213,3.107407 1.631834,0.671219 2.612299,0.470415 3.718725,-0.07415 z M 64.857808,76.16 c 0.225392,0 1.672592,-0.600413 3.216,-1.33425 2.38583,-1.13438 3.177514,-1.351984 5.285021,-1.452649 1.363353,-0.06512 3.062435,0.03875 3.775731,0.230819 2.208349,0.594646 2.512598,0.314662 2.438259,-2.243792 -0.06027,-2.074192 -0.131177,-2.27015 -1.150928,-3.180582 -2.103248,-1.877783 -4.051865,-1.722893 -8.021891,0.637625 -2.665843,1.585075 -4.125578,2.913671 -4.148493,3.775811 -0.0063,0.238141 -0.658838,1.152973 -1.450022,2.03296 -0.791184,0.879984 -1.350931,1.74169 -1.243882,1.9149 0.124714,0.201792 0.319603,0.189952 0.542515,-0.03296 C 64.291453,76.316547 64.632413,76.16 64.857808,76.16 Z m 48.077222,-4.900178 c 0,-0.250016 0.26897,-0.58283 -0.21503,-0.697547 -0.85308,-0.202195 -1.52066,-0.552413 -5.99774,-3.146493 -1.35581,-0.785574 -2.62618,-1.266044 -3.54551,-1.340956 -0.78796,-0.06421 -1.72314,-0.208944 -2.07819,-0.321632 -0.35506,-0.112688 -1.229075,-0.106304 -1.942269,0.01418 -1.088253,0.183859 -1.370851,0.396502 -1.757843,1.322704 -0.286387,0.68542 -0.382704,1.521644 -0.254173,2.206768 l 0.206951,1.103142 5.004384,0.01862 c 3.63906,0.01354 5.76015,-0.03992 7.62171,0.384659 1.25232,0.151487 2.52909,0.553452 2.95771,0.456555 z"
         id="skin" />
      <path
         style="fill:#cac72c;stroke-width:0.32"
         d="m 113.82206,103.18013 c -0.40153,-1.30829 -0.15159,-2.14038 0.77263,-2.14038 0.27178,0 0.63125,-4.5e-4 0.53258,-0.0991 -0.0987,-0.0987 0.17855,-0.53733 0.61603,-0.974808 0.63276,-0.632758 0.87692,-0.993428 1.23855,-0.693309 0.51661,0.428748 0.0677,1.527517 -0.6887,1.527517 -0.23567,0 -0.57509,0.54445 -0.75427,1.20989 -0.17918,0.66543 -0.57382,1.98662 -0.80692,2.3054 -0.38804,0.53067 -0.56981,-0.027 -0.9099,-1.13516 z M 55.36,101.45889 c 0,-0.34162 -0.144,-0.71012 -0.32,-0.81889 -0.176,-0.10877 -0.32,-0.44891 -0.32,-0.755843 0,-0.306941 -0.442307,-1.159517 -0.982902,-1.894615 -0.54938,-0.74704 -0.880669,-1.501961 -0.751114,-1.711587 0.127485,-0.206275 0.0013,-0.543497 -0.280144,-0.749382 C 52.117562,95.098413 50.88,90.921683 50.88,89.366432 50.88,88.281216 50.541379,88.02912 50.01169,88.72 c -0.367556,0.479408 -1.413076,3.820547 -1.56488,5.000845 -0.189552,1.473789 -0.977671,3.995261 -1.153962,3.691929 C 47.199264,97.251747 47.027939,96.112 46.912125,94.88 c -0.222864,-2.370813 0.150224,-5.097306 0.904358,-6.609008 0.564224,-1.131008 0.04754,-1.239565 -1.206153,-0.253411 -0.893623,0.702925 -1.671008,2.785085 -2.143959,5.742419 -0.876134,5.478406 -0.909603,5.604774 -1.364086,5.150246 -0.238039,-0.238067 -0.375363,-1.379753 -0.363943,-3.02574 0.01875,-2.702448 0.789031,-5.506 2.12232,-7.724506 0.317319,-0.528 0.577485,-1.190394 0.578141,-1.471987 0.0016,-0.712832 1.830682,-3.168013 2.360048,-3.168013 0.82057,0 2.160327,-1.323549 2.058567,-2.033658 -0.145664,-1.016476 -1.150352,-1.064966 -1.400676,-0.0676 -0.113366,0.451693 -0.370512,0.821927 -0.571433,0.822743 -0.689751,0.0029 -2.531552,2.03214 -3.171859,3.494838 -0.352404,0.805024 -0.945098,1.89568 -1.317095,2.42368 -1.201536,1.705427 -2.116233,4.030387 -2.121254,5.391776 -0.0051,1.375638 -0.226877,1.92367 -0.821767,2.030445 -0.404652,0.07263 -0.393379,0.13335 -0.654502,-3.525015 -0.214867,-3.010307 0.35263,-6.044166 1.506669,-8.054691 C 41.609363,83.473133 41.96184,82.536 42.088778,81.92 c 0.12694,-0.616 0.498921,-1.499459 0.826624,-1.963242 0.327705,-0.463779 0.874064,-1.471779 1.214131,-2.24 0.340064,-0.768217 1.104697,-1.912745 1.699187,-2.543398 2.731846,-2.898038 3.02487,-3.710131 1.661139,-4.603683 -1.263376,-0.827795 -2.128832,-0.395799 -3.818937,1.906256 C 42.829386,73.62217 42.043744,74.56 41.92505,74.56 c -0.118695,0 -0.699911,0.972 -1.291594,2.16 -0.59168,1.188 -1.333642,2.390618 -1.6488,2.672486 -0.315158,0.281869 -0.479635,0.605869 -0.365504,0.72 0.114134,0.114132 0.0332,0.207514 -0.179846,0.207514 -0.21305,0 -0.363988,0.18 -0.335418,0.4 0.123514,0.951178 -0.05552,1.52 -0.478419,1.52 -0.578003,0 -0.961936,-3.263549 -0.742656,-6.312861 0.346054,-4.812275 1.246646,-13.435651 1.512985,-14.487139 0.156029,-0.616 0.527092,-2.488 0.82458,-4.16 0.314307,-1.766518 0.727763,-3.148778 0.986985,-3.299667 0.245354,-0.142816 0.362925,-0.39424 0.261274,-0.55872 C 40.298832,53.146864 42.261021,49.198234 42.91632,48.496 43.072342,48.3288 43.2,47.956672 43.2,47.66905 c 0,-0.287623 0.576,-1.345216 1.28,-2.350208 0.704,-1.004996 1.280666,-1.928868 1.281482,-2.053053 9.6e-4,-0.124183 0.432812,-0.685978 0.96,-1.248435 C 47.248666,41.454899 47.68,40.839811 47.68,40.650493 c 0,-0.402579 1.646925,-3.000339 2.001994,-3.157824 0.133097,-0.05903 0.167772,-0.227424 0.07706,-0.374202 -0.09071,-0.146777 0.01638,-0.463619 0.238006,-0.704089 0.221616,-0.240471 0.618941,-0.818317 0.882941,-1.284103 0.264,-0.465785 1.38,-2.01751 2.48,-3.448274 1.1,-1.430765 2,-2.70548 2,-2.832701 0,-0.127221 0.430963,-0.485887 0.957696,-0.797035 0.52673,-0.311149 1.120301,-0.882196 1.319046,-1.268995 0.431594,-0.839974 2.218864,-2.46146 2.714295,-2.462519 C 60.544106,24.320335 60.996118,24.068 61.355507,23.76 64.242138,21.28613 66.24,19.891955 66.24,20.351443 c 0,0.08442 0.315152,-0.140121 0.700339,-0.498977 C 67.325526,19.49361 67.883894,19.2 68.181158,19.2 c 0.297261,0 0.719741,-0.216 0.938842,-0.48 0.219101,-0.264 0.532634,-0.48 0.696739,-0.48 0.164106,0 0.902474,-0.268667 1.640816,-0.597038 1.088739,-0.484206 1.735536,-0.553879 3.422445,-0.368666 4.240022,0.465532 6.721107,1.516612 10.72,4.541396 1.466365,1.109166 3.038192,2.522098 3.84,3.45182 1.644893,1.907304 2.422202,2.530754 3.630982,2.912284 1.243895,0.392613 3.507092,1.777688 4.064797,2.487656 C 97.515296,31.150578 99.403984,31.055932 99.28,30.56 99.236,30.384 98.804,30.113672 98.32,29.95927 97.836,29.804869 97.152,29.434132 96.8,29.13541 96.448,28.836689 95.278077,28.207054 94.20017,27.736222 92.793322,27.121709 91.560931,26.20296 89.832458,24.480082 88.508125,23.160037 87.248416,22.08 87.033107,22.08 c -0.305565,0 -0.304054,-0.105333 0.0069,-0.48 0.219101,-0.264 0.627917,-0.48 0.908483,-0.48 0.280567,0 1.090935,-0.206013 1.80082,-0.457807 0.709884,-0.251794 1.650697,-0.5377 2.090697,-0.635347 0.720525,-0.159902 1.804301,-0.755384 5.411223,-2.973204 0.631827,-0.388497 1.761756,-0.995799 2.51095,-1.34956 0.7492,-0.353761 1.65825,-0.919034 2.02011,-1.256163 0.36187,-0.337128 1.47689,-0.855574 2.47783,-1.152101 1.00094,-0.296528 2.15826,-0.676854 2.57182,-0.84517 1.2334,-0.501976 8.96366,-1.009405 11.87736,-0.779652 3.09923,0.244383 5.22179,1.086084 7.21071,2.85941 0.704,0.627689 1.50167,1.215207 1.7726,1.305595 0.27093,0.09039 1.03062,1.208266 1.68821,2.484171 0.6576,1.275905 1.32283,2.535828 1.47828,2.799828 1.3934,2.36627 3.22092,7.574092 3.22092,9.178557 0,0.599822 0.36846,1.437087 0.96,2.181443 0.528,0.664403 0.96,1.341811 0.96,1.505354 0,0.163542 0.36,0.769331 0.8,1.346201 0.44,0.576871 0.8,1.131655 0.8,1.232855 0,0.72328 -5.33494,-1.87658 -7.04,-3.430775 -0.44,-0.401069 -1.268,-0.816611 -1.84,-0.923427 -1.20902,-0.22577 -1.42415,0.263994 -0.24587,0.559725 0.43677,0.109622 1.26477,0.605325 1.84,1.101558 0.57523,0.496237 1.5198,1.176704 2.09904,1.512154 0.5858,0.339245 1.13791,0.966361 1.24413,1.413129 0.10502,0.441776 0.30246,0.947226 0.43876,1.123226 0.50454,0.651526 0.97634,4.433043 0.77219,6.189206 -0.2746,2.362148 -1.07615,5.184413 -1.62963,5.737888 -0.24124,0.241242 -0.43862,0.700928 -0.43862,1.021527 0,0.320598 -0.216,0.665792 -0.48,0.767101 -0.264,0.101305 -0.48,0.44791 -0.48,0.770236 0,0.322324 -0.13634,0.722842 -0.30298,0.890042 -0.50311,0.504806 -0.81124,6.090918 -0.35164,6.374963 0.70652,0.436653 1.06284,-0.398013 1.32035,-3.092829 0.1397,-1.461974 0.26306,-2.74934 0.27414,-2.860812 0.0304,-0.305888 1.30013,-0.57704 1.30013,-0.277639 0,0.142871 0.468,0.848285 1.04,1.567584 0.572,0.719303 1.34358,1.704928 1.71461,2.190279 1.28961,1.686908 3.00611,8.998332 3.00564,12.802454 -1.4e-4,1.1 -0.13092,2 -0.29063,2 -0.15972,0 -0.35793,0.756 -0.44048,1.68 -0.0825,0.924 -0.3219,2.256 -0.53188,2.96 -0.20998,0.704 -0.45251,1.64 -0.53894,2.08 -0.0864,0.44 -0.22188,1.118918 -0.301,1.508704 -0.20068,0.988752 -0.8509,0.640061 -1.73295,-0.929334 -1.34897,-2.400173 -3.86612,-4.139725 -4.50183,-3.111127 -0.14781,0.239175 -0.15069,0.510666 -0.006,0.603312 0.58211,0.373719 1.05939,3.983431 1.22158,9.238957 l 0.17129,5.550512 -0.68809,-0.429718 c -0.37845,-0.236349 -0.77479,-0.702868 -0.88075,-1.036711 -0.10595,-0.333846 -0.61331,-1.018201 -1.12745,-1.520793 C 129.6786,88.09121 129.35626,87.68 129.47643,87.68 c 0.12017,0 -0.23356,-0.432 -0.78606,-0.96 -1.22388,-1.169603 -1.65037,-1.21095 -1.65037,-0.16 0,0.44 0.14207,0.8 0.31571,0.8 0.5546,0 1.28429,2.262458 1.28429,3.982077 0,1.69568 -0.86798,4.856608 -1.2333,4.491293 -0.11072,-0.110727 -0.4906,-1.018532 -0.84418,-2.017344 -0.4947,-1.397517 -0.80874,-1.839591 -1.36269,-1.918282 -0.60968,-0.08661 -0.71983,0.04516 -0.71983,0.861114 0,0.529856 0.144,1.052368 0.32,1.161142 0.47077,0.290954 0.39013,1.760179 -0.19008,3.462995 -0.5785,1.697811 -0.99413,1.901395 -1.25964,0.617005 -0.10005,-0.484 -0.31241,-1.384 -0.4719,-2 -0.67427,-2.604256 -0.68711,-3.512275 -0.0623,-4.408102 0.84096,-1.205744 1.66393,-3.788311 1.66393,-5.221562 0,-1.802237 -1.76637,-6.127661 -2.92332,-7.158502 -0.75462,-0.672375 -0.93565,-1.049594 -0.78815,-1.642346 0.1053,-0.423219 0.28025,-1.129488 0.38877,-1.569488 0.14715,-0.596675 0.07,-0.8 -0.30366,-0.8 -0.30185,0 -0.91656,0.858477 -1.54664,2.16 l -1.04569,2.16 -0.39472,-2.88 c -0.2171,-1.584 -0.52984,-4.536 -0.69498,-6.56 -0.27402,-3.358483 -1.24478,-7.366666 -1.96462,-8.111789 -0.48804,-0.505168 -1.45599,0.101466 -2.09017,1.309943 -0.34689,0.661014 -0.77608,1.307641 -0.95377,1.436947 -0.21276,0.154832 -0.21381,0.238445 -0.003,0.244899 0.34642,0.01062 -0.49361,0.627018 -0.8655,0.635101 -0.12402,0.0026 -0.31518,-0.535101 -0.4248,-1.195101 -0.19203,-1.156266 -0.80374,-3.354138 -1.49178,-5.36 -0.18111,-0.528 -0.6151,-1.968 -0.96442,-3.2 -0.34932,-1.232 -0.80592,-2.419514 -1.01466,-2.638915 -0.75608,-0.794711 -1.71418,0.415305 -2.64662,3.342537 -0.87423,2.744461 -0.88698,2.762685 -1.28318,1.834189 -0.22009,-0.515795 -0.40667,-1.981811 -0.41461,-3.257811 -0.008,-1.276 -0.14665,-2.32 -0.30825,-2.32 -0.16161,0 -0.51521,-0.08495 -0.78577,-0.188774 -0.73335,-0.281415 -2.120408,1.26096 -2.120408,2.357836 0,2.429725 -3.184915,10.389197 -4.603721,11.505229 -0.395549,0.311139 -0.734615,0.676106 -0.753475,0.811037 C 94.327322,68.397635 93.984701,69.44 93.774573,69.44 93.497379,69.44 93.12,67.871376 93.12,66.719181 c 0,-0.862682 -0.789686,-1.653642 -1.118998,-1.1208 -0.118788,0.192198 -0.356429,1.89119 -0.528096,3.775536 -0.402052,4.413245 -0.401024,4.407005 -0.809879,4.914873 -0.190928,0.237165 -0.715049,1.15121 -1.164713,2.03121 -0.8772,1.716685 -2.974967,4.230013 -3.277828,3.927155 -0.101212,-0.101216 0.04177,-0.944368 0.317744,-1.873673 C 87.185466,76.194003 87.164557,75.212528 86.412675,72.48 85.335149,68.563994 84.802035,67.097498 83.597219,64.735226 82.522298,62.627629 80.609686,60.16 80.05105,60.16 c -0.6057,0 -1.651284,1.074038 -1.653159,1.698144 -0.0019,0.637203 -0.06115,0.613421 -0.643107,-0.258144 -0.35255,-0.528 -0.731357,-1.508442 -0.841792,-2.178762 C 76.660742,57.890115 75.858976,56.85001 75.142806,57.124829 74.625466,57.32335 72.96,60.334931 72.96,61.071894 72.96,61.274352 72.798,61.44 72.6,61.44 c -0.242326,0 -0.281114,-0.339946 -0.118656,-1.04 0.375616,-1.618608 0.35369,-2.565427 -0.06274,-2.709229 C 72.038426,57.559488 69.76,59.73888 69.76,60.233818 c 0,0.143264 -0.577949,0.887481 -1.28433,1.653814 -0.706384,0.766336 -1.621872,2.023117 -2.034422,2.792851 -0.41255,0.769735 -1.033962,1.903517 -1.380915,2.519517 -0.346954,0.616 -1.029405,2.2 -1.516554,3.52 -0.487152,1.32 -1.087792,2.853763 -1.334755,3.408362 C 61.962061,74.68296 61.76,75.502461 61.76,75.949475 c 0,0.447015 -0.146349,0.903203 -0.325219,1.013751 -0.178871,0.110547 -0.262071,0.303174 -0.184887,0.42806 0.15832,0.25617 -0.606144,4.151629 -0.865667,4.411152 -0.365155,0.365156 -0.573619,-3.964112 -0.256285,-5.322438 0.185028,-0.792 0.339933,-1.98 0.344234,-2.64 0.0062,-0.95448 -0.112579,-1.2 -0.580653,-1.2 -0.630531,0 -0.850227,1.106477 -1.69432,8.533235 -0.363056,3.194359 -0.384221,3.251693 -1.169395,3.167981 C 55.81761,84.212189 55.197674,82.798166 55.593312,81.069232 55.919987,79.641651 55.850154,79.36 55.169523,79.36 54.387024,79.36 53.76,80.367325 53.76,81.624426 c 0,1.2048 0.639558,2.807683 2.222592,5.570336 0.40175,0.701116 0.73737,1.781116 0.745821,2.4 0.02,1.464326 -0.327335,4.735168 -0.539232,5.078025 -0.09085,0.147002 -0.0161,0.807264 0.166144,1.467251 0.341833,1.238023 0.146822,2.023024 -0.234951,0.945764 -0.11808,-0.333191 -0.481468,-1.209901 -0.807532,-1.948247 C 54.986778,94.399213 54.72,93.057197 54.72,92.155299 c 0,-1.51751 -0.0537,-1.632185 -0.72,-1.537555 -0.630749,0.08958 -0.732224,0.317267 -0.818614,1.83681 -0.109776,1.930828 0.902528,5.211408 1.912518,6.197913 0.322352,0.314855 0.586096,0.898055 0.586096,1.296 0,0.397943 0.160253,0.883783 0.356118,1.079653 0.195863,0.19586 0.259367,0.51266 0.141114,0.704 C 55.83185,102.29096 55.36,102.1332 55.36,101.45889 Z m 63.53197,-0.24962 c 0.10961,-0.17735 0.30055,-0.62201 0.047,-0.87602 -0.25401,-0.25402 -0.55788,-0.973759 -0.67525,-1.599426 -0.17551,-0.93553 -0.0619,-1.336176 0.63942,-2.255702 0.99626,-1.306164 1.43484,-1.668842 1.6647,-0.684746 0.26333,1.127453 -0.66297,5.795664 -1.16084,5.795664 -0.16587,0 -0.62463,-0.20242 -0.51502,-0.37977 z M 67.099802,73.948602 C 67.468266,72.53959 71.811574,68.8 73.079594,68.8 c 0.441449,0 0.891632,-0.144 1.000406,-0.32 0.311066,-0.503312 1.931414,-0.374573 3.020659,0.24 0.652016,0.367878 1.116381,0.968208 1.353543,1.749846 0.57584,1.897856 0.163561,2.137908 -3.679575,2.142471 C 71.685434,72.615984 68.8,73.126723 68.8,73.669862 68.8,73.807437 68.5408,73.92 68.224,73.92 c -0.3168,0 -0.740742,0.164742 -0.942096,0.366096 -0.274794,0.274794 -0.320211,0.190627 -0.182102,-0.337494 z m 30.703235,-4.35184 c -0.317543,-0.827498 0.382777,-2.710759 1.021779,-2.747709 3.174054,-0.183533 5.261004,0.06366 6.701904,0.793811 1.53686,0.778787 2.55059,1.666496 2.24828,1.9688 -0.0859,0.08591 -2.31514,0.24695 -4.95386,0.357869 -4.426634,0.186073 -4.814718,0.157245 -5.018103,-0.372771 z"
         id="hair" />
      <path
         style="fill:#1d6f44;stroke-width:0.32"
         d="m 74.504992,88.478323 c -0.08892,-0.08892 -0.958464,-0.217974 -1.932317,-0.286787 -2.398921,-0.169507 -2.969171,-0.544627 -3.452566,-2.271149 -0.526051,-1.878867 -0.227607,-5.607632 0.480547,-6.003933 0.271043,-0.151683 0.417578,-0.39751 0.325632,-0.546278 -0.09194,-0.148771 0.119408,-0.195549 0.46967,-0.103952 0.350266,0.0916 0.565565,0.281869 0.478448,0.422826 -0.08712,0.140956 0.0225,0.323321 0.2436,0.405251 0.293335,0.108701 0.245341,0.310701 -0.177564,0.747331 -0.557482,0.575574 -0.595879,0.576374 -1.008,0.02096 C 69.547693,80.344074 69.504,80.405987 69.504,81.469699 c 0,0.709319 0.101184,1.020787 0.252224,0.776403 0.13872,-0.224457 0.388854,-0.32366 0.55585,-0.220454 0.166995,0.10321 0.631424,-0.04195 1.032067,-0.322566 0.606358,-0.424711 0.700742,-0.716724 0.563171,-1.742394 l -0.165267,-1.23217 2.048976,0.03075 c 1.938672,0.02909 2.048979,0.07192 2.048979,0.795738 0,0.420749 0.114272,0.764998 0.253942,0.764998 0.420692,0 1.00537,3.432381 0.747636,4.38904 -0.307965,1.143111 -0.10762,2.085488 0.38264,1.799872 0.206681,-0.120409 0.101465,0.09383 -0.233815,0.476084 -0.335277,0.382252 -0.767277,0.690425 -0.96,0.684828 -0.19272,-0.0056 -0.113529,-0.190412 0.175981,-0.410697 0.45688,-0.347635 0.467443,-0.481123 0.08,-1.010986 -0.541443,-0.740464 -0.583299,-1.250531 -0.07694,-0.937584 0.230733,0.142602 0.282503,0.08766 0.137888,-0.146333 -0.127353,-0.206064 -0.356441,-0.297478 -0.509081,-0.203142 -0.360292,0.222672 -0.270148,1.438918 0.106649,1.438918 0.158791,0 0.561609,0.490985 0.278587,0.922924 -0.476889,0.727831 -0.978187,0.671563 -0.461259,0.972689 0.481626,0.280563 0.444912,0.326253 -0.26889,0.334656 -0.454668,0.0053 -0.89942,-0.06302 -0.988342,-0.151945 z m -3.69559,-1.451014 C 70.715526,86.668326 70.567216,86.446115 70.479827,86.533507 70.306707,86.706624 70.612496,87.68 70.84,87.68 c 0.07705,0 0.06328,-0.293712 -0.03059,-0.652691 z m 4.261155,0.283248 c 0.141465,-0.228896 0.08778,-0.282579 -0.141114,-0.141114 C 74.712902,87.30327 74.56,87.199107 74.56,86.91777 c 0,-0.264 -0.16625,-0.582746 -0.369443,-0.708327 -0.203194,-0.125581 -0.297395,-0.09808 -0.209341,0.06111 0.08805,0.159193 0.249786,0.541443 0.359398,0.849443 0.232708,0.653869 0.414301,0.701277 0.729943,0.190557 z M 71.079062,85.864 c -0.377228,-0.648707 -0.468323,-0.441072 -0.159529,0.363629 0.109741,0.285984 0.266941,0.452563 0.349331,0.370173 0.08239,-0.08239 -0.0029,-0.412602 -0.189802,-0.733802 z M 75.2,85.76 c 0,-0.176 -0.152499,-0.32 -0.338886,-0.32 -0.186388,0 -0.249888,0.144 -0.141114,0.32 0.108774,0.176 0.261274,0.32 0.338886,0.32 0.07761,0 0.141114,-0.144 0.141114,-0.32 z m -5.317901,-0.496621 c 0.109277,-0.284774 0.05563,-0.413222 -0.125763,-0.301113 -0.173984,0.107526 -0.316336,0.331008 -0.316336,0.49662 0,0.460298 0.229366,0.358868 0.442099,-0.195507 z m 4.092704,-0.992976 c 0.672615,-0.608707 0.73513,-1.336998 0.175021,-2.038928 -0.819645,-1.027177 -2.588416,-0.231958 -2.618957,1.17745 -0.02906,1.341472 1.368999,1.834285 2.443936,0.861478 z m 2.01153,-0.728291 c 0.101261,-0.16384 0.03776,-0.388339 -0.141114,-0.498886 -0.17887,-0.110548 -0.325219,0.02349 -0.325219,0.297888 0,0.562089 0.192019,0.644851 0.466333,0.200998 z M 75.52,81.44 c 0,-0.264 -0.144,-0.48 -0.32,-0.48 -0.176,0 -0.32,0.216 -0.32,0.48 0,0.264 0.144,0.48 0.32,0.48 0.176,0 0.32,-0.216 0.32,-0.48 z m -1.100362,-1.68703 c -0.27864,-0.27864 -1.06991,0.376396 -0.921587,0.762918 0.14656,0.38193 0.250419,0.363389 0.593632,-0.105981 0.228794,-0.312896 0.376375,-0.608518 0.327955,-0.656937 z M 102.4,86.986666 C 102.4,86.84 102.616,86.72 102.88,86.72 c 0.264,0 0.48,0.12 0.48,0.266666 0,0.146668 -0.216,0.266668 -0.48,0.266668 -0.264,0 -0.48,-0.12 -0.48,-0.266668 z m 1.30912,-0.07158 C 103.474,86.631789 102.96437,86.4 102.5766,86.4 c -0.80845,0 -1.90831,-1.055446 -2.36998,-2.274285 -0.284806,-0.751885 -0.284313,-3.87007 9.6e-4,-5.085715 0.24444,-1.042208 1.87258,-0.783853 1.87258,0.297142 0,0.522084 -0.57122,0.408935 -0.89982,-0.178236 -0.19938,-0.356269 -0.36221,-0.406877 -0.51478,-0.16 -0.12275,0.198601 -0.053,0.361094 0.15489,0.361094 0.28559,0 0.28822,0.108269 0.0107,0.44263 -0.28588,0.344464 -0.24134,0.497594 0.20082,0.690471 0.31249,0.13631 0.74817,0.218816 0.96817,0.183341 0.22,-0.03547 0.4,0.218038 0.4,0.56336 0,1.151356 0.37262,1.640198 1.25024,1.640198 0.47396,0 1.03456,-0.1728 1.24576,-0.384 0.2112,-0.2112 0.384,-0.771795 0.384,-1.245763 C 105.28,80.367251 104.79136,80 103.61652,80 c -0.52199,0 -0.6208,-0.158669 -0.4982,-0.8 0.0841,-0.44 0.0289,-0.8 -0.12269,-0.8 -0.1516,0 -0.27563,-0.303405 -0.27563,-0.674237 0,-0.483344 0.14331,-0.619245 0.50617,-0.48 0.2784,0.106832 0.6744,0.204359 0.88,0.21673 0.20561,0.01235 0.0858,0.146931 -0.26617,0.299027 -0.56582,0.244486 -0.54348,0.271331 0.19281,0.231619 0.61446,-0.03314 0.79564,-0.187053 0.69105,-0.587027 -0.11415,-0.436502 0.0862,-0.542112 1.02852,-0.542112 0.64366,0 1.08994,0.08035 0.99173,0.178557 -0.0982,0.09821 -0.0197,0.369971 0.17447,0.603926 0.19416,0.233952 0.27009,0.641472 0.16874,0.905603 -0.10136,0.264132 -0.0815,0.464912 0.0442,0.44618 0.8564,-0.127648 1.02848,0.147036 1.02848,1.641734 0,0.88 -0.12403,1.6 -0.27563,1.6 -0.15159,0 -0.2068,0.36 -0.12269,0.8 0.0841,0.44 0.006,0.8 -0.17442,0.8 -0.18004,0 -0.25781,0.265907 -0.17282,0.590902 0.20681,0.790861 -1.70091,2.713431 -2.48819,2.507552 -0.31656,-0.08278 -0.62373,-0.006 -0.6826,0.170605 -0.0589,0.176615 -0.29941,0.08933 -0.53453,-0.193971 z m 2.01792,-1.101754 c 0.0906,-0.146668 -0.0385,-0.266668 -0.28704,-0.266668 -0.24852,0 -0.37768,0.12 -0.28704,0.266668 C 105.24361,85.96 105.37277,86.08 105.44,86.08 c 0.0672,0 0.19639,-0.12 0.28704,-0.266666 z m -3.6952,-0.980012 c -0.21209,-0.55784 -0.20308,-0.856244 0.0282,-0.933335 C 102.59037,83.723206 102.45908,83.2 101.88438,83.2 c -0.42138,0 -0.47563,0.219309 -0.29683,1.2 0.20549,1.127078 0.18883,1.161107 -0.27421,0.56 -0.27114,-0.352 -0.49757,-0.4888 -0.50317,-0.304 -0.0142,0.468304 0.56522,0.997334 1.09229,0.997334 0.34119,0 0.3705,-0.185782 0.12937,-0.820012 z M 106.88,85.28 c 0.32308,-0.389283 0.31032,-0.48 -0.0675,-0.48 -0.25622,0 -0.46585,0.216 -0.46585,0.48 0,0.264 0.0304,0.48 0.0675,0.48 0.0371,0 0.24675,-0.216 0.46585,-0.48 z m -3.04,-0.48 c -0.10877,-0.176 -0.36927,-0.317795 -0.57889,-0.315101 -0.22899,0.0029 -0.18952,0.128714 0.0989,0.315101 0.61476,0.39729 0.72554,0.39729 0.48,0 z m -2.28428,-2.72 c -0.10131,-0.264 -0.24079,-0.48 -0.30996,-0.48 -0.0692,0 -0.12576,0.216 -0.12576,0.48 0,0.264 0.13948,0.48 0.30996,0.48 0.17047,0 0.22707,-0.216 0.12576,-0.48 z M 107.52,81.44 c 0,-0.264 -0.216,-0.48 -0.48,-0.48 -0.83279,0 -0.56291,0.630659 0.4,0.934736 0.044,0.01389 0.08,-0.190736 0.08,-0.454736 z m -0.80227,-1.756336 c 0.11211,-0.181395 -0.0164,-0.23504 -0.30111,-0.125763 C 105.86225,79.770634 105.76082,80 106.22111,80 c 0.16562,0 0.3891,-0.142352 0.49662,-0.316336 z M 105.6,78.56 c 0,-0.264 -0.0566,-0.48 -0.12576,-0.48 -0.0692,0 -0.20865,0.216 -0.30996,0.48 -0.10131,0.264 -0.0447,0.48 0.12576,0.48 0.17048,0 0.30996,-0.216 0.30996,-0.48 z"
         id="eye" />
      <path
         style="fill:#18653a;stroke-width:0.32"
         d="m 71.68,88.32 c -0.647011,-0.20721 -0.67761,-0.258778 -0.16,-0.269661 0.352,-0.0074 1.216,0.105687 1.92,0.251303 l 1.28,0.264758 -1.12,0.0049 c -0.616,0.0026 -1.48,-0.11039 -1.92,-0.251302 z m -1.169574,-1.133802 c -0.104221,-0.27159 -0.117991,-0.565302 -0.03059,-0.652691 0.08739,-0.08739 0.235699,0.134819 0.329574,0.493802 0.199408,0.762537 -0.02214,0.880285 -0.298976,0.158889 z M 74.340614,87.12 c -0.109612,-0.308 -0.271344,-0.69025 -0.359398,-0.849443 -0.08805,-0.159194 0.0061,-0.186695 0.209341,-0.06111 C 74.39375,86.335024 74.56,86.65377 74.56,86.91777 c 0,0.28134 0.152902,0.3855 0.369443,0.251673 0.228896,-0.141465 0.282579,-0.08778 0.141114,0.141114 -0.315642,0.51072 -0.497235,0.463312 -0.729943,-0.190557 z M 103.36,87.04 c 0,-0.176 -0.3515,-0.32 -0.78111,-0.32 -0.42962,0 -0.85401,-0.117946 -0.9431,-0.262099 -0.2759,-0.446407 1.68144,-0.01501 2.0731,0.456909 0.26811,0.323056 0.27094,0.44519 0.0103,0.44519 -0.19756,0 -0.35919,-0.144 -0.35919,-0.32 z m 0.96,-0.01888 c 0,-0.186387 0.144,-0.249888 0.32,-0.141114 0.176,0.108775 0.32,0.261274 0.32,0.338887 0,0.07761 -0.144,0.141113 -0.32,0.141113 -0.176,0 -0.32,-0.152499 -0.32,-0.338886 z M 70.919533,86.227635 c -0.308794,-0.804701 -0.217699,-1.012336 0.159529,-0.363629 0.186781,0.3212 0.272192,0.651412 0.189802,0.733802 -0.08239,0.08239 -0.23959,-0.08419 -0.349331,-0.370173 z M 75.682851,85.68 c 0.106023,-1.011488 0.09899,-1.006202 0.691117,-0.519181 0.485283,0.399136 0.516086,0.337056 0.33784,-0.680819 -0.165696,-0.946198 -0.14288,-1.011011 0.147046,-0.417667 0.188749,0.386281 0.251018,0.942499 0.138375,1.236038 -0.17473,0.455341 -0.281504,0.470051 -0.727175,0.100179 -0.462934,-0.384201 -0.49646,-0.351891 -0.294649,0.283959 0.125248,0.394621 0.09368,0.717491 -0.07015,0.717491 -0.16383,0 -0.26391,-0.324 -0.222404,-0.72 z M 74.72,85.76 c -0.108774,-0.176 -0.04527,-0.32 0.141114,-0.32 0.186387,0 0.338886,0.144 0.338886,0.32 0,0.176 -0.0635,0.32 -0.141114,0.32 -0.07761,0 -0.230112,-0.144 -0.338886,-0.32 z m 30.43296,0.05333 c -0.0906,-0.146668 0.0385,-0.266668 0.28704,-0.266668 0.24852,0 0.37768,0.12 0.28704,0.266668 C 105.63639,85.96 105.50723,86.08 105.44,86.08 c -0.0672,0 -0.19639,-0.12 -0.28704,-0.266666 z M 69.44,85.458886 c 0,-0.165612 0.142352,-0.389094 0.316336,-0.49662 0.181395,-0.112109 0.23504,0.01635 0.125763,0.301113 C 69.669366,85.817754 69.44,85.919184 69.44,85.458886 Z m 31.69067,-0.13622 C 100.9488,85.1408 100.80458,84.8408 100.81018,84.656 c 0.006,-0.1848 0.23202,-0.048 0.50317,0.304 0.46303,0.601107 0.4797,0.567078 0.27421,-0.56 -0.1788,-0.980691 -0.12456,-1.2 0.29683,-1.2 0.5747,0 0.70599,0.523206 0.17565,0.699987 -0.23128,0.07709 -0.24029,0.375495 -0.0282,0.933335 0.24114,0.63423 0.21183,0.820012 -0.12936,0.820012 -0.24263,0 -0.58994,-0.1488 -0.77181,-0.330668 z M 103.36,84.8 c -0.28841,-0.186387 -0.32788,-0.312157 -0.0989,-0.315101 0.20962,-0.0026 0.47012,0.139101 0.57889,0.315101 0.24554,0.39729 0.13476,0.39729 -0.48,0 z M 71.995562,84.537507 c -0.701216,-0.314841 -0.578381,-1.960854 0.179744,-2.408582 0.861276,-0.508643 1.513856,-0.474749 1.974518,0.10255 1.104266,1.383866 -0.46553,3.064263 -2.154262,2.306032 z M 73.862019,83.254 c 0.09561,-0.994083 0.04532,-1.054262 -0.8,-0.957379 -0.66975,0.07676 -0.929827,0.300061 -1.010016,0.86719 -0.114985,0.813229 0.437952,1.368496 1.227997,1.233168 0.287267,-0.04921 0.520963,-0.508141 0.582019,-1.142979 z m 33.623871,0.643117 c 0.25822,-0.180461 0.37184,-0.594752 0.26996,-0.984362 C 107.65908,82.542739 107.72,82.24 107.89121,82.24 c 0.49966,0 0.1571,1.697658 -0.37121,1.839683 -0.39892,0.107242 -0.40468,0.0764 -0.0341,-0.182566 z M 75.52,83.341114 c 0,-0.274388 0.146349,-0.408436 0.325219,-0.297888 0.178871,0.110547 0.242375,0.335046 0.141114,0.498886 C 75.712019,83.985965 75.52,83.903203 75.52,83.341114 Z m 1.550125,0.01888 c -0.107175,-0.176 -0.288496,-0.824 -0.402935,-1.44 l -0.208073,-1.12 0.510345,0.898483 c 0.462596,0.814416 0.559575,2.415139 0.100663,1.661517 z M 102.59424,82.373821 C 102.4874,82.095434 102.4,81.58512 102.4,81.239802 c 0,-0.345322 -0.18,-0.598832 -0.4,-0.56336 -0.22,0.03548 -0.65568,-0.04703 -0.96817,-0.183341 -0.44216,-0.192877 -0.4867,-0.346007 -0.20082,-0.690471 0.2775,-0.334361 0.27488,-0.44263 -0.0107,-0.44263 -0.20793,0 -0.28922,-0.14375 -0.18064,-0.319446 0.29466,-0.476762 2.08035,1.6304 2.08035,2.45486 0,0.392032 0.252,0.859562 0.56,1.038954 0.49675,0.289331 0.50062,0.32727 0.0342,0.335901 -0.28917,0.0053 -0.61317,-0.218045 -0.72,-0.496442 z m 1.43243,0.415622 c 0.0733,-0.0498 0.42133,-0.301801 0.77333,-0.56 0.592,-0.434243 0.60706,-0.427453 0.20082,0.09055 -0.24155,0.308 -0.58955,0.56 -0.77334,0.56 -0.18378,0 -0.27415,-0.04075 -0.20081,-0.09055 z M 69.504,81.469709 c 0,-1.012298 0.05692,-1.106666 0.391494,-0.649107 0.336224,0.459817 0.487764,0.475276 1.073447,0.109513 0.375075,-0.23424 0.796502,-0.310944 0.936505,-0.170457 0.331965,0.333113 -1.153084,1.538115 -1.574556,1.277628 -0.177344,-0.109603 -0.435946,-0.01562 -0.574666,0.208826 C 69.605184,82.490496 69.504,82.179027 69.504,81.469709 Z M 101.12,82.08 c 0,-0.264 0.0566,-0.48 0.12576,-0.48 0.0692,0 0.20865,0.216 0.30996,0.48 0.10131,0.264 0.0447,0.48 -0.12576,0.48 -0.17048,0 -0.30996,-0.216 -0.30996,-0.48 z M 74.88,81.44 c 0,-0.264 0.144,-0.48 0.32,-0.48 0.176,0 0.32,0.216 0.32,0.48 0,0.264 -0.144,0.48 -0.32,0.48 -0.176,0 -0.32,-0.216 -0.32,-0.48 z m 32.08,0.26807 c -0.55717,-0.224825 -0.50122,-0.74807 0.08,-0.74807 0.264,0 0.48,0.216 0.48,0.48 0,0.264 -0.036,0.46863 -0.08,0.454736 -0.044,-0.01389 -0.26,-0.09789 -0.48,-0.186666 z m -2.05651,-0.643299 c -0.1285,-0.468669 -0.48926,-0.729373 -1.10705,-0.8 -0.73,-0.08346 -0.93704,-0.283795 -1.01769,-0.984771 -0.0557,-0.484 0.0323,-0.88 0.19562,-0.88 0.16328,0 0.22806,0.36 0.14395,0.8 -0.12811,0.670163 -0.03,0.800797 0.60437,0.804899 1.06672,0.0069 1.64134,0.449987 1.49585,1.153447 -0.11199,0.541523 -0.14347,0.532169 -0.31505,-0.09358 z M 73.498051,80.515888 c -0.09785,-0.254998 0.04945,-0.550064 0.327955,-0.656938 0.688746,-0.264297 0.757517,-0.121676 0.265677,0.550957 -0.343213,0.46937 -0.447072,0.487911 -0.593632,0.105981 z M 70.8068,79.587219 c 0.157418,-0.799949 0.896003,-1.224704 1.910797,-1.098886 l 1.042403,0.129245 -1.061565,0.05121 c -0.863161,0.04164 -1.027638,0.158099 -0.880048,0.62312 0.130138,0.410029 0.0022,0.585405 -0.451635,0.6196 -0.348234,0.02624 -0.600211,-0.119699 -0.559952,-0.324288 z m 35.1132,0.287018 c 0,-0.06917 0.22348,-0.21152 0.49662,-0.316336 0.28478,-0.109277 0.41322,-0.05563 0.30111,0.125763 -0.18792,0.304067 -0.79773,0.449744 -0.79773,0.190573 z M 74.061434,78.689958 C 73.96287,78.53048 74.250726,78.4 74.701114,78.4 c 0.980496,0 1.059702,0.182381 0.179206,0.412637 -0.351827,0.092 -0.720323,0.0368 -0.818886,-0.122679 z M 105.16428,78.56 c 0.10131,-0.264 0.24079,-0.48 0.30996,-0.48 0.0692,0 0.12576,0.216 0.12576,0.48 0,0.264 -0.13948,0.48 -0.30996,0.48 -0.17047,0 -0.22707,-0.216 -0.12576,-0.48 z m 1.91191,0.101446 c 0.0924,-0.149536 0.30208,-0.18904 0.46592,-0.08778 0.41868,0.258759 0.37154,0.359667 -0.16803,0.359667 -0.25626,0 -0.39031,-0.122348 -0.29789,-0.271887 z M 101.44,78.381114 c 0,-0.186388 0.144,-0.249888 0.32,-0.141114 0.176,0.108774 0.32,0.261274 0.32,0.338886 0,0.07761 -0.144,0.141114 -0.32,0.141114 -0.176,0 -0.32,-0.152499 -0.32,-0.338886 z m 1.92,-0.427376 c 0,-0.237876 1.28309,-0.447629 1.41661,-0.231581 0.0755,0.122141 -0.21237,0.251008 -0.63968,0.286374 -0.42731,0.03536 -0.77693,0.01071 -0.77693,-0.05479 z"
         id="eye_detail" />
      <path
         style="fill:#403b34;stroke-width:0.32"
         d="m 89.6,114.83978 c -0.44,-0.17581 -1.52,-0.47219 -2.4,-0.65863 -2.000944,-0.42393 -3.130611,-0.99083 -4.96,-2.48907 -0.792,-0.64864 -2.423293,-1.60071 -3.625098,-2.11571 -1.201804,-0.515 -2.641804,-1.38085 -3.2,-1.9241 -1.278108,-1.2439 -4.391798,-3.01227 -5.303897,-3.01227 -0.380099,0 -0.773978,-0.216 -0.875283,-0.48 -0.101309,-0.264 -0.420788,-0.48018 -0.709959,-0.48039 C 68.236595,103.6794 67.568,103.29964 67.04,102.8357 c -1.127802,-0.99095 -4.866544,-2.79383 -5.69505,-2.74624 -0.316278,0.0182 -0.698326,-0.282529 -0.848998,-0.668215 C 60.082605,98.363165 57.92,96.375603 57.92,97.053795 c 0,0.787834 1.20073,3.819445 1.613907,4.074805 0.194464,0.12018 0.306887,0.70741 0.249831,1.30496 L 59.68,103.52 l -1.35601,-1.44 -1.356012,-1.44 -0.004,1.2 c -0.0056,1.68773 -0.834359,1.56493 -2.243853,-0.33248 -1.458826,-1.963818 -2.334867,-3.746061 -2.74649,-5.58752 -0.0295,-0.132 -0.08965,-0.312 -0.133648,-0.4 -0.09093,-0.181859 -0.0722,-0.117027 -0.629997,-2.180778 -0.23176,-0.857475 -0.538236,-1.418988 -0.691072,-1.266153 -0.151043,0.151043 -0.55176,1.811421 -0.890483,3.689731 -0.546262,3.02919 -0.567328,3.623872 -0.186397,5.26258 0.481812,2.07268 0.205373,2.87378 -0.805056,2.33301 -1.041113,-0.55718 -2.621827,-3.561692 -2.982915,-5.669705 C 45.464842,96.583907 45.205619,95.68 45.078029,95.68 c -0.27913,0 -0.764259,3.322112 -0.665898,4.56 0.07871,0.99057 -0.0078,1.03439 -0.993168,0.50325 -0.384429,-0.20722 -1.130963,-0.38722 -1.658963,-0.4 -0.866966,-0.021 -1.07695,-0.25584 -2.1668,-2.42325 -1.360154,-2.704976 -1.964435,-5.664237 -1.69576,-8.304397 0.211658,-2.079859 2.471856,-8.886893 3.599539,-10.840726 0.439693,-0.761815 0.736141,-1.448423 0.658768,-1.525795 -0.242208,-0.242208 -1.784253,2.223744 -2.020403,3.230918 -0.123798,0.528 -0.622902,1.558483 -1.10912,2.289965 -0.889786,1.338624 -1.447082,2.625395 -1.329626,3.070035 0.03487,0.132 -0.133033,0.24 -0.373123,0.24 -1.47823,0 -2.181613,-7.23791 -1.368301,-14.08 0.282432,-2.376 0.661079,-5.832 0.84144,-7.68 0.667722,-6.841667 1.435197,-9.596397 4.14561,-14.88 2.75943,-5.379162 3.682717,-6.914928 5.017789,-8.346458 0.505993,-0.54255 1.204211,-1.47855 1.5516,-2.08 C 47.858998,38.412096 48.556179,37.2 49.060899,36.32 c 0.50472,-0.88 1.446391,-2.32 2.092599,-3.2 0.646211,-0.88 1.377366,-1.996 1.624787,-2.48 0.247424,-0.484 0.578029,-0.88 0.734675,-0.88 0.156646,0 0.202941,-0.132469 0.102877,-0.294376 -0.100064,-0.161907 0.215437,-0.606949 0.701113,-0.988982 0.485677,-0.382034 0.81105,-0.75484 0.72305,-0.828459 -0.088,-0.07362 0.272,-0.411976 0.8,-0.751904 0.528,-0.339929 1.602781,-1.202653 2.388403,-1.917165 C 59.014029,24.264601 59.753232,23.68 59.871082,23.68 c 0.117852,0 0.292384,-0.298687 0.387849,-0.663748 0.09547,-0.365062 0.467491,-0.740609 0.826723,-0.834551 0.359232,-0.09394 0.738244,-0.407254 0.842247,-0.696252 0.273651,-0.760393 3.019984,-2.678571 3.546013,-2.476714 0.245347,0.09415 0.446086,0.0232 0.446086,-0.157664 0,-0.180863 0.144,-0.239845 0.32,-0.131071 0.176,0.108774 0.32,0.06484 0.32,-0.09764 0,-0.326158 1.749872,-1.020005 4.537299,-1.799099 2.47272,-0.691133 7.869981,-0.260767 10.102531,0.805553 1.329351,0.634931 3.531008,2.191382 4.816212,3.404802 0.332224,0.313664 0.657299,0.245044 1.600432,-0.337831 0.650937,-0.402296 2.007712,-1.04106 3.015052,-1.419476 1.007338,-0.378417 2.531933,-1.241669 3.387984,-1.91834 0.856055,-0.676671 2.695866,-1.786773 4.088474,-2.466892 1.392608,-0.68012 2.892016,-1.475279 3.332016,-1.76702 2.50184,-1.658844 5.46477,-2.413484 11.36818,-2.895411 7.10266,-0.5798294 10.78729,0.237635 14.02643,3.111877 0.85503,0.758712 1.66802,1.379477 1.80664,1.379477 0.33981,0 2.10076,2.776285 3.08624,4.865709 0.43951,0.93186 0.96156,1.982291 1.1601,2.334291 0.59543,1.055659 2.82748,7.617284 2.89224,8.502437 0.0331,0.45234 0.3034,1.065852 0.60067,1.363359 0.29728,0.297506 0.7222,1.04341 0.94429,1.657564 0.22208,0.61415 0.51885,1.11664 0.65949,1.11664 0.14065,0 0.26117,0.18 0.26784,0.4 0.007,0.22 0.65525,0.903805 1.4413,1.519565 0.81686,0.639885 1.25726,1.176265 1.02789,1.25191 -0.22072,0.07279 -0.55262,0.337632 -0.73756,0.588531 -0.28627,0.388381 -0.52449,0.358061 -1.60282,-0.203993 -1.17409,-0.611975 -3.66093,-1.164163 -3.66093,-0.81289 0,0.08461 0.29908,1.307623 0.66461,2.717805 0.46096,1.778317 0.60356,3.02592 0.46535,4.071523 -0.37496,2.836624 -1.29585,5.827549 -1.79428,5.827549 -0.14668,0 -0.35388,0.468 -0.46045,1.04 -0.17103,0.917914 -0.0181,1.227827 1.30228,2.64 0.82283,0.88 1.89022,2.176 2.37198,2.88 0.97654,1.427027 2.65386,6.284522 3.24018,9.383472 0.44781,2.366896 0.20325,6.825027 -0.50033,9.120659 -0.26029,0.849271 -0.45458,1.641271 -0.43176,1.76 0.11602,0.603655 -0.49806,3.575869 -0.73881,3.575869 -0.15332,0 -0.25817,0.108 -0.23299,0.24 0.0252,0.132 -0.13451,0.712608 -0.35487,1.29024 -0.32221,0.844614 -0.48781,0.97791 -0.84578,0.680816 -0.24482,-0.203181 -0.44513,-0.551226 -0.44513,-0.773434 0,-0.222208 -0.35772,-0.6384 -0.79492,-0.924867 -0.4372,-0.286467 -0.88481,-0.87903 -0.99469,-1.316803 C 135.06052,79.078179 134.86534,78.72 134.73668,78.72 c -0.12868,0 -0.40796,-0.381907 -0.62064,-0.848682 -0.28526,-0.626076 -0.48062,-0.754736 -0.74485,-0.490512 -0.26422,0.264224 -0.25971,1.850736 0.0172,6.048682 0.20644,3.129782 0.37451,6.444765 0.37348,7.366627 l -0.002,1.676119 -1.02933,-0.08348 c -0.804,-0.0652 -1.25829,-0.397094 -2.07525,-1.516115 -0.57525,-0.787955 -1.2722,-1.720643 -1.54877,-2.072643 -0.48015,-0.611114 -0.49166,-0.596669 -0.25498,0.32 0.36636,1.418947 0.30825,3.52089 -0.17692,6.4 -0.61313,3.63847 -0.6175,3.648339 -1.26376,2.85687 -0.29781,-0.36472 -0.85451,-0.744988 -1.23711,-0.84504 -0.56061,-0.146601 -0.76147,0.0069 -1.03476,0.79088 -0.18646,0.535037 -0.33906,1.239306 -0.33906,1.56504 0,0.325744 -0.216,0.592254 -0.48,0.592254 -0.264,0 -0.48,0.144 -0.48,0.32 0,0.176 -0.29885,0.32 -0.66412,0.32 -0.53107,0 -0.64766,-0.17629 -0.58197,-0.88 0.0922,-0.98794 -0.27246,-2.320004 -0.63513,-2.320004 -0.13095,0 -0.49949,1.188 -0.81897,2.640004 -1.0235,4.65163 -2.02129,5.32226 -2.86028,1.92244 -0.29284,-1.18666 -0.79825,-2.42339 -1.12315,-2.748287 -0.5743,-0.574298 -0.61322,-0.568231 -1.39961,0.218166 -0.44489,0.444891 -0.72817,0.889621 -0.6295,0.988281 0.0987,0.0987 -0.043,0.1794 -0.31475,0.1794 -0.95971,0 -1.24469,0.77031 -0.78075,2.11037 l 0.4312,1.24549 0.54214,-1.04839 c 0.29818,-0.57662 0.67003,-0.96936 0.82633,-0.87276 0.1563,0.0966 -0.0911,0.74878 -0.54971,1.4493 -0.78697,1.20199 -0.86676,1.24393 -1.41781,0.74523 -0.32116,-0.29064 -0.58392,-0.72211 -0.58392,-0.95884 0,-0.23672 -0.144,-0.4304 -0.32,-0.4304 -0.176,0 -0.32,0.20591 -0.32,0.45758 0,0.25168 -1.116,1.0701 -2.48,1.81872 -1.364,0.74862 -3.128,1.88965 -3.92,2.53562 -0.792,0.64596 -2.016,1.39814 -2.72,1.6715 -0.704,0.27337 -1.95043,1.14301 -2.76985,1.93253 -2.568867,2.47516 -8.526428,4.11217 -11.15015,3.06383 z m 5.167184,-1.99514 c 2.190474,-0.51558 4.465808,-1.79895 5.214051,-2.94091 0.303615,-0.46338 1.346355,-1.19379 2.317205,-1.62315 0.97084,-0.42935 3.15486,-1.91589 4.85336,-3.30342 3.05595,-2.49643 11.64385,-11.034846 11.37211,-11.306581 -0.0774,-0.07745 0.4394,-0.665021 1.14855,-1.305702 0.70916,-0.640682 1.19465,-1.164877 1.07886,-1.164877 -0.11578,0 -0.003,-0.252 0.25173,-0.56 0.79913,-0.968144 1.55695,-2.939408 1.55695,-4.05001 0,-0.587564 -0.36,-2.171126 -0.8,-3.51903 -0.44,-1.347904 -0.8,-2.734285 -0.8,-3.080848 0,-0.34656 -0.18848,-0.630112 -0.41884,-0.630112 -0.86149,0 -1.42651,0.855667 -1.77849,2.693325 -0.40869,2.133693 -0.47532,2.254713 -1.10775,2.012029 -0.31819,-0.122103 -0.57538,-1.27464 -0.86572,-3.87953 L 116.37615,76.48 l -1.30807,0.0016 c -0.71945,9.6e-4 -2.713,0.09469 -4.43012,0.2084 l -3.12205,0.206742 0.80205,1.368583 c 0.44112,0.752723 0.80204,1.857293 0.80204,2.454598 0,1.494429 -0.86224,3.89305 -1.65634,4.607674 -0.65143,0.586233 -0.65123,0.579862 0.0191,-0.617386 0.93452,-1.669203 0.95482,-5.056493 0.0373,-6.222947 -0.352,-0.447494 -0.64,-1.012883 -0.64,-1.256419 0,-0.349312 -0.41833,-0.403709 -1.98157,-0.257674 -1.08987,0.101815 -2.0725,0.241312 -2.18364,0.309994 -0.11113,0.06868 -0.11942,0.742713 -0.0184,1.497849 0.16123,1.205501 0.29633,1.392852 1.10757,1.535952 1.26297,0.222784 1.70684,1.405044 0.77307,2.059085 -0.86506,0.605914 -1.85701,0.134051 -1.85701,-0.883363 0,-0.398608 -0.13292,-0.861542 -0.29537,-1.028742 -0.16246,-0.1672 -0.34246,-0.734768 -0.4,-1.261264 -0.10805,-0.988596 -0.7292,-1.337959 -1.49824,-0.842679 -0.58711,0.378119 -0.864336,4.131866 -0.40719,5.513648 0.19766,0.597463 0.86619,1.655251 1.48563,2.350643 l 1.12624,1.264349 2.58854,-0.377283 c 3.63141,-0.529283 5.88834,-1.716045 6.82998,-3.591414 0.39767,-0.792 0.89406,-1.96848 1.10309,-2.614404 0.46201,-1.427628 1.18061,-2.120307 1.68078,-1.620137 0.24845,0.248445 0.0535,1.054099 -0.68983,2.850438 -1.25687,3.037485 -1.29332,3.084311 -3.50975,4.510269 -1.53863,0.989882 -2.13459,1.172374 -4.49388,1.376086 -2.91238,0.251469 -5.75511,0.05027 -5.09078,-0.360307 0.28918,-0.178723 0.15303,-0.532685 -0.50517,-1.313305 -1.656562,-1.964708 -2.217948,-4.47313 -1.451967,-6.487808 0.171645,-0.45146 0.237962,-0.820832 0.147376,-0.820832 -0.09059,0 -0.907078,0.499945 -1.814425,1.110988 -0.907348,0.611044 -1.728468,1.03224 -1.824711,0.935997 -0.09624,-0.09624 0.08447,-0.320185 0.401581,-0.497651 0.317114,-0.177466 1.035914,-0.706666 1.597334,-1.176 0.561421,-0.469334 1.369418,-1.049949 1.795549,-1.290259 0.426131,-0.240307 1.401903,-0.787043 2.168393,-1.21497 1.47126,-0.821395 3.48681,-1.164912 10.68447,-1.820982 2.3754,-0.216519 3.98759,-0.498397 3.93001,-0.687123 -0.0537,-0.176 -0.23111,-2.41264 -0.39424,-4.970311 -0.28722,-4.503401 -0.93565,-7.30711 -1.59562,-6.899225 -0.1571,0.09708 -0.83406,1.331449 -1.50437,2.743027 -1.80579,3.802736 -2.02037,3.635984 -3.69754,-2.873491 -0.52149,-2.024 -1.17428,-4.205056 -1.45065,-4.846788 -0.27636,-0.641734 -0.60384,-1.649734 -0.72771,-2.24 -0.21045,-1.002809 -0.24882,-1.029993 -0.58489,-0.4144 -0.41976,0.76889 -1.36012,5.901101 -1.36162,7.431229 -0.001,1.262666 -0.77915,1.707328 -1.45223,0.830096 -0.58769,-0.765939 -2.06216,-5.321376 -2.08985,-6.456656 -0.0139,-0.570013 -0.17881,-0.265312 -0.48522,0.896519 -0.55201,2.093027 -3.123704,7.566636 -3.991384,8.49526 -0.336742,0.360397 -0.903699,1.502356 -1.259907,2.537693 -0.917581,2.666995 -2.252915,3.905965 -2.766704,2.567047 -0.353763,-0.921892 -0.735312,-0.46769 -0.94688,1.12718 -0.117258,0.883952 -0.319495,1.67288 -0.449411,1.753172 -0.129917,0.08029 -0.647085,0.958057 -1.149258,1.950585 -0.502173,0.992528 -1.348896,2.281107 -1.881606,2.863511 -0.532711,0.582403 -1.472567,1.64215 -2.088567,2.354988 -0.616,0.712842 -1.209737,1.299335 -1.319417,1.303319 -0.326013,0.01184 -0.281277,-2.717661 0.06356,-3.878023 0.474755,-1.597526 0.730311,-4.802732 0.401322,-5.033449 -0.157863,-0.110704 -0.778519,-1.713283 -1.379232,-3.561283 -1.223309,-3.763303 -2.341863,-6.077655 -3.432701,-7.102445 L 80,62.288438 79.95956,63.384221 c -0.08029,2.175581 -0.123719,2.484633 -0.386231,2.748121 -0.374076,0.375466 -0.948012,0.34553 -1.383635,-0.07217 C 77.84489,65.729552 75.844877,61.437891 75.365523,60 c -0.187411,-0.562163 -0.274608,-0.503782 -0.71696,0.48 -0.276979,0.616 -0.548621,1.264 -0.603645,1.44 -1.110121,3.550838 -1.547292,4.368077 -2.202208,4.116762 -0.483462,-0.185524 -1.285568,-3.114365 -0.985763,-3.59946 0.106419,-0.172195 0.06949,-0.389718 -0.08208,-0.483392 -0.254716,-0.157424 -2.032236,1.382055 -2.776246,2.404461 C 67.383958,65.203034 64.64,71.006656 64.64,71.462045 c 0,0.252073 -0.348403,1.246118 -0.774227,2.208982 -0.842176,1.904314 -1.678711,5.582704 -1.345405,5.916007 0.114115,0.114115 0.964499,-0.106285 1.889741,-0.489776 C 65.33535,78.713766 66.317334,78.4 66.592294,78.4 c 0.274957,0 1.482656,-0.308467 2.683773,-0.685482 2.125571,-0.66719 2.266544,-0.671907 5.282755,-0.1768 2.442858,0.400992 3.518314,0.758522 5.080026,1.688829 1.089616,0.649082 1.910099,1.251171 1.823296,1.337975 -0.0868,0.0868 -1.100979,-0.243021 -2.253722,-0.732944 -1.152745,-0.48992 -2.16055,-0.826119 -2.239564,-0.747101 -0.07902,0.07901 0.160611,0.969667 0.532505,1.979222 0.605386,1.643402 0.635744,2.016208 0.289987,3.5612 -0.608115,2.717357 -1.299097,2.928362 -0.757232,0.231239 0.433124,-2.155853 0.431277,-2.170013 -0.557875,-4.283783 l -0.992432,-2.120781 -1.941267,-0.0093 c -1.312515,-0.0063 -2.097344,0.146794 -2.423165,0.472615 -0.265043,0.265046 -0.653667,0.415987 -0.863606,0.335427 -1.078279,-0.413776 -1.854682,4.101974 -1.142563,6.645418 0.58288,2.081836 1.445984,2.540083 4.96679,2.637011 3.810982,0.104915 3.97464,0.127913 3.04,0.427238 -1.295872,0.415011 -5.470262,0.346954 -7.214762,-0.117625 C 67.362778,88.165296 66.90041,87.785155 65.895741,85.54593 64.805398,83.115766 64.82193,83.2 65.435392,83.2 c 0.261469,0 0.908803,0.858579 1.438525,1.907952 0.529721,1.049373 1.243216,2.05785 1.585545,2.241056 0.606813,0.324755 0.609786,0.296054 0.118685,-1.145251 -0.544963,-1.599379 -0.42215,-5.000423 0.224173,-6.208093 0.329498,-0.61567 0.27841,-0.637766 -1.027795,-0.444534 -0.755987,0.111836 -2.192058,0.561552 -3.191264,0.999366 -0.999207,0.437814 -1.972224,0.699933 -2.162259,0.582483 -0.474583,-0.293309 -0.632128,0.282231 -0.733879,2.68096 -0.105078,2.477223 -0.599046,2.805245 -1.516441,1.006999 C 59.805654,84.105421 59.36592,83.52 59.193498,83.52 c -0.739808,0 -0.04619,5.044634 0.971916,7.068634 0.140717,0.279747 0.137831,0.69959 -0.0064,0.932982 -0.200076,0.323731 -0.496624,0.18999 -1.250633,-0.564016 -0.543603,-0.543603 -0.994045,-0.891446 -1.000979,-0.772986 -0.0069,0.118464 -0.08204,1.131117 -0.16689,2.250343 l -0.154278,2.034957 1.446889,1.347408 c 0.795789,0.741072 1.44689,1.301344 1.44689,1.245043 0,-0.0563 0.266358,0.149635 0.59191,0.457635 1.198016,1.133434 1.844749,1.546832 3.481248,2.225238 0.920237,0.381482 2.216237,1.120272 2.88,1.641752 0.663763,0.52147 1.566842,1.05084 2.006842,1.17637 1.774051,0.50614 5.527645,2.47749 6.652774,3.49397 0.658083,0.59454 2.202426,1.53973 3.431869,2.10041 1.229446,0.56069 2.991386,1.6001 3.915424,2.30981 1.876662,1.44138 5.695418,2.75796 8.079933,2.7857 0.792,0.009 2.253232,-0.17466 3.247184,-0.40861 z m -7.936029,-8.47366 c 1.479296,-1.54405 4.040887,-2.61098 6.268701,-2.61098 1.690659,0 1.940144,0.0779 1.940144,0.60612 0,0.53237 -0.301741,0.6207 -2.48,0.726 -2.01409,0.0974 -2.868493,0.31571 -4.547914,1.16227 l -2.067913,1.0424 z m 2.189149,-5.707774 C 88.305654,98.311024 87.695872,97.61008 87.147571,96.510493 L 86.334534,94.88 l 1.572064,1.68 c 0.986471,1.054202 1.837812,1.68 2.285482,1.68 0.786394,0 3.246986,-1.155898 3.24951,-1.526502 0.0037,-0.539092 1.520973,-2.079127 1.848813,-1.876512 0.632499,0.390908 -1.481753,3.0916 -2.938022,3.75295 -1.605303,0.729037 -1.984471,0.737373 -3.332077,0.07327 z M 72.372003,84.203411 c -0.235398,-0.151683 -0.379398,-0.619504 -0.32,-1.0396 0.08019,-0.567129 0.340266,-0.790432 1.010016,-0.86719 0.845319,-0.09688 0.895607,-0.0367 0.8,0.957379 -0.104787,1.089536 -0.691945,1.463661 -1.490016,0.949411 z M 71.36,80.141114 c 0,-0.274388 0.144,-0.409888 0.32,-0.301114 0.176,0.108774 0.32,0.333274 0.32,0.498886 0,0.165613 -0.144,0.301114 -0.32,0.301114 -0.176,0 -0.32,-0.224499 -0.32,-0.498886 z m -7.802397,-3.600272 c -0.107049,-0.17321 0.452698,-1.034916 1.243882,-1.9149 0.791184,-0.879987 1.443693,-1.794819 1.450022,-2.03296 0.02291,-0.86214 1.48265,-2.190736 4.148493,-3.775811 3.970026,-2.360518 5.918643,-2.515408 8.021891,-0.637625 1.019751,0.910432 1.090663,1.10639 1.150928,3.180582 0.07434,2.558454 -0.22991,2.838438 -2.438259,2.243792 -0.713296,-0.19207 -2.412378,-0.295939 -3.775731,-0.230819 -2.107507,0.100665 -2.899191,0.318269 -5.285021,1.452649 -1.543408,0.733837 -2.990608,1.33425 -3.216,1.33425 -0.225395,0 -0.566355,0.156547 -0.75769,0.347882 -0.222912,0.222912 -0.417801,0.234752 -0.542515,0.03296 z M 68.224,73.92 c 0.3168,0 0.576,-0.112563 0.576,-0.250138 0,-0.543139 2.885434,-1.053878 5.974627,-1.057545 3.843136,-0.0046 4.255415,-0.244615 3.679575,-2.142471 C 78.21704,69.688208 77.752675,69.087878 77.100659,68.72 76.011414,68.105427 74.391066,67.976688 74.08,68.48 c -0.108774,0.176 -0.558957,0.32 -1.000406,0.32 -1.26802,0 -5.611328,3.73959 -5.979792,5.148602 -0.138109,0.528121 -0.09269,0.612288 0.182102,0.337494 C 67.483258,74.084742 67.9072,73.92 68.224,73.92 Z m 41.696,-2.898886 c -1.86156,-0.424576 -3.92533,-0.588954 -7.56439,-0.602493 L 97.351226,70.4 97.144275,69.296858 c -0.128531,-0.685124 -0.03221,-1.521348 0.254173,-2.206768 0.386992,-0.926202 0.66959,-1.138845 1.757843,-1.322704 0.713194,-0.120496 1.587209,-0.12688 1.942269,-0.01418 0.35505,0.112688 1.29023,0.257424 2.07819,0.321632 0.91933,0.07491 2.1897,0.555382 3.54551,1.340956 4.47708,2.59408 5.14466,2.944298 5.99774,3.146493 0.95871,0.227232 1.22944,1.14113 0.32,1.080221 -0.308,-0.02064 -1.712,-0.30025 -3.12,-0.621382 z m -2.145,-1.40945 c 0.30231,-0.302304 -0.71142,-1.190013 -2.24828,-1.9688 -1.4409,-0.730154 -3.52785,-0.977344 -6.701904,-0.793811 -0.639002,0.03695 -1.339322,1.920211 -1.021779,2.747709 0.203385,0.530016 0.591469,0.558844 5.018103,0.372771 2.63872,-0.110919 4.86795,-0.271959 4.95386,-0.357869 z M 56.177232,101.73212 c 0.118253,-0.19134 0.05475,-0.50814 -0.141114,-0.704 C 55.840253,100.83225 55.68,100.34641 55.68,99.948467 c 0,-0.397945 -0.263744,-0.981145 -0.586096,-1.296 -1.00999,-0.986505 -2.022294,-4.267085 -1.912518,-6.197913 0.08639,-1.519543 0.187865,-1.747229 0.818614,-1.83681 0.666301,-0.09463 0.72,0.02003 0.72,1.537555 0,0.901898 0.266778,2.243914 0.592842,2.982256 0.326064,0.738346 0.689452,1.615056 0.807532,1.948247 0.381773,1.07726 0.576784,0.292259 0.234951,-0.945764 -0.182234,-0.659987 -0.256999,-1.320249 -0.166144,-1.467251 0.211897,-0.342857 0.559225,-3.613699 0.539232,-5.078025 -0.0084,-0.618884 -0.344071,-1.698884 -0.745821,-2.4 C 54.399558,84.432109 53.76,82.829226 53.76,81.624426 53.76,80.367325 54.387024,79.36 55.169523,79.36 c 0.680631,0 0.750464,0.281651 0.423789,1.709232 -0.395638,1.728934 0.224298,3.142957 1.434496,3.271984 0.785174,0.08371 0.806339,0.02637 1.169395,-3.167981 0.844093,-7.426758 1.063789,-8.533235 1.69432,-8.533235 0.468074,0 0.586877,0.24552 0.580653,1.2 -0.0043,0.66 -0.159206,1.848 -0.344234,2.64 -0.317334,1.358326 -0.10887,5.687594 0.256285,5.322438 0.259523,-0.259523 1.023987,-4.154982 0.865667,-4.411152 -0.07718,-0.124886 0.006,-0.317513 0.184887,-0.42806 C 61.613651,76.852678 61.76,76.39649 61.76,75.949475 c 0,-0.447014 0.202061,-1.266515 0.449024,-1.821113 C 62.455987,73.573763 63.056627,72.04 63.543779,70.72 c 0.487149,-1.32 1.1696,-2.904 1.516554,-3.52 0.346953,-0.616 0.968365,-1.749782 1.380915,-2.519517 0.41255,-0.769734 1.328038,-2.026515 2.034422,-2.792851 0.706381,-0.766333 1.28433,-1.51055 1.28433,-1.653814 0,-0.494938 2.278426,-2.67433 2.658605,-2.543047 0.416429,0.143802 0.438355,1.090621 0.06274,2.709229 -0.162458,0.700054 -0.12367,1.04 0.118656,1.04 0.198,0 0.36,-0.165648 0.36,-0.368106 0,-0.736963 1.665466,-3.748544 2.182806,-3.947065 0.71617,-0.274819 1.517936,0.765286 1.770186,2.296409 0.110435,0.67032 0.489242,1.650762 0.841792,2.178762 0.581952,0.871565 0.641194,0.895347 0.643107,0.258144 C 78.399811,61.234038 79.44535,60.16 80.05105,60.16 c 0.558636,0 2.471248,2.467629 3.546169,4.575226 1.204816,2.362272 1.73793,3.828768 2.815456,7.744774 0.751882,2.732528 0.772791,3.714003 0.125555,5.893482 -0.275974,0.929305 -0.418956,1.772457 -0.317744,1.873673 0.302861,0.302858 2.400628,-2.21047 3.277828,-3.927155 0.449664,-0.88 0.973785,-1.794045 1.164713,-2.03121 0.408855,-0.507868 0.407827,-0.501628 0.809879,-4.914873 0.171667,-1.884346 0.409308,-3.583338 0.528096,-3.775536 0.329312,-0.532842 1.118998,0.258118 1.118998,1.1208 0,1.152195 0.377379,2.720819 0.654573,2.720819 0.210128,0 0.552749,-1.042365 0.70823,-2.154672 0.01885,-0.134931 0.357927,-0.499898 0.753475,-0.811037 C 96.655085,65.358259 99.84,57.398787 99.84,54.969062 c 0,-1.096876 1.38705,-2.639251 2.1204,-2.357836 0.27057,0.103824 0.62417,0.188774 0.78577,0.188774 0.16161,0 0.30033,1.044 0.30826,2.32 0.008,1.276 0.19451,2.742016 0.41461,3.257811 0.3962,0.928496 0.40895,0.910272 1.28317,-1.834189 0.93245,-2.927232 1.89055,-4.137248 2.64663,-3.342537 0.20874,0.219401 0.66533,1.406915 1.01465,2.638915 0.34933,1.232 0.78332,2.672 0.96443,3.2 0.68804,2.005862 1.29974,4.203734 1.49178,5.36 0.10962,0.66 0.30078,1.197795 0.4248,1.195101 0.37189,-0.0081 1.21192,-0.624493 0.8655,-0.635101 -0.21075,-0.0065 -0.2097,-0.09007 0.003,-0.244899 0.17769,-0.129306 0.60688,-0.775933 0.95377,-1.436947 0.63418,-1.208477 1.60213,-1.815111 2.09016,-1.309943 0.71985,0.745123 1.69061,4.753306 1.96463,8.111789 0.16514,2.024 0.47788,4.976 0.69498,6.56 l 0.39472,2.88 1.04569,-2.16 c 0.63008,-1.301523 1.24478,-2.16 1.54664,-2.16 0.37363,0 0.45081,0.203325 0.30365,0.8 -0.10852,0.44 -0.28347,1.146269 -0.38877,1.569488 -0.1475,0.592752 0.0335,0.969971 0.78815,1.642346 1.15695,1.030841 2.92332,5.356265 2.92332,7.158502 0,1.433251 -0.82298,4.015818 -1.66393,5.221562 -0.6248,0.895827 -0.61197,1.803846 0.0623,4.408102 0.15949,0.616 0.37184,1.516 0.4719,2 0.26551,1.28439 0.68114,1.080806 1.25964,-0.617005 0.58021,-1.702816 0.66085,-3.172041 0.19008,-3.462995 -0.176,-0.108774 -0.32,-0.631286 -0.32,-1.161142 0,-0.815956 0.11014,-0.947722 0.71983,-0.861114 0.55395,0.07869 0.86799,0.520765 1.36269,1.918282 0.35358,0.998812 0.73346,1.906617 0.84418,2.017344 0.36518,0.365315 1.23316,-2.795613 1.23316,-4.491293 0,-1.719619 -0.72969,-3.982077 -1.28429,-3.982077 -0.17364,0 -0.31571,-0.36 -0.31571,-0.8 0,-1.05095 0.42649,-1.009603 1.65037,0.16 0.5525,0.528 0.90623,0.96 0.78606,0.96 -0.12017,0 0.20217,0.41121 0.71631,0.913802 0.51414,0.502592 1.0215,1.186947 1.12746,1.520793 0.10596,0.333843 0.50229,0.800362 0.88074,1.036711 l 0.68809,0.429718 -0.17129,-5.550512 c -0.16218,-5.255526 -0.63946,-8.865238 -1.22158,-9.238957 -0.14431,-0.09265 -0.14143,-0.364137 0.006,-0.603312 0.63571,-1.028598 3.15286,0.710954 4.50183,3.111127 0.88205,1.569395 1.53226,1.918086 1.73295,0.929334 0.0791,-0.389786 0.21456,-1.068704 0.30099,-1.508704 0.0864,-0.44 0.32896,-1.376 0.53894,-2.08 0.20999,-0.704 0.44934,-2.036 0.53189,-2.96 0.0825,-0.924 0.28076,-1.68 0.44047,-1.68 0.15971,0 0.2905,-0.9 0.29063,-2 3.2e-4,-3.804122 -1.71603,-11.115546 -3.00563,-12.802454 -0.37104,-0.485351 -1.14262,-1.470976 -1.71462,-2.190279 -0.572,-0.719299 -1.04,-1.424713 -1.04,-1.567584 0,-0.299401 -1.26974,-0.02826 -1.30013,0.277639 -0.0111,0.111472 -0.13444,1.398838 -0.27413,2.860812 -0.25751,2.694816 -0.61384,3.529482 -1.32036,3.092829 -0.45959,-0.284045 -0.15146,-5.870157 0.35165,-6.374963 0.16663,-0.1672 0.30297,-0.567718 0.30297,-0.890042 0,-0.322326 0.216,-0.668931 0.48,-0.770236 0.264,-0.101309 0.48,-0.446503 0.48,-0.767101 0,-0.320599 0.19738,-0.780285 0.43862,-1.021527 0.55348,-0.553475 1.35504,-3.37574 1.62963,-5.737888 0.20416,-1.756163 -0.26764,-5.53768 -0.77219,-6.189206 -0.13629,-0.176 -0.33374,-0.68145 -0.43876,-1.123226 -0.10621,-0.446768 -0.65833,-1.073884 -1.24412,-1.413129 -0.57925,-0.33545 -1.52382,-1.015917 -2.09904,-1.512154 -0.57523,-0.496233 -1.40323,-0.991936 -1.84,-1.101558 -1.17829,-0.295731 -0.96315,-0.785495 0.24586,-0.559725 0.572,0.106816 1.4,0.522358 1.84,0.923427 1.70506,1.554195 7.04,4.154055 7.04,3.430775 0,-0.1012 -0.36,-0.655984 -0.8,-1.232855 -0.44,-0.57687 -0.8,-1.182659 -0.8,-1.346201 0,-0.163543 -0.432,-0.840951 -0.96,-1.505354 -0.59154,-0.744356 -0.96,-1.581621 -0.96,-2.181443 2e-5,-1.604465 -1.8275,-6.812287 -3.2209,-9.178557 -0.15545,-0.264 -0.82068,-1.523923 -1.47826,-2.799828 -0.65759,-1.275905 -1.41729,-2.393782 -1.68822,-2.484171 -0.27093,-0.09039 -1.0686,-0.677906 -1.7726,-1.305595 -1.98892,-1.773326 -4.11148,-2.615027 -7.21071,-2.85941 -2.9137,-0.229753 -10.64396,0.277676 -11.87735,0.779652 -0.41357,0.168316 -1.57089,0.548642 -2.57183,0.84517 -1.00094,0.296527 -2.11596,0.814973 -2.47783,1.152101 -0.36186,0.337129 -1.27091,0.902402 -2.020107,1.256163 -0.749194,0.353761 -1.879123,0.961063 -2.510951,1.34956 -3.606921,2.21782 -4.690697,2.813302 -5.411222,2.973204 -0.44,0.09765 -1.380813,0.383553 -2.090698,0.635347 C 89.039418,20.913987 88.22905,21.12 87.948483,21.12 c -0.280566,0 -0.689382,0.216 -0.908483,0.48 -0.310947,0.374667 -0.312458,0.48 -0.0069,0.48 0.215309,0 1.475018,1.080037 2.79935,2.400082 1.728474,1.722878 2.960864,2.641627 4.367712,3.25614 1.077908,0.470832 2.247831,1.100467 2.599831,1.399188 0.352,0.298722 1.036,0.669459 1.52,0.82386 0.484,0.154402 0.916,0.42473 0.96,0.60073 0.123984,0.495932 -1.764704,0.590578 -2.144221,0.107452 C 96.578086,29.957484 94.31489,28.572409 93.070995,28.179796 91.862202,27.798266 91.084893,27.174816 89.44,25.267512 88.638192,24.33779 87.066365,22.924858 85.6,21.815692 81.601107,18.790908 79.120022,17.739828 74.88,17.274296 73.193091,17.089083 72.546294,17.158756 71.457555,17.642962 70.719213,17.971333 69.980845,18.24 69.816739,18.24 c -0.164105,0 -0.477638,0.216 -0.696739,0.48 -0.219101,0.264 -0.641581,0.48 -0.938842,0.48 -0.297264,0 -0.855632,0.29361 -1.240819,0.652466 C 66.555152,20.211322 66.24,20.435861 66.24,20.351443 c 0,-0.459488 -1.997862,0.934687 -4.884493,3.408557 -0.359389,0.308 -0.811401,0.560338 -1.00447,0.560751 -0.495431,0.0011 -2.282701,1.622545 -2.714295,2.462519 -0.198745,0.386799 -0.792316,0.957846 -1.319046,1.268995 C 55.790963,28.363413 55.36,28.722079 55.36,28.8493 c 0,0.127221 -0.9,1.401936 -2,2.832701 -1.1,1.430764 -2.216,2.982489 -2.48,3.448274 -0.264,0.465786 -0.661325,1.043632 -0.882941,1.284103 -0.221619,0.24047 -0.32872,0.557312 -0.238006,0.704089 0.09071,0.146778 0.05604,0.315168 -0.07706,0.374202 C 49.326925,37.650154 47.68,40.247914 47.68,40.650493 c 0,0.189318 -0.431334,0.804406 -0.958518,1.366861 -0.527188,0.562457 -0.959188,1.124252 -0.96,1.248435 -9.6e-4,0.124185 -0.577482,1.048057 -1.281482,2.053053 -0.704,1.004992 -1.28,2.062585 -1.28,2.350208 0,0.287622 -0.127658,0.65975 -0.28368,0.82695 -0.655299,0.702234 -2.617488,4.650864 -2.447683,4.925613 0.101651,0.16448 -0.01594,0.415904 -0.261274,0.55872 -0.259222,0.150889 -0.672678,1.533149 -0.986985,3.299667 -0.297488,1.672 -0.668551,3.544 -0.82458,4.16 -0.266339,1.051488 -1.166931,9.674864 -1.512985,14.487139 -0.21928,3.049312 0.164653,6.312861 0.742656,6.312861 0.422899,0 0.601933,-0.568822 0.478419,-1.52 -0.02858,-0.22 0.122368,-0.4 0.335418,-0.4 0.213049,0 0.29398,-0.09338 0.179846,-0.207514 -0.114131,-0.114131 0.05035,-0.438131 0.365504,-0.72 0.315158,-0.281868 1.05712,-1.484486 1.6488,-2.672486 0.591683,-1.188 1.172899,-2.16 1.291594,-2.16 0.118694,0 0.904336,-0.93783 1.745872,-2.084067 1.690105,-2.302055 2.555561,-2.734051 3.818937,-1.906256 1.363731,0.893552 1.070707,1.705645 -1.661139,4.603683 -0.59449,0.630653 -1.359123,1.775181 -1.699187,2.543398 -0.340067,0.768221 -0.886426,1.776221 -1.214131,2.24 -0.327703,0.463783 -0.699684,1.347242 -0.826624,1.963242 -0.126938,0.616 -0.479415,1.553133 -0.783277,2.082515 -1.154039,2.010525 -1.721536,5.044384 -1.506669,8.054691 0.261123,3.658365 0.24985,3.597645 0.654502,3.525015 0.59489,-0.106775 0.816692,-0.654807 0.821767,-2.030445 0.005,-1.361389 0.919718,-3.686349 2.121254,-5.391776 0.371997,-0.528 0.964691,-1.618656 1.317095,-2.42368 0.640307,-1.462698 2.482108,-3.492045 3.171859,-3.494838 0.200921,-9.6e-4 0.458067,-0.37105 0.571433,-0.822743 0.250324,-0.997363 1.255012,-0.948873 1.400676,0.0676 0.10176,0.710109 -1.237997,2.033658 -2.058567,2.033658 -0.529366,0 -2.358381,2.455181 -2.360048,3.168013 -6.4e-4,0.281593 -0.260822,0.943987 -0.578141,1.471987 -1.333289,2.218506 -2.103571,5.022058 -2.12232,7.724506 -0.01142,1.645987 0.125904,2.787673 0.363943,3.02574 0.454483,0.454528 0.487952,0.32816 1.364086,-5.150246 0.472951,-2.957334 1.250336,-5.039494 2.143959,-5.742419 1.253692,-0.986154 1.770377,-0.877597 1.206153,0.253411 -0.754134,1.511702 -1.127222,4.238195 -0.904358,6.609008 0.115814,1.232 0.287139,2.371747 0.380723,2.532774 0.176291,0.303332 0.96441,-2.21814 1.153962,-3.691929 0.151804,-1.180298 1.197324,-4.521437 1.56488,-5.000845 0.529689,-0.69088 0.86831,-0.438784 0.86831,0.646432 0,1.555251 1.237562,5.731981 1.82584,6.162141 0.281565,0.205885 0.407629,0.543107 0.280144,0.749382 -0.129555,0.209626 0.201734,0.964547 0.751114,1.711587 0.540595,0.735098 0.982902,1.587674 0.982902,1.894615 0,0.306936 0.144,0.647076 0.32,0.755846 0.176,0.10877 0.32,0.47727 0.32,0.81889 0,0.67431 0.47185,0.83207 0.817232,0.27323 z M 119.81989,100.56 c 0.77171,-3.165958 0.84345,-5.2 0.1834,-5.2 -0.13603,0 -0.6311,0.503155 -1.10016,1.118122 -0.70136,0.919526 -0.81493,1.320172 -0.63942,2.255702 0.11737,0.625667 0.42124,1.345406 0.67525,1.599426 0.25402,0.25401 0.37217,0.60695 0.26256,0.7843 -0.10961,0.17735 -0.0636,0.32245 0.10229,0.32245 0.16587,0 0.39811,-0.396 0.51608,-0.88 z m -4.29499,1.34116 c 0.007,-0.44232 0.57542,-1.26751 0.75154,-1.09139 0.0832,0.0832 -0.053,0.43053 -0.3026,0.77189 -0.24961,0.34137 -0.45164,0.48514 -0.44894,0.3195 z"
         id="outline" />
    </g>
  </g>
</svg>
