<?xml version="1.0" encoding="UTF-8" standalone="no"?>
<!-- Created with Inkscape (http://www.inkscape.org/) -->

<svg
   version="1.1"
   id="svg579"
   width="192"
   height="288"
   viewBox="0 0 192 288"
   sodipodi:docname="head1.svg"
   inkscape:version="1.2.2 (732a01da63, 2022-12-09)"
   inkscape:export-filename="..\..\..\test\head1.png"
   inkscape:export-xdpi="96"
   inkscape:export-ydpi="96"
   xmlns:inkscape="http://www.inkscape.org/namespaces/inkscape"
   xmlns:sodipodi="http://sodipodi.sourceforge.net/DTD/sodipodi-0.dtd"
   xmlns="http://www.w3.org/2000/svg"
   xmlns:svg="http://www.w3.org/2000/svg">
  <sodipodi:namedview
     id="namedview2480"
     pagecolor="#ffffff"
     bordercolor="#000000"
     borderopacity="0.25"
     inkscape:showpageshadow="2"
     inkscape:pageopacity="0.0"
     inkscape:pagecheckerboard="0"
     inkscape:deskcolor="#d1d1d1"
     showgrid="false"
     inkscape:zoom="45.222222"
     inkscape:cx="116.64619"
     inkscape:cy="77.495086"
     inkscape:window-width="1920"
     inkscape:window-height="1001"
     inkscape:window-x="-9"
     inkscape:window-y="-9"
     inkscape:window-maximized="1"
     inkscape:current-layer="g589" />
  <defs
     id="defs583" />
  <g
     id="g585"
     transform="translate(9.1990172,-1.2938256)">
    <g
       id="g589"
       transform="translate(-3.5395604,4.7825143)">
      <path
         id="path267"
         style="fill:#ffffff;stroke:#1bff54;stroke-width:0.044226;stroke-opacity:0"
         d="m 74.712308,92.320035 c -0.682797,-0.120281 -1.473448,-0.392695 -2.228764,-0.767908 -1.292822,-0.642225 -2.208866,-1.340892 -3.800497,-2.898639 -0.96109,-0.940629 -1.548141,-1.468875 -1.867404,-1.680347 -0.207035,-0.137133 -0.410238,-0.178346 -0.410238,-0.0832 0,0.02866 -0.09965,-0.09256 -0.221456,-0.269368 -0.121801,-0.176808 -0.289953,-0.40506 -0.373672,-0.507228 -0.194294,-0.23711 -0.36819,-0.612084 -0.402234,-0.86734 -0.03218,-0.241278 -0.128854,-0.506245 -0.243396,-0.667105 l -0.08479,-0.119077 0.187344,-0.04744 c 0.38236,-0.09683 0.572808,-0.450011 1.650667,-1.49337 3.983367,-4.872125 8.54578,-7.794211 10.975088,-4.546612 0.207467,0.35099 1.035788,-0.550597 0.827277,-0.900968 0.01458,-0.01458 0.558367,0.146876 1.208421,0.358786 0.650054,0.21191 1.327505,0.414753 1.505446,0.450762 0.373695,0.07562 0.991847,0.08652 1.116724,0.01969 0.08427,-0.0451 0.08554,0.01109 0.08514,3.770271 -5.22e-4,4.960403 -0.04222,5.750051 -0.335285,6.349052 -0.125633,0.256784 -0.578119,0.776295 -0.64184,0.736913 -0.0218,-0.01348 -0.164037,0.04111 -0.316072,0.121308 -0.190762,0.100623 -0.427191,0.297123 -0.762914,0.634069 -0.267567,0.268542 -0.615847,0.579232 -0.773955,0.690423 -0.962789,0.677086 -2.453027,1.427836 -3.381021,1.703284 -0.438321,0.130103 -1.026419,0.134931 -1.712568,0.01406 z M 106.09828,89.1095 c -0.36652,-0.0455 -0.7269,0.03409 -1.28256,-0.109793 -0.32838,-0.08503 -0.40466,-0.387551 -0.99508,-0.446224 -0.17004,-0.0169 -0.25788,-0.202941 -0.27576,-0.229681 -0.0179,-0.02674 -0.0209,-0.138553 -0.007,-0.248472 l -0.21744,-0.08929 -0.3114,-0.409558 c -0.35327,-0.46464 -0.67191,-0.63171 -1.06518,-1.456245 -0.35095,-0.735813 -0.68159,-1.651502 -1.30773,-3.395427 -0.977708,-2.723138 -1.175916,-3.601006 -1.651742,-3.920784 l -0.183695,-0.123452 0.176904,-0.02576 c 0.0973,-0.01417 0.09203,-0.427791 0.150464,-0.459701 0.05843,-0.03191 0.383197,-0.347036 0.775755,-0.727307 1.033404,-1.001045 1.935944,-1.110369 2.530304,-1.148216 0.24799,-0.01579 0.17513,-0.780456 0.4103,-0.456796 2.45477,-1.849692 7.88195,-0.958123 9.58125,0.28339 -0.0199,-0.08988 0.1669,0.431204 0.2153,0.431204 0.10434,0 1.02243,0.347774 1.8454,1.071672 1.33368,1.17312 1.66449,1.397357 2.03501,1.613258 l 0.35715,0.208111 0.0892,0.29204 c 0.0812,0.266054 -0.11262,0.660169 0.27932,1.430367 0.20871,0.410118 0.65725,1.024611 0.61566,0.935851 -0.14231,-0.303725 0.0991,0.213399 0.004,0.23731 -0.27682,0.06948 -1.46073,1.086569 -2.66588,2.684765 -0.71467,0.947745 -0.72772,1.252842 -1.38498,1.720119 -1.48751,1.057522 -3.3788,2.005418 -4.96632,2.30508 -0.37995,0.07172 -0.79562,0.09653 -1.49069,0.10632 -0.49865,0.007 -1.10897,-0.106465 -0.75184,-0.07284 z M 74.712308,92.320035 C 73.39505,92.087988 71.609986,91.228274 70.496314,90.289549 70.350368,90.16653 70.091646,89.952716 69.921376,89.814406 69.751105,89.676097 69.203808,89.163324 68.70516,88.674913 67.708645,87.698855 67.107067,87.156906 66.805838,86.96385 c -0.202129,-0.129543 -0.400433,-0.166146 -0.400433,-0.07391 0,0.02866 -0.09965,-0.09256 -0.221456,-0.269368 -0.121801,-0.176808 -0.290425,-0.405636 -0.374721,-0.508508 -0.206823,-0.2524 -0.362666,-0.607882 -0.417695,-0.952776 -0.02812,-0.176236 -0.09533,-0.365528 -0.175696,-0.494804 l -0.130154,-0.209374 0.140205,-0.03025 c 8.947048,-7.553032 12.847141,-7.028237 13.494965,-6.954091 0.01491,-0.01491 0.548751,0.144805 1.186308,0.354926 0.637557,0.210121 1.312594,0.413238 1.500082,0.45137 0.38776,0.07886 1.016059,0.0918 1.143593,0.02355 0.08427,-0.0451 0.08554,0.01109 0.08514,3.770271 -5.22e-4,4.960403 -0.04222,5.750051 -0.335285,6.349052 -0.124133,0.253719 -0.577815,0.776483 -0.640338,0.737842 -0.114927,-0.07103 -0.84888,0.446759 -1.126746,0.794896 -0.576126,0.721825 -2.951314,2.06018 -4.241903,2.3902 -0.35088,0.08972 -0.992965,0.08042 -1.579383,-0.02288 z"
         inkscape:label="whites"
         sodipodi:nodetypes="ssssssssscscccsssssssssssscsssccsssscssssccssscsssssssscccssssssssscccsssssssscc"
         transform="translate(-5.6594568,-3.4886887)" />
      <path
         id="skin"
         style="fill:#bd8347;stroke-width:0.32"
         d="m 107.30539,53.169514 c -1.29144,0.01461 -2.77685,0.466959 -3.98894,1.538412 -1.05665,0.934043 -1.71993,1.123432 -4.956376,2.787109 -0.583575,0.300024 -1.610622,0.431024 -2.529296,0.327475 -0.652932,-0.0736 -1.532786,-1.098224 -1.836994,-0.881835 -0.444134,0.315922 -0.69107,1.924604 -1.836758,3.660825 -3.902959,5.914697 -4.785286,7.678865 -5.185126,7.431756 -0.14731,-0.09105 -0.446721,0.467842 -0.559091,0.915555 -0.26616,1.060492 -1.780841,2.161453 -2.637676,2.038298 -0.61633,-0.0886 -0.296444,0.09239 -0.307944,-2.258503 -0.0155,-3.182046 -1.242871,-4.89844 -3.814031,-6.994619 -0.683605,-0.55732 -3.064485,0.0061 -3.445925,0.687653 -0.327735,0.585637 -1.007253,1.170275 -1.900218,1.788393 -0.36414,0.252056 -0.403128,0.665152 -0.314128,0.809091 0.08896,0.143942 -0.427446,0.217525 -0.64903,0.217525 -0.72409,0 0.158596,0.638914 1.560546,1.037549 1.606215,0.456727 2.349665,0.906155 2.545515,3.276176 0.12987,1.57169 0.07165,1.804185 -0.496094,1.984375 -0.389645,0.12367 -0.636711,0.01951 -0.864851,-0.261719 -0.382065,-0.470975 -2.484004,-1.151335 -4.520584,-1.398265 -1.56052,-0.18921 -4.629875,0.928168 -6.802065,2.359203 -1.006808,0.663275 -2.357265,1.535953 -3.001953,1.939453 l -0.851467,0.535501 0.04845,-0.776464 c 0.393683,-1.9684 7.413671,-8.20698 8.268976,-7.351677 0.10834,0.108375 0.351946,-0.166094 0.351946,-0.459425 0,-0.434274 -0.597316,-0.522154 -2.056181,-0.522154 -0.985395,0 -2.351606,0.130819 -2.940621,0.410329 -1.23757,0.587259 -4.006472,3.415591 -4.006472,4.096986 0,0.25385 -0.538245,1.176479 -1.15424,2.091854 -0.879864,1.307465 -0.987551,2.105043 -0.988511,3.273878 -0.0012,1.54176 -0.680233,3.014589 -2.08789,4.527344 -2.14137,2.301215 -2.849147,5.507832 -2.044922,9.257812 0.60987,2.843735 5.606615,9.223766 8.379194,10.508981 0.654078,0.303184 1.856327,0.847844 2.468462,1.305474 0.612125,0.45762 1.198816,1.0014 1.378686,1.0323 0.969425,0.16618 4.777012,2.00011 6.285377,3.14153 0.955785,0.72327 1.96544,1.31445 2.24414,1.31445 0.820115,0 3.74733,1.15745 4.771485,1.88672 0.520375,0.37054 1.058042,0.67383 1.195312,0.67383 0.51303,0 4.641518,1.96857 6.205078,2.95898 0.61268,0.38809 1.909545,0.87665 2.88086,1.08594 2.248485,0.48449 2.102485,0.47173 2.359375,0.21484 0.120925,-0.12092 0.469027,-0.25267 0.773437,-0.29297 1.490255,-0.19753 2.871065,-0.0826 3.89725,-0.70588 1.91433,-1.16269 3.613935,-2.78676 3.833145,-3.47744 0.11525,-0.36311 0.56858,-1.07653 1.1167,-1.61267 0.54807,-0.53613 1.47864,-1.62211 2.09312,-2.41211 0.61447,-0.79001 1.49179,-2.35404 2.32932,-3.17862 1.49519,-1.47202 1.92008,-1.24367 1.92708,-3.22786 0.004,-1.111415 0.0698,-2.768834 0.22266,-3.427084 0.36251,-1.56093 3.21041,-4.697239 4.77084,-5.355469 0.65869,-0.277855 1.42897,-0.809259 1.73697,-1.053384 0.59139,-0.46876 1.00506,-1.046875 0.52343,-1.046875 -0.57344,0 -1.62735,-2.890096 -1.62236,-4.785311 0.005,-1.94121 0.73543,-4.20592 1.32618,-4.20592 0.60499,0 1.99884,-2.210225 2.15759,-3.41345 0.0874,-0.662455 0.28772,-1.097168 0.44532,-1.155868 0.15759,-0.05867 0.19872,-0.718749 0.19872,-1.061924 0,-0.80892 -1.6267,-4.288871 -2.03628,-4.288871 -0.17387,0 -0.44702,1.37245 -0.44702,2.52202 0,1.459835 -0.078,1.7621 -0.35873,1.75 -0.21999,-0.0095 -0.79961,-0.927267 -1.51757,-2.369792 -0.71798,-1.44252 -1.90516,-3.747764 -2.65602,-5.201861 -1.60602,-3.109974 -1.80835,-5.215604 -1.17016,-8.597885 0.4099,-2.172425 0.20768,-2.567985 -0.55044,-3.199257 -0.50902,-0.423851 -1.38434,-0.421223 -2.1592,-0.412455 z m -13.47982,9.104818 2.817708,-0.440755 c 2.938725,0.130294 3.232585,0.421919 5.485672,1.518229 1.364,0.663699 2.70964,1.167111 2.70964,1.323568 0,0.156461 0.12165,0.984442 0.32747,0.451823 0.0982,-0.254089 0.98024,0.15949 1.36784,0.557942 0.3876,0.398461 0.84999,1.114049 1.33399,1.361329 0.484,0.247278 1.1289,0.37779 1.1289,0.519531 0,0.141741 0.29572,0.693327 0.83464,0.972005 0.7133,0.368859 0.76606,0.488428 0.69336,0.996745 -0.12476,0.872535 -0.39862,0.889118 -1.56901,0.249348 -0.49754,-0.271955 -1.21679,-0.649841 -1.54753,-0.713541 -0.33075,-0.06369 -0.9793,-0.44424 -1.64388,-0.895834 -0.66458,-0.451588 -1.36858,-0.780598 -1.56445,-0.780598 -0.19586,0 -0.60875,-0.262046 -0.94402,-0.634114 -0.56442,-0.626414 -1.35946,-0.936769 -4.470696,-0.805991 -2.529415,0.106323 -3.64087,0.291707 -4.815755,0.815105 -0.858365,0.382392 -1.04038,0.820312 -1.19401,0.820312 -0.56761,0 -0.450246,-2.849099 0.239584,-4.274089 z M 71.476706,65.55183 c -0.111258,-1.4e-5 -0.182772,0.102718 -0.298272,0.148938 -0.25527,0.102153 -0.179416,0.178 0.193359,0.19336 0.3373,0.01389 1.034495,-0.0064 0.928155,-0.112726 -0.05316,-0.05316 -0.700932,-0.229557 -0.812193,-0.229571 z m 31.587764,4.93026 c 1.0313,0.42464 1.16391,-0.498417 2.35029,0.201096 0.92972,0.54818 1.82835,0.996094 1.9961,0.996094 0.16775,0 0.86309,0.505094 1.54492,1.121094 0.68184,0.615995 1.47506,1.11914 1.76172,1.11914 0.28667,0 0.54156,0.180391 0.56836,0.400391 0.14352,1.177825 0.12887,1.390976 -0.1211,1.728516 -0.16386,0.221255 -0.0116,0.830587 0.38086,1.529297 0.86315,1.53677 0.83238,1.757876 -0.38867,2.894531 -0.572,0.532465 -1.27234,1.399739 -1.55664,1.927734 -0.36161,0.67155 -1.27411,1.339008 -3.03906,2.220703 -2.07926,1.038685 -2.88941,1.270107 -4.60352,1.316407 -2.098785,0.0567 -4.437493,-0.772846 -4.098153,-1.321921 0.09899,-0.16017 0.007,-0.281977 -0.312003,-0.514017 -0.656985,-0.477925 -1.271513,-1.729549 -2.330078,-4.740234 -0.699635,-1.98985 -1.378387,-3.792174 -1.913412,-4.019034 -1.018515,-0.43187 1.526098,-2.834506 4.158203,-4.122281 1.275265,-0.623925 2.220417,-0.757813 4.012673,-0.861558 0.57271,-0.03315 0.87007,-0.172189 1.21386,-0.03063 z m -4.018849,1.19719 c -0.17253,0 -0.12733,0.202969 0.09961,0.449219 0.226935,0.24629 0.46379,0.398339 0.52539,0.339844 0.18981,-0.18031 -0.2927,-0.789063 -0.625,-0.789063 z M 69.9656,72.376986 c 1.654794,0.04436 3.76316,0.442805 5.992131,1.403857 l 0.928497,0.626122 0.110565,5.061378 c 0.1124,5.145362 -0.01342,5.25394 -0.800781,6.103515 -0.396206,0.427514 -0.817075,0.704172 -1.013672,0.689453 -0.0063,0.0206 -0.01942,0.03912 -0.0332,0.05469 -0.0263,0.02548 -0.05542,0.04731 -0.08789,0.06445 -0.0017,7.65e-4 -0.0042,0.0012 -0.0059,0.002 -0.0035,0.0045 -0.0063,0.0091 -0.0098,0.01367 -0.03802,0.04742 -0.07795,0.0937 -0.111328,0.144531 -0.01839,0.02801 -0.04091,0.04317 -0.06055,0.04883 4.48e-4,0.0072 -6.2e-4,0.01214 0,0.01953 0.02413,0.287155 -0.197572,0.498184 -0.442057,0.583984 -0.230929,0.08101 -0.274743,0.13931 -0.223958,-0.0078 -0.01685,0.01529 -0.03635,0.02803 -0.05664,0.03906 -0.03828,0.02065 -0.07941,0.03664 -0.121094,0.04883 -0.02515,0.0063 -0.0116,0.0034 -0.03711,0.0078 -0.03068,0.0053 -0.05386,-3.25e-4 -0.06836,-0.01172 0.0049,0.02407 0.0065,0.04921 0.01953,0.07031 0.1834,0.29675 -0.579331,0.792923 -2.007161,1.580078 -1.236605,0.68174 -2.722495,0.710935 -3.94336,0.07422 -0.504115,-0.26292 -1.134583,-0.457682 -1.439453,-0.457682 -0.738845,0 -4.849517,-3.326498 -5.51237,-4.526693 -0.288652,-0.522635 -0.703828,-1.144887 -0.923828,-1.382812 -0.22,-0.23793 -0.400391,-0.657574 -0.400391,-0.933594 0,-0.27603 -0.252547,-0.696594 -0.560547,-0.933594 -0.511873,-0.393875 -0.05539,-0.462542 2.014661,-2.440912 1.245558,-1.190395 2.427698,-2.514369 2.680383,-2.889929 0.425892,-0.632985 1.510914,-1.398824 3.812539,-2.576979 0.631571,-0.323291 1.219806,-0.523262 2.21268,-0.496649 z m 28.050724,0.456591 c -0.031,-0.04552 -0.0725,0.02953 -0.123046,0.224609 -0.08244,0.31828 -0.07006,0.787296 0.02734,1.041016 0.09736,0.25372 0.362371,0.449447 0.587891,0.435547 0.32123,-0.01978 0.322925,-0.06108 0.0098,-0.1875 -0.22,-0.08877 -0.4171,-0.544347 -0.4375,-1.013672 -0.01251,-0.287655 -0.03345,-0.454485 -0.06445,-0.5 z m -1.089843,0.248047 c -0.03364,0.03364 -0.05675,0.145641 -0.06445,0.332031 h 0.002 c -0.01389,0.3373 0.06164,0.526252 0.167968,0.419922 0.1063,-0.10634 0.11583,-0.382296 0.02344,-0.613281 -0.05106,-0.12764 -0.09526,-0.172317 -0.128906,-0.138672 z m -23.25586,1.917969 c -0.04225,0.04998 0.06414,0.294372 0.291016,0.640625 0.3025,0.461665 0.609694,0.839843 0.683594,0.839843 0.231475,0 -0.513413,-1.232627 -0.882813,-1.460937 -0.04833,-0.02987 -0.07771,-0.03619 -0.0918,-0.01953 z m 35.842679,7.162989 c -0.088,0 -0.56504,0.559656 -0.9784,0.999656 -0.41336,0.439995 -0.85658,0.356886 -0.76858,0.356886 0.088,0 0.49875,-0.358833 0.91211,-0.798828 0.41336,-0.44 0.92287,-0.557714 0.83487,-0.557714 z m -45.635647,3.917089 c -0.01652,0.01652 0.08028,0.146625 0.279296,0.40039 0.24155,0.308 0.494047,0.560547 0.560547,0.560547 0.26337,0 0.09359,-0.263605 -0.439453,-0.68164 -0.253769,-0.19902 -0.383873,-0.295815 -0.40039,-0.279297 z m 11.167968,0.171875 c -7.72e-4,0.0018 -0.003,0.0038 -0.0039,0.0059 0.0027,0.0025 0.0051,0.0054 0.0078,0.0078 0.0049,-0.0037 0.0091,-0.0077 0.01367,-0.01172 -0.0064,-8.32e-4 -0.01208,-4.39e-4 -0.01758,-0.002 z m 16.650391,1.728515 c 0.08118,0.13487 -0.08392,0.701818 -0.417969,1.757813 -0.598657,1.89248 -1.963183,3.367734 -3.228515,4.044922 -0.968505,0.518327 -1.820646,0.532982 -2.892579,-0.181641 -0.527995,-0.352 -0.714243,-0.316825 -1.68164,-1.263672 -0.768567,-0.752241 -2.240152,-1.78329 -1.919922,-2.103515 0.10985,-0.10985 0.0083,0.04981 0.396484,0.505859 1.194265,1.402935 3.821291,3.083984 5.001953,3.083984 1.622363,0 3.45189,-2.255893 4.333985,-4.859375 0.01353,-0.362078 0.07974,-0.831417 0.408203,-0.984375 z m -1.677734,12.429689 c 0,0 3.852842,0.1511 3.244217,0.75973 -0.29346,0.29345 -0.103362,0.37922 -0.587967,0.0767 -0.34521,-0.2156 -1.581109,-0.12545 -2.746094,-0.12545 -1.79248,0 -2.330081,-0.1433 -3.134651,0.53365 -1.46676,1.23421 -1.395611,1.41046 0.02811,0.1242 1.175415,-1.06192 1.167296,-1.34099 3.196386,-1.36879 z"
         sodipodi:nodetypes="sscsssssscscscsssssssccccsssssccssscssssssscssssccsssscsssssssscsssccssssssscsssscsssccssssssssssscscssssscsssssssccscccsscccccsccccccsccsssssssssscccccscsccccccsccsssssssssssssssssccccscssssscscccscscscc" />
      <path
         style="fill:#984b11;stroke-width:0.32"
         d="m 67.646191,86.517512 c -1.149075,-0.64623 -3.358892,-3.058246 -3.239602,-3.599826 0.064,-0.290554 -0.161536,-1.489992 0.03113,-1.451617 0.192665,0.03837 1.18003,0.882732 1.394459,0.624355 0.214432,-0.258375 0.589028,-0.31352 0.756048,-0.31352 0.167021,0 0.516474,-0.212797 0.776557,-0.472883 0.367754,-0.367751 0.602243,-0.392093 1.054755,-0.109498 0.776986,0.485239 1.567444,0.13977 1.943533,-0.849417 0.389037,-1.023248 0.90481,-1.563536 1.789636,-0.545896 0.382576,0.44 1.357974,0.255156 1.711139,0.255156 0.519337,0 0.342342,1.294655 0.342342,2.191874 0,0.614472 -0.125194,1.456878 -0.647708,2.085555 -0.634765,0.763736 -1.776598,1.301264 -2.982433,1.868074 -1.676043,0.787834 -2.026291,0.825813 -2.929859,0.317653 z m 0.654865,-2.585742 c -0.09852,-0.09852 -0.08996,0.027 -0.210125,0.342582 -0.173658,0.456064 -0.293153,0.409487 0.02289,0.0958 0.218694,-0.217068 0.285764,-0.33986 0.187239,-0.438385 z M 70.9834,83.70532 c -0.316039,-0.313684 -0.134044,-0.297761 0.03961,0.158303 0.120169,0.31559 0.122018,0.347356 0.220542,0.248831 0.09852,-0.09852 -0.04146,-0.190066 -0.260156,-0.407134 z m -4.220542,-0.648416 c 0,-0.352 -0.03983,-0.48375 -0.215834,-0.48375 -0.176,0 -0.247083,0.183833 -0.247083,0.535833 0,0.352 0.0086,0.473334 0.184583,0.473334 0.176,0 0.278334,-0.173417 0.278334,-0.525417 z m 5.579166,-0.09375 c 0.108774,-0.176 0.118187,-0.08042 -0.0682,-0.08042 -0.186387,0 -0.193053,0.019 -0.193053,0.195 0,0.176 -0.05108,0.195 0.02653,0.195 0.07761,0 0.125945,-0.133583 0.234719,-0.309583 z m 29.549456,0.10235 c -0.10586,-0.17129 -0.75286,-0.266449 -1.36138,-0.555211 -1.181635,-0.560723 -1.88576,-1.820492 -1.079533,-2.489602 0.263998,-0.219101 0.995623,-0.572483 0.995623,-0.976265 0,-0.901661 -0.0223,-1.491979 1.149,-1.049867 0.6399,0.241536 1.55695,0.547543 1.96996,0.28962 0.46477,-0.29025 0.61892,-0.929791 0.92466,-0.440223 0.23519,0.376608 1.57113,1.091741 2.16471,1.091741 0.84142,0 0.51979,0.564655 0.51979,1.374578 0,1.775462 -4.47902,4.055827 -5.28283,2.755235 z m 0.0533,-2.628563 c -0.10216,-0.255274 -0.17798,-0.17945 -0.19334,0.193334 -0.0139,0.337331 0.0617,0.526333 0.16807,0.42 0.10634,-0.106336 0.1177,-0.382336 0.0252,-0.613334 z m 2.20024,-7.790176 c -0.34163,-0.25844 -0.46726,-0.469861 -0.27917,-0.469861 0.18808,0 0.52124,0.216 0.74034,0.48 0.4983,0.600422 0.34155,0.596963 -0.46116,-0.01018 z"
         id="lower_eye" />
      <path
         style="display:inline;fill:#6e4524;stroke-width:0.32"
         d="m 65.769981,85.310613 c -0.816083,-0.872461 -1.483789,-1.816957 -1.483789,-2.098887 0,-0.281926 -0.108,-0.446249 -0.24,-0.365164 -0.132,0.08108 -0.256832,-0.300026 -0.277402,-0.846916 -0.02058,-0.546889 -0.175116,-1.040249 -0.343433,-1.096355 -0.367175,-0.12239 -0.149027,-2.002973 0.297296,-2.562864 0.17383,-0.218061 0.452355,-0.312237 0.618947,-0.20928 0.166589,0.10296 0.05443,0.368874 -0.249232,0.590919 -0.518723,0.379299 -0.519882,0.484304 -0.01914,1.735756 0.293136,0.732618 0.532973,1.755056 0.532973,2.272084 0,0.952672 1.750416,2.982939 3.144167,3.766773 0.502486,0.282592 0.424918,0.382855 0.01962,0.390494 -0.283917,0.0053 -1.183917,-0.704099 -2,-1.57656 z m 4.264192,1.068022 c 0.64537,-0.322583 1.98712,-1.129498 2.56153,-1.538516 0.574409,-0.409014 0.970847,-0.442684 0.830047,-0.21486 -0.371539,0.601162 -3.098201,2.273866 -3.682208,2.258893 -0.273542,-0.007 -0.354727,-0.182932 0.290631,-0.505517 z m 3.860461,-2.869254 c 0.283484,-0.473123 0.321232,-1.125472 0.129616,-2.24 -0.148692,-0.864864 -0.232324,-1.914403 -0.185847,-2.332314 0.04648,-0.41791 -0.192861,-1.06591 -0.531859,-1.44 -0.338998,-0.374089 -0.705946,-1.060003 -0.81544,-1.524249 -0.142701,-0.605053 -0.564218,-0.990189 -1.48847,-1.36 -1.74993,-0.700183 -2.211204,-0.656704 -3.772388,0.355587 -1.438928,0.933017 -1.664393,1.477427 -0.809913,1.955616 0.466064,0.260825 0.481494,0.426022 0.121056,1.296192 -0.29464,0.711328 -0.315411,1.114953 -0.07245,1.407712 0.207827,0.250419 0.229795,0.589792 0.05634,0.870445 -0.341145,0.551987 -0.444384,0.454611 -0.875548,-0.825837 -0.26593,-0.789738 -0.235136,-1.045133 0.155737,-1.29169 0.629824,-0.397283 0.248752,-1.718838 -0.500848,-1.736944 -0.383187,-0.0092 -0.215504,-0.292771 0.581565,-0.983293 1.704899,-1.477001 2.838602,-1.97416 4.052573,-1.777158 1.347961,0.218742 2.987427,1.36249 2.987427,2.084128 0,0.300902 0.265142,0.774115 0.589206,1.05159 0.866932,0.742288 1.258333,5.938253 0.501661,6.65968 -0.478934,0.456628 -0.48912,0.442532 -0.122425,-0.169465 z M 101.36164,83.06755 c -0.4155,-0.346144 -0.59308,-0.634144 -0.39463,-0.64 0.19845,-0.0059 0.54008,0.205354 0.75918,0.469354 0.69869,0.841869 2.18213,0.570269 3.70614,-0.678547 1.72486,-1.413395 1.864,-1.18856 0.21386,0.345581 -1.42301,1.322985 -3.0688,1.516432 -4.28455,0.503612 z m -1.555446,-0.989532 c 0,-0.186388 0.144,-0.249888 0.319996,-0.141114 0.176,0.108774 0.32,0.261274 0.32,0.338886 0,0.07761 -0.144,0.141114 -0.32,0.141114 -0.175996,0 -0.319996,-0.152499 -0.319996,-0.338886 z m -1.10645,-1.666839 c -0.32151,-0.744851 -0.739504,-1.550886 -0.928877,-1.79119 -0.418313,-0.530816 -0.531587,-1.963085 -0.155257,-1.963085 0.148819,0 0.426832,0.447625 0.426832,0.975625 0,0.599526 0.0865,0.913125 0.360288,0.913125 0.575727,0 1.333804,2.767573 1.026678,3.074703 -0.0798,0.0798 -0.408154,-0.464327 -0.729664,-1.209178 z m -30.683955,0.460528 c -0.29128,-0.321859 -0.529597,-0.897859 -0.529597,-1.28 0,-0.771667 1.042051,-1.974803 1.710403,-1.974803 0.614224,0 1.491831,1.060682 1.477072,1.785197 -0.0085,0.418624 -0.156765,0.282947 -0.464553,-0.425197 -0.462279,-1.063587 -0.69033,-1.185914 -1.576749,-0.845763 -0.658563,0.252713 -0.672778,2.149129 -0.02016,2.690745 0.397725,0.330084 0.601159,0.299128 1.12,-0.170416 0.231571,-0.209569 0.756462,-1.171272 0.864917,-1.176106 0.207187,-0.0092 -0.188185,1.170805 -0.61492,1.59754 -0.55441,0.55441 -1.356896,0.472304 -1.966404,-0.201197 z m 38.859261,-1.104845 c -0.0175,-0.540243 -0.24895,-0.968096 -0.58886,-1.08864 -0.308,-0.109228 -0.812,-0.415027 -1.12,-0.679555 -0.49992,-0.42936 -0.62278,-0.424141 -1.1452,0.04864 -0.74495,0.674179 -1.22827,0.697351 -0.55766,0.02675 0.68312,-0.68312 0.64663,-0.839667 -0.43804,-1.878841 -1.01279,-0.970311 -1.9391,-0.934068 -1.9391,0.07587 0,0.326845 0.35943,0.931933 0.79874,1.34464 1.02629,0.96415 0.80086,1.186163 -0.45259,0.445731 -0.94613,-0.558893 -0.94554,-0.370814 -1.36674,0.2052 -0.578277,0.790858 -1.348605,0.189572 -0.889014,-0.669177 0.182668,-0.341318 0.507056,-0.623696 0.720868,-0.627504 0.213806,-0.0038 0.604736,-0.464358 0.868736,-1.023446 0.6408,-1.357053 0.94097,-1.389015 2.20472,-0.234749 0.84356,0.770464 1.25955,0.93793 1.95206,0.785827 0.70779,-0.155456 0.91365,-0.06483 1.05168,0.463002 0.23046,0.881283 0.62888,-0.007 0.67024,-0.90746 0.023,-0.50175 0.54828,0.458029 0.76286,1.262445 0.19831,0.743446 0.009,1.55639 -0.1915,2.255625 -0.30058,1.045526 -0.31319,1.052762 -0.34098,0.195638 z M 71.966192,79.056904 c 0,-0.293334 0.1548,-0.481734 0.344,-0.418666 0.1892,0.06307 0.344,0.251466 0.344,0.418666 0,0.1672 -0.1548,0.3556 -0.344,0.418666 -0.1892,0.06307 -0.344,-0.125332 -0.344,-0.418666 z m -4.003168,-2.725126 c -0.07424,-0.120128 0.206365,-0.401104 0.623578,-0.624388 0.735273,-0.393507 1.45959,-0.248563 1.45959,0.29208 0,0.329207 -1.897965,0.631972 -2.083168,0.332308 z m 29.237229,-1.001021 c -0.130685,-1.107197 -0.10009,-1.151869 0.605248,-0.883699 0.408589,0.155344 0.917897,0.248112 1.131792,0.206147 0.613197,-0.120307 1.166867,-1.287495 0.978321,-2.062375 -0.13727,-0.564118 -0.07827,-0.936661 0.603946,-1.107887 1.09906,-0.275843 4.06705,0.04089 4.68162,0.550933 1.01381,0.841388 2.47212,4.451778 1.90059,4.451778 -0.17048,0 -0.7787,-0.628327 -0.7787,-0.899757 0,-0.5204 0.0922,-0.540378 -1.38929,-2.292528 -0.84604,-1.00055 -1.18884,-0.918145 -2.74781,-0.9325 -1.5107,-0.01392 -1.5804,-0.265955 -1.58488,0.296035 -0.003,0.352 -0.24878,1.089184 -0.5466,1.638189 -0.422781,0.779357 -0.706567,0.96663 -1.2945,0.85424 -0.558918,-0.106845 -0.839238,0.04827 -1.087552,0.601811 -0.316787,0.706173 -0.341849,0.683859 -0.472185,-0.420387 z m 6.658437,-0.472453 c -0.45137,-0.16191 -0.3803,-1.190775 0.0527,-1.190775 0.41922,0 1.19489,1.130477 0.89971,1.29833 -0.14055,0.07992 -0.63866,0.158865 -0.85866,0.08003 z m -2.40726,-1.031894 c -0.38099,-0.992838 0.90676,-1.438885 1.60683,-0.595355 0.27638,0.333021 0.15195,0.633816 -0.44517,0.905883 -0.62067,0.282794 -1.01028,0.08394 -1.16166,-0.310528 z"
         id="eye_outline" />
      <path
         style="display:inline;fill:#853c05;stroke-width:0.32"
         d="m 68.075217,84.243102 c 0.120169,-0.31559 0.299101,-0.49319 0.397625,-0.394665 0.09853,0.09853 2.05e-4,0.356733 -0.218489,0.573801 -0.316039,0.313684 -0.352794,0.276928 -0.179136,-0.179136 z m 2.88,-0.452396 c -0.173658,-0.456064 -0.136903,-0.49282 0.179136,-0.179136 0.218694,0.217068 0.317014,0.475276 0.218489,0.573801 -0.09852,0.09853 -0.277456,-0.07907 -0.397625,-0.394665 z m -4.660573,-0.733802 c 0,-0.352 0.144,-0.64 0.32,-0.64 0.176,0 0.32,0.288 0.32,0.64 0,0.352 -0.144,0.64 -0.32,0.64 -0.176,0 -0.32,-0.288 -0.32,-0.64 z m 5.76,0 c 0,-0.176 0.152499,-0.32 0.338886,-0.32 0.186388,0 0.249888,0.144 0.141114,0.32 -0.108774,0.176 -0.261274,0.32 -0.338886,0.32 -0.07761,0 -0.141114,-0.144 -0.141114,-0.32 z M 64.28089,80.885691 C 63.924209,79.7858 63.820548,79.003 64.0069,78.816648 c 0.543235,-0.543235 1.429379,-0.09624 1.745037,0.880256 0.403341,1.247738 0.519325,1.355603 0.861801,0.801466 0.173453,-0.280653 0.151485,-0.620026 -0.05634,-0.870445 -0.242966,-0.292759 -0.222195,-0.696384 0.07245,-1.407712 0.360438,-0.87017 0.345008,-1.035367 -0.121056,-1.296192 -0.738234,-0.413133 -0.667869,-0.989655 0.185859,-1.522813 0.396,-0.247309 0.792,-0.451661 0.88,-0.454118 0.088,-0.0026 0.350285,-0.194759 0.582858,-0.427328 0.232562,-0.232573 0.69765,-0.422858 1.033516,-0.422858 0.936816,0 3.20208,0.991245 3.002659,1.313914 -0.09725,0.157347 -0.02432,0.286086 0.162074,0.286086 0.186387,0 0.338886,0.265683 0.338886,0.590403 0,0.324723 0.271386,0.836003 0.603078,1.136183 0.687818,0.622467 0.8881,3.71726 0.24,3.708515 -0.624732,-0.0084 -1.254339,-0.548554 -1.041283,-0.893283 0.114947,-0.185988 -0.215945,-0.42193 -0.759001,-0.541204 -0.529536,-0.116307 -0.962794,-0.393705 -0.962794,-0.616444 0,-0.222736 -0.288586,-0.666144 -0.641299,-0.985348 -0.52721,-0.477116 -0.781821,-0.516342 -1.431171,-0.220476 -0.828173,0.377337 -1.332343,1.626361 -1.00296,2.484716 0.191068,0.497917 -0.456045,1.416938 -0.997712,1.416938 -0.153373,0 -0.450199,0.171341 -0.65962,0.380762 -0.773388,0.773388 -1.196912,0.467478 -1.760992,-1.271975 z m 8.461754,-1.828787 c 0,-0.1672 -0.1548,-0.3556 -0.344,-0.418666 -0.1892,-0.06307 -0.344,0.125332 -0.344,0.418666 0,0.293334 0.1548,0.481734 0.344,0.418666 0.1892,-0.06307 0.344,-0.251466 0.344,-0.418666 z m -2.608,-3.057434 c 0,-0.540643 -0.724317,-0.685587 -1.45959,-0.29208 -0.417213,0.223284 -0.697821,0.50426 -0.623578,0.624388 0.185203,0.299664 2.083168,-0.0032 2.083168,-0.332308 z m 31.705256,4.630768 c 0.0154,-0.372784 0.0912,-0.448608 0.19334,-0.193334 0.0924,0.230998 0.0811,0.506998 -0.0252,0.613334 -0.10634,0.106333 -0.18197,-0.08267 -0.16807,-0.42 z m -2.745255,-1.093334 c -0.11597,-0.528 -0.39645,-0.96 -0.62329,-0.96 -0.4484,0 -0.88693,-2.324662 -0.58631,-3.108064 0.11393,-0.296906 0.4622,-0.415318 0.94824,-0.322406 0.60577,0.115801 0.882645,-0.06418 1.309655,-0.851341 0.29782,-0.549005 0.54379,-1.286189 0.5466,-1.638189 0.008,-1.054064 2.05553,-1.040416 3.66462,0.02442 0.71526,0.473341 1.30048,0.975197 1.30048,1.115238 0,0.140039 0.21202,0.466634 0.47115,0.725767 0.63354,0.633542 1.03101,3.094566 0.49979,3.094566 -0.21497,0 -0.46809,-0.295331 -0.56248,-0.656291 -0.13803,-0.52783 -0.34389,-0.618458 -1.05168,-0.463002 -0.69251,0.152103 -1.1085,-0.01536 -1.95206,-0.785827 -1.26375,-1.154265 -1.56392,-1.122304 -2.20472,0.234749 -0.264,0.559088 -0.65493,1.019635 -0.868736,1.023446 -0.21381,0.0038 -0.538199,0.286186 -0.720869,0.627504 -0.43696,0.81648 0.25014,1.291309 0.793425,0.548311 0.42626,-0.582931 1.11618,-0.712045 1.11618,-0.208877 0,0.176 -0.144,0.32 -0.32,0.32 -0.176,0 -0.32,0.3312 -0.32,0.736 0,0.711939 -0.52588,1.504 -0.998565,1.504 -0.12682,0 -0.32546,-0.432 -0.44143,-0.96 z m 5.576355,-5.30849 c -0.2061,-0.248329 -0.50109,-0.45151 -0.65554,-0.45151 -0.433,0 -0.33219,0.88824 0.11918,1.05015 0.64087,0.229885 0.94357,-0.107971 0.53636,-0.59864 z m -1.61804,-0.981734 c -0.70007,-0.84353 -1.75345,-0.350608 -1.37246,0.64223 0.15138,0.394471 0.33787,0.421447 0.95854,0.138653 0.59712,-0.272067 0.6903,-0.447862 0.41392,-0.780883 z m 1.70568,5.586224 c -0.44679,-0.44679 -0.51206,-1.216 -0.10318,-1.216 0.15445,0 0.49133,0.091 0.71043,0.355 0.2191,0.264 0.58823,0.526875 0.8203,0.526875 0.23206,0 0.47968,0.222125 0.58845,0.398125 0.2838,0.459194 -1.55106,0.400944 -2.016,-0.064 z"
         id="upper_eye"
         class="UnoptimicedTransforms"
         transform="translate(-0.08845209)" />
      <path
         id="hair"
         style="display:inline;fill:#1b0f03;stroke-width:0.32"
         d="m 95.053434,13.214436 c -1.526464,-0.04739 -2.818254,0.424455 -4.427735,1.476563 -2.306292,1.507615 -5.183322,4.465445 -6.234375,6.410156 -0.428032,0.791984 -0.885578,1.488205 -1.017578,1.546875 -0.132,0.05867 -0.373047,0.226486 -0.373047,0.400391 0,0.443239 -0.703115,1.251953 -1.173828,1.251953 -0.247674,0 -0.179986,-0.236714 0.185547,-0.640625 0.07539,-0.0833 0.102024,-0.143143 0.140625,-0.208985 -0.01749,0.01227 -0.03517,0.01469 -0.05273,-0.002 -0.0023,-0.0021 -0.0044,-0.0033 -0.0059,-0.0059 -0.0096,0.01584 -0.01942,0.03063 -0.03125,0.04492 -0.0083,0.01005 -0.02807,0.0312 -0.04297,0.0332 -0.01218,0.0017 -0.02494,-0.0042 -0.03711,-0.0059 -0.0081,-0.0098 -0.01714,-0.01831 -0.02344,-0.0293 -0.0011,-0.002 -0.0028,-0.0033 -0.0039,-0.0059 -0.0064,-0.0011 -0.01281,-2.66e-4 -0.01953,-0.002 -0.0037,-0.0013 -0.0064,-0.0044 -0.0098,-0.0059 -0.0091,8.62e-4 -0.01824,0.0015 -0.02734,0.002 -0.02008,-3e-4 -0.03879,8.12e-4 -0.05859,0.0039 -0.01903,0.002 -0.03747,0.0079 -0.05664,0.0078 -8.6e-4,-0.0074 -0.0025,-0.01439 -0.0039,-0.02149 -0.0016,-6.49e-4 -0.0023,-0.0014 -0.0039,-0.002 l -0.002,-0.002 c -0.0052,-0.0015 -0.01036,-0.0025 -0.01563,-0.0039 -0.0026,-9.24e-4 -0.0052,-0.003 -0.0078,-0.0039 -0.0043,-0.0011 -0.0083,-0.0023 -0.01172,-0.0039 -0.0018,-6.69e-4 -0.004,-0.0013 -0.0059,-0.002 -0.09832,0.120251 -0.269494,0.241255 -0.519531,0.306641 -0.958912,0.250765 -0.810529,1.098945 0.361721,1.704906 2.382858,1.231724 3.263594,1.711779 2.710602,1.711779 -0.310653,0 -1.571269,-0.579483 -2.841854,-1.301451 -2.748615,-1.561809 -4.203475,-1.811036 -10.816406,-1.847656 -6.150701,-0.03406 -9.693349,0.636411 -13.414063,2.537109 -1.495968,0.76422 -3.223844,1.850858 -3.839844,2.416016 -3.495482,3.206992 -4.763567,4.647136 -5.74436,6.906307 -0.691943,1.593786 -0.709482,1.955714 -0.52768,7.619084 0.121542,3.785808 -0.0016,6.421074 -0.222541,7.385493 -0.315875,1.379008 -1.989586,4.514036 -4.112841,7.33521 -2.384659,3.168506 -3.872153,7.43608 -4.519081,13.452512 -0.439392,4.08624 -0.315894,6.2083 0.425111,7.608255 0.268151,0.506589 0.891064,1.675653 1.378571,2.591461 0.907943,1.705594 4.852323,5.827273 7.563171,7.838111 1.633358,1.211594 2.092545,1.651211 1.593357,2.150401 -0.213318,0.21333 -0.361283,0.20907 -0.497769,-0.1466 -0.249335,-0.649784 -1.520977,-0.725103 -1.520977,-0.08918 0,0.2505 -0.309653,0.833113 -0.755304,1.362727 -0.884426,1.051084 -2.611631,4.689651 -2.723939,5.712775 -0.249091,2.269266 0.04615,4.083716 0.825502,5.009926 1.128393,1.34104 3.720641,2.04881 6.408423,1.77344 1.811956,-0.18565 2.011683,-0.17757 2.615741,0.42651 1.255453,1.25547 0.900579,2.07157 -1.945149,3.87802 -0.704,0.44673 -1.856563,1.00143 -2.560547,1.23242 -2.989974,0.98107 -4.469468,2.59464 -4.469468,5.07962 0,1.45287 0.706612,1.36934 1.788545,-0.36071 0.665379,-1.06397 1.295981,-1.68066 2.64928,-2.37277 2.292509,-1.17244 2.843628,-1.22081 3.55486,-0.10317 0.307833,0.484 0.650613,0.98298 0.874837,1.12372 0.224227,0.14075 0.323386,0.3718 0.323386,0.59387 0,0.81084 1.489412,2.03667 2.542624,2.0367 0.834791,0 1.487687,-0.49502 2.782974,-1.84541 1.881248,-1.96149 2.773603,-4.69155 3.081868,-8.63236 0.249267,-3.18671 0.40248,-3.70727 0.904297,-3.70727 0.331226,0 0.134719,0.58625 0.01737,3.22485 -0.08298,1.8657 0.240616,3.53567 0.408413,3.75976 0.166029,0.22174 0.263357,1.08588 0.216797,1.92188 -0.100525,1.80477 0.381344,2.03455 0.671875,0.32031 0.111856,-0.66 0.601975,-2.02465 1.089844,-3.0332 0.637173,-1.31721 0.790781,-1.93672 0.544922,-2.19922 -0.255757,-0.27309 -0.162718,-0.1949 0.337221,0.0614 0.578285,0.29663 0.913567,0.1342 2.115788,-1.09079 0.765033,-0.77937 1.299399,-1.53488 1.222379,-1.59558 -0.07702,-0.0607 -0.969123,-0.43814 -1.937107,-0.83985 -0.967984,-0.40169 -2.048391,-0.99304 -2.400391,-1.31445 -0.351984,-0.32141 -1.295245,-0.86466 -2.095703,-1.20703 -2.046422,-0.875284 -4.265683,-2.899727 -6.660156,-6.074219 -2.432384,-3.224742 -3.219349,-5.133156 -3.464844,-8.398438 -0.172262,-2.291203 -0.131007,-2.499829 0.839844,-4.160156 0.562125,-0.961341 1.51364,-2.365708 2.113281,-3.121094 1.983821,-2.499056 2.2168,-5.84483 0.605469,-8.68164 -0.43632,-0.768153 -0.644688,-1.323794 -0.571768,-1.396714 0.20649,-0.206509 1.256187,1.675192 1.633828,2.758482 0.186704,0.535558 0.606202,0.764267 0.78169,0.65581 0.175492,-0.108461 0.909183,-1.003498 1.400716,-2.082817 1.041958,-2.287961 2.942289,-4.270798 4.905197,-5.026846 1.063223,-0.409526 2.02189,-0.465934 4.480527,-0.337278 1.733584,0.09071 3.846805,-0.01286 4.208293,-0.148321 0.361504,-0.135466 1.010323,-0.901679 1.807158,-1.649663 0.796835,-0.747984 2.157071,-1.538105 2.333007,-1.538105 0.175952,0 -0.25044,-0.0677 -0.123179,-0.27361 0.154406,-0.249835 0.05756,-0.308789 -0.289063,-0.175781 -0.352771,0.135379 -1.086743,-0.346792 -2.291015,-1.503906 -1.691542,-1.625296 -1.773438,-1.777535 -1.773438,-3.31836 0,-1.944119 0.226787,-2.452002 0.873047,-2.452002 0.395524,0 0.411918,-0.08731 0.08594,0.305518 -0.255933,0.3084 -0.542667,1.130329 -0.443157,2.165948 0.129798,1.350826 0.422366,1.877992 1.328686,2.637909 0.596832,0.500409 2.092315,1.23869 3.324299,1.710255 3.618448,1.385021 5.447567,3.930405 5.461167,7.483935 0.0039,1.011984 0.320795,2.281785 0.460593,2.281785 0.223427,0 1.513543,-1.892536 3.858647,-4.883348 0.390237,-0.49769 1.65105,-2.302114 2.800781,-4.009765 2.571734,-3.819715 2.663303,-4.603001 0.873047,-7.404297 -1.532854,-2.398522 -2.257846,-4.476542 -1.833984,-4.900391 0.203203,-0.203219 0.388433,0.53876 0.695312,1.126953 0.792119,1.518261 2.43125,4.624298 3.574219,6.300781 0.243205,0.356737 0.498079,0.632047 0.486328,0.769532 0.0106,0.0068 0.02083,0.01422 0.03125,0.02148 0.03928,0.02542 0.07236,0.05943 0.101562,0.0957 0.0262,0.03221 0.05287,0.06334 0.07617,0.09766 0.0061,0.0089 0.01059,0.01722 0.01367,0.02539 0.202251,-0.01484 0.415292,-0.06494 0.712891,-0.06836 2.149049,-0.02468 5.259298,-1.889605 7.158198,-3.625 1.85758,-1.697632 4.38968,-2.015884 6.474,-1.152076 1.94498,0.806128 2.0496,1.456215 1.27769,4.005591 -0.92421,3.052403 -0.58851,5.130167 1.82689,9.898935 l 2.33537,4.310585 0.34972,-2.061082 c 0.73868,-2.882131 3.85743,-5.937049 3.68065,-5.520987 -0.0904,0.212672 -0.25445,0.743809 -0.78026,1.247549 -1.40924,1.350282 -1.88753,2.796206 -0.8295,4.740119 1.33356,2.450157 1.66821,3.162906 1.14553,5.16954 -0.41906,1.608899 -1.679,3.436869 -2.69386,4.25157 -0.93264,0.74873 -1.30375,3.6449 -0.84509,5.938151 0.21485,1.074253 1.83743,2.883728 3.78504,4.199716 1.01893,0.6885 1.77699,1.199411 1.17421,1.199411 -0.43284,0 -1.65699,-0.524343 -2.58789,-1.404757 -0.70783,-0.669474 -1.00849,-1.081193 -1.45508,-0.939453 -0.34978,0.11102 -2.08482,1.411338 -3.5,2.78711 -2.20627,2.144884 -2.79468,2.820053 -3.24218,4.359375 -0.67047,2.306314 -0.29457,5.246016 1.22177,9.572266 l 1.31924,3.5324 1.28983,-1.04909 c 3.67489,-3.10486 4.64027,-4.21818 5.03332,-5.1587 0.24477,-0.58583 -0.014,-0.8029 0.15533,-0.69822 0.52792,0.32611 -0.51854,2.2641 -1.9941,3.47322 -1.13519,0.9302 -1.66827,1.35326 -1.70267,2.26758 -0.0232,0.61823 0.0281,1.32192 0.19543,1.32192 0.16728,0 0.40823,0.21688 0.50842,0.61608 0.12178,0.4852 0.93377,1.00567 2.00613,1.48169 0.88227,0.39164 1.29651,0.84401 1.21591,0.97718 -0.17301,0.28572 0.53492,0.97215 1.16714,1.11305 0.24461,0.0545 1.05761,0.30486 1.5641,0.66551 0.50649,0.36066 1.19777,0.68973 1.31936,0.56814 0.12159,-0.12159 -0.21368,-0.75763 -0.55507,-1.00724 -0.34134,-0.24961 -0.46447,-0.45313 -0.27344,-0.45313 0.19102,0 0.76558,0.63181 1.33081,1.15981 0.56523,0.528 1.41515,0.95899 1.75306,0.95899 0.58609,0 0.52262,-0.24507 0.0255,-1.20669 -0.44147,-0.85371 -0.48476,-1.63771 -0.29101,-5.12109 0.22513,-4.04746 0.24555,-4.13584 1.33203,-5.55859 1.07178,-1.40367 1.92333,-1.66295 1.54492,-0.47071 -0.12869,0.40549 0.0763,0.77021 0.66211,1.17383 1.61801,1.1147 3.7081,3.11551 4.15235,3.97461 0.2453,0.47465 0.54341,1.4594 0.66015,2.18945 l 0.21094,1.32813 0.5918,-0.97461 c 0.32571,-0.53559 0.70954,-0.97266 0.85156,-0.97266 0.14202,0 0.79274,-0.9139 1.44531,-2.02929 1.18081,-2.01891 1.18619,-2.04497 1.18555,-5.67969 -6.6e-4,-3.473749 -0.0506,-3.745853 -1.00781,-5.572271 -0.55346,-1.055984 -1.27345,-2.261911 -1.59961,-2.681641 -0.65662,-0.844984 -0.77866,-1.636719 -0.25196,-1.636719 0.18774,0 0.81375,0.358844 1.39063,0.798828 1.16821,0.891034 2.78217,1.050629 3.37695,0.333985 0.55057,-0.6634 0.17049,-1.077764 -1.19922,-1.308594 -1.8953,-0.3194 -2.18855,-0.441211 -3.07812,-1.265625 -0.7399,-0.685704 -0.81742,-0.943064 -0.63867,-2.148438 0.24379,-1.644948 0.73706,-2.478225 2.66601,-4.513671 0.80451,-0.848938 1.51829,-1.712876 1.58789,-1.919922 0.0696,-0.20706 0.53458,-0.898645 1.0332,-1.535157 1.03111,-1.316237 2.1153,-3.726152 1.99805,-4.441406 -0.0433,-0.264 -0.16963,-1.309248 -0.28125,-2.322265 -0.16415,-1.489744 -0.40488,-2.05659 -1.25781,-2.960938 -0.62914,-0.667069 -1.36166,-1.118181 -1.81641,-1.119141 -2.50406,-0.0059 -4.55747,-1.543564 -3.2832,-2.458984 1.91392,-1.374941 2.33337,-2.241992 0.91016,-1.884766 -1.18397,0.297155 -3.14812,-0.331899 -4.24805,-1.359375 -0.89587,-0.836883 -0.95043,-1.017724 -0.82617,-2.794921 0.1034,-1.478835 0.5145,-2.680949 1.84961,-5.419922 3.43187,-7.040819 3.71686,-7.709311 4.0332,-9.404297 0.64529,-3.457523 0.14575,-7.462833 -1.12305,-8.996094 -0.21846,-0.264 -0.64675,-0.971879 -0.95117,-1.572266 -0.64395,-1.269977 -1.44972,-2.140846 -3.13281,-3.384765 -1.13841,-0.84136 -1.34579,-0.882659 -3.51953,-0.703125 -1.37894,0.113881 -3.40771,0.595237 -5.03125,1.195312 -3.83581,1.417776 -4.09401,1.482982 -6.24805,1.544922 -1.20963,0.03478 -2.1527,-0.109408 -2.5293,-0.384765 -0.73261,-0.535699 -0.4101,-1.175782 0.5918,-1.175782 0.99434,0 4.25663,-1.751513 5.57227,-2.992187 1.13617,-1.071571 1.88515,-2.304981 2.32031,-3.822266 0.26203,-0.913661 0.2463,-0.929669 -0.75977,-0.751953 -4.01039,0.708423 -6.10807,0.893895 -6.74023,0.595703 -0.37735,-0.178 -1.17353,-0.508174 -1.76758,-0.732422 -0.59405,-0.224232 -1.88896,-1.009793 -2.87891,-1.746093 -1.96342,-1.460475 -6.43945,-5.777844 -6.43945,-6.210938 0,-0.375908 -2.58894,-1.551337 -5.441403,-2.472656 -1.203574,-0.388756 -2.203268,-0.604376 -3.11914,-0.632813 z m -12.802735,9.820313 c -0.0012,0.0033 -0.0027,0.0065 -0.0039,0.0098 0.0035,7.42e-4 0.0066,0.0012 0.0098,0.002 0.0013,-0.0021 0.0026,-0.0037 0.0039,-0.0059 -0.0043,-0.0011 -0.0053,-0.0049 -0.0098,-0.0059 z m -0.0957,0.0078 c -0.0038,6.18e-4 -0.006,0.0032 -0.0098,0.0039 9.41e-4,0.0015 0.003,0.0023 0.0039,0.0039 0.0016,-0.0028 0.0043,-0.005 0.0059,-0.0078 z m 0.158203,0.103516 c -0.0046,0.0098 -0.009,0.0195 -0.01367,0.0293 9.57e-4,0.0041 0.0046,0.0076 0.0039,0.01172 -5.42e-4,0.0029 -7.86e-4,0.0052 -0.002,0.0078 0.007,0.005 0.01015,0.01018 0.01367,0.01563 5.08e-4,-0.0015 0.0034,-0.0044 0.0039,-0.0059 0.0069,-0.0207 -5.4e-4,-0.03124 0.002,-0.04883 -0.0022,-0.0034 -0.0051,-0.0065 -0.0078,-0.0098 z m -0.04102,0.0957 c 8.1e-5,0.0042 -0.0025,0.0089 0.0039,0.0098 -8.44e-4,-0.0038 -0.0018,-0.0072 -0.0039,-0.0098 z m -0.03125,0.05664 c -0.003,0.006 -0.0068,0.01159 -0.0098,0.01758 0.0076,-0.0061 0.01594,-0.01091 0.02344,-0.01758 -0.0045,5.33e-4 -0.0091,1.74e-4 -0.01367,0 z m 12.332031,34.335937 c 9.8e-4,0.0011 8.22e-4,0.0029 0.002,0.0039 0.0011,0.0015 0.0029,0.0024 0.0039,0.0039 0.0063,0.0066 0.01295,0.01323 0.01953,0.01953 0.002,0.0018 0.0052,0.0013 0.0078,0.002 v -0.002 c -0.01221,-0.0094 -0.02362,-0.01947 -0.0332,-0.02734 z m -0.53125,4.683594 -0.895412,1.026118 c -0.35921,0.58922 -0.675754,1.611485 -0.676394,2.271485 -0.0012,1.196931 0.592333,1.75251 1.168007,1.193512 0.54889,-0.533021 4.06445,-1.2163 6.035386,-1.2163 1.74212,0 2.44393,0.231213 5.70937,1.952397 3.86956,2.039507 5.17808,2.083298 3.38365,0.657554 -0.59711,-0.474573 -1.50271,-1.244019 -2.01367,-1.710938 -0.51095,-0.466899 -2.32754,-1.54754 -4.03515,-2.400391 -2.880639,-1.438538 -3.306324,-1.558458 -5.890631,-1.662109 z m -21.121094,3.984375 c -0.507103,-0.03386 -1.013198,-0.03447 -1.474609,0.0098 -2.640125,0.25049 -4.852254,1.493627 -7.634766,4.285156 -1.3404,1.344756 -2.503791,2.621273 -2.503791,2.796818 0,0.17553 0.427854,0.190825 0.749713,-0.100453 0.321843,-0.29128 0.667797,-0.540345 0.849724,-0.540345 0.181939,0 0.897726,-0.427338 1.536382,-0.934877 0.63864,-0.507526 2.091255,-1.304343 3.253293,-1.798215 2.056007,-0.873811 2.115209,-0.875612 4.593865,-0.514342 1.54601,0.225338 2.839058,0.614264 3.392693,1.008482 0.501693,0.357235 1.064135,0.50676 1.155465,0.50676 0.279123,0 -0.124202,-3.31696 -0.451172,-3.710938 -0.409244,-0.49311 -1.945458,-0.906219 -3.466797,-1.007812 z m 56.408201,10.478516 c 0.29202,0 0.50635,0.604424 0.6504,1.830078 0.11812,1.006336 0.51569,2.984821 0.88085,4.398437 0.52973,2.050669 0.62649,3.148933 0.48438,5.431641 -0.16259,2.611782 -0.32003,3.155782 -1.81641,6.240234 -1.53968,3.173692 -2.37764,4.337624 -4.58789,6.376953 -0.50195,0.46314 -1.57003,1.47266 -2.375,2.24414 -0.80497,0.77149 -2.11461,1.8158 -2.91015,2.32031 -0.79554,0.50452 -1.74198,0.90277 -2.10352,0.88477 -0.45392,-0.0226 -0.3297,-0.13813 0.4043,-0.37305 0.67334,-0.21551 2.51983,-1.78608 5.03711,-4.28516 3.61422,-3.588141 4.10197,-4.212222 5.38867,-6.906244 2.29561,-4.80643 2.54489,-8.124637 0.99414,-13.236328 -0.6187,-2.039456 -0.64596,-4.925781 -0.0469,-4.925781 z m -20.95117,22.814453 -2.01953,2.09179 c -0.7735,1.04729 -1.41601,2.19193 -1.41601,2.44141 0,0.24949 0.1271,0.54357 -0.0488,0.65234 -0.46895,0.28983 -0.69931,1.96554 -0.15116,3.51915 0.26281,0.74487 0.70734,1.63805 0.61014,1.79531 -0.0972,0.15726 -0.28517,0.21886 -0.0933,0.21886 0.19191,0 0.35278,0.29674 0.4663,0.60474 0.11352,0.308 0.31538,1.07181 0.74522,1.64381 0.84665,1.12685 1.77108,1.23825 2.16693,0.61657 0.14074,-0.22104 1.11857,-0.64361 1.82241,-1.1533 2.44089,-1.76721 3.39439,-3.32195 3.39439,-4.27053 0,-0.49229 -0.11865,-0.89453 -0.26172,-0.89453 -0.35503,0 -1.81693,1.59679 -2.27149,2.48047 -0.59497,1.15666 -0.99187,0.83914 -0.80078,-0.64063 0.1216,-0.94154 -0.0327,-1.94983 -0.50195,-3.27929 -0.37275,-1.056 -0.63049,-2.71764 -0.92969,-3.7168 z m -14.337888,14.47267 c -0.288959,-0.0441 -0.907411,0.0494 -1.308594,0.20508 0.308175,-0.008 0.616245,-0.0576 0.919922,-0.10156 0.154789,-0.0232 0.308988,-0.0488 0.462891,-0.0762 -0.02396,-0.009 -0.03971,-0.0221 -0.07422,-0.0273 z m -4.294922,0.008 c -0.002,0.0452 -0.01237,0.0881 -0.0293,0.12696 0.127069,-6.9e-4 0.196528,-0.0231 0.111328,-0.0957 -0.0035,-0.003 -0.07534,-0.0273 -0.08203,-0.0312 z"
         inkscape:label="hair1"
         sodipodi:nodetypes="csssssscccsccccccccccccccccscssscscscssssssssssssscsssscssscssssssssccssssssssssssssssssssssssssscssssssscccccsscscccccsssssssscscccccscssscssssssscscscccccsccssscssscsssssscsssscssssssscscsssscssccccccccccccccccsccccccccccccccccccccccssccscccccssssssssssccscsssssssscssssccscsssscscsssssccscccssccscc" />
      <path
         id="path593"
         style="display:inline;fill:#4a3c36;stroke-width:0.32"
         d="m 95.014371,12.450764 c -0.770207,-0.0022 -1.342718,0.107019 -1.490234,0.345704 -0.108774,0.175997 -0.546442,0.318359 -0.972656,0.318359 -1.317978,0 -5.284632,2.939059 -6.707032,4.96875 -0.703997,1.004569 -1.604,2.191458 -2,2.636719 -0.395997,0.445257 -0.720703,0.987561 -0.720703,1.207031 0,0.21947 -0.216786,0.484007 -0.482422,0.585937 -0.265629,0.101932 -0.44602,0.368855 -0.40039,0.59375 0.04869,0.239945 -0.181083,0.379371 -0.556641,0.337891 -0.351997,-0.03888 -0.459379,0.0095 -0.238281,0.107422 0.221097,0.09791 0.320193,0.309736 0.220703,0.470703 -0.09948,0.160968 -0.01732,0.292969 0.181641,0.292969 0.445754,0 1.27539,-0.800626 1.27539,-1.230469 0,-0.173905 0.108235,-0.365158 0.240235,-0.423828 0.132,-0.05867 0.591483,-0.754878 1.019531,-1.546875 1.051066,-1.944737 3.926088,-4.902515 6.232422,-6.410156 2.575187,-1.683395 4.339221,-1.880431 7.548828,-0.84375 2.852488,0.921332 5.439458,2.098701 5.439458,2.474609 0,0.324877 4.17157,4.472434 5.80273,5.769531 0.63953,0.50856 1.79208,1.285308 2.56055,1.72461 0.76846,0.439298 1.58955,0.800634 1.82422,0.802734 0.79338,0.0072 0.17699,-0.764751 -1.1875,-1.486328 -0.74623,-0.394616 -1.85694,-1.156166 -2.46875,-1.693359 -0.61183,-0.537197 -1.252,-0.976563 -1.42188,-0.976563 -0.16987,0 -0.30859,-0.163463 -0.30859,-0.363281 0,-0.199818 -0.36081,-0.69769 -0.80078,-1.105469 -0.44,-0.407778 -0.80079,-0.951372 -0.80079,-1.208984 0,-0.736214 -3.36841,-3.242782 -4.79882,-3.570313 -0.264,-0.06045 -1.40765,-0.479887 -2.54102,-0.93164 -1.332247,-0.531026 -3.165538,-0.841981 -4.449219,-0.845704 z m 27.669919,10.583985 c -0.24251,0 -1.00015,0.238147 -1.68164,0.527344 -1.32765,0.563395 -1.81308,0.663273 -4.69531,0.96875 -1.23484,0.130872 -1.7511,0.30359 -1.53906,0.515625 0.29027,0.290269 2.98661,0.04207 6.66406,-0.615235 1.00635,-0.179876 1.02188,-0.165888 0.75977,0.748047 -0.43516,1.517298 -1.18399,2.750682 -2.32032,3.822266 -1.31564,1.240684 -4.57988,2.99414 -5.57422,2.99414 -1.00187,0 -1.32245,0.640083 -0.58984,1.175782 0.3766,0.27537 1.31774,0.419545 2.52734,0.384765 2.15404,-0.06194 2.41422,-0.127133 6.25,-1.544922 1.62354,-0.600088 3.65036,-1.081431 5.0293,-1.195312 2.1739,-0.179534 2.38112,-0.138248 3.51953,0.703125 1.68309,1.243932 2.49082,2.114762 3.13477,3.384765 0.30442,0.600387 0.73076,1.308266 0.94922,1.572266 1.2688,1.533274 1.77029,5.538532 1.125,8.996094 -0.31634,1.695012 -0.60313,2.363387 -4.03516,9.404297 -1.33511,2.739012 -1.74426,3.941074 -1.84766,5.419922 -0.12426,1.777223 -0.0717,1.958025 0.82422,2.794921 1.09993,1.027489 3.06408,1.65653 4.24805,1.359375 1.42337,-0.357239 1.00572,0.509812 -0.9082,1.884766 -1.27427,0.915433 0.77898,2.453084 3.2832,2.458984 0.45475,0.0011 1.18727,0.452059 1.81641,1.119141 0.85293,0.904361 1.09366,1.471181 1.25781,2.960938 0.11162,1.01303 0.23795,2.056312 0.28125,2.320312 0.11725,0.715267 -0.96694,3.127096 -1.99805,4.443359 -0.49862,0.636512 -0.9636,1.326144 -1.0332,1.533204 -0.0696,0.207059 -0.78536,1.070986 -1.58984,1.919921 -1.92895,2.035472 -2.42012,2.868698 -2.66407,4.513672 -0.17875,1.205387 -0.10318,1.464674 0.63672,2.150391 0.88957,0.824417 1.18283,0.946225 3.07813,1.265625 1.36968,0.23083 1.75174,0.645194 1.20117,1.308594 -0.59478,0.716657 -2.20877,0.557062 -3.37695,-0.333985 -0.57688,-0.439997 -1.20289,-0.800781 -1.39063,-0.800781 -0.5267,0 -0.4046,0.791722 0.25195,1.636719 0.32616,0.419727 1.0442,1.627597 1.59766,2.683594 0.95728,1.826434 1.00717,2.098494 1.00781,5.572262 6.8e-4,3.63488 -0.005,3.66078 -1.18554,5.67969 -0.65257,1.11555 -1.3033,2.0293 -1.44532,2.0293 -0.14202,0 -0.5239,0.43706 -0.84961,0.97265 l -0.59179,0.97461 -0.21289,-1.32812 c -0.11674,-0.73005 -0.41275,-1.71483 -0.65821,-2.18945 -0.44425,-0.8591 -2.53631,-2.86187 -4.15429,-3.97657 -0.58591,-0.40362 -0.7908,-0.76638 -0.66211,-1.17187 0.37841,-1.19224 -0.47315,-0.93297 -1.54493,0.4707 -1.08645,1.42291 -1.1069,1.51116 -1.33203,5.55859 -0.19375,3.48338 -0.1485,4.26739 0.29297,5.1211 0.4973,0.96167 0.49227,1.00781 -0.0937,1.00781 -0.33791,0 -1.07735,-0.43294 -1.64258,-0.96094 -0.56523,-0.528 -1.18398,-0.95898 -1.375,-0.95898 -0.19103,0 -0.0679,0.20351 0.27344,0.45312 0.34139,0.24961 0.52198,0.5542 0.40039,0.67579 -0.12159,0.12156 -0.63609,-0.0749 -1.14258,-0.43555 -0.50648,-0.36065 -1.12047,-0.69941 -1.36523,-0.75391 -0.63222,-0.1409 -1.22965,-0.6967 -1.05664,-0.98242 0.0806,-0.13317 -0.57476,-0.56151 -1.45703,-0.95312 -1.07235,-0.47602 -1.66533,-0.95233 -1.78711,-1.4375 -0.10019,-0.3992 -0.31904,-0.72657 -0.48633,-0.72657 -0.1673,0 -0.28492,-0.50677 -0.26172,-1.125 0.0344,-0.91432 0.30231,-1.33738 1.4375,-2.26758 1.47557,-1.20909 2.87558,-3.47646 2.34766,-3.80273 -0.16936,-0.10468 -0.50718,0.28917 -0.75196,0.875 -0.39304,0.94068 -1.42278,1.9635 -5.09765,5.06836 l -0.98242,0.83008 -1.07422,-3.06836 c -1.50935,-4.30664 -1.88649,-7.227144 -1.22461,-9.503908 0.41344,-1.422177 0.9177,-2.169658 2.57422,-3.826172 1.13247,-1.132477 1.95296,-2.059234 1.82422,-2.058594 -0.69136,0.0035 -2.42379,1.452409 -3.59961,3.009766 -2.55499,3.384111 -2.5537,5.868 0.0117,13.148438 0.46802,1.32828 0.62344,2.34039 0.50195,3.28125 -0.19109,1.47977 0.20386,1.79533 0.79883,0.63867 0.45456,-0.88368 1.9184,-2.47851 2.27343,-2.47851 0.14307,0 0.25977,0.40224 0.25977,0.89453 0,0.94795 -1.23434,2.32165 -3.67969,4.0957 -0.704,0.51073 -1.45906,1.1442 -1.67773,1.4082 -0.34308,0.4142 -0.52851,0.32781 -1.35156,-0.63867 -0.5246,-0.616 -0.9579,-1.30573 -0.9629,-1.53125 -0.005,-0.22553 -0.22333,-0.49284 -0.48632,-0.59375 -0.26298,-0.10092 -0.40807,-0.29673 -0.32227,-0.43555 0.0858,-0.13882 -0.0595,-0.86062 -0.32226,-1.60546 -0.54815,-1.55361 -0.62716,-3.384 -0.15821,-3.67383 0.176,-0.10877 0.32031,-0.43467 0.32031,-0.72266 0,-0.28798 0.39686,-0.94699 0.88086,-1.46484 l 0.87891,-0.94141 -0.82617,0.52735 c -0.45511,0.2895 -1.28547,1.16322 -1.8457,1.94335 -0.56027,0.78015 -1.57589,1.98117 -2.25586,2.66797 -0.67997,0.68679 -1.32742,1.53763 -1.43946,1.89063 -0.21404,0.67439 -1.820593,2.06198 -3.718747,3.21484 -1.007021,0.61163 -2.057064,0.96015 -3.519532,1.16602 -0.267091,0.0376 -0.636104,0.16155 -0.820312,0.27539 -0.54296,0.33557 -4.069347,-0.52378 -5.267578,-1.2832 -1.554726,-0.98539 -5.685282,-2.95508 -6.197266,-2.95508 -0.137264,0 -0.67494,-0.30329 -1.195312,-0.67383 -1.02416,-0.72927 -3.951363,-1.88477 -4.771485,-1.88477 -0.278697,0 -1.288357,-0.59313 -2.24414,-1.3164 -1.610493,-1.2187 -5.374483,-3.16407 -6.121094,-3.16407 -0.178189,0 -0.746119,-0.35521 -1.261719,-0.78906 -0.515597,-0.43385 -1.685746,-1.16404 -2.599609,-1.623045 -1.991779,-1.000417 -3.418993,-2.409322 -6.142578,-6.0625 -2.204237,-2.956561 -2.732422,-4.452854 -2.732422,-7.734375 0,-1.919889 1.000801,-4.377516 2.390625,-5.871094 1.459373,-1.568317 2.08659,-2.97635 2.08789,-4.68164 7.27e-4,-0.997584 0.172925,-1.782707 0.439453,-2.003907 0.24111,-0.2001 0.810024,-1.189775 1.263672,-2.199218 0.953796,-2.12234 2.826223,-4.20081 4.498047,-4.994141 1.162925,-0.551844 4.935366,-0.647894 4.759766,-0.121094 -0.044,0.132 -0.151545,0.239582 -0.240235,0.238282 -0.0887,-0.0013 -0.855291,0.359412 -1.703125,0.802734 -2.044458,1.069018 -6.401863,5.564011 -6.664062,6.875 l -0.197266,0.992187 1.171875,-0.734375 c 0.644688,-0.403497 1.995146,-1.27617 3.001953,-1.939453 2.172202,-1.431037 5.230497,-2.448975 6.791016,-2.259765 2.03658,0.246928 3.994892,0.827855 4.376953,1.298828 0.228141,0.281245 0.629889,0.383436 1.019531,0.259765 0.569668,-0.1808 0.625093,-0.411175 0.492188,-2.019531 -0.18057,-2.185194 -0.93495,-3.137421 -2.722656,-3.439453 -1.275444,-0.215485 -2.040769,-0.794922 -1.050782,-0.794922 0.303727,0 0.460066,-0.09072 0.347657,-0.203125 -0.11241,-0.112409 0.370806,-0.709586 1.074218,-1.326172 0.703414,-0.616583 1.201039,-1.199352 1.105469,-1.294922 -0.09557,-0.09557 -0.755356,0.393374 -1.464844,1.085938 l -1.289062,1.259766 -4.064453,0.02148 c -3.020394,0.01614 -4.351232,0.152554 -5.183594,0.535156 -1.632468,0.750377 -3.67604,3.018741 -4.580078,5.082031 -0.973367,2.221521 -1.341901,2.475668 -1.777344,1.226563 -0.377638,-1.083302 -1.639197,-2.97604 -1.845703,-2.769531 -0.07292,0.07292 0.223839,0.761143 0.660156,1.529297 1.61136,2.836849 1.378379,6.182545 -0.605468,8.68164 -0.599657,0.755398 -1.549188,2.15974 -2.111329,3.121094 -0.970864,1.660352 -1.014058,1.868926 -0.841796,4.160156 0.245492,3.265321 1.034389,5.173647 3.466796,8.398438 2.394499,3.174531 4.611756,5.198942 6.658204,6.074218 0.800471,0.34237 1.743703,0.88563 2.095703,1.20704 0.351997,0.32141 1.432393,0.91276 2.40039,1.31445 0.967997,0.40169 1.823371,0.77914 1.900391,0.83984 0.07702,0.0607 -0.486923,0.74784 -1.251953,1.52735 -1.20225,1.22501 -1.480296,1.37081 -2.058594,1.07422 -0.499936,-0.2564 -0.583882,-0.24958 -0.328125,0.0234 0.245856,0.2625 0.09604,0.87763 -0.535156,2.1836 -0.483318,1.00001 -0.974709,2.32899 -1.091797,2.95312 -0.117088,0.62414 -0.38014,1.25264 -0.583984,1.39844 -0.250134,0.17894 -0.214571,0.22437 0.109375,0.13867 0.499437,-0.13211 1.915,-2.48442 1.714843,-2.84961 -0.06287,-0.1147 0.368267,-0.69195 0.957032,-1.28125 0.588758,-0.5893 1.314852,-1.54334 1.613281,-2.12109 0.298432,-0.57776 0.688791,-0.95912 0.86914,-0.84766 0.180349,0.11147 0.406794,-0.0951 0.501954,-0.45898 0.251171,-0.96049 1.247034,-1.15676 2.173828,-0.42774 0.316409,0.24889 0.5384,0.5118 0.59375,0.67969 0.12643,0.0248 0.267332,0.0941 0.410156,0.22461 0.07555,0.0691 0.152909,0.1354 0.234375,0.19727 0.04117,0.0191 0.06184,0.0411 0.0918,0.0664 0.07391,0.0516 0.147898,0.10217 0.21875,0.1582 0.08485,0.0501 0.173056,0.0921 0.259765,0.13868 0.05959,-0.009 0.106292,5.4e-4 0.173829,-0.0254 0.262007,-0.10055 0.386469,-0.0909 0.36914,0.0195 0.0093,0.006 0.01962,0.0126 0.0293,0.0215 0.01705,0.0156 0.01111,0.007 0.02539,0.0215 0.02651,0.0271 0.0482,0.0567 0.07227,0.0859 0.01843,0.0211 0.03793,0.0422 0.06055,0.0586 0.03656,0.0232 0.05735,0.0277 0.06445,0.0352 h 0.002 c 0.0035,0.001 0.0082,0.002 0.01172,0.004 -0.0061,0.0101 -0.01179,0.0207 -0.01758,0.0312 0.02238,-0.0252 0.04301,-0.0527 0.0918,-0.0527 0.176,0 0.410936,0.14726 0.521484,0.32617 0.110547,0.17882 0.332002,0.24353 0.492188,0.14453 0.44337,-0.27402 6.052101,2.43136 5.847656,2.81836 0.01122,0.007 0.02222,0.0142 0.0332,0.0215 0.04079,0.0266 0.07968,0.0548 0.117188,0.0859 0.0015,0.001 0.0024,0.003 0.0039,0.004 4.19e-4,3.2e-4 0.0015,-3.4e-4 0.002,0 0.424681,-0.25523 4.861328,1.90276 4.861328,2.36523 0,0.17382 0.108235,0.28741 0.240235,0.25391 0.517667,-0.13149 2.315882,0.44845 2.162109,0.69726 -0.08978,0.1452 0.124322,0.18968 0.476562,0.0977 0.352244,-0.0921 0.640625,-0.0254 0.640625,0.15039 0,0.19125 0.7369,0.26529 1.839844,0.18359 2.821933,-0.20917 2.960938,-0.23069 2.960938,-0.45703 0,-0.22355 1.80405,-0.73582 2.476562,-0.70312 0.218107,0.0106 0.331886,-0.0828 0.253906,-0.20899 -0.07798,-0.12617 0.515215,-0.64467 1.31836,-1.15234 0.803146,-0.50766 1.781504,-1.3953 2.173834,-1.97266 0.39232,-0.57735 0.79378,-0.96989 0.89258,-0.87109 0.0988,0.0988 0.15921,-0.0807 0.13281,-0.40039 -0.0272,-0.32993 0.13448,-0.54404 0.375,-0.49414 0.23307,0.0484 0.35631,-0.0238 0.27344,-0.16016 -0.0829,-0.13636 0.16622,-0.48633 0.55468,-0.77734 0.69509,-0.52073 0.71321,-0.50455 1.11914,0.96093 0.22686,0.81901 0.99983,2.67691 1.71875,4.12891 1.15791,2.33861 1.4072,2.64063 2.17774,2.64063 0.66782,0 0.94238,-0.21265 1.18554,-0.91016 0.21463,-0.6157 0.77382,-1.12271 1.73438,-1.57422 0.77954,-0.36642 1.81057,-1.18065 2.29102,-1.81055 0.48042,-0.62991 1.01839,-1.14648 1.19531,-1.14648 0.17692,0 1.21126,0.71961 2.29883,1.59961 1.08755,0.88 2.14758,1.60156 2.35546,1.60156 0.20788,0 0.42683,0.14578 0.48633,0.32422 0.0595,0.17843 1.11647,0.74466 2.34766,1.25781 3.359,1.40004 6.27686,1.19001 4.45703,-0.32031 -0.2756,-0.22873 -0.72797,-0.85311 -1.00391,-1.38672 -0.9663,-1.86863 0.11057,-8.83594 1.36524,-8.83594 0.97938,0 1.98364,0.80441 3.41992,2.73633 1.37908,1.85499 1.51953,2.20615 1.51953,3.79492 0,0.96313 0.14202,1.83949 0.31641,1.94727 0.28266,0.17469 2.8689,-2.28707 2.8789,-2.74023 0.002,-0.10022 0.58116,-0.95487 1.28516,-1.89844 0.704,-0.94357 1.2793,-2.03967 1.2793,-2.4375 0,-0.39783 0.14431,-0.81311 0.32031,-0.92188 0.1789,-0.11056 0.31655,-1.56514 0.31055,-3.29883 -0.008,-2.634672 -0.12819,-3.341817 -0.79688,-4.701171 -1.01967,-2.072844 -0.99987,-2.400391 0.14844,-2.400391 1.10666,0 1.9375,-0.986194 1.9375,-2.298828 0,-0.762967 -0.1755,-0.922263 -1.35938,-1.226563 -3.02999,-0.778827 -2.95128,-0.719351 -3.05664,-2.330078 -0.10498,-1.605084 0.27885,-2.347133 2.54297,-4.902344 0.64192,-0.724452 1.57318,-1.947205 2.06836,-2.71875 0.49518,-0.771543 1.14303,-1.647677 1.43945,-1.945312 0.60556,-0.608055 1.0936,-3.875274 0.78907,-5.279297 -0.10711,-0.493818 -0.25558,-1.221253 -0.33008,-1.615234 -0.19228,-1.016339 -1.75944,-2.973009 -2.65234,-3.3125 -0.41495,-0.157763 -1.20792,-0.366934 -1.76368,-0.464844 -1.81387,-0.319565 -1.97212,-0.7437 -0.71875,-1.925781 0.6239,-0.588412 1.1211,-1.370853 1.1211,-1.763672 0,-0.66785 -0.0995,-0.69579 -1.82617,-0.517578 -2.27505,0.234803 -3.6798,-0.357716 -4.38868,-1.851563 -0.81551,-1.718548 -0.77683,-1.867646 1.57227,-6.08789 0.78372,-1.407997 1.58414,-2.919378 1.7793,-3.359375 0.19515,-0.44 0.88337,-1.870436 1.52929,-3.177735 1.16641,-2.360132 1.17383,-2.404159 1.17383,-6.439453 0,-3.977149 -0.0233,-4.113333 -1.10156,-6.34375 -0.606,-1.253507 -1.21738,-2.279297 -1.35938,-2.279297 -0.142,0 -0.25781,-0.190259 -0.25781,-0.421875 0,-0.231616 -0.54117,-0.91515 -1.20117,-1.519531 -2.30526,-2.110998 -2.56834,-2.214497 -5.65625,-2.216797 -3.05635,-0.0023 -4.17273,0.270913 -6.83008,1.669922 -1.67235,0.880434 -3.59375,1.184285 -3.59375,0.568359 0,-0.176 0.15056,-0.320312 0.33399,-0.320312 0.18339,0 0.50812,-0.142609 0.7207,-0.316406 0.21257,-0.1738 1.01957,-0.785178 1.79492,-1.359375 0.77534,-0.5742 1.51112,-1.259438 1.63477,-1.523438 0.12365,-0.264 0.461,-0.935082 0.75,-1.490234 0.65948,-1.266887 0.7184,-3.951172 0.0859,-3.951172 z m -55.324216,0.126953 c -1.296862,0.0091 -2.15625,0.05173 -2.15625,0.138672 0,0.162617 -1.186677,0.362542 -2.638671,0.445312 -2.278013,0.129854 -3.014285,0.332803 -5.361329,1.480469 -2.980884,1.457606 -6.246708,4.289797 -8.546875,7.410156 -2.554879,3.465901 -2.492187,3.190197 -2.492187,11.039063 v 7.041015 l -1.146484,2.080079 c -0.630845,1.143994 -1.49477,2.712168 -1.919922,3.486328 -0.425155,0.774153 -1.149624,1.812144 -1.609375,2.30664 -0.939146,1.010122 -2.535667,4.098749 -2.675782,5.177735 -0.05055,0.389267 -0.264699,1.139971 -0.476562,1.667968 -0.490806,1.223178 -1.284863,8.222113 -1.289063,11.363282 -0.0027,2.058474 0.08848,2.460353 0.636719,2.802734 0.352,0.219827 0.640625,0.631859 0.640625,0.916016 0,0.821302 2.616675,4.250781 4.972656,6.517578 3.591617,3.455658 3.616175,3.487804 3.419922,4.238281 -0.09985,0.3818 -0.735767,1.420577 -1.412109,2.308594 -2.19754,2.885291 -2.580351,3.993191 -2.453125,7.085936 l 0.111328,2.73438 1.314453,1.22461 c 1.231802,1.14897 1.471006,1.23738 3.839844,1.42187 3.21586,0.25045 4.6859,0.56827 4.841797,1.04492 0.179149,0.54773 -3.035275,2.98242 -3.9375,2.98242 -0.786544,0 -3.840039,1.78409 -4.580078,2.67579 -0.485446,0.58491 -0.830211,4.03732 -0.455078,4.5625 0.57984,0.81175 2.160814,0.0693 3.542968,-1.66407 1.03937,-1.30348 1.682144,-1.79726 2.681641,-2.0664 1.532849,-0.41275 1.669746,-0.32364 2.832031,1.83789 0.44,0.81828 1.231766,1.73883 1.759766,2.04687 0.527997,0.30803 1.131303,0.57119 1.339844,0.58399 0.897248,0.0554 2.152648,-0.72016 3.71875,-2.29883 1.345601,-1.35641 1.799554,-2.10036 2.294921,-3.76367 0.339622,-1.14037 0.71286,-2.14638 0.830079,-2.23438 0.117216,-0.088 0.280921,-1.70761 0.363281,-3.59961 0.117868,-2.70759 0.06019,-3.43945 -0.271485,-3.43945 -0.501814,0 -0.656983,0.65316 -0.90625,3.83984 -0.308262,3.94097 -1.294507,6.59711 -3.175781,8.5586 -1.2953,1.35053 -1.813633,1.68164 -2.648437,1.68164 -1.053225,0 -2.34375,-0.99369 -2.34375,-1.80469 0,-0.22207 -0.183979,-0.51941 -0.408203,-0.66016 -0.224224,-0.14074 -0.658967,-0.65274 -0.966797,-1.13671 -0.711248,-1.11826 -1.363718,-1.10602 -3.65625,0.0664 -1.353328,0.69211 -2.092418,1.33642 -2.757813,2.40039 -1.081946,1.73005 -1.490234,1.83373 -1.490234,0.38086 0,-2.48498 1.328346,-4.02674 4.318359,-5.00781 0.703997,-0.23099 1.85655,-0.78553 2.560547,-1.23242 2.845767,-1.80645 3.296479,-2.67227 2.041016,-3.92774 -0.604074,-0.60408 -0.908721,-0.65635 -2.720703,-0.4707 -2.687824,0.27537 -5.219251,-0.43047 -6.347657,-1.77148 -0.779352,-0.92621 -1.065497,-2.64674 -0.816406,-4.916021 0.112308,-1.023137 1.828452,-4.595387 2.712891,-5.646484 0.445648,-0.529627 0.810547,-1.167469 0.810547,-1.417969 0,-0.635977 1.16668,-0.571642 1.416015,0.07813 0.136486,0.35568 0.312057,0.426221 0.525391,0.212891 0.499185,-0.49919 0.0787,-1.134106 -1.554688,-2.345703 -2.710887,-2.010864 -6.664309,-6.071724 -7.572265,-7.777344 -0.487523,-0.915821 -1.106852,-2.079335 -1.375,-2.585937 -0.741021,-1.399968 -0.851499,-3.437146 -0.41211,-7.523438 0.646944,-6.01651 2.062565,-10.306064 4.447266,-13.474609 2.123281,-2.8212 3.918484,-5.913948 4.234375,-7.292969 0.220922,-0.964432 0.275839,-3.641874 0.154297,-7.427734 -0.181818,-5.663435 -0.158737,-5.992126 0.533203,-7.585938 0.980806,-2.259197 2.188057,-3.732422 5.683594,-6.939453 0.615997,-0.565158 2.343849,-1.653752 3.839843,-2.417969 3.720769,-1.900724 7.263284,-2.569216 13.414063,-2.535156 6.613022,0.03662 8.067752,0.283868 10.816406,1.845703 1.270598,0.721977 2.56435,1.3125 2.875,1.3125 0.554787,0 -0.328819,-0.593418 -2.724609,-1.830078 -0.711987,-0.367517 -1.012429,-0.722776 -0.917969,-1.083984 0.09424,-0.360376 -0.03142,-0.510045 -0.380859,-0.453125 -0.286631,0.04669 -0.665797,-0.02033 -0.841797,-0.150391 -0.36607,-0.270518 -8.193391,-0.542961 -12.083985,-0.515625 z m 22.66211,25.970703 c -0.07207,-0.03586 -0.13483,-0.02923 -0.185547,0.02148 -0.423572,0.423572 0.457898,2.668688 1.990234,5.066407 1.790285,2.801335 1.698713,3.582592 -0.873047,7.402343 -1.149741,1.70768 -2.410528,3.512063 -2.800781,4.009766 -2.345127,2.990851 -3.59101,4.443359 -3.814453,4.443359 -0.139798,0 -0.257819,-0.827846 -0.261719,-1.839843 -0.01358,-3.553569 -1.973294,-6.220435 -5.591797,-7.605469 -1.231994,-0.471565 -2.729342,-1.267156 -3.326171,-1.767578 -0.906336,-0.75993 -1.110437,-1.176505 -1.240235,-2.527344 -0.09951,-1.035632 -0.01182,-1.789243 0.244141,-2.097656 0.326022,-0.392834 0.309589,-0.482422 -0.08594,-0.482422 -0.646273,0 -0.873047,0.682808 -0.873047,2.626953 0,1.540838 0.08188,1.695004 1.773438,3.320313 1.204301,1.15714 1.940182,1.639285 2.292969,1.503906 0.346616,-0.133008 0.441515,-0.07601 0.287109,0.173828 -0.160106,0.259056 0.120151,0.375 0.908203,0.375 0.900931,0 1.405383,0.26671 2.41211,1.273437 1.790676,1.790679 2.314886,3.210514 2.189453,5.919922 -0.08988,1.941319 -0.02745,2.246966 0.472656,2.345703 0.79255,0.156483 2.664454,-1.337463 2.912109,-2.324218 0.111914,-0.445888 0.362137,-0.775392 0.554688,-0.732422 0.364307,0.0813 2.028604,-1.985097 3.160156,-3.921875 0.359898,-0.616 1.431156,-2.233698 2.378906,-3.59375 1.287284,-1.847293 1.674972,-2.655997 1.533203,-3.199219 -0.180765,-0.692647 -0.163005,-0.701384 0.371094,-0.167969 0.576944,0.576231 1.260406,0.713537 2.894531,0.580078 0.988038,-0.08069 5.002573,-2.203994 6.103523,-3.228515 1.63043,-1.517277 4.57526,-2.02071 5.80664,-0.992188 0.86877,0.725671 0.9667,1.426316 0.44921,3.242188 -0.72612,2.548084 -0.30697,5.314255 1.26954,8.367187 0.75874,1.46937 1.96756,3.852394 2.68554,5.294922 0.71797,1.442528 1.48508,2.631125 1.70508,2.640625 0.28074,0.01208 0.40039,-0.60461 0.40039,-2.064453 0,-1.149571 0.14057,-2.080078 0.31445,-2.080078 0.40957,0 1.92579,2.993819 1.92579,3.802734 0,0.343184 -0.12952,0.673752 -0.28711,0.732422 -0.15759,0.05867 -0.35792,0.648089 -0.44532,1.310547 -0.1519,1.151312 -1.56576,3.435547 -2.12695,3.435547 -0.59743,0 -1.37381,2.402822 -1.38281,4.283203 -0.0121,2.545006 1.16116,5.316406 2.25,5.316406 0.16129,0 0.56707,0.30835 0.90234,0.685547 0.33528,0.3772 1.04231,0.953157 1.57031,1.279297 1.1467,0.708307 1.43946,0.740763 1.43946,0.158203 0,-0.24062 -0.53922,-0.802077 -1.19922,-1.248047 -1.94761,-1.316014 -3.50585,-3.037059 -3.7207,-4.111328 -0.45866,-2.293277 -0.0655,-4.81571 0.86718,-5.564453 1.01486,-0.814714 2.18837,-2.795385 2.60743,-4.404297 0.52265,-2.00666 0.36478,-2.874036 -0.96875,-5.324219 -1.05803,-1.943939 -0.91136,-3.323533 0.49804,-4.673828 0.52581,-0.503753 0.95508,-1.104865 0.95508,-1.335937 0,-1.808205 -3.11874,2.725252 -3.85742,5.607422 l -0.41406,1.621093 -2.00586,-3.958984 c -2.4154,-4.768833 -2.79335,-6.758105 -1.86914,-9.810547 0.77188,-2.549415 0.46662,-3.420421 -1.47852,-4.226562 -2.08432,-0.863821 -4.63854,-0.322645 -6.49609,1.375 -0.72545,0.662996 -2.29391,1.729297 -3.486334,2.36914 -2.566282,1.377057 -4.110282,1.517555 -4.873047,0.44336 -0.998096,-1.405619 -2.794874,-4.585162 -3.558593,-6.296875 -0.377669,-0.84646 -0.686127,-1.339693 -0.902344,-1.447266 z m 6.05664,12.658203 c -0.888953,0.04262 -1.711587,0.170301 -2.27003,0.373023 -0.259422,0.09417 -0.461831,0.204543 -0.587391,0.330102 -0.983113,0.983108 -1.535819,4.738091 -0.767579,5.212891 0.202701,0.125274 0.525454,0.01262 0.71875,-0.248047 0.480192,-0.64754 3.977071,-1.285619 6.873046,-1.255859 1.93198,0.01986 2.51933,0.146678 3.07422,0.667968 0.37733,0.354483 0.82243,0.644532 0.99023,0.644532 0.1678,0 0.8491,0.370675 1.51368,0.822265 0.66458,0.451594 1.47979,0.871847 1.81054,0.935547 0.33074,0.0637 1.00832,0.339363 1.50586,0.611328 0.49753,0.271965 1.11888,0.461192 1.38086,0.419922 0.62563,-0.09856 0.79262,-1.038387 0.26172,-1.472656 -0.22981,-0.187978 -0.91807,-0.776475 -1.5293,-1.308594 -0.61122,-0.532118 -1.29117,-0.966797 -1.50976,-0.966797 -0.21858,0 -0.54905,-0.286799 -0.73633,-0.636719 -0.18727,-0.34992 -0.69789,-0.724826 -1.13281,-0.833984 -0.43492,-0.109158 -0.79102,-0.316921 -0.79102,-0.460937 0,-0.294099 -2.93799,-1.703965 -5.095701,-2.445313 -0.962566,-0.330721 -2.40707,-0.451092 -3.708985,-0.388672 z m -2.044921,0.542969 2.785156,0.111328 c 2.584333,0.103651 3.010009,0.223545 5.890621,1.662109 1.70777,0.852851 3.52226,1.933479 4.03321,2.400391 0.51096,0.466919 1.41835,1.236365 2.01562,1.710938 1.79443,1.42577 0.37344,1.006329 -3.49609,-1.033204 -3.2656,-1.72121 -3.81061,-1.910156 -5.552736,-1.910156 -1.97096,0 -5.621019,0.771667 -6.169922,1.304688 -0.575671,0.559011 -0.815753,0.292647 -0.814453,-0.904297 6.56e-4,-0.66 0.295071,-1.682265 0.654297,-2.271485 z m -22.429688,3.302734 c 0.145,0 0.290391,0.02397 0.400391,0.06836 0.219997,0.08877 0.03961,0.160156 -0.400391,0.160156 -0.439997,0 -0.620388,-0.07139 -0.400391,-0.160156 0.11,-0.04439 0.255391,-0.06836 0.400391,-0.06836 z m 1.306641,0.681641 c 1.52135,0.101593 3.057537,0.512736 3.466797,1.005859 0.326967,0.393978 0.730294,3.710938 0.451171,3.710938 -0.09133,0 -0.576432,-0.291203 -1.078125,-0.648438 -0.553648,-0.394231 -1.912945,-0.796146 -3.458984,-1.021484 -2.478679,-0.36127 -2.604123,-0.34648 -4.660156,0.527344 -1.162067,0.493885 -2.634782,1.312773 -3.273438,1.820312 -0.638653,0.507539 -1.310248,0.923828 -1.492187,0.923828 -0.181943,0 -0.594157,0.238017 -0.916016,0.529297 -0.321856,0.291272 -0.585937,0.386481 -0.585937,0.210938 0,-0.175545 1.097071,-1.420843 2.4375,-2.765625 2.782535,-2.791571 4.996554,-4.0327 7.636718,-4.283203 0.461426,-0.04378 0.965539,-0.04357 1.472657,-0.0098 z m 29.136714,3.4375 c -3.049612,0 -6.6944,1.631542 -8.351558,3.738281 -1.137249,1.44578 -0.698388,2.351239 0.498047,1.027344 1.732327,-1.91687 3.620299,-2.368846 2.992187,-0.716797 -0.378227,0.994813 -0.397297,3.951172 -0.02539,3.951172 0.15214,0 0.215029,-0.791769 0.138672,-1.759766 -0.08857,-1.122765 -0.0152,-1.759765 0.203125,-1.759765 0.188224,0 0.341796,-0.423794 0.341796,-0.941407 0,-0.517609 0.16596,-1.04435 0.369141,-1.169921 1.148605,-0.709878 5.70976,-0.792827 6.52148,-0.119141 0.88769,0.736721 2.03754,2.740142 2.23243,3.890625 0.0986,0.582362 0.25867,1.320454 0.35547,1.638672 0.0968,0.318218 0.002,1.304043 -0.21094,2.191406 -0.75269,3.137571 -3.77664,4.770231 -5.83594,3.150391 -0.44749,-0.352 -0.90858,-0.640625 -1.02539,-0.640625 -0.420273,0 -1.07165,-0.873735 -1.732422,-2.324219 -0.686144,-1.506173 -1.318394,-2.209639 -1.308594,-1.455078 0.01782,1.367936 2.800746,4.668953 4.515626,5.355469 1.27528,0.510521 2.79217,0.391427 3.45508,-0.271485 0.33867,-0.338672 0.92642,-0.78284 1.30664,-0.986328 1.62926,-0.871952 2.13813,-5.083815 0.94922,-7.857422 -0.35642,-0.831497 -0.58587,-1.574253 -0.50977,-1.65039 0.0761,-0.07614 0.95565,0.600588 1.95313,1.503906 1.84633,1.672065 2.44251,1.864448 2.59375,0.833984 0.12446,-0.847984 -0.18987,-1.46875 -0.74414,-1.46875 -0.26784,0 -1.04473,-0.503143 -1.72657,-1.11914 -0.68183,-0.616 -1.37717,-1.121094 -1.54492,-1.121094 -0.16775,0 -1.0381,-0.430985 -1.93359,-0.958985 -1.30259,-0.768032 -1.99737,-0.960937 -3.47657,-0.960937 z m -32.228511,2.441406 c -0.718049,0.01003 -1.726287,0.233016 -2.240235,0.496094 -2.301627,1.178157 -3.519421,1.986149 -3.945312,2.619141 -0.252685,0.375555 -1.464425,1.63245 -2.693359,2.792968 -1.34586,1.270935 -2.143581,2.257631 -2.00586,2.480469 0.397411,0.643025 0.982478,0.407905 2.269531,-0.910156 0.687437,-0.703997 1.365578,-1.279297 1.50586,-1.279297 0.140282,0 0.27848,0.467065 0.30664,1.039062 l 0.05078,1.041016 0.126953,-1.017578 c 0.07001,-0.558892 0.334069,-1.187782 0.58789,-1.398438 0.253827,-0.210657 0.462891,-0.570092 0.462891,-0.798828 0,-0.488961 2.313148,-2.547108 3.648438,-3.246093 0.568381,-0.297528 1.347483,-0.419025 2.003906,-0.3125 1.347955,0.218739 2.986328,1.362349 2.986328,2.083984 0,0.300902 0.26578,0.773306 0.589844,1.050781 0.449972,0.38528 0.639319,1.163105 0.802734,3.289063 0.206012,2.680142 0.182816,2.825316 -0.638672,3.902343 -1.220106,1.599634 -3.225551,2.6875 -4.955078,2.6875 -1.255133,0 -1.584575,-0.163785 -2.765625,-1.367187 C 65.097122,84.514097 64.33401,83.301648 63.953824,82.230061 63.611667,81.265648 63.3202,80.71595 63.30734,81.009358 c -0.07007,1.598675 2.50804,5.344922 4.136719,6.011719 1.400588,0.573417 3.364887,0.186602 4.992187,-0.984375 2.256144,-1.62347 2.798284,-2.522184 2.949219,-4.892578 0.150089,-2.357089 -0.281845,-3.934536 -1.603516,-5.869141 -0.511008,-0.747997 -0.867298,-1.359375 -0.792968,-1.359375 0.07433,0 0.74784,0.216469 1.496093,0.480469 1.580307,0.557562 2.558594,0.616288 2.558594,0.154297 0,-0.692864 -5.185553,-2.381996 -7.224609,-2.353516 z m 32.039061,3.09375 c -0.11429,-0.02462 -0.21806,-0.02354 -0.30469,0.0098 -0.75358,0.289178 -0.61821,1.186064 0.32813,2.173828 0.86972,0.907791 1.53173,0.919493 1.87109,0.03516 0.23316,-0.607609 -1.09449,-2.046434 -1.89453,-2.21875 z m 27.46289,1.50586 c -0.59955,0 -0.57375,2.886299 0.0449,4.925781 1.55075,5.111757 1.30147,8.429833 -0.99414,13.236328 -1.2867,2.694061 -1.77234,3.318009 -5.38672,6.906253 -2.51725,2.49905 -4.36379,4.06964 -5.0371,4.28515 -0.734,0.23492 -0.86017,0.35045 -0.40625,0.37305 0.85524,0.0425 3.16816,-1.43635 5.01367,-3.20508 0.80497,-0.77148 1.875,-1.781 2.37695,-2.24414 2.21025,-2.039298 3.04626,-3.203221 4.58594,-6.376952 1.49638,-3.084491 1.65577,-3.628413 1.81836,-6.240234 0.14211,-2.282744 0.0434,-3.380946 -0.48633,-5.431641 -0.36516,-1.413642 -0.76063,-3.394041 -0.87891,-4.40039 -0.14405,-1.225667 -0.35837,-1.828125 -0.65039,-1.828125 z m -63.29492,0.486328 c -0.0798,-0.04003 -0.182712,0.12274 -0.267578,0.447265 -0.13919,0.532272 -0.09684,0.657384 0.140625,0.419922 0.185959,-0.185952 0.274213,-0.526954 0.197266,-0.757812 -0.01997,-0.05992 -0.04371,-0.09603 -0.07031,-0.109375 z m 3.21875,0.5625 c -0.144508,-0.01515 -0.299715,3.32e-4 -0.464844,0.05273 -0.525162,0.166681 -0.695312,0.474899 -0.695312,1.255859 0,0.568937 0.171615,1.206769 0.382812,1.417969 0.49544,0.49544 0.572861,0.48576 1.271485,-0.146484 0.964065,-0.872466 0.51741,-2.474045 -0.494141,-2.580078 z m 42.86914,0.974609 c -0.29481,-0.08299 -1.30264,1.051528 -3.11523,3.505859 -0.36161,0.489635 -1.68713,1.389638 -2.94532,2 -2.44312,1.185214 -4.66046,1.440127 -6.910152,0.794922 -1.459217,-0.418496 -1.649147,-0.152273 -0.296875,0.416016 0.621361,0.26112 1.958427,0.428884 3.158207,0.396484 1.71408,-0.0463 2.52425,-0.277718 4.60351,-1.316406 1.765,-0.881702 2.67745,-1.549148 3.03906,-2.220703 0.2843,-0.528 1.00033,-1.40898 1.58985,-1.957031 0.58951,-0.548054 1.02048,-1.227187 0.95898,-1.509766 -0.0133,-0.0613 -0.0399,-0.09752 -0.082,-0.109375 z m -51.304687,4.537109 c -0.09947,0.04689 0.03894,0.371167 0.439453,0.982422 0.77689,1.185675 4.586881,4.296875 5.261719,4.296875 0.297639,0 0.952915,0.213653 1.457031,0.476563 2.018624,1.052787 4.178644,0.35296 6.996094,-2.269531 0.879998,-0.81911 1.284633,-1.326511 0.898438,-1.126954 -0.386199,0.19956 -0.790938,0.508447 -0.900391,0.685547 -0.50873,0.823137 -3.756024,2.554688 -4.791016,2.554688 -2.265812,0 -4.665541,-1.23271 -6.99414,-3.59375 -1.375147,-1.394305 -2.2014,-2.084 -2.367188,-2.00586 z m 30.886719,4.396485 c -0.123073,-0.08063 -0.375807,0.260451 -0.443359,0.720703 -0.116534,0.794007 -1.908488,3.913565 -2.516927,4.464192 -0.31998,0.28958 -0.951754,0.598645 -1.469402,0.559245 -0.659184,-0.05023 -1.076823,0.04111 -1.076823,0.38086 0,1.092117 2.576714,0.05227 3.85612,-1.601563 0.873104,-1.128617 1.71875,-3.239628 1.71875,-4.291015 0,-0.131958 -0.02733,-0.205544 -0.06836,-0.232422 z M 81.420621,90.02303 c -0.05898,-0.01133 -0.106437,-0.0029 -0.138672,0.0293 -0.269687,0.26969 3.151519,3.45719 4.158204,3.86263 0.222416,0.08953 0.825792,0.277767 0.869792,0.291667 0.044,0.0139 0.257483,-0.33284 0.257163,-0.464844 -3.42e-4,-0.132 -1.300365,-0.647116 -2.199219,-1.259766 -0.898855,-0.612637 -1.90692,-1.462454 -2.242188,-1.888671 -0.251448,-0.319665 -0.528145,-0.536322 -0.705078,-0.570313 z m 8.294922,10.35547 c -1.627504,0.0958 -2.059344,0.26538 -3.121094,1.22461 -1.402148,1.26676 -1.136698,1.53192 0.3125,0.3125 0.830326,-0.69867 1.256191,-0.80078 3.365235,-0.80078 1.328199,0 2.504686,0.1473 2.615234,0.32617 0.212224,0.34338 0.796875,0.12972 0.796875,-0.29102 0,-0.47509 -2.094778,-0.88185 -3.96875,-0.77148 z m -8.443359,10.25781 c 0.0044,0.007 0.0107,0.009 0.01953,0.0117 -0.0062,-0.004 -0.01326,-0.007 -0.01953,-0.0117 z"
         inkscape:label="outline" />
    </g>
  </g>
</svg>
