<?xml version="1.0" encoding="UTF-8" standalone="no"?>
<!-- Created with Inkscape (http://www.inkscape.org/) -->

<svg
   version="1.1"
   id="svg2"
   width="192"
   height="288"
   viewBox="0 0 192 288"
   sodipodi:docname="head17.svg"
   inkscape:version="1.2.2 (732a01da63, 2022-12-09)"
   xmlns:inkscape="http://www.inkscape.org/namespaces/inkscape"
   xmlns:sodipodi="http://sodipodi.sourceforge.net/DTD/sodipodi-0.dtd"
   xmlns="http://www.w3.org/2000/svg"
   xmlns:svg="http://www.w3.org/2000/svg">
  <defs
     id="defs6" />
  <sodipodi:namedview
     id="namedview4"
     pagecolor="#ffffff"
     bordercolor="#000000"
     borderopacity="0.25"
     inkscape:showpageshadow="2"
     inkscape:pageopacity="0.0"
     inkscape:pagecheckerboard="0"
     inkscape:deskcolor="#d1d1d1"
     showgrid="false"
     inkscape:zoom="3.9971175"
     inkscape:cx="76.930438"
     inkscape:cy="115.95856"
     inkscape:window-width="1920"
     inkscape:window-height="1001"
     inkscape:window-x="-9"
     inkscape:window-y="-9"
     inkscape:window-maximized="1"
     inkscape:current-layer="g8" />
  <g
     inkscape:groupmode="layer"
     inkscape:label="Image"
     id="g8"
     transform="translate(6,-4)">
    <g
       id="g116"
       transform="translate(1.0614251,-27.95086)">
      <path
         style="display:inline;fill:#391e15;stroke-width:0.32"
         d="m 103.44725,168.4751 c -1.64334,-0.79188 -1.24197,-0.57926 -1.29731,-0.74529 -0.0553,-0.16603 -0.56685,0.11053 -0.86641,0.18213 -0.98188,0.2347 -1.644389,-0.64077 -1.835229,-3.02528 -0.103518,-1.29337 0.313494,-2.51431 0.223993,-2.65913 -0.0895,-0.14482 -0.370188,-0.66334 -0.191321,-0.77388 0.178869,-0.11055 0.148314,-0.35789 0.148314,-0.60369 0,-0.86974 2.711723,-3.40996 3.387853,-3.40996 0.18858,0 -0.0552,-0.41481 -0.0552,-0.65153 0,-0.23673 0.68603,-0.46991 1.03803,-0.78847 0.352,-0.31856 0.64,-0.75291 0.64,-0.96522 0,-0.2393 0.26011,-0.94701 0.75646,-0.85213 0.6742,0.12888 0.38875,0.19583 0.7861,-0.75522 0.37111,-0.88818 0.74287,-1.22594 1.252,-1.0928 0.61702,0.16136 0.69384,0.50008 0.73867,-2.66154 0.0259,-1.82453 0.0742,-4.67399 0.10736,-6.16999 0.0347,-1.56359 -0.6501,-2.95461 -0.89309,-3.69042 -0.63203,-1.91385 0.25926,-3.15583 1.45,-3.85838 0.98313,-0.58006 1.62859,-1.64271 1.42135,-2.29388 -0.1105,-0.34721 1.09406,-2.36155 1.41212,-2.36155 0.5281,0 0.2045,-3.22689 -0.41612,-4.18732 -0.34118,-0.528 -0.30942,-1.12355 -0.4159,-1.43155 -0.10648,-0.308 -0.32587,-0.56 -0.48753,-0.56 -0.16167,0 -0.13,-0.30631 0.0704,-0.68069 0.22897,-0.42783 -0.41394,-0.79897 -0.60829,-0.92423 -0.45985,-0.29646 0.0854,-1.75865 0.69549,-2.47122 0.29432,-0.34375 0.76758,-0.40386 0.6733,-0.40386 -0.0943,0 0.15914,-0.35307 0.56314,-0.78459 1.1216,-1.19802 1.18073,-2.1695 1.18073,-2.40889 0,-0.12002 0.5754,0.062 0.84623,-0.13603 0.84143,-0.61527 1.40419,-4.65378 1.40419,-6.71884 0,-1.03761 0.51939,-1.84288 0.34339,-1.95165 -0.176,-0.10877 -0.80649,-0.30037 -0.80649,-0.64199 0,-0.34161 0.35928,-0.79801 0.20381,-0.79801 -0.15547,0 -0.84534,-0.33553 -0.93845,-0.69156 -0.0931,-0.35604 0.29039,-0.70781 0.25762,-0.83577 -0.0328,-0.12797 -0.82153,-0.41098 -0.99601,-0.73701 -0.17449,-0.32604 -0.6407,-1.82032 -0.71169,-3.32063 -0.10692,-2.259644 0.28825,-2.737726 -0.25898,-3.212334 -0.83292,-1.088888 -0.51068,-2.395014 -1.96979,-2.55621 -1.55454,-1.104065 -3.06983,-1.852914 -4.93031,-2.306639 -0.82136,-0.09839 -2.2047,-0.347149 -2.96596,-0.714951 -1.99071,-0.392818 -3.913318,-1.615168 -3.813989,-2.564056 0.276608,-0.154796 1.344681,-0.756296 1.562689,-1.282616 0.21801,-0.526317 0.1824,-1.397242 0.51548,-1.502954 0.33307,-0.105715 0.47291,-0.309024 0.47291,-0.613965 0,-0.304937 0.79196,-0.506105 1.00316,-0.717305 0.2112,-0.2112 -0.6901,-0.693582 -0.81371,-0.693582 -0.12361,0 0.56846,-0.24687 1.15956,-0.81887 1.00836,-0.975773 1.54825,-2.244871 2.88547,-5.477284 0.71919,-1.73848 1.19378,-6.454974 0.54263,-7.67291 -0.38099,-1.907639 -1.02281,-2.916501 -1.39104,-4.012116 0.76991,-0.504567 1.74845,-0.211531 3.10818,0.03697 1.35973,0.248483 3.75692,0.34601 5.16492,0.378887 2.34435,-0.838081 4.32271,0.08163 5.95459,1.16729 0.76574,0 2.01817,0.760125 3.22339,1.971696 1.12255,1.185204 1.4823,1.911551 2.84133,2.594791 -0.61392,1.649307 0.17105,2.482402 0.38455,3.832943 0.0308,1.580659 1.59404,2.524551 2.15471,3.562831 0.59985,1.038628 0.89657,2.409241 1.46189,3.161471 2.05546,1.292479 3.49738,3.174921 4.13724,4.926981 -0.002,1.958584 1.01703,3.281146 2.14146,4.796261 1.3673,1.903229 1.7125,4.465861 2.6009,6.536411 0.29625,0 0.002,4.79131 -0.29319,4.97403 -0.13537,0.0837 -0.0242,1.92468 -0.0774,4.09116 -0.13307,5.42319 -0.31679,5.73602 -1.12708,6.87396 -0.39577,0.55581 -0.58197,1.24626 -0.62997,1.69649 -0.0718,0.67385 -2.45307,2.56859 -2.95219,2.56859 -0.0771,0 -0.44524,0.18149 -0.81802,-0.19128 -0.53103,-0.53103 -0.7343,-1.07279 -0.93888,-0.74177 -0.14362,0.23237 -0.19653,0.527 -0.11759,0.65473 0.079,0.12773 0.51684,0.58967 0.16228,0.7022 -0.58426,0.18544 -0.86603,0.21448 -0.86846,2.87768 -0.003,3.18964 0.39569,7.25844 1.05779,7.25844 0.25775,0 0.80624,0.40176 0.74709,1.15284 -0.0499,0.63407 0.0811,1.05943 0.29129,1.26957 0.46965,0.46965 0.96216,1.42635 1.21412,3.29336 0.20679,1.53239 0.58429,3.25874 1.13323,4.45454 0.43041,0.93761 0.25301,4.57387 -0.20427,5.7432 -0.19377,0.49546 -0.17541,1.57738 -0.17541,2.51237 0,1.12071 -0.34046,2.10108 -0.6569,2.3637 -0.264,0.2191 -0.52423,0.60219 -0.52423,0.90537 0,0.64313 -1.07489,1.92391 -1.84141,2.03641 -0.47378,0.0695 -3.09399,2.59709 -2.6909,2.59709 0.0905,0 -0.81227,0.12933 -1.03322,0.3955 -0.30918,0.37253 -0.37147,0.88536 -0.71424,0.60089 -0.63923,-0.53052 -0.51488,-0.62162 -0.10517,0.27765 0.39652,0.87026 -0.0708,1.55132 -0.95238,1.55132 -0.58448,0 -0.90465,0.5135 -0.90465,0.94309 0,0.45884 -2.68849,2.68216 -3.1369,2.5492 -1.60101,0.55865 -2.13564,0.88602 -2.97888,1.74152 -1.03397,1.13019 -2.35451,0.48709 -3.39103,1.41267 -0.97744,0.37317 -1.72504,-0.11771 -1.95303,0.85414 0.0363,0.73099 -1.07897,0.37858 -1.69691,0.4945 -0.61795,0.11593 -1.03509,0.21558 -1.03509,0.3836 -3.74384,0.0828 -4.26784,0.35503 -7.04122,-0.25743 z m -43.618592,-1.30616 c -0.423423,0.42294 0.111166,-3.77191 0.539694,-4.35177 0.35328,-0.47804 0.18064,-9.42478 -0.177268,-9.99237 -0.15192,-0.24093 -0.09253,-0.82629 0.07892,-0.99774 0.40561,-0.40561 -0.257692,-2.43129 -0.790563,-2.43129 -0.220934,0 -0.62283,-0.17684 -0.62283,-0.44703 0,-0.43658 -0.552966,-2.00901 -1.013766,-2.43297 -0.375312,-0.34531 -0.561553,-1.93897 -0.401688,-2.19764 0.09311,-0.15065 -0.330868,-0.32013 -0.509744,-0.43067 -0.17887,-0.11055 -0.280993,-0.53605 -0.280993,-1.05367 0,-0.51761 0.176142,-1.07379 0.01304,-1.07379 -0.554515,0 -0.922165,-1.64828 -0.350714,-2.27105 1.157839,-2.3794 1.533234,-3.91532 3.459636,-5.93318 0,-0.72382 1.546662,-1.02079 2.526604,-0.0819 1.727617,1.25977 3.278334,3.5392 5.006712,4.13659 1.061214,0.81852 2.599744,1.94085 3.171064,3.02309 1.948071,0.90272 4.272879,3.46252 5.211436,4.93851 0.510724,0.28581 0.290671,0.49415 -0.204141,1.97924 -0.290563,0.8721 -0.188827,1.995 -0.314462,2.171 -1.060365,1.0194 -0.685003,2.38613 -0.861988,3.45887 -1.494983,0.78694 -0.710758,1.37206 -1.090868,2.50473 -0.159756,1.2223 -1.088403,2.40247 -1.82354,3.26193 -0.406707,0.26649 -0.83064,0.86329 -1.212342,1.54244 -0.381702,0.67915 -1.449848,1.81292 -2.157435,2.30328 -2.560733,0.95356 -0.65018,0.91786 -2.930754,2.24452 -0.88,0.51395 -1.732678,0.67897 -1.732678,0.8532 0,0.17422 -0.1728,0.14397 -0.384,-0.0672 -0.456259,-0.45626 -0.572748,-0.0732 -0.302969,0.36336 0.187222,0.30293 -1.537201,1.34957 -1.938775,1.34957 -0.601822,0 -0.673222,-0.18549 -0.861372,-0.41219 z M 49.816154,137.83155 c -0.707517,-1.84667 -1.45055,-3.8685 -1.794583,-5.55578 0.181191,-3.05688 1.254262,-5.51221 2.56281,-7.63363 0.02451,-0.65168 -0.08186,-1.4359 0.03392,-1.36435 0.865173,-2.46139 2.544412,-4.13191 2.985423,-5.95356 0.230486,-0.98487 1.172085,-1.41371 2.933548,-3.18264 0.559504,-0.56187 0.400113,-1.61917 0.456609,-1.97117 1.031116,-1.62307 1.434291,-2.8545 1.719878,-4.67845 0.776435,-2.81 1.371906,-4.74435 1.393356,-6.83922 0.161576,-2.174827 0.986647,-4.629113 1.633092,-6.005576 0.731435,-1.159201 1.155055,-1.67385 1.571948,-3.048078 -0.09485,-0.492534 0.497245,-1.224002 1.914221,-2.392681 0.934008,-0.60409 3.953579,-0.765564 2.071076,-1.255901 -2.590643,-0.06124 -2.770695,1.511622 -3.854894,2.874593 -0.969644,1.553407 -1.074943,3.095673 -2.005526,4.711797 -1.108218,1.818099 -1.395471,3.39796 -1.535794,6.305436 0.309644,3.56605 -1.567589,7.53255 -2.982577,10.11103 -0.938916,2.91559 -2.809464,5.18681 -4.680629,7.78188 0,0.38698 -0.614034,1.84791 -0.878034,1.94922 -1.543097,-0.28359 -1.449838,-2.67938 -1.548681,-4.00648 -0.437707,-2.63391 -1.093169,-4.26933 -2.529353,-6.0226 -1.057499,-2.37209 -2.295165,-3.98715 -2.520433,-6.31445 -0.08751,-1.64771 0.575756,-10.564784 1.075849,-12.26136 0.09154,-0.310557 0.724343,-0.537401 0.865687,-0.450044 0.141347,0.08736 -0.36283,-0.832465 -0.255524,-1.503511 0.125868,-0.787143 0.859609,-1.719528 1.585325,-2.466773 1.366185,-1.641341 2.846504,-3.095095 3.970596,-4.51589 1.588855,-0.216976 1.796616,-1.805694 2.756774,-2.806696 2.204259,-1.239854 3.6494,-2.015458 5.559762,-2.558442 1.666085,-2.083668 1.921226,-4.82873 3.545094,-6.679368 1.668879,-1.214069 2.354389,-2.925684 3.932646,-4.059634 1.461763,-1.732513 2.14813,-2.562066 3.478036,-3.863718 1.731064,-0.494501 4.300983,-3.093647 4.986596,-3.570403 1.553886,0.523018 1.962266,-1.163676 3.136039,-2.009455 0.515533,-0.515469 1.93943,-0.634553 7.437363,-0.467708 0.352,0.01069 1.371322,0.249517 2.427322,0.206397 1.056,-0.04311 2.46891,0.186262 2.923586,0.401611 0.454672,0.215344 1.900173,0.708433 3.104116,0.987645 2.608524,0.604957 4.710822,1.781911 5.278452,2.99392 -0.10829,0.965758 0.66782,2.114061 0.67726,2.775871 2.1122,1.857386 0.32806,-0.211752 2.24224,1.67281 0.10601,0.333994 -0.46539,1.046963 -0.13462,1.151946 0.34727,0.110217 1.49008,0.712653 1.61665,1.30482 0.12056,0.564022 0.24215,1.26253 0.43237,1.498187 0.54835,0.679325 0.69276,6.15902 0.18844,7.069062 -1.02888,2.951404 -2.32284,4.743359 -3.8082,6.91726 -1.883977,2.545846 -3.887533,3.935157 -4.227739,4.817035 -0.779884,0.124853 -2.356806,0.677843 -2.41975,0.715498 -0.140746,0.22 -0.399901,0.404019 -0.575901,0.408934 -1.579216,0.04409 -4.153514,1.246108 -4.153514,1.479926 -1.763256,0.582604 -3.532672,1.186065 -5.758654,1.872798 -2.283294,0.875586 -4.122787,1.604862 -6.070928,2.579541 -2.019004,1.214251 -2.629668,1.385937 -4.07338,2.432977 -0.768685,0.533945 -1.690609,0.759164 -1.778452,1.095074 -0.08831,0.33769 -0.438803,0.61075 -0.783958,0.61075 -0.478618,0 -0.576855,0.1493 -0.421114,0.64 0.166691,0.5252 0.0575,0.64 -0.608704,0.64 -0.940701,0 -2.648786,1.29816 -3.880044,2.43984 -0.470944,0.43668 -1.057748,0.44016 -1.195902,0.44016 -0.138156,0 0.08867,0.5009 -0.09052,0.8969 -0.40312,0.89082 -1.502243,1.77529 -1.944447,2.34897 -0.624919,0.81072 -0.533752,4.21977 -0.495566,6.9499 0.291932,2.14592 0.311546,4.21231 1.765513,6.25324 0.781237,1.73145 0.811843,2.07662 -1.083717,5.27522 0.11695,0.54318 -0.450398,2.19147 -1.70963,3.54535 -1.808078,2.11865 -3.921009,4.66437 -5.434462,6.66691 -0.631491,2.84411 -1.10741,5.12077 -3.598297,6.3455 -1.651584,-1.60761 -2.723139,-4.02047 -3.428065,-5.73044 z M 55.090525,142.4 c 0,-0.44 0.07263,-0.62 0.161405,-0.4 0.08877,0.22 0.08877,0.58 0,0.8 -0.08877,0.22 -0.161405,0.04 -0.161405,-0.4 z m 10.386432,-20.0735 c -0.129776,-0.39242 -0.399792,-0.68042 -0.600029,-0.64 -0.20024,0.0404 -0.853734,-0.45005 -1.019776,-1.19805 -0.166042,-0.748 -0.549286,-1.75803 -0.689497,-1.75803 -0.412883,0 -0.197713,-2.3403 0.126294,-3.20835 0.283475,-0.75947 1.056419,0.0117 1.189529,1.15184 -0.635522,1.7991 -1.19007,-0.1788 0.172969,0.48856 -0.114249,0.18486 1.160379,1.04718 1.318989,1.1595 1.125161,0.89526 -0.492671,3.89552 -0.05544,1.99803 0.223734,-1.36834 0.21948,-1.78815 0.240035,-0.16 0.0089,0.704 -0.08808,1.64 -0.215481,2.08 -0.231517,0.79956 -0.231773,0.79961 -0.467604,0.0865 z M 111.147,118.08 c 0.11821,-0.616 -0.3378,-1.35908 0.0137,-1.65129 0.42348,-0.35208 1.12552,-1.05526 1.12552,-1.82394 0,-1.06081 0.0547,-1.8383 0.64,-1.52506 0.352,0.18838 1.43149,1.54597 1.42589,1.93578 -0.0121,0.84331 -1.195,1.87335 -1.53414,1.53954 -0.13133,-0.12927 -0.20803,-0.019 -0.17045,0.24497 0.0376,0.264 0.0491,0.696 0.0255,0.96 -0.0381,0.42667 -0.0773,0.42667 -0.35302,0 -0.2699,-0.41764 -0.31083,-0.41234 -0.3151,0.0408 -0.003,0.28645 0.0644,0.71845 -0.22929,0.96 -0.48581,0.39957 -1.22219,1.0458 -1.02664,0.0268 z m -46.627,-1 c -0.301235,-1.50618 -0.815227,-4.05692 -0.463013,-4.68434 0.171562,-0.30562 0.656894,-1.58215 0.916353,-2.24215 2.412552,-2.74047 2.682325,-1.95896 2.276205,-0.5066 -0.281804,0.76517 -0.273536,0.83948 0.03694,0.94554 0.455475,0.1556 0.06422,1.08755 -0.374569,1.08755 -0.353181,0 -0.728862,3.14694 -0.654334,4.24845 0.04232,0.62558 -0.411924,0.6069 -0.655845,0.23155 -0.277277,-0.42667 -0.316416,-0.42667 -0.35226,0 -0.02218,0.264 0.516633,1.11358 0.548733,1.50958 0.08826,1.08957 -1.049775,0.55249 -1.278191,-0.58958 z m 49.01425,-3.86648 c -0.0795,-0.22743 -0.88024,-1.73729 -0.91448,-3.40929 -0.0557,-2.72161 0.60597,-4.39284 1.02578,-3.85945 0.52485,0.66689 1.50989,5.16773 1.3475,6.83707 -0.10798,1.10991 -1.19383,1.18942 -1.4588,0.43167 z M 63.36,111.98111 c 0,-0.18638 0.144,-0.24988 0.32,-0.14111 0.176,0.10877 0.32,0.26127 0.32,0.33889 0,0.0776 -0.144,0.14111 -0.32,0.14111 -0.176,0 -0.32,-0.1525 -0.32,-0.33889 z m 0,-0.76338 c 0,-0.56007 0.778623,-3.40112 1.058498,-3.40112 1.176341,-2.2629 3.347215,-3.7975 5.772664,-4.77661 0.394515,0 0.292544,0.31804 -0.459018,1.43164 -0.531408,0.7874 -1.103066,1.51623 -1.270346,1.61961 -0.16728,0.10338 -0.222361,0.51383 -0.1224,0.91211 0.11418,0.45493 -0.0081,0.88171 -0.32902,1.14803 -0.455898,0.37836 -0.476144,0.33284 -0.18849,-0.42375 0.177248,-0.4662 0.240845,-0.84764 0.141322,-0.84764 -0.61281,0 -2.11854,2.15174 -2.469375,3.04589 -0.348333,0.88777 -2.133835,1.84154 -2.133835,1.29184 z m 42.13464,-5.49571 c -1.60192,-1.45078 -2.60938,-2.31801 -2.93875,-2.31938 -0.51227,-0.002 -1.8362,-2.01443 -1.34432,-2.02916 0.21134,-0.006 1.3435,0.0488 2.19158,0.23072 1.37343,0.29455 2.11167,1.01829 2.78977,2.29652 0.74689,1.4079 -0.0639,2.39578 -0.69828,1.8213 z m -28.562887,-2.95207 c -0.47336,-0.33155 -1.404897,-0.8564 -2.466597,-0.78282 -1.964016,0.13613 -1.668039,-0.91015 0.307316,-1.25354 2.164652,-0.3763 4.47907,0.35547 4.601179,0.98954 -0.52294,0.83216 -0.148562,1.2643 -2.441898,1.04682 z m 19.23586,-3.018402 c -0.01312,-1.958467 0.649842,-2.505356 2.505957,-2.505356 1.51657,0 2.38199,0.199272 3.30642,1.259224 l 1.1368,1.30345 -3.04192,0.243534 c -2.35178,0.18829 -2.16138,-0.116 -2.432589,0.34923 -0.273828,0.46973 -1.470069,0.0357 -1.474668,-0.650082 z"
         id="path118"
         inkscape:label="hair1"
         sodipodi:nodetypes="ssssssssssssssscsssssssccssssssssssssscccccsssssssccscccccccccccsscssscscsscsssssssscssssccccsccssssssssssssccccccsccccscccssccssccccsccccccccccccccccssscccccccccsssscccsssccccsccccsssssssscccccccssssssssscccccssssssssscscsccsssccsssscssssssssssssssscssssssssscsssscssccsscsssss" />
      <path
         style="display:inline;fill:#fbd8c8;stroke-width:0.32"
         d="m 84.32,150.02894 c -0.704,-0.36452 -1.568,-0.91703 -1.92,-1.22778 -0.352,-0.31076 -1.941434,-1.22658 -3.532077,-2.03515 -1.901616,-0.96666 -3.382937,-1.99342 -4.325353,-2.99807 -2.009034,-2.14172 -6.297952,-5.91139 -7.82257,-6.8755 -0.704,-0.44519 -1.554317,-1.1161 -1.889597,-1.49093 -0.335277,-0.37483 -0.753741,-0.68151 -0.929917,-0.68151 -0.176176,0 -0.892102,-0.5833 -1.59094,-1.29622 l -1.270621,-1.29623 0.736317,-0.78377 c 0.404976,-0.43108 0.646092,-0.78378 0.535817,-0.78378 -0.110275,0 0.172567,-0.396 0.628538,-0.88 0.455971,-0.484 1.169315,-1.6406 1.585209,-2.57023 0.808596,-1.80741 1.488935,-2.31369 2.318688,-1.72547 1.667258,1.18193 2.74161,1.39702 6.116506,1.22454 3.29968,-0.16864 5.393306,-0.63182 7.290531,-1.61292 1.365104,-0.70592 4.009367,-3.99548 4.550394,-5.66086 0.519872,-1.60025 1.304614,-2.61844 1.520029,-1.9722 0.20144,0.60432 1.510268,0.47514 2.780755,-0.27447 1.033897,-0.61001 1.138291,-0.62081 1.138291,-0.11777 0,0.78131 1.200531,2.62991 2.647898,4.07728 1.685136,1.68513 4.292265,2.52369 8.392102,2.69923 l 3.2,0.137 2.6638,-1.30206 c 1.4651,-0.71614 2.70993,-1.30207 2.76631,-1.30207 0.0564,0 -0.012,0.50746 -0.15184,1.12768 -0.32395,1.43632 -0.18127,2.0372 1.15222,4.85259 0.59923,1.26514 1.08951,2.45532 1.08951,2.64484 0,0.55777 -1.95491,3.88895 -3.25996,5.555 -0.66352,0.84705 -1.37936,2.14305 -1.59075,2.88 -0.8023,2.79687 -8.874724,9.30872 -14.125069,11.39438 -3.133197,1.24464 -6.640039,1.36327 -8.704221,0.29445 z m 3.992205,-8.36447 c 1.852288,-0.0311 3.727795,0.0607 4.167795,0.20384 l 0.8,0.26031 -0.8,-0.70551 c -0.750701,-0.66204 -1.00809,-0.69381 -4.176848,-0.51542 -1.857267,0.10455 -3.839664,0.3847 -4.405328,0.62254 -1.211046,0.50921 -1.020934,0.97677 0.207283,0.50981 0.461616,-0.17551 2.35481,-0.34451 4.207098,-0.37557 z m 1.678441,-8.72353 c 0.805562,-0.27448 1.676064,-0.74248 1.934452,-1.04 0.57656,-0.66388 1.021504,-3.26094 0.558684,-3.26094 -0.17808,0 -0.323782,0.55368 -0.323782,1.2304 0,1.44986 -0.565987,2.06607 -2.536118,2.76117 -2.001325,0.70611 -2.51698,0.61933 -3.770925,-0.63461 -1.005626,-1.00563 -1.101408,-1.24819 -0.916128,-2.32 0.149379,-0.86412 0.115993,-1.06348 -0.120058,-0.71696 -0.659945,0.96881 -0.372054,2.26872 0.751229,3.392 1.240883,1.24088 2.152877,1.36233 4.422646,0.58894 z M 69.44,124 c -0.737302,-0.616 -1.537862,-1.12 -1.779018,-1.12 -0.614448,0 -1.100982,-1.03768 -1.100982,-2.34819 v -1.11025 l 1.704269,0.92307 c 1.333872,0.72245 2.290141,0.96735 4.4,1.1268 2.606073,0.19696 5.168438,-0.17242 5.556957,-0.80106 0.09254,-0.14972 0.243136,-2.01425 0.334662,-4.14339 0.12263,-2.85279 0.04856,-4.21322 -0.281558,-5.1714 -0.246381,-0.71513 -0.374103,-1.58269 -0.283824,-1.92791 0.149958,-0.57345 -0.0063,-0.62767 -1.809076,-0.62767 -1.860662,0 -3.378272,0.48522 -4.383408,1.40149 -0.2163,0.19718 -1.115446,0.86251 -1.998102,1.47851 -0.882656,0.616 -1.759942,1.408 -1.949523,1.76 -0.267191,0.4961 -0.306464,0.22612 -0.174666,-1.20072 0.258794,-2.80169 1.483987,-5.4718 2.536282,-5.52741 0.420621,-0.0222 2.204025,-0.85884 2.427987,-1.13898 0.420224,-0.52566 2.765088,-0.99177 4.081526,-0.81133 1.812964,0.24849 4.27409,1.70071 6.360432,3.75305 1.495431,1.47105 2.202231,5.90944 1.236071,7.76197 -0.262915,0.50412 -0.478029,1.1089 -0.478029,1.34395 0,0.65623 -1.788909,3.15807 -3.049632,4.265 -1.46599,1.28716 -3.20873,2.16236 -5.48784,2.75599 C 72.26527,125.43263 70.987373,125.29279 69.44,124 Z m 28.374083,-3.66091 c -1.026256,-0.49995 -2.28895,-1.3143 -2.805987,-1.80966 -2.078224,-1.99106 -2.996154,-8.54949 -1.580349,-11.29131 0.819223,-1.58649 2.720887,-3.32652 4.733184,-4.33088 1.758823,-0.87784 2.899019,-0.87075 3.640469,0.0226 0.21321,0.2569 0.83112,0.66052 1.37312,0.89693 0.54202,0.23642 1.3752,0.8041 1.85152,1.26152 0.47631,0.45741 1.01631,0.83166 1.2,0.83166 0.51323,0 0.39588,-1.47024 -0.15377,-1.92642 -0.99055,-0.82208 -0.14932,-0.67266 1.02878,0.18272 1.59608,1.15889 3.51779,3.65496 4.34335,5.64147 0.58972,1.41902 0.62149,1.79537 0.29826,3.53346 -0.20479,1.10118 -0.64401,2.24572 -1.01222,2.63765 -0.35774,0.38081 -0.65116,0.82709 -0.65203,0.99175 -0.003,0.57253 -4.15805,3.08638 -6.10062,3.69097 -2.62805,0.81794 -3.94844,0.74671 -6.163707,-0.3325 z m 7.963197,-1.38924 c 2.11643,-1.06111 3.98171,-3.2909 3.75314,-4.48658 -0.0912,-0.47682 0.008,-1.0768 0.22129,-1.33328 0.59351,-0.71514 -2.32815,-3.54727 -4.35614,-4.22265 -0.85556,-0.28492 -1.71552,-0.64263 -1.91102,-0.7949 -0.60404,-0.47048 -5.019344,-0.89583 -6.300268,-0.60694 -2.05122,0.46263 -2.156352,0.67759 -1.940999,3.96877 0.135885,2.07668 0.418163,3.44348 0.972704,4.70985 0.429696,0.98127 0.736883,1.97059 0.682637,2.19848 -0.05424,0.22789 0.333376,0.68349 0.861376,1.01245 1.448739,0.90259 5.81236,0.66028 8.01728,-0.4452 z M 104.64,117.63918 c 0,-0.0664 0.252,-0.31845 0.56,-0.56 0.50754,-0.39804 0.51886,-0.38672 0.12082,0.12082 -0.41804,0.53304 -0.68082,0.70255 -0.68082,0.43918 z m -18.24792,-4.22001 c -0.171645,-0.45146 -0.31425,-1.42346 -0.316899,-2.16 -0.0067,-1.86703 -0.613853,-3.41671 -2.002573,-5.11146 -1.142006,-1.39367 -3.675203,-3.10771 -4.592912,-3.10771 -0.558141,0 -0.551616,-0.13536 0.0639,-1.32563 0.276976,-0.53561 0.424537,-1.0529 0.32791,-1.14953 -0.238464,-0.23846 -3.862579,-0.17136 -5.107232,0.0946 -0.992384,0.21203 -0.987225,0.20091 0.435725,-0.939314 0.792,-0.634637 1.549066,-1.155283 1.682365,-1.156989 0.133302,-0.0016 1.933302,-0.806461 4,-1.788339 5.113334,-2.429322 4.807734,-2.296352 6.930141,-3.015328 1.040876,-0.352605 1.959132,-0.574467 2.040569,-0.49303 0.08144,0.08144 0.525811,-0.04352 0.987495,-0.277677 0.461686,-0.234157 1.731964,-0.579904 2.822838,-0.768323 1.090877,-0.188423 2.375184,-0.547856 2.854016,-0.798743 0.809872,-0.424333 1.012266,-0.381005 2.901187,0.621088 1.11682,0.592487 2.30802,1.077245 2.6471,1.077245 0.33909,0 0.6928,0.12343 0.78604,0.274285 0.0932,0.150857 1.07373,0.449373 2.17888,0.663366 1.10516,0.213997 2.30997,0.447437 2.67738,0.518762 1.13742,0.220809 2.22014,1.304912 3.23905,3.243193 1.49144,2.837184 1.73746,6.499194 0.34293,5.104674 -0.97027,-0.97028 -4.69169,-2.69896 -6.28062,-2.91749 -1.31395,-0.180713 -1.87535,-0.468067 -2.88289,-1.475603 C 100.9278,97.332506 100.78787,97.28 98.791885,97.28 96.465677,97.28 96.32,97.413939 96.32,99.552768 c 0,1.132492 -0.148029,1.364762 -1.458464,2.288442 -1.321658,0.93159 -2.811619,2.88457 -3.477978,4.55879 -0.140099,0.352 -0.492777,2.0581 -0.783731,3.79133 l -0.529005,3.15133 -1.275411,0.44385 c -1.766153,0.61464 -2.046262,0.57182 -2.403331,-0.36734 z"
         id="path128"
         inkscape:label="skin" />
      <path
         style="display:inline;fill:#93a4aa;stroke-width:0.32"
         d="m 71.223478,120.08853 c -0.627824,-0.16011 -1.512323,-1.04088 -2.146102,-2.13705 -0.296211,-0.51233 -0.266307,-0.5757 0.189174,-0.40092 0.581293,0.22306 1.43953,-0.43305 1.475108,-1.1277 0.0119,-0.23258 0.177916,-0.0989 0.368899,0.29714 0.563977,1.16939 2.169443,0.83407 2.169443,-0.45312 0,-0.45001 0.138701,-0.69893 0.325219,-0.58365 0.178871,0.11054 0.249549,0.32343 0.157059,0.47308 -0.09249,0.14965 0.02346,0.4637 0.257639,0.69789 0.234189,0.23419 0.48751,0.5698 0.562941,0.7458 0.07543,0.176 0.317142,0.3 0.537142,0.27556 0.985539,-0.10951 -0.09648,1.45713 -1.375478,1.99153 -1.111706,0.4645 -1.451076,0.49431 -2.521044,0.22144 z m 1.67472,-1.857 c -0.09852,-0.0985 -0.277456,0.0791 -0.397625,0.39467 -0.173658,0.45606 -0.136903,0.49282 0.179136,0.17913 0.218694,-0.21706 0.317014,-0.47527 0.218489,-0.5738 z M 100.88,117.68944 c -0.396,-0.19098 -0.72,-0.46924 -0.72,-0.61834 0,-0.14911 0,-0.3791 0,-0.5111 0,-0.132 0.132,-0.24 0.29333,-0.24 0.54095,0 0.81245,-0.51213 0.405,-0.76395 -0.31045,-0.19187 -0.32101,-0.46374 -0.0459,-1.1826 l 0.35726,-0.93345 0.44998,1.06446 c 0.62665,1.48235 1.54454,1.28333 1.68067,-0.36441 l 0.10034,-1.21462 0.61966,0.78776 c 0.34081,0.43326 0.61965,1.01704 0.61965,1.29728 0,0.28024 0.1525,0.50953 0.33889,0.50953 0.18638,0 0.24988,-0.144 0.14111,-0.32 -0.10877,-0.176 0.029,-0.32 0.3062,-0.32 0.63504,0 0.56995,1.8223 -0.0739,2.06938 -0.23807,0.0913 -0.32948,0.33337 -0.20313,0.5378 0.14283,0.2311 0.09,0.28534 -0.13972,0.14338 -0.20319,-0.12558 -0.36944,-0.0758 -0.36944,0.11055 0,0.44122 -2.81833,0.40248 -3.76,-0.0517 z M 101.76,116.8 c 0,-0.176 -0.0635,-0.32 -0.14111,-0.32 -0.0776,0 -0.23012,0.144 -0.33889,0.32 -0.10877,0.176 -0.0453,0.32 0.14111,0.32 0.18639,0 0.33889,-0.144 0.33889,-0.32 z m 2.27971,-0.72533 c -0.31604,-0.31369 -0.35279,-0.27693 -0.17914,0.17913 0.12017,0.31559 0.2991,0.49319 0.39763,0.39467 0.0985,-0.0985 2e-4,-0.35674 -0.21849,-0.5738 z m 2.54555,-1.70134 c 0.0154,-0.37278 0.0912,-0.4486 0.19334,-0.19333 0.0924,0.231 0.0811,0.507 -0.0252,0.61333 -0.10634,0.10634 -0.18197,-0.0827 -0.16807,-0.42 z m -32.237842,-1.61405 c -0.556922,-0.5936 -0.874375,-1.07928 -0.705456,-1.07928 0.413606,0 1.878038,1.48581 1.878038,1.90546 0,0.43003 0.01766,0.44248 -1.172582,-0.82618 z m 24.999424,-2.38057 c -0.249072,-0.40301 0.0071,-0.71682 0.663948,-0.81322 0.25974,-0.0381 0.38962,0.0644 0.28862,0.22782 -0.101,0.16342 -0.342152,0.19916 -0.535903,0.0794 -0.226681,-0.1401 -0.279421,-0.0279 -0.147929,0.31478 0.228371,0.59512 0.05649,0.71742 -0.268736,0.1912 z M 103.95918,109.84 c -0.39804,-0.50754 -0.38672,-0.51886 0.12082,-0.12082 0.53304,0.41804 0.70255,0.68082 0.43918,0.68082 -0.0665,0 -0.31845,-0.252 -0.56,-0.56 z"
         id="path126"
         inkscape:label="eye2" />
      <path
         style="display:inline;fill:#768f98;stroke-width:0.32"
         d="m 70.578445,120.66984 c -0.09863,-0.15958 0.10887,-0.21479 0.461113,-0.12268 0.747197,0.1954 0.841648,0.41284 0.179328,0.41284 -0.253612,0 -0.541811,-0.13057 -0.640441,-0.29016 z m -0.81552,-1.46632 c -0.217495,-0.26206 -0.545373,-0.38381 -0.728627,-0.27055 -0.19984,0.12351 -0.23665,0.0497 -0.09197,-0.18437 0.181264,-0.29329 0.392375,-0.25349 0.849444,0.16015 0.334524,0.30274 0.60823,0.60012 0.60823,0.66085 0,0.23788 -0.259667,0.0887 -0.637075,-0.36608 z m 2.737648,-0.57732 c 0.120169,-0.31559 0.299101,-0.49319 0.397625,-0.39467 0.09853,0.0985 2.05e-4,0.35674 -0.218489,0.5738 -0.316039,0.31369 -0.352794,0.27693 -0.179136,-0.17913 z m 29.823157,-0.45252 c 0.39805,-0.0765 0.97405,-0.0736 1.28,0.006 0.30595,0.0801 -0.0197,0.14272 -0.72373,0.13917 -0.704,-0.004 -0.95432,-0.0691 -0.55627,-0.14563 z m -27.936316,-0.43404 c -0.101852,-0.1648 -0.06869,-0.30184 0.0737,-0.30454 0.142387,-0.003 0.06931,-0.12511 -0.162388,-0.27203 -0.231702,-0.14693 -0.454627,-0.46872 -0.495392,-0.71511 -0.13406,-0.8103 -0.846854,-1.86733 -1.49206,-2.21263 -0.531175,-0.28428 -0.691924,-0.21233 -0.990698,0.44341 -0.279024,0.61239 -0.249235,0.99804 0.136864,1.772 0.27143,0.54409 0.38255,0.98926 0.246934,0.98926 -0.135616,0 -0.402832,-0.324 -0.593817,-0.72 -0.190983,-0.396 -0.356989,-0.52972 -0.368899,-0.29714 -0.03992,0.77939 -0.863175,1.31449 -1.661789,1.08013 -0.626912,-0.18397 -0.775949,-0.46554 -0.85177,-1.60923 -0.0551,-0.83115 0.03178,-1.3098 0.21696,-1.19535 0.169875,0.10499 0.400935,-0.0992 0.513466,-0.45376 0.112531,-0.35456 0.347398,-0.64465 0.521923,-0.64465 0.174528,0 0.240221,-0.12476 0.145984,-0.27723 -0.26975,-0.43647 0.814294,-1.22673 2.199392,-1.60335 0.84776,-0.23051 1.331798,-0.23743 1.465584,-0.021 0.109869,0.17777 0.404246,0.26995 0.654176,0.20483 0.24993,-0.0651 0.337613,-0.0551 0.194854,0.0223 -0.142758,0.0774 -0.01552,0.41041 0.282768,0.74 0.298279,0.3296 0.689332,0.50841 0.869005,0.39737 0.197427,-0.12202 0.227591,-0.0416 0.07623,0.20332 -0.139584,0.22586 -0.08689,0.50631 0.119056,0.63359 0.370502,0.22898 0.482793,1.25405 0.336902,3.07551 -0.05482,0.68446 -0.253184,0.98862 -0.664963,1.01964 -0.322762,0.0243 -0.670173,-0.0906 -0.772026,-0.25543 z m 25.327824,-0.34644 c -0.2687,-0.38362 -0.414054,-0.81803 -0.323008,-0.96535 0.09105,-0.14732 0.01756,-0.26785 -0.163302,-0.26785 -0.180864,0 -0.245955,-0.216 -0.14465,-0.48 0.101309,-0.264 0.02931,-0.48 -0.16,-0.48 -0.189558,0 -0.25239,-0.23923 -0.139856,-0.53249 0.136464,-0.35563 0.0812,-0.4564 -0.166377,-0.30339 -0.242205,0.1497 -0.304653,0.057 -0.180144,-0.2675 0.104816,-0.27314 0.03117,-0.49662 -0.163664,-0.49662 -0.194832,0 -0.354237,-0.3754 -0.354237,-0.83424 0,-0.64202 0.121024,-0.78779 0.525261,-0.63267 0.459072,0.17616 0.469155,0.1326 0.08,-0.34568 -0.392663,-0.48259 -0.378234,-0.52211 0.122144,-0.33453 0.484333,0.18157 0.517344,0.11917 0.225469,-0.4262 -0.250941,-0.46888 -0.231175,-0.87 0.07427,-1.50729 0.346998,-0.72399 0.641638,-0.87823 1.771926,-0.92756 0.74564,-0.0325 1.43883,0.0753 1.54043,0.23972 0.1016,0.16439 0.31877,0.21604 0.48261,0.11478 0.16384,-0.10125 0.29789,-0.008 0.29789,0.20812 0,0.21572 0.0899,0.30234 0.19972,0.19249 0.10985,-0.10985 0.43385,0.0529 0.72,0.36175 0.28616,0.30881 0.37628,0.34704 0.20028,0.085 -0.23462,-0.34937 -0.21571,-0.41389 0.0709,-0.24182 0.49791,0.29893 1.73615,3.07317 1.52451,3.41562 -0.0877,0.14184 -0.0361,0.30619 0.11463,0.36522 0.1507,0.059 0.3539,0.71936 0.45155,1.4674 0.10144,0.77711 0.0534,1.28337 -0.11202,1.18112 -0.15926,-0.0984 -0.28956,-0.38646 -0.28956,-0.64008 0,-0.25361 -0.2245,-0.46111 -0.49889,-0.46111 -0.27438,0 -0.40988,0.144 -0.30111,0.32 0.10877,0.176 0.0453,0.32 -0.14111,0.32 -0.18639,0 -0.34103,-0.252 -0.34365,-0.56 -0.003,-0.308 -0.49178,-1.13575 -1.08703,-1.83944 -1.0433,-1.23337 -1.10455,-1.25926 -1.70121,-0.7193 -0.34041,0.30808 -0.71645,0.48902 -0.83563,0.40211 -0.11919,-0.0869 -0.0884,-0.003 0.0683,0.18563 0.17229,0.20775 0.0938,0.72702 -0.19855,1.31298 -0.40221,0.80624 -0.41089,1.01421 -0.0516,1.23626 0.45903,0.2837 0.1684,0.78176 -0.45619,0.78176 -0.537297,0 -0.473668,0.9255 0.0787,1.1448 0.31794,0.12622 0.35237,0.2547 0.10862,0.40535 -0.19628,0.12131 -0.57672,-0.0933 -0.845424,-0.47695 z m -0.09966,-7.20569 c -0.131492,-0.34266 -0.07875,-0.45488 0.147929,-0.31478 0.193751,0.11974 0.434903,0.084 0.535903,-0.0794 0.2166,-0.35046 -0.433388,-0.29143 -1.053573,0.0957 -0.365552,0.22817 -0.365552,0.31448 0,0.5461 0.588365,0.37281 0.603833,0.36245 0.369741,-0.24759 z M 101.28,116.8 c 0.10877,-0.176 0.26127,-0.32 0.33889,-0.32 0.0776,0 0.14111,0.144 0.14111,0.32 0,0.176 -0.1525,0.32 -0.33889,0.32 -0.18638,0 -0.24988,-0.144 -0.14111,-0.32 z m 2.58057,-0.5462 c -0.17365,-0.45606 -0.1369,-0.49282 0.17914,-0.17913 0.21869,0.21706 0.31701,0.47527 0.21849,0.5738 -0.0985,0.0985 -0.27746,-0.0791 -0.39763,-0.39467 z m -1.92735,-1.03242 c -0.12707,-0.20559 -0.003,-0.256 0.32246,-0.13109 0.29667,0.11385 0.66594,0.007 0.84098,-0.24366 0.2597,-0.37169 0.2901,-0.36609 0.18118,0.0334 -0.15793,0.57923 -1.05661,0.8074 -1.34462,0.34138 z"
         id="path124"
         inkscape:label="eye1" />
      <path
         style="display:inline;fill:#b02401;stroke-width:0.32"
         d="m 68.8,125.9965 c -1.804003,-0.89411 -2.56,-1.59917 -2.56,-2.38754 0,-0.59568 0.128061,-0.74829 0.506173,-0.6032 0.278393,0.10684 0.624768,0.19424 0.769721,0.19424 0.144954,0 0.866804,0.504 1.604106,1.12 1.154141,0.96426 1.571731,1.12 3.003043,1.12 3.175658,0 6.781475,-1.29771 8.987325,-3.23447 1.260723,-1.10693 3.049632,-3.60877 3.049632,-4.265 0,-0.23505 0.215114,-0.83983 0.478029,-1.34395 1.011894,-1.94022 -0.131993,-6.85822 -1.645922,-8.31766 -1.39529,-1.34506 -2.564203,-2.59397 -4.049928,-3.30121 -1.998662,-0.95143 -4.450246,-0.81179 -7.002361,0.39885 -1.001104,0.47489 -1.901104,0.86344 -2,0.86344 -0.54561,0 -0.0068,-1.29521 1.029731,-2.4755 1.155033,-1.31518 1.252336,-1.3572 3.270451,-1.41256 3.4156,-0.0937 7.228991,1.43063 9.289202,3.84972 1.492055,1.75197 2.219051,3.45143 2.225979,5.37751 0.01043,2.89672 0.730918,3.44244 3.344118,2.53288 1.451283,-0.50513 1.611719,-0.82777 1.925447,-3.87205 0.354048,-3.43552 2.06742,-6.81442 4.13182,-8.14827 0.551888,-0.35658 1.435434,-0.94796 1.963434,-1.31417 0.882074,-0.61178 1.284768,-0.65305 4.9609,-0.50851 3.878,0.15247 4.06968,0.1942 6.24,1.35823 1.23151,0.66051 2.3111,1.2854 2.3991,1.38864 0.088,0.10325 0.7,0.59023 1.36,1.08219 1.19202,0.88851 1.20002,0.90978 1.20309,3.19817 0.005,3.84481 -0.69245,8.64405 -1.32334,9.10412 -0.30199,0.22022 -0.6517,0.86764 -0.77713,1.43872 -0.52403,2.38592 0.006,2.27272 -4.19574,4.35887 -2.95969,1.46943 -3.06562,1.39623 -5.81088,1.23805 -3.544688,-0.20425 -7.006406,-1.28929 -7.488413,-2.34718 -0.18959,-0.4161 -0.601033,-0.83791 -0.91432,-0.93734 -0.629731,-0.19987 -2.213267,-2.6958 -2.213267,-3.4885 0,-0.67545 -0.585027,-0.6317 -1.847734,0.13818 C 87.57799,117.49276 86.72,117.63006 86.72,117.12 c 0,-0.45156 -0.930163,-0.39812 -1.392541,0.08 -0.212755,0.22 -0.593693,1.03678 -0.846534,1.81506 -0.541027,1.66538 -3.317968,5.13184 -4.683072,5.83776 -2.71679,1.40491 -9.235463,2.01715 -10.997853,1.14368 z m 36.02433,-5.10207 c 1.73804,-0.61457 5.57567,-3.117 5.57567,-3.63576 0,-0.22672 0.33556,-0.67617 0.74569,-0.99878 0.69129,-0.54377 1.23526,-2.17953 1.257,-3.77989 0.0178,-1.30748 -0.22672,-2.72 -0.47076,-2.72 -0.13856,0 -0.25193,-0.19433 -0.25193,-0.43184 0,-0.99921 -3.09186,-4.68628 -4.96,-5.91483 -3.38734,-2.22764 -5.36686,-2.45946 -8.48,-0.9931 -5.182714,2.44118 -7.001706,6.48375 -5.49095,12.2032 0.357884,1.35489 0.791366,2.72289 0.963286,3.04 0.575542,1.06159 2.112144,2.29528 3.887664,3.12129 1.460413,0.67942 2.114054,0.7977 3.84,0.69486 1.144,-0.0682 2.66695,-0.33148 3.38433,-0.58515 z"
         id="path122"
         inkscape:label="glasses"
         sodipodi:nodetypes="ssssssssssssscssssssssssscsssssssssssssssscssssssscs" />
      <path
         style="display:inline;fill:#31261d;stroke-width:0.32"
         d="m 104.48,169.27802 c -3.57529,-0.75252 -4.23704,-1.00509 -4.648688,-1.77426 -0.230704,-0.43107 -0.575126,-0.78415 -0.765386,-0.78464 -0.198377,-6.4e-4 -0.387904,-0.81945 -0.444345,-1.92 -0.05605,-1.09295 0.03508,-1.91912 0.211686,-1.91912 0.335149,0 0.320912,-0.58878 -0.02771,-1.14589 -0.213504,-0.34119 1.702353,-3.48841 2.254413,-3.70338 0.15641,-0.0609 0.66372,-0.71642 1.12736,-1.45671 0.46365,-0.7403 1.67318,-1.9643 2.68783,-2.72 1.01466,-0.75571 1.89369,-1.48459 1.95341,-1.61974 0.0597,-0.13514 0.322,-0.45914 0.58285,-0.72 0.28631,-0.2863 0.33092,-0.47428 0.11255,-0.47428 -0.2092,0 -0.25648,-0.16868 -0.11212,-0.4 0.28131,-0.45076 0.28585,-0.48086 0.55843,-3.7015 0.11654,-1.37682 0.0784,-2.26746 -0.0926,-2.16178 -0.39366,0.24329 -0.61495,-2.31145 -0.23328,-2.69312 0.19017,-0.19016 0.10505,-0.37844 -0.22905,-0.50664 -0.29242,-0.11221 -0.452,-0.33293 -0.35462,-0.49049 0.27463,-0.44436 -0.12088,-0.33831 -0.74072,0.19862 -4.29894,3.72388 -8.98644,7.19491 -9.716462,7.19491 -0.155946,0 -0.283536,0.10825 -0.283536,0.24055 0,0.1323 -0.612,0.55052 -1.36,0.92938 -1.44311,0.73093 -3.44,1.44355 -3.44,1.22762 0,-0.071 -0.611059,0.0864 -1.357907,0.34994 -1.409856,0.49742 -4.549767,0.35023 -4.908432,-0.23011 -0.09784,-0.1583 -0.277456,-0.22628 -0.399159,-0.15106 -0.121702,0.0752 -0.79575,-0.27728 -1.497888,-0.78332 -1.623123,-1.1698 -3.764896,-2.3717 -4.076614,-2.28768 -0.132,0.0356 -0.24,-0.0878 -0.24,-0.27421 0,-0.18638 -0.144,-0.24988 -0.32,-0.14111 -0.176,0.10877 -0.320912,0.0813 -0.322022,-0.0611 -9.6e-4,-0.14239 -0.437546,-0.50674 -0.969847,-0.80966 l -0.967824,-0.55077 -0.190153,0.95077 c -0.104586,0.52292 -0.322468,0.95077 -0.484183,0.95077 -0.161715,0 -0.264256,0.18 -0.227872,0.4 0.08374,0.5063 -0.366787,2.21762 -0.695011,2.64 -0.136765,0.176 -0.249958,0.464 -0.251539,0.64 -0.0096,1.06477 -0.45336,3.04 -0.683031,3.04 -0.149744,0 -0.369577,0.576 -0.488518,1.28 -0.118941,0.704 -0.337894,1.28 -0.486563,1.28 -0.148669,0 -0.371232,0.31799 -0.494586,0.70663 -0.123353,0.38865 -0.708816,1.21665 -1.30103,1.84 -0.592215,0.62336 -1.158698,1.38537 -1.258851,1.69337 -0.100154,0.308 -0.30985,0.56 -0.465988,0.56 -0.15614,0 -0.658355,0.37446 -1.116032,0.83214 -1.345948,1.34595 -3.644288,3.00786 -4.159718,3.00786 -0.262477,0 -0.477232,0.216 -0.477232,0.48 0,0.264 -0.182573,0.48 -0.405718,0.48 -0.223143,0 -0.935504,0.36 -1.583021,0.8 -1.53177,1.04086 -2.564378,1.0761 -2.344579,0.08 0.735126,-3.33147 1.0964,-11.48212 0.648912,-14.64 -0.112231,-0.792 -0.565847,-2.232 -1.008036,-3.2 -0.839347,-1.83742 -0.988278,-2.10659 -2.036112,-3.68 -0.351628,-0.528 -0.726464,-1.49066 -0.832966,-2.13924 -0.179344,-1.09218 -0.244019,-1.15125 -0.876061,-0.8 -0.958166,0.53248 -1.151923,0.87401 -1.15752,2.04035 -0.0042,0.87575 -0.594035,1.89096 -0.672662,1.15778 -0.01526,-0.14239 -0.07857,-0.75999 -0.140663,-1.37244 -0.06209,-0.61246 -0.2656,-1.16446 -0.452233,-1.22667 C 52.632704,143.67757 52.48,143.43467 52.48,143.2 c 0,-0.23467 -0.112749,-0.47467 -0.250554,-0.53333 C 51.740374,142.45845 48.96,137.47765 48.96,136.80973 c 0,-0.24001 -0.108,-0.4844 -0.24,-0.54306 -0.132,-0.0587 -0.491485,-1.11467 -0.798858,-2.34667 -0.491555,-1.97025 -0.506748,-2.43446 -0.126172,-3.85476 0.237974,-0.88812 0.594422,-1.91698 0.792105,-2.28635 0.197683,-0.36937 0.453875,-1.47523 0.569319,-2.45746 0.115443,-0.98223 0.318108,-1.71899 0.450368,-1.63725 0.50272,0.3107 0.560944,-1.23084 0.136419,-3.61173 -0.242471,-1.35985 -0.445875,-3.05565 -0.452016,-3.76845 -0.0061,-0.7128 -0.183965,-1.4688 -0.395165,-1.68 -0.2112,-0.2112 -0.272915,-0.384 -0.137142,-0.384 0.135769,0 0.05657,-0.19593 -0.176,-0.4354 C 47.17567,112.35565 46.4,111.29844 46.4,110.82944 c 0,-0.29486 -0.09752,-0.43859 -0.216714,-0.31939 -0.119193,0.11919 -0.60302,-0.61408 -1.075171,-1.62949 -0.964029,-2.07324 -1.540989,-6.33276 -0.995776,-7.3515 0.177187,-0.33109 0.354778,-1.746564 0.394643,-3.145514 C 44.546845,96.984595 44.687795,95.624 44.820205,95.36 45.176141,94.650317 46.08,91.517299 46.08,90.99321 c 0,-0.249312 0.200086,-0.530077 0.444637,-0.62392 0.25064,-0.09618 0.376256,-0.432112 0.28791,-0.769949 -0.112573,-0.430477 0.641155,-1.431418 2.675363,-3.552842 1.557648,-1.624435 3.493213,-3.649437 4.301255,-4.500006 1.278896,-1.346211 1.812547,-1.642621 2.735059,-1.519162 0.11232,0.01504 0.29232,-0.09297 0.4,-0.24 C 57.235558,79.362208 58.505997,78.72 59.035658,78.72 59.302045,78.72 59.52,78.596096 59.52,78.444656 c 0,-0.15144 0.330874,-0.76344 0.735277,-1.36 0.4044,-0.59656 1.08839,-1.732656 1.519974,-2.524656 0.431587,-0.792 1.792714,-2.611414 3.024727,-4.043142 C 66.03199,69.08513 67.616,67.181779 68.32,66.287197 c 0.903782,-1.148451 1.632704,-1.727239 2.48,-1.969191 0.694672,-0.198371 1.2,-0.542947 1.2,-0.818259 0,-0.261574 0.324,-0.600403 0.72,-0.752957 0.396,-0.15255 1.296,-0.83904 2,-1.525529 C 76.289738,59.690563 78.095706,58.56 78.971104,58.56 c 0.36056,0 0.712586,-0.171069 0.782282,-0.380157 0.196262,-0.58879 11.297638,-0.433545 12.925209,0.180749 0.682771,0.257699 2.033405,0.636109 3.001405,0.840912 3.256051,0.688886 3.837907,0.967898 4.62775,2.219091 0.41708,0.660688 0.85789,1.865264 0.97959,2.676835 0.20168,1.344852 0.32456,1.508826 1.38697,1.850781 0.64113,0.206359 1.3199,0.496656 1.50837,0.645107 0.18848,0.148452 0.76448,0.24946 1.28,0.224464 0.51553,-0.02499 3.33213,0.194874 6.25912,0.488599 4.30522,0.432032 5.65,0.689472 7.04,1.347705 2.64682,1.253412 4.1182,2.331895 4.1182,3.018538 0,0.171942 0.36169,0.549613 0.80376,0.839264 0.44206,0.289654 0.89836,0.903549 1.01397,1.364208 0.11562,0.460662 0.40193,1.029277 0.63624,1.263594 0.23432,0.234313 0.42603,0.830105 0.42603,1.323984 0,0.493878 0.20674,1.069542 0.45943,1.279254 0.25269,0.209712 0.55177,0.801693 0.66462,1.315514 0.11286,0.51382 0.33811,1.016368 0.50057,1.116774 0.16246,0.100406 0.29538,0.534058 0.29538,0.96367 0,0.456768 0.18631,0.781114 0.44869,0.781114 0.24679,0 0.59508,0.396 0.77399,0.88 0.1789,0.484 0.80499,1.408294 1.3913,2.053984 2.01902,2.223504 2.50607,2.881907 2.52491,3.4132 0.0104,0.29305 0.33439,1.120291 0.72,1.838317 0.38561,0.718025 0.98911,1.870025 1.34111,2.56 0.352,0.689974 0.784,1.429501 0.96,1.643395 0.176,0.213891 0.50088,0.604758 0.72196,0.868589 0.57526,0.686509 1.43921,4.656681 1.23525,5.676445 -0.0947,0.47359 -0.0223,0.91103 0.16085,0.97209 0.23062,0.0769 0.22918,1.68318 -0.005,5.2225 -0.59245,8.96554 -1.09686,10.69864 -3.80404,13.07032 -0.92988,0.81464 -1.91038,1.48116 -2.17889,1.48116 -0.26851,0 -0.40929,0.12768 -0.31284,0.28374 0.0965,0.15606 -0.0391,0.46169 -0.30111,0.67918 -0.54415,0.4516 -0.6682,4.0747 -0.19274,5.62933 0.15605,0.51026 0.5328,1.86375 0.83721,3.00775 0.30441,1.144 0.74084,2.512 0.96984,3.04 1.49906,3.45629 2.19163,7.86233 1.99501,12.69195 -0.12182,2.99218 -0.2881,3.99319 -0.83887,5.04985 -0.37781,0.72485 -0.68693,1.51523 -0.68693,1.75639 0,0.46489 -3.55684,3.70181 -4.06767,3.70181 -0.41381,0 -1.69233,1.39716 -1.69233,1.84937 0,0.20246 -0.28482,0.52054 -0.63293,0.70684 -0.79129,0.42349 -2.24707,1.86239 -2.24707,2.22101 0,0.14748 -0.252,0.35555 -0.56,0.46239 -0.308,0.10684 -1.19465,0.55563 -1.97033,0.99732 -0.77568,0.44169 -1.57653,0.80307 -1.77966,0.80307 -0.20313,0 -0.67846,0.288 -1.05629,0.64 -0.37783,0.352 -0.90898,0.64 -1.18034,0.64 -0.27136,0 -0.49338,0.1343 -0.49338,0.29844 0,0.16414 -0.324,0.40073 -0.72,0.52577 -0.396,0.12504 -0.95289,0.49474 -1.23754,0.82157 -0.28464,0.32682 -0.76054,0.59422 -1.05755,0.59422 -0.29701,0 -1.14412,0.27229 -1.88247,0.60508 -1.55214,0.69961 -6.40485,1.08919 -8.38244,0.67294 z m 5.92,-0.94352 c 0,-0.16802 0.50559,-0.40035 1.12354,-0.51628 0.61794,-0.11592 1.20244,-0.33845 1.29888,-0.4945 0.0964,-0.15604 0.41885,-0.28461 0.71647,-0.28569 0.29761,-9.6e-4 0.95357,-0.21709 1.45769,-0.48 0.50412,-0.26292 1.09216,-0.47803 1.30675,-0.47803 0.2146,0 0.9734,-0.54 1.68623,-1.2 0.8297,-0.76821 1.53972,-1.16321 1.97325,-1.09774 0.37245,0.0562 0.67719,-0.0518 0.67719,-0.24 0,-0.18824 0.108,-0.31024 0.24,-0.2711 0.44841,0.13296 2.96,-1.69232 2.96,-2.15116 0,-0.42959 0.93933,-1.12 1.52381,-1.12 0.88158,0 1.03932,-0.28302 0.6428,-1.15328 -0.40971,-0.89923 -0.13603,-1.33889 0.5032,-0.80837 0.34277,0.28447 0.53774,0.25813 0.84692,-0.1144 0.2209,-0.26617 0.32762,-0.48395 0.23715,-0.48395 -0.40309,0 2.57093,-2.92559 3.04471,-2.99513 0.76651,-0.1125 1.84141,-1.17215 1.84141,-1.81528 0,-0.30318 0.216,-0.73049 0.48,-0.94959 0.31644,-0.26262 0.48,-0.97764 0.48,-2.09835 0,-0.93499 0.15854,-2.10536 0.3523,-2.60082 0.45731,-1.16933 0.50205,-4.67291 0.0716,-5.61052 -0.54893,-1.1958 -1.01489,-2.87792 -1.22169,-4.41031 -0.25195,-1.86701 -0.47911,-2.60258 -0.94876,-3.07223 -0.21014,-0.21014 -0.34122,-0.90086 -0.29128,-1.53493 0.0592,-0.75108 -0.0471,-1.15284 -0.30483,-1.15284 -0.6621,0 -1.50297,-4.0688 -1.50006,-7.25844 0.003,-2.6632 0.0631,-2.9576 0.64734,-3.14304 0.35455,-0.11253 0.58005,-0.30911 0.50111,-0.43684 -0.0789,-0.12773 -0.026,-0.42236 0.11758,-0.65473 0.20459,-0.33102 0.40786,-0.27575 0.93889,0.25528 0.37277,0.37277 0.74088,0.67777 0.81802,0.67777 0.49911,0 2.21696,-2.02742 2.2888,-2.70127 0.048,-0.45023 0.41109,-1.27336 0.80687,-1.82917 0.81028,-1.13794 0.81711,-1.18541 0.95017,-6.6086 0.0532,-2.16648 0.2074,-4.00749 0.34277,-4.09116 0.29565,-0.18272 0.27983,-4.9298 -0.0164,-4.9298 -0.22708,0 -0.99244,-3.04071 -0.99244,-3.942877 0,-0.590729 -0.32299,-1.076054 -1.52,-2.283958 -0.396,-0.399607 -0.72,-0.909043 -0.72,-1.13209 0,-0.223043 -0.27411,-0.854531 -0.60913,-1.403305 -0.33501,-0.548772 -0.80007,-1.64577 -1.03346,-2.43777 -0.45819,-1.554854 -1.19119,-2.626336 -1.61675,-2.363325 -0.14585,0.09014 -0.35157,-0.06124 -0.45716,-0.336393 C 129.93792,86.305126 129.65093,86.08 129.40576,86.08 c -0.24516,0 -0.44576,-0.265968 -0.44576,-0.591037 0,-0.325069 -0.28171,-0.915853 -0.62603,-1.312848 -0.34431,-0.396998 -0.78748,-1.21103 -0.98481,-1.808963 C 127.15182,81.769219 126.85753,81.28 126.69518,81.28 126.53283,81.28 126.4,81.081632 126.4,80.839181 c 0,-0.242448 -0.19865,-0.605677 -0.44144,-0.807175 -0.24278,-0.201497 -0.52909,-0.804672 -0.63624,-1.34039 -0.12786,-0.639309 -0.32475,-0.893722 -0.57294,-0.74033 -0.25923,0.160212 -0.31102,0.05878 -0.16468,-0.322569 0.12396,-0.323031 0.0126,-0.757143 -0.26562,-1.035351 -0.4006,-0.400601 -0.66561,-1.812012 -0.51697,-2.753366 0.0208,-0.132 -0.17811,-0.24 -0.44211,-0.24 -0.264,0 -0.48,-0.155853 -0.48,-0.346339 0,-0.190487 -0.70444,-1.054487 -1.56541,-1.92 -1.20522,-1.211571 -1.79426,-1.573661 -2.56,-1.573661 -0.54703,0 -0.99459,-0.128246 -0.99459,-0.284989 0,-0.40623 -1.98832,-0.724464 -4.96,-0.793849 -1.408,-0.03288 -3.67251,-0.263082 -5.03224,-0.511565 -1.35973,-0.248483 -2.5594,-0.364631 -2.66592,-0.258099 -0.32409,0.324089 0.48642,1.528502 1.0286,1.528502 0.42022,0 0.43758,0.08477 0.10051,0.490909 -0.33119,0.399053 -0.32355,0.647785 0.0408,1.329315 0.65115,1.217936 0.53037,6.465142 -0.18882,8.203622 -1.33722,3.232413 -1.92134,4.280381 -2.9297,5.256154 -0.5911,0.572 -0.97359,1.04 -0.84998,1.04 0.12361,0 0.0519,0.1728 -0.15926,0.384 -0.2112,0.2112 -0.384,0.633498 -0.384,0.938435 0,0.304941 -0.27251,0.640928 -0.60558,0.746643 -0.33308,0.105712 -0.78396,0.622829 -1.00197,1.149146 -0.218008,0.52632 -0.62269,1.083594 -0.899298,1.23839 -0.81887,0.458263 0.144934,1.381015 1.200338,1.14921 0.51616,-0.11337 1.35644,0.07099 2.21562,0.486099 0.76126,0.367802 2.05614,0.749235 2.8775,0.847629 0.82136,0.0984 1.6053,0.371459 1.74209,0.606806 0.13678,0.235348 0.76737,0.52521 1.4013,0.644135 0.7391,0.138656 1.20857,0.430272 1.30862,0.812867 0.0858,0.328154 0.42046,0.59664 0.74366,0.59664 0.40193,0 0.68768,0.362301 0.90418,1.146422 0.1741,0.630532 0.61382,1.404247 0.97716,1.71937 0.54723,0.474608 0.68277,1.041142 0.78969,3.300788 0.071,1.50031 0.27184,2.99459 0.44633,3.32063 0.17448,0.32603 0.34407,0.69749 0.37685,0.82546 0.0328,0.12796 0.13577,0.52396 0.22887,0.88 0.0931,0.35603 0.29649,0.64733 0.45196,0.64733 0.15547,0 0.28268,0.2795 0.28268,0.62111 0,0.34162 0.144,0.71012 0.32,0.81889 0.176,0.10877 0.32,1.04672 0.32,2.08433 0,2.06506 -1.22615,5.97089 -2.06758,6.58616 -0.27083,0.19804 -0.49242,0.45827 -0.49242,0.57829 0,0.23939 -0.41294,0.76861 -1.53454,1.96663 -0.404,0.43152 -0.65742,0.78459 -0.56314,0.78459 0.0943,0 -0.0694,0.28124 -0.36372,0.62499 -0.61012,0.71257 -0.80153,1.99786 -0.34168,2.29432 0.19431,0.12526 0.17383,0.45217 -0.0551,0.88 -0.20036,0.37438 -0.23203,0.68069 -0.0704,0.68069 0.16166,0 0.38105,0.252 0.48753,0.56 0.10648,0.308 0.47275,0.992 0.81393,1.52 0.62062,0.96043 0.94422,4.32 0.41612,4.32 -0.31806,0 -1.38994,1.79321 -1.27944,2.14042 0.20724,0.65117 -0.88048,2.37721 -1.86361,2.95727 -1.19074,0.70255 -1.28596,1.14846 -0.65393,3.06231 0.24299,0.73581 0.39706,2.43641 0.36238,4 -0.0332,1.496 -0.0815,4.21279 -0.10736,6.03732 -0.0448,3.16162 -0.0774,3.30938 -0.69445,3.14802 -0.50913,-0.13314 -0.74821,0.0719 -1.11932,0.96012 -0.39735,0.951 -0.59838,1.10523 -1.27258,0.97635 -0.49635,-0.0949 -0.80069,-0.006 -0.80069,0.23297 0,0.21231 -0.288,0.64666 -0.64,0.96522 -0.352,0.31856 -0.64,0.77287 -0.64,1.0096 0,0.23672 -0.15428,0.4304 -0.34286,0.4304 -0.67613,0 -2.85714,2.80558 -2.85714,3.67532 0,0.2458 -0.14635,0.53736 -0.325219,0.64791 -0.178871,0.11054 -0.251991,0.31948 -0.162487,0.4643 0.0895,0.14482 0.247428,1.32153 0.350946,2.6149 0.19084,2.38451 0.49954,2.9504 1.48142,2.7157 0.29956,-0.0716 0.58994,0.006 0.64528,0.17168 0.22757,0.68272 8.25006,1.27073 8.25006,0.60469 z m -48.541462,-1.62943 c 0.308425,-0.36022 0.475929,-0.79222 0.372233,-0.96 -0.269779,-0.43651 0.28897,-0.37733 0.745229,0.0789 0.2112,0.2112 0.384,0.24145 0.384,0.0672 0,-0.17423 0.72,-0.73728 1.6,-1.25123 0.88,-0.51395 1.6,-1.02861 1.6,-1.14371 0,-0.11508 0.578938,-0.61045 1.286528,-1.10081 0.707587,-0.49036 1.598829,-1.44723 1.980531,-2.12638 0.381703,-0.67915 1.026765,-1.45285 1.433472,-1.71934 C 71.667238,158.28328 72,157.78057 72,157.43262 72,157.06107 72.215363,156.8 72.521869,156.8 c 0.417187,0 0.485603,-0.22349 0.341072,-1.11414 -0.09944,-0.61277 -0.04393,-1.19872 0.12335,-1.30211 0.16728,-0.10339 0.221303,-0.32202 0.120042,-0.48586 -0.101258,-0.16384 -0.03162,-0.29789 0.154781,-0.29789 0.186387,0 0.338886,-0.288 0.338886,-0.64 0,-0.352 0.149066,-0.64 0.331258,-0.64 0.222387,0 0.227788,-0.19334 0.01642,-0.58827 -0.308381,-0.57621 -0.160026,-1.81685 0.29318,-2.45173 0.125636,-0.176 0.46616,-1.03354 0.756724,-1.90564 0.494793,-1.48509 0.493715,-1.60498 -0.01699,-1.89079 -0.79913,-0.44721 -2.020592,-1.83493 -2.020592,-2.29561 0,-0.21922 -0.355843,-0.48789 -0.790765,-0.59705 -0.434918,-0.10916 -0.943984,-0.48477 -1.131257,-0.83469 C 70.850704,141.4063 70.51855,141.12 70.299859,141.12 c -0.525673,0 -1.519392,-1.17836 -1.418982,-1.68263 0.04352,-0.21855 -0.113277,-0.35724 -0.348432,-0.30819 -0.235159,0.0491 -0.503952,-0.20294 -0.597322,-0.56 -0.09337,-0.35705 -0.376611,-0.64918 -0.629424,-0.64918 -0.654352,0 -2.825699,-1.53258 -2.825699,-1.99444 0,-0.21266 -0.333184,-0.55277 -0.740406,-0.75579 -0.407226,-0.20302 -1.135104,-0.74728 -1.617511,-1.20945 C 61.142141,133.02147 60.48,132.87618 60.48,133.6 c 0,0.264 -0.288,0.768 -0.64,1.12 -0.352,0.352 -0.64,0.856 -0.64,1.12 -0.963402,1.21893 -1.838538,2.87623 -2.489219,4.17966 -0.57145,0.62277 -0.601834,1.74034 -0.04732,1.74034 0.163098,0 0.296538,0.4235 0.296538,0.94111 0,0.51762 0.146349,1.03157 0.325219,1.14212 0.178871,0.11054 0.249043,0.32425 0.155936,0.4749 -0.159865,0.25867 0.42441,1.89656 0.799722,2.24187 0.4608,0.42396 1.279123,1.95216 1.279123,2.38874 0,0.27019 0.180765,0.49126 0.401699,0.49126 0.532871,0 1.196173,2.11413 0.790563,2.51974 -0.171449,0.17145 -0.186608,0.49145 -0.03469,0.73238 0.357904,0.56759 0.397866,9.60278 0.04459,10.08082 -0.428528,0.57986 -0.56809,3.71434 -0.185885,4.17487 0.464215,0.55934 0.66744,0.52204 1.322262,-0.24274 z m 31.165683,-16.97058 c 5.250345,-2.08566 13.322769,-8.59751 14.125069,-11.39438 0.21139,-0.73695 0.92723,-2.03295 1.59075,-2.88 1.30505,-1.66605 3.25996,-4.99723 3.25996,-5.555 0,-0.18952 -0.49028,-1.3797 -1.08951,-2.64484 -1.33349,-2.81539 -1.47617,-3.41627 -1.15222,-4.85259 0.13988,-0.62022 0.20821,-1.12768 0.15184,-1.12768 -0.0564,0 -1.30121,0.58593 -2.76631,1.30207 l -2.6638,1.30206 -3.2,-0.137 c -4.099837,-0.17554 -6.706966,-1.0141 -8.392102,-2.69923 C 91.440531,119.60053 90.24,117.75193 90.24,116.97062 c 0,-0.50304 -0.104394,-0.49224 -1.138291,0.11777 -1.270487,0.74961 -2.579315,0.87879 -2.780755,0.27447 -0.215415,-0.64624 -1.000157,0.37195 -1.520029,1.9722 -0.541027,1.66538 -3.18529,4.95494 -4.550394,5.66086 -1.897225,0.9811 -3.990851,1.44428 -7.290531,1.61292 -3.374896,0.17248 -4.449248,-0.0426 -6.116506,-1.22454 -0.829753,-0.58822 -1.510092,-0.0819 -2.318688,1.72547 -0.415894,0.92963 -1.129238,2.08623 -1.585209,2.57023 -0.455971,0.484 -0.738813,0.88 -0.628538,0.88 0.110275,0 -0.130841,0.3527 -0.535817,0.78378 l -0.736317,0.78377 1.270621,1.29623 c 0.698838,0.71292 1.414764,1.29622 1.59094,1.29622 0.176176,0 0.59464,0.30668 0.929917,0.68151 0.33528,0.37483 1.185597,1.04574 1.889597,1.49093 1.524618,0.96411 5.813536,4.73378 7.82257,6.8755 0.942416,1.00465 2.423737,2.03141 4.325353,2.99807 1.590643,0.80857 3.180077,1.72439 3.532077,2.03515 2.519434,2.22423 6.495309,2.57351 10.624221,0.93333 z m -9.956647,-7.57358 c -0.463174,-0.46318 2.099949,-1.0767 5.235578,-1.25322 3.168758,-0.17839 3.426147,-0.14662 4.176848,0.51542 l 0.8,0.70551 -0.8,-0.26031 c -1.085123,-0.35309 -7.331392,-0.22501 -8.374893,0.17173 -0.461616,0.17551 -0.928505,0.2299 -1.037533,0.12087 z M 85.568,132.352 c -1.123283,-1.12328 -1.411174,-2.42319 -0.751229,-3.392 0.236051,-0.34652 0.269437,-0.14716 0.120058,0.71696 -0.18528,1.07181 -0.0895,1.31437 0.916128,2.32 1.253945,1.25394 1.7696,1.34072 3.770925,0.63461 1.970131,-0.6951 2.536118,-1.31131 2.536118,-2.76117 0,-0.67672 0.145702,-1.2304 0.323782,-1.2304 0.46282,0 0.01789,2.59706 -0.558684,3.26094 -0.571325,0.65785 -3.052874,1.53906 -4.334103,1.53906 -0.636662,0 -1.28215,-0.34716 -2.022995,-1.088 z m -31.647802,9.13135 c -0.1195,-0.63984 -0.111811,-1.05873 0.01709,-0.93086 0.211706,0.21002 2.354919,-2.80102 2.374522,-3.336 0.0045,-0.12293 0.368192,-0.61196 0.808192,-1.08673 0.44,-0.47477 0.8,-1.13019 0.8,-1.45649 0,-0.3263 0.142192,-0.59327 0.315987,-0.59327 0.173792,0 0.663696,-0.54 1.088679,-1.2 0.424982,-0.66 1.375392,-1.848 2.112022,-2.64 1.259232,-1.35388 2.091936,-2.73682 1.974986,-3.28 -0.02842,-0.132 0.232662,-0.52434 0.580185,-0.87186 0.92192,-0.92192 1.149831,-2.15698 0.52537,-2.847 -0.285245,-0.31519 -0.41448,-0.67722 -0.287194,-0.80451 0.127287,-0.12729 0.09099,-0.3316 -0.08066,-0.45403 -0.694634,-0.49544 -1.471028,-3.82283 -1.507949,-6.4626 -0.03819,-2.73013 0.534038,-6.18341 1.158957,-6.99413 0.442204,-0.57368 1.054841,-1.63505 1.457961,-2.52587 0.1792,-0.396 0.438855,-0.72 0.577011,-0.72 0.138154,0 0.636506,-0.35729 1.10745,-0.79397 1.231258,-1.14168 3.027795,-2.08603 3.968496,-2.08603 0.666208,0 0.775395,-0.1148 0.608704,-0.64 -0.155741,-0.4907 -0.0575,-0.64 0.421114,-0.64 0.345155,0 0.695648,-0.27306 0.783958,-0.61075 0.08784,-0.33591 0.788637,-1.047615 1.557322,-1.58156 C 75.051075,98.393747 76.04,97.687421 76.48,97.358083 c 0.44,-0.329341 1.304,-0.797465 1.92,-1.040275 0.616,-0.24281 1.202582,-0.561021 1.303517,-0.707136 0.100937,-0.146115 0.460937,-0.320781 0.8,-0.388144 1.633792,-0.324592 2.376483,-0.59839 2.376483,-0.876106 0,-0.167305 0.146627,-0.213574 0.325837,-0.102816 0.179209,0.110759 0.808205,-0.09674 1.397769,-0.461113 C 85.193171,93.418122 85.992832,93.12 86.380627,93.12 c 0.387799,0 0.921088,-0.216 1.185088,-0.48 0.264,-0.264 0.901712,-0.48 1.417143,-0.48 0.515427,0 0.937142,-0.132538 0.937142,-0.294531 0,-0.233818 3.060784,-0.772445 4.64,-0.816535 0.176,-0.0049 0.435155,-0.188934 0.575901,-0.408934 0.140745,-0.22 0.441632,-0.4 0.668637,-0.4 0.227001,0 0.577168,-0.360893 0.77814,-0.801984 0.200976,-0.441094 0.47609,-0.784042 0.611367,-0.762106 0.748361,0.121341 1.113097,-0.133017 1.409347,-0.982835 0.181555,-0.520809 0.606064,-1.034512 0.943354,-1.141565 0.337289,-0.107049 0.613254,-0.472934 0.613254,-0.813075 0,-0.340137 0.216,-0.618435 0.48,-0.618435 0.264,0 0.48,-0.144954 0.48,-0.322115 0,-0.177165 0.36,-0.635133 0.8,-1.017709 0.44,-0.382576 0.8,-0.935306 0.8,-1.228288 0,-0.292982 0.27147,-0.778374 0.60327,-1.07865 0.3318,-0.300275 0.71192,-1.006592 0.84471,-1.569596 0.32107,-1.361303 0.27765,-1.240698 0.76022,-2.111469 0.50432,-0.910042 0.35991,-6.124381 -0.18844,-6.803706 -0.19022,-0.235657 -0.44449,-0.889939 -0.56505,-1.453961 -0.12657,-0.592167 -0.47331,-1.106151 -0.82058,-1.216368 -0.33077,-0.104983 -0.68812,-0.464144 -0.79413,-0.798138 -0.16462,-0.518669 -1.25128,-1.16697 -1.76,-1.050016 -0.088,0.02022 -0.14579,-0.419238 -0.12843,-0.976602 C 100.68895,64.936022 100.59773,64.264 100.46891,64 100.34008,63.736 100.0469,63.119078 99.817408,62.629062 99.249776,61.417053 97.81087,60.593907 95.202346,59.98895 93.998403,59.709738 92.641354,59.305101 92.186682,59.089757 91.732006,58.874413 90.496,58.733491 89.44,58.776598 c -1.056,0.04311 -2.208,0.06964 -2.56,0.05896 -5.497933,-0.166845 -6.789152,-0.09199 -7.304685,0.423482 -0.296505,0.29647 -0.818886,0.627837 -1.160841,0.736368 -0.341956,0.108534 -0.713213,0.485549 -0.825018,0.837811 -0.163709,0.515808 -0.292899,0.566102 -0.663693,0.258371 -0.377382,-0.3132 -0.421507,-0.280723 -0.244681,0.18008 0.17968,0.468237 0.09399,0.523549 -0.512749,0.330979 -0.497434,-0.157881 -0.659034,-0.118848 -0.50952,0.123072 0.120425,0.194855 0.04735,0.354282 -0.162394,0.354282 -0.209741,0 -0.614637,0.252 -0.899769,0.56 -0.578992,0.625437 -2.155898,1.629549 -2.967066,1.889312 -0.291728,0.09342 -0.60305,0.447616 -0.691824,0.787098 -0.08878,0.339481 -0.601885,0.77079 -1.140237,0.95846 -0.538355,0.187671 -0.965981,0.436599 -0.950281,0.553175 0.105683,0.784678 -0.1261,1.382029 -0.607242,1.564985 -0.308,0.11712 -0.820282,0.54184 -1.1384,0.943824 -0.318122,0.401984 -0.746704,0.697639 -0.952403,0.657012 -0.205703,-0.04063 -0.426701,0.275033 -0.491107,0.701468 -0.06441,0.426436 -0.592631,1.237133 -1.173831,1.801556 -0.5812,0.564422 -1.153625,1.331523 -1.272057,1.704665 C 63.09377,74.574701 62.862576,74.88 62.698435,74.88 62.534298,74.88 62.4,75.109286 62.4,75.389526 c 0,0.28024 -0.288,0.875661 -0.64,1.323156 -0.352,0.447494 -0.64,1.013296 -0.64,1.257334 0,0.244038 -0.36,0.607731 -0.8,0.808208 -0.44,0.20048 -0.8,0.557392 -0.8,0.793142 C 59.52,79.836336 59.145414,80 58.538963,80 c -1.020809,0 -2.05975,0.435072 -2.795216,1.170541 -0.236205,0.236201 -0.599174,0.430371 -0.806605,0.431481 -0.329356,0.0019 -1.141699,1.130967 -1.494892,2.077978 -0.06564,0.176 -0.454372,0.58353 -0.863847,0.905622 -0.409475,0.322096 -0.66263,0.718096 -0.562566,0.88 C 52.115901,85.62753 51.933312,85.76 51.610086,85.76 50.724045,85.76 49.6,86.673741 49.6,87.394006 c 0,0.350743 -0.506192,1.158925 -1.12487,1.795959 -0.725716,0.747245 -1.1941,1.591177 -1.319968,2.37832 -0.107306,0.671046 -0.310746,1.148608 -0.452093,1.061251 -0.141344,-0.08736 -0.331888,0.09526 -0.423427,0.405818 -0.500093,1.696576 -1.605623,10.657876 -1.518109,12.305586 0.05407,1.01798 1.538819,4.09906 1.975305,4.09906 0.16674,0 0.303162,0.35878 0.303162,0.79729 0,0.45073 0.278192,0.97102 0.64,1.19697 0.352,0.21983 0.64,0.65305 0.64,0.96272 0,0.30966 0.140301,0.56302 0.311782,0.56302 0.6508,0 1.222199,1.86578 1.444893,4.71799 0.127021,1.62689 0.359735,2.87839 0.517136,2.78111 0.157405,-0.0973 0.286189,-0.0289 0.286189,0.15197 0,0.18087 0.216,0.24596 0.48,0.14465 0.264,-0.10131 0.48,-0.50081 0.48,-0.88779 0,-0.38697 0.36,-1.19154 0.8,-1.78793 0.44,-0.59639 0.8,-1.33587 0.8,-1.64328 0,-0.30742 0.144,-0.64795 0.32,-0.75672 0.176,-0.10877 0.32,-0.46187 0.32,-0.78465 0,-0.32278 0.215174,-0.66945 0.47817,-0.77037 0.695961,-0.26706 1.741497,-2.12562 1.520198,-2.70232 -0.137706,-0.35885 -0.04636,-0.43885 0.334307,-0.29278 0.408211,0.15665 0.571875,-0.0606 0.741712,-0.98444 0.119863,-0.65199 0.352077,-1.27269 0.516035,-1.37932 0.163959,-0.10664 0.378634,-0.82664 0.47706,-1.6 0.09842,-0.77337 0.320262,-1.58506 0.492972,-1.80378 0.172711,-0.21871 0.381834,-1.80271 0.464717,-3.52 0.140323,-2.907476 0.60448,-4.664241 1.712698,-6.48234 0.684774,-1.123408 1.359728,-2.797459 1.548233,-3.84 0.154144,-0.852483 0.379568,-1.145226 0.94378,-1.225606 0.469881,-0.06694 0.853731,-0.428228 1.048457,-0.98682 0.372832,-1.069507 2.212922,-2.037257 3.337149,-1.755094 1.13184,0.284074 0.964096,1.007853 -0.315462,1.361155 -0.604986,0.167043 -1.335306,0.497811 -1.622935,0.73504 -1.416976,1.168679 -1.787945,1.634791 -1.693091,2.127325 0.05684,0.295158 -0.150304,0.790304 -0.460326,1.100326 -0.31002,0.31002 -0.563674,0.937156 -0.563674,1.393632 0,0.559274 -0.207558,0.884237 -0.6364,0.996381 -0.350022,0.09153 -0.554861,0.298359 -0.4552,0.45961 0.09966,0.161254 -0.189962,0.926525 -0.6436,1.700601 -0.620227,1.05834 -0.829533,1.869492 -0.843875,3.27043 -0.02144,2.09487 -0.307338,3.85231 -1.083773,6.66231 -0.29168,1.05561 -0.464291,2.17181 -0.383581,2.48044 0.0871,0.33308 0.01194,0.47784 -0.184928,0.35617 -0.187046,-0.1156 -0.265641,-0.0111 -0.180243,0.23956 0.08329,0.2445 -0.07803,0.66054 -0.358486,0.92454 -0.280452,0.264 -0.556141,0.768 -0.61264,1.12 -0.0565,0.352 -0.560496,1.09972 -1.12,1.66159 -1.761463,1.76893 -2.039671,2.15354 -2.270157,3.13841 -0.247773,1.05874 -1.457754,3.74765 -1.799952,4 -0.119335,0.088 -0.407421,0.69233 -0.640192,1.34296 -0.232771,0.65063 -0.517949,1.12442 -0.633731,1.05286 -0.11578,-0.0716 -0.230554,0.40309 -0.255053,1.05477 -0.02451,0.65167 -0.194519,1.23485 -0.377821,1.29595 -0.588944,0.19632 -1.600368,2.69495 -1.600368,3.95357 0,0.67094 -0.148512,1.21989 -0.330026,1.21989 -0.18151,0 -0.29608,0.504 -0.254595,1.12 0.04148,0.616 0.189997,1.12 0.330026,1.12 0.140025,0 0.254595,0.3679 0.254595,0.81756 0,0.99099 1.172899,3.66244 1.607997,3.66244 0.171603,0 0.312003,0.34058 0.312003,0.75684 0,0.41627 0.288,1.12298 0.64,1.57048 0.352,0.44749 0.64,0.97091 0.64,1.16315 0,0.19224 0.144,0.34953 0.32,0.34953 0.176,0 0.32,0.204 0.32,0.45333 0,0.48913 0.632074,0.8362 1.068739,0.58684 0.147805,-0.0844 0.170963,-0.67697 0.05146,-1.31682 z M 55.25193,142 c -0.08877,-0.22 -0.161405,-0.04 -0.161405,0.4 0,0.44 0.07263,0.62 0.161405,0.4 0.08877,-0.22 0.08877,-0.58 0,-0.8 z m 22.23528,-16.35821 c 0.817964,-0.25929 1.917459,-0.69393 2.443321,-0.96587 1.365104,-0.70592 4.009367,-3.99548 4.550394,-5.66086 0.252841,-0.77828 0.633779,-1.59506 0.846534,-1.81506 0.462378,-0.47812 1.392541,-0.53156 1.392541,-0.08 0,0.51006 0.85799,0.37276 1.992266,-0.3188 1.262707,-0.76988 1.847734,-0.81363 1.847734,-0.13818 0,0.7927 1.583536,3.28863 2.213267,3.4885 0.313287,0.0994 0.72473,0.52124 0.91432,0.93734 0.482007,1.05789 3.943725,2.14293 7.488413,2.34718 2.74474,0.15815 2.81024,0.14421 5.81609,-1.23805 2.12119,-0.97543 3.15109,-1.63563 3.4073,-2.18418 0.20196,-0.43241 0.64472,-0.98057 0.98391,-1.21815 0.33918,-0.23757 0.6189,-0.67578 0.6216,-0.9738 0.004,-0.46681 0.0479,-0.47538 0.3151,-0.0619 0.27573,0.42667 0.31496,0.42667 0.35301,0 0.0236,-0.264 0.0121,-0.696 -0.0255,-0.96 -0.0376,-0.264 0.0391,-0.37424 0.17044,-0.24497 0.33915,0.33381 1.07978,-0.74046 1.09189,-1.58377 0.006,-0.38981 -0.24673,-0.84624 -0.56073,-1.01428 -0.4432,-0.2372 -0.54267,-0.60165 -0.44467,-1.62927 0.14439,-1.51411 0.33605,-1.52029 0.5263,-0.017 0.15496,1.22438 0.31262,1.43623 0.83061,1.11609 0.55342,-0.34203 0.1863,-5.06227 -0.47184,-6.06671 -0.28021,-0.42767 -0.50948,-1.13532 -0.50948,-1.57256 0,-0.54628 -0.37539,-1.07478 -1.2,-1.68943 -0.66,-0.49196 -1.272,-0.97894 -1.36,-1.08219 -0.088,-0.10324 -1.16759,-0.72813 -2.3991,-1.38864 -2.17032,-1.16403 -2.362,-1.20576 -6.24,-1.35823 -3.676132,-0.14454 -4.078826,-0.10327 -4.9609,0.50851 -0.528,0.36621 -1.411546,0.95759 -1.963434,1.31417 -2.0644,1.33385 -3.777772,4.71275 -4.13182,8.14827 -0.313728,3.04428 -0.474164,3.36692 -1.925447,3.87205 -2.6132,0.90956 -3.333696,0.36384 -3.344118,-2.53288 -0.01789,-4.96887 -5.536765,-9.39121 -11.515181,-9.22723 -2.018115,0.0554 -2.115418,0.0974 -3.270451,1.41256 -1.036573,1.18029 -1.575341,2.4755 -1.029731,2.4755 0.0989,0 0.998896,-0.38855 2,-0.86344 2.56359,-1.21608 5.007232,-1.35167 7.002361,-0.38853 0.845802,0.40831 1.825821,1.01325 2.177821,1.34433 0.352,0.33107 1.017344,0.79978 1.478547,1.04158 1.940208,1.01719 3.253453,6.77269 2.081411,9.12211 -0.285977,0.57325 -0.519958,1.22894 -0.519958,1.45707 0,0.64548 -1.799635,3.1549 -3.049632,4.25241 -2.20585,1.93676 -5.811667,3.23447 -8.987325,3.23447 -1.431312,0 -1.848902,-0.15574 -3.003043,-1.12 -0.737302,-0.616 -1.459152,-1.12 -1.604106,-1.12 -0.144953,0 -0.491328,-0.0874 -0.769721,-0.19424 -0.378112,-0.14509 -0.506173,0.008 -0.506173,0.6032 0,0.78837 0.755997,1.49343 2.56,2.38754 1.043254,0.51706 6.660707,0.28769 8.68721,-0.35471 z M 97.6,120.78472 c -1.77552,-0.82601 -3.312122,-2.0597 -3.887664,-3.12129 -0.17192,-0.31711 -0.605402,-1.68511 -0.963286,-3.04 -1.510756,-5.71945 0.308236,-9.76202 5.49095,-12.2032 3.11314,-1.46636 5.09266,-1.23454 8.48,0.9931 1.86814,1.22855 4.96,4.91562 4.96,5.91483 0,0.23751 0.11337,0.43184 0.25193,0.43184 0.24404,0 0.48851,1.41252 0.47076,2.72 -0.0217,1.60036 -0.56571,3.23612 -1.257,3.77989 -0.41013,0.32261 -0.74569,0.77206 -0.74569,0.99878 0,0.51876 -3.83763,3.02119 -5.57567,3.63576 -0.71738,0.25367 -2.24033,0.51698 -3.38433,0.58515 -1.725946,0.10284 -2.379587,-0.0154 -3.84,-0.69486 z m 6.37779,-0.11313 c 1.94257,-0.60459 6.09757,-3.11843 6.10062,-3.69097 9.6e-4,-0.16465 0.29429,-0.61094 0.65203,-0.99174 0.36821,-0.39193 0.80743,-1.53648 1.01222,-2.63765 0.32323,-1.7381 0.29146,-2.11445 -0.29826,-3.53347 -0.82556,-1.98651 -2.74727,-4.48258 -4.34335,-5.64146 -1.1781,-0.85539 -2.01933,-1.0048 -1.02878,-0.18272 0.54965,0.45617 0.667,1.92642 0.15377,1.92642 -0.18369,0 -0.72369,-0.37425 -1.2,-0.83167 -0.47632,-0.45742 -1.3095,-1.0251 -1.85152,-1.26151 -0.542,-0.23641 -1.15991,-0.64004 -1.37312,-0.89694 -0.74145,-0.89339 -1.881646,-0.90048 -3.640469,-0.0226 -2.012297,1.00436 -3.913961,2.74438 -4.733184,4.33087 -1.415805,2.74182 -0.497875,9.30025 1.580349,11.29132 1.303706,1.24903 4.437258,2.71548 5.843394,2.73462 0.64432,0.009 2.05116,-0.25784 3.1263,-0.59246 z m -6.004728,-1.12635 C 97.128678,119.05788 96.407542,118.4 96.717709,118.4 c 0.113139,0 0.725686,0.30679 1.361216,0.68177 0.965069,0.5694 1.508656,0.65641 3.298295,0.52794 2.7533,-0.19764 4.61186,-1.11985 6.5153,-3.23287 1.82231,-2.02295 2.41745,-1.79571 0.72055,0.27512 -1.78116,2.17368 -3.8095,3.08323 -7.17307,3.21657 -1.871642,0.0742 -2.952966,-0.0267 -3.466938,-0.32329 z m 7.374028,-1.9474 c 0.12491,-0.19377 0.36778,-0.70456 0.53972,-1.13508 0.19764,-0.49487 0.32008,-0.58984 0.33291,-0.25821 0.0112,0.2885 -0.23172,0.79929 -0.53972,1.13508 -0.308,0.33579 -0.45781,0.45199 -0.33291,0.25821 z m 0.84705,-3.35784 c -0.11322,-0.792 -0.52205,-2.13777 -0.90851,-2.9906 -0.5743,-1.26736 -0.96711,-1.6676 -2.15038,-2.19101 -0.79624,-0.35222 -1.83809,-0.5831 -2.3152,-0.51307 -0.48529,0.0712 -1.052744,-0.071 -1.287983,-0.32283 -0.409657,-0.43854 -1.413878,-0.39848 -3.532067,0.14087 -0.617846,0.15732 -0.717834,0.11527 -0.439123,-0.1847 0.646627,-0.69597 2.73991,-0.95524 5.197033,-0.64371 1.30416,0.16535 2.53115,0.42522 2.72664,0.57749 0.1955,0.15227 1.05546,0.50998 1.91102,0.7949 1.62829,0.54227 4.89596,3.4515 4.53421,4.03684 -0.10291,0.1665 -0.7925,-0.35405 -1.53242,-1.15678 -1.2297,-1.33406 -2.68161,-2.24982 -3.02406,-1.90736 -0.0759,0.0759 0.16762,0.7369 0.54109,1.46897 0.4744,0.9299 0.64989,1.78307 0.58233,2.83101 L 106.4,115.68 Z m -4.42288,0.34104 c -0.47054,-0.87921 -0.41015,-1.7972 0.14874,-2.26104 0.97202,-0.8067 1.83513,0.83797 1.24576,2.37383 -0.26653,0.69459 -0.99389,0.63575 -1.3945,-0.11279 z m -3.331727,-0.19341 c -0.308794,-0.8047 -0.217699,-1.01234 0.159529,-0.36363 0.186781,0.3212 0.272192,0.65141 0.189802,0.7338 -0.08239,0.0824 -0.23959,-0.0842 -0.349331,-0.37017 z m 7.134227,-10.53114 c -0.6781,-1.27823 -0.92986,-1.47125 -2.30329,-1.7658 -0.84808,-0.18188 -1.71488,-0.32551 -1.92622,-0.31918 -0.49188,0.0147 1.40699,1.58478 1.91926,1.5869 0.32937,10e-4 0.89457,0.42634 2.49649,1.87712 0.63434,0.57448 0.56065,0.0289 -0.18624,-1.37904 z m -30.271232,20.78503 c 2.27911,-0.59363 4.02185,-1.46883 5.48784,-2.75599 1.260723,-1.10693 3.049632,-3.60877 3.049632,-4.265 0,-0.23505 0.215114,-0.83983 0.478029,-1.34395 0.96616,-1.85253 0.25936,-6.29092 -1.236071,-7.76197 -2.086342,-2.05234 -4.547468,-3.50456 -6.360432,-3.75305 -1.316438,-0.18044 -3.661302,0.28567 -4.081526,0.81133 -0.223962,0.28014 -2.007366,1.11675 -2.427987,1.13898 -1.052295,0.0556 -2.277488,2.72572 -2.536282,5.52741 -0.131798,1.42684 -0.09252,1.69682 0.174666,1.20072 0.189581,-0.352 1.066867,-1.144 1.949523,-1.76 0.882656,-0.616 1.781802,-1.28133 1.998102,-1.47851 0.997552,-0.90936 2.52368,-1.40149 4.346087,-1.40149 1.507459,0 1.935891,0.10623 1.935891,0.48 0,0.38288 -0.473203,0.48 -2.338838,0.48 -1.561066,0 -2.545405,0.15624 -2.96,0.46982 -0.588548,0.44516 -0.567847,0.47036 0.394284,0.48 2.448538,0.0246 4.082272,3.16828 3.31298,6.37505 -0.419037,1.74675 -1.210439,2.75867 -2.69258,3.44286 -0.949654,0.43838 -0.885635,0.45344 1.380135,0.32471 1.705187,-0.0969 2.483062,-0.28144 2.755277,-0.65372 0.532761,-0.72859 0.880307,-0.64773 0.47456,0.11041 -0.886711,1.65683 -7.107876,1.6786 -10.141549,0.0355 L 66.56,119.42156 v 1.11025 c 0,1.31051 0.486534,2.34819 1.100982,2.34819 0.241156,0 1.041716,0.504 1.779018,1.12 1.547373,1.29279 2.82527,1.43263 5.862528,0.64152 z M 66.160042,120.16 66.143882,118.88 65.92,120.32 c -0.123133,0.792 -0.245504,1.18293 -0.271939,0.86874 -0.0504,-0.59901 -0.94776,-2.1632 -1.441667,-2.51296 -0.158612,-0.11232 -0.194909,-0.35548 -0.08066,-0.54034 0.11425,-0.18485 -0.0473,-0.48458 -0.359004,-0.66604 -0.311703,-0.18147 -0.415645,-0.33432 -0.230986,-0.33967 0.19855,-0.006 0.278595,-0.49924 0.195891,-1.20766 -0.13311,-1.14018 -0.154211,-1.15947 -0.437686,-0.4 -0.324007,0.86805 -0.05269,3.51793 0.360192,3.51793 0.140211,0 0.390777,0.612 0.556819,1.36 0.166042,0.748 0.465728,1.32692 0.665968,1.2865 0.200237,-0.0404 0.470253,0.24758 0.600029,0.64 0.23583,0.71311 0.236086,0.71306 0.467603,-0.0865 0.127405,-0.44 0.224371,-1.376 0.215482,-2.08 z m 4.646259,0.32557 c -0.948224,-0.41222 -2.323907,-2.12039 -2.323907,-2.88557 0,-0.176 0.275123,0.13119 0.611385,0.68265 2.005603,3.28911 6.168426,2.4846 6.743271,-1.30322 0.465116,-3.06476 -0.754356,-5.3867 -2.829066,-5.3867 -1.716278,0 -2.958701,0.69219 -3.738483,2.08282 -0.455213,0.81181 -0.775047,1.0909 -0.996439,0.86951 -0.909952,-0.90995 -1.713062,0.58839 -1.713062,3.19602 0,1.04837 0.14656,1.26344 1.304438,1.91421 1.357428,0.76291 2.673386,1.23902 3.495562,1.26468 0.264,0.008 0.01485,-0.18724 -0.553699,-0.4344 z m 0.938608,-3.44736 c -0.592471,-0.71388 -0.74953,-1.97625 -0.319037,-2.56427 0.381002,-0.52043 0.472442,-0.52542 1.134269,-0.0619 0.83791,0.5869 0.942153,1.79991 0.217001,2.52506 -0.605721,0.60572 -0.612832,0.60642 -1.032233,0.10107 z M 65.6,118.88 c 0,-0.264 -0.139482,-0.48 -0.309958,-0.48 -0.170474,0 -0.227069,0.216 -0.125764,0.48 0.101309,0.264 0.240788,0.48 0.309959,0.48 0.06917,0 0.125763,-0.216 0.125763,-0.48 z m -0.332522,-1.52 c -0.03208,-0.396 -0.04018,-0.936 -0.01802,-1.2 0.03584,-0.42667 0.07498,-0.42667 0.35226,0 0.243926,0.37535 0.300134,0.30558 0.257811,-0.32 -0.07453,-1.10151 0.699187,-4.16 1.052368,-4.16 0.438784,0 0.343558,-0.88772 -0.111917,-1.04332 -0.310474,-0.10606 -0.318742,-0.35728 -0.03694,-1.12245 0.298554,-0.81064 0.284666,-0.95571 -0.07816,-0.81648 -0.242672,0.0931 -0.361552,0.29822 -0.264176,0.45578 0.09738,0.15756 0.01718,0.28647 -0.178166,0.28647 -0.195367,0 -0.567498,0.54 -0.826957,1.2 -0.259459,0.66 -0.612112,1.45004 -0.783674,1.75566 -0.352214,0.62742 -0.413161,3.17816 -0.111926,4.68434 0.228416,1.14207 0.835738,1.36957 0.747478,0.28 z m 23.527933,-3.57349 1.275411,-0.44385 0.529005,-3.15133 c 0.290954,-1.73323 0.643632,-3.43933 0.783731,-3.79133 0.666359,-1.67422 2.15632,-3.6272 3.477978,-4.55879 C 96.171971,100.91753 96.32,100.68526 96.32,99.552768 96.32,97.413939 96.465677,97.28 98.791885,97.28 c 1.995985,0 2.135915,0.05251 3.334595,1.251187 1.00754,1.007536 1.56894,1.29489 2.88289,1.475603 1.58893,0.21853 5.31035,1.94721 6.28062,2.91749 1.39453,1.39452 1.14851,-2.26749 -0.34293,-5.104674 -1.01891,-1.938281 -2.10163,-3.022384 -3.23905,-3.243193 -0.36741,-0.07133 -1.57222,-0.304765 -2.67738,-0.518762 -1.10515,-0.213993 -2.08565,-0.512509 -2.17888,-0.663366 C 102.75851,93.24343 102.4048,93.12 102.06571,93.12 c -0.33908,0 -1.53028,-0.484758 -2.647099,-1.077245 -1.888921,-1.002093 -2.091315,-1.045421 -2.901187,-0.621088 -0.478832,0.250887 -1.763139,0.61032 -2.854016,0.798743 -1.090874,0.188419 -2.361152,0.534166 -2.822838,0.768323 -0.461684,0.23416 -0.906058,0.359113 -0.987495,0.277677 -0.08144,-0.08144 -0.999693,0.140425 -2.040569,0.49303 -2.122407,0.718976 -1.816807,0.586006 -6.930141,3.015328 -2.066698,0.981878 -3.866698,1.78663 -4,1.788339 -0.133299,0.0016 -0.890365,0.522352 -1.682365,1.156989 -1.42295,1.140224 -1.428109,1.151344 -0.435725,0.939314 1.244653,-0.26593 4.868768,-0.33303 5.107232,-0.0946 0.09663,0.0966 -0.05093,0.61392 -0.32791,1.14953 -0.615517,1.19027 -0.622042,1.32563 -0.0639,1.32563 0.917709,0 3.450906,1.71404 4.592912,3.10771 1.38872,1.69475 1.995856,3.24443 2.002573,5.11146 0.0058,1.6191 0.480889,2.98258 1.036899,2.97601 0.224355,-0.003 0.981856,-0.20455 1.683331,-0.44867 z M 64,112.17889 c 0,-0.0776 -0.144,-0.23012 -0.32,-0.33889 -0.176,-0.10877 -0.32,-0.0453 -0.32,0.14111 0,0.18639 0.144,0.33889 0.32,0.33889 0.176,0 0.32,-0.0635 0.32,-0.14111 z m 0.918896,-2.47413 C 65.269731,108.81061 67.3504,106.88 67.96321,106.88 c 0.09952,0 0.03593,0.38144 -0.141322,0.84764 -0.287654,0.75659 -0.267408,0.80211 0.18849,0.42375 0.320889,-0.26632 0.4432,-0.6931 0.32902,-1.14803 -0.09996,-0.39828 -0.04488,-0.80873 0.1224,-0.91211 0.16728,-0.10338 0.738938,-0.83221 1.270346,-1.61961 0.751562,-1.1136 0.853533,-1.43164 0.459018,-1.43164 -0.609037,0 -4.268269,2.89627 -4.269968,3.37966 -6.4e-4,0.18681 -0.280522,0.63949 -0.621924,1.00594 -0.341401,0.36645 -0.533401,0.7536 -0.426668,0.86034 0.106736,0.10673 0.0417,0.19406 -0.144522,0.19406 -0.279875,0 -1.36808,2.17766 -1.36808,2.73773 0,0.5497 1.210563,-0.6252 1.558896,-1.51297 z M 78.975613,101.502 c -0.122109,-0.63407 -1.905815,-0.83513 -4.070467,-0.45883 -1.975351,0.34339 -2.005972,0.90319 -0.04196,0.76706 1.0617,-0.0736 1.816333,0.0532 2.289693,0.38478 0.843399,0.59074 1.986275,0.15621 1.82273,-0.69301 z m 21.099257,-1.847632 2.77656,0.110272 -1.18102,-1.08232 C 100.63353,97.732086 100.27859,97.6 98.762022,97.6 c -1.856115,0 -2.121046,0.281533 -2.107923,2.24 0.0046,0.6858 0.05096,0.72178 0.324791,0.25205 0.271209,-0.46524 0.738534,-0.531308 3.09598,-0.437682 z"
         id="path120"
         inkscape:label="outline"
         sodipodi:nodetypes="cscsssssssssssssssssssscsssssscscsssscssssssssssssssssssssssscscsssssscsssssssssssssssssssssssssssssssssssssssssssssssssssssssscssccssssssssssssssssssssccssscssscssssssssssssscsscscsscsssscsssssssssssssssssssscssssssscsscssscssssssssssssssssssssssssssssssssssssssssssssssssscsssssssssscssssssssssssssssscsssssssccsssssssssssssssssssscssssssssssssscssssssssssscssssssssssssssssssssssssssssssssssssssssssssssssssssssssssssssssssssssssscssssssssssssssssssssssssssscsssssssssssssssssssssssssssssssssssssssssssssssssssssssscsssssssssssssssssssscsssssscssssscscsscssssssssssssssscssssssssssssssscccssssssssssscccssssssssscssccccsssssscsscssssscssssssssssscsssssssssssccsssssssssssssssssscsssssscssssscssssscssssssssssssssssscscscsccssssssssssssssssssssccsssssssssssssssssssscssssssscccsssssssssssssssssssssscssscsssss" />
    </g>
  </g>
</svg>
