<?xml version="1.0" encoding="UTF-8" standalone="no"?>
<!-- Created with Inkscape (http://www.inkscape.org/) -->

<svg
   version="1.1"
   id="svg305"
   width="192"
   height="288"
   viewBox="0 0 192 288"
   xmlns="http://www.w3.org/2000/svg"
   xmlns:svg="http://www.w3.org/2000/svg">
  <defs
     id="defs309" />
  <g
     id="g311">
    <g
       id="g315"
       transform="translate(10,-16)">
      <path
         style="fill:#702f0d;stroke-width:0.32"
         d="m 62.074789,100.20838 c -2.103606,-0.650098 -1.586364,-1.5746 1.34339,-1.253342 1.525225,-0.0087 1.687815,0.527932 1.028234,1.137582 C 64.130762,100.38437 64,100.39633 64,100.13343 c 0,-0.259872 -0.120413,-0.272585 -0.4,-0.0422 -0.608356,0.22341 -1.076211,0.20427 -1.525211,0.11715 z m 2.045224,-0.628252 c -0.297952,-0.297952 1.201402,-1.607524 2.47999,-2.029499 0.683354,-0.225526 2.252204,-0.690582 3.270114,-1.195622 2.19463,-1.088871 2.991013,-1.191773 2.991013,-0.344589 0,0.352 -0.07713,0.949582 0.09887,0.949582 0.176,0 0.32,0.451635 0.32,1.003635 v 1.003639 L 72.436365,98.123635 C 71.473424,97.160698 69.549571,96.942122 69.235722,97.76 c -0.101309,0.264 -0.427988,0.48 -0.725959,0.48 -0.297968,0 -0.688275,0.146512 -0.867347,0.325584 -0.411366,0.411366 -3.297379,1.239568 -3.522403,1.014544 z M 97.92,98.91777 c 0,-0.176 0.144,-0.408996 0.32,-0.51777 0.176,-0.108774 0.32,-0.05377 0.32,0.12223 0,0.176 -0.144,0.408996 -0.32,0.51777 -0.176,0.108774 -0.32,0.05377 -0.32,-0.12223 z m -2.70175,-2.257607 c -0.647434,-0.715405 -0.932719,-1.565519 -0.01207,-1.565519 0.350352,0 1.455587,-0.217472 1.969587,-0.483274 1.223324,-0.632604 5.800733,-1.172061 6.108163,-0.674624 0.13497,0.218393 1.0226,0.407333 2.46077,0.407333 1.85998,0 3.07453,-0.0451 3.04502,0.891836 -0.0206,0.652992 -0.25406,0.657608 -1.35038,0.932763 -0.66538,0.167005 -0.87934,0.104314 -0.87934,-0.257654 0,-0.536275 -2.39851,-1.035702 -3.30444,-0.688064 -0.30198,0.115882 -0.53556,0.05101 -0.53556,-0.148723 0,-0.441277 -2.12966,-0.471658 -2.4,-0.03424 -0.10877,0.176 -0.523617,0.32 -0.92188,0.32 -0.398259,0 -1.28976,0.427994 -1.981113,0.951098 -1.500682,1.135472 -1.488781,1.13358 -2.198755,0.349065 z M 51.257709,86.237565 c -0.383741,-0.441338 -0.940952,-0.774095 -0.940952,-1.036757 0,-0.262659 -0.10603,-0.212208 -0.451838,-0.212208 -0.345808,0 -0.536349,0.698859 -0.848487,-1.0686 -0.112426,-0.636603 -0.383131,-5.339065 -0.174902,-5.52 0.81436,-0.707617 0.996646,0.424416 1.432102,1.375581 0.435459,0.951161 0.512454,2.162704 0.765699,2.259881 0.253245,0.09718 1.172669,0.650957 1.448573,1.230615 0.2759,0.579657 0.723888,1.39105 0.995523,1.884176 0.388672,0.705587 0.05814,1.282781 -0.244519,1.647469 -0.553107,0.666454 -1.18685,0.353427 -1.981199,-0.560157 z m 2.1387,-5.650307 c -0.395267,-0.44376 -0.829235,-1.037195 -0.829235,-1.264696 0,-0.227498 -0.171774,-0.393879 -0.435774,-0.61298 -0.264,-0.219101 -0.679017,-0.845637 -0.679017,-1.176085 0,-0.330451 -0.232452,-0.622932 -0.408452,-0.622932 -0.176,0 -0.231548,-0.228813 -0.231548,-0.589552 0,-0.360739 0.107258,-0.846668 -0.167059,-1.377135 -0.594675,-1.149974 0.235572,-3.646623 0.908484,-3.854738 0.264,-0.08165 0.02199,0.295165 -0.105376,0.431951 -0.127363,0.136791 0.612158,0.624506 0.859592,1.083811 0.75168,1.395322 1.982689,4.168874 1.982689,4.488631 0,0.165347 0.184629,0.759683 0.437317,0.969395 0.587946,0.487952 1.011255,3.263696 0.668317,3.876489 -0.217661,0.388941 -1.40758,-0.687128 -1.999938,-1.352159 z m 4.169783,-3.196693 c 0,-0.264 -0.171285,-0.413661 -0.326578,-0.413661 -0.541699,0 -2.519614,-2.816974 -2.519614,-3.418894 0,-0.33368 -0.590696,-0.85674 -0.74509,-1.162352 -1.145657,-2.267728 -2.552634,-3.45069 0.04256,-5.668848 0.732101,-0.989709 1.493281,-1.314228 1.918643,-0.187319 0.210307,0.557171 0.141,0.968814 0.256302,1.256283 0.05116,0.127538 0.205691,0.401661 0.205777,0.973661 1.76e-4,1.134189 0.914104,3.360216 2.377826,6.433346 0.5167,1.084832 0.823137,2.354434 0.735022,2.497007 -0.276125,0.446778 -1.94485,0.193871 -1.94485,-0.309223 z m 54.871558,0.09366 c -0.2215,-0.358387 0.16585,-0.957663 2.01168,-1.511798 0.792,-0.237769 1.66526,-0.462817 1.83246,-0.608216 0.52538,-0.45687 2.1163,-0.406871 2.21698,0.649986 0.0973,1.020784 -0.31447,0.835093 -1.43676,0.987102 -0.924,0.125152 -1.95828,0.29399 -2.43354,0.537351 -1.01262,0.518525 -1.9376,0.3553 -2.19082,-0.05443 z m -5.16972,-2.684611 c -0.23902,-0.386745 0.89469,-1.851312 1.49199,-1.851312 0.23423,0 0.62786,-0.354339 0.84769,-0.706339 0.21982,-0.352 0.7909,-0.816905 1.07987,-0.816905 0.28896,0 1.28976,-0.185772 2.25102,-0.656073 1.24367,-0.608471 1.83872,-0.894953 2.0632,-1.53887 0.42888,-1.230282 1.02476,-0.982841 1.06335,0.378471 0.0195,0.689385 0.36189,1.561107 0.8797,2.24 0.65067,0.853065 0.73236,1.111411 0.35143,1.111411 -0.27295,0 -0.49628,-0.144 -0.49628,-0.32 0,-0.495405 -2.78639,-0.07019 -3.48426,0.457645 -0.34164,0.258403 -1.34654,0.182355 -2.0169,0.182355 -0.67036,0 -0.9756,0.405657 -0.9756,0.577138 -0.62606,0.695996 -2.42383,2.82796 -3.05521,0.942479 z m -44.493386,-0.8406 c 0,-0.264 -0.102693,-0.48 -0.363339,-0.48 -0.260646,0 -0.607189,-0.421177 -0.716037,-0.854873 -0.108851,-0.433693 -0.427368,-0.698492 -0.76187,-0.804658 -0.334506,-0.10617 -0.718754,-0.652684 -0.718754,-0.890156 0,-0.237475 -0.174339,-0.435544 -0.306339,-0.494212 -0.500941,-0.22264 -2.130433,-3.882163 -2.03554,-4.606291 0.05461,-0.416756 -0.09658,-0.816853 -0.33599,-1.10532 C 57.163863,64.274175 57.596032,64 58.040819,64 58.404352,64 58.56,63.712202 58.56,63.04 c 0,-0.528 0.1152,-0.96 0.256,-0.96 0.543066,0 1.334145,0.809619 1.346772,1.744 0.0073,0.5368 0.533218,1.624 0.952591,2.416 0.419373,0.792 0.938952,2.014025 1.289761,2.742633 0.350807,0.728611 0.639337,1.222327 0.830364,1.340391 0.191031,0.11806 0.873162,1.111056 1.245582,1.936381 0.372419,0.825328 0.657791,1.497747 0.729592,1.762708 0.08014,0.295741 -0.233241,0.68226 -0.771629,0.68226 -0.656787,0 -1.664389,-0.423298 -1.664389,-0.745356 z m 4.451917,-0.742113 C 66.888529,72.556904 66.780157,71.408 66.418166,70.88 c -0.36199,-0.528 -1.218893,-1.431027 -1.552873,-2.087811 -0.333984,-0.656781 -0.945984,-1.194973 -1.36,-1.466246 C 63.091273,67.054669 63.04,66.379904 63.04,66.177821 c 0,-0.202087 -0.794553,-0.4842 -1.035938,-0.762059 -0.503018,-0.579015 -1.587031,-4.629715 -1.228288,-4.899549 2.829787,-2.128471 2.352645,0.794168 2.560818,1.657256 0.329952,1.368003 1.211028,3.588326 1.679741,3.874963 0.230154,0.140745 0.639588,0.689821 0.639588,0.868819 0,0.178999 0.337887,0.708982 0.777887,1.285852 0.44,0.576871 0.777887,1.007958 0.888452,1.235616 0.06082,0.12522 0.13887,0.564623 0.57887,0.972403 0.627373,0.58143 0.932678,0.878536 0.932678,2.01979 0,0.800403 -0.437284,2.62727 -0.75062,2.317688 -0.318629,-0.443176 -0.642648,-1.142445 -0.856627,-1.531696 z m 3.710293,-1.746718 C 70.817584,71.350918 70.72,70.820672 70.72,70.291862 c 0,-0.528806 -0.610594,-1.130006 -0.870389,-1.417075 -0.259795,-0.287072 -0.721476,-0.894479 -0.782714,-1.29574 -0.06123,-0.40126 -0.223638,-0.64882 -0.387916,-0.766347 -0.164278,-0.117526 -0.458714,-1.487327 -0.789434,-2.800761 -0.63471,-2.520717 -1.382023,-3.84368 -2.688542,-5.397053 -0.74368,-0.884186 -0.269943,-1.156851 0.285693,-1.358976 0.326316,-0.118704 0.691353,-0.159497 0.81119,-0.09065 0.11984,0.06885 0.308339,-0.02118 0.418886,-0.200042 0.30265,-0.489696 1.333939,-0.478983 1.333939,0.07067 0,0.502717 0.269552,0.725784 1.24679,2.605093 0.320317,0.616 0.646611,1.728904 0.914284,2.256904 0.267674,0.528 0.650394,1.076226 0.769411,1.164226 0.119015,0.088 0.288457,1.345189 0.403561,2.739701 0.127318,1.542474 0.507598,2.632373 0.79924,2.954632 0.263667,0.291348 0.169809,0.763698 0.169809,1.022639 0,0.258941 0.258852,0.596977 0.46712,0.805243 0.208268,0.208268 0.448947,0.435177 -0.20226,0.570588 -0.433671,0.09018 -1.483248,0.513837 -1.681812,0.315271 z m 18.492788,-2.067568 c 0.405059,-2.315719 0.433823,-10.211927 0.58069,-14.166844 0.04185,-1.127095 -1.871507,-3.918241 -0.03208,-3.998646 0.322553,-0.0141 2.055928,0.156803 2.879918,0.0996 1.427866,-0.09914 1.905833,-0.01593 2.1015,0.874933 0.162867,0.741533 -0.05335,1.326058 -0.706618,1.979326 -0.452906,0.452905 -0.690788,0.985857 -0.690788,1.31947 0,0.333613 -0.370641,0.707418 -0.526347,0.803649 -0.155709,0.09623 -0.230173,0.417942 -0.327636,0.904095 -0.09746,0.486154 -0.184123,2.20203 -0.543928,3.78603 -0.359808,1.584 -0.988362,3.413313 -0.991386,4.038113 -0.0029,0.6248 -0.207926,1.317026 -0.374262,1.484226 -0.166336,0.1672 0.02959,1.245076 -0.02408,2.287172 -0.06551,1.27215 0.418459,1.802043 -1.142473,1.843597 -1.132889,0.03016 -0.400768,-0.121267 -0.202508,-1.254716 z M 80.337707,68.24 c -0.459715,-5.341142 -0.605284,-6.226631 -0.866026,-6.827322 -0.395917,-0.912102 -0.918316,-2.808569 -1.162799,-4.258662 -0.115543,-0.68529 -0.415667,-1.385239 -0.666947,-1.636519 -0.563594,-0.56359 -0.02051,-1.889577 0.518069,-2.315372 0.514157,-0.406493 2.014986,-0.769783 3.44,-0.832685 0.94721,-0.04181 1.86604,0.0436 1.955445,0.674837 0.05814,0.410512 -0.869051,1.039262 -1.168539,1.370193 -0.303226,0.33506 0.09666,0.898279 0.207683,1.187616 0.109661,0.285773 -0.169612,1.465352 -0.431429,2.59426 -0.384844,1.659421 -0.809176,2.500371 -0.53532,4.763881 0.186307,1.539875 1.189953,4.197581 1.284382,5.473581 0.160038,2.162624 0.2168,1.966192 -1.241134,1.966192 -1.420403,0.500755 -1.213381,-0.797275 -1.333385,-2.16 z m -5.626837,0.61767 c -0.110067,-0.647718 -0.434914,-2.618227 -0.667826,-4.378908 -0.546953,-4.134676 -1.742981,-6.908356 -2.989397,-8.004775 -1.035584,-0.91096 -0.422196,-1.122186 1.297515,-1.720665 2.799281,-0.974181 2.78597,-0.166686 3.044472,1.363381 0.121018,0.716285 -0.230876,1.766663 0.02883,2.388225 0.320477,0.767008 1.033049,2.731559 1.096723,5.787383 0.0516,2.476365 0.235691,4.684622 0.355035,5.042376 0.166656,0.499571 -0.503339,0.617188 -0.984683,0.653444 -0.485558,0.03658 -1.025619,-0.218061 -1.180669,-1.130461 z m 32.39318,0.699716 c -0.40977,-0.40977 1.43772,-3.272251 2.37254,-3.477573 0.90344,-0.198429 1.76115,-1.380782 1.76115,-2.388702 0,-0.495037 0.79444,-0.599441 1.11082,-0.283051 0.10521,0.105207 0.83257,0.975736 0.83257,1.826404 0,1.290432 -0.31903,1.50244 -0.81197,1.50244 -0.92798,0 -2.16424,1.009124 -3.31984,2.199009 -1.10917,1.14208 -1.61603,0.950714 -1.94527,0.621473 z M 95.326192,68.075447 c 0,-0.234668 0.456694,-0.551665 0.582442,-0.677415 0.125747,-0.125747 -0.159488,-1.049747 -0.120343,-2.053331 0.09889,-2.535203 0.630198,-5.5941 1.670634,-7.485831 0.48399,-0.88 1.196631,-1.855096 1.313377,-2.383096 0.176688,-0.79912 0.898007,-1.242514 1.777918,-1.327746 0.73423,-0.07112 1.52357,0.252374 1.83021,0.656904 0.5975,0.788214 0.61435,1.537717 -0.12554,1.772546 -0.34737,0.110256 -0.77115,0.377104 -0.99578,0.782185 -0.22462,0.405082 -0.9787,1.316392 -1.486536,2.079185 -1.04016,1.562352 -1.790385,4.065313 -1.807368,6.329604 -0.0063,0.836 -0.08906,1.586339 -0.265059,1.586339 -0.176,0 0.453956,0.752374 0.453956,1.104374 0,0.426666 -1.473776,0.816909 -1.900442,0.816909 -0.352,0 -0.927469,-0.965956 -0.927469,-1.200622 z m 4.368157,0.05286 c 0,-0.345808 1.026851,-1.571993 1.362981,-1.751881 0.37837,-0.202499 0.90631,-0.35225 0.81101,-0.716711 -0.0944,-0.360848 -0.14724,-1.087797 0.35375,-1.563202 0.4495,-0.426544 0.70919,-0.773801 0.71223,-0.960873 0.003,-0.187072 0.45965,-0.930917 0.98765,-1.436773 0.528,-0.505856 1.35803,-0.892185 1.35803,-1.128784 0,-0.236595 -0.0272,-0.734189 0.23676,-0.835494 0.264,-0.101309 0.30309,-0.307658 0.30309,-0.728829 0,-1.602272 1.7169,-0.454381 1.91256,1.321088 0.0998,0.905584 0.74453,1.201601 0.27392,1.201601 -0.68315,0 -4.14193,3.169145 -4.29939,4.003241 -0.0599,0.317296 -0.42759,1.196687 -0.57385,1.143391 -0.37534,-0.136771 -0.4523,1.075682 -0.25978,1.577394 0.0999,0.260356 -0.97722,-0.09248 -1.39907,-0.09248 -0.45688,0 -1.779891,0.394361 -1.779891,-0.03169 z"
         id="path319" />
      <path
         style="display:inline;fill:#8a421b;stroke-width:0.32"
         d="m 65.92,102.84347 c -1.853699,-0.83079 -2.729014,-1.35376 -2.56,-1.52953 0.088,-0.0915 -0.128,-0.39927 -0.48,-0.6839 -0.352,-0.28462 -0.453693,-0.42242 -0.225984,-0.30622 0.227712,0.1162 0.606122,0.0519 0.840915,-0.14302 0.328391,-0.272534 0.465923,-0.20505 0.596026,0.29245 0.09302,0.35572 0.02099,0.64675 -0.160096,0.64675 -0.194906,0 -0.166695,0.19584 0.06914,0.48 0.219101,0.264 0.668733,0.48 0.999181,0.48 0.946733,0 0.838464,-1.82972 -0.119181,-2.01417 -0.520672,-0.100281 -0.432083,-0.150739 0.32,-0.182252 0.809482,-0.03392 1.04,0.08592 1.04,0.540642 0,0.77164 1.30784,1.97578 2.145933,1.97578 0.836051,0 1.153446,-1.12305 0.891302,-3.153696 -0.143584,-1.112237 -0.106656,-1.351939 0.146727,-0.952432 0.407737,0.64289 0.520745,2.709368 0.202668,3.706128 -0.126368,0.396 -0.137769,0.72 -0.02534,0.72 0.331232,0 1.118714,-0.88493 1.118714,-1.25714 0,-0.18858 0.210934,-0.34286 0.468742,-0.34286 0.694877,0 1.152864,-1.09197 0.928496,-2.213805 -0.11699,-0.584928 -0.0647,-0.986195 0.12852,-0.986195 1.119319,0 0.448499,2.90413 -0.901337,3.90212 -0.519434,0.38403 -0.944426,0.88716 -0.944426,1.11806 0,0.60057 -3.07216,0.53425 -4.48,-0.0967 z m 1.6,-0.0861 c 0,-0.15547 -0.288,-0.35799 -0.64,-0.45004 -0.693363,-0.18132 -0.895104,0.25645 -0.24,0.52079 0.630458,0.25439 0.88,0.23433 0.88,-0.0707 z m 1.513334,0.0893 c -0.106336,-0.10634 -0.382336,-0.1177 -0.613334,-0.0252 -0.255274,0.10215 -0.17945,0.17798 0.193334,0.19333 0.337332,0.0139 0.526333,-0.0617 0.42,-0.16807 z M 99.44,99.97697 c -0.50216,-0.272429 -0.88,-0.74898 -0.88,-1.109901 0,-0.543466 -0.08643,-0.578519 -0.614016,-0.249034 -0.482973,0.301623 -0.721248,0.294464 -1.116477,-0.03355 -0.276352,-0.229354 -0.431149,-0.532391 -0.34399,-0.673418 0.08716,-0.141024 -0.02243,-0.329341 -0.243523,-0.418477 -0.296061,-0.11936 -0.284804,-0.168726 0.04273,-0.187331 0.244595,-0.01389 0.652352,0.226736 0.906122,0.534736 0.396323,0.481018 0.438528,0.486125 0.299219,0.03622 -0.12511,-0.404061 -0.0032,-0.484922 0.533878,-0.35378 1.070992,0.261568 1.529245,0.74888 1.321056,1.404829 -0.136281,0.429379 0.01885,0.674336 0.552775,0.872775 0.408226,0.151724 0.922226,0.207381 1.142226,0.123673 0.22,-0.0837 0.4,0.0072 0.4,0.202048 0,0.49155 -0.94993,0.42088 -1.999999,-0.148793 z m 2.64,0.39707 c 0,-0.0583 1.00259,-0.440789 2.22797,-0.850024 1.22538,-0.409232 2.15903,-0.8556 2.07478,-0.991926 -0.0842,-0.136327 -0.007,-0.338317 0.17203,-0.448864 0.53743,-0.332151 0.36935,-0.806109 -0.39478,-1.113255 -0.66179,-0.266006 -0.66826,-0.291398 -0.08,-0.314057 0.352,-0.01357 0.964,-0.111482 1.36,-0.217607 0.83479,-0.223715 1.04833,0.647226 0.2352,0.959258 -0.26664,0.10232 -0.61255,0.522025 -0.76868,0.932678 -0.18921,0.497664 -0.74783,0.892432 -1.6752,1.18384 -0.76522,0.240461 -1.52812,0.556157 -1.69532,0.701557 -0.29053,0.25265 -1.456,0.37944 -1.456,0.1584 z m -1.7104,-1.759237 C 100.07832,98.292944 99.84,97.626541 99.84,97.133904 c 0,-0.868461 -0.03964,-0.889363 -1.303549,-0.687254 -0.856179,0.136908 -1.234077,0.09603 -1.101117,-0.119101 C 97.546675,96.147395 98.186867,96 98.857987,96 c 1.170433,0 1.228343,0.0508 1.419313,1.245072 0.36051,2.254534 2.54939,2.251904 3.0819,-0.0037 l 0.25529,-1.081363 0.0327,1.017142 c 0.018,0.559431 -0.19352,1.243431 -0.4701,1.52 -0.67897,0.678973 -2.15782,0.635603 -2.80754,-0.08234 z m 3.9504,-1.140566 c 0,-0.06917 0.22348,-0.21152 0.49662,-0.316336 0.28478,-0.109277 0.41322,-0.05563 0.30111,0.125763 -0.18792,0.304067 -0.79773,0.449744 -0.79773,0.190573 z m -0.95901,-2.068474 c -6.4e-4,-0.26464 0.1967,-0.358374 0.50518,-0.24 0.2784,0.106832 0.9984,0.194237 1.6,0.194237 0.60161,0 1.09383,0.109069 1.09383,0.242378 0,0.133308 -0.71956,0.241308 -1.59901,0.24 -1.13145,-0.0016 -1.5993,-0.129351 -1.6,-0.436615 z M 100.32,95.04 c 0.10877,-0.176 0.51327,-0.309878 0.89889,-0.297507 0.67595,0.0217 0.67815,0.03236 0.0611,0.297507 -0.88079,0.37849 -1.19392,0.37849 -0.96,0 z"
         id="path327" />
      <path
         style="display:inline;fill:#903d12;stroke-width:0.32"
         d="m 82.997939,132.98282 c -1.079133,-0.24593 -2.654376,-0.50247 -3.203243,-0.7863 -0.799171,-0.28898 -1.186423,-0.35097 -1.794659,-0.70937 -1.88518,-1.0423 -2.955987,-1.75269 -4.232355,-2.5687 -2.696652,-1.72783 -5.166009,-3.21264 -9.197488,-5.40989 -4.880064,-2.65974 -12.99555,-9.00474 -12.99555,-10.10951 0,-0.22398 -0.2488,-0.58874 -0.471811,-0.72949 -0.515123,-0.3251 -1.349319,-3.09759 -1.349319,-4.74046 0,-1.34929 0.97547,-3.1748 2.738154,-5.62893 3.91266,-5.447499 3.956675,-5.382719 2.650147,-7.839957 -1.066826,-2.006426 -1.974211,-5.852885 -1.847542,-6.958808 0.101964,-0.890243 0.116317,-1.266054 1.747814,-1.323481 2.191635,-0.07715 2.847449,-0.358456 2.974342,-2.302181 0.07539,-1.154858 0.433042,-1.818936 0.935119,-1.954561 1.686698,-0.455613 2.435979,-2.065508 1.452757,-3.04873 -0.486429,-0.486429 0.388884,-0.806833 1.154954,-0.328402 0.791015,0.493997 2.195189,0.244454 3.102875,-0.601184 0.572909,-0.533744 0.604985,-0.843892 0.46975,-1.677252 -0.166125,-1.023715 0.137248,-1.476345 1.008467,-1.302102 C 67.264271,75.1883 68.48,74.627533 68.48,73.40271 c 0,-0.737065 0.346654,-1.21557 1.107048,-1.07021 1.106016,0.211428 1.628579,0.01203 1.628579,-0.617242 0,-0.616736 1.418165,-1.017251 2.881199,-0.405935 1.805936,0.75457 1.581668,0.9856 1.349645,-0.251187 -0.109667,-0.584583 -0.283665,-0.912274 -0.170404,-1.025496 0.282682,-0.282685 1.622839,-0.401613 1.622839,0.04095 0,0.19726 0.777348,1.611505 1.457168,2.277895 0.906362,0.888461 1.175218,0.832222 1.676757,0.701067 0.565238,-0.14786 0.683926,-0.108861 0.683926,-1.249738 0,-1.187916 -0.678465,-1.375985 0.963243,-1.460565 1.218087,-0.06276 0.793878,0.115085 1.04,0.839142 0.199885,0.588039 0.94897,0.937563 1.848452,1.483153 2.397578,1.454276 3.036836,1.368935 3.970109,-0.992121 0.375367,-0.949622 -0.130229,-1.243449 1.480309,-1.296938 1.02021,-0.03388 0.454944,0.852607 0.740717,1.13838 1.022311,1.022314 3.072949,-0.482527 4.246885,-2.676051 0.256358,-0.479004 0.943592,-0.378144 1.661989,-0.229965 0.512345,0.10568 1.349286,0.278397 1.859869,0.383814 0.663584,0.137012 0.876758,-0.176077 1.30176,-0.599017 0.80546,-0.801542 2.96759,-0.601583 3.34042,0.233961 0.15852,0.355248 0.93546,0.876836 1.69951,1.294219 1.27495,0.696467 1.61884,1.041682 1.4671,1.976754 -0.21575,1.329546 -0.36952,1.854472 0.66142,1.980997 0.76746,0.09419 0.89729,0.649536 0.97496,2.354851 0.0707,1.551168 0.76743,1.95867 1.48783,2.525338 0.46833,0.368384 0.6967,0.783568 0.6967,1.030736 0,0.880595 0.78001,1.174475 2.16718,0.852904 1.83738,-0.425939 2.61071,-0.100213 2.61071,0.615472 0,0.352 0.17163,0.684226 0.32735,0.684226 0.15571,0 0.17158,1.325062 0.19743,2.944582 0.0258,1.61952 0.25525,3.377859 0.34762,3.826339 0.40083,1.94616 0.71683,3.653532 0.95051,4.246966 1.32035,3.353008 1.77428,3.759825 4.63884,7.343769 0.89386,1.11834 0.92699,1.48953 0.53726,3.18959 -0.21903,0.95547 -0.69735,2.33684 -1.08997,3.04268 -0.39261,0.70584 -4.94941,5.07573 -9.74783,9.73789 -4.79843,4.66216 -9.59893,9.12208 -10.53264,10.04608 -0.933712,0.924 -1.823015,1.68 -1.976231,1.68 -0.153216,0 -0.978253,0.57846 -1.833417,1.28546 -0.855162,0.70701 -2.518074,2.13773 -3.965626,2.85507 -2.247824,1.11391 -3.194025,1.43308 -5.319017,1.54008 -1.452716,0.0731 -3.326673,-0.43672 -4.47226,-0.69779 z m 1.327928,-9.05954 c 1.924006,-0.97435 8.483781,-2.90317 9.748908,-2.89456 1.29167,0.009 1.762992,0.0772 0.829722,-0.21898 -1.617863,-0.51349 -11.648576,3.04451 -11.626463,3.71473 0.01312,0.3975 -0.256804,0.0595 1.047833,-0.60119 z m 5.339342,-9.64477 c 1.045572,-0.69474 2.205771,-2.50214 2.657394,-4.30155 0.398976,-1.58965 0.240465,-0.67317 -0.367247,1.11469 -0.331395,0.97495 -0.883215,2.25233 -1.334377,2.70349 -0.726864,0.72686 -1.441286,0.76051 -3.003878,0.63946 -2.045462,-0.15846 -4.821017,-1.75393 -5.80445,-3.30715 -0.333959,-0.52745 -0.27268,-0.69364 -0.431397,-0.69364 -0.455101,0 -0.23796,-0.13604 0.657595,1.03809 1.216772,1.59527 4.200561,3.01415 6.296925,3.20885 0.193972,0.018 0.731407,-0.005 1.329435,-0.40224 z m -16.509404,-8.36317 c 0.868217,-0.30266 3.644195,-3.1501 3.644195,-3.738 0,-0.14513 0.350765,-0.64217 0.779482,-1.10451 0.428713,-0.46235 0.725385,-1.108881 0.659273,-1.436734 -0.06611,-0.327853 -0.20576,-1.000608 -0.310326,-1.495011 -0.104563,-0.4944 -0.801691,-1.339383 -1.522142,-2.120983 -1.282058,-1.390867 -1.39677,-1.31052 -3.359144,-1.31052 -1.487034,0 -1.720897,-0.0087 -1.857509,0.347322 -0.101305,0.264 -0.724434,0.303096 -1.060408,0.303096 -0.335975,0 -0.566515,0.412028 -0.782586,0.672377 -0.510838,0.615523 -2.230229,1.512979 -2.960014,1.512979 -0.314573,0 -0.882078,0.121887 -0.990852,0.297887 -0.110982,0.179571 -1.567159,0.364226 -3.403072,0.364226 h -2.96206 l -0.03019,1.893931 0.56686,1.93815 1.7454,0.74539 c 1.042853,0.44536 2.463401,1.41351 3.232851,1.9328 0.769449,0.5193 1.789472,1.06187 2.26672,1.20571 1.251929,0.37734 5.252496,0.37223 6.343523,-0.008 z M 66.64,102.82807 c -0.655104,-0.26434 -0.453363,-0.70211 0.24,-0.52079 0.352,0.0921 0.64,0.29457 0.64,0.45004 0,0.30508 -0.249542,0.32514 -0.88,0.0707 z m 1.78,-0.007 c 0.230998,-0.0924 0.506998,-0.0811 0.613334,0.0252 0.106333,0.10634 -0.08267,0.18197 -0.42,0.16807 -0.372784,-0.0154 -0.448608,-0.0912 -0.193334,-0.19333 z m 1.20663,-0.8214 c 0.314864,-0.98669 0.207834,-3.022938 -0.198835,-3.782804 -0.399693,-0.746832 0.101379,-1.042608 1.492602,-0.881059 0.750361,0.08713 0.935072,0.300707 1.146576,1.325747 0.277721,1.345946 -0.119629,2.458106 -0.878231,2.458106 -0.257808,0 -0.468742,0.15428 -0.468742,0.34286 0,0.37221 -0.787482,1.25714 -1.118707,1.25714 -0.112432,0 -0.101031,-0.324 0.02534,-0.72 z M 64,101.6 c -0.275232,-0.33164 -0.287344,-0.48 -0.03918,-0.48 0.197549,0 0.323181,-0.17658 0.279181,-0.3924 -0.044,-0.21582 0.244,-0.44184 0.64,-0.50226 0.61415,-0.0937 0.72,0.0345 0.72,0.8724 0,0.74758 -0.143552,0.98226 -0.600819,0.98226 -0.330448,0 -0.78008,-0.216 -0.999182,-0.48 z m 39.71253,0.3083 c 0.697,-0.44 1.73513,-0.77788 2.0637,-0.77788 0.32856,0 0.6641,-0.22166 1.06996,-0.57366 0.40586,-0.352 1.38817,-0.772681 1.77751,-0.772681 1.02057,0 1.93522,-0.823829 2.17913,-1.934319 0.1155,-0.525853 0.47422,-1.133003 0.60799,-1.133003 0.33713,0 1.22918,-1.250898 1.22918,-2.027272 0,-0.352221 0.27882,-1.217488 0.6196,-1.922816 0.79032,-1.635786 0.47924,-1.561344 -1.49717,-0.604583 -0.76318,0.369447 -1.53601,0.561157 -1.74444,0.561157 -0.20844,0 -0.4232,0.149661 -0.4232,0.413661 0,0.408038 -0.97893,0.546339 -5.65207,0.546339 -5.478624,0 -6.155966,0.01138 -8.789607,1.169543 -1.063975,0.467888 -1.40897,0.853511 -1.938701,2.051057 -0.767712,1.735542 -1.034358,2.471495 0.06267,2.746829 0.42578,0.106864 1.157709,0.697178 1.626512,1.311818 0.489917,0.64231 1.120271,0.92463 1.512278,0.93292 0.37511,0.008 1.224584,0.16803 1.752584,0.40979 0.528,0.24177 1.591844,0.45128 2.607334,0.46557 1.44772,0.0204 1.94307,-0.2352 2.93674,-0.86247 z m -3.911432,-2.14621 c -0.44768,-0.164989 -0.587482,-0.420874 -0.4561,-0.834823 0.208189,-0.655949 -0.250064,-1.143261 -1.321056,-1.404829 -0.542614,-0.132524 -0.655244,-0.05453 -0.510921,0.35378 C 97.656669,98.28263 97.551834,98.256589 97.045162,97.76 96.222557,96.95376 96.426531,96.74736 98.32,96.46999 l 1.52,-0.222659 v 0.946739 c 0,1.139085 0.86529,2.00593 2.00234,2.00593 1.22447,0 1.89774,-0.834237 1.77842,-2.203616 -0.0951,-1.091571 -0.0434,-1.161933 0.92244,-1.255405 0.56276,-0.05446 1.42676,0.119773 1.92,0.387187 l 0.8968,0.486208 -0.96,0.0331 c -0.89811,0.03094 -0.91358,0.05175 -0.24,0.322499 0.88093,0.354093 0.90012,0.636013 0.10162,1.493107 -1.15838,1.24337 -4.68657,1.95278 -6.460522,1.299012 z m 5.316632,-2.478426 c 0.11211,-0.181395 -0.0163,-0.23504 -0.30111,-0.125763 -0.55437,0.212733 -0.6558,0.442099 -0.19551,0.442099 0.16562,0 0.3891,-0.142352 0.49662,-0.316336 z M 104.26,95.141405 c 0.231,-0.09244 0.507,-0.08107 0.61333,0.02525 0.10634,0.106333 -0.0827,0.181965 -0.42,0.16807 -0.37278,-0.01536 -0.4486,-0.09118 -0.19333,-0.193331 z M 61.453359,94.211642 c 4.50415,-2.350825 8.012694,-3.085198 13.136326,-2.726548 2.738912,0.191722 2.860802,0.671112 3.191548,0.05311 1.428349,-2.668893 -0.924589,-4.35284 -4.945799,-3.568593 -0.990352,0.193145 -1.978078,0.610326 -2.330078,0.764902 -0.352,0.154573 -1.323271,0.442447 -1.969194,0.639709 -0.64592,0.197264 -1.236987,0.257717 -1.448616,0.512712 C 66.875917,90.141931 66.346822,90.24 66.182054,90.24 c -0.164771,0 -0.698461,0.643367 -1.348141,1.159437 -0.64968,0.516067 -1.502336,1.200443 -2.24614,1.493806 -0.892698,0.35209 -1.45178,0.622389 -1.773661,1.267615 -0.268196,0.537609 -0.620304,0.850443 -0.620304,0.911403 0,0.271437 0.169211,-0.291549 1.259551,-0.860619 z M 92.46429,89.407906 c 0.923683,-0.950119 3.645533,-1.524604 7.127258,-1.484476 2.795672,0.03222 3.552872,0.05408 4.922452,0.78454 1.39046,0.7416 2.75106,1.287479 2.75106,0.817521 0,-0.277597 -0.65552,-0.597655 -1.17985,-0.820995 -0.264,-0.112452 -0.92332,-0.547662 -1.62732,-0.994162 -0.704,-0.446499 -1.49462,-0.966474 -1.81098,-1.074413 -0.31636,-0.107939 -1.65443,-0.770123 -2.892413,-1.363409 -3.081392,-1.47672 -5.592538,-1.503084 -8.093367,0.18738 -0.801882,0.542038 -0.59253,0.727258 -0.59253,2.540481 0,1.094425 -0.08091,1.687831 0.03643,1.805163 0.400599,0.400601 0.785997,0.192043 1.35926,-0.39763 z M 50.614644,100.33889 c 0,-1.485616 0.13568,-2.873425 0.30151,-2.975915 0.527402,-0.325952 0.750077,-2.968989 0.394839,-4.737843 -0.363693,-1.81097 -0.854716,-3.414747 -1.863843,-4.984149 -0.769849,-1.197283 -0.875328,-3.04 -0.174012,-3.04 0.269526,0 1.138252,0.447577 1.254828,0.751375 0.302595,0.788548 1.351506,2.106512 1.77892,2.106512 0.198605,0 0.965271,0.944226 1.190192,2.044226 0.224922,1.1 0.557368,2.537058 0.792821,2.977246 0.894633,1.672551 1.739258,4.323448 1.545764,4.835214 -0.632723,1.673472 -3.344149,6.086274 -4.821434,6.078254 -0.948241,-0.005 -0.399585,-1.56931 -0.399585,-3.05492 z m 67.865216,-3.819873 c -0.78601,-0.983226 -1.8158,-3.498745 -2.27293,-5.092678 -0.54807,-1.911014 -1.04614,-6.839754 -0.82709,-8.437895 0.22995,-1.67768 1.01705,-2.484521 2.17984,-2.192678 0.95554,0.239824 1.5123,0.234811 0.8648,6.449237 -0.17429,1.672812 -0.20306,2.095785 0.47771,3.453661 0.96405,1.922886 1.03466,3.548039 0.59564,5.207675 l -0.2547,1.567469 z"
         id="path325" />
      <path
         style="display:inline;fill:#6f442a;stroke-width:0.32"
         d="m 65.6,103.04 c -0.616,-0.33724 -0.8968,-0.61921 -0.624,-0.62659 0.2728,-0.007 0.675888,0.16659 0.89575,0.38659 0.219863,0.22 1.292663,0.48604 2.384,0.5912 l 1.98425,0.19121 -1.76,0.0354 c -1.186256,0.0238 -2.12511,-0.1645 -2.88,-0.57779 z m 4.8,-0.0215 c 0,-0.18782 0.504,-0.81683 1.12,-1.39779 0.616,-0.58096 1.124579,-1.32729 1.130176,-1.658512 0.0056,-0.331216 0.2216,-0.881737 0.48,-1.223376 0.665984,-0.880505 0.584746,-0.456947 -0.293037,1.527878 -0.419574,0.94873 -1.066659,1.93775 -1.437965,2.19783 -0.371305,0.26007 -0.580019,0.56794 -0.463804,0.68415 0.116214,0.11624 0.0433,0.21132 -0.162036,0.21132 C 70.568,103.36 70.4,103.20633 70.4,103.01851 Z m -7.44327,-1.43147 c -1.009127,-0.93571 -1.178039,-1.62064 -0.257968,-1.04604 0.34032,0.21253 0.59232,0.49158 0.56,0.62012 -0.03232,0.12853 0.229238,0.45529 0.581238,0.72611 0.352,0.27082 0.494528,0.49699 0.31673,0.50259 -0.177799,0.006 -0.717799,-0.35565 -1.2,-0.80278 z m 3.979049,0.0723 C 66.553101,101.25203 66.24,100.67603 66.24,100.37938 66.24,100.0588 65.988042,99.84 65.618886,99.84 c -0.999744,0 -1.047107,-0.540666 -0.04985,-0.569021 0.919062,-0.02614 1.057005,0.136791 1.904259,2.249021 0.429843,1.07161 0.356211,1.0907 -0.537517,0.13938 z m 1.920867,-0.24432 c 0.249751,-0.71643 0.243021,-1.20515 -0.02467,-1.792675 -0.306809,-0.673373 -0.513072,-0.772173 -1.24,-0.593955 -0.837459,0.205315 -0.84664,0.194345 -0.231971,-0.277149 1.076778,-0.825959 1.666682,-0.629043 1.90392,0.635552 0.237197,1.264357 -0.03715,3.013167 -0.472701,3.013167 -0.152857,0 -0.123417,-0.44322 0.06543,-0.98494 z m 32.260694,-0.92664 c 0.26254,-0.16598 0.77204,-0.22782 1.13222,-0.13742 0.36019,0.0904 1.35377,-0.13521 2.20796,-0.501358 1.95226,-0.836838 2.37738,-0.567686 0.47013,0.297648 -1.42288,0.64557 -4.76514,0.94479 -3.81031,0.34113 z m -3.094642,-0.742877 c -1.567111,-0.826781 -3.864205,-3.632032 -3.374836,-4.121401 0.213204,-0.213204 0.401805,-0.187383 0.565463,0.07742 0.158291,0.256121 0.114265,0.316179 -0.123882,0.168995 -0.717565,-0.443479 -0.327597,0.306013 0.866298,1.664969 0.664649,0.756538 1.486512,1.401828 1.826358,1.433978 0.606199,0.05734 2.438581,1.524396 1.868592,1.496036 -0.159881,-0.008 -0.892477,-0.33195 -1.627993,-0.720001 z m 8.767142,-1.195328 c 0.0935,-0.357385 0.42278,-0.826893 0.73182,-1.043357 0.30904,-0.21646 0.63439,-0.680054 0.723,-1.030208 0.15423,-0.60951 0.16268,-0.608073 0.19822,0.03376 0.0204,0.368723 -0.25088,0.93104 -0.60288,1.249597 -0.352,0.318557 -0.64,0.772874 -0.64,1.009597 0,0.23672 -0.13052,0.430403 -0.29004,0.430403 -0.15952,0 -0.21358,-0.292406 -0.12012,-0.649789 z m -5.91035,0.11769 c -0.22028,-0.08887 -0.48946,-0.717831 -0.59817,-1.397696 -0.18294,-1.14401 -0.284245,-1.244237 -1.359493,-1.345015 L 97.76,95.816285 98.72,95.582934 c 4.08585,-0.993155 4.64,-0.860448 4.64,1.111168 0,1.713943 -1.05119,2.550397 -2.48051,1.973783 z m 1.33434,-0.302138 c 0.35685,-0.136921 0.50617,-0.615181 0.50617,-1.621238 0,-1.367962 -0.0364,-1.422829 -0.88,-1.325763 -0.73739,0.08484 -0.8965,0.27318 -0.98183,1.162156 -0.056,0.583498 0.0696,1.267498 0.27918,1.52 0.43817,0.527965 0.40933,0.520871 1.07648,0.264861 z"
         id="path323" />
      <path
         style="fill:#3e1910;stroke-width:0.32"
         d="m 72.802266,96.643664 c -0.112109,-0.181395 0.01635,-0.23504 0.301113,-0.125763 0.554375,0.212733 0.655805,0.442099 0.195507,0.442099 -0.165612,0 -0.389094,-0.142352 -0.49662,-0.316336 z M 64.876757,91.34227 c 1.350755,-1.128771 6.678229,-3.548535 8.777887,-3.73801 1.482131,-0.133751 2.410298,0.17456 3.166113,0.773347 0.700201,0.554723 1.030867,1.219015 0.954791,2.001508 -0.0767,0.78895 -0.610017,1.296298 -1.113435,1.236279 -2.389741,-0.284902 -6.695818,-0.207839 -7.695677,0.06823 -0.657763,0.181616 -1.683411,0.250804 -2.035977,0.315911 -0.352563,0.0651 -0.957859,0.300875 -1.58412,0.330688 l -1.672825,0.07964 c 0.48216,-0.319009 0.721086,-0.748587 1.203243,-1.067591 z M 90.789907,87.76 c 0.01386,-2.092077 1.233632,-2.934768 4.561347,-3.162855 2.133284,-0.146217 2.671226,-0.08912 3.991319,0.509734 4.632207,2.101398 5.590397,3.322749 2.108377,2.679062 -2.697418,-0.498643 -6.953992,0.06514 -8.432904,1.311532 -1.060758,0.893984 -2.23891,0.29077 -2.228139,-1.337473 z M 55.26403,86.177964 c -0.626569,-0.246647 -1.428976,-1.096868 -2.151478,-2.246404 -0.328979,-0.523424 -0.874509,-1.254215 -1.023098,-1.434791 -1.636035,-1.988208 -3.073305,-5.20058 -2.853665,-6.752286 0.254781,-1.799971 0.815403,-0.990624 1.992494,1.469178 1.390797,2.906387 2.086839,3.689108 4.504564,5.294468 1.986457,1.318998 2.463308,2.239609 1.685948,3.098582 -0.580739,0.641712 -1.334,0.894344 -2.154765,0.571253 z m 1.635142,-4.477848 c -0.758605,-0.59672 -1.538454,-2.320592 -3.692688,-7.089018 -0.745062,-1.649213 -1.401629,-4.493988 -1.341379,-5.863227 0.03142,-0.714141 0.782266,-0.584242 1.003488,0.372129 1.031107,4.457613 1.386909,5.532398 3.198736,7.290715 0.677817,0.657801 2.056314,1.496247 2.955213,1.917268 1.826375,0.85543 2.277967,2.257536 1.122303,3.259837 -1.247077,0.493971 -2.41727,0.747076 -3.245673,0.112296 z m 53.325738,-2.144342 c 0.0819,-0.576451 0.56183,-1.007917 2.2276,-1.542519 2.44687,-0.785082 6.35157,-1.384859 7.01368,-0.96547 0.39786,0.252006 0.9327,0.877189 0.55922,1.575013 -0.53376,0.997344 -2.05846,1.595502 -5.01436,1.384007 -1.54762,-0.110729 -2.11953,-0.05556 -2.41144,0.25693 -0.22205,0.237703 -1.09409,0.387955 -1.4514,0.387955 -0.67085,-0.220543 -0.7563,-0.736083 -0.9233,-1.095916 z M 60.680639,77.58113 c -0.962394,-1.040787 -2.728108,-3.725825 -2.728108,-4.099569 0,-0.109174 -0.372744,-0.585923 -0.612101,-1.140521 -0.474061,-1.098404 -1.265668,-4.126198 -1.595543,-5.748611 -0.22058,-1.084864 0.922221,-2.822573 1.373658,-2.354253 0.145452,0.150896 0.615433,1.418382 0.801154,2.43826 0.503245,2.763546 0.973248,3.505675 4.295396,6.823922 1.667804,1.665843 3.142939,3.344533 3.142939,3.595285 0,0.681372 -1.192307,1.658604 -2.296243,1.670102 -0.699811,0.0073 -1.692487,-0.439853 -2.381152,-1.184615 z m 47.819411,0.02242 c -0.19789,-0.129306 -0.39499,-0.880005 -0.51908,-1.452005 -0.17756,-0.818432 0.14402,-1.349582 0.52925,-1.349582 0.26924,0 0.44113,-0.09696 0.59821,-0.377636 0.60424,-1.079731 7.15375,-2.079955 8.17953,-1.276179 0.78366,0.614051 0.27932,1.522593 -1.37924,2.026375 -1.67142,0.507693 -3.49179,1.377184 -3.7097,1.673766 -0.18168,0.247264 -2.43707,0.914284 -2.72818,0.906809 -0.10496,-0.0026 -0.7729,-0.02224 -0.97079,-0.151548 z M 65.95998,74.70113 c -0.140746,-0.22 -0.481243,-0.326937 -0.810715,-0.507907 -0.329472,-0.180973 -0.843243,-1.448668 -1.195768,-2.411695 -0.352524,-0.96303 -0.933576,-2.138737 -1.318248,-2.666737 -1.294266,-1.776499 -2.662692,-6.036631 -2.378241,-6.797581 0.09177,-0.245495 0.453239,-0.285437 0.588557,0.110112 0.655783,1.916899 1.807698,3.547331 3.897519,6.337324 2.412457,3.220727 3.298965,5.435931 2.938434,6.019282 -0.280906,0.454515 -1.408505,0.406504 -1.721538,-0.0828 z m 18.721003,-1.669645 c -1.208771,-0.703901 -1.780346,-1.188095 -1.781934,-2.233346 -9.6e-4,-0.646816 0.232585,-1.641339 0.05957,-2.264107 -0.56896,-2.048023 -1.1585,-7.875847 -0.849713,-10.380766 0.450372,-3.653456 2.328255,-7.318685 3.548796,-7.787049 0.67927,-0.260663 3.091906,0.486388 3.483503,0.958231 0.786163,0.94727 0.794985,4.67125 0.447241,11.346117 -0.373085,7.161251 -0.362364,8.516813 -1.369113,10.154791 -0.749808,1.21993 -1.731132,1.258526 -3.538354,0.206129 z m 21.370077,0.04343 c -0.24165,-0.629709 0.25127,-1.581623 1.98395,-3.363191 1.52514,-1.56817 4.12068,-2.843416 5.85933,-2.843416 1.07636,0 1.77003,0.493874 1.77003,1.126917 0,1.11065 -3.2626,3.044778 -4.81617,3.044778 -0.43736,0 -0.68166,0.499347 -0.89424,0.677226 -0.21257,0.177878 -0.66936,0.685241 -1.28536,1.20855 -1.29993,1.104323 -2.34572,0.857485 -2.61754,0.149136 z M 78.705542,72.307633 C 76.747638,70.588574 76.395764,69.203872 76.464218,64.32 c 0.06033,-4.304205 -0.214326,-5.677466 -1.401267,-8.8 -0.267606,-0.704 -0.488294,-1.816904 -0.490422,-2.256904 -0.0036,-0.732704 0.69526,-0.664441 1.084622,-0.151548 0.233805,0.308 0.447611,0.405209 0.610264,0.405209 0.503542,0 1.145251,2.002881 1.524953,3.804136 0.199312,0.94551 1.043707,1.88522 1.173729,2.06122 1.183917,1.602563 2.313855,13.577887 1.357669,13.577887 -0.165824,0 -1.015645,-0.123295 -1.618224,-0.652367 z m -9.820906,-0.375942 c -0.191276,-0.22 -0.955614,-1.236226 -1.644475,-2.204226 -0.688861,-0.968 -1.220379,-2.256035 -1.559524,-2.700137 -0.561076,-0.734714 -1.742551,-1.884756 -2.729268,-4.302241 -0.442487,-1.084109 0.03784,-4.00123 0.459067,-4.661995 0.236816,-0.371491 0.943242,-0.598895 1.383697,-0.324591 0.743939,0.463302 2.699558,4.213779 3.592256,7.039382 0.800761,2.534598 1.900081,6.154177 2.358936,6.437764 0.404237,0.249831 0.29884,1.204496 -0.268351,1.204496 -0.246675,0 -1.401064,-0.268452 -1.592338,-0.488452 z M 74.24,71.164653 c -1.137802,-0.70873 -2.975839,-3.810002 -3.111887,-5.936188 -0.06219,-0.972019 -0.28915,-2.107567 -0.558394,-2.631548 -0.269242,-0.523981 -0.833544,-1.790279 -1.389135,-2.868049 -1.068067,-2.071907 -1.203923,-3.887573 -0.543827,-4.408328 0.436224,-0.344141 2.14441,-0.0016 1.941597,0.326577 -0.06885,0.111408 0.340527,0.796917 0.936764,1.55038 1.203389,1.52072 1.956858,3.615574 2.487412,7.210956 0.45136,3.058694 0.805771,5.671548 1.206408,5.671548 0.171084,0 0.311062,0.36 0.311062,0.8 0,0.926314 -0.184138,0.967261 -1.28,0.284652 z m 16.455082,-1.61929 C 90.560198,68.64591 90.350746,67.62718 90.570116,67.02053 90.770606,66.466085 91.2,65.528784 91.2,64.910614 c 0,-0.618172 -0.210652,-1.399784 0.04295,-1.476476 0.312472,-0.09449 0.102719,-0.314411 0.45613,-2.88259 0.121101,-0.88 0.482055,-1.928268 0.721043,-2.275429 0.238986,-0.347159 0.434522,-0.826481 0.434522,-1.227322 0,-0.400839 0.166113,-0.861475 0.342113,-0.861475 0.176,0 0.32,-0.193887 0.32,-0.457887 0,-0.264 0.133209,-0.745887 0.485209,-1.097887 0.352,-0.352 0.706678,-0.958339 0.707091,-1.266339 9.6e-4,-0.67304 1.696618,-2.592843 2.703232,-3.110642 0.590474,-0.30374 1.419821,-0.04581 2.062768,0.422081 1.074662,0.782061 0.900932,2.708353 -0.169704,3.980727 -0.44,0.522909 -0.645209,0.978792 -0.645209,1.229292 0,0.250496 -0.209703,0.566011 -0.357895,0.566011 -0.296887,0 -1.67706,3.627253 -2.194452,5.644226 -0.180589,0.704 -0.353289,2.149661 -0.383773,3.293661 -0.0305,1.144 -0.584622,2.32196 -0.744926,2.752824 -0.44712,1.201766 -2.40094,3.139854 -3.307858,3.139854 -0.702698,0 -0.778363,-0.418859 -0.976162,-1.73788 z m 13.141678,-0.119999 c -0.79015,-0.381075 -1.19222,-2.012022 -0.6521,-3.432643 0.38772,-1.019788 3.13961,-4.034981 3.68001,-4.034981 0.22004,0 0.42453,-0.171774 0.64363,-0.435774 0.54972,-0.662371 3.45857,-0.239832 3.71619,0.431524 0.3502,0.912602 -0.63194,3.395428 -1.47399,3.715575 -0.42518,0.161654 -1.02158,0.590396 -1.48748,1.141951 -0.4659,0.551555 -1.14332,1.380053 -1.45132,1.705976 -0.308,0.325924 -0.56,0.780812 -0.56,0.956812 -0.74623,0.297423 -1.77772,0.24852 -2.41494,-0.04844 z m -6.021335,-1.087196 c -0.316551,-0.512189 -0.03373,-4.416662 0.480297,-5.54662 0.240192,-0.528 0.586902,-1.574965 0.851555,-2.191458 1.277213,-2.975203 4.001923,-5.370257 5.651733,-4.93882 0.53256,0.139267 1.17691,0.976599 1.17691,1.797165 0,0.585088 -0.14751,1.296087 -0.30078,1.39081 -0.15327,0.09473 -0.7141,0.416435 -0.81386,0.904096 -0.0998,0.487664 -0.3709,1.692918 -0.95386,2.326995 -2.03511,2.213517 -2.50882,3.260142 -3.02221,4.931905 -0.42888,1.396573 -0.920991,1.678335 -1.595135,1.759906 -0.447001,0.05409 -1.353837,-0.238504 -1.47465,-0.433978 z"
         id="path317" />
      <path
         style="display:inline;fill:#463734;stroke-width:0.32"
         d="m 82.866522,134.01031 c -0.610981,0.0346 -0.753206,-0.17044 -1.186522,-0.32891 -0.308,-0.27378 -1.107824,-0.64666 -1.777389,-0.8286 -0.669561,-0.18195 -3.261561,-1.61593 -5.76,-3.18664 C 71.644176,128.09546 68.52,126.25677 67.2,125.58019 c -3.572553,-2.2846 -7.669847,-4.14857 -10.24,-6.22019 -0.792,-0.70351 -1.543133,-1.27931 -1.669184,-1.27956 -0.494688,-9.6e-4 -2.908298,-2.49 -3.988739,-4.11341 -1.983075,-2.97964 -2.402615,-5.90444 -1.194362,-8.32644 0.269939,-0.54111 0.473181,-1.2396 0.451648,-1.55221 -0.36023,-5.230079 -0.346304,-5.945276 0.13552,-6.960646 C 51.669443,95.074 51.049376,91.245018 49.275325,88.361821 48.587632,87.244173 48.336554,86.492992 48.439789,85.862022 48.52096,85.36591 48.599213,84.852 48.613686,84.72 48.62816,84.588 49.072,84.48 49.6,84.48 c 0.637824,0 0.96,0.160272 0.96,0.477565 0,0.599977 1.266109,2.082435 1.778525,2.082435 0.21071,0 0.556179,-0.208534 0.767705,-0.463408 0.302663,-0.364688 0.279383,-0.654413 -0.109289,-1.36 C 52.725306,84.723466 52.277318,83.845734 52.001418,83.266077 51.725514,82.686419 51.292576,82.132643 51.039331,82.035462 50.173149,81.703078 48.96,78.460755 48.96,76.478134 c 0,-1.608793 0.101094,-1.910768 0.791011,-2.362819 0.766986,-0.502547 0.805869,-0.489568 1.28,0.427306 0.268944,0.520077 0.488989,1.240749 0.488989,1.601488 0,0.360739 0.144,0.655891 0.32,0.655891 0.176,0 0.32,0.270368 0.32,0.600819 0,0.330448 0.216,0.78008 0.48,0.999181 0.264,0.219101 0.48,0.589312 0.48,0.822694 0,0.233383 0.35369,0.805968 0.785974,1.272413 l 0.785975,0.84808 0.191773,-0.764083 C 55.065603,79.854422 54.776208,78.822762 54.092918,77.76 c -0.169734,-0.264 -0.68384,-1.344 -1.142451,-2.4 -0.458614,-1.056 -1.021721,-2.28 -1.251353,-2.72 -0.390887,-0.748992 -0.392093,-2.686029 -0.0029,-4.420774 0.122492,-0.545767 0.352822,-0.714247 0.87495,-0.64 0.548816,0.07804 0.759936,0.389529 0.935862,1.380774 0.479428,2.701299 0.655837,3.373533 0.929722,3.542803 0.155706,0.09623 0.283104,0.50953 0.283104,0.918435 0,0.714992 2.300234,3.378762 2.917648,3.378762 0.155293,0 0.282352,0.216 0.282352,0.48 0,0.503094 0.806317,0.667549 1.082442,0.220771 0.08812,-0.142573 -0.262548,-1.146819 -0.779248,-2.231651 -1.463722,-3.07313 -2.222858,-5.254931 -2.223034,-6.38912 -8.6e-5,-0.572 -0.112589,-1.04 -0.250003,-1.04 -0.413405,0 -0.941933,-1.750778 -0.680071,-2.252765 0.134055,-0.256979 0.321607,-0.719235 0.416781,-1.027235 0.224131,-0.725315 1.877837,-0.749088 2.470055,-0.03551 0.239408,0.288467 0.390601,0.865468 0.33599,1.282224 -0.09489,0.724128 1.446147,4.317312 1.947088,4.539952 0.132,0.05867 0.24,0.300963 0.24,0.538438 0,0.237472 0.273683,0.51863 0.608189,0.6248 0.334502,0.106166 0.697245,0.547869 0.806096,0.981562 0.108848,0.433696 0.411165,0.788534 0.671811,0.788534 0.260646,0 0.473904,0.216 0.473904,0.48 0,0.322058 0.322099,0.48 0.978886,0.48 0.538388,0 0.915472,-0.108 0.837968,-0.24 -0.07751,-0.132 -0.445625,-0.915267 -0.818044,-1.740595 C 63.666262,71.43408 63.205261,70.662214 63.01423,70.544154 62.823203,70.42609 62.379882,69.733357 62.029075,69.004746 61.678266,68.276138 61.048122,67.032 60.628749,66.24 60.209376,65.448 59.860317,64.340166 59.853062,63.778144 59.844358,63.103725 59.604579,62.591485 59.14784,62.271571 l -0.692032,-0.484717 0.772032,-0.64278 c 0.424618,-0.35353 0.844032,-0.645367 0.932032,-0.648528 0.492086,-0.01766 0.894336,0.677996 1.427213,2.468281 0.328038,1.102106 0.789113,2.163738 1.024611,2.359184 0.235498,0.195443 0.428176,0.550403 0.428176,0.788794 0,0.238393 0.338742,0.655395 0.752762,0.926669 0.414016,0.271273 1.024777,1.030595 1.357241,1.687376 0.332467,0.656784 0.771405,1.41015 0.975418,1.67415 0.728128,0.942214 2.034579,3.491654 2.034579,3.970323 0,0.669984 -1.180848,1.243943 -2.089862,1.015795 -0.697933,-0.175168 -0.738074,-0.113235 -0.575584,0.888077 0.137696,0.848515 0.02,1.220487 -0.556007,1.757111 -0.907686,0.845638 -2.754121,1.227859 -3.545136,0.733862 -0.76607,-0.478419 -1.14384,-0.467597 -0.657411,0.01882 0.983222,0.983222 -0.0093,3.013264 -1.696,3.468877 -0.502077,0.135625 -0.66071,0.490121 -0.736102,1.644979 -0.126893,1.943725 -0.80482,2.534618 -2.996455,2.611763 -1.631497,0.05743 -1.712189,0.101543 -1.814153,0.991786 -0.126669,1.105923 1.001846,4.841817 2.068672,6.848243 1.306528,2.457238 1.2404,2.657814 -2.67226,8.105304 -1.762684,2.45414 -2.649702,4.3681 -2.649702,5.71738 0,1.64287 0.679405,4.23846 1.194528,4.56356 0.223011,0.14075 0.405472,0.43917 0.405472,0.66316 0,1.10476 7.938582,7.22863 12.818646,9.88838 4.031479,2.19725 6.500836,3.63782 9.197488,5.36566 1.636874,1.0488 3.045943,1.9069 3.131258,1.9069 0.08532,0 0.531683,0.24673 0.99192,0.54829 0.460237,0.30156 0.995171,0.58504 1.188742,0.62995 0.193568,0.0449 1.215946,0.39891 2.271946,0.78667 1.474765,0.54153 2.662058,0.71083 5.12,0.73006 3.142566,0.0246 3.248819,6.4e-4 5.92,-1.3295 1.496,-0.745 3.41968,-1.933 4.274842,-2.64 0.855164,-0.70701 1.680201,-1.28547 1.833417,-1.28547 0.153216,0 1.042519,-0.756 1.976229,-1.68 0.93371,-0.924 5.62364,-5.49449 10.42207,-10.15665 4.79842,-4.66216 9.04564,-9.05416 9.43825,-9.76 0.39262,-0.70584 0.89306,-2.0651 1.11209,-3.02057 0.38973,-1.70006 0.37871,-1.76166 -0.51515,-2.88 -2.86455,-3.58393 -3.23004,-4.189764 -4.55038,-7.542772 -0.23368,-0.593434 -0.68237,-2.389258 -1.0832,-4.335418 -0.0924,-0.44848 -0.18909,-2.14048 -0.21494,-3.76 -0.0257,-1.619504 -0.17427,-2.944566 -0.32998,-2.944566 -0.15572,0 -0.28312,-0.288 -0.28312,-0.64 0,-0.715683 -0.24262,-0.753942 -2.08,-0.328003 -1.38717,0.321571 -2.72,-0.215552 -2.72,-1.096147 0,-0.247168 -0.36549,-0.73689 -0.81219,-1.088269 -0.60048,-0.472336 -0.86024,-1.044567 -0.99652,-2.195223 -0.17156,-1.448512 -0.12637,-1.582758 0.65219,-1.937494 0.57157,-0.260422 1.83161,-1.444464 1.80949,-0.811996 -0.007,0.188589 -1.27258,1.195403 -1.63877,1.291163 -0.49419,0.129235 -0.61904,0.348326 -0.48437,0.850041 0.0998,0.371763 0.1834,0.846231 0.1858,1.054368 0.008,0.662451 1.13461,0.766941 2.2679,0.210275 0.60306,-0.296217 1.16847,-0.636569 1.25647,-0.756339 0.21791,-0.296582 2.10462,-1.099734 3.77604,-1.607427 1.65856,-0.503782 1.91966,-0.837386 1.136,-1.451437 -0.69084,-0.541321 -2.5658,-0.449917 -5.28331,0.257568 -1.48856,0.38753 -1.78179,0.394701 -1.64577,0.04024 0.0976,-0.254269 0.65176,-0.431312 1.35012,-0.431312 0.65152,0 1.46412,-0.211421 1.80576,-0.469824 C 113.83671,72.282336 116.8,72.144595 116.8,72.64 c 0,0.176 0.36,0.32 0.8,0.32 0.72,0 0.8,0.128 0.8,1.28 0,1.203181 -0.0565,1.28 -0.94111,1.28 -0.51762,0 -1.01249,0.115485 -1.09973,0.25663 -0.0872,0.141149 -0.89685,0.457664 -1.79916,0.70337 -0.90231,0.245706 -1.71256,0.563238 -1.80056,0.705629 -0.31503,0.509731 0.7999,0.611917 1.69168,0.155043 1.21024,-0.620022 3.87646,-0.938896 5.06888,-0.606224 1.79098,0.499667 1.08863,2.941088 -1.03196,3.587155 l -0.88804,0.270554 0.76444,0.232867 c 0.75946,0.231347 0.76272,0.251853 0.4995,3.14392 -0.40585,4.459238 -0.32809,5.857302 0.36855,6.626099 0.4978,0.549354 0.6275,1.28113 0.7182,4.052074 0.11022,3.367113 0.11606,3.388755 1.36,5.036342 0.84537,1.119691 1.24931,1.984671 1.24931,2.675261 0,1.57252 -1.48944,4.76376 -2.73296,5.85559 -0.60887,0.53459 -1.10704,1.14248 -1.10704,1.35087 0,0.20838 -0.72,1.08805 -1.6,1.95482 -2.73951,3.37991 -5.98422,5.58061 -8.72797,8.25068 -5.99542,5.84846 -8.574888,8.18104 -10.95203,9.9038 -2.659264,1.92722 -5.778109,3.58583 -7.905971,4.20442 -1.787114,0.51953 -5.413866,0.59101 -6.667507,0.13141 z M 51.862886,102.48 c 0.681332,-0.5693 3.207319,-4.281101 3.574743,-5.252896 0.193494,-0.511766 -0.629018,-3.074211 -1.523651,-4.746762 C 53.678525,92.040154 53.301853,90.78 53.076931,89.68 c -0.224921,-1.1 -0.57144,-2 -0.770045,-2 -0.427414,0 -1.852246,-1.539094 -2.154841,-2.327642 C 50.035469,85.04856 49.719568,84.8 49.450042,84.8 c -0.701316,0 -0.595837,1.842717 0.174012,3.04 1.009127,1.569402 1.588602,2.996275 1.952295,4.807245 0.355238,1.768854 0.132563,4.47823 -0.394839,4.804182 -0.301027,0.186045 -0.441363,5.588573 -0.145168,5.588573 0.08599,0 0.457933,-0.252 0.826544,-0.56 z m 67.594464,-9.04 c -0.10154,-0.616 -0.54043,-1.829699 -0.97531,-2.69711 -0.68079,-1.357876 -0.76256,-1.847188 -0.58827,-3.52 0.6475,-6.214426 0.66568,-5.833492 -0.28986,-6.073316 -1.16279,-0.291843 -1.64031,0.183303 -1.87026,1.860983 -0.21905,1.598141 0.23479,6.438429 0.78286,8.349443 0.45713,1.593933 1.45419,3.904605 2.14025,4.96 l 0.52003,0.8 0.23259,-1.28 c 0.12792,-0.704 0.14951,-1.784 0.048,-2.4 z M 57.109213,85.45192 c 0.77736,-0.858973 0.499526,-1.359437 -1.486931,-2.678435 -2.417725,-1.60536 -3.246445,-2.587098 -4.637242,-5.493485 -1.177091,-2.459802 -1.229114,-2.517306 -1.329104,-1.469178 -0.148835,1.56009 1.129178,4.609287 2.765213,6.597495 0.148589,0.180576 0.539328,0.756576 0.868307,1.28 1.442742,2.295472 2.779763,2.912781 3.819757,1.763603 z m 2.681824,-4.129456 c 1.155664,-1.002301 0.880976,-1.76313 -0.945399,-2.61856 C 57.946739,78.282883 56.656694,77.400211 55.978877,76.74241 54.16705,74.984093 53.523779,73.577613 52.492672,69.12 52.27145,68.163629 52.228224,68.122182 52.1968,68.836323 c -0.06025,1.369239 0.529978,3.970771 1.27504,5.619984 2.154234,4.768426 2.934083,6.204829 3.692688,6.801549 1.041952,0.819597 1.736307,0.836678 2.626509,0.06461 z m 52.587453,-1.43465 c 0.29191,-0.312492 0.9965,-0.389772 2.54412,-0.279043 2.9559,0.211495 4.23736,-0.07708 4.77112,-1.074425 0.37346,-0.697824 0.36934,-0.858634 -0.0285,-1.11064 -0.66211,-0.419389 -4.25723,0.0035 -6.70411,0.788566 -1.66619,0.534602 -2.10149,0.811277 -2.18336,1.387728 -0.0772,0.543808 0.0567,0.72 0.54738,0.72 0.3573,0 0.83131,-0.194483 1.05336,-0.432186 z M 64.4,77.954544 c 0.308,-0.233805 0.56,-0.630259 0.56,-0.881014 0,-0.250752 -1.36457,-1.818877 -3.032374,-3.48472 -3.322148,-3.318247 -3.85849,-4.170941 -4.361735,-6.934487 -0.185721,-1.019878 -0.456685,-1.977782 -0.602137,-2.128678 -0.451437,-0.46832 -1.0193,1.048259 -0.79872,2.133123 0.329875,1.622413 1.165708,4.45119 1.639769,5.549594 0.239357,0.554598 0.435197,1.097686 0.435197,1.20686 0,0.373744 1.721488,2.903991 2.683882,3.944778 1.047174,1.132474 2.451152,1.372605 3.476118,0.594544 z m 2.971936,-3.413859 c 0.360531,-0.583351 -0.54809,-2.267843 -2.960547,-5.48857 -2.089821,-2.789993 -3.131171,-4.575216 -3.786954,-6.492115 -0.135318,-0.395549 -0.275661,-0.488285 -0.367427,-0.24279 -0.284451,0.76095 1.349331,4.866291 2.643597,6.64279 0.384672,0.528 0.987837,1.747933 1.340361,2.710963 0.352525,0.963027 0.910522,1.899027 1.239994,2.08 0.329472,0.18097 0.714195,0.509037 0.854941,0.729037 0.313033,0.489302 0.755129,0.5152 1.036035,0.06068 z M 82.88,124.52447 c 0,-1.04614 10.605651,-4.5378 12.223514,-4.02431 0.93327,0.29621 0.32927,0.78059 -0.9624,0.7718 -1.265127,-0.009 -7.780676,1.96444 -9.704682,2.93879 -1.304637,0.66069 -1.556432,0.71144 -1.556432,0.31372 z m 4.286054,-9.62739 c -1.602371,-0.38274 -4.467001,-2.17436 -5.370448,-3.35884 -0.895555,-1.17413 -1.002131,-1.45824 -0.54703,-1.45824 0.158717,0 0.561811,0.43155 0.89577,0.959 0.983433,1.55322 3.493632,2.97178 5.539094,3.13024 1.562592,0.12105 1.856867,0.0432 2.583731,-0.68368 0.451162,-0.45116 1.091434,-1.61798 1.422829,-2.59293 0.607712,-1.78786 1.363274,-2.50532 0.964298,-0.91567 -0.451623,1.79941 -1.656048,3.80583 -2.70162,4.50057 -1.160121,0.77084 -1.25567,0.78523 -2.786624,0.41955 z m -20.353772,-8.97363 c -0.477248,-0.14384 -1.497271,-0.68641 -2.26672,-1.20571 -0.76945,-0.51929 -2.286976,-1.28849 -3.372279,-1.70932 C 60.087978,102.58758 59.2,102.06252 59.2,101.84163 c 0,-0.2209 0.108,-0.40057 0.24,-0.39927 0.224861,0.002 3.042973,1.44198 6.157395,3.14582 1.048234,0.57347 2.061952,0.78961 4.341066,0.92558 l 2.973475,0.1774 1.944032,-1.85429 C 75.925187,102.81701 76.8,102.08577 76.8,102.2119 c 0,0.56105 -2.803869,3.41051 -3.644195,3.70344 -1.091027,0.38034 -5.091594,0.38545 -6.343523,0.008 z M 66.56,104.21541 c -2.142253,-0.71805 -3.721776,-1.77356 -4.88135,-3.26192 -0.641645,-0.82358 -1.211962,-1.633429 -1.267376,-1.799669 C 60.355859,98.987578 59.99241,98.8276 59.603606,98.798314 59.214803,98.769034 58.825456,98.559424 58.73839,98.332531 58.61543,98.012106 59.323805,97.92 61.911158,97.92 c 1.875533,0 3.417488,-0.139827 3.528842,-0.32 0.108774,-0.176 0.455149,-0.32 0.769722,-0.32 0.729785,0 2.40495,-0.831117 2.915788,-1.44664 0.216071,-0.260349 0.667741,-0.47336 1.003716,-0.47336 0.335974,0 0.693747,-0.216 0.795052,-0.48 0.136279,-0.355133 0.699482,-0.48 2.165015,-0.48 1.871683,0 2.044022,0.06611 3.127929,1.2 0.630909,0.66 1.308135,1.514534 1.504944,1.898963 0.467309,0.912803 0.447456,1.734893 -0.02176,0.901037 -0.984332,-1.749274 -2.270326,-3.04 -3.02886,-3.04 -0.606877,0 -0.755357,0.132339 -0.628308,0.56 0.550586,1.85329 0.520672,2.293024 -0.279193,4.10414 -1.019722,2.30893 -2.475072,3.87639 -3.98985,4.2972 -1.38784,0.38556 -1.787142,0.37239 -3.214195,-0.10593 z m 4.701587,-1.38633 c 1.121629,-1.32079 2.35696,-4.016507 2.146675,-4.684437 -0.09962,-0.316445 -0.01766,-0.772336 0.182148,-1.013088 0.283881,-0.342057 0.219718,-0.483299 -0.293562,-0.646208 C 72.935581,96.370685 72.64,96.142576 72.64,95.978435 c 0,-0.47575 -0.527811,-0.355334 -2.321568,0.529648 -0.923139,0.455447 -2.438288,1.097018 -3.367002,1.425712 -0.928713,0.328698 -1.893062,0.802125 -2.142998,1.052058 -0.331853,0.331853 -0.803453,0.390605 -1.748371,0.217814 -0.937623,-0.171456 -1.393696,-0.116419 -1.656186,0.199859 C 61.12721,99.73689 61.147712,99.84 61.490662,99.84 c 0.246964,0 0.60048,0.40125 0.785594,0.89167 0.503034,1.33269 4.467949,3.17476 6.624851,3.07785 1.302861,-0.0585 1.727296,-0.23483 2.36048,-0.98044 z m -3.771427,-1.28394 c -0.197462,-0.49783 -0.497507,-1.17116 -0.666765,-1.4963 -0.367517,-0.705992 -0.344873,-0.735883 0.769232,-1.015506 0.727181,-0.182508 0.931719,-0.08612 1.236448,0.582685 0.402755,0.883951 0.04372,2.493051 -0.604483,2.709121 -0.206474,0.0688 -0.53697,-0.28218 -0.734432,-0.78 z m 30.58984,1.0033 c -0.528,-0.24176 -1.266368,-0.44607 -1.640819,-0.45401 -0.374448,-0.008 -0.878448,-0.25739 -1.12,-0.55434 -0.390749,-0.48038 -0.368605,-0.5117 0.200819,-0.28405 2.085072,0.83359 5.43736,1.44907 6.36785,1.16914 1.52478,-0.45871 4.47875,-1.74485 5.41203,-2.35636 0.46068,-0.30185 1.04587,-0.54882 1.30041,-0.54882 0.67342,0 1.9086,-1.594896 2.56374,-3.310352 0.3129,-0.819306 0.77299,-1.489648 1.02244,-1.489648 0.24944,0 0.45353,0.137226 0.45353,0.304944 0,0.509328 -0.72643,1.935056 -0.98594,1.935056 -0.13377,0 -0.3377,0.430246 -0.4532,0.956099 -0.24634,1.121565 -1.53736,2.243901 -2.58116,2.243901 -0.40369,0 -0.95935,0.22537 -1.23481,0.50082 -0.27545,0.27545 -0.87201,0.56813 -1.32569,0.6504 -0.45367,0.0823 -1.38773,0.5049 -2.07567,0.93918 -1.44189,0.91022 -4.256269,1.05231 -5.90353,0.29804 z m 0,-2.25055 c -0.88,-0.433631 -1.88287,-1.171938 -2.228602,-1.640687 -0.885443,-1.200505 -2.081072,-2.461763 -2.187296,-2.30736 -0.04925,0.07159 -0.370576,0.673888 -0.71406,1.338451 -0.85682,1.657754 -0.959959,1.017191 -0.1361,-0.845283 0.532285,-1.203318 0.942266,-1.632358 2.007476,-2.10079 C 97.455059,93.584058 98.464096,93.44 103.94272,93.44 c 4.67314,0 5.49728,-0.07196 5.49728,-0.48 0,-0.264 0.18555,-0.48 0.41234,-0.48 0.22679,0 0.97723,-0.288 1.66766,-0.64 0.69043,-0.352 1.43238,-0.64 1.64877,-0.64 0.5679,0 0.86916,0.621974 0.37151,0.766992 -2.78697,0.812134 -3.36888,1.186061 -3.73204,2.398176 -0.20253,0.675997 -0.36824,1.582458 -0.36824,2.014358 0,0.435917 -0.50171,1.371412 -1.12773,2.102775 -2.21527,2.588039 -6.95715,3.429419 -10.23227,1.815589 z m 7.23998,-0.341589 c 1.03401,-0.464035 1.88002,-1.038816 1.88002,-1.27729 0,-0.238473 0.288,-0.613446 0.64,-0.833273 0.47727,-0.298064 0.64,-0.74625 0.64,-1.762714 V 94.72 h -2.54111 c -1.54859,0 -2.62869,-0.14169 -2.76532,-0.362762 -0.50125,-0.811036 -8.375228,0.607738 -8.694879,1.566692 -0.05947,0.178393 0.330503,0.804579 0.866595,1.391526 0.536093,0.586947 0.974714,1.185197 0.974714,1.329446 0,0.144253 0.9,0.688045 2,1.208432 2.578,1.219596 4.45042,1.247146 6.99998,0.102967 z m -4.18263,-1.855399 c -0.20956,-0.252502 -0.33519,-0.936502 -0.27918,-1.52 0.0853,-0.888976 0.24444,-1.077312 0.98183,-1.162156 0.84358,-0.09707 0.88,-0.0422 0.88,1.325763 0,1.006057 -0.14932,1.484317 -0.50617,1.621254 -0.66715,0.25601 -0.63831,0.263104 -1.07648,-0.264861 z M 59.84,95.249165 c 0,-0.06096 0.21943,-0.550698 0.487626,-1.088307 0.321881,-0.645226 0.947302,-1.158768 1.84,-1.510858 0.743804,-0.293363 1.883929,-0.955626 2.533609,-1.471693 0.64968,-0.51607 1.316048,-0.938307 1.480819,-0.938307 0.164768,0 0.472733,-0.208634 0.684362,-0.463632 0.211629,-0.254995 0.913261,-0.62503 1.559181,-0.822294 C 69.07152,88.75681 69.888,88.468938 70.24,88.314365 c 0.352,-0.154576 1.450291,-0.439079 2.440643,-0.632224 4.02121,-0.784247 6.794295,1.231395 5.365946,3.900288 -0.330746,0.618003 -0.541088,0.647213 -3.28,0.455491 -5.123632,-0.35865 -8.565837,0.35361 -13.069987,2.704435 C 60.606262,95.31143 59.84,95.520602 59.84,95.249165 Z m 7.201024,-3.537095 c 0.352566,-0.06511 1.179197,-0.266972 1.83696,-0.448588 0.999859,-0.276074 5.372275,-0.264685 7.762016,0.02022 0.503418,0.06002 0.66081,-0.137748 0.737514,-0.926698 0.07608,-0.782493 -0.0998,-1.159315 -0.8,-1.714038 -0.755815,-0.598784 -1.175383,-0.685968 -2.657514,-0.552218 -2.099658,0.189475 -7.449245,2.233318 -8.8,3.36209 l -0.96,0.802236 1.12,-0.212313 c 0.616,-0.116775 1.408461,-0.265584 1.761024,-0.330688 z m 23.73231,-1.685404 C 90.656,89.909334 90.56,88.917894 90.56,87.823469 c 0,-1.813223 0.07812,-2.042669 0.88,-2.584707 2.500829,-1.690464 5.277331,-1.796778 8.358723,-0.320058 1.237987,0.593286 2.509717,1.167018 2.826077,1.274957 0.31636,0.107939 1.1512,0.561574 1.8552,1.008073 0.704,0.4465 1.496,0.903824 1.76,1.016276 0.52433,0.22334 1.6,1.251014 1.6,1.528611 0,0.469958 -2.00188,0.07887 -3.39234,-0.66273 -1.36958,-0.730464 -1.97199,-0.840771 -4.76766,-0.872992 -3.481725,-0.04013 -6.048784,0.490131 -6.972467,1.44025 -0.573264,0.589673 -1.5336,0.776118 -1.934199,0.375517 z m 2.001469,-1.172436 c 1.478912,-1.246396 5.492243,-1.964966 8.189657,-1.466323 3.48202,0.643687 3.07666,0.129952 -1.555548,-1.971446 -1.320093,-0.598861 -1.924374,-0.678064 -4.057658,-0.531847 -3.327715,0.228087 -4.127356,0.783309 -4.1412,2.875386 -0.01078,1.628243 0.503991,1.988214 1.564749,1.09423 z M 105.89651,73.556112 c -0.2013,-0.376141 -0.2916,-1.142378 -0.20067,-1.702749 0.15076,-0.928973 0.048,-1.083696 -1.16525,-1.753744 -1.75287,-0.968109 -2.81663,-2.556707 -2.32595,-3.473542 0.19545,-0.365203 0.49739,-0.637469 0.67098,-0.60504 0.17359,0.03243 0.3666,-0.229037 0.42891,-0.581037 0.15422,-0.871219 3.25527,-4 3.96454,-4 0.31401,0 0.57093,-0.216 0.57093,-0.48 0,-0.362666 0.39111,-0.48 1.6,-0.48 0.88,0 1.6,0.144 1.6,0.32 0,0.176 0.20025,0.32 0.44499,0.32 0.27032,0 0.49631,0.439626 0.57574,1.12 0.0719,0.616 0.0157,1.12 -0.12499,1.12 -0.14066,0 -0.25574,0.223152 -0.25574,0.495891 0,1.038826 -0.95559,2.332288 -1.87171,2.533504 -0.59199,0.130019 -1.2839,0.705456 -1.92994,1.605056 -1.27289,1.772461 -0.74375,2.26056 0.76571,0.70632 1.18172,-1.216781 2.78954,-2.140771 3.7251,-2.140771 0.37751,0 0.59084,-0.231085 0.59084,-0.64 0,-0.352 0.112,-0.64 0.24888,-0.64 0.13689,0 0.49548,0.288 0.79687,0.64 0.30139,0.352 0.8374,0.64 1.19112,0.64 0.7882,0 0.85629,1.011674 0.17745,2.636362 -0.35148,0.841216 -0.88898,1.321622 -2.19189,1.959078 C 112.23301,71.619949 111.21978,72 110.93082,72 c -0.28897,0 -0.70526,0.288 -0.92508,0.64 -0.21983,0.352 -0.59134,0.64 -0.82557,0.64 -0.23424,0 -0.64189,0.216 -0.90589,0.48 -0.7045,0.704506 -1.94871,0.597818 -2.37777,-0.203888 z M 108.16,72.638307 c 0.616,-0.523309 1.29392,-1.097011 1.50649,-1.274889 0.21258,-0.177879 0.74435,-0.323418 1.18171,-0.323418 1.55357,0 4.3518,-2.000467 4.3518,-3.111117 C 115.2,67.29584 115.03704,67.2 113.96068,67.2 c -1.73865,0 -4.02461,1.098342 -5.54975,2.666512 -1.73268,1.781568 -2.2256,2.578691 -1.98395,3.2084 0.27182,0.708349 0.43309,0.667718 1.73302,-0.436605 z M 105.92,69.12 c 0,-0.176 0.252,-0.586662 0.56,-0.912586 0.308,-0.325923 0.9412,-1.043856 1.4071,-1.595411 0.4659,-0.551555 1.19498,-1.135088 1.62016,-1.296742 0.84205,-0.320147 1.69151,-2.449165 1.34131,-3.361767 -0.25762,-0.67136 -2.45885,-0.695865 -3.00857,-0.03349 -0.2191,0.264 -0.57839,0.48 -0.79843,0.48 -0.5404,0 -2.9827,2.683498 -3.37042,3.703286 -0.54012,1.420621 -0.3813,2.565082 0.40885,2.946157 0.92439,0.445815 1.84,0.480925 1.84,0.07056 z m -21.36223,3.942784 c -1.741146,-1.01383 -1.998519,-1.531075 -2.338138,-4.698938 -0.153533,-1.432115 -0.425712,-3.863744 -0.604838,-5.403619 -0.258544,-2.222563 -0.229808,-3.213197 0.139382,-4.805117 0.255789,-1.102944 0.387728,-2.301104 0.2932,-2.662582 -0.100979,-0.38615 0.03529,-0.829165 0.330378,-1.074064 C 82.653987,54.18921 82.88,53.800406 82.88,53.554458 c 0,-0.580039 1.327834,-2.665303 2.185696,-3.432471 0.966554,-0.864371 2.778922,-0.456262 4.074554,0.917507 0.945449,1.002468 1.017472,1.25424 1.226358,4.287146 0.141709,2.05753 0.101104,3.447875 -0.112342,3.846707 C 90.070419,59.516864 89.92,61.346723 89.92,63.239699 c 0,4.682675 -0.767811,8.885328 -1.84895,10.120301 -0.663735,0.758179 -1.877034,0.655536 -3.51328,-0.297216 z m 3.395715,-1.011338 c 0.60672,-1.099865 0.820669,-2.142716 1.049677,-5.116441 C 89.412992,61.613219 89.556499,52.8 89.233322,52.8 89.082995,52.8 88.96,52.529632 88.96,52.199181 c 0,-0.731146 -0.506461,-1.160704 -1.707213,-1.447984 -1.318413,-0.315431 -1.998701,0.0087 -2.77312,1.321229 -0.995801,1.68776 -1.526406,3.445641 -1.862157,6.169292 -0.308787,2.504919 0.01539,8.177952 0.584356,10.225975 0.173011,0.622768 0.315369,1.661517 0.316348,2.308333 0.0016,1.044646 0.153712,1.264921 1.361786,1.971817 0.748,0.437687 1.574074,0.770874 1.835718,0.740416 0.261648,-0.03046 0.81864,-0.677021 1.237767,-1.436813 z m -9.544903,0.371968 C 76.401242,70.340314 76.061907,69.185139 75.974566,64.13752 75.918454,60.89473 75.754438,59.294669 75.38833,58.418442 75.108749,57.749312 74.88,56.793037 74.88,56.293386 c 0,-0.521501 -0.306682,-1.206416 -0.72,-1.607981 -0.396,-0.384739 -0.54,-0.597853 -0.32,-0.473581 0.282454,0.159549 0.4,-0.06467 0.4,-0.762982 0,-1.236596 0.602218,-1.490292 1.92,-0.808842 0.55977,0.289469 1.21033,0.452413 1.44569,0.362096 0.325852,-0.12504 0.385024,0.100154 0.248073,0.944086 -0.125635,0.774192 -0.02298,1.281636 0.340522,1.683306 0.286208,0.316253 0.655619,1.284995 0.820918,2.152758 0.313936,1.648055 0.536343,2.426372 0.999504,3.497754 0.577335,1.335494 1.18625,12 0.685168,12 -0.180141,0 -0.519309,0.06677 -0.753702,0.14839 -0.234397,0.08162 -0.926311,-0.370624 -1.537591,-1.004976 z M 80.608541,70.96 C 80.583101,67.917808 79.141363,60.375488 78.391158,59.36 78.261136,59.184 77.99168,58.266403 77.792368,57.320893 77.412666,55.519638 76.549827,53.76 76.046285,53.76 c -0.162653,0 -0.487024,-0.252 -0.720829,-0.56 -0.389344,-0.512893 -0.424778,-0.492704 -0.421232,0.24 0.0022,0.44 0.222816,1.376 0.490422,2.08 1.186941,3.122534 1.395258,4.495795 1.334928,8.8 -0.05053,3.60513 0.0356,4.518253 0.520474,5.518051 0.572029,1.179498 2.484467,3.121949 3.073718,3.121949 0.165821,0 0.293972,-0.9 0.284775,-2 z M 69.2,72.734166 c -0.457286,-0.08808 -0.72,-0.369657 -0.72,-0.771702 0,-0.348163 -0.36,-0.966659 -0.8,-1.374438 -0.44,-0.40778 -0.8,-0.855309 -0.8,-0.994516 0,-0.139206 -0.36,-0.725084 -0.8,-1.301955 -0.44,-0.57687 -0.8,-1.195305 -0.8,-1.374304 0,-0.178998 -0.18777,-0.440605 -0.417264,-0.58135 -0.69993,-0.429255 -2.448262,-4.691962 -2.45808,-5.993181 -0.0096,-1.277091 0.76448,-2.762938 1.541008,-2.957834 0.608182,-0.152643 0.945418,0.02691 1.611722,0.858141 1.455273,1.815479 2.174636,3.299181 2.795993,5.766803 0.331018,1.314596 0.736263,2.486327 0.900541,2.603853 0.164278,0.117527 0.348794,0.541991 0.410029,0.943251 0.06124,0.401261 0.334694,0.976368 0.607683,1.278016 0.276256,0.305261 1.246299,2.720246 1.188424,3.225794 C 71.366511,72.877842 70.46087,70.991152 69.572739,69.12 69.029744,67.976 68.267018,66.032 67.877789,64.8 66.985091,61.974397 65.294829,58.577728 64.55089,58.114426 64.110435,57.840122 63.912608,57.868509 63.675792,58.24 c -0.421226,0.660765 -0.392954,2.980835 0.04953,4.064944 0.986717,2.417485 1.681705,3.832883 2.242781,4.567597 0.339145,0.444102 1.180246,1.599459 1.869107,2.567459 1.852253,2.602813 1.874848,2.621379 2.912963,2.393373 1.174016,-0.257859 1.259008,0.377312 0.108992,0.814547 -0.451456,0.171645 -0.847456,0.29247 -0.88,0.268502 C 69.946627,72.892454 69.596,72.810438 69.2,72.734166 Z m 4.72,-0.833577 C 72.960544,71.449526 72.02535,70.413421 72.010646,69.785197 72.00479,69.535056 71.784275,69.092019 71.520608,68.800672 71.228966,68.478413 70.959251,67.277949 70.831933,65.735475 70.716829,64.340963 70.525274,63.128 70.406259,63.04 70.287242,62.952 69.970861,62.448 69.703187,61.92 69.435514,61.392 68.992115,60.528 68.717856,60 c -1.106947,-2.131075 -1.273331,-2.695722 -1.053008,-3.573555 0.124634,-0.496576 0.376659,-1.083671 0.560061,-1.304656 1.167001,-1.406147 3.922931,0.812035 5.065334,4.076973 0.632986,1.80904 0.924394,3.4443 1.739469,9.761238 0.146945,1.236343 0.729687,3.84541 -0.310765,0.245955 -0.261757,-0.568723 -0.700707,-2.440723 -0.975443,-4.16 -0.70689,-4.423622 -1.295795,-6.234502 -2.537968,-7.804233 -0.596237,-0.753463 -1.027731,-1.461085 -0.958877,-1.572493 0.202813,-0.32816 -0.930435,-0.25057 -1.366659,0.09357 -0.660096,0.520755 -0.457901,1.805709 0.610166,3.877616 0.555591,1.07777 1.230458,2.388294 1.4997,2.912275 0.269244,0.523981 0.540425,1.747981 0.60262,2.72 0.143581,2.243895 1.521354,5.206311 2.764093,5.94321 0.763981,0.453011 0.373611,-1.254827 0.664388,-1.576792 0.493576,-0.546512 0.810508,1.428085 0.814134,1.960891 0.0055,0.81007 -0.621904,0.908547 -1.915101,0.30059 z M 90.759587,71.513872 C 90.167514,70.921798 90.004435,66.74336 90.56,66.4 c 0.176,-0.108774 0.322474,-0.729274 0.325494,-1.378886 0.0029,-0.649613 0.299882,-2.477114 0.65969,-4.061114 0.359805,-1.584 0.733933,-3.277763 0.831398,-3.763917 0.09746,-0.486153 0.304605,-0.962653 0.460314,-1.058886 0.155706,-0.09623 0.283104,-0.447923 0.283104,-0.781536 0,-0.333613 0.37056,-0.97713 0.823466,-1.430035 0.658566,-0.658567 0.781635,-1.013924 0.614576,-1.774548 C 94.390864,51.389933 94.456835,51.2 94.888381,51.2 c 0.296576,0 0.967065,-0.36 1.489977,-0.8 0.522909,-0.44 1.335696,-0.797514 1.806196,-0.79447 1.22168,0.0079 2.295446,1.261347 2.295446,2.679574 0,0.736016 0.15133,1.154896 0.41723,1.154896 0.22947,0 0.88104,0.478538 1.44793,1.063414 0.79883,0.824196 1.23326,1.033684 1.93117,0.931255 1.36191,-0.199888 1.96367,0.60727 1.96367,2.633952 0,1.218496 -0.13654,1.755302 -0.48,1.887101 -0.264,0.101305 -0.48,0.377769 -0.48,0.614364 0,0.236599 -0.432,0.844058 -0.96,1.349914 -0.528,0.505856 -0.96249,1.072797 -0.96553,1.259869 -0.003,0.187072 -0.3733,0.68912 -0.8228,1.115664 -0.51277,0.486585 -0.75842,1.000582 -0.65931,1.379574 0.092,0.351952 -0.037,0.678845 -0.30912,0.78328 -0.2569,0.09858 -0.66823,0.660647 -0.91408,1.249034 -0.51262,1.226889 -1.701173,1.692086 -2.912757,1.140051 C 96.979885,68.502781 96.618973,67.2 97.28,67.2 c 0.176,0 0.32513,-0.684 0.331398,-1.52 0.01699,-2.264291 0.745095,-4.89993 1.785255,-6.462282 0.50784,-0.762793 1.107127,-1.718329 1.331747,-2.123411 0.22463,-0.405081 0.69263,-0.82672 1.04,-0.936976 0.73989,-0.234829 0.76727,-0.431507 0.16977,-1.219721 -0.30664,-0.404528 -0.76429,-0.55112 -1.49852,-0.48 -0.879906,0.08523 -1.092626,0.26327 -1.269314,1.06239 -0.116746,0.528 -0.608256,1.68 -1.092246,2.56 -1.030682,1.874 -1.769984,4.722912 -1.86842,7.2 -0.03846,0.968 -0.153468,1.904 -0.255561,2.08 -0.102093,0.176 -0.271584,0.681363 -0.376647,1.123034 -0.282038,1.185657 -2.160748,3.080947 -3.302601,3.331737 -0.716179,0.157299 -1.141543,0.07283 -1.515274,-0.300899 z m 2.840093,-1.530483 c 1.371274,-1.331763 1.657226,-2.110848 1.726314,-4.703389 0.0305,-1.144 0.203184,-2.656 0.383772,-3.36 0.517392,-2.016973 1.963904,-5.6 2.260791,-5.6 0.148192,0 0.269443,-0.20495 0.269443,-0.455446 0,-0.2505 0.36,-0.883287 0.8,-1.406196 1.07063,-1.272374 1.06746,-2.889084 -0.0072,-3.671145 -0.642947,-0.467888 -0.919469,-0.504691 -1.509942,-0.200951 -1.006615,0.517799 -2.4812,2.260698 -2.482103,2.933738 -3.2e-4,0.308 -0.288752,0.848 -0.640752,1.2 -0.352,0.352 -0.64,0.856 -0.64,1.12 0,0.264 -0.144,0.48 -0.32,0.48 -0.176,0 -0.32,0.327958 -0.32,0.728797 0,0.400841 -0.195536,1.012841 -0.434521,1.36 C 92.446493,58.755958 92.151878,59.76 92.030778,60.64 c -0.353412,2.568179 -0.38009,2.695981 -0.610922,2.926816 -0.120918,0.120918 -0.219853,0.725626 -0.219853,1.343798 0,0.61817 -0.164038,1.577584 -0.364528,2.132029 -0.219366,0.60665 -0.275273,1.603267 -0.14039,2.50272 0.197798,1.319021 0.317689,1.494637 1.020387,1.494637 0.46791,0 1.244886,-0.435706 1.884211,-1.056611 z m 6.84327,-3.347069 c 0.51339,-1.671763 1.14189,-2.629936 3.177,-4.843453 0.58296,-0.634077 1.14156,-1.551862 1.24133,-2.039526 0.0998,-0.487661 0.30678,-0.96416 0.46005,-1.058887 0.15327,-0.09472 0.27867,-0.650931 0.27867,-1.236019 0,-0.820566 -0.15786,-1.105072 -0.69042,-1.244339 -1.64981,-0.431437 -3.9986,1.609808 -5.275817,4.585011 C 99.36911,61.4156 98.956061,62.352 98.715869,62.88 c -0.514023,1.129958 -0.951639,4.769075 -0.635088,5.281264 0.120813,0.195478 0.585389,0.311162 1.03239,0.257075 0.674144,-0.08157 0.900899,-0.385446 1.329779,-1.782019 z"
         id="path321" />
      <path
         style="fill:#903d12;fill-opacity:1;stroke:#1bff54;stroke-width:0.022113;stroke-opacity:0"
         d="m 101.02334,99.991886 c -0.52369,-0.04039 -1.11494,-0.178049 -1.389271,-0.323449 -0.211208,-0.111943 -0.32403,-0.277784 -0.324363,-0.476792 -6.6e-5,-0.04054 0.02076,-0.154976 0.04629,-0.2543 0.09981,-0.388294 0.02011,-0.686859 -0.24813,-0.929605 -0.29355,-0.265647 -1.029223,-0.544486 -1.436752,-0.544566 -0.234209,-4.6e-5 -0.269259,0.08797 -0.163747,0.411201 0.05624,0.172293 0.06998,0.274274 0.03696,0.274274 -0.0944,0 -0.681211,-0.55 -0.825762,-0.773956 -0.184501,-0.285852 -0.155913,-0.416224 0.122066,-0.556664 0.249511,-0.126058 0.702546,-0.221848 1.860838,-0.393458 0.541378,-0.08021 0.903281,-0.135773 1.083538,-0.16636 l 0.06634,-0.01126 -0.01566,0.414606 c -0.02513,0.665247 0.02201,1.054048 0.167773,1.383639 0.22676,0.512751 0.74261,0.947563 1.30735,1.101975 0.25592,0.06997 0.8259,0.07023 1.08354,4.8e-4 0.5094,-0.137898 0.89761,-0.47085 1.0841,-0.929791 0.1505,-0.370397 0.17697,-0.673996 0.13424,-1.539732 -0.0238,-0.481446 -0.002,-0.597675 0.1377,-0.723567 0.21199,-0.191523 1.036,-0.273877 1.62922,-0.16283 0.47824,0.08952 0.8382,0.21896 1.29156,0.464432 0.18964,0.102682 0.41351,0.22068 0.49748,0.262217 0.084,0.04154 0.14368,0.08089 0.13268,0.08745 -0.011,0.0066 -0.29863,0.01903 -0.63917,0.02771 -1.12651,0.02872 -1.19387,0.05878 -0.64703,0.288667 0.65079,0.273598 0.81513,0.402404 0.81191,0.636357 -0.003,0.20193 -0.1939,0.496862 -0.56291,0.86869 -0.38047,0.383375 -0.72151,0.607074 -1.35995,0.892044 -0.56606,0.252663 -1.5258,0.500415 -2.35504,0.607942 -0.47075,0.06104 -1.18189,0.09117 -1.5258,0.06464 z m 3.84415,-2.45758 c 0.20877,-0.113629 0.35998,-0.350026 0.26726,-0.417825 -0.022,-0.01609 -0.0633,-0.02926 -0.0918,-0.02926 -0.14225,0 -0.59201,0.205003 -0.67151,0.306077 -0.0246,0.03127 -0.0414,0.08111 -0.0378,0.111927 0.0143,0.120356 0.33406,0.137777 0.53378,0.02908 z"
         id="path8262" />
      <path
         style="fill:#903d12;fill-opacity:1;stroke:#1bff54;stroke-width:0.022113;stroke-opacity:0"
         d="m 69.559784,102.67132 c -0.03144,-0.0819 -0.01204,-0.32474 0.04181,-0.5233 0.176834,-0.65198 0.219444,-1.04186 0.203396,-1.86102 -0.01897,-0.968474 -0.124464,-1.553051 -0.381823,-2.115849 -0.145335,-0.317819 -0.149569,-0.500015 -0.01508,-0.648739 0.05004,-0.05534 0.188496,-0.124941 0.325323,-0.163546 0.161237,-0.04549 0.668092,-0.06081 0.998375,-0.03018 0.520113,0.04824 0.744239,0.119086 0.914104,0.288952 0.29981,0.299809 0.540172,1.350448 0.484442,2.117523 -0.06058,0.833879 -0.391619,1.318489 -0.939064,1.374739 -0.316236,0.0325 -0.434261,0.12105 -0.48509,0.36399 -0.0571,0.27292 -0.300134,0.64303 -0.611594,0.93139 -0.254212,0.23535 -0.499715,0.35748 -0.534804,0.26604 z"
         id="path8264" />
    </g>
  </g>
</svg>
