<?xml version="1.0" encoding="UTF-8" standalone="no"?>
<!-- Created with Inkscape (http://www.inkscape.org/) -->

<svg
   version="1.1"
   id="svg2"
   width="192"
   height="288"
   viewBox="0 0 192 288"
   xmlns="http://www.w3.org/2000/svg"
   xmlns:svg="http://www.w3.org/2000/svg">
  <defs
     id="defs6" />
  <g
     id="g8">
    <g
       id="g170"
       transform="translate(4,6)">
      <path
         id="whites"
         style="display:inline;fill:#ffffff;stroke:#1bff54;stroke-opacity:0"
         d="m 102.76155,78.619155 c 0.59151,2.565996 2.33769,5.239541 4.10598,7.251454 1.04676,0.34045 4.90347,0.661919 6.81672,0.370825 2.53705,-0.594622 5.26193,-1.801627 6.71884,-3.751407 0.91933,-1.820177 2.15146,-3.851055 2.62321,-5.559579 0.0662,-1.361349 0.53774,-2.404668 0.0518,-3.722352 -3.3879,-1.192953 -7.5098,-1.10312 -10.75894,-0.996937 -2.05031,-0.0011 -4.99903,0.82952 -6.63622,2.020427 -1.37156,1.461189 -2.74986,2.787604 -2.92127,4.387594 z M 69.55011,82.99731 c 1.229275,1.610917 2.553586,2.866195 4.64733,3.918911 0.599994,0.464948 3.696114,1.200441 5.735207,1.334949 1.885603,0.05762 3.576332,-0.237688 5.183653,-0.86491 1.886556,-0.823849 2.896327,-2.858459 3.388825,-4.900633 0.381651,-1.994435 -0.08571,-4.938734 -0.765736,-6.582414 -1.147156,-1.337161 -3.083032,-1.9328 -4.742054,-2.099989 -1.877625,-0.465616 -4.483451,0.113411 -6.129422,0.750545 -2.378748,0.848839 -4.858537,1.898791 -6.879963,3.127264 -0.524311,1.836386 -0.424763,3.576882 -0.43784,5.316277 z"
         transform="translate(-4,-6)" />
      <path
         id="hair1"
         style="display:inline;fill:#635b58;stroke-width:0.32"
         d="m 97.557302,22.300253 c -0.324367,0.0031 -0.85193,0.195912 -1.357287,0.475867 -0.542357,0.300449 -0.939597,0.223426 -1.625134,0.02682 -1.398865,-0.401188 -1.81063,-0.215154 -2.463418,0.485531 -0.383098,0.411207 -0.57651,0.430651 -0.868647,0.250101 -0.243533,-0.150505 -0.714746,-0.203628 -0.940015,-0.117188 -0.22527,0.08645 -0.562705,0.0053 -0.871193,-0.167306 -0.395482,-0.221322 -0.87863,-0.100855 -1.374238,0.22388 -0.628406,0.411749 -0.642119,0.220298 -1.882318,-0.300714 l -1.44455,-0.60686 -1.006421,0.888009 c -0.869694,0.83322 -0.75435,0.762458 -1.453326,0.272876 -0.953163,-0.667621 -1.378954,-0.561026 -1.624765,0.213452 -0.240675,0.758301 -0.575944,0.785726 -1.131824,0.11593 -0.570241,-0.687098 -1.12018,-0.587676 -1.603909,0.411448 -0.364921,0.753727 -0.508506,0.718975 -1.492299,0.633205 -1.076606,-0.09386 -1.352361,0.183841 -1.839968,1.402489 -0.538356,1.345486 -0.752798,1.621002 -1.072052,0.789041 -0.335925,-0.875402 -1.326456,-0.497398 -2.011955,0.960937 -0.632886,1.346408 -0.554348,1.345636 -1.726416,1.345636 -1.154357,0 -1.534621,0.200354 -1.882993,1.255938 -0.330816,1.002381 -0.196344,0.965106 -0.890422,0.790904 -1.462833,-0.367148 -2.217786,0.252461 -2.445482,1.968896 -0.11536,0.869623 -0.119499,1.408079 -0.201059,1.408079 -0.08156,0 -0.422007,-0.267726 -0.888593,-0.634743 l -0.894565,-0.636697 -0.591943,0.970749 c -0.213236,0.499015 -0.455036,1.268719 -0.462936,1.65433 -0.01871,0.90905 -0.165107,1.007459 -0.66579,0.404173 C 60.626293,36.522973 60.221043,36.480469 60,36.480469 c -0.420029,0 -1.497604,2.457332 -1.218964,2.90818 0.08814,0.142621 0.248218,0.11904 0.09,0.11904 -0.158218,0 -0.291958,-0.441375 -0.527209,-1.154196 -0.235254,-0.712822 -0.655612,-1.464985 -0.80086,-1.554755 -0.479964,-0.296637 -1.074343,1.561786 -1.074343,3.877009 0,2.114239 0.196854,2.171578 -0.263503,1.595658 -0.459662,-0.575048 -0.690439,-0.36317 -0.582177,1.488361 0.06432,1.099998 0.07883,1.921819 -0.0644,1.921819 -0.143232,0 -0.08972,-0.210446 -0.08972,-0.562444 0,-0.352 -0.269403,-0.763762 -0.445403,-0.763762 -0.188507,0 -0.443449,1.270757 -0.443449,2.890726 0,2.527818 -0.02442,2.591625 -0.644509,2.753782 -0.642699,0.168071 -0.808025,0.501319 -0.66807,3.582155 0.130717,2.877437 0.350906,3.491239 1.236395,5.068405 0.547306,0.974824 1.3778,2.1186 1.806664,2.521496 l 0.920023,0.810603 0.800939,-0.970692 c 1.686901,-2.855696 3.607983,-0.937473 4.042687,3.8202 0.181933,1.991218 0.0042,2.285222 -0.722735,3.777242 -0.599539,1.230465 -0.839705,2.30532 -0.722589,3.70711 l 0.171999,2.058695 1.890726,-1.904297 c 0.962859,-1.047348 1.905402,-2.300949 2.017623,-2.748069 0.112221,-0.447118 0.37827,-0.703046 0.535191,-0.703046 0.156917,0 0.222611,-0.400998 0.222611,-0.660291 0,-0.512641 1.354603,-3.316908 1.703159,-3.581953 0.118045,-0.08976 0.238532,-0.669305 0.365178,-1.173895 0.131635,-0.524483 0.639944,-1.124963 1.166027,-1.421864 1.372398,-0.774531 1.619828,-2.295092 1.216774,-6.597702 -0.461821,-4.929929 -0.445685,-6.407787 0.126942,-6.980412 0.264,-0.264 0.527378,-0.651791 0.527378,-0.919888 0,-0.961771 3.543611,-4.03421 4.695222,-4.03711 0.275072,-6.6e-4 1.031981,-0.462157 1.548907,-1.00587 0.516928,-0.54371 1.388027,-1.161882 1.916027,-1.431607 1.986668,-1.014871 3.719214,-2.264232 3.730514,-2.650447 0.0064,-0.22 0.133151,-0.260977 0.529151,-0.261617 0.395998,-6.56e-4 1.286264,-0.369694 1.814262,-0.688421 0.922219,-0.556694 2.478377,-0.997863 4.859475,-1.455146 2.19966,-0.422435 7.69191,-0.479796 8.198691,-0.05267 0.264,0.222505 1.468433,0.457813 2.675776,0.564488 1.79282,0.158398 2.26489,0.321289 2.87702,0.981793 0.41224,0.444814 1.04819,0.90666 1.27658,0.91853 1.2598,0.06552 2.59069,0.328129 3.15758,0.631521 0.85543,0.457821 1.73127,1.317741 1.73127,1.729346 0,0.181526 0.29097,0.551018 0.53766,0.645688 0.2467,0.09467 0.46035,0.545456 0.56909,1.125101 0.10875,0.579642 0.5368,1.401918 0.88536,1.717358 0.34857,0.31544 0.61265,0.671241 0.61265,0.885495 0,0.642352 1.54731,5.425648 1.91805,5.872352 0.18917,0.22794 0.47083,0.908369 0.61262,1.565148 0.81025,3.75319 1.08233,4.492488 1.50512,5.264301 0.2559,0.467155 0.44469,1.109343 0.44469,1.454449 0,0.83024 1.2686,2.366769 2.22842,2.731692 0.42161,0.160294 0.8004,0.67235 0.94866,1.070908 0.20759,0.558058 0.58872,0.09221 0.76925,-1.695212 0.28936,-2.864957 1.16676,-4.25273 2.6302,-4.396584 0.58249,-0.05726 0.88406,0.09469 1.17675,0.38738 0.74841,0.748401 1.4986,0.549019 1.71322,-0.524032 0.10633,-0.531659 0.38573,-1.032886 0.539,-1.127616 0.15327,-0.09472 0.19083,-1.024702 0.19083,-1.971926 0,-0.947224 0.12025,-1.71164 0.29625,-1.820414 0.56511,-0.349258 0.32039,-3.320758 -0.41859,-5.141086 -0.39435,-0.9714 -0.77091,-1.839734 -0.86461,-1.927734 -0.90558,-0.850355 -1.22011,-2.000581 -1.22011,-4.209085 0,-1.999123 -0.16724,-2.654799 -0.70763,-3.195178 -0.55216,-0.552182 -1.05321,-0.659315 -1.99586,-0.399033 -1.02436,0.282838 -0.90556,0.316099 -1.31534,-0.471432 -0.24481,-0.470493 -0.76338,-1.248408 -1.22011,-1.675086 -0.45672,-0.42668 -0.90214,-0.810156 -0.90814,-0.999472 -0.0127,-0.395875 -4.45514,-4.113192 -6.12364,-5.107984 -0.616,-0.36727 -1.52949,-1.077082 -2.11139,-1.631555 -0.94541,-0.90083 -1.40467,-1.088256 -2.92171,-1.022046 -1.34719,0.0588 -1.70555,0.009 -2.16092,-0.494208 -0.31562,-0.348753 -0.96151,-0.74533 -1.38016,-0.74533 -0.42389,0 -1.11028,-0.335926 -1.63288,-0.870533 -1.14259,-1.168847 -1.66051,-1.118867 -2.207396,-0.149099 -0.372253,0.660109 -0.47472,1.042678 -1.055655,-0.436242 -0.234365,-0.785043 -0.715977,-1.327258 -1.359242,-1.335207 z m 4.419238,36.037446 c -1.52362,0.02695 -2.815589,0.213809 -3.494174,0.462924 l -1.152367,0.490292 0.01949,2.504007 c 0.01013,1.301216 0.08239,2.489129 0.168099,2.720703 0.118564,0.320407 0.785164,0.516834 1.94336,-0.08789 3.077402,-1.606798 4.936952,-2.010636 8.345712,-1.628782 1.68997,0.189312 3.85996,0.696605 4.91596,1.089866 1.056,0.393258 2.41455,0.708108 3.00196,0.794866 l 1.256,0.158203 -0.36908,-1.066507 c -0.21921,-0.633453 -1.7741,-1.691626 -3.75014,-2.880939 -2.78807,-1.678054 -3.35759,-1.952803 -5.7559,-2.228571 -1.78722,-0.205504 -3.60528,-0.355119 -5.12891,-0.328172 z m -19.591774,1.019723 c -1.484226,-0.114071 -4.605337,0.599828 -7.73057,2.099496 -2.259487,1.084235 -3.06413,1.696072 -4.015648,2.953159 -0.649543,0.858139 -1.279876,1.640572 -1.419911,1.699242 -0.140035,0.05867 -0.49753,1.006608 -0.49753,1.25594 0,0.629642 0.75712,0.03171 1.917633,-0.853484 1.14666,-0.8746 2.378895,-1.170831 6.017521,-1.831942 3.303146,-0.600124 5.442199,-0.487876 6.890546,0.117254 l 1.300883,0.343649 0.203271,-1.75796 C 84.782025,61.347035 84.10897,59.629653 82.462947,59.06032 Z m -9.902344,11.814453 c -0.0077,0.0014 -0.02479,0.0089 -0.04102,0.01758 0.01258,-0.003 0.02433,-0.0076 0.03711,-0.01172 0.0089,-0.0057 0.0093,-0.0068 0.0039,-0.0059 z m 51.511708,4.806438 c -0.13873,-0.03221 -0.35448,0.545126 -0.48058,1.30489 -0.11648,0.701774 -0.39942,1.54838 -0.55278,1.90038 -0.15336,0.351998 -0.3385,1.223302 -0.4492,1.955066 -0.11071,0.731765 -0.37149,1.564417 -0.61716,1.88865 -0.24568,0.324232 -0.59178,1.133871 -0.59776,1.722701 -0.0109,1.147598 -0.53694,2.036124 -2.71478,4.558504 -0.75719,0.876978 -1.29878,1.792616 -1.29878,2.015636 0,0.223024 -0.2119,0.265524 -0.5683,0.265524 -0.46773,0 -0.76599,0.431336 -0.90825,1.14269 -0.15682,0.784051 -0.26398,0.810754 -0.76558,0.679586 -0.47448,-0.124083 -0.87274,0.248335 -1.13292,0.937635 -0.19015,0.503757 -0.62354,0.964236 -1.00193,1.136652 -0.37841,0.172413 -0.99675,0.865345 -1.31645,1.539063 -0.3197,0.67372 -0.84791,1.706226 -1.42173,2.314441 -1.31186,1.390539 -1.66468,1.196009 -1.99006,-1.169809 -0.12386,-0.900567 -0.55443,-2.575953 -1.03316,-3.646529 -0.47874,-1.070574 -1.04445,-2.274824 -1.16216,-2.714822 -0.11771,-0.44 -0.57855,-1.272821 -1.02344,-1.773483 -0.63698,-0.71684 -1.106,-0.862111 -1.45522,-0.572287 -0.34461,0.286001 -0.358,0.335072 -0.60341,-0.103449 -0.29541,-0.527866 -0.74346,-0.63939 -1.7444,-0.154373 -0.97471,0.472316 -3.685258,0.932862 -5.935411,1.165892 -0.490846,0.05083 -1.168774,0.416854 -1.373126,0.621206 -0.204352,0.20435 -0.500677,0.261639 -0.714809,0.261639 -0.214132,0 -0.458059,0.176906 -0.523449,0.373059 -0.235197,0.705592 -4.13265,0.438634 -5.161985,-0.378839 -0.242004,-0.192189 -0.900916,-0.351871 -1.406284,-0.298861 -1.017265,0.106704 -1.412984,-0.154661 -2.324118,-1.759654 -0.807461,-1.422364 -2.107735,-1.409487 -4.287312,0.232377 -0.907364,0.683515 -1.979901,1.257515 -2.419899,1.371038 -0.44,0.113527 -1.162448,0.856641 -1.548862,1.459096 -0.531539,0.828715 -0.874415,1.003891 -1.798739,1.160055 -0.910501,0.153827 -1.555151,0.549855 -2.119241,1.373092 -0.416308,0.607557 -0.771005,1.01165 -0.997923,1.01165 -0.714728,0 -1.26923,-0.170669 -1.275278,-0.550635 -0.006,-0.377014 -1.44562,-2.343998 -2.294967,-3.109465 -1.727126,-1.556565 -3.00296,-2.419978 -3.587969,-2.419978 -0.44192,0 -0.835592,-0.279691 -1.410056,-1.17174 -1.399525,-2.17325 -1.628861,-2.787408 -1.628861,-3.70115 0,-0.923608 -0.761819,-1.816541 -1.433774,-1.816541 -0.304353,0 -0.447288,0.800859 -0.447288,2.556753 0,1.319998 0.175448,2.556753 0.332065,2.556753 0.156618,0 0.432337,0.51756 0.785055,1.265558 0.818963,1.736745 1.912029,2.912539 3.621161,3.873126 0.854401,0.4802 1.358358,0.943378 1.486272,1.453035 0.112121,0.446718 0.521013,1.13039 0.75595,1.365324 0.234933,0.234938 0.850875,1.047356 1.386707,1.82616 0.53583,0.778802 1.250695,1.416016 1.511764,1.416016 0.261065,0 0.289744,0.101997 0.38848,0.359297 0.09873,0.2573 0.73237,0.652088 1.084176,0.763738 0.351808,0.11166 0.691227,0.62658 0.925681,1.18162 0.234456,0.55504 0.758283,1.27119 1.144542,1.53519 2.430874,1.66145 3.22172,2.18927 3.388661,2.67373 0.309326,0.89765 3.904012,4.36384 5.099654,4.86342 0.610452,0.25506 1.297449,0.68377 1.525391,1.04876 0.227946,0.365 0.651372,0.6797 0.845759,0.6797 0.194387,0 0.520548,0.24098 0.839776,0.59372 0.319224,0.35274 1.262443,0.80676 1.982489,0.99025 2.121007,0.5405 2.820133,0.88324 2.820133,1.35343 0,0.24265 0.470892,0.6134 0.740414,0.6134 0.269526,0 0.483924,0.0744 0.591729,0.35536 0.144189,0.3758 0.620635,0.61507 1.32239,0.47472 0.52467,-0.10489 1.793962,-0.20508 2.91596,-0.20508 1.522092,0 2.179788,-0.25429 2.179788,-0.58409 0,-0.63322 1.721657,-1.74 3.835893,-2.58583 1.413881,-0.56565 2.313261,-1.24545 3.822311,-2.94339 1.06766,-1.20132 1.95704,-2.42684 1.95704,-2.68557 0,-0.44341 0.91319,-1.20783 2.35153,-1.95701 0.73798,-0.38439 3.18208,-4.64902 2.96495,-5.21488 -0.1914,-0.49878 0.11788,-0.765546 0.3943,-0.31829 0.26424,0.42756 1.68183,-0.56257 1.68183,-1.210945 0,-0.242247 0.13632,-0.492422 0.40032,-0.593727 0.264,-0.101309 0.51175,-0.431472 0.51175,-0.580168 0,-0.148698 0.56568,-0.665357 1.18168,-1.263605 0.616,-0.598252 1.13674,-1.465741 1.13674,-1.755961 0,-0.290219 -0.0234,-0.386617 0.13856,-0.386617 0.28182,0 2.26339,-1.907839 3.61138,-3.513694 0.35141,-0.418631 0.76751,-1.3451 0.88674,-1.982467 0.11923,-0.637371 0.36152,-1.16179 0.5781,-1.33779 0.21661,-0.176 0.72264,-1.381484 1.10548,-2.52548 0.38285,-1.143998 0.96415,-2.263333 1.33006,-2.546841 0.88704,-0.687277 1.20892,-5.007722 0.45701,-6.00595 -0.17114,-0.227208 -0.40904,-0.631254 -0.49227,-0.650582 z M 95.019508,94.84384 c 0.635419,0.02556 1.10219,0.03595 1.212768,0.324106 0.101305,0.263998 0.574502,0.683741 0.839967,0.683741 0.641441,0 1.333838,1.158051 1.333838,2.165835 0,0.443148 -0.137973,1.053299 -0.400335,1.355469 -0.262359,0.302166 -0.583868,0.971549 -0.697276,1.449239 -0.246698,1.03914 -1.333537,1.28431 -4.953091,1.50968 -1.319997,0.0822 -2.535996,0.0997 -2.799996,0.181 -0.938782,0.29037 -1.731539,0.0444 -2.55921,-1.04073 -0.719368,-0.94314 -0.840094,-1.23894 -0.757824,-2.816319 l 0.173881,-1.746026 2.083872,-0.226573 c 2.550234,-0.240199 5.120754,-0.938222 5.302802,-1.484364 0.422053,-0.441951 0.797821,-0.256903 1.220604,-0.355058 z" />
      <path
         id="eye1"
         style="display:inline;fill:#6a3013;stroke-width:0.32"
         d="m 107.45511,67.088654 c -0.97814,0 -4.23256,1.169285 -4.23556,1.499237 -0.001,0.14725 0.55065,0.542128 1.07865,0.741424 1.23849,0.467482 1.10247,1.218608 -0.10599,2.375202 -0.65713,0.667721 -0.78261,0.901308 -1.13951,0.471264 -0.5109,-0.615551 -0.97046,-0.351882 -0.98046,0.5625 -0.0102,0.962703 1.1114,4.392517 1.70952,4.617749 0.26765,0.100787 0.95767,0.614882 1.39767,0.873474 0.44,0.258592 1.6845,0.462925 2.0365,0.453125 0.50669,-0.01407 0.56001,-0.395815 0.16472,-0.568023 -0.27464,-0.119629 -0.50857,-0.710572 -0.76193,-0.936535 -0.25338,-0.226 -1.1337,-0.269743 -1.47029,-0.50229 -0.44182,-0.305189 -0.54011,-0.591623 -0.35156,-1.029297 0.14322,-0.333413 0.7874,-0.835288 0.754,-1.115234 -0.0952,-0.798814 0.0247,-2.15988 0.3801,-1.940216 0.17633,0.108979 0.9063,-0.02691 0.9063,-0.274066 0,-0.247107 -0.0766,-0.611507 0.26143,-0.917408 0.584,-0.528475 -0.0166,-0.459773 1.86792,0.09759 1.09102,0.322627 2.44426,0.932754 2.87229,1.328754 0.42803,0.39596 0.51128,5.207694 1.93908,1.758062 0.13906,-0.335988 -0.57868,-2.321063 -1.4655,-4.095684 -0.84423,-1.689369 -1.03307,-2.197448 -2.40638,-2.788232 -0.76961,-0.327297 -1.63658,-0.514663 -2.451,-0.611396 z m -31.324218,2.218121 c -3.398598,0 -3.800427,0.311165 -2.98232,1.460107 0.842728,1.183519 0.821187,1.277664 -0.285819,2.065912 -0.793506,0.565053 -0.895279,0.608273 -1.595871,0.289063 -1.097568,-0.500102 -1.580312,-0.293521 -1.491222,1.658899 0.0775,1.698329 0.741404,3.973443 1.32359,3.973443 0.181866,0 0.208472,-0.0055 0.112024,0.150525 -0.09645,0.156057 -0.0055,0.484305 0.256555,0.7018 0.262061,0.217491 0.498675,0.739899 0.498675,0.971198 0,0.234609 0.713111,0.244628 1.293362,0.316642 2.269024,0.281554 5.139929,0.165207 5.836365,-0.221332 0.683156,-0.379184 1.030446,-0.864929 2.283798,-3.267511 0.636853,-1.220837 0.342474,-3.615559 -0.693393,-5.180879 -0.438094,-0.662031 -0.818987,-1.307438 -0.818987,-1.474642 0,-0.912049 -1.287816,-1.443225 -3.736757,-1.443225 z m -0.783932,3.174649 c 0.01056,0.169068 0.245925,-0.112397 0.543732,0.08419 0.870248,0.57435 0.687164,1.788494 0.02315,3.11951 l -0.240501,1.725194 0.905487,-1.013403 c 0.437951,-0.411432 0.84068,-1.028767 0.732287,-1.223183 -0.113604,-0.203757 -0.130445,-0.213611 0.110138,0.0091 0.300808,0.278463 0.223265,0.325825 -0.02334,0.623876 -0.188143,0.22746 -0.244625,0.908478 -0.151715,1.392478 0.136745,0.712293 0.418289,1.03565 1.149662,1.03565 0.788685,0 0.795478,-0.05318 0.736428,0.715012 -0.05748,0.747867 -0.08979,0.790454 -0.899862,0.790454 -0.524253,0 -1.16454,0.169374 -1.397113,0.389334 -0.539875,0.510676 -0.810851,0.549186 -1.341201,0.01884 -0.234144,-0.234141 -0.661018,-0.418693 -0.852787,-0.354773 -0.19177,0.06392 -0.652729,-0.03685 -1.146585,-0.224609 l -0.809985,-0.253345 0.798232,-0.702664 c 0.469661,-0.490217 0.756518,-1.155427 0.636719,-1.275223 -0.473888,-0.473891 -1.223661,-0.258465 -1.624136,0.708423 -0.263251,0.6355 -0.319985,0.834417 -0.411615,0.549489 -0.08049,-0.250258 -0.221721,-0.503162 -0.394598,-0.61593 -0.198762,-0.129652 -0.09955,-0.453984 0.174422,-1.073028 0.253149,-0.571869 0.369011,-0.789505 0.4956,-0.58468 0.121866,0.197187 0.552867,0.294386 0.88599,0.16532 0.570956,-0.221229 0.613822,-0.445818 0.01493,-0.886518 -0.60996,-0.448846 -0.708448,-0.291183 -0.05654,-0.291183 1.041134,0 1.345083,1.695475 0.663568,3.137515 -0.381527,0.80722 -0.26271,1.011585 0.33193,1.011585 0.356519,0 0.836398,-0.21385 0.836398,-0.435514 0,-0.221664 0.218161,-0.541431 0.55214,-0.750033 0.514509,-0.321315 0.366986,-0.245922 0.511987,0.30856 0.242064,0.925617 1.240494,0.284802 1.240494,-0.841663 0,-0.923506 -0.633853,-1.246599 -1.018005,-0.625 -0.107049,0.173206 -0.685714,-0.981564 -1.205011,-1.512798 -1.094075,-1.119224 -0.862887,-1.969435 0.01648,-2.848799 0.225605,-0.225603 0.19161,-0.618146 0.202171,-0.449117 z m 33.41281,0.88967 c -0.0544,-0.03304 -0.17472,0.08548 -0.3125,0.322265 -0.2293,0.394076 -0.55329,0.512727 -1.03125,0.378907 -0.55028,-0.154105 -0.59617,-0.123029 -0.2168,0.142578 0.264,0.184835 0.55945,0.337244 0.65625,0.339844 0.30247,0.0084 0.94575,-0.74736 0.93555,-1.09961 -0.001,-0.0462 -0.0132,-0.07297 -0.0312,-0.08398 z m 4.43359,0.566406 c -0.009,-1.93e-4 -0.0203,0.0046 -0.0312,0.01563 -0.089,0.08822 -0.23514,0.529835 -0.36133,1.246094 -0.10664,0.605266 -0.12071,1.187352 -0.005,1.077294 0.3312,-0.121113 0.28645,-0.85784 0.37825,-1.446435 0.0954,-0.611848 0.0837,-0.891226 0.0195,-0.892578 z m -5.81641,0.948029 c -0.17272,0.02487 -0.54094,0.352603 -0.61635,0.741424 -0.0569,0.293415 0.2678,0.621655 0.50698,0.621655 0.2392,0 0.59034,-0.334664 0.59033,-0.688757 10e-6,-0.378003 -0.30823,-0.699189 -0.48096,-0.674322 z M 108.5,75.238281 c -0.0336,-0.0044 -0.0755,-0.06974 -0.10476,-0.06434 -0.19557,0.03597 -0.41842,0.364941 -0.22837,0.672437 0.11778,0.190581 0.58102,0.343719 0.76019,0.232983 0.21853,-0.135079 0.24618,-0.423716 0.0176,-0.653534 -0.11551,-0.115513 -0.28857,-0.262899 -0.38927,-0.275952 z m -30.623047,0.955078 c 0.04366,0.01548 0.10156,0.171992 0.220075,0.289624 0.218654,0.217068 0.306213,0.331954 0.207693,0.430484 -0.09852,0.09852 -0.16575,-0.0015 -0.285919,-0.317135 -0.08683,-0.228032 -0.100693,-0.252411 -0.07359,-0.279398 0.0067,-0.0067 -0.08282,-0.128722 -0.06826,-0.123622 z m 1.173166,0.397675 c 0.176,0 0.175366,-0.01339 0.172672,0.118612 -0.0027,0.132 0.009,0.311016 -0.161616,0.575016 -0.250801,0.388147 -0.233057,0.496738 -0.237057,-0.08544 -0.0027,-0.396 0.05004,-0.608185 0.226001,-0.608185 z m -3.092359,2.791879 c -0.11475,0.0051 -0.206368,0.231648 -0.206368,0.437399 0,0.274387 0.199594,0.610565 0.375594,0.610565 0.176,0 0.497218,-0.234676 0.497218,-0.400289 0,-0.165612 -0.15537,-0.446509 -0.33137,-0.555283 -0.044,-0.02719 -0.230485,-0.149391 -0.268735,-0.147691 z" />
      <path
         style="display:inline;fill:#864729;stroke-width:0.32"
         d="m 75.46,80.214285 c -0.234144,-0.234141 -0.582614,-0.373415 -0.774384,-0.309491 -0.19177,0.06392 -0.752733,-0.0374 -1.246589,-0.225165 l -0.89792,-0.341386 0.853927,-0.891309 c 0.46966,-0.490217 0.75591,-0.989324 0.636112,-1.10912 -0.473888,-0.473891 -1.013447,-0.169657 -1.413962,0.797271 -0.263251,0.635545 -0.475178,0.844928 -0.566806,0.56 -0.08049,-0.250298 -0.287786,-0.547347 -0.460663,-0.660115 -0.198761,-0.129652 -0.155011,-0.564928 0.119005,-1.183972 0.253149,-0.571907 0.523418,-0.833164 0.650006,-0.628339 0.121866,0.197184 0.475856,0.250183 0.80898,0.121117 0.570988,-0.221229 0.569948,-0.24593 -0.02886,-0.68663 C 72.528877,75.208243 72.529648,75.2 73.181517,75.2 c 1.041174,0 1.499507,1.83792 0.817952,3.28 -0.381527,0.807264 -0.362327,0.88 0.232313,0.88 0.356519,0 0.648218,-0.18136 0.648218,-0.403024 0,-0.221664 0.27329,-0.573696 0.607309,-0.782298 0.514509,-0.321315 0.633459,-0.27926 0.778461,0.275223 0.242064,0.925657 0.85423,0.417718 0.85423,-0.708787 0,-1.004976 -0.276323,-1.176791 -0.896,-0.557114 -0.226157,0.226157 -0.384,0.249085 -0.384,0.05578 0,-0.180518 0.355562,-0.662253 0.790138,-1.070515 0.434576,-0.408262 0.701449,-0.901363 0.593056,-1.095779 -0.113604,-0.203754 -0.02029,-0.189795 0.220297,0.03295 0.300807,0.278503 0.321843,0.501949 0.07532,0.8 -0.188138,0.22746 -0.266048,0.809562 -0.173133,1.293562 0.136745,0.712333 0.341081,0.88 1.072454,0.88 0.788727,0 0.894931,0.111808 0.835885,0.88 -0.05748,0.747907 -0.210717,0.88 -1.020829,0.88 -0.524253,0 -1.143472,0.18 -1.376045,0.4 -0.539875,0.510691 -0.866752,0.504675 -1.397142,-0.02573 z m 1.02,-0.195399 c 0,-0.165612 -0.144,-0.390112 -0.32,-0.498886 -0.176,-0.108774 -0.32,0.02672 -0.32,0.301114 0,0.274387 0.144,0.498886 0.32,0.498886 0.176,0 0.32,-0.135501 0.32,-0.301114 z M 107.40959,78.32 c 0.0815,-0.131987 -0.76296,0.194103 -0.36075,-0.24 0.19024,-0.205324 -0.59346,-0.220291 -0.69678,-0.489536 -0.11957,-0.311594 -0.43579,-0.428986 -0.86995,-0.322954 -0.37516,0.09162 -0.49448,0.08137 -0.26515,-0.02278 0.319,-0.144873 0.28798,-0.28368 -0.13199,-0.590771 -0.37688,-0.275584 -0.47153,-0.591446 -0.30196,-1.00768 0.13585,-0.333453 0.28149,-1.081318 0.32365,-1.661926 0.1166,-1.606026 1.05841,-2.054266 1.74142,-0.898036 0.67969,1.15063 0.70327,1.338967 1.31346,0.832557 0.54145,-0.449363 0.46697,-1.97278 -0.0552,-2.49487 -1.02244,-1.022442 2.87981,0.114285 4.25131,1.247171 0.58366,0.482103 0.85559,0.954819 0.74667,1.297978 -0.0942,0.296848 -0.23425,0.875229 -0.31118,1.285286 -0.0769,0.410061 0.0352,1.196858 -0.15622,1.559252 -0.38138,0.722006 -2.92075,2.092561 -3.45666,1.761349 -0.18416,-0.113818 -0.57325,-0.111272 -0.45922,0.07323 0.12485,0.202019 -0.23048,-0.01454 -0.69253,-0.04225 -0.42195,-0.02531 -0.7005,-0.154016 -0.619,-0.286016 z m 0.29327,-2.803808 c 0,-0.756006 -0.61549,-0.667395 -0.76632,0.110326 -0.0569,0.293415 0.0922,0.533482 0.33142,0.533482 0.2392,0 0.4349,-0.289715 0.4349,-0.643808 z m 1.13036,-0.09098 c -0.41072,-0.410717 -0.82722,-0.09328 -0.52315,0.398714 0.11778,0.190579 0.36075,0.255907 0.53992,0.145171 0.21856,-0.135079 0.21304,-0.314067 -0.0168,-0.543885 z M 78.724899,77.2 C 78.722205,76.804 78.864,76.48 79.04,76.48 c 0.400934,0 0.400934,0.339597 0,0.96 -0.250838,0.388147 -0.311136,0.342221 -0.315101,-0.24 z m -0.784326,-0.626198 c -0.173658,-0.456064 -0.136903,-0.49282 0.179136,-0.179136 0.218694,0.217068 0.317014,0.475276 0.218489,0.573801 -0.09852,0.09852 -0.277456,-0.07908 -0.397625,-0.394665 z"
         id="eye2" />
      <path
         id="skin"
         style="display:inline;fill:#6a3013;fill-opacity:1;stroke-width:0.32"
         d="m 95.839844,36.056641 c -0.424253,-0.0064 -0.929351,-0.0021 -1.523438,0.0098 -4.220708,0.08463 -6.649782,0.342429 -8.896978,1.371228 -0.996343,0.456141 -1.970815,0.785853 -2.301545,0.785853 -0.330731,0 -0.828472,0.294749 -0.834872,0.514749 -0.011,0.376726 -1.683212,1.495423 -3.465079,2.384317 -0.439998,0.219494 -1.259697,1.023557 -1.875695,1.59815 -0.616,0.574599 -1.644395,1.095661 -2.260395,1.293732 -1.357298,0.436428 -3.766539,2.734366 -4.035156,3.80462 -0.107124,0.426807 -0.312144,0.578327 -0.455078,0.578327 -0.566737,0 -0.674373,2.410541 -0.314453,6.608477 0.433972,5.061647 0.253636,6.632292 -1.013739,7.209748 -0.802491,0.365639 -2.148707,2.813971 -3.451105,6.405554 -0.516321,1.423844 -1.300958,2.540093 -2.667901,3.981097 -1.038916,1.095207 -1.868512,1.895731 -1.868512,2.050355 0,0.154624 -0.304675,0.50238 -0.462061,0.50238 -0.481406,0 -1.681016,1.752107 -2.099384,2.700476 -0.685038,1.552882 -0.654117,2.647929 0.707862,4.296112 0.814139,0.985224 1.170685,1.761754 1.170685,2.326935 0,0.942369 0.307249,1.578002 1.713519,3.761718 0.6154,0.955617 1.362429,1.602618 1.882543,1.602618 0.407113,0 0.944197,0.228104 1.357557,0.668104 0.413358,0.439998 1.038112,0.909393 1.25119,0.909393 0.213082,0 0.409726,0.141538 0.681842,0.556842 0.272119,0.415305 0.76812,1.116328 1.021417,1.369635 0.253302,0.253299 0.743117,0.790257 1.034461,1.35365 0.675029,1.30536 1.368601,1.355429 2.462621,-0.01569 0.589936,-0.73936 1.369371,-1.265683 2.13205,-1.408765 0.820661,-0.153955 1.292463,-0.43077 1.793664,-1.212329 0.383206,-0.597557 0.881145,-1.021717 1.321143,-1.132318 0.44,-0.110599 1.392376,-0.675891 2.008374,-1.148999 3.052416,-2.344364 3.887593,-2.509835 5.241828,-0.463452 0.451977,0.682984 1.231485,1.475246 1.596893,1.570806 0.598268,0.156451 1.062097,-0.143494 1.062097,-1.413232 0,-1.040037 -0.227383,-1.100574 0.12666,-1.100574 0.354611,0 0.279499,-0.0039 0.279499,1.045954 0,0.78161 0.219632,1.670357 0.406183,1.78565 0.186547,0.115293 1.442685,0.297052 2.737585,0.324152 1.984348,0.04152 2.627211,-0.01216 3.256354,-0.578821 0.410548,-0.369773 1.087094,-0.804666 1.395092,-0.913367 0.456,-0.160936 0.669159,-0.808302 0.669159,-2.510192 0,-1.566165 -0.04315,-1.758149 0.288568,-1.758149 0.567466,0 0.51695,0.683875 0.52245,2.874012 0.0034,1.356398 0.377479,1.814785 0.676141,1.516119 0.211198,-0.2112 0.713963,-0.366418 1.250763,-0.372418 0.536798,-0.006 1.573979,-0.487867 2.277967,-0.827923 0.704,-0.340058 1.66173,-0.271052 1.91323,-0.277052 0.72316,-0.01717 1.85426,0.641327 1.85426,0.948658 0,0.153211 0.7676,0.228719 1.03134,0.492456 0.26373,0.263735 0.32804,0.866198 0.44036,1.337891 0.11231,0.47169 0.64948,1.699232 1.16664,2.75523 0.51717,1.055998 0.99968,2.625567 1.09898,3.461567 0.13492,1.135938 0.75882,1.718548 1.15906,1.718548 0.72337,0 2.15906,-1.75459 2.42383,-2.82597 0.11805,-0.477693 0.34111,-0.834648 0.63161,-0.928498 0.29051,-0.09386 1.00343,-0.705242 1.31293,-1.250561 0.30949,-0.545322 0.72055,-0.907597 1.0496,-0.993647 0.32905,-0.08605 0.73537,-0.615172 0.92905,-1.040252 0.19368,-0.425085 0.47585,-0.751325 0.65562,-0.751325 0.17977,0 0.46081,-0.153162 0.46081,-0.315082 0,-0.161918 0.8174,-1.158502 1.87178,-2.21289 1.92687,-1.926873 2.27384,-2.806977 2.6045,-4.697199 0.0985,-0.562949 0.42967,-1.169383 0.65825,-1.521383 0.22859,-0.352 0.66032,-1.490893 0.75012,-2.43365 0.0898,-0.942756 -0.0336,-1.869225 0.14429,-1.982467 0.55575,-0.35371 1.25936,-2.874809 1.02564,-4.888581 -0.20314,-1.75034 -0.90724,-3.266543 -3.1857,-8.164187 -0.40939,-0.879998 -0.74827,-1.850738 -0.85124,-2.161379 -0.10298,-0.31064 -0.60003,-0.872158 -1.02141,-1.032373 -1.00417,-0.381785 -1.98451,-1.690814 -2.26242,-2.972028 -0.12228,-0.563733 -0.30261,-1.119181 -0.48053,-1.232422 -0.17792,-0.113242 -0.32773,-0.74207 -0.41413,-1.640826 -0.0864,-0.898757 -0.47292,-1.757903 -0.62652,-1.757903 -0.15361,0 -0.13873,-0.419057 -0.13873,-1.083894 0,-0.664841 -0.35483,-1.629572 -0.63486,-2.029365 -0.47508,-0.678346 -2.0195,-5.113725 -2.0195,-5.80075 0,-0.170118 -0.36078,-0.893219 -0.80078,-1.416129 -0.44,-0.522907 -0.98647,-1.077791 -0.98647,-1.423715 0,-0.345926 0.10155,-0.803052 -0.0799,-1.015625 -2.15259,-2.521801 -2.49916,-2.814936 -4.3323,-3.004131 -0.98667,-0.101834 -1.38643,-0.01121 -1.38643,-0.181416 0,-0.170217 -0.52767,-0.405524 -0.76976,-0.312624 -0.25495,0.09783 -0.33337,-0.009 -0.52556,-0.430821 -0.34859,-0.765086 -1.9211,-1.308676 -4.285517,-1.315576 -0.669908,-0.002 -0.946606,-0.04822 -1.031586,-0.269665 -0.08349,-0.217586 -0.876738,-0.235972 -2.149493,-0.255298 z m 27.267566,21.425612 c -1.16549,-0.02948 -2.34282,1.956075 -2.613,4.870634 -0.17738,1.9135 -0.0239,2.362952 0.9117,4.399089 1.42791,3.107575 1.82945,4.092199 2.10058,5.016164 0.12912,0.439998 0.34692,1.044895 0.53612,1.280789 0.28165,0.351162 0.9313,0.247615 1.29544,-0.234546 0.57313,-0.758894 0.23954,-4.080123 -0.50019,-5.208962 -0.4433,-0.676506 -0.58284,-1.466713 -0.45866,-5.128166 0.14547,-4.289245 0.0918,-4.460569 -0.63518,-4.791824 -0.16299,-0.09348 -0.48791,-0.166807 -0.63681,-0.203178 z m -20.41858,0.647709 c 2.17174,-0.04713 4.49515,0.164953 6.36397,0.65039 1.71156,0.444585 4.07171,1.46868 4.07171,1.81717 0,0.135843 0.73801,0.677761 1.53181,1.098217 0.79381,0.420457 1.40811,0.799398 1.49881,1.084186 0.0907,0.284788 0.44937,0.885921 0.79688,1.200409 0.34751,0.31449 0.52029,0.628349 0.52029,0.886225 0,0.653268 -3.26067,0.237799 -4.05698,-0.473151 -0.90256,-0.805816 -3.05937,-1.202186 -6.65611,-1.279296 -3.59841,-0.07715 -5.33357,0.209496 -7.35617,1.474048 -1.825329,1.141212 -1.760658,1.284427 -1.987922,-0.988551 -0.109984,-1.099998 -0.312422,-2.52703 -0.424457,-3.171875 -0.184276,-1.060631 -0.161244,-1.084378 0.668665,-1.505994 1.081585,-0.549471 2.857754,-0.744643 5.029504,-0.791778 z m -20.680389,0.824219 c 0.781388,0.04335 1.346218,0.106036 2.395856,0.81535 0.503352,0.340156 1.158895,4.601915 0.828327,5.136786 -0.167005,0.270221 -0.536298,0.164506 -1.388111,0.0015 -2.804535,-0.536827 -7.188349,-0.306364 -9.968817,0.521485 -1.608913,0.479032 -3.795618,1.812453 -3.795618,2.135192 0,0.151543 -0.707198,-0.10053 -0.97672,-0.10053 -0.269526,0 -0.417732,0.260696 -0.519037,0.524694 -0.101309,0.264 -0.470665,0.41413 -0.820313,0.41413 -0.366602,0 -0.485094,0.358055 -0.581604,0.727124 -0.27423,1.048654 -0.518175,1.047055 -0.282844,-0.0244 0.203111,-0.924757 0.509578,-1.323749 2.714215,-3.654993 0.517257,-0.546958 1.052433,-1.258219 1.052433,-1.563734 0,-0.305517 0.04782,-0.458798 0.378018,-0.545147 0.330192,-0.08635 0.905385,-0.499399 1.1151,-0.891253 0.236768,-0.442404 0.851781,-0.812021 1.732489,-1.047571 0.780088,-0.208643 1.307404,-0.734221 1.307404,-0.896912 0,-0.162689 0.553478,-0.175989 1.119702,-0.300354 0.566218,-0.124408 1.286389,-0.313451 1.556169,-0.455368 0.269776,-0.141914 1.347956,-0.424852 2.441878,-0.620218 0.749827,-0.133914 1.222641,-0.201791 1.691473,-0.175781 z m -22.498675,0.730872 c -0.139462,0 -0.935966,0.50921 -1.391614,1.050714 -0.739383,0.878711 -0.850238,1.346765 -0.850238,3.619702 0,1.622767 0.272112,2.826361 0.555878,3.277972 0.244931,0.389808 0.193953,1.242388 0.155823,1.814386 -0.03813,0.571998 -0.0058,1.289279 -0.03655,1.729279 C 57.910667,71.639958 58.042063,72 57.771484,72 c -0.810158,0 -1.550536,3.423837 -1.102685,5.608051 l 0.370263,0.923199 0.842224,-0.677173 c 0.422422,-0.339639 0.746028,-1.237466 0.845008,-1.732355 0.136661,-0.68331 0.09695,-0.701373 0.674097,-0.701373 0.735038,0 0.914556,-0.30319 0.914556,-2.717224 0,-1.372798 0.20912,-2.521063 0.35603,-2.688263 0.146909,-0.1672 0.414968,-1.095117 0.731232,-1.953687 0.814075,-2.209971 0.650767,-5.664744 -0.517084,-7.195873 -0.458244,-0.600794 -1.235895,-1.180249 -1.375359,-1.180249 z m 47.393904,6.377739 c 0.5855,-0.01832 1.33389,-0.02905 2.68561,0.132252 1.71774,0.20498 3.28366,0.14929 3.37166,0.20144 0.088,0.05215 0.82967,0.432872 1.70381,0.549884 0.87415,0.117011 1.83888,0.343132 2.06244,0.528668 0.22356,0.185538 0.76084,0.185713 1.18299,0.07976 0.48921,-0.122784 0.7698,0.135789 1.02417,0.442281 0.32956,0.397101 0.36293,0.307369 -0.33279,0.952137 -0.71489,0.662536 -0.84179,1.048243 -0.84179,2.554687 0,0.976401 -0.36545,1.554261 -0.54145,1.554261 -0.176,0 -0.0992,0.435707 -0.0992,0.697692 0,0.462624 -0.97227,1.12738 -2.12195,2.34256 -0.308,0.325552 -0.59893,0.812927 -0.51093,0.812927 0.62118,0 -1.16181,1.23448 -3.08766,2.136359 -1.98759,0.930795 -2.46846,1.046721 -4.33614,1.022181 -3.96529,-0.05209 -4.00768,-0.120089 -6.85735,-4.948792 -1.918748,-3.251278 -1.165034,-3.725958 0.67217,-5.638111 0.67984,-0.707579 1.05452,-1.160196 1.05452,-1.031732 0,0.128467 0.4959,-0.18806 1.02543,-0.742166 0.52953,-0.5541 1.0091,-0.883182 1.24453,-0.883182 0.23543,0 0.83607,-0.270156 1.38938,-0.546179 0.43539,-0.217212 0.72706,-0.198616 1.31256,-0.216932 z m -28.693923,2.428431 c 1.708561,0.113897 2.44638,-0.185026 2.926972,0.129871 0.430731,0.282211 0.778818,0.567531 0.785818,0.431473 0.007,-0.136058 0.238719,-0.01703 0.501291,0.466964 0.262576,0.484 0.649212,1.168329 0.805945,1.168329 0.156729,0 0.415153,0.238582 0.627649,0.882452 0.511272,1.549166 0.194471,4.779683 -0.664063,6.775391 -0.73243,1.702582 -1.777774,2.383017 -3.884855,3.214743 -1.403451,0.553985 -2.426199,0.554753 -5.400346,0.195278 -1.122555,-0.135678 -1.501319,-0.208019 -1.7029,-0.568224 -0.16879,-0.30161 -0.785011,-0.718874 -1.006073,-0.718874 -0.221063,0 -0.780489,-0.376419 -1.376874,-0.816417 -0.596387,-0.44 -1.407617,-0.834277 -1.888852,-0.834277 -1.596518,10e-7 -2.013537,-0.434011 -2.013537,-4.120666 l 0.243243,-3.1831 0.761157,0.06634 c 0.486622,0.04241 1.951176,-0.667966 3.22901,-1.541644 l 2.001526,-1.342628 4.065183,-0.315541 c 0.847652,-0.02164 0.756796,0.02834 1.326315,0.06631 z M 95.18943,94.906149 c -0.399036,0.01582 -1.117624,0.171226 -1.191047,0.391489 -0.173149,0.519453 -2.636219,1.138572 -5.164331,1.340607 -1.424353,0.113827 -2.329536,0.542817 -2.445178,0.844177 -0.245472,0.639688 0.344743,3.474718 0.687287,3.474718 0.156436,0 0.29697,0.29148 0.447187,0.68748 0.268366,0.70747 0.467471,0.74854 4.357511,0.56838 2.177423,-0.10085 4.280857,-0.32934 4.597702,-0.47072 0.316843,-0.14138 0.736791,-0.76578 0.837946,-1.27156 0.101155,-0.505761 0.240599,-0.841735 0.404241,-0.841735 0.16364,0 0.477793,-0.748197 0.424143,-1.582806 -0.08319,-1.294264 -0.380794,-1.844642 -1.131354,-2.202856 -0.483998,-0.230995 -0.748181,-0.423582 -0.748181,-0.589978 0,-0.217354 -0.676889,-0.363011 -1.075926,-0.347196 z" />
      <path
         style="display:inline;fill:#3a3b2d;stroke-width:0.32"
         d="M 89.478477,116.62488 C 89.380362,116.3692 89.079568,116.16 88.810042,116.16 88.540518,116.16 88.32,115.97915 88.32,115.75812 c 0,-0.43593 -1.072704,-0.96893 -2.950816,-1.46618 -1.30135,-0.34454 -3.048934,-1.45647 -3.707328,-2.35885 -0.229981,-0.3152 -0.625981,-0.57309 -0.88,-0.57309 -0.254022,0 -0.461856,-0.11712 -0.461856,-0.26027 0,-0.14315 -0.504,-0.45803 -1.12,-0.69973 -0.616,-0.2417 -1.12,-0.53454 -1.12,-0.65076 0,-0.29677 -1.149053,-1.58924 -1.412883,-1.58924 -0.348688,0 -1.765904,-1.72107 -1.777005,-2.15799 -0.009,-0.35241 -0.783606,-0.99262 -3.196832,-2.64201 -0.386259,-0.264 -0.894115,-0.93412 -1.128573,-1.48916 -0.234454,-0.55504 -0.742822,-1.10963 -1.129702,-1.23242 -0.988877,-0.31386 -1.824042,-1.06619 -2.902295,-2.61443 -0.511744,-0.734806 -1.110956,-1.531945 -1.331577,-1.77142 -0.220624,-0.239476 -0.620669,-0.858733 -0.888992,-1.376132 -0.268323,-0.517395 -0.916323,-1.160256 -1.44,-1.428579 -1.141863,-0.585069 -2.429571,-1.904413 -3.045715,-3.120541 -0.247258,-0.488025 -0.705354,-1.230739 -1.017991,-1.650473 -0.65151,-0.874688 -0.805744,-4.755504 -0.231632,-5.828243 0.282928,-0.528656 0.142167,-0.818311 -0.88,-1.810804 L 56.48,79.856317 v -3.579386 c 0,-3.209491 0.07441,-3.680227 0.72,-4.5552 0.840358,-1.138937 0.907277,-2.31047 0.24,-4.201731 -0.264,-0.748256 -0.48,-2.253258 -0.48,-3.344451 0,-1.707767 -0.112499,-2.089677 -0.808038,-2.743101 C 54.231315,59.628096 52.809437,56.092493 52.809027,53.12 52.808707,50.492125 53.023213,49.699955 53.789584,49.499542 54.326243,49.359203 54.4,49.029258 54.4,46.768845 54.4,45.354755 54.544,44.108774 54.72,44 c 0.176,-0.108774 0.32,-0.634755 0.32,-1.168845 0,-0.701952 0.17737,-1.017456 0.64,-1.138435 0.538794,-0.140899 0.64,-0.436486 0.64,-1.86921 0,-3.014585 1.160461,-4.462953 1.973818,-2.46351 l 0.357974,0.88 0.320397,-1.04 c 0.340307,-1.104643 1.325136,-1.414675 2.083811,-0.656 0.298666,0.298666 0.386262,0.138666 0.394176,-0.72 0.0056,-0.6072 0.201472,-1.356 0.43528,-1.664 C 62.34672,33.552362 63.68,33.38808 63.68,33.938886 c 0,0.761716 0.629994,-0.120124 0.823779,-1.153094 0.219959,-1.172483 1.097565,-1.667449 2.367613,-1.335324 0.481395,0.125888 0.699277,-0.07439 0.968544,-0.890276 0.342694,-1.038376 0.99625,-1.426384 2.41848,-1.435822 0.458742,-0.003 0.829683,-0.39255 1.223152,-1.28437 0.43535,-0.986744 0.742717,-1.28 1.341584,-1.28 0.427267,0 0.776848,0.144 0.776848,0.32 0,0.717508 0.537296,0.248474 0.916429,-0.8 0.397689,-1.09979 0.698393,-1.254403 2.202822,-1.132618 0.500551,0.04052 0.810778,-0.182512 1.020263,-0.733495 0.429123,-1.128684 0.925004,-1.323289 1.665142,-0.653473 0.626355,0.566842 0.660138,0.562153 1.210944,-0.168065 0.535683,-0.710173 0.609021,-0.72339 1.343507,-0.242135 0.720899,0.472352 0.845507,0.463813 1.728893,-0.118478 1.166784,-0.769097 1.862176,-0.795845 2.559568,-0.09845 0.449142,0.449142 0.696157,0.474386 1.565578,0.16 C 88.992038,22.666988 89.92,22.608284 89.92,22.96 c 0,0.407895 1.735014,0.279343 2.19296,-0.162483 0.264646,-0.255332 1.135443,-0.401515 2.24,-0.376034 0.993872,0.02293 2.276358,-0.06106 2.849971,-0.186648 1.212823,-0.26553 1.991895,0.217439 2.007245,1.244347 0.01,0.666526 0.02,0.667819 0.478618,0.06155 0.682636,-0.902436 1.640896,-0.839765 2.405016,0.157292 0.36676,0.478558 1.11624,0.959988 1.66551,1.069843 0.54928,0.109855 1.27345,0.4484 1.60928,0.752322 0.41078,0.371741 1.15073,0.553768 2.261,0.556199 1.45499,0.0032 1.85879,0.166286 3.4104,1.377497 0.968,0.755635 2.84,2.194047 4.16,3.19647 3.13297,2.379218 3.84,3.000204 3.84,3.372709 0,0.169207 0.432,0.720493 0.96,1.225076 0.528,0.504585 0.96,1.132176 0.96,1.394646 0,0.56593 -0.0995,0.552848 1.25338,0.164851 0.96083,-0.275561 1.18411,-0.217417 1.89499,0.493466 0.69832,0.69832 0.83335,1.187235 1.01204,3.664518 0.14202,1.968999 0.36942,3.03905 0.73067,3.438224 0.97545,1.077866 1.84432,3.531287 1.86283,5.260106 0.0317,2.957469 -0.4028,6.298262 -0.86947,6.685568 C 126.6,56.552384 126.4,56.943453 126.4,57.218557 c 0,0.275107 -0.324,0.845075 -0.72,1.266598 -0.66872,0.711824 -0.72,1.056144 -0.72,4.834698 0,3.335645 0.10085,4.222208 0.56,4.922963 0.61241,0.934646 0.78054,3.90311 0.24,4.237184 -0.176,0.108774 -0.32,0.542496 -0.32,0.963827 0,0.421335 -0.15525,1.106803 -0.34501,1.523271 -0.22582,0.495619 -0.24895,1.302297 -0.067,2.335056 0.37474,2.126544 -0.0587,4.831689 -0.91703,5.723507 -0.37586,0.390515 -0.95808,1.604893 -1.29384,2.698617 -0.33576,1.093722 -0.81897,2.068599 -1.07381,2.166391 -0.25484,0.09779 -0.46335,0.566029 -0.46335,1.040528 0,1.242765 -3.53979,5.788803 -4.50747,5.788803 -0.16089,0 -0.29253,0.272771 -0.29253,0.606157 0,0.333389 -0.432,1.068617 -0.96,1.633843 -0.528,0.565226 -0.96,1.146752 -0.96,1.292278 0,0.145527 -0.288,0.356 -0.64,0.467722 -0.352,0.111722 -0.64,0.466019 -0.64,0.787328 0,0.321309 -0.20237,0.661862 -0.44972,0.756772 -0.24735,0.0949 -0.92297,0.86633 -1.50137,1.71424 -0.57841,0.84791 -1.16804,1.58966 -1.31028,1.64833 -0.14225,0.0587 -0.26321,0.34666 -0.26881,0.64 -0.0151,0.79071 -0.62835,1.44315 -2.15994,2.29791 -0.84354,0.47077 -1.44603,1.06711 -1.56764,1.55164 -0.10864,0.43285 -0.68009,1.21069 -1.26988,1.72854 -0.5898,0.51784 -1.07681,1.10662 -1.08225,1.30839 -0.0157,0.58412 -2.58086,2.3558 -4.084817,2.82133 -1.290781,0.39954 -3.013946,1.65141 -3.298311,2.39621 -0.06984,0.18293 -1.590185,0.41955 -3.378547,0.52583 -2.674637,0.15896 -3.283219,0.11076 -3.429958,-0.27164 z M 93.96,116.48 c 1.522096,0 2.04,-0.11222 2.04,-0.44202 0,-0.63322 1.78455,-1.88163 3.89879,-2.72746 1.41388,-0.56565 2.25095,-1.2139 3.76,-2.91184 1.06766,-1.20132 1.94121,-2.39591 1.94121,-2.65464 0,-0.44341 0.96059,-1.23989 2.39893,-1.98907 0.73798,-0.38439 3.04023,-4.5848 2.8231,-5.15066 -0.1914,-0.49876 0.43121,-0.875942 0.70763,-0.42868 0.26424,0.42756 1.43034,-0.546891 1.43034,-1.195268 0,-0.242247 0.216,-0.523335 0.48,-0.62464 0.264,-0.101309 0.48,-0.305856 0.48,-0.454554 0,-0.148698 0.504,-0.75984 1.12,-1.35809 0.616,-0.598252 1.12,-1.325184 1.12,-1.615404 0,-0.290221 0.1325,-0.527674 0.29444,-0.527674 0.28182,0 2.18508,-1.875283 3.53307,-3.481142 0.35141,-0.418631 0.73647,-1.282631 0.8557,-1.92 0.11923,-0.637373 0.394,-1.302858 0.6106,-1.478858 0.21661,-0.176 0.70707,-1.256 1.08991,-2.4 0.38285,-1.144 0.99547,-2.311962 1.36138,-2.595472 0.88704,-0.687277 1.22334,-4.882256 0.47143,-5.880486 -0.45638,-0.605888 -0.48904,-0.575626 -0.69081,0.64 -0.11648,0.701776 -0.33725,1.563958 -0.49061,1.915958 -0.15336,0.352 -0.36941,1.23872 -0.48011,1.970486 -0.11071,0.731767 -0.40229,1.595767 -0.64796,1.92 -0.24568,0.324234 -0.45126,1.071284 -0.45686,1.660116 -0.0109,1.1476 -0.61561,2.161516 -2.79347,4.6839 -0.75719,0.87698 -1.37671,1.77698 -1.37671,2 0,0.223024 -0.2916,0.405498 -0.648,0.405498 -0.46773,0 -0.70284,0.27417 -0.8451,0.985526 -0.15682,0.784052 -0.326,0.951821 -0.8276,0.820653 -0.47448,-0.124083 -0.71602,0.06175 -0.9762,0.751043 -0.19015,0.503757 -0.65533,1.056986 -1.03374,1.229402 -0.37841,0.172413 -0.94959,0.864704 -1.26929,1.538422 -0.3197,0.673722 -1.05076,1.722576 -1.62458,2.330791 -1.31188,1.390533 -1.89968,1.040393 -2.22506,-1.325431 -0.12386,-0.900569 -0.61689,-2.513324 -1.09562,-3.583904 C 106.41607,93.515926 105.92807,92.28 105.81036,91.84 c -0.11771,-0.44 -0.57801,-1.209632 -1.0229,-1.710294 -0.63698,-0.716842 -0.90312,-0.83208 -1.25234,-0.542256 -0.34461,0.286003 -0.51385,0.242252 -0.75926,-0.196269 -0.29541,-0.527869 -0.38489,-0.530826 -1.38583,-0.04581 -0.97473,0.472316 -3.872324,1.10608 -6.122481,1.33911 -0.490848,0.05083 -1.059648,0.259619 -1.264,0.463971 C 93.799197,91.352803 93.4568,91.52 93.242666,91.52 c -0.214132,0 -0.442829,0.160493 -0.508215,0.356646 -0.235197,0.705594 -4.30512,0.345501 -5.334457,-0.471974 C 87.15799,91.21248 86.546506,91.098605 86.041136,91.151613 85.023869,91.258317 84.488109,90.842054 83.576973,89.237059 82.76951,87.814691 81.749341,87.889658 79.56976,89.531526 78.662394,90.215043 77.56,90.867171 77.12,90.980694 c -0.44,0.113527 -1.116157,0.699332 -1.502573,1.301789 -0.531539,0.828717 -1,1.145623 -1.924326,1.301789 -0.910503,0.153827 -1.414583,0.48783 -1.978675,1.311069 C 71.298118,95.502902 70.771843,96 70.544925,96 69.830195,96 69.120227,95.625731 69.114176,95.245763 69.10816,94.868749 67.729347,93.027066 66.88,92.261597 65.15287,90.70503 63.986781,89.92 63.40177,89.92 62.95985,89.92 62.426678,89.452051 61.852214,88.56 60.452685,86.386746 60.16,85.741165 60.16,84.827421 60.16,83.903811 59.647955,83.2 58.976,83.2 c -0.304355,0 -0.416,0.644102 -0.416,2.4 0,1.32 0.128141,2.4 0.284758,2.4 0.156618,0 0.573351,0.612 0.926071,1.36 0.818963,1.736749 1.818659,2.803366 3.527795,3.763955 0.854403,0.480202 1.437555,1.067831 1.565469,1.577488 0.112121,0.44672 0.396077,1.004442 0.631014,1.239376 0.234935,0.234938 0.865565,1.064365 1.401399,1.843171 0.53583,0.778804 1.187843,1.41601 1.448912,1.41601 0.261065,0 0.555452,0.210518 0.654188,0.467818 0.09873,0.257302 0.46736,0.559182 0.819168,0.670832 0.351808,0.11166 0.831479,0.65715 1.065933,1.21219 0.234458,0.55504 0.742314,1.22516 1.128573,1.48916 2.43088,1.66145 3.238272,2.3284 3.405213,2.81286 0.309328,0.89767 3.841021,4.17656 5.036665,4.67614 0.610452,0.25506 1.296407,0.76238 1.524349,1.12737 0.227946,0.365 0.573485,0.66363 0.767872,0.66363 0.194387,0 0.614615,0.28861 0.933843,0.64135 0.319226,0.35274 1.169546,0.79148 1.889594,0.97497 2.121011,0.5405 3.069184,0.99231 3.069184,1.4625 0,0.24265 0.220518,0.44118 0.490042,0.44118 0.269526,0 0.578249,0.22986 0.686054,0.51079 0.144189,0.37575 0.448198,0.46035 1.149955,0.32 C 91.490723,116.56586 92.838,116.48 93.96,116.48 Z m -5.536662,-13.66413 c -0.383165,-0.0739 -1.074356,-0.62945 -1.535981,-1.23467 -0.71937,-0.94314 -0.825603,-1.36342 -0.743338,-2.9408 L 86.24,96.8 88.48,96.589021 c 2.55024,-0.240199 5.028099,-0.953319 5.210147,-1.499463 0.18664,-0.559916 2.524419,-0.465878 2.745575,0.110442 0.101305,0.264 0.401392,0.48 0.666857,0.48 0.641443,0 1.537421,1.407696 1.537421,2.415482 0,0.443148 -0.214659,1.052953 -0.477021,1.355123 -0.262361,0.302166 -0.569811,0.940235 -0.683219,1.417925 -0.246698,1.03914 -1.380198,1.40986 -4.99976,1.63523 -1.32,0.0822 -2.616,0.21625 -2.88,0.29791 -0.264,0.0816 -0.793498,0.088 -1.176662,0.0142 z m 7.992742,-1.19963 c 0.316845,-0.14138 0.658845,-0.67087 0.76,-1.17665 0.101155,-0.505772 0.317811,-0.91959 0.481453,-0.91959 0.163645,0 0.253645,-0.682861 0.2,-1.517472 C 97.774346,96.708262 97.63056,96.423283 96.88,96.065069 96.396,95.834074 96,95.508934 96,95.342538 c 0,-0.434708 -1.522726,-0.374356 -1.669571,0.06617 -0.173149,0.519453 -2.901479,1.24817 -5.429597,1.450205 -1.424355,0.113827 -2.197206,0.322189 -2.312848,0.623549 -0.245472,0.63969 0.160886,3.317538 0.50343,3.317538 0.156436,0 0.407332,0.324 0.557549,0.72 0.268368,0.70747 0.342032,0.71681 4.23208,0.53665 2.177427,-0.10085 4.218192,-0.29903 4.535037,-0.44041 z m -7.277494,-3.02617 c -0.452365,-0.731939 7.509206,-0.790278 8.239113,-0.06037 0.253735,0.253735 -0.808905,0.350301 -3.854813,0.350301 -2.312812,0 -4.28575,-0.130467 -4.3843,-0.289931 z M 110.47731,98.32 c 0.46037,-0.484 0.93363,-1.270838 1.05168,-1.748534 0.11805,-0.477693 0.45232,-0.945322 0.74282,-1.039175 0.29051,-0.09386 0.78141,-0.616816 1.09091,-1.162137 0.30949,-0.545322 0.83194,-1.061895 1.16099,-1.147946 0.32905,-0.08605 0.75674,-0.504246 0.95042,-0.929328 0.19368,-0.425085 0.49924,-0.77288 0.67901,-0.77288 0.17977,0 0.32686,-0.13248 0.32686,-0.2944 0,-0.16192 0.86268,-1.157085 1.91708,-2.211475 1.92687,-1.926877 2.40798,-2.740352 2.73864,-4.630576 0.0985,-0.562951 0.36607,-1.311549 0.59465,-1.663549 0.22859,-0.352 0.4891,-1.41135 0.57892,-2.354109 0.0898,-0.942758 0.3089,-1.806758 0.48682,-1.92 0.55577,-0.353712 0.91585,-3.000803 0.68213,-5.014579 -0.20314,-1.750342 -0.70458,-3.093658 -2.98304,-7.991312 -0.40939,-0.88 -0.8286,-1.85416 -0.93157,-2.164803 -0.10298,-0.31064 -0.53201,-0.695888 -0.95341,-0.856103 -1.00417,-0.381785 -2.03039,-1.712905 -2.3083,-2.994121 -0.12228,-0.563735 -0.3679,-1.117623 -0.54582,-1.230864 -0.17792,-0.113242 -0.39415,-0.941242 -0.48051,-1.84 -0.0864,-0.898759 -0.2827,-1.634109 -0.4363,-1.634109 -0.15361,0 -0.27929,-0.543958 -0.27929,-1.208797 0,-0.664841 -0.22911,-1.535907 -0.50914,-1.935702 C 113.57578,50.897226 112,46.368723 112,45.681696 c 0,-0.170118 -0.36,-0.737142 -0.8,-1.260054 -0.44,-0.522909 -0.8,-1.233776 -0.8,-1.5797 0,-0.345926 -0.14846,-0.802876 -0.32991,-1.015449 -2.15259,-2.521805 -2.12301,-2.501683 -3.95615,-2.69088 -0.98667,-0.101834 -1.79394,-0.32441 -1.79394,-0.494618 0,-0.170208 -0.19808,-0.233459 -0.44017,-0.140557 -0.25495,0.09783 -0.57981,-0.137552 -0.772,-0.55935 C 102.75924,37.176 101.47438,36.810403 99.109958,36.803523 98.440048,36.801603 97.831402,36.62145 97.746426,36.4 97.635107,36.109888 96.692819,36.018048 94.31647,36.065696 90.095754,36.150326 87.821395,36.54185 85.574195,37.570653 84.57785,38.026794 83.492061,38.4 83.161331,38.4 c -0.330733,0 -0.606589,0.18 -0.613014,0.4 -0.01101,0.376726 -1.726448,1.58769 -3.508317,2.476586 -0.44,0.219494 -1.304,0.869209 -1.92,1.443804 -0.616,0.574599 -1.624,1.206781 -2.24,1.404852 -1.357302,0.436428 -3.765997,2.668489 -4.034614,3.738745 C 70.738262,48.290794 70.53367,48.64 70.390736,48.64 c -0.566739,0 -0.673558,2.168211 -0.313638,6.366157 0.433974,5.061657 0.185628,6.742057 -1.081751,7.319513 -0.802493,0.365639 -2.081565,2.770317 -3.383965,6.361908 -0.516323,1.423846 -1.235491,2.517859 -2.602438,3.958867 C 61.970026,73.741654 61.12,74.764243 61.12,74.918867 61.12,75.073491 60.991229,75.2 60.833843,75.2 c -0.481408,0 -2.10063,1.706685 -2.518998,2.655056 -0.68504,1.552886 -0.476826,2.537466 0.885155,4.185651 0.814141,0.985226 1.28,1.872378 1.28,2.437559 0,0.942371 0.285942,1.578012 1.692214,3.761734 0.615402,0.955619 1.095904,1.36 1.61602,1.36 0.407113,0 1.078406,0.36 1.491766,0.8 0.41336,0.44 0.925898,0.8 1.138976,0.8 0.213082,0 0.610061,0.339795 0.882179,0.755101 0.272119,0.415305 0.702007,0.962345 0.955306,1.215648 0.253302,0.253299 0.698918,0.921504 0.990262,1.484899 0.675031,1.305366 1.101693,1.28951 2.195715,-0.08162 0.589936,-0.73936 1.260583,-1.176886 2.023264,-1.319968 0.820663,-0.153955 1.336359,-0.518925 1.837562,-1.300486 C 75.68647,91.356019 76.36,90.776614 76.8,90.666013 c 0.44,-0.110599 1.304,-0.588183 1.92,-1.061293 3.052422,-2.344368 4.175232,-2.420291 5.529469,-0.373904 0.451977,0.682986 1.120745,1.319974 1.486153,1.41553 C 86.333894,90.802797 86.4,90.679782 86.4,89.410042 86.4,88.370003 86.525955,88 86.88,88 c 0.354611,0 0.48,0.371235 0.48,1.421114 0,0.781612 0.15263,1.515446 0.339181,1.630739 0.186547,0.115293 1.398643,0.231792 2.693545,0.258886 1.984352,0.04152 2.471677,-0.0564 3.10082,-0.623056 C 93.904096,90.31791 94.492,89.926429 94.8,89.817728 c 0.456,-0.160938 0.56,-0.585792 0.56,-2.287686 0,-1.566167 0.11096,-2.090042 0.442678,-2.090042 0.567466,0 0.827466,0.993859 0.832954,3.184 0.0034,1.356445 0.0897,1.658666 0.388368,1.36 0.2112,-0.2112 0.8232,-0.388886 1.36,-0.394858 0.5368,-0.006 1.552,-0.289084 2.256,-0.629142 1.61217,-0.778733 1.80151,-0.80489 2.51547,-0.345356 0.88394,0.06888 1.31374,0.478271 1.80453,0.725535 0,0.168045 0.21578,0.521319 0.47952,0.785056 0.26373,0.263735 0.57141,0.86545 0.68373,1.337143 0.11231,0.471692 0.62735,1.721622 1.14451,2.777622 0.51717,1.056 1.02155,2.604 1.12085,3.44 0.21433,1.804534 0.80798,1.986435 2.0887,0.64 z M 73.970989,81.943328 C 72.848432,81.807648 72.156669,81.548586 71.955088,81.188381 71.786298,80.886771 71.467331,80.64 71.246269,80.64 71.025206,80.64 70.356387,80.28 69.76,79.84 69.163613,79.4 68.281923,79.04 67.800688,79.04 66.708749,79.04 65.92,78.281984 65.92,77.232592 v -0.801696 l 0.828445,0.98455 C 67.204093,77.95695 67.861558,78.4 68.209485,78.4 c 0.347923,0 0.923456,0.155667 1.27896,0.345926 0.967728,0.517914 1.03159,0.183866 0.255635,-1.337129 -0.634112,-1.242963 -0.673408,-1.606403 -0.414266,-3.831434 l 0.286301,-2.458208 -1.248291,0.440423 C 66.896317,72.078755 65.92,72.126787 65.92,71.68 c 0,-0.176 0.382419,-0.32 0.849821,-0.32 0.488467,0 1.795117,-0.64632 3.072953,-1.52 l 2.223136,-1.52 4.101514,-0.104922 c 2.922867,-0.07477 4.315754,0.01373 4.847043,0.307984 C 81.424512,68.75016 81.868,68.905376 82,68.867984 c 0.132,-0.03739 0.24,0.0686 0.24,0.23553 0,0.166931 0.36,0.691958 0.8,1.166726 0.44,0.474768 0.798752,1.022189 0.797226,1.216486 -0.0016,0.194301 -0.505405,-0.176982 -1.119728,-0.825075 -1.069456,-1.128243 -2.261616,-1.784198 -2.609824,-1.43599 -0.09025,0.09025 0.244598,0.859312 0.744115,1.709024 0.918768,1.562886 1.668224,3.834841 1.694089,5.135581 0.01645,0.82678 -1.133753,3.012835 -1.781347,3.385635 C 80.520038,79.596646 80.32,80.004746 80.32,80.36279 c 0,0.594154 0.111786,0.562452 1.280397,-0.363104 0.704217,-0.55775 1.201216,-0.807753 1.104441,-0.555564 -0.247462,0.64488 -1.664195,1.622112 -3.271315,2.256489 -1.403453,0.553987 -2.488381,0.602192 -5.462534,0.242717 z m 5.003289,-1.413568 c 0.683156,-0.379184 0.975152,-0.79864 2.228544,-3.201302 0.636893,-1.220877 0.309696,-3.505613 -0.726211,-5.070973 C 80.038477,71.595414 79.68,70.916922 79.68,70.749718 79.68,69.837629 78.612336,69.44 76.163315,69.44 c -3.398758,0 -3.69943,0.133872 -2.881283,1.282854 0.842768,1.183559 0.809552,1.431386 -0.297494,2.219674 -0.80256,0.571472 -1.055866,0.611251 -1.782919,0.279984 -1.141529,-0.520115 -1.366992,-0.09175 -1.122211,2.132125 0.137894,1.252771 0.488774,2.178752 1.217171,3.212134 0.56288,0.798567 1.023421,1.582605 1.023421,1.742311 0,0.632934 5.57825,0.817926 6.654278,0.220678 z m -4.059993,-4.335475 c -0.830227,-0.830227 -0.919792,-2.943063 -0.157091,-3.705763 0.454851,-0.454852 0.599497,-0.461764 1.2,-0.05733 0.539241,0.363171 0.678457,0.77183 0.662118,1.943596 -0.01258,0.90112 -0.218995,1.682036 -0.525715,1.988756 -0.460035,0.460035 -0.565098,0.444953 -1.179312,-0.169261 z M 72.64,71.858886 c 0,-0.429612 -0.146349,-0.871564 -0.325219,-0.982112 -0.178871,-0.110547 -0.233495,-0.349414 -0.121383,-0.530812 0.300717,-0.486573 -0.953734,0.227881 -1.449971,0.825808 -0.222163,0.267692 -0.329686,0.671555 -0.238944,0.897472 0.09546,0.237651 0.184186,0.14104 0.210538,-0.229242 0.04223,-0.593466 0.06659,-0.587648 0.33495,0.08 C 71.458886,72.937322 72.64,72.891923 72.64,71.85889 Z m 31.12,8.103104 c -0.572,-0.165158 -1.04,-0.423203 -1.04,-0.57343 0,-0.15023 0.54,-0.08043 1.2,0.155104 1.31486,0.469235 2.99565,0.528096 4.24,0.148486 1.00593,-0.30688 0.45921,-0.541827 -1.76,-0.756336 -1.41774,-0.13704 -1.75675,-0.327721 -2.97605,-1.67392 -1.63404,-1.804112 -2.1505,-2.93368 -2.41305,-5.277753 -0.10745,-0.959277 -0.20404,-1.816141 -0.21464,-1.904141 -0.0106,-0.088 -0.37338,0.272 -0.80618,0.8 -0.565622,0.690045 -0.787347,0.809869 -0.78849,0.426112 C 99.200717,71.012474 99.776,70.172723 100.48,69.44 c 0.704,-0.732723 1.28,-1.227117 1.28,-1.098653 0,0.128467 0.43325,-0.219782 0.96278,-0.773888 0.52953,-0.554102 1.15541,-1.007459 1.39084,-1.007459 0.23543,0 0.88075,-0.225837 1.43406,-0.501862 0.87082,-0.434423 1.42568,-0.45178 4.12916,-0.129165 1.71774,0.204982 3.19516,0.41536 3.28316,0.467507 0.088,0.05215 0.87522,0.19055 1.74938,0.307562 0.87415,0.117011 1.77228,0.36455 1.99584,0.550086 0.22356,0.185536 0.75186,0.25065 1.17401,0.144698 0.90765,-0.227805 1.79591,0.574038 1.24556,1.12438 -0.23477,0.234778 -0.52667,0.234084 -0.96836,-0.0022 -0.34775,-0.186112 -0.6989,-0.27176 -0.78033,-0.190332 -0.0814,0.08143 -1.14437,-0.183658 -2.36208,-0.589082 -1.32135,-0.439933 -2.58306,-0.66544 -3.12933,-0.559312 l -0.91532,0.177824 0.71269,0.64 c 0.39198,0.352 1.06752,1.432 1.50118,2.4 1.00339,2.239683 0.92343,4.917491 -0.1919,6.426051 -0.40023,0.541344 -0.64,1.071959 -0.53281,1.179146 0.41311,0.413107 3.17592,-2.744269 4.13472,-4.725197 0.93451,-1.930739 1.0145,-2.011782 1.11482,-1.129357 0.0594,0.522855 -0.0486,1.002855 -0.24,1.066666 -0.19144,0.06381 -0.34807,0.318377 -0.34807,0.565699 0,0.438461 -0.54563,1.226074 -1.68,2.425082 -0.308,0.325552 -0.488,0.59191 -0.4,0.59191 0.62118,0 -1.58236,1.523242 -3.50821,2.425123 -1.98759,0.930797 -2.6672,1.090551 -4.53488,1.066016 -1.2083,-0.01587 -2.66491,-0.16399 -3.23691,-0.329149 z m 6.8,-1.969209 c 0.83801,-0.296087 1.5705,-0.877597 2.1213,-1.684051 1.0479,-1.534304 0.95104,-2.975415 -0.38914,-5.78968 -0.82805,-1.738864 -1.11259,-2.037856 -2.51231,-2.64 C 108.91168,67.505571 107.88052,67.2 107.48838,67.2 c -0.97814,0 -4.12321,1.057843 -4.12606,1.387795 -10e-4,0.14729 0.42968,0.430861 0.95768,0.630157 1.2385,0.467482 1.25677,1.417984 0.0495,2.574618 -0.73289,0.70215 -0.97892,0.789868 -1.26125,0.449683 -0.27062,-0.326074 -0.14328,-0.514461 0.55736,-0.824595 0.67286,-0.297834 0.86534,-0.56552 0.74301,-1.033312 -0.19502,-0.745744 -1.57151,-1.174951 -2.29816,-0.716592 -0.58009,0.36591 -0.70097,1.567769 -0.1473,1.464521 0.23893,-0.04455 0.30991,0.32752 0.20749,1.087575 -0.1142,0.847363 0.0875,1.654185 0.75682,3.026988 0.50189,1.029431 1.04518,1.872023 1.20732,1.872426 0.16214,3.2e-4 0.52214,0.197946 0.8,0.438979 1.26071,1.093629 3.31142,1.252042 5.6252,0.434538 z M 106.88,73.6 c -0.79717,-0.797168 -0.8173,-1.660358 -0.0548,-2.350403 0.86716,-0.784768 1.24432,-0.653363 1.64963,0.574733 0.26583,0.805488 0.2695,1.281763 0.0136,1.76 -0.44006,0.822246 -0.79832,0.825737 -1.60839,0.01568 z M 66.723062,69.106058 C 66.926173,68.181299 67.25489,67.736774 69.459533,65.405526 69.97679,64.858566 70.4,64.161085 70.4,63.855568 c 0,-0.305517 0.270157,-0.626131 0.600352,-0.71248 0.330192,-0.08635 0.771936,-0.477606 0.981651,-0.869462 0.236768,-0.442404 0.918941,-0.856266 1.799651,-1.091818 C 74.561744,60.973165 75.2,60.669344 75.2,60.506653 c 0,-0.162691 0.463274,-0.397552 1.029498,-0.521917 0.56622,-0.124365 1.25022,-0.342227 1.52,-0.484144 0.269776,-0.141914 1.385532,-0.417872 2.479456,-0.613238 1.999545,-0.357104 2.496572,-0.252026 4.175996,0.88288 0.503354,0.340156 1.357844,4.667475 1.027274,5.202348 -0.167005,0.270221 -0.625366,0.318436 -1.477181,0.155389 -2.804541,-0.536829 -7.254569,-0.30495 -10.035043,0.522899 -1.608915,0.479034 -3.84,1.590858 -3.84,1.913597 0,0.151543 -0.220518,0.275533 -0.490042,0.275533 -0.269526,0 -0.572931,0.216 -0.674236,0.48 -0.101309,0.264 -0.470269,0.48 -0.819917,0.48 -0.366602,0 -0.706573,0.270931 -0.803085,0.64 -0.27423,1.048656 -0.804989,0.737517 -0.569658,-0.333942 z m 3.822359,-2.673242 c 1.146662,-0.874602 2.455945,-1.294781 6.094579,-1.955891 3.303152,-0.600157 5.552573,-0.597789 7.000922,0.0074 L 84.8,64.968579 V 63.41345 c 0,-1.918839 -0.75465,-3.508148 -1.873798,-3.946269 -1.176125,-0.460423 -4.5589,0.432672 -8.130602,2.146582 -2.259491,1.084237 -3.033869,1.64888 -3.985389,2.905971 -0.649545,0.858141 -1.295568,1.608256 -1.435603,1.666922 -0.305194,0.127859 -0.344355,1.013334 -0.04481,1.013334 0.115386,0 0.662419,-0.345232 1.215626,-0.767184 z M 97.172576,63.6 c -0.109984,-1.1 -0.291635,-2.5276 -0.40367,-3.172445 -0.184276,-1.060633 -0.116215,-1.216886 0.713696,-1.638502 2.163174,-1.098947 7.899748,-1.223453 11.637398,-0.252576 1.71156,0.444585 4.16,1.57911 4.16,1.9276 0,0.135843 0.64948,0.590998 1.44328,1.011456 0.79381,0.420457 1.51748,0.997475 1.60817,1.282265 0.0907,0.284788 0.44921,0.775104 0.79672,1.089594 0.34751,0.31449 0.63183,0.78279 0.63183,1.040666 0,0.65327 -3.5917,0.39311 -4.38801,-0.31784 -0.90256,-0.805818 -2.92678,-1.20304 -6.52354,-1.280148 -3.59841,-0.07715 -5.37949,0.299101 -7.402092,1.563655 C 97.621027,65.994941 97.39984,65.872982 97.172576,63.6 Z m 5.674744,-0.752307 c 1.64214,-0.491661 2.28648,-0.520352 4.96,-0.220861 1.68997,0.189312 3.93668,0.665965 4.99268,1.059226 1.056,0.39326 2.4006,0.786003 2.98801,0.872761 l 1.06802,0.157741 -0.47827,-0.924867 c -0.3079,-0.595411 -1.57165,-1.582941 -3.54769,-2.772256 -2.78808,-1.678058 -3.31143,-1.875216 -5.70974,-2.150986 -3.5745,-0.411008 -7.203156,-0.346829 -8.56033,0.151402 l -1.12,0.411165 0.08223,2.364492 c 0.116311,3.344394 0.120288,3.349402 1.915802,2.411914 0.837078,-0.437066 2.371258,-1.048944 3.409288,-1.359731 z M 58.460038,76.099802 C 58.596701,75.41649 58.822854,75.2 59.4,75.2 c 0.735043,0 0.76,-0.08196 0.76,-2.496 0,-1.3728 0.120198,-2.6328 0.26711,-2.8 0.146909,-0.1672 0.525872,-1.006467 0.842138,-1.865037 0.814077,-2.209977 0.495821,-5.575478 -0.672032,-7.106611 C 60.13897,60.331558 59.64993,59.84 59.510464,59.84 c -0.139462,0 -0.626371,0.44305 -1.082019,0.984554 C 57.689056,61.703267 57.6,62.08287 57.6,64.355811 c 0,1.622771 0.161565,2.803834 0.445331,3.255447 0.244931,0.389808 0.414131,1.176742 0.376,1.748742 -0.03813,0.572 -0.09453,1.4 -0.125331,1.84 -0.0324,0.462854 -0.253088,0.8 -0.523667,0.8 -0.81016,0 -1.374381,3.401478 -0.926528,5.585696 l 0.193904,0.945696 0.620185,-0.765894 c 0.341101,-0.421242 0.701168,-1.170807 0.800144,-1.665696 z m 6.045306,-6.486855 C 64.617565,69.165827 64.83777,68.8 64.994691,68.8 65.15161,68.8 65.28,68.587853 65.28,68.32856 c 0,-0.512643 1.306074,-3.426723 1.65463,-3.691766 0.118045,-0.08976 0.318247,-0.576055 0.444893,-1.080647 0.131635,-0.524483 0.624423,-1.139894 1.150506,-1.436797 1.3724,-0.774531 1.650902,-2.233251 1.247846,-6.535868 -0.461821,-4.92994 -0.430502,-6.48514 0.142125,-7.057767 0.264,-0.264 0.48,-0.699353 0.48,-0.967453 0,-0.961772 3.668518,-4.03431 4.820131,-4.037065 0.275072,-6.4e-4 0.923072,-0.446051 1.44,-0.989767 C 77.177059,41.987718 78.032,41.322179 78.56,41.052454 80.546672,40.037581 82.217034,38.866218 82.228317,38.48 82.234749,38.26 82.564,38.079462 82.96,38.078803 c 0.396,-6.4e-4 1.152,-0.261971 1.68,-0.580697 0.922221,-0.556695 2.578896,-1.065223 4.96,-1.522506 2.199664,-0.422438 7.813219,-0.412704 8.32,0.01443 0.264,0.222506 1.467837,0.491837 2.67519,0.598512 1.79281,0.1584 2.33259,0.342198 2.94472,1.002704 0.41224,0.444816 0.93641,0.818474 1.16481,0.830352 1.2598,0.06552 2.61273,0.338742 3.17962,0.642134 0.85545,0.457821 1.87566,1.494704 1.87566,1.906311 0,0.181526 0.20185,0.407501 0.44854,0.502166 0.2467,0.09467 0.53752,0.646381 0.64626,1.226026 0.10875,0.579645 0.4829,1.31199 0.83146,1.62743 0.34856,0.31544 0.63374,0.748829 0.63374,0.963085 0,0.642352 1.61339,5.381808 1.98412,5.828512 0.18918,0.227942 0.45997,0.951808 0.60176,1.608589 0.81025,3.753197 1.00605,4.471709 1.42884,5.243523 0.2559,0.467155 0.46528,1.131738 0.46528,1.476845 0,0.83024 1.17079,2.288102 2.13061,2.653027 0.42161,0.160294 0.88788,0.617542 1.03614,1.016102 0.20759,0.558058 0.32346,0.191053 0.50399,-1.596371 0.28936,-2.864963 1.15588,-4.3524 2.61934,-4.496256 0.58249,-0.05726 1.19423,0.107309 1.48692,0.4 0.74841,0.748403 1.17772,0.603674 1.39233,-0.469379 0.10633,-0.531661 0.31873,-1.04416 0.472,-1.138886 0.15327,-0.09473 0.27867,-0.947232 0.27867,-1.894458 0,-0.947226 0.144,-1.811226 0.32,-1.92 0.56511,-0.349258 0.34198,-3.133482 -0.397,-4.953814 C 126.24865,46.074784 125.84932,45.208 125.75561,45.12 124.85003,44.269645 124.48,43.019766 124.48,40.811258 c 0,-1.999127 -0.1114,-2.522663 -0.65179,-3.063044 -0.55218,-0.552182 -0.82183,-0.604838 -1.76448,-0.344556 -1.02436,0.282838 -1.14803,0.239318 -1.55781,-0.548215 -0.24481,-0.470493 -0.81879,-1.204544 -1.27552,-1.631222 -0.45672,-0.426682 -0.83537,-0.930682 -0.84144,-1.12 -0.0127,-0.395875 -4.40046,-4.025396 -6.06896,-5.02019 -0.616,-0.367272 -1.59611,-1.121426 -2.17801,-1.675899 -0.94541,-0.900834 -1.23871,-1.000245 -2.75575,-0.934032 -1.34719,0.0588 -1.81621,-0.05682 -2.27158,-0.56 -0.31562,-0.348755 -0.91639,-0.6341 -1.33504,-0.6341 -0.42389,0 -1.17702,-0.425393 -1.69962,-0.96 -1.14259,-1.168851 -1.52434,-1.200664 -1.92,-0.16 -0.42753,1.124485 -0.784778,0.998924 -1.365715,-0.48 -0.544058,-1.385033 -1.103117,-1.573731 -2.450739,-0.827189 -0.542359,0.300451 -1.072346,0.345271 -1.757885,0.148661 -1.398867,-0.40119 -1.688599,-0.358895 -2.341389,0.341792 -0.383098,0.411209 -0.731309,0.530157 -1.023446,0.349607 -0.243533,-0.150512 -0.627101,-0.202931 -0.852372,-0.116487 -0.22527,0.08644 -0.66198,0.01592 -0.97047,-0.156717 -0.395482,-0.221322 -0.768179,-0.17807 -1.263789,0.146667 -0.628406,0.411749 -0.844297,0.386854 -2.037177,-0.234909 l -1.334279,-0.695465 -0.916211,0.877786 c -0.869696,0.833222 -0.953597,0.851602 -1.652573,0.36202 C 81.24079,23.208143 81.045811,23.22552 80.8,24 c -0.240675,0.758303 -0.884118,0.829796 -1.44,0.16 -0.570243,-0.6871 -0.867402,-0.599126 -1.351133,0.4 -0.364921,0.753733 -0.590861,0.865631 -1.574656,0.779859 -1.076608,-0.09386 -1.181209,-0.01865 -1.668816,1.2 -0.538358,1.345488 -1.050419,1.652104 -1.369673,0.820141 -0.335927,-0.875404 -0.996621,-0.498339 -1.682122,0.96 -0.632886,1.346407 -0.758352,1.44 -1.930422,1.44 -1.154359,0 -1.283479,0.0907 -1.631853,1.146285 -0.330816,1.002385 -0.477949,1.121277 -1.172029,0.947073 -1.462835,-0.367148 -1.984307,0.04906 -2.212003,1.765503 C 64.651933,34.488486 64.490813,35.2 64.409248,35.2 c -0.08157,0 -0.530051,-0.300285 -0.996637,-0.667302 l -0.848336,-0.6673 -0.387705,0.9073 c -0.213236,0.499017 -0.394199,1.222803 -0.402138,1.608416 -0.01872,0.909052 -0.476672,1.178649 -0.977357,0.575363 C 60.579584,36.694416 60.220784,36.48 59.999741,36.48 c -0.420029,0 -1.200874,2.48984 -0.922234,2.940688 0.08814,0.142621 0.03082,0.259312 -0.127401,0.259312 -0.158218,0 -0.480148,-0.583219 -0.715399,-1.296042 C 57.999453,37.671136 57.688134,37.01447 57.542886,36.924704 57.062922,36.628067 56.64,38.406765 56.64,40.721994 c 0,2.114243 -0.03616,2.235088 -0.496525,1.659168 -0.459667,-0.57505 -0.487846,-0.472695 -0.379584,1.378838 0.06432,1.1 -2.4e-4,2 -0.143472,2 -0.143232,0 -0.260419,-0.288 -0.260419,-0.64 0,-0.352 -0.144,-0.64 -0.32,-0.64 -0.188509,0 -0.32,1.129987 -0.32,2.749958 0,2.527824 -0.05449,2.764208 -0.674579,2.926365 -0.642701,0.168071 -0.667635,0.3292 -0.52768,3.410042 0.130717,2.877443 0.256512,3.42887 1.142003,5.006038 0.547306,0.974826 1.34599,2.102048 1.774854,2.504944 l 0.779751,0.732538 0.582064,-0.985354 c 1.686905,-2.855702 3.999827,-0.782214 4.434531,3.975469 0.181933,1.991222 0.113837,2.42641 -0.613139,3.918432 C 61.018266,69.948899 60.8,70.908973 60.8,72.315651 v 1.918787 l 1.750653,-1.904272 c 0.962861,-1.04735 1.84247,-2.270099 1.954691,-2.717219 z m 60.807006,0.702567 c -0.10091,-1.014468 -0.42015,-2.205693 -0.70941,-2.647168 -0.44327,-0.676506 -0.50278,-1.485594 -0.3786,-5.147053 0.14547,-4.289255 0.138,-4.348624 -0.58902,-4.679879 -1.39984,-0.637804 -2.56742,1.20257 -2.8762,4.533501 -0.17738,1.913504 -0.10147,2.308944 0.83412,4.345085 1.42791,3.107581 1.8192,4.036035 2.09033,4.96 0.40975,1.396336 0.8565,1.74553 1.36751,1.068896 0.3176,-0.420547 0.39229,-1.116189 0.26127,-2.433382 z"
         id="outline" />
    </g>
  </g>
</svg>
