<?xml version="1.0" encoding="UTF-8" standalone="no"?>
<!-- Created with Inkscape (http://www.inkscape.org/) -->

<svg
   version="1.1"
   id="svg59"
   width="192"
   height="288"
   viewBox="0 0 192 288"
   xmlns="http://www.w3.org/2000/svg"
   xmlns:svg="http://www.w3.org/2000/svg">
  <defs
     id="defs63" />
  <g
     id="g65">
    <g
       id="g177"
       transform="translate(-1.2760626,-1.3514435)">
      <path
         id="whites"
         style="fill:#ffffff;stroke:#1bff54;stroke-opacity:0"
         d="m 96.31941,76.742803 c -0.144637,2.964627 0.834377,6.981299 1.317921,9.05451 1.179064,0.620677 1.627522,1.09499 2.597199,1.672244 2.80269,0.546334 5.36768,-0.184182 7.71834,-0.469367 2.72084,-1.307407 4.58214,-2.959018 7.0341,-4.787577 2.30628,-1.405656 1.65658,-3.514712 0.34636,-6.408001 -2.20123,-2.153847 -5.03007,-3.225332 -6.37971,-3.877814 -3.94795,-0.09476 -6.85627,-1.013017 -9.924387,-0.176258 -1.256114,0.352014 -2.389778,1.152639 -2.970626,1.721566 0.06474,1.328114 0.07252,2.220383 0.260807,3.270697 z m -29.676069,4.225332 c 1.967215,3.770443 10.002597,7.898947 14.237531,6.929188 2.779173,-0.854235 3.931122,-1.194325 3.903065,-3.077286 0.156319,-2.127406 0.443137,-4.073983 0.430228,-6.733945 0.201614,-2.456704 -0.09549,-3.903456 -0.510466,-5.863526 -0.830261,-1.189633 -1.075632,-0.575402 -1.877654,-1.1915 -4.935536,0.888176 -7.800668,1.231028 -10.774133,3.897973 -1.593872,1.556224 -3.352897,3.504839 -5.408571,6.039096 z"
         transform="translate(1.2760626,1.3514435)" />
      <path
         style="display:inline;fill:#fbd7c8;stroke-width:0.32"
         d="m 98.56,117.6 c -0.616,-0.23722 -1.506176,-0.44227 -1.97817,-0.45565 -0.884608,-0.0251 -5.898051,-1.76486 -6.489334,-2.25192 -0.182874,-0.15064 -1.340496,-0.67542 -2.572496,-1.16616 -1.232,-0.49075 -3.739075,-1.65592 -5.57128,-2.58927 -1.832205,-0.93335 -3.515101,-1.697 -3.739773,-1.697 -0.224672,0 -1.325997,-0.62815 -2.447392,-1.39588 -1.121392,-0.76774 -2.606496,-1.65464 -3.300227,-1.97089 -2.520173,-1.14888 -7.363203,-4.13929 -8.250621,-5.09449 -0.500112,-0.53831 -1.498637,-2.184458 -2.218941,-3.658113 -1.160764,-2.374787 -1.581979,-2.98832 -1.682635,-5.397078 -0.122692,-2.935923 0.636383,-4.413216 1.62389,-4.034272 0.533693,0.204797 2.521712,-1.805258 2.897165,-2.929277 0.11758,-0.352 0.47919,-1.017037 0.80358,-1.477859 0.324391,-0.460826 0.78961,-1.989251 1.033821,-3.396506 0.438986,-2.529651 0.466573,-2.57999 2.434355,-4.442141 1.094685,-1.035923 2.266576,-1.986854 2.604199,-2.113184 C 72.043763,73.403984 72.32,73.15568 72.32,72.978528 72.32,71.982227 77.361533,70.72 81.340922,70.72 H 83.92 l -0.205914,-1.029565 c -0.329084,-1.645427 -3.066275,-4.090845 -4.578195,-4.090182 -0.903245,3.2e-4 -4.206057,1.675494 -6.571961,3.333123 -1.62754,1.140307 -2.549248,2.10952 -3.76,3.953802 -1.751584,2.668108 -1.93136,2.480672 -1.004375,-1.047178 0.743079,-2.827952 2.730173,-6.453696 3.940266,-7.189597 0.926064,-0.563171 3.809485,-1.395517 6.150019,-1.775299 1.484848,-0.240938 3.318,-1.954304 3.600112,-3.364867 l 0.18687,-0.934349 1.293661,1.107325 c 0.72201,0.618013 1.800915,1.190275 2.441587,1.295043 3.826672,0.625763 4.515194,0.877802 5.119645,1.874061 0.917267,1.511849 1.066202,2.787606 0.702912,6.021053 -0.710947,6.327779 -0.732323,6.00663 0.39976,6.00663 0.821517,0 1.378835,-0.405994 3.184727,-2.32 3.179212,-3.369542 3.705958,-4.125494 4.559075,-6.542902 0.858841,-2.433629 0.994711,-5.010269 0.416102,-7.891354 -0.201139,-1.001546 -0.285472,-1.901229 -0.187405,-1.999296 0.429884,-0.429885 1.439984,0.599434 2.128994,2.16951 1.32032,3.008679 1.42781,3.188535 2.25938,3.780666 0.62859,0.447597 1.52113,0.600675 3.85147,0.660563 1.6683,0.04287 3.68777,-0.03098 4.48771,-0.164128 1.30203,-0.216713 1.5631,-0.15064 2.49149,0.630547 1.54729,1.301956 1.97294,2.379767 1.98273,5.020503 0.013,3.498454 1.1805,6.000691 4.15033,8.894905 1.26474,1.232541 2.18926,2.240986 2.05449,2.240986 -0.13477,0 0.0572,0.324 0.42672,0.72 1.09858,1.177462 2.06286,4.0536 2.27866,6.796512 0.1674,2.127648 0.29908,2.575222 0.78495,2.668051 0.77812,0.148659 1.78034,-0.785776 2.46534,-2.298592 l 0.55876,-1.234025 0.3958,1.199299 c 0.23779,0.720512 0.33299,2.077232 0.23846,3.398384 -0.1323,1.849075 0.0242,2.707523 -0.95498,4.182272 -1.86782,2.813142 -9.92992,10.488099 -10.80085,10.488099 -0.14991,0 -0.75266,0.60947 -1.33945,1.35436 -1.4837,1.8835 -2.02052,2.38971 -2.79477,2.63545 -0.36909,0.11714 -2.00331,1.36349 -3.6316,2.76965 -1.62828,1.40617 -3.53042,2.85472 -4.22697,3.21901 -0.69655,0.36429 -1.97271,1.14816 -2.83591,1.74194 -1.72877,1.18917 -3.07034,1.34949 -5.01764,0.59959 z m 0.540944,-12.54596 c 1.462476,-0.47627 2.659056,-0.99706 2.659056,-1.1573 0,-0.37227 -0.90074,-0.15367 -3.614557,0.87722 -2.875888,1.09245 -3.949526,1.04398 -6.838803,-0.30873 -1.333072,-0.62412 -2.495565,-1.06297 -2.583312,-0.97522 -0.08775,0.0877 0.901603,0.66447 2.198563,1.2816 2.947725,1.40261 4.567603,1.45855 8.179053,0.28243 z M 96.024282,95.76 C 97.380538,94.504246 98.24,93.176058 98.24,92.335891 c 0,-0.802099 -0.550304,-0.568598 -0.905245,0.384109 -0.18032,0.484 -0.90863,1.492 -1.618464,2.24 -1.082025,1.140198 -1.489369,1.36 -2.520409,1.36 -1.374445,0 -3.736506,-1.490726 -4.080778,-2.575424 C 89.006077,93.401059 88.785664,93.12 88.625296,93.12 c -0.630787,0 0.51016,1.651082 1.876614,2.715674 2.062186,1.606636 3.730103,1.583782 5.522372,-0.07567 z M 82.977946,88.913898 c 1.090128,-0.370042 2.117395,-0.797591 2.282816,-0.950109 0.640435,-0.590499 0.769865,-2.857107 0.522732,-9.15408 -0.169449,-4.317671 -0.323056,-5.645984 -0.681142,-5.890224 -0.561965,-0.383299 -5.768544,-0.145107 -7.342352,0.335897 -1.774845,0.542448 -6.673242,5.006032 -8.655565,7.887239 -1.047049,1.521837 -1.132195,1.789817 -0.544435,1.713491 0.946608,-0.122922 1.236678,0.04421 1.057354,0.609216 -0.242736,0.764787 0.667638,1.743878 3.621993,3.895392 3.663239,2.66776 5.56264,2.970688 9.738599,1.553178 z m 26.420094,-0.481757 c 2.27937,-0.626394 3.65616,-1.535648 6.3867,-4.217863 l 1.90793,-2.532636 -0.3429,-1.091776 C 117.09257,79.770973 116.56318,79.128 116.46929,79.04 c -0.0939,-0.088 -0.16589,-0.732528 -0.16,-1.432285 0.0102,-1.217017 -0.0731,-1.322966 -1.91898,-2.439088 -1.06133,-0.641744 -2.57333,-1.315462 -3.36,-1.497152 -0.78667,-0.181693 -2.63346,-0.646182 -4.10396,-1.032198 -3.20102,-0.840285 -4.60634,-0.707946 -7.421716,0.698918 -1.41881,0.708989 -1.848445,1.062023 -1.536967,1.262938 0.304973,0.196717 0.32785,0.349568 0.07766,0.518867 -0.195072,0.132 -0.293347,0.528 -0.218391,0.88 0.07496,0.352 0.267357,2.219795 0.427552,4.150656 0.160199,1.930861 0.38049,3.730861 0.48954,4 0.109052,0.269139 0.266537,0.921344 0.349971,1.449344 0.08343,0.528 0.629126,1.445309 1.212641,2.038464 0.87251,0.886906 1.3942,1.120125 2.93716,1.313034 2.17871,0.272396 3.75817,0.139104 6.15424,-0.519357 z M 114.30176,69.44 c -0.90343,-0.88 -1.7835,-1.6 -1.9557,-1.6 -0.1722,0 -0.69341,-0.35247 -1.15824,-0.783264 -1.1233,-1.041034 -3.79279,-1.564026 -7.09779,-1.390557 -3.06223,0.160727 -3.88032,0.709143 -4.159172,2.78817 l -0.162196,1.209248 3.155668,0.221014 c 1.73562,0.121559 3.94767,0.415328 4.91567,0.652816 0.968,0.237491 3.18748,0.447725 4.93219,0.467187 l 3.17219,0.03539 z"
         id="skin" />
      <path
         style="display:inline;fill:#ccd9ec;stroke-width:0.32"
         d="m 76.442106,86.519181 c -0.02083,-0.153549 -0.02256,-0.382 -0.0038,-0.507664 C 76.457026,85.88585 76.258091,85.865258 75.9962,85.965757 75.734272,86.06625 75.52,85.98905 75.52,85.794237 75.52,85.599405 75.329101,85.44 75.095779,85.44 74.67153,85.44 73.28,84.144416 73.28,83.749418 c 0,-0.115133 0.18841,-0.137031 0.418688,-0.04867 C 74.194954,83.891187 75.52,82.82327 75.52,82.23287 c 0,-0.293235 0.168755,-0.25934 0.585197,0.117533 0.321859,0.29128 0.815408,0.529597 1.096774,0.529597 0.765847,0 1.836103,-1.550429 1.852173,-2.683155 L 79.068288,79.2 l 0.633504,1.2 c 0.572051,1.083603 0.932272,1.352515 1.658211,1.237894 0.132,-0.02083 0.24,0.106106 0.24,0.282106 0,0.176 0.18,0.284 0.4,0.24 0.567139,-0.113427 0.312365,1.065024 -0.397801,1.84 -2.387216,2.605078 -2.535789,2.72 -3.516468,2.72 -0.717635,0 -0.935043,-0.113949 -0.76319,-0.4 0.16329,-0.271795 0.06678,-0.259235 -0.301114,0.03918 -0.297785,0.241552 -0.55848,0.313552 -0.579321,0.16 z M 77.12,83.419658 c 0,-0.163914 -0.216,-0.118759 -0.48,0.100342 -0.264,0.219101 -0.475421,0.632733 -0.469824,0.919181 0.0085,0.437542 0.0853,0.421501 0.48,-0.100343 C 76.908579,83.9972 77.12,83.583568 77.12,83.419658 Z M 78.72,84.32 c 0,-0.264 -0.0566,-0.48 -0.125763,-0.48 -0.06917,0 -0.20865,0.216 -0.309959,0.48 -0.101305,0.264 -0.04471,0.48 0.125764,0.48 0.170476,0 0.309958,-0.216 0.309958,-0.48 z m 1.6,-0.461114 c 0,-0.165612 -0.146349,-0.391564 -0.325219,-0.502112 -0.178871,-0.110547 -0.229747,-0.371046 -0.113056,-0.578886 0.154096,-0.274458 0.108857,-0.28305 -0.165271,-0.03139 -0.20759,0.19057 -0.285308,0.58657 -0.172707,0.88 C 79.761971,84.195181 80.32,84.362243 80.32,83.858893 Z M 105.22959,84.56 c -0.69565,-0.829565 -1.69691,-2.540144 -1.23214,-2.105005 0.2203,0.206247 0.59203,0.301511 0.82607,0.211703 0.49249,-0.188989 1.22829,-2.194541 0.96276,-2.624183 -0.0986,-0.159501 0.0352,-0.467945 0.29724,-0.68544 0.38467,-0.319241 0.47648,-0.306144 0.47648,0.06796 0,0.25487 0.3496,0.791833 0.77689,1.193248 0.48485,0.455501 0.70291,0.927539 0.58008,1.255779 -0.17587,0.470003 -0.13087,0.476358 0.42312,0.05977 1.555,-1.169347 1.81939,-1.864262 1.25322,-3.29383 -0.35553,-0.897699 0.34929,-0.654858 1.66888,0.574998 l 1.21781,1.134999 -0.96,-0.212992 c -0.92146,-0.204442 -0.9343,-0.192605 -0.32,0.294825 0.352,0.2793 0.784,0.514602 0.96,0.522893 0.176,0.0083 0.51519,0.138759 0.75375,0.289923 0.35559,0.225319 0.32751,0.440679 -0.15585,1.195101 -0.8613,1.34433 -1.09714,1.537843 -2.60438,2.137027 -1.83131,0.72802 -4.30644,0.719588 -4.92393,-0.01677 z m 3.14901,-1.42 c -0.10216,-0.255274 -0.17798,-0.17945 -0.19334,0.193334 -0.0139,0.337332 0.0617,0.526333 0.16807,0.42 0.10634,-0.106332 0.1177,-0.382336 0.0252,-0.613334 z m 2.48068,-0.54647 c 0.0974,-0.157556 -0.0308,-0.366224 -0.28482,-0.463703 -0.30809,-0.118224 -0.40262,-0.02285 -0.28393,0.286471 0.20628,0.537539 0.32349,0.574067 0.56875,0.177232 z M 71.36,80.070096 c 0,-0.417149 1.512672,-0.904093 1.828237,-0.588528 C 73.297373,79.590707 73.103467,79.68 72.757334,79.68 72.4112,79.68 71.9552,79.8528 71.744,80.064 71.452218,80.355782 71.36,80.357248 71.36,80.0701 Z M 102.08,75.52 c 0,-0.176 0.1525,-0.32 0.33889,-0.32 0.18638,0 0.24988,0.144 0.14111,0.32 -0.10877,0.176 -0.26127,0.32 -0.33889,0.32 -0.0776,0 -0.14111,-0.144 -0.14111,-0.32 z m 8.96,-0.32 c -0.264,-0.170611 -0.336,-0.310198 -0.16,-0.310198 0.176,0 0.536,0.139587 0.8,0.310198 0.264,0.170611 0.336,0.310198 0.16,0.310198 -0.176,0 -0.536,-0.139587 -0.8,-0.310198 z"
         id="eye2" />
      <path
         style="display:inline;fill:#aac6ec;stroke-width:0.32"
         d="m 73.209376,83.44 c -0.282122,-0.22 -0.809536,-0.966198 -1.172029,-1.658218 -0.723366,-1.380947 -0.525875,-1.987043 0.704643,-2.162572 0.443988,-0.06333 0.905165,-0.545434 1.275239,-1.333104 0.318848,-0.67864 0.949632,-1.61464 1.401741,-2.08 0.452108,-0.465357 0.708169,-0.641636 0.569027,-0.391725 -0.184864,0.332029 -0.114999,0.40143 0.259459,0.257734 0.29911,-0.114777 0.554099,-0.01638 0.612496,0.236365 0.06446,0.27897 0.316774,0.130362 0.70927,-0.417734 0.335072,-0.467911 0.414272,-0.670746 0.176,-0.450746 -0.562297,0.519174 -0.836374,0.505216 -1.05078,-0.05352 -0.09572,-0.249433 0.04036,-0.535785 0.302384,-0.636336 0.308272,-0.118294 0.405705,-0.04294 0.276064,0.213517 -0.110192,0.217984 0.02634,0.116813 0.303379,-0.224826 C 77.853322,74.3972 78.08,74.2892 78.08,74.498838 c 0,0.209639 0.152499,0.381162 0.338886,0.381162 0.186388,0 0.247709,-0.18 0.136269,-0.4 -0.11144,-0.22 0.0022,-0.150237 0.252755,0.155027 0.250455,0.305264 0.549133,0.461264 0.663732,0.346666 0.114595,-0.114599 0.208358,-0.04229 0.208358,0.160678 0,0.202973 -0.504,0.579626 -1.12,0.837005 -1.024922,0.42824 -1.663514,1.009104 -0.705037,0.641302 0.240483,-0.09228 0.567741,0.214682 0.778307,0.730042 L 78.996614,78.24 78.811638,77.312272 c -0.14151,-0.709718 -0.08719,-0.867296 0.231136,-0.670557 0.267719,0.165459 0.338224,0.131146 0.197706,-0.09622 -0.120806,-0.195469 0.107347,-0.526973 0.510557,-0.741834 0.64536,-0.343894 0.681801,-0.331251 0.317737,0.110262 -0.334969,0.406224 -0.334969,0.490116 0,0.452391 C 80.294947,76.340845 80.516,76.464 80.56,76.64 c 0.044,0.176 -0.088,0.32 -0.293334,0.32 -0.205332,0 -0.433332,0.18 -0.506666,0.4 -0.170016,0.510045 0.630678,0.521322 1.136,0.016 0.298666,-0.298666 0.384,-0.22336 0.384,0.338886 0,0.397588 0.142352,0.634906 0.316336,0.52738 0.181395,-0.112109 0.23504,0.01635 0.125763,0.301113 -0.104816,0.273143 -0.03569,0.496621 0.153623,0.496621 0.189558,0 0.25239,0.239229 0.139856,0.532493 -0.137396,0.358045 -0.08169,0.456694 0.170041,0.301117 0.224691,-0.138868 0.374381,-0.0319 0.374381,0.267504 0,0.297366 -0.290838,0.507971 -0.72,0.521379 -0.655763,0.02048 -0.665325,0.04392 -0.107171,0.262717 0.718845,0.281785 0.957328,1.208124 0.311027,1.208124 -0.533808,0 -0.591478,-0.430793 -0.08047,-0.601129 0.199862,-0.06662 -0.237962,-0.319591 -0.972941,-0.562157 -0.90216,-0.297741 -1.281331,-0.584352 -1.167053,-0.88216 0.0931,-0.242621 0.04202,-0.362477 -0.113526,-0.266346 -0.155543,0.09613 -0.363604,-0.03578 -0.462359,-0.293132 -0.09875,-0.257354 -0.04185,-0.553024 0.126467,-0.657047 C 79.542288,78.767338 79.68,78.517926 79.68,78.317114 c 0,-0.260868 -0.09843,-0.266688 -0.344726,-0.02038 -0.246304,0.246304 -0.565469,0.123987 -1.11786,-0.428404 -0.631632,-0.631632 -0.890659,-0.710233 -1.415273,-0.429468 -0.446941,0.239193 -0.830787,0.242704 -1.26272,0.01155 -0.412688,-0.220864 -0.687011,-0.224637 -0.818887,-0.01126 -0.109068,0.176473 0.103261,0.320864 0.47184,0.320864 0.534381,0 0.61192,0.113449 0.382752,0.56 -0.253376,0.493718 -0.246118,2.165004 0.01427,3.286665 0.04983,0.214656 -0.341398,0.643658 -0.869398,0.953335 -0.528,0.309676 -0.924,0.724364 -0.88,0.921526 0.102083,0.45743 6.4e-4,0.450752 -0.630624,-0.04153 z M 74.88,81.298886 c 0,-0.554387 -0.563232,-0.65696 -0.962925,-0.175363 C 73.587997,81.520038 73.635616,81.6 74.200819,81.6 74.574368,81.6 74.88,81.464499 74.88,81.298886 Z M 72.533334,80.8 c 0,-0.264 -0.187481,-0.48 -0.416624,-0.48 -0.238864,0 -0.338035,0.204803 -0.232432,0.48 0.101309,0.264 0.288788,0.48 0.416624,0.48 0.127837,0 0.232432,-0.216 0.232432,-0.48 z M 74.88,79.714237 c 0,-0.392579 -0.90153,-0.707728 -1.101053,-0.384896 -0.08885,0.143766 -0.06946,0.353478 0.04308,0.466025 C 74.126998,80.10033 74.88,80.042589 74.88,79.714237 Z m 6.4,-0.655351 c 0,-0.55767 -0.541408,-0.641644 -1.152858,-0.178812 -0.57527,0.435446 -0.560944,0.460105 0.272858,0.46975 0.484,0.0056 0.88,-0.125325 0.88,-0.290938 z m 22.26538,3.016612 c -0.89609,-0.830468 -1.05617,-1.715002 -0.42538,-2.350458 0.32066,-0.32303 0.29246,-0.362026 -0.14218,-0.196602 -0.38748,0.147479 -0.54241,0.03876 -0.54301,-0.381043 -3.2e-4,-0.323065 -0.0624,-1.196745 -0.13774,-1.94151 -0.0756,-0.747194 -0.009,-1.27513 0.14823,-1.177888 0.15683,0.09692 0.19276,0.325702 0.0798,0.508397 -0.13287,0.214979 0.0488,0.251532 0.51485,0.103606 0.45887,-0.145642 0.647,-0.110221 0.51855,0.09763 -0.1147,0.185587 0.0405,0.279884 0.35993,0.218768 0.30884,-0.05908 0.74152,-0.118445 0.96152,-0.131911 0.22,-0.01347 0.4,-0.163965 0.4,-0.334441 0,-0.170474 -0.216,-0.227069 -0.48,-0.125764 -0.264,0.101309 -0.48,0.0248 -0.48,-0.170041 0,-0.194832 0.13317,-0.354237 0.29594,-0.354237 0.16277,0 0.24913,-0.503619 0.19193,-1.119155 -0.0572,-0.615536 0.0256,-1.039037 0.18406,-0.941114 0.15843,0.09792 0.28807,0.03005 0.28807,-0.150803 0,-0.180864 0.21517,-0.246272 0.47816,-0.145354 0.26299,0.100919 0.42092,0.2764 0.35095,0.389956 -0.07,0.113558 0.0632,0.63847 0.29585,1.16647 0.41803,0.948579 0.42382,0.950483 0.48694,0.16 0.0351,-0.44 0.0409,-0.925667 0.0129,-1.079258 -0.028,-0.153593 0.18268,-0.189593 0.46828,-0.08 0.28559,0.109591 0.71988,0.199258 0.96508,0.199258 0.32557,0 0.3986,0.280528 0.27072,1.04 l -0.1751,1.04 0.57821,-0.881632 c 0.55979,-0.853542 1.228,-1.026781 1.228,-0.318368 0,0.190666 0.108,0.454666 0.24,0.586666 0.132,0.132 0.24,0.08741 0.24,-0.0991 0,-0.186505 0.24761,-0.434115 0.55025,-0.550246 0.30263,-0.116135 0.4553,-0.116211 0.33927,-1.73e-4 -0.11604,0.116035 0.0853,0.519648 0.44737,0.896912 0.81246,0.846512 1.54311,2.497834 1.54311,3.487562 0,0.895641 -1.0251,1.094268 -1.65866,0.321385 -0.36769,-0.448553 -0.33272,-0.491171 0.27472,-0.334723 0.50651,0.130458 0.64968,0.05843 0.52576,-0.264506 C 112.54796,78.658586 111.36,78.55217 111.36,79.04 c 0,0.176 -0.26516,0.068 -0.58924,-0.24 -0.32408,-0.308 -0.5326,-0.666352 -0.46338,-0.796336 0.0692,-0.129984 -0.0976,-0.150576 -0.37076,-0.04576 -0.29951,0.114934 -0.49662,0.01702 -0.49662,-0.246688 0,-0.625946 -1.10332,-1.22849 -1.95068,-1.065306 -0.90791,0.174848 -1.29963,0.74856 -1.14166,1.672061 0.0675,0.394883 -0.0715,0.8792 -0.3089,1.076259 -0.23744,0.197059 -0.35106,0.488787 -0.25248,0.648288 0.26934,0.435805 -0.47356,2.436455 -0.97638,2.629405 -0.24153,0.09268 -0.81056,-0.175709 -1.26452,-0.596422 z M 105.28,81.28 c 0,-0.176 -0.144,-0.32 -0.32,-0.32 -0.176,0 -0.32,0.144 -0.32,0.32 0,0.176 0.144,0.32 0.32,0.32 0.176,0 0.32,-0.144 0.32,-0.32 z m 0.16,-2.24 c 0.10877,-0.176 -0.0987,-0.32 -0.46111,-0.32 -0.36239,0 -0.65889,0.144 -0.65889,0.32 0,0.176 0.2075,0.32 0.46111,0.32 0.25362,0 0.55012,-0.144 0.65889,-0.32 z M 112,76.796915 c 0,-0.136643 -0.22348,-0.334198 -0.49662,-0.439014 -0.28478,-0.109277 -0.41322,-0.05563 -0.30111,0.125763 0.10752,0.173984 0.043,0.316336 -0.14338,0.316336 -0.18639,0 -0.33889,0.130518 -0.33889,0.290042 0,0.159523 0.288,0.214729 0.64,0.122678 0.352,-0.09205 0.64,-0.279162 0.64,-0.415805 z M 106.4,76.48 c 0.10877,-0.176 0.0453,-0.32 -0.14111,-0.32 -0.18639,0 -0.33889,0.144 -0.33889,0.32 0,0.176 0.0635,0.32 0.14111,0.32 0.0776,0 0.23012,-0.144 0.33889,-0.32 z m 6.4,4.48 c -0.10877,-0.176 -0.0453,-0.32 0.14111,-0.32 0.18639,0 0.33889,0.144 0.33889,0.32 0,0.176 -0.0635,0.32 -0.14111,0.32 -0.0776,0 -0.23012,-0.144 -0.33889,-0.32 z m -1.29316,-0.34129 c -0.11601,-0.187708 -0.1423,-0.40992 -0.0584,-0.493801 0.0839,-0.08388 0.23777,0.0697 0.342,0.341289 0.21637,0.563876 0.032,0.66306 -0.28359,0.152512 z"
         id="eye1" />
      <path
         style="display:inline;fill:#9db7dd;stroke-width:0.32"
         d="m 76.266666,84.334077 c 0,-0.256259 0.122348,-0.390307 0.271888,-0.297888 0.149536,0.09242 0.18904,0.302083 0.08778,0.465923 -0.258759,0.418682 -0.359667,0.371539 -0.359668,-0.168035 z M 73.78241,83.556259 c -0.09645,-0.156057 0.02624,-0.451053 0.272624,-0.655539 0.314624,-0.261114 0.511184,-0.269546 0.660262,-0.02832 0.116752,0.188906 0.02157,0.303898 -0.21151,0.255539 C 74.270704,83.079578 74.116,83.22001 74.16,83.44001 c 0.09267,0.463331 -0.122202,0.529488 -0.37759,0.116259 z m 34.40285,-0.222925 c 0.0154,-0.372784 0.0912,-0.448608 0.19334,-0.193334 0.0924,0.230998 0.0811,0.507002 -0.0252,0.613334 -0.10634,0.106333 -0.18197,-0.08267 -0.16807,-0.42 z M 103.63918,82.64 c -0.39804,-0.507539 -0.38672,-0.518858 0.12082,-0.120819 0.53304,0.418038 0.70255,0.680819 0.43918,0.680819 -0.0665,0 -0.31845,-0.252 -0.56,-0.56 z M 81.963792,81.633837 c -0.368278,-0.233325 -0.368278,-0.303379 0,-0.449837 0.344803,-0.137123 0.347981,-0.178768 0.01517,-0.198736 -0.231571,-0.01389 -0.716947,0.133104 -1.078618,0.326662 -0.401161,0.214695 -0.579353,0.225354 -0.456969,0.02733 0.110336,-0.178528 0.01971,-0.397526 -0.201383,-0.486662 -0.31158,-0.125619 -0.307782,-0.16775 0.0169,-0.187331 0.232701,-0.01405 0.317399,-0.189472 0.190557,-0.394707 -0.142601,-0.230733 -0.08766,-0.282503 0.146333,-0.137888 0.206064,0.127353 0.293155,0.363436 0.193536,0.524624 -0.103584,0.167603 0.229341,0.210976 0.777648,0.101315 0.832534,-0.166506 0.952064,-0.102672 0.907811,0.484819 -0.02803,0.372115 -0.05632,0.674368 -0.06287,0.671674 -0.0066,-0.0026 -0.208198,-0.129264 -0.448112,-0.281264 z M 73.973984,81.05495 c 0.186192,-0.224345 0.466218,-0.328992 0.622275,-0.23254 0.48897,0.302198 0.310176,0.640448 -0.338531,0.640448 -0.467968,0 -0.53833,-0.101149 -0.283744,-0.407908 z M 104.64,81.28 c 0,-0.176 0.144,-0.32 0.32,-0.32 0.176,0 0.32,0.144 0.32,0.32 0,0.176 -0.144,0.32 -0.32,0.32 -0.176,0 -0.32,-0.144 -0.32,-0.32 z m 7.53882,-0.426666 c -0.49025,-0.35848 -0.50222,-0.426668 -0.0749,-0.426668 0.27971,0 0.58225,0.192 0.6723,0.426668 0.0901,0.234666 0.12377,0.426666 0.0749,0.426666 -0.0488,0 -0.35137,-0.192 -0.6723,-0.426666 z m 0.99451,-0.106668 c -0.11733,-0.117332 -0.21333,-0.362132 -0.21333,-0.544 0,-0.200512 0.14905,-0.18162 0.37867,0.048 0.20826,0.208268 0.30426,0.453068 0.21333,0.544 -0.0909,0.09093 -0.26133,0.06933 -0.37867,-0.048 z M 73.623645,79.54849 c -0.258093,-0.310983 -0.269584,-0.51649 -0.03692,-0.660282 0.185792,-0.114826 0.423872,0.01552 0.529072,0.28967 0.105197,0.274148 0.320182,0.418775 0.477738,0.321399 0.157558,-0.09738 0.28647,-0.02454 0.28647,0.161837 0,0.489673 -0.817299,0.416409 -1.256355,-0.112624 z M 81.92,79.68 c 0,-0.176 0.152499,-0.32 0.338886,-0.32 0.186388,0 0.249888,0.144 0.141114,0.32 C 82.291226,79.856 82.138726,80 82.061114,80 81.983501,80 81.92,79.856 81.92,79.68 Z m 20.48,0.194237 c 0,-0.06917 0.22348,-0.21152 0.49662,-0.316336 0.28478,-0.109277 0.41322,-0.05563 0.30111,0.125763 -0.18792,0.304067 -0.79773,0.449744 -0.79773,0.190573 z m 9.68,-0.420071 c -0.396,-0.07627 -0.72,-0.263715 -0.72,-0.416534 0,-0.433523 1.24425,-0.232362 1.42161,0.229837 0.0871,0.226893 0.12682,0.392921 0.0884,0.368953 -0.0385,-0.02397 -0.39396,-0.105984 -0.78996,-0.182256 z M 80.127142,78.880074 C 80.738592,78.417242 81.28,78.501216 81.28,79.058886 c 0,0.165613 -0.396,0.296535 -0.88,0.290938 -0.833802,-0.0096 -0.848128,-0.0343 -0.272858,-0.46975 z M 104.32,79.04 c 0,-0.176 0.2965,-0.32 0.65889,-0.32 0.36238,0 0.56988,0.144 0.46111,0.32 -0.10877,0.176 -0.40527,0.32 -0.65889,0.32 -0.25361,0 -0.46111,-0.144 -0.46111,-0.32 z M 79.046419,78.552266 c 0.222631,-0.268253 0.470682,-0.421834 0.551226,-0.34129 0.221917,0.22192 -0.228976,0.829024 -0.615712,0.829024 -0.212192,0 -0.187914,-0.18361 0.06449,-0.487734 z M 81.388,78.06 c -0.138352,-0.691763 -0.296,-0.88 -0.536,-0.64 -0.442918,0.442918 -1.258659,0.439981 -1.110666,-0.004 0.06307,-0.1892 0.196935,-0.2972 0.297485,-0.24 0.100547,0.0572 0.408839,-0.08358 0.685088,-0.312848 0.427443,-0.354746 0.53969,-0.307072 0.753453,0.32 0.138147,0.405267 0.260464,0.808848 0.271811,0.896848 0.01133,0.088 0.134922,0.34 0.274615,0.56 0.146169,0.230202 0.106732,0.4 -0.0929,0.4 -0.190787,0 -0.435088,-0.441002 -0.542886,-0.98 z m 20.80243,0.486198 c -0.10423,-0.27159 -0.11799,-0.565302 -0.0306,-0.652691 0.0874,-0.08739 0.2357,0.134819 0.32958,0.493802 0.19941,0.762537 -0.0222,0.880285 -0.29898,0.158889 z M 106.29052,78.08 c 0,-0.44 0.0726,-0.62 0.16141,-0.4 0.0888,0.22 0.0888,0.58 0,0.8 -0.0888,0.22 -0.16141,0.04 -0.16141,-0.4 z M 75.626666,77.934077 c 0,-0.256259 0.122348,-0.390307 0.271888,-0.297888 0.149536,0.09242 0.18904,0.302083 0.08778,0.465923 -0.258759,0.418682 -0.359667,0.371539 -0.359668,-0.168035 z m 2.423772,-0.08052 c -0.419196,-0.53378 -0.40744,-0.540269 0.169476,-0.09356 0.566908,0.43896 0.60111,0.429882 0.4,-0.106173 C 78.49896,77.331434 78.4,76.920026 78.4,76.73959 c 0,-0.180435 -0.216,-0.245177 -0.48,-0.143868 -0.968893,0.371798 -0.443898,-0.118228 0.738922,-0.689703 0.958192,-0.462947 1.297388,-0.504925 1.585747,-0.196237 0.27824,0.29786 0.250336,0.437386 -0.115546,0.577786 -0.312083,0.11976 -0.401485,0.05424 -0.253248,-0.185613 0.155165,-0.251062 0.0488,-0.301523 -0.329552,-0.156336 C 79.239056,76.06353 78.858998,76.16 78.701747,76.16 c -0.158345,0 -0.141363,0.380176 0.03806,0.852109 0.403581,1.061494 -0.06622,1.634937 -0.689373,0.841453 z m -3.738,-0.362023 c -0.311324,-0.197577 -0.254649,-0.397043 0.24,-0.844694 C 74.917146,76.316787 75.2,76.222246 75.2,76.430403 75.2,76.633683 75.056,76.8 74.88,76.8 c -0.176,0 -0.32,0.152499 -0.32,0.338886 0,0.186388 0.144,0.249888 0.32,0.141114 0.176,-0.108774 0.32,-0.04527 0.32,0.141114 0,0.401686 -0.324976,0.427472 -0.887562,0.07043 z m 28.039522,-0.793657 c 0.19937,-0.240221 0.29174,-0.507517 0.20526,-0.593991 -0.0865,-0.08647 0.0451,-0.157225 0.29227,-0.157225 0.5712,0 0.30354,0.741484 -0.35949,0.995916 -0.39307,0.150832 -0.4227,0.0983 -0.13804,-0.2447 z m 1.28122,0.02093 c 0.42641,-0.426404 1.64682,-0.563754 1.64682,-0.185332 0,0.146586 -0.18,0.27754 -0.4,0.291005 -0.22,0.01347 -0.67082,0.07549 -1.00182,0.137824 -0.44263,0.08336 -0.50744,0.01894 -0.245,-0.243488 z M 108.16,76.8 c -0.28841,-0.186387 -0.32788,-0.312157 -0.0989,-0.315101 0.20962,-0.0026 0.47012,0.139101 0.57889,0.315101 0.24554,0.39729 0.13476,0.39729 -0.48,0 z m -2.24,-0.32 c 0,-0.176 0.1525,-0.32 0.33889,-0.32 0.18638,0 0.24988,0.144 0.14111,0.32 -0.10877,0.176 -0.26127,0.32 -0.33889,0.32 -0.0776,0 -0.14111,-0.144 -0.14111,-0.32 z M 75.757222,76.102947 c 0.218474,-0.265008 0.326474,-0.552582 0.24,-0.639056 -0.08647,-0.08647 0.05878,-0.157225 0.322778,-0.157225 0.706355,0 0.584192,0.455299 -0.24,0.894467 -0.627603,0.334416 -0.669024,0.321814 -0.322778,-0.09819 z m 36.389618,0.03576 c -0.11601,-0.187708 -0.1423,-0.40992 -0.0584,-0.493801 0.0839,-0.08388 0.23777,0.0697 0.342,0.341289 0.21637,0.563876 0.032,0.66306 -0.28359,0.152512 z M 77.12,76.039181 c 0,-0.06645 0.252,-0.318448 0.56,-0.56 C 78.187539,75.081142 78.198858,75.092461 77.800819,75.6 77.382781,76.13304 77.12,76.302554 77.12,76.039181 Z M 110.40078,75.84 c -0.26185,-0.842176 -0.23509,-1.322307 0.0574,-1.029824 0.1836,0.183603 0.25699,0.526422 0.16308,0.761824 -0.0939,0.235398 -0.19312,0.356 -0.22048,0.268 z M 108.48,75.181114 c 0,-0.186388 0.16847,-0.234765 0.37438,-0.107504 0.2613,0.161491 0.3039,0.04637 0.14104,-0.381117 -0.17801,-0.467264 -0.1444,-0.524259 0.14174,-0.240375 0.20629,0.204663 0.27832,0.528663 0.16007,0.72 -0.27534,0.445504 -0.81723,0.451469 -0.81723,0.009 z M 76.932669,74.835776 c -0.138013,-0.223309 -0.09335,-0.289248 0.110557,-0.163226 0.188163,0.116292 0.415043,0.03053 0.504179,-0.190556 0.116,-0.287725 0.169251,-0.293661 0.187331,-0.02086 0.03651,0.550681 -0.529792,0.815212 -0.802067,0.374662 z M 78.08,74.541114 c 0,-0.186388 0.144,-0.249888 0.32,-0.141114 0.176,0.108774 0.32,0.261274 0.32,0.338886 0,0.07761 -0.144,0.141114 -0.32,0.141114 -0.176,0 -0.32,-0.152499 -0.32,-0.338886 z m 28.63677,-0.306333 c -0.11054,-0.178871 -0.35729,-0.228621 -0.54833,-0.110557 -0.2123,0.131213 -0.25483,0.065 -0.10939,-0.17032 0.18219,-0.29479 0.34371,-0.297194 0.68944,-0.01027 0.45286,0.37584 0.57398,0.616355 0.3104,0.616355 -0.0776,0 -0.23157,-0.146349 -0.34212,-0.325219 z"
         id="eye3" />
      <path
         style="display:inline;fill:#1b0f03;stroke-width:0.32"
         d="m 65.92,121.97927 c 0,-0.1434 -0.789562,-0.30351 -1.397879,-0.59359 -1.036227,-0.49414 -3.870838,-4.22363 -3.552876,-4.54159 0.07986,-0.0799 -0.352218,-0.2241 -0.563805,-0.47906 -0.471622,-0.56827 -0.74655,-1.71732 -1.194666,-2.71367 -0.247872,-0.55111 -0.478511,-1.0999 -0.150328,-2.08 0.245193,-0.73225 0.484412,-1.87924 0.610866,-2.46959 0.126458,-0.59035 0.740812,-1.58545 1.087792,-2.36986 0.523475,-1.18341 0.77474,-1.97675 1.159831,-1.65715 0.712922,0.59167 0.531028,0.76803 -0.11511,-0.0299 -0.554313,-0.68455 -0.941931,0.53935 -0.466502,-0.0297 0.845607,-1.01209 -0.819083,1.57082 -1.250024,3.01726 -0.417829,1.40243 -1.167673,3.17557 -1.431494,3.96757 -0.263821,0.792 -0.01396,2.61504 -0.337157,3.80971 l -0.473611,2.40214 -1.251884,-1.37728 c -4.161472,-4.57832 -5.00027,-10.38545 -4.13171,-13.31457 0.156567,-0.528 0.01368,-1.78828 0.118453,-2.40428 0.122684,-0.72133 1.042334,-1.309598 1.9382,-2.239378 0.76505,-0.794009 1.267369,-2.124927 1.631504,-2.838687 0.364134,-0.713764 0.930511,-1.52606 1.218978,-1.765465 0.820291,-0.680784 1.650183,-1.593931 1.14779,-1.590814 -0.224519,0.0013 -0.381024,0.994825 -1.338637,2.445433 -0.957609,1.450608 -2.550951,3.188186 -3.302951,3.980186 -0.752,0.792 -2.113516,2.199575 -3.02559,3.167575 -1.284144,1.36288 -2.480284,2.16319 -2.29637,1.5437 0.458326,-1.54381 0.654593,-9.486496 0.257416,-11.261274 -0.211082,-0.943226 -1.27095,-2.960146 -2.157084,-4.838754 -1.541642,-3.268275 -1.310005,-4.081554 -1.103752,-5.904606 0.3123,-2.760359 1.515908,-5.237694 3.107547,-7.065486 3.798848,-4.362499 4.861949,-5.715017 5.723975,-7.397718 1.296307,-2.530432 1.286991,-2.330375 -0.116762,0.179769 -0.626503,1.120288 -1.504398,2.47093 -1.871611,2.803253 -0.367212,0.332323 -0.869702,1.424086 -1.512982,2.307235 -0.64328,0.883152 -2.214401,1.92945 -2.976142,2.72145 -0.761737,0.792 -1.518816,2.144129 -1.95983,2.885828 C 45.259416,79.398613 43.108662,80.64 42.44223,80.64 c -0.483449,0 -0.635715,-1.396667 0.498727,-3.761784 2.84072,-5.922394 3.934462,-9.608661 4.409735,-17.038216 0.353063,-5.519101 1.163995,-10.383537 1.394297,-11.36 0.699749,-2.96688 3.39508,-6.33145 5.237624,-7.494599 0.655232,-0.413629 1.478177,-0.811315 1.726283,-1.0587 0.536566,-0.535002 2.829193,-1.320775 2.829193,-0.984823 0,0.128944 -0.08751,1.261879 -0.424654,2.22378 -0.740138,2.11169 -1.913233,5.33484 -1.627377,5.620696 0.370444,0.370445 0.811481,-0.817721 1.037939,-2.327842 0.233571,-1.557559 2.870951,-10.085858 3.703411,-11.723368 0.767232,-1.509205 3.179216,-4.086063 4.315849,-4.40072 0.569312,-0.157603 1.75759,0.05738 2.244278,0.121028 3.536429,0.462505 6.520976,0.500626 9.041482,0.538128 1.768102,0.02631 3.749496,0.361199 4.425167,0.643512 1.314502,0.549234 2.074271,1.758304 1.51869,2.313885 -0.278698,0.278697 -0.566852,0.463045 -0.27675,0.753151 0.298838,0.298838 0.327442,-0.28315 1.492255,-1.598726 0.823491,-0.930054 2.38605,-2.144158 3.313816,-2.737642 0.927764,-0.593483 2.720965,-1.994894 4.024524,-3.233147 1.974201,-1.875298 3.095615,-2.930068 7.198482,-5.020791 6.403619,-3.263126 8.948389,-4.090006 12.327119,-4.643926 3.96836,-0.650584 6.52611,-0.219788 7.20513,0.530517 0.52607,0.581304 0.34153,0.837894 -0.67255,1.607903 -0.58334,0.442943 -2.06862,1.490729 -3.30062,2.130244 -1.232,0.639515 -2.51701,1.53738 -3.13301,2.114157 -0.616,0.576777 -1.92656,1.48521 -2.67456,2.058372 -2.41474,1.850318 -1.97459,1.762713 1.89752,0.879008 4.9949,-1.139951 7.433,-1.434131 10.69794,-1.430911 3.62285,0.0036 5.44791,0.428226 7.78613,1.621099 0.70685,0.360605 2.30621,0.78696 3.51451,1.105992 2.54009,0.670671 2.65227,1.196335 4.11948,2.787516 1.50721,1.315239 1.83376,0.762042 -0.15572,2.82571 -6.07158,5.961706 -8.18175,8.831198 -8.34214,13.222203 l -0.0949,2.598294 0.16034,-2.687948 c 0.16141,-2.705951 1.95955,-5.558919 2.47673,-5.386526 0.51487,0.171623 3.98496,6.578758 4.69097,8.906902 0.1868,0.616 0.87199,2.945283 1.36411,5.057283 0.79423,3.40855 0.73042,4.364316 0.71308,9.018908 0.0371,3.150599 0.11759,4.042289 0.66839,5.251381 0.61898,1.368771 0.94481,1.455446 0.61692,10.209186 -0.2122,5.66497 -0.21303,9.512824 0.69305,12.172014 0.57664,1.692362 0.43637,2.045088 -0.60175,1.513104 -2.00591,-1.027933 -3.71669,-2.223926 -4.10992,-3.655449 C 134.2344,87.42 134.2373,86.72 134.06081,86.72 c -0.68098,0 -0.24075,0.947729 0.56545,3.349342 1.73443,5.166787 2.19294,8.888383 1.44748,11.757648 -0.18291,0.704 -0.45097,1.83072 -0.63532,2.62272 -0.18435,0.792 -1.27726,2.12113 -1.8738,3.11215 -0.59654,0.99102 -1.08462,1.96459 -1.08462,2.16349 0,0.19889 0.53191,1.43596 -0.10842,2.06103 l -1.34067,1.60214 -1.07022,-1.78291 c -0.52131,-0.86844 -0.53246,-2.12296 -1.31278,-2.80561 -0.70413,-0.616 -2.64237,-1.99257 -3.87123,-3.13832 -1.22885,-1.14576 -2.00294,-1.7776 -2.18419,-1.71718 -0.71986,0.23995 -0.51844,-0.85633 2.47566,-3.94036 5.34838,-5.509038 6.41748,-8.504969 5.19256,-13.195145 -0.50088,-1.917827 -0.39772,-2.194559 0.25692,-4.129711 0.97376,-2.878505 0.97835,-6.134502 0.30905,-9.556719 -0.30309,-1.549741 -0.53374,-3.120614 -0.71073,-3.451196 -0.18922,-0.35345 -0.36567,-1.639448 -0.0441,-2.849839 l 0.53709,-2.021783 -2.69702,-1.652484 c -1.35653,-0.831158 -2.25166,-2.642282 -2.77744,-3.297155 -0.52578,-0.654877 -0.70789,-1.34189 -0.84067,-1.209625 -0.44834,0.446608 0.93572,1.587932 3.02201,3.920842 l 2.12421,2.375315 0.009,2.33168 c 0.005,1.282422 0.68559,3.783961 1.07671,5.519334 0.8326,3.694195 1.07754,5.80525 0.4108,8.633931 -0.5269,2.235408 -1.38673,3.335746 -2.00096,3.100046 -0.2814,-0.107984 -0.16806,-0.203811 -0.16806,0.951363 0,1.312461 0.1134,2.377136 -0.75253,2.731038 l -1.20651,0.493098 -0.51708,-2.28568 c -0.54164,-2.39425 -1.38087,-5.469859 -2.68477,-7.026924 -0.41245,-0.492531 -1.7771,-1.988845 -2.94847,-3.269091 -2.36878,-2.588954 -3.19602,-4.4679 -3.46092,-7.816268 -0.27496,-3.475655 -0.61656,-6.203997 -1.10258,-7.14384 -0.73694,-1.425091 -2.65953,-3.214797 -3.67664,-3.364077 -1.18419,-0.173801 -0.7813,-0.217116 0.56601,0.234941 1.35091,0.453255 4.31704,3.704592 3.66256,4.891454 l -0.0649,1.271227 -1.43127,-0.914321 c -1.67659,-1.071034 -1.75076,-1.291664 -3.1934,-0.858781 -0.79724,0.239222 -2.53203,0.205569 -4.33345,0.118788 -2.68416,-0.129309 -3.36472,-0.605185 -4.12464,-1.398369 -0.45726,-0.477274 -0.88702,-1.209023 -0.95503,-1.546837 -0.39056,-1.939344 -0.67715,-2.787093 -2.70391,-4.276846 -0.679933,-0.49978 -2.005299,-1.460382 -2.571495,-2.645214 -0.984185,-2.05953 -0.947309,-2.390586 -2.938646,-2.390586 -1.348528,0 -1.179338,-0.02598 0.295434,0.213735 0.657497,0.106871 1.285833,0.816954 1.515203,1.062717 0.666816,0.714468 2.68734,3.952708 2.906434,4.962461 0.110314,0.50841 0.312985,1.316809 0.410745,1.756809 0.572615,2.577229 0.418389,5.340816 -0.262398,7.58216 -0.570553,1.878419 -0.918201,2.720302 -2.483689,4.463947 -1.05343,1.173325 -2.483432,2.439176 -2.979598,3.011176 -0.49617,0.572 -1.268186,1.137284 -1.557053,1.137284 -0.643619,0 -1.295837,-1.378982 -0.778579,-5.412349 0.608294,-4.743212 0.0395,-7.263943 -2.341204,-7.670446 C 84.678658,60.63693 84.415088,60.165526 82.462429,58.702464 81.372093,57.88551 79.997865,56.95768 79.765296,56.521715 79.23231,55.522608 79.753658,53.61345 80.52735,52.712163 L 81.12,52.021779 80.325942,52.525974 c -0.873788,0.554823 -1.015575,2.163652 -0.739329,3.537328 0.09548,0.474816 0.603374,1.11251 1.144235,1.641304 0.922765,0.902173 0.935278,1.412035 0.551998,2.33735 -0.57119,1.378976 -2.01304,2.609127 -3.791524,2.861223 -2.221731,0.314925 -4.854114,0.785279 -5.774616,1.364181 -0.807014,0.507533 -1.941316,1.486501 -2.024209,1.782351 -0.02467,0.088 -0.96955,0.966913 -1.505249,2.111675 -1.187594,2.537833 -1.220175,4.824211 -1.337029,8.032969 -0.109063,2.994807 -1.022476,6.793684 -1.804947,7.788436 -0.583849,0.742243 -1.364498,0.510215 -1.914389,-2.631589 -0.701565,-4.008378 -1.414995,-7.81924 -1.985539,-8.00942 -0.308637,-0.10288 -0.386797,0.03481 -0.258512,0.455376 1.791379,5.872877 2.99238,9.93934 2.396854,11.491296 -0.197546,0.514816 -1.072186,1.214564 -1.666202,1.872071 -1.205916,1.334803 -1.545902,4.001001 -1.155742,6.470896 0.276934,1.753126 3.091896,7.370329 3.976446,7.973159 0.377351,0.25717 2.086518,1.28336 3.758518,2.39932 1.672,1.11597 3.246648,2.64725 3.301045,2.92724 0.0544,0.28 -0.259486,1.44091 -0.618247,2.18347 -0.358765,0.74255 -0.811273,2.00221 -1.084848,3.07668 -0.273571,1.07446 -1.127767,2.95308 -1.660407,4.09545 -0.593981,1.27392 -0.813763,3.01364 -0.928483,4.24214 -0.102871,1.10163 -0.861491,1.71112 -1.012038,1.71112 -0.15055,0 -0.273728,-0.11733 -0.273728,-0.26073 z m 0.696299,-45.52742 c 0,-0.352 0.727701,-0.93185 0.903701,-0.93185 0.176,0 0.32,-0.204 0.32,-0.453334 0,-0.249332 0.108,-0.501332 0.24,-0.56 0.132,-0.05867 0.244035,-0.851949 0.764208,-1.643949 1.323308,-2.014826 2.927575,-3.423837 4.787444,-4.354567 0.879251,-0.44 1.638209,-0.887907 1.726209,-0.99535 0.343853,-0.419821 2.25768,-1.46014 3.380381,-1.670758 1.107068,-0.207689 1.346472,0.429827 2.853796,1.929248 0.884381,0.87974 2.061952,2.148228 2.061952,2.343252 0,0.223242 -1.22169,0.359069 -2.581562,0.366678 -4.90497,0.02746 -6.870604,0.651177 -10.099926,3.412061 -1.274598,1.089705 -2.538106,2.071147 -2.649258,2.379147 -0.274768,0.761376 -1.706945,0.968308 -1.706945,0.179422 z m 43.740161,-5.882052 c -0.27923,-0.279238 -6.76453,-0.795792 -8.57163,-0.967659 L 100.08,69.44 l 0.13704,-0.87979 c 0.23431,-1.504213 0.63239,-2.193151 2.79536,-2.574153 3.10946,-0.547718 6.25452,0.08488 8.63731,1.701255 1.91114,1.29641 3.07671,2.605052 3.07671,3.098128 0,0.270016 -4.10729,0.04703 -4.36996,-0.215642 z"
         id="hair1" />
      <path
         style="display:inline;fill:#403f40;stroke-width:0.32"
         d="m 64.628512,121.84133 c -1.13768,-0.72147 -2.239507,-1.53891 -2.448506,-1.81655 -0.98176,-1.30417 -3.503779,-6.76473 -3.372462,-7.20284 0.279237,-0.93161 1.037061,1.83309 1.282354,2.42698 0.192844,0.4669 0.505856,0.94485 0.695584,1.06211 0.189728,0.11725 0.278406,0.32087 0.197065,0.45249 -0.27343,0.44242 2.714058,3.89475 3.831424,4.42759 0.608317,0.29008 1.106029,0.64476 1.106029,0.78816 0,0.1434 0.123178,0.26073 0.273728,0.26073 0.150547,0 0.357894,-0.90134 0.460765,-2.00297 0.11472,-1.2285 0.561497,-2.80608 1.155478,-4.08 0.53264,-1.14237 1.192269,-2.95614 1.46584,-4.0306 0.273575,-1.07447 0.790938,-2.56112 1.149703,-3.30367 0.358761,-0.74256 0.607788,-1.57919 0.553392,-1.85919 -0.0544,-0.27999 -1.466906,-1.42214 -3.138906,-2.53811 -1.672,-1.11596 -3.348739,-2.23943 -3.72609,-2.4966 -0.88455,-0.60283 -3.861651,-6.641596 -4.138585,-8.394722 -0.39016,-2.469895 0.111965,-4.811815 1.317881,-6.146618 0.594016,-0.657507 1.241661,-1.616678 1.439207,-2.131494 0.595526,-1.551956 -0.0542,-5.585991 -1.845581,-11.458868 -0.128285,-0.420569 -0.05013,-0.558256 0.258512,-0.455376 0.570544,0.19018 1.705536,3.936186 2.407101,7.944564 0.549891,3.141804 0.552272,3.146838 1.136121,2.404595 0.782471,-0.994752 1.566173,-4.501779 1.675236,-7.496586 0.115974,-3.184589 0.634816,-5.492921 1.78903,-7.959424 0.516771,-1.10431 0.975245,-2.112934 1.018829,-2.241385 0.126233,-0.372016 1.316781,-1.469914 2.188339,-2.018036 0.920502,-0.578902 3.942019,-1.43839 6.16375,-1.753315 1.778484,-0.252096 2.866887,-1.007632 3.438077,-2.386608 0.38328,-0.925315 0.347837,-1.045369 -0.574928,-1.947542 -0.540861,-0.528794 -1.061507,-1.349927 -1.156992,-1.824743 -0.276246,-1.373676 0.222247,-2.982505 1.096035,-3.537328 L 81.12,52.021779 80.52735,52.712163 c -0.773692,0.901287 -1.00319,2.713162 -0.470204,3.712269 0.232569,0.435965 1.314947,1.461078 2.405283,2.278032 1.952659,1.463062 2.281085,1.57776 6.657571,2.32503 2.380707,0.406503 3.371059,3.28394 2.762765,8.027152 -0.517258,4.033367 -0.481168,5.185354 0.162451,5.185354 0.288867,0 0.931171,-0.468 1.427341,-1.04 0.496166,-0.572 1.764029,-1.99999 2.817469,-3.173315 1.565488,-1.743645 2.042848,-2.553101 2.613401,-4.43152 C 99.584214,63.353821 99.641158,60.817229 99.068541,58.24 98.970781,57.8 98.800538,57.024029 98.690224,56.515619 98.47113,55.505866 96.807312,52.267626 96.140496,51.553158 95.911126,51.307395 95.185507,51.018874 94.52801,50.912003 93.053238,50.672285 92.657053,49.92 94.005581,49.92 c 1.991337,0 2.797584,0.558051 3.781769,2.617581 0.566196,1.184832 1.372717,2.275145 2.05265,2.774925 2.02676,1.489753 2.67006,2.402358 3.06048,4.341702 0.068,0.337814 0.49777,1.004707 0.95503,1.481981 0.75992,0.793184 1.08377,0.879926 3.76793,1.009235 1.80142,0.08678 3.43893,-0.0093 4.23617,-0.248499 1.44264,-0.432883 1.96242,-0.267885 3.42039,1.085776 l 0.88,0.817037 v -0.979376 c 0,-1.355354 -2.08465,-4.146349 -3.43554,-4.599604 -1.34731,-0.452057 -1.58807,-0.862732 -0.40387,-0.688931 1.0171,0.14928 3.26397,2.165981 4.00091,3.591072 0.48601,0.939843 0.98975,3.862752 1.26471,7.338407 0.2649,3.348368 0.95524,4.904665 3.32402,7.493619 1.17138,1.280246 2.46723,2.730701 2.87968,3.223232 1.3039,1.557065 2.55247,4.790371 2.79319,7.233293 l 0.22522,2.28568 0.81738,-0.817376 c 0.66147,-0.661466 0.81738,-1.126727 0.81738,-2.439188 0,-1.155174 0.11367,-1.578192 0.39506,-1.470208 0.61423,0.2357 1.02008,-0.475504 1.54698,-2.710912 0.66673,-2.828681 0.61635,-4.810025 -0.21624,-8.50422 -0.39112,-1.735373 -0.71512,-4.204484 -0.72,-5.486906 l -0.009,-2.33168 -2.25392,-2.14832 c -2.26547,-2.159331 -3.34063,-3.701229 -2.89229,-4.147837 0.13277,-0.132265 0.6716,0.295325 1.19737,0.950202 0.52579,0.654873 1.89237,2.094816 3.03686,3.199872 l 2.08089,2.00919 -0.2128,2.119066 c -0.12515,1.246105 -0.0803,2.366678 0.10898,2.720128 0.17698,0.330582 0.56977,1.869027 0.87286,3.418768 0.6693,3.422217 0.50257,6.872781 -0.47119,9.751286 -0.65464,1.935152 -0.6605,2.082173 -0.15963,4 1.22492,4.690176 -0.0387,7.815818 -5.38713,13.324855 -2.9941,3.08403 -3.5103,3.72958 -2.79044,3.48963 0.18126,-0.0604 1.33498,0.82758 2.56383,1.97334 1.22886,1.14575 2.8104,2.58718 3.51452,3.20318 0.78032,0.68265 1.50821,1.72757 1.86405,2.6759 l 0.58381,1.55591 0.69211,-1.47242 c 0.38066,-0.80983 0.69211,-1.63515 0.69211,-1.83404 0,-0.1989 0.48808,-1.17247 1.08462,-2.16349 0.59654,-0.99102 1.23546,-2.44986 1.41981,-3.24186 0.18435,-0.792 0.48484,-2.016 0.66775,-2.72 0.74546,-2.86927 0.31938,-6.331443 -1.41505,-11.49823 -0.8062,-2.401613 -0.8573,-3.38177 -0.17632,-3.38177 0.17649,0 0.43301,0.40815 0.57004,0.907005 0.39323,1.431523 1.84459,2.919366 3.8505,3.947299 1.03812,0.531984 1.17839,0.179258 0.60175,-1.513104 -0.90608,-2.65919 -1.22953,-6.539472 -1.01733,-12.204442 0.32789,-8.75374 0.32634,-8.807987 -0.29264,-10.176758 -0.48184,-1.065533 -0.61513,-1.178838 -0.79552,-0.676237 -0.11918,0.332071 -0.20789,-1.755929 -0.19715,-4.64 0.0173,-4.654592 -0.081,-5.675213 -0.87522,-9.083763 -0.49212,-2.112 -1.0476,-4.344 -1.2344,-4.96 -0.70601,-2.328144 -3.81939,-8.702851 -4.33426,-8.874474 -0.51718,-0.172393 -1.71305,2.846855 -2.18488,5.516237 l -0.45219,2.558237 0.0949,-2.598294 c 0.16039,-4.391005 1.94628,-7.35778 8.01786,-13.319486 l 1.5723,-1.543841 -1.0923,-1.184586 c -1.46721,-1.591181 -1.7091,-1.727711 -4.24919,-2.398382 -1.2083,-0.319032 -2.77523,-0.875098 -3.48208,-1.235703 -4.14932,-2.116825 -9.40232,-2.143367 -18.38679,-0.09291 -3.87211,0.883705 -4.66897,0.355181 -2.25423,-1.495137 0.748,-0.573162 1.864,-1.514022 2.48,-2.090799 0.616,-0.576777 2.128,-1.571926 3.36,-2.211441 1.232,-0.639515 2.71728,-1.525162 3.30062,-1.968105 1.01408,-0.770009 1.03648,-0.832032 0.51041,-1.413336 -0.67902,-0.750305 -2.62064,-0.791967 -6.589,-0.141383 -3.37873,0.55392 -5.66408,1.445656 -12.067691,4.708782 -4.102867,2.090723 -5.321565,2.88607 -7.295766,4.761368 -1.303559,1.238253 -3.129187,2.736948 -4.056951,3.330431 -0.927766,0.593484 -2.360614,1.840015 -3.184105,2.770069 -1.164813,1.315542 -1.582551,1.605714 -1.881389,1.306876 -0.290106,-0.290106 -0.293802,-0.474454 -0.0151,-0.753151 0.555581,-0.555581 -0.07448,-1.472801 -1.388979,-2.022035 -0.676821,-0.282849 -2.296821,-0.486846 -4.068315,-0.51231 C 75.404614,29.393354 73,29.246768 71.68,29.090879 70.36,28.93499 68.437933,28.737968 67.408736,28.653051 l -1.871261,-0.154394 -1.743923,1.670671 C 62.834394,31.088198 61.850141,32.272 61.606326,32.8 c -0.879504,1.90464 -3.63638,10.328435 -3.85303,11.773162 -0.229741,1.532028 -0.898195,2.788604 -1.280218,2.406582 -0.382214,-0.382214 0.757744,-5.145981 1.94242,-8.117152 0.62776,-1.574426 1.432566,-3.781037 1.78846,-4.903581 0.465799,-1.4692 1.062941,-2.485581 2.131488,-3.627944 2.504349,-2.677354 3.382682,-2.875653 8.969997,-2.025134 1.641994,0.24995 3.181168,0.379347 3.420391,0.287549 0.638076,-0.244853 5.978195,0.462546 6.357865,0.842218 0.178365,0.178365 0.587066,0.3243 0.908221,0.3243 0.342208,0 0.723021,0.364275 0.919955,0.88 l 0.336035,0.88 0.877914,-0.979988 c 0.482851,-0.538993 1.944672,-1.831139 3.248493,-2.871434 1.303817,-1.040295 3.250313,-2.687301 4.325545,-3.660012 1.075232,-0.972711 2.878634,-2.200566 4.007552,-2.728566 1.128922,-0.528 2.127876,-1.059572 2.219895,-1.18127 0.229488,-0.303502 5.795791,-3.038188 7.800511,-3.83234 2.06201,-0.816845 7.39742,-1.86639 9.48787,-1.86639 3.43598,0 4.61788,1.944259 2.29855,3.781201 -0.66317,0.525239 -1.92317,1.289455 -2.8,1.698258 -1.45304,0.677445 -6.06393,4.077519 -5.83714,4.30431 0.0527,0.05271 2.18092,-0.253271 4.72937,-0.679953 7.4202,-1.24235 11.47934,-1.015323 15.14418,0.847012 1.07454,0.546041 2.88091,1.186799 4.01417,1.423907 1.80255,0.377142 2.27418,0.642166 3.76782,2.117254 0.93905,0.927382 1.70736,1.832378 1.70736,2.011103 0,0.178724 -0.9,1.200366 -2,2.270316 -2.9435,2.863085 -5.5576,5.686384 -5.71856,6.176192 -0.0776,0.236282 0.30116,0.898611 0.84179,1.471843 0.54062,0.573232 1.60373,2.467911 2.36246,4.210397 0.75872,1.74249 1.57129,3.567162 1.80571,4.054826 0.24613,0.512048 0.35005,1.35591 0.24597,1.997292 -0.0991,0.610845 -0.0384,1.291844 0.13498,1.513335 0.79241,1.012358 1.73145,6.840352 1.66328,10.322707 -0.0363,1.852867 0.11803,3.422099 0.43267,4.4 0.14979,1.135898 0.53034,1.862373 0.95238,2.828794 -0.0399,3.896186 -0.21213,7.693136 -0.19508,10.531206 0.0445,6.400797 0.19247,7.663101 1.30251,11.110346 0.29582,0.918691 0.45154,1.756672 0.34603,1.862179 -0.22713,0.227129 -2.81414,-0.502954 -2.81414,-0.794183 0,-0.26703 -1.92772,-1.397296 -2.09605,-1.228963 -0.0725,0.07246 0.24235,1.490487 0.69956,3.151181 0.71292,2.58944 0.8025,3.400864 0.62908,5.697789 -0.11122,1.473091 -0.30389,2.841091 -0.42815,3.040001 -0.12426,0.19891 -0.26944,0.6415 -0.32262,0.98354 -0.0532,0.34204 -0.29759,1.02459 -0.54313,1.51678 -0.24553,0.49219 -0.54144,1.32748 -0.65756,1.8562 -0.11613,0.52873 -0.39958,1.07018 -0.62989,1.20322 -0.2303,0.13305 -0.66032,0.96191 -0.95559,1.84191 -0.54945,1.63753 -1.78942,4.35311 -2.1187,4.64 -0.10099,0.088 -0.28011,0.42113 -0.39803,0.74028 -0.35689,0.96595 -0.85892,0.26958 -0.85892,-1.19141 0,-1.57314 -0.54948,-3.38887 -1.02554,-3.38887 -0.17761,0 -0.24357,-0.20681 -0.14658,-0.45958 0.20033,-0.52204 -0.91902,-2.09975 -1.49111,-2.1017 -0.20722,-6.4e-4 -1.16081,-0.71188 -2.11908,-1.58038 -0.95827,-0.8685 -1.8693,-1.50061 -2.02451,-1.40469 -0.15521,0.0959 -0.56606,-0.13028 -0.91301,-0.50268 -0.50175,-0.53857 -0.75861,-0.6087 -1.25549,-0.34277 -0.34357,0.18387 -0.62468,0.51006 -0.62468,0.72485 0,0.2148 -0.51831,0.82173 -1.15181,1.34874 -0.63349,0.52702 -1.35505,1.35008 -1.60347,1.82903 -0.24842,0.47896 -0.93408,1.19896 -1.5237,1.6 -0.58962,0.40105 -1.87184,1.42718 -2.84939,2.28029 -0.97754,0.85311 -1.87247,1.52765 -1.98873,1.49898 -0.11625,-0.0287 -0.45246,0.21932 -0.74714,0.5511 -0.57292,0.64507 -1.48736,1.1178 -2.34234,1.21089 -0.28961,0.0315 -1.72961,0.78993 -3.2,1.68532 -3.15086,1.91872 -3.94193,2.15506 -5.596143,1.67185 -0.680503,-0.19877 -2.389277,-0.66021 -3.797277,-1.02542 -1.408,-0.3652 -3.64,-1.202 -4.96,-1.85954 -1.32,-0.65754 -2.968422,-1.38005 -3.663158,-1.60557 -1.572186,-0.51036 -10.980135,-5.28766 -13.119492,-6.66201 -0.870457,-0.55919 -1.681865,-1.01671 -1.803129,-1.01671 -0.121264,0 -0.319431,0.792 -0.440375,1.76 -0.120944,0.968 -0.347011,1.76 -0.502371,1.76 -0.155363,0 -0.377325,0.50559 -0.493251,1.12354 -0.115926,0.61794 -0.329008,1.1966 -0.473514,1.28591 -0.252838,0.15626 -1.320361,3.32293 -1.453142,4.31055 -0.03549,0.264 -0.279638,0.984 -0.542547,1.6 -0.262909,0.616 -0.579482,1.87584 -0.703498,2.79964 -0.124013,0.92381 -0.325161,1.74125 -0.446989,1.81655 -0.12183,0.0753 -1.152339,-0.4534 -2.290022,-1.17486 z m 38.949128,-4.84092 c 0.8632,-0.59378 2.13936,-1.37765 2.83591,-1.74194 0.69655,-0.36429 2.59869,-1.81284 4.22697,-3.21901 1.62829,-1.40616 3.26251,-2.65251 3.6316,-2.76965 0.77425,-0.24574 1.31107,-0.75195 2.79477,-2.63545 0.58679,-0.74489 1.18954,-1.35436 1.33945,-1.35436 0.49559,0 2.95713,-2.30081 6.79155,-6.34807 3.77894,-3.988692 4.77351,-5.656032 4.96428,-8.322301 0.0945,-1.321152 -6.4e-4,-2.677872 -0.23846,-3.398384 l -0.3958,-1.199299 -0.55876,1.234025 c -0.685,1.512816 -1.68722,2.447251 -2.46534,2.298592 -0.48587,-0.09283 -0.61755,-0.540403 -0.78495,-2.668051 -0.2158,-2.742912 -1.18008,-5.61905 -2.27866,-6.796512 -0.36947,-0.396 -0.56149,-0.72 -0.42672,-0.72 0.13477,0 -0.78975,-1.008445 -2.05449,-2.240986 -2.96983,-2.894214 -4.13737,-5.396451 -4.15033,-8.894905 -0.01,-2.640736 -0.43544,-3.718547 -1.98273,-5.020503 -0.92839,-0.781187 -1.18946,-0.84726 -2.49149,-0.630547 -0.79994,0.133143 -2.81941,0.206999 -4.48771,0.164128 -2.33034,-0.05989 -3.22288,-0.212966 -3.85147,-0.660563 -0.83157,-0.592131 -0.93906,-0.771987 -2.25938,-3.780666 -0.68901,-1.570076 -1.69911,-2.599395 -2.128994,-2.16951 -0.09807,0.09807 -0.01373,0.99775 0.187405,1.999296 0.578609,2.881085 0.442739,5.457725 -0.416102,7.891354 -0.853117,2.417408 -1.379863,3.17336 -4.559075,6.542902 -1.805892,1.914006 -2.36321,2.32 -3.184727,2.32 -1.132083,0 -1.110707,0.321149 -0.39976,-6.00663 0.36329,-3.233447 0.214355,-4.509204 -0.702912,-6.021053 -0.604451,-0.996259 -1.292973,-1.248298 -5.119645,-1.874061 -0.640672,-0.104768 -1.719577,-0.67703 -2.441587,-1.295043 l -1.293661,-1.107325 -0.18687,0.934349 c -0.282112,1.410563 -2.115264,3.123929 -3.600112,3.364867 -2.340534,0.379782 -5.223955,1.212128 -6.150019,1.775299 -1.210093,0.735901 -3.197187,4.361645 -3.940266,7.189597 -0.926985,3.52785 -0.747209,3.715286 1.004375,1.047178 1.210752,-1.844282 2.13246,-2.813495 3.76,-3.953802 2.365904,-1.657629 5.668716,-3.332726 6.571961,-3.333123 1.51192,-6.4e-4 4.249111,2.444755 4.578195,4.090182 L 83.92,70.72 h -2.579078 c -3.979389,0 -9.020922,1.262227 -9.020922,2.258528 0,0.177152 -0.276237,0.425456 -0.613859,0.551782 -0.337623,0.12633 -1.509514,1.077261 -2.604199,2.113184 -1.967782,1.862151 -1.995369,1.91249 -2.434355,4.442141 -0.244211,1.407255 -0.70943,2.93568 -1.033821,3.396506 -0.32439,0.460822 -0.686,1.125859 -0.80358,1.477859 -0.375453,1.124019 -2.363472,3.134074 -2.897165,2.929277 -0.308464,-0.118371 -0.685754,0.107389 -1.012266,0.605709 -0.409782,0.625408 -0.490653,1.363449 -0.380128,3.469206 0.122026,2.324909 0.311776,3.025427 1.450589,5.355299 0.720608,1.474282 1.719379,3.120939 2.219491,3.659249 0.887418,0.9552 5.730448,3.94561 8.250621,5.09449 0.693731,0.31625 2.178835,1.20315 3.300227,1.97089 1.121395,0.76773 2.22272,1.39588 2.447392,1.39588 0.224672,0 1.907568,0.76365 3.739773,1.697 1.832205,0.93335 4.33928,2.09852 5.57128,2.58927 1.232,0.49074 2.389622,1.01552 2.572496,1.16616 0.591283,0.48706 5.604726,2.22682 6.489334,2.25192 0.471994,0.0134 1.36217,0.21843 1.97817,0.45565 1.9473,0.7499 3.28887,0.58958 5.01764,-0.59959 z m -12.655749,-12.2288 c -1.29696,-0.61713 -2.286313,-1.19386 -2.198563,-1.2816 0.08775,-0.0877 1.25024,0.3511 2.583312,0.97522 2.889277,1.35271 3.962915,1.40118 6.838803,0.30873 2.713817,-1.03089 3.614557,-1.24949 3.614557,-0.87722 0,0.50028 -5.229712,2.024 -6.899056,2.01009 -1.125984,-0.009 -2.259555,-0.33607 -3.939053,-1.13522 z M 90.50191,95.835674 C 89.135456,94.771082 87.994509,93.12 88.625296,93.12 c 0.160368,0 0.380781,0.281059 0.489808,0.624576 0.344272,1.084698 2.706333,2.575424 4.080778,2.575424 1.03104,0 1.438384,-0.219802 2.520409,-1.36 0.709834,-0.748 1.438144,-1.756 1.618464,-2.24 C 97.689696,91.767293 98.24,91.533792 98.24,92.335891 c 0,0.840167 -0.859462,2.168355 -2.215718,3.424109 -1.792269,1.659456 -3.460186,1.68231 -5.522372,0.07567 z m -13.422563,-6.34378 c -2.291427,-0.639113 -7.84223,-4.883244 -7.546608,-5.770115 0.204615,-0.61384 0.814023,-0.553635 1.021779,0.100944 0.114855,0.361875 0.523072,0.822573 0.907152,1.023773 0.384084,0.2012 1.577069,1.060528 2.651082,1.909616 2.279894,1.802432 3.197059,2.203888 5.035005,2.203888 1.18976,0 4.315789,-0.734995 6.132243,-1.441821 0.570691,-0.22207 0.588016,-0.196233 0.16,0.238579 -0.57073,0.579789 -3.943222,1.764516 -5.662054,1.989028 -0.669872,0.0875 -1.88424,-0.02675 -2.698599,-0.253892 z M 103.25627,88.95281 c -1.50169,-0.187949 -2.07575,-0.438768 -2.95521,-1.291165 -0.600308,-0.581843 -1.020129,-1.129245 -0.932929,-1.216442 0.0872,-0.0872 0.598858,0.262957 1.137019,0.778125 0.93724,0.897203 1.10227,0.936525 3.91666,0.933155 3.63374,-0.0044 5.98009,-0.711712 8.05893,-2.429561 0.82992,-0.685805 1.62552,-1.246922 1.768,-1.246922 0.14249,0 0.56134,-0.489101 0.9308,-1.08689 0.8408,-1.360441 2.19852,-2.303052 2.65695,-1.844617 0.37859,0.378592 -3.57224,4.424157 -5.52349,5.655923 -2.2607,1.42712 -5.94338,2.138058 -9.05673,1.748394 z M 75.016326,86.559747 c -1.925001,-1.368045 -3.532096,-3.415126 -4.001014,-5.0964 l -0.35049,-1.256653 -0.456265,0.942087 c -0.45288,0.935094 -1.64433,1.922112 -1.950563,1.615878 -0.261005,-0.261005 1.666057,-2.867923 3.488851,-4.719693 2.705107,-2.748108 4.806061,-4.420819 6.013155,-4.787488 1.735005,-0.527024 6.528934,-0.758284 7.233808,-0.34896 0.478509,0.277872 0.06698,0.355101 -1.953808,0.36665 -3.19215,0.01824 -3.655546,0.257139 -2.532973,1.305834 1.951824,1.823372 3.216224,5.188201 2.854922,7.597536 -0.363962,2.427075 -3.72552,5.501462 -6.015344,5.501462 -0.414672,0 -1.463299,-0.504115 -2.330279,-1.120253 z m 4.279408,-0.02275 c 1.396612,-0.978224 2.92281,-2.782374 3.286864,-3.885469 1.115133,-3.37888 -2.627046,-9.448083 -5.204614,-8.44103 -0.405891,0.158579 -1.940691,1.413795 -3.410669,2.789366 -2.585123,2.419098 -2.667392,2.54049 -2.511165,3.705261 0.325133,2.424055 4.206714,6.334877 6.287511,6.334877 0.458665,0 1.157097,-0.226352 1.552073,-0.503005 z m -3.135878,-4.457171 c -0.219181,-0.264096 -0.469904,-1.113578 -0.557165,-1.887738 -0.141101,-1.251836 -0.06594,-1.468307 0.679328,-1.956627 0.778928,-0.510371 0.894359,-0.512125 1.637981,-0.0249 1.437955,0.942186 0.958467,4.349427 -0.612077,4.349427 -0.412256,0 -0.928889,-0.21608 -1.148067,-0.480176 z M 103.93622,84.08 c -1.84113,-2.175898 -1.74834,-1.984723 -2.33007,-4.801046 -0.48346,-2.340554 -0.40549,-3.703693 0.31107,-5.438954 0.30582,-0.740576 -0.1568,-0.715629 -2.081214,0.112227 -2.363123,1.016589 -2.651286,0.545242 -0.365094,-0.597181 2.850038,-1.424182 4.246168,-1.55822 7.455438,-0.715769 1.4705,0.386016 3.3048,0.847843 4.07621,1.026278 1.41016,0.326189 4.94565,2.212871 5.3388,2.849008 0.11598,0.187661 0.0698,0.482263 -0.1026,0.654672 -0.20462,0.204624 -0.80014,-0.01837 -1.71508,-0.642243 -0.7709,-0.525642 -1.44394,-0.913398 -1.49565,-0.861683 -0.0517,0.05172 0.21908,0.624723 0.60177,1.273347 0.90904,1.540688 0.70362,4.001936 -0.50631,6.066518 -0.69942,1.193479 -1.15161,1.559088 -2.59718,2.099949 -0.96267,0.360183 -2.51942,0.654877 -3.45944,0.654877 -1.66796,0 -1.74337,-0.04047 -3.13065,-1.68 z m 6.26832,0.678262 c 2.00978,-0.7691 2.86292,-1.868675 3.46134,-4.461187 0.32701,-1.416659 0.28515,-1.666557 -0.55842,-3.33384 -0.50156,-0.991312 -1.02736,-1.873728 -1.16845,-1.960928 -0.65105,-0.402371 -6.63654,-1.831321 -7.7716,-1.855357 -1.09702,-0.02323 -1.33369,0.09964 -1.7155,0.890682 -0.2436,0.504698 -0.51691,1.469363 -0.60736,2.143699 -0.23043,1.717978 0.79801,5.355543 1.86584,6.599434 0.48195,0.561421 0.99628,1.222189 1.14294,1.468377 0.78708,1.321152 2.74297,1.507239 5.35121,0.50912 z m -2.44596,-3.924752 c -0.30878,-0.234377 -0.71972,-0.880262 -0.91321,-1.435302 -0.28514,-0.817949 -0.25316,-1.159709 0.16879,-1.803686 0.5343,-0.815444 1.14584,-1.058618 1.14584,-0.455636 0,0.186388 0.12729,0.260218 0.28286,0.164068 0.72123,-0.445744 1.23465,2.713363 0.58134,3.577046 -0.37586,0.496893 -0.55857,0.490182 -1.26562,-0.04649 z M 107.84,70.537427 c -0.968,-0.237488 -3.18005,-0.531257 -4.91567,-0.652816 l -3.155668,-0.221014 0.162196,-1.209248 c 0.278852,-2.079027 1.096942,-2.627443 4.159172,-2.78817 3.305,-0.173469 5.97449,0.349523 7.09779,1.390557 0.46483,0.430794 0.98604,0.783264 1.15824,0.783264 0.1722,0 1.05227,0.72 1.9557,1.6 l 1.64262,1.6 -3.17219,-0.03539 C 111.02748,70.985152 108.808,70.774918 107.84,70.537427 Z m 6.4,-0.07626 c 0,-0.493076 -0.80886,-1.250445 -2.72,-2.546855 -2.38279,-1.616352 -5.30086,-2.184118 -8.41032,-1.6364 -2.16297,0.381002 -2.52922,0.659802 -2.82778,2.152592 L 100.08,69.44 h 1.80211 c 1.81526,0 8.19512,0.85056 8.47435,1.129798 0.26267,0.262669 3.88354,0.16138 3.88354,-0.108636 z M 67.998966,76.24 c 0.111152,-0.308 1.244948,-1.451581 2.519546,-2.541286 C 73.747834,70.93783 76.13503,70.11953 81.04,70.092086 82.399872,70.08447 83.2,69.94865 83.2,69.725408 83.2,69.530384 82.476419,68.65103 81.592038,67.77129 80.084714,66.271869 79.910166,66.185626 78.803098,66.393315 77.680397,66.603933 75.863853,67.384829 75.52,67.80465 75.432,67.912093 74.640614,68.36 73.761363,68.8 c -1.859869,0.93073 -3.172285,2.145174 -4.495593,4.16 -0.520173,0.792 -1.05377,1.488 -1.18577,1.546666 -0.132,0.05867 -0.24,0.310668 -0.24,0.56 0,0.249334 -0.144,0.453334 -0.32,0.453334 -0.176,0 -0.32,0.288 -0.32,0.64 0,0.788886 0.524198,0.841376 0.798966,0.08 z M 56.48,117.24688 c -0.704,-0.97716 -1.532,-2.05345 -1.84,-2.39176 -0.310853,-0.45424 -0.332739,-0.59108 -0.456966,-0.86467 -0.207335,-0.13186 -0.768372,-1.38966 -1.246749,-2.7951 -1.014215,-2.97968 -1.405607,-7.13945 -0.781479,-8.30564 0.21976,-0.41063 0.322199,-0.9408 0.227642,-1.17815 -0.472922,0.4644 -1.302563,1.22195 -1.829856,1.70812 -1.867126,2.04424 -2.454634,1.29186 -1.931005,-2.4729 0.435443,-3.13071 0.42857,-6.365775 -0.01696,-7.98678 -0.193497,-0.704 -1.068576,-2.936 -1.944624,-4.96 -1.5284,-3.531187 -1.585184,-3.767347 -1.404169,-5.84 0.103753,-1.188 0.07964,-2.159242 -0.05359,-2.158317 -0.239005,0.0016 -1.122992,0.550538 -2.75967,1.713501 -1.081504,0.768477 -1.773415,0.516602 -1.565706,-0.569962 C 40.963629,80.69135 41.138829,80.32 41.266202,80.32 c 0.127372,0 0.424972,-0.806128 0.661337,-1.791395 0.236362,-0.985264 0.664848,-2.101264 0.952192,-2.48 2.232295,-2.942263 3.746336,-9.159149 4.174647,-17.141735 0.166054,-3.094777 0.361049,-6.16687 0.433321,-6.82687 0.07227,-0.66 9.6e-4,-1.2 -0.158144,-1.2 -0.510349,0 -0.309078,-1.204032 0.236253,-1.413296 0.28919,-0.110973 0.43936,-0.288208 0.333709,-0.393859 C 47.435594,48.608925 51.633315,41.92 52.388374,41.92 c 0.293072,0 0.06766,0.482992 -0.6347,1.36 -1.198295,1.496256 -2.762029,4.198902 -3.008685,5.2 -0.239216,0.970893 -0.683632,5.829581 -1.039082,11.36 -0.415862,6.470349 -1.299011,10.45961 -3.294157,14.88 -1.836822,4.069606 -2.358,5.520419 -2.082188,5.796227 0.393564,0.393565 2.44311,-1.212873 3.224899,-2.527683 C 45.995475,77.246845 46.979549,75.992 47.741286,75.2 c 0.761741,-0.792 1.9113,-2.162576 2.55458,-3.045728 0.64328,-0.883149 1.470048,-1.877629 1.83726,-2.209952 0.367213,-0.332323 1.180253,-1.520826 1.806756,-2.641114 1.403753,-2.510144 2.061625,-2.385923 0.765318,0.144509 -0.862026,1.682701 -2.054838,3.229786 -5.853686,7.592285 -1.591639,1.827792 -2.633108,4.337555 -2.945408,7.097914 -0.206253,1.823052 -0.146039,2.05263 1.395603,5.320905 0.886134,1.878608 1.783862,4.187379 1.994944,5.130605 0.397177,1.774778 0.265766,8.906766 -0.19256,10.450576 -0.183914,0.61949 0.136675,0.40288 1.420819,-0.96 0.912074,-0.968 2.27359,-2.408 3.02559,-3.2 0.752,-0.792 2.150775,-2.626861 3.108384,-4.077469 0.957613,-1.450608 1.924813,-2.638608 2.149332,-2.64 0.502393,-0.0032 -0.230215,1.558586 -1.050506,2.23937 -0.288467,0.239405 -0.822416,1.019273 -1.18655,1.733037 -0.364135,0.71376 -1.288016,1.947395 -2.053066,2.741404 -0.895866,0.92978 -1.45881,1.842328 -1.581494,2.563658 -0.104772,0.616 -0.318592,1.552 -0.475159,2.08 -0.86856,2.92912 0.845309,8.04989 4.391133,13.12 l 0.895178,1.28 0.214188,-2.24 c 0.117805,-1.232 0.430042,-2.888 0.693863,-3.68 0.263821,-0.792 0.805846,-2.592 1.204499,-4 0.398653,-1.408 0.949808,-2.8234 1.22479,-3.14534 0.481591,-0.56383 0.521124,-0.55922 1.075437,0.12533 0.649799,0.80246 0.50217,1.2364 -0.217453,0.63916 -0.394681,-0.32755 -0.559737,-0.1903 -1.003382,0.8344 -0.473491,1.09364 -1.213856,3.53227 -2.072496,6.82645 -0.160563,0.616 -0.295366,1.714 -0.299565,2.44 -0.0091,1.57843 -0.329261,3.32323 -0.607635,3.31177 -0.11,-0.005 -0.776,-0.80773 -1.48,-1.78489 z M 52.349403,42.310409 c -0.139638,-0.5754 1.480539,-1.387132 1.579064,-1.288607 0.09853,0.09852 -0.07907,0.277456 -0.394665,0.397625 -0.456064,0.173658 -1.079385,1.323707 -1.184399,0.890982 z m 1.339615,-1.15109 C 53.580084,40.983059 54.254726,40.32 54.514448,40.32 c 0.259722,0 0.527418,-0.1656 0.594886,-0.368 0.06747,-0.2024 3.006075,-1.704797 3.557691,-1.115551 0.141627,0.151289 -3.064294,1.255765 -3.477467,1.564025 -0.459776,0.34304 -1.379314,0.954992 -1.50054,0.758845 z"
         id="outline" />
    </g>
  </g>
</svg>
