<?xml version="1.0" encoding="UTF-8" standalone="no"?>
<!-- Created with Inkscape (http://www.inkscape.org/) -->

<svg
   version="1.1"
   id="svg537"
   width="192"
   height="288"
   viewBox="0 0 192 288"
   xmlns="http://www.w3.org/2000/svg"
   xmlns:svg="http://www.w3.org/2000/svg">
  <defs
     id="defs541" />
  <g
     id="g543"
     transform="translate(4,2)"
     style="display:inline">
    <g
       id="g547">
      <path
         id="hair1"
         style="display:inline;fill:#ececec;stroke-width:0.32"
         d="m 109.59961,0.66796875 c -0.95335,0.0176507 -2.60386,0.54678475 -1.83984,0.58984375 1.2452,0.070183 5.27929,5.0849847 5.27929,6.5625 0,0.4505278 0.13639,0.8203125 0.30078,0.8203125 0.16438,0 0.21453,0.1330383 0.11328,0.296875 -0.10116,0.1638368 -0.0466,0.3827023 0.1211,0.4863281 0.16767,0.1036259 0.3075,0.4376523 0.3125,0.7421879 0.005,0.304525 0.15006,1.274306 0.32226,2.154296 0.46003,2.350828 0.40845,5.853491 -0.11328,7.679688 -0.94642,3.312758 -3.14492,6.948014 -4.20898,8.222656 0.22436,-0.877438 0.49684,-2.285683 0.74805,-3.023437 0.37456,-1.09999 1.0519,-3.039826 1.5039,-4.3125 0.64934,-1.828354 0.82227,-2.917664 0.82227,-5.185547 0,-2.74745 -0.38069,-5.534111 -0.94141,-6.9003908 C 111.87507,8.4487852 111.5144,7.5774165 111.21875,6.8652344 110.6646,5.5303655 108.09903,2.5605469 107.5,2.5605469 c -0.18576,0 -0.25524,-0.1335483 -0.1543,-0.296875 0.10094,-0.1633276 -0.11339,-0.3925468 -0.47656,-0.5078125 -0.69905,-0.2218681 -2.22852,0.5679395 -2.22852,1.1503906 0,0.1823274 -0.12909,0.252698 -0.28515,0.15625 -0.15606,-0.096449 -0.46025,0.03872 -0.67774,0.3007812 -0.2175,0.2620604 -0.54784,0.4765626 -0.73242,0.4765626 -0.1846,0 -0.56198,0.1934869 -0.83984,0.4296874 -0.92186,0.7836519 -8.210141,3.1449556 -9.669923,3.1328126 C 91.667784,7.3959538 90.247287,7.1658537 89.279297,6.890625 85.363939,5.777369 78.247463,4.9335096 75.263672,5.4726562 c -4.087195,0.7385239 -5.488214,1.161123 -6.271484,1.5664063 -1.054591,0.5456696 -4.47461,3.7219555 -4.47461,4.2480465 0,0.223236 -0.0122,0.345703 -0.207031,0.345703 -0.203506,0 -0.418178,0.1917 -0.296875,0.507813 -0.12672,0.104344 -0.789172,1.190145 -1.263672,1.871094 -0.854119,0.258037 -2.238625,2.939282 -2.646484,4.6875 -0.434131,0.1974 -0.340244,0.646354 -0.619141,1.033203 -0.304327,0.64404 -0.125447,1.171944 -0.761719,1.726562 -0.378054,0.576999 -0.682047,1.561008 -0.685547,2.867188 -0.0062,2.301407 1.154453,5.037921 2.873047,6.546875 0.594829,0.522256 0.919922,1.110805 0.919922,1.34375 0,0.533104 1.251435,2.259765 1.595703,2.259765 0.141405,0 0.619553,0.384932 1.017578,1.044922 0.398032,0.66 0.84797,1.637907 1.324219,2.253907 0.851234,1.101001 1.255859,1.434433 1.25586,2.074218 0,0.175999 0.245978,0.150391 0.330078,0.150391 0.343164,0 3.500267,-0.768144 3.599609,-0.992188 0.05903,-0.13309 0.498715,-0.605001 0.646484,-0.513671 0.344493,0.212899 2.138826,-0.483658 1.960938,-0.771485 -0.07373,-0.119296 0.34908,-0.341145 0.736328,-0.328125 0.504331,-0.32747 1.140625,-0.691406 1.140625,-0.691406 0.06029,0.03726 0.123046,0.05289 0.1875,0.05664 -0.348393,0.253351 -0.700302,0.507334 -0.882812,0.65039 -0.397704,0.184951 -1.846158,0.99648 -1.75586,1.142578 -0.300418,-0.05131 -3.104638,0.834042 -4.417969,1.650391 0.02429,0.05624 0.05386,0.100495 0.08203,0.148437 -0.575424,-0.025 -2.212517,0.802788 -3.119141,1.63086 -0.581705,0.531305 -1.540667,1.206792 -1.875,1.257812 -1.182339,0.58942 -1.736953,1.131459 -2.400391,2.046875 -0.991658,0.470615 -1.80552,1.829735 -2.416015,2.759766 -0.50863,-0.314349 -3.485327,4.287282 -3.757813,6.527344 -0.190261,1.564096 -0.503904,2.042323 0.160157,4.574219 0.402809,1.535843 0.770812,2.755434 0.945312,2.863281 0.174498,0.107849 0.307653,0.521533 0.283203,0.589843 -0.06891,0.192672 1.026368,2.603236 1.255859,2.783204 0.112221,0.088 0.377847,0.364906 0.435547,0.628906 0.106631,0.48792 0.296,0.782169 1.925782,4.529297 0.52757,1.295123 0.682768,2.658267 1.191406,4.017578 0.356262,-1.046367 2.056881,-5.897024 3.294922,-8.015625 0.341299,-0.600632 0.918517,-1.956833 1.289062,-2.236328 0.348562,0.215421 0.753525,-0.224967 0.609375,-0.939453 0.194585,-0.389528 0.987689,-1.019465 1.199219,-1.123047 0.168742,0.104288 0.500971,-0.46385 1.107422,-1.238282 0.606441,-0.774422 1.430848,-1.434706 1.589844,-1.441406 0.158982,-0.0067 0.95495,-0.822213 1.859375,-1.658203 2.120335,-1.959897 3.335937,-2.924819 3.335937,-2.716797 0,0.20594 1.214267,-0.708386 2.978516,-2.037109 0.739049,-0.556611 1.894272,-1.181305 2.783203,-1.476563 0.856952,-0.283198 2.116342,-0.271359 2.679687,-1.080078 1.335507,-0.318829 2.18271,-0.521085 3.785157,-1.05664 6.096737,-0.830378 9.527512,-0.984459 14.300784,-0.357422 0.704,0.09248 1.42559,0.336169 1.87304,0.380859 0.44744,0.04469 1.0541,0.444641 1.22266,0.544922 0.16855,0.100282 0.95822,-0.188627 1.57422,-0.06445 1.51644,0.305616 4.72001,1.462032 5.28906,1.888672 0.72451,0.632925 0.50791,0.04267 1.86914,1.484375 1.00047,1.008614 2.28376,1.921671 2.94336,2.261719 0.65961,0.340041 1.47539,0.95079 1.84961,1.304687 -0.0819,0.378225 -0.20818,0.592516 -0.33789,0.71875 0.43632,0.14815 1.16057,0.512217 2.33594,1.316406 0.69495,0.583444 1.08482,1.46307 1.42578,1.949219 l 0.61523,0.878906 0.91797,-1.78125 c 1.49937,-2.90806 1.87705,-8.656551 1.87305,-10.316406 -0.004,-1.74639 -0.57305,-4.066238 -1.61719,-6.240234 -0.38038,-0.792 -0.83453,-1.737994 -0.89453,-2.076172 -0.13723,-0.773997 -0.52151,-1.590246 -0.84766,-1.388672 -0.007,-0.09337 -0.82765,-0.741352 -0.57421,-1.048828 -0.19711,-0.521011 -1.60656,-1.877486 -2.80665,-2.416016 -0.74714,-0.351246 -1.26536,-0.511584 -1.5957,-0.519531 0.002,-0.0029 0.008,-0.01485 0.01,-0.01758 0.35589,-0.428826 -0.95393,-0.804688 -1.48633,-0.804688 -0.18828,0 -0.91506,-0.487391 -1.60352,-1.109375 -0.44352,-0.383711 -1.65016,-0.883862 -1.54687,-1.28125 -0.34902,0.106106 -0.4222,-0.263645 -0.78125,-0.328125 0.093,-0.150461 -0.22398,-0.293896 -0.58985,-0.625 -0.36587,-0.331097 -0.82907,-0.967751 -1.08007,-1.453125 -0.251,-0.485363 -1.0652,-1.26825 -1.73243,-1.689453 -0.66713,-0.421194 -1.56237,-1.247096 -2.07812,-1.796875 -2.09051,-2.228399 -7.744262,-2.821294 -14.039063,-1.552734 -3.54526,0.714453 -5.468957,1.268262 -6.482422,2.357422 -0.372183,0.399969 -0.857619,0.716797 -0.976563,0.716796 -0.03661,0 -0.08486,0.02106 -0.128906,0.0332 0.07901,-0.05793 0.120874,-0.0978 0.205078,-0.158204 0.088,-0.106355 0.730407,-0.83496 1.566407,-1.427734 0.764615,-0.542155 3.357239,-1.413729 3.833984,-1.621094 0.05615,-0.01282 0.109246,-0.01842 0.167969,-0.03711 0.510045,-0.162351 1.451718,-0.391626 2.136718,-0.492187 l 2.332032,-0.341797 v 0.002 c 0.01461,0.223101 1.197602,-0.160485 3.158203,-0.140625 1.684252,0.01706 3.257563,0.143499 3.748043,0.224609 l 1.1836,0.197266 c 0.0636,0.09478 0.57617,0.335471 0.91406,0.470703 0.5343,0.213832 0.50896,0.362298 0.87305,0.07813 0.35327,0.522237 0.77283,0.339469 0.66797,0.853516 0.0726,0.02788 0.17493,-3e-5 0.29101,-0.06055 0.009,0.0079 0.008,0.01259 0.0195,0.02148 0.91804,0.711031 2.44547,2.201086 2.38477,1.324219 -0.0628,-0.907275 -0.44814,-3.023176 0.51953,-8.626953 0.4708,-2.726418 0.48806,-3.471548 0.13281,-5.59961 -0.22539,-1.350163 -0.52266,-2.5994 -0.66211,-2.77539 -0.13946,-0.176 -0.47522,-0.967774 -0.74414,-1.759766 -0.26892,-0.791992 -0.58791,-1.692003 -0.70898,-2 -0.14979,-0.3810843 -0.0663,-0.5605469 0.25781,-0.5605469 0.29185,0 0.91865,1.0296718 1.61914,2.6601563 1.31107,3.0518206 1.79105,4.8929076 1.81055,6.9394536 0.0166,1.74023 -1.18274,8.972882 -1.76172,10.626953 -0.34854,0.995608 -0.48806,1.589696 -0.11133,1.902343 0.36764,0.31222 0.62705,0.184473 0.88281,0.486328 -0.006,0.0027 -0.0181,0.01751 -0.0234,0.01953 -0.1579,0.0599 0.86908,0.872251 1.3164,1.574218 l 1.08399,1.222657 1.64062,-2.771485 c 1.00386,-1.696558 1.73342,-3.634933 2.72656,-4.693359 0.88394,-0.942061 1.62644,-1.914227 1.64844,-2.160156 0.065,-0.726291 0.11521,-0.906404 0.37695,-1.31836 0.9383,-1.476856 0.89813,-6.33865 -0.0781,-9.384765 -1.26227,-3.9378254 -2.02715,-5.7260623 -2.36133,-5.5195315 -0.1797,0.111039 -0.21657,0.031236 -0.084,-0.1835937 0.26132,-0.4228136 -2.98748,-3.6139944 -3.41211,-3.3515626 -0.14154,0.087486 -0.21832,-0.019588 -0.16992,-0.2382812 0.11992,-0.5422848 -1.30025,-1.24436265 -2.47266,-1.22265625 z M 118.375,57.703125 c -0.98174,-0.333343 -0.45959,0.447262 0,0 z M 105.33594,2.3964844 c 0.23485,-0.042707 0.58398,0.090432 0.58398,0.2890625 0,0.048279 -0.21055,0.087891 -0.4668,0.087891 -0.25619,0 -0.38927,-0.1219478 -0.29687,-0.2714844 0.0356,-0.057626 0.1014,-0.091233 0.17969,-0.1054687 z M 78.953125,6.0800781 c 0.399978,0 0.726563,0.077762 0.726563,0.1738281 -10e-7,0.096067 -0.647454,1.5067315 -1.439454,3.1347657 -0.79199,1.6280301 -1.439453,3.1968321 -1.439453,3.4863281 0,0.289497 -0.125075,0.605106 -0.277343,0.699219 -0.152279,0.09411 -0.366762,0.642477 -0.476563,1.21875 -0.109802,0.576264 -0.350823,1.766494 -0.535156,2.646484 -0.184332,0.87999 -0.33845,3.185114 -0.34375,5.121094 -0.0097,3.540535 0.03104,3.741761 1.609375,7.759765 C 77.140291,31.244312 77.386579,32 77.324219,32 c -0.192269,0 -2.280206,-3.30507 -2.712891,-4.294922 -1.124787,-2.573184 -0.973129,-10.735726 0.25586,-13.785156 0.141852,-0.352 0.520913,-1.468479 0.841796,-2.480469 0.320889,-1.01199 0.698336,-1.8398436 0.837891,-1.8398436 0.139552,0 0.253906,-0.2169334 0.253906,-0.4824219 0,-1.5174595 -3.23355,2.5260655 -4.3125,5.3925785 -0.640016,1.700377 -0.802473,2.808175 -0.902343,6.158203 -0.06698,2.24651 0.01136,4.743593 0.173828,5.548828 0.429042,2.126487 0.426782,2.089507 0.103515,2.263672 -0.843728,0.454563 -1.814628,-6.758061 -1.429687,-10.623047 0.400726,-4.023577 1.426652,-6.284457 4.242187,-9.3535158 1.09262,-1.1910018 1.181986,-1.2273122 1.746094,-0.7167968 0.564957,0.511283 0.624784,0.4826609 1.199219,-0.5839844 0.418365,-0.7768707 0.828812,-1.1230469 1.332031,-1.1230469 z m 4.210937,0.3359375 c 0.378866,-0.032018 0.675782,0.092654 0.675782,0.3925782 0,0.2251433 -0.288635,0.6173895 -0.640625,0.8710937 -0.352,0.2537042 -0.638672,0.6232793 -0.638672,0.8203125 0,0.1970332 -0.437551,1.2299346 -0.970703,2.296875 -1.760175,3.522425 -2.656339,8.351217 -2.210938,11.898437 0.157264,1.252458 0.434407,2.556904 0.617188,2.898438 0.182779,0.341534 0.299535,0.733917 0.259765,0.873047 -0.03977,0.139129 0.102541,0.567806 0.316407,0.953125 0.271621,0.489373 0.286091,0.764286 0.04687,0.912109 -0.18913,0.116888 -0.420489,-0.08769 -0.517579,-0.458984 -0.09668,-0.369708 -0.283016,-0.673828 -0.414062,-0.673828 -0.423824,0 -1.56488,-3.429683 -1.783203,-5.359375 -0.228855,-2.022779 0.200899,-5.576135 1.015625,-8.400391 0.615551,-2.13366 2.31155,-5.6994147 3.080078,-6.4746092 0.324536,-0.3273484 0.785206,-0.51681 1.164062,-0.5488282 z m 19.054688,1.1289063 c 0.0357,0.037591 0.11142,0.167289 0.2207,0.375 0.20834,0.395996 0.4792,0.7207031 0.60157,0.7207031 0.12238,0 0.4744,0.611382 0.7832,1.359375 0.3088,0.74799 0.69778,1.619839 0.86328,1.9375 0.7927,1.521883 0.67655,8.460523 -0.1543,9.236328 -0.21268,0.19859 -0.32562,0.950746 -0.26172,1.748047 0.0678,0.845457 -0.59193,1.464783 -0.99804,1.662109 l 0.23828,-4.248046 c 0.65506,-4.5213 0.52509,-7.522575 -0.43945,-10.195313 -0.71657,-1.9854115 -0.96071,-2.7084752 -0.85352,-2.5957031 z M 87.199219,7.6894531 C 87.375219,7.6894531 87.736,7.8293921 88,8 c 0.264,0.1706079 0.336156,0.3105469 0.160156,0.3105469 -0.176,0 -0.536781,-0.139939 -0.800781,-0.3105469 -0.264,-0.1706079 -0.336156,-0.3105469 -0.160156,-0.3105469 z M 70.548828,7.8027344 c 0.06389,-0.00405 0.12064,0.00591 0.167969,0.035156 0.456511,0.2821435 0.401142,1.3613812 -0.08594,1.6660156 -0.617625,0.3863055 -1.448391,2.5832908 -1.791015,4.7363278 -0.168048,1.05599 -0.487026,2.916769 -0.708985,4.134766 -0.689247,3.78228 0.223221,8.976007 2.289063,13.025391 0.347949,0.682025 0.738775,1.240887 0.867187,1.242187 0.128426,0.0014 0.400076,0.362164 0.603516,0.800781 0.203439,0.438627 0.327151,0.796875 0.275391,0.796875 -0.05177,0 -0.744084,-0.64205 -1.539063,-1.425781 -1.455416,-1.434828 -3.107422,-4.393964 -3.107422,-5.568359 0,-0.348232 -0.14464,-0.681025 -0.322265,-0.740235 -0.177635,-0.05921 -0.415729,-1.731902 -0.529297,-3.716797 -0.202576,-3.540526 0.02081,-5.758409 0.998047,-9.908203 0.21758,-0.92399 0.346819,-1.68164 0.287109,-1.68164 -0.325168,0 -1.949072,4.004118 -1.791016,4.416015 0.13,0.338778 0.06058,0.411377 -0.222656,0.236328 -0.298396,-0.184412 -0.354,-0.08025 -0.207031,0.382813 0.110704,0.348793 -0.016,1.55446 -0.28125,2.679687 -1.581299,6.70831 0.712014,13.688001 5.488281,16.703126 0.67615,0.426832 1.44367,1.04697 1.705078,1.378906 0.432343,0.548969 0.428302,0.567403 -0.05273,0.191406 -0.432221,-0.337808 -0.559771,-0.337808 -0.695313,0 -0.134067,0.334186 -0.170986,0.333127 -0.191406,-0.0059 -0.01389,-0.230379 -0.151338,-0.340131 -0.30664,-0.244141 -0.330087,0.204003 -1.578381,-0.689842 -3.449219,-2.46875 -1.045458,-0.994082 -1.30133,-1.441599 -1.185547,-2.080078 0.134214,-0.740144 0.09619,-0.773032 -0.427734,-0.371094 -0.316657,0.242931 -0.480616,0.326411 -0.363282,0.185547 0.117332,-0.140864 -0.05334,-0.524046 -0.380859,-0.851563 -0.327517,-0.327507 -0.695641,-1.144637 -0.816406,-1.814453 -0.120768,-0.669807 -0.358032,-1.391852 -0.527344,-1.605468 -0.169312,-0.213625 -0.383753,-1.797167 -0.476563,-3.519532 -0.192242,-3.567985 0.558969,-8.481091 1.453125,-9.507812 0.354398,-0.406936 0.380716,-0.524655 0.08008,-0.347656 -0.344397,0.202742 -0.401809,0.133157 -0.238282,-0.292969 0.118659,-0.309222 0.302177,-0.909608 0.408203,-1.332031 0.106496,-0.424316 0.344055,-0.675032 0.529297,-0.560547 0.184421,0.113977 0.244532,0.06237 0.134766,-0.115235 -0.222951,-0.360731 1.432198,-3.4312837 1.732422,-3.2304684 0.104947,0.070201 0.535187,-0.3531895 0.867187,-0.6171875 0.586125,-0.4660529 0.515368,-0.5433076 -0.01953,0.2949219 -0.363024,0.5688676 -0.437391,0.9347261 -0.214844,1.0722656 0.399526,0.2469214 0.638659,0.056811 0.732422,-0.5820312 0.08612,-0.586795 0.865279,-1.3622828 1.3125,-1.390625 z m 16.748047,0.6269531 c 0.06557,0.017129 0.149463,0.074799 0.261719,0.1484375 0.230298,0.1510719 0.252289,1.0438542 0.06836,2.78125 -0.292912,2.766605 -0.279606,10.358738 0.01953,10.880859 0.100838,0.176 0.197404,0.392469 0.214844,0.480469 0.01744,0.088 0.186129,0.525433 0.373047,0.972656 0.242429,0.580057 0.50779,1.018833 0.822266,1.302735 -0.837632,-0.103445 -1.708368,-0.245688 -1.839844,-0.447266 -0.254249,-0.389797 -0.615097,-1.397197 -0.802735,-2.238281 -0.442722,-1.984607 -0.452582,-8.38859 -0.01562,-9.830078 0.1867,-0.616 0.418504,-1.767452 0.515624,-2.558594 0.152432,-1.2416068 0.186119,-1.5435744 0.382813,-1.4921875 z m 11.064453,0.1777344 c 0.192606,-0.00934 0.658836,0.6048633 1.035156,1.5527341 0.859836,2.165689 0.890596,9.936697 0.04297,10.873047 -0.308383,0.340666 -0.477643,0.702044 -0.375,0.804688 0.102643,0.102643 0.02653,0.488404 -0.169922,0.855468 -0.365021,0.682064 -0.514543,0.737651 -1.214843,0.455079 -0.460941,-0.185994 -0.548862,-1.388672 -0.101563,-1.388672 0.163993,0 0.542002,-1.094868 0.839844,-2.433594 0.540353,-2.42882 0.523299,-8.187411 -0.0293,-9.966797 C 98.228171,8.8424813 98.245764,8.6130286 98.361328,8.6074219 Z M 68.160156,10.240234 c -0.176,0 -0.320312,0.144313 -0.320312,0.320313 0,0.176 0.144312,0.320312 0.320312,0.320312 0.176,0 0.320313,-0.144312 0.320313,-0.320312 0,-0.176 -0.144313,-0.320313 -0.320313,-0.320313 z m 25.279297,4.480469 c 0.176,0 0.320313,0.142369 0.320313,0.318359 0,0.176 -0.144313,0.320313 -0.320313,0.320313 -0.176,0 -0.320312,-0.144313 -0.320312,-0.320313 0,-0.17599 0.144312,-0.318359 0.320312,-0.318359 z m -10.583984,1.599609 c 0.189015,0 0.345456,0.467073 0.347656,1.039063 0.0021,0.57199 0.230551,1.832791 0.505859,2.800781 0.570317,2.005171 0.947685,5.888413 1.021485,6.585938 0.07327,0.692527 -0.173348,0.383706 -0.375,-0.296875 -0.882668,-2.979057 -2.040621,-10.128906 -1.5,-10.128907 z m 10.929687,0 c 0.161667,0 0.294922,0.495959 0.294922,1.101563 0,0.605603 0.143855,1.18976 0.320313,1.298828 0.207684,0.128359 0.213564,0.399582 0.01563,0.769531 -0.181457,0.33908 -0.188561,0.689874 -0.01758,0.861328 0.155787,0.156218 0.280488,1.190664 0.384765,2.310547 l -1.115234,-2.365234 c -0.102915,-2.330823 -0.05506,-3.976562 0.117187,-3.976563 z m 13.398434,8.664063 c -0.002,0.03237 -0.13312,0.190723 -0.39257,0.496094 -0.21438,0.252301 -0.51984,0.339409 -0.75196,0.392578 0.28761,-0.213585 0.59329,-0.49748 0.76563,-0.630859 0.25388,-0.196525 0.38056,-0.29018 0.3789,-0.257813 z m -12.162106,0.294922 c 0.186387,0 0.337891,0.144322 0.337891,0.320312 0,0.176 -0.06301,0.320313 -0.140625,0.320313 -0.07761,0 -0.229117,-0.144313 -0.337891,-0.320313 -0.108774,-0.17599 -0.04576,-0.320312 0.140625,-0.320312 z m 5.841796,0.349609 c 0.087,-0.01686 0.18432,-0.0025 0.2832,0.05859 0.55397,0.342374 2.38034,3.935144 3.2129,6.230469 1.5384,4.241715 2.29796,6.444194 2.04882,11.095703 -0.21161,3.950955 -0.6998,4.995955 -0.89453,4.634766 -0.0916,-0.15079 -0.18999,-2.073249 -0.21679,-4.449219 -0.0539,-4.755758 -0.53622,-7.483159 -1.96485,-11.097657 -0.97565,-2.468424 -2.19717,-5.575306 -2.61328,-5.886718 -0.27106,-0.202867 -0.11651,-0.535344 0.14453,-0.585938 z m -9.171874,1.972656 c 0.333163,0.06933 1.386509,2.341185 2.222656,4.832032 0.86904,2.588793 1.765625,9.142585 1.765626,12.90625 0,1.266671 -0.147764,2.39439 -0.328126,2.505859 -0.18035,0.111469 -0.288594,0.01042 -0.240234,-0.222656 0.04836,-0.233082 -0.09055,-0.38775 -0.310547,-0.34375 -0.288412,0.05768 -0.40039,-0.523148 -0.40039,-2.082031 0,-3.725752 -0.920954,-10.335116 -1.94336,-13.947266 -0.540252,-1.908727 -0.910575,-3.542549 -0.822265,-3.630859 0.01553,-0.01553 0.03443,-0.0222 0.05664,-0.01758 z m 5.246094,0.558594 c 0.313039,0 0.475409,0.440248 0.380859,1.039063 -0.02084,0.132 0.115712,0.204156 0.304688,0.160156 0.714802,-0.166432 2.052199,4.490088 2.458983,8.560547 0.37459,3.748171 0.26745,7.435099 -0.251952,8.640625 -0.227488,0.52799 -0.389748,1.067219 -0.361328,1.199219 C 99.49717,47.891756 99.240323,48 98.898438,48 98.423587,48 98.311985,47.829121 98.423828,47.279297 99.467396,42.149011 98.996486,33.985105 97.460938,30.560547 96.744496,28.96276 96.569385,28.160156 96.9375,28.160156 Z m 9.14258,0.107422 c 0.24854,0 0.37771,0.118959 0.28711,0.265625 -0.0906,0.146667 -0.21991,0.267578 -0.28711,0.267578 -0.0672,0 -0.19646,-0.120911 -0.28711,-0.267578 -0.0906,-0.146666 0.0386,-0.265625 0.28711,-0.265625 z m -19.216799,0.216797 c 0.184804,0.0027 0.149176,0.12413 -0.08008,0.269531 -0.544502,0.345373 0.143198,4.710837 1.595703,10.126953 0.571142,2.129647 1.042494,4.695316 1.058594,5.761719 0.01596,1.057558 0.120729,2.071233 0.232422,2.251953 0.11169,0.180717 -0.04963,0.328125 -0.359375,0.328125 -0.309747,0 -0.564453,-0.181157 -0.564453,-0.402344 0,-0.503149 -0.536127,-2.996505 -1.707032,-7.939453 -1.201925,-5.07395 -1.392966,-6.545348 -0.990234,-7.601562 0.211895,-0.555735 0.220495,-0.878906 0.02344,-0.878906 -0.171645,0 -0.3125,-0.259382 -0.3125,-0.576172 0,-0.638305 0.583538,-1.347444 1.103515,-1.339844 z m -14.570312,0.675781 c 0.111166,0.0046 0.206597,0.03277 0.259765,0.08594 0.106333,0.10633 -0.08259,0.181858 -0.419922,0.167968 -0.372774,-0.01535 -0.448633,-0.09121 -0.193359,-0.193359 0.115499,-0.04622 0.242349,-0.06513 0.353516,-0.06055 z m 35.789061,0.0293 c 0.0224,-0.03485 0.008,-0.01934 -0.0469,0.123047 -0.21273,0.554368 -0.51563,0.927086 -0.51563,0.466797 0,-0.165613 0.21664,-0.306535 0.39063,-0.414063 0.0907,-0.05606 0.14944,-0.140935 0.17187,-0.175781 z M 108.75,29.53125 c 0.0237,0.01053 0.0376,0.03778 0.0391,0.08398 0.006,0.1848 -0.16867,0.538445 -0.38867,0.785157 -0.3426,0.384208 -0.31694,0.384225 0.18359,0.0039 0.49887,-0.37902 0.62461,-0.377532 0.86133,0.0059 0.16574,0.268245 -0.29843,0.793038 -0.50586,1.042969 -0.26734,0.322136 -0.21724,0.559611 0.1875,0.404297 0.28889,-0.110859 0.97019,-0.405759 0.99219,-0.210938 0.0723,0.639926 -0.12255,0.824687 0.30274,1.591797 -0.0978,0.868778 0.0725,0.0047 -0.0781,0.669922 0.97107,1.229699 2.78922,14.664093 1.9043,14.117188 -0.18619,-0.115056 -0.15732,0.226059 -0.13282,0.537109 0.0268,0.339866 -0.21642,0.593624 -0.62695,0.652344 -0.65131,0.09316 -0.66874,-8e-6 -0.53711,-3.039063 0.17446,-4.027995 -1.08993,-11.939563 -2.27344,-14.220703 -0.68163,-1.314002 -0.72536,-1.583193 -0.33984,-2.091797 0.18245,-0.240705 0.34102,-0.363624 0.41211,-0.332031 z m -25.373047,0.02148 c -0.189775,0.238191 -0.324587,0.456971 -0.265625,0.560547 -0.08486,-0.03073 -0.217488,-0.01265 -0.355469,0.0293 0.150962,-0.164167 0.375804,-0.372289 0.621094,-0.589844 z m -1.949219,1.542969 c 0.0083,9.08e-4 0.01496,0.0098 0.02344,0.0098 0.358297,0.02964 0.457838,0.05084 0.546875,0.05664 -7.2e-4,0.0081 -0.0013,0.01701 -0.002,0.02539 -0.602741,0.204763 -1.47341,1.023406 -1.621094,1.644531 -0.873741,0.505429 -3.037867,2.520727 -2.824219,2.734375 0.06809,0.06809 0.05247,-0.01402 -0.0918,0.05273 -8.47e-4,-0.02044 0.01541,-0.111324 0.0098,-0.111329 -0.06816,-3.9e-5 -0.62396,0.376718 -1.230469,0.804688 0.06188,-0.137576 0.08956,-0.279273 0.01953,-0.392578 1.338072,-0.414573 3.496195,-2.924564 4.757813,-4.238281 0,-0.1694 0.231504,-0.298829 0.388672,-0.298829 0.07348,0 0.05352,-0.127212 0.02344,-0.287109 z m 0.761719,1.939453 c 0.226972,1.364299 0.614692,3.417735 1.054688,6.484375 0.353519,2.46398 0.757967,5.43714 0.898437,6.605469 0.14047,1.168326 0.125773,2.236393 0.234375,2.412109 0.108601,0.175718 0.165436,0.54125 -0.140625,0.775391 -0.306079,0.234134 -0.44879,0.298494 -0.316406,0.142578 0.132384,-0.155914 -0.0013,-0.552117 -0.298828,-0.880859 -0.297517,-0.328749 -0.584239,-0.844952 -0.636719,-1.146485 -0.813507,-4.674177 -1.096812,-6.696951 -1.214844,-8.667968 -0.07771,-1.297689 -0.220776,-2.437574 -0.316406,-2.533204 -0.09563,-0.09563 -0.173828,-0.716591 -0.173828,-1.380859 0,-0.406392 -0.152277,-1.053133 -0.306641,-1.535156 0.496811,-0.0029 1.123873,-0.100435 1.175782,-0.152344 0.0059,-0.0059 0.03136,-0.103544 0.04102,-0.123047 z m -4.828125,3.390625 c 0.105266,0.150245 0.229504,0.26376 0.31836,0.21875 0.299655,-0.151818 0.292083,0.334218 0.308593,1.966797 0.02475,2.446447 0.239301,3.400687 0.697266,5.519531 0.78223,3.619189 1.322159,6.288944 1.318359,6.509766 -0.0023,0.132 -0.290026,0.240234 -0.638672,0.240234 -0.396028,0 -0.69369,-0.270876 -0.794922,-0.720703 -0.936912,-4.163214 -1.494074,-7.895413 -1.546874,-10.36914 -0.02246,-1.051952 0.196316,-2.450924 0.33789,-3.365235 z m 39.488282,0.357422 c 0.0297,0.08179 0.058,0.1616 0.10351,0.255859 0.23386,0.484 0.52442,1.492245 0.64454,2.240235 0.12012,0.74799 0.36556,1.361328 0.54492,1.361328 0.1794,0 0.24935,0.196902 0.15625,0.439453 -0.0931,0.242553 -10e-4,0.610022 0.20508,0.816406 0.54373,0.544144 0.51172,9.784522 -0.0391,11.087891 -0.22862,0.54126 -0.43859,1.290306 -0.46679,1.664063 -0.0389,0.516781 -0.15068,0.596679 -0.46485,0.335937 -0.48173,-0.399802 -0.56639,-1.356281 -0.0937,-1.064453 0.21109,0.130412 0.21198,-0.07987 0.008,-0.621094 -0.1711,-0.450048 -0.20754,-0.819012 -0.0801,-0.820312 0.12764,-0.0012 0.27878,-1.622783 0.33398,-3.601563 0.0975,-3.496651 -0.20194,-5.478355 -1.21484,-8.076172 -0.47181,-1.210093 -0.0363,-2.996388 0.36328,-4.017578 z m 1.91797,0.503906 c 0.0975,0.01072 0.16601,0.133978 0.16601,0.326172 0,0.539574 -0.10061,0.586651 -0.35937,0.167969 -0.10124,-0.16384 -0.0617,-0.372424 0.0879,-0.464844 0.0374,-0.0231 0.073,-0.03287 0.10547,-0.0293 z m -43.968752,0.691407 c 0.09545,0.129091 0.198909,0.243401 0.298828,0.333984 -0.153169,0.08046 -0.290126,0.229409 -0.36914,0.101562 -0.03841,-0.06215 0.01145,-0.242981 0.07031,-0.435546 z m -5.960937,2.632812 c 0.315041,0.340012 0.6241,0.394276 0.148437,0.669922 -1.55265,1.945554 -1.598385,4.41245 -1.130859,8.478516 0.735942,6.400523 0.748155,6.766893 0.214843,6.240234 -0.267321,-0.264 -0.646694,-1.200088 -0.84375,-2.080078 -0.197046,-0.87999 -0.442994,-1.888244 -0.544921,-2.240234 -0.291792,-1.007696 0.124225,-7.292792 0.390625,-8.179688 0.132154,-0.44 1.634603,-2.553328 1.759765,-2.861328 0.0043,-0.01055 0.0025,-0.01741 0.0059,-0.02734 z m 5.333984,0.169922 c 0.244301,0.241347 2.307675,9.415815 2.408203,10.707031 0.06435,0.826457 -0.646585,1.325259 -0.882812,0.619141 -0.45145,-1.349417 -0.814807,-3.112005 -0.816407,-3.962891 -9.83e-4,-0.53679 -0.152967,-1.12952 -0.339843,-1.316406 -0.186883,-0.186883 -0.399654,-1.675067 -0.470704,-3.306641 -0.07105,-1.631561 -0.02437,-2.864647 0.101563,-2.740234 z m 47.873045,0 c 0.0346,0.03064 0.0102,0.169237 0.0273,0.392578 0.0535,0.694585 0.0103,0.898412 0.77734,2.857422 0.13768,0.352 0.16731,1.064334 0.10351,1.646484 -0.071,0.648493 0.37272,1.003728 0.56836,0.882813 0.17931,-0.110816 0.30717,0.126132 0.29297,0.541015 -0.0139,0.406386 -0.0967,0.557891 -0.18554,0.337891 -0.31013,-0.768566 -0.74914,-0.390827 -0.74414,0.640625 0.003,0.687048 0.0956,0.895781 0.27343,0.615234 0.18341,-0.28929 0.33327,-0.03964 0.4668,0.783204 0.24465,1.507628 0.12115,1.655068 -0.43555,0.523437 -0.43327,-0.88073 -2.27647,-9.194438 -1.9707,-8.888672 0.0889,0.08893 0.3556,7.1e-4 0.5918,-0.195312 0.0821,-0.06814 0.1383,-0.111113 0.17578,-0.13086 0.0281,-0.01481 0.0471,-0.01575 0.0586,-0.0059 z m -50.316404,0.199219 c 0.01621,-0.01999 0.08929,0.03009 0.21875,0.148437 0.250921,0.229392 0.266513,0.668709 0.05469,1.441406 -0.16744,0.610701 -0.354759,2.154217 -0.417969,3.429688 -0.115625,2.333093 -0.303751,2.969786 -0.689453,2.345703 -0.391709,-0.633805 -0.292115,-5.417716 0.123047,-5.917969 0.21853,-0.263321 0.305644,-0.628863 0.19336,-0.810546 -0.125994,-0.203858 0.0068,-0.249173 0.345703,-0.119141 0.411478,0.157904 0.483478,0.09636 0.289062,-0.244141 -0.09315,-0.163134 -0.133394,-0.253448 -0.117187,-0.273437 z m -7.367188,3.892578 c 0.207429,0.01596 0.124199,0.125802 -0.222656,0.472656 -0.335677,0.335677 -0.390728,0.578657 -0.164063,0.71875 0.237482,0.146771 0.192565,0.788479 -0.148437,2.097656 -0.270313,1.037789 -0.500869,2.630262 -0.511719,3.53711 -0.02478,2.074802 -0.436583,2.864465 -0.75,1.4375 -0.25385,-1.15576 0.102017,-6.097656 0.439453,-6.097657 0.119965,0 0.245777,-0.286681 0.279297,-0.638671 0.126954,-1.332976 0.199012,-1.474309 0.773438,-1.517579 0.134546,-0.01013 0.235544,-0.01478 0.304687,-0.0098 z m 24.998047,2.8125 c 0.308,-0.0027 0.560547,0.138453 0.560547,0.314453 0,0.390275 -0.03672,0.390275 -0.640625,0 -0.410208,-0.265101 -0.398516,-0.310253 0.08008,-0.314453 z m -29.011719,0.423828 c 0.1808,-0.02702 0.388779,0.03458 0.560547,0.220703 0.291475,0.315834 0.246583,0.360519 -0.205078,0.201172 -0.408232,-0.144023 -0.504769,-0.08723 -0.330078,0.193359 0.135672,0.217984 0.200891,0.751862 0.144531,1.1875 -0.05636,0.435648 -0.285558,1.054904 -0.509766,1.375 -0.376636,0.537737 -0.42159,0.513593 -0.582031,-0.3125 -0.09551,-0.491744 -0.03956,-0.942923 0.123047,-1.001953 0.162601,-0.05903 0.214724,-0.239434 0.115234,-0.40039 -0.09948,-0.160967 -0.03438,-0.292969 0.146485,-0.292969 0.180879,0 0.252683,-0.201068 0.158203,-0.447266 -0.147458,-0.384262 0.07757,-0.677619 0.378906,-0.722656 z m 62.896484,3.632813 c 0.34378,0.02847 0.5858,0.455673 0.5918,1.138671 0.003,0.308 -0.13098,0.558594 -0.29688,0.558594 -0.16587,0 -0.24748,-0.286672 -0.17968,-0.638672 0.0838,-0.435254 -0.0496,-0.643184 -0.41797,-0.646484 -0.459,-0.0042 -0.4701,-0.05004 -0.0703,-0.302735 0.13273,-0.08394 0.25846,-0.118866 0.37305,-0.109374 z m -63.724609,0.578124 c 0.382211,0 0.464014,0.391097 0.400391,1.919922 -0.04395,1.05599 0.151769,3.549618 0.433594,5.541016 0.281852,1.991397 0.438339,3.69252 0.349609,3.78125 -0.08872,0.08873 -0.486702,-0.677038 -0.884766,-1.701172 -0.59974,-1.543033 -0.72722,-2.519103 -0.75,-5.701172 -0.02301,-3.212194 0.04965,-3.839843 0.451172,-3.839844 z m 63.146489,0.927735 c 0.0261,-0.01127 0.0512,-0.0075 0.0762,0.0098 0.16639,0.114838 0.29909,0.836813 0.26172,1.84375 -0.0789,2.124005 -0.14429,2.115686 -0.48633,1.904297 -0.176,-0.108774 -0.27735,0.06947 -0.27735,0.25586 0,0.186387 -0.12658,0.33789 -0.28125,0.33789 -0.24913,0 -0.12226,-1.022957 0.47657,-3.822265 0.0703,-0.328423 0.15214,-0.4955 0.23047,-0.529297 z m -3.14649,2.539062 c 0.24854,0 0.37771,0.118967 0.28711,0.265625 -0.0906,0.146666 -0.21991,0.267578 -0.28711,0.267578 -0.0672,0 -0.19646,-0.120912 -0.28711,-0.267578 -0.0906,-0.146658 0.0386,-0.265625 0.28711,-0.265625 z m 2.76758,2.621094 c 0.0975,0.01072 0.16602,0.133978 0.16601,0.326172 0,0.539564 -0.10061,0.586641 -0.35937,0.167969 -0.10124,-0.16384 -0.0616,-0.374377 0.0879,-0.466797 0.0374,-0.02311 0.073,-0.03092 0.10547,-0.02734 z m -21.8457,1.435547 c -0.57843,0.03919 -0.809898,0.176952 -1.146488,0.496094 -0.575434,0.545593 -1.074219,1.460783 -1.074219,2.857422 0,0.961133 0.148925,1.924505 0.140625,1.984375 -0.0574,0.412469 1.314781,-0.18511 2.337892,-0.53711 2.74331,-0.943827 3.96474,-0.86998 8.66601,0.726563 2.288,0.776979 4.92437,1.289311 5.06836,1.300781 0.3984,0.03175 -0.98983,-1.807847 -3.12304,-4.076172 -2.15415,-2.290486 -2.26286,-2.408129 -7.64453,-2.652344 -1.72035,-0.07806 -2.64621,-0.138799 -3.22461,-0.09961 z m -22.488285,4.009766 c -1.046292,-0.02467 -2.146136,0.136904 -2.691406,0.509765 -1.454499,0.994601 -4.867374,4.625141 -5.080078,5.472657 -0.115587,0.460522 -0.439383,1.005956 -0.623047,1.341796 l -0.365235,0.666016 c -0.475491,0.869499 0.800887,-0.12814 3.003907,-1.576172 2.635567,-1.732337 5.546241,-2.207972 8.496093,-1.52539 0.56833,0.131497 1.136719,-0.149339 1.136719,-0.671876 0,-0.743213 -0.764164,-2.755375 -1.507812,-3.603515 -0.330123,-0.376519 -1.322849,-0.588615 -2.369141,-0.613281 z" />
      <path
         style="fill:#fbd7c8;stroke-width:0.32"
         d="m 88.164863,114.53999 c 0.523807,0.20062 -1.637818,-0.94473 -2.16665,-1.42618 -0.528832,-0.48145 -1.556243,-1.3438 -2.461376,-1.80175 -0.905133,-0.45796 -2.836199,-1.63197 -4.214871,-2.67257 -1.378669,-1.04059 -2.649031,-1.89199 -2.873949,-1.89199 -0.224919,0 -1.149715,-0.62926 -2.080566,-1.38561 -0.930848,-0.75636 -2.44238,-1.70215 -3.244377,-2.08903 -0.801997,-0.38688 -1.632561,-0.90872 -2.011204,-1.26148 -0.378643,-0.35276 -0.803319,-0.6518 -0.880065,-0.6518 -0.07675,0 -0.914434,-0.41157 -1.505045,-0.96553 -0.590614,-0.553955 -1.36001,-1.189382 -1.88801,-1.412054 -0.528,-0.222676 -1.296045,-0.88854 -1.706768,-1.326924 -0.706867,-0.75447 -0.590558,-0.991607 -0.03767,-1.301022 0.808826,-0.452643 0.478295,-0.810354 -0.345593,-0.369423 -0.532227,0.284839 -0.843203,0.23496 -1.547405,-0.248201 -0.484726,-0.332573 -1.614719,-0.715484 -2.090962,-1.003688 -0.658176,-0.398304 -1.018393,-1.227294 -1.534604,-2.960644 -0.777738,-2.611491 -0.510227,-3.580916 0.822205,-5.098472 0.525456,-0.59846 0.840793,-1.051293 0.840793,-1.171802 0,-0.120509 0.263409,-0.750414 0.674475,-1.31067 1.670144,-2.276298 2.388506,-3.973195 2.161322,-9.162929 -0.05189,-1.18521 -0.290812,-2.378144 0.457518,-4.247011 0.559712,-1.397814 1.429543,-2.699848 1.551015,-2.791554 0.121476,-0.0917 0.340696,-0.546656 0.601739,-1.074656 1.467562,-2.968336 6.399082,-8.166744 9.854768,-10.274024 0.572,-0.348806 1.019167,-0.733433 1.019167,-0.880188 0,-0.146755 0.385777,-0.481205 0.729965,-0.590446 0.344189,-0.109242 1.245612,-0.574955 2.079555,-1.264084 1.182704,-0.977328 2.553237,-1.519829 5.749979,-2.539947 5.590323,-1.783942 7.372244,-2.233284 13.191214,-2.019834 4.012867,0.147196 5.642527,0.391232 8.659137,1.153139 4.67422,1.180573 5.74848,1.755493 8.00025,3.884866 0.99721,0.943001 2.10469,1.626159 2.31703,1.626159 0.21234,0 1.40653,1.287743 2.71267,2.598131 2.06747,2.074192 2.25867,2.730617 2.73875,4.441618 0.50247,1.790784 0.50665,2.014848 0.0471,2.522676 -0.7577,0.837257 -0.38012,1.646707 0.4808,1.768976 0.63534,0.09023 0.83241,0.544905 0.9022,2.097958 0.14261,3.173165 0.80416,6.888418 1.24517,7.254424 0.23786,0.197408 0.19726,0.969253 0.39591,1.571173 0.19865,0.601923 0.91446,0.490416 1.06854,0.490416 0.86123,0 0.79578,5.067993 0.0711,6.753129 -0.24855,0.577972 -0.44274,1.812471 -0.72435,2.616014 -1.08627,3.099552 -5.7622,9.107385 -9.00215,11.516422 -2.49686,1.856522 -6.95067,5.386322 -7.84482,6.507262 -0.32077,0.40214 -0.56774,0.88741 -0.77799,0.88741 -0.21025,0 -1.0373,0.61672 -1.91428,1.37049 -2.29509,1.97265 -5.21355,3.77377 -6.9995,4.31067 -0.44,0.13227 -0.938796,0.35079 -1.184825,0.54925 -0.419475,0.33838 -3.751844,1.00573 -7.023508,1.37149 -0.813106,0.18683 -4.105015,-0.79808 -2.311834,-0.0982 z m 10.826423,-9.39848 c -0.02678,-0.16417 -0.789376,-0.2544 -1.554583,-0.67157 -1.259548,-0.68669 -1.559821,-0.87777 -4.16712,-0.72329 -4.384496,0.25977 -5.927508,0.22867 -5.715632,0.57148 0.116092,0.18784 1.388704,-0.0873 3.854391,-0.20079 3.615427,-0.16639 4.346212,0.0257 5.346241,0.57795 1.145814,0.63273 2.324019,0.98123 2.236703,0.44622 z m -3.832232,-7.162557 c 1.237085,-0.46593 2.876389,-2.682628 3.035912,-4.616074 0.136915,-1.659434 -0.412494,-0.859161 -0.578521,-0.228843 -0.846293,3.212949 -2.639267,5.57614 -5.344211,5.170508 -1.186966,-0.177997 -2.256771,-0.979637 -3.668784,-2.47276 -0.931308,-0.984806 -1.789624,-2.129261 -1.920098,-2.670547 -0.218621,-0.906964 -0.185561,-0.164713 -0.177437,-0.06494 0.102679,1.260916 0.34491,1.627093 1.951953,3.402789 2.153811,2.379843 4.001225,2.496766 6.701186,1.479867 z M 83.429088,90.32 c 1.710195,-1.606554 2.65377,-3.632102 2.814915,-6.04272 0.100762,-1.507338 0.05785,-1.94608 -0.136662,-1.39728 -0.155949,0.44 -0.297901,1.275901 -0.315443,1.857555 -0.04778,1.584263 -1.121895,3.656317 -2.576663,4.970611 C 82.502854,90.35176 81.92,90.95071 81.92,91.039168 c 0,0.39799 0.6492,0.08861 1.509088,-0.719168 z M 104.16,88.96 c 0.11517,-0.186352 -0.20586,-0.172686 -0.76865,-0.172686 -0.57766,0 -1.22499,-0.424863 -1.60922,-0.837282 -0.83533,-0.896624 -3.224536,-5.421501 -3.944293,-7.470032 -0.859731,-2.446925 -0.883434,-2.16225 -1.030432,-2.015248 -0.245002,0.244998 2.285042,3.729918 3.736295,6.539809 1.3764,2.664967 1.65731,4.078198 2.88478,4.097513 0.29762,0.0047 0.62275,0.03393 0.73152,-0.142074 z M 80.796511,83.882057 c 0.69654,-0.381507 1.555849,-1.089111 1.95047,-1.791216 0.657907,-1.087253 0.332356,-0.898834 0.610987,-1.766915 0.291958,-0.564582 0.59673,-1.336432 0.677267,-1.715219 0.530931,-2.497024 0.784521,-3.808295 0.650617,-4.024958 -0.08427,-0.136352 0.455012,-0.335488 0.200562,-0.647926 -0.03459,-0.04247 0.561408,0.198427 -1.12736,-0.944376 l -1.856137,-0.83603 -3.36375,-0.427217 c -0.477132,-0.0606 -3.753632,0.282314 -4.654912,0.674583 -0.681495,0.296611 -1.325128,0.716377 -1.570341,0.716377 -0.577303,0 -4.015012,1.610446 -5.353914,2.846369 -1.019011,0.940637 -1.359424,1.794464 -0.715437,1.794464 0.188154,0 0.250099,0.422678 0.147389,1.005689 -0.159987,0.9081 0.250013,0.945538 1.898787,2.42125 3.453904,3.091376 4.068664,3.282845 8.380178,3.232841 1.517445,-0.08931 3.000425,0.06393 4.125594,-0.537716 z m 30.612999,-2.771293 c 1.232,-0.45256 2.53463,-1.042136 3.10179,-1.283157 1.70377,-0.724038 4.22012,-4.027236 3.31203,-4.588468 C 117.30305,74.91759 116.74038,73.28 117.15018,73.28 c 0.18388,0 0.28832,-0.311014 0.23208,-0.691142 -0.14123,-0.954564 -2.79374,-1.598284 -7.10715,-2.077913 -5.28025,-0.587136 -9.83721,1.90145 -10.731777,2.965066 C 98.269496,74.990575 97.283418,75.52 98.009674,75.52 c 0.225321,0 0.981321,0.806003 1.68,1.791114 0.698686,0.985113 1.441066,1.973571 1.649756,2.196572 0.24729,0.26425 0.0901,0.472759 0.17689,0.747911 0.0989,0.313596 1.03609,0.792163 2.25949,1.388226 2.89482,0.36536 5.33612,0.263022 7.6337,-0.533059 z M 86.076342,79.559309 C 85.797696,79.288915 85.72808,79.477152 85.795018,80.32 c 0.125859,1.584794 0.426163,1.956854 0.548291,0.679309 0.05682,-0.594378 -0.06331,-1.242378 -0.266967,-1.44 z M 69.962577,71.895667 c 0.361894,-0.337159 1.683478,-1.11201 2.949584,-1.785552 2.0703,-1.101357 2.68941,-1.121382 4.847839,-1.129673 1.32,-0.0051 2.847167,-0.135748 3.419167,0.01517 l 0.6025,0.08689 0.229166,-1.055249 c 0.351936,-1.620572 -2.41516,-5.718214 -6.065026,-4.41575 -1.399718,0.499495 -5.227105,4.372364 -6.034775,6.154755 -0.287959,0.635475 -1.008981,1.388061 -1.385838,1.723341 -0.512323,1.393127 -0.343713,1.790018 1.437383,0.406068 z M 115.12225,66.91766 c 0,-0.696842 -3.26091,-4.671721 -3.71214,-4.994497 -2.6442,-1.891486 -4.37253,-2.149745 -8.45894,-2.398809 -2.5568,-0.155836 -3.260717,0.04809 -3.703865,0.403909 -0.474489,0.380985 -1.210342,3.056387 -1.105629,3.838175 0.123239,0.920092 0.256334,1.839409 0.103846,1.898079 -0.27046,0.10406 -0.06816,-0.865987 -0.500325,0.86193 -0.01741,0.06961 0.636252,-0.317226 1.488492,-0.740957 0.852241,-0.423728 2.090791,-0.75805 2.662301,-0.940994 1.083,-0.346679 3.8674,-0.308288 4.97132,0.160515 1.08302,0.45993 1.77772,0.755883 2.34954,0.868696 0.30106,0.0594 1.20594,0.326336 2.13688,0.665212 2.18307,0.794682 3.76852,1.089266 3.76852,0.378741 z M 58.563997,83.847466 c -0.258163,-0.482381 -0.722825,-1.374486 -0.595052,-2.601827 0.637577,-6.124304 0.736648,-5.624652 -0.140549,-6.950185 -1.011469,-1.528429 -1.2589,-3.473088 -0.712151,-4.131878 0.588662,-0.709296 0.971029,-0.537666 2.25419,1.028261 1.45368,1.774025 2.340754,3.534061 1.645026,4.595926 -0.564167,0.861069 -0.744054,1.050072 -0.04513,0.470014 0.3947,-0.327571 0.634616,-0.160375 0.807953,0.530252 0.221463,0.882388 -0.05134,3.199414 -0.468133,3.733638 -0.137315,0.176 -0.425834,0.865666 -0.628423,1.481666 -0.202588,0.616 -0.614875,1.488341 -0.941653,1.913074 l -0.781641,0.668076 z m 65.881853,-8.809044 c -0.40472,-1.064508 -0.49901,-3.418149 -0.10286,-3.003186 0.15964,0.1672 1.3196,1.564705 1.49739,2.223323 0.3789,1.403651 -0.86615,2.819575 -1.3504,1.545895 z m -0.60824,-5.735302 c -0.0578,-1.165712 -0.27207,-2.836299 -0.44285,-3.516747 -0.0975,-0.388473 -0.2467,-1.556074 0.14435,-1.993323 l 0.54259,-0.977647 0.82647,0.418243 c 0.95784,0.484724 0.56972,4.504343 -8.7e-4,6.408814 -0.38507,1.285228 -1.02149,0.632826 -1.06969,-0.33934 z"
         id="skin" />
      <path
         id="hair_lines"
         style="display:inline;fill:#ddddd5;stroke-width:0.32"
         d="m 107.26953,1.1210938 c -0.23566,-0.023987 -0.43983,0.021983 -0.63672,0.1367187 -0.34559,0.2013941 -0.39661,0.3259513 -0.13476,0.3320313 0.23038,0.00535 0.33213,0.1521882 0.22461,0.3261718 -0.11613,0.1878992 0.0273,0.2306312 0.35351,0.1054688 0.37253,-0.1429617 0.47534,-0.08994 0.31836,0.1640625 -0.12726,0.2059088 -0.0803,0.375 0.10547,0.375 0.59903,0 3.1646,2.9698082 3.71875,4.3046875 0.29565,0.7121877 0.65632,1.5835476 0.80078,1.9355468 0.56072,1.3662878 0.94141,4.1529168 0.94141,6.9003908 0,2.267899 -0.17293,3.357177 -0.82227,5.185547 -0.452,1.27269 -1.12934,3.212502 -1.5039,4.3125 -0.37455,1.099998 -0.8373,2 -1.0293,2 -0.192,0 -0.37164,0.292635 -0.39844,0.648437 -0.0268,0.355804 0.0866,0.563129 0.25195,0.460938 0.16534,-0.102191 0.30079,-0.03404 0.30079,0.152344 0,0.739976 0.97513,0.278807 1.48242,-0.701172 0.63852,-1.233518 2.20924,-5.504636 2.85351,-7.759766 0.52173,-1.826213 0.57331,-5.328844 0.11328,-7.679688 -0.1722,-0.879998 -0.31726,-1.849763 -0.32226,-2.154296 -0.005,-0.3045348 -0.14483,-0.6385612 -0.3125,-0.7421879 -0.16765,-0.1036266 -0.22234,-0.3224897 -0.1211,-0.4863281 0.10125,-0.1638383 0.0511,-0.296875 -0.11328,-0.296875 -0.16439,0 -0.30078,-0.3625911 -0.30078,-0.8046875 0,-1.4170939 -3.13262,-5.4923693 -4.9414,-6.4277344 -0.3245,-0.1678035 -0.59246,-0.2631228 -0.82813,-0.2871093 z m 5.00391,0.3261718 c -0.0975,0.010724 -0.16602,0.1339788 -0.16602,0.3261719 0,0.5395726 0.10062,0.5866501 0.35938,0.1679687 0.10124,-0.1638383 0.0617,-0.3724249 -0.0879,-0.4648437 -0.0374,-0.023105 -0.073,-0.032872 -0.10547,-0.029297 z m -7.13086,0.921875 c -0.33054,0.051117 -0.67336,0.2544068 -0.75,0.5390625 -0.0806,0.2995014 -0.0326,0.3326478 0.14258,0.097656 0.1454,-0.1950707 0.51733,-0.3171521 0.82617,-0.2695313 0.30883,0.047621 0.48794,-0.030907 0.39844,-0.1757812 -0.063,-0.1018539 -0.17145,-0.1634031 -0.30079,-0.1894531 -0.097,-0.019538 -0.20622,-0.018992 -0.3164,-0.00195 z m 9.09765,1.1503906 c -0.0165,0.016517 0.0803,0.1466222 0.2793,0.4003907 0.24155,0.3079994 0.49415,0.5605469 0.56055,0.5605469 0.26337,0 0.0936,-0.2636034 -0.43946,-0.6816407 -0.25375,-0.1990189 -0.38387,-0.2958137 -0.40039,-0.2792969 z M 78.953125,6.0800781 c -0.503227,0 -0.913658,0.3461698 -1.332031,1.1230469 C 77.046659,8.2697791 76.98684,8.2983964 76.421875,7.7871094 75.857759,7.27659 75.768409,7.3128948 74.675781,8.5039062 c -2.815559,3.0690828 -3.841453,5.3299068 -4.242187,9.3535158 -0.384941,3.865018 0.585951,11.077618 1.429687,10.623047 0.323267,-0.174165 0.325535,-0.137169 -0.103515,-2.263672 -0.162476,-0.805243 -0.240808,-3.302302 -0.173828,-5.548828 0.09988,-3.350052 0.262319,-4.45781 0.902343,-6.158203 1.078958,-2.866529 4.3125,-6.91005 4.3125,-5.3925785 0,0.2654909 -0.114354,0.4824219 -0.253906,0.4824219 -0.139555,0 -0.517002,0.8278456 -0.837891,1.8398436 -0.320891,1.011998 -0.699936,2.128469 -0.841796,2.480469 -0.840862,2.086378 -1.241196,6.211677 -0.939454,9.685547 0.299325,3.445976 0.541709,4.189333 2.1875,6.714843 C 76.717375,31.244312 77.261859,32 77.324219,32 c 0.06236,0 -0.18392,-0.755688 -0.546875,-1.679688 -1.578327,-4.018044 -1.619075,-4.219198 -1.609375,-7.759765 0.0053,-1.935996 0.159418,-4.241096 0.34375,-5.121094 0.184333,-0.879998 0.425354,-2.070212 0.535156,-2.646484 0.109801,-0.576273 0.324284,-1.12464 0.476563,-1.21875 0.152276,-0.09411 0.277343,-0.409722 0.277343,-0.699219 0,-0.289496 0.647455,-1.858282 1.439453,-3.4863281 0.792,-1.628047 1.439454,-3.0386987 1.439454,-3.1347657 0,-0.096067 -0.326585,-0.1738281 -0.726563,-0.1738281 z m 28.015625,0 c -0.32405,0 -0.4076,0.1794594 -0.25781,0.5605469 0.12107,0.3079994 0.44006,1.2080016 0.70898,2 0.26892,0.7919984 0.60468,1.583766 0.74414,1.759766 0.13945,0.175998 0.43733,1.430796 0.66406,2.789062 0.35663,2.136239 0.34249,2.86997 -0.11523,5.439453 -1.07213,6.018643 -1.25593,7.854486 -0.86133,8.591797 0.32678,0.6106 0.68398,0.847691 0.57032,0.378906 -0.032,-0.131998 0.10307,-0.815533 0.30078,-1.519531 0.63458,-2.259558 1.67792,-8.685056 1.66992,-10.287109 -0.0108,-2.148714 -0.47038,-3.946792 -1.80469,-7.0527346 -0.70045,-1.6304973 -1.32729,-2.6601563 -1.61914,-2.6601563 z M 83.164062,6.4160156 C 82.785198,6.4480338 82.324536,6.637493 82,6.9648438 c -0.768536,0.7752009 -2.464564,4.3409332 -3.080078,6.4746092 -0.814734,2.82428 -1.24448,6.377596 -1.015625,8.400391 0.218323,1.929708 1.359379,5.359375 1.783203,5.359375 0.131046,0 0.317383,0.30412 0.414062,0.673828 0.09709,0.37129 0.328449,0.575872 0.517579,0.458984 0.239177,-0.147823 0.224747,-0.422728 -0.04687,-0.912109 -0.213866,-0.385319 -0.356177,-0.813996 -0.316407,-0.953125 0.03977,-0.13913 -0.07698,-0.531513 -0.259765,-0.873047 -0.182781,-0.341534 -0.459924,-1.645972 -0.617188,-2.898438 -0.445409,-3.547252 0.450747,-8.37598 2.210938,-11.898437 0.53316,-1.0669492 0.970703,-2.0998402 0.970703,-2.296875 0,-0.1970348 0.286672,-0.5666059 0.638672,-0.8203125 0.351998,-0.2537066 0.640625,-0.645948 0.640625,-0.8710937 0,-0.299924 -0.296916,-0.4245963 -0.675782,-0.3925782 z m 19.054688,1.1269532 c -0.10695,-0.1120502 0.13948,0.6194346 0.86914,2.6425782 0.91054,2.524626 1.07962,6.04747 0.4707,9.853515 -0.28494,1.781 -0.51953,3.544926 -0.51953,3.919922 0,0.733766 0.22845,0.831355 0.91797,0.394532 0.28813,-0.182541 0.39641,-0.71179 0.31641,-1.550782 -0.0687,-0.72084 0.0422,-1.425411 0.25586,-1.625 0.83438,-0.77943 0.95328,-7.713769 0.1582,-9.240234 -0.16546,-0.31766 -0.55448,-1.189502 -0.86328,-1.9375 -0.3088,-0.7479986 -0.66082,-1.359375 -0.7832,-1.359375 -0.12237,0 -0.39323,-0.3247039 -0.60157,-0.7207031 -0.10962,-0.2083635 -0.18505,-0.3396032 -0.2207,-0.3769531 z M 87.199219,7.6894531 c -0.176,0 -0.103844,0.1399374 0.160156,0.3105469 0.264,0.1706095 0.624781,0.3105469 0.800781,0.3105469 C 88.336156,8.3105469 88.264,8.1706095 88,8 87.736,7.8293905 87.375219,7.6894531 87.199219,7.6894531 Z M 70.548828,7.8027344 c -0.447229,0.028343 -1.226374,0.8038252 -1.3125,1.390625 -0.09376,0.6388501 -0.332896,0.8289526 -0.732422,0.5820312 C 68.280933,9.6375865 68.351863,9.2730854 68.710938,8.703125 L 69.253906,7.8398438 68.580078,8.4199219 C 68.074489,8.8545538 67.842602,8.903371 67.662109,8.6113281 67.497903,8.3456375 67.554686,8.3042312 67.839844,8.4804688 c 0.279256,0.17259 0.341867,0.1344961 0.1875,-0.1152344 -0.127353,-0.2060641 -0.368448,-0.2905318 -0.535156,-0.1875 -0.166727,0.1030321 -0.240673,0.2881615 -0.164063,0.4121094 0.0766,0.1239475 -0.20084,0.931046 -0.617187,1.7949222 -0.416352,0.863876 -0.670268,1.711606 -0.564454,1.882812 0.105812,0.171204 0.04184,0.217493 -0.142578,0.103516 -0.185242,-0.114485 -0.422801,0.136231 -0.529297,0.560547 -0.106026,0.422431 -0.289544,1.022808 -0.408203,1.332031 -0.163527,0.426134 -0.106115,0.495719 0.238282,0.292969 0.300653,-0.177 0.274319,-0.05928 -0.08008,0.347656 -0.894164,1.026729 -1.645375,5.939795 -1.453125,9.507812 0.09281,1.722373 0.307251,3.305907 0.476563,3.519532 0.169312,0.213624 0.406576,0.935654 0.527344,1.605468 0.120765,0.669817 0.488889,1.486938 0.816406,1.814453 0.327513,0.327516 0.498191,0.710699 0.380859,0.851563 -0.117334,0.140864 0.04663,0.05738 0.363282,-0.185547 0.523925,-0.401946 0.561948,-0.369057 0.427734,0.371094 -0.115783,0.638488 0.140081,1.085987 1.185547,2.080078 1.870854,1.778924 3.119132,2.672753 3.449219,2.46875 0.15531,-0.09599 0.284509,0.01375 0.287109,0.244141 0.004,0.34213 0.05246,0.343029 0.267578,0.0039 0.210342,-0.33159 0.345601,-0.315412 0.673828,0.08008 0.226013,0.27233 0.488301,0.494141 0.582031,0.494141 0.374598,0 -1.122197,-1.409197 -2.273437,-2.140625 -4.777974,-3.035636 -7.064872,-10.000157 -5.484375,-16.705079 0.265245,-1.125243 0.391954,-2.330894 0.28125,-2.679687 -0.146969,-0.463061 -0.09137,-0.567233 0.207031,-0.382813 0.283234,0.175049 0.352656,0.10245 0.222656,-0.236328 -0.158062,-0.411905 1.465848,-4.416015 1.791016,-4.416015 0.05971,0 -0.06952,0.757642 -0.287109,1.68164 -0.977218,4.149826 -1.200623,6.367645 -0.998047,9.908203 0.113568,1.984903 0.351662,3.657587 0.529297,3.716797 0.177633,0.05921 0.322265,0.392003 0.322265,0.740235 0,1.174403 1.651995,4.133515 3.107422,5.568359 0.794987,0.783739 1.487293,1.425781 1.539063,1.425781 0.05176,0 -0.07195,-0.358248 -0.275391,-0.796875 -0.20344,-0.438625 -0.47509,-0.799481 -0.603516,-0.800781 -0.12842,-0.0014 -0.519238,-0.560154 -0.867187,-1.242187 -2.065858,-4.049416 -2.978318,-9.243079 -2.289063,-13.025391 0.221959,-1.218005 0.540937,-3.078768 0.708985,-4.134766 0.342632,-2.153061 1.173382,-4.3500199 1.791015,-4.7363278 0.487067,-0.3046376 0.542455,-1.3838697 0.08594,-1.6660156 -0.04733,-0.029251 -0.104079,-0.039205 -0.167969,-0.035156 z m 16.748047,0.6269531 c -0.196694,-0.051388 -0.230381,0.2505711 -0.382813,1.4921875 -0.09713,0.79115 -0.328916,1.942594 -0.515624,2.558594 -0.436926,1.441504 -0.427116,7.845455 0.01562,9.830078 0.187638,0.841092 0.554843,1.856843 0.816407,2.257812 0.26155,0.400971 0.392356,0.86337 0.291015,1.027344 -0.101344,0.163973 0.26177,0.144339 0.804688,-0.04492 0.874219,-0.304753 0.935402,-0.403954 0.539062,-0.867187 -0.422225,-0.49349 -0.696868,-1.074269 -0.851562,-1.802735 -0.03737,-0.175998 -0.176303,-0.464625 -0.308594,-0.640625 -0.345132,-0.459176 -0.398024,-7.859198 -0.07813,-10.880859 0.183936,-1.7374094 0.161939,-2.6301765 -0.06836,-2.78125 C 87.446348,8.5044844 87.36244,8.4468168 87.296875,8.4296875 Z m 11.064453,0.1777344 c -0.115564,0.00561 -0.133171,0.2350554 0.02734,0.7519531 0.552582,1.779402 0.56966,7.537961 0.0293,9.966797 -0.29784,1.338734 -0.675851,2.433594 -0.839844,2.433594 -0.447299,0 -0.359378,1.202678 0.101563,1.388672 0.219998,0.08877 0.503098,0.171656 0.628906,0.185546 0.322427,0.03561 0.981967,-1.269985 0.755859,-1.496093 -0.102644,-0.102644 0.06662,-0.464022 0.375,-0.804688 0.847627,-0.936358 0.816867,-8.707342 -0.04297,-10.873047 C 99.020158,9.2122756 98.553934,8.5980774 98.361328,8.6074219 Z M 68.160156,10.240234 c 0.176,0 0.320313,0.144313 0.320313,0.320313 0,0.176 -0.144313,0.320312 -0.320313,0.320312 -0.176,0 -0.320312,-0.144312 -0.320312,-0.320312 0,-0.176 0.144312,-0.320313 0.320312,-0.320313 z m 25.279297,4.480469 c -0.176,0 -0.320312,0.142361 -0.320312,0.318359 0,0.176 0.144312,0.320313 0.320312,0.320313 0.176,0 0.320313,-0.144313 0.320313,-0.320313 0,-0.175998 -0.144313,-0.318359 -0.320313,-0.318359 z m -10.583984,1.599609 c -0.421056,10e-7 -0.171862,3.343808 0.529297,7.126954 0.648263,3.497766 0.715163,3.691264 1.349609,3.835937 0.765032,0.174451 1.028665,-0.02102 0.806641,-0.599609 -0.155379,-0.404913 -0.246862,-0.418353 -0.496094,-0.07031 -0.227283,0.31739 -0.257513,0.280255 -0.121094,-0.142578 0.18551,-0.575004 -0.298401,-3.088405 -1.214844,-6.310547 -0.275316,-0.967998 -0.503659,-2.228783 -0.505859,-2.800781 -0.0021,-0.571998 -0.158641,-1.039063 -0.347656,-1.039063 z m 10.90039,0 c -0.191361,0 -0.269146,0.621104 -0.191406,1.519532 0.07234,0.835998 0.146335,2.623182 0.164063,3.970703 0.03014,2.290809 0.07321,2.438827 0.675781,2.28125 0.572811,-0.149794 0.62364,-0.351517 0.458984,-1.810547 -0.101891,-0.90283 -0.312427,-1.770725 -0.46875,-1.929688 -0.165726,-0.168516 -0.156862,-0.528074 0.02148,-0.861328 0.197991,-0.369957 0.192071,-0.641172 -0.01563,-0.769531 -0.176474,-0.109068 -0.320313,-0.693217 -0.320313,-1.298828 0,-0.605612 -0.146152,-1.101563 -0.324219,-1.101563 z m 3.84375,7.400391 c -0.144998,0 -0.29039,0.02202 -0.40039,0.06641 -0.22,0.08877 -0.03961,0.16211 0.40039,0.16211 0.44,0 0.620391,-0.07334 0.400391,-0.16211 -0.11,-0.04439 -0.255391,-0.06641 -0.400391,-0.06641 z M 116.16016,24 c -0.0165,-0.01652 -0.14662,0.08028 -0.40039,0.279297 -0.308,0.24155 -0.56055,0.494097 -0.56055,0.560547 0,0.263369 0.2636,0.09359 0.68164,-0.439453 0.19902,-0.253769 0.29581,-0.383874 0.2793,-0.400391 z m -10.24024,0.320312 c -0.0165,-0.01652 -0.14662,0.08028 -0.40039,0.279297 -0.308,0.24155 -0.55859,0.494097 -0.55859,0.560547 0,0.263371 0.26166,0.09359 0.67968,-0.439453 0.19902,-0.253769 0.29582,-0.383874 0.2793,-0.400391 z m 1.27539,0.636719 c -0.027,-0.01217 -0.17861,0.09538 -0.47461,0.3125 -0.352,0.258198 -0.70013,0.510747 -0.77343,0.560547 -0.0733,0.0498 0.0174,0.08984 0.20117,0.08984 0.18379,0 0.52993,-0.252547 0.77148,-0.560547 0.20312,-0.259001 0.30238,-0.390176 0.27539,-0.402344 z m -12.701169,0.103516 c -0.04725,0.02728 0.03048,0.143844 0.220703,0.373047 0.46084,0.555276 0.644531,0.612677 0.644531,0.201172 0,-0.157169 -0.236498,-0.377423 -0.525391,-0.488282 -0.109798,-0.04213 -0.191666,-0.07104 -0.25,-0.08398 -0.04375,-0.0097 -0.07409,-0.01105 -0.08984,-0.002 z m 7.009769,0.04492 c -0.0428,2.23e-4 -0.0958,0.01997 -0.16016,0.05664 -0.84553,0.481747 -1.20116,0.871477 -0.95898,1.052735 0.41611,0.31142 1.97161,3.41827 2.94726,5.886718 1.42863,3.614522 1.91095,6.341859 1.96485,11.097657 0.0269,2.375994 0.12515,4.444913 0.21679,4.595703 0.72956,1.20123 1.33734,-7.874252 0.72656,-10.853516 -0.8457,-4.125288 -3.82506,-11.26635 -4.52148,-10.835937 -0.1348,0.08333 -0.18874,-0.144458 -0.11914,-0.50586 0.0637,-0.330991 0.0326,-0.494809 -0.0957,-0.49414 z m -13.667972,1.605469 c -0.0537,-0.02243 -0.156442,-0.0078 -0.298829,0.04687 -0.273141,0.104814 -0.498047,0.247237 -0.498047,0.316407 10e-7,0.259171 0.610906,0.112659 0.798829,-0.191407 0.05605,-0.0907 0.05179,-0.149449 -0.002,-0.171874 z m 3.855468,0.890624 c -0.02221,-0.0046 -0.04111,0.002 -0.05664,0.01758 -0.08831,0.08831 0.282005,1.722116 0.822265,3.630859 1.022414,3.612182 1.94336,10.22149 1.94336,13.947266 0,1.558899 0.11197,2.139711 0.40039,2.082031 0.22,-0.044 0.358909,0.110668 0.310547,0.34375 -0.04836,0.233083 0.05988,0.334125 0.240234,0.222656 0.885367,-0.547182 -0.14075,-11.549157 -1.4375,-15.412109 -0.836155,-2.490863 -1.889493,-4.762701 -2.222656,-4.832032 z m 15.189454,0.238282 c -0.0165,0.01652 0.0803,0.146623 0.2793,0.40039 0.41804,0.533042 0.67968,0.702823 0.67968,0.439454 0,-0.06645 -0.25254,-0.318999 -0.56054,-0.560547 -0.25377,-0.199019 -0.38192,-0.295814 -0.39844,-0.279297 z m -9.94336,0.320312 c -0.368115,0 -0.193004,0.802596 0.523438,2.400391 1.535564,3.42459 2.006466,11.588424 0.96289,16.71875 C 98.311985,47.829128 98.423728,48 98.898438,48 c 0.341893,0 0.598732,-0.108236 0.570312,-0.240234 -0.02842,-0.132 0.13384,-0.671221 0.361328,-1.199219 0.519402,-1.205534 0.626542,-4.892422 0.251952,-8.640625 -0.4068,-4.070491 -1.744173,-8.726979 -2.458983,-8.560547 -0.188976,0.044 -0.325518,-0.02816 -0.304688,-0.160156 0.09455,-0.598815 -0.06782,-1.039063 -0.380859,-1.039063 z m 9.14258,0.107422 c -0.24854,0 -0.37771,0.118959 -0.28711,0.265625 0.0906,0.146667 0.21991,0.267578 0.28711,0.267578 0.0672,0 0.19646,-0.120911 0.28711,-0.267578 0.0906,-0.146666 -0.0386,-0.265625 -0.28711,-0.265625 z m -19.216799,0.216797 c -0.519985,-0.0076 -1.103515,0.701539 -1.103515,1.339844 0,0.316798 0.140864,0.576172 0.3125,0.576172 0.197092,0 0.188468,0.323171 -0.02344,0.878906 -0.40274,1.056222 -0.211707,2.527572 0.990234,7.601562 1.170914,4.942988 1.707032,7.436296 1.707032,7.939453 0,0.221187 0.254706,0.402344 0.564453,0.402344 0.309749,0 0.471065,-0.147408 0.359375,-0.328125 -0.111693,-0.18072 -0.216452,-1.194387 -0.232422,-2.251953 -0.01609,-1.066411 -0.487452,-3.632056 -1.058594,-5.761719 -1.452521,-5.416164 -2.140213,-9.78158 -1.595703,-10.126953 0.229232,-0.145401 0.264876,-0.266831 0.08008,-0.269531 z m 21.619139,0.320313 c -0.0122,-0.02698 -0.14334,0.07227 -0.40234,0.27539 -0.308,0.24155 -0.56055,0.587702 -0.56055,0.771484 0,0.183787 0.042,0.274502 0.0918,0.201172 0.0498,-0.07333 0.30039,-0.421437 0.55859,-0.773437 0.2171,-0.296001 0.32468,-0.447626 0.3125,-0.474609 z m -36.189451,0.355468 c -0.111167,-0.0046 -0.238017,0.01433 -0.353516,0.06055 -0.255274,0.10215 -0.179423,0.178011 0.193359,0.193359 0.33733,0.01389 0.526255,-0.06164 0.419922,-0.167968 -0.05317,-0.05316 -0.148599,-0.08136 -0.259765,-0.08594 z m 9.193359,0.04687 c -0.502788,-0.0035 -0.747047,0.09653 -0.542969,0.222657 0.204083,0.126127 0.346547,0.35966 0.316407,0.519531 -0.03015,0.159871 -0.03841,0.39925 -0.01758,0.53125 0.02084,0.132 0.118406,0.240234 0.216796,0.240234 0.09839,0 0.08924,-0.144314 -0.01953,-0.320312 -0.108774,-0.176 -0.03662,-0.320313 0.160156,-0.320313 0.19677,0 0.277205,-0.132001 0.177735,-0.292969 -0.09949,-0.160965 -3.95e-4,-0.356033 0.220703,-0.433593 0.221097,-0.07756 -0.0089,-0.142985 -0.511719,-0.146485 z M 108.75,29.53125 c -0.071,-0.03159 -0.22966,0.09133 -0.41211,0.332031 -0.38552,0.508604 -0.34187,0.777786 0.33984,2.091797 1.18351,2.281155 2.4479,10.192675 2.27344,14.220703 -0.13163,3.039197 -0.1142,3.134176 0.53711,3.041016 0.41052,-0.05872 0.65375,-0.314432 0.62695,-0.654297 -0.0245,-0.311052 0.1029,-0.464665 0.28907,-0.349609 0.38257,0.236439 0.1022,-5.234384 -0.42969,-8.373047 -0.69979,-4.129445 -1.0363,-5.625141 -1.30469,-5.791016 -0.1537,-0.09501 -0.1939,-0.312826 -0.0879,-0.484375 0.10602,-0.171549 0.0558,-0.486931 -0.11133,-0.699219 -0.16716,-0.212289 -0.27598,-0.701833 -0.24218,-1.08789 0.0538,-0.614174 -0.0215,-0.658437 -0.60352,-0.353516 l -0.66406,0.34961 0.63867,-0.742188 c 0.35203,-0.407863 0.47255,-0.642786 0.26758,-0.523438 -0.20497,0.11935 -0.43343,0.03555 -0.50781,-0.185546 -0.10471,-0.311136 -0.27435,-0.297063 -0.74805,0.0625 -0.48043,0.364664 -0.52492,0.367725 -0.21094,0.01563 0.22,-0.246712 0.39467,-0.600357 0.38867,-0.785157 -0.001,-0.0462 -0.0154,-0.07345 -0.0391,-0.08398 z m -47.195312,1.591797 c -0.04157,0.01758 -0.01201,0.131968 0.07227,0.351562 C 61.737806,31.763503 61.95611,32 62.113281,32 62.524788,32 62.467386,31.814355 61.912109,31.353516 61.708375,31.18443 61.59626,31.10547 61.554688,31.123047 Z m 20.910156,0.287109 c -0.04744,-0.02556 -0.137518,-0.02106 -0.259766,0.02148 -0.244502,0.08509 -0.39952,0.405488 -0.34375,0.71289 0.06816,0.375687 -0.02888,0.478872 -0.294922,0.314453 -0.273467,-0.169009 -0.334129,-0.08518 -0.197265,0.271485 0.134148,0.349716 0.05969,0.463658 -0.232422,0.351562 -0.237232,-0.09104 -0.529551,-0.0088 -0.648438,0.183594 -0.120668,0.195248 -0.02955,0.310799 0.207031,0.261719 0.275114,-0.05708 0.457639,0.306123 0.517579,1.033203 0.05078,0.615998 0.167352,1.33604 0.259765,1.599609 0.09241,0.263571 0.228585,1.486323 0.302735,2.71875 0.112525,1.870323 0.399917,3.900176 1.208984,8.548828 0.05248,0.301533 0.339202,0.817736 0.636719,1.146485 0.297335,0.32875 0.431212,0.724945 0.298828,0.880859 -0.132384,0.155916 -0.0079,0.107803 0.27539,-0.107422 0.405392,-0.308011 0.45816,-0.646788 0.251954,-1.589844 -0.741225,-3.389867 -2.252693,-15.745081 -1.980469,-16.185546 0.05026,-0.08133 0.04554,-0.136545 -0.002,-0.16211 z m -3.240235,0.384766 c -0.102591,0.02692 -0.221644,0.142554 -0.373047,0.349609 -0.225422,0.308286 -0.5604,0.466328 -0.746093,0.351563 -0.205206,-0.126822 -0.264262,-0.01473 -0.148438,0.287109 0.104816,0.273143 0.342896,0.496094 0.527344,0.496094 0.184448,0 0.07442,0.288625 -0.244141,0.640625 -0.318555,0.352 -0.510381,0.640625 -0.425781,0.640625 0.0846,0 0.503006,-0.383182 0.929688,-0.851563 0.426677,-0.468379 0.594998,-0.747861 0.375,-0.621093 -0.474918,0.27365 -0.513583,-0.09677 -0.08008,-0.767579 0.255411,-0.395227 0.312407,-0.400615 0.316407,-0.02734 0.0027,0.24932 0.09164,0.367339 0.197265,0.261719 0.10562,-0.105626 0.08366,-0.367661 -0.04883,-0.582032 -0.08898,-0.143979 -0.176705,-0.204654 -0.279297,-0.177734 z M 78.205078,35.9375 c -0.159614,-0.0064 -0.426342,0.0847 -0.68164,0.244141 -0.556416,0.347483 -0.607994,0.707196 -0.515626,3.548828 0.08516,2.619757 0.642646,6.342281 1.5625,10.429687 0.101232,0.449827 0.398886,0.720703 0.794922,0.720703 0.348646,0 0.636472,-0.108234 0.638672,-0.240234 0.0038,-0.221245 -0.355837,-1.985638 -1.417968,-6.960937 -0.225437,-1.055998 -0.439843,-3.063756 -0.476563,-4.460938 -0.03672,-1.397182 -0.138293,-2.656012 -0.226563,-2.798828 -0.08826,-0.142816 0.0167,-0.259766 0.232422,-0.259766 0.215748,0 0.309177,-0.08145 0.208985,-0.18164 -0.02505,-0.02505 -0.06594,-0.03887 -0.119141,-0.04102 z m 38.113282,0.117188 c -0.091,0.02192 -0.1898,0.144592 -0.33203,0.347656 -0.43751,0.624629 -0.21793,2.557129 0.5,4.398437 1.01289,2.597833 1.31234,4.579489 1.21484,8.076172 -0.0552,1.978796 -0.20633,3.600263 -0.33398,3.601563 -0.12768,0.0012 -0.091,0.370256 0.0801,0.820312 0.2057,0.541224 0.20337,0.751506 -0.008,0.621094 -0.45129,-0.278935 -0.3982,0.594021 0.0645,1.05664 0.2112,0.2112 0.39671,0.382813 0.41211,0.382813 0.0153,0 0.0513,-0.31258 0.0801,-0.695313 0.0288,-0.382728 0.24013,-1.138419 0.46875,-1.679687 0.55054,-1.303377 0.58479,-10.543747 0.041,-11.087891 -0.2064,-0.206392 -0.30013,-0.573853 -0.20703,-0.816406 0.0931,-0.242551 0.0231,-0.439453 -0.15625,-0.439453 -0.17936,0 -0.4252,-0.61333 -0.54688,-1.361328 -0.12168,-0.747998 -0.44211,-1.83188 -0.71093,-2.410156 -0.28306,-0.6089 -0.41469,-0.850987 -0.56641,-0.814453 z m 2.44922,1.232421 c -0.0325,-0.0036 -0.0681,0.0062 -0.10547,0.0293 -0.1496,0.09242 -0.18914,0.301004 -0.0879,0.464844 0.25876,0.418682 0.35937,0.371605 0.35937,-0.167969 0,-0.192193 -0.0685,-0.315448 -0.16601,-0.326172 z M 74.625,37.939453 c -0.09006,0.02251 -0.08214,0.173821 0.08203,0.439453 0.116012,0.187709 0.35284,0.341797 0.525391,0.341797 0.172556,0 0.127327,-0.202969 -0.09961,-0.449219 C 74.903107,38.022235 74.715059,37.91694 74.625,37.939453 Z m 47.05664,1.863281 c -0.0845,0.01591 -0.15888,0.0639 -0.20508,0.138672 -0.0924,0.149539 0.0406,0.271485 0.29688,0.271485 0.53957,0 0.58665,-0.100618 0.16797,-0.359375 -0.0819,-0.05063 -0.17532,-0.06669 -0.25977,-0.05078 z m -52.853515,0.675782 c -0.05715,0.0052 -0.1198,0.01969 -0.185547,0.04492 -0.262993,0.100917 -0.409309,0.295906 -0.324219,0.433593 0.08509,0.13769 -0.08291,0.231161 -0.373047,0.207031 -0.985134,-0.08193 -1.635175,2.659602 -1.535156,6.478516 0.04894,1.868399 0.172308,3.68511 0.273438,4.03711 0.10113,0.351998 0.347179,1.360236 0.546875,2.240234 0.199696,0.879998 0.526882,1.803373 0.726562,2.050781 0.589421,0.730308 0.65332,-0.424544 0.19336,-3.490234 -0.862515,-5.748758 -0.474847,-9.224364 1.263671,-11.335938 0.278493,-0.338255 0.325469,-0.509499 0.105469,-0.380859 -0.22,0.12864 -0.40039,0.08516 -0.40039,-0.0957 0,-0.135648 -0.11955,-0.205153 -0.291016,-0.189453 z M 122.14844,40.75 c -0.0661,-0.02795 -0.17274,0.03091 -0.33789,0.167969 -0.2362,0.196013 -0.5029,0.284242 -0.5918,0.195312 -0.30577,-0.305774 1.53743,8.007934 1.9707,8.888672 0.5567,1.131639 0.68021,0.984207 0.43555,-0.523437 -0.13353,-0.822846 -0.28338,-1.072502 -0.4668,-0.783204 -0.17782,0.280547 -0.27043,0.07183 -0.27343,-0.615234 -0.005,-1.03146 0.43205,-1.409199 0.74218,-0.640625 0.0888,0.22 0.1736,0.0685 0.1875,-0.337891 0.0139,-0.406386 -0.1046,-0.658866 -0.26367,-0.560546 -0.15908,0.09832 -0.30276,-0.361559 -0.31836,-1.021485 -0.0468,-1.980246 -0.23336,-3.269218 -0.51172,-3.521484 -0.14447,-0.131005 -0.14531,-0.03625 -0.002,0.210937 0.17939,0.309211 0.13986,0.376583 -0.125,0.212891 -0.2967,-0.183396 -0.289,-0.356585 0.0312,-0.751953 0.31156,-0.384505 0.31549,-0.453577 0.0156,-0.273438 -0.25667,0.154211 -0.40039,0.04841 -0.40039,-0.296875 0,-0.206921 -0.0257,-0.321659 -0.0918,-0.349609 z m -47.976565,0.03125 c -0.12593,-0.124413 -0.172611,1.108657 -0.101563,2.740234 0.07105,1.631582 0.283821,3.119758 0.470704,3.306641 0.186884,0.186886 0.338883,0.779608 0.339843,1.316406 0.0016,0.850894 0.364957,2.613466 0.816407,3.962891 0.236235,0.706126 0.947162,0.207324 0.882812,-0.619141 C 76.47955,50.197049 74.416176,41.022597 74.171875,40.78125 Z m -2.443359,0.199219 c -0.01621,0.01999 0.02404,0.110303 0.117187,0.273437 0.194416,0.340504 0.122424,0.402045 -0.289062,0.244141 -0.338847,-0.130032 -0.471697,-0.08472 -0.345703,0.119141 0.112292,0.181691 0.02519,0.547217 -0.19336,0.810546 -0.41517,0.500253 -0.514764,5.284156 -0.123047,5.917969 0.385702,0.624083 0.573828,-0.01261 0.689453,-2.345703 0.06321,-1.275479 0.250529,-2.818987 0.417969,-3.429688 0.211853,-0.772705 0.196245,-1.212014 -0.05469,-1.441406 -0.129456,-0.118347 -0.202543,-0.168427 -0.21875,-0.148437 z m -6.955078,2.0625 c -0.115804,0.0088 -0.276339,0.06164 -0.453126,0.15625 -0.351998,0.188384 -0.640624,0.39756 -0.640624,0.46289 0,0.06533 0.288626,0.04322 0.640624,-0.04883 0.352,-0.09205 0.640626,-0.29927 0.640626,-0.460937 0,-0.0812 -0.0717,-0.118165 -0.1875,-0.109375 z m -1.794922,0.796875 c -0.088,0 -0.419725,0.288625 -0.738282,0.640625 -0.318555,0.351998 -0.50792,0.638672 -0.419922,0.638672 0.088,0 0.421678,-0.286674 0.740235,-0.638672 0.318557,-0.352 0.505969,-0.640625 0.417969,-0.640625 z m 1.382812,1.033203 c -0.06914,-0.0053 -0.170132,-4.03e-4 -0.304687,0.0098 -0.574426,0.04327 -0.646484,0.184595 -0.773438,1.517579 -0.03352,0.351998 -0.159332,0.638672 -0.279297,0.638671 -0.337444,0 -0.693303,4.941889 -0.439453,6.097657 0.313417,1.426981 0.72523,0.637318 0.75,-1.4375 0.01083,-0.906856 0.241406,-2.499313 0.511719,-3.53711 0.341002,-1.309193 0.385919,-1.950885 0.148437,-2.097656 -0.226673,-0.140093 -0.171614,-0.383073 0.164063,-0.71875 0.346858,-0.346854 0.430087,-0.456693 0.222656,-0.472656 z m -5.115234,2.654297 c -0.0325,-0.0036 -0.06808,0.0062 -0.105469,0.0293 -0.14954,0.09242 -0.189153,0.301005 -0.08789,0.464843 0.25876,0.418682 0.361329,0.371604 0.361328,-0.167968 0,-0.192194 -0.07047,-0.315448 -0.167968,-0.326172 z m 30.113281,0.158203 c -0.478576,0.0042 -0.490284,0.04935 -0.08008,0.314453 0.603908,0.390275 0.640625,0.390275 0.640625,0 0,-0.176 -0.252547,-0.317053 -0.560547,-0.314453 z m -29.011719,0.423828 c -0.301332,0.04504 -0.526364,0.338386 -0.378906,0.722656 0.09448,0.246198 0.02266,0.447266 -0.158203,0.447266 -0.180865,0 -0.245963,0.132002 -0.146485,0.292969 0.09949,0.160964 0.04737,0.34136 -0.115234,0.40039 -0.162607,0.05903 -0.218557,0.510201 -0.123047,1.001953 0.160441,0.826093 0.205387,0.850237 0.582031,0.3125 0.506461,-0.723074 0.693242,-2.035642 0.365235,-2.5625 -0.174691,-0.28059 -0.07815,-0.337382 0.330078,-0.193359 0.451661,0.159347 0.496553,0.114662 0.205078,-0.201172 -0.171768,-0.186123 -0.379747,-0.247725 -0.560547,-0.220703 z m 36.90625,0.25 c -0.111167,-0.0046 -0.238016,0.01628 -0.353515,0.0625 -0.255274,0.10215 -0.179425,0.177997 0.193359,0.193359 0.33733,0.01389 0.526255,-0.06164 0.419922,-0.167968 -0.05317,-0.05316 -0.148599,-0.08331 -0.259766,-0.08789 z m 28.029294,1.501953 c -0.0546,-0.05675 -0.0963,0.143063 -0.10156,0.539063 -0.007,0.527998 0.0608,0.783055 0.14844,0.566406 0.0877,-0.21665 0.0928,-0.649588 0.0117,-0.960938 -0.0203,-0.07784 -0.0404,-0.125615 -0.0586,-0.144531 z m -1.99804,1.865234 c -0.11982,-0.01423 -0.25857,0.02667 -0.41407,0.125 -0.39957,0.252701 -0.38863,0.298535 0.0703,0.302735 0.36837,0.0033 0.50175,0.211222 0.41797,0.646484 -0.0678,0.352 0.0138,0.638672 0.17968,0.638672 0.36041,0 0.38992,-0.96232 0.0469,-1.501953 -0.0803,-0.126333 -0.18096,-0.196712 -0.30078,-0.210938 z m -63.765629,0.59375 c -0.401524,0 -0.474182,0.627626 -0.451172,3.839844 0.02279,3.182093 0.150252,4.158123 0.75,5.701172 0.398064,1.024142 0.796046,1.789902 0.884766,1.701172 0.08873,-0.08873 -0.06775,-1.789837 -0.349609,-3.78125 -0.281862,-1.991414 -0.477544,-4.485018 -0.433594,-5.541016 0.06362,-1.528841 -0.01818,-1.919922 -0.400391,-1.919922 z m 18.88086,0.480469 c -0.01652,-0.01652 -0.146622,0.08028 -0.400391,0.279297 -0.308,0.241552 -0.560547,0.492144 -0.560547,0.558594 0,0.263373 0.263603,0.09359 0.681641,-0.439453 0.199019,-0.253769 0.295814,-0.381921 0.279297,-0.398438 z m 44.277339,0.419922 c -0.14151,0.03578 -0.28357,0.692131 -0.70507,2.859375 -0.16774,0.8626 -0.17324,1.519531 -0.0137,1.519531 0.15467,0 0.28125,-0.151503 0.28125,-0.33789 0,-0.186384 0.14432,-0.251352 0.32032,-0.142578 0.176,0.108774 0.33537,0.0097 0.35547,-0.220703 0.14281,-1.639527 0.10458,-3.230743 -0.0859,-3.539063 -0.0575,-0.0931 -0.10518,-0.150599 -0.15235,-0.138672 z m -5.07812,2.355469 0.93945,1.011719 c 0.51693,0.556603 0.96846,1.011718 1.00196,1.011718 0.0335,0 0.25845,-0.252547 0.5,-0.560547 0.39804,-0.507537 0.38644,-0.517179 -0.1211,-0.11914 -0.308,0.24155 -0.56431,0.313708 -0.57031,0.160156 -0.006,-0.153549 -0.40045,-0.555973 -0.87891,-0.892578 z m 1.91992,0.210937 c -0.24854,0 -0.37771,0.118959 -0.28711,0.265625 0.0906,0.146666 0.21991,0.267578 0.28711,0.267578 0.0672,0 0.19646,-0.120912 0.28711,-0.267578 0.0906,-0.146666 -0.0386,-0.265625 -0.28711,-0.265625 z m 2.76758,2.621094 c -0.0325,-0.0036 -0.0681,0.0042 -0.10547,0.02734 -0.1496,0.09242 -0.18914,0.302957 -0.0879,0.466797 0.25876,0.41868 0.35938,0.371603 0.35937,-0.167969 0,-0.192193 -0.0685,-0.315448 -0.16601,-0.326172 z" />
      <path
         style="display:inline;fill:#a99e96;stroke-width:0.32"
         d="m 81.92,91.039168 c 0,-0.08846 0.582854,-0.687408 1.295235,-1.331002 1.454768,-1.314294 2.52888,-3.386348 2.576663,-4.970611 0.01754,-0.581654 0.159494,-1.417555 0.315443,-1.857555 0.194515,-0.5488 0.237424,-0.110058 0.136662,1.39728 -0.161145,2.410618 -1.10472,4.436166 -2.814915,6.04272 C 82.5692,91.127776 81.92,91.437158 81.92,91.039168 Z m 20.1193,-2.297955 C 101.12468,88.173584 99.921206,86.4 100.45065,86.4 c 0.17976,0 0.47496,0.276771 0.656,0.615046 0.59293,1.107908 1.32321,1.624954 2.29509,1.624954 0.55587,0 0.87325,0.133942 0.75826,0.32 -0.28871,0.467142 -1.16037,0.377213 -2.1207,-0.218787 z M 99.06617,84.24 c -0.498935,-1.012 -1.162144,-2.56 -1.473802,-3.44 -0.311654,-0.88 -0.674627,-1.888 -0.806605,-2.24 -0.163209,-0.435306 -0.134909,-0.537651 0.08848,-0.32 0.180644,0.176 0.50474,0.896 0.720215,1.6 0.215475,0.704 0.957072,2.396 1.64799,3.76 0.690919,1.364 1.138012,2.48 0.993542,2.48 -0.14446,0 -0.670889,-0.828 -1.169823,-1.84 z M 69.970042,81.655296 c -0.440013,-0.486208 -0.451399,-0.58863 -0.06545,-0.58863 0.256989,0 0.400688,0.107702 0.319335,0.239337 -0.08135,0.131632 0.03298,0.30392 0.254076,0.382858 0.221098,0.07893 0.317111,0.236118 0.213367,0.349293 -0.103747,0.113174 -0.428346,-0.05911 -0.721331,-0.382858 z M 86.061984,81.76 c -0.09791,-0.176 -0.218045,-0.824 -0.266966,-1.44 -0.06694,-0.842848 0.0026,-1.031085 0.281324,-0.760691 0.203655,0.197622 0.323789,0.845622 0.266967,1.44 C 86.28649,81.59369 86.159891,81.936 86.061984,81.76 Z m 19.791376,-0.383734 c 0.33543,-0.128624 0.33647,-0.258205 0.006,-0.687386 -0.28305,-0.367056 -0.18922,-0.342358 0.30664,0.08072 0.39297,0.335277 0.71449,0.628633 0.71449,0.651901 0,0.02326 -0.324,0.05827 -0.72,0.07779 -0.396,0.01952 -0.53399,-0.03585 -0.30664,-0.123024 z M 81.152963,80.693334 c -0.09065,-0.146668 0.03852,-0.266668 0.287037,-0.266668 0.248515,0 0.377683,0.12 0.287037,0.266668 C 81.636394,80.84 81.507226,80.96 81.44,80.96 c -0.06723,0 -0.196394,-0.12 -0.287037,-0.266666 z m 0.792301,-1.52 c 0.01536,-0.372784 0.09118,-0.448608 0.193331,-0.193334 0.09244,0.230998 0.08107,0.506998 -0.02525,0.613334 -0.106333,0.106333 -0.181965,-0.08267 -0.16807,-0.42 z M 69.83424,77.76 c 0,-0.616 0.06586,-0.868 0.146346,-0.56 0.08049,0.308 0.08049,0.812 0,1.12 -0.08049,0.308 -0.146346,0.056 -0.146346,-0.56 z m 43.30633,-0.226198 c -0.17365,-0.456064 -0.1369,-0.49282 0.17914,-0.179136 0.21869,0.217068 0.31701,0.475276 0.21849,0.573801 -0.0985,0.09853 -0.27746,-0.07908 -0.39763,-0.394665 z M 113.98238,76.32 c 0.007,-0.528 0.0782,-0.705261 0.15938,-0.39391 0.0811,0.31135 0.0758,0.74335 -0.0119,0.96 -0.0876,0.216649 -0.15403,-0.03809 -0.14751,-0.56609 z M 71.065264,75.618886 c -0.03651,-0.550681 0.529792,-0.815212 0.802067,-0.374662 0.138013,0.223309 0.09335,0.289248 -0.110557,0.163226 -0.188163,-0.116292 -0.415043,-0.03053 -0.504179,0.190556 -0.116,0.287725 -0.169251,0.293661 -0.187331,0.02086 z m 32.319996,-0.285552 c 0.0154,-0.372784 0.0912,-0.448608 0.19334,-0.193334 0.0924,0.230998 0.0811,0.506998 -0.0252,0.613334 -0.10634,0.106333 -0.18197,-0.08267 -0.16807,-0.42 z M 79.319181,73.36 c -0.398039,-0.507539 -0.38672,-0.518858 0.120819,-0.120819 0.308,0.241552 0.56,0.493552 0.56,0.56 0,0.263373 -0.262781,0.09386 -0.680819,-0.439181 z m 25.634399,0.07227 c -0.58826,-0.708807 -0.25351,-0.790292 0.40642,-0.09893 0.308,0.322666 0.43363,0.586666 0.27918,0.586666 -0.15445,0 -0.46297,-0.219478 -0.6856,-0.487734 z m 6.58526,-1.282442 C 111.1972,71.891421 111.07157,71.68 111.25966,71.68 c 0.18808,0 0.52124,0.216 0.74034,0.48 0.4983,0.600422 0.34155,0.596963 -0.46116,-0.01018 z m 12.64642,-0.97649 c 0.0154,-0.372784 0.0912,-0.448608 0.19334,-0.193334 0.0924,0.230998 0.0811,0.506998 -0.0252,0.613334 -0.10634,0.106333 -0.18197,-0.08267 -0.16807,-0.42 z M 68.8,60.32 c 0.41336,-0.44 0.823562,-0.8 0.911562,-0.8 0.088,0 -0.178202,0.36 -0.591562,0.8 -0.41336,0.44 -0.823562,0.8 -0.911562,0.8 -0.088,0 0.178202,-0.36 0.591562,-0.8 z m 1.92,-1.540131 c 0,-0.05507 0.468,-0.523072 1.04,-1.04 L 72.8,56.8 71.860131,57.84 C 70.984042,58.809427 70.72,59.027088 70.72,58.779869 Z m 54.42526,-9.686535 c 0.0154,-0.372784 0.0912,-0.448608 0.19334,-0.193334 0.0924,0.230998 0.0811,0.506998 -0.0252,0.613334 -0.10634,0.106333 -0.18197,-0.08267 -0.16807,-0.42 z m -67.032297,-0.72 c -0.09065,-0.146668 0.03852,-0.266668 0.287037,-0.266668 0.248515,0 0.377683,0.12 0.287037,0.266668 C 58.596394,48.52 58.467226,48.64 58.4,48.64 c -0.06723,0 -0.196394,-0.12 -0.287037,-0.266666 z M 59.52,47.239181 c 0,-0.06645 0.252,-0.318448 0.56,-0.56 C 60.587539,46.281142 60.598858,46.292461 60.200819,46.8 59.782781,47.33304 59.52,47.502554 59.52,47.239181 Z m 1.28,-1.28 c 0,-0.06645 0.252,-0.318448 0.56,-0.56 0.507539,-0.398039 0.518858,-0.38672 0.120819,0.120819 C 61.062781,46.05304 60.8,46.222554 60.8,45.959181 Z M 81.6,30.279182 c 0,-0.06645 0.252,-0.31845 0.56,-0.56 0.507539,-0.398038 0.518858,-0.38672 0.120819,0.120818 C 81.862781,30.373039 81.6,30.542553 81.6,30.279182 Z m 2.56,-1.92 c 0,-0.06645 0.252,-0.31845 0.56,-0.56 0.507539,-0.398038 0.518858,-0.38672 0.120819,0.120818 C 84.422781,28.453039 84.16,28.622553 84.16,28.359182 Z M 94.32,24.10807 c 0.22,-0.08877 0.58,-0.08877 0.8,0 0.22,0.08877 0.04,0.161404 -0.4,0.161404 -0.44,0 -0.62,-0.07263 -0.4,-0.161404 z m 24.42526,-5.734737 c 0.0154,-0.372781 0.0912,-0.448608 0.19334,-0.193333 0.0924,0.231 0.0811,0.507 -0.0252,0.613333 -0.10634,0.106334 -0.18197,-0.08267 -0.16807,-0.42 z"
         id="face_lines" />
      <path
         style="fill:#3f84e4;stroke-width:0.32"
         d="m 72.285312,82.678202 c -0.292512,-0.352455 -0.296333,-0.555181 -0.01574,-0.835764 0.203741,-0.20374 0.370438,-0.684006 0.370438,-1.067257 0,-0.950669 0.874906,-1.689274 1.150452,-0.971219 0.411248,1.071702 2.686118,0.349657 2.694448,-0.85522 0.0026,-0.389808 0.137904,-0.919017 0.300464,-1.176019 0.254976,-0.403104 0.378611,-0.392118 0.900297,0.08 0.332605,0.301002 0.747427,0.547277 0.921831,0.547277 0.1744,0 0.630108,0.36 1.012684,0.8 0.508548,0.58488 0.572167,0.8 0.236592,0.8 -0.646067,0 -0.935849,0.590938 -0.52974,1.080272 0.43854,0.528406 -0.30384,1.634125 -0.952074,1.418045 -0.247082,-0.08236 -0.628106,0.02912 -0.846717,0.247734 -0.583513,0.583514 -4.747059,0.529632 -5.242925,-0.06785 z M 107.45595,80.56 c -0.0729,-0.22 -0.10629,-0.868 -0.0742,-1.44 0.15144,-2.702278 0.059,-2.490912 0.79701,-1.82305 0.86725,0.784852 1.70433,0.289741 1.84155,-1.089222 0.0551,-0.55425 0.1735,-1.007728 0.26301,-1.007728 0.0895,0 0.80461,0.376157 1.58911,0.835907 1.22079,0.715427 1.36736,0.907367 1.01698,1.331722 -0.22516,0.272697 -0.40938,0.779965 -0.40938,1.127257 0,0.347293 -0.288,0.79202 -0.64,0.988279 -0.352,0.196259 -0.72212,0.467465 -0.8225,0.602681 -0.21655,0.291716 -2.14955,0.874154 -2.90115,0.874154 -0.29033,0 -0.58751,-0.18 -0.6604,-0.4 z"
         id="eye_lower" />
      <path
         style="fill:#2865bf;stroke-width:0.32"
         d="m 74.07233,83.180826 c 0.588918,-0.175725 1.071267,-0.165229 1.264,0.02749 0.202227,0.202227 -0.132186,0.302012 -0.95233,0.284166 -1.249174,-0.02717 -1.252832,-0.03085 -0.31167,-0.31167 z M 71.352954,81.69735 C 70.538384,80.412909 70.4,79.881258 70.4,78.036237 c 0,-1.286378 0.149267,-2.250717 0.369443,-2.386794 0.215735,-0.133331 0.283069,-0.08857 0.161837,0.107584 -0.114182,0.184749 0.0076,0.41848 0.270557,0.519399 0.262989,0.100918 0.478163,0.404006 0.478163,0.673532 0,0.269524 0.224499,0.490042 0.498886,0.490042 0.274388,0 0.409888,-0.144 0.301114,-0.32 -0.108774,-0.176 -0.04527,-0.32 0.141114,-0.32 0.611683,0 0.354048,-1.232061 -0.301114,-1.44 -1.82183,-0.578227 0.307693,-1.813427 4.08,-2.366547 0.924,-0.135482 1.68,-0.126432 1.68,0.0201 0,0.146541 0.288,0.266438 0.64,0.266438 0.352,0 0.64,0.123904 0.64,0.275344 0,0.15144 0.384262,0.83544 0.853917,1.52 0.940355,1.370647 1.768928,4.3052 1.389101,4.919776 -0.296448,0.479664 -1.530935,-0.08965 -2.181162,-1.005904 -0.229981,-0.324067 -0.578643,-0.589216 -0.774803,-0.589216 -0.196163,0 -0.641037,-0.252 -0.988608,-0.56 -0.522883,-0.46335 -0.659328,-0.481264 -0.790599,-0.103795 -0.102985,0.296138 -0.339571,0.07304 -0.674278,-0.635814 -0.683005,-1.446503 -1.459955,-1.56434 -2.103898,-0.319088 -1.067212,2.063756 0.617348,4.327577 1.879431,2.525702 0.404483,-0.577482 0.510899,-0.616945 0.510899,-0.18947 0,1.067869 -2.316323,1.659034 -2.689549,0.686423 C 73.514906,79.085894 72.64,79.824493 72.64,80.775168 c 0,0.383251 -0.166698,0.863517 -0.370438,1.067258 -0.280583,0.280582 -0.271079,0.490156 0.03918,0.864 0.225289,0.271459 0.316816,0.493561 0.203388,0.493561 -0.113427,0 -0.635059,-0.676192 -1.15918,-1.502649 z M 79.244278,82.08 c 0.101309,-0.264 0.33042,-0.48 0.50914,-0.48 0.187299,0 0.156198,0.203331 -0.07342,0.48 -0.219101,0.264 -0.448214,0.48 -0.509139,0.48 -0.06092,0 -0.0279,-0.216 0.07342,-0.48 z m 27.196172,-2.091194 c -0.47593,-0.53416 -0.99791,-0.889264 -1.15994,-0.789123 -0.41842,0.258599 -1.50223,-2.293625 -1.6917,-3.983721 -0.19235,-1.715786 0.40048,-2.790442 1.88048,-3.408823 1.18963,-0.497062 4.07947,-0.282198 5.14681,0.382672 0.53818,0.335248 0.73208,0.344752 0.85473,0.0419 0.0908,-0.224205 0.16945,-0.15224 0.18391,0.168285 0.0139,0.308 0.24976,0.56 0.52415,0.56 0.27438,0 0.42416,0.120906 0.33283,0.268682 -0.0913,0.147772 0.11617,0.795251 0.46111,1.438838 0.72668,1.35583 0.90443,3.235894 0.22717,2.402723 -0.5835,-0.717817 -2.74171,-1.944038 -3.06737,-1.742771 -0.15347,0.09485 -0.44101,-0.183024 -0.63898,-0.617507 -0.43103,-0.946016 -1.18557,-1.024576 -1.64239,-0.171002 -0.49389,0.922848 -0.40238,1.777485 0.25394,2.37144 0.7978,0.722003 1.2973,0.664874 1.66476,-0.190403 0.23786,-0.553626 0.29094,-0.580035 0.22969,-0.114298 -0.13522,1.028272 -1.06042,1.379495 -1.82092,0.691248 -0.64737,-0.585859 -0.65952,-0.582867 -0.70445,0.173453 -0.0251,0.42328 -0.0427,1.381597 -0.039,2.129597 0.004,0.748 -0.0239,1.36 -0.0614,1.36 -0.0374,0 -0.45747,-0.437037 -0.93341,-0.971194 z m -0.2995,-6.564044 c 0.27238,-0.272381 0.4421,-0.542493 0.37715,-0.600247 -0.35856,-0.318825 -1.45591,-0.453581 -1.82174,-0.223712 -0.34202,0.214903 -0.3222,0.367645 0.10285,0.792695 0.64736,0.64736 0.72386,0.649142 1.34174,0.03126 z m 3.23905,7.316643 c 0.231,-0.09244 0.507,-0.08107 0.61333,0.02525 0.10634,0.106333 -0.0827,0.181965 -0.42,0.16807 -0.37278,-0.01536 -0.4486,-0.09118 -0.19333,-0.193331 z m 1.6625,-0.668266 c 10e-4,-0.128227 0.36137,-0.39959 0.8,-0.60303 0.43862,-0.203443 0.7975,-0.262557 0.7975,-0.131367 0,0.131191 -0.36,0.402554 -0.8,0.603034 -0.44,0.200477 -0.79888,0.25959 -0.7975,0.131363 z"
         id="eye_upper" />
      <path
         style="fill:#404144;stroke-width:0.32"
         d="m 87.396867,115.01232 c -0.595725,-0.26915 -1.473661,-0.87702 -1.950969,-1.35084 -0.477312,-0.47381 -1.934804,-1.40685 -3.238871,-2.07341 -1.30407,-0.66656 -2.947977,-1.76089 -3.653129,-2.43184 -0.705152,-0.67095 -1.80081,-1.40748 -2.434794,-1.63673 -0.633984,-0.22925 -1.712141,-0.90846 -2.395901,-1.50936 C 73.03944,105.40925 71.904,104.61944 71.2,104.25501 c -0.704,-0.36442 -1.881946,-1.07489 -2.617658,-1.5788 -0.735708,-0.50392 -1.481904,-0.91621 -1.658208,-0.91621 -0.176304,0 -0.628166,-0.432 -1.004134,-0.96 -0.375968,-0.528 -0.884506,-0.96 -1.130083,-0.96 -0.245575,0 -1.370122,-0.864 -2.498989,-1.92 C 61.162061,96.864 60.126387,96 59.989427,96 59.472365,96 57.6,94.347354 57.6,93.890966 57.6,93.628912 57.312,92.849978 56.96,92.16 56.007808,90.293552 56.115926,88.536416 57.27143,87.098544 58.201213,85.941552 58.213715,85.878278 57.820989,84.317309 57.53455,83.178813 57.502934,82.122538 57.710915,80.64 c 0.453242,-3.230838 0.388317,-5.34999 -0.183661,-5.99473 -0.765504,-0.86288 -1.472265,-3.283926 -1.2267,-4.202121 0.155238,-0.580464 0.531452,-0.89336 1.318339,-1.096464 0.605609,-0.156314 1.144841,-0.326999 1.198294,-0.379299 0.05345,-0.0523 -0.431209,-1.22736 -1.077027,-2.611239 -2.1648,-4.638803 -2.38015,-5.144259 -2.382131,-5.591197 -9.6e-4,-0.244723 -0.212266,-0.848121 -0.469293,-1.340889 -0.334656,-0.641594 -0.432592,-1.640877 -0.344989,-3.520032 0.137568,-2.950906 1.004989,-5.112999 2.822554,-7.035363 3.108739,-3.287988 3.975213,-4.274452 4.135923,-4.708666 0.09771,-0.264 1.129251,-0.952922 2.29231,-1.530938 2.231188,-1.108851 2.751853,-1.700672 2.787124,-3.168025 0.02115,-0.879562 0.02992,-0.883875 0.368899,-0.181037 0.439779,0.911866 0.512969,0.90681 2.902787,-0.200541 1.092662,-0.506294 2.329942,-1.026121 2.749514,-1.155165 1.643558,-0.505497 4.448873,-2.450233 6.318115,-4.379913 3.697104,-3.81665 4.161808,-4.267084 5.837472,-5.658227 2.177091,-1.807431 3.097238,-2.246552 6.242269,-2.978994 3.289011,-0.765975 9.737726,-1.139586 10.981336,-0.636212 0.49387,0.199904 1.18595,0.415087 1.53795,0.478184 1.13892,0.204151 1.89656,0.616775 3.10831,1.692836 0.65357,0.580385 1.77645,1.426521 2.49529,1.880303 0.71884,0.453781 1.3966,1.070909 1.50616,1.371393 0.10955,0.300485 0.44094,0.862128 0.73642,1.248097 0.52943,0.691563 0.55686,0.65963 1.88755,-2.197254 0.81589,-1.751634 1.92922,-3.517913 2.81301,-4.462748 2.90118,-3.1016 3.81584,-8.527027 2.17326,-12.890965 -0.44,-1.168973 -0.8,-2.3473441 -0.8,-2.6186039 0,-0.9309322 -1.65095,-4.1324327 -2.50533,-4.8583037 -0.47007,-0.3993626 -1.40619,-1.2633627 -2.08028,-1.9200001 -1.19491,-1.16399094 -1.2844,-1.19340748 -3.5735,-1.17476464 C 107.26223,0.83556198 106.761,0.95961619 105.7065,1.7037843 102.46739,3.9896285 101.1195,4.7575242 99.2,5.4105434 93.268138,7.4285805 93.329603,7.4143578 91.432928,7.2077875 90.417037,7.097145 89.020973,6.8073174 88.33056,6.5637261 86.667699,5.9770342 78.45343,5.3150848 76.116634,5.579463 c -3.467399,0.3922916 -6.51504,1.1689258 -7.61048,1.9393879 -2.02378,1.4233971 -5.499652,5.8366921 -7.286317,9.2513961 -2.304643,4.404671 -2.739171,5.514208 -2.895303,7.392956 -0.142364,1.713058 -0.04857,2.132647 0.858407,3.84 0.560029,1.054238 1.279117,2.141422 1.597971,2.415963 0.318854,0.274541 0.829456,0.994541 1.134672,1.599999 0.305213,0.605459 1.023567,1.604836 1.596342,2.220835 1.484239,1.596246 3.381214,4.525718 3.156894,4.729838 C 66.617126,39.016877 66.006408,38.2845 65.76,38.08 65.496,37.860899 65.28,37.483267 65.28,37.240819 65.28,36.998368 65.136,36.8 64.96,36.8 c -0.176,0 -0.32,-0.192275 -0.32,-0.427277 0,-0.235001 -0.648,-1.08456 -1.44,-1.88791 -0.792,-0.803347 -1.44,-1.60648 -1.44,-1.784739 0,-0.17826 -0.70367,-1.166242 -1.563709,-2.195516 -0.860041,-1.029274 -1.796041,-2.427452 -2.08,-3.107062 -1.010259,-2.417888 -0.464528,-5.737335 1.458743,-8.872888 C 60.072765,17.713143 60.48,16.893693 60.48,16.70361 c 0,-0.488278 3.353414,-5.33902 5.074675,-7.3405604 1.940195,-2.2561235 3.45537,-3.2474493 5.520016,-3.6115536 6.24144,-1.100689 7.635693,-1.2394598 9.456695,-0.9412301 1.027737,0.1683149 2.64103,0.3068611 3.585094,0.3078807 0.944061,0.00102 3.235325,0.3749216 5.091696,0.8308934 l 3.375222,0.82904 4.188301,-1.3742864 c 2.303565,-0.7558576 4.236301,-1.4889258 4.294971,-1.62904 0.0587,-0.1401146 0.27466,-0.2560406 0.48,-0.2576141 0.20533,-0.00157 1.29648,-0.7193917 2.42478,-1.5951522 2.27491,-1.76573811 3.2471,-2.05649165 6.23918,-1.86597021 1.92917,0.12284036 2.11856,0.20977242 3.5661,1.63685661 C 114.61752,2.5217932 115.41965,3.2 115.55924,3.2 c 0.43674,0 1.88778,2.7471021 2.82427,5.3468883 0.49393,1.3712115 1.05971,2.8984857 1.25727,3.3939437 0.19757,0.495457 0.35922,2.244289 0.35922,3.886293 0,4.061747 -0.85707,6.84397 -2.72547,8.847423 -0.75633,0.811002 -1.66598,2.044635 -2.02145,2.741408 -0.35547,0.696772 -0.87283,1.454857 -1.14969,1.684633 C 113.82652,29.330366 113.6,29.8431 113.6,30.24 c 0,0.3969 -0.216,0.9009 -0.48,1.12 -0.264,0.2191 -0.4718,0.560732 -0.46178,0.759181 0.0323,0.640144 3.28718,2.878259 5.18735,3.56695 1.9842,0.719149 4.73486,3.098727 5.32207,4.60409 3.42369,8.776969 3.27749,8.246781 2.90723,10.542793 -0.18864,1.169844 -0.47807,2.990986 -0.64316,4.046986 -0.16509,1.056 -0.42393,2.604 -0.57521,3.44 -0.15127,0.836 -0.2208,1.52 -0.15451,1.52 0.0663,0 -0.0365,0.29344 -0.22846,0.652086 -0.47989,0.896679 -0.12352,1.805908 0.79851,2.037322 1.41589,0.355366 1.47897,3.868784 0.12295,6.848144 -0.66412,1.459165 -0.57955,2.350096 0.32019,3.373094 0.37726,0.428948 0.52576,1.2612 0.54241,3.04 0.0137,1.463316 0.24985,3.093469 0.58661,4.049354 0.43037,1.221658 0.51742,2.12968 0.36809,3.84 -0.23569,2.699642 -0.76392,4.947814 -1.31575,5.6 -0.22338,0.264 -0.45348,0.674768 -0.51134,0.912819 -0.0579,0.238051 -0.51068,0.848458 -1.00628,1.356461 -0.49559,0.508 -0.81109,1.069232 -0.70111,1.247178 0.10998,0.177948 0.0835,0.323689 -0.0589,0.323868 -0.14239,1.8e-4 -0.6632,0.72018 -1.15735,1.6 -0.49415,0.879821 -1.06755,1.599674 -1.27421,1.599674 -0.20666,0 -1.09836,0.756384 -1.98154,1.680854 -1.90479,1.993837 -5.48163,5.182986 -6.73574,6.005676 -0.49042,0.32171 -1.41529,1.13585 -2.05526,1.8092 -3.47557,3.65681 -11.733164,8.46841 -15.610304,9.09593 -3.726707,0.60317 -6.220368,0.63705 -7.407619,0.10066 z m 6.17553,-0.96473 c 5.634518,-0.99298 11.064153,-4.32615 18.221043,-11.18562 0.37761,-0.36191 1.54521,-1.29791 2.59467,-2.08 8.09343,-6.031445 13.21045,-15.013989 11.68385,-20.510133 -0.17845,-0.64249 -0.53765,-1.249968 -0.79821,-1.349955 -0.26056,-0.09999 -0.47375,-0.371866 -0.47375,-0.604176 0,-0.232311 -0.30006,-0.992832 -0.6668,-1.690045 -0.46271,-0.879651 -0.7676,-2.345072 -0.99612,-4.787661 -0.40352,-4.313165 -0.40543,-4.32 -1.20704,-4.32 -0.80168,0 -0.88613,-1.128733 -0.14567,-1.946934 0.4595,-0.507738 0.4562,-0.729056 -0.0371,-2.4873 -0.45039,-1.605161 -0.89879,-2.303043 -2.66438,-4.14672 C 117.91528,57.719834 116.528,56.497178 116,56.222035 c -0.528,-0.275142 -1.72792,-1.221801 -2.66649,-2.103689 -1.35324,-1.271517 -2.21437,-1.766816 -4.16,-2.392724 -2.19011,-0.704553 -3.37294,-1.02639 -4.37351,-1.189977 -0.176,-0.02877 -0.65761,-0.180679 -1.07025,-0.337562 C 102.4076,49.695402 93.13623,49.47721 90.358288,49.883398 86.718374,50.415626 80.547622,52.509965 79.032938,53.727197 78.353462,54.273238 77.645085,54.72 77.458765,54.72 77.272445,54.72 77.12,54.837328 77.12,54.980733 c 0,0.143401 -0.504,0.501072 -1.12,0.794822 -0.616,0.293751 -1.12,0.680419 -1.12,0.859267 0,0.178848 -0.18,0.32792 -0.4,0.331274 -0.22,0.0034 -1.259984,0.75935 -2.311075,1.68 -3.595901,3.149635 -5.961546,5.786522 -6.956295,7.753904 -0.355958,0.704 -0.819606,1.496 -1.030329,1.76 -0.210723,0.264 -0.789751,1.516326 -1.286727,2.782944 -0.681628,1.737229 -0.886336,2.75913 -0.833324,4.16 0.161292,4.26256 0.07492,5.08513 -0.747104,7.115501 -0.458368,1.132144 -1.146893,2.392144 -1.530052,2.8 -0.383161,0.407856 -0.563555,0.74376 -0.400873,0.746454 0.162678,0.0026 0.144166,0.110695 -0.04114,0.24 -0.855143,0.59672 -2.063069,2.625799 -2.062925,3.465306 3.2e-4,1.837117 1.769578,5.569795 2.640038,5.569795 0.165552,0 0.715434,0.295101 1.221959,0.655779 0.749398,0.533616 1.046854,0.588397 1.596806,0.294074 0.835779,-0.447296 1.245872,-0.128848 0.532439,0.413453 -0.708208,0.538329 -0.26456,1.075942 2.167164,2.626172 1.05521,0.672698 2.06321,1.405662 2.24,1.628802 0.409511,0.51689 4.322122,3.02172 4.720007,3.02172 0.164643,0 1.057843,0.648 1.984889,1.44 0.927047,0.792 1.886013,1.44068 2.131037,1.44152 0.245027,9.6e-4 1.597501,0.87967 3.005501,1.95298 1.408,1.0733 3.160432,2.21454 3.894294,2.53609 0.733863,0.32154 1.885863,1.07783 2.56,1.68063 2.130829,1.90534 3.202506,2.09101 7.598103,1.31637 z m 3.233725,-9.14728 c -1.171258,-0.61731 -1.60152,-0.65482 -5.340935,-0.46556 -4.274905,0.21636 -5.815897,-0.16745 -2.417059,-0.602 4.464422,-0.5708 6.837558,-0.47011 8.56535,0.3634 0.888196,0.42848 1.528013,0.91963 1.421824,1.09145 -0.281958,0.45622 -0.799299,0.36634 -2.22918,-0.38729 z m -5.630525,-6.214736 c -2.116941,-0.625248 -4.839341,-3.964854 -4.749607,-5.826406 0.01763,-0.365642 0.146362,-0.273885 0.4,0.285098 0.698356,1.539084 2.928768,3.874384 4.259879,4.460211 1.485197,0.653638 3.231069,0.459481 4.262605,-0.474045 0.634534,-0.574246 1.712278,-2.662624 2.140915,-4.148518 0.364243,-1.262669 0.935366,-0.940042 0.810921,0.458086 -0.155171,1.743338 -1.699331,4.23097 -3.021894,4.868246 -1.64,0.790234 -2.45199,0.864912 -4.102819,0.377328 z M 72.286502,84.281216 c -0.967849,-0.296986 -1.956153,-0.951933 -2.88,-1.908566 -0.773574,-0.801028 -1.734192,-1.58841 -2.134704,-1.749732 -0.760556,-0.306345 -1.261523,-1.139859 -0.901484,-1.499897 0.32544,-0.325443 2.156336,0.83768 3.33543,2.118915 0.96871,1.052627 1.068957,0.964029 0.500019,-0.441936 -0.409385,-1.01168 0.388871,-0.414432 1.092304,0.817254 0.934259,1.635853 1.884794,1.996864 4.530455,1.720666 2.544838,-0.265674 3.392508,-0.672326 4.915526,-2.358125 1.289267,-1.427065 1.542006,-1.432669 0.530227,-0.01174 -0.710064,0.997191 -2.397446,2.143431 -3.758768,2.553331 -0.853574,0.257015 -0.847449,0.264263 0.244493,0.289338 1.788058,0.04106 3.379795,-0.544979 4.448131,-1.637702 1.147895,-1.174093 1.300551,-0.945312 0.303527,0.454883 C 81.418861,84.162592 79.642995,84.790237 76.48,84.759664 74.984,84.7452 73.096928,84.529907 72.286502,84.281226 Z M 103.80118,81.829162 C 102.4016,81.416166 101.44,80.769645 101.44,80.241635 c 0,-0.183811 0.19693,-0.15656 0.46273,0.06403 0.43331,0.359616 3.65743,1.257706 4.60571,1.282935 0.26692,0.0071 0.11611,-0.359799 -0.4,-0.973156 -0.87217,-1.036528 -1.10544,-1.78207 -0.42844,-1.369382 0.22,0.134106 0.66245,0.574605 0.98323,0.978883 1.14455,1.442506 5.23646,0.474704 6.41283,-1.516739 0.63368,-1.072736 0.67971,-2.81545 0.0971,-3.677005 C 112.70333,74.336394 112.27218,73.28 112.45844,73.28 c 0.0651,0 0.40042,0.478083 0.74518,1.062406 0.75904,1.286477 1.03686,2.940157 0.6945,4.133901 -0.57336,1.999187 2.17075,-0.01392 2.94766,-2.162419 0.41742,-1.154342 1.25323,-1.537242 1.20907,-0.553888 -0.083,1.847962 -2.90131,4.586762 -5.13622,4.991309 -0.46275,0.08376 -1.31286,0.396118 -1.88913,0.694121 -1.32764,0.686548 -5.45888,0.905866 -7.22832,0.383732 z M 74.14313,79.76 c -0.739501,-1.318157 -0.164768,-3.92 0.865907,-3.92 1.119661,0 1.784457,2.193885 1.018861,3.362333 -0.494452,0.75463 -1.592074,1.079395 -1.884768,0.557667 z m -4.001472,-1.781037 c -0.03391,-1.023571 0.0993,-2.161798 0.296038,-2.529395 0.350026,-0.654032 0.331158,-0.652714 -0.88,0.06151 -0.680733,0.401427 -1.55479,1.071655 -1.942346,1.489395 -0.783974,0.845028 -1.69535,1.006813 -1.69535,0.300954 0,-0.77521 2.859686,-2.858336 5.92,-4.312397 2.480352,-1.178502 4.331872,-1.552877 7.450826,-1.506544 2.374576,0.03528 2.638262,0.112445 4.414243,1.291869 2.125104,1.411277 1.867539,1.952182 -0.341632,0.717453 -0.789258,-0.441123 -1.904909,-0.837059 -2.479226,-0.879856 -1.490073,-0.111034 -4.933789,0.323446 -6.788681,0.856502 -1.834359,0.527155 -3.615399,2.000643 -2.97632,2.462362 0.282102,0.203811 0.239356,0.237901 -0.144349,0.11512 -0.46625,-0.149197 -0.56152,0.112707 -0.658343,1.809814 L 70.203315,79.84 Z m 11.34399,0.04356 c -0.13096,-0.823613 -0.497334,-1.831613 -0.81417,-2.24 C 80.354646,75.374134 79.92072,74.68 79.707197,74.24 c -0.29592,-0.609789 -0.16001,-0.533706 0.571622,0.32 1.008717,1.177024 1.792291,3.34848 1.573907,4.361648 -0.07093,0.329094 -0.236118,-0.07551 -0.367078,-0.899126 z m 26.563952,-1.16772 c -0.6081,-0.671942 -0.67294,-1.42904 -0.19834,-2.31584 0.47744,-0.892112 1.17837,-0.761933 1.73944,0.323053 0.35851,0.693286 0.40502,1.157994 0.17614,1.76 -0.36621,0.963197 -0.98083,1.046512 -1.71724,0.232787 z M 72.376774,76.131997 c -0.231616,-0.370877 -0.35966,-0.735776 -0.284547,-0.81089 0.222007,-0.222006 0.938279,0.787376 0.816973,1.151293 -0.06122,0.183654 -0.30081,0.03046 -0.532426,-0.340403 z M 97.882237,74.96 c 1.652749,-3.036992 7.004073,-5.246192 11.451873,-4.727699 4.7259,0.550912 7.75288,1.309321 8.02169,2.00984 0.32812,0.855069 -0.39987,0.995965 -2.1558,0.417241 -2.3446,-0.772739 -4.24402,-1.054214 -3.95468,-0.586048 0.15021,0.243037 0.026,0.273863 -0.39283,0.09748 -1.51114,-0.636397 -4.31747,-0.80897 -5.45131,-0.335219 -0.71782,0.299923 -1.0428,0.607613 -0.89477,0.847139 0.13889,0.22472 0.0947,0.29103 -0.10964,0.164714 -0.18816,-0.116292 -0.428,-0.03053 -0.53299,0.190556 -0.10498,0.221098 -0.12921,0.07208 -0.0539,-0.331152 0.11685,-0.625206 0.0349,-0.702416 -0.55645,-0.524406 -1.5173,0.456717 -2.72195,1.17392 -3.745458,2.229907 -1.157625,1.194368 -2.161817,1.532631 -1.625785,0.547645 z M 68.010659,72.712387 C 67.899606,72.422992 68.14335,71.870362 68.594845,71.387898 69.020954,70.932554 69.659283,69.984 70.013357,69.28 c 0.354073,-0.704 1.722569,-2.324 3.041101,-3.6 2.488614,-2.408339 3.030438,-2.624595 5.825542,-2.32513 1.943792,0.208256 3.52472,2.521376 3.304064,4.834308 -0.08543,0.895472 -0.218678,1.068182 -0.744064,0.964406 -0.352,-0.06953 -1.864,-0.138051 -3.36,-0.152275 -2.448714,-0.0233 -2.911498,0.07369 -4.64,0.972297 -1.056,0.548986 -2.666726,1.501533 -3.579389,2.116768 -1.368829,0.922736 -1.692758,1.031652 -1.849952,0.622013 z M 70.88,70.904317 c 0.528,-0.374695 1.824,-1.10945 2.88,-1.632791 C 75.482925,68.417667 75.992035,68.32 78.72,68.32 h 3.04 L 81.65472,67.36 C 81.522134,66.150976 80.361107,64.38423 79.52,64.111568 78.539706,63.793782 76.190909,63.960282 75.400512,64.403581 74.390778,64.969894 70.4,69.327859 70.4,69.864179 c 0,0.247232 -0.321347,0.858042 -0.714109,1.357354 -0.735043,0.934457 -0.470742,0.864246 1.194109,-0.317216 z m 7.46,2.157088 c 0.230998,-0.09244 0.506998,-0.08107 0.613334,0.02525 0.106333,0.106333 -0.08267,0.181965 -0.42,0.16807 C 78.16055,73.239363 78.084726,73.163542 78.34,73.061392 Z M 105.92,72.96 c 0,-0.176 0.144,-0.32 0.32,-0.32 0.176,0 0.32,0.144 0.32,0.32 0,0.176 -0.144,0.32 -0.32,0.32 -0.176,0 -0.32,-0.144 -0.32,-0.32 z m 7.04,-5.757795 c -0.616,-0.134307 -2.416,-0.701015 -4,-1.259351 -3.89692,-1.373603 -5.47475,-1.500118 -7.94186,-0.6368 -1.087977,0.380717 -2.231023,0.913719 -2.540102,1.184452 -0.309078,0.270729 -0.657296,0.396902 -0.773814,0.280384 -0.291309,-0.291309 0.499091,-1.701632 0.961306,-1.715277 0.205958,-0.0061 1.35872,-0.334525 2.5617,-0.729879 2.62781,-0.863625 3.20569,-0.798249 8.71273,0.985652 2.21645,0.717977 4.10537,1.229945 4.19761,1.137708 0.2436,-0.243596 -0.45401,-1.152592 -2.82025,-3.67487 -2.00688,-2.139213 -2.17894,-2.247008 -3.98735,-2.498115 -1.03948,-0.144336 -3.16362,-0.265507 -4.7203,-0.269267 -2.763251,-0.0067 -2.848652,0.0159 -3.603075,0.953158 -0.64152,0.796982 -0.655823,1.867438 -0.604745,2.4 0.118319,1.23366 0.04398,2.517118 -0.252528,1.833243 -0.479056,-1.10488 -0.01782,-4.516193 0.78014,-5.236389 0.563844,-0.508892 1.163048,-0.591888 4.065918,-0.563155 1.87254,0.01853 4.1957,0.204538 5.16258,0.413341 1.55341,0.335469 1.99518,0.629411 3.79679,2.526301 3.33889,3.515462 4.24053,5.256915 2.66636,5.149859 C 114.3235,67.462976 113.576,67.336512 112.96,67.202205 Z M 60.469757,82.111037 C 60.68992,81.443939 61.069402,80.516051 61.313056,80.049066 62.071798,78.594845 61.738064,75.221069 60.96,76.48 c -0.112323,0.181741 -0.347654,0.241795 -0.522957,0.13345 -0.193795,-0.11977 -0.118035,-0.418759 0.193267,-0.762743 0.411687,-0.454909 0.453447,-0.826358 0.213149,-1.895853 -0.323328,-1.439017 -2.441321,-4.301356 -3.037449,-4.104921 -0.583655,0.192326 -1.186576,1.617501 -0.83361,1.970467 0.169181,0.169181 0.3076,0.560406 0.3076,0.869389 0,0.308985 0.36,1.092278 0.8,1.740656 0.872253,1.285337 1.059741,3.244723 0.46113,4.819184 -0.45752,1.203373 -0.448701,3.716707 0.0161,4.585181 0.370758,0.692771 0.38911,0.694672 0.945171,0.09781 0.311888,-0.334775 0.7472,-1.154487 0.967363,-1.821584 z m 64.942553,-7.911674 c -0.21834,-0.769651 -0.57838,-1.599174 -0.8001,-1.843389 -0.32845,-0.361779 -0.37348,-0.183952 -0.24313,0.96 0.19516,1.712612 0.75736,2.965581 1.15309,2.569853 0.16947,-0.169472 0.12446,-0.860448 -0.10986,-1.686464 z M 61.810317,71.28 c 0.19103,-0.484 0.449859,-0.88 0.575171,-0.88 0.125315,0 0.227846,-0.186819 0.227846,-0.415155 0,-0.228336 0.493194,-1.272336 1.095988,-2.32 C 64.312115,66.617181 65.018723,65.328 65.279558,64.8 c 0.950055,-1.923155 9.720999,-10.08 10.838884,-10.08 0.135497,0 0.812278,-0.481686 1.503958,-1.070413 1.654477,-1.408221 2.110518,-1.633481 6.322346,-3.122909 7.70567,-2.72495 16.438884,-2.704937 25.153504,0.05765 2.79778,0.886909 3.50949,1.264471 5.16043,2.737571 1.05328,0.939824 2.30951,1.912752 2.79162,2.162061 0.48211,0.249309 1.5528,1.187411 2.37932,2.084669 0.82651,0.897258 1.63792,1.631376 1.80313,1.631376 0.1652,0 0.58769,0.58072 0.93885,1.290486 l 0.63848,1.290487 0.36831,-1.050487 c 0.70764,-2.018339 2.06539,-9.065097 2.08293,-10.810486 0.0283,-2.81736 -1.90365,-8.075965 -4.02202,-10.947523 -1.05314,-1.427587 -2.41109,-2.315274 -4.83566,-3.161072 -0.658,-0.229539 -1.738,-0.897107 -2.4,-1.483482 -0.662,-0.586377 -1.58513,-1.300521 -2.0514,-1.586982 -0.46627,-0.286464 -1.24899,-1.155596 -1.73937,-1.931407 -0.49039,-0.775811 -1.17982,-1.564812 -1.53209,-1.753336 -0.7689,-0.411504 -0.95527,-0.551793 -2.60078,-1.957678 -1.08252,-0.924879 -2.4122,-1.61763 -3.04,-1.583811 -0.088,0.0047 -0.51057,-0.124669 -0.93905,-0.287577 -1.61512,-0.614066 -7.359628,-0.355877 -10.845104,0.487438 -1.817286,0.439694 -3.566716,0.98979 -3.887625,1.222437 C 84.62833,28.923323 82.24,30.857308 82.24,31.089662 c 0,0.154916 -1.116,1.403826 -2.48,2.775356 -2.620483,2.63495 -4.578189,3.907139 -8.24,5.354659 -2.138102,0.845193 -4.939514,2.261171 -5.28,2.668781 -0.088,0.105347 -0.808,0.535641 -1.6,0.956204 -2.976682,1.580663 -8.487146,7.981373 -9.181834,10.665216 -0.725817,2.8041 -0.0072,7.410877 1.482343,9.502746 0.36272,0.509395 0.659491,1.127142 0.659491,1.372774 0,0.245632 0.133546,0.583402 0.296768,0.750602 0.163219,0.1672 0.674282,1.312 1.13569,2.544 0.461404,1.232 1.119862,2.71623 1.463232,3.298291 0.343369,0.582061 0.647356,1.590061 0.675523,2.24 L 61.222422,74.4 61.342707,73.28 c 0.06616,-0.616 0.276579,-1.516 0.46761,-2 z m 62.568283,-0.3 c -0.10216,-0.255274 -0.17798,-0.17945 -0.19334,0.193334 -0.0139,0.337332 0.0617,0.526333 0.16807,0.42 0.10634,-0.106336 0.1177,-0.382336 0.0252,-0.613334 z m 0.98277,-4.411853 c 0.12447,-1.784726 0.0488,-2.198637 -0.52044,-2.848537 l -0.66606,-0.760388 -0.33355,0.877322 c -0.18346,0.482528 -0.243,1.560051 -0.13231,2.394493 0.1107,0.834441 0.24167,2.005821 0.29105,2.603065 0.14478,1.751191 0.16174,1.769924 0.70062,0.774045 0.28328,-0.52352 0.58059,-1.89152 0.66069,-3.04 z"
         id="outline" />
    </g>
  </g>
</svg>
