<?xml version="1.0" encoding="UTF-8" standalone="no"?>
<!-- Created with Inkscape (http://www.inkscape.org/) -->

<svg
   version="1.1"
   id="svg4182"
   width="192"
   height="288"
   viewBox="0 0 192 288"
   xmlns="http://www.w3.org/2000/svg"
   xmlns:svg="http://www.w3.org/2000/svg">
  <defs
     id="defs4186" />
  <g
     id="g4188"
     transform="translate(6,4)">
    <g
       id="g4192"
       transform="translate(-0.70762029,0.70761703)">
      <path
         style="fill:#edd9c1;stroke-width:0.32"
         d="m 59.84,189.84423 c -0.264,-0.10188 -1.515853,-0.94952 -2.781894,-1.88363 -2.730596,-2.0147 -2.95985,-2.55078 -3.199095,-7.4806 -0.142064,-2.92736 -0.0729,-3.59872 0.537178,-5.21396 0.385129,-1.01967 1.033107,-2.21312 1.439949,-2.65211 0.863302,-0.93152 0.850796,-1.21208 -0.348224,-7.81393 -0.431527,-2.376 -0.931124,-5.184 -1.110212,-6.24 -0.741564,-4.37269 -1.069878,-5.65925 -2.613091,-10.24 -0.889395,-2.64 -1.745341,-5.052 -1.902102,-5.36 -0.408253,-0.80211 0.187613,-0.7121 1.588752,0.24 0.647517,0.44 1.310665,0.8 1.473664,0.8 0.162998,0 1.597638,0.59943 3.188093,1.33206 2.342777,1.07919 3.264409,1.33736 4.854896,1.36 1.709219,0.0243 2.187523,-0.1136 3.697625,-1.06623 0.953952,-0.60179 2.526461,-1.57979 3.494461,-2.17334 l 1.76,-1.07917 0.186544,1.53334 c 0.357373,2.93753 -1.300854,9.10781 -3.45024,12.83837 -1.049398,1.82139 -2.780058,4.09669 -3.936227,5.17497 -0.471783,0.44 -1.253795,1.53783 -1.737808,2.43962 l -0.880023,1.63961 1.460704,1.56039 c 0.803386,0.85821 1.401168,1.77638 1.3284,2.04038 -0.07277,0.264 -0.305033,2.41604 -0.51615,4.78232 -0.399507,4.4778 -0.228368,10.12881 0.372349,12.29496 0.479373,1.7286 0.174105,2.62981 -1.033373,3.05074 -1.101904,0.38413 -1.169142,0.3883 -1.874176,0.11621 z M 132,182.87121 c -1.056,-0.59792 -2.24495,-1.56055 -2.64211,-2.13917 -0.39715,-0.57862 -0.93727,-1.212 -1.20026,-1.40751 -0.37351,-0.27768 -0.50353,-1.32816 -0.5941,-4.8 -0.0721,-2.76176 -0.3217,-5.25169 -0.65939,-6.57639 l -0.54344,-2.13186 0.84128,-1.66019 0.84129,-1.6602 -1.36297,-3.24794 c -0.74964,-1.78638 -1.4603,-3.39195 -1.57926,-3.56795 -2.32351,-3.43766 -4.87833,-11.84278 -5.59287,-18.4 l -0.22666,-2.08 0.90373,0.90085 c 1.0993,1.0958 3.34779,2.63859 4.27389,2.93253 0.41828,0.13275 1.50547,-0.10002 2.83003,-0.60593 1.99139,-0.7606 5.51111,-1.78745 6.12683,-1.78745 0.14562,0 0.34953,0.756 0.45313,1.68 0.10361,0.924 0.33086,2.4 0.50502,3.28 0.31252,1.57916 0.22352,11.58468 -0.16511,18.56357 l -0.19621,3.52357 1.1347,0.41031 c 0.77627,0.2807 1.54698,0.98717 2.43981,2.23643 2.39863,3.35621 2.73267,4.32263 2.73267,7.90612 0,2.91254 -0.0852,3.36816 -0.94847,5.0719 -1.06609,2.10404 -3.7162,4.69918 -4.76614,4.66727 -0.37696,-0.0115 -1.54939,-0.51004 -2.60539,-1.10796 z"
         id="skin" />
      <path
         id="shirt"
         style="fill:#f8990c;stroke-width:0.32"
         d="m 120.24864,91.923242 c -0.56625,0.03002 -1.04119,0.209668 -1.54493,0.56836 -1.28306,0.913777 -1.18814,1.190297 0.41602,1.210937 0.86904,0.01118 1.4743,0.19796 1.67773,0.517578 0.44203,0.694537 0.70379,0.629753 1.33399,-0.332031 0.72447,-1.105653 0.27616,-1.785566 -1.28125,-1.945312 -0.21365,-0.02192 -0.41282,-0.02954 -0.60156,-0.01953 z m 2.57031,2.738282 -1.65039,1.84375 c -0.9072,1.014222 -1.93733,2.22971 -2.28906,2.701171 -0.60964,0.816595 -2.86795,2.948595 -5.27149,4.976565 -1.48252,1.25086 -3.71705,3.49027 -5.24805,5.25781 -0.68601,0.792 -2.46055,2.71234 -3.94336,4.26953 -1.48254,1.55718 -2.82753,3.17874 -2.98828,3.60156 -0.16075,0.42281 -0.429,0.76758 -0.5957,0.76758 -0.16671,0 -0.46857,0.5051 -0.67187,1.1211 -0.203434,0.616 -0.503671,1.11914 -0.66602,1.11914 -0.162352,0 -0.294922,0.28862 -0.294922,0.64062 0,0.352 -0.122214,0.63867 -0.271485,0.63867 -0.306177,0 -1.047653,1.64153 -3.4375,7.59961 -0.511547,1.27542 -1.084673,2.31968 -1.273437,2.32032 -0.188762,5.7e-4 -0.737794,-0.97021 -1.21875,-2.15821 -1.713469,-4.23203 -3.99302,-6.85563 -8.71875,-10.02734 -0.414669,-0.2783 -2.044695,-1.71752 -3.621094,-3.19922 -3.227644,-3.03377 -4.754646,-4.32197 -6.230469,-5.25391 -1.177892,-0.74382 -4.948166,-3.64315 -7.708984,-5.92968 -1.055973,-0.87467 -2.221653,-1.72314 -2.591797,-1.88477 -0.370113,-0.16163 -1.193223,-0.90085 -1.828125,-1.64258 l -1.154297,-1.34961 -0.375,0.82617 c -0.365797,0.8029 -3.052339,3.12894 -5.378906,4.65821 -0.633592,0.41647 -1.727641,1.28781 -2.431641,1.9375 -0.703973,0.64969 -1.887702,1.58564 -2.630859,2.08008 -1.959312,1.30329 -4.063377,3.67583 -4.869141,5.48828 -0.696001,1.56561 -0.69865,1.60699 -0.201171,5.98047 0.275467,2.4217 0.517399,6.16433 0.537109,8.31836 0.0197,2.15377 0.127933,5.27161 0.240234,6.92578 l 0.205078,3.00586 2.451172,1.31836 c 1.349042,0.72477 2.718085,1.55196 3.041016,1.83593 0.322932,0.28397 0.946719,0.62419 1.386719,0.75782 0.439973,0.13363 1.809069,0.74672 3.041015,1.36132 1.92074,0.95821 2.580732,1.1222 4.638672,1.1543 2.314148,0.0361 2.469004,-0.009 4.320313,-1.28125 1.055973,-0.72554 2.531297,-1.69939 3.279297,-2.16406 1.305866,-0.81125 1.361328,-0.90754 1.361328,-2.44336 0,-2.40479 -0.854359,-7.24164 -2.140625,-12.11719 -1.399771,-5.30541 -1.548872,-6.11719 -1.119141,-6.11719 0.305475,0 0.98162,1.93219 1.511719,4.32032 0.1172,0.528 0.479855,1.89701 0.80664,3.04101 1.296668,4.53903 2.093495,11.04817 2.015625,16.48047 -0.03764,2.62646 -0.200838,3.6012 -0.904296,5.43945 -0.471408,1.232 -1.051053,2.83873 -1.289063,3.57032 -0.648571,1.99338 -4.177079,7.02674 -5.53125,7.89062 -0.501759,0.32011 -1.990234,2.63999 -1.990234,3.10156 0,0.51236 1.914842,2.50236 3.130859,3.25391 0.59621,0.3685 1.524258,1.07087 2.0625,1.5625 0.538268,0.49164 1.346548,0.98708 1.794922,1.09961 0.448344,0.11254 1.681532,0.6339 2.742187,1.16016 1.060658,0.52599 2.869895,1.25833 4.019532,1.625 1.149633,0.36667 2.773843,1.00777 3.609375,1.42578 1.579879,0.7904 8.269006,2.31517 11.601562,2.64453 1.913888,0.18915 5.989246,0.14584 10.240233,-0.10742 1.31756,-0.0785 2.89873,-0.41745 3.83985,-0.82422 0.87973,-0.38036 2.55964,-1.02825 3.73437,-1.43946 1.17473,-0.41121 2.90633,-1.31658 3.84766,-2.01171 0.94134,-0.69541 2.35659,-1.59281 3.14453,-1.99415 0.78793,-0.40108 1.88458,-1.07253 2.43554,-1.49218 0.55123,-0.41965 1.90428,-1.20063 3.00586,-1.73438 2.30632,-1.11719 5.8552,-4.11408 6.38477,-5.39258 0.31487,-0.76017 0.19159,-1.25738 -0.96289,-3.88086 -0.72807,-1.65421 -1.87054,-4.02836 -2.53906,-5.27539 -1.53677,-2.86635 -3.66611,-10.21515 -4.37696,-15.10937 -1.03066,-7.09616 -0.7625,-13.76483 0.84571,-21.0332 0.15576,-0.704 0.36761,-1.68068 0.4707,-2.17188 0.1031,-0.49119 0.31106,-0.81721 0.46094,-0.72461 0.14989,0.0926 0.0954,1.06932 -0.1211,2.17188 -0.93597,4.76556 -1.17571,6.32815 -1.38672,9.04492 -0.123,1.584 -0.15115,4.17603 -0.0645,5.75976 0.1549,2.78814 0.18465,2.87972 0.93555,2.88672 0.4266,0.004 0.8333,0.18167 0.9043,0.39453 0.071,0.21287 0.76623,0.81563 1.54296,1.33985 2.59158,1.74903 2.52609,1.73907 4.875,0.87109 1.17798,-0.43525 2.57357,-0.88593 3.10157,-1 2.60872,-0.56362 3.36132,-0.86219 3.36132,-1.33789 0,-0.31488 0.17807,-0.43366 0.47852,-0.31836 0.28849,0.1107 0.90677,-0.24271 1.55078,-0.88672 0.92193,-0.92193 1.09726,-1.35313 1.26367,-3.10937 0.10627,-1.1216 0.7038,-3.40808 1.32813,-5.08008 0.97621,-2.61433 1.1339,-3.42063 1.1289,-5.75977 -0.009,-4.12992 -0.56775,-10.48588 -0.99414,-11.28711 -0.78471,-1.47423 -2.40068,-3.16622 -3.63671,-3.81054 -0.704,-0.3669 -1.8546,-1.06568 -2.5586,-1.55274 -0.704,-0.48707 -2.0144,-1.12006 -2.91015,-1.40625 -2.04771,-0.65406 -2.52344,-1.10497 -4.76954,-4.515621 z m -58.679689,2.449218 c -0.332101,-0.03174 -0.717465,-0.01431 -1.136719,0.05273 l -1.314453,0.208984 0.158203,1.408203 c 0.08718,0.773426 0.413495,1.689216 0.726563,2.035156 0.518162,0.57259 0.89073,0.64995 0.80664,0.16797 -0.101987,-0.58459 1.033993,-2.058602 1.71875,-2.23047 0.893621,-0.224265 0.833514,-0.792288 -0.146484,-1.404296 -0.202515,-0.126472 -0.4804,-0.206538 -0.8125,-0.238282 z m 61.560549,69.091798 c -0.15066,-0.0931 -0.95523,0.39779 -1.78711,1.0918 -0.83187,0.69402 -2.4478,1.73106 -3.5918,2.30468 -1.144,0.57362 -2.15223,1.14555 -2.24023,1.26953 -0.088,0.12398 -1.24055,0.85858 -2.56055,1.63282 -1.32,0.77424 -2.98634,1.84946 -3.70312,2.39062 -0.74132,0.55948 -3.22584,1.66704 -5.75977,2.56641 l -4.45703,1.58203 h -6.880861 c -5.579128,0 -7.181033,-0.10122 -8.478516,-0.53516 -0.879973,-0.29432 -2.394515,-0.62517 -3.365234,-0.73437 -0.970722,-0.10919 -2.987245,-0.70617 -4.480469,-1.32617 -1.4932,-0.62001 -3.003495,-1.20813 -3.355468,-1.3086 -1.938543,-0.55333 -8.695737,-3.7839 -10,-4.78125 l -1.519532,-1.16406 -0.36914,3.32422 c -0.759994,6.82965 -0.366425,11.76413 1.326172,16.60547 0.46147,1.32 0.952313,2.83137 1.091796,3.35937 0.139511,0.528 0.56365,1.63448 0.941407,2.45899 0.583925,1.27457 0.698268,2.18533 0.767578,6.08008 0.106883,6.00605 -0.592603,18.66095 -1.199219,21.70117 -0.651458,3.26465 -0.608056,3.96617 0.328125,5.44922 1.754694,2.77943 3.176766,4.19521 7.353516,7.3125 1.276868,0.95299 2.638976,1.25324 3.214843,0.71093 0.1672,-0.15745 1.345487,-0.65614 2.617188,-1.10937 1.271701,-0.45322 2.855286,-1.17718 3.519531,-1.60938 0.664272,-0.43221 1.784308,-0.93829 2.488281,-1.12304 0.704,-0.18476 1.784418,-0.68204 2.400391,-1.10547 l 1.119141,-0.76953 0.02344,-6.51758 c 0.01262,-3.58493 0.123721,-7.3113 0.248047,-8.2793 0.124326,-0.968 0.450037,-3.70408 0.722656,-6.08008 0.272647,-2.37573 0.773308,-5.32659 1.113282,-6.55859 0.339951,-1.232 0.910159,-3.75161 1.265625,-5.59961 0.355439,-1.848 0.854796,-4.15309 1.109375,-5.12109 0.254549,-0.968 0.578751,-2.40722 0.720703,-3.19922 0.202783,-1.13154 0.391791,-1.44141 0.886718,-1.44141 1.062773,0 4.035505,6.73139 6.146487,13.91992 0.59893,2.0396 0.69092,8.34423 0.28906,19.68555 l -0.25,7.04688 1.50391,0.73046 c 1.52436,0.74059 3.73438,2.4159 6.06054,4.59375 1.28972,1.20751 3.44923,2.1836 4.82618,2.1836 0.96026,0 2.02988,-0.47132 4.69531,-2.06641 1.18911,-0.7116 2.45515,-1.45188 2.81054,-1.64648 0.68746,-0.37616 2.92948,-3.21558 3.70508,-4.69141 1.25281,-2.38387 0.99918,-5.33599 -1.14453,-13.35547 -0.91204,-3.41172 -0.81438,-8.53463 0.31641,-16.63867 0.18418,-1.32 0.38898,-2.83333 0.45508,-3.36133 0.0661,-0.528 0.49853,-3.83964 0.96093,-7.35937 0.4624,-3.52 0.77873,-6.64413 0.70313,-6.94141 -0.0756,-0.29729 0.006,-1.80893 0.18164,-3.35937 0.33085,-2.92661 -0.19122,-9.85939 -0.76953,-10.2168 z" />
      <path
         id="shoes"
         style="display:inline;fill:#2b2b2a;stroke-width:0.32"
         d="m 66.467386,228.26309 c -0.185666,0.0563 -0.372878,0.10913 -0.560547,0.1582 -0.204315,0.0512 -0.41096,0.0888 -0.619141,0.11719 0.19862,0.56469 -0.134873,0.90763 -2.044921,2.75976 -1.282088,1.2432 -2.877202,2.92729 -3.544922,3.74219 -2.009012,2.4518 -3.879279,7.60297 -4.501953,12.40625 -0.277469,2.1403 0.524155,4.74032 1.789062,5.80469 1.245468,1.04802 1.744867,1.03947 7.125,-0.14258 11.082254,-2.43486 14.829134,-4.64099 17.689453,-10.41211 0.737224,-1.48754 1.938372,-3.11539 3.501953,-4.74609 1.924164,-2.00709 2.41872,-2.73309 2.587891,-3.79102 0.135395,-0.84671 0.603829,-1.7454 1.328125,-2.54687 l 0.748047,-0.82618 c -0.02119,-0.008 -0.04351,-0.0154 -0.06445,-0.0234 -0.09666,0.0132 -0.1933,0.0255 -0.291016,0.0332 -0.229712,0.0156 -0.459336,0.0175 -0.689453,0.0195 -0.0319,1.6e-4 -0.0638,3e-5 -0.0957,0 0.0076,0.0516 0.0224,0.11106 0.04687,0.17969 -0.02506,-0.0558 -0.04938,-0.11084 -0.07422,-0.16406 -0.0026,-0.006 -0.0053,-0.0101 -0.0078,-0.0156 -0.05534,-1e-4 -0.110676,-1.6e-4 -0.166016,0 l -0.623047,0.42969 c -0.615973,0.42343 -1.696391,0.92071 -2.400391,1.10547 -0.703973,0.18475 -1.824009,0.69083 -2.488281,1.12304 -0.664245,0.4322 -2.24783,1.15616 -3.519531,1.60938 -1.271701,0.45323 -2.449988,0.95192 -2.617188,1.10937 -0.575867,0.54231 -1.937975,0.24206 -3.214843,-0.71093 -4.127321,-3.0804 -5.566394,-4.50368 -7.292969,-7.21875 z m 57.847654,0.28125 c -0.99421,1.4798 -2.48387,3.28679 -3.02344,3.58203 -0.35539,0.1946 -1.62143,0.93488 -2.81054,1.64648 -2.66543,1.59509 -3.73505,2.06641 -4.69531,2.06641 -1.37695,0 -3.53646,-0.97609 -4.82618,-2.1836 -1.90201,-1.78074 -3.69856,-3.18403 -5.13281,-4.05468 -0.0684,0.10319 -0.13643,0.20713 -0.19726,0.31445 -0.10373,0.17683 -0.20377,0.35731 -0.31836,0.52734 l 0.20898,0.11719 -0.10547,2.24024 c -0.0575,1.23173 0.058,2.9799 0.25586,3.88476 0.30774,1.40757 0.62428,1.87678 2.18555,3.24805 1.00366,0.88152 2.80698,2.54069 4.00781,3.6875 2.28663,2.18377 5.67881,4.6181 7.57813,5.4375 2.88473,1.24463 5.08541,1.6035 9.99804,1.6289 5.44503,0.0282 6.51499,-0.24696 8.04102,-2.06054 1.35736,-1.61313 0.98571,-4.23399 -1.22071,-8.58789 -0.7323,-1.44565 -4.77664,-6.00547 -8.5371,-9.62696 l -0.8379,-0.80664 0.44532,-0.84961 c -0.24987,-0.0689 -0.50224,-0.13159 -0.75586,-0.18554 -0.0293,-0.006 -0.0585,-0.0114 -0.0879,-0.0176 -0.0557,6e-5 -0.11357,-0.004 -0.17188,-0.008 z m -35.443357,2.45312 c 0.01762,0.0393 0.03684,0.0791 0.05273,0.11524 7.93e-4,0.009 0.0038,0.0169 0.0059,0.0254 -0.02258,-0.0504 -0.04315,-0.0975 -0.05859,-0.14063 z" />
      <path
         id="outline"
         style="display:inline;fill:#2b2b2a;stroke-width:0.32"
         d="m 120.5377,91.089258 c -0.25112,0.0098 -0.40219,0.108413 -0.5586,0.296875 -0.30691,0.369799 -0.23688,0.462293 0.38086,0.501953 1.2048,0.07735 1.37692,0.113591 1.80079,0.378906 0.56918,0.356707 0.4941,0.985445 -0.22071,1.857422 -0.57372,0.699904 -0.64925,0.716061 -1.03906,0.210938 -0.45743,-0.5928 -3.65559,-1.036562 -3.95703,-0.548828 -0.0944,0.152675 -0.9938,0.812758 -1.99805,1.466796 -1.00424,0.654096 -2.04264,1.378611 -2.30664,1.609375 -1.15589,1.010576 -6.61208,5.466235 -7.80664,6.375005 -0.72184,0.54857 -2.2794,1.91816 -3.46094,3.04101 -1.18154,1.12286 -2.735029,2.47395 -3.451169,3.00195 -0.716141,0.528 -1.459249,0.84133 -1.957031,1.23243 -0.949503,0.57504 -2.050052,0.76824 -4.171875,1.00781 -1.344001,0.008 -2.784003,-0.26534 -4.810547,-0.80078 -0.189322,-0.008 -0.933855,-0.10332 -2.341797,-0.97657 -1.407942,-0.87268 -2.998843,-1.79256 -3.535156,-2.04296 -2.204521,-1.02922 -7.469842,-4.21184 -9.263672,-5.59961 -3.867989,-2.992386 -5.300273,-3.708083 -6.705078,-3.355472 -0.787306,0.197604 -1.950972,1.773582 -1.582032,2.142582 0.09269,0.0927 0.03528,0.25009 -0.128906,0.35156 -0.541555,0.33474 -1.416877,-1.02839 -1.578125,-2.458986 l -0.158203,-1.408203 1.396484,-0.267578 1.394532,-0.269531 -1.232422,-0.119141 c -1.773772,-0.170611 -2.126953,0.0568 -2.126953,1.371094 0,1.928405 -1.642112,3.779985 -5.919922,6.673825 -0.879942,0.59539 -1.879741,1.39381 -2.222656,1.77539 -0.34297,0.38158 -1.423419,1.184 -2.400391,1.78125 -2.166927,1.32468 -4.40903,3.63215 -5.558594,5.72266 -0.945475,1.7194 -1.142578,4.37272 -0.554687,7.47266 0.166867,0.88019 0.387088,5.11304 0.490234,9.40429 0.210493,8.75791 0.240029,8.86394 2.626953,10.01563 1.056937,0.50997 1.342126,0.86139 1.695313,2.08008 0.233676,0.80651 0.697364,2.25856 1.029297,3.22656 2.000153,5.83268 2.579958,8.01041 3.283203,12.32031 0.430652,2.64 0.943054,5.66528 1.136718,6.7207 0.193725,1.056 0.481862,2.88767 0.642579,4.07227 0.275949,2.03441 0.249798,2.20113 -0.476563,2.98437 -1.932127,2.08493 -2.611188,7.16752 -1.570312,11.74415 0.573696,2.52203 0.948152,3.00017 4.136718,5.27734 2.243826,1.60247 4.212141,1.85831 5.4375,0.70703 l 0.695313,-0.6543 0.736328,2.33399 c 0.404647,1.28364 0.983128,2.83908 1.285156,3.45508 0.327024,0.66697 0.637498,2.34979 0.767578,4.16015 0.320829,4.46508 -0.36737,17.91231 -1.117187,21.84766 -0.743836,3.90339 -0.784679,5.71053 -0.15625,6.92578 0.360496,1.07584 0.85574,1.78466 1.52539,2.48828 0.71242,0.49466 1.152652,1.0147 1.677173,1.52595 2.171615,1.83102 3.999882,3.49012 6.274762,4.5885 0.742197,0.25157 1.83374,0.18585 2.033103,0.17567 0.891772,-0.15822 1.459456,-0.40464 2.154993,-0.70365 1.408408,-0.76509 2.888742,-1.3172 4.1437,-1.99636 1.021046,-0.38935 1.87034,-0.80783 2.791217,-1.13244 1.442999,-0.41322 2.538816,-1.05568 3.544162,-1.87114 0.28198,-0.27412 0.609851,-0.4812 0.904364,-0.63337 0.409036,-1.21675 0.04588,-2.91904 -0.02148,-4.26758 -0.318269,-6.36706 0.778355,-17.70004 2.34375,-24.22852 0.506374,-2.112 1.304,-5.63984 1.773437,-7.83984 0.469494,-2.2 0.949019,-4.25714 1.064453,-4.57227 0.150461,-0.41075 0.585859,0.31454 1.53711,2.56055 0.729738,1.72313 1.540429,3.78027 1.800781,4.57227 0.260352,0.79142 0.782846,2.27963 1.162109,3.30664 1.172508,3.17393 1.397068,6.3297 1.117188,15.73242 -0.14146,4.75142 -0.26639,9.64652 -0.27539,10.87695 l -0.0176,2.23828 1.44141,0.80274 c 0.7921,0.34442 1.42492,0.65187 2.25781,1.28125 0.85263,0.48383 1.47034,0.89363 2.08203,1.43164 0.64472,0.44661 1.15108,0.74777 1.66211,1.37304 0.40342,0.51336 0.81682,0.86969 1.31641,1.25 0.45823,0.26957 0.90996,0.53024 1.22656,0.72266 0.38252,0.15484 0.63956,0.27358 0.92578,0.42188 0.75438,0.3727 1.54178,0.31028 2.32227,0.34375 1.23618,-0.068 2.20284,-0.59962 3.20117,-1.03516 1.11908,-0.56074 2.18341,-1.09392 3.15429,-1.62109 0.61967,-0.31838 1.09807,-0.74013 1.56055,-1.13282 0.60356,-0.64394 1.25817,-1.18054 1.75195,-1.68554 0.44054,-0.55573 0.79862,-1.05095 1.17969,-1.5625 0.0763,-0.0875 0.15726,-0.12253 0.22461,-0.12305 0.0117,-9e-5 0.0224,0.004 0.0332,0.006 l 0.9043,-1.72461 c 1.34424,-2.56462 1.28164,-4.3326 -0.39453,-11.23047 l -1.32422,-5.44531 0.32031,-5.11328 c 0.17553,-2.81211 0.74243,-8.13799 1.25977,-11.83399 0.80757,-5.76894 1.38381,-10.27187 1.69531,-13.23047 0.0717,-0.68126 0.17203,-0.62266 1.06836,0.63868 1.17998,1.65991 5.37108,3.99518 6.60156,3.67773 1.2151,-0.31334 3.63854,-2.50609 4.6875,-4.24414 2.85658,-4.73049 2.36281,-10.21508 -1.35937,-15.08789 -0.84265,-1.10328 -1.96962,-2.23152 -2.50391,-2.50781 l -0.97265,-0.50196 0.21093,-2.45117 c 0.11552,-1.34843 0.21189,-6.12528 0.21289,-10.61328 0.002,-6.46829 -0.10067,-8.48517 -0.49218,-9.73047 -0.87088,-2.77004 -0.70847,-3.46768 1.21679,-5.28906 1.60312,-1.51617 1.71113,-1.71904 1.76563,-3.25781 0.0696,-1.96701 0.35044,-3.09921 1.65039,-6.68164 1.07327,-2.9582 1.03926,-2.08965 0.45312,-12 -0.22346,-3.77846 -0.41647,-4.41174 -1.9414,-6.33399 -0.82003,-1.03369 -2.05224,-2.14559 -2.79297,-2.52148 -0.72882,-0.36984 -1.70807,-0.99194 -2.17578,-1.38282 -0.46772,-0.39088 -1.80468,-1.04859 -2.97266,-1.46093 -1.6313,-0.5759 -2.37504,-1.05541 -3.20508,-2.068363 -1.69784,-2.072584 -2.98035,-4.357051 -3.57812,-6.378906 -0.22108,-0.747763 -0.55967,-1.029815 -1.61719,-1.335937 -0.55523,-0.160753 -0.90709,-0.238294 -1.1582,-0.228516 z m 2.28125,3.572266 1.82226,2.765625 c 2.2461,3.410651 2.72183,3.861561 4.76954,4.515621 0.89544,0.28619 2.20615,0.91918 2.91015,1.40625 0.704,0.48706 1.8546,1.18584 2.5586,1.55274 1.23572,0.64432 2.852,2.33662 3.63671,3.81054 0.42639,0.80123 0.98514,7.1575 0.99414,11.28711 0.005,2.33914 -0.15269,3.14544 -1.1289,5.75977 -0.62433,1.672 -1.22186,3.95848 -1.32813,5.08008 -0.16641,1.75624 -0.34174,2.18744 -1.26367,3.10937 -0.64401,0.64401 -1.26229,0.99742 -1.55078,0.88672 -0.30045,-0.1153 -0.47852,0.004 -0.47852,0.31836 0,0.4757 -0.75291,0.77427 -3.36132,1.33789 -0.528,0.11407 -1.92359,0.56475 -3.10157,1 -2.3486,0.86798 -2.28342,0.87794 -4.875,-0.87109 -0.77673,-0.52422 -1.47196,-1.12698 -1.54296,-1.33985 -0.0709,-0.21286 -0.4777,-0.39053 -0.9043,-0.39453 -0.7509,-0.007 -0.78065,-0.0986 -0.93555,-2.88672 -0.088,-1.58342 -0.0587,-4.17576 0.0645,-5.75976 0.21101,-2.71677 0.45075,-4.27967 1.38672,-9.04492 0.21657,-1.10256 0.27099,-2.07928 0.1211,-2.17188 -0.14988,-0.0926 -0.35784,0.23342 -0.46094,0.72461 -0.10309,0.4912 -0.31494,1.46788 -0.4707,2.17188 -2.22578,10.05929 -1.91179,19.18302 1.00781,29.33007 0.72606,2.52358 1.84856,5.55419 2.52344,6.8125 0.66852,1.24703 1.81099,3.62149 2.53906,5.27539 1.15448,2.62348 1.27776,3.12069 0.96289,3.88086 -0.52957,1.2785 -4.07845,4.27539 -6.38477,5.39258 -1.10127,0.53375 -2.45463,1.31473 -3.00586,1.73438 -0.55065,0.41965 -1.64761,1.09141 -2.43554,1.49218 -0.78794,0.40134 -2.20319,1.29874 -3.14453,1.99415 -0.94133,0.69482 -2.67293,1.6005 -3.84766,2.01171 -1.17473,0.41121 -2.85495,1.0591 -3.73437,1.43946 -0.94112,0.40677 -2.52229,0.74572 -3.83985,0.82422 -4.250801,0.25326 -8.326407,0.29657 -10.240233,0.10742 -3.332463,-0.32936 -10.021745,-1.85413 -11.601562,-2.64453 -0.835501,-0.41801 -2.459773,-1.05911 -3.609375,-1.42578 -1.149606,-0.36667 -2.958905,-1.09932 -4.019532,-1.625 -1.060624,-0.52626 -2.293874,-1.04762 -2.742187,-1.16016 -0.448374,-0.11253 -1.256654,-0.60797 -1.794922,-1.09961 -0.538211,-0.49163 -1.466321,-1.194 -2.0625,-1.5625 -1.215986,-0.75155 -3.130859,-2.74155 -3.130859,-3.25391 0,-0.46157 1.488506,-2.78145 1.990234,-3.10156 1.35414,-0.86388 4.88271,-5.89755 5.53125,-7.89062 0.23801,-0.73159 0.817655,-2.33832 1.289063,-3.57032 0.703427,-1.83794 0.866656,-2.81299 0.904296,-5.43945 0.07787,-5.43199 -0.718988,-11.94144 -2.015625,-16.48047 -0.326754,-1.144 -0.68944,-2.51301 -0.80664,-3.04101 -0.530099,-2.38813 -1.206244,-4.32032 -1.511719,-4.32032 -0.429731,0 -0.280589,0.81209 1.119141,6.11719 1.286204,4.87555 2.140625,9.7124 2.140625,12.11719 0,1.53582 -0.05541,1.63211 -1.361328,2.44336 -0.748,0.46467 -2.223355,1.43852 -3.279297,2.16406 -1.851247,1.27173 -2.006227,1.31735 -4.320313,1.28125 -2.057878,-0.0321 -2.717994,-0.19609 -4.638672,-1.1543 -1.231884,-0.6146 -2.601073,-1.22769 -3.041015,-1.36132 -0.44,-0.13363 -1.063787,-0.47385 -1.386719,-0.75782 -0.322931,-0.28397 -1.692005,-1.11147 -3.041016,-1.83593 l -2.451172,-1.31836 -0.205078,-3.00586 c -0.112301,-1.65417 -0.220524,-4.77232 -0.240234,-6.92578 -0.0197,-2.15403 -0.261673,-5.89697 -0.537109,-8.31836 -0.497479,-4.37348 -0.494799,-4.41486 0.201171,-5.98047 0.805764,-1.81245 2.909891,-4.1853 4.869141,-5.48828 0.743126,-0.49444 1.926917,-1.43039 2.630859,-2.08008 0.704,-0.64969 1.79808,-1.52103 2.431641,-1.9375 2.326505,-1.52927 5.01314,-3.85531 5.378906,-4.65821 l 0.375,-0.82617 1.154297,1.34961 c 0.634902,0.74173 1.458043,1.48095 1.828125,1.64258 0.370144,0.16163 1.535855,1.0101 2.591797,1.88477 2.760725,2.28622 6.531154,5.18586 7.708984,5.92968 1.475792,0.93194 3.002918,2.22014 6.230469,5.25391 1.576368,1.4817 3.206425,2.92092 3.621094,3.19922 4.725575,3.17171 7.005343,5.79562 8.71875,10.02734 0.480925,1.188 1.029988,2.15885 1.21875,2.15821 0.188764,-5.8e-4 0.761921,-1.0449 1.273437,-2.32032 2.389785,-5.95777 3.131354,-7.59961 3.4375,-7.59961 0.149271,0 0.271485,-0.28667 0.271485,-0.63867 0,-0.352 0.13257,-0.64062 0.294922,-0.64062 0.162349,0 0.462431,-0.50314 0.66602,-1.11914 0.2033,-0.616 0.50516,-1.1211 0.67187,-1.1211 0.1667,0 0.43495,-0.34477 0.5957,-0.76758 0.16075,-0.42282 1.50605,-2.04438 2.98828,-3.60156 1.48281,-1.55719 3.25735,-3.47753 3.94336,-4.26953 1.531,-1.76754 3.76553,-4.00695 5.24805,-5.25781 2.40354,-2.02797 4.66185,-4.15997 5.27149,-4.976565 0.35142,-0.47143 1.38186,-1.68698 2.28906,-2.701171 z m -18.04102,17.693356 c 0.0678,0.0691 -0.7275,1.05239 -1.76758,2.18555 -1.03952,1.13317 -1.89062,2.25387 -1.89062,2.49023 0,0.23636 -0.20935,0.50943 -0.46484,0.60743 -0.25549,0.098 -0.62607,0.66909 -0.824223,1.26953 -0.198163,0.60043 -0.493901,1.09179 -0.65625,1.09179 -0.162352,0 -0.294922,0.28863 -0.294922,0.64063 0,0.352 -0.124971,0.64062 -0.279297,0.64062 -0.154269,0 -0.595472,0.75569 -0.978515,1.67969 -0.383104,0.924 -0.824553,1.96831 -0.982422,2.32031 -0.157872,0.352 -0.769471,1.83255 -1.359375,3.29102 l -1.074219,2.65234 -1.064453,-2.58203 c -1.561452,-3.78164 -2.887618,-5.4138 -6.900391,-8.48828 -2.669698,-2.04546 -7.171558,-6.23437 -6.699218,-6.23437 0.183334,0 1.731214,0.71352 3.439453,1.58593 1.708182,0.8724 3.574952,1.67562 4.148437,1.78321 1.678658,0.31493 8.173257,-0.77115 9.929688,-1.66016 0.846534,-0.42847 2.71402,-1.2113 4.148437,-1.74023 1.43454,-0.52893 2.79621,-1.11873 3.02734,-1.31055 0.23112,-0.19186 0.47517,-0.29176 0.54297,-0.22266 z m 14.50391,22.84571 0.9043,0.90039 c 1.09872,1.0958 3.34733,2.6377 4.27343,2.93164 0.41828,0.13275 1.50552,-0.0996 2.83008,-0.60547 1.99139,-0.7606 5.51181,-1.78711 6.12695,-1.78711 0.14562,0 0.34953,0.75569 0.45313,1.67969 0.10361,0.924 0.32975,2.39929 0.50391,3.27929 0.31252,1.57916 0.22456,11.58557 -0.16407,18.56446 l -0.19726,3.52343 1.13476,0.41016 c 0.77627,0.2807 1.54663,0.98707 2.43946,2.23633 2.39805,3.35621 2.73437,4.32276 2.73437,7.90625 0,2.91254 -0.0859,3.3691 -0.94922,5.07226 -0.53005,1.04611 -1.64039,2.4924 -2.51562,3.2793 -0.86965,0.7819 -1.86941,1.40027 -2.25,1.38867 -1.11258,-0.0338 -4.46695,-2.11064 -5.24805,-3.24804 -0.39715,-0.57862 -0.93818,-1.2127 -1.20117,-1.40821 -0.37351,-0.27768 -0.50315,-1.32699 -0.59375,-4.79883 -0.0721,-2.76118 -0.32051,-5.25147 -0.6582,-6.57617 l -0.54493,-2.13281 0.8418,-1.66016 0.8418,-1.66015 -1.36328,-3.24805 c -0.74964,-1.78638 -1.46112,-3.39236 -1.58008,-3.56836 -2.32351,-3.43708 -4.87726,-11.84122 -5.5918,-18.39844 z m -49.361329,7.17187 0.185547,1.53516 c 0.357315,2.93695 -1.299949,9.10733 -3.449219,12.83789 -1.04934,1.82139 -2.781389,4.09555 -3.9375,5.17383 -0.471725,0.44 -1.252373,1.53766 -1.736328,2.43945 l -0.880859,1.64062 1.460937,1.56055 c 0.803328,0.85821 1.400895,1.77506 1.328125,2.03906 -0.07277,0.264 -0.304508,2.41693 -0.515625,4.78321 -0.399507,4.47722 -0.229623,10.12877 0.371094,12.29492 0.479315,1.7286 0.174159,2.62985 -1.033203,3.05078 -1.500745,0.52319 -1.605624,0.48337 -4.65625,-1.76758 -2.73048,-2.0147 -2.958021,-2.55065 -3.197266,-7.48047 -0.142064,-2.92678 -0.07296,-3.59765 0.537109,-5.21289 0.385129,-1.01967 1.032612,-2.21335 1.439454,-2.65234 0.863244,-0.93152 0.851305,-1.21318 -0.347657,-7.81445 -0.431469,-2.376 -0.93224,-5.18424 -1.111328,-6.24024 -0.741506,-4.37211 -1.070184,-5.66006 -2.613281,-10.24023 -0.889337,-2.64 -1.745583,-5.05138 -1.902344,-5.35938 -0.408195,-0.80211 0.188763,-0.71186 1.589844,0.24024 0.647459,0.44 1.309657,0.79882 1.472656,0.79882 0.162998,0 1.599114,0.59941 3.189453,1.33204 2.342661,1.07861 3.263145,1.33872 4.853516,1.36132 1.709103,0.0243 2.187222,-0.11377 3.697266,-1.0664 0.953894,-0.60179 2.528151,-1.58028 3.496093,-2.17383 z m 55.779299,23.83008 c 0.57831,0.35741 1.10037,7.29019 0.76953,10.2168 -0.17521,1.55013 -0.25724,3.06208 -0.18164,3.35937 0.0756,0.29728 -0.24073,3.42141 -0.70313,6.94141 -0.4624,3.51942 -0.89483,6.83137 -0.96093,7.35937 -0.0661,0.528 -0.2709,2.04133 -0.45508,3.36133 -1.13079,8.10373 -1.22845,13.22726 -0.31641,16.63867 2.14371,8.01917 2.39734,10.9716 1.14453,13.35547 -0.7756,1.47583 -3.01762,4.31525 -3.70508,4.69141 -0.35508,0.1946 -1.62143,0.93488 -2.81054,1.64648 -2.66543,1.59509 -3.73536,2.06641 -4.69531,2.06641 -1.37695,0 -3.53646,-0.97609 -4.82618,-2.1836 -2.32585,-2.17754 -4.53618,-3.85316 -6.06054,-4.59375 l -1.50391,-0.73046 0.25,-7.04688 c 0.40186,-11.34101 0.30987,-17.64595 -0.28906,-19.68555 -2.110985,-7.18822 -5.083745,-13.91992 -6.146487,-13.91992 -0.494896,0 -0.683967,0.30987 -0.886718,1.44141 -0.141952,0.792 -0.468081,2.23122 -0.722657,3.19922 -0.254522,0.968 -0.752013,3.27309 -1.107421,5.12109 -0.355465,1.848 -0.925706,4.36761 -1.265625,5.59961 -0.339975,1.232 -0.840636,4.18317 -1.113282,6.55859 -0.272589,2.376 -0.598329,5.11208 -0.722656,6.08008 -0.124326,0.968 -0.235437,4.69437 -0.248047,8.2793 l -0.02344,6.51758 -1.119141,0.76953 c -0.615942,0.42343 -1.696391,0.92071 -2.400391,1.10547 -0.703942,0.18475 -1.824009,0.69083 -2.488281,1.12304 -0.664214,0.4322 -2.247861,1.15616 -3.519531,1.60938 -1.27167,0.45323 -2.449988,0.95192 -2.617188,1.10937 -0.575836,0.54231 -1.938037,0.24206 -3.214843,-0.71093 -4.176626,-3.11729 -5.598884,-4.53338 -7.353516,-7.3125 -0.93615,-1.48305 -0.979552,-2.18488 -0.328125,-5.44922 0.606585,-3.04022 1.306102,-15.69543 1.199219,-21.70117 -0.06931,-3.89475 -0.183684,-4.80551 -0.767578,-6.08008 -0.377757,-0.82451 -0.801896,-1.93099 -0.941407,-2.45899 -0.139452,-0.528 -0.630357,-2.03937 -1.091796,-3.35937 -1.692566,-4.84134 -2.086166,-9.77613 -1.326172,-16.60547 l 0.36914,-3.32422 1.519532,1.16406 c 1.304201,0.99735 8.061488,4.22792 10,4.78125 0.351942,0.10047 1.86233,0.68859 3.355468,1.3086 1.493193,0.62 3.509778,1.21698 4.480469,1.32617 0.970688,0.1092 2.485292,0.44005 3.365234,0.73437 1.297452,0.43394 2.899574,0.53516 8.478516,0.53516 h 6.880864 l 4.45703,-1.58203 c 2.53393,-0.89937 5.01845,-2.00693 5.75977,-2.56641 0.71647,-0.54116 2.38312,-1.61638 3.70312,-2.39062 1.32,-0.77424 2.47255,-1.50884 2.56055,-1.63282 0.088,-0.12398 1.09623,-0.69591 2.24023,-1.26953 1.144,-0.57362 2.75993,-1.61066 3.5918,-2.30468 0.83188,-0.69401 1.63645,-1.1849 1.78711,-1.0918 z" />
    </g>
  </g>
</svg>
