<?xml version="1.0" encoding="UTF-8" standalone="no"?>
<!-- Created with Inkscape (http://www.inkscape.org/) -->

<svg
   version="1.1"
   id="svg161"
   width="192"
   height="288"
   viewBox="0 0 192 288"
   xmlns="http://www.w3.org/2000/svg"
   xmlns:svg="http://www.w3.org/2000/svg">
  <defs
     id="defs165" />
  <g
     id="g167"
     transform="translate(3.5380835,0.70761671)">
    <g
       id="g171"
       transform="translate(-2.3341514e-8,0.70761667)">
      <path
         style="fill:#ecece1;stroke-width:0.32"
         d="m 101.72583,166.14917 c -0.2191,-0.264 -0.56439,-0.36064 -0.41084,-0.36752 0.15355,-0.007 -0.19449,-0.17631 -0.72249,-0.41467 -0.528,-0.23837 -1.530287,-1.43275 -2.545589,-2.43775 -1.576896,-1.56088 -1.447007,-1.40085 -2.160905,-1.22167 -0.599731,0.15052 -1.027261,0.031 -1.51399,-0.4231 -0.373047,-0.34807 -1.205518,-0.33945 -1.658967,-0.45191 -0.701818,-0.17405 -0.513835,-0.7361 -1.538072,0.51389 -1.634777,1.99502 -3.984683,3.25116 -5.326475,2.76596 -1.474292,-0.53311 -2.285417,-0.35725 -3.076054,0.37935 -0.387465,0.36097 -1.242453,0.33931 -1.416175,0.23194 -0.689411,-0.42608 -0.467539,-4.65982 0.812148,-8.01063 0.386684,-1.01252 0.403742,-1.30019 0.13747,-1.79772 -0.718362,-1.34228 -0.21626,-4.82549 0.645688,-4.04464 0.08643,-0.0283 0.429894,-0.42109 0.48776,-0.76556 0.351981,-1.20359 -0.158499,-3.38185 -0.913711,-4.47926 -0.733181,-1.0654 -0.837264,-4.54781 -0.02706,-4.04708 0.635829,-0.0167 1.087345,-0.57524 1.092371,-0.62028 0.335165,0.20715 0.995769,-1.12653 1.197587,-2.34511 0.362723,-2.19011 3.160034,-3.32206 6.016031,-2.66168 1.659648,0.38374 4.692495,-0.82228 6.758428,-1.34009 0.553062,-0.13862 0.545267,1.76131 1.448075,3.76756 0.58626,1.3028 1.83633,1.9833 2.00132,1.9833 -0.30345,0.14303 0.70211,1.00769 0.53621,1.29927 0.70276,-0.18377 0.62837,0.72147 -0.0481,0.94696 -0.20766,0.0692 -0.22132,0.40812 -0.22132,0.65126 0,0.24314 -0.44425,0.7733 -0.79625,0.96168 -0.911722,0.48794 -0.531012,1.00935 0.53643,2.03198 0.78372,0.75085 0.71744,1.3238 0.59025,2.42488 -0.11593,1.00361 -0.0208,0.98689 0.50612,1.54772 0.37158,0.39554 0.9665,0.60533 0.83826,0.73357 -0.12824,0.12825 0.26342,0.54865 0.55295,0.43765 0.34747,-0.13334 0.44461,0.2235 0.69266,0.68702 0.35099,0.65581 -0.0429,1.33344 -0.53914,3.73088 -0.1413,0.68263 0.13557,1.54416 0.85583,3.34076 0.84396,2.10522 1.02827,3.10461 0.84496,4.32699 -0.23553,1.5707 -1.20463,3.3856 -1.89088,3.3856 -0.23046,0 -1.48371,-0.47642 -1.70281,-0.74042 z M 90.445371,155.43323 c -0.123005,-0.32055 0.31112,-0.50222 0.843505,-0.74479 1.047593,-0.47732 3.38639,0.0526 5.028978,1.16737 0.949127,0.76543 0.936761,0.59397 0.715896,0.30055 -0.528,-0.28262 -1.020594,-0.46933 -1.425669,-0.78414 -0.405079,-0.3148 -1.45372,-0.80651 -2.419439,-0.92717 -1.422652,-0.17775 -1.662796,-0.0734 -2.155001,0.37205 -0.931014,0.26005 -0.474386,0.88661 -1.246157,0.98461 0.272422,0.85028 -1.094398,0.31326 -1.641195,-0.40715 -0.316736,-0.0961 -0.09967,0.12008 0.0029,0.25414 0.132,0.0208 0.313331,0.22788 0.644854,0.46008 0.99456,0.38863 0.787042,-0.13077 1.65135,-0.67555 z m 0.949629,-5.4391 c 0,-0.17048 0.233,-0.0986 0.365,-0.0568 0.247693,0.0785 1.665623,-0.44386 3.34625,-1.18874 0.528,-0.23402 1.326361,-0.29605 1.659552,-0.4052 0.963881,-0.31577 0.501268,-0.19601 -1.395385,-0.0344 -1.406352,0.11986 -1.120085,-0.0314 -0.480834,0.15838 0.633862,0.1882 0.07242,0.69208 -1.113808,0.71735 -0.829674,0.0177 -1.513038,-0.004 -1.765864,0.24853 -0.250918,0.25092 -0.949003,0.73332 -1.576757,0.99561 -1.042704,0.43567 -1.466303,0.18905 -1.92789,-0.32098 -0.277894,-0.30709 -0.901097,-0.90224 -0.901097,-1.28438 -0.169441,-0.87927 0.332659,0.75803 0.475108,0.97938 0.794294,1.24869 0.889525,1.38246 1.731397,0.83084 0.881896,-0.1413 1.13759,-0.23668 1.584328,-0.63964 z m 0.999666,-0.59384 c 0.217068,-0.21869 0.475276,-0.31701 0.573801,-0.21849 0.09852,0.0985 -0.07908,0.27746 -0.394665,0.39763 -0.456064,0.17365 -0.49282,0.1369 -0.179136,-0.17914 z m -2.064388,-5.19072 c 0.566346,-0.23674 1.213972,-0.65261 1.439168,-0.92417 0.319511,-0.38529 0.691787,-0.57883 1.620833,-0.36303 1.277268,0.29667 2.528058,0.53055 2.290321,0.29281 -0.07965,-0.0796 -0.722398,-0.0842 -1.772082,-0.252 -1.670262,-0.26702 -1.863416,-0.15877 -2.423518,0.35641 -0.699821,0.64363 -2.319438,1.22958 -3.109633,1.22958 -0.400135,0 -0.622903,-0.53957 -0.48587,-1.56125 0.09443,-0.704 0.133147,-0.43625 -0.0031,-0.43625 -0.300979,0 -0.17383,1.27281 0.0603,1.65164 0.250009,0.40453 1.22073,0.49233 2.383552,0.006 z m 0.854247,-8.8329 c -0.315513,-0.0542 -0.696608,-0.0602 -0.916608,-0.0778 -0.993478,-0.0795 -1.680387,-0.15776 -1.480659,-0.67825 0.143234,-0.73276 -0.699812,-1.03221 -1.013531,-1.92342 -0.134941,-0.4318 -0.361889,-0.99249 -0.478868,-1.08049 -0.116976,-0.088 -0.664222,-1.24459 -0.948741,-2.12459 -0.284518,-0.88 -0.765655,-2.35173 -1.171041,-3.46148 -0.50417,-1.38018 -0.773235,-2.1088 -0.535839,-2.26083 0.190883,-0.12225 0.468906,-0.87929 0.592369,-1.27491 0.305116,-0.97772 3.108877,-2.96039 4.650003,-3.20993 0.692832,-0.11218 2.167648,-0.21344 3.328295,-0.47965 2.326076,-0.53351 3.703484,-1.12242 3.703484,-0.54151 0,0.20534 1.07675,-0.11241 1.20875,0.0196 0.132,0.132 0.469167,0.65725 0.469167,0.44153 0,-0.68194 1.124396,0.67676 1.611124,1.8416 0.42548,1.01833 0.40123,1.6771 -0.16165,3.16719 -0.340749,0.90205 -1.115069,3.80759 -1.784365,6.22759 -0.669299,2.42 -1.252606,4.37917 -1.398091,4.37917 -0.145484,0 -0.535351,0.59226 -0.535351,0.83234 -1.53571,0.65394 -3.453307,0.49515 -5.138448,0.20388 z m 0.507152,-6.75557 c 0.1152,-0.18639 0.295738,-0.46028 0.674928,-0.43041 1.465431,0.11546 2.312415,0.10571 2.127733,-0.19308 -0.225475,-0.36483 -2.700481,0.19402 -3.273239,0.64415 -0.517526,0.40672 -1.132141,-0.1631 -1.132141,-0.92857 0,-0.34161 0.007,-0.67319 -0.168958,-0.67319 -0.395741,0 -0.351783,0.11444 0.122308,1.09917 0.178764,0.37131 1.250435,1.12746 1.649389,0.48193 z m 1.127085,-3.9951 c 2.008794,0.0648 1.777674,0.0957 -0.212839,-0.1827 -1.544294,-0.216 -2.415091,-0.0548 -2.415091,0.45432 0,0.20637 -0.03237,0.0716 0.299584,-0.0655 0.308,-0.12725 1.364348,-0.23719 2.328346,-0.2061 z"
         id="tie" />
      <path
         style="fill:#ecd9c1;stroke-width:0.32"
         d="m 39.001122,207.05123 c -0.673619,-0.13704 -1.605252,-0.743 -1.921754,-1.07649 -1.50993,-1.59098 -4.837116,-9.90903 -4.837116,-12.05254 0,-1.12941 1.387628,-4.00974 2.717973,-5.51422 0.622515,-0.704 0.957831,-1.14238 0.96121,-1.28477 0.0034,-0.14238 0.267539,-0.45127 0.411481,-0.36227 2.322592,-3.88996 1.984938,-1.34542 2.84322,-0.83096 0.571507,0.005 1.580824,0.41182 2.350952,0.68877 1.801244,0.64775 3.236635,0.43832 6.488046,-0.27712 1.443779,-0.3177 3.954884,-0.69783 3.878759,-0.57466 -0.07613,0.12318 0.03611,0.83984 0.384459,1.24149 0.05997,0.44515 0.100945,0.74758 0.345687,1.37218 0.523569,0.56242 -0.152673,-0.13915 -0.148938,0.63286 0.0026,0.55739 0.999362,1.87472 1.593641,2.99492 2.101033,3.9604 1.576435,8.62387 -0.964167,10.52449 -0.567818,0.42479 -1.682819,1.37527 -2.477782,2.20671 -0.794964,0.83144 -1.691131,1.87688 -1.842946,1.78305 -2.62234,0.94368 -6.796203,1.08932 -9.716434,0.56178 z m 102.858258,-3.86272 c -0.836,-0.33946 -2.27,-1.08013 -2.27,-0.95843 0,0.30012 -3.86978,-8.62452 -4.14077,-9.47834 -0.50407,-1.58818 -1.28567,-2.42753 -0.5149,-2.77872 0.42362,-0.19301 2.05377,-0.44558 2.33294,-0.33845 0.49538,0.19009 2.86069,-0.17209 3.51319,-0.65296 0.18004,-0.13268 1.97054,-0.552 3.9025,-0.93183 1.93196,-0.37982 5.1768,-1.92139 5.91213,-2.24169 1.97603,-0.86071 2.79683,0.85057 3.93579,2.65088 1.23351,1.94976 2.1688,4.06654 2.1688,6.03917 0,1.88775 -0.83546,4.85436 -1.264,4.85436 -0.0473,0.18085 -0.21026,0.21558 -0.2529,0.39759 -0.79285,1.64192 -1.86023,1.57688 -2.4384,1.47839 -0.23884,0.58009 -0.65732,0.62069 -1.33881,0.91738 -0.68149,0.2967 -1.83168,0.64101 -2.43184,0.64101 -0.60016,0 -1.20191,0.2785 -1.83375,0.5425 -1.83098,0.48063 -3.9689,0.37816 -5.27998,-0.14086 z M 93.12,149.4715 c -0.114577,-0.4375 0.1875,0.38543 0,2e-5 z"
         id="skin" />
      <path
         style="display:inline;fill:#a3a29e;stroke-width:0.32"
         d="M 99.329597,163.76 98.72,163.04 l 0.72,0.6096 c 0.67662,0.57287 0.86568,0.8304 0.6096,0.8304 -0.06073,0 -0.384726,-0.324 -0.720003,-0.72 z m 5.335663,0.21333 c 0.0154,-0.37278 0.0912,-0.4486 0.19334,-0.19333 0.0924,0.231 0.0811,0.507 -0.0252,0.61333 -0.10634,0.10634 -0.18197,-0.0827 -0.16807,-0.42 z m -8.278674,-7.85864 c -0.57938,-0.37099 -1.351163,-0.92887 -1.26947,-1.01055 0.08169,-0.0817 1.061738,0.41177 1.732279,0.86741 1.453568,0.98773 1.050749,1.11231 -0.462809,0.14314 z M 88.96,156.34994 c 0,-0.064 0.36,-0.35222 0.8,-0.64051 0.44,-0.2883 1.279167,-1.23331 1.33125,-0.88359 0.02236,0.15016 -0.89125,1.07546 -1.33125,1.27594 -0.44,0.20047 -0.8,0.31215 -0.8,0.24816 z M 87.84,155.52 c -0.108774,-0.176 -0.04527,-0.32 0.141114,-0.32 0.186387,0 0.331527,0.14415 0.338886,0.32 0.01042,0.24892 1.384417,0.49708 0.713053,0.86167 C 88.96485,156.4187 87.948774,155.696 87.84,155.52 Z m 3.192154,-0.9514 c 0.185952,-0.18596 1.381148,-0.3793 1.747426,-0.21901 0.23144,0.10128 -0.84289,0.28744 -1.275596,0.40059 -0.532272,0.13919 -0.709292,0.0559 -0.47183,-0.18158 z M 92.8,154.56 c -0.957144,0.0352 -0.398576,-0.31091 0.08,-0.3151 0.308,-0.003 2.90375,0.92035 2.90375,1.09635 0,0.39028 -2.380224,-0.80348 -2.98375,-0.78125 z m -4.761178,-4.49593 c -0.396844,-0.53676 -0.651292,-1.14876 -0.565443,-1.36 0.09456,-0.23267 0.166055,-0.1853 0.181357,0.12015 0.01389,0.27732 0.371677,0.82966 0.795072,1.22742 0.651901,0.61242 0.884714,0.66728 1.52,0.35812 0.714595,-0.34774 0.720717,-0.34145 0.12903,0.13259 -0.885481,0.70941 -1.243347,0.62633 -2.060016,-0.47828 z m 3.408261,-0.43864 c 0.32086,-0.18387 1.140491,-0.83453 1.73188,-0.80294 0.231571,0.0124 0.133037,0.14625 -0.218963,0.29751 -0.431139,0.18527 2.047893,-0.67437 2.5275,-0.36426 0.426666,0.0243 -2.260834,0.72857 -2.6875,1.00426 -0.61928,0.40021 -3.549556,1.12422 -3.207083,0.92797 z M 94.56,148.48 c -0.610675,-0.26242 -0.607008,-0.27605 0.08,-0.29751 0.396,-0.0124 2.595,-0.23266 2.595,-0.0567 0,0.176 -1.911,0.66405 -1.955,0.65168 -0.044,-0.0124 -0.368,-0.14625 -0.72,-0.29751 z m 6.19918,-1.84 c -0.39804,-0.50754 -0.38672,-0.51886 0.12082,-0.12082 0.308,0.24155 0.56,0.49355 0.56,0.56 0,0.26337 -0.26278,0.0939 -0.68082,-0.43918 z m -11.566338,-2.43142 c 0.74406,-0.20272 1.678422,-0.64859 2.076358,-0.99083 0.668285,-0.57475 2.34769,-0.75345 2.794035,-0.2973 0.09722,0.0994 -0.279209,0.1337 -0.836515,0.0763 -0.638861,-0.0658 -1.243347,0.10388 -1.635907,0.45914 -0.642304,0.58128 -2.627885,1.43718 -3.612451,1.14225 -0.254551,-0.0762 0.470416,-0.18685 1.21448,-0.38958 z M 87.68,142.72 c 0,-0.352 0.130518,-0.64 0.290042,-0.64 0.159523,0 0.214728,0.288 0.122678,0.64 -0.07021,0.26848 -0.04291,1.13964 0.192829,1.90903 0.03496,0.1141 -0.529362,-0.25861 -0.545371,-0.25861 -0.01558,0 -0.183425,-0.0588 -0.192043,-0.16967 C 87.519437,143.83161 87.68,142.99071 87.68,142.72 Z m 5.887083,0.18849 c 0.22,-0.0888 2.225834,0.25495 2.445834,0.34375 0.22,0.0888 -0.532917,0.0572 -0.972917,0.0572 -0.44,0 -1.692917,-0.31218 -1.472917,-0.40099 z M 91.2,128.48 c 0.219101,-0.264 0.542365,-0.48 0.718365,-0.48 0.178505,0 0.143853,0.21224 -0.07836,0.48 -0.219101,0.264 -0.542365,0.48 -0.718365,0.48 -0.178505,0 -0.143853,-0.21224 0.07837,-0.48 z m -1.28,-0.32 c 0,-0.264 -0.578817,-1.13625 -0.124237,-1.1675 0.432732,-0.0298 0.45865,0.9035 0.559959,1.1675 0.101305,0.264 0.930127,0.23 0.686736,0.71958 C 90.966568,129.03224 89.92,128.424 89.92,128.16 Z m 1.951667,0.11278 c 0,-0.18638 2.352333,-0.54155 2.528333,-0.43278 0.176,0.10877 0.32,0.26127 0.32,0.33889 0,0.0776 -0.144,0.14111 -0.32,0.14111 -0.176,0 -2.528333,0.13917 -2.528333,-0.0472 z m -1.625922,-3.73508 c 0.709875,-0.55069 3.784345,-0.30283 4.071989,0.1626 0.10753,0.17398 -2.076117,0.037 -2.271971,0.0584 -0.258524,0.0283 -0.815394,-0.0916 -1.329746,0.0926 -0.867818,0.3108 -1.046688,0.13354 -0.470272,-0.31361 z m 8.593436,-5.0977 c -0.398039,-0.50754 -0.38672,-0.51886 0.120819,-0.12082 0.53304,0.41804 0.702554,0.68082 0.439181,0.68082 -0.06645,0 -0.318448,-0.252 -0.56,-0.56 z M 96.56,118.50807 c 0.22,-0.0888 0.58,-0.0888 0.8,0 0.22,0.0888 0.04,0.16141 -0.4,0.16141 -0.44,0 -0.62,-0.0726 -0.4,-0.16141 z"
         id="detail" />
      <path
         style="fill:#4f4f4f;stroke-width:0.32"
         d="m 103.4516,243.25825 c -1.52282,-1.88315 -2.08566,-2.87953 -1.84582,-3.2676 0.1031,-0.16683 -0.007,-0.22867 -0.24486,-0.13742 -0.65212,0.25024 -1.713957,-1.94079 -2.130216,-4.39554 -0.199802,-1.17827 -0.701878,-3.19427 -1.115722,-4.48 -0.413846,-1.28573 -0.777728,-2.91036 -0.808627,-3.61028 -0.03091,-0.69993 -0.185225,-1.85193 -0.34295,-2.56 -0.157722,-0.70808 -0.968474,-2.4836 -1.153489,-3.8916 -0.185014,-1.408 -0.178104,-2.96991 -0.254718,-3.49791 -0.07662,-0.528 -0.155796,-2.0179 -0.25698,-3.3379 -0.25384,-3.31149 -0.59681,-10.1962 -0.723917,-11.36 -0.05767,-0.528 -0.313878,-2.91181 -0.426131,-5.28781 -0.288688,-6.11046 -1.469579,-11.80582 -2.013422,-15.90219 -0.549088,-4.13589 -0.126363,-20.17915 0.349128,-20.65433 0.199523,-0.19939 0.843416,0.49286 1.347729,1.09217 0.623546,0.74105 0.861795,0.85856 1.62984,0.74584 0.840966,-0.12343 1.274382,0.23103 3.337473,2.21341 1.300992,1.2501 2.634032,2.39871 2.962302,2.55246 0.81558,0.38199 2.78937,-0.0301 3.48739,-0.72816 1.27722,-1.27722 1.01966,-6.63544 -0.42493,-8.84016 -0.63317,-0.96634 -0.63949,-2.08673 -0.0202,-3.56903 0.39231,-0.93895 0.41217,-1.35457 0.10527,-2.20329 -0.33536,-0.92744 -1.43708,-1.80815 -2.3488,-1.87763 -0.176,-0.0134 -0.32,-0.83468 -0.32,-1.82506 0,-1.52842 -0.35339,-1.69947 -0.94676,-2.32791 l -1.00927,-1.06891 1.06186,-1.4972 c 0.44283,-0.62438 0.90917,-3.11918 -0.58018,-3.61071 -1.025281,-0.33837 -1.958056,-1.52677 -2.638609,-3.72072 -0.12673,-0.40853 -0.08465,-0.76641 -0.280487,-0.64538 -0.234029,0.14464 -0.47185,-0.2866 -0.320218,-0.80535 0.123789,-0.42352 0.634215,-1.31204 0.892384,-2.28004 0.258167,-0.968 0.593972,-2.048 0.746234,-2.4 0.899606,-2.0797 2.274006,-6.93622 2.268016,-8.01416 -0.004,-0.69621 -0.29599,-1.90279 -0.64917,-2.68128 -0.50577,-1.11483 -0.55525,-1.47059 -0.23298,-1.6751 0.68381,-0.43393 0.76612,-0.31614 0.62482,0.89421 -0.19185,1.6433 0.4694,1.11177 0.75308,-0.60535 0.16846,-1.0197 0.56672,-1.68877 1.59752,-2.68388 1.17611,-1.13538 1.73327,-1.40413 3.88344,-1.87318 3.67929,-0.80261 6.1362,-2.16735 8.16942,-4.53786 0.9355,-1.09068 1.7729,-1.99213 1.8609,-2.00322 0.088,-0.0111 0.27719,1.6207 0.27719,3.62622 0,3.02544 -0.0217,3.75192 0.44351,4.26597 0.30838,0.34076 0.48838,0.71588 0.4,0.8336 -0.0884,0.11772 -0.0687,0.14605 0.0437,0.063 0.11243,-0.0831 0.62748,0.20491 1.14455,0.64 0.51708,0.4351 1.08159,0.79108 1.25448,0.79108 0.17288,0 0.21158,0.16625 0.086,0.36944 -0.13891,0.22477 0.037,0.0718 0.25491,-0.0629 0.36764,-0.22721 3.02659,1.22025 3.02659,1.66433 0,0.55045 2.72488,2.17619 6.3148,3.26979 2.09315,0.63764 4.04796,1.15934 4.34401,1.15934 0.29605,0 0.97757,0.0808 1.27818,0.38875 2.49697,2.55836 3.51189,4.18502 3.3527,4.4426 -0.10351,0.16748 0.1885,-0.11006 0.3434,-0.15842 0.79255,-0.24746 2.85785,3.79042 3.73731,6.68303 0.53295,1.75295 1.84091,7.02948 2.25165,9.95529 0.47513,3.38447 1.54119,8.33532 2.79312,11.48875 0.4891,1.232 1.42609,3.968 2.08218,6.08 2.3642,7.61045 2.13662,7.09539 4.19112,9.48531 0.81072,0.94308 1.74808,2.24517 2.08302,2.89354 0.33495,0.64837 0.91561,1.39363 1.29038,1.65612 l 0.68139,0.47726 -0.86781,2.27102 c -0.60565,1.58498 -1.09457,2.73896 -1.79898,3.26054 -2.0089,0.87549 -4.74606,2.33333 -6.6093,2.73297 0,0.16202 -0.54612,0.1637 -1.11812,0.29975 -1.23111,0.29281 -1.22585,0.29136 -1.84,0.50838 -0.264,0.0933 -1.848,0.42725 -3.52,0.74212 -1.672,0.31488 -3.32547,1.22969 -3.89045,1.46575 -1.34032,0.56387 -0.94869,0.61959 -3.16837,1.32607 -2.65765,0.41248 -2.30323,-1.59367 -2.48295,-2.1588 -1.05573,-3.33504 -1.96716,-6.08813 -3.28274,-14.3711 -1.01817,-6.41043 -1.06367,-9.39462 -1.37584,-14.29186 -0.26032,-4.08384 -0.19283,-4.42171 -0.16741,-0.16829 -0.006,5.43578 -0.19747,6.69323 1.37635,17.15125 1.16669,7.75274 2.25358,12.48967 3.36614,14.67047 0.35127,0.68855 0.70727,1.63016 0.7911,2.09246 0.0838,0.4623 0.68499,1.88377 1.3359,3.15881 0.65092,1.27504 1.52783,3.23089 1.94869,4.34632 1.02998,2.72982 1.819,4.19555 2.83591,5.26818 0.46732,0.49293 1.33276,0.90008 1.23569,1.15304 -0.0972,0.25342 -0.16525,0.50385 0.0409,0.46188 0.20552,-0.0419 0.76609,1.58525 1.74223,3.46309 0.97615,1.87784 2.38607,3.69733 2.78207,4.23236 0.396,0.53504 0.69807,1.21921 0.69827,1.35833 2e-4,0.13913 0.13103,0.6529 0.61483,1.11471 3.96997,3.78947 5.89879,5.1116 5.44966,4.93926 -0.32387,-0.12428 -0.46305,0.1521 -0.46799,0.42122 -0.004,0.23884 -1.72638,0.91529 -2.91,1.78968 -2.37038,1.75112 -4.00914,3.84189 -3.89548,4.25938 0.0402,0.14771 -0.61502,0.3427 -1.13142,-0.025 -0.5164,-0.36771 -1.58764,-1.15294 -1.86491,-1.15294 -0.27728,0 -0.60618,-0.72944 -1.09374,-1.58279 -0.48756,-0.85334 -2.86167,-3.6004 -5.27581,-6.10458 -4.95572,-5.14056 -8.52634,-10.12785 -10.35497,-14.46339 -0.62181,-1.47427 -2.18846,-4.77322 -3.48146,-7.33099 -2.29956,-4.54895 -3.83475,-8.13698 -6.13776,-16.4474 -1.06326,-3.83679 -1.60334,-6.55255 -1.88598,-10.7421 -0.27644,-4.09754 -0.43828,-5.66584 -0.27248,-1.92 0.3183,7.19075 0.80446,8.47763 2.19692,14.16664 1.65897,6.77783 3.12657,12.28852 4.64108,15.27336 0.58047,1.144 1.61011,3.55605 2.28811,5.3601 2.46301,6.55382 4.86048,10.68223 8.9663,15.4399 1.29103,1.496 2.63584,3.06546 2.98845,3.48769 0.35262,0.42222 1.12637,1.21422 1.71943,1.76 0.59306,0.54577 1.51545,1.76363 2.04975,2.70635 0.53431,0.94272 1.52449,2.11464 2.20042,2.60429 l 1.22897,0.89026 -2.31872,1.35977 c -1.2753,0.74788 -2.60672,1.61248 -2.95872,1.92132 -1.25064,1.09733 -6.08597,4.24147 -7.02785,4.56981 -0.52635,0.18349 -1.32041,0.52328 -1.76458,0.75509 -0.44416,0.23181 -1.02357,0.42419 -1.28757,0.4275 -0.264,0.003 -1.344,0.45399 -2.4,1.00151 -1.056,0.54751 -2.424,1.1117 -3.04,1.25376 -5.3609,1.23629 -9.11931,2.13953 -10.81275,2.14236 -1.31995,0.002 -2.4214,-0.0344 -3.2,0.35669 -2.07939,1.04456 -3.07152,0.85348 -4.45565,-0.85815 z m 15.19821,-2.75904 c -0.13052,-0.57294 -0.29375,-2.05921 -0.85925,-3.37921 -0.56549,-1.32 -1.15056,-2.688 -1.30014,-3.04 -0.14958,-0.352 -0.73072,-1.648 -1.29143,-2.88 -1.30687,-2.87149 -3.82716,-9.48828 -5.48485,-14.4 -0.71279,-2.112 -1.40543,-3.984 -1.53918,-4.16 -0.13376,-0.176 -0.6453,-1.4 -1.13676,-2.72 -0.49145,-1.32 -1.28654,-3.192 -1.76685,-4.16 -2.51587,-5.07038 -5.53377,-15.92178 -6.588092,-25.21375 -0.817885,-7.20817 -1.104599,-11.60071 -1.414068,-12.41468 -0.170054,-0.44728 -0.60827,-1.34386 -0.610964,-1.9924 -0.0057,-1.35911 0.141803,-1.92474 -0.37245,-1.60691 -0.50616,0.31282 -0.690115,2.6449 -0.126634,4.55962 0.26353,0.89546 1.262902,5.29062 1.800694,9.69062 1.612244,13.19076 3.057444,20.85966 6.128784,27.91022 1.74526,4.0064 3.87777,9.43422 4.59961,11.70728 1.51906,4.78348 4.22628,11.18424 7.13306,16.86489 1.59429,3.11569 2.89871,5.89619 2.89871,6.17889 0,0.28269 0.12901,0.43426 0.28668,0.33681 0.1971,-0.45796 -0.33517,-0.89876 -0.35687,-1.28138 z m -34.817452,2.06677 C 80.309226,240.5876 79.377347,240.27599 76.057536,239.96617 71.246253,239.51716 71.36,239.56242 71.36,238.09706 c 0,-2.19418 0.653824,-6.19973 1.308618,-8.01706 3.824262,-10.61392 6.37889,-19.86248 7.859446,-27.71125 0.789517,-4.18541 2.276961,-16.24039 2.292788,-18.7057 0.0061,-0.95653 0.183275,-2.83086 0.431828,-4.15086 1.143408,-6.07235 1.681663,-9.62046 1.884899,-11.90828 0.196732,-2.21461 0.403741,-2.55032 0.98916,-2.55032 1.249781,0 3.31736,-0.68466 4.156983,-1.45236 l 0.843721,-0.77145 0.284808,6.98783 c 0.156431,3.83807 0.197275,8.14214 0.09029,9.55294 -0.140275,1.84987 -0.209265,2.36483 0.03547,2.01867 0.253056,-0.35793 0.384081,-0.0842 0.25177,0.87031 -0.128224,0.92502 -0.196615,1.06094 0.0384,0.71406 0.256487,-0.37856 0.408938,-0.22499 0.342366,0.40594 -0.04642,0.44 0.08046,0.98272 0.234224,1.22991 0.191293,0.30753 0.02229,0.43594 -0.230495,0.27971 -0.476454,-0.29447 -0.332088,-0.18518 0.28516,3.3429 0.430697,2.4618 0.582606,3.50748 0.284827,5.90264 -0.61583,4.95337 -0.824682,5.8926 -1.134679,12.13265 -0.388662,7.82352 -0.64508,9.9177 -1.235121,15.17266 -0.266784,2.376 -0.569325,5.184 -0.672314,6.24 -0.102986,1.056 -0.0249,2.2779 -0.189314,2.48618 -0.164419,0.20827 -0.297249,2.37946 -0.381121,4.98719 -0.08387,2.60772 -0.695968,5.47863 -0.911434,6.44663 -0.377021,1.6938 -0.257175,2.09503 -1.336887,2.18646 -0.786918,0.0666 -1.821922,-0.53027 -3.051047,-1.22048 z M 73.2,240.74807 c 0.22,-0.0888 0.58,-0.0888 0.8,0 0.22,0.0888 0.04,0.16141 -0.4,0.16141 -0.44,0 -0.62,-0.0726 -0.4,-0.16141 z m -4.56,-1.8479 c -0.704,-0.2361 -2.330288,-0.73928 -3.613971,-1.11818 -1.552803,-0.45833 -2.908726,-0.99321 -3.69983,-1.70792 -0.653994,-0.59085 -1.977264,-1.43525 -2.859574,-2.02501 -0.882311,-0.58976 -1.908907,-1.39306 -1.889717,-1.56906 0.04085,-0.37461 0.65816,-1.12584 1.626704,-3.31049 0.390141,-0.88 1.010705,-1.81648 1.135962,-2.21611 0.132464,-0.42262 0.853744,-1.04695 1.724084,-1.49235 0.822988,-0.42117 2.065568,-1.3542 2.761286,-2.0734 0.695718,-0.71921 1.434394,-1.30765 1.641498,-1.30765 0.207104,0 1.211049,-0.648 2.230988,-1.44 1.01994,-0.792 2.060864,-1.44 2.313165,-1.44 0.686986,0 4.468773,-4.09202 4.750469,-5.09912 0.312106,-1.11581 -0.284728,-2.95551 -1.63691,-4.66088 -0.558199,-0.704 -1.56064,-2.36 -2.227645,-3.68 -0.667008,-1.32 -1.463341,-2.76 -1.769632,-3.2 -0.306288,-0.44 -0.800077,-1.32005 -1.097306,-1.95566 -0.584624,-1.25021 -1.426144,-1.76749 -3.384873,-2.0807 -1.935888,-0.30957 -2.636884,0.21025 -5.113655,2.48064 -5.014662,4.59679 -5.213041,5.05656 -6.002295,4.95087 -0.421875,-0.0565 -0.817993,-0.82881 -0.956649,-0.98102 -0.138653,-0.15221 -0.858816,-0.59149 -0.838592,-0.81926 0.03057,-0.34426 0.706724,-0.25473 0.813536,-0.7888 0.09726,-0.4863 1.124941,-0.57567 1.665107,-1.14091 0.540167,-0.56523 0.882225,-1.29723 0.882225,-1.56284 0.432372,-2.50865 0.882632,-1.96961 0.853967,-4.34229 -0.01933,-1.584 -0.03313,-3.096 -0.03069,-3.36 0.0026,-0.264 -0.09627,-1.77528 0.277146,-3.16744 0.373417,-1.39215 1.08519,-2.93713 1.08519,-3.62425 0,-0.68713 0.168308,-2.13671 0.584084,-3.04944 0.921094,-2.022 2.271036,-5.32995 3.386496,-9.26958 1.396022,-4.93053 1.739249,-14.81888 1.091422,-25.68929 l -0.170594,-4.96 0.01571,8 c 0.01552,7.90528 -0.473257,16.56452 -1.092771,19.36 -0.175517,0.792 -0.602331,3.3745 -1.31132,5.6625 -0.708992,2.288 -1.46365,4.54787 -1.543337,4.81187 -0.07969,0.264 -0.898773,0.59431 -1.591023,1.02047 -0.692249,0.42617 -1.170304,0.93017 -1.062342,1.12 0.107961,0.18984 0.08029,0.24025 -0.06148,0.11202 -0.141779,-0.12823 -0.705782,0.50214 -1.539804,1.11437 -0.899917,0.6606 -2.124484,0.87877 -2.670013,0.87877 -0.505581,0 -1.422288,0.156 -2.037127,0.34668 -0.614838,0.19067 -1.593744,0.39534 -2.175347,0.45482 -0.581603,0.0595 -1.59735,0.19936 -2.257216,0.31084 -0.724762,0.12245 -1.763046,0.0196 -2.622538,-0.25972 -0.782534,-0.25433 -1.843424,-0.55914 -2.357532,-0.67735 -0.514109,-0.11822 -1.272013,-0.48024 -1.684234,-0.80449 -0.412218,-0.32425 -1.461101,-0.84544 -2.330851,-1.1582 -0.869751,-0.31276 -2.046045,-0.96525 -2.613987,-1.44998 l -1.032624,-0.88133 0.719023,-2.19741 c 0.574914,-1.75699 1.791457,-2.1988 1.832746,-3.44386 0.06527,-1.96836 0.07947,-3.73546 0.67627,-6.03049 0.251721,-0.968 0.636756,-3.4937 1.152714,-5.6937 0.515962,-2.2 1.384449,-5.0743 1.686909,-6.3063 1.02193,-4.16261 1.176508,-5.29156 1.122198,-12.18741 -0.05398,-6.85283 -0.09489,-7.06499 0.785214,-9.13678 0.48598,-1.144 1.058202,-2.9301 1.40664,-3.9421 0.375691,-0.80733 0.937695,-1.72362 1.393756,-2.25823 0,-0.52724 2.264931,-3.31777 4.353971,-5.46295 0.721776,-0.74117 2.115,-1.53465 2.907,-1.87132 1.943434,-0.82612 5.370526,-2.33996 5.64545,-2.24165 0.342528,0.12249 2.453576,-1.87316 2.453576,-2.34442 0.579899,-1.17013 0.979605,-1.52801 1.354038,-2.52465 0.282394,-0.6417 0.717333,-2.05309 0.721999,-3.30494 0.0045,-1.20172 0.02575,-2.99803 0.128288,-3.10057 0.102537,-0.10254 0.903354,0.35935 1.212432,0.62142 2.312138,1.96011 4.868057,3.18701 10.724214,3.51988 6.481549,0.36843 10.4,1.82283 10.4,3.86016 0,0.50179 0.228771,1.80534 0.508381,2.89676 0.300147,1.17159 0.423414,2.4373 0.300947,3.0901 -0.114086,0.60814 -0.07401,1.27479 0.08906,1.48145 0.163069,0.20666 0.610013,1.23974 0.99321,2.29574 1.438963,3.96544 2.095145,5.46952 2.826582,6.47897 l 0.752826,1.03898 -0.735501,-0.079 c -0.546112,-0.0586 -0.735504,0.084 -0.735504,0.55414 0,0.34821 -0.54,1.12096 -1.2,1.71723 -1.039296,0.93894 -1.116667,1.29282 -1.116667,2.50773 0,0.77152 -0.20175,1.55238 -0.33375,1.53154 -2.159552,-0.34099 -3.256048,2.50416 -2.05647,5.00164 0.65431,1.36226 0.854753,3.10407 0.74002,3.96875 -0.04671,0.352 -0.433267,0.96983 -0.859027,1.37295 -0.861808,0.81599 -1.007879,2.18094 -0.415303,3.88081 0.285549,0.81912 0.260362,1.23722 -0.12335,2.04775 -0.836211,1.76639 -1.595802,5.60885 -1.360007,6.87972 0.24513,1.32119 0.975156,2.29877 1.71664,2.29877 0.271092,0 0.912109,-0.396 1.424487,-0.88 l 0.931593,-0.88 -0.147176,2.73172 c -0.147026,2.72896 -1.141573,8.94042 -1.722469,11.34437 -0.170118,0.704 -0.423577,3.64058 -0.610988,6.5305 -0.187414,2.88991 -0.459437,5.40091 -0.537654,5.52748 -0.07822,0.12656 -0.454306,2.62683 -0.797548,5.59435 -0.846681,7.32001 -3.127315,17.83117 -5.704995,25.88779 -3.108733,9.71645 -3.462278,11.51138 -3.498605,15.85428 -0.01584,1.89309 -0.326766,1.86158 -2.568731,1.10968 z m -1.146608,-43.10768 c 1.736,-3.39188 2.924902,-10.1456 2.939024,-16.69553 0.01165,-5.40906 -0.544659,-9.604 -2.702346,-20.37696 -0.274217,-1.36913 -0.377232,-1.56155 -0.463852,-0.86644 -0.06124,0.49146 0.105936,1.85946 0.3715,3.04 0.265568,1.18054 0.642276,3.61632 0.83713,5.41285 0.194854,1.79652 0.490893,4.10052 0.657862,5.12 0.714522,4.36267 0.125661,15.60466 -0.96806,18.48136 -0.178557,0.46964 -0.32465,1.12247 -0.32465,1.45074 0,0.32826 -0.444854,1.55795 -0.988566,2.73264 -0.543712,1.17469 -0.917232,2.4086 -0.830042,2.74201 0.08719,0.33341 0.02803,0.68684 -0.131434,0.78541 -0.159478,0.0986 -0.289958,0.33234 -0.289958,0.5195 0,0.69761 0.917747,-0.43932 1.893392,-2.34558 z M 62.618595,142.02 c -0.10215,-0.25527 -0.177977,-0.17945 -0.193331,0.19333 -0.01389,0.33734 0.06173,0.52634 0.16807,0.42 0.106333,-0.10633 0.1177,-0.38233 0.02525,-0.61333 z m -8.438382,88.56336 c -0.412704,-0.4393 -0.449231,-0.90101 -0.35124,-0.999 0.271449,-0.27145 3.451027,-1.49828 3.451027,-1.32686 0,0.51132 -1.250354,3.29033 -1.547013,3.29033 -0.19825,0 -1.140067,-0.52516 -1.552774,-0.96447 z M 56.07424,186.88 c 0,-0.616 0.06586,-0.868 0.146346,-0.56 0.08049,0.308 0.08049,0.812 0,1.12 -0.08049,0.308 -0.146346,0.056 -0.146346,-0.56 z M 103.68,166.26914 c 0,-0.0609 0.216,-0.29004 0.48,-0.50914 0.27667,-0.22962 0.48,-0.26072 0.48,-0.0734 0,0.17872 -0.216,0.40783 -0.48,0.50914 -0.264,0.10131 -0.48,0.13434 -0.48,0.0734 z m 43.22526,-22.45581 c 0.0154,-0.37278 0.0912,-0.4486 0.19334,-0.19333 0.0924,0.231 0.0811,0.507 -0.0252,0.61333 -0.10634,0.10634 -0.18197,-0.0827 -0.16807,-0.42 z M 92.4,135.46807 c 0.22,-0.0888 0.58,-0.0888 0.8,0 0.22,0.0888 0.04,0.16141 -0.4,0.16141 -0.44,0 -0.62,-0.0726 -0.4,-0.16141 z"
         id="shirt" />
      <path
         style="fill:#845016;stroke-width:0.32"
         d="M 50.300563,227.80028 C 48.474755,226.91349 45.76,224.2685 45.76,223.62562 c 0,-0.16541 -0.631657,-0.85796 -0.964447,-1.59631 -0.33279,-0.73834 -0.498404,-2.43956 -0.807268,-3.7232 -0.720506,-2.99443 -1.09287,-3.43425 1.850724,-4.85826 1.451853,-0.70237 3.120075,-1.63778 3.828459,-2.50227 1.019332,-1.24396 1.046015,-1.24341 0.532123,-1.70848 -0.301932,-0.27324 -0.575802,-0.55798 -0.742279,-0.5659 -0.16648,-0.008 -0.980793,-1.1026 -1.036146,-1.51595 -0.06906,-0.51568 0.802306,-0.53046 1.649157,-1.44777 0.6788,-0.73527 1.426448,-1.44623 1.546861,-1.44623 0.120413,0 0.684886,0.72275 1.225741,1.33875 0.540857,0.616 1.07787,0.71375 1.250658,0.71375 0.172784,0 0.816292,-0.10798 1.372724,-0.73648 0.556429,-0.62849 1.414579,-1.59577 2.031129,-1.96807 0.616551,-0.37231 1.659398,-1.44275 2.489311,-2.23555 1.838855,-1.7566 2.517183,-2.06562 3.866812,-2.1727 1.452086,-0.11522 2.941471,1.24738 3.988569,3.19905 0.472134,0.88 1.357773,2.54277 1.96809,3.69506 0.61032,1.15227 1.548444,2.73627 2.084726,3.52 1.618829,2.36575 2.191356,3.31349 1.872998,4.15959 -0.46408,1.23339 -4.01448,4.17362 -7.03503,6.06535 -1.545619,0.968 -3.476822,2.37046 -4.291565,3.11659 -0.814739,0.74612 -1.645667,1.35812 -1.846505,1.36 -0.200836,0.002 -0.94102,0.67914 -1.793391,1.38351 -1.350551,1.11602 -5.25478,3.14376 -6.157189,3.09414 -0.172269,-0.009 -1.287699,-0.48107 -2.343699,-0.99396 z M 30.755306,188.70317 c -1.008695,-1.00051 -1.908083,-2.36873 -2.20871,-2.83998 -0.300628,-0.47125 -1.355228,-1.74253 -2.181232,-2.87281 -0.826003,-1.13028 -2.048511,-2.84971 -2.162865,-3.30534 -0.252624,-1.00653 0.859473,-2.03812 2.44277,-3.33276 l 1.492682,-1.22054 1.785968,2.06126 c 1.667442,1.92445 2.421408,2.41334 1.632183,4.27637 -0.315893,0.7457 -0.477852,0.93063 -0.119149,0.93063 0.258276,0 1.061164,0.0162 1.535932,0.45625 0.474768,0.44 0.918352,0.72969 1.081225,0.72969 0.390493,0 1.695321,1.10694 1.86095,1.96699 0.07213,0.37457 0.466716,0.52857 0.552195,0.66688 0.08548,0.13831 -0.961256,1.58845 -1.476251,1.93348 -0.514992,0.34503 -0.741452,0.81487 -0.741957,0.91994 -6.4e-4,0.10507 -0.300721,0.81979 -0.619399,1.18722 -0.579248,0.66788 -1.040886,0.2613 -2.874342,-1.55728 z"
         id="gavel" />
      <path
         style="fill:#222121;stroke-width:0.32"
         d="m 103.80856,245.30203 c -0.35961,-0.25188 -1.33352,-1.47101 -2.16423,-2.70917 -0.83072,-1.23816 -1.649552,-2.3372 -1.819639,-2.44232 -0.65143,-0.40261 -1.322537,-2.21816 -1.772208,-4.79437 -0.257104,-1.47299 -0.667552,-3.24528 -0.912105,-3.93841 -0.244554,-0.69314 -0.542029,-2.10569 -0.66106,-3.139 -0.11903,-1.03332 -0.354432,-2.42363 -0.523113,-3.08958 -0.332448,-1.31248 -0.776448,-4.71202 -1.241949,-9.50918 -0.162246,-1.672 -0.521379,-5.056 -0.798074,-7.52 -0.276697,-2.464 -0.586131,-5.848 -0.687638,-7.52 -0.377539,-6.21888 -0.917181,-3.0226 -1.050963,6.22484 -0.03298,2.27967 -0.115024,4.23394 -0.182317,4.34282 -0.0673,0.10889 -0.211053,1.55571 -0.319462,3.21516 -0.108407,1.65945 -0.543111,5.89718 -0.96601,9.41718 -0.422896,3.52 -0.907539,8.992 -1.076982,12.16 -0.451261,8.43705 -1.096778,9.6959 -4.324138,8.43276 -0.89577,-0.35059 -2.531069,-1.13977 -3.633997,-1.75374 -2.075277,-1.15524 -3.419942,-1.46418 -8.714675,-2.00221 -5.094922,-0.51772 -11.117021,-2.51055 -12.623194,-4.17725 -0.342758,-0.37929 -1.494758,-1.28039 -2.56,-2.00246 -2.891385,-1.95989 -4.998531,-3.79258 -5.313724,-4.6216 -0.161223,-0.42404 -0.65937,-0.82875 -1.171764,-0.95197 -1.37583,-0.33086 -2.997843,-1.26741 -4.493766,-2.59468 -1.786192,-1.58482 -3.620618,-5.93693 -3.849238,-9.13217 -0.184948,-2.58487 0.06135,-2.96473 2.759702,-4.2563 2.41433,-1.15562 4.282659,-2.92883 4.010182,-3.80603 -0.199833,-0.64334 -0.191907,-0.64422 0.470906,-0.0523 l 0.67416,0.60203 -1.062054,1.27857 c -0.650986,0.7837 -2.041136,1.78926 -3.591632,2.59798 -2.11305,1.10214 -2.546061,1.46232 -2.629674,2.18737 -0.09648,0.83662 0.999142,5.27528 1.557171,6.30853 0.149555,0.27693 0.502394,1.0075 0.78408,1.6235 0.643744,1.40776 2.861587,3.19613 5.129315,4.13605 l 1.742954,0.72241 2.168362,-0.82857 c 1.192598,-0.45572 2.865756,-1.40488 3.718131,-2.10923 0.852371,-0.70437 1.714089,-1.2822 1.914925,-1.28407 0.200838,-0.002 1.031766,-0.61388 1.846505,-1.36 0.814743,-0.74613 2.745946,-2.14859 4.291565,-3.11659 2.82568,-1.76968 6.119994,-4.66374 6.826525,-5.99711 0.427094,-0.80601 0.08853,-1.66597 -1.664493,-4.22783 -0.536282,-0.78373 -1.474406,-2.36773 -2.084726,-3.52 -0.610317,-1.15229 -1.495956,-2.81506 -1.96809,-3.69506 -0.961453,-1.79204 -2.539795,-3.04 -3.844797,-3.04 -0.962038,0 -2.788457,1.12534 -4.101609,2.52718 -0.470647,0.50244 -1.462141,1.28965 -2.203322,1.74936 -0.741181,0.45971 -1.663085,1.26255 -2.048678,1.78409 -1.002596,1.35608 -1.532919,1.44862 -2.575824,0.44945 -0.499344,-0.47843 -1.603985,-1.38898 -1.501648,-1.57529 0.252046,-0.45888 0.88175,0.47321 1.23375,0.82518 0.352,0.352 0.790131,0.64 0.973626,0.64 0.183494,0 1.011494,-0.6347 1.84,-1.41044 6.419955,-6.01113 6.708563,-6.19731 9.031072,-5.82592 1.958729,0.31321 2.800249,0.83049 3.384873,2.0807 0.297229,0.63561 0.791018,1.51566 1.097306,1.95566 0.306291,0.44 1.102624,1.88 1.769632,3.2 0.667005,1.32 1.669446,2.976 2.227645,3.68 1.329942,1.67732 2.049827,3.60292 1.748668,4.67745 -0.277257,0.98924 -4.190528,5.08255 -4.859011,5.08255 -0.25407,0 -1.296441,0.648 -2.316381,1.44 -1.019939,0.792 -2.023884,1.44 -2.230988,1.44 -0.207104,0 -0.94578,0.58844 -1.641498,1.30765 -0.695718,0.7192 -1.938298,1.65223 -2.761286,2.0734 -0.87034,0.4454 -1.59162,1.06973 -1.724084,1.49235 -0.125257,0.39963 -0.567904,1.47337 -0.983657,2.38609 C 57.940163,230.25222 57.6,231.10488 57.6,231.2343 c 0,0.12942 -0.223155,0.48189 -0.495901,0.78327 -0.456688,0.50463 -0.374381,0.62274 1.040848,1.49354 0.845213,0.52006 2.226487,1.54253 3.069491,2.27215 1.095917,0.94851 2.190058,1.52045 3.839152,2.00684 1.268525,0.37415 2.923444,0.88043 3.677594,1.12508 2.20079,0.71395 2.307037,0.65745 2.322867,-1.23518 0.03633,-4.3429 0.423018,-6.07153 3.531751,-15.78798 2.57768,-8.05662 4.909536,-18.5275 5.756217,-25.84751 0.343242,-2.96752 0.688077,-5.49904 0.766298,-5.6256 0.07822,-0.12657 0.295552,-2.5946 0.482966,-5.48451 0.187411,-2.88992 0.479933,-5.8304 0.650051,-6.5344 0.580896,-2.40395 1.551517,-8.63578 1.769344,-11.36 l 0.217488,-2.72 -0.931593,0.88 c -0.512378,0.484 -1.153395,0.88 -1.424487,0.88 -0.741484,0 -1.47151,-0.97758 -1.71664,-2.29877 -0.235795,-1.27087 0.523796,-5.11333 1.360007,-6.87972 0.383712,-0.81053 0.408899,-1.22863 0.12335,-2.04775 -0.592576,-1.69987 -0.446505,-3.06482 0.415303,-3.88081 0.42576,-0.40312 0.81232,-1.02095 0.859027,-1.37295 0.114733,-0.86468 -0.314877,-2.63774 -0.969187,-4 -0.384944,-0.80144 -0.483527,-1.5514 -0.346605,-2.63671 0.206224,-1.63462 0.92415,-2.45561 2.162659,-2.47311 0.635622,-0.009 0.72,-0.17457 0.72,-1.41294 0,-1.21491 0.160704,-1.54796 1.2,-2.4869 0.66,-0.59627 1.2,-1.36902 1.2,-1.71723 0,-0.47009 0.189392,-0.61277 0.735504,-0.55414 l 0.735501,0.079 -0.752826,-1.03898 c -0.731437,-1.00945 -1.387619,-2.51353 -2.826582,-6.47897 -0.383197,-1.056 -0.830141,-2.08908 -0.99321,-2.29574 -0.163069,-0.20666 -0.203145,-0.87331 -0.08906,-1.48145 0.122467,-0.6528 -6.4e-4,-1.91851 -0.300947,-3.0901 -0.27961,-1.09142 -0.508381,-2.39497 -0.508381,-2.89676 0,-2.03733 -3.918451,-3.49173 -10.4,-3.86016 -4.93553,-0.28055 -7.228131,-0.77625 -9.516957,-2.05776 -3.787363,-2.12054 -4.024141,-4.94498 -0.604432,-7.2101 2.154698,-1.42721 4.25729,-1.96983 6.064003,-1.56493 0.809168,0.18134 1.657101,0.48398 1.884298,0.67253 0.29519,0.24499 0.539418,0.23799 0.855718,-0.0245 0.343466,-0.28505 0.488532,-0.24772 0.647533,0.16662 0.112695,0.29368 0.279303,0.45957 0.37024,0.36863 0.223226,-0.22323 2.273383,1.77008 2.132877,2.07374 -0.06108,0.132 0.10495,0.24 0.36895,0.24 0.264,0 -0.04702,5.2e-4 0.07856,0.20371 0.153603,0.24853 0.23592,0.3946 -0.06643,0.21918 -0.261843,-0.15191 0.135247,-0.0856 0.28823,0.0817 0.144422,0.15797 0.504422,0.28906 0.8,0.2913 0.295577,0.002 0.501414,0.18408 0.457414,0.40408 -0.044,0.22 0.175997,0.4 0.488883,0.4 0.312887,0 0.815475,0.288 1.116867,0.64 0.301392,0.352 0.765396,0.64 1.031117,0.64 0.265725,0 0.483133,0.144 0.483133,0.32 0,0.176 0.15777,0.32 0.350602,0.32 0.192832,0 0.759449,0.29113 1.259155,0.64695 0.499705,0.35582 1.025936,0.62677 1.169398,0.60211 0.621063,-0.10677 1.084976,0.053 0.921568,0.31741 -0.225561,0.36498 0.571248,0.67354 1.739277,0.67354 1.130099,0 1.966848,0.30532 1.758893,0.64179 -0.08659,0.1401 0.573289,0.43002 1.46639,0.64427 0.893101,0.21426 1.700176,0.58854 1.793504,0.83175 0.119898,0.31245 0.769927,0.44219 2.21545,0.44219 1.832429,0 2.045763,-0.0667 2.045763,-0.64 0,-0.49778 0.213334,-0.64 0.96,-0.64 0.619174,0 0.96,-0.16248 0.96,-0.45766 1.025457,-2.08282 0.235935,2.88309 0.24,-0.55882 0.924,0.002 1.68,-0.12825 1.68,-0.2898 0,-0.16154 0.355482,-0.29372 0.789958,-0.29372 0.605325,0 0.742199,-0.12446 0.58562,-0.53249 -0.139319,-0.36306 -0.08272,-0.45734 0.177849,-0.29629 0.210205,0.12991 0.775414,0.14983 1.256034,0.0443 0.81604,-0.17923 0.86631,-0.28663 0.75999,-1.6235 -0.10189,-1.28108 0.004,-1.54934 1.00635,-2.55179 0.63021,-0.63021 1.44913,-1.12463 1.8722,-1.13032 0.54035,-0.007 0.99164,-0.4052 1.60345,-1.41391 1.09263,-1.80145 2.19643,-2.50789 4.27623,-2.73681 2.10334,-0.23152 5.69711,0.60341 6.63524,1.54154 0.72492,0.72492 0.94339,1.84657 1.49088,7.65427 0.34373,3.64624 0.69728,4.37802 2.69745,5.58317 0.67719,0.40802 2.18305,1.45275 3.34636,2.32161 2.17489,1.62441 5.35737,2.94262 9.34782,3.87195 1.147,0.26713 2.45404,0.73377 2.90455,1.03699 1.50219,1.01107 5.98162,6.31755 6.96161,8.24696 1.33138,2.62122 2.8011,8.25931 3.41602,13.10435 0.26268,2.06967 2.4917,9.81605 3.46395,12.03803 0.4144,0.94708 1.52343,4.09621 2.4645,6.99807 1.42036,4.37975 1.91073,5.49421 2.88644,6.56 0.64647,0.70614 1.70094,2.10979 2.34329,3.11922 0.64233,1.00943 1.59681,2.05712 2.12105,2.32822 1.16101,0.60038 1.17173,0.85717 0.13511,3.23779 -2.09559,4.81256 -1.8139,4.4623 -4.69078,5.8326 -1.45814,0.69453 -3.29917,1.43612 -4.09117,1.64797 -0.792,0.21185 -1.847,0.59548 -2.34443,0.8525 -0.49744,0.25701 -2.64778,0.82784 -4.77854,1.2685 -2.13075,0.44066 -4.27261,1.00728 -4.75967,1.25915 -1.75257,0.90629 -6.17239,1.16224 -6.17239,-0.24216 0,-0.82027 2.2744,-0.91135 3.74877,-1.1742 0.65737,-0.1172 1.13128,-0.14783 1.91903,-0.477 0.56498,-0.23606 2.39523,-0.68679 4.06723,-1.00163 3.27622,-0.6169 5.04119,-1.14123 9.28,-2.75685 3.85573,-1.46961 4.57268,-2.08178 5.6064,-4.78699 l 0.8678,-2.27102 -0.68138,-0.47726 c -0.37477,-0.26249 -0.95543,-1.00775 -1.29038,-1.65612 -0.33494,-0.64837 -1.2723,-1.95046 -2.08302,-2.89354 -2.0545,-2.38992 -1.82692,-1.87486 -4.19112,-9.48531 -0.65609,-2.112 -1.59308,-4.848 -2.08218,-6.08 -1.25193,-3.15343 -2.568,-8.13553 -3.04312,-11.52 -0.41074,-2.92581 -1.4687,-8.17109 -2.00165,-9.92404 -0.90377,-2.97257 -3.29512,-6.77063 -3.99184,-6.34004 -0.18088,0.1118 -0.23234,0.0475 -0.11454,-0.14306 0.11762,-0.19031 -0.47213,-1.06667 -1.31056,-1.94747 -0.83843,-0.88079 -1.66841,-1.83545 -1.84441,-2.12145 -0.176,-0.28601 -0.968,-0.66347 -1.76,-0.83881 -3.96157,-0.87705 -8.57348,-2.56605 -9.78204,-3.58244 -2.1106,-1.77501 -3.31552,-2.51433 -3.70522,-2.27348 -0.23103,0.14278 -0.28524,0.0899 -0.1433,-0.13977 0.12558,-0.20319 0.0869,-0.36944 -0.086,-0.36944 -0.17289,0 -0.7374,-0.35598 -1.25448,-0.79108 -0.51708,-0.43509 -1.03212,-0.72309 -1.14455,-0.64 -0.11243,0.0831 -0.1321,0.0548 -0.0437,-0.063 0.0884,-0.11772 -0.0916,-0.49284 -0.4,-0.8336 -0.46522,-0.51405 -0.5607,-1.24053 -0.5607,-4.26597 0,-2.00552 -0.072,-3.63732 -0.16,-3.62622 -0.088,0.0111 -0.9254,0.91254 -1.8609,2.00322 -2.03322,2.37051 -4.49013,3.73525 -8.16942,4.53786 -2.15017,0.46905 -2.70733,0.7378 -3.88344,1.87318 -1.0308,0.99511 -1.42906,1.66418 -1.59752,2.68388 -0.28368,1.71712 -0.94493,2.24865 -0.75308,0.60535 0.1413,-1.21035 0.059,-1.32814 -0.62482,-0.89421 -0.32227,0.20451 -0.27279,0.56027 0.23298,1.6751 0.35318,0.77849 0.64531,1.98507 0.64917,2.68128 0.006,1.05456 -1.26075,5.56648 -2.249777,8.01416 -0.294823,0.72964 -0.794884,2.46905 -1.077719,3.74872 -0.339897,1.53785 -1.514838,2.37799 -3.665971,2.62137 -1.067498,0.12077 -2.485091,0.0784 -3.150205,-0.0942 -3.045539,-0.79015 -3.448109,-0.74593 -4.894493,0.53762 -1.010102,0.89639 -1.403676,1.51945 -1.557472,2.46564 -0.14758,0.90793 -0.429395,1.3776 -0.996118,1.66015 -1.738099,0.86653 -2.020765,2.27084 -0.946102,4.7003 0.360313,0.81455 0.736748,2.17027 0.836524,3.01272 0.157658,1.33116 0.07188,1.66189 -0.655113,2.52587 -0.911354,1.08309 -1.09457,2.57726 -0.443799,3.61931 0.311693,0.4991 0.307869,0.84484 -0.01853,1.67565 -0.590627,1.50342 -1.654204,5.66773 -1.654204,6.47684 0,0.3782 0.195088,0.95445 0.433532,1.28054 0.415808,0.56865 0.479178,0.55807 1.550205,-0.25884 1.304035,-0.99464 1.504298,-1.02003 2.71033,-0.34366 0.845117,0.47396 1.005337,0.46338 2.386749,-0.15764 0.925404,-0.41602 1.885584,-1.20299 2.56,-2.09818 1.256342,-1.66762 2.036921,-1.81673 3.419635,-0.65325 0.72695,0.61168 1.173328,0.75424 1.904064,0.6081 0.709222,-0.14185 1.067699,-0.0388 1.394995,0.401 0.242269,0.32554 1.417757,1.4919 2.612198,2.5919 1.560501,1.43711 2.416091,1.99862 3.040001,1.9951 1.31746,-0.007 1.63209,-0.35685 1.9818,-2.20087 0.35505,-1.87215 0.0245,-3.80795 -1.00074,-5.86148 -0.72087,-1.44383 -0.75608,-2.84871 -0.10305,-4.11153 0.59694,-1.15437 0.33125,-1.7703 -1.52564,-3.53671 -0.70515,-0.6708 -1.20635,-1.40523 -1.11379,-1.63207 0.0926,-0.22684 0.2594,-0.63801 0.37072,-0.91371 0.1233,-0.3054 -0.17732,-0.97909 -0.7693,-1.72401 -1.099386,-1.38339 -1.187249,-1.83748 -0.47061,-2.43223 1.48813,-1.23504 1.52036,-3.24701 0.0579,-3.61407 -0.566954,-0.1423 -1.036788,-0.76359 -1.768692,-2.33887 -0.548163,-1.1798 -1.347772,-3.22999 -1.234671,-3.40537 0.255551,-0.39628 0.782876,0.966 0.96118,1.39527 1.25543,3.02265 1.565002,3.47792 2.596353,3.81829 1.69687,0.56002 1.72782,2.65223 0.0655,4.4291 l -0.69869,0.74684 0.96,0.82837 c 0.85272,0.7358 0.96,1.02764 0.96,2.61161 0,0.98078 0.144,1.79421 0.32,1.80762 0.91172,0.0695 2.01344,0.95019 2.3488,1.87763 0.30691,0.84872 0.28705,1.26434 -0.10527,2.20329 -0.61934,1.4823 -0.61301,2.60269 0.0202,3.56903 1.44459,2.20472 1.70215,7.56294 0.42494,8.84016 -0.69803,0.69802 -2.67182,1.11015 -3.4874,0.72816 -0.32827,-0.15375 -1.6613,-1.30236 -2.962301,-2.55246 -2.063092,-1.98238 -2.488695,-2.25481 -3.329661,-2.13138 -0.777946,0.11417 -1.124919,-0.0495 -1.796077,-0.8471 -0.457526,-0.54374 -0.952198,-0.98861 -1.099274,-0.98861 -0.44038,0 -0.136166,16.43988 0.376016,20.32 0.54233,4.10851 1.027863,10.07326 1.315431,16.16 0.112253,2.376 0.251277,4.752 0.308944,5.28 0.127107,1.1638 0.713145,8.04851 0.966985,11.36 0.101184,1.32 0.246656,2.832 0.323271,3.36 0.07661,0.528 0.290675,2.112 0.475689,3.52 0.185015,1.408 0.465437,3.13933 0.623159,3.84741 0.157725,0.70807 0.312051,1.86007 0.34295,2.56 0.03091,0.69992 0.394781,2.32455 0.808627,3.61028 0.413844,1.28573 0.91592,3.30173 1.115722,4.48 0.416259,2.45475 1.478099,4.64578 2.130219,4.39554 0.23777,-0.0913 0.34796,-0.0294 0.24486,0.13742 -0.23984,0.38807 0.323,1.38445 1.84582,3.2676 1.38413,1.71163 2.37626,1.90271 4.45565,0.85815 0.7786,-0.39112 1.88005,-0.59756 3.2,-0.59976 1.69344,-0.003 5.45185,-0.663 10.81275,-1.89929 0.616,-0.14206 1.984,-0.70625 3.04,-1.25376 1.056,-0.54752 2.136,-0.99819 2.4,-1.00151 0.264,-0.003 0.84341,-0.19569 1.28757,-0.4275 0.44417,-0.23181 1.23823,-0.5716 1.76458,-0.75509 0.94188,-0.32834 5.77721,-3.47248 7.02785,-4.56981 0.352,-0.30884 1.68342,-1.17344 2.95872,-1.92132 l 2.31872,-1.35977 -1.22897,-0.89026 c -0.67593,-0.48965 -1.66611,-1.66157 -2.20042,-2.60429 -0.5343,-0.94272 -1.45669,-2.16058 -2.04975,-2.70635 -0.59306,-0.54578 -1.36681,-1.33778 -1.71943,-1.76 -0.35261,-0.42223 -1.69742,-1.99169 -2.98845,-3.48769 -4.10582,-4.75767 -6.50329,-8.88608 -8.9663,-15.4399 -0.678,-1.80405 -1.70764,-4.2161 -2.28811,-5.3601 -2.49312,-4.91351 -6.27699,-18.80393 -6.56797,-24.11075 -0.39326,-7.17205 -0.41506,-8.38752 -0.13004,-7.24925 0.15425,0.616 0.36302,2.344 0.46395,3.84 0.28264,4.18955 0.73433,6.88321 1.79759,10.72 2.30301,8.31042 3.59513,11.92055 5.89469,16.4695 1.293,2.55777 2.85965,5.85672 3.48146,7.33099 1.82863,4.33554 5.39925,9.32283 10.35497,14.46339 2.41414,2.50418 4.78825,5.25124 5.27581,6.10458 0.54164,0.94799 1.10945,1.55154 1.45966,1.55154 0.31526,0 0.89461,0.29945 1.28746,0.66544 l 0.71427,0.66545 0.70607,-0.88621 c 0.38834,-0.48742 0.85007,-1.06468 1.02607,-1.28281 0.176,-0.21814 1.55756,-1.31231 3.07013,-2.43149 l 2.75013,-2.03488 -2.11013,-2.02661 c -1.16057,-1.11463 -2.50597,-2.40512 -2.98977,-2.86775 -0.4838,-0.46263 -0.8798,-0.95875 -0.88,-1.10249 -2e-4,-0.14374 -0.34033,-0.71974 -0.75586,-1.28 -0.41553,-0.56026 -1.62589,-2.70222 -2.68968,-4.75992 -1.0638,-2.0577 -2.31758,-4.1457 -2.78618,-4.64 -1.01916,-1.07507 -1.80768,-2.53936 -2.83822,-5.27067 -0.42086,-1.11543 -1.29777,-3.07128 -1.94869,-4.34632 -0.65091,-1.27504 -1.25207,-2.69651 -1.3359,-3.15881 -0.0838,-0.4623 -0.43983,-1.40391 -0.7911,-2.09246 -1.11256,-2.1808 -2.19945,-6.91773 -3.36614,-14.67047 -1.57382,-10.45802 -1.69478,-11.68422 -1.68885,-17.12 0.008,-7.08185 0.46266,-7.00725 0.70088,0.11494 0.3303,9.87501 3.1162,26.21625 5.32674,31.24506 0.15473,0.352 0.6791,1.72 1.16527,3.04 0.48618,1.32 1.13495,2.832 1.44172,3.36 0.30676,0.528 1.08967,2.29706 1.73979,3.93124 0.65011,1.63419 1.70489,3.60707 2.34394,4.38419 0.63906,0.77713 2.24192,3.37958 3.56192,5.78324 1.62987,2.96791 2.89649,4.84697 3.94725,5.85581 3.88698,3.73191 5.65275,5.61235 5.65275,6.01982 0,0.24285 -0.33765,0.56992 -0.75034,0.72682 -0.41269,0.15691 -0.95269,0.48183 -1.2,0.72206 -0.24731,0.24024 -1.38566,1.14232 -2.52966,2.00463 -1.144,0.86231 -2.872,2.40228 -3.84,3.42216 -1.16876,1.23141 -2.61897,2.30268 -4.31695,3.18894 -1.40632,0.73402 -3.27832,1.85406 -4.16,2.48897 -4.37031,3.14711 -6.29695,4.26318 -8.87039,5.13848 -1.52647,0.51919 -3.46778,1.28902 -4.31403,1.71074 -2.5632,1.27734 -9.47866,2.78275 -12.78369,2.78285 -1.2742,3e-5 -2.45547,0.22258 -3.36,0.63302 -1.64622,0.74699 -3.70944,0.83131 -4.62638,0.18906 z M 88.219398,241.6 c 0.214976,-0.968 0.457914,-2.984 0.539863,-4.48 0.08195,-1.496 0.370349,-4.664 0.640883,-7.04 1.645318,-14.45013 1.645315,-14.45008 2.111795,-23.84 0.309997,-6.24005 0.389943,-7.20663 1.005773,-12.16 0.297779,-2.39516 0.27087,-3.37834 -0.159827,-5.84014 -0.617248,-3.52808 -0.624896,-3.70377 -0.148442,-3.4093 0.252784,0.15623 0.281165,0.0864 0.08987,-0.22112 C 92.14555,184.36225 92.057729,183.8 92.104152,183.36 c 0.06657,-0.63093 0.01568,-0.69856 -0.240804,-0.32 -0.23502,0.34688 -0.276003,0.12502 -0.147779,-0.8 0.132311,-0.95449 0.09113,-1.15793 -0.161926,-0.8 -0.244736,0.34616 -0.285123,-0.23521 -0.144848,-2.08508 0.106979,-1.4108 0.08744,-5.7061 -0.04342,-9.54512 l -0.237933,-6.98002 -0.843721,0.77145 c -0.839623,0.7677 -2.883764,1.51877 -4.133546,1.51877 -0.585418,0 -0.679146,0.26539 -0.875878,2.48 -0.203236,2.28782 -0.776647,5.84765 -1.920055,11.92 -0.248553,1.32 -0.456937,3.18261 -0.463078,4.13914 -0.01584,2.46531 -1.479834,14.55545 -2.269351,18.74086 -1.480556,7.84877 -4.128934,17.06608 -7.953196,27.68 -0.654794,1.81733 -1.308618,5.82288 -1.308618,8.01706 0,1.46536 -0.113747,1.4201 4.697536,1.86911 3.319811,0.30982 4.25169,0.62143 7.774822,2.59981 1.229124,0.69021 2.087351,0.95566 2.874269,0.88902 1.07984,-0.0914 1.136567,-0.161 1.512772,-1.855 z M 56.576234,229.91144 c 0.387072,-0.79671 0.703766,-1.51612 0.703766,-1.5987 0,-0.17142 -3.179578,1.00017 -3.451027,1.27162 -0.23656,0.23656 1.222259,1.77564 1.683043,1.77564 0.19825,0 0.677149,-0.65185 1.064218,-1.44856 z m 39.14935,-94.74898 c 0.629162,-0.17207 0.742432,-0.45377 2.815658,-7.00246 0.891504,-2.816 1.620428,-5.59515 1.619838,-6.17589 -0.001,-1.38928 -0.704546,-2.69867 -1.749435,-3.25788 -0.890919,-0.4768 -0.509834,-0.51548 -7.632679,0.7747 -2.948179,0.53402 -3.684243,0.95912 -5.018419,2.89828 l -0.996953,1.44902 1.273884,3.62764 c 1.415514,4.03095 2.467556,6.4174 3.030106,6.87349 1.320538,1.07062 4.359405,1.44174 6.658,0.8131 z M 118.72,241.44378 c 0,-0.2827 -1.30442,-3.0632 -2.89871,-6.17889 -2.90678,-5.68065 -5.614,-12.08141 -7.13306,-16.86489 -0.72184,-2.27306 -2.85435,-7.70088 -4.59961,-11.70728 -3.07134,-7.05056 -4.86029,-14.78196 -6.472534,-27.97272 -0.537792,-4.4 -1.193414,-8.73266 -1.456944,-9.62812 -0.563481,-1.91472 -0.629526,-4.48117 -0.123366,-4.79399 0.514253,-0.31783 0.913677,0.48217 0.919325,1.84128 0.0026,0.64854 0.144035,1.54512 0.314089,1.9924 0.309469,0.81397 0.939933,5.30026 1.757818,12.50843 1.054322,9.29197 3.728472,20.04962 6.244342,25.12 0.48031,0.968 1.2754,2.84 1.76685,4.16 0.49146,1.32 1.003,2.544 1.13676,2.72 0.13375,0.176 0.82639,2.048 1.53918,4.16 1.65769,4.91172 4.17798,11.52851 5.48485,14.4 0.56071,1.232 1.14185,2.528 1.29143,2.88 0.14958,0.352 0.73465,1.72 1.30014,3.04 1.1984,2.79731 1.61954,4.41127 1.21612,4.66059 -0.15767,0.0975 -0.28668,-0.0541 -0.28668,-0.33681 z M 48.786842,207.97871 c -0.11601,-0.18771 -0.678505,-0.82144 -0.417795,-1.02505 0.2856,-0.22305 0.597156,0.60095 0.701375,0.87254 0.146931,0.3829 0.878494,1.00382 0.7208,1.05421 -0.354403,0.11325 -0.903111,-0.9017 -1.004388,-0.9017 z M 40,207.64921 c -2.047382,-0.39905 -2.993411,-0.84492 -3.494221,-1.64685 -2.033296,-3.25582 -4.501862,-9.72954 -4.504371,-11.81253 -0.0017,-1.41042 1.695763,-5.3335 2.573843,-5.94853 0.345965,-0.24232 2.103442,-2.47969 2.663154,-3.04088 1.103021,-1.10594 -0.583506,1.4481 -2.075541,3.11958 -1.190282,1.33343 -2.472768,3.92854 -2.647491,5.35718 -0.172909,1.41381 1.664688,6.98528 3.363696,10.19852 1.491619,2.82101 2.506531,3.30152 7.000931,3.31455 4.166288,0.0121 5.341277,-0.38058 7.501741,-2.50697 0.918288,-0.9038 2.054873,-1.90262 2.525753,-2.21959 0.470877,-0.31697 1.159677,-1.17129 1.530669,-1.89849 0.574999,-1.12709 0.653408,-1.72671 0.531389,-4.0637 -0.124771,-2.38966 -0.272714,-2.94684 -1.152752,-4.3415 -1.163875,-1.84448 -2.674032,-6.75027 -1.886915,-6.75027 0.314851,0 1.606073,2.81569 1.979155,4.19397 0.310218,1.14603 0.670678,2.1496 0.801027,2.23016 0.348151,0.21517 1.609933,-4.36785 1.609933,-5.84757 0,-0.69792 0.354976,-2.04432 0.788835,-2.992 0.80161,-1.75094 2.214538,-6.04181 3.514906,-10.67429 0.991337,-3.53157 1.591123,-11.68614 1.565187,-21.28 l -0.02118,-7.84 0.29743,4.96 c 0.65064,10.85019 0.182311,20.75567 -1.214585,25.68929 -1.115459,3.93963 -2.293527,7.3882 -3.214621,9.4102 -0.428544,0.94075 -0.755958,2.26917 -0.755958,3.06716 0,0.7742 -0.306141,2.33143 -0.680314,3.4605 -0.547712,1.65272 -0.670058,2.73991 -0.627693,5.57773 0.06085,4.07549 -0.425046,5.93258 -1.891686,7.23005 -0.519082,0.45921 -0.843891,0.93482 -0.721802,1.05691 0.122093,0.12209 -0.01459,0.13121 -0.303715,0.0203 -0.36489,-0.14003 -1.06345,0.34033 -2.283638,1.57031 -0.966868,0.97462 -2.093914,1.84862 -2.504548,1.94223 -2.910336,0.6634 -3.811388,0.79657 -5.226604,0.77248 -0.88,-0.015 -2.248,-0.15354 -3.04,-0.30791 z m 102.72,-3.37787 c -1.15932,-0.38194 -3.02937,-1.64121 -3.02937,-2.03541 0,-0.54024 1.18297,0.21371 3.24832,0.86474 1.61088,0.50779 1.80722,0.50769 3.22813,-0.002 0.8321,-0.29824 1.84146,-0.54154 2.24302,-0.54067 1.07316,0.002 4.54925,-1.21791 5.75875,-2.02154 2.21191,-1.46965 2.94846,-7.0059 1.34914,-10.14082 -0.35805,-0.70181 -1.05713,-1.95858 -0.89758,-1.97916 0.66613,-0.0859 2.49959,4.83266 2.49959,6.56841 0,2.41833 -0.82481,4.92731 -1.96096,5.96502 -1.15348,1.05354 -4.72639,2.56969 -6.05565,2.56969 -0.53017,0 -1.48091,0.216 -2.11275,0.48 -1.10633,0.46225 -3.27324,0.59993 -4.27064,0.27134 z M 65.6,198.13807 c 0,-0.18716 0.13048,-0.42094 0.289958,-0.5195 0.159479,-0.0986 0.218621,-0.452 0.131434,-0.78541 -0.08719,-0.33341 0.28633,-1.56732 0.830042,-2.74201 0.543712,-1.17469 0.988566,-2.40438 0.988566,-2.73264 0,-0.32827 0.146093,-0.9811 0.32465,-1.45074 1.093721,-2.8767 1.682582,-14.11869 0.96806,-18.48136 -0.166969,-1.01948 -0.463008,-3.32348 -0.657862,-5.12 -0.194854,-1.79653 -0.571562,-4.23231 -0.83713,-5.41285 -0.265564,-1.18054 -0.432739,-2.54854 -0.3715,-3.04 0.08662,-0.69511 0.189635,-0.50269 0.463852,0.86644 2.157687,10.77296 2.714007,14.9679 2.702346,20.37696 -0.01411,6.54993 -1.203024,13.30365 -2.939024,16.69553 C 66.517747,197.69875 65.6,198.83568 65.6,198.13807 Z m -34.919194,-8.85693 c -0.946442,-0.80515 -2.190817,-2.07078 -2.765275,-2.81253 C 26.371209,184.47459 23.36,179.89288 23.36,179.53714 c 0,-0.56866 1.424204,-2.40937 3.149164,-4.07014 l 1.709163,-1.64556 0.432349,1.03475 c 0.237791,0.56912 0.666162,1.22881 0.951936,1.46598 0.474586,0.39387 3.067355,3.32125 2.619582,3.93712 C 32.048889,180.49766 30.392,178.15982 29.6,177.3131 c -0.792,-0.84671 -1.44,-1.68224 -1.44,-1.85674 0,-0.41686 -2.209245,1.7014 -3.13119,3.00224 l -0.721915,1.0186 0.68533,1.2214 c 0.376931,0.67177 1.281219,2.0134 2.009527,2.9814 0.728308,0.968 1.565865,2.13721 1.861238,2.59824 0.295373,0.46103 1.30052,1.56655 2.233658,2.4567 1.096186,1.04569 2.481069,1.76204 2.214289,2.14074 -0.345917,0.49105 -1.509072,-0.64084 -2.630131,-1.59454 z m 123.706034,-0.82243 c -0.11601,-0.18771 -2.20435,-2.56135 -1.8709,-2.68911 0.46072,-0.17653 2.05027,2.26501 2.1545,2.5366 0.21637,0.56387 0.032,0.66306 -0.28359,0.15251 z M 42.72,187.19601 c -1.634256,-0.33193 -4.895062,-1.55205 -5.119834,-1.91574 -0.0946,-0.15306 -0.985379,-0.51476 -1.97952,-0.80376 -0.09798,-0.0285 0.714093,0.92037 0.958515,1.53889 0.233768,0.59157 -0.07836,0.89297 -1.057382,-0.76712 -0.420367,-0.7128 -2.274032,-1.72847 -2.725424,-2.07275 C 32.23713,182.749 31.613182,182.4 31.409795,182.4 c -0.757763,0 -0.312564,-1.50721 1.080359,-3.65752 0.852195,-1.31557 1.366496,-2.43796 1.264448,-2.75948 -0.198173,-0.6244 0.471366,-4.4809 1.580406,-9.103 0.422298,-1.76 1.002627,-4.208 1.289616,-5.44 0.286989,-1.232 0.832582,-3.32 1.212429,-4.64 0.609027,-2.11643 0.699398,-3.30659 0.764861,-10.07296 0.08221,-8.49707 0.149046,-9.11616 1.242179,-11.506 0.418531,-0.915 1.066797,-2.48105 1.440592,-3.48011 1.172934,-3.13494 5.694467,-8.54202 8.155315,-9.75254 0.704,-0.3463 2.576,-1.02044 4.16,-1.49808 1.584,-0.47764 3.190611,-1.15588 3.57025,-1.50721 0.744931,-0.68937 2.582726,-3.9598 2.998892,-5.33665 0.254119,-0.84073 0.256036,-0.84121 0.283354,-0.0703 0.06014,1.69697 -3.315354,7.2124 -4.342589,7.09562 -0.364224,-0.0414 -4.086073,1.20069 -5.869907,1.95897 -0.792,0.33667 -2.030544,1.21854 -2.75232,1.95971 -2.08904,2.14518 -4.28768,4.95781 -4.28768,5.48505 0,0.26648 -0.131277,0.48452 -0.291725,0.48452 -0.160451,0 -0.576813,0.828 -0.925254,1.84 -0.348439,1.012 -1.031146,2.776 -1.517127,3.92 -0.880105,2.07179 -0.883382,2.10717 -0.829408,8.96 0.05431,6.89585 -0.05607,8.15739 -1.078003,12.32 -0.302461,1.232 -0.973433,4.04 -1.491053,6.24 -0.517622,2.2 -1.223356,5.09651 -1.5683,6.43669 -0.344941,1.34018 -0.668413,3.46165 -0.71882,4.71439 -0.06799,1.68972 -0.260672,2.50631 -0.746403,3.16331 -0.360112,0.48709 -0.906982,1.37338 -1.215261,1.96954 l -0.560512,1.08392 1.005335,0.85804 c 0.552934,0.47192 1.71695,1.11393 2.586701,1.42669 0.86975,0.31276 1.918633,0.83395 2.330851,1.1582 0.412221,0.32425 1.170125,0.68627 1.684233,0.80449 0.514109,0.11821 1.574999,0.42302 2.357533,0.67735 0.859491,0.27934 1.897776,0.38217 2.622538,0.25972 0.659865,-0.11148 1.675613,-0.25136 2.257216,-0.31084 0.581603,-0.0595 1.560509,-0.26415 2.175347,-0.45482 0.614838,-0.19068 1.550838,-0.35069 2.08,-0.35558 0.560906,-0.005 1.486291,-0.40552 2.219117,-0.96 1.173277,-0.88775 4.652673,-3.8684 4.711352,-2.85172 0.02652,0.45942 -5.653528,4.46232 -6.766882,4.63207 -0.616813,0.094 -2.129475,0.37639 -3.361475,0.62744 -3.450752,0.70318 -4.06273,0.75685 -5.44,0.47712 z m 19.705264,-44.98268 c 0.01536,-0.37278 0.09118,-0.4486 0.193331,-0.19333 0.09244,0.231 0.08107,0.507 -0.02525,0.61333 -0.106336,0.10634 -0.181965,-0.0827 -0.16807,-0.42 z m -2.24,-31.04 c 0.01536,-0.37278 0.09118,-2.63621 0.414302,-2.00529 0.113417,0.22145 0.196032,4.28573 -0.202027,4.30354 -0.524195,0.0234 -0.226159,-1.96095 -0.212264,-2.29825 z"
         id="outline" />
    </g>
  </g>
</svg>
