<?xml version="1.0" encoding="UTF-8" standalone="no"?>
<!-- Created with Inkscape (http://www.inkscape.org/) -->

<svg
   version="1.1"
   id="svg4220"
   width="192"
   height="288"
   viewBox="0 0 192 288"
   xmlns="http://www.w3.org/2000/svg"
   xmlns:svg="http://www.w3.org/2000/svg">
  <defs
     id="defs4224" />
  <g
     id="g4226"
     transform="translate(3.5233415,1.6461917)">
    <g
       id="g4230"
       transform="translate(2.3538082,2.7076166)">
      <path
         style="fill:#e5eff9;stroke-width:0.32"
         d="M 86.04417,134.16 C 82.608675,129.5279 81.6,128.03012 81.6,127.56086 c 0,-0.28647 0.120886,-0.52086 0.268634,-0.52086 0.359177,0 0.951136,-1.29347 1.817721,-3.97184 0.685527,-2.11876 0.732861,-2.17936 1.124877,-1.44 0.225078,0.42451 0.653315,0.98784 0.951635,1.25184 0.298323,0.264 0.796563,0.984 1.1072,1.6 0.310637,0.616 0.825248,1.408 1.143578,1.76 0.318329,0.352 0.936166,1.27164 1.372969,2.04365 0.748039,1.32209 0.767975,1.47797 0.343037,2.68236 -0.393219,1.11451 -2.292521,4.71399 -2.487379,4.71399 -0.03892,0 -0.578064,-0.684 -1.198102,-1.52 z m 11.104172,-3.6407 c -0.398656,-0.94813 -0.348646,-1.11767 0.951898,-3.22709 0.75496,-1.22451 1.481914,-2.82619 1.615446,-3.55929 0.241796,-1.32745 0.243703,-1.32898 0.465694,-0.37292 0.43289,1.86438 0.31283,3.40125 -0.336996,4.31384 -0.349587,0.49095 -0.92047,1.55718 -1.268627,2.3694 -0.348157,0.81222 -0.717082,1.47676 -0.819834,1.47676 -0.102749,0 -0.376163,-0.45031 -0.607581,-1.0007 z m -16.636864,-4.34843 c -0.303353,-0.63614 -1.339161,-2.24883 -2.301788,-3.58375 -2.150413,-2.98206 -4.512493,-6.64683 -5.792538,-8.98712 -0.529456,-0.968 -1.722496,-3.056 -2.651197,-4.64 -1.57447,-2.68543 -3.384806,-6.80781 -3.110221,-7.0824 0.0665,-0.0665 0.972164,0.62465 2.012586,1.53588 7.241322,6.34219 12.211254,10.18652 13.169066,10.18652 0.227916,0 1.123155,0.3706 1.98942,0.82356 1.67042,0.87344 1.766247,1.26339 0.597639,2.432 -0.38616,0.38616 -0.584445,1.05506 -0.584445,1.97159 0,1.49954 -0.811114,4.25726 -2.01895,6.86425 l -0.758013,1.63609 z m 20.332202,-2.74543 c -0.1888,-1.09199 -0.4242,-2.77744 -0.52309,-3.74544 -0.0989,-0.968 -0.409531,-2.48134 -0.690289,-3.36297 l -0.510471,-1.60298 2.79477,-2.87702 c 1.53712,-1.58237 3.125,-3.52503 3.52861,-4.31703 0.40362,-0.792 1.36001,-2.02657 2.12532,-2.74348 0.76531,-0.71692 2.24323,-2.33716 3.28426,-3.60054 1.93946,-2.353695 2.51181,-2.73502 1.68962,-1.12572 -0.25563,0.50036 -0.77853,2.19291 -1.16201,3.76124 -0.38348,1.56832 -0.89319,3.23044 -1.13269,3.69359 -0.23951,0.46315 -0.5975,1.73565 -0.79554,2.82778 -0.77611,4.28 -5.3529,13.16979 -7.50691,14.58115 l -0.75829,0.49685 z"
         id="shirt" />
      <path
         style="fill:#ecd8c1;stroke-width:0.32"
         d="m 59.169267,202.18679 c -0.632902,-0.16889 -1.604825,-0.72182 -2.159833,-1.22874 -0.555008,-0.50692 -1.405181,-1.16258 -1.889271,-1.45702 -1.238736,-0.75343 -3.475651,-3.48737 -4.636941,-5.66723 l -0.983539,-1.8462 0.425287,-2.25394 c 0.296323,-1.57046 0.63206,-2.41764 1.107171,-2.7938 0.375033,-0.29692 0.782691,-0.80485 0.905901,-1.12871 0.217532,-0.57181 0.250528,-0.57181 1.139686,0 0.503616,0.32386 2.123152,1.50911 3.59897,2.63387 2.771558,2.11228 4.26015,2.91498 5.405772,2.91498 1.234794,0 3.047904,-1.2122 5.665111,-3.78754 1.434269,-1.41132 2.905808,-2.72555 3.270089,-2.92051 0.647735,-0.34666 0.662279,-0.289 0.660055,2.61679 -0.0013,1.63419 -0.09407,3.94326 -0.206272,5.13126 -0.188659,1.99756 -0.260682,2.16 -0.957725,2.16 -0.506675,0 -0.753728,0.18495 -0.753728,0.56427 0,0.31035 -0.504,1.31267 -1.12,2.22738 -0.616,0.91471 -1.12,1.78454 -1.12,1.93295 0,0.51908 -2.090861,2.26174 -3.319078,2.76634 -1.361136,0.5592 -3.253632,0.6103 -5.031655,0.13585 z m 56.428183,-31.26213 c -0.3974,-0.11256 -1.46217,-0.84254 -2.36614,-1.62216 -1.81411,-1.56456 -2.89936,-3.61447 -4.07779,-7.7025 -0.38051,-1.32 -0.90371,-3.13266 -1.16268,-4.02812 -0.56277,-1.94602 -0.61506,-5.81625 -0.10173,-7.5296 0.34258,-1.14343 1.52894,-2.66528 1.56836,-2.01188 0.01,0.15928 0.0545,0.89015 0.0997,1.62416 0.10764,1.74676 0.64316,2.34544 2.09801,2.34544 1.73171,0 1.94482,-0.39273 1.94482,-3.584 0,-2.4732 0.0387,-3.10915 0.53054,-3.09849 0.93959,0.0204 2.78247,2.72568 2.89057,4.45294 0.15388,2.45876 3.30071,10.11559 5.34269,12.45426 2.80409,3.21152 2.77537,3.15337 2.17713,4.40789 -0.64426,1.35104 -4.24748,3.79409 -6.04341,4.09756 -0.66964,0.11315 -1.43352,0.24924 -1.69752,0.30244 -0.264,0.0532 -0.80515,0.005 -1.20255,-0.10794 z"
         id="skin" />
      <path
         style="fill:#c19501;stroke-width:0.32"
         d="m 120.21333,171.94667 c -0.43704,-0.43705 -0.15665,-0.71575 2.19414,-2.18094 1.76172,-1.09803 2.57887,-1.83649 3.0465,-2.75312 0.46099,-0.9036 0.84229,-1.25261 1.36851,-1.25261 0.40121,0 1.58628,-0.62349 2.63349,-1.38553 2.35012,-1.71013 11.27759,-10.52296 12.21608,-12.05919 0.3779,-0.6186 1.11126,-1.43831 1.62967,-1.82159 l 0.94258,-0.69688 -0.2321,1.02912 c -0.28144,1.24783 -0.89933,2.45407 -1.25709,2.45407 -0.14431,0 -0.85009,0.828 -1.56841,1.84 -0.71832,1.012 -1.91016,2.416 -2.64853,3.12 -0.73837,0.704 -1.86352,1.928 -2.50033,2.72 -0.63681,0.792 -1.37384,1.57401 -1.63784,1.73781 -0.264,0.16379 -1.272,1.0338 -2.24,1.93335 -2.19438,2.0392 -3.68823,3.12229 -5.08221,3.68477 -0.59522,0.24018 -2.01753,1.20335 -3.16069,2.14038 -1.8945,1.55289 -3.14004,2.05408 -3.70377,1.49036 z M 111.34876,150.16 c -0.0128,-1.37076 -0.71974,-4.89055 -1.10854,-5.51964 -0.19533,-0.31606 -0.0829,-0.37479 0.45046,-0.23531 0.84336,0.22055 9.71615,-1.44533 11.36295,-2.13341 0.6305,-0.26344 1.14637,-0.41876 1.14637,-0.34514 0,0.0736 -0.756,0.62038 -1.68,1.21504 -0.924,0.59466 -2.37885,1.83279 -3.233,2.7514 -1.47163,1.58269 -1.78409,3.3528 -1.78409,2.30709 0,-0.57925 -1.83895,-2.90121 -2.46757,-2.90121 -1.01372,0 -1.17097,0.46548 -0.93901,3.02515 0.17588,1.94097 -0.13658,2.51984 -0.48929,2.74317 -0.89128,0.56434 -1.2469,0.30797 -1.25828,-0.90714 z m -1.82596,-6.691 c -0.73652,-0.29755 -2.3228,-4.81508 -2.3228,-6.61503 0,-1.00609 1.22529,-2.01427 3.00178,-2.46988 0.72502,-0.18595 2.75822,-1.03868 4.51822,-1.89496 5.47267,-2.66256 7.48709,-3.49061 9.31285,-3.82812 0.9703,-0.17937 1.90114,-0.41077 2.06853,-0.51422 0.72944,-0.45082 1.73691,0.0998 2.13953,1.55508 0.52474,1.89674 1.27962,4.29125 1.6882,4.54376 0.17099,0.10568 0.67917,0.44752 0.67917,0.68763 0,0.57228 -1.85075,2.26336 -2.7228,2.72052 -0.66298,0.34755 -0.6671,0.33861 -0.12548,-0.27241 0.31837,-0.35917 0.56,-1.14209 0.56,-1.81449 0,-0.97513 -0.14407,-1.2375 -0.82083,-1.4948 -1.51664,-0.57662 -2.28495,-0.38007 -2.99307,0.76569 -0.93236,1.50859 -0.85413,2.32856 0.27801,2.91401 0.51926,0.26852 1.18668,0.48822 1.48315,0.48822 0.4236,0 0.3756,0.12518 -0.2241,0.5845 -2.40153,1.8393 -4.77679,2.97816 -7.18303,3.444 -1.39707,0.27047 -3.41333,0.69871 -4.48057,0.95163 -1.90987,0.45262 -4.0775,0.5637 -4.85676,0.24887 z m 15.37322,-6.04336 c -1.15687,-0.4618 -1.09238,-1.20459 -0.14007,-2.19858 1.13542,-1.18512 2.91341,-0.90433 2.91341,0.39679 0,0.88834 -0.82717,1.92168 -1.41336,1.8863 -0.1848,-0.0112 -0.92643,0.0885 -1.35998,-0.0845 z"
         id="file" />
      <path
         style="fill:#c80b1b;stroke-width:0.32"
         d="m 91.69815,142.22279 c -0.294502,-0.44947 -1.247062,-1.60299 -2.116803,-2.56339 -0.907478,-1.00207 -1.580765,-2.05155 -1.579977,-2.46279 6.4e-4,-0.39413 0.432137,-1.36461 0.95863,-2.15661 0.526493,-0.792 0.957875,-1.61511 0.95863,-1.82914 6.4e-4,-0.21403 0.226836,-0.86203 0.502407,-1.44 L 90.922074,130.72 h 2.534572 2.534573 l 0.804391,1.54953 c 0.973785,1.87584 1.024912,3.36381 0.153644,4.47145 -0.35791,0.45501 -0.826528,1.15843 -1.041376,1.56315 -1.146896,2.16052 -2.720345,5.15254 -3.068227,5.15254 -0.218742,0 -0.847001,-0.78441 -1.141501,-1.23388 z M 91.84,130.03178 c -1.389,-0.36537 -1.344,-1.5061 -2.4,-3.18313 -1.056,-1.67704 -2.238221,-3.50805 -2.627155,-4.06891 -2.12961,-3.07098 -2.55545,-4.82154 -1.292845,-5.31467 0.396,-0.15467 1.8,-0.72087 3.12,-1.25823 3.420614,-1.39251 5.585511,-2.48767 7.514848,-2.48767 1.467923,0 1.748195,0.61183 1.929034,1.24083 0.113852,0.396 0.422259,1.19632 0.68535,1.77849 0.863059,1.9098 0.209536,7.88707 -1.045258,9.56016 -0.420185,0.56026 -0.763974,1.16746 -0.763974,1.34933 0,0.18188 -0.279633,1.08949 -0.901499,1.71135 -1.111363,1.11137 -2.537573,1.11461 -4.218501,0.67245 z"
         id="tie" />
      <path
         style="fill:#002f83;stroke-width:0.32"
         d="m 71.14921,238.69777 c -0.36394,-0.13462 -1.593353,-0.95932 -2.14638,-1.8581 -0.553031,-0.89879 -0.84955,-1.80594 -1.244587,-1.99043 C 67.36321,234.66475 66.032,233.19941 64.8,231.59294 c -1.232,-1.60647 -2.636,-3.30367 -3.12,-3.77154 -0.484,-0.46788 -0.88,-0.98685 -0.88,-1.15327 0,-0.16642 0.494362,-0.78174 1.098579,-1.36737 0.604218,-0.58563 1.277594,-1.51388 1.496391,-2.06277 0.218793,-0.5489 0.782832,-1.86199 1.253411,-2.91799 0.470582,-1.056 0.955933,-2.352 1.078557,-2.88 0.122624,-0.528 0.49912,-1.68 0.836662,-2.56 2.263482,-5.9011 2.98837,-8.992 3.231922,-10.1075 0.661511,-3.02978 1.970968,-7.32653 2.411243,-9.2525 0.355641,-1.55574 0.45,-3.63269 0.374361,-8.24033 -0.08723,-5.3138 -0.03501,-6.16028 0.379988,-6.16 0.455148,3.1e-4 4.232662,1.78773 5.586764,2.64352 0.345332,0.21824 1.174436,0.72331 1.842448,1.12237 l 1.214573,0.72556 0.01111,2.95444 c 0.0061,1.63023 -0.264049,4.03444 -0.218411,5.35444 0.08741,2.52812 -0.730645,10.55706 -1.221192,11.8473 -0.158442,0.41673 -0.246407,1.38597 -0.246407,2.17933 0,0.79336 -0.235411,2.66166 -0.574064,4.10084 -0.33865,1.43919 -0.75779,3.7687 -0.855028,5.1767 -0.198096,2.86839 -0.871346,6.14461 -1.233849,7.54356 -0.158838,0.61298 -0.127993,0.85826 0.09091,0.72296 0.371456,-0.22957 0.26644,-0.9952 0.973691,-6.69402 0.273034,-2.2 0.780541,-5.40322 1.127795,-7.14373 0.347255,-1.74051 0.61567,-3.71484 0.621938,-4.43833 0.0063,-0.72349 0.228045,-2.24194 0.492832,-3.29794 0.305344,-1.21774 0.716853,-4.75107 0.908325,-9.80473 0.166042,-4.38243 0.474805,-8.01597 0.533365,-8.07453 0.05856,-0.0585 0.599709,0.035 1.202557,0.20789 1.986019,0.56958 4.749824,0.31684 6.030585,-0.55148 1.325728,-0.89881 4.494887,-5.65097 4.50449,-6.7545 0.0036,-0.40737 0.319024,-1.46728 0.701059,-2.35535 l 0.694611,-1.61466 2.505389,2.60838 c 1.377965,1.4346 2.505395,2.71198 2.505395,2.83861 0,0.12663 0.32875,0.58877 0.73056,1.02697 0.40181,0.4382 1.05816,1.33125 1.45857,1.98455 1.03277,1.68506 2.82152,2.97782 4.75181,3.43418 2.03432,0.48097 5.43722,-0.11508 7.99687,-1.40072 0.89933,-0.45171 1.945,-0.82128 2.32373,-0.82128 0.37874,0 1.7381,-0.576 3.02082,-1.28 1.28273,-0.704 2.4065,-1.28 2.49727,-1.28 0.0908,0 0.25005,3.276 0.35394,7.28 0.27889,10.74935 1.24343,17.01833 4.29573,27.92 1.92384,6.8712 1.90328,7.75666 -0.20036,8.62801 -0.49491,0.205 -2.04792,1.55156 -3.45114,2.99236 -1.40321,1.44079 -2.78261,2.83563 -3.06532,3.09963 -0.28271,0.264 -1.81601,1.79451 -3.40734,3.40113 -1.59132,1.60662 -3.16694,2.99268 -3.50137,3.08014 -0.76431,0.19988 -3.05449,-0.39738 -4.52378,-1.17975 -1.23171,-0.65587 -3.23975,-2.0905 -3.5706,-2.55101 -0.11583,-0.16122 -0.54783,-0.31798 -0.95999,-0.34834 -0.41217,-0.0304 -0.7674,-0.22328 -0.7894,-0.42869 -0.022,-0.20542 -0.058,-0.45671 -0.08,-0.55844 -0.022,-0.10173 -0.10154,-1.79497 -0.17675,-3.76275 -0.14021,-3.66815 -0.43722,-5.7553 -2.12495,-14.93229 -0.53407,-2.904 -1.10309,-6 -1.26449,-6.88 C 98.533734,197.26222 97.594634,193.91258 95.567437,190.33962 94.489632,188.43998 94.093837,188 93.462762,188 c -0.734855,0 -0.81776,0.20068 -1.520279,3.68 -0.408669,2.024 -0.895753,4.34658 -1.082409,5.16129 -0.188125,0.82112 -0.39842,6.45441 -0.471856,12.64 -0.145492,12.25438 -0.300784,14.95987 -0.976352,17.00989 -0.248528,0.75415 -0.451866,1.92067 -0.451866,2.59225 0,1.23621 -0.05964,3.09098 -0.723281,4.45927 -0.45384,0.93572 -2.959703,2.05707 -5.945905,2.89296 -9.346982,2.61636 -10.312984,2.56864 -11.141604,2.26211 z m 41.50738,-15.52757 c -0.34633,-1.74361 -0.95634,-5.0422 -1.15187,-7.3302 -0.37706,-4.41208 -0.34424,-21.84106 -0.0177,-24 l 0.19363,-1.28 -0.48935,0.96 c -0.42211,0.82808 -0.12987,2.51648 0.0343,11.76333 0.18863,10.62421 0.30896,16.55477 1.24778,20.87655 0.26761,1.23193 0.48657,2.29993 0.48657,2.37333 0,0.0734 0.0734,0.06 0.16313,-0.0297 0.0897,-0.0897 -0.12022,-1.58973 -0.46654,-3.33334 z M 60.793026,190.46187 c -0.370963,-0.14991 -2.335125,-1.43478 -3.779163,-2.54972 -1.444036,-1.11493 -2.792855,-2.4826 -3.353857,-2.88648 -0.561004,-0.40388 -1.81895,-1.50115 -2.79544,-2.43838 -1.468649,-1.40959 -1.84319,-1.99759 -2.167571,-3.40289 -0.381757,-1.65386 -0.368096,-1.7291 0.515831,-2.84162 1.258652,-1.58415 1.421408,-1.8936 1.682064,-3.19812 0.125795,-0.62956 0.567798,-2.58466 0.982233,-4.34466 0.679837,-2.88711 0.752122,-3.91965 0.739287,-10.56 -0.01632,-8.44356 -0.141712,-9.13914 -2.768919,-15.36 -2.993267,-7.08765 -4.970921,-13.86886 -5.272797,-18.08 -0.149769,-2.08924 -0.03865,-2.83507 0.858183,-5.76 0.566627,-1.848 1.153577,-3.648 1.304333,-4 0.150755,-0.352 0.487324,-1.17549 0.747929,-1.82998 0.260608,-0.65449 1.167063,-1.90539 2.014346,-2.77978 0.847283,-0.87439 2.069405,-2.16379 2.715824,-2.86533 0.677001,-0.73473 1.417686,-1.23995 1.746982,-1.19162 0.340541,0.05 1.318128,1.34131 2.417933,3.19393 1.923568,3.24026 4.484054,6.57261 7.770371,10.11278 1.061971,1.144 3.082439,3.376 4.489933,4.96 6.240896,7.02353 10.449155,11.15419 15.418144,15.13381 7.580941,6.07153 8.123376,6.70473 8.691814,10.14619 0.174426,1.056 0.408295,4.47492 0.519712,7.5976 0.111415,3.12268 0.336634,6.50131 0.50049,7.50806 0.163853,1.00676 0.393741,3.31264 0.510861,5.12419 0.198301,3.06723 0.156473,3.43114 -0.608269,5.29194 -0.451664,1.09901 -0.908339,2.52162 -1.014829,3.16135 -0.106493,0.63973 -0.619587,1.79173 -1.140214,2.56 -0.520624,0.76827 -0.953085,1.54086 -0.961021,1.71686 -0.0079,0.176 -0.40656,0.79077 -0.885824,1.36616 -0.779357,0.93566 -1.097981,1.06715 -3.016714,1.2449 -2.480502,0.2298 -3.232883,-0.008 -6.399091,-2.0225 -2.195062,-1.39661 -6.040659,-3.39026 -7.327145,-3.79858 -0.395584,-0.12555 -1.018311,-0.5112 -1.383844,-0.85699 -0.365529,-0.3458 -1.240598,-0.92388 -1.944598,-1.28463 -1.790592,-0.91754 -7.482995,-6.22951 -7.729914,-7.2133 -0.151225,-0.60254 0.204282,-1.5895 1.398154,-3.88152 1.918432,-3.68306 2.868499,-6.03904 3.451162,-8.55821 0.23856,-1.03143 0.652809,-2.73933 0.920553,-3.79533 0.805456,-3.17678 1.540659,-9.75158 1.323965,-11.84 -0.48793,-4.70249 -1.443552,-7.82194 -3.621133,-11.82052 -0.913299,-1.67704 -1.425993,-2.27848 -2.094768,-2.45734 -1.255062,-0.33565 -1.489481,0.49289 -0.385209,1.36151 1.306841,1.02796 3.709993,6.38087 4.362089,9.71635 0.805495,4.12013 0.193488,12.08404 -1.293107,16.82686 -0.353942,1.12923 -0.645888,2.26914 -0.648762,2.53314 -0.01059,0.9733 -2.664416,6.97451 -4.322211,9.77404 -0.851993,1.43875 -0.462381,2.87887 1.25152,4.62596 1.96736,2.00546 5.486819,4.9537 7.370583,6.17432 1.847686,1.19724 2.702713,2.32494 2.024802,3.94741 -0.240739,0.57617 -0.857234,1.45347 -1.268133,1.66945 -0.410899,0.21598 -1.808176,1.36189 -3.105053,2.67378 -2.949913,2.98405 -4.612955,3.93585 -6.441512,3.19691 z m 46.362784,-4.4272 c -1.85335,-0.67037 -2.71817,-1.6891 -3.68711,-3.12973 -1.91952,-2.85396 -2.59537,-3.7108 -5.122594,-6.49449 l -2.474836,-2.72599 -0.577571,-5.32223 C 94.976035,165.435 94.562051,160.232 94.373734,156.8 c -0.188316,-3.432 -0.402822,-6.888 -0.476678,-7.68 -0.192672,-2.06616 0.0103,-2.62596 1.539078,-4.2449 2.423255,-2.56615 4.526029,-5.06301 6.227826,-7.39498 0.91517,-1.25407 2.0371,-2.78412 2.49316,-3.40012 0.45607,-0.616 1.77564,-2.56 2.93239,-4.32 1.15675,-1.76 2.37483,-3.49728 2.70684,-3.86062 0.33201,-0.36335 0.60365,-0.74777 0.60365,-0.85428 0,-0.28408 3.29546,-5.69805 5.6031,-9.2051 1.10019,-1.672 2.39938,-3.832 2.88711,-4.8 1.48091,-2.9392 3.02932,-7.89066 3.03469,-9.70425 0.008,-2.557376 0.23885,-2.720819 2.4484,-1.730259 1.02668,0.460269 2.49389,0.977429 3.26045,1.149249 0.76657,0.17182 1.95603,0.76425 2.64324,1.31651 0.68722,0.55226 1.71603,1.20615 2.28625,1.45308 2.97942,1.29023 7.73352,8.27305 11.12185,16.33579 1.58639,3.77491 2.25126,6.07689 3.1828,11.01988 0.38143,2.024 0.8189,4.256 0.97215,4.96 0.17454,0.80184 0.1335,2.53516 -0.10986,4.64 -0.38238,3.30717 -0.41349,3.39271 -1.97835,5.44 -0.87443,1.144 -2.34631,2.83913 -3.27085,3.76696 -0.92454,0.92782 -1.68098,1.83141 -1.68098,2.00797 0,0.17657 -0.828,1.16375 -1.84,2.19375 -7.56562,7.70016 -9.06757,9.12269 -10.51895,9.96272 -0.90143,0.52173 -1.80466,0.9486 -2.00719,0.9486 -0.51982,0 -3.38448,-3.05512 -4.65078,-4.96 -0.585,-0.88 -1.52153,-2.74691 -2.08118,-4.14868 -0.55965,-1.40178 -1.1729,-2.73589 -1.36278,-2.96468 -0.18988,-0.22879 -0.41556,-1.3988 -0.50151,-2.60001 l -0.15626,-2.18403 1.39932,-1.38756 c 0.76963,-0.76316 2.04733,-1.7948 2.83933,-2.29254 1.37414,-0.86358 5.2059,-4.25873 8.20147,-7.26693 1.37135,-1.37713 1.68666,-2.16537 1.10869,-2.77157 -1.33747,-1.40279 -2.88751,-5.25235 -3.10964,-8.784 -0.17283,-2.7478 0.0148,-3.32143 -0.43886,-3.04103 -0.17757,0.10975 -0.45771,-0.15514 -0.62252,-0.58863 -0.71854,-1.88991 -1.64634,-0.99174 -1.03458,1.00155 0.42205,1.37519 0.26947,1.641 -0.5278,0.91948 -0.55394,-0.50131 -1.65676,-0.73796 -1.65676,-0.35551 0,0.0967 0.51793,0.70873 1.15094,1.36 1.76583,1.81676 1.91415,2.24881 0.85611,2.49385 -2.85136,0.66037 -6.79943,2.08275 -8.88705,3.20175 -0.704,0.37736 -1.64,0.79769 -2.08,0.93407 -0.44,0.13638 -1.33931,0.5883 -1.99847,1.00427 -0.65917,0.41597 -1.93052,0.91329 -2.82523,1.10518 -2.08215,0.44654 -3.8163,1.89819 -3.8163,3.1946 0,1.24923 1.2363,5.67788 1.86499,6.68075 0.27916,0.44532 0.83775,1.21672 1.24129,1.71422 1.05054,1.29514 0.97394,2.13545 -0.19467,2.13545 -1.52676,0 -2.34925,1.73466 -2.52301,5.32108 -0.15675,3.23522 0.21583,5.16193 2.00859,10.38702 1.34077,3.90771 1.714,4.60762 3.41477,6.40378 1.89142,1.99749 3.13026,2.59017 5.21249,2.49371 1.33079,-0.0616 1.87996,0.0701 2.57656,0.61804 0.48692,0.383 1.07085,0.69637 1.29763,0.69637 0.41879,0 2.59404,-1.97049 4.05093,-3.30055 0.44,-0.40169 1.46438,-0.97342 2.16838,-1.28851 0.704,-0.31509 1.37327,-0.76107 1.50527,-0.82901 0.132,-0.0679 0.41678,0.47989 0.41678,0.7673 0,0.62864 0.91886,2.48666 1.37527,2.78094 0.21067,0.13583 0.13828,0.60569 -0.20465,1.32836 -0.29184,0.61501 -0.53062,1.27077 -0.53062,1.45725 0,0.18649 -0.684,0.79351 -1.52,1.34896 -0.836,0.55544 -2.27164,1.8931 -3.1903,2.97258 -1.34844,1.58448 -2.2842,2.28641 -4.85616,3.64268 -1.75222,0.924 -3.4507,2.00409 -3.81039,2.00409 -0.35969,0 -1.25851,-0.0243 -1.96136,0.342 -2.21475,1.15439 -6.04978,2.18637 -7.42598,1.68858 z M 99.99296,167.28 c 1.51484,-1.31623 1.31431,-3.81757 -0.295852,-4.6793 -0.903965,-0.48379 -2.869649,-0.12445 -3.489633,0.9251 -0.74879,1.2676 -0.478845,2.11409 0.495712,3.29046 1.02518,1.23748 2.088557,1.50746 3.289773,0.46374 z m -3.097427,-0.64 c -0.902173,-1.43058 -0.680199,-2.16734 0.09004,-2.98723 0.708522,-0.75418 2.01185,-1.24244 2.724106,-0.76357 0.192326,0.1293 0.443171,0.95103 0.557441,1.53798 0.17545,0.90125 0.28367,1.44792 -0.504099,2.2357 -1.119603,1.1196 -2.258833,0.94227 -2.867489,-0.0229 z m 2.168437,-11.76751 c 1.69768,-1.00166 2.29883,-2.46331 1.0939,-4.15548 -0.831003,-1.16704 -2.361723,-1.29512 -3.622817,-0.30314 -0.901533,0.70914 -1.447872,2.61875 -0.935447,3.26964 0.17168,0.21807 0.406746,0.79249 0.522365,1.27649 0.169949,0.71141 0.389463,0.88 1.145834,0.88 0.514589,0 1.168917,-0.59743 1.796165,-0.96751 z m -2.257256,-0.29133 c -0.117495,-0.3702 -0.618981,-1.3235 -0.682289,-2.10046 -0.135952,-1.66839 0.730433,-2.24923 2.20618,-2.13678 1.421497,0.10831 2.094565,0.63588 2.094565,2.21207 0,1.49686 -0.816072,2.06223 -2.555,2.48946 -0.683911,0.16802 -0.891536,0.0774 -1.063456,-0.46429 z m -6.834436,-11.09005 c -1.108755,-1.00337 -2.428406,-2.12733 -2.93256,-2.49771 -1.909628,-1.40289 -4.360617,-3.37073 -5.439718,-4.36741 -4.526096,-4.18038 -7.889005,-7.62021 -12.166874,-12.44517 -1.31622,-1.48454 -3.295494,-3.6624 -4.39839,-4.83968 -1.102896,-1.17728 -2.398896,-2.65694 -2.88,-3.28813 -0.481104,-0.63119 -1.705619,-2.22643 -2.721142,-3.54497 -1.015524,-1.31855 -2.59377,-3.86108 -3.507213,-5.65007 -1.368976,-2.68115 -1.683667,-3.61169 -1.790896,-5.29569 -0.128183,-2.013064 -0.111971,-2.061054 1.107216,-3.277954 1.111913,-1.10983 1.456848,-1.258374 3.403801,-1.46582 l 2.166503,-0.230839 1.779286,1.626167 c 0.978605,0.89439 1.905895,1.626166 2.06064,1.626166 0.154746,0 0.567066,0.92502 0.916266,2.05561 0.349203,1.13058 0.771488,2.31858 0.938416,2.64 0.166928,0.32141 0.840729,1.66439 1.497334,2.98439 0.656608,1.32 1.597818,3.00397 2.091578,3.74217 0.493763,0.73819 1.178502,1.97685 1.521648,2.75259 0.343142,0.77573 1.6832,2.97976 2.977907,4.89783 1.294704,1.91808 2.512246,3.77541 2.705651,4.12741 1.002115,1.82386 3.381034,5.21768 4.149667,5.92 0.481543,0.44 1.356669,1.52 1.944727,2.4 0.588054,0.88 1.574294,2.32 2.191641,3.2 0.617344,0.88 1.12465,1.99099 1.127341,2.46886 0.0045,0.80099 0.535677,1.566 2.804893,4.03971 0.396,0.43169 0.72,0.90285 0.72,1.04702 0,0.14418 0.444803,0.76874 0.988451,1.38792 1.682599,1.91638 0.866288,1.90832 -1.256173,-0.0124 z m 4.107722,0.5089 c 0,-0.48598 0.922022,-2.26619 1.574512,-3.04001 0.750029,-0.8895 2.816298,-4.36374 3.207958,-5.39389 0.248372,-0.65327 0.197546,-1.11794 -0.217459,-1.98822 -0.394109,-0.82646 -0.441344,-1.19767 -0.173465,-1.36322 0.202467,-0.12513 0.657248,-0.90202 1.010624,-1.72642 0.353379,-0.82439 1.69968,-2.8375 2.99179,-4.47357 1.2921,-1.63608 2.7789,-3.69468 3.30399,-4.57468 0.52508,-0.88 1.13475,-1.888 1.35481,-2.24 0.22006,-0.352 0.62239,-1.144 0.89406,-1.76 0.27167,-0.616 0.75299,-1.696 1.06961,-2.4 0.76478,-1.70053 1.21317,-3.21146 1.47195,-4.96 0.11722,-0.792 0.39372,-1.728 0.61445,-2.08 0.22073,-0.352 0.58231,-1.432 0.80352,-2.4 0.90458,-3.95835 2.31544,-7.501526 3.46803,-8.709485 1.29449,-1.356665 2.9821,-2.258806 3.94938,-2.111203 1.02599,0.15656 1.52027,2.090048 1.4046,5.494438 -0.15199,4.47372 -2.13434,9.56258 -5.96706,15.318 -2.01677,3.02849 -4.18331,6.49008 -4.38543,7.00682 -0.0573,0.14642 -0.82091,1.31364 -1.69698,2.59382 -0.87606,1.28019 -2.30117,3.40761 -3.16691,4.72761 -1.94378,2.96372 -3.56562,5.33411 -4.00251,5.84983 -0.18179,0.21459 -0.67827,0.88439 -1.10328,1.48844 -0.42502,0.60405 -1.482766,1.86113 -2.350558,2.79352 -0.867795,0.93239 -1.922208,2.16206 -2.343142,2.7326 -0.854919,1.15878 -1.71249,1.76753 -1.71249,1.21562 z"
         id="suit" />
      <path
         style="fill:#201209;stroke-width:0.32"
         d="m 63.184499,254.68747 c -0.695475,-0.0976 -1.726656,-0.7479 -2.164199,-0.98668 -0.938342,-0.51209 -3.524987,-3.23967 -3.409467,-3.62536 -0.641443,-0.29758 -0.20023,-0.76018 -0.502132,-1.54867 -0.991879,-1.4161 -0.690215,-7.28531 0.775577,-10.31772 0.529904,-1.09627 0.925076,-2.08421 0.980011,-2.34821 0.485082,-1.00081 0.972621,-1.60469 1.226347,-2.40666 1.787495,-3.69991 2.664193,-3.94362 4.611031,-1.47148 0.704,0.89395 1.513166,2.1932 2.129166,2.78538 2.334285,2.24399 2.920316,2.7248 3.088944,3.38591 0.09525,0.37344 0.360865,0.5978 0.79396,0.82959 0.990787,0.53024 3.473834,-0.1377 7.835162,-1.47889 1.628605,-0.50084 3.610934,-0.80353 4.226934,-0.92728 0.616,-0.12374 1.673334,-0.51757 2.553334,-0.9261 2.415078,-1.12116 3.118634,-0.77827 3.148426,0.5087 0.01424,0.616 -0.07171,1.55242 -0.241972,1.77537 -0.170259,0.22295 -0.267895,0.76607 -0.267895,1.46156 0,0.82729 -0.310371,1.72197 -0.700528,2.07506 -0.328,0.29684 -0.575531,0.66577 -0.575531,0.89625 0,0.65286 -1.690243,3.32845 -2.612377,4.24686 -3.06297,3.05058 -6.669967,5.33175 -10.241695,6.21604 -0.576989,0.14284 -1.120823,0.27311 -1.335834,0.44225 -1.053264,0.82857 -6.510356,1.80815 -9.317262,1.41408 z m 63.447111,-1.08625 c -0.968,-0.13604 -2.60017,-0.50101 -3.55504,-0.70302 -0.95487,-0.202 -2.03156,-0.4146 -2.57269,-0.47243 -2.8019,-0.29946 -4.33497,-0.644 -5.51846,-1.21 -0.71557,-0.34222 -1.27841,-0.68114 -1.57484,-0.68114 -0.60123,-0.45185 -1.12102,-0.46727 -1.93018,-0.82063 -0.94744,-0.2081 -1.54528,-0.88924 -2.50893,-2.44011 -0.33779,-0.89604 -0.9271,-1.26257 -1.20131,-2.01142 -0.57228,-0.74227 -1.2638,-2.01301 -1.44261,-2.4208 -0.69824,-1.59773 -1.00262,-3.25348 -1.06007,-4.8277 -0.0579,-2.21981 0.39601,-2.56869 0.91581,-2.04889 1.81565,1.81564 7.08776,3.84474 8.28132,3.16277 0.5611,-0.3206 3.98688,-3.76671 6.99145,-6.88812 1.15571,-1.20065 2.68924,-2.43106 2.90087,-2.31345 0.43299,0.24061 2.36615,2.52234 4.93123,5.09216 0.99594,0.99778 2.32038,1.77134 2.8712,2.04313 0.82459,0.40688 2.55524,2.4281 2.57053,3.05219 0.35556,0.73618 0.43996,0.63785 0.68481,1.07785 0.75983,1.36542 0.99779,4.00517 0.80533,5.34302 -0.2146,1.4918 -2.51756,3.86181 -3.82001,4.54214 -0.484,0.25281 -0.58537,0.86007 -0.58537,1.02536 0,0.35477 -1.29574,1.1782 -2.46977,1.49299 -0.94792,0.0221 -1.889,0.13205 -2.71327,0.006 z M 115.02684,146.21871 c -0.3444,-0.55726 0.0478,-0.67528 0.48674,-0.14644 0.2524,0.30412 1.48465,2.88895 1.27247,2.88895 -0.18716,0 -1.23071,-2.74251 -1.7592,-2.74251 z"
         id="shoes" />
      <path
         style="fill:#000000;stroke-width:0.32"
         d="m 61.574138,254.43286 c -1.766512,-0.80231 -3.569924,-2.70564 -4.57914,-4.83286 -0.723936,-1.5259 -0.829011,-2.14307 -0.789993,-4.64 0.02474,-1.584 0.259747,-3.6 0.522208,-4.48 0.826761,-2.77204 2.744921,-6.96974 4.059619,-8.88408 l 1.266448,-1.84408 -0.94664,-1.07817 c -1.29017,-1.46942 -1.256656,-2.72094 0.114416,-4.27275 0.583581,-0.6605 1.326838,-1.92092 1.65169,-2.80092 0.324848,-0.88 0.794396,-1.91555 1.043443,-2.30122 0.249043,-0.38567 0.645485,-1.46567 0.880973,-2.4 0.235491,-0.93433 1.003276,-3.23882 1.706192,-5.12109 0.702915,-1.88228 1.38112,-3.89828 1.507123,-4.48 0.126006,-0.58173 0.499193,-1.43992 0.829312,-1.90709 0.330115,-0.46717 0.600211,-1.2931 0.600211,-1.83541 0,-1.12658 0.450998,-3.13794 1.357824,-6.05563 0.609485,-1.96099 0.605027,-2.56159 -0.01616,-2.17768 -0.165498,0.10229 -0.920931,1.23271 -1.678736,2.51205 -1.796045,3.03211 -2.382682,3.66643 -4.287206,4.6357 -1.38185,0.70327 -1.88178,0.78719 -3.912781,0.65685 -2.704586,-0.17357 -3.581415,-0.67347 -7.344083,-4.18701 -1.713757,-1.60029 -2.636327,-2.78257 -3.467002,-4.44299 C 49.469341,193.25212 48.96,191.97245 48.96,191.65276 c 0,-1.6066 0.764022,-3.87784 1.608605,-4.78197 1.490806,-1.59592 1.458819,-1.95635 -0.292138,-3.29164 -1.586857,-1.21016 -1.913184,-1.76579 -2.597043,-4.42194 -0.407971,-1.58458 -0.214934,-2.30729 0.971501,-3.63721 0.615913,-0.6904 1.925488,-4.89461 2.491929,-8 0.58048,-3.18236 0.816887,-12.4544 0.403101,-15.80988 -0.306521,-2.48565 -0.766496,-3.99047 -2.64095,-8.64 -3.794157,-9.41128 -5.211178,-14.65335 -5.198231,-19.23012 0.0051,-1.78297 0.171092,-3.33725 0.401572,-3.75887 0.216131,-0.39539 0.541408,-1.52187 0.722835,-2.5033 0.608717,-3.29286 2.296694,-6.04814 5.828157,-9.51329 l 3.195462,-3.13546 -0.412752,-1.72055 c -0.638512,-2.66161 -0.28937,-4.255695 1.245718,-5.687608 1.220288,-1.138276 1.398391,-1.200922 3.41408,-1.200922 1.758864,0 2.094775,-0.08301 1.942432,-0.48 -0.327513,-0.853488 0.479984,-0.510608 1.695629,0.72 1.778042,1.799933 3.266317,2.977827 4.365568,3.45513 0.54201,0.23534 1.188445,0.67246 1.436522,0.97138 0.248077,0.29891 1.532614,1.06053 2.854525,1.69249 1.321913,0.63195 2.68263,1.4037 3.023817,1.715 0.341187,0.3113 0.750957,0.566 0.910602,0.566 0.159645,0 0.681273,0.27843 1.159177,0.61872 0.477908,0.3403 1.287296,0.72373 1.798647,0.85207 0.511353,0.12835 1.078569,0.35865 1.260483,0.51179 1.411491,1.18822 3.958894,2.53279 4.808968,2.81841 0.569936,0.19149 1.916418,1.14073 2.809596,1.45751 1.508173,0.5349 1.644697,0.46999 3.27428,0.43312 2.122142,-0.45643 3.737965,-0.0607 5.719329,-0.29162 0.673785,0 1.160451,-0.18332 1.274301,-0.48 0.101305,-0.264 0.459078,-0.48 0.795052,-0.48 0.335975,0 0.790125,-0.216 1.009226,-0.48 0.219101,-0.264 0.532634,-0.48 0.696739,-0.48 1.674991,-0.68577 1.803881,-1.05517 3.668231,-2.99334 2.80482,-2.45563 5.29445,-4.63587 7.13164,-6.875432 4.44478,-5.443646 8.02339,-7.548985 8.02339,-6.461641 0,0.181517 0.468,0.323767 1.04,0.316112 2.02929,-0.02717 2.11603,0.03895 2.81775,2.147635 0.50598,1.520468 0.82305,2.026666 1.26945,2.026666 0.32727,0 0.67709,0.132781 0.77739,0.295066 0.1003,0.162288 1.1528,0.613897 2.33889,1.003577 2.73772,0.899459 3.81609,1.443247 5.12766,2.585727 0.57812,0.5036 1.25294,0.91563 1.49959,0.91563 0.24666,0 1.35765,0.78897 2.46887,1.75326 2.0029,1.73808 3.7503,3.94047 5.08319,6.40674 0.38048,0.704 0.8883,1.50436 1.1285,1.77858 0.63514,0.72508 2.72937,5.11201 4.1157,8.62142 1.38249,3.4997 3.26993,11.8276 3.57238,15.76228 0.11371,1.47937 0.10354,3.65355 -0.0226,4.83151 -0.20966,1.9578 -0.39199,2.36108 -2.12306,4.69577 -1.33187,1.79629 -1.8937,2.84136 -1.8937,3.52251 0,2.06968 -0.91993,3.44238 -6.08,9.07244 -1.32,1.44022 -2.71068,2.97339 -3.09042,3.40704 -1.93898,2.2143 -7.73593,6.70502 -8.65844,6.70743 -0.21388,6.4e-4 -0.86188,0.41114 -1.44,0.91239 -1.93606,1.67863 -4.13619,3.24863 -4.55248,3.24863 -0.22678,0 -0.81071,-0.31337 -1.29763,-0.69637 -0.6966,-0.54795 -1.24577,-0.67968 -2.57656,-0.61804 -2.08223,0.0965 -3.32107,-0.49622 -5.21249,-2.49371 -1.70077,-1.79616 -2.074,-2.49607 -3.41477,-6.40378 -1.79276,-5.22509 -2.16534,-7.1518 -2.00859,-10.38702 0.17376,-3.58642 0.99625,-5.32108 2.52301,-5.32108 1.16861,0 1.24521,-0.84031 0.19467,-2.13545 -0.40354,-0.4975 -0.96213,-1.2689 -1.24129,-1.71422 -0.62869,-1.00287 -1.86499,-5.43152 -1.86499,-6.68075 0,-1.29641 1.73415,-2.74806 3.8163,-3.1946 0.89471,-0.19189 2.16606,-0.68921 2.82523,-1.10518 0.65916,-0.41597 1.55847,-0.86789 1.99847,-1.00427 0.44,-0.13638 1.376,-0.55671 2.08,-0.93407 2.08762,-1.119 6.03569,-2.54138 8.88705,-3.20175 1.05804,-0.24504 0.90972,-0.67709 -0.85611,-2.49385 -0.63301,-0.65127 -1.15094,-1.26327 -1.15094,-1.36 0,-0.38245 1.10282,-0.1458 1.65676,0.35551 0.79727,0.72152 0.94985,0.45571 0.5278,-0.91948 -0.61176,-1.99329 0.31604,-2.89146 1.03458,-1.00155 0.16481,0.43349 0.44495,0.69838 0.62252,0.58863 0.4537,-0.2804 0.59936,0.29323 0.77219,3.04103 0.22213,3.53165 1.43884,7.38121 2.77631,8.784 0.57797,0.6062 0.26266,1.39444 -1.10869,2.77157 -2.99557,3.0082 -6.82733,6.40335 -8.20147,7.26693 -0.792,0.49774 -2.0697,1.52938 -2.83933,2.29254 l -1.39932,1.38756 0.15626,2.18403 c 0.0859,1.20121 0.31163,2.37122 0.50151,2.60001 0.18988,0.22879 0.80313,1.5629 1.36278,2.96468 0.55965,1.40177 1.49618,3.26868 2.08118,4.14868 1.2663,1.90488 4.13096,4.96 4.65078,4.96 0.20253,0 1.10576,-0.42687 2.00719,-0.9486 1.45138,-0.84003 2.95333,-2.26256 10.51895,-9.96272 1.012,-1.03 1.84,-2.01718 1.84,-2.19375 0,-0.17656 0.75644,-1.08015 1.68098,-2.00797 0.92454,-0.92783 2.39642,-2.62296 3.27085,-3.76696 1.56486,-2.04729 1.59597,-2.13283 1.97835,-5.44 0.24336,-2.10484 0.2844,-3.83816 0.10986,-4.64 -0.15325,-0.704 -0.59072,-2.936 -0.97215,-4.96 -0.93154,-4.94299 -1.59641,-7.24497 -3.1828,-11.01988 -3.38833,-8.06274 -8.14243,-15.04556 -11.12185,-16.33579 -0.57022,-0.24693 -1.59903,-0.90082 -2.28625,-1.45308 -0.68721,-0.55226 -1.87667,-1.14469 -2.64324,-1.31651 -0.76656,-0.17182 -2.23377,-0.68898 -3.26045,-1.149249 -2.20955,-0.99056 -2.44083,-0.827117 -2.4484,1.730259 -0.005,1.81359 -1.55378,6.76505 -3.03469,9.70425 -0.48773,0.968 -1.78692,3.128 -2.88711,4.8 -2.30764,3.50705 -5.6031,8.92102 -5.6031,9.2051 0,0.10651 -0.27164,0.49093 -0.60365,0.85428 -0.33201,0.36334 -1.55009,2.10062 -2.70684,3.86062 -1.15675,1.76 -2.47632,3.704 -2.93239,4.32 -0.45606,0.616 -1.57799,2.14605 -2.49316,3.40012 -1.701797,2.33197 -3.804571,4.82883 -6.227826,7.39498 -1.528784,1.61894 -1.73175,2.17874 -1.539078,4.2449 0.07386,0.792 0.288362,4.248 0.476678,7.68 0.188317,3.432 0.602301,8.635 0.919965,11.56223 l 0.577571,5.32223 2.474836,2.72599 c 2.527224,2.78369 3.203074,3.64053 5.122594,6.49449 1.09867,1.63351 2.41882,2.51256 4.35479,2.89976 1.31484,0.26297 4.59376,-0.42491 6.5228,-1.36841 0.85046,-0.41596 1.83319,-0.75629 2.18384,-0.75629 0.35065,0 2.07119,-0.756 3.82341,-1.68 2.57196,-1.35627 3.50772,-2.0582 4.85616,-3.64268 0.91866,-1.07948 2.3543,-2.41714 3.1903,-2.97258 0.836,-0.55545 1.52,-1.16247 1.52,-1.34896 0,-0.18648 0.23878,-0.84224 0.53062,-1.45725 0.34293,-0.72267 0.41532,-1.19253 0.20465,-1.32836 -0.81699,-0.52676 -2.13224,-3.88444 -1.4012,-3.60932 0.33136,0.12471 2.90593,3.46714 2.90593,3.77104 0,0.1135 -0.35695,0.96088 -0.79322,1.88308 -0.72279,1.52787 -2.37765,3.34503 -3.04626,3.34503 -0.1487,0 -0.67765,0.6632 -1.17544,1.47377 -0.4978,0.81057 -1.31552,1.92657 -1.81716,2.48 l -0.91208,1.00623 0.15858,8.64 c 0.13636,7.42931 0.27391,9.27853 0.98164,13.19684 0.8307,4.59913 2.01292,9.79211 3.53489,15.52716 0.45598,1.7182 0.82836,3.8062 0.82752,4.64 -0.002,1.64862 -0.66083,2.56151 -3.47609,4.81407 -0.72731,0.58194 -1.32238,1.19996 -1.32238,1.37337 0,0.5702 6.23583,6.54292 7.28476,6.9774 1.84773,0.76535 4.23524,5.66746 4.23524,8.69591 0,2.22305 -0.86324,3.71998 -3.42346,5.93658 -1.19344,1.03327 -2.35131,2.0483 -2.57303,2.25562 -0.69168,0.64677 -3.63266,0.84191 -4.88351,0.32404 -0.616,-0.25504 -1.984,-0.56142 -3.04,-0.68084 -3.63531,-0.41112 -6.72657,-1.16876 -9.44,-2.31364 -2.96309,-1.25023 -3.96845,-1.99489 -4.68015,-3.46651 -0.25535,-0.528 -1.09443,-2.01689 -1.86461,-3.30864 -1.4939,-2.50556 -2.6198,-6.23275 -2.28534,-7.56535 0.15571,-0.62039 -0.011,-0.98023 -0.76542,-1.65245 L 102.72,234.13421 v -3.91258 c 0,-2.87701 -0.25564,-5.42511 -0.96583,-9.62711 -0.53121,-3.14299 -1.03309,-5.93052 -1.11529,-6.19452 -0.0822,-0.264 -0.642362,-3.216 -1.244787,-6.56 -1.66737,-9.2554 -2.975827,-13.81798 -4.908477,-17.1158 l -0.84537,-1.44251 -0.26318,1.11915 c -0.144749,0.61554 -0.396509,1.62316 -0.559469,2.23916 -1.154275,4.36327 -1.331738,6.52644 -1.590211,19.3837 -0.218343,10.86099 -0.352388,13.3353 -0.785335,14.49653 -0.287126,0.77013 -0.52376,1.92213 -0.525849,2.56 -0.0022,0.63788 -0.234496,1.95177 -0.516458,2.91977 -0.281965,0.968 -0.629949,3.10762 -0.773302,4.75471 -0.227607,2.61515 -0.435911,3.34302 -1.64354,5.74297 -2.073574,4.12086 -6.001747,7.8826 -9.862902,9.44502 -4.320474,1.74828 -6.988618,2.49973 -9.871859,2.78029 -4.0968,0.39865 -4.165139,0.39515 -5.674003,-0.29013 z m 7.175782,-0.468 c 1.857504,-0.25981 3.037779,-0.57196 3.481008,-0.92064 0.215011,-0.16914 0.863011,-0.42441 1.44,-0.56725 3.571728,-0.88429 7.137059,-2.99879 10.200029,-6.04937 0.922134,-0.91841 2.529043,-3.6565 2.529043,-4.30936 0,-0.23048 0.268365,-0.66191 0.596365,-0.95875 0.390157,-0.35309 0.596361,-0.97694 0.596361,-1.80423 0,-0.69549 0.139303,-1.44694 0.309562,-1.66989 0.170259,-0.22295 0.297894,-0.90937 0.283638,-1.52537 -0.02979,-1.28697 -0.170848,-1.29653 -2.585926,-0.17537 -0.88,0.40853 -2.104,0.84403 -2.72,0.96777 -0.616,0.12375 -2.452496,0.63477 -4.081101,1.13561 -4.361328,1.34123 -7.531875,1.82163 -8.522662,1.29139 -0.433095,-0.23179 -0.865376,-0.72698 -0.960627,-1.10042 -0.168628,-0.66111 -0.421325,-0.95442 -2.75561,-3.19841 -0.616,-0.59218 -1.696,-1.8081 -2.4,-2.70205 -1.946838,-2.47214 -1.927702,-2.47843 -3.715197,1.22148 -0.382627,0.792 -0.783238,1.512 -0.890246,1.6 -0.107005,0.088 -0.239501,0.376 -0.294435,0.64 -0.05494,0.264 -0.53344,1.37694 -1.063344,2.47321 -1.465792,3.03241 -2.079956,8.79745 -1.088077,10.21355 0.257789,0.36804 0.377789,0.76008 0.266669,0.8712 -0.11112,0.11112 -0.03404,0.20204 0.171296,0.20204 0.205334,0 0.337334,0.1202 0.293334,0.2671 -0.11552,0.38569 2.346125,3.0716 3.284467,3.58369 1.37857,0.75234 4.444336,0.95902 7.625453,0.51407 z m 62.08548,-1.46099 c 0.37653,-0.20151 0.6846,-0.50162 0.6846,-0.66691 0,-0.16529 0.396,-0.50738 0.88,-0.76019 1.30245,-0.68033 3.16347,-3.34497 3.37807,-4.83677 0.19246,-1.33785 -0.2812,-3.59458 -1.04103,-4.96 -0.24485,-0.44 -0.44695,-0.872 -0.44911,-0.96 -0.0153,-0.62409 -1.42185,-2.35068 -2.24644,-2.75756 -0.55082,-0.27179 -1.81634,-1.31052 -2.81228,-2.3083 -2.56508,-2.56982 -4.5277,-4.40961 -4.96069,-4.65022 -0.21163,-0.11761 -1.24429,0.70033 -2.4,1.90098 -3.00457,3.12141 -6.66605,6.6559 -7.22715,6.9765 -1.19356,0.68197 -6.77503,-1.42078 -8.59068,-3.23642 -0.51979,-0.5198 -0.54653,-0.42136 -0.4886,1.79845 0.0428,1.64112 0.5668,3.77013 0.99263,4.03331 0.16353,0.10106 0.20715,0.41877 0.0969,0.706 -0.13396,0.3491 -0.0763,0.44554 0.17398,0.29087 0.33526,-0.2072 0.51906,0.17012 0.41227,0.84639 -0.0208,0.132 0.0996,0.24 0.26761,0.24 0.16802,0 0.39982,0.50274 0.51509,1.1172 0.11527,0.61446 0.33147,1.04187 0.48044,0.9498 0.14897,-0.0921 0.51976,0.2332 0.82399,0.7228 0.96365,1.55087 1.76773,2.29093 2.71517,2.49903 0.50589,0.11111 0.91981,0.33458 0.91981,0.4966 0,0.16201 0.24253,0.29457 0.53897,0.29457 0.29643,0 1.12443,0.28 1.84,0.62222 1.18349,0.566 2.36301,0.82215 5.16491,1.12161 0.54113,0.0578 1.76513,0.27043 2.72,0.47243 4.42301,0.9357 5.93444,0.94515 7.61152,0.0476 z M 76.96,237.63525 c 6.534685,-1.79113 7.517139,-2.10302 9.01391,-2.86149 0.861088,-0.43635 1.729354,-1.13095 1.929476,-1.54356 0.663638,-1.36829 1.056614,-2.91056 1.056614,-4.14677 0,-0.67158 0.203338,-1.8381 0.451866,-2.59225 0.675568,-2.05002 0.83086,-4.75551 0.976352,-17.00989 0.07344,-6.18559 0.283731,-11.81888 0.471856,-12.64 0.186656,-0.81471 0.67374,-3.13729 1.082409,-5.16129 0.702519,-3.47932 0.785424,-3.68 1.520279,-3.68 0.631075,0 1.02687,0.43998 2.104675,2.33962 2.027197,3.57296 2.966297,6.9226 4.906373,17.50038 0.1614,0.88 0.73042,3.976 1.26449,6.88 1.68773,9.17699 1.98474,11.26414 2.12495,14.93229 0.0752,1.96778 0.15475,3.66102 0.17675,3.76275 0.022,0.10173 0.058,0.35302 0.08,0.55844 0.022,0.20541 0.37723,0.39832 0.7894,0.42869 0.41217,0.0304 0.84417,0.18712 0.96,0.34834 0.33085,0.46051 2.33888,1.89514 3.5706,2.55101 1.46929,0.78237 3.75946,1.37963 4.52378,1.17975 0.33443,-0.0875 1.91005,-1.47352 3.50137,-3.08014 1.59132,-1.60662 3.12462,-3.13713 3.40734,-3.40113 0.28271,-0.264 1.66211,-1.65884 3.06532,-3.09963 1.40321,-1.4408 2.95623,-2.78736 3.45114,-2.99236 2.10364,-0.87135 2.1242,-1.75681 0.20036,-8.62801 -3.05231,-10.90167 -4.01685,-17.17065 -4.29574,-27.92 -0.10388,-4.004 -0.26315,-7.28 -0.35393,-7.28 -0.0908,0 -1.21454,0.576 -2.49727,1.28 -1.28272,0.704 -2.64209,1.28 -3.02082,1.28 -0.37873,0 -1.42441,0.36957 -2.32373,0.82128 -2.55965,1.28564 -5.96255,1.88169 -7.99687,1.40072 -1.93029,-0.45636 -3.71905,-1.74912 -4.75182,-3.43418 -0.40041,-0.6533 -1.05676,-1.54635 -1.45857,-1.98455 -0.40181,-0.4382 -0.73056,-0.90034 -0.73056,-1.02697 0,-0.12663 -1.127424,-1.40401 -2.505389,-2.83861 l -2.505389,-2.60838 -0.694611,1.61466 c -0.382035,0.88807 -0.697513,1.94798 -0.701059,2.35535 -0.0096,1.10353 -3.178762,5.85569 -4.50449,6.7545 -1.280761,0.86832 -4.044566,1.12106 -6.030585,0.55148 -0.602848,-0.1729 -1.144,-0.26644 -1.202557,-0.20789 -0.05856,0.0586 -0.242323,3.6921 -0.408365,8.07453 -0.191472,5.05366 -0.477981,8.67032 -0.783325,9.88806 -0.264787,1.056 -0.486563,2.51195 -0.492832,3.23544 -0.0063,0.72349 -0.295516,2.73949 -0.642771,4.48 -0.347254,1.74051 -0.854761,4.96456 -1.127795,7.16456 -0.707251,5.69882 -0.831402,6.38112 -1.202858,6.61069 -0.218908,0.1353 -0.249753,-0.10998 -0.09091,-0.72296 0.362503,-1.39895 0.806586,-4.77934 1.004682,-7.64773 0.09724,-1.408 0.453878,-3.73751 0.792528,-5.1767 0.338653,-1.43918 0.615731,-3.26581 0.615731,-4.05917 0,-0.79336 0.129632,-1.78343 0.288074,-2.20016 0.490547,-1.29024 1.329433,-9.23585 1.242025,-11.76397 -0.04564,-1.32 0.02451,-3.7295 0.155911,-5.35444 l 0.238889,-2.95444 -1.214573,-0.72556 c -0.668012,-0.39906 -1.497116,-0.90413 -1.842448,-1.12237 -1.354102,-0.85579 -5.131616,-2.64321 -5.586764,-2.64352 -0.415002,-2.8e-4 -0.467216,0.8462 -0.379988,6.16 0.07564,4.60764 -0.01872,6.68459 -0.374361,8.24033 -0.440275,1.92597 -1.437232,6.41022 -2.098743,9.44 -0.243552,1.1155 -1.28094,4.0189 -3.544422,9.92 -0.337542,0.88 -0.714038,2.032 -0.836662,2.56 -0.122624,0.528 -0.607975,1.824 -1.078557,2.88 -0.470579,1.056 -1.034618,2.36909 -1.253411,2.91799 -0.218797,0.54889 -0.892173,1.47714 -1.496391,2.06277 -0.604217,0.58563 -1.098579,1.20095 -1.098579,1.36737 0,0.16642 0.396,0.68539 0.88,1.15327 0.484,0.46787 1.888,2.16507 3.12,3.77154 1.232,1.60647 2.56321,3.07181 2.958243,3.2563 0.395037,0.18449 1.170723,1.07081 1.723754,1.9696 1.499529,2.43704 1.546637,2.44219 7.478003,0.81641 z m 36,-11.10204 c 0,-0.0734 -0.21896,-1.1414 -0.48657,-2.37333 -0.93882,-4.32178 -1.39248,-10.33567 -1.58111,-20.95988 -0.16417,-9.24685 -0.12308,-10.85192 0.29903,-11.68 l 0.48935,-0.96 -0.19363,1.28 c -0.32659,2.15894 -0.19274,19.58792 0.18432,24 0.19553,2.288 0.63887,5.58659 0.9852,7.3302 0.34632,1.74361 0.55626,3.24361 0.46654,3.33334 -0.0897,0.0897 -0.16313,0.10307 -0.16313,0.0297 z M 64.200922,202.05094 c 1.228217,-0.5046 3.319078,-2.24726 3.319078,-2.76634 0,-0.14841 0.504,-1.01824 1.12,-1.93295 0.616,-0.91471 1.12,-1.91703 1.12,-2.22738 0,-0.37932 0.247053,-0.56427 0.753728,-0.56427 0.697043,0 0.769066,-0.16244 0.957725,-2.16 0.112198,-1.188 0.205021,-3.49707 0.206272,-5.13126 0.0022,-2.90579 -0.01232,-2.96345 -0.660055,-2.61679 -0.364281,0.19496 -1.83582,1.50919 -3.270089,2.92051 -2.617207,2.57534 -4.430317,3.78754 -5.665111,3.78754 -1.145622,0 -2.634214,-0.8027 -5.405772,-2.91498 -1.475818,-1.12476 -3.095354,-2.31001 -3.59897,-2.63387 -0.889158,-0.57181 -0.922154,-0.57181 -1.139686,0 -0.12321,0.32386 -0.530868,0.83179 -0.905901,1.12871 -0.475111,0.37616 -0.810848,1.22334 -1.107171,2.7938 l -0.425287,2.25394 0.983539,1.8462 c 1.16129,2.17986 3.398205,4.9138 4.636941,5.66723 0.48409,0.29444 1.334263,0.9501 1.889271,1.45702 1.689267,1.54291 4.906179,2.03178 7.191488,1.09289 z m -0.708608,-12.09875 c 0.589468,-0.2463 2.132844,-1.52117 3.429724,-2.83306 1.296877,-1.31189 2.694154,-2.56197 3.105053,-2.77795 0.410899,-0.21598 0.944061,-0.86411 1.1848,-1.44028 0.677911,-1.62247 0.218717,-2.72934 -1.628969,-3.92658 -1.883764,-1.22062 -5.403223,-4.16886 -7.370583,-6.17432 -1.713901,-1.74709 -2.103513,-3.18721 -1.25152,-4.62596 1.657795,-2.79953 4.311616,-8.80074 4.322211,-9.77404 0.0029,-0.264 0.29482,-1.40391 0.648762,-2.53314 1.486595,-4.74282 2.098602,-12.70673 1.293107,-16.82686 -0.652096,-3.33548 -3.055248,-8.68839 -4.362089,-9.71635 -1.104272,-0.86862 -0.869853,-1.69716 0.385209,-1.36151 0.668775,0.17886 1.181469,0.7803 2.094768,2.45734 2.177581,3.99858 3.133203,7.11803 3.621133,11.82052 0.216694,2.08842 -0.518509,8.66322 -1.323965,11.84 -0.267744,1.056 -0.681993,2.7639 -0.920553,3.79533 -0.582663,2.51917 -1.53273,4.87515 -3.451162,8.55821 -1.193872,2.29202 -1.549379,3.27898 -1.398154,3.88152 0.246919,0.98379 5.939322,6.29576 7.729914,7.2133 0.704,0.36075 1.579069,0.93883 1.944598,1.28463 0.365533,0.34579 0.98826,0.73144 1.383844,0.85699 1.286486,0.40832 5.132083,2.40197 7.327145,3.79858 3.166208,2.0145 3.918589,2.2523 6.399091,2.0225 1.918733,-0.17775 2.237357,-0.30924 3.016714,-1.2449 0.479264,-0.57539 0.877885,-1.19016 0.885824,-1.36616 0.0079,-0.176 0.440397,-0.94859 0.961021,-1.71686 0.520627,-0.76827 1.033721,-1.92027 1.140214,-2.56 0.10649,-0.63973 0.563165,-2.06234 1.014829,-3.16135 0.764742,-1.8608 0.80657,-2.22471 0.608269,-5.29194 -0.11712,-1.81155 -0.347008,-4.11743 -0.510861,-5.12419 -0.163856,-1.00675 -0.389075,-4.38538 -0.50049,-7.50806 -0.111417,-3.12268 -0.345286,-6.5416 -0.519712,-7.5976 -0.568438,-3.44146 -1.110873,-4.07466 -8.691814,-10.14619 -4.968989,-3.97962 -9.177248,-8.11028 -15.418144,-15.13381 -1.407494,-1.584 -3.427962,-3.816 -4.489933,-4.96 -3.286317,-3.54017 -5.846803,-6.87252 -7.770371,-10.11278 -1.099805,-1.85262 -2.077392,-3.14395 -2.417933,-3.19393 -0.329296,-0.0483 -1.069981,0.45689 -1.746982,1.19162 -0.646419,0.70154 -1.868541,1.99094 -2.715824,2.86533 -0.847283,0.87439 -1.753738,2.12529 -2.014346,2.77978 -0.260605,0.65449 -0.597174,1.47798 -0.747929,1.82998 -0.150756,0.352 -0.737706,2.152 -1.304333,4 -0.896832,2.92493 -1.007952,3.67076 -0.858183,5.76 0.301876,4.21114 2.27953,10.99235 5.272797,18.08 2.627207,6.22086 2.752599,6.91644 2.768919,15.36 0.01283,6.64035 -0.05945,7.67289 -0.739287,10.56 -0.414435,1.76 -0.856438,3.7151 -0.982233,4.34466 -0.260656,1.30452 -0.423412,1.61397 -1.682064,3.19812 -0.883927,1.11252 -0.897588,1.18776 -0.515831,2.84162 0.324381,1.4053 0.698922,1.9933 2.167571,3.40289 0.97649,0.93723 2.234436,2.0345 2.79544,2.43838 0.561002,0.40388 2.201488,1.64655 3.645524,2.76148 3.580675,2.76463 4.217996,2.98765 6.186784,2.16504 z M 123.9171,170.45631 c 1.14316,-0.93703 2.56547,-1.9002 3.16069,-2.14038 1.39398,-0.56248 2.88783,-1.64557 5.08221,-3.68477 0.968,-0.89955 1.976,-1.76956 2.24,-1.93335 0.264,-0.1638 1.00103,-0.94581 1.63784,-1.73781 0.63681,-0.792 1.76196,-2.016 2.50033,-2.72 0.73837,-0.704 1.93021,-2.108 2.64853,-3.12 0.71832,-1.012 1.4241,-1.84 1.56841,-1.84 0.35776,0 0.97565,-1.20624 1.25709,-2.45407 l 0.2321,-1.02912 -0.94258,0.69688 c -0.51841,0.38328 -1.25177,1.20299 -1.62967,1.82159 -0.93849,1.53623 -9.86596,10.34906 -12.21608,12.05919 -1.04721,0.76204 -2.23228,1.38553 -2.63349,1.38553 -0.52622,0 -0.90752,0.34901 -1.36851,1.25261 -0.46763,0.91663 -1.28478,1.65509 -3.0465,2.75312 -2.35079,1.46519 -2.63118,1.74389 -2.19414,2.18094 0.56373,0.56372 1.80927,0.0625 3.70377,-1.49036 z m -5.41958,0.27385 c 1.79593,-0.30347 5.39915,-2.74652 6.04341,-4.09756 0.59824,-1.25452 0.62696,-1.19637 -2.17713,-4.40789 -2.17854,-2.49507 -5.49133,-9.87726 -5.68524,-12.66889 -0.12792,-1.84172 -0.12648,-1.84514 1.5167,-3.58355 0.90461,-0.95704 2.40074,-2.22874 3.32474,-2.826 0.924,-0.59727 1.68,-1.14616 1.68,-1.21977 0,-0.0736 -0.51587,0.0817 -1.14637,0.34514 -1.6468,0.68808 -10.51959,2.35396 -11.36295,2.13341 -0.53336,-0.13948 -0.64579,-0.0807 -0.45046,0.23531 0.3888,0.62909 1.0957,4.14888 1.10854,5.51964 0.0113,1.20782 0.3675,1.47145 1.24049,0.91813 0.31785,-0.20145 0.4009,-0.95749 0.32,-2.91319 -0.0894,-2.16121 -0.0154,-2.7016 0.40726,-2.97396 0.30318,-0.19537 0.76575,-0.22246 1.12,-0.0656 0.56018,0.24806 0.9352,1.04329 0.34016,0.71728 -1.15347,-0.63198 -1.17667,-0.051 -1.17667,2.59561 0,3.16738 -0.21533,3.56174 -1.94482,3.56174 -1.45485,0 -1.99037,-0.59868 -2.09801,-2.34544 -0.0452,-0.73401 -0.0901,-1.46488 -0.0997,-1.62416 -0.0394,-0.6534 -1.22578,0.86845 -1.56836,2.01188 -0.51333,1.71335 -0.46104,5.58358 0.10173,7.5296 0.25897,0.89546 0.78217,2.70812 1.16268,4.02812 1.17843,4.08803 2.26368,6.13794 4.07779,7.7025 1.6426,1.41665 2.66482,1.91222 3.56869,1.7301 0.264,-0.0532 1.02788,-0.18929 1.69752,-0.30244 z M 91.228451,143.50351 C 90.684803,142.88433 90.24,142.25977 90.24,142.11559 c 0,-0.14417 -0.324,-0.61533 -0.72,-1.04702 -2.269216,-2.47371 -2.800381,-3.23872 -2.804893,-4.03971 -0.0026,-0.47787 -0.509997,-1.58886 -1.127341,-2.46886 -0.617347,-0.88 -1.603587,-2.32 -2.191641,-3.2 -0.588058,-0.88 -1.463184,-1.96 -1.944727,-2.4 -0.768633,-0.70232 -3.147552,-4.09614 -4.149667,-5.92 -0.193405,-0.352 -1.410947,-2.20933 -2.705651,-4.12741 -1.294707,-1.91807 -2.634765,-4.1221 -2.977907,-4.89783 -0.343146,-0.77574 -1.027885,-2.0144 -1.521648,-2.75259 -0.49376,-0.7382 -1.43497,-2.42217 -2.091578,-3.74217 -0.656605,-1.32 -1.330406,-2.66298 -1.497334,-2.98439 -0.166928,-0.32142 -0.589213,-1.50942 -0.938416,-2.64 -0.3492,-1.13059 -0.76152,-2.05561 -0.916266,-2.05561 -0.154745,0 -1.082035,-0.731776 -2.06064,-1.626166 l -1.779286,-1.626167 -2.166503,0.230839 c -1.946953,0.207446 -2.291888,0.35599 -3.403801,1.46582 -1.219187,1.2169 -1.235399,1.26489 -1.107216,3.277954 0.107229,1.684 0.42192,2.61454 1.790896,5.29569 0.913443,1.78899 2.491689,4.33152 3.507213,5.65007 1.015523,1.31854 2.240038,2.91378 2.721142,3.54497 0.481104,0.63119 1.777104,2.11085 2.88,3.28813 1.102896,1.17728 3.08217,3.35514 4.39839,4.83968 4.277869,4.82496 7.640778,8.26479 12.166874,12.44517 1.079101,0.99668 3.53009,2.96452 5.439718,4.36741 0.504154,0.37038 1.823805,1.49434 2.93256,2.49771 2.122461,1.92072 2.938772,1.92878 1.256173,0.0124 z m 4.564039,-0.71912 c 0.420934,-0.57054 1.475347,-1.80021 2.343142,-2.7326 0.867792,-0.93239 1.925538,-2.18947 2.350558,-2.79352 0.42501,-0.60405 0.92149,-1.27385 1.10328,-1.48844 0.43689,-0.51572 2.05873,-2.88611 4.00251,-5.84983 0.86574,-1.32 2.29085,-3.44742 3.16691,-4.72761 0.87607,-1.28018 1.63971,-2.4474 1.69698,-2.59382 0.20212,-0.51674 2.36866,-3.97833 4.38543,-7.00682 3.83272,-5.75542 5.81507,-10.84428 5.96706,-15.318 0.11567,-3.40439 -0.37861,-5.337878 -1.4046,-5.494438 -0.96728,-0.147603 -2.65489,0.754538 -3.94938,2.111203 -1.15259,1.207959 -2.56345,4.751135 -3.46803,8.709485 -0.22121,0.968 -0.58279,2.048 -0.80352,2.4 -0.22073,0.352 -0.49723,1.288 -0.61445,2.08 -0.25878,1.74854 -0.70717,3.25947 -1.47195,4.96 -0.31662,0.704 -0.79794,1.784 -1.06961,2.4 -0.27167,0.616 -0.674,1.408 -0.89406,1.76 -0.22006,0.352 -0.82973,1.36 -1.35481,2.24 -0.52509,0.88 -2.01189,2.9386 -3.30399,4.57468 -1.29211,1.63607 -2.638411,3.64918 -2.99179,4.47357 -0.353376,0.8244 -0.808157,1.60129 -1.010624,1.72642 -0.267879,0.16555 -0.220644,0.53676 0.173465,1.36322 0.415005,0.87028 0.465831,1.33495 0.217459,1.98822 -0.39166,1.03015 -2.457929,4.50439 -3.207958,5.39389 -0.65249,0.77382 -1.574512,2.55403 -1.574512,3.04001 0,0.55191 0.857571,-0.0568 1.71249,-1.21562 z m 18.58707,0.43574 c 1.06724,-0.25292 3.0835,-0.68116 4.48057,-0.95163 2.40624,-0.46584 4.7815,-1.6047 7.18303,-3.444 0.5997,-0.45932 0.6477,-0.5845 0.2241,-0.5845 -0.29647,0 -0.96389,-0.2197 -1.48315,-0.48822 -1.13214,-0.58545 -1.21037,-1.40542 -0.27801,-2.91401 0.70812,-1.14576 1.47643,-1.34231 2.99307,-0.76569 0.67676,0.2573 0.82083,0.51967 0.82083,1.4948 0,0.6724 -0.24163,1.45532 -0.56,1.81449 -0.54162,0.61102 -0.5375,0.61996 0.12548,0.27241 0.8093,-0.42426 2.35452,-2.1917 2.35452,-2.69313 0,-0.19264 -0.20126,-0.57759 -0.44724,-0.85545 -0.24598,-0.27786 -0.84923,-1.6572 -1.34056,-3.0652 -0.9709,-2.78235 -1.24373,-3.13699 -2.2122,-2.87557 -0.352,0.095 -1.38955,0.31899 -2.30566,0.49773 -1.73776,0.33904 -3.83884,1.21168 -9.21434,3.82697 -1.76,0.85628 -3.7932,1.70901 -4.51822,1.89496 -1.77649,0.45561 -3.00178,1.46379 -3.00178,2.46988 0,1.79995 1.58628,6.31748 2.3228,6.61503 0.77926,0.31483 2.94689,0.20375 4.85676,-0.24887 z M 94.273142,141.04 c 0.68426,-1.1 1.419892,-2.33114 1.634736,-2.73587 0.214848,-0.40472 0.683466,-1.10814 1.041376,-1.56315 0.871268,-1.10764 0.820141,-2.59561 -0.153644,-4.47145 L 95.991219,130.72 h -2.534573 -2.534572 l -0.501037,1.05086 c -0.275571,0.57797 -0.501655,1.22597 -0.502407,1.44 -6.4e-4,0.21403 -0.432137,1.03714 -0.95863,1.82914 -0.526493,0.792 -0.957875,1.76248 -0.95863,2.15661 -6.4e-4,0.41124 0.672499,1.46072 1.579977,2.46279 0.869741,0.9604 1.822301,2.11392 2.116803,2.56339 0.2945,0.44947 0.714426,0.81721 0.933168,0.81721 0.218743,0 0.957562,-0.9 1.641824,-2 z M 126.976,136.896 c 0.2112,-0.2112 0.384,-0.77159 0.384,-1.24531 0,-1.33112 -1.36981,-1.54753 -2.3982,-0.37887 -0.99395,1.12952 -0.98835,1.24671 0.0782,1.63625 1.19694,0.43716 1.48859,0.43534 1.936,-0.0121 z m -38.680234,-2.93364 c 0.540503,-0.94471 1.185754,-2.29306 1.433885,-2.99635 0.424938,-1.20439 0.405002,-1.36027 -0.343037,-2.68236 -0.436803,-0.77201 -1.05464,-1.69165 -1.372969,-2.04365 -0.31833,-0.352 -0.832941,-1.144 -1.143578,-1.76 -0.310637,-0.616 -0.808877,-1.336 -1.1072,-1.6 -0.29832,-0.264 -0.726557,-0.82733 -0.951635,-1.25184 -0.392016,-0.73936 -0.43935,-0.67876 -1.124877,1.44 -0.866585,2.67837 -1.458544,3.97184 -1.817721,3.97184 -0.652599,0 -0.146253,1.2099 1.389782,3.32086 2.614099,3.59253 3.907274,5.31914 3.983856,5.31914 0.03892,0 0.512989,-0.77294 1.053494,-1.71764 z m 10.279991,-3.91912 c 0.348157,-0.81222 0.91904,-1.87845 1.268627,-2.3694 0.649826,-0.91259 0.769886,-2.44946 0.336996,-4.31384 -0.221991,-0.95606 -0.223898,-0.95453 -0.465694,0.37292 -0.133532,0.7331 -0.860486,2.33478 -1.615446,3.55929 -1.300544,2.10942 -1.350554,2.27896 -0.951898,3.22709 0.231418,0.55039 0.504832,1.0007 0.607581,1.0007 0.102752,0 0.471677,-0.66454 0.819834,-1.47676 z m -2.746423,-0.93391 C 96.4512,128.48747 96.96,127.82986 96.96,127.64798 c 0,-0.18187 0.343789,-0.78907 0.763974,-1.34933 1.254794,-1.67309 1.908317,-7.65036 1.045258,-9.56016 -0.263091,-0.58217 -0.571498,-1.38249 -0.68535,-1.77849 -0.399108,-1.38814 -4.205744,-0.88557 -9.443882,1.24684 -1.32,0.53736 -2.724,1.10356 -3.12,1.25823 -1.262605,0.49313 -0.836765,2.24369 1.292845,5.31467 0.388934,0.56086 1.571155,2.39187 2.627155,4.06891 2.00513,3.18435 2.138102,3.29395 4.069334,3.35423 0.961207,0.03 1.406208,-0.17975 2.32,-1.09355 z M 83.209533,122.1348 c 0.346755,-1.05628 0.630467,-2.54472 0.630467,-3.30765 0,-0.91653 0.198285,-1.58543 0.584445,-1.97159 1.168608,-1.16861 1.072781,-1.55856 -0.597639,-2.432 C 82.960541,113.9706 82.065302,113.6 81.837386,113.6 c -0.957812,0 -5.927744,-3.84433 -13.169066,-10.18652 -1.040422,-0.91123 -1.946086,-1.60238 -2.012586,-1.53588 -0.274585,0.27459 1.535751,4.39697 3.110221,7.0824 0.928701,1.584 2.121741,3.672 2.651197,4.64 1.280045,2.34029 3.642125,6.00506 5.792538,8.98712 0.962627,1.33492 1.998435,2.94761 2.301788,3.58375 l 0.551559,1.15662 0.758013,-1.63609 c 0.416908,-0.89985 1.041724,-2.50032 1.388483,-3.5566 z m 20.887097,0.15378 c 2.70043,-4.12621 4.776,-8.75971 5.35554,-11.95571 0.19804,-1.09213 0.55603,-2.36463 0.79554,-2.82778 0.2395,-0.46315 0.74921,-2.12527 1.13269,-3.69359 0.38348,-1.56833 0.90638,-3.26088 1.16201,-3.76124 0.82219,-1.6093 0.24984,-1.227975 -1.68962,1.12572 -1.04103,1.26338 -2.51895,2.88362 -3.28426,3.60054 -0.76531,0.71691 -1.7217,1.95148 -2.12532,2.74348 -0.40361,0.792 -1.99149,2.73466 -3.52861,4.31703 l -2.79477,2.87702 0.510471,1.60298 c 0.280758,0.88163 0.591389,2.39497 0.690289,3.36297 0.0989,0.968 0.33429,2.65345 0.52309,3.74544 l 0.34329,1.98543 0.75829,-0.49685 c 0.41707,-0.27327 1.38518,-1.45472 2.15137,-2.62544 z m -7.57022,44.68973 c -1.484864,-1.79235 -0.797453,-4.04405 1.439164,-4.71416 2.067396,-0.6194 3.421236,0.74704 3.049936,3.07835 -0.40717,2.55659 -2.956646,3.48561 -4.4891,1.63581 z m 3.015641,-0.55113 c 0.787779,-0.78778 0.900519,-1.09875 0.725069,-2 -0.11427,-0.58695 -0.365114,-1.17298 -0.55744,-1.30228 -1.30168,-0.87516 -3.654291,0.61803 -3.226563,2.04787 0.359779,1.20272 1.092963,2.18723 1.628877,2.18723 0.273478,0 0.917004,-0.41977 1.430057,-0.93282 z M 96.121971,154.96 c -0.115619,-0.484 -0.350685,-1.05842 -0.522365,-1.27649 -0.512425,-0.65089 0.03391,-2.5605 0.935447,-3.26964 1.261094,-0.99198 2.791814,-0.8639 3.622817,0.30314 0.75302,1.05751 0.86571,1.66586 0.54281,2.93011 -0.25914,1.01457 -2.103736,2.19288 -3.432875,2.19288 -0.756371,0 -0.975885,-0.16859 -1.145834,-0.88 z M 99.44,154.37095 c 0.56514,-0.36554 0.72,-0.76541 0.72,-1.85915 0,-1.57619 -0.407898,-2.05957 -1.829395,-2.16788 -1.475747,-0.11245 -1.988579,0.48312 -1.852627,2.15151 0.193542,2.37516 0.419478,2.789 1.392192,2.55002 0.467408,-0.11484 1.17383,-0.41836 1.56983,-0.6745 z"
         id="outline" />
    </g>
  </g>
</svg>
