<?xml version="1.0" encoding="UTF-8" standalone="no"?>
<!-- Created with Inkscape (http://www.inkscape.org/) -->

<svg
   version="1.1"
   id="svg203"
   width="192"
   height="288"
   viewBox="0 0 192 288"
   xml:space="preserve"
   xmlns="http://www.w3.org/2000/svg"
   xmlns:svg="http://www.w3.org/2000/svg"><defs
     id="defs207" /><g
     id="g209"><g
       id="g213"
       transform="translate(6.8584917,-10.735657)"><path
         style="fill:#f0ece1;stroke-width:0.32"
         d="m 64.260614,235.93886 c -2.196878,-1.09192 -3.342779,-1.57297 -4.687824,-2.7013 -1.306628,-0.78492 -1.564583,-1.0457 -2.532583,-1.55316 -1.355238,-1.01247 -2.895054,-1.88192 -4.185372,-2.76452 -2.057158,-2.50579 -3.329894,-4.32378 -4.366887,-6.51183 -1.069586,-4.66265 -1.70054,-10.19372 -0.79901,-14.89012 0.810986,-2.10112 0.822251,-4.18359 1.549732,-6.06731 0.200969,-1.01543 1.637402,-4.71671 2.001616,-5.41464 0.818092,-2.30473 1.835307,-4.18145 2.983205,-5.76338 1.745412,-2.70249 1.844757,-1.55008 2.241333,-1.00773 1.466453,1.47433 2.353981,3.94178 3.067132,4.69525 -0.43143,-1.76829 -0.964701,-2.96825 -1.797258,-4.54248 -0.91807,-1.17868 -1.669222,-2.71402 -1.669222,-3.57156 -2.643795,-2.65262 -4.53969,-5.79346 -7.042037,-8.27639 -3.342874,-3.37065 -5.947074,-6.19005 -8.814342,-9.70171 -1.153987,-0.89177 -1.587793,-1.61155 -2.234791,-2.33867 -1.054441,-2.29915 -1.831607,-4.84619 -2.130597,-6.61437 -0.504965,-2.76935 -0.451154,-6.0936 -0.184902,-9.12984 0.607528,-1.80354 0.844016,-3.6542 1.205526,-5.00198 0.672675,-2.54441 2.248054,-7.60588 2.808761,-8.62525 0.422779,-1.88716 1.099059,-3.85424 2.042164,-5.9904 1.283047,-3.14477 2.582375,-5.7903 4.958687,-8.69024 2.054875,-1.84155 3.819516,-3.14614 5.378825,-4.29757 1.658009,-0.19364 2.748739,-1.32328 4.174758,-1.52758 0.689606,0 1.536848,-0.24207 1.815242,-0.3485 0.399437,-0.15328 1.003735,0.31956 1.005143,1.16726 -0.284438,1.77068 0.727757,3.35808 1.576859,4.67556 0.36927,1.16347 3.050307,3.45841 5.123379,4.50489 1.769895,1.26698 4.440537,2.73667 5.918893,3.7214 0.048,1.22349 -0.200399,4.74191 -0.337468,5.03071 2.960325,1.56635 6.128538,2.21846 7.80934,4.83835 0.915865,1.19593 1.43727,1.71199 2.377925,2.75684 0.518045,0.27726 0.941719,0.76872 0.549107,2.30895 -0.443201,1.53229 -1.279328,3.05664 -2.375158,4.08548 -1.680332,1.62865 -2.073118,2.52394 -1.451169,5.82415 0.72377,3.84045 1.346446,6.69175 2.057982,9.51817 1.736579,6.89817 1.99742,8.54839 2.087218,17.72153 0.04738,4.84 -0.283984,9.42561 -0.37263,10.22343 -0.0891,0.80188 -0.251835,2.19834 -0.413843,3.05836 -0.162012,0.86003 -0.636111,1.81334 -0.633417,2.18531 0.0085,1.16879 0.334291,-0.13199 0.569625,-1.84306 0.116135,-0.84442 -0.681251,-5.44496 1.334835,-4.94936 1.170145,0.28765 -0.03166,3.67304 -0.116479,3.89408 -0.127773,0.33297 -1.091632,7.23973 -1.517597,10.64043 -0.505294,1.40034 -0.656637,2.5817 -1.131484,4.11371 -0.0097,1.72077 -0.659906,3.63441 -1.042691,5.06159 -0.373909,1.5838 -0.600593,3.13017 -0.707256,4.59224 -0.06732,0.49323 -0.0501,1.74496 -0.17905,2.96969 0.212416,2.98278 0.127344,4.0837 0.259124,7.81803 0.155513,4.80647 0.568679,7.85568 0.375407,8.04895 -0.391046,0.39105 -2.400368,0.85892 -4.821809,0.98763 -2.03103,-0.30194 -1.750418,-0.0758 -3.544,-0.34323 -2.082281,-0.5166 -4.432403,-0.97786 -6.18294,-1.9754 z m 2.03275,-34.38192 c 1.509841,-1.36537 1.860955,-3.27566 2.528474,-4.94339 0.946526,-2.51636 1.299149,-4.69427 1.871952,-6.6288 0.970899,-1.94338 1.651448,-3.94237 2.073351,-5.93224 0.670009,-1.78216 0.514486,-6.64332 -0.23257,-7.38986 -1.788243,-0.9422 -3.892045,1.33348 -4.711184,-0.21232 -1.11318,-3.32863 -3.506951,-6.35434 -5.358145,-8.83273 -0.710825,-1.14204 -0.840031,-1.68517 -0.895996,-3.79957 -0.03685,-1.39239 -0.341308,-3.68395 -0.514524,-4.57922 -0.01658,-5.19188 -0.714379,-10.44369 -1.563495,-15.16045 -0.39978,-2.11257 -1.312617,-2.89534 -1.97066,-1.52506 -0.56688,2.16591 -1.059405,7.72942 -1.154929,12.18532 l -0.285553,3.99162 c -1.060986,0.13152 -1.289712,-0.77912 -1.18859,0.19885 -0.08849,0.91109 0.438511,1.1112 1.431693,2.15258 1.773524,1.67342 3.394678,4.03366 4.812905,5.96017 0.817148,1.44402 4.164049,5.1303 2.909758,4.21258 -0.669312,-1.66117 3.340356,4.57748 4.791868,6.12923 -0.144784,3.01221 -1.634437,7.76061 -2.72749,10.32678 -1.032676,1.3024 -2.431537,2.81137 -2.980387,4.27769 -1.12082,2.48047 -2.043111,3.61488 -2.623844,5.14234 0.803897,2.6903 3.783533,4.73448 5.787366,4.42648 z m -3.364471,-0.78533 c -0.434342,0.26844 -2.228738,-2.98631 -2.228738,-3.87713 0.43244,-2.21106 2.15588,-3.81594 3.181457,-5.73426 1.705134,-2.26497 3.247299,-4.3177 3.919872,-6.92861 0.594,-2.14947 1.159684,-4.52073 1.587789,-6.55792 1.026383,-0.45821 1.56784,-0.58248 2.427535,-0.39575 0.884718,3.34799 0.521187,5.58955 -0.192778,8.28932 -1.478313,2.21213 -1.592577,4.96907 -1.975962,6.4159 -1.024775,1.93784 -1.51462,4.23583 -1.73066,5.41647 -0.574472,1.75954 -1.68778,3.6976 -2.642779,3.83929 -1.062777,0.12657 -1.890512,-0.33671 -2.345736,-0.46731 z m -5.199068,-40.28995 c -1.022108,-2.01376 -0.184828,-5.66764 0.01364,-7.69271 l 0.637127,-4.90066 0.722244,4.54752 c 0.459254,2.59591 0.791355,5.30794 0.830267,7.91775 0.301301,0.98256 -0.193348,1.89939 -0.252031,2.98516 -0.241233,-1.20148 -1.173671,-1.94713 -1.95125,-2.85706 z m 46.641085,72.83648 c 0.07,-0.39765 -0.45553,-2.58963 -0.63886,-5.01916 -0.18332,-2.42952 -0.14652,-5.00915 -0.24921,-5.68157 -0.33026,-2.16238 0.29243,-11.28067 1.7947,-19.88324 0.50713,-2.904 0.87114,-5.77267 0.9617,-6.47667 0.0906,-0.704 0.37236,-2.31067 0.54984,-3.36667 0.41213,-2.45214 0.42982,-21.22667 0.0634,-22.96572 -0.1521,-0.72189 -0.0781,-3.96804 -0.15956,-7.10563 -0.0815,-3.13758 -0.38394,-5.71319 -0.45602,-5.83161 -0.18268,-2.69012 -0.43231,-3.97263 -1.97853,-6.33354 -0.76526,-2.03456 -1.49855,-4.49357 -3.00207,-5.54439 -0.6002,-1.42663 -0.52752,-2.84377 -0.79886,-3.05713 1.55128,-1.51155 1.01454,-0.53845 3.29723,-2.83914 1.46374,-1.52671 2.45888,-2.49279 4.18684,-3.97411 0.21399,-0.22159 0.35124,-0.34184 1.47141,-1.71706 -0.82402,-2.07035 -1.01996,-3.34447 -0.97433,-5.0764 1.7165,-0.96265 3.99006,-2.66545 5.54981,-3.98841 0.94487,-0.59742 2.2439,-1.32887 3.75876,-2.55911 0.32431,-0.47833 2.67648,-4.41831 3.36999,-4.94012 0.60713,-0.4568 1.27612,-1.98641 1.28642,-4.01266 0.004,-0.82562 -1.4047,-1.76878 0.73023,-1.99349 1.4696,-0.24076 3.05932,-0.0906 4.61938,0.0387 1.11205,0.74383 2.32917,2.41884 2.99827,3.34286 0.89485,1.23965 1.79543,3.62001 2.85992,4.98901 1.22549,2.45585 2.05412,3.89517 2.84305,5.38482 1.3525,2.46598 2.58576,4.27409 3.62065,6.61706 1.72291,2.61512 2.24271,3.52422 3.52957,5.84387 1.69496,2.38701 2.65335,4.17015 3.51018,6.06673 0.69771,1.45934 2.39453,5.05464 2.59221,9.81846 -0.005,3.48882 -0.11047,3.62439 -0.0464,8.31845 -0.8784,2.08457 -2.94225,5.65937 -3.8524,8.41508 -2.01744,4.97352 -5.94833,10.1672 -8.50732,14.38782 0.15927,0.003 -0.1045,0.14645 -0.4231,0.49845 -1.17066,0.96194 -2.6118,1.39398 -3.25537,2.63193 -0.89673,1.53015 -1.18015,2.20386 -0.42927,1.91572 0.4684,-0.17974 0.51664,1.15903 0.78665,3.31509 0.509,2.69489 1.12455,4.38884 2.32719,6.86429 0.005,0.49872 0.22926,2.34195 0.55251,4.06005 0.55148,2.9311 0.30503,3.44334 -0.18583,5.16624 -0.81019,2.61545 -1.93272,5.38046 -2.9803,7.82557 -2.7253,3.73899 -5.00628,6.69339 -8.40035,9.06241 -2.36938,1.12161 -4.03764,1.41803 -5.10263,2.77621 -0.86179,0.38149 -1.90438,1.28525 -3.28722,1.98567 -1.92556,1.2472 -3.98758,1.89055 -5.90527,2.48274 -1.584,0.48457 -3.33201,0.99587 -3.84227,1.15783 -1.37919,0.10347 -2.97767,0.79241 -2.78477,-0.59925 z m 26.67098,-41.73913 c 0.75328,-0.42156 -0.48175,-1.19116 -1.31087,-0.97434 -0.7354,0.19232 -0.77782,-0.65017 -1.31927,-1.28569 -1.73226,-2.79681 -3.5863,-6.74932 -5.21988,-9.21414 -1.32644,-2.98991 -2.85292,-11.4101 -1.41606,-12.49914 0.85753,-1.59959 1.96818,-3.1192 2.80646,-3.76685 -0.26835,-0.43421 3.06072,-3.08541 4.90213,-3.72666 0.66554,-0.29241 1.14138,-0.36443 1.19467,-0.73091 0.66121,0 1.06092,-0.42887 0.93538,-1.3145 -0.0879,-0.62024 0.44125,-0.35548 -0.55862,-0.35548 -1.19511,0 -2.41115,-1.46914 -2.97638,-2.35205 -0.13769,-0.21508 -0.3281,-0.70786 -0.64252,-1.03694 -1.36892,-2.48029 -2.41821,-4.68603 -3.13015,-6.62846 -0.59259,-3.46326 -2.59055,-5.88283 -4.08585,-7.902 -0.93042,-0.99246 -1.73767,-1.31329 -2.04875,-0.89263 -0.29822,0.35933 0.0187,0.2725 1.18599,1.50814 1.96702,1.97894 2.34176,5.31347 4.18998,7.09054 0.40737,0 1.20845,1.91891 0.94216,2.34978 0.28727,0.37788 0.73339,1.7684 1.14113,2.33336 -0.0301,0.0429 0.39221,0.36398 0.86633,0.87557 0.47412,0.51158 0.65694,0.85535 0.56831,0.94397 0.39798,0.69378 0.85248,1.55175 0.98047,1.60738 0.24927,0.20158 1.012,1.01104 1.4554,1.36553 0.41628,0.27276 0.75688,0.81992 0.75688,0.94585 0,0.2498 -2.78417,2.46368 -3.11959,2.46368 -0.63256,0.70348 -1.2866,0.14044 -1.80694,0.77053 l 0.0372,-1.70434 c -0.006,-1.11985 -0.92253,-3.46786 -1.98266,-5.45029 -1.1601,-0.84826 -0.90347,-0.77752 -1.52621,-1.3943 -0.58787,-0.58788 -0.59012,-1.50377 -0.36321,-1.73068 0.47703,-0.47703 0.49043,-0.68466 -0.093,-1.57515 -0.89565,-1.11705 -0.92805,-1.98628 -1.90975,-3.52001 -1.11621,0.51816 -1.76704,1.38052 -2.69673,2.0346 -1.93663,1.32915 -2.68917,1.69998 -5.93299,2.33568 l -3.39458,0.72832 0.30586,2.78944 c -0.13702,1.68039 0.75993,3.24291 0.81732,3.32773 0.51776,1.01747 0.48706,2.04012 0.17699,2.52293 0.0972,0.15726 0.0165,0.81848 -0.25121,1.57742 -0.56806,1.61005 -0.14645,3.74964 0.82284,4.94666 0.75939,0.93781 2.9325,0.8754 5.32115,0.17894 2.70341,-0.81753 4.9445,-2.30529 7.67612,-3.64241 0.70592,-0.44077 2.58684,-0.68218 0.79421,1.36725 -0.61638,1.11935 -1.02205,1.9085 -1.73274,2.95144 -0.60882,1.2098 -1.2173,2.59854 -2.2493,2.59731 -0.74975,0.39273 -1.44023,0.90811 -1.85249,1.60835 -0.7119,0.74483 -1.93654,1.44594 -1.91121,1.26994 -0.23929,-0.79845 -0.36082,-1.01223 -0.50767,-0.67349 0,0.80238 0.71696,1.18596 0.58496,1.10446 -0.51263,0.76728 -1.01914,1.14739 -0.23936,0.78417 0.66474,-0.17384 1.12781,1.53345 1.97035,4.44829 0.30523,1.056 0.78615,2.03476 0.96066,2.24705 0.7528,0.87046 1.29965,1.52939 1.58567,2.32724 0.28123,0.72129 0.67577,1.74902 0.88775,2.48272 0.10832,0.42259 2.17246,3.993 2.17473,4.48164 9.6e-4,0.1849 0.66113,1.34776 1.44925,1.84593 0.88148,0.66487 1.06343,0.85933 1.70465,1.16966 0.17761,-0.10977 0.5833,0.59793 0.99156,1.0325 0.40826,0.43458 0.83605,0.42185 1.05866,0.42185 1.18157,-0.91687 1.79821,-1.38973 3.03281,-2.46539 z m -4.53111,1.47206 c -0.30065,-0.40314 -1.07551,-0.84758 -1.73498,-1.26662 -0.95185,-0.60483 -1.81801,-1.82393 -3.18041,-4.55204 -0.94392,-1.89013 -1.81303,-3.94765 -2.03938,-4.64428 -0.22635,-0.69663 -0.62059,-1.32658 -0.94811,-1.59795 -0.54412,-0.45085 -2.5319,-5.70556 -2.81796,-7.43641 -0.0918,-0.55562 0.69415,-1.28268 1.8099,-2.13462 1.99413,-1.52263 2.74053,-1.00103 2.89022,1.04551 0.62046,3.59407 0.55949,6.19537 2.53149,9.0118 1.18402,1.73736 2.20661,3.80906 3.21873,5.3093 1.303,2.23525 2.99815,4.14214 4.578,4.83004 0.15076,-0.11947 -0.56098,0.45376 -1.1675,1.11182 -1.2726,1.38072 -1.68342,2.27662 -3.14,0.32345 z M 109.1727,164.93045 c -0.58296,-1.12732 -0.57135,-3.2527 -0.25825,-3.93035 0.25486,-0.60532 0.29332,-1.13331 0.40444,-1.6794 -0.0514,-2.05486 1.65333,-2.96231 3.04073,-3.02447 2.42586,-0.95622 4.65751,-1.8311 6.08359,-2.82977 1.30258,-0.91218 2.91656,-2.28328 2.27928,-1.64601 -0.11639,0.1164 1.07044,1.534 1.64715,1.92589 0.77791,0.5286 0.98515,1.1967 1.43801,2.58837 0.0364,0.76288 0.79378,1.89873 0.91218,2.35585 0.16197,1.13431 -0.63156,2.82807 -1.47926,2.92613 -2.7864,1.17026 -4.59797,2.17298 -6.46539,3.14511 -1.61199,0.83304 -2.88193,1.33032 -4.47631,1.45018 -1.46013,0.0446 -2.64849,-0.34758 -3.12617,-1.28153 z m 5.45699,-15.51642 c 1.4849,-0.66087 3.37188,-1.81853 4.9176,-2.58692 0.65277,1.33624 0.62407,2.02284 1.64659,3.60969 l -1.33933,1.59979 c -1.22685,1.46544 -3.30151,2.1319 -5.04595,2.76758 -1.84943,0.62668 -4.44697,1.56596 -5.84749,1.34943 -0.81578,-2.7334 -0.74276,-5.26705 -0.49432,-5.4207 0.30361,-0.18776 4.12636,-0.71592 6.1629,-1.31887 z m -32.302551,40.91711 c 0.01536,-0.37278 -0.151261,-6.57258 1.271456,-6.6152 1.055478,-0.0316 -0.411118,6.67106 -0.517438,6.77739 -0.106333,0.10634 0.08292,-0.10988 -0.254007,-0.13094 z m 22.851191,-3.65281 c -0.0405,-2.68582 -1.01048,-10.62048 -1.40431,-11.2577 -0.0968,-0.15665 -0.83838,-2.72308 -1.60739,-5.67616 -0.76902,-2.95308 -1.93477,-6.51125 -2.388004,-7.97457 -0.453243,-1.46333 -0.973081,-3.83892 -1.047168,-5.17107 -0.532604,-2.30993 -0.761904,-4.3186 -0.829863,-6.33673 -0.03072,-1.056 -0.156844,-3.17416 -0.347833,-4.65299 -0.359629,-2.78463 -0.431697,-6.46743 0.187823,-8.68798 0.407885,-1.46199 1.819948,-2.92291 2.037374,-3.52307 1.026351,-2.28273 2.613151,-4.87871 3.745101,-5.85163 1.5962,-1.75254 2.26725,-3.93052 3.16173,-5.7674 1.46262,-1.98389 2.64301,-3.97238 3.94538,-5.94517 1.25496,-1.05875 2.61479,-1.79511 4.08307,-2.87422 0.44168,-0.53314 3.5732,-1.7431 4.95081,-1.85679 l 1.761,-0.14533 -0.002,2.00676 c -0.21938,1.62992 -1.28876,3.97556 -2.1353,4.63879 -1.18443,1.48108 -2.45871,3.78487 -4.45246,4.74999 -2.43317,1.49575 -5.77516,4.25357 -7.4979,5.43929 -1.06381,0.60533 -1.11979,1.04121 -0.4242,2.43572 0.25491,0.51104 0.59591,1.36679 0.71959,2.1404 -0.0713,1.34695 -0.0854,1.89438 -1.09907,2.44419 -0.6458,0.54079 -2.08634,2.43074 -5.39037,5.18112 -1.752925,1.45919 -1.77157,1.22479 -1.688895,2.73874 0.08718,1.5964 0.624765,3.54237 1.507055,4.27461 1.79756,1.49988 3.04631,4.27254 3.38921,6.84617 0.13818,0.22122 0.73952,3.42144 0.90418,7.17913 0.16465,3.75769 0.29991,7.52605 0.47611,8.45517 0.17621,0.92912 0.47424,4.01499 0.48675,6.76297 0.0125,2.74797 -0.19943,6.23149 -0.0659,7.75464 0.13356,1.52315 0.52982,11.23101 -0.26089,11.18336 -1.13198,-0.0682 -0.61681,-6.1294 -0.65178,-8.4477 z m -22.091614,-7.31052 c -0.0052,-7.54308 -0.09598,-6.93022 -2.748408,-19.14152 -0.526332,-2.80158 -0.995123,-5.41047 -1.389732,-7.5322 0.0212,-1.91248 1.574036,-4.20286 1.905443,-4.56732 1.550022,-1.26422 2.207576,-2.70804 2.200304,-4.0611 l 0.08999,-1.7934 -1.775602,-1.73146 c -1.575517,-2.04246 -2.679355,-3.81091 -4.850244,-4.95593 -1.383237,-0.41842 -2.69892,-0.79818 -3.914357,-1.59801 l -0.205461,-2.44658 -0.0066,-2.35819 c -1.010204,-1.03749 -1.727934,-1.60571 -2.270278,-1.95466 -0.428605,0.26489 -5.841427,-2.82917 -6.078435,-3.44681 -1.409164,-1.07957 -2.599286,-2.59401 -3.380084,-4.05636 -0.578084,-1.13069 -0.843241,-2.1428 -0.951737,-4.63115 -0.130739,-2.99856 -1.137783,-4.62372 -0.452637,-5.14052 0.590842,-0.44568 2.442172,0.92163 3.20159,1.20827 1.982388,1.12567 1.031881,0.68934 2.661261,1.48121 0.467603,0.46872 0.978447,0.61641 1.444563,0.90471 0.326153,0.29333 0.947152,0.81265 1.379997,1.15403 0.432844,0.34139 0.880551,0.8513 0.794385,1.07585 -0.08617,0.22455 0.528816,0.99905 1.089721,2.01712 1.034019,1.87677 2.372341,5.19539 2.074044,5.19539 -0.0896,0 0.435716,0.4775 1.062343,1.1375 0.735899,1.16047 1.198365,2.20161 1.816096,3.0933 0.579554,1.42956 1.393161,2.33202 2.494031,3.73322 0.987111,1.10293 1.061971,1.33093 1.78161,2.77707 1.066057,1.23576 1.780092,2.28654 2.689594,3.28571 0.910956,1.41321 1.106729,2.11694 2.183613,3.27831 1.264959,1.793 1.197731,2.19085 1.288364,2.4233 0.784176,1.93625 1.0366,3.31602 1.463663,4.31017 0.198697,0.1228 0.302391,1.29534 0.48824,2.42422 0.301011,1.82836 0.02647,2.59848 -0.403936,7.2957 -0.007,1.81012 -0.256716,4.15559 -0.787311,5.7462 -0.344602,1.40411 -0.508557,2.68767 -0.624957,4.02284 -0.0672,0.77084 -0.205879,3.06535 -0.422759,5.08935 -0.455043,4.24661 -0.222928,4.78746 -0.818897,10.38179 0.04754,4.35098 -1.807442,4.03145 -1.027426,-2.62005 z"
         id="coat" /><path
         style="fill:#ac5008;stroke-width:0.32"
         d="m 84.905465,185.2 c 0.382253,-8.6362 1.39607,-18.42636 2.124224,-22.19315 0.702832,-3.63582 0.9642,-8.33813 1.000504,-12.06056 0.02589,-2.65529 -0.103997,-3.23005 -0.655355,-4.29217 -0.365459,-0.704 -0.498208,-2.16124 -0.619088,-2.92771 -0.26295,-1.6673 -1.132982,-2.98777 -2.201376,-4.06718 -0.706406,-0.71369 -1.948598,-3.33106 -1.727904,-3.39777 0.584,-0.17653 2.307269,0.3428 2.436654,0.5521 0.299283,0.48425 3.938058,0.1852 6.305684,-0.43801 1.793464,-0.53749 3.627227,-0.96509 5.3949,-0.54601 -0.559582,5.24429 -0.81314,11.30484 -0.12547,16.63936 0.67208,4.89138 1.725861,9.72199 2.576856,11.78855 0.144951,0.352 0.577919,1.5665 0.871436,2.6225 0.29352,1.056 0.37104,2.25077 0.53513,2.65506 0.16409,0.40428 0.396,1.07693 0.396,1.49957 0,0.42263 0.46771,1.8995 0.91045,3.30102 0.8506,2.69262 1.67969,8.05475 2.04686,11.66507 l 0.36036,2.50447 -1.29655,0.47131 c -1.37141,0.49852 -2.72158,0.31461 -3.894873,-0.6083 -0.694576,-0.54635 -0.841061,-0.62146 -3.900514,-0.44641 -2.999817,0.17164 -3.833714,0.18905 -4.326687,-0.30392 -0.744477,-0.74448 -0.764833,-1.68873 0.378444,-1.88851 1.328307,-0.23212 1.827511,-0.77158 0.484085,-0.71165 -0.834605,0.0372 -1.186178,0.45621 -3.087627,2.43313 -1.28768,1.33879 -2.149059,2.78747 -3.295858,2.4576 -2.324021,-0.6685 -0.849571,-0.43497 -0.659037,-4.73969 z m 0.254481,-48.87406 C 84.663432,135.55685 84.48,134.28811 84.48,132.60815 v -1.43019 l 1.68,0.036 c 0.932502,0.02 1.968,0.39425 2.32,0.3547 0.2895,-0.32075 1.391022,-0.53237 2.375777,-0.56997 1.657459,-0.30639 2.912911,-0.28595 4.293772,-0.58235 1.500401,-0.56701 4.177888,-1.20587 4.514083,-1.74985 0.300102,-0.48557 1.058558,-0.72129 1.058558,-0.20466 0,0.23696 -0.19167,1.32341 -0.46265,1.88969 -0.976408,2.04046 -1.452767,1.62262 -1.520904,0.95392 -0.0185,-0.18154 0.03218,0.25447 -0.04229,0.82233 -0.183012,1.39546 -0.912639,2.62529 -2.456607,2.93408 -0.853728,0.17074 -0.785273,-0.6117 -0.776438,-1.27685 l 0.01877,-0.58276 -0.360426,0.59417 c -0.53418,0.88061 -0.909331,1.79107 -1.833101,1.5495 -0.349113,-0.0913 -0.723688,-0.43087 -0.841937,-0.23999 -0.11825,0.19134 -0.494503,0.551 -0.836115,0.551 -1.236383,0.55175 -2.32743,0.8717 -3.692364,0.96 -1.110195,-0.25013 -2.174473,0.11093 -2.758182,-0.29097 z m 3.439131,-1.98816 c -0.20864,-0.93766 -0.380327,-0.96856 -0.458452,-0.31397 -0.113981,0.95502 0.05405,1.12525 0.386672,1.12525 0.334889,0 0.230564,-0.0977 0.07178,-0.81128 z M 81.92,135.24916 c 0,-0.23696 -0.605527,-0.84896 -0.849088,-1.36 -1.211031,-2.54097 -1.177154,-4.44817 1.451034,-3.43086 l 1.267429,0.44774 0.435373,2.22511 c 0.267981,1.3696 0.441745,2.7086 0.199375,2.86645 C 83.818015,136.39233 81.92,135.70647 81.92,135.24916 Z m -3.878409,-4.16174 c -1.548171,-1.8112 -3.146454,-5.11657 -2.852041,-5.27142 0.17158,-0.0902 2.266641,1.63186 3.117289,2.40037 0.709159,0.64068 1.438886,1.19613 1.602518,1.19613 0.465917,0 0.579807,1.78317 0.624663,2.28785 0.354167,3.98476 -1.228355,0.86591 -2.492429,-0.61293 z"
         id="shirt" /><path
         style="fill:#0e448d;stroke-width:0.32"
         d="m 70.88,251.95727 c -0.704,-0.26936 -2.059273,-0.66177 -2.78255,-0.99934 -0.723276,-0.33757 -1.376165,-0.49918 -1.578178,-0.49918 -0.675309,0 -4.117647,-2.11828 -4.264015,-2.60458 -0.330259,-0.63796 -0.270694,-1.09272 -0.330129,-1.72469 0.104349,-0.16884 0.358047,-0.36948 0.169099,-0.36948 -0.336957,0 -0.232378,-0.76997 1.851145,-3.75199 0.572,-0.81867 1.113657,-1.69195 1.113657,-2.04867 0,-0.66448 1.835217,-2.51934 2.413499,-2.51934 0.176966,0 0.721071,0.0605 1.029071,0.36849 0.950329,0.31924 1.398366,0.46618 2.133396,0.64069 2.172253,0.52111 7.542912,-0.13435 8.096707,-0.98763 0.233488,-0.35975 0.317164,-2.51571 -0.356362,-14.74155 -0.148311,-2.69215 0.11427,-5.32641 0.747362,-9.4415 0.105632,-0.68658 0.528757,-1.70942 0.703014,-2.31734 0.171423,-0.59803 0.47008,-1.65478 0.501139,-2.49228 0.03104,-0.83751 0.37185,-1.94038 0.622557,-2.4252 0.250707,-0.48481 0.686998,-1.49021 0.807206,-2.36789 0.120208,-0.87769 0.174408,-2.70704 0.416449,-4.02704 0.421975,-2.30126 0.587192,-2.96272 1.057684,-6.54437 0.291754,-2.22098 0.441499,-3.87675 1.906124,-3.31119 0.738601,0.2852 1.812664,0.24388 3.239791,-1.57071 1.315563,-1.67274 1.901819,-2.05675 2.197253,-1.12592 0.257542,0.81144 2.556692,1.28848 5.772439,1.01665 1.711981,-0.14472 2.445546,0.1618 2.786151,0.44687 0.875391,0.73257 3.010651,0.78514 4.132251,0.44913 1.30389,-0.39063 1.41619,0.17631 1.61234,2.03079 0.0838,0.792 0.24803,1.72019 0.39366,2.07219 0.41113,0.67484 0.29828,0.42658 0.16214,1.19031 -0.20782,0 -0.40869,0.10929 -0.17105,0.3956 0.46707,0.56279 0.62444,5.59886 -0.054,9.1419 -0.47158,2.46264 -0.80895,3.42629 -1.33706,9.86692 -0.16836,2.05319 -0.39271,4.76479 -0.50347,5.95373 -0.11076,1.18896 -0.005,3.30476 0.18112,4.7558 0.18607,1.45106 0.18079,3.89312 0.27635,5.44482 0.263,4.27055 1.02865,4.33496 1.95432,4.2611 1.35463,-0.10808 7.85618,-1.90262 8.28894,-2.13262 2.9864,-1.5903 5.62673,-3.02427 8.43168,-4.42904 1.31063,-0.82756 2.3272,-0.80691 2.67549,0.10916 0.24019,0.63175 0.40859,1.47913 0.006,2.32754 -0.4392,0.92553 -0.28483,2.00362 -0.15776,5.30219 0.15891,4.12486 -0.30713,6.33876 -1.07867,7.1913 -0.24385,0.26946 -1.65269,0.72375 -2.80664,1.31561 -1.15396,0.59186 -2.0981,1.17949 -2.0981,1.30584 0,0.23791 -0.83913,1.57401 -1.83027,2.61845 -0.62903,0.66285 -2.98542,1.57728 -3.30177,1.38176 -0.1102,-0.0681 -1.57462,0.26658 -3.05621,0.16759 -3.15629,-0.21088 -4.52687,-0.61736 -4.7811,-1.01535 -1.27952,-0.52308 -2.40369,-1.40148 -3.51895,-2.02138 -0.49883,-0.004 -1.34759,-2.75991 -0.95402,-3.00315 0.16223,-0.10026 0.0208,-2.6866 0.0169,-5.80166 -0.007,-5.84165 -0.46901,-12.48367 -1.31269,-16.95656 -0.26558,-1.408 -0.574092,-3.11301 -0.577562,-3.66289 -0.003,-0.54987 0.205271,-1.6888 -0.07631,-2.45893 -0.281578,-0.77012 -0.862605,-2.14574 -0.841044,-3.00291 0.02157,-0.85717 -0.0073,-1.5002 -0.154196,-1.69903 -0.14688,-0.19883 -0.433434,-1.31556 -0.654794,-2.28356 -0.221363,-0.968 -0.595571,-2.06273 -0.741551,-2.41473 -0.581764,-1.40279 -0.600294,-2.61657 -0.799071,-3.76 -0.114762,-0.66 -0.557583,-1.04532 -0.713996,-1.04532 -0.156413,0 -0.394872,-0.32041 -0.394872,-0.65802 0,-0.83605 0.734844,-0.0815 -0.320684,-1.18423 -0.108679,-0.11354 0.156179,0.32091 0.156179,1.25329 0,1.3075 -0.30036,2.28384 -1.164194,3.97065 -0.616,1.20287 -1.186292,2.34275 -1.186292,2.74912 0,0.40636 -0.227049,0.88172 -0.378513,0.97533 -0.46129,0.28509 -0.996486,3.69696 -1.720816,8.41386 -1.257177,8.18689 -1.594781,10.05321 -1.921126,23.58956 -0.07142,2.96252 -0.173957,5.47469 -0.281867,5.5826 -0.107911,0.10791 -0.775323,0.34716 -1.051019,0.38762 -0.275696,0.0405 -0.614529,0.18238 -0.905739,0.46337 -1.256918,1.21288 -2.811107,2.43475 -3.329472,2.60566 -0.308,0.10155 -0.455833,0.25415 -0.455833,0.39004 0,0.34835 -1.649767,1.03994 -2.491306,1.05193 -0.387718,0.006 -1.346527,0.54168 -2.398047,1.06416 -1.05152,0.52248 -2.23477,1.20454 -2.59125,1.21014 -0.35648,0.006 -1.104754,-0.008 -1.446393,0.25084 -0.767187,0.58027 -1.351192,0.31071 -2.982171,-0.31332 z M 94.543223,190.8579 c 0,-0.616 0.03278,-0.76644 -0.143223,-0.76644 -0.176,0 -0.06588,0.18359 -0.06588,0.79959 0,0.616 -0.15431,0.86588 0.02169,0.86588 0.176,0 0.187417,-0.28303 0.187417,-0.89903 z"
         id="pants" /><path
         style="fill:#3d3d3d;stroke-width:0.32"
         d="m 57.352166,265.90142 c -0.576307,-0.3818 -1.439974,-1.36182 -1.919257,-2.1778 -1.450541,-2.46957 -1.010535,-5.9967 1.439072,-11.53568 0.706637,-1.59784 3.229344,-4.5395 4.163222,-4.85463 0.310375,-0.10473 0.313498,-0.3987 0.01459,-1.37132 -0.371897,-1.21005 -0.353987,-1.26229 0.792976,-2.31341 0.986813,-0.90436 3.757229,-5.32159 3.757229,-5.99066 0,-0.11412 -1.269446,-0.83926 -2.820989,-1.61144 -3.804259,-1.8933 -7.572758,-4.42607 -7.175955,-4.82287 0.11959,-0.11959 -0.0052,-0.13201 -0.277286,-0.0276 -0.715936,0.27473 -3.552909,-1.73018 -4.155972,-2.93706 -0.280614,-0.56157 -0.949849,-1.52177 -1.487196,-2.13377 -1.89378,-2.1569 -3.152234,-7.23071 -3.251844,-13.11069 -0.06118,-3.61172 0.975853,-9.61299 2.018848,-11.68297 0.413348,-0.82034 0.856471,-1.99553 0.98472,-2.61153 0.339591,-1.6311 2.906218,-7.25865 4.305421,-9.44 1.276407,-1.98991 1.205258,-2.56053 -0.528201,-4.23637 -0.86681,-0.83801 -2.085722,-2.31564 -2.708698,-3.28364 -0.622973,-0.968 -1.764966,-2.35826 -2.537763,-3.08947 -0.772797,-0.7312 -2.840602,-2.9632 -4.595127,-4.96 -1.754521,-1.99679 -4.007968,-4.42253 -5.007657,-5.39053 -2.050109,-1.98512 -2.152435,-2.15338 -3.290432,-5.41059 -0.846858,-2.42388 -1.472583,-6.31242 -1.470928,-9.14102 0.0013,-1.9589 2.235865,-12.13919 3.198486,-14.57072 2.161325,-5.4594 3.567114,-9.22324 3.874778,-10.37429 0.191609,-0.71686 1.33072,-2.88738 2.531357,-4.82338 2.251081,-3.62982 4.361577,-5.81909 6.883808,-7.14074 0.698848,-0.36619 1.91863,-1.10472 2.71063,-1.64116 0.792,-0.53645 1.630285,-0.97598 1.862858,-0.97673 0.232569,-6.4e-4 0.643827,-0.22234 0.9139,-0.49242 0.303226,-0.30322 0.631079,-0.38342 0.857146,-0.20967 1.430157,1.09917 2.475062,0.3699 2.397773,-1.67348 -0.05536,-1.46371 0.223277,-2.20748 0.759971,-2.02858 0.20032,0.0668 0.363651,1.65221 0.409926,3.97912 0.06683,3.36003 0.18322,4.1003 0.886112,5.63562 1.104378,2.41227 2.843805,3.99379 6.736615,6.12505 5.278016,2.88964 5.598697,3.31317 5.04696,6.66559 -0.297152,1.80553 -0.185527,1.93041 2.208739,2.47089 2.145043,0.48423 3.49184,1.33914 4.501853,2.85765 0.420278,0.63187 1.541341,1.90976 2.491248,2.83975 1.62176,1.58776 1.715113,1.76342 1.530525,2.88 -0.108122,0.65401 -0.198167,1.66034 -0.200103,2.23628 -0.0029,0.84831 -0.335053,1.36487 -1.749213,2.72 -0.960128,0.92006 -1.870326,2.01581 -2.022662,2.435 -0.32767,0.90168 0.466554,5.6587 2.170102,12.99783 1.653997,7.12567 1.751037,8.02509 1.674474,15.52 -0.06779,6.63623 -1.031968,14.04823 -1.582057,15.52832 -0.12201,0.32829 0.376015,-6.76625 0.364019,-12.43021 -0.02298,-10.85263 0.04322,-10.17807 -1.733306,-17.65811 -1.979997,-8.33672 -2.693888,-12.36105 -2.45448,-13.83633 0.136915,-0.84371 0.675091,-1.65551 1.95489,-2.94881 1.452163,-1.46747 1.818473,-2.06563 2.061452,-3.36625 0.293578,-1.57145 0.287101,-1.59004 -1.001731,-2.87514 -0.713472,-0.71141 -1.840422,-2.02701 -2.504336,-2.92355 -1.228195,-1.65856 -1.599993,-1.87437 -4.877385,-2.83113 -2.326618,-0.67921 -2.667885,-1.28048 -2.215869,-3.9041 0.254838,-1.47915 0.229289,-1.99963 -0.122829,-2.50235 -0.244523,-0.34909 -0.44459,-0.5204 -0.44459,-0.38067 0,0.13974 -0.215792,0.0383 -0.479542,-0.22548 -0.263748,-0.26374 -1.821194,-1.22064 -3.460992,-2.12644 -1.639799,-0.90579 -3.657754,-2.22498 -4.484343,-2.93153 -1.711478,-1.46293 -3.237318,-4.35055 -3.566054,-6.74868 l -0.208429,-1.52049 -1.82032,0.20189 c -2.072234,0.22982 -4.912358,1.77815 -8.142656,4.43908 -2.257824,1.85987 -5.316266,6.51587 -6.306051,9.6 -0.959511,2.9898 -2.849943,8.1112 -3.353427,9.08483 -0.540112,1.04447 -1.430967,4.45826 -2.597872,9.95517 -0.716436,3.37491 -0.81664,4.45007 -0.641216,6.88 0.363065,5.02913 1.788851,9.16912 3.730009,10.83068 0.689853,0.59048 1.977687,1.92315 2.861853,2.96147 2.966762,3.48402 4.936749,5.66943 6.773286,7.51397 1.003335,1.00771 2.317658,2.60208 2.920717,3.54304 1.156135,1.80394 2.457319,3.23828 3.655037,4.02907 0.396,0.26146 0.72,0.7516 0.72,1.08921 0,0.68577 1.42064,3.64394 1.888982,3.93339 0.384695,0.23776 1.753671,4.32319 1.5252,4.55165 -0.332716,0.33272 -0.821376,-0.24252 -1.612838,-1.8986 -0.714006,-1.494 -2.364429,-3.6949 -2.542717,-3.3908 -0.0377,0.0643 -0.53672,0.7918 -1.108925,1.61666 -1.226416,1.76793 -3.419785,6.42924 -3.752812,7.9754 -0.128516,0.59667 -0.629389,1.96287 -1.113053,3.036 -2.365914,5.24935 -2.631706,16.63765 -0.506992,21.7228 0.278563,0.66669 0.973728,1.745 1.544816,2.39625 0.571085,0.65124 1.280518,1.63443 1.576518,2.18485 0.317984,0.59132 1.214077,1.36577 2.190163,1.89287 0.908592,0.49065 2.106413,1.21192 2.661824,1.60282 3.378442,2.37776 4.411655,2.96413 8.65697,4.913 3.369008,1.54659 5.87847,2.02272 9.152864,1.73663 4.174352,-0.36471 3.950176,-0.18374 3.72223,-3.00496 -0.108224,-1.33947 -0.286518,-5.6034 -0.396208,-9.4754 -0.16134,-5.6953 -0.102297,-7.58345 0.309117,-9.88518 0.279706,-1.56485 0.898436,-3.71499 1.031084,-3.80235 0.51499,-0.33917 0.0027,0.99456 -0.105984,1.44897 -0.443683,1.85502 -1.082036,7.22328 -0.91666,8.71856 0.145782,1.31815 0.539907,10.15684 0.648857,14.5514 0.03562,1.43677 -0.769174,1.84563 -4.53095,2.30186 -2.825085,0.34263 -3.812496,0.17662 -6.874541,-1.15575 -0.696534,-0.30308 -2.486953,1.39068 -2.486953,2.35269 0,0.36268 -0.800407,1.77496 -1.778679,3.13839 -0.978275,1.36343 -1.625376,2.53006 -1.438006,2.59251 0.187369,0.0625 0.263193,0.23893 0.168499,0.39214 -0.448448,0.72561 0.773821,2.41759 2.359869,3.26676 0.903993,0.484 1.826816,0.88 2.05071,0.88 0.223898,0 0.908951,0.26009 1.522346,0.57797 0.613392,0.31788 1.929936,0.84717 2.925651,1.1762 1.702208,0.56249 1.859296,0.56619 2.628742,0.062 0.450093,-0.29491 1.079082,-0.5362 1.397757,-0.5362 0.318672,0 1.439738,-0.42748 2.491258,-0.94996 1.05152,-0.52248 2.229078,-0.95448 2.616797,-0.96 0.841539,-0.012 2.335056,-0.65149 2.335056,-0.99984 0,-0.13589 0.252,-0.33016 0.56,-0.43171 0.308,-0.10155 1.064,-0.61682 1.68,-1.14504 0.616,-0.52822 1.456854,-1.2474 1.868566,-1.59816 0.411712,-0.35076 0.879981,-0.55653 1.040598,-0.45726 0.332215,0.20531 1.023405,-1.38791 0.83001,-1.91321 -0.215536,-0.58545 0.376285,-18.1213 0.697421,-20.66482 1.039248,-8.2312 2.325513,-14.83048 2.968009,-15.22757 0.151466,-0.0936 0.275396,-0.50268 0.275396,-0.90904 0,-0.40637 0.504,-1.72302 1.12,-2.92589 0.863833,-1.68681 1.12,-2.57477 1.12,-3.88227 0,-0.93238 0.128595,-1.69523 0.285763,-1.69523 0.34664,0 0.674237,0.79012 0.674237,1.62617 0,0.33761 0.127974,0.61383 0.284387,0.61383 0.156413,0 0.378262,0.54 0.492998,1.2 0.198778,1.14343 0.570861,2.35721 1.152624,3.76 0.145981,0.352 0.446531,1.432 0.667895,2.4 0.22136,0.968 0.522646,1.92268 0.669526,2.12151 0.146877,0.19883 0.249411,1.06283 0.227853,1.92 -0.02157,0.85717 0.191181,2.1886 0.472758,2.95872 0.281578,0.77013 0.514797,1.85013 0.518257,2.4 0.003,0.54988 0.22359,2.15177 0.48916,3.55977 0.84368,4.47289 1.41019,11.33946 1.41748,17.18111 0.004,3.20066 -0.12381,5.742 -0.29406,5.84722 -0.44693,0.27622 0.79653,2.83292 1.42249,2.92479 0.29284,0.043 0.70034,0.30679 0.90554,0.58625 0.2052,0.27946 0.72251,0.57505 1.14958,0.65687 0.42706,0.0818 0.86759,0.29619 0.97895,0.47638 0.21694,0.35102 4.03627,0.91554 6.80668,1.00607 1.74205,0.0569 3.12333,-0.45006 4.16762,-1.52968 0.95543,-0.98777 1.83026,-2.1142 1.83026,-2.35666 0,-0.12635 0.94415,-0.71398 2.0981,-1.30584 2.19719,-1.12694 3.07034,-1.87074 3.26561,-2.78186 0.0642,-0.29956 0.14363,-2.87722 0.17651,-5.72813 0.0432,-3.74153 0.17476,-5.29862 0.47311,-5.59733 0.12353,-0.12368 -0.58668,-2.88032 -0.20011,-2.93459 1.31038,-0.18397 1.2276,4.24787 1.15308,9.13523 l -0.0863,5.65983 -0.90167,0.9403 -0.90167,0.9403 0.78647,0.84862 c 0.43256,0.46674 0.95471,1.25477 1.16033,1.75118 0.20562,0.49641 1.34111,1.70828 2.52331,2.69304 2.04704,1.70516 2.191,1.91804 3.02134,4.46774 0.95293,2.92611 1.05139,4.17068 0.52437,6.62812 -0.38534,1.79676 -1.10562,2.50518 -4.04184,3.97524 -2.05132,1.02704 -2.29302,1.02844 -6.65647,0.0387 -1.93279,-0.43841 -3.98806,-0.79841 -4.56725,-0.8 -2.84685,-0.008 -8.30227,-2.63964 -9.64995,-4.65533 -0.43067,-0.64413 -1.25114,-1.5282 -1.82327,-1.96458 -1.83373,-1.39866 -2.67243,-3.41352 -3.1731,-7.62299 -0.15283,-1.28489 -0.47092,-2.21023 -0.96163,-2.7974 -0.64932,-0.77694 -0.7084,-1.08833 -0.51612,-2.72 0.22762,-1.93142 0.28974,-13.46868 0.0918,-17.0426 -0.0634,-1.144 -0.31098,-2.656 -0.55025,-3.36 -0.23927,-0.704 -0.437139,-1.83702 -0.439702,-2.51783 -0.0062,-1.64215 -1.700762,-10.88573 -2.23697,-12.20217 -0.143373,-0.352 -0.442941,-1.504 -0.665702,-2.56 -0.222762,-1.056 -0.525837,-2.0568 -0.673504,-2.224 -0.147664,-0.1672 -0.26848,-0.6352 -0.26848,-1.04 0,-1.07471 -0.400823,-0.89612 -1.048669,0.46725 -0.312768,0.65822 -0.840512,1.70831 -1.172762,2.33355 -0.823318,1.54935 -2.146157,6.59818 -2.594733,9.9032 -0.203043,1.496 -0.492316,3.008 -0.642832,3.36 -0.150512,0.352 -0.310371,1.072 -0.355238,1.6 -0.223391,0.5919 -0.270802,1.45081 -0.326333,1.88257 0.08613,0.92985 0.178583,4.04126 -0.271033,6.5762 -0.338237,1.90698 -0.428647,12.27432 -0.109821,12.59314 0.168224,0.16822 0.264966,2.43655 0.154784,3.62927 -0.01834,0.19864 -0.471603,0.5427 -1.007229,0.76456 -0.535629,0.22187 -1.434365,0.83356 -1.997197,1.35933 -1.847414,1.72574 -4.432315,3.53431 -6.378536,4.09854 -1.052108,0.30503 -2.359441,0.60145 -2.803333,0.90062 -1.005728,0.67784 -3.738444,1.60141 -5.035561,1.56485 -1.191629,-0.0336 -5.738819,-1.77688 -7.978327,-2.91173 -0.90256,-0.45736 -1.944182,-1.23337 -2.314716,-1.72446 l -0.673693,-0.89289 -0.974154,1.12 c -2.083072,2.39494 -2.517427,3.14028 -3.543225,6.08 -1.454455,4.16818 -1.374903,6.94681 -0.03237,8.55456 1.360349,1.62909 1.639642,1.8681 4.602596,1.6447 2.72248,-0.20527 7.439825,-1.91128 10.06979,-3.32086 0.694028,-0.37197 1.720222,-0.4784 1.936677,-0.4784 1.234649,0 3.814019,-1.30688 6.3724,-3.22869 3.16712,-2.37908 3.341902,-3.00566 4.798513,-6.13464 0.532557,-1.144 1.392517,-2.21259 1.567272,-2.47648 0.174756,-0.26391 0.339924,-1.05591 0.608931,-1.76 0.266722,-0.69811 0.467891,-1.99478 0.759632,-2.14449 0.657458,-0.33737 0.878019,0.95573 0.966849,1.41699 0.05854,0.30398 -0.528672,1.88798 -1.304919,3.52 -0.776246,1.63202 -1.593997,3.43134 -1.817222,3.99848 -0.849031,2.15712 -7.33624,6.78839 -10.849533,7.74557 -1.294701,0.35273 -2.518941,0.77822 -2.720534,0.94553 -0.201594,0.1673 -2.094295,0.90287 -4.206,1.63459 -4.924288,1.70629 -8.661565,2.04811 -10.3273,0.94456 z m 70.806624,-3.92709 c 1.06622,-0.56364 2.09496,-1.36979 2.31528,-1.81433 0.61381,-1.23847 0.48799,-4.43275 -0.26208,-6.65382 -0.57107,-1.69102 -0.98663,-2.26265 -2.86351,-3.93891 -1.43032,-1.27742 -2.39445,-2.44182 -2.76633,-3.34095 -0.98333,-2.37747 -2.86026,-2.02292 -5.83774,1.10275 -2.60045,2.72987 -3.18101,3.16686 -5.91154,3.11106 -3.89162,-0.0795 -6.64276,-0.83138 -8.9376,-2.04811 -0.37515,-0.1989 0.27313,2.72877 0.86302,4.34624 0.32725,0.89737 1.32075,1.49513 2.44372,2.45452 0.93428,0.79817 1.63339,1.95494 1.73181,2.26503 0.232,0.73096 2.90941,2.62134 4.85632,3.20727 0.83649,0.25175 2.8999,0.25874 4.58537,0.51968 1.68547,0.26094 3.78449,1.09192 4.66449,1.34247 2.30039,0.65496 2.9709,0.58253 5.11879,-0.5529 z M 104.16,233.28 c -0.1215,-0.55317 -0.41398,-3.29385 -0.30187,-3.32065 0.60234,-0.144 0.39973,2.43224 0.74852,2.97815 1.03363,1.6178 -0.15867,1.65486 -0.44667,0.3425 z m 2.02,0.7414 c 0.231,-0.0924 1.61117,-0.62277 1.80083,-0.2873 0.074,0.13091 -1.2702,0.49447 -1.6075,0.48057 -0.37278,-0.0154 -1.46943,0.5338 -1.88083,-0.36 z m 1.66,-0.42246 c 0.44,-0.14879 2.22388,-0.72258 3.96419,-1.27508 2.67565,-0.84945 3.65688,-1.36834 6.35533,-3.36076 2.17897,-1.60888 3.67846,-2.47313 4.72759,-2.72481 0.88485,-0.21227 2.07337,-0.82817 2.8025,-1.45227 0.69633,-0.59604 1.32102,-1.05272 1.38822,-1.01486 0.0672,0.0379 0.09,0.0126 0.0506,-0.0561 -0.21631,-0.3775 1.12849,-1.96285 2.3553,-2.77662 1.30159,-0.86336 3.95627,-4.23835 3.95627,-5.02975 0,-0.18608 0.19636,-0.56567 0.43636,-0.84353 0.24,-0.27786 0.73548,-1.3692 1.10105,-2.4252 0.36558,-1.056 0.88289,-2.496 1.14959,-3.2 0.95179,-2.51241 0.30868,-9.1849 -1.24911,-12.96 -0.39944,-0.968 -0.90916,-2.92856 -1.13272,-4.3568 -0.35478,-2.26669 -0.48137,-2.57721 -0.99581,-2.44268 -0.79362,0.20754 -0.75333,-0.42385 0.13276,-2.0805 0.50264,-0.93976 1.15913,-1.57043 2.16,-2.07505 1.1205,-0.56495 1.64977,-1.12296 2.39788,-2.52807 0.528,-0.99171 1.788,-2.78726 2.8,-3.99013 1.012,-1.20286 1.84,-2.35834 1.84,-2.56773 0,-0.20939 1.21988,-2.77072 2.71085,-5.69183 3.35342,-6.57005 4.00203,-8.87939 4.23185,-15.06721 0.1429,-3.84771 0.0701,-4.88316 -0.51558,-7.33653 -0.96618,-4.04697 -2.71575,-7.82406 -4.68001,-10.10347 -0.8727,-1.01273 -2.61062,-3.94623 -4.17076,-7.04 -0.66566,-1.32 -1.7495,-3.12 -2.40854,-4 -0.65903,-0.88 -1.48199,-2.32 -1.82878,-3.2 -1.27972,-3.24734 -3.08369,-6.78413 -4.65173,-9.12 -2.71964,-4.05139 -2.43016,-3.86691 -5.9511,-3.7925 -1.68091,0.0355 -2.78717,0.12521 -2.45835,0.1993 0.53445,0.12042 0.57447,0.3414 0.37736,2.08363 -0.25267,2.23331 -0.41367,2.56416 -3.13915,6.45093 -1.63701,2.33452 -2.30618,3.01209 -3.63436,3.68 -0.89536,0.45025 -2.53495,1.64428 -3.64354,2.65339 -1.10859,1.00911 -2.43444,2.01711 -2.94632,2.24 -0.67892,0.29562 -0.89418,0.57839 -0.79569,1.04525 0.0743,0.352 0.32531,1.52785 0.55789,2.613 l 0.42286,1.97301 -3.17845,3.14699 c -1.74815,1.73085 -3.73917,3.58998 -4.42449,4.1314 -1.13583,0.89731 -1.22769,1.08224 -1.03853,2.09057 0.11414,0.6084 0.78368,1.87297 1.48786,2.81016 1.83103,2.43687 3.58452,6.26955 3.89564,8.51487 0.58708,4.23695 1.01906,15.63882 0.99462,26.25248 -0.0226,9.81725 -0.10735,11.66885 -0.68103,14.88 -0.89082,4.98631 -1.7611,11.08074 -2.06171,13.41335 -0.58514,4.54059 -0.50373,1.74101 -0.35513,-0.74734 0.0828,-1.38683 0.34744,-3.47483 0.58804,-4.64 0.65401,-3.16729 0.9364,-8.62818 0.47492,-9.18422 -0.26997,-0.3253 -0.27503,-0.45427 -0.0178,-0.45427 0.19755,0 0.35918,0.144 0.35918,0.32 0,0.176 0.16525,0.32 0.36722,0.32 0.27316,0 0.29988,-1.8236 0.10431,-7.12 -0.1446,-3.916 -0.23589,-8.43914 -0.20285,-10.05141 0.033,-1.61228 -0.15763,-4.99628 -0.42368,-7.52 -0.26605,-2.52373 -0.48908,-6.10059 -0.49563,-7.94859 -0.0245,-6.90888 -1.26755,-11.59336 -3.85997,-14.54596 -1.207147,-1.37487 -2.193557,-3.58116 -2.202373,-4.92604 -0.0052,-0.80012 0.260128,-1.32765 1.046336,-2.08 0.579347,-0.5544 2.521007,-2.42952 4.314807,-4.16693 l 3.26144,-3.15894 -0.36154,-1.48106 c -0.19885,-0.81459 -0.54389,-1.84552 -0.76676,-2.29095 -0.5295,-1.05826 -0.1422,-1.73341 1.46463,-2.55315 0.68838,-0.35119 2.14156,-1.43261 3.22928,-2.40317 1.08772,-0.97055 2.68168,-2.0862 3.54213,-2.47922 1.27683,-0.5832 2.01157,-1.30207 3.99646,-3.91011 2.31153,-3.03723 2.43994,-3.29425 2.59197,-5.18819 l 0.15994,-1.99264 -1.56286,0.18471 c -0.85957,0.1016 -2.29691,0.52835 -3.19409,0.94835 -1.44321,0.67561 -1.99442,1.0411 -3.55526,2.35737 -0.21258,0.17926 -0.511,0.32593 -0.66318,0.32593 -0.62431,0 -3.85781,4.14717 -4.77836,6.12857 -1.16904,2.51624 -3.99783,7.07398 -5.23301,8.43143 -0.48045,0.528 -1.39407,2.004 -2.03027,3.28 -0.636207,1.276 -1.282517,2.32 -1.436252,2.32 -0.477558,0 -1.230563,1.99732 -1.450304,3.84689 -0.22912,1.92851 0.482253,11.06266 1.25801,16.15311 0.546963,3.58911 1.854026,8.93504 2.329976,9.5297 0.17182,0.21466 0.83666,2.5503 1.47744,5.1903 0.64077,2.64 1.3731,5.56768 1.62738,6.50595 0.77327,2.85321 1.53007,9.64288 1.33724,11.9971 -0.0983,1.20068 -0.0687,2.49668 0.0659,2.88 0.13459,0.38332 0.15913,1.12895 0.0545,1.65695 0.0647,1.98141 -0.17159,3.02375 -0.45238,0.32 -0.0393,-0.37836 -0.33331,-1.288 -0.4202,-2.08 -0.0869,-0.792 -0.22895,-1.512 -0.31567,-1.6 -0.0867,-0.088 -1.13155,-0.16 -2.32183,-0.16 -1.45327,0 -2.354168,-0.15767 -2.742613,-0.48 -0.443382,-0.36792 -1.475942,-0.48 -4.422016,-0.48 -2.819011,0 -3.879741,-0.10815 -3.979296,-0.40572 -0.07466,-0.22314 -0.355126,-0.6251 -0.623264,-0.89324 -0.436704,-0.4367 -0.558825,-0.39378 -1.17143,0.41173 -1.155651,1.51955 -1.792022,2.20223 -3.191932,2.59285 -0.155046,0.0433 1.292159,-0.97189 2.064242,-1.8351 0.772083,-0.86321 1.576893,-1.76321 1.788464,-2 0.703171,-0.78698 1.228554,-1.1243 2.086467,-1.33962 1.302768,-0.32698 1.380631,0.34874 0.101757,0.88309 -1.141977,0.47715 -1.359961,0.93193 -0.840163,1.75285 0.226294,0.35739 1.010029,0.41131 3.915098,0.26936 3.395932,-0.16593 3.680121,-0.13307 4.369475,0.50521 0.719921,0.66657 2.133111,0.84114 4.182771,0.51668 0.74383,-0.11775 0.75571,-0.17179 0.55586,-2.52921 -0.26634,-3.1418 -1.63786,-10.63557 -2.10694,-11.51207 -0.20145,-0.37641 -0.56444,-1.65018 -0.80664,-2.8306 -0.57637,-2.80905 -1.655173,-6.77806 -2.061909,-7.58595 -0.556217,-1.10479 -1.871664,-6.8853 -2.439565,-10.72026 -0.803632,-5.42681 -0.781078,-16.30526 0.03655,-17.6282 0.258598,-0.41843 -2.170877,-0.15875 -4.817434,0.51491 -3.030198,0.77132 -5.384451,0.88209 -7.212022,0.33936 -0.937277,-0.27834 -1.746916,-0.50607 -1.799197,-0.50607 -0.297575,0 0.81463,1.96583 1.810457,3.2 1.573623,1.95026 1.642048,2.08403 2.11288,4.13076 0.226381,0.98408 0.721821,2.65324 1.10098,3.70924 0.53934,1.50213 0.653363,2.37269 0.5239,4 -0.441075,5.54421 -0.90398,9.64454 -1.318614,11.68 -0.574515,2.82035 -1.36103,10.58891 -1.911472,18.88 -0.23369,3.52 -0.527923,6.64462 -0.65385,6.94361 -0.177667,0.42184 0.01027,0.61835 0.838992,0.87729 0.902752,0.28206 0.93049,0.31595 0.179312,0.21911 -0.679731,-0.0876 -1.037056,0.0939 -1.52,0.77211 -0.347251,0.48768 -0.631366,1.21578 -0.631366,1.61802 0,0.40223 -0.140579,1.532 -0.3124,2.5106 -0.435622,2.48106 -1.218678,7.25914 -1.471571,8.97926 -0.116439,0.792 -0.396112,1.80068 -0.621498,2.24151 -0.225385,0.44083 -0.487856,1.52509 -0.583267,2.40948 -0.169411,1.57025 -0.758582,3.56142 -0.98041,3.31339 -0.193584,-0.21645 0.653898,-4.54065 1.202484,-6.13556 0.289664,-0.84215 0.526662,-1.93812 0.526662,-2.43548 0,-0.49736 0.292525,-2.76032 0.650054,-5.02881 1.431952,-9.0856 1.855184,-12.72344 2.211021,-19.00453 0.467005,-8.24339 0.898746,-12.89239 1.500736,-16.16 0.657264,-3.56761 1.184115,-8.77779 1.213437,-12 0.0192,-2.1095 -0.129184,-3.07912 -0.661098,-4.32 -0.377216,-0.88 -0.789446,-2.248 -0.916067,-3.04 -0.143533,-0.89779 -0.620573,-1.92197 -1.266915,-2.72 -0.570186,-0.704 -1.290077,-1.784 -1.59976,-2.4 -0.30968,-0.616 -0.967808,-1.552 -1.462502,-2.08 -1.16457,-1.24298 -3.275847,-4.36846 -3.286954,-4.86592 -0.0047,-0.21226 -0.120774,-0.31661 -0.257853,-0.23189 -0.314265,0.19422 -2.609501,-3.16117 -3.310841,-4.84011 -0.289965,-0.69415 -0.869034,-1.62208 -1.286823,-2.06208 -0.417785,-0.44 -1.114278,-1.736 -1.54776,-2.88 -0.433481,-1.144 -1.239248,-2.92877 -1.790595,-3.96615 -0.551344,-1.03738 -0.939546,-1.94905 -0.862669,-2.02593 0.657591,-0.65759 3.015569,2.31227 4.12771,5.49138 0.219602,0.94788 0.996082,1.26225 1.051202,1.80835 -0.08178,0.2445 0.106507,0.90352 0.743006,1.18266 2.507629,1.09971 0.674066,1.03952 0.637221,1.09281 -0.229232,0.33152 0.923684,2.7885 1.683245,3.60476 0.489628,0.52618 0.524746,0.93603 0.764298,1.36828 0.449466,0.61165 1.169111,1.16114 1.593533,1.76061 l 1.061766,1.51677 -0.01571,-1.74749 c -0.0137,-1.52433 -0.12272,-1.8171 -0.853696,-2.29252 -1.414717,-0.92013 -4.581994,-3.80011 -4.568698,-3.99134 0.03945,-0.56741 1.242332,-0.2746 3.032738,1.16813 2.963178,2.38775 4.972299,3.14905 9.817966,3.15076 3.846951,0.001 5.943421,-0.45569 8.682813,-1.37523 2.745664,-0.92165 5.588323,-2.03949 6.241593,-2.697 0.92067,-0.92664 3.77882,-6.51289 3.77882,-7.26077 0,-0.1631 0.95849,-0.83334 1.91392,-1.57044 0.95542,-0.73711 1.96674,-1.69062 2.24738,-2.11892 0.28063,-0.42829 0.68691,-0.78121 0.90286,-0.78425 0.21594,-0.003 0.73962,-0.37124 1.16374,-0.81822 0.74791,-0.78822 2.58888,-1.91884 2.58888,-1.58993 0,0.0895 0.51125,-0.12441 1.13611,-0.47537 2.2212,-1.24757 11.09077,-1.79677 12.54685,-0.7769 1.77888,1.24599 6.04615,8.39602 8.07261,13.52612 0.23033,0.5831 1.11756,2.00678 1.97161,3.16374 0.85405,1.15696 1.55282,2.26619 1.55282,2.46495 0,0.56799 3.56413,6.56292 5.06008,8.51114 1.79902,2.34292 3.48164,5.9168 4.44445,9.44 0.72703,2.66043 0.77477,3.27035 0.62613,8 -0.11578,3.68367 -0.34475,5.83293 -0.81621,7.66134 -0.59412,2.30413 -3.42896,8.3949 -4.85776,10.43711 -0.31494,0.45015 -0.82025,1.45815 -1.12291,2.24 -0.59124,1.52731 -1.32961,2.60114 -3.17783,4.62155 -0.644,0.704 -1.39427,1.712 -1.66727,2.24 -0.94785,1.83319 -2.38378,3.40733 -2.92034,3.20143 -0.27986,-0.10739 -0.40599,-0.0924 -0.28029,0.0333 0.1257,0.1257 -0.27469,0.5705 -0.88975,0.98845 -0.9417,0.6399 -1.11794,0.94759 -1.11606,1.94837 0.003,1.72288 1.19676,6.43832 1.95475,7.72301 0.86045,1.45837 2.20428,7.61715 2.1981,10.07392 -0.006,2.18399 -0.93567,6.26003 -1.81636,7.95935 -0.3183,0.61418 -0.97792,1.9103 -1.46581,2.88028 -1.21392,2.41338 -1.94046,3.26997 -4.11658,4.85341 -1.02769,0.7478 -1.79203,1.43613 -1.69853,1.52963 0.29459,0.2946 -3.73803,3.73334 -4.17945,3.56395 -0.23136,-0.0888 -1.11649,0.20901 -1.96696,0.66175 -0.85047,0.45274 -1.65398,0.82316 -1.78558,0.82316 -0.1316,0 -1.25022,0.648 -2.48582,1.44 -1.2356,0.792 -2.48573,1.44 -2.77808,1.44 -0.29234,0 -0.76056,0.20727 -1.04049,0.4606 -0.27992,0.25333 -1.86852,0.75733 -3.53021,1.12 -3.04726,0.66507 -4.68891,0.83804 -3.21122,0.33834 z M 90.56,135.9475 c 0.616,-0.19162 1.38079,-0.57648 1.699536,-0.85523 0.503731,-0.44053 0.617645,-0.4457 0.87089,-0.0396 0.388876,0.62368 1.262617,0.0919 1.909574,-1.16224 l 0.48,-0.93048 0.09914,1.0248 c 0.09384,0.97004 0.145111,1.00732 0.959415,0.69773 1.449936,-0.55127 1.978733,-1.24603 2.018563,-2.65213 0.02042,-0.72072 0.102976,-1.0584 0.183466,-0.7504 0.235491,0.90114 0.533212,0.64999 1.301966,-1.09832 0.76731,-1.74501 0.7114,-2.24907 -0.177899,-1.60393 -1.615792,1.17217 -5.140915,2.15264 -9.024653,2.51009 -1.144,0.1053 -2.152554,0.30475 -2.241232,0.44324 -0.08868,0.13848 -0.808678,0.12692 -1.6,-0.0257 -2.668368,-0.51465 -2.634202,-0.53591 -2.467261,1.53463 0.207152,2.56927 0.355779,3.03819 1.055664,3.33064 0.717085,0.29965 3.329863,0.0755 4.932829,-0.42314 z m -2.346666,-0.80083 C 88.096,135.02933 88,134.42453 88,133.80267 c 0,-1.32879 0.464659,-1.00815 0.749683,0.51733 0.181677,0.97236 -0.04354,1.31948 -0.536349,0.82667 z m -4.075673,-0.18456 c -0.163712,-0.57084 -0.297661,-1.72284 -0.297661,-2.56 0,-1.32492 -0.08563,-1.52211 -0.661037,-1.52211 -0.363571,0 -0.951904,-0.15567 -1.307408,-0.34593 -0.355504,-0.19026 -0.736381,-0.25591 -0.846397,-0.14589 -0.371779,0.37178 -0.09996,2.79104 0.399175,3.55282 0.272617,0.41607 0.495667,0.96842 0.495667,1.22747 0,0.29156 0.396195,0.52015 1.04,0.60004 0.572,0.071 1.137949,0.15211 1.257661,0.18028 0.119715,0.0282 0.08371,-0.41584 -0.08,-0.98668 z M 103.74238,229.6 c 0,0 -0.2968,-4.47609 -0.21562,-4.16474 0.5811,0.37385 0.53413,4.13918 0.3631,4.73083 -0.0649,0.22453 -0.15403,-0.0381 -0.14751,-0.56609 z m -0.61086,-7.68 c 0.003,-0.88 0.0646,-1.20202 0.13811,-0.7156 0.0735,0.48642 0.92577,5.18559 0.39183,5.1625 -0.1385,0.41441 -0.53196,-3.5665 -0.52956,-4.4469 z m 0.30272,-4.96 c 0,-0.616 0.6284,-7.84717 0.70885,-7.53917 0.18467,0.47467 -0.46117,12.08284 -0.89583,12.14084 -0.31555,0.0421 0.18698,-3.98567 0.18698,-4.60167 z M 62.703363,201.78824 c -1.212723,-0.6865 -2.604381,-3.43712 -2.482745,-4.90716 0.06097,-0.73685 0.25095,-1.17117 0.491529,-1.1237 0.215683,0.0426 0.958995,-1.10944 1.651811,-2.56 0.692813,-1.45056 1.566864,-2.99093 1.942333,-3.42304 1.198922,-1.37979 1.849258,-2.67012 2.675514,-5.30848 1.236249,-3.94752 1.639552,-6.52167 1.092995,-6.97626 -0.244413,-0.20328 -1.068758,-1.4496 -1.831875,-2.7696 -0.76312,-1.32 -1.559447,-2.50367 -1.769619,-2.63039 -0.21017,-0.12671 -0.927536,-1.0223 -1.594151,-1.99019 -0.666611,-0.96789 -1.341433,-1.67982 -1.499606,-1.58206 C 60.881341,168.82527 60.16,167.9577 60.16,167.05059 c 0,-0.47907 -0.360822,-1.28944 -0.80183,-1.80082 -0.441005,-0.51137 -1.175514,-1.51929 -1.632237,-2.23982 -0.456727,-0.72053 -1.246867,-1.55606 -1.755866,-1.85673 -1.632883,-0.96457 -2.108768,-3.05242 -0.606179,-2.65948 0.574774,0.1503 0.641862,-0.008 0.695757,-1.6437 0.0328,-0.99552 0.08368,-2.27661 0.113062,-2.84685 0.545568,-10.5889 0.843456,-12.71947 1.853994,-13.26029 0.999251,-0.53479 1.387254,0.26751 1.962077,4.0571 0.778416,5.13179 1.742486,14.96094 1.757891,17.92255 0.01514,2.90651 0.572432,4.26385 3.147632,7.6661 0.794573,1.04976 1.92032,2.95237 2.501661,4.22804 l 1.056982,2.31939 0.893526,-0.46607 c 1.222695,-0.63776 2.766192,-0.58951 3.395767,0.10616 0.319533,0.35308 0.602483,1.44827 0.730758,2.82848 0.214218,2.30488 -0.08928,3.84257 -1.822825,9.23535 -0.339456,1.056 -0.894157,2.856 -1.232669,4 -1.356733,4.5851 -2.641408,7.87858 -3.35264,8.59506 -0.931571,0.93845 -3.177671,1.22333 -4.361498,0.55318 z m 3.587354,-1.36918 c 0.291894,-0.25589 0.783584,-1.42686 1.092643,-2.60215 0.309059,-1.1753 0.746045,-2.50991 0.971075,-2.96581 0.225034,-0.45589 0.625565,-1.67989 0.890071,-2.72 0.264505,-1.0401 0.760854,-2.7551 1.102995,-3.8111 1.884406,-5.81609 2.037229,-6.56224 1.809165,-8.83319 -0.212855,-2.11952 -0.255143,-2.20661 -1.069143,-2.20191 -0.878118,0.005 -1.732915,0.39289 -1.660848,0.75351 0.112381,0.56232 -0.457616,2.9536 -1.478336,6.20201 -0.931289,2.9638 -1.372109,3.86912 -2.49304,5.12 -0.748941,0.83577 -1.894941,2.55273 -2.546665,3.81547 -0.651725,1.26274 -1.399184,2.47368 -1.661021,2.69099 -1.009719,0.83799 0.513894,4.20658 2.24055,4.95366 1.070256,0.46308 1.962058,0.33533 2.802554,-0.40148 z m -7.081959,-45.60571 c -0.370646,-3.55584 -0.726464,-6.51772 -0.79071,-6.58197 -0.06425,-0.0642 -0.205686,1.15341 -0.314314,2.70591 -0.108624,1.55249 -0.350185,3.83071 -0.5368,5.06271 -0.393996,2.60109 -0.23472,3.82504 0.62016,4.76563 0.337111,0.3709 0.809914,1.03437 1.050676,1.47437 l 0.437744,0.8 0.103571,-0.88075 c 0.05696,-0.48441 -0.199683,-3.79007 -0.570327,-7.3459 z M 127.68,194.01596 c 0.264,-0.0954 1.01296,-0.6824 1.66435,-1.30439 l 1.18434,-1.13089 -1.37274,-0.87056 c -1.29634,-0.82212 -3.22038,-3.56227 -5.16099,-7.35012 -0.31559,-0.616 -0.97357,-1.624 -1.46218,-2.24 -0.59979,-0.75618 -1.0476,-1.9023 -1.37855,-3.52829 -0.67816,-3.33187 -1.50226,-6.84641 -1.63694,-6.98109 -0.20951,-0.2095 -3.02574,1.88987 -3.35134,2.49827 -0.17801,0.33261 -0.2413,0.86718 -0.14064,1.18793 0.17575,0.56002 0.16832,0.56024 -0.18698,0.005 -0.292,-0.45596 -0.46573,-0.49829 -0.82416,-0.20082 -0.74957,0.62209 -0.55161,-0.20792 0.38835,-1.6283 0.46339,-0.70022 0.97669,-1.27314 1.14066,-1.27314 0.16398,0 0.64593,-0.41332 1.071,-0.91849 0.42507,-0.50517 1.21015,-1.09963 1.74462,-1.32101 0.73642,-0.30503 1.2611,-0.97996 2.16648,-2.78687 0.65709,-1.31139 1.44028,-2.648 1.74041,-2.97024 0.47436,-0.50932 0.48264,-0.61009 0.0634,-0.77098 -0.26527,-0.10179 -0.40517,-0.0603 -0.31088,0.0923 0.0943,0.15255 -0.26487,0.36463 -0.79811,0.47128 -0.53324,0.10664 -1.4309,0.53342 -1.9948,0.94839 -2.99907,2.20696 -7.79479,3.59431 -10.27386,2.9721 -1.75217,-0.43976 -2.6561,-4.03342 -1.63142,-6.48583 0.65705,-1.57254 0.60186,-2.74407 -0.16,-3.3964 -0.53338,-0.45669 -0.64,-0.94398 -0.64,-2.92494 0,-1.30733 -0.0869,-2.60353 -0.1932,-2.88044 -0.22644,-0.5901 -0.10072,-0.63717 3.0732,-1.15075 1.32,-0.21359 2.86678,-0.52731 3.4373,-0.69715 1.0144,-0.302 4.93814,-2.97765 5.14937,-3.51142 0.0587,-0.14825 0.29561,-0.26955 0.52656,-0.26955 0.47459,0 1.82801,2.52204 1.57398,2.93305 -0.0907,0.14682 -0.0368,0.26695 0.11983,0.26695 0.15665,0 0.47673,0.3586 0.7113,0.79689 0.36909,0.68966 0.35279,0.87832 -0.12116,1.40203 -0.52327,0.57821 -0.49187,0.6531 0.70558,1.68311 1.55474,1.33732 3.05043,4.60689 3.07615,6.72443 l 0.0181,1.48647 1.13823,-0.58068 c 0.62603,-0.31938 1.87187,-1.24029 2.76853,-2.04647 1.7899,-1.60927 2.16947,-1.74114 2.6072,-0.90578 0.52893,1.00939 -0.17816,1.88544 -2.72353,3.37431 -3.97193,2.3233 -5.11742,3.35981 -6.71584,6.07691 l -1.46554,2.49123 0.35912,2.14877 c 0.76368,4.56937 1.5909,7.85254 2.18281,8.66339 0.33941,0.46497 1.49865,2.66439 2.57608,4.88761 2.00483,4.13686 2.94981,5.28455 4.62748,5.62008 1.23086,0.24617 1.10291,0.73867 -0.47834,1.84121 -0.74424,0.51893 -1.46832,1.13093 -1.60907,1.36 -0.14074,0.22907 -0.57274,0.40512 -0.96,0.39123 -0.46581,-0.0167 -1.42553,-0.73218 -1.10798,-0.84696 z m -10.67205,-29.69127 c 1.61037,-0.77114 3.01703,-1.54622 3.12591,-1.7224 0.10888,-0.17617 0.9701,-0.54478 1.91383,-0.81913 2.02445,-0.58852 2.75265,-1.46826 2.4031,-2.90316 -0.4854,-1.99254 -1.76845,-4.51872 -2.79116,-5.49549 l -1.06038,-1.01274 -1.65962,0.99133 c -0.9128,0.54523 -2.01963,1.21299 -2.45963,1.4839 -1.3128,0.80832 -5.55027,2.593 -6.15671,2.593 -0.40032,0 -0.56429,0.2546 -0.56675,0.88 -0.002,0.484 -0.213,1.57056 -0.46909,2.41459 -0.58475,1.92722 -0.16046,4.3893 0.87273,5.06424 0.85222,0.55672 4.03964,-0.12945 6.84777,-1.47414 z m -4.9398,-8.84472 c 0.93052,-0.37401 2.21032,-0.80189 2.844,-0.95085 1.81144,-0.42582 4.12785,-1.50842 4.12785,-1.9292 0,-0.21056 0.4488,-0.78352 0.99732,-1.27324 l 0.99733,-0.89041 -0.73066,-1.50934 c -0.40186,-0.83014 -0.73066,-1.69227 -0.73066,-1.91585 0,-0.22573 -0.58112,0.0548 -1.30666,0.63065 -1.98423,1.575 -3.04721,2.16807 -3.44515,1.92213 -0.22007,-0.13601 -0.2715,-0.0789 -0.13208,0.1467 0.14555,0.2355 -0.0396,0.38425 -0.51055,0.41028 -0.40639,0.0225 -1.02689,0.0871 -1.37889,0.14354 -0.352,0.0565 -1.45802,0.20122 -2.45782,0.32164 l -1.81782,0.21894 0.16445,2.27752 c 0.0904,1.25264 0.21995,2.45752 0.28778,2.67752 0.17942,0.58194 1.17039,0.49218 3.09156,-0.28003 z m -30.442886,37.88917 c 0.160469,-0.74887 0.24586,-0.41546 0.348011,-0.16019 0.09244,0.231 -0.500134,3.12941 -0.533483,3.27603 -0.393599,1.73048 -0.651334,0.78933 -0.411138,-0.33161 z M 126.4,192.96 c -0.18838,-0.352 -1.92886,-1.00504 -1.59673,-1.1556 0.36093,-0.16362 1.72835,0.8036 1.91673,1.1556 0.18838,0.352 0.27052,0.64 0.18252,0.64 -0.088,0 -0.31414,-0.288 -0.50252,-0.64 z m -32.32,-2.08 c 0,-0.616 0.144,-1.12 0.32,-1.12 0.176,0 0.32,0.504 0.32,1.12 0,0.616 -0.144,1.12 -0.32,1.12 -0.176,0 -0.32,-0.504 -0.32,-1.12 z m 29.85784,0.34722 c -0.49381,-0.42502 -1.4151,-1.73723 -1.3271,-1.7997 0.088,-0.0625 1.16336,1.19863 1.66948,1.68612 1.13213,1.09046 0.88705,1.17176 -0.34238,0.11358 z M 122.44428,189.28 c -0.10131,-0.264 -0.2804,-1.02506 -0.10994,-1.02506 0.17048,0 0.39835,0.7316 0.54566,1.02506 0.11844,0.23594 -0.0566,0.48 -0.12576,0.48 -0.0692,0 -0.20865,-0.216 -0.30996,-0.48 z m -0.40228,-1.2 c -0.12967,-0.22 -0.46217,-0.75443 -0.73888,-1.18762 -0.31295,-0.48992 -0.83721,-1.53361 -0.58698,-1.3794 0.41399,0.25513 1.97806,2.96702 1.71096,2.96702 -0.0821,0 -0.25542,-0.18 -0.3851,-0.4 z m -1.37674,-2.37383 c -0.0139,-0.2056 -0.10813,-0.6376 -0.20942,-0.96 -0.17506,-0.55719 -0.16603,-0.55789 0.18265,-0.0141 0.20174,0.31463 0.29598,0.74663 0.20942,0.96 -0.11359,0.28 -0.16441,0.28393 -0.18265,0.0141 z m -0.96,-2.53284 c 0.0154,-0.37278 -0.58914,-1.40052 -0.36645,-1.23926 0.29864,0.21627 1.31853,2.59886 1.21223,2.70519 -0.10634,0.10634 -0.85961,-1.12863 -0.84571,-1.46593 z M 119.04,181.82034 c 0,-0.14281 -0.30248,-0.58433 -0.67218,-0.98116 -0.36969,-0.39682 -1.40184,-2.91769 -1.29065,-2.94618 0.3169,-0.0812 1.16841,2.48169 1.77449,3.05829 0.56567,0.53815 0.70958,1.12871 0.52462,1.12871 -0.18495,0 -0.33628,-0.11685 -0.33628,-0.25966 z M 116.96,177.6 c -0.1215,-0.55317 -1.28769,-3.24008 -1.04497,-3.34897 0.25224,-0.11316 1.21251,2.50675 1.32495,3.06897 0.26677,1.33384 0.008,1.59236 -0.28,0.28 z m -2.08,-6.08 c 0,-0.352 0.0552,-0.64 0.12268,-0.64 0.0675,0 0.19799,0.288 0.29004,0.64 0.0921,0.352 0.3167,1.42076 0.15722,1.42076 -0.15952,0 -0.56994,-1.06876 -0.56994,-1.42076 z m 13.51018,-15.29445 c -1.25702,-1.17424 -4.0804,-5.51663 -4.57192,-7.0317 -0.75096,-2.31475 -3.27138,-6.96992 -4.49745,-8.3067 -0.68245,-0.74407 -1.24081,-1.55666 -1.24081,-1.80576 0,-1.00702 0.94089,-0.72176 2.32479,0.70483 1.4521,1.49689 3.15025,4.73671 4.72454,9.01378 0.80499,2.187 3.23063,6.80713 4.07414,7.76 0.41473,0.46851 2.07636,0.66622 1.1696,1.35341 -0.15831,0.11998 -1.49042,-1.22782 -1.98289,-1.68786 z"
         id="outline" /><path
         id="neck"
         style="fill:#171717;stroke-width:0.32"
         d="m 70.512602,115.74738 c -0.101979,0.006 -0.180714,0.0323 -0.230469,0.082 -0.158131,0.15813 0.136325,1.01618 0.679688,1.98437 0.526513,0.93817 1.211065,2.39058 1.521484,3.22656 0.310423,0.836 0.687755,1.51954 0.839844,1.51954 0.15209,0 0.277344,0.19569 0.277344,0.43359 0,0.50235 1.896861,2.57581 2.136718,2.33594 0.08873,-0.0887 1.03212,0.54177 2.097657,1.40039 2.068079,1.66648 3.90828,2.48707 6.484375,2.89062 1.932655,0.30276 7.075203,0.10419 9.28125,-0.35937 3.238725,-0.68056 7.982537,-2.58333 9.003907,-3.61133 1.02271,-1.02935 3.95508,-6.46443 3.95508,-7.33008 0,-0.2373 0.18039,-0.62751 0.40039,-0.86719 0.22,-0.23968 -0.0642,-0.11719 -0.63086,0.27149 -0.56668,0.38868 -1.12438,0.85941 -1.24024,1.04687 -0.11585,0.18745 -1.00663,0.69324 -1.97851,1.12305 -0.97188,0.42982 -2.53636,1.4667 -3.476564,2.30469 -1.915618,1.70737 -4.699243,2.79651 -7.953125,3.11328 -1.51475,0.14746 -2.512755,0.0145 -4.72461,-0.63281 -3.202012,-0.93703 -3.617659,-1.1327 -5.595703,-2.64258 -0.791905,-0.60447 -2.501354,-1.59763 -3.798828,-2.20508 -1.297473,-0.60746 -2.827822,-1.55727 -3.40039,-2.11133 -1.078418,-1.04356 -2.934583,-2.01328 -3.648438,-1.97265 z" /><path
         id="shoes"
         style="fill:#171717;stroke-width:0.32"
         d="m 122.73721,244.66534 c -1.00158,0.0389 -2.34868,0.93679 -3.99219,2.66211 -2.60212,2.73168 -3.14028,3.00112 -5.87109,2.94532 -3.89162,-0.0795 -6.68368,-0.66413 -8.97852,-1.88086 -0.37515,-0.1989 0.0644,2.7087 0.6543,4.32617 0.32725,0.89737 1.07039,1.8492 2.19336,2.80859 0.93428,0.79817 1.78051,1.70358 1.87891,2.01367 0.232,0.73096 3.22106,2.53908 5.16797,3.125 0.83648,0.25175 2.90046,0.67071 4.58593,0.93165 1.68547,0.26093 3.78407,0.67913 4.66407,0.92968 0.87999,0.25055 1.72469,0.51589 2.40039,0.45899 1.18241,0.004 4.13256,-1.37032 5.0332,-2.82617 0.72777,-1.17641 0.48766,-4.43146 -0.26367,-6.65625 -0.56775,-1.68121 -0.95255,-2.31393 -2.7168,-3.875 -1.14387,-1.01214 -2.38061,-2.30979 -2.67578,-2.97657 -0.48992,-1.1067 -0.81432,-1.47142 -1.19531,-1.73828 -0.25581,-0.17917 -0.55091,-0.26101 -0.88477,-0.24805 z m -35.443358,1.51368 c -0.323371,0.11078 -1.301618,1.11888 -1.636719,1.41992 -1.518202,1.36385 -3.669926,2.58079 -5.490234,3.10742 -1.052108,0.3044 -2.276813,0.79849 -2.720703,1.09766 -1.014758,0.68393 -3.703265,1.44284 -4.966797,1.40234 -1.182009,-0.0379 -5.828896,-1.62411 -8.046875,-2.74805 -0.902559,-0.45736 -1.94392,-1.23352 -2.314453,-1.72461 l -0.673828,-0.89453 -0.972657,1.1211 c -2.083069,2.39493 -2.519124,3.14036 -3.544921,6.08007 -1.454454,4.16818 -1.510499,7.05046 -0.167969,8.65821 0.505778,0.6057 1.18014,1.24587 1.498047,1.42187 1.090044,0.60347 5.677892,-0.003 9.117187,-1.20508 1.767361,-0.6176 3.780581,-1.42684 4.47461,-1.79882 0.694027,-0.37197 1.439795,-0.67578 1.65625,-0.67578 1.234647,0 3.812715,-1.30671 6.371093,-3.22852 3.18168,-2.39002 3.629426,-2.92776 5.095703,-6.10547 0.541181,-1.17284 1.143864,-2.3244 1.339844,-2.56055 0.57665,-0.69481 1.176355,-3.19538 1.078125,-3.35546 -0.01562,-0.0255 -0.04951,-0.0276 -0.0957,-0.0117 z" /></g></g></svg>
