<?xml version="1.0" encoding="UTF-8" standalone="no"?>
<!-- Created with Inkscape (http://www.inkscape.org/) -->

<svg
   version="1.1"
   id="svg668"
   width="192"
   height="288"
   viewBox="0 0 192 288"
   xmlns="http://www.w3.org/2000/svg"
   xmlns:svg="http://www.w3.org/2000/svg">
  <defs
     id="defs672" />
  <g
     id="g674"
     transform="translate(2)">
    <g
       id="g678"
       transform="translate(2.3538044,0.70761668)">
      <path
         id="skin"
         style="fill:#f0d6bb;stroke-width:0.32"
         d="m 137.19307,171.29434 c -0.42111,0.0709 -0.95199,0.47261 -1.60547,1.20898 -0.69108,0.77874 -1.51301,1.92087 -1.82812,2.53711 -0.31511,0.61623 -1.1285,1.64397 -1.80664,2.28516 -0.67815,0.64118 -1.4176,1.39686 -1.64454,1.67968 -0.57909,0.7226 -1.88297,0.62544 -3.73437,-0.28125 -0.87253,-0.4273 -1.62979,-0.73348 -1.68359,-0.67968 -0.22611,0.22614 -0.48657,8.17003 -0.29297,8.9414 0.2492,0.99289 1.44097,1.68204 3.41797,1.97657 0.78338,0.11671 1.48529,0.2726 1.55859,0.3457 0.47897,0.47726 3.43382,0.0286 5.21875,-0.79102 2.35299,-1.08046 2.60948,-1.3492 4.31641,-4.51758 1.68592,-3.13 1.89495,-4.43378 1.09765,-6.88281 -0.80973,-2.4872 -1.44035,-4.11605 -1.66992,-4.3164 -0.10084,-0.088 -0.27741,-0.41458 -0.39258,-0.72657 -0.21766,-0.58963 -0.53006,-0.85023 -0.95117,-0.77929 z m -84.404296,3.74609 c -0.355456,0 -0.949219,2.66795 -0.949219,4.26758 0,2.36954 1.646977,7.26378 2.785156,8.27734 0.745839,0.66421 3.585441,1.53488 6.015625,1.84375 1.055926,0.1342 2.102307,0.26301 2.326172,0.28711 0.721129,0.0776 4.554334,-1.82154 4.552734,-2.25586 -0.003,-0.85426 -1.258245,-8.92842 -1.43164,-9.20898 -0.09881,-0.15988 -1.025648,0.29302 -2.058594,1.00586 -1.794112,1.23813 -1.930294,1.27935 -3.042969,0.91211 -0.640576,-0.21144 -1.917105,-0.89077 -2.835937,-1.50977 -0.918832,-0.619 -2.175016,-1.38428 -2.791016,-1.69922 -0.615926,-0.31494 -1.393309,-0.87536 -1.728515,-1.24609 -0.335277,-0.37073 -0.71397,-0.67383 -0.841797,-0.67383 z m 66.097656,27.83984 c -0.12361,0 -0.60833,0.29629 -1.07617,0.65821 -1.22661,0.94889 -4.22461,3.01421 -7.69531,5.30273 -2.53034,1.66811 -6.71192,4.2018 -7.22657,4.37891 -0.17213,0.0592 0.0804,1.11473 0.56446,2.34765 0.48326,1.23176 1.02446,2.73298 1.19921,3.33594 0.61323,2.10699 1.61217,8.39642 1.8086,11.38672 0.18581,2.82872 0.25521,3.06502 1.13281,3.80273 0.51449,0.43292 1.11624,0.78711 1.33789,0.78711 0.22165,0 1.28344,0.70448 2.35742,1.56641 1.35145,1.0846 2.72113,1.82638 4.45118,2.40625 1.37412,0.46082 2.71646,0.97593 2.98046,1.14648 0.81406,0.52591 3.82985,0.39683 4.04883,-0.17382 0.50084,-1.30517 -5.22165,-9.42578 -6.64258,-9.42578 -0.33335,0 -0.60742,-0.1253 -0.60742,-0.2793 0,-0.154 -0.0827,-0.76733 -0.18554,-1.36133 -0.14158,-0.81793 -0.10476,-0.96314 0.15429,-0.59961 0.18812,0.264 0.36001,0.33616 0.38281,0.16016 0.0228,-0.176 0.0888,-0.7513 0.14649,-1.2793 0.0577,-0.528 0.2468,-1.46408 0.41992,-2.08008 0.17312,-0.616 0.48193,-1.98501 0.68555,-3.04101 0.20362,-1.056 0.4945,-2.49522 0.64648,-3.19922 0.61389,-2.84369 1.53056,-15.83985 1.11719,-15.83985 z m -45.529297,0.69532 -0.214844,2.46875 c -0.130742,1.49807 -0.0832,2.81421 0.121094,3.35156 0.185024,0.48665 0.335938,1.35253 0.335938,1.92187 0,0.56934 0.121301,1.17069 0.269531,1.33789 0.526211,0.59364 2.627244,6.75992 3.548828,10.41797 1.067161,4.2367 1.371463,8.17553 0.623047,8.04883 -0.252627,-0.0428 -0.766994,0.24586 -1.142578,0.64063 -2.211702,2.3236 -2.87043,3.11594 -3.800782,4.57031 -0.567964,0.88799 -1.247198,1.79184 -1.509765,2.00976 -0.665004,0.55196 -1.908214,3.54327 -1.699219,4.0879 0.429367,1.11818 5.621858,-0.12751 7.957031,-1.91016 1.49112,-1.13826 4.352696,-2.98065 5.701172,-3.66992 0.454761,-0.23243 1.678347,-1.18342 2.71875,-2.11328 l 1.892578,-1.69336 0.115235,-10.53516 c 0.09444,-8.59515 0.03606,-10.59644 -0.31836,-10.87305 -0.57382,-0.4479 -2.646806,-1.49504 -4.427734,-2.23828 -0.78751,-0.32866 -1.882698,-0.90396 -2.433594,-1.27734 -0.550822,-0.37338 -1.756484,-0.92966 -2.679687,-1.23633 -0.923199,-0.30666 -2.438404,-1.17702 -3.367188,-1.93359 z" />
      <path
         id="buttons"
         style="fill:#c339c7;stroke-width:0.32"
         d="m 91.206742,130.41348 c -1.372718,0 -1.793897,0.65828 -2.003906,2.52148 -0.151562,1.34465 -0.07124,1.66509 0.576172,2.3125 0.924026,0.92409 1.413675,0.94062 2.498047,0.0899 0.699853,-0.55053 1.121681,-0.88878 1.113281,-2.13086 -0.01273,-1.87144 -0.846141,-2.79297 -2.183594,-2.79297 z m 0.423829,15.50586 c -0.640851,0 -0.75,0.15961 -0.75,1.09375 0,0.6016 0.08653,1.32316 0.193359,1.60156 0.407417,1.06171 2.572266,0.62612 2.572266,-0.55664 0,-1.0546 -1.057132,-2.13867 -2.015625,-2.13867 z m 0.986328,12.69531 c -1.149361,-0.0756 -2.408302,1.054 -2.117188,2.41601 0.119788,0.56053 0.600116,1.22922 0.777344,1.44922 0.534595,0.66367 1.670245,0.72607 2.226562,-0.12304 0.662391,-1.01095 0.834467,-2.48769 0.164063,-3.22852 -0.2977,-0.32896 -0.667686,-0.48848 -1.050781,-0.51367 z m 41.222651,8.12891 c -0.1343,0.0197 -0.31619,0.0874 -0.55664,0.17968 -0.46802,0.1796 -0.68066,1.73145 -0.29101,2.1211 0.30516,0.30517 1.08405,-0.10918 1.12305,-0.59766 0.11113,-1.39338 0.12864,-1.76218 -0.2754,-1.70312 z m -77.728511,2.80078 c -0.341674,0.0338 -0.61914,0.35732 -0.61914,0.95312 0,0.81067 0.322492,1.60547 0.998047,1.60547 0.919408,0 1.123539,-0.6819 0.626953,-1.77148 -0.25762,-0.56542 -0.664148,-0.82096 -1.00586,-0.78711 z" />
      <path
         id="shirt"
         style="fill:#9241be;stroke-width:0.32"
         d="m 113.84737,99.434961 -1.03516,1.937499 c -1.874,3.50745 -3.52927,5.63287 -7.42383,9.54102 -3.58601,3.59852 -3.5402,3.47066 -2.18945,6.16211 0.61649,1.22839 1.12109,2.29459 1.12109,2.37109 0,0.0765 0.65403,1.53803 1.45313,3.24805 0.85908,1.83837 1.61095,3.05887 1.83984,2.98437 0.21291,-0.0693 0.58535,-0.5475 0.82813,-1.0625 0.24277,-0.515 0.69517,-1.22417 1.00586,-1.57617 0.6787,-0.76895 3.17639,-5.64002 3.34765,-6.5293 0.0668,-0.34662 0.2566,-0.89151 0.42383,-1.21093 0.16723,-0.31943 0.5496,-1.66047 0.84961,-2.98047 0.54365,-2.39179 0.53546,-4.10935 -0.0312,-10.68164 z m -46.187503,2.708989 c -0.05517,0.0255 -0.105587,0.11761 -0.148437,0.27539 -0.520765,1.91688 -3.015617,4.43186 -5.603516,6.15625 -1.760619,1.17318 -4.28063,4.64795 -5.615234,7.23242 -0.823189,1.59416 -0.908028,3.25758 -0.328125,6.43164 0.209034,1.144 0.512805,3.93405 0.675781,6.19726 0.162976,2.26387 0.581897,5.28727 0.931641,6.71875 1.806622,7.39827 2.035294,9.06428 1.857422,13.60743 -0.09381,2.39547 -0.317906,4.86056 -0.496094,5.47656 -0.178192,0.616 -0.49369,2.416 -0.701172,4 -0.85045,6.49254 -0.82128,6.80858 0.818359,9.12109 2.255835,3.18241 3.0536,3.53639 5.023438,2.23047 2.340871,-1.55189 3.054246,-2.51942 3.421875,-4.63086 0.183859,-1.056 0.550866,-2.9898 0.814453,-4.29687 0.2636,-1.30706 0.390809,-2.92667 0.283203,-3.59961 -0.146928,-0.91882 -0.085,-1.22642 0.246094,-1.23242 0.242496,-0.005 0.711221,-0.61592 1.041016,-1.35938 0.32973,-0.74346 0.920367,-1.85938 1.314453,-2.47851 0.394018,-0.61978 1.049232,-2.06096 1.455078,-3.20118 0.405778,-1.14022 0.873482,-2.24942 1.039062,-2.46679 0.165642,-0.21737 0.321063,-1.39484 0.345703,-2.61524 l 0.04492,-2.21875 -2.294922,-2.25195 c -2.480833,-2.4347 -3.668919,-4.01309 -5.08789,-6.75977 -0.833611,-1.6136 -0.911248,-2.05303 -0.923828,-5.28125 l -0.01367,-3.52148 1.412109,-2.7832 c 1.244425,-2.45491 2.267578,-3.72171 2.267578,-2.80469 0,0.17048 -0.121285,0.31055 -0.269531,0.31055 -0.148243,0 -0.831839,1.18862 -1.519531,2.64062 -1.18457,2.50102 -1.248835,2.79972 -1.240235,5.67969 0.005,1.672 0.114621,3.55647 0.244141,4.1875 0.330275,1.60913 2.433555,4.83272 5.333984,7.83984 2.65532,2.75293 3.072621,3.29979 2.789063,5.35547 -0.254131,1.84235 -1.75616,6.21053 -2.603516,7.57227 -0.384767,0.61844 -1.005024,1.13248 -1.123047,1.39648 -0.117957,0.264 -0.344716,0.84147 -0.503906,1.10547 -1.308981,2.171 -1.463881,5.1488 -0.457031,5.41211 0.278803,0.0729 0.760033,0.60118 1.068359,1.17383 0.30839,0.57265 0.984007,1.29086 1.5,1.5957 0.516058,0.30484 1.079266,0.81782 1.251953,1.14062 0.380857,0.71163 4.216531,3.58691 5.769532,4.32422 2.005595,0.9522 2.560547,1.28503 2.560547,1.53321 0,0.13427 0.26958,0.24218 0.599609,0.24218 0.330026,0 1.735185,0.52407 3.121094,1.16407 1.385841,0.63999 2.95058,1.28073 3.478515,1.42382 0.528,0.14306 1.808282,0.22183 2.84375,0.17383 1.620825,-0.0751 1.96874,-0.20601 2.50586,-0.94336 0.343084,-0.47107 0.828166,-0.85742 1.076172,-0.85742 0.375729,0 0.429808,-0.97346 0.330078,-5.83984 -0.100822,-4.92021 -0.07422,-5.36198 0.164062,-2.80078 0.155556,1.67135 0.34119,4.1214 0.41211,5.4414 0.16588,3.08885 0.27123,3.51368 1.013671,4.06055 0.648701,0.47775 4.347543,0.54371 5.255863,0.0898 0.264,-0.13117 1.12792,-0.32734 1.91992,-0.43554 0.792,-0.1082 1.82977,-0.48431 2.30664,-0.83594 0.47688,-0.35164 1.07753,-0.64063 1.33398,-0.64063 0.25647,0 0.51357,-0.10706 0.57227,-0.24023 0.0587,-0.13317 1.00742,-1.01952 2.10742,-1.96875 1.1,-0.94923 2,-1.92059 2,-2.1582 0,-0.23761 0.20469,-0.43164 0.45508,-0.43164 0.99428,0 5.87137,-7.99053 6.77539,-11.09961 l 0.50195,-1.72461 -1.21093,-1.34766 c -0.66518,-0.74131 -1.67409,-1.70844 -2.24219,-2.14844 -0.56811,-0.44 -1.11093,-1.01529 -1.20703,-1.27929 -0.096,-0.264 -0.31181,-0.69694 -0.48047,-0.96094 -1.04739,-1.6395 -1.69764,-3.64163 -1.52539,-4.70313 0.22351,-1.37665 3.0235,-7.15943 3.76562,-7.77734 0.27427,-0.22836 1.92016,-2.85222 2.54883,-4.0625 0.70679,-1.36059 1.01978,-4.93123 0.63477,-7.23828 -0.40769,-2.4429 -1.74992,-5.13358 -3.44532,-6.90234 -0.75183,-0.78466 -1.31956,-1.47546 -1.25976,-1.53516 0.31846,-0.31846 3.03891,2.59854 3.67383,3.93945 0.40641,0.85831 0.97474,1.99153 1.26367,2.51953 0.34222,0.62537 0.57055,1.99761 0.65625,3.93555 l 0.13281,2.97461 -1.39062,2.78516 c -0.76412,1.53115 -1.77657,3.28829 -2.25196,3.90429 -0.4754,0.616 -1.45209,2.29489 -2.16992,3.73047 -2.23666,4.47309 -1.66765,7.05772 2.43555,11.04883 3.05594,2.97309 3.02546,2.89178 2.13281,5.51562 -0.41477,1.21948 -0.75391,2.52122 -0.75391,2.89258 0,0.65484 0.82418,3.28076 2.16211,6.89258 0.35858,0.968 0.90616,2.57259 1.21875,3.56641 0.51772,1.64597 0.68288,1.84601 1.83594,2.22656 1.23044,0.40608 1.28795,0.3903 2.06055,-0.52734 0.43715,-0.51958 1.62089,-1.80924 2.63086,-2.86524 2.38531,-2.49468 3.85739,-5.67132 3.19922,-6.90234 -0.17655,-0.3299 -0.45877,-1.32603 -0.62696,-2.21289 -0.16819,-0.88685 -0.67908,-2.40373 -1.13672,-3.3711 -1.88286,-3.98075 -1.77076,-8.53513 0.50977,-20.47461 1.40977,-7.38038 1.61224,-11.39407 0.76953,-15.29492 -0.47019,-2.17652 -1.40401,-4.82841 -1.62305,-4.60937 -0.0552,0.0552 -1.24784,-1.01745 -2.65039,-2.38282 -2.12779,-2.07139 -2.85005,-2.57042 -4.36133,-3.00976 -1.5743,-0.45785 -2.93828,-1.16381 -6.94921,-3.60547 -0.48446,-0.29487 -0.95151,-0.75315 -1.03711,-1.01758 -0.0856,-0.26444 -0.44486,-0.66176 -0.79883,-0.88281 -0.63357,-0.39591 -0.64258,-0.32915 -0.64258,4.36523 0,4.25714 -0.0879,5.03432 -0.82422,7.28125 -0.45341,1.38403 -1.01618,2.94857 -1.25,3.47657 -0.23382,0.528 -0.6468,1.46472 -0.91797,2.08007 -0.57862,1.31442 -1.45379,2.76866 -2.1289,3.53907 -0.264,0.30126 -0.83275,1.1425 -1.26563,1.86914 -1.06504,1.78779 -1.22509,1.70362 -2.67187,-1.40821 -0.24548,-0.52735 -0.67257,-1.39192 -0.95118,-1.91992 -0.8317,-1.57742 -2.4707,-5.2875 -2.4707,-5.5957 0,-0.15771 -0.12673,-0.36348 -0.28125,-0.45898 -0.4595,-0.28398 -2.402611,2.89723 -3.79492,6.21484 -0.485565,1.15696 -2.337762,3.61341 -2.558594,3.39258 -0.103251,-0.10325 -0.399019,0.11434 -0.658203,0.48437 -0.28032,0.40022 -0.34919,0.75685 -0.167969,0.87891 0.167619,0.11284 0.486213,1.23462 0.707032,2.49414 0.348585,1.98865 0.335851,2.41781 -0.101563,3.26367 -0.161452,0.37498 -0.279602,0.71806 -0.412109,1.07227 -0.07089,-0.35357 -0.12363,-0.67611 -0.210938,-1.05664 0.796053,-2.21394 0.234423,-4.47671 -1.833984,-7.375 -0.861753,-1.20779 -1.56836,-2.41243 -1.56836,-2.67579 0,-0.26336 -0.111949,-0.47851 -0.25,-0.47851 -0.137989,0 -0.522052,-0.46706 -0.853515,-1.03906 -0.331462,-0.572 -0.940376,-1.472 -1.353516,-2 -0.413071,-0.528 -0.863113,-1.10525 -0.998047,-1.28125 -0.134935,-0.176 -0.576979,-0.8604 -0.982422,-1.52149 -0.77965,-1.27137 -1.322265,-1.31813 -1.322265,-0.11523 0,0.84102 -0.915306,3.73576 -1.322266,4.18164 -0.152608,0.1672 -0.277344,0.51154 -0.277344,0.76562 0,0.62304 -2.976311,6.76558 -3.279296,6.76758 -0.132,10e-4 -0.240235,-0.20294 -0.240235,-0.45508 0,-0.25214 -0.292275,-0.551 -0.648437,-0.66406 -0.938447,-0.29787 -4.422179,-3.61062 -5.015625,-4.76953 -0.278419,-0.54366 -0.614405,-1.06044 -0.748047,-1.14844 -0.24671,-0.16245 -2.228516,-4.33438 -2.228516,-4.6914 0,-0.10708 -0.493446,-1.16388 -1.097656,-2.34961 -1.249494,-2.45191 -2.511516,-7.11508 -2.779297,-10.19532 -0.09878,-1.13563 -0.297371,-1.65674 -0.462891,-1.58007 z m 1.09961,2.01562 0.199219,1.43945 c 0.405756,2.95356 1.103581,5.75285 2.34375,8.39454 3.955276,8.42461 5.157704,9.99697 8.027343,11.7832 0.884667,0.55062 1.554387,0.9556 1.759766,0.78515 0.880191,-0.72989 3.830601,-7.67927 4.082031,-9.7539 0.167268,-1.38019 -0.0237,-1.60742 -0.621094,-1.60742 -0.361781,0 -0.712216,0.16399 -0.779296,0.36523 -0.0915,0.27451 -0.291747,0.27451 -0.804688,0 -0.376016,-0.20124 -0.982132,-0.36523 -1.345703,-0.36523 -0.363571,0 -0.660156,-0.16772 -0.660156,-0.37305 0,-0.20538 -0.08393,-0.29107 -0.185547,-0.18945 -0.270467,0.27046 -3.980083,-1.63633 -4.175781,-2.14649 -0.09159,-0.23868 -0.483768,-0.51363 -0.873047,-0.61133 -0.980981,-0.24623 -3.680637,-2.89861 -4.210938,-4.13671 -0.240838,-0.56259 -0.958539,-1.59874 -1.595703,-2.30274 z m 22.277344,25.9375 c 0.433078,0 0.669921,0.10882 0.669921,0.2793 0,0.17028 0.35752,0.29207 0.650391,0.17969 0.104099,0.1162 -0.0062,0.29709 0.556641,0.45703 0.608092,0 1.263742,2.09009 0.980468,3.21875 -0.112514,0.44854 -0.416603,0.76322 -0.908203,1.11328 -2.042577,1.45453 -4.611523,0.46928 -4.21875,-1.9043 0.101963,-0.61606 0.187553,-1.34628 0.189453,-1.62109 0.0056,-0.7888 1.215631,-1.72266 2.080079,-1.72266 z m 0.701171,15.47852 c 0.902496,0 2.105469,1.25473 2.105469,2.15234 0,0.40022 -0.167612,0.78568 -0.552734,1.14453 -1.327385,1.23671 -2.353827,0.84173 -2.988281,-1.28711 -0.27455,-0.92112 0.560193,-2.00976 1.435546,-2.00976 z m 0.740235,12.54492 c 0.398906,-0.0127 0.768597,0.18986 1.216797,0.60742 1.072354,0.9991 1.194101,2.04238 0.388672,3.3457 -0.995705,1.61119 -1.670479,1.89738 -2.652344,1.125 -0.557341,-0.43841 -0.864433,-1.0829 -1.023438,-2.14257 -0.211218,-1.40893 -0.164041,-1.56735 0.681641,-2.24415 0.561759,-0.44893 0.989701,-0.67875 1.388672,-0.6914 z m 41.976563,3.16406 c -0.11835,0.003 -0.57038,0.8328 -1.00586,1.8418 -0.44891,1.04013 -1.48857,2.54969 -2.40039,3.48828 -0.88452,0.9105 -2.14127,2.25692 -2.79297,2.99023 -1.07444,1.20897 -1.28354,1.31142 -2.24023,1.10743 -0.5803,-0.12413 -1.25739,-0.38867 -1.50391,-0.5879 -0.37619,-0.30404 -0.41748,-0.13177 -0.25391,1.07618 0.10719,0.79155 0.28959,2.40322 0.4043,3.58007 0.19602,2.01217 0.27832,2.18741 1.37305,2.92383 0.64063,0.43094 1.38053,0.86138 1.64453,0.95508 1.26228,0.44788 1.94509,0.16642 3.41797,-1.4082 0.83799,-0.89588 1.85336,-2.20936 2.25586,-2.91797 0.4025,-0.70862 1.47362,-2.0568 2.3789,-2.99609 2.00026,-2.07684 2.82536,-3.28879 2.81836,-4.13672 -0.006,-0.77101 -0.88758,-1.90867 -1.70117,-2.19532 -0.32471,-0.11441 -0.66601,-0.49653 -0.75781,-0.84765 -0.0918,-0.35111 -0.282,-0.63672 -0.42383,-0.63672 -0.14182,0 -0.42365,-0.50574 -0.62695,-1.12109 -0.2033,-0.616 -0.46759,-1.11824 -0.58594,-1.11524 z m -79.302735,2.63477 c -0.09262,-0.009 -0.178537,-0.001 -0.255859,0.0293 -0.375194,0.14398 -0.496747,0.68157 -0.498047,2.20118 -10e-4,1.10487 -0.1594,2.87368 -0.351563,3.92968 -0.682659,3.7518 -0.63905,4.30209 0.435547,5.48242 0.539158,0.59249 1.218283,1.07813 1.507813,1.07813 0.289461,0 1.020761,0.37489 1.626953,0.83398 0.606127,0.45909 1.678877,1.10456 2.382812,1.4336 1.71861,0.8033 2.569128,1.07646 3.595703,0.125 0.475181,-0.44038 1.288123,-1.10491 1.806641,-1.37305 0.854792,-0.44205 0.840561,-0.87278 0.863281,-2.38867 0.01379,-0.91948 0.08786,-2.71424 0.166016,-3.99024 0.07816,-1.27535 0.02744,-2.32031 -0.113281,-2.32031 -0.140723,0 -0.701593,0.39491 -1.246094,0.87891 -0.54457,0.484 -1.186746,0.92823 -1.427735,0.98633 -0.240924,0.0581 -0.511892,0.21534 -0.601562,0.34961 -0.240912,0.36076 -1.97724,-0.45967 -2.779297,-1.3125 -1.691895,-1.80039 -2.221049,-2.476 -2.785156,-3.55664 -0.698855,-1.33954 -1.677893,-2.32127 -2.326172,-2.38672 z m 78.537105,2.54101 c 0.21635,0.0163 0.40751,0.0969 0.53125,0.25781 0.54939,0.71459 0.7097,1.00124 0.41016,1.78907 -0.62308,1.63883 -2.4707,1.03248 -2.4707,-0.89649 0,-0.67011 0.88026,-1.19931 1.52929,-1.15039 z m -77.878902,2.67188 c 0.488638,-0.0262 1.008059,0.20898 0.974609,0.61718 -0.03379,0.41245 0.170902,0.51815 0.429688,0.25 0.149301,-0.155 0.284302,-0.27876 0.294922,0.006 0.0084,0.2172 0.111384,0.62876 0.230469,0.91407 0.126559,0.30337 1.53e-4,0.73422 -0.304688,1.03906 -0.667084,0.66719 -1.086502,0.4284 -1.304687,0.11719 -0.252301,-0.35977 -0.653557,-0.91694 -0.660157,-0.61914 -0.0078,0.35407 0.168188,0.65316 -0.21875,0.33203 -0.50254,-0.41712 -0.564835,-1.68626 -0.162109,-2.30664 0.145379,-0.22395 0.42752,-0.33388 0.720703,-0.34961 z" />
      <path
         style="display:inline;fill:#af2427;stroke-width:0.32"
         d="m 64.4,251.51003 c -0.684922,-0.27531 -0.719654,-0.4575 -0.712883,-3.73972 0.006,-2.93126 0.101251,-3.57066 0.632883,-4.25031 0.344173,-0.44 0.62897,-1.19632 0.632883,-1.6807 0.01741,-2.15527 4.624551,-8.23617 7.271367,-9.59738 2.951411,-1.51786 3.858867,-2.05584 4.57248,-2.71074 1.022592,-0.93846 1.230867,-0.92131 1.038403,0.0855 -0.08587,0.44917 -1.136755,1.81895 -2.335315,3.04395 -1.19856,1.225 -2.265821,2.5002 -2.37169,2.83376 -0.105869,0.33357 -0.403008,0.68727 -0.66031,0.786 C 72.210518,236.37913 72,236.64834 72,236.87864 c 0,0.2303 -0.408602,0.86609 -0.908003,1.41286 -0.966695,1.0584 -1.8536,3.60157 -1.540528,4.41742 0.286198,0.74582 3.023203,0.6213 5.393974,-0.24539 1.108007,-0.40506 3.201495,-1.55706 4.652199,-2.56 1.450704,-1.00294 2.782704,-1.82353 2.96,-1.82353 0.177296,0 0.322358,-0.12839 0.322358,-0.28531 0,-0.15692 0.324925,-0.36686 0.722058,-0.46653 0.684083,-0.1717 1.742518,-0.93542 3.86176,-2.78648 0.606876,-0.53008 1.007609,-1.25348 1.137686,-2.05372 0.110445,-0.67947 0.398912,-1.30143 0.64104,-1.38214 0.354243,-0.11808 0.402634,0.22056 0.247741,1.73372 -0.251821,2.46006 -0.361098,3.10607 -0.58969,3.48609 -0.104006,0.1729 -0.380438,1.35837 -0.614291,2.63437 -0.233853,1.276 -0.537939,2.32 -0.675747,2.32 -0.137805,0 -0.253043,0.252 -0.256087,0.56 -0.0057,0.57883 -1.298755,2 -1.819683,2 -0.162256,0 -1.041254,0.36 -1.953328,0.8 -0.912077,0.44 -1.875027,0.8 -2.139891,0.8 -0.264861,0 -0.481568,0.144 -0.481568,0.32 0,0.176 -0.190899,0.32 -0.424221,0.32 -0.233318,0 -0.762419,0.36 -1.175779,0.8 -0.41336,0.44 -0.942461,0.8 -1.175779,0.8 -0.233322,0 -0.424221,0.13043 -0.424221,0.28984 0,0.47946 -4.031926,2.21312 -5.671213,2.43852 -1.650688,0.22696 -3.436147,0.70215 -4.324445,1.15092 -0.701212,0.35425 -2.423193,0.32904 -3.364342,-0.0493 z m 56.88,-4.48581 c -0.792,-0.32418 -1.9994,-0.59725 -2.6831,-0.60682 -1.6474,-0.0231 -5.39754,-0.69061 -5.7809,-1.02903 -0.1672,-0.14761 -0.54378,-0.26837 -0.83684,-0.26837 -0.29307,0 -0.87627,-0.26694 -1.296,-0.59321 -0.67883,-0.52765 -4.45254,-1.47007 -5.25375,-1.31203 -1.00718,0.19866 -1.48789,-0.14484 -2.14777,-1.53476 -0.63043,-1.32789 -0.71617,-1.98826 -0.67835,-5.2249 0.046,-3.94201 0.26913,-4.72625 1.89354,-6.65674 0.46203,-0.5491 0.97126,-0.99836 1.13161,-0.99836 0.16036,0 0.29156,0.95549 0.29156,2.12331 0,1.8946 0.0929,2.20936 0.86211,2.92227 0.47415,0.43944 1.30215,0.98497 1.84,1.2123 0.53784,0.22733 1.68522,1.07542 2.54975,1.88464 0.86452,0.80923 1.94452,1.56006 2.4,1.66852 0.45547,0.10846 0.97214,0.30055 1.14814,0.42687 0.176,0.12631 0.608,0.3103 0.96,0.40888 0.352,0.0986 1.42997,0.47937 2.39548,0.84621 2.35497,0.89478 4.65813,0.89847 5.13456,0.008 0.50704,-0.94741 0.12659,-2.22797 -1.34456,-4.52567 -1.28506,-2.00705 -1.66597,-2.46152 -4.1033,-4.89556 -1.2443,-1.24263 -1.27377,-1.32205 -1.00922,-2.72 0.22321,-1.17955 0.32024,-1.32425 0.53643,-0.8 0.14516,0.352 0.35997,0.712 0.47735,0.8 0.85421,0.64038 4.49808,5.67246 4.80784,6.63948 0.2115,0.66028 0.94275,1.93382 1.62499,2.83008 0.68223,0.89625 1.24043,1.74124 1.24043,1.87775 0,0.13651 0.432,0.74022 0.96,1.34158 0.528,0.60136 0.96,1.36959 0.96,1.70718 0,0.3376 0.16228,0.96997 0.36061,1.40527 1.28069,2.81081 -2.62002,4.71846 -6.4848,3.13654 z"
         id="shoes" />
      <path
         id="skirt"
         style="display:inline;fill:#24221f;stroke-width:0.32"
         d="m 70.396196,154.82559 c -0.01724,0.0147 -0.02531,0.0749 -0.01953,0.0566 0.006,-0.0191 0.01301,-0.0377 0.01953,-0.0566 z m -1.748047,1.07031 c -0.0082,0.007 -0.01218,0.0194 -0.01953,0.0273 0.0067,-0.009 0.01289,-0.018 0.01953,-0.0273 z m 50.302731,1.33594 c -1.80942,3.47042 -4.5021,7.56836 -5.21484,7.56836 -0.25039,0 -0.45508,0.19403 -0.45508,0.43164 0,0.23761 -0.9,1.20897 -2,2.1582 -1.1,0.94923 -2.04872,1.83558 -2.10742,1.96875 -0.0587,0.13317 -0.3158,0.24023 -0.57227,0.24023 -0.25645,0 -0.8571,0.28899 -1.33398,0.64063 -0.47687,0.35163 -1.51464,0.72774 -2.30664,0.83594 -0.792,0.1082 -1.65592,0.30437 -1.91992,0.43554 -0.90832,0.45133 -4.607162,0.38397 -5.255863,-0.0898 -0.742406,-0.54687 -0.847826,-0.9717 -1.013671,-4.06055 -0.07092,-1.32 -0.256554,-3.7704 -0.41211,-5.4414 -0.05067,-0.54466 -0.0868,-0.87591 -0.11914,-1.13477 -0.02792,0.0157 -0.0568,0.0292 -0.08594,0.0391 -0.01637,0.50368 -0.0057,1.61693 0.04102,3.89649 0.09973,4.86603 0.04572,5.83984 -0.330078,5.83984 -0.248006,0 -0.740544,0.39686 -1.09375,0.88086 -0.610611,0.83634 -0.766199,0.8777 -3.146485,0.8457 -2.230031,-0.03 -2.814308,-0.17819 -5.335937,-1.35937 -1.557424,-0.72949 -3.106931,-1.32813 -3.441407,-1.32813 -0.334377,0 -0.607421,-0.10791 -0.607421,-0.24218 0,-0.24818 -0.555022,-0.58101 -2.560547,-1.53321 -1.552966,-0.73731 -5.388675,-3.61259 -5.769532,-4.32422 -0.172652,-0.3228 -0.735895,-0.83578 -1.251953,-1.14062 -0.515958,-0.30484 -1.19161,-1.02305 -1.5,-1.5957 -0.308291,-0.57265 -0.789556,-1.10093 -1.068359,-1.17383 -0.205086,-0.0536 -0.352324,-0.26728 -0.451172,-0.5625 -0.09538,0.0118 -0.189908,0.0284 -0.283203,0.0527 -0.148418,0.031 -0.296426,0.063 -0.447266,0.0801 -0.125377,0.0134 -0.250971,0.0237 -0.376953,0.0293 -0.055,0.49512 -0.125331,1.00167 -0.220703,1.47461 -0.263587,1.30707 -0.630593,3.24087 -0.814453,4.29687 -0.195778,1.12443 -0.498534,1.92354 -1.083984,2.66016 0.001,0.008 0.0012,0.0159 0.002,0.0234 0.0045,0.0746 0.0099,0.14875 0.02148,0.22265 0.01584,0.0988 0.02931,0.19708 0.03711,0.29688 0.0068,0.0929 0.0078,0.18679 0.01953,0.27929 0.01766,0.10838 0.0417,0.21506 0.05469,0.32422 0.01542,0.11712 0.03148,0.23421 0.04492,0.35157 0.02551,0.2226 -0.04338,0.37116 -0.142578,0.4375 0.02736,0.42604 0.02487,1.03226 -0.01758,1.7246 -0.07816,1.276 -0.152226,3.07076 -0.166016,3.99024 -0.0098,0.65236 -0.04421,1.03463 -0.134765,1.32422 0.04484,0.0669 0.07649,0.15988 0.08789,0.27929 0.01106,0.11631 0.0129,0.23287 0.01563,0.34961 0.0026,0.11349 0.0031,0.22633 0.0039,0.33985 5.45e-4,0.0887 0.0018,0.17692 0.002,0.26562 1.17e-4,0.0948 -1.7e-5,0.19036 0,0.28516 1.4e-5,0.0936 -4e-6,0.18765 0,0.28125 2e-6,0.0754 -10e-7,0.14922 0,0.22461 v 0.20312 0.16602 c 0.33569,1.65466 1.128004,6.79434 1.238281,8.09961 0.03857,0.0506 0.07426,0.11483 0.101562,0.19531 0.05179,0.15267 0.07751,0.31132 0.09766,0.4707 0.01811,0.15966 0.0267,0.31997 0.0332,0.48047 5.4e-4,0.11092 0.0089,0.22213 0.02344,0.33203 0.0088,0.0539 0.01872,0.10835 0.02734,0.16211 0.551005,-0.0412 0.706597,0.35072 0.712891,1.25782 0.0086,1.23356 1.667824,7.20873 2.626953,9.46289 0.508057,1.19415 0.853228,2.28524 0.767578,2.42382 -0.08565,0.13859 0.144118,0.50716 0.509765,0.82032 0.176145,0.15082 0.300019,0.2847 0.388672,0.45117 0.01211,0.004 0.0254,0.009 0.03906,0.0156 0.08885,0.0437 0.169204,0.10432 0.246094,0.16602 0.0633,0.0475 0.12161,0.0989 0.18164,0.15039 0.0378,0.0398 0.07976,0.0754 0.121094,0.11133 l 0.002,-0.0137 1.689453,1.375 c 0.928758,0.75657 2.444015,1.62693 3.367188,1.93359 0.923177,0.30667 2.128891,0.86295 2.679687,1.23633 0.550896,0.37338 1.64611,0.94868 2.433594,1.27734 1.780876,0.74324 3.85394,1.79038 4.427734,2.23828 0.0077,0.006 0.01411,0.0261 0.02148,0.0352 0.06271,0.0162 0.117523,0.0517 0.171875,0.0859 0.0385,0.0305 0.07922,0.0566 0.121093,0.082 0.02815,0.0172 0.05813,0.0301 0.08984,0.0391 0.01096,0.004 0.02251,0.007 0.0332,0.0117 0.01649,0.008 0.03227,0.0193 0.04883,0.0273 0.02344,0.0107 0.04854,0.0191 0.07227,0.0293 0.0564,0.0288 0.113292,0.0536 0.169922,0.082 0.04803,0.0219 0.09789,0.0399 0.146484,0.0606 0.04221,0.0173 0.08498,0.033 0.126953,0.0508 0.04138,0.0139 0.08155,0.0304 0.121094,0.0488 0.04427,0.0198 0.08201,0.0522 0.125,0.0742 0.02296,0.0117 0.04214,0.0251 0.05664,0.0391 l 0.002,0.002 1.96875,0.6875 c 1.24894,0.43639 2.636993,1.03323 3.083984,1.32617 1.15669,0.75796 5.30315,0.7579 6.777345,0 0.44792,-0.23028 0.77456,-0.36686 0.95898,-0.42382 0.002,-0.0446 0.0395,-0.0948 0.1211,-0.12305 0.0384,-0.0133 0.0774,-0.028 0.11132,-0.0508 0.0476,-0.0307 0.0924,-0.0652 0.13868,-0.0977 0.0512,-0.0292 0.0992,-0.0606 0.14648,-0.0957 0.0558,-0.0374 0.11292,-0.0759 0.16992,-0.11133 0.0402,-0.0234 0.0765,-0.0516 0.10352,-0.0898 0.003,-0.005 0.007,-0.009 0.01,-0.0137 0.003,-0.0502 0.0142,-0.0839 0.0371,-0.0918 0.51465,-0.17711 4.69623,-2.7108 7.22657,-4.37891 3.47044,-2.28852 6.4687,-4.35384 7.69531,-5.30273 0.395,-0.30557 0.75765,-0.52448 0.94922,-0.59766 0.0177,-0.023 0.0461,-0.0455 0.0879,-0.0625 0.0478,-0.0195 0.0976,-0.0289 0.14258,-0.0547 0.0567,-0.0325 0.10796,-0.0738 0.16406,-0.10742 0.0498,-0.0369 0.10806,-0.0572 0.16406,-0.082 0.062,-0.0298 0.12144,-0.0663 0.18164,-0.0996 0.0536,-0.0202 0.0983,-0.0537 0.14453,-0.0859 0.10777,-0.46365 0.252,-0.70022 0.47266,-0.8789 0.36473,-0.29532 0.84022,-0.46857 1.05859,-0.38477 0.22735,0.0873 0.46112,-0.16678 0.54492,-0.5957 0.0805,-0.412 0.44169,-2.04491 0.80469,-3.62891 0.363,-1.584 0.87724,-4.15976 1.14063,-5.72461 0.19168,-1.13889 0.39314,-2.14985 0.52148,-2.65625 -0.0114,-0.0434 -0.0109,-0.0936 0,-0.16015 0.0154,-0.0719 0.0212,-0.14469 0.0508,-0.21289 0.0311,-0.0721 0.0708,-0.13975 0.10742,-0.20899 -0.0241,0.009 -0.0517,0.0246 -0.0859,0.0469 -0.0139,0.009 -0.0284,0.0174 -0.043,0.0254 -0.003,10e-4 0.005,-0.005 0.006,-0.008 0.001,-0.001 -0.003,-0.002 -0.002,-0.004 0.008,-0.017 0.0203,-0.0341 0.0293,-0.0508 0.0194,-0.0359 0.0468,-0.0916 0.0645,-0.12696 0.0625,-0.11612 0.11371,-0.23693 0.16211,-0.35937 0.0407,-0.0949 0.0847,-0.189 0.12696,-0.2832 0.017,-0.0361 0.0327,-0.073 0.0488,-0.10938 -0.0171,-0.0479 -0.0423,-0.0931 -0.0547,-0.14258 -0.17449,-0.69522 0.0209,-7.16494 0.22656,-8.61133 -1.8e-4,-0.0918 -6.7e-4,-0.18325 0,-0.27539 10e-4,-0.11241 0.003,-0.22553 0.006,-0.33789 0.005,-0.14666 0.0117,-0.29271 0.0137,-0.43945 v -0.50781 c 0,-0.14088 0.0345,-0.24761 0.0859,-0.32227 -0.12089,-0.3731 -0.18683,-0.88199 -0.26758,-1.71094 -0.11471,-1.1765 -0.29711,-2.78852 -0.4043,-3.58007 -0.12812,-0.94618 -0.12325,-1.24533 0.0625,-1.18946 -0.0164,-0.0673 -0.0309,-0.13438 -0.0391,-0.20312 -0.0164,-0.12538 -0.0363,-0.24961 -0.0527,-0.375 -0.0168,-0.0988 -0.0362,-0.19672 -0.0566,-0.29492 -0.0142,-0.0681 -0.0187,-0.12977 -0.0156,-0.18555 -0.14595,-0.28864 -0.28034,-0.67104 -0.45508,-1.22656 -0.31259,-0.99382 -0.86017,-2.59841 -1.21875,-3.56641 -1.28303,-3.46362 -2.07236,-5.97241 -2.13672,-6.75391 -0.16465,-0.0343 -0.33023,-0.0629 -0.49804,-0.082 -0.29874,-0.0318 -0.59757,-0.0622 -0.89649,-0.0918 z m 8.10157,12.77539 c -0.004,0.003 -0.008,0.005 -0.0117,0.008 0.003,4.4e-4 0.005,0.002 0.008,0.002 9.8e-4,-0.003 0.003,-0.006 0.004,-0.01 z m 2.91601,8.61523 c -0.007,0.004 -0.0136,0.0106 -0.0176,0.0176 -9.4e-4,0.002 -0.001,0.002 -0.002,0.004 0.005,-0.004 0.0107,-0.007 0.0156,-0.0117 0.002,-0.004 0.007,-0.0118 0.004,-0.01 z m -10.7793,24.31836 c -0.003,0.002 -0.005,0.004 -0.008,0.006 -0.003,0.005 -0.007,0.0103 -0.01,0.0156 0.002,-5.2e-4 0.004,8e-5 0.006,-0.002 0.003,-0.006 0.007,-0.0131 0.0117,-0.0195 z m 0.35352,0.12109 c -0.004,0.002 -0.009,0.002 -0.0137,0.004 0.003,0.003 0.005,0.007 0.008,0.01 0.001,-3.9e-4 0.003,-0.002 0.004,-0.002 5.1e-4,-0.004 -3e-4,-0.008 0.002,-0.0117 z m -0.54883,0.56641 c -0.004,6.4e-4 -0.009,-3e-4 -0.0137,0.002 8e-5,0.003 -7e-5,0.004 0,0.008 0.005,-0.004 0.009,-0.006 0.0137,-0.01 z m -16.45117,11.00781 c 0.002,0.005 0.002,0.007 0.004,0.0117 0.002,-0.003 0.004,-0.005 0.006,-0.008 -0.003,-9.4e-4 -0.006,-0.003 -0.01,-0.004 z" />
      <path
         id="outline"
         style="display:inline;fill:#24221f;stroke-width:0.32"
         d="m 112.28877,96.833399 -2.3457,2.382812 c -3.06519,3.113309 -8.87754,8.740129 -10.902343,10.554689 -1.872521,1.6783 -4.739711,3.18945 -6.052735,3.18945 -2.34661,-0.6834 -4.592715,-1.7378 -6.560546,-2.85743 -2.116791,-1.17371 -4.234427,-2.66223 -6.1875,-3.69141 -2.073772,-1.03758 -4.2879,-2.52107 -5.839844,-3.88281 -1.59268,-1.20859 -3.45261,-2.784498 -5.279297,-2.3457 -1.649608,0.74581 -1.268979,1.6784 -1.175781,2.89844 0.256931,3.33219 1.554429,8.08543 2.957031,10.83789 0.604156,1.18573 1.097656,2.24253 1.097656,2.34961 0,0.35702 1.981806,4.52895 2.228516,4.6914 0.133642,0.088 0.469628,0.60478 0.748047,1.14844 0.593386,1.15891 4.077238,4.47166 5.015625,4.76953 0.356102,0.11306 0.648437,0.41192 0.648437,0.66406 0,0.25214 0.108235,0.45604 0.240235,0.45508 0.302925,-0.002 3.279296,-6.14454 3.279296,-6.76758 0,-0.25408 0.124736,-0.59842 0.277344,-0.76562 0.40696,-0.44588 1.322266,-3.34062 1.322266,-4.18164 0,-1.2029 0.542675,-1.15614 1.322265,0.11523 0.405443,0.66109 0.847487,1.34549 0.982422,1.52149 0.134934,0.176 0.585036,0.75325 0.998047,1.28125 0.41314,0.528 1.022054,1.428 1.353516,2 0.331463,0.572 0.715586,1.03906 0.853515,1.03906 0.138051,0 0.25,0.21515 0.25,0.47851 0,0.26336 0.706666,1.46802 1.56836,2.67579 2.068287,2.89769 2.629977,5.16106 1.833984,7.375 -0.605959,1.6842 -0.560302,2.64854 0.273438,5.91796 0.419731,1.64682 0.498758,2.6635 0.310547,4 -0.347299,2.46686 -0.271268,3.73146 0.314453,5.19532 0.28465,0.71172 0.515539,2.31643 0.537109,3.72461 0.02784,1.81757 0.103581,2.21957 0.283203,1.51367 0.44464,-1.7474 0.327953,-3.60847 -0.320312,-5.1211 -0.700736,-1.6335 -0.817087,-3.54866 -0.320313,-5.28125 0.24648,-0.85816 0.172276,-1.79811 -0.320312,-4.07226 -0.772154,-3.56392 -0.794584,-4.61639 -0.134766,-5.89258 0.437414,-0.84586 0.450088,-1.27502 0.101563,-3.26367 -0.220819,-1.25952 -0.539413,-2.3813 -0.707032,-2.49414 -0.181161,-0.12206 -0.112351,-0.47869 0.167969,-0.87891 0.259184,-0.37003 0.554952,-0.58762 0.658203,-0.48437 0.220832,0.22083 2.073029,-2.23562 2.558594,-3.39258 1.392249,-3.31761 3.33542,-6.49882 3.79492,-6.21484 0.15452,0.0955 0.28125,0.30127 0.28125,0.45898 0,0.3082 1.6396,4.01828 2.4707,5.5957 0.27861,0.528 0.7057,1.39317 0.95118,1.91992 1.44678,3.11183 1.60683,3.196 2.67187,1.40821 0.43288,-0.72664 1.00163,-1.56788 1.26563,-1.86914 0.67511,-0.77041 1.55028,-2.22465 2.1289,-3.53907 0.27117,-0.61475 0.68415,-1.55207 0.91797,-2.08007 0.23382,-0.528 0.79659,-2.09254 1.25,-3.47657 0.73629,-2.24633 0.82422,-3.02411 0.82422,-7.28125 0,-4.69378 0.009,-4.76114 0.64258,-4.36523 0.35397,0.22105 0.71323,0.61837 0.79883,0.88281 0.0856,0.26443 0.55265,0.72271 1.03711,1.01758 4.01033,2.44166 5.37551,3.14762 6.94921,3.60547 1.51128,0.43934 2.23414,0.93897 4.36133,3.00976 1.40255,1.36537 2.59519,2.43802 2.65039,2.38282 0.21904,-0.21904 1.15286,2.43285 1.62305,4.60937 0.84271,3.90085 0.64024,7.91514 -0.76953,15.29492 -2.28053,11.93888 -2.39203,16.49446 -0.50977,20.47461 0.45764,0.96737 0.96853,2.48425 1.13672,3.3711 0.16819,0.88686 0.45041,1.88299 0.62696,2.21289 0.65757,1.23102 -0.81451,4.40766 -3.19922,6.90234 -1.00997,1.056 -2.19371,2.34566 -2.63086,2.86524 -0.7726,0.91704 -0.83011,0.93342 -2.06055,0.52734 -1.15306,-0.38055 -1.31822,-0.58059 -1.83594,-2.22656 -0.31259,-0.99382 -0.86017,-2.59841 -1.21875,-3.56641 -1.33793,-3.61182 -2.16211,-6.23774 -2.16211,-6.89258 0,-0.37136 0.33914,-1.6731 0.75391,-2.89258 0.89265,-2.62324 0.92253,-2.54253 -2.13281,-5.51562 -4.1032,-3.99111 -4.67221,-6.57574 -2.43555,-11.04883 0.71783,-1.43558 1.69452,-3.11447 2.16992,-3.73047 0.47539,-0.616 1.48784,-2.37374 2.25196,-3.90429 l 1.39062,-2.78516 -0.13281,-2.97461 c -0.0857,-1.93794 -0.31403,-3.31018 -0.65625,-3.93555 -0.28893,-0.528 -0.85726,-1.66122 -1.26367,-2.51953 -0.63492,-1.34091 -3.35537,-4.25791 -3.67383,-3.93945 -0.0597,0.0598 0.50793,0.7505 1.25976,1.53516 1.6954,1.76816 3.03763,4.45944 3.44532,6.90234 0.38501,2.30705 0.072,5.87769 -0.63477,7.23828 -0.62867,1.21028 -2.27456,3.83414 -2.54883,4.0625 -0.74212,0.61791 -3.54211,6.40129 -3.76562,7.77734 -0.17225,1.0615 0.478,3.06363 1.52539,4.70313 0.16866,0.264 0.38447,0.69694 0.48047,0.96094 0.0961,0.264 0.63892,0.83929 1.20703,1.27929 0.5681,0.44 1.57701,1.40713 2.24219,2.14844 l 1.21093,1.34766 -0.50195,1.72461 c -0.90402,3.10848 -5.78111,11.09961 -6.77539,11.09961 -0.25039,0 -0.45508,0.19403 -0.45508,0.43164 0,0.23761 -0.9,1.20897 -2,2.1582 -1.1,0.94923 -2.04872,1.83558 -2.10742,1.96875 -0.0587,0.13317 -0.3158,0.24023 -0.57227,0.24023 -0.25645,0 -0.8571,0.28899 -1.33398,0.64063 -0.47687,0.35163 -1.51464,0.72774 -2.30664,0.83594 -0.792,0.1082 -1.65592,0.30437 -1.91992,0.43554 -0.90832,0.45133 -4.607162,0.38297 -5.255863,-0.0898 -0.742381,-0.54687 -0.847851,-0.9717 -1.013671,-4.06055 -0.07092,-1.32 -0.256554,-3.77065 -0.41211,-5.4414 -0.238282,-2.5612 -0.264884,-2.11943 -0.164062,2.80078 0.09973,4.86578 0.04572,5.83984 -0.330078,5.83984 -0.248006,0 -0.740569,0.39686 -1.09375,0.88086 -0.610611,0.83634 -0.766249,0.8777 -3.146485,0.8457 -2.229981,-0.03 -2.814383,-0.17819 -5.335937,-1.35937 -1.557399,-0.72949 -3.106931,-1.32813 -3.441407,-1.32813 -0.334352,0 -0.607421,-0.10791 -0.607421,-0.24218 0,-0.24818 -0.555072,-0.58101 -2.560547,-1.53321 -1.552941,-0.73731 -5.388675,-3.61259 -5.769532,-4.32422 -0.172627,-0.3228 -0.735895,-0.83578 -1.251953,-1.14062 -0.515933,-0.30484 -1.19161,-1.02305 -1.5,-1.5957 -0.308266,-0.57265 -0.789556,-1.10093 -1.068359,-1.17383 -0.684384,-0.179 -0.796161,-2.01438 -0.208984,-3.42969 0.25544,-0.616 0.548589,-1.33561 0.65039,-1.59961 0.101799,-0.264 0.366768,-0.76208 0.587891,-1.10742 1.298774,-2.02854 1.842804,-3.16607 2.613281,-5.45703 0.969138,-2.88158 1.316539,-4.87634 1.041016,-5.97461 -0.102903,-0.40999 -1.29579,-1.89626 -2.652344,-3.30274 -2.900249,-3.00587 -5.136522,-6.20141 -5.466797,-7.81054 -0.12952,-0.63103 -0.239141,-2.5155 -0.244141,-4.1875 -0.0086,-2.87997 0.0556,-3.17867 1.240235,-5.67969 0.687632,-1.452 1.371288,-2.64062 1.519531,-2.64062 0.148246,0 0.269531,-0.14007 0.269531,-0.31055 0,-0.91702 -1.023213,0.34978 -2.267578,2.80469 l -1.412109,2.7832 0.01367,3.52148 c 0.01258,3.22822 0.09015,3.66765 0.923828,5.28125 1.418851,2.74668 2.607238,4.32507 5.08789,6.75977 l 2.294922,2.25195 -0.04492,2.21875 c -0.02463,1.2204 -0.180062,2.39787 -0.345703,2.61524 -0.16552,0.21737 -0.633344,1.32657 -1.039062,2.46679 -0.405846,1.14022 -1.06112,2.5814 -1.455078,3.20118 -0.394087,0.61853 -0.984783,1.73505 -1.314453,2.47851 -0.329796,0.74346 -0.79852,1.35438 -1.041016,1.35938 -0.331098,0.006 -0.393022,0.3136 -0.246094,1.23242 0.107606,0.67294 -0.01962,2.29255 -0.283203,3.59961 -0.263587,1.30707 -0.630593,3.24087 -0.814453,4.29687 -0.367628,2.11144 -1.081123,3.07897 -3.421875,4.63086 -1.969718,1.30592 -2.767723,0.95194 -5.023438,-2.23047 -1.639519,-2.31191 -1.668749,-2.62915 -0.818359,-9.12109 0.207482,-1.584 0.52298,-3.384 0.701172,-4 0.178189,-0.616 0.402284,-3.08169 0.496094,-5.47656 0.177872,-4.54315 -0.05067,-6.20916 -1.857422,-13.60743 -0.349744,-1.43088 -0.768665,-4.45488 -0.931641,-6.71875 -0.162973,-2.26261 -0.466747,-5.05326 -0.675781,-6.19726 -0.579843,-3.17406 -0.495004,-4.83748 0.328125,-6.43164 1.334544,-2.58447 4.075438,-5.91081 5.835937,-7.08399 1.814028,-1.20751 4.196551,-3.66953 4.94336,-5.10742 0.606471,-1.16773 0.565215,-1.31006 -0.191406,-0.66211 -1.517241,2.0415 -2.732984,3.79249 -4.761719,5.21094 -2.985225,1.59021 -6.52072,6.38821 -7.226563,9.80273 -0.114563,0.5544 0.01495,2.18973 0.289063,3.63477 0.274122,1.44503 0.503865,3.43908 0.509765,4.43164 0.0126,2.13739 0.850363,7.38136 2.205079,13.80469 1.177485,5.58241 1.241017,9.63579 0.228515,14.56055 -0.114361,0.55492 -0.436782,3.05458 -1.041015,8.08007 -0.170442,1.41763 -0.54451,1.7516 -0.90625,0.8086 -0.13784,-0.35921 -0.290318,-0.42805 -0.435547,-0.19727 -0.122534,0.19471 -0.509453,0.40881 -0.861328,0.47461 -0.494214,0.0924 -0.660073,0.41012 -0.726563,1.39649 -0.24264,3.59801 -0.811144,6.23775 -2.357422,10.93554 -0.863712,2.62492 -0.692814,5.49904 0.525391,8.84961 1.092086,3.00373 1.770942,3.59437 5.507812,4.80274 3.607775,1.16535 5.629633,1.13292 8.144532,-0.13672 2.080828,-1.05053 2.48938,-0.95643 2.5,0.57422 0.0086,1.23331 1.667849,7.20873 2.626953,9.46289 0.508032,1.19415 0.853228,2.28524 0.767578,2.42382 -0.08565,0.13859 0.144143,0.50716 0.509765,0.82032 0.613037,0.5249 0.647257,0.78203 0.44336,3.29492 -0.137424,1.69371 -0.08456,3.34899 0.140625,4.36914 0.391296,1.77324 0.398075,1.79276 2.269531,7.20508 1.162941,3.36194 1.872493,6.08948 2.355469,9.05078 0.156519,0.95969 0.05579,1.31217 -0.554688,1.91992 -0.878282,0.87449 -2.771655,2.15162 -4.560547,3.07617 -1.089619,0.56324 -4.172221,3.06186 -5.017578,4.06836 -1.026982,1.22289 -2.763297,4.4273 -3.123047,5.76172 -0.23712,0.88 -0.547684,1.7518 -0.689453,1.9375 -0.141773,0.1857 -0.417268,1.37144 -0.613281,2.63477 -0.455488,2.93524 0.0027,5.56211 1.064453,6.0957 2.139485,1.07533 12.173514,-1.72999 15.171875,-4.24023 1.140966,-0.95568 5.038497,-2.986 6.8125,-3.54883 1.379238,-0.43755 2.115155,-1.77976 2.976563,-5.43946 1.232562,-5.23559 1.349028,-8.3215 0.345703,-9.15429 -0.353407,-0.2933 -0.439453,-2.05394 -0.439453,-8.94532 v -8.58203 l 2.269531,0.79297 c 1.248915,0.43639 2.637018,1.03323 3.083984,1.32617 1.156665,0.75796 5.30315,0.7579 6.777346,0 0.60057,-0.30876 1.11347,-0.52331 1.13867,-0.47851 0.0251,0.0448 0.43266,1.08831 0.90625,2.32031 0.95269,2.47829 1.22605,3.63102 1.97266,8.29297 l 0.50976,3.17383 -0.89062,0.98242 c -0.48899,0.54005 -0.97759,1.05568 -1.08594,1.14648 -0.10836,0.0908 -0.53239,0.81347 -0.94336,1.60547 -1.10423,2.12803 -1.27879,7.37605 -0.33398,10.06055 0.36806,1.04573 0.81616,2.04663 0.99414,2.22461 0.17798,0.17798 1.40035,0.42698 2.71679,0.55273 1.58991,0.15187 3.49531,0.65446 5.67774,1.49805 2.17521,0.8408 4.08063,1.3436 5.63476,1.48828 1.29108,0.12019 3.21741,0.49803 4.28125,0.83789 2.52414,0.80636 3.75485,0.77976 5.07422,-0.10937 1.78123,-1.20036 2.10586,-2.08013 1.625,-4.40821 -0.38838,-1.87912 -1.09008,-3.16066 -3.33789,-6.10351 -0.48688,-0.63743 -1.20584,-1.78998 -1.59961,-2.56055 -0.89712,-1.75558 -3.09866,-4.76834 -4.95898,-6.78515 -1.25455,-1.36095 -1.397,-1.66491 -1.20703,-2.56055 1.41931,-6.69622 1.82299,-10.02533 2,-16.52149 0.17548,-6.43873 0.2296,-6.90065 0.85156,-7.40429 0.36473,-0.29532 0.84022,-0.46857 1.05859,-0.38477 0.22735,0.0873 0.46112,-0.16678 0.54492,-0.5957 0.0805,-0.412 0.44169,-2.04491 0.80469,-3.62891 0.363,-1.584 0.87724,-4.15976 1.14063,-5.72461 0.26338,-1.56485 0.54676,-2.9159 0.63086,-3 0.0841,-0.0841 0.38692,0.0803 0.67187,0.36524 0.28495,0.28495 0.54282,0.52329 0.57422,0.52929 6.04928,1.18213 7.01127,1.184 9.58203,-0.0215 2.47679,-1.15903 2.59484,-1.28704 4.50391,-4.86523 1.21977,-2.28704 1.49218,-3.09877 1.49218,-4.44336 0,-1.78431 -0.51031,-3.90827 -1.17968,-4.91211 -0.23149,-0.34716 -0.42188,-0.82896 -0.42188,-1.07227 0,-0.24332 -0.43212,-1.08363 -0.96094,-1.86719 -1.03573,-1.53652 -1.01322,-1.74303 0.4043,-3.66797 0.57004,-0.77284 0.57858,-0.90984 0.12695,-1.7832 -0.26786,-0.5204 -0.96565,-1.27567 -1.54882,-1.67773 -1.04686,-0.72173 -2.5,-3.06407 -2.5,-4.0293 0,-0.27333 -0.27331,-0.78981 -0.60743,-1.14844 -0.33287,-0.35864 -0.8472,-1.6131 -1.13867,-2.78711 -0.29146,-1.17401 -0.84502,-2.78222 -1.23047,-3.57422 -0.58268,-1.196 -0.72005,-2.12594 -0.81445,-5.50781 -0.11573,-4.14384 0.26357,-7.32234 1.53711,-12.89258 1.56147,-6.8283 1.97531,-12.74576 1.13672,-16.21875 -0.74175,-3.07069 -1.49091,-4.57181 -3.21484,-6.4375 -1.9705,-2.12974 -4.05085,-3.65581 -6.00782,-4.40429 -2.96618,-1.13494 -6.3508,-2.96281 -7.37695,-3.98438 -1.80167,-1.79361 -2.76367,-3.02274 -2.76367,-3.52929 0,-0.717751 -0.782,-2.125716 -1.58203,-2.849614 z m 1.5586,2.601562 0.18945,2.203129 c 0.56986,6.57169 0.58105,8.28985 0.0312,10.68164 -0.30001,1.32 -0.68238,2.66104 -0.84961,2.98047 -0.16723,0.31942 -0.35703,0.86431 -0.42383,1.21093 -0.17126,0.88928 -2.66895,5.76035 -3.34765,6.5293 -0.31069,0.352 -0.76308,1.06117 -1.00586,1.57617 -0.24277,0.515 -0.61523,0.9932 -0.82813,1.0625 -0.22889,0.0745 -0.98076,-1.146 -1.83984,-2.98437 -0.7991,-1.71002 -1.45313,-3.17145 -1.45313,-3.24805 0,-0.0765 -0.5046,-1.1427 -1.12109,-2.37109 -1.35074,-2.69145 -1.39596,-2.56419 2.18945,-6.16211 3.89457,-3.90815 5.54983,-6.03357 7.42383,-9.54102 z m -45.087893,4.724609 1.160156,1.28125 c 0.637104,0.704 1.354865,1.74015 1.595703,2.30274 0.530301,1.2375 3.230017,3.89048 4.210938,4.13671 0.389219,0.0977 0.781457,0.37265 0.873047,0.61133 0.195638,0.51016 3.905314,2.41695 4.175781,2.14649 0.101615,-0.10162 0.185547,-0.0159 0.185547,0.18945 0,0.20533 0.296585,0.37305 0.660156,0.37305 0.363571,0 0.969687,0.16399 1.345703,0.36523 0.512941,0.27451 0.713188,0.27451 0.804688,0 0.06708,-0.20124 0.417575,-0.36523 0.779296,-0.36523 0.597392,0 0.641878,0.13934 0.47461,1.51953 -0.194944,1.60852 -0.919679,3.64829 -2.564453,7.2207 -0.552179,1.19914 -1.156379,2.30511 -1.341797,2.45899 -0.492918,0.40784 -3.006789,-1.26098 -4.56836,-3.03516 -1.25528,-1.42636 -2.162833,-3.09477 -5.144531,-9.44531 -1.240109,-2.64169 -2.041569,-5.36676 -2.447265,-8.32032 z m 22.292969,25.75977 c -0.864448,0 -2.090104,1.11159 -2.095704,1.90039 -0.0019,0.27481 -0.08749,1.00503 -0.189453,1.62109 -0.141526,0.85513 -0.02059,1.32825 0.507813,2 1.212976,1.54221 4.119733,0.78006 4.61914,-1.20898 0.289472,-1.15335 -0.357877,-3.35157 -0.986328,-3.35157 -0.04956,0 -0.07494,0.007 -0.113281,0.01 -0.315264,-0.39473 -1.375726,-0.9707 -1.742187,-0.9707 z m -0.03516,0.64062 c 0.327446,0 1.164209,0.36683 1.613282,0.50586 0.02115,0.0727 0.04519,0.14503 0.167968,0.29297 0.218314,0.26305 0.389207,1.09089 0.378907,1.83984 -0.01454,1.05791 -0.20544,1.52393 -0.855469,2.08203 -1.061901,0.91371 -1.604515,0.90538 -2.542969,-0.0332 -0.647283,-0.64741 -0.727734,-0.96785 -0.576172,-2.3125 0.201865,-1.79096 0.649465,-2.375 1.814453,-2.375 z m 0.619141,14.75977 c -0.463894,-0.008 -0.872978,0.25065 -1.216797,0.77539 -0.560739,0.85599 -0.466293,1.66372 0.341797,2.94531 0.566595,0.89862 1.695922,0.92788 2.619141,0.0664 0.949894,-0.88508 0.880013,-1.93458 -0.197266,-2.9668 -0.563099,-0.53961 -1.082981,-0.81271 -1.546875,-0.82031 z m -0.0059,0.59961 c 0.412598,0 0.988144,0.26407 1.279296,0.58593 0.672563,0.74317 0.68598,2.16555 0.02344,2.41993 -1.496934,0.57448 -2.052734,0.056 -2.052734,-1.91211 0,-0.93414 0.109149,-1.09375 0.75,-1.09375 z m 4.652343,8.5039 c -0.155427,0.0961 -0.283203,1.12612 -0.283203,2.28907 0,1.16169 0.05247,2.0538 0.117188,1.98046 0.267084,-0.30281 0.427769,-4.43131 0.166015,-4.26953 z m -3.804687,3.69727 c -0.398971,0.0127 -0.826973,0.24306 -1.388672,0.6914 -0.845622,0.6768 -0.892799,0.83522 -0.681641,2.24415 0.159005,1.05907 0.466097,1.70416 1.023438,2.14257 0.981805,0.77238 1.656699,0.48619 2.652344,-1.125 0.805369,-1.30332 0.683622,-2.3466 -0.388672,-3.3457 -0.4482,-0.41757 -0.817951,-0.62007 -1.216797,-0.60742 z m 27.507817,0.85742 c 0.3128,0.92344 0.58965,1.94398 0.81656,2.8185 0.32531,0.81023 0.70701,1.68168 0.99225,2.42388 0.28241,0.82729 0.6041,1.69727 0.94532,2.44531 0.21523,0.85195 0.41175,1.78853 0.57422,2.59961 0.18363,1.07047 0.31183,2.23616 0.3967,3.23828 0.002,0.15413 0.005,0.30713 0.0156,0.46094 0.10495,1.19219 0.3538,2.46922 0.56632,3.55859 0.0821,0.59085 -0.0249,1.22754 -0.0938,1.77149 -0.40477,1.94602 -0.47726,3.85141 -0.4549,5.72853 -0.0535,0.39127 -0.11386,0.81172 -0.16406,1.17188 -0.0807,0.51181 -0.081,1.06545 -0.0859,1.54883 -0.032,0.58826 -0.0461,1.22351 -0.0566,1.76757 -0.0858,0.86098 -0.30072,1.76744 -0.48242,2.53321 -0.095,0.74214 -0.2327,1.54026 -0.35742,2.2207 -0.12162,0.59989 -0.16267,1.26432 -0.21485,1.82812 -0.0466,0.60236 -0.18395,1.23933 -0.29687,1.78711 -0.23397,0.82671 -0.52275,1.70804 -0.77149,2.46875 -0.12611,0.35193 -0.42213,0.57812 -0.64648,0.82227 -0.39705,0.35502 -0.88689,0.62103 -1.31641,0.86719 -0.56548,0.48234 -1.22495,0.98654 -1.83203,1.36914 -0.4804,0.48969 -0.99301,1.03045 -1.46484,1.45508 -0.49653,0.39799 -1.12421,0.66742 -1.64844,0.9375 -0.9178,0.7808 -2.09572,1.37797 -3.04883,1.96289 -0.52926,0.28341 -1.02852,0.70329 -1.46289,1.04492 -0.64434,0.54221 -1.39729,1.02163 -2.08203,1.40625 -0.72778,0.41037 -1.42693,0.88319 -2.03711,1.37109 -0.42141,0.40092 -1.01915,0.53335 -1.51758,0.72656 -0.47781,0.28172 -0.95663,0.64557 -1.3789,0.9375 -0.58845,0.56051 -1.41386,0.85354 -2.11328,1.12891 -0.71295,0.40553 -1.537725,0.54189 -2.285164,0.60547 -0.815498,0.17376 -1.761519,0.001 -2.476563,-0.0801 -0.529715,-0.11644 -1.46985,-0.36542 -1.820312,-0.66797 -0.517711,-0.1607 -1.040098,-0.44177 -1.507813,-0.61718 -0.839655,-0.19118 -1.705029,-0.52456 -2.453125,-0.8125 -0.906232,-0.15623 -1.768204,-0.70629 -2.5,-1.1211 -0.456141,-0.32366 -0.972909,-0.54024 -1.453125,-0.73437 -0.757796,-0.30775 -1.49393,-0.80684 -2.125,-1.21485 -0.773565,-0.42683 -1.636201,-0.84604 -2.357421,-1.22851 -0.483643,-0.41791 -1.078066,-0.70162 -1.597657,-0.92383 -1.012165,-0.40967 -1.976545,-1.10511 -2.808593,-1.67578 -0.50743,-0.43215 -0.987987,-0.8489 -1.472657,-1.24805 -0.654157,-0.44575 -1.321377,-0.95337 -1.896484,-1.40039 -0.45169,-0.22271 -0.777845,-0.59252 -1.087891,-0.91211 -0.405446,-0.72178 -0.622607,-1.58695 -0.855468,-2.32031 -0.231858,-0.60218 -0.488696,-1.24446 -0.703125,-1.79883 -0.320138,-0.65151 -0.548449,-1.39333 -0.75,-2.03711 -0.117587,-0.44007 -0.245184,-0.87907 -0.330079,-1.30469 -0.249509,-0.94012 -0.513076,-1.95578 -0.789062,-2.8164 -0.115674,-0.4575 -0.309155,-0.93142 -0.455078,-1.34375 -0.08746,-0.47304 -0.09272,-0.99565 -0.121094,-1.42774 -0.168207,-0.71859 -0.304841,-1.50904 -0.447266,-2.16601 -0.345885,-1.02719 -0.318268,-2.21325 -0.333984,-3.21094 -0.02066,-0.73694 -0.16118,-1.47223 -0.291016,-2.14844 -0.139581,-0.59478 -0.24656,-1.22651 -0.326171,-1.79101 0.0018,-0.95674 -0.003,-1.95875 -0.0078,-2.82032 -0.11741,-1.0706 -0.05469,-2.22812 -0.01172,-3.21679 -0.07954,-0.94336 -0.05504,-1.96403 -0.04492,-2.85157 0.09803,-1.0054 0.398001,-2.05849 0.650391,-2.95703 0.185637,-0.89172 0.252224,-1.87988 0.34375,-2.71875 0.04465,-0.43214 0.120581,-0.88723 0.189453,-1.28711 0.04031,-1.15844 0.405255,-2.15683 0.9375,-2.63281 0.474249,0.72834 1.033156,1.47933 1.550781,2.0957 1.061488,0.89753 2.142985,1.93119 3.082032,2.78516 0.938748,0.44097 1.825671,1.11404 2.572265,1.70508 1.095937,0.77266 2.326812,1.54337 3.394532,2.14648 0.618057,0.42213 1.253841,0.63001 1.960937,0.80274 0.887875,0.32684 1.795066,0.77286 2.611328,1.14648 1.049621,0.5004 2.087258,1.02257 3.089844,1.31055 0.907439,0.2465 1.911433,0.312 2.777344,0.32812 1.134573,-0.14542 2.422254,-0.0804 3.470703,-0.25 0.563051,-0.24316 0.981756,-0.77728 1.353515,-1.18359 0.318278,-0.31963 0.548068,-0.0137 0.796875,0.01 0.680079,0.52308 1.327525,0.92157 1.96875,1.32421 2.040348,0.25312 4.065478,0.0542 5.996098,-0.27135 1.01746,-0.26526 2.08721,-0.67999 3.00976,-0.98048 1.52223,-0.33531 2.88042,-1.40785 4.0918,-2.12305 0.69393,-0.51944 1.27238,-1.30946 1.79101,-1.91406 0.88939,-1.09948 1.53405,-2.13057 2.47713,-3.42164 0.17296,-0.62994 0.64678,-1.06534 0.97213,-1.5491 0.45284,-0.48181 0.71465,-1.02504 1.01947,-1.48275 0.49778,-0.69091 1.07618,-1.41957 1.42003,-2.11892 0.55962,-0.49355 0.52315,-0.34116 1.00132,0.1207 z m -27.576177,-0.22852 c 0.403789,-0.0129 0.793017,0.17241 1.140625,0.55665 0.670448,0.73958 0.676317,1.7742 0.01367,2.78515 -0.29711,0.45364 -0.825899,0.78906 -1.242187,0.78906 -1.462377,0 -2.244802,-2.39765 -1.142578,-3.5 0.408238,-0.40834 0.826804,-0.61798 1.230468,-0.63086 z m 42.044907,2.53516 c 0.11835,-0.003 0.38264,0.49924 0.58594,1.11524 0.2033,0.61475 0.48513,1.12109 0.62695,1.12109 0.14183,0 0.33203,0.28561 0.42383,0.63672 0.0918,0.35112 0.4331,0.73324 0.75781,0.84765 0.81359,0.28665 1.69517,1.42431 1.70117,2.19532 0.007,0.84793 -0.8181,2.05988 -2.81836,4.13672 -0.90528,0.93869 -1.9764,2.28747 -2.3789,2.99609 -0.4025,0.70861 -1.41787,2.02209 -2.25586,2.91797 -1.89151,2.02218 -2.63268,2.08763 -5.0625,0.45312 -1.09473,-0.73642 -1.17703,-0.91166 -1.37305,-2.92383 -0.11471,-1.17625 -0.29711,-2.78852 -0.4043,-3.58007 -0.16357,-1.20795 -0.12228,-1.38022 0.25391,-1.07618 0.24652,0.19923 0.92361,0.46377 1.50391,0.5879 0.95669,0.20339 1.16579,0.10154 2.24023,-1.10743 0.6517,-0.73331 1.90845,-2.07973 2.79297,-2.99023 0.91182,-0.93859 1.95148,-2.44815 2.40039,-3.48828 0.43548,-1.009 0.88751,-1.8388 1.00586,-1.8418 z m -79.302739,2.63477 c 0.648219,0.0654 1.627377,1.04718 2.326172,2.38672 0.564047,1.08004 1.093381,1.75625 2.785156,3.55664 0.801997,0.85223 2.538385,1.67326 2.779297,1.3125 0.08967,-0.13427 0.360698,-0.29151 0.601562,-0.34961 0.240989,-0.0581 0.883165,-0.50233 1.427735,-0.98633 0.544441,-0.484 1.105371,-0.87891 1.246094,-0.87891 0.140602,0 0.191441,1.04556 0.113281,2.32031 -0.07816,1.276 -0.152226,3.07076 -0.166016,3.99024 -0.02273,1.51589 -0.114023,1.71811 -0.96875,2.16016 -0.518393,0.26689 -1.331584,0.84868 -1.80664,1.28906 -0.475181,0.44039 -1.166813,0.79697 -1.53711,0.79297 -0.872627,-0.009 -2.939195,-0.98109 -4.335937,-2.03907 -0.606192,-0.45909 -1.337552,-0.83398 -1.626953,-0.83398 -0.28953,0 -0.968655,-0.48564 -1.507813,-1.07813 -1.074537,-1.17973 -1.118146,-1.73062 -0.435547,-5.48242 0.192163,-1.056 0.350603,-2.82541 0.351563,-3.92968 0.0014,-1.51961 0.122853,-2.0572 0.498047,-2.20118 0.07732,-0.0297 0.163239,-0.0386 0.255859,-0.0293 z m 78.755859,2.38476 c -0.19305,-0.002 -0.4479,0.066 -0.80078,0.19922 -1.01696,0.38386 -1.24433,1.30304 -0.61523,2.47852 0.19133,0.35749 0.66682,0.61914 1.12695,0.61914 1.27938,0 1.70075,-1.81061 0.71875,-3.08789 -0.10522,-0.13694 -0.23663,-0.20742 -0.42969,-0.20899 z m -0.0684,0.43946 c 0.40404,-0.0591 0.38653,0.30974 0.2754,1.70312 -0.039,0.48848 -0.81789,0.90283 -1.12305,0.59766 -0.38965,-0.38965 -0.17701,-1.9415 0.29101,-2.1211 0.24045,-0.0923 0.42321,-0.16 0.55664,-0.17968 z m -77.873046,2.31054 c -0.401659,-0.007 -0.823032,0.11588 -1.001953,0.3711 -0.404755,0.57735 -0.265009,1.99788 0.236328,2.41406 0.41347,0.34315 0.478516,0.21641 0.478516,-0.91992 0,-1.45004 0.670568,-1.81933 1.269531,-0.70118 0.493975,0.92324 0.404593,1.30274 -0.308594,1.30274 -0.637392,0 -0.833426,0.34039 -0.427734,0.74609 0.576829,0.57695 1.858541,-0.55387 1.527344,-1.34765 -0.119085,-0.28531 -0.222069,-0.69205 -0.230469,-0.9043 -0.0084,-0.21224 -0.121776,-0.32149 -0.25,-0.24219 -0.128224,0.0792 -0.311213,-0.0636 -0.408203,-0.3164 -0.09976,-0.25996 -0.482983,-0.39551 -0.884766,-0.40235 z m 81.226566,2.24024 c 0.42111,-0.0709 0.73351,0.18966 0.95117,0.77929 0.11517,0.31199 0.29174,0.63857 0.39258,0.72657 0.22957,0.20035 0.86019,1.8292 1.66992,4.3164 0.7973,2.44903 0.58776,3.75332 -1.09765,6.88281 -1.70693,3.16838 -1.96342,3.43712 -4.31641,4.51758 -1.78493,0.8196 -4.73978,1.26828 -5.21875,0.79102 -0.0733,-0.0731 -0.77521,-0.22899 -1.55859,-0.3457 -1.977,-0.29453 -3.16877,-0.98368 -3.41797,-1.97657 -0.1936,-0.77137 0.0668,-8.71526 0.29297,-8.9414 0.0538,-0.0538 0.81106,0.25238 1.68359,0.67968 1.8514,0.90669 3.15579,1.00385 3.73437,0.28125 0.22694,-0.28282 0.96639,-1.0385 1.64454,-1.67968 0.67814,-0.64119 1.49153,-1.66893 1.80664,-2.28516 0.31511,-0.61624 1.13704,-1.75837 1.82812,-2.53711 0.65348,-0.73637 1.18436,-1.13804 1.60547,-1.20898 z m -84.4043,3.74609 c 0.127827,0 0.50652,0.3031 0.841797,0.67383 0.335155,0.37073 1.11264,0.93115 1.728515,1.24609 0.616,0.31494 1.872235,1.08022 2.791016,1.69922 0.918781,0.619 2.195412,1.29833 2.835937,1.50977 1.112624,0.36724 1.248959,0.32602 3.042969,-0.91211 1.032895,-0.71284 1.959784,-1.16574 2.058594,-1.00586 0.173395,0.28056 1.42874,8.35472 1.43164,9.20898 8.13e-4,0.23104 -0.932255,0.84242 -2.072265,1.35938 -1.140012,0.51696 -2.256606,0.92058 -2.480469,0.89648 -4.243305,-0.45651 -7.354089,-1.25124 -8.341797,-2.13086 -1.138128,-1.01356 -2.785156,-5.9078 -2.785156,-8.27734 0,-1.59963 0.593763,-4.26758 0.949219,-4.26758 z m 66.09766,27.83984 c 0.41337,0 -0.5033,12.99616 -1.11719,15.83985 -0.15198,0.704 -0.44286,2.14322 -0.64648,3.19922 -0.20362,1.056 -0.51243,2.42501 -0.68555,3.04101 -0.17312,0.616 -0.36222,1.55208 -0.41992,2.08008 -0.0577,0.528 -0.12369,1.1033 -0.14649,1.2793 -0.0228,0.176 -0.19469,0.10384 -0.38281,-0.16016 -0.25905,-0.36353 -0.29587,-0.21832 -0.15429,0.59961 0.10284,0.594 0.18554,1.20733 0.18554,1.36133 0,0.154 0.27407,0.2793 0.60742,0.2793 1.42093,0 7.14342,8.12061 6.64258,9.42578 -0.21898,0.57065 -3.23477,0.69973 -4.04883,0.17382 -0.264,-0.17055 -1.60685,-0.68566 -2.98046,-1.14648 -1.73005,-0.57987 -3.09973,-1.32165 -4.45118,-2.40625 -1.07398,-0.86193 -2.13577,-1.56641 -2.35742,-1.56641 -0.22165,0 -0.8234,-0.35419 -1.33789,-0.78711 -0.8776,-0.7372 -0.947,-0.97401 -1.13281,-3.80273 -0.19643,-2.9903 -1.19537,-9.27973 -1.8086,-11.38672 -0.17424,-0.60296 -0.71595,-2.10418 -1.19921,-3.33594 -0.48399,-1.23241 -0.73659,-2.28845 -0.56446,-2.34765 0.51465,-0.17711 4.69623,-2.7108 7.22657,-4.37891 3.47019,-2.28852 6.4687,-4.35384 7.69531,-5.30273 0.46784,-0.36192 0.95256,-0.65821 1.07617,-0.65821 z m -45.529301,0.69532 1.689453,1.375 c 0.928733,0.75657 2.44404,1.62693 3.367188,1.93359 0.923152,0.30667 2.128916,0.86295 2.679687,1.23633 0.550896,0.37338 1.646135,0.94868 2.433594,1.27734 1.780826,0.74324 3.853965,1.79038 4.427734,2.23828 0.354418,0.27661 0.4128,2.27841 0.31836,10.87305 l -0.115235,10.53516 -1.892578,1.69336 c -1.040352,0.92935 -2.263989,1.88085 -2.71875,2.11328 -1.348374,0.68927 -4.210103,2.53166 -5.701172,3.66992 -0.764611,0.58374 -2.336852,1.35406 -3.492187,1.71094 -2.465423,0.76157 -4.219202,0.83811 -4.464844,0.19922 -0.208995,-0.54463 1.034266,-3.53594 1.699219,-4.0879 0.262567,-0.21792 0.941852,-1.12177 1.509765,-2.00976 0.930352,-1.45437 1.589182,-2.24722 3.800782,-4.57031 0.375533,-0.39477 0.889951,-0.68343 1.142578,-0.64063 0.748365,0.1267 0.444063,-3.81213 -0.623047,-8.04883 -0.921533,-3.65754 -3.022668,-9.82433 -3.548828,-10.41797 -0.14823,-0.1672 -0.269531,-0.76855 -0.269531,-1.33789 0,-0.56934 -0.150914,-1.43522 -0.335938,-1.92187 -0.2043,-0.53735 -0.251836,-1.854 -0.121094,-3.35156 z m 43.697271,23.50976 c 0.0298,-0.0246 0.0596,-0.0196 0.0918,0.0117 0.043,0.0417 0.0885,0.13261 0.14257,0.26367 0.14516,0.352 0.36114,0.71083 0.47852,0.79883 0.85421,0.64038 4.49688,5.67361 4.80664,6.64063 0.2115,0.66029 0.94276,1.93381 1.625,2.83007 0.68223,0.89626 1.24023,1.74045 1.24023,1.87696 0,0.1365 0.43294,0.74043 0.96094,1.34179 0.528,0.60136 0.95899,1.36944 0.95899,1.70704 0,0.33634 0.16299,0.97094 0.36132,1.40625 0.5229,1.14639 0.0922,2.36521 -1.08984,3.08593 -1.28904,0.78597 -3.39313,0.77242 -5.34961,-0.0234 -0.792,-0.32418 -1.99989,-0.59743 -2.68359,-0.60743 -1.6474,-0.0231 -5.39789,-0.69087 -5.78125,-1.02929 -0.1672,-0.14761 -0.54483,-0.26758 -0.83789,-0.26758 -0.29307,0 -0.8752,-0.26748 -1.29493,-0.59375 -0.67758,-0.52765 -4.45269,-1.47054 -5.2539,-1.3125 -1.00718,0.19866 -1.48856,-0.14453 -2.14844,-1.5332 -0.63045,-1.32789 -0.71553,-1.98993 -0.67773,-5.22657 0.0461,-3.94076 0.27012,-4.72576 1.89453,-6.65625 0.46203,-0.5491 0.97051,-0.99804 1.13086,-0.99804 0.16036,0 0.29101,0.95522 0.29101,2.12304 0,1.8946 0.094,2.20896 0.86328,2.92188 0.47415,0.43943 1.302,0.98556 1.83985,1.21289 0.53784,0.22733 1.6843,1.07554 2.54883,1.88476 0.86452,0.80922 1.94491,1.5595 2.40039,1.66797 0.45547,0.10846 0.97243,0.30143 1.14843,0.42774 0.176,0.12631 0.60699,0.3096 0.95899,0.4082 0.352,0.0986 1.43097,0.47885 2.39648,0.8457 2.35497,0.89455 4.65834,0.87149 5.13477,0.01 0.50704,-0.94741 0.1242,-2.23088 -1.3457,-4.52734 -1.28506,-2.00705 -1.66619,-2.46049 -4.10352,-4.89454 -1.2443,-1.24138 -1.27236,-1.32274 -1.00781,-2.7207 0.12555,-0.66349 0.21147,-1.00034 0.30078,-1.07422 z m -39.283208,1.75977 c 0.15571,0.0128 0.161057,0.26808 0.06445,0.77148 -0.08587,0.44917 -1.137503,1.82117 -2.335938,3.04492 -1.198435,1.225 -2.265225,2.49848 -2.371094,2.83204 -0.105744,0.33232 -0.402854,0.6884 -0.660156,0.7871 -0.2573,0.0987 -0.46875,0.36736 -0.46875,0.59766 0,0.2303 -0.408802,0.86729 -0.908203,1.41406 -0.96657,1.0584 -1.853963,3.60017 -1.541016,4.41602 0.286198,0.74582 3.024011,0.62255 5.394532,-0.24414 1.107882,-0.40506 3.201889,-1.55761 4.652343,-2.56055 1.450579,-1.00294 2.783642,-1.82422 2.960938,-1.82422 0.177296,0 0.322266,-0.12823 0.322266,-0.28515 0,-0.15692 0.32357,-0.3671 0.720703,-0.4668 0.683958,-0.1717 1.744289,-0.9341 3.863281,-2.78516 0.606751,-0.53008 1.006642,-1.25444 1.136719,-2.05468 0.110445,-0.67947 0.398497,-1.30212 0.640625,-1.38282 0.354118,-0.11808 0.402815,0.22122 0.248047,1.73438 -0.251821,2.46006 -0.361252,3.10631 -0.589844,3.48633 -0.104006,0.1729 -0.379553,1.35876 -0.613281,2.63476 -0.233853,1.276 -0.537974,2.32031 -0.675782,2.32031 -0.137805,0 -0.252659,0.2506 -0.255859,0.5586 -0.0057,0.57883 -1.299385,2 -1.820313,2 -0.162131,0 -1.041051,0.36078 -1.953125,0.80078 -0.911952,0.44 -1.875761,0.80078 -2.140625,0.80078 -0.264736,0 -0.480468,0.14236 -0.480468,0.31836 0,0.176 -0.19246,0.32031 -0.425782,0.32031 -0.233193,0 -0.762421,0.36078 -1.175781,0.80078 -0.413235,0.44 -0.942463,0.79883 -1.175781,0.79883 -0.233322,0 -0.423828,0.13161 -0.423828,0.29102 0,0.47946 -4.030885,2.2121 -5.669922,2.4375 -1.650438,0.22696 -3.437999,0.70357 -4.326172,1.15234 -0.701087,0.3542 -2.422257,0.32999 -3.363281,-0.0508 -0.684788,-0.27531 -0.719691,-0.45606 -0.712891,-3.73828 0.006,-2.93126 0.101181,-3.57035 0.632813,-4.25 0.344048,-0.44 0.628912,-1.19726 0.632812,-1.68164 0.01741,-2.15527 4.624919,-8.23645 7.271485,-9.59766 2.951036,-1.51786 3.858777,-2.05604 4.572265,-2.71094 0.511296,-0.46798 0.818775,-0.69837 0.97461,-0.68554 z" />
    </g>
  </g>
</svg>
