<?xml version="1.0" encoding="UTF-8" standalone="no"?>
<!-- Created with Inkscape (http://www.inkscape.org/) -->

<svg
   version="1.1"
   id="svg2"
   width="192"
   height="288"
   viewBox="0 0 192 288"
   xmlns="http://www.w3.org/2000/svg"
   xmlns:svg="http://www.w3.org/2000/svg">
  <defs
     id="defs6" />
  <g
     id="g8">
    <g
       id="g170">
      <path
         id="white"
         style="display:inline;fill:#fefefe;stroke-width:0.32"
         d="m 115.12205,64.561041 c 1.27492,-1.17797 0.5462,-0.977629 -1.53989,-0.558614 -0.85522,0.108265 -2.29972,0.195798 -3.04674,0.287838 l -2.77265,0.508768 -3.12395,0.465313 c 0.064,3.254841 1.73653,6.976238 2.98328,8.822248 0.20573,0.304615 1.7406,-0.272078 2.5222,-0.571749 0.53596,-0.04479 1.2631,-0.498282 1.63621,-0.92329 0.67336,-1.172804 0.63275,-1.767089 0.89234,-1.958648 0.0705,-0.155225 0.42111,-0.6285 0.42111,-1.260956 1e-5,-0.847645 -0.15585,-1.310824 0.27831,-1.424356 0.48979,-0.128084 0.37856,0.22306 1.31768,-1.94192 -0.13067,0.01999 0.26964,-0.671934 0.4321,-1.444634 z m -13.46972,1.999601 c -0.0116,0.04733 -1.1911,0.558526 -1.34592,0.681733 -0.795478,0.394412 -1.416247,0.71933 -2.071037,1.543779 -0.556171,0.296392 -0.745063,0.502344 -1.598908,1.31339 0.708493,1.955827 4.126025,2.966253 3.884315,4.164422 0.41265,0.357891 2.18674,0.296583 2.44406,0.296583 1.53303,0.04194 3.51818,-0.03009 4.73598,-0.551981 -0.11691,-0.635241 -2.87448,-8.410275 -3.10219,-8.64971 -0.51808,-0.544738 -2.35244,1.010283 -2.9463,1.201784 z M 64.946008,69.71466 c -0.84813,-0.221772 -0.817042,1.372211 0.01493,2.125183 0.35198,0.318537 1.501942,3.235736 1.503032,3.428459 2.744501,5.356355 6.851437,2.615265 7.351596,1.875959 0.759464,-2.260535 0.272117,-3.821332 -1.171409,-8.507873 -0.14432,-0.293013 -0.347072,-0.383074 -7.698149,1.078272 z m 7.668204,-1.055549 c 0.701247,2.771865 1.191241,4.412068 1.137043,8.496237 1.147863,0.03734 2.427754,0.175143 3.953552,-0.39063 0.552845,-0.204997 0.742904,-0.210948 1.861285,-0.678219 2.175957,-0.909171 1.842044,-0.484708 1.816123,-4.674716 0.667726,-1.73271 2.07315,-1.910075 -1.134631,-2.027906 -0.525783,0.299196 -0.99915,-0.04061 -1.779397,-0.07064 -1.262876,-0.214922 -4.90843,-0.94305 -5.853975,-0.654126 z m 17.221726,12.141666 c -0.03887,-0.0023 -0.08399,0.004 -0.134766,0.01758 -0.304679,0.08128 -0.823772,0.450022 -1.521484,1.13086 -0.795188,0.775919 -1.489952,1.713718 -1.544922,2.083984 -0.05497,0.370262 -0.325825,1.017735 -0.601563,1.439453 -0.275738,0.421734 -0.603306,1.092282 -0.728515,1.488282 -0.13888,0.439158 -0.09506,0.718749 0.113281,0.71875 0.187863,-10e-7 0.341797,-0.140091 0.341797,-0.310547 0,-0.170474 0.197062,-0.232891 0.4375,-0.140625 0.282012,0.108224 0.729953,-0.395316 1.263672,-1.416016 0.454984,-0.87016 1.267859,-2.274592 1.804687,-3.121094 0.683095,-1.077138 0.87726,-1.715973 0.667969,-1.859375 -0.02616,-0.01793 -0.05879,-0.02893 -0.09766,-0.03125 z m 2.167968,2.71875 c -0.224643,0 -0.484122,0.288645 -0.576172,0.640625 -0.173878,0.664989 0.02124,0.769502 0.845704,0.453125 0.558864,-0.214464 0.34241,-1.09375 -0.269532,-1.09375 z" />
      <path
         id="mask"
         style="display:inline;fill:#b3f4f0;stroke-width:0.32"
         d="m 92.355469,72.958984 c -1.163168,3.43e-4 -1.474591,0.237039 -4.798828,3.628907 -3.628867,3.70266 -6.833202,7.495477 -8.835938,10.458984 -0.615984,0.911498 -1.495598,2.111747 -1.953125,2.666016 -1.467968,1.778384 -3.488281,5.920401 -3.488281,7.152343 0,0.465853 0.511136,1.880478 1.134765,3.142576 1.08887,2.20373 3.079479,4.33845 5.566407,5.96875 1.506518,0.9876 1.579719,0.77127 0.783203,-2.33789 -0.352168,-1.37465 -0.473043,-2.89211 -0.382813,-4.779295 0.152538,-3.190471 0.373273,-3.593456 3.828125,-7 3.804774,-3.751539 7.634885,-4.949827 12.757813,-3.990234 0.971424,0.181949 2.051831,0.565434 2.400391,0.851562 0.348541,0.286124 1.460652,1.185516 2.472652,1.998047 1.012,0.812531 1.83985,1.604455 1.83985,1.761719 0,0.157261 0.37496,0.69054 0.83203,1.183593 1.41583,1.527324 2.71028,4.723979 2.91797,7.201168 0.14421,1.72014 0.26044,2.10138 0.5,1.64649 0.17159,-0.32584 0.85771,-1.1671 1.52343,-1.8711 1.60252,-1.69415 2.03936,-3.308172 1.375,-5.074214 -1.19673,-3.181632 -3.43969,-7.260626 -4.49804,-8.177734 -0.48934,-0.424044 -1.10514,-1.096641 -1.36914,-1.496094 -1.63957,-2.480745 -4.77153,-6.213048 -7.830081,-9.332031 -3.299632,-3.364886 -3.612577,-3.601883 -4.77539,-3.601563 z m -2.519531,7.841797 c 0.347374,0.02073 0.198176,0.678838 -0.570313,1.890625 -0.536832,0.846506 -1.349699,2.25093 -1.804687,3.121094 -0.533719,1.020704 -0.981656,1.52424 -1.263672,1.416016 -0.240438,-0.09227 -0.4375,-0.02985 -0.4375,0.140625 0,0.17046 -0.153934,0.310546 -0.341797,0.310547 -0.410793,-10e-7 -0.100852,-1.111781 0.615234,-2.207032 0.275738,-0.421722 0.546593,-1.069191 0.601563,-1.439453 0.05497,-0.370266 0.749734,-1.308061 1.544922,-2.083984 0.814002,-0.794301 1.386057,-1.16456 1.65625,-1.148438 z m 2.167968,2.71875 c 0.611942,0 0.8284,0.879286 0.269532,1.09375 -0.824452,0.316377 -1.019586,0.211864 -0.845704,-0.453125 0.09205,-0.351984 0.351529,-0.640625 0.576172,-0.640625 z" />
      <path
         style="display:inline;fill:#f7b674;stroke-width:0.32"
         d="M 71.774979,95.165866 C 70.974035,94.03183 69.288806,90.690099 68.968122,89.6 68.838682,89.16 68.171904,87.539802 67.486387,85.999562 66.800874,84.459322 66.24,82.983322 66.24,82.719562 66.24,82.455802 66.096,82.24 65.92,82.24 c -0.176,0 -0.32,-0.294957 -0.32,-0.655459 0,-0.360499 -0.254826,-1.188499 -0.566282,-1.84 C 63.456314,76.444947 62.26807,70.240566 62.478016,66.4 62.751126,61.403968 65.117552,54.88976 68.16,50.758861 c 1.054928,-1.432336 4.411133,-4.701181 5.92,-5.765907 4.602982,-3.24808 7.114778,-4.82449 8.596528,-5.3952 5.543091,-2.134976 5.680141,-2.166516 10.283472,-2.366573 5.80568,-0.252314 8.20256,0.13264 12.47441,2.003478 3.02715,1.325731 3.55958,1.691568 5.46786,3.757043 1.16277,1.258564 2.33753,2.720298 2.61058,3.248298 0.27305,0.528 0.59127,1.032 0.70716,1.12 0.57556,0.437037 3.53999,6.099661 3.53999,6.762054 0,0.164176 0.24009,0.833876 0.53353,1.488224 0.29344,0.654346 0.58009,1.621722 0.63699,2.149722 0.0569,0.528 0.24882,2.286323 0.42647,3.907389 0.53947,4.92256 0.43096,7.478377 -0.62212,14.652611 -0.15501,1.056 -0.52369,2.64 -0.8193,3.52 -0.71885,2.139949 -0.8423,2.54465 -0.80686,2.645002 0.0165,0.04675 -0.67828,1.414752 -1.54399,3.04 -0.8657,1.625251 -2.1037,3.962998 -2.7511,5.194998 -1.81516,3.45423 -1.75346,3.44944 -3.3843,0.262774 -0.78293,-1.529846 -2.00082,-3.381692 -2.70641,-4.115212 C 106.01731,86.134038 104.72,84.566208 103.84,83.383488 100.21007,78.504867 95.436157,73.48407 93.485536,72.493536 92.873987,72.182992 92.089622,72.028598 91.664966,72.135178 90.136358,72.518835 83.186192,80.034653 78.14585,86.754576 77.566067,87.527558 76.603523,88.808 76.006864,89.6 c -0.596659,0.792 -1.645789,2.57664 -2.331402,3.965866 l -1.246563,2.525865 z m 2.777983,-17.326522 c 1.323168,-0.42928 3.121947,-0.982803 3.645937,-1.094911 1.135773,-0.243005 3.380475,-1.981965 2.637064,-2.125133 -0.718688,-0.138406 0.625803,-4.847777 1.369074,-4.88529 1.014397,-0.0512 -1.526407,-0.452403 -3.253489,-0.646329 -0.968,-0.108695 -2.918242,-0.357609 -4.550088,-0.634227 -3.703965,-0.627872 -5.226427,-0.700946 -7.571679,0.417716 -1.934368,0.922679 -2.685682,1.174129 -2.17517,1.489646 0.653313,1.57787 1.15216,3.271598 2.010429,4.681787 0.252089,0.359192 0.549829,1.017836 0.815182,1.652911 0.528763,1.2655 0.279131,1.810393 3.111758,1.880761 1.095725,0.02723 2.458307,-0.249414 3.960982,-0.736931 z m 34.820698,-3.58048 c 1.69033,-1.111123 3.18393,-1.85424 3.75174,-3.520688 0.61508,-1.80514 0.94127,-2.896381 0.3946,-2.903075 -0.28124,-0.0035 -0.294,-0.0747 -0.043,-0.24 0.51989,-0.342355 1.77665,-2.929383 1.57869,-3.249696 -0.0927,-0.149952 0.11788,-0.347533 0.4679,-0.439066 0.37956,-0.09926 0.26113,-0.405533 0.26113,-0.805108 0,-0.426113 -0.11103,-0.525946 -1.21408,-0.107402 -0.40746,0.154605 -2.22093,0.388229 -4.37393,0.595609 -3.4735,0.334572 -4.13661,0.522995 -6.62445,1.67238 -2.54583,1.176173 -3.913386,2.017297 -5.96209,4.007741 -0.703098,0.683104 -1.251354,1.341987 -0.68618,0.992691 1.59366,0.717875 3.69624,3.518193 3.876,3.909967 2.97899,0.983949 4.40034,0.580374 8.57367,0.08665 z M 65.576601,65.19354 c 1.035005,-1.406132 2.074526,-1.706675 5.57307,-2.164393 3.641344,-0.476403 6.193364,-0.0018 7.816599,1.223064 1.070871,0.808077 2.739111,0.858482 3.577489,0.97881 0.491331,-0.04397 0.754453,-1.598714 0.670671,-2.482673 0.390201,-0.778827 -0.187403,-0.533371 -1.365172,-0.774734 -1.26608,-0.424371 -7.801136,-0.993661 -10.213936,-0.88977 -0.781357,0.03364 -1.588662,0.326412 -2.385395,0.874627 C 67.621934,63.07865 64,65.897651 64,66.274467 c 0,0.639488 0.893484,-0.15286 1.576601,-1.080927 z m 31.227036,-0.137393 c 0,-1.047837 2.034019,-3.451406 4.105433,-4.440001 2.13757,-1.020169 6.30281,-1.4178 8.37093,-1.412085 0.704,0.0019 2.04073,-0.06534 3.00873,0.194486 0.72361,0.314784 1.64383,0.383666 1.6488,0.383566 -0.008,-0.22 -1.64186,-0.793234 -2.87318,-1.399717 -2.12387,-1.046106 -1.31146,-0.707785 -2.66889,-0.344729 -0.78696,0.210483 -1.87075,0.320149 -2.56131,0.320149 -2.11096,0 -5.46511,0.832544 -8.148956,2.181955 -2.248646,1.130598 -2.341702,1.117052 -2.165725,1.733788 0.109915,0.385142 0.584026,1.259168 0.786045,2.095168 0.356883,1.476848 0.498123,1.889407 0.498123,0.68742 z"
         id="skin" />
      <path
         style="display:inline;fill:#f7de31;stroke-width:0.32"
         d="m 77.44,218.25792 c -0.616,-0.32658 -1.656656,-1.1159 -2.31257,-1.75404 -1.437164,-1.39822 -3.580982,-2.36944 -6.156457,-2.78905 -1.049965,-0.17107 -2.057965,-0.42691 -2.24,-0.56853 -0.182035,-0.14162 -0.883821,-0.3425 -1.559527,-0.44641 -1.507737,-0.23185 -1.99567,-0.61924 -2.823318,-2.24157 -0.580269,-1.13742 -0.632403,-1.7345 -0.518787,-5.94141 l 0.126313,-4.67691 2.183127,-4.26305 c 1.351267,-2.63865 2.069334,-4.37683 1.884496,-4.56167 -0.184842,-0.18484 -0.509095,0.22022 -0.85097,1.06304 -0.796893,1.96457 -3.509824,7.30418 -3.803206,7.4855 -0.431191,0.26649 -0.270285,-2.41367 0.214569,-3.5741 0.255021,-0.61034 0.402624,-1.10972 0.328007,-1.10972 -0.114579,0 0.808867,-1.81308 2.933699,-5.76 0.510893,-0.949 0.552813,-2.59148 0.120058,-4.70425 -0.173012,-0.84466 -0.450983,-2.93202 -0.617716,-4.63857 -0.307974,-3.15221 -0.813244,-4.3648 -2.372083,-5.69273 -0.510665,-0.43502 -1.451894,-3.69749 -1.484393,-5.14518 -0.0062,-0.2754 0.513836,-0.75113 1.1556,-1.05716 0.877219,-0.41832 1.075785,-0.64748 0.8,-0.92327 -0.275789,-0.27579 -0.462154,-0.27153 -0.750842,0.0171 -0.2112,0.2112 -0.518915,0.384 -0.683811,0.384 -0.409277,0 -0.06879,-3.77918 0.439059,-4.87327 0.389069,-0.8382 0.425904,-0.84959 0.917053,-0.2837 0.782537,0.90163 2.664393,1.95444 3.495869,1.95578 0.409292,6.4e-4 1.705292,0.55393 2.88,1.2295 2.647827,1.52277 7.394265,2.39579 17.727932,3.26074 2.412788,0.20196 4.354596,0.55339 5.44,0.98452 1.932701,0.76769 4.18728,0.69022 5.951408,-0.20451 1.118295,-0.56717 3.39988,-1.27223 5.81649,-1.79741 0.792,-0.17212 2.17266,-0.51966 3.06812,-0.7723 0.89547,-0.25264 1.84909,-0.45935 2.11916,-0.45935 0.91772,0 5.52603,-1.63448 7.13272,-2.52985 0.88,-0.4904 1.97977,-0.98447 2.44394,-1.09794 0.7557,-0.18473 2.64154,-1.43154 5.15606,-3.40888 0.484,-0.3806 0.88,-0.54555 0.88,-0.36655 0,0.179 -0.16011,0.42441 -0.3558,0.54535 -0.25001,0.15451 -0.2868,1.32446 -0.12371,3.93456 0.18192,2.91149 0.36263,3.88059 0.8358,4.48214 0.33204,0.42211 0.60371,1.11166 0.60371,1.53232 0,0.42066 0.288,1.58426 0.64,2.58576 1.01587,2.89032 0.77265,8.60604 -0.49932,11.73444 -0.23701,0.58294 -0.26045,0.57922 -0.50431,-0.08 -0.14066,-0.38023 -0.40439,-0.69134 -0.58606,-0.69134 -0.48587,0 -0.40213,0.8729 0.16708,1.74163 0.30079,0.45906 0.37398,0.83538 0.18517,0.95207 -0.40673,0.25137 -2.0854,5.29012 -1.84313,5.5324 0.10203,0.10202 0.25592,-0.0151 0.34197,-0.2603 0.0861,-0.24519 0.51142,-1.3818 0.94524,-2.5258 0.74788,-1.97217 0.78993,-2.01996 0.81107,-0.92192 0.0122,0.63695 0.24254,2.42107 0.51173,3.96472 0.42863,2.45797 0.70266,3.12905 2.20581,5.40192 1.05932,1.60177 1.80138,3.11527 1.93841,3.9536 0.12212,0.74708 0.3535,1.43958 0.51418,1.53889 1.10559,0.68329 -1.3881,6.83751 -3.84387,9.48638 -0.27719,0.29898 -1.07983,1.32901 -1.78366,2.28896 -1.09089,1.48785 -1.563,1.84447 -3.2,2.41713 -1.6786,0.58721 -2.17381,0.63023 -3.93428,0.3418 -1.10769,-0.18147 -2.90769,-0.76707 -4,-1.30132 -1.09232,-0.53425 -2.56203,-1.01971 -3.26603,-1.0788 -2.87548,-0.24136 -5.07391,-1.07444 -6.32,-2.39493 -0.73762,-0.78166 -1.2,-1.58468 -1.2,-2.08404 0,-0.5761 -0.1716,-0.81239 -0.58999,-0.81239 -0.48259,0 -0.69461,-0.49855 -1.16474,-2.73881 -0.56528,-2.69364 -0.56395,-2.77411 0.0804,-4.88 0.36034,-1.17765 1.08608,-3.25759 1.61275,-4.62208 0.52667,-1.36449 0.82772,-2.56115 0.66898,-2.65925 -0.29211,-0.18054 -0.74981,0.77231 -1.13086,2.35425 -0.11472,0.47624 -0.46592,1.44189 -0.78045,2.14589 -0.31454,0.704 -0.63713,1.568 -0.71687,1.92 -0.0797,0.352 -0.16168,-0.22614 -0.1821,-1.28476 -0.03,-1.55435 0.15595,-2.32051 0.9661,-3.9811 0.94981,-1.94687 0.99323,-2.19778 0.81569,-4.71361 -0.2146,-3.04092 -1.08882,-5.3674 -2.20863,-5.87762 -0.724347,-0.33004 -2.257579,-3.17648 -3.658117,-6.7913 -0.68351,-1.76416 -1.864521,-3.38096 -2.215459,-3.03296 -0.132368,0.13125 -0.05295,0.63525 0.176483,1.12 0.229434,0.48474 0.478775,2.27554 0.554096,3.97954 0.120403,2.72386 0.03229,3.41979 -0.729277,5.76 -0.941344,2.89265 -1.682918,4.32748 -3.076694,5.95295 -0.495722,0.57812 -0.901312,1.24639 -0.901312,1.48505 0,0.23865 -0.284838,1.06164 -0.632973,1.82887 -0.348134,0.76722 -0.624477,1.68294 -0.614096,2.03494 0.01306,0.44225 0.194266,0.26414 0.586509,-0.57643 l 0.567632,-1.21643 0.18489,1.69643 c 0.22864,2.09787 1.220422,4.20706 2.706729,5.75633 l 1.131952,1.17991 -0.746416,1.86009 c -0.606694,1.51191 -1.481273,2.60886 -4.67216,5.8601 -4.667017,4.75529 -5.232067,5.40078 -5.232067,5.97688 0,0.4586 -1.55743,1.21236 -1.866464,0.90332 -0.09774,-0.0977 0.682144,-1.07376 1.733066,-2.16895 1.050924,-1.09519 2.19486,-2.3612 2.542083,-2.81335 0.347222,-0.45215 -0.02371,-0.14961 -0.824323,0.67233 -4.409184,4.52666 -5.379141,5.38961 -7.620136,4.2015 z M 86.104221,215.44 c 0.426678,-0.484 0.811779,-0.94 0.855779,-1.01333 0.044,-0.0733 0.08,0.32266 0.08,0.88 0,0.88517 -0.108237,1.01333 -0.855779,1.01333 H 85.328438 Z M 54.229382,168.65998 c -0.709843,-0.31614 -1.717843,-1.12027 -2.24,-1.78695 -0.52216,-0.66668 -1.324185,-1.63073 -1.782275,-2.14233 -0.804649,-0.89864 -0.839206,-1.10585 -1.018989,-6.11044 -0.221868,-6.17617 0.200032,-8.74974 1.751469,-10.68383 l 0.97576,-1.21643 -0.200445,-3.3921 c -0.261395,-4.42357 -1.366992,-7.67899 -4.553552,-13.4079 -0.687004,-1.23512 -0.786083,-1.76606 -0.696368,-3.7317 0.07452,-1.63265 0.267562,-2.47177 0.671274,-2.91786 0.311674,-0.3444 1.04088,-1.41367 1.620461,-2.37616 1.014979,-1.68554 1.50199,-2.25599 5.557763,-6.51001 1.015037,-1.06465 2.120784,-2.43265 2.457219,-3.04 0.336435,-0.60735 1.143959,-1.69084 1.794496,-2.40775 0.650535,-0.71692 1.261239,-1.50892 1.357114,-1.76 0.123661,-0.32385 0.625126,0.0191 1.725507,1.18008 0.853152,0.90013 2.055184,1.89212 2.671184,2.20442 0.616,0.3123 2.094701,1.48382 3.285997,2.6034 1.191299,1.11957 2.339747,2.03558 2.552105,2.03558 0.622596,0 -3.92958,-4.06916 -5.678102,-5.07562 -0.88,-0.50653 -2.246464,-1.73173 -3.036586,-2.72267 C 60.653293,106.41077 59.900992,105.6 59.771632,105.6 c -0.538781,0 -1.19032,-1.99793 -1.8276,-5.604326 C 56.61143,92.454451 56.361466,91.310669 55.217584,87.52 54.580262,85.408 53.708474,82.456 53.280275,80.96 52.17561,77.10063 51.155389,73.846192 50.861414,73.243984 50.722867,72.960173 50.448998,71.808173 50.252813,70.683984 50.056627,69.559792 49.693696,67.56 49.446294,66.24 47.492256,55.814192 46.940829,50.562976 47.125181,44.136205 c 0.101923,-3.553149 0.292736,-5.56 0.578089,-6.08 0.234272,-0.426912 0.457479,-0.965354 0.49601,-1.196538 0.03853,-0.231184 0.44176,-0.879184 0.896064,-1.44 C 49.549648,34.858851 50.800784,33.14 51.875645,31.6 c 1.074864,-1.54 2.053453,-2.8 2.17464,-2.8 0.12119,0 0.775827,-0.87193 1.454749,-1.937622 0.678921,-1.065693 1.76072,-2.397693 2.40399,-2.96 C 58.552298,23.34007 59.500406,22.304 60.015933,21.6 c 0.515526,-0.704 1.108958,-1.677454 1.471623,-2.029454 0.362666,-0.352 1.174975,-1.063167 1.652242,-1.714149 2.78018,-3.224337 5.652782,-5.637305 8.510748,-7.699541 0.396,-0.1866099 1.928364,-0.9976305 3.424364,-1.7067128 3.727581,-1.7668179 5.902168,-1.8569714 11.585983,-1.6529819 5.22455,0.1875069 8.011379,0.8868035 11.739107,2.9456854 1.056,0.5832453 2.856,1.3936183 4,1.8008293 2.35089,0.836808 4.02014,1.689434 4.96,2.533489 0.352,0.316118 1.864,1.18359 3.36,1.927716 1.496,0.744126 2.768,1.479443 2.82667,1.634038 0.0587,0.154595 0.24998,0.281081 0.42515,0.281081 0.17517,0 1.35117,0.842613 2.61334,1.872474 1.26216,1.02986 2.74182,2.102685 3.28812,2.384056 0.5463,0.28137 1.86412,1.346757 2.92849,2.367526 1.06437,1.020769 2.43496,2.318253 3.04575,2.883298 1.20525,1.114975 2.15248,3.468511 2.15248,5.348182 0,0.624403 0.141,1.749347 0.31332,2.499872 0.99051,4.313859 1.40511,11.234797 1.46197,24.404592 0.0319,7.392 0.14737,18.157264 0.25657,23.92281 0.232,12.249027 0.14482,12.879529 -2.18614,15.81223 -0.81527,1.02573 -1.72607,2.21094 -2.02401,2.6338 -0.73258,1.03974 -3.47038,3.76398 -7.22407,7.1883 -1.71052,1.56042 -3.03824,2.90893 -2.95048,2.99669 0.1616,0.1616 3.90012,-3.10598 8.01934,-7.00913 l 2.2535,-2.1353 0.85424,0.62322 c 0.46982,0.34278 1.2138,1.23166 1.65328,1.9753 0.43947,0.74364 1.45908,1.89926 2.2658,2.56804 0.80671,0.66877 1.67424,1.60477 1.92783,2.08 0.2536,0.47522 1.38897,1.58039 2.52304,2.45592 3.20887,2.47735 3.51211,3.0819 3.66976,7.31619 0.14705,3.94959 -0.29587,6.32859 -1.69798,9.12012 -0.43778,0.87162 -0.79597,1.74541 -0.79597,1.94177 0,0.19636 -0.2723,0.96744 -0.60512,1.71353 -0.46195,1.03556 -1.51893,7.31466 -1.38514,8.22851 0.065,0.44411 0.67812,0.2818 0.80947,-0.21429 0.12765,-0.48216 0.19459,-0.44564 0.40474,0.22085 0.44512,1.41174 2.63604,5.57878 3.31662,6.30806 0.36269,0.38864 0.65943,0.82949 0.65943,0.97966 0,0.15017 0.27844,0.57191 0.61876,0.9372 0.50717,0.54438 0.63701,1.23332 0.72,3.82033 0.0919,2.86529 0.0338,3.25071 -0.63026,4.18174 -0.40521,0.5681 -0.92007,0.95318 -1.15428,0.8633 -0.27154,-0.1042 -0.7437,0.50197 -1.31985,1.69446 -0.49338,1.02118 -1.28203,2.36069 -1.75255,2.97669 -0.47052,0.616 -0.94815,1.37527 -1.0614,1.68726 -0.32204,0.88719 -1.05134,0.98846 -2.86407,0.3977 -5.35621,-1.74556 -8.41579,-4.33752 -6.90427,-5.84904 0.2414,-0.2414 0.34935,-1.46266 0.30736,-3.4773 -0.0356,-1.70787 0.0527,-3.18924 0.19619,-3.29192 0.84658,-0.60579 2.32521,-3.00099 2.81473,-4.55952 0.5456,-1.7371 0.54565,-1.91086 10e-4,-4.16 -0.49593,-2.04844 -1.42078,-4.01595 -3.66873,-7.80475 -0.31901,-0.53766 -0.6863,-1.31247 -0.81622,-1.72179 -0.12991,-0.40932 -0.71575,-1.54029 -1.30186,-2.51326 -0.94379,-1.56673 -1.73356,-3.73442 -3.4878,-9.57293 -0.59423,-1.97772 -0.76195,-4.42189 -0.37977,-5.53445 0.21526,-0.62662 0.18983,-0.71934 -0.11732,-0.42783 -0.8316,0.78926 -0.72752,3.07202 0.33341,7.31273 0.8846,3.53589 1.55043,5.20423 4.46795,11.1951 3.90957,8.02797 4.47884,9.53548 4.47884,11.86054 0,1.41711 -0.19553,1.95934 -1.30647,3.623 -0.71857,1.07605 -1.43857,1.95646 -1.6,1.95646 -0.16144,0 -0.29353,0.19674 -0.29353,0.43719 0,0.24046 -0.64764,0.94177 -1.43921,1.55847 -0.79156,0.61671 -2.29859,1.89597 -3.34894,2.84281 -2.47094,2.22743 -3.62985,3.12353 -5.42671,4.19607 -1.32674,0.79194 -1.76106,0.87506 -4.59788,0.88 -2.50891,0.004 -3.38277,-0.12202 -4.3874,-0.63454 -1.92328,-1.02352 -2.57616,0.34621 -4.28852,0.35381 -2.227187,0 -4.30408,0.68478 -6.672498,2.13125 -1.775459,1.08433 -1.925785,1.12075 -4.178844,0.95035 -1.902333,-0.14387 -3.019837,-0.48445 -5.998983,-1.82829 -4.145126,-1.8698 -4.846653,-1.92026 -9.741155,-0.70065 -7.27671,1.81322 -6.572602,1.71761 -8.815334,1.19694 -1.458666,-0.33864 -2.256042,-0.71767 -2.716685,-1.29137 -0.358615,-0.44662 -0.816909,-0.81204 -1.018439,-0.81204 -0.201526,0 -0.457552,-0.28715 -0.56894,-0.63811 -0.111389,-0.35095 -0.431386,-0.86696 -0.711101,-1.14668 -1.088096,-1.08809 -0.776749,-6.77878 0.593904,-10.85521 0.646134,-1.92166 2.351501,-6.24419 2.864137,-7.25962 0.149834,-0.29679 0.625565,-2.09679 1.057184,-4 1.014292,-4.47247 1.3444,-10.68203 0.711322,-13.38038 -0.54009,-2.30199 -0.659792,-1.37513 -0.166813,1.29164 0.819347,4.43226 -1.317264,15.22802 -4.01239,20.2736 -0.850176,1.59162 -1.529802,4.05096 -2.024301,7.32528 -0.463027,3.06591 -0.458278,3.44816 0.06955,5.6 0.693146,2.82578 0.712576,3.87389 0.128845,6.94948 -0.449325,2.36743 -0.47472,2.40977 -1.871027,3.12 -1.674317,0.85164 -2.399036,1.11018 -4.121097,0.34324 z m 39.297395,-44.16024 c 3.769622,-1.84018 6.272561,-3.09534 7.753223,-4.50658 0.88,-0.83874 2.032,-1.74282 2.56,-2.00907 0.83036,-0.41872 3.78148,-3.33077 7.8753,-7.77102 2.25428,-2.44505 5.27946,-5.25307 5.65933,-5.25307 0.21195,0 0.38537,-0.19167 0.38537,-0.42593 0,-0.23426 0.36248,-0.61992 0.80551,-0.85702 1.63496,-0.875 2.29712,-2.20535 2.55013,-5.123495 0.12941,-1.492457 0.34423,-2.857555 0.47737,-3.033555 0.13315,-0.176 0.32644,-2.768 0.42953,-5.76 0.10309,-2.992 0.47744,-8.896 0.83189,-13.12 1.19773,-14.273421 1.31135,-16.302694 1.38854,-24.8 0.0511,-5.626925 -0.0604,-9.395136 -0.33139,-11.2 -0.22462,-1.496 -0.56323,-3.872 -0.75245,-5.28 -0.54972,-4.090456 -1.56213,-4.895785 -3.79473,-5.272981 -2.84814,0.856917 -8.30893,2.939934 -9.59793,3.506923 -0.54876,0.120531 -2.06899,-0.45743 -3.32423,0.06699 -5.84404,2.441581 -4.24291,2.777654 -21.305336,2.755261 C 76.688904,36.405125 68.952,35.803398 68.16,35.673664 67.368,35.543926 66.432,35.177824 66.08,34.860106 65.206819,34.071962 60.920624,32.390458 59.180163,32.153251 58.399072,32.046797 57.436,31.894021 57.04,31.813752 56.155011,31.634363 56.118653,32.255926 56.795133,36 c 0.254397,1.408 0.467561,4.469117 0.473702,6.802483 0.0062,2.345664 0.288205,6.280151 0.630803,8.8 0.340804,2.506634 0.710375,5.925517 0.821271,7.597517 0.110896,1.672 0.404073,5.144429 0.651504,7.716512 0.24743,2.57208 0.597552,6.96408 0.778051,9.76 0.3204,4.962989 1.16689,12.508016 2.103485,18.749027 0.256326,1.708048 0.466051,3.826439 0.466051,4.707541 0,1.836 0.547917,2.54103 2.810157,3.61592 0.753587,0.35807 1.50607,0.90499 1.672192,1.21539 0.166118,0.31039 1.061549,1.10998 1.989843,1.77686 0.928294,0.66688 2.191808,1.69291 2.807808,2.28007 1.46392,1.39537 3.457418,2.93222 6.322122,4.87391 2.456774,1.6652 8.077878,6.62844 8.077878,7.13248 0,0.35321 0.286595,0.63542 2.4,2.36329 1.626154,1.32951 2.663621,1.75635 3.099455,1.77391 0.132864,0.005 0.792186,-0.25749 1.627322,-0.66517 z"
         id="suit" />
      <path
         id="cuffs"
         style="display:inline;fill:#a69604;stroke-width:0.32"
         d="m 124.4668,161.25 c -0.28272,-0.0556 -0.30289,0.95417 0,2.66797 0.22569,1.27697 0.61597,2.72502 0.86718,3.2168 0.54733,1.0714 2.1993,2.14253 3.30664,2.14453 0.44,9.3e-4 1.30393,0.2714 1.91993,0.60156 0.63211,0.33879 1.83752,0.61842 2.76757,0.64062 1.48958,0.0354 1.75953,-0.072 2.80079,-1.11328 0.6336,-0.6336 1.15039,-1.29456 1.15039,-1.46875 0,-0.41365 1.32546,-1.51559 1.83984,-1.52929 0.62091,-0.0165 0.47455,-1.38735 -0.33594,-3.13672 l -0.73632,-1.58985 -1.10352,1.51758 c -0.60674,0.83482 -1.31537,1.82284 -1.57422,2.19727 -0.48711,0.70459 -2.43416,0.96786 -3.06445,0.41406 -0.1672,-0.14691 -1.0243,-0.53299 -1.9043,-0.85742 -2.09848,-0.77364 -5.17882,-2.58866 -5.56641,-3.28125 -0.15049,-0.26892 -0.27294,-0.40531 -0.36718,-0.42383 z m -76.269534,3.14062 c -0.385507,0.38551 -0.186685,2.58598 0.458984,5.07813 0.360681,1.39216 0.577995,2.93313 0.484375,3.42383 -0.125699,0.65881 -0.02465,0.9431 0.384766,1.08789 0.304932,0.10784 0.937299,0.60004 1.404297,1.09375 1.117164,1.18108 2.82145,2.20308 3.675781,2.20508 0.376495,6.6e-4 1.023953,0.28472 1.439453,0.63086 1.179221,0.9824 1.94698,0.78168 3.939453,-1.0293 l 1.849609,-1.68164 -0.648437,-1.11914 c -0.355728,-0.616 -0.82853,-1.98502 -1.050781,-3.04102 -0.222256,-1.056 -0.422656,-1.95243 -0.447266,-1.99218 -0.02462,-0.0398 -0.812188,0.21983 -1.75,0.57617 -1.579696,0.60024 -1.782642,0.61138 -2.75,0.15234 -0.574286,-0.27252 -1.144345,-0.49609 -1.265625,-0.49609 -0.433104,0 -2.708144,-1.76612 -2.714844,-2.10742 -0.0094,-0.47833 -2.765693,-3.02528 -3.009765,-2.78126 z" />
      <path
         style="display:inline;fill:#248b3f;stroke-width:0.32"
         d="m 71.092051,76.025997 c -0.610393,-0.613674 -0.928345,-1.159959 -0.742109,-1.275059 0.17921,-0.110759 0.422983,-0.04419 0.541719,0.147929 C 71.15985,75.332806 72.32,74.165162 72.32,73.461299 c 0,-0.387126 0.163981,-0.423113 0.809552,-0.177667 0.704611,0.267891 0.848765,0.204643 1.11208,-0.48792 0.332323,-0.874083 1.194944,-1.065456 1.477974,-0.327894 0.09873,0.257302 0.440912,0.550784 0.760394,0.652182 1.016352,0.322576 0.966141,1.049859 -0.149501,2.165501 -0.91927,0.91927 -2.921872,1.859027 -3.887625,1.824339 -0.155581,-0.0056 -0.76345,-0.493318 -1.350823,-1.083843 z M 104.41461,73.6884 c -1.36802,-0.681315 -1.48807,-1.152515 -0.55119,-2.16343 0.53794,-0.580445 0.97771,-0.784263 1.40176,-0.649671 0.45408,0.144119 0.73563,-0.02854 1.06189,-0.651219 0.41889,-0.799498 0.47486,-0.816438 0.99126,-0.300038 0.45787,0.457872 0.75731,0.493993 1.83256,0.221065 l 1.28527,-0.326233 -0.0981,1.010563 c -0.0856,0.881744 -0.23065,1.023344 -1.13808,1.110838 -0.90377,0.08714 -1.04,0.218483 -1.04,1.002679 0,1.354809 -1.80177,1.713417 -3.74539,0.745446 z m 0.67848,-1.573661 c 0.16853,-0.439193 0.12171,-0.458989 -0.28577,-0.120819 -0.55527,0.460842 -0.61306,0.64608 -0.20156,0.64608 0.15717,0 0.37647,-0.236368 0.48733,-0.525261 z M 77.288163,73.29321 c -0.132217,-0.213936 -0.08254,-0.546829 0.110387,-0.73976 0.491565,-0.491565 0.802986,-0.0738 0.435066,0.583641 -0.223888,0.400064 -0.369014,0.441603 -0.545453,0.156119 z M 69.44,72.32 c 0,-0.528 0.119059,-0.96 0.264579,-0.96 0.145517,0 0.201175,0.432 0.12368,0.96 -0.07749,0.528 -0.196553,0.96 -0.264579,0.96 -0.06802,0 -0.12368,-0.432 -0.12368,-0.96 z m 5.095517,-0.72 c -0.319792,-1.044918 0.02781,-1.651267 0.504483,-0.88 0.108774,0.176 0.03677,0.32 -0.16,0.32 -0.196774,0 -0.268774,0.144 -0.16,0.32 0.108774,0.176 0.117274,0.32 0.01888,0.32 -0.09839,0 -0.189904,-0.036 -0.20337,-0.08 z M 75.78,70.821405 c 0.230998,-0.09244 0.506998,-0.08107 0.613334,0.02525 0.106333,0.106333 -0.08267,0.181965 -0.42,0.16807 C 75.60055,70.999363 75.524726,70.923542 75.78,70.821392 Z m -1.00919,-1.088781 c -0.530112,-0.619123 -0.531655,-0.65961 -0.02134,-0.56 0.30254,0.05906 0.586934,0.359376 0.63199,0.667376 0.103162,0.705229 0.08194,0.701498 -0.610643,-0.107376 z m 1.06919,0.32849 c 0,-0.186388 0.144,-0.249888 0.32,-0.141114 0.176,0.108774 0.32,0.261274 0.32,0.338886 0,0.07761 -0.144,0.141114 -0.32,0.141114 -0.176,0 -0.32,-0.152499 -0.32,-0.338886 z M 104,68.359181 c 0,-0.06645 0.252,-0.318448 0.56,-0.56 0.50754,-0.398039 0.51886,-0.38672 0.12082,0.120819 C 104.26278,68.45304 104,68.622554 104,68.359181 Z"
         id="eye2" />
      <path
         id="grey"
         style="display:inline;fill:#474644;stroke-width:0.32"
         d="m 109.47901,33.068628 c -0.61065,-0.06045 -1.531,0.223278 -2.19428,0.566272 -0.51839,0.26807 -2.2582,0.936555 -4.05615,1.539758 -1.79795,0.603219 -3.325175,1.366374 -3.06809,1.452924 0.25708,0.08655 1.38738,0.589815 2.26738,0.874798 1.62706,0.526899 4.31076,1.669161 6.06773,2.625696 1.47142,0.801068 5.01869,4.75767 5.99749,6.698029 0.47719,0.945971 1.20718,1.925537 1.32527,2.013537 0.23726,0.17681 0.4947,0.973756 2.19551,4.851068 0.88129,2.009069 1.29004,3.609367 1.78516,6.978516 0.35329,2.404039 0.46567,5.171916 0.46567,6.179059 10e-6,2.629065 -0.8339,10.889465 -1.39165,12.079449 -0.25993,0.554598 -0.47266,1.180375 -0.47266,1.388672 0,0.542592 -2.51975,6.499439 -2.83789,6.708985 -0.14628,0.09635 -0.68329,1.110226 -1.19336,2.253906 -0.51006,1.143683 -1.41191,2.714685 -2.00391,3.490234 -1.01495,1.329856 -1.06419,1.512027 -0.87109,3.21875 0.24925,2.203021 -0.40271,3.414227 -2.02198,4.987789 -0.62759,0.60989 -1.16284,1.42183 -1.16468,1.61573 -0.002,0.1939 -0.4022,0.70481 -0.88868,1.21491 -0.48647,0.5101 -1.12405,1.85799 -1.63169,2.91399 -0.93517,1.94533 -2.58763,4.00206 -4.18284,5.57562 -0.71594,0.70606 -1.53259,0.80596 -4.365854,1.34066 -3.215124,0.60677 -3.509936,0.66419 -5.7599,0.23369 -2.991306,-0.57234 -3.673488,-0.82992 -6.145923,-2.5528 -1.206221,-0.84061 -1.987161,-1.64355 -2.31919,-2.34326 -0.296198,-0.62419 -0.583315,-1.15688 -0.745533,-1.15688 -0.1622,0 -0.342173,-0.0415 -0.240099,-0.30747 0.127312,-0.33181 -0.18424,-0.75801 -0.506287,-0.63443 -0.653299,0.2507 -2.32219,-0.62904 -4.423828,-2.62388 -2.350477,-2.23089 -3.959274,-5.191395 -4.218951,-7.268899 -0.022,-0.176 -0.454549,-0.51933 -0.718549,-0.51933 -0.263984,0 -0.240138,-0.0035 -0.245038,-0.223487 -0.0049,-0.219984 -0.349397,-1.12164 -0.872485,-1.812994 -0.523104,-0.691337 -0.951172,-1.248023 -0.951172,-1.48067 0,-0.232646 -0.250764,-0.344775 -0.314386,-0.466101 -0.09277,-0.176904 -0.592798,-0.905142 -0.904859,-1.956336 -0.312048,-1.051193 -0.615694,-2.082927 -0.782641,-2.186108 -0.166944,-0.103178 -0.326801,-0.268421 -0.326801,-0.500763 0,-0.232346 -0.435117,-1.311753 -0.913366,-2.345007 -0.478263,-1.033251 -0.786911,-1.970845 -0.740931,-2.190845 0.04598,-0.22 -0.112466,-0.619568 -0.296179,-0.619568 -0.183715,0 -0.293924,-0.197842 -0.299524,-0.681842 -0.0056,-0.484 -0.196275,-1.220605 -0.450543,-1.556573 -0.63776,-0.842743 -2.036157,-5.06713 -2.606726,-8.048896 -0.632512,-3.305469 -0.603515,-6.617159 0.132184,-10.110071 0.745216,-3.538077 1.199303,-4.786558 2.708356,-7.453192 0.647373,-1.143984 1.434489,-2.626338 1.667901,-3.184155 0.233411,-0.557818 0.641281,-1.021213 1.013111,-1.220209 0.371814,-0.198998 0.648101,-0.566759 0.559851,-0.709546 -0.137075,-0.221795 3.797364,-4.034662 4.156945,-4.034662 0.07013,0 0.433793,-0.213052 0.64635,-0.392511 1.744499,-1.47273 2.431207,-2.036488 3.543665,-2.769531 0.703984,-0.463897 1.68432,-1.023725 2.124304,-1.352954 1.711139,-1.280419 7.959947,-4.235887 9.792609,-4.413794 2.291766,-0.222466 -4.094802,-0.54778 -7.884069,-0.365728 -9.67025,0.464588 -10.760456,0.358254 -11.133307,0.651221 -0.21056,0.165449 -0.686576,0.350713 -1.167408,0.465539 -1.507991,0.360128 -7.230814,5.981024 -8.382049,8.180115 -0.345514,0.659984 -0.580674,1.088654 -0.739112,1.088653 -0.158423,1e-6 -0.58271,0.676614 -0.699017,1.206134 -0.11912,0.542428 -0.134288,0.65334 -0.319885,0.538636 -0.215415,-0.133133 -0.515188,0.480304 -0.409259,1.396282 0.941098,8.137977 2.189881,22.648851 2.174457,25.494208 -0.0053,0.967984 0.13511,2.928625 0.310547,4.248609 0.175437,1.319968 0.593619,4.416891 0.874304,6.880859 1.180224,10.360589 1.372254,11.364351 2.763672,12.603381 1.716982,1.528975 3.032386,2.673555 3.405487,2.673555 0.189129,0 0.70247,0.37375 1.358252,0.99232 0.929942,0.87719 1.630202,0.83852 2.243872,0.6845 0.592595,-0.14874 1.029276,0.2409 2.038501,1.04018 0.736986,0.58372 1.766963,1.33673 2.395923,1.67383 0.628944,0.3371 1.913208,1.02951 2.637841,1.75474 1.581786,1.58307 2.327336,2.50666 3.815912,3.54346 0.616,0.42903 1.347011,0.72769 1.436041,0.85302 0.08903,0.12534 1.297451,0.95885 2.792408,1.60918 1.49494,0.65033 3.669202,1.62486 4.72517,2.11258 1.055984,0.48771 2.070052,0.83267 2.334052,0.92787 1.967155,0.70944 5.930638,-0.40797 7.648866,-2.2396 2.22471,-2.37176 4.12421,-4.14218 5.30224,-4.70118 0.6607,-0.31353 1.84403,-1.11929 2.41323,-1.8464 0.5692,-0.72712 1.25836,-1.62504 1.6114,-1.91399 0.35305,-0.28895 1.27723,-1.03649 1.9993,-1.71554 0.72207,-0.67905 1.76872,-1.50234 2.19065,-1.88155 1.69517,-1.52351 4.45027,-4.992772 4.80886,-5.693165 0.21474,-0.419421 0.57065,-0.673628 0.81445,-0.580078 0.53206,0.20417 1.11614,-2.245493 1.11914,-4.691406 0.001,-0.915322 0.22233,-4.255877 0.49023,-7.423829 0.26791,-3.167936 0.61687,-7.809759 0.7754,-10.314453 0.15837,-2.504682 0.35655,-4.665511 0.43945,-4.800781 0.23169,-0.378237 0.98083,-11.522839 0.98083,-16.724609 0,-5.047171 -0.0133,-5.33687 -2.58405,-9.605469 -2.00138,-3.323107 -5.74871,-6.79913 -9.66519,-8.908001 -0.92992,-0.500713 -1.62826,-0.837921 -2.23891,-0.898371 z M 97.919922,69.119141 c -0.01652,-0.01652 -0.146622,0.08028 -0.400391,0.279297 -0.307984,0.241536 -0.558594,0.494096 -0.558593,0.560546 0,0.263373 0.261649,0.09359 0.679687,-0.439453 0.199019,-0.253754 0.295814,-0.383873 0.279297,-0.40039 z m -4.177734,26.398437 c -1.23167,0.01966 -2.469902,0.311513 -3.353516,0.869141 -0.697216,0.439984 -1.57185,0.895873 -1.94336,1.013672 -0.809741,0.256745 -3.006884,2.561344 -3,3.146489 0.0035,0.2943 0.09376,0.27494 0.314454,-0.0664 0.255705,-0.39569 0.310453,-0.365 0.314453,0.17578 0.0027,0.3608 -0.153745,0.81585 -0.34961,1.01172 -0.195842,0.19586 -0.258697,0.51477 -0.138671,0.70898 0.321584,0.52036 1.033489,0.29102 1.039489,-0.51582 0.0087,-1.15382 1.139005,-3.341473 2.335511,-3.962692 3.677738,-1.909501 5.477195,-2.175888 7.464843,-1.105469 0.64624,0.34801 1.173828,0.752073 1.173828,0.898437 0,0.14637 0.144313,0.177134 0.320313,0.06836 0.567866,-0.35097 0.344478,-0.732824 -0.865234,-1.480469 -0.857289,-0.529835 -2.080846,-0.781383 -3.3125,-0.761719 z m 0.333984,1.15625 c -0.38277,-0.02907 -0.655131,0.0584 -0.783203,0.265625 -0.101728,0.164598 0.285984,0.356495 0.861328,0.427735 2.093146,0.259142 2.379141,0.206452 1.365234,-0.257813 -0.568019,-0.260099 -1.060604,-0.406473 -1.443359,-0.435547 z m 4.416016,0.828125 c -0.16361,0.0338 -0.233092,0.188608 -0.07813,0.439453 0.101258,0.163837 0.397653,0.298828 0.658204,0.298828 0.389091,0 0.399391,-0.0806 0.06055,-0.447265 -0.219536,-0.237533 -0.47703,-0.324815 -0.640624,-0.291016 z m -0.646485,0.738281 c -0.196291,0 -0.01883,0.358844 0.394531,0.798828 0.815686,0.868259 1.133841,0.974958 1.439454,0.480469 0.108758,-0.176 -0.03554,-0.320312 -0.320313,-0.320312 -0.309891,0 -0.425703,-0.148028 -0.289063,-0.369141 0.136278,-0.220501 0.08816,-0.282419 -0.11914,-0.154297 -0.191033,0.118064 -0.438281,0.06754 -0.548828,-0.111328 -0.110548,-0.17887 -0.360349,-0.324219 -0.556641,-0.324219 z m -5.130859,3.548826 c -0.273173,0.0353 -0.518033,0.12764 -0.703125,0.28125 -0.731437,0.60704 -0.901234,2.45682 -0.308594,3.36133 0.40993,0.62563 0.80017,0.80859 1.724609,0.80859 1.085933,0 1.247907,-0.11689 1.777344,-1.29101 0.570352,-1.26482 0.56957,-1.30975 -0.0625,-2.16016 -0.527344,-0.7095 -1.60823,-1.10595 -2.427734,-1 z m 22.210936,1.18443 c -0.40178,-0.0778 -0.87551,0.15823 -1.54932,0.68547 -1.17557,0.91987 -4.00749,3.9067 -5.19091,5.25901 -0.42553,0.48626 -1.46636,0.99352 -2.09683,1.31591 -0.63031,0.32239 -2.24704,1.74105 -3.56704,3.09891 -4.336935,4.46127 -6.877702,5.00657 -12.026282,2.55734 -1.612384,-0.76702 -3.60704,-1.68254 -4.487024,-2.00844 -2.033786,-0.7532 -4.001644,-1.92007 -7.11189,-4.84067 -1.359914,-1.27707 -2.867876,-2.71951 -3.458423,-3.07151 -0.590531,-0.352 -1.76359,-1.13366 -2.498608,-1.65618 l -1.335937,-0.77427 -0.880658,0.63497 c -0.37495,0.45796 -0.98423,0.89461 -1.408899,1.02414 -0.730528,0.22283 -0.628752,0.71718 -0.04959,1.03273 0.336653,0.18343 0.416859,0.30498 0.557605,0.54058 0.140745,0.23561 0.786182,0.6931 1.002246,0.6931 0.216061,0 0.652738,0.42504 1.130994,0.97007 0.47824,0.54503 1.675905,1.54598 2.688824,2.22461 1.012921,0.67847 2.580843,1.77855 3.593189,2.57889 1.012342,0.80033 2.005409,1.42341 2.054059,1.54353 0.107471,0.26536 1.035792,0.71123 2.093817,1.74427 6.472723,6.31975 8.52938,7.96354 9.332391,8.12689 0.982121,0.19977 1.901471,0.0319 3.547571,-1.05029 0.612841,-0.4029 1.475245,-0.82087 1.698388,-0.82087 0.223145,0 0.470636,-0.19458 0.470636,-0.3515 0,-0.15692 0.293869,-0.31491 0.759204,-0.43171 0.465353,-0.11679 1.812667,-1.09577 2.887277,-2.1204 1.07465,-1.02464 2.17541,-1.88691 2.52741,-1.99811 0.352,-0.1112 2.1683,-1.93926 3.9283,-3.81815 1.75984,-1.8789 4.39367,-4.65963 5.93367,-6.20641 2.97275,-2.98585 3.39004,-3.99716 2.03382,-4.6151 -0.16862,-0.0768 -0.44406,-0.24088 -0.57799,-0.26681 z m -24.251952,0.67495 c -0.02889,0.0714 -0.04753,0.24772 -0.05078,0.51172 -0.0065,0.52799 0.05882,0.78305 0.146484,0.5664 0.08767,-0.21665 0.09285,-0.64959 0.01172,-0.96094 -0.04057,-0.15552 -0.07853,-0.18858 -0.107422,-0.11718 z m 15.156252,1.45117 c -0.0509,-0.0439 -0.39398,-0.10974 -0.49583,-0.0468 -0.176,0.10877 -0.22899,0.62534 -0.22599,1.01096 0.004,0.56999 0.37188,0.65515 0.62403,0.26492 0.30556,-0.47283 0.42747,-1.07513 0.27469,-1.20696 z m 19.1476,48.31396 -1.62131,0.92508 c -0.66,0.48531 -1.89678,1.6806 -2.96568,2.65625 -3.3797,3.08487 -3.93316,3.44394 -5.66846,4.38212 -1.5438,0.8346 -1.88353,0.7638 -4.85038,0.7788 -2.40463,0.0122 -3.36042,-0.0519 -4.06785,-0.42975 -0.74803,-0.39942 -1.64437,-0.43265 -3.82611,-0.31125 -1.54,0.0857 -2.756558,-0.11332 -2.84501,0.30608 -0.02723,0.12909 -0.444905,0.31997 -0.934851,0.41797 -0.489964,0.098 -1.789742,0.85291 -2.861957,1.56892 -1.902729,1.27063 -1.926411,1.21233 -4.614673,1.21233 -2.854736,0 -3.482283,-0.24284 -8.766455,-2.93686 -0.869984,-0.44316 -1.801491,-0.70577 -2.759564,-0.58581 -1.743392,0.21828 -4.986564,1.07374 -6.004535,1.49533 -0.44,0.18223 -1.818205,0.66363 -3.035785,0.98821 -1.217584,0.32457 -1.898785,0.78806 -1.649201,0.86706 0.249596,0.079 0.791794,0.54677 1.231794,0.8501 0.904397,0.6235 1.757759,0.82791 6.28446,1.43422 1.759968,0.23574 3.56,0.49751 4,0.60875 0.44,0.11124 2.456501,0.40982 4.480469,0.58196 4.922778,0.41869 7.048316,0.72561 7.81773,1.17906 1.188077,0.70043 3.343476,0.3715 7.776648,-1.08719 2.40681,-0.792 4.65271,-1.41739 5.0189,-1.41539 1.99963,0.008 8.69778,-2.13754 11.38135,-3.61775 0.88,-0.48537 1.93828,-0.92055 2.37828,-1.0489 0.95216,-0.27757 3.18562,-1.89842 4.91853,-3.51095 1.19174,-1.10882 1.10031,-1.29874 1.13944,-3.18094 z m 1.2136,15.77192 c -0.48355,0.12081 -0.25665,0.77169 0.29888,2.2208 0.26989,0.70384 0.52346,2.68235 0.62106,4.49017 0.0976,1.80798 0.28668,3.39586 0.43944,3.49026 0.4177,0.25816 0.42672,0.58159 -0.0175,0.49009 -0.26793,-0.0552 -0.41428,0.73421 -0.36918,1.78345 0.0466,1.08433 -0.19843,1.34753 -0.50206,1.34753 -0.23414,0 -0.46652,0.30374 -0.66983,0.74995 -0.33614,0.73775 -0.1707,1.13891 0.8907,2.0744 1.72101,1.51667 2.21771,1.77578 3.25983,1.92969 l -0.0156,-0.002 c 2.26779,0.33493 3.62141,0.21973 5.18368,-0.52147 0.89699,-0.42557 1.90722,-1.13272 2.20705,-1.45515 1.35008,-1.45188 1.99343,-1.90522 2.98064,-3.39839 1.25913,-1.90519 1.30927,-2.80005 1.08386,-4.48056 -0.11523,-0.85912 -0.52002,-1.67213 -1.086,-2.11733 -0.46083,-0.3625 -1.08317,-1.04696 -1.42184,-1.71082 -0.33868,-0.66386 -0.99474,-1.73323 -1.43947,-2.26178 -0.72633,-0.86318 -1.10671,-0.82811 -2.20716,-0.62688 -1.90367,-0.2723 -5.07008,-1.13447 -7.39062,-1.55072 -0.54348,-0.24412 -1.20395,-0.5609 -1.84583,-0.45124 z m -77.620204,7.33355 c -1.468095,1.55862 -1.973936,3.06493 -1.654791,5.85268 0.411603,3.5955 1.476751,5.73882 4.030486,8.37682 1.28566,1.32807 2.360004,2.38057 2.360004,2.5288 0,0.14822 0.485327,0.54576 0.969311,0.72253 1.176755,0.42983 4.438617,0.47642 5.525257,0.0631 0.480653,-0.18275 1.302528,-0.64595 1.583782,-0.9472 0.28127,-0.30125 0.609336,-0.54403 0.94419,-0.72997 0.334855,-0.18593 1.175331,-1.2768 1.680182,-2.23487 0.985405,-1.87006 1.085481,-2.84516 0.349542,-7.31432 -0.173888,-1.056 -0.457088,-2.73296 -0.493378,-3.83342 -0.06481,-1.96514 -0.774836,-3.56676 -1.508935,-3.56676 -0.204416,0 -0.885027,0.48613 -1.242614,0.89112 -1.161091,1.31481 -3.12517,2.37275 -3.98891,2.39215 -0.464055,0.0104 -0.791962,-0.0576 -1.133149,-0.36802 -0.341187,-0.31053 -1.097741,-0.6308 -1.410583,-0.6308 -0.726265,0 -2.608948,-0.92986 -2.608948,-1.2735 -0.316246,-0.15966 -0.720279,-0.3224 -0.914759,-0.45717 0,-0.44349 -0.49754,-0.8734 -0.899493,-0.7484 -0.733536,0.25569 -1.126142,0.92954 -1.587194,1.27723 z m 77.450294,36.93589 c -0.39881,0.0861 -1.06611,0.80786 -1.88482,2.01374 -0.57371,0.84513 -0.84141,1.16486 -1.12874,1.05461 -0.25035,-0.0961 -0.80581,0.0188 -1.02356,0.1973 -0.21776,0.17849 -0.85461,0.41196 -1.60731,0.61322 -1.80069,0.48147 -4.27807,0.0317 -6.9609,-1.27537 -1.11676,-0.54405 -2.85186,-1.14231 -3.81838,-1.27347 l -1.75782,0.0412 -0.0762,6.76369 c 0.002,5.65209 0.0494,7.15161 0.52139,9.41795 0.45553,2.1875 0.57935,2.87984 0.50026,2.75384 -0.071,-0.11307 -0.24265,-1.00895 -0.44329,-2.08786 -0.20065,-1.07891 -0.77052,-2.11729 -0.90256,-2.11729 -0.13205,0 -0.74799,0.7661 -1.04512,1.3381 -0.55334,1.0652 -0.58668,4.68515 -0.15421,6.73628 0.46161,2.18925 1.86353,4.07059 3.89069,5.25204 1.56191,0.91018 1.81597,0.97738 5.56455,0.87699 4.00512,-0.10727 6.38642,0.0751 7.8242,1.02525 1.22831,0.8117 3.20889,1.7407 4.80078,2.05088 1.69224,0.40983 2.96272,-0.0866 4.19336,-0.50578 0.93292,-0.25018 6.21646,-2.75962 6.24036,-3.3439 0.0121,-0.2963 0.10937,-0.9854 0.17776,-1.51173 0.15495,-1.19269 -0.4368,-2.12814 -2.91606,-4.63093 -1.07528,-1.08549 -2.29215,-2.54636 -2.83782,-3.13287 -1.71301,-1.84143 -3.94218,-3.46374 -5.43567,-4.26754 l -1.50201,-0.8223 -0.25206,1.92003 c -0.0528,0.9782 -0.0768,1.57602 -0.24403,1.57602 -0.393,0 -0.22102,-3.60434 0.172,-5.8416 0.4904,-2.79158 1.03813,-12.27659 0.73826,-12.5704 -0.0989,-0.12534 -0.47417,-0.2345 -0.63307,-0.25011 z m -59.849495,0.61343 0.07998,2.64648 c 0.121203,1.45495 0.3812,3.47116 0.539085,4.61516 0.157872,1.144 0.264168,3.0787 0.275368,4.2227 0.01121,1.144 0.217091,2.7147 0.498058,3.40824 0.447817,1.1054 0.46227,1.21203 0.193535,1.00772 -0.255357,-0.21194 -0.449719,-0.88244 -0.566327,-1.66005 -0.116611,-0.77761 -0.551008,-1.63102 -0.716944,-1.63102 -0.165923,0 -0.908905,0.46404 -1.382969,0.95512 -0.47408,0.49108 -1.11989,1.00612 -1.587801,1.24018 -0.467894,0.23405 -1.358299,0.76863 -1.902389,1.26558 -0.544073,0.49695 -0.800646,0.90795 -0.800646,0.79694 0,-0.11101 -0.615783,0.17437 -1.099767,0.61525 -0.484,0.44087 -1.103767,1.04559 -1.587767,1.3457 -0.483984,0.30012 -1.005949,0.96285 -1.005949,1.2228 0,0.25994 0.01412,0.23812 -0.140524,0.23812 -0.154646,0 -0.709211,0.49352 -0.927915,1.02152 -0.218688,0.528 -0.244954,0.91403 -0.363101,0.91403 -0.118144,0 -0.532978,0.77228 -0.750101,1.58407 -0.21712,0.8118 -0.675969,2.05055 -1.039051,2.8476 -0.553937,1.21598 -0.641498,2.09976 -0.548828,4.6798 0.09926,2.76334 0.18683,3.21317 1.015614,4.4375 0.590588,0.87247 1.38955,1.65162 2.027422,1.83217 1.093376,0.30948 4.499441,0.18577 5.761809,-0.24607 0.44,-0.15052 1.350847,-0.44253 1.966831,-0.55474 0.615984,-0.11222 1.912875,-0.58706 2.880859,-1.03516 4.039901,-1.87018 15.515129,-7.72357 15.849587,-8.04304 0.199162,-0.19023 1.302481,-0.66437 2.470692,-1.26355 1.878922,-0.96372 2.240653,-1.40492 2.537165,-2.50598 0.184364,-0.68467 0.278166,-1.4663 0.150425,-1.75585 -0.127741,-0.28955 -0.274962,-3.6848 -0.326172,-7.4688 -0.05121,-3.78384 -0.249888,-8.03957 -0.441473,-9.4414 l -0.334042,-2.69933 -1.027365,-0.11333 c -0.863664,-0.0841 -1.129064,0.0834 -1.591842,1.05862 -0.551293,1.16176 -0.56811,1.02863 -3.8125,1.45497 -1.357383,0.17838 -4.49882,-0.70443 -4.773326,-1.41978 -0.08937,-0.23273 -0.369127,-0.45509 -0.544967,-0.45509 -0.175824,0 -0.459647,-0.27876 -0.802632,-0.71479 -0.901863,-1.14655 -3.112804,-2.26827 -5.818472,-2.33994 z m 41.039065,0.29687 c -0.32085,-0.0289 -0.33696,1.37917 -0.1211,5.69141 l 0.30081,5.42972 0.2599,-5.40429 c 0.0484,-2.97297 0.15303,-5.60691 0.0606,-5.69931 -0.0585,-0.0585 -0.45442,-0.0134 -0.50025,-0.0175 z M 87.679688,216 c -0.802971,-0.0156 -0.408926,2.04798 -0.111329,5.19922 0.112202,1.188 0.06817,2.25398 0.130725,2.25398 0.06255,-1e-5 0.300916,-1.74951 0.300916,-3.77351 0,-2.24 -0.125581,-3.6759 -0.320312,-3.67969 z" />
      <path
         style="display:inline;fill:#1d682e;stroke-width:0.32"
         d="m 75.36,76.16 c 0.108774,-0.176 0.34177,-0.32 0.51777,-0.32 0.176,0 0.231004,0.144 0.12223,0.32 -0.108774,0.176 -0.34177,0.32 -0.51777,0.32 -0.176,0 -0.231004,-0.144 -0.12223,-0.32 z M 70.4,75.68 C 70.180899,75.416 70.120067,75.2 70.264819,75.2 70.409568,75.2 70.3552,75.0272 70.144,74.816 69.707066,74.379066 69.667779,72.15929 70.08,71.2 c 0.151261,-0.352 0.285139,-0.442435 0.297507,-0.20097 0.03664,0.715277 1.41617,-0.3636 1.628967,-1.273955 0.267401,-1.143958 1.573571,-1.173177 2.709612,-0.06062 0.502944,0.492551 0.809079,0.715546 0.680295,0.495546 -0.128784,-0.22 -0.08166,-0.4 0.104733,-0.4 0.186387,0 0.338886,0.144 0.338886,0.32 0,0.176 0.20039,0.32 0.445309,0.32 0.244921,0 0.537142,0.365888 0.649382,0.813088 0.11224,0.447197 0.34385,0.726698 0.514691,0.621114 0.426852,-0.263808 0.392448,0.275968 -0.0455,0.713916 -0.195863,0.195863 -0.249863,0.528039 -0.12,0.738164 0.178147,0.288246 0.30366,0.275452 0.511219,-0.05212 0.184077,-0.290515 0.27672,-0.308067 0.28,-0.05305 0.0026,0.209612 -0.137283,0.468988 -0.311063,0.57639 -0.315075,0.194726 -0.772144,-0.09991 -1.921484,-1.238614 -0.3337,-0.330612 -0.826176,-0.5169 -1.094391,-0.413978 -0.268217,0.102925 -0.572777,0.04943 -0.6768,-0.118886 C 73.967338,71.817712 73.657939,71.68 73.383811,71.68 c -0.362112,0 -0.455625,0.223866 -0.341942,0.81857 0.115171,0.602473 0.04054,0.77408 -0.282695,0.650044 -0.248409,-0.09532 -0.439174,0.03402 -0.439174,0.29777 0,0.795885 -1.028765,1.774912 -1.475491,1.40416 -0.289219,-0.240029 -0.367533,-0.173533 -0.296307,0.251597 0.05325,0.317824 0.26839,0.538291 0.478092,0.489929 0.209703,-0.04836 0.290074,0.05964 0.178605,0.24 C 70.939459,76.261562 70.87209,76.248835 70.4,75.68 Z m 4.32,-4.32 c -0.108774,-0.176 -0.03677,-0.32 0.16,-0.32 0.196774,0 0.268774,-0.144 0.16,-0.32 -0.324077,-0.524368 -0.751616,-0.363075 -0.63617,0.24 0.142589,0.744851 0.131024,0.72 0.335056,0.72 0.09839,0 0.08989,-0.144 -0.01888,-0.32 z m 1.673334,-0.513334 c -0.106336,-0.106333 -0.382336,-0.1177 -0.613334,-0.02525 -0.255274,0.10215 -0.17945,0.177977 0.193334,0.193331 0.337332,0.01389 0.526333,-0.06174 0.42,-0.168071 z M 76.8,74.898886 c 0,-0.165612 0.142352,-0.389094 0.316336,-0.49662 0.181395,-0.112109 0.23504,0.01635 0.125763,0.301113 C 77.029366,75.257754 76.8,75.359184 76.8,74.898886 Z m 27.04227,-1.295222 c -0.11211,-0.181395 0.0164,-0.23504 0.30111,-0.125763 0.55437,0.212733 0.6558,0.442099 0.19551,0.442099 -0.16562,0 -0.3891,-0.142352 -0.49662,-0.316336 z M 108.16,72.8 c 0,-0.497779 0.18133,-0.8 0.48,-0.8 0.264,0 0.48,0.152499 0.48,0.338886 0,0.186388 -0.16668,0.235869 -0.37041,0.109962 -0.25379,-0.156851 -0.31359,-0.01168 -0.18995,0.461114 0.0992,0.37952 0.0499,0.690038 -0.1096,0.690038 -0.15952,0 -0.29004,-0.36 -0.29004,-0.8 z m -5.16,0 c -0.022,-0.088 -0.0667,-0.268 -0.0994,-0.4 -0.0327,-0.132 -0.29555,-0.780474 -0.58411,-1.44105 -0.43231,-0.989628 -0.45669,-1.362726 -0.13849,-2.119497 0.34248,-0.814522 0.43783,-0.863149 0.84267,-0.429767 0.40737,0.4361 0.48042,0.423133 0.67885,-0.120502 0.15317,-0.4196 0.0459,-0.694397 -0.34474,-0.882998 -0.54092,-0.261165 -0.54023,-0.300692 0.0148,-0.855776 0.83085,-0.830858 1.61,-1.19658 2.71041,-1.272228 1.57248,-0.108105 1.73353,-0.04598 2.8969,1.117386 1.35194,1.351946 1.75937,2.340541 1.69188,4.105264 -0.0427,1.117635 -0.0721,1.173485 -0.1774,0.337613 -0.12533,-0.994621 -0.13485,-0.99936 -1.37598,-0.68433 -1.03187,0.261917 -1.34381,0.223197 -1.78909,-0.222086 -0.43446,-0.434461 -0.59154,-0.456951 -0.80791,-0.115674 -0.20413,0.321949 -0.26978,0.289219 -0.2735,-0.136355 -0.003,-0.345034 -0.25058,-0.56 -0.6449,-0.56 -0.42667,0 -0.64,0.213334 -0.64,0.64 0,0.580243 0.34164,0.795411 1.06378,0.669965 0.14508,-0.02518 0.16897,0.107603 0.0531,0.295123 -0.11589,0.18752 -0.48496,0.253904 -0.82015,0.14752 -0.65978,-0.209408 -2.3494,1.293792 -2.03182,1.807651 0.0951,0.153856 0.0924,0.279741 -0.006,0.279741 -0.0984,0 -0.19688,-0.072 -0.21888,-0.16 z m 1.68082,-4.88 c 0.39804,-0.507539 0.38672,-0.518858 -0.12082,-0.120819 -0.53304,0.418038 -0.70255,0.680819 -0.43918,0.680819 0.0665,0 0.31845,-0.252 0.56,-0.56 z M 104.32,72.519181 c 0,-0.06645 0.2193,-0.302816 0.48732,-0.525261 0.40748,-0.33817 0.4543,-0.318374 0.28577,0.120819 -0.17213,0.448554 -0.77309,0.762951 -0.77309,0.404442 z"
         id="eye1" />
      <path
         id="hair1"
         style="display:inline;fill:#563310;stroke-width:0.32"
         d="m 109.66016,57.572266 c -1.15565,-0.0292 -6.35908,0.626198 -7.86133,0.990234 -1.69515,0.410777 -6.759767,2.819219 -6.759768,3.214844 0.352935,1.105425 0.754657,2.466189 0.960938,3.798828 0,0.188573 0.216469,0.34375 0.480469,0.34375 0.291246,0 0.478515,-0.297006 0.478515,-0.75586 0,-1.561517 5.054976,-5.186626 7.681636,-5.509765 4.54709,-0.559382 7.08576,-0.462846 9.03907,0.34375 0.32316,0.13345 0.56054,0.08905 0.56054,-0.103516 0,-0.436158 -3.67505,-2.299415 -4.58007,-2.322265 z m -37.324222,3.367187 c -1.116251,0.004 -1.949944,0.05563 -2.205079,0.171875 C 68.81557,61.71062 64,65.799246 64,66.316406 c 0,0.550348 0.654844,0.172517 1.806641,-1.042968 1.377366,-1.453547 2.319284,-1.778465 6.091797,-2.09375 3.478282,-0.290704 5.165356,0.0029 7.003906,1.220703 1.459482,0.839412 3.980869,1.631528 4.345703,0.923828 0.250211,-1.293969 0.112099,-1.929619 0.591756,-3.072266 0,-0.39435 -0.171946,-0.479267 -0.654297,-0.326172 -3.509851,-0.524659 -7.258683,-0.982163 -10.849609,-0.986328 z" />
      <path
         style="display:inline;fill:#2f2b24;stroke-width:0.32"
         d="m 56.56,252.25352 c -0.484,-0.0748 -0.88,-0.26076 -0.88,-0.41321 0,-0.15245 -0.272451,-0.36365 -0.60545,-0.46934 -0.332998,-0.10569 -0.696579,-0.4394 -0.807961,-0.74157 -0.111383,-0.30217 -0.447139,-0.9814 -0.746125,-1.5094 -0.801818,-1.41598 -0.930442,-5.73082 -0.240605,-8.07141 0.954339,-3.23806 2.694535,-6.47461 4.32881,-8.05105 1.780886,-1.71788 4.955753,-4.03257 6.158173,-4.48973 0.458835,-0.17444 0.986848,-0.60232 1.173363,-0.95082 0.186512,-0.34851 0.627267,-0.7251 0.979456,-0.83688 0.570134,-0.18095 0.637779,-0.47278 0.616979,-2.66167 -0.01283,-1.35214 -0.152026,-3.25044 -0.30928,-4.21844 -0.157254,-0.968 -0.38304,-2.72502 -0.50175,-3.90448 -0.203405,-2.02102 -0.267639,-2.15586 -1.115693,-2.34213 -1.453984,-0.31935 -2.444899,-1.32906 -3.147674,-3.2074 -0.586006,-1.56624 -0.654454,-2.4334 -0.623347,-7.89712 0.02467,-4.33145 0.165338,-6.50726 0.478026,-7.39351 0.572134,-1.62161 0.559734,-1.97773 -0.04772,-1.37028 -1.103369,1.10337 -4.476797,1.4671 -6.59335,0.71091 -1.365536,-0.48787 -6.674493,-5.89671 -6.675463,-6.80105 -2.14e-4,-0.20077 -0.285228,-0.99277 -0.633363,-1.76 -0.472352,-1.04097 -0.634755,-2.10017 -0.64,-4.17411 -0.0082,-3.24932 0.175639,-3.83164 1.74401,-5.52376 1.138605,-1.22845 1.153609,-1.27651 0.549526,-1.76 -0.489664,-0.39191 -0.661229,-1.05613 -0.810995,-3.13978 -0.104474,-1.45349 -0.338368,-2.92003 -0.51976,-3.25896 -0.483424,-0.90329 -0.383277,-3.60073 0.160368,-4.31949 0.367613,-0.48603 0.470211,-1.73912 0.47161,-5.76 9.6e-4,-2.82636 0.131004,-5.64284 0.288944,-6.25884 0.157936,-0.616 0.369878,-1.49211 0.470982,-1.9469 0.101104,-0.4548 0.619082,-1.37459 1.151056,-2.044 0.879965,-1.10729 0.967232,-1.43123 0.967232,-3.59043 0,-3.31346 -1.21897,-7.39246 -3.538016,-11.83915 C 45.973331,129.02159 45.76,128.4031 45.76,126.74535 c 0,-1.78845 0.61976,-3.9373 1.247466,-4.32524 0.163436,-0.10101 0.626144,-0.86686 1.028233,-1.70188 0.40209,-0.83503 1.530551,-2.33429 2.507687,-3.3317 2.918118,-2.97865 5.105641,-5.48572 5.82054,-6.6708 0.370189,-0.61365 1.303748,-1.79356 2.074573,-2.62202 1.367248,-1.46948 1.720291,-2.17371 1.089719,-2.17371 -0.63354,0 -1.341876,-2.05877 -1.960999,-5.69963 C 57.217392,98.163168 56.795379,95.688 56.629411,94.72 56.463443,93.752 55.805168,91.232 55.166582,89.12 51.636048,77.443462 49.28,69.130746 49.28,68.350694 c 0,-0.360838 -0.210643,-1.739363 -0.468093,-3.063382 -2.15159,-11.065187 -2.537261,-14.779446 -2.2436,-21.607312 0.244381,-5.68207 0.650426,-7.101165 2.751504,-9.616301 0.594103,-0.711184 1.709104,-2.258456 2.477776,-3.438381 0.768672,-1.179925 1.560672,-2.145465 1.76,-2.145643 0.199328,-1.79e-4 0.748288,-0.684179 1.219914,-1.52 C 55.249126,26.123853 56.417091,24.648 57.372982,23.68 58.32887,22.712 59.464618,21.416 59.896861,20.8 62.28921,17.390615 67.077859,12.724889 70.24,10.722365 72.368346,9.3745245 76.964726,7.187527 78.56,6.7636387 80.987088,6.1187245 84.891299,6.0240445 89.311754,6.5029011 c 2.393462,0.2592778 4.625462,0.6148426 4.96,0.790144 C 96.732173,8.5823386 102.35654,11.2 102.66633,11.2 c 0.63976,0 3.31561,1.340813 5.17367,2.592425 0.968,0.652056 2.768,1.677198 4,2.278094 1.232,0.600897 3.51121,2.054851 5.06491,3.23101 1.5537,1.176159 2.96825,2.138471 3.14345,2.138471 0.17519,0 1.56797,1.164135 3.09508,2.586967 1.52711,1.422833 3.15342,2.925023 3.61403,3.338201 0.61765,0.554045 0.96854,1.365922 1.33678,3.093033 0.65253,3.060423 1.12232,5.903841 1.4972,9.061799 0.16714,1.408 0.4586,3.64 0.64769,4.96 0.21308,1.487558 0.30901,7.266362 0.25232,15.2 -0.0503,7.04 0.0281,17.641322 0.17422,23.558493 0.25826,10.458317 0.24671,10.819897 -0.41408,12.959293 -0.3826,1.238688 -1.06982,2.620787 -1.572,3.161507 -0.49074,0.528387 -1.20531,1.377287 -1.58795,1.886427 l -0.69569,0.92573 1.28812,1.31427 c 4.68338,4.77846 6.07592,6.27956 6.07592,6.54961 0,0.16844 0.93799,1.04339 2.08442,1.94433 1.14643,0.90094 2.52595,2.24609 3.06561,2.98921 l 0.98118,1.35113 -0.10563,4.8 -0.10564,4.8 -1.33273,2.88 c -2.02385,4.37348 -2.43183,5.80275 -2.42059,8.48 0.009,2.05684 0.16965,2.74316 1.12606,4.8 0.61379,1.32 1.90205,3.574 2.86278,5.00889 l 1.7468,2.6089 0.18696,3.13381 c 0.21582,3.61741 -0.0452,4.50977 -1.81106,6.19117 -1.332,1.26831 -1.45894,2.17501 -0.51773,3.69792 0.35224,0.56993 0.72854,1.67909 0.83623,2.46479 0.18706,1.36475 0.14774,1.45694 -0.88043,2.06424 -0.59193,0.34963 -1.35258,1.14989 -1.69034,1.77834 l -0.61411,1.14265 1.23628,1.86254 c 0.67995,1.02439 1.70628,2.38277 2.28073,3.01862 1.22961,1.36103 1.71121,2.49289 1.71121,4.02171 0,1.45679 -0.82721,3.00328 -3.01858,5.64329 -2.40289,2.89484 -4.10654,3.76313 -7.38353,3.76313 -2.62346,0 -4.03813,-0.51607 -5.67789,-2.07127 l -0.88,-0.83463 0.004,1.37295 c 0.002,0.75512 0.28133,2.71597 0.62004,4.35744 0.50334,2.4393 0.84267,3.28691 1.85753,4.64 0.68292,0.91053 1.47274,2.08751 1.75515,2.61551 0.67391,1.25997 1.52308,4.07728 1.52308,5.05315 0,1.25259 -1.45844,4.90733 -2.71183,6.79564 l -1.16258,1.75151 -0.11962,4.39985 c -0.0658,2.41992 -0.28614,5.94204 -0.48967,7.82693 -0.20353,1.88489 -0.27611,3.57907 -0.16129,3.76484 0.11481,0.18578 0.70435,0.54485 1.31008,0.79794 1.20263,0.50249 3.78738,2.57554 5.37124,4.3079 0.55202,0.60377 2.19167,2.29921 3.64367,3.76764 2.52198,2.55054 2.64,2.73441 2.64,4.1135 0,1.42175 -0.61765,2.7985 -1.5956,3.55661 -0.67635,0.52431 -6.32265,2.57923 -7.70954,2.80582 -1.33765,0.21854 -4.14142,-0.59487 -6.72454,-1.95087 -1.65212,-0.86728 -1.95449,-0.91272 -6.69032,-1.00546 -4.2406,-0.083 -5.15321,-0.19285 -6.29206,-0.75701 -1.74545,-0.86465 -3.05712,-2.26161 -4.15767,-4.42799 -0.77775,-1.53095 -0.89166,-2.11398 -0.87532,-4.48 0.019,-2.74747 0.64832,-4.9725 1.49878,-5.29885 0.29194,-0.11203 0.4187,-2.09048 0.49114,-7.66607 l 0.0977,-7.51508 -0.90126,-0.0225 c -0.49569,-0.0123 -1.14683,-0.12036 -1.44697,-0.24 -0.89128,-0.35524 -3.13429,-2.63046 -3.13429,-3.17929 0,-0.2793 -0.20049,-0.73515 -0.44554,-1.01301 -0.24504,-0.27786 -0.7337,-1.5852 -1.08591,-2.9052 -0.52518,-1.96829 -0.619206,-3.14654 -0.52271,-6.55024 0.10539,-3.71743 0.19361,-4.25137 0.84591,-5.12 0.63754,-0.84896 0.72517,-1.32851 0.7035,-3.84976 -0.0274,-3.1933 -0.80201,-5.56929 -2.029823,-6.22639 -0.89088,-0.47679 -1.961853,-2.22245 -3.051334,-4.97361 -0.487882,-1.232 -0.959847,-2.312 -1.04881,-2.4 -0.08896,-0.088 -0.06398,1.208 0.05551,2.88 0.21032,2.94284 0.181526,3.13565 -0.90081,6.03259 -0.614938,1.64593 -1.523501,3.57297 -2.019027,4.28231 -0.495527,0.70935 -1.161882,1.66668 -1.480794,2.12741 -0.452093,0.65314 -0.549401,1.265 -0.441699,2.77727 0.173341,2.43387 1.130086,4.62588 2.818586,6.45768 1.114771,1.20938 1.281939,1.56779 1.116672,2.39413 -0.360967,1.80484 -2.119994,4.34802 -4.660176,6.73765 l -2.527117,2.37733 0.08614,3.32681 c 0.04737,1.82975 0.245744,7.40176 0.44082,12.38225 0.195075,4.98049 0.285568,9.22849 0.201097,9.44 -0.176611,0.44221 -3.297427,2.33002 -7.014483,4.2431 -6.00943,3.09293 -7.777331,3.96523 -9.44,4.6578 -0.968,0.40321 -2.48,1.12125 -3.36,1.59565 -0.88,0.4744 -2.608,1.15571 -3.84,1.51401 -1.977597,0.57515 -3.067008,0.77581 -6.24,1.14937 -0.44,0.0518 -1.196,0.033 -1.68,-0.0418 z m 5.52,-1.05984 c 0.44,-0.15052 1.304,-0.36548 1.92,-0.47769 0.616,-0.11222 1.912,-0.57067 2.88,-1.01877 4.039965,-1.87018 15.547654,-7.63039 15.882112,-7.94986 0.199162,-0.19023 1.317933,-0.83611 2.48616,-1.43529 1.878954,-0.96372 2.162723,-1.23307 2.459251,-2.33429 0.184365,-0.68467 0.230695,-1.48177 0.102954,-1.77132 -0.127741,-0.28955 -0.274157,-3.62246 -0.32537,-7.40646 -0.05121,-3.784 -0.20831,-8.032 -0.34911,-9.44 L 86.88,216.8 85.884506,216.703 c -0.863664,-0.0841 -1.066132,0.0519 -1.528925,1.02718 -0.551293,1.16176 -0.568064,1.16878 -3.812503,1.59512 -1.357398,0.17838 -4.654556,-0.90655 -4.929062,-1.6219 -0.08937,-0.23289 -0.306358,-0.42344 -0.482198,-0.42344 -0.17584,0 -0.600333,-0.35676 -0.943319,-0.79279 -0.901878,-1.14655 -2.967232,-1.94872 -5.662281,-2.1992 l -2.35378,-0.21876 0.220375,2.64538 c 0.121203,1.45495 0.349555,3.58137 0.50744,4.72537 0.157888,1.144 0.296243,3.016 0.307453,4.16 0.0112,1.144 0.227897,2.656 0.481523,3.36 0.572861,1.59012 0.572934,1.60315 0.0065,1.13302 -0.255373,-0.21194 -0.559725,-1.02158 -0.676333,-1.79919 -0.116621,-0.77761 -0.347795,-1.41383 -0.513731,-1.41383 -0.165939,0 -0.689587,0.40179 -1.163667,0.89287 -0.47408,0.49108 -1.244797,1.08436 -1.712708,1.31842 -0.46791,0.23405 -1.29591,0.83214 -1.84,1.32909 -0.544125,0.49699 -0.98929,0.81276 -0.98929,0.70175 0,-0.11101 -0.396,0.15888 -0.88,0.59976 -0.484,0.44087 -1.276,1.04713 -1.76,1.34724 -0.484,0.30012 -0.88,0.75834 -0.88,1.01829 0,0.25994 -0.126531,0.47262 -0.281178,0.47262 -0.154646,0 -0.460118,0.432 -0.678822,0.96 -0.218704,0.528 -0.494307,0.96 -0.612454,0.96 -0.118144,0 -0.392452,0.6642 -0.609575,1.47599 -0.21712,0.8118 -0.691846,2.12812 -1.054944,2.92517 -0.553942,1.21598 -0.642406,1.94397 -0.549737,4.52401 0.09926,2.7635 0.203808,3.21276 1.032592,4.43709 0.590604,0.87247 1.280246,1.46361 1.918134,1.64416 1.093392,0.30948 4.3736,0.1391 5.635984,-0.29274 z m 69.70667,-4.8326 c 0.0587,-0.15459 0.38555,-0.28108 0.72641,-0.28108 1.10492,0 6.04505,-2.557 6.06897,-3.14128 0.0121,-0.2963 0.078,-0.96935 0.14637,-1.49568 0.15496,-1.19269 -0.37411,-2.03386 -2.85337,-4.53665 -1.07528,-1.08549 -2.4015,-2.45349 -2.94717,-3.04 -1.71317,-1.84143 -3.75439,-3.52526 -5.24788,-4.32906 l -1.44,-0.775 -0.096,1.77883 c -0.0528,0.97836 -0.23278,1.77884 -0.4,1.77884 -0.39285,0 -0.39255,-3.86937 3.2e-4,-6.10663 0.4904,-2.79158 1.06939,-12.168 0.76952,-12.46181 -0.36955,-0.36208 -1.05129,0.21926 -2.1429,1.82731 -0.57371,0.84513 -1.07674,1.27446 -1.36407,1.16421 -0.25036,-0.0961 -0.63336,-0.0286 -0.85112,0.14983 -0.21776,0.17849 -1.01178,0.48918 -1.76448,0.69044 -1.80069,0.48147 -4.32338,0.017 -7.00638,-1.29011 -1.11675,-0.54405 -2.82125,-1.09649 -3.78776,-1.22765 l -1.75716,-0.23847 0.002,6.74644 c 0.002,5.65225 0.10671,7.18223 0.64637,9.4334 0.58063,2.42204 0.62535,3.33367 0.13971,2.84804 -0.0944,-0.0944 -0.33583,-1.05443 -0.53648,-2.13334 -0.20064,-1.07891 -0.47284,-1.96166 -0.60488,-1.96166 -0.13205,0 -0.4832,0.468 -0.78033,1.04 -0.55334,1.0652 -0.69619,4.74887 -0.26372,6.8 0.46161,2.18925 1.76977,3.96087 3.79709,5.14232 1.56191,0.91022 1.69142,0.92997 5.44,0.82958 4.00528,-0.10727 6.40222,0.2639 7.84,1.21404 1.22831,0.8117 3.20811,1.59928 4.8,1.90946 1.53449,0.299 3.2906,0.12964 3.46667,-0.33432 z M 81.97368,217.39233 c 0.921274,-0.81822 2.33008,-2.16017 3.130682,-2.9821 0.800601,-0.82194 1.171545,-1.12448 0.824323,-0.67233 -0.347223,0.45215 -1.491159,1.71816 -2.542083,2.81335 -1.050922,1.09519 -1.830804,2.07122 -1.733066,2.16895 0.309034,0.30904 1.866464,-0.44472 1.866464,-0.90332 0,-0.5761 0.56505,-1.22159 5.232067,-5.97688 3.190887,-3.25124 4.065466,-4.34819 4.67216,-5.8601 l 0.746416,-1.86009 -1.131952,-1.17991 c -1.486307,-1.54927 -2.478089,-3.65846 -2.706729,-5.75633 l -0.18489,-1.69643 -0.567632,1.21643 c -0.392243,0.84057 -0.573466,1.01868 -0.586509,0.57643 -0.01037,-0.352 0.265962,-1.26772 0.614096,-2.03494 0.348135,-0.76723 0.632973,-1.59022 0.632973,-1.82887 0,-0.23866 0.40559,-0.90693 0.901312,-1.48505 1.393776,-1.62547 2.13535,-3.0603 3.076694,-5.95295 0.761565,-2.34021 0.84968,-3.03614 0.729277,-5.76 -0.07532,-1.704 -0.324662,-3.4948 -0.554096,-3.97954 -0.22943,-0.48475 -0.308851,-0.98875 -0.176483,-1.12 0.350938,-0.348 1.531949,1.2688 2.215459,3.03296 1.400538,3.61482 2.93377,6.46126 3.658117,6.7913 1.11981,0.51022 1.99403,2.8367 2.20863,5.87762 0.17754,2.51583 0.13412,2.76674 -0.81569,4.71361 -0.81015,1.66059 -0.99608,2.42675 -0.9661,3.9811 0.0204,1.05862 0.10236,1.63676 0.1821,1.28476 0.0797,-0.352 0.40233,-1.216 0.71687,-1.92 0.31453,-0.704 0.66573,-1.66965 0.78045,-2.14589 0.38105,-1.58194 0.83875,-2.53479 1.13086,-2.35425 0.15874,0.0981 -0.14231,1.29476 -0.66898,2.65925 -0.52667,1.36449 -1.25241,3.44443 -1.61275,4.62208 -0.64435,2.10589 -0.64568,2.18636 -0.0804,4.88 0.47013,2.24026 0.68215,2.73881 1.16474,2.73881 0.41839,0 0.58999,0.23629 0.58999,0.81239 0,0.49936 0.46238,1.30238 1.2,2.08404 1.24609,1.32049 3.44452,2.15357 6.32,2.39493 0.704,0.0591 2.17371,0.54455 3.26603,1.0788 1.09231,0.53425 2.89231,1.11985 4,1.30132 1.76047,0.28843 2.25568,0.24541 3.93428,-0.3418 1.637,-0.57266 2.10911,-0.92928 3.2,-2.41713 0.70383,-0.95995 1.50647,-1.98998 1.78366,-2.28896 2.45577,-2.64887 4.94946,-8.80309 3.84387,-9.48638 -0.16068,-0.0993 -0.39206,-0.79181 -0.51418,-1.53889 -0.13703,-0.83833 -0.87909,-2.35183 -1.93841,-3.9536 -1.50315,-2.27287 -1.77718,-2.94395 -2.20581,-5.40192 -0.26919,-1.54365 -0.49947,-3.32777 -0.51173,-3.96472 -0.0212,-1.09804 -0.0632,-1.05025 -0.81107,0.92192 -0.43382,1.144 -0.85918,2.28061 -0.94524,2.5258 -0.086,0.24519 -0.23994,0.36232 -0.34197,0.2603 -0.24227,-0.24228 1.4364,-5.28103 1.84313,-5.5324 0.18881,-0.11669 0.11562,-0.49301 -0.18517,-0.95207 -0.56921,-0.86873 -0.65295,-1.74163 -0.16708,-1.74163 0.18167,0 0.4454,0.31111 0.58606,0.69135 0.24386,0.65922 0.2673,0.66293 0.50431,0.08 1.27197,-3.12841 1.51519,-8.84413 0.49932,-11.73445 -0.352,-1.0015 -0.64,-2.16509 -0.64,-2.58575 0,-0.42066 -0.27167,-1.11021 -0.60371,-1.53233 -0.47317,-0.60154 -0.65388,-1.57064 -0.8358,-4.48214 -0.16309,-2.61009 -0.1263,-3.78004 0.12371,-3.93455 0.19569,-0.12095 0.3558,-0.36635 0.3558,-0.54536 0,-0.17899 -0.396,-0.014 -0.88,0.36656 -2.51452,1.97734 -4.40036,3.22415 -5.15606,3.40888 -0.46417,0.11346 -1.56394,0.60754 -2.44394,1.09794 -1.60669,0.89536 -6.215,2.52985 -7.13272,2.52985 -0.27007,0 -1.22369,0.20671 -2.11916,0.45935 -0.89546,0.25264 -2.27612,0.60017 -3.06812,0.77229 -2.41661,0.52519 -4.698195,1.23024 -5.81649,1.79742 -1.764128,0.89473 -4.018707,0.9722 -5.951408,0.2045 -1.085404,-0.43113 -3.027212,-0.78255 -5.44,-0.98451 -10.333667,-0.86496 -15.080105,-1.73798 -17.727932,-3.26074 -1.174708,-0.67557 -2.470708,-1.22885 -2.88,-1.22951 -0.831476,-0.001 -2.713332,-1.05414 -3.495869,-1.95577 -0.491149,-0.56589 -0.527984,-0.5545 -0.917053,0.2837 -0.50785,1.09409 -0.848336,4.87327 -0.439059,4.87327 0.164896,0 0.472611,-0.1728 0.683811,-0.384 0.288688,-0.28869 0.475053,-0.29295 0.750842,-0.0171 0.275785,0.27578 0.07722,0.50495 -0.8,0.92327 -0.641764,0.30603 -1.161783,0.78175 -1.1556,1.05715 0.0325,1.4477 0.973728,4.71017 1.484393,5.14519 1.558839,1.32793 2.064109,2.54052 2.372083,5.69273 0.166733,1.70655 0.444704,3.7939 0.617716,4.63857 0.432755,2.11276 0.390835,3.75525 -0.120058,4.70425 -2.124832,3.94691 -3.048278,5.76 -2.933699,5.76 0.07462,0 -0.07299,0.49937 -0.328007,1.10972 -0.484854,1.16042 -0.64576,3.84058 -0.214569,3.57409 0.293382,-0.18131 3.006313,-5.52093 3.803206,-7.48549 0.341875,-0.84282 0.666128,-1.24789 0.85097,-1.06305 0.184838,0.18484 -0.533229,1.92302 -1.884496,4.56168 l -2.183127,4.26305 -0.126313,4.67691 c -0.113616,4.20691 -0.06148,4.80399 0.518787,5.94141 0.827648,1.62232 1.315581,2.00971 2.823318,2.24156 0.675706,0.10391 1.377492,0.30479 1.559527,0.44642 0.182035,0.14162 1.190035,0.39745 2.24,0.56852 2.575475,0.41962 4.719293,1.39083 6.156457,2.78906 1.458084,1.41857 3.141943,2.3431 4.301888,2.36197 0.593287,0.01 1.401188,-0.45823 2.544362,-1.47353 z M 87.04,215.30667 c 0,-0.55734 -0.036,-0.95334 -0.08,-0.88 -0.044,0.0733 -0.429101,0.52933 -0.855779,1.01333 l -0.775783,0.88 h 0.855783 c 0.747542,0 0.855779,-0.12816 0.855779,-1.01333 z M 59.712275,193.90773 c 0.480669,-0.18275 1.104071,-0.57875 1.385341,-0.88 0.28127,-0.30125 0.785373,-0.69985 1.120227,-0.88579 0.334855,-0.18593 1.021888,-1.12193 1.526739,-2.08 0.985421,-1.87006 1.018576,-2.71262 0.282621,-7.18194 -0.173888,-1.056 -0.345853,-2.82038 -0.382141,-3.92084 -0.06481,-1.9653 -0.598905,-3.27916 -1.33302,-3.27916 -0.204416,0 -0.66425,0.33136 -1.021853,0.73635 -1.161107,1.31497 -3.102695,2.59448 -3.966451,2.61389 -0.464055,0.0104 -1.12289,-0.2351 -1.464077,-0.54564 -0.341187,-0.31053 -0.876301,-0.5646 -1.189143,-0.5646 -0.726281,0 -2.830518,-0.99563 -2.830518,-1.33927 0,-0.1434 -0.216,-0.26073 -0.48,-0.26073 -0.264,0 -0.48,-0.14852 -0.48,-0.33004 0,-0.88698 -1.017027,-0.57072 -2.198598,0.6837 -1.468106,1.55862 -1.819616,2.88834 -1.500471,5.67609 0.411619,3.5955 1.367696,5.60524 3.921479,8.24324 1.285676,1.32807 2.33759,2.53595 2.33759,2.68418 0,0.81588 4.575101,1.27582 6.272275,0.63056 z m 75.456845,-6.84148 c 0.89699,-0.42557 1.8762,-1.03757 2.17603,-1.36 1.35008,-1.45188 1.76,-1.96839 2.74721,-3.46156 1.2596,-1.90519 1.48154,-2.67468 1.25613,-4.35519 -0.11523,-0.85912 -0.44249,-1.48572 -1.00847,-1.93092 -0.46083,-0.36249 -1.11498,-1.20224 -1.45365,-1.8661 -0.33868,-0.66386 -0.97966,-1.63946 -1.42439,-2.168 -0.72633,-0.86319 -0.9333,-0.93819 -2.03375,-0.73696 -0.67382,0.12322 -1.50483,0.12436 -1.84668,0.003 -0.34185,-0.12182 -0.80272,-0.15356 -1.02414,-0.0705 -0.22143,0.083 -0.88851,-0.0796 -1.4824,-0.36146 -0.59389,-0.28182 -1.96073,-0.78657 -3.03741,-1.12167 -2.24186,-0.69775 -2.32766,-0.59496 -1.43881,1.72361 0.26989,0.704 0.57059,2.75926 0.66822,4.56724 0.0976,1.80798 0.3025,3.36448 0.45526,3.45888 0.4177,0.25816 0.33375,0.78542 -0.11048,0.69388 -0.26798,-0.0552 -0.368,0.39076 -0.32293,1.44 0.0466,1.08434 -0.0567,1.52 -0.36042,1.52 -0.23414,0 -0.59205,0.36508 -0.79536,0.81129 -0.33614,0.73776 -0.26386,0.90451 0.79754,1.84 1.72101,1.51683 2.12202,1.7593 3.16414,1.91321 2.26779,0.33494 3.51209,0.20295 5.07436,-0.53825 z M 59.984765,176.88 l 1.848374,-1.68 -0.646777,-1.12 c -0.355728,-0.616 -0.828624,-1.984 -1.05088,-3.04 -0.222256,-1.056 -0.424247,-1.95258 -0.448864,-1.99241 -0.02461,-0.0398 -0.812071,0.21915 -1.749888,0.57549 -1.579706,0.60024 -1.781924,0.61145 -2.749287,0.15241 -0.574291,-0.27252 -1.143395,-0.49549 -1.264675,-0.49549 -0.433104,0 -2.709232,-1.76659 -2.715936,-2.10794 -0.0094,-0.47833 -2.766131,-3.02609 -3.010208,-2.78202 -0.385507,0.38551 -0.186512,2.58662 0.459162,5.07877 0.360681,1.39216 0.579184,2.93267 0.485564,3.42337 -0.125699,0.65881 -0.02522,0.94346 0.384215,1.08825 0.304937,0.10784 0.936525,0.60001 1.403523,1.09372 1.117174,1.18108 2.821126,2.20316 3.675462,2.20465 0.3765,6.4e-4 1.0245,0.28441 1.44,0.63055 1.179226,0.9824 1.947732,0.78163 3.940215,-1.02935 z M 136.128,169.408 c 0.6336,-0.6336 1.152,-1.29452 1.152,-1.46871 0,-0.41365 1.32562,-1.51495 1.84,-1.52864 0.62091,-0.0165 0.47365,-1.38813 -0.33684,-3.1375 l -0.73685,-1.5904 -1.10315,1.51785 c -0.60674,0.83482 -1.31495,1.8242 -1.5738,2.19863 -0.48711,0.70459 -2.43507,0.96746 -3.06536,0.41366 -0.1672,-0.14691 -1.024,-0.53255 -1.904,-0.85698 -2.09848,-0.77364 -5.17751,-2.5896 -5.5651,-3.28219 -0.60198,-1.07567 -0.77154,-0.0406 -0.36769,2.24451 0.22569,1.27697 0.61589,2.72414 0.8671,3.21592 0.54733,1.07145 2.1983,2.14281 3.30569,2.14515 0.44,9.6e-4 1.304,0.27182 1.92,0.60198 0.63211,0.33879 1.8379,0.61737 2.768,0.63951 1.48958,0.0354 1.75874,-0.0715 2.8,-1.11279 z m -36.0756,-1.248 c 2.40681,-0.792 4.67562,-1.43879 5.04181,-1.43731 1.99963,0.008 8.54206,-2.04845 11.22579,-3.52866 0.88,-0.48537 1.96,-0.98749 2.4,-1.11584 0.95216,-0.27773 3.09775,-1.78821 4.83066,-3.40074 1.19176,-1.10898 1.24934,-1.25352 1.24934,-3.13629 v -1.97373 l -1.2,0.88237 c -0.66,0.48531 -2.07455,1.68064 -3.14345,2.65629 -3.3797,3.08487 -3.77884,3.3988 -5.51414,4.33698 -1.5438,0.83465 -1.99315,0.91929 -4.96,0.9343 -2.40463,0.0122 -3.51482,-0.11827 -4.22241,-0.4961 -0.74803,-0.39943 -1.57826,-0.47822 -3.76,-0.35682 -1.54,0.0857 -2.8,0.26375 -2.8,0.39568 0,0.13193 -0.40088,0.32005 -0.890842,0.41804 -0.489964,0.098 -1.768121,0.76399 -2.840352,1.48 -1.902761,1.27061 -2.015552,1.30183 -4.703862,1.30183 -2.854784,0 -3.658986,-0.2662 -8.943254,-2.96038 -0.869984,-0.44356 -1.601911,-0.57312 -2.56,-0.45316 -1.743408,0.21828 -4.963703,0.9645 -5.98169,1.38609 -0.44,0.18223 -1.796218,0.59687 -3.013814,0.92145 -1.2176,0.32457 -2.0096,0.65473 -1.76,0.73369 0.249596,0.079 0.813814,0.39175 1.253814,0.69508 0.904413,0.6235 1.713219,0.80664 6.24,1.41295 1.76,0.23574 3.56,0.51963 4,0.63087 0.44,0.11124 2.456,0.34309 4.48,0.51523 4.922858,0.41869 7.07057,0.7478 7.84,1.20141 1.188093,0.70043 3.299088,0.41562 7.7324,-1.04323 z m -41.812486,0.4 c 1.396307,-0.71023 1.421702,-0.75257 1.871027,-3.12 0.583731,-3.07559 0.564301,-4.1237 -0.128845,-6.94948 -0.52783,-2.15184 -0.532579,-2.53409 -0.06955,-5.6 0.494499,-3.27432 1.174125,-5.73366 2.024301,-7.32528 2.695126,-5.04558 4.831737,-15.84134 4.01239,-20.2736 -0.492979,-2.66677 -0.373277,-3.59363 0.166813,-1.29164 0.633078,2.69835 0.30297,8.90791 -0.711322,13.38038 -0.431619,1.90321 -0.90735,3.70321 -1.057184,4 -0.512636,1.01543 -2.218003,5.33796 -2.864137,7.25962 -1.370653,4.07643 -1.682,9.76712 -0.593904,10.85521 0.279715,0.27972 0.599712,0.79573 0.711101,1.14668 0.111388,0.35096 0.367414,0.63811 0.56894,0.63811 0.20153,0 0.659824,0.36542 1.018439,0.81204 0.460643,0.5737 1.258019,0.95273 2.716685,1.29137 2.242732,0.52067 1.538624,0.61628 8.815334,-1.19694 4.894502,-1.21961 5.596029,-1.16915 9.741155,0.70065 2.979146,1.34384 4.09665,1.68442 5.998983,1.82829 2.253059,0.1704 2.404582,0.13594 4.178844,-0.95035 3.453607,-2.11448 4.41882,-2.48506 6.472606,-2.48506 1.0654,0 2.19519,-0.16118 2.51064,-0.35819 0.45035,-0.28124 0.85912,-0.2125 1.90292,0.32 1.08939,0.55577 1.89484,0.6772 4.4621,0.67273 2.83683,-0.005 3.27115,-0.0881 4.59789,-0.88 1.79686,-1.07254 2.95577,-1.96864 5.4267,-4.19607 1.05036,-0.94684 2.55738,-2.2261 3.34895,-2.84281 0.79157,-0.6167 1.43921,-1.31801 1.43921,-1.55847 0,-0.24045 0.13209,-0.43719 0.29352,-0.43719 0.16144,0 0.88144,-0.88041 1.6,-1.95646 1.11095,-1.66366 1.30648,-2.20589 1.30648,-3.623 0,-2.32506 -0.56928,-3.83257 -4.47885,-11.86054 -2.91751,-5.99087 -3.58335,-7.65921 -4.46794,-11.1951 -1.06093,-4.24071 -1.16501,-6.52347 -0.33341,-7.31273 0.30715,-0.29151 0.33257,-0.19879 0.11732,0.42783 -0.38218,1.11256 -0.21446,3.55673 0.37977,5.53445 1.75424,5.83851 2.54401,8.0062 3.4878,9.57293 0.58611,0.97297 1.17195,2.10394 1.30186,2.51326 0.12991,0.40932 0.49721,1.18413 0.81621,1.72179 2.24796,3.7888 3.17281,5.75631 3.66873,7.80475 0.54452,2.24914 0.54447,2.4229 -0.001,4.16 -0.48951,1.55853 -1.96815,3.95373 -2.81473,4.55952 -0.14349,0.10268 -0.23178,1.58405 -0.19618,3.29192 0.042,2.01464 -0.066,3.2359 -0.30737,3.4773 -1.51151,1.51152 1.54806,4.10348 6.90427,5.84904 1.81273,0.59076 2.54204,0.48949 2.86408,-0.3977 0.11325,-0.31199 0.59088,-1.07126 1.06139,-1.68726 0.47052,-0.616 1.25917,-1.95551 1.75256,-2.97669 0.57615,-1.19249 1.04831,-1.79866 1.31985,-1.69446 0.2342,0.0899 0.74906,-0.2952 1.15428,-0.8633 0.66408,-0.93103 0.72216,-1.31645 0.63025,-4.18174 -0.083,-2.58701 -0.21283,-3.27595 -0.72,-3.82033 -0.34017,-0.36529 -0.61861,-0.78703 -0.61861,-0.9372 0,-0.15017 -0.29674,-0.59102 -0.65943,-0.97966 -0.68058,-0.72928 -2.8715,-4.89632 -3.31662,-6.30806 -0.21015,-0.66649 -0.27709,-0.70301 -0.40474,-0.22085 -0.13135,0.49609 -0.74444,0.6584 -0.80947,0.21429 -0.13379,-0.91385 0.92319,-7.19295 1.38514,-8.22851 0.33282,-0.74609 0.60512,-1.51717 0.60512,-1.71353 0,-0.19636 0.35819,-1.07015 0.79597,-1.94177 1.40211,-2.79153 1.84503,-5.17053 1.69798,-9.12012 -0.15765,-4.23429 -0.46089,-4.83884 -3.66976,-7.31619 -1.13407,-0.87553 -2.26944,-1.9807 -2.52304,-2.45592 -0.25359,-0.47523 -1.12112,-1.41123 -1.92783,-2.08 -0.80672,-0.66878 -1.82633,-1.8244 -2.2658,-2.56804 -0.43948,-0.74364 -1.18346,-1.63252 -1.65328,-1.9753 l -0.85424,-0.62322 -2.2535,2.1353 c -4.11922,3.90315 -7.85774,7.17073 -8.01934,7.00913 -0.0878,-0.0878 1.23996,-1.43627 2.95048,-2.99669 3.75369,-3.42432 6.49149,-6.14856 7.22407,-7.1883 0.29794,-0.42286 1.20874,-1.60807 2.02401,-2.6338 2.33096,-2.932701 2.41814,-3.563203 2.18614,-15.81223 C 129.92266,77.837264 129.8072,67.072 129.77529,59.68 129.71843,46.510205 129.30383,39.589267 128.31332,35.275408 128.141,34.524883 128,33.399939 128,32.775536 c 0,-1.879671 -0.94723,-4.233207 -2.15248,-5.348182 -0.61079,-0.565045 -1.98138,-1.862529 -3.04575,-2.883298 -1.06437,-1.020769 -2.38219,-2.086156 -2.92849,-2.367526 -0.5463,-0.281371 -2.02596,-1.354196 -3.28812,-2.384056 C 115.32299,18.762613 114.14699,17.92 113.97182,17.92 c -0.17517,0 -0.36649,-0.126486 -0.42515,-0.281081 -0.0587,-0.154595 -1.33067,-0.889912 -2.82667,-1.634038 -1.496,-0.744126 -3.008,-1.611598 -3.36,-1.927716 -0.93986,-0.844055 -2.60911,-1.696681 -4.96,-2.533489 -1.144,-0.407211 -2.944,-1.217584 -4,-1.8008293 C 94.572384,7.6287949 91.910634,6.9772896 86.4,6.8056582 80.632944,6.6260403 78.557302,6.9886861 75.077731,8.7838291 73.866483,9.4087232 72.705635,9.92 72.49807,9.92 c -0.207564,0 -0.656544,0.252 -0.997731,0.56 -0.341187,0.308 -1.006352,0.758988 -1.478144,1.002195 -1.575555,0.812192 -7.947001,7.309756 -10.259715,10.462798 -0.397363,0.541746 -1.244736,1.441084 -1.883053,1.998531 -0.638313,0.557446 -1.711421,1.878199 -2.384685,2.935007 C 54.821482,27.935339 54.171475,28.8 54.050285,28.8 c -0.121187,0 -1.099776,1.26 -2.17464,2.8 -1.074861,1.54 -2.325997,3.258851 -2.780301,3.819667 -0.454304,0.560816 -0.857533,1.208816 -0.896064,1.44 -0.03853,0.231184 -0.261738,0.769626 -0.49601,1.196538 -0.285353,0.52 -0.476166,2.526851 -0.578089,6.08 -0.184352,6.426771 0.367075,11.677987 2.321113,22.103795 0.247402,1.32 0.610333,3.319792 0.806519,4.443984 0.196185,1.124189 0.470054,2.276189 0.608601,2.56 0.293975,0.602208 1.314196,3.856646 2.418861,7.716016 0.428199,1.496 1.299987,4.448 1.937309,6.56 1.143882,3.790669 1.393846,4.934451 2.726448,12.475674 0.63728,3.606396 1.288819,5.604326 1.8276,5.604326 0.12936,0 0.881661,0.81077 1.671782,1.80171 0.790122,0.99094 2.156586,2.21614 3.036586,2.72267 1.748522,1.00646 6.300698,5.07562 5.678102,5.07562 -0.212358,0 -1.360806,-0.91601 -2.552105,-2.03558 -1.191296,-1.11958 -2.669997,-2.2911 -3.285997,-2.6034 -0.616,-0.3123 -1.818032,-1.30429 -2.671184,-2.20442 -1.100381,-1.16097 -1.601846,-1.50393 -1.725507,-1.18008 -0.09588,0.25108 -0.706579,1.04308 -1.357114,1.76 -0.650537,0.71691 -1.458061,1.8004 -1.794496,2.40775 -0.336435,0.60735 -1.442182,1.97535 -2.457219,3.04 -4.055773,4.25402 -4.542784,4.82447 -5.557763,6.51001 -0.579581,0.96249 -1.308787,2.03176 -1.620461,2.37616 -0.403712,0.44609 -0.596758,1.28521 -0.671274,2.91786 -0.08971,1.96564 0.0094,2.49658 0.696368,3.7317 3.18656,5.72891 4.292157,8.98433 4.553552,13.4079 l 0.200445,3.3921 -0.97576,1.21643 c -1.551437,1.93409 -1.973337,4.50766 -1.751469,10.68383 0.179783,5.00459 0.21434,5.2118 1.018989,6.11044 0.45809,0.5116 1.260115,1.47565 1.782275,2.14233 0.94394,1.2052 2.936752,2.34118 4.182813,2.38437 0.358707,0.0124 1.289181,-0.3014 2.067719,-0.6974 z M 91.04,125.05983 c -0.600925,-0.33868 -3.357155,-2.51996 -4.24,-3.35554 -0.22,-0.20821 -0.4,-0.51268 -0.4,-0.67658 0,-0.50404 -5.621104,-5.46728 -8.077878,-7.13248 C 75.457418,111.95354 73.46392,110.41669 72,109.02132 c -0.616,-0.58716 -1.879514,-1.61319 -2.807808,-2.28007 -0.928294,-0.66688 -1.823725,-1.46647 -1.989843,-1.77686 -0.166122,-0.3104 -0.918605,-0.85732 -1.672192,-1.21539 -2.26224,-1.07489 -2.810157,-1.77992 -2.810157,-3.61592 0,-0.881102 -0.209725,-2.999493 -0.466051,-4.707541 -0.936595,-6.241011 -1.783085,-13.786038 -2.103485,-18.749027 -0.180499,-2.79592 -0.530621,-7.18792 -0.778051,-9.76 C 59.124982,64.344429 58.831805,60.872 58.720909,59.2 c -0.110896,-1.672 -0.480467,-5.090883 -0.821271,-7.597517 -0.342598,-2.519849 -0.62463,-6.454336 -0.630803,-8.8 C 57.262691,40.469117 57.04953,37.408 56.795133,36 56.118653,32.255926 56.155011,31.634363 57.04,31.813752 c 0.396,0.08027 1.359072,0.233045 2.140163,0.339499 1.740461,0.237207 6.026656,1.918711 6.899837,2.706855 0.352,0.317718 1.288,0.682496 2.08,0.810614 0.792,0.128118 7.56,0.27135 15.04,0.318291 7.48,0.04694 13.744,0.129277 13.92,0.182967 1.024483,0.312518 5.35758,-0.854647 9.32224,-2.511044 1.25524,-0.524422 2.76724,-1.050902 3.36,-1.169955 1.11533,-0.224 1.82853,-0.529477 6.26412,-2.683043 1.72101,-0.83558 2.87927,-1.213867 3.36,-1.097372 1.85948,0.450597 3.21619,2.869654 3.72929,6.649436 0.19114,1.408 0.53131,3.784 0.75593,5.28 0.27101,1.804864 0.3825,5.573075 0.33139,11.2 -0.0772,8.497306 -0.19081,10.526579 -1.38854,24.8 -0.35445,4.224 -0.7288,10.128 -0.83189,13.12 -0.10309,2.992 -0.29638,5.584 -0.42953,5.76 -0.13314,0.176 -0.34796,1.541098 -0.47737,3.033555 -0.25301,2.918145 -0.91517,4.248495 -2.55013,5.123495 -0.44303,0.2371 -0.80551,0.62276 -0.80551,0.85702 0,0.23426 -0.17342,0.42593 -0.38537,0.42593 -0.37987,0 -3.40505,2.80802 -5.65933,5.25307 -4.09382,4.44025 -7.04494,7.3523 -7.8753,7.77102 -0.528,0.26625 -1.68,1.17033 -2.56,2.00907 -1.480662,1.41124 -3.82881,2.86542 -7.598432,4.7056 -1.729581,0.84432 -1.773498,0.85032 -2.641568,0.36107 z m 4.314282,-1.76729 c 0.612857,-0.4029 1.296857,-0.73254 1.52,-0.73254 0.223145,0 0.405718,-0.12839 0.405718,-0.28531 0,-0.15692 0.380742,-0.38087 0.846093,-0.49767 0.465353,-0.11679 1.725353,-1.05069 2.799997,-2.07532 1.07465,-1.02464 2.24191,-1.95396 2.59391,-2.06516 0.352,-0.1112 2.08,-1.73946 3.84,-3.61835 1.76,-1.8789 4.46,-4.68172 6,-6.2285 2.97291,-2.98601 3.36721,-3.86497 2.01099,-4.48291 -0.67448,-0.30731 -0.94159,-0.24011 -1.84,0.46289 -1.17557,0.91987 -4.16126,3.79569 -5.34468,5.148 -0.42553,0.48626 -1.28953,1.14788 -1.92,1.47027 -0.63047,0.32239 -2.22631,1.69713 -3.54631,3.05499 -4.33705,4.46143 -7.119702,5.05171 -12.268362,2.60248 -1.6124,-0.76702 -3.651638,-1.66123 -4.531638,-1.98713 -2.033818,-0.7532 -3.913338,-2.09557 -7.023632,-5.01633 -1.359946,-1.27707 -2.955802,-2.60995 -3.546349,-2.96195 -0.590547,-0.352 -1.67511,-1.06752 -2.410144,-1.59004 l -1.336419,-0.95005 -0.681728,0.83264 c -0.37495,0.45796 -1.029184,0.93862 -1.453853,1.06815 -0.730544,0.22283 -0.739161,0.25348 -0.16,0.56903 0.336669,0.18343 0.72728,0.52629 0.868026,0.76189 0.140745,0.23561 0.432678,0.42838 0.648742,0.42838 0.216061,0 0.784141,0.44594 1.262397,0.99097 0.478256,0.54503 1.698323,1.5462 2.711258,2.22483 1.012937,0.67863 2.669996,1.8887 3.682358,2.68904 1.012358,0.80033 1.946691,1.45516 2.076291,1.45516 0.1296,0 1.101303,0.84522 2.159344,1.87826 9.496797,9.27243 9.20248,9.11281 12.637991,6.85428 z m 2.667632,-6.81829 c 1.011497,-0.37845 2.189616,-1.1401 2.846126,-1.84 2.22471,-2.37176 4.27903,-4.14115 5.45706,-4.70015 0.6607,-0.31353 1.66698,-1.16496 2.23618,-1.89207 0.5692,-0.72712 1.32377,-1.55844 1.67681,-1.84739 0.35305,-0.28895 1.23269,-1.08095 1.95476,-1.76 0.72207,-0.67905 1.65807,-1.5449 2.08,-1.92411 1.69517,-1.52351 4.71631,-4.79494 5.0749,-5.495349 0.21474,-0.419421 0.57048,-0.672237 0.81428,-0.578682 0.53206,0.20417 1.11699,-2.246288 1.12006,-4.692249 0.001,-0.915338 0.22129,-4.25625 0.48919,-7.42425 0.26791,-3.168 0.61682,-7.809322 0.77535,-10.314048 0.15853,-2.50473 0.35604,-4.66473 0.4389,-4.8 C 123.21722,68.827699 123.68,57.68185 123.68,52.48 c 0,-5.047251 -0.0795,-5.335366 -2.65033,-9.604029 -2.00138,-3.323155 -5.57155,-6.60015 -9.48819,-8.709053 -1.85984,-1.001427 -2.70923,-1.08551 -4.0358,-0.399513 -0.51839,0.26807 -2.41359,0.980947 -4.21154,1.584166 -1.79795,0.603219 -3.05866,1.167578 -2.80157,1.254131 0.25708,0.08655 1.18743,0.390541 2.06743,0.675524 1.62706,0.526915 4.33404,1.713577 6.09101,2.670128 1.47142,0.801084 5.10651,4.868281 6.08531,6.808672 0.47719,0.945987 0.96423,1.791974 1.08232,1.879974 0.23726,0.17681 0.69252,1.129139 2.39333,5.006515 0.88129,2.009101 1.29057,3.608355 1.78569,6.977552 0.35329,2.404071 0.64234,5.195072 0.64234,6.202231 0,2.629113 -1.20964,10.912048 -1.76739,12.102064 -0.25993,0.554598 -0.47261,1.178784 -0.47261,1.387081 0,0.542592 -2.51981,6.499827 -2.83795,6.709373 -0.14628,0.09635 -0.6833,1.110938 -1.19337,2.254634 -0.51006,1.143699 -1.41176,2.714006 -2.00376,3.489571 -1.01511,1.329872 -1.06472,1.513117 -0.87162,3.219872 0.24925,2.203053 -0.24614,3.56864 -1.86541,5.142217 -0.62759,0.60989 -1.14261,1.26753 -1.14448,1.46143 -0.002,0.1939 -0.40143,0.7699 -0.88791,1.28 -0.48647,0.5101 -1.29984,1.79146 -1.80748,2.84746 -0.93517,1.94533 -2.47781,4.09062 -4.07302,5.66418 -0.71594,0.70622 -1.50972,0.98376 -4.34299,1.51846 -3.215172,0.60677 -3.643124,0.62057 -5.893136,0.19007 -2.991354,-0.57234 -3.762861,-0.89645 -6.235344,-2.61949 -1.206237,-0.84061 -2.162986,-1.79862 -2.495015,-2.49833 C 82.452317,108.3507 82.077248,107.84 81.91503,107.84 c -0.16222,0 -0.21143,-0.21763 -0.109356,-0.48363 0.127328,-0.33182 0.03824,-0.42709 -0.283802,-0.30351 -0.653315,0.2507 -2.322672,-0.80615 -4.424342,-2.80099 C 74.747005,102.02082 72.939693,99.037552 72.68,96.96 c -0.02198,-0.176 -0.256,-0.32 -0.52,-0.32 -0.264,0 -0.484006,-0.18 -0.488902,-0.4 -0.0049,-0.22 -0.436896,-0.965651 -0.96,-1.657005 C 70.187994,93.891642 69.76,93.135642 69.76,92.902995 69.76,92.670349 69.647917,92.48 69.510922,92.48 c -0.136992,0 -0.5044,-0.86008 -0.816461,-1.91129 C 68.382397,89.517501 67.990483,88.573005 67.823536,88.469824 67.656592,88.366646 67.52,88.092128 67.52,87.859786 67.52,87.62744 67.128694,86.591939 66.650429,85.558669 66.172166,84.525402 65.818477,83.5 65.864458,83.28 c 0.04598,-0.22 -0.06671,-0.4 -0.250429,-0.4 -0.183715,0 -0.338608,-0.396 -0.344205,-0.88 -0.0056,-0.484 -0.218218,-1.154899 -0.472486,-1.490883 C 64.159562,79.666374 62.80431,75.376883 62.233725,72.395069 61.601197,69.089536 61.652141,65.73296 62.387856,62.24 c 0.745232,-3.538141 1.223056,-4.853318 2.732125,-7.52 0.647389,-1.144 1.368041,-2.53641 1.601453,-3.094243 0.233411,-0.557834 0.728608,-1.177059 1.100438,-1.376055 0.37183,-0.198998 0.60385,-0.47864 0.515603,-0.621427 C 68.2004,49.40648 72.179907,45.44 72.539504,45.44 c 0.07013,0 0.30143,-0.146829 0.514003,-0.326288 1.744515,-1.472762 2.474019,-2.035994 3.586493,-2.769053 0.704,-0.463897 1.64,-1.112832 2.08,-1.442077 1.711171,-1.280435 8.247306,-3.970137 10.08,-4.148044 2.291798,-0.222474 -4.050669,-0.393668 -7.84,-0.211616 -9.670394,0.464604 -10.604314,0.535049 -10.977165,0.828016 -0.21056,0.165449 -0.776246,0.394764 -1.257078,0.50959 -1.508023,0.360128 -7.119306,5.760349 -8.270557,7.959472 -0.345514,0.66 -0.75784,1.2 -0.916278,1.2 -0.158439,0 -0.383229,0.433258 -0.499536,0.962794 -0.119136,0.542428 -0.355296,0.873897 -0.540893,0.759193 -0.215415,-0.133133 -0.273363,0.281213 -0.167434,1.197207 0.941114,8.138105 2.169683,22.715401 2.154256,25.560806 -0.0052,0.968 0.133997,2.84 0.309434,4.16 0.175437,1.32 0.54863,4.416 0.829315,6.88 1.18024,10.360749 1.373232,11.231261 2.764666,12.470307 1.717014,1.528973 2.920963,2.409693 3.294064,2.409693 0.189129,0 0.880432,0.5061 1.53623,1.12467 0.929958,0.87716 1.365517,1.08121 1.979187,0.92719 0.592611,-0.14874 1.117591,0.0645 2.126832,0.86381 0.737002,0.58372 1.854605,1.33712 2.483565,1.67422 0.62896,0.3371 1.736458,1.20628 2.461107,1.93151 1.581802,1.58307 2.481677,2.3509 3.970285,3.3877 0.616,0.42903 1.192838,0.88261 1.281866,1.00794 0.08903,0.12534 1.385027,0.75997 2.88,1.4103 1.494972,0.65033 3.582134,1.58145 4.638134,2.06917 1.056,0.48771 2.136,0.96465 2.4,1.05986 1.027734,0.37064 2.931955,0.19521 4.581914,-0.42212 z M 81.28,106.10585 c 0,-0.24979 -0.232154,-1.36034 -0.515898,-2.4679 -0.352169,-1.37465 -0.473948,-2.8911 -0.383718,-4.778289 0.152538,-3.190519 0.373302,-3.594237 3.828218,-7.000829 3.804822,-3.751603 7.634649,-4.949302 12.757657,-3.989693 0.97144,0.181965 2.05144,0.564951 2.4,0.851079 0.348557,0.286124 1.461741,1.18504 2.473741,1.997587 1.012,0.812547 1.84,1.606025 1.84,1.763289 0,0.157261 0.37396,0.689351 0.83103,1.18242 1.41583,1.52734 2.71173,4.723875 2.91942,7.201176 0.14421,1.7201 0.26024,2.10263 0.4998,1.64774 0.17159,-0.32584 0.8568,-1.16843 1.52268,-1.87243 1.60252,-1.694262 2.04009,-3.30824 1.37573,-5.074314 -1.19689,-3.18168 -3.4406,-7.259548 -4.49895,-8.176672 -0.48934,-0.424044 -1.10571,-1.097811 -1.36971,-1.497264 -1.63957,-2.480793 -4.77088,-6.213084 -7.829437,-9.332115 -3.299696,-3.364934 -3.611923,-3.600339 -4.774752,-3.6 -1.163184,3.2e-4 -1.475699,0.236583 -4.8,3.628499 -3.628915,3.702724 -6.833043,7.495482 -8.835811,10.459037 -0.616,0.911514 -1.494339,2.110794 -1.951866,2.665063 -1.468,1.778416 -3.488134,5.921046 -3.488134,7.15302 0,1.643751 2.143773,5.329026 4.075325,7.005716 2.859302,2.48204 3.924675,3.0887 3.924675,2.23488 z m 24.6351,-0.76474 c 0.003,-0.23038 -0.1391,-0.32988 -0.3151,-0.22111 -0.176,0.10877 -0.3178,0.51327 -0.3151,0.89889 0.004,0.56999 0.0629,0.61134 0.3151,0.22111 0.17061,-0.264 0.31241,-0.6685 0.3151,-0.89889 z m -10.709874,-0.3927 c 0.570355,-1.26482 0.569049,-1.30959 -0.06304,-2.16 -0.703146,-0.94601 -2.389251,-1.33329 -3.129619,-0.71884 -0.731437,0.60704 -0.901338,2.45747 -0.308682,3.36198 0.40993,0.62563 0.799862,0.80845 1.724317,0.80845 1.085949,0 1.247568,-0.11747 1.777021,-1.29159 z m -4.423469,-1.18232 c -0.08113,-0.31135 -0.152851,-0.13409 -0.159373,0.39391 -0.0065,0.528 0.05986,0.78274 0.147517,0.56609 0.08765,-0.21665 0.09299,-0.64865 0.01187,-0.96 z m -4.376493,-2.10498 c 0.0087,-1.15382 1.358214,-3.141507 2.554736,-3.762742 3.677802,-1.909517 5.477338,-2.176035 7.465018,-1.1056 0.64624,0.348026 1.174982,0.752522 1.174982,0.898886 0,0.146365 0.144,0.17712 0.32,0.06835 0.567882,-0.35097 0.345104,-0.732288 -0.86464,-1.479949 -1.714579,-1.05967 -4.900403,-1.008806 -6.667664,0.106451 -0.697232,0.44 -1.571661,0.896381 -1.943171,1.01418 -0.809757,0.256761 -3.006551,2.560297 -2.999626,3.145374 0.0035,0.2945 0.09441,0.27544 0.315101,-0.0661 0.255718,-0.39569 0.311059,-0.36478 0.315101,0.176 0.0026,0.3608 -0.155354,0.81625 -0.351219,1.01212 -0.403943,0.40394 -0.0782,1.1603 0.37823,0.87821 0.163837,-0.10125 0.300256,-0.4996 0.303152,-0.88522 z M 99.68,99.52 c 0.108774,-0.176 -0.03523,-0.32 -0.32,-0.32 -0.309891,0 -0.426099,-0.14833 -0.289443,-0.369443 0.136278,-0.220503 0.0883,-0.282903 -0.119002,-0.154781 -0.191033,0.118064 -0.437782,0.06831 -0.548329,-0.110557 C 98.292678,98.386349 98.041626,98.24 97.845334,98.24 c -0.196291,0 -0.01869,0.36 0.394666,0.8 0.815686,0.868259 1.134387,0.97449 1.44,0.48 z m -0.547382,-1.726413 c -0.226941,-0.245526 -0.522967,-0.379577 -0.657837,-0.297888 -0.365895,0.221613 0.05316,0.744301 0.59672,0.744301 0.389104,0 0.400022,-0.07975 0.06112,-0.446413 z M 95.52,97.108445 c -1.13607,-0.520199 -1.971046,-0.583623 -2.22719,-0.169171 -0.168468,0.272585 0.906611,0.51887 2.54719,0.583523 0.463376,0.01827 0.375066,-0.09609 -0.32,-0.414352 z M 76.006864,89.6 c 0.596659,-0.792 1.559203,-2.072442 2.138986,-2.845424 5.040342,-6.719923 11.990508,-14.235741 13.519116,-14.619398 0.424656,-0.10658 1.209021,0.04781 1.82057,0.358358 1.950621,0.990534 6.724534,6.011331 10.354464,10.889952 0.88,1.18272 2.17731,2.75055 2.88291,3.484074 0.70559,0.73352 1.92348,2.585366 2.70641,4.115212 1.63084,3.186666 1.56914,3.191456 3.3843,-0.262774 0.6474,-1.232 1.8854,-3.569747 2.7511,-5.194998 0.86571,-1.625248 1.5605,-2.993248 1.54399,-3.04 -0.0354,-0.100352 0.088,-0.505053 0.80686,-2.645002 0.29561,-0.88 0.66429,-2.464 0.8193,-3.52 1.05308,-7.174234 1.16159,-9.730051 0.62212,-14.652611 C 119.17934,60.046323 118.98743,58.288 118.93052,57.76 118.87362,57.232 118.58697,56.264624 118.29353,55.610278 118.00009,54.95593 117.76,54.28623 117.76,54.122054 c 0,-0.662393 -2.96443,-6.325017 -3.53999,-6.762054 -0.11589,-0.088 -0.43411,-0.592 -0.70716,-1.12 -0.27305,-0.528 -1.44781,-1.989734 -2.61058,-3.248298 -1.90828,-2.065475 -2.44071,-2.431312 -5.46786,-3.757043 -4.27185,-1.870838 -6.66873,-2.255792 -12.47441,-2.003478 -4.603331,0.200057 -4.740381,0.231597 -10.283472,2.366573 -1.48175,0.57071 -3.993546,2.14712 -8.596528,5.3952 -1.508867,1.064726 -4.865072,4.333571 -5.92,5.765907 C 65.117552,54.88976 62.751126,61.403968 62.478016,66.4 c -0.209946,3.840566 0.978298,10.044947 2.555702,13.344541 0.311456,0.651501 0.566282,1.479501 0.566282,1.84 0,0.360502 0.144,0.655459 0.32,0.655459 0.176,0 0.32,0.215802 0.32,0.479562 0,0.26376 0.560874,1.73976 1.246387,3.28 0.685517,1.54024 1.352295,3.160438 1.481735,3.600438 0.320684,1.090099 2.005913,4.43183 2.806857,5.565866 l 0.65392,0.925865 1.246563,-2.525865 C 74.361075,92.17664 75.410205,90.392 76.006864,89.6 Z M 69.805875,78.666477 C 68.313914,78.404547 67.52,77.924906 67.52,77.285472 c 0,-0.217888 -0.36,-0.926653 -0.8,-1.575027 -0.987552,-1.455239 -1.122717,-2.700899 -0.159555,-1.470445 0.344419,0.44 0.909056,1.393072 1.254752,2.117936 0.667638,1.399923 1.264902,1.710269 3.305725,1.717696 l 1.200921,0.0044 -1.32984,-1.2 C 69.537725,75.567712 68.8,74.14784 68.8,72.661136 c 0,-0.994566 0.880182,-3.204944 1.44,-3.616237 0.86633,-0.63648 -1.970096,-0.134902 -3.511126,0.620887 -1.350266,0.662233 -1.853536,0.777552 -2.140599,0.490489 -0.287059,-0.287059 -0.231053,-0.422025 0.238215,-0.574064 0.33743,-0.109325 1.371104,-0.564019 2.297049,-1.010435 1.522355,-0.733952 1.935952,-0.793594 4.32,-0.622954 1.450055,0.103789 4.05529,0.605965 5.836461,0.814663 2.935501,0.34395 6.403094,1.000055 4.678326,0.972452 -1.011248,-0.01619 -5.245558,-0.315371 -5.355532,-0.205399 -0.109972,0.109971 0.266771,0.789228 0.837206,1.509462 0.570435,0.720234 0.980016,1.36665 0.910186,1.436483 -0.06983,0.06983 -0.6885,-0.648057 -1.374813,-1.595309 -1.226618,-1.692982 -1.281482,-1.725881 -3.225507,-1.934067 -1.087716,-0.116486 -2.249312,-0.159475 -2.581328,-0.09554 -1.110554,0.213872 -2.065341,3.362938 -1.591748,5.249882 0.11873,0.473059 0.787328,1.409161 1.485776,2.080227 l 1.269901,1.220122 1.673767,-0.493552 c 2.021529,-0.596096 2.317878,-0.823524 3.476883,-2.66825 0.497597,-0.792 0.906921,-1.296 0.909606,-1.12 0.0072,0.474461 -1.251286,2.499856 -1.837216,2.956694 -0.279833,0.21818 -0.419072,0.48641 -0.309421,0.596061 0.370621,0.370621 3.473584,-0.582262 4.135645,-1.270006 L 81.038982,74.72 80.660035,75.455318 C 80.235558,76.278979 79.668749,76.547626 76,77.663997 c -3.69665,1.124857 -4.63345,1.276473 -6.194125,1.00248 z m 34.669665,-4.139456 c 0.11188,-0.291555 0.69894,-0.453607 1.688,-0.465959 1.93483,-0.02416 2.86424,-0.23472 3.3608,-0.761404 0.31431,-0.333373 0.31342,-0.449812 -0.004,-0.566324 -0.22,-0.08067 -0.4,-0.307468 -0.4,-0.504 0,-0.248297 0.11717,-0.24016 0.384,0.02666 0.42872,0.42872 0.9233,0.512986 0.8452,0.144 -0.0279,-0.132 0.062,-0.498691 0.19994,-0.814867 0.80475,-1.844995 -0.75388,-5.20088 -2.88823,-6.218681 -1.02193,-0.487322 -1.17176,-0.474631 -3.0082,0.254803 -1.06299,0.422217 -1.93271,0.873641 -1.93271,1.003165 0,0.12952 -0.18787,0.163404 -0.41747,0.07529 -0.22962,-0.08811 -0.91362,0.198288 -1.52,0.636439 -0.6064,0.43815 -1.623389,0.913435 -2.06253,1.326982 -4.016246,3.78217 -1.187171,0.206161 -0.105373,-0.737666 1.306417,-1.139792 3.400023,-2.187758 3.785373,-2.240769 0.088,-0.0121 0.59322,-0.504652 1.58137,-0.94166 1.19799,-0.529808 3.30133,-1.049288 5.624,-1.308706 1.91585,-0.21398 3.91018,-0.379102 4.47007,-0.519825 0.78788,-0.198019 1.47255,-0.57447 1.77045,-0.293559 0.35442,0.334209 0.37234,0.842765 0.0711,1.144024 -0.0823,0.08235 -2.41551,0.457851 -4.53502,0.643332 -3.62185,0.316951 -3.8106,0.367076 -3.1378,0.833271 1.95283,1.353145 2.69007,2.602899 2.75987,4.678425 0.0301,0.896471 -0.15283,1.986941 -0.41612,2.48 -0.53887,1.009095 -0.33305,1.103572 0.68161,0.312884 0.71431,-0.556608 1.69051,-2.839386 1.69051,-3.953108 0,-0.329872 0.21205,-0.970094 0.39463,-0.975036 1.15524,-0.03127 0.20093,2.786553 -0.40399,3.956338 -0.72083,1.393933 -2.88812,2.88834 -6.60589,3.271108 -1.72258,0.177352 -5.88762,-0.08743 -5.62191,-0.79788 z m -0.87162,-0.630458 c -0.30584,-0.178185 -0.7205,-0.641805 -0.92147,-1.030269 -0.30091,-0.581648 -0.18866,-0.540428 0.63607,0.233575 1.26278,1.185097 1.34473,1.413869 0.2854,0.796694 z M 73.18,73.073334 c -0.470733,-0.470732 -0.223174,-1.440873 0.34,-1.332416 0.308,0.05932 0.56,0.381876 0.56,0.716797 0,0.636653 -0.521946,0.993674 -0.9,0.615619 z m 28.75912,-1.911094 c -0.29505,-1.175571 -0.0611,-1.24561 0.36754,-0.110026 0.19676,0.52128 0.24186,0.947786 0.10023,0.947786 -0.14163,0 -0.35213,-0.376992 -0.46777,-0.83776 z M 105.36,70.49015 C 104.68561,70.24824 104.88324,69.12 105.6,69.12 c 0.42018,0 0.64,0.213334 0.64,0.621114 0,0.705497 -0.29689,0.958204 -0.88,0.749036 z M 101.81439,69.12 c 0.005,-0.264 0.1247,-0.84 0.26561,-1.28 0.20596,-0.643114 0.25805,-0.674493 0.26561,-0.16 0.005,0.352 -0.11435,0.928 -0.26561,1.28 -0.16849,0.392099 -0.27137,0.454074 -0.26561,0.16 z"
         id="outline" />
    </g>
  </g>
</svg>
