<?xml version="1.0" encoding="UTF-8" standalone="no"?>
<!-- Created with Inkscape (http://www.inkscape.org/) -->

<svg
   version="1.1"
   id="svg2"
   width="192"
   height="288"
   viewBox="0 0 192 288"
   xmlns="http://www.w3.org/2000/svg"
   xmlns:svg="http://www.w3.org/2000/svg">
  <defs
     id="defs6" />
  <g
     id="g8">
    <g
       id="g170"
       transform="translate(0,-42)">
      <path
         id="whites"
         style="display:inline;fill:#fefefe;stroke-width:0.32"
         d="m 113.34766,118.13281 c -0.35645,-0.012 -0.20693,0.26548 0.32422,0.82813 1.45667,1.54338 2.68513,7.25159 1.79296,8.33203 -0.24872,0.3012 -0.65615,0.95427 -0.90625,1.45312 -0.95707,1.909 -2.6621,2.55321 -5.54687,2.09571 -1.80575,-0.28637 -2.11224,-0.45836 -3.64258,-2.05469 -2.21715,-2.31274 -2.76419,-3.41268 -2.96289,-5.95899 l 0.033,-2.2876 -1.52478,-0.2529 -0.76189,0.78642 0.62672,3.13494 c 0.378,1.94315 2.30317,6.47598 3.29687,7.76368 0.26104,0.33828 1.10057,0.71978 1.87695,0.85351 0.77329,0.1331 2.63096,0.2163 4.12696,0.1836 2.43151,-0.0531 2.87318,-0.16186 4.16015,-1.01563 5.46989,-3.62789 9.83245,-7.4811 9.83245,-9.51277 0,-0.21859 -1.5034,-0.39611 -2.27385,-0.69035 -0.77045,-0.29423 -1.65592,-0.81643 -1.96875,-1.16211 C 119.51725,120.28324 119.0789,120 118.85547,120 c -0.22342,0 -1.48607,-0.43294 -2.80469,-0.96094 -1.48525,-0.59472 -2.34668,-0.89427 -2.70312,-0.90625 z m -8.79102,0.38086 c 0.0237,0.11866 -0.25295,0.085 -0.48047,0.3125 -0.41295,0.41292 -1.33676,1.20858 -0.99643,1.61721 1.74011,1.25178 2.96625,-0.27019 2.3612,-1.40044 -0.16614,-0.31043 -1.03129,-1.26556 -0.90637,-0.63984 z m -25.759765,0.18555 c -0.199864,0.0437 -0.14143,0.29009 0.244141,0.7539 0.176572,0.21257 0.791062,1.10633 1.365234,1.98633 2.717161,4.16436 3.173455,7.01745 1.585938,9.91016 -1.573941,2.86792 -4.362384,3.90832 -7.796876,2.91016 -1.371412,-0.3987 -2.123223,-0.89848 -3.53125,-2.34375 -0.983935,-1.01017 -1.892907,-2.26888 -2.019531,-2.79688 -0.442296,-1.8444 -0.54134,-4.3354 -0.210937,-5.2832 l 0.332031,-0.95508 -1.021484,0.51758 c -0.562752,0.28452 -1.506201,0.87876 -2.095703,1.32031 -0.921279,0.69003 -1.04525,0.93783 -0.878907,1.76953 0.302185,1.51094 1.548778,3.78947 1.982422,3.62305 0.213789,-0.082 0.485307,0.1665 0.601563,0.55078 0.435669,1.44022 2.863474,3.1099 5.671875,3.90234 3.831128,1.08103 5.598917,1.02918 8.169921,-0.24414 1.661842,-0.82303 2.197657,-1.27381 2.570313,-2.16015 0.53838,-1.28058 0.703069,-6.25317 0.254502,-9.01947 -0.127263,-0.78483 0.93046,-1.31561 0.666262,-1.67767 -0.923553,-1.26565 -1.983788,-0.66355 -3.051623,-1.37708 -1.162941,-0.77708 -2.068372,-1.24466 -2.554688,-1.36328 -0.121578,-0.0297 -0.216582,-0.038 -0.283203,-0.0234 z m -8.412109,3.54883 c -0.06319,-0.007 -0.12529,-0.003 -0.185547,0.01 -0.24103,0.0499 -0.439453,0.24921 -0.439453,0.56836 0,0.32266 0.09918,0.68708 0.220703,0.8086 0.32651,0.32655 1.171219,-0.63511 0.917969,-1.04493 -0.131145,-0.21219 -0.32411,-0.32174 -0.513672,-0.34179 z" />
      <path
         style="display:inline;fill:#fae2c7;stroke-width:0.32"
         d="m 92.667322,159.28167 c -1.496,-0.35228 -3.351548,-0.80954 -4.231548,-1.09721 -1.974595,-0.6455 -8.142411,-4.04037 -9.875774,-5.22327 -0.704,-0.48043 -1.568,-0.96579 -1.92,-1.07858 -0.352,-0.11279 -1.341005,-0.85252 -2.197789,-1.64384 C 73.585427,149.44745 72.751258,148.8 72.588502,148.8 c -0.162755,0 -0.97375,-0.61695 -1.802211,-1.371 C 69.95783,146.67494 68.668,145.64736 67.92,145.14548 c -0.748,-0.50189 -1.36,-1.01479 -1.36,-1.13977 0,-0.125 -0.756,-1.02464 -1.68,-1.99921 -3.15913,-3.33204 -5.826621,-6.60865 -6.045062,-7.42543 -0.43033,-1.60906 0.661337,-4.84983 2.431075,-7.217 0.458861,-0.61376 1.041987,-1.81532 1.29584,-2.67014 0.403955,-1.36026 0.402688,-1.69509 -0.01014,-2.68315 C 62.292266,121.38987 62.08,120.79143 62.08,120.68092 c 0,-0.11051 0.9244,-0.20092 2.054221,-0.20092 1.746627,0 2.184041,-0.11979 2.921238,-0.8 1.201277,-1.10842 1.826218,-2.71546 1.60241,-4.12062 -0.268554,-1.68609 0.142109,-2.16958 1.40016,-1.64848 0.548425,0.22716 1.101725,0.5889 1.229555,0.80387 0.127827,0.21496 1.168416,0.76117 2.312416,1.2138 2.693984,1.0659 4.461005,0.80499 7.104365,-1.04901 1.003401,-0.70376 1.950301,-1.27956 2.104221,-1.27956 0.15392,0 0.628953,0.37309 1.055635,0.82909 1.424989,1.5229 3.657773,2.95711 5.708521,3.66681 1.744071,0.60358 2.519191,0.68274 5.487271,0.56046 3.134045,-0.12913 3.584041,-0.22694 4.826185,-1.04895 0.753432,-0.49859 2.108942,-1.68188 3.012242,-2.62952 1.42638,-1.49638 1.69588,-1.6585 2.04924,-1.23273 0.72248,0.87053 2.85423,1.24521 4.71519,0.82874 1.29172,-0.28907 1.88561,-0.63831 2.64165,-1.5534 0.87596,-1.06026 1.00966,-1.12323 1.31256,-0.61825 0.18548,0.30924 0.89224,0.84539 1.57056,1.19145 0.67833,0.34605 1.28261,0.77125 1.34284,0.94488 0.0602,0.17363 1.27791,0.41255 2.70593,0.53093 2.95849,0.24525 5.40772,-0.20308 6.71134,-1.22851 1.05425,-0.82927 1.28773,-0.51125 1.56972,2.13816 0.33084,3.10832 0.72514,4.02116 1.95973,4.53701 2.18644,0.91355 4.25538,4.27131 4.27279,6.93447 0.0127,1.94281 -1.00965,4.00458 -3.49857,7.05552 -2.24722,2.75466 -7.955,8.79964 -11.32591,11.54306 -1.34076,1.09117 -3.6165,3.1086 -5.08425,4.45614 -1.92344,1.64653 -3.99513,3.34229 -5.82956,4.83783 -2.16684,1.77306 -2.94395,2.17349 -5.9148,3.3412 -3.380252,1.32863 -5.971018,1.41171 -9.429578,0.59728 z m -11.47489,-24.4792 c 1.461872,-0.7158 1.902944,-1.12801 2.393373,-2.2367 0.687149,-1.55341 0.908208,-5.83323 0.453219,-8.77453 -0.249984,-1.61602 -0.295668,-1.90906 0.220185,-2.00845 0.490521,-0.0945 -0.0078,-0.42722 -0.696517,-1.14566 -1.827145,-1.90598 -4.200641,-3.08341 -6.389057,-3.09296 -1.389766,-0.006 -5.060059,1.67954 -7.424465,3.34221 -1.028685,0.72338 -2.363516,1.6546 -3.006831,2.04234 -1.442506,0.86945 -3.026007,2.32382 -2.767923,2.74141 0.105286,0.17036 0.188496,0.34695 0.333558,0.2573 0.145066,-0.0897 0.361101,0.232 0.48008,0.71478 0.284464,1.15428 1.502877,3.59779 1.793978,3.59779 0.125722,0 0.326112,0.324 0.445306,0.72 0.4392,1.45914 2.853955,3.12849 5.67815,3.92536 3.733696,1.0535 6.215635,1.02926 8.486944,-0.0829 z m 33.096998,-2.56667 c 4.56635,-2.848 7.59856,-5.55288 8.43514,-7.95232 0.38077,-1.0921 0.74105,-1.62436 1.08301,-1.6 0.9878,0.0704 0.45576,-0.71972 -0.81181,-1.36376 -0.704,-0.35769 -1.91977,-1.13014 -2.62062,-1.60845 -0.70086,-0.47831 -1.32146,-0.99127 -1.51426,-0.99127 -0.1928,0 -1.27538,-0.37855 -2.40572,-0.84123 -4.50558,-1.84423 -9.13426,-2.50343 -11.26545,-1.60437 -0.56634,0.23892 -1.65201,1.6508 -2.82219,2.79097 l -2.00253,2.42292 0.33513,2.26671 c 0.24388,1.64958 0.97432,3.61037 1.82198,5.3417 0.73872,1.50882 1.19859,2.7433 1.02193,2.7433 -0.17665,0 -0.0866,0.23461 0.20018,0.52136 0.6965,0.6965 4.27707,1.17813 6.85416,1.01504 1.62904,-0.1031 2.43795,-0.35905 3.69105,-1.1406 z"
         id="skin" />
      <path
         style="display:inline;fill:#980d8c;stroke-width:0.32"
         d="m 73.963274,133.97392 c -0.517144,-0.12666 -1.395882,-0.8436 -2.553281,-1.859 -1.180737,-1.54402 0.0846,-1.554 -1.359818,-1.14545 -0.532099,-0.32886 0.26419,-1.36947 0.827115,-1.36947 0.262508,0 0.657145,-0.288 0.876972,-0.64 0.219828,-0.352 0.75923,-0.92145 0.892894,-0.92145 0.133664,0 0.336974,0.52111 0.632844,0.92145 0.708548,0.95872 2.416155,0.0716 2.390347,-2.55935 -0.0093,-0.94916 -0.30355,-1.91955 0.387574,-1.91338 1.060669,-0.24639 3.302079,3.16737 3.302079,3.63195 1.128736,0.63448 3.925114,-1.73965 2.951994,0.0484 0,0.27258 -0.19058,1.59001 -0.347067,1.89562 -0.156489,0.30562 -0.327265,1.34016 -0.647061,1.99321 -0.319792,0.65305 -0.0836,0.27794 -0.944939,1.04277 -0.08409,0.0747 -0.38669,0.28058 -0.644364,0.49441 -0.257677,0.21385 -1.397468,0.65075 -2.035986,0.6651 -0.638518,0.0144 -1.345671,-0.27273 -1.609671,-0.17931 -0.264,0.0934 -0.755361,0.36233 -0.820884,-0.0209 -0.891074,-0.0853 -0.5642,-0.28302 -1.298748,-0.0846 z m 1.362488,-2.32009 C 75.600221,130.93861 75.578576,130.88 75.04,130.88 c -0.266666,0 -0.48,0.28444 -0.48,0.64 0,0.76296 0.491389,0.84884 0.765763,0.13383 z m 32.934678,-2.01595 c -1.39585,0.47814 -1.98615,-0.0242 -2.51235,-0.59331 -0.50508,-0.54627 -0.97651,-1.13604 -1.25167,-1.56222 -1.01266,-1.56848 0.8726,-0.61922 1.52816,-1.07839 0.36102,-0.25287 0.68957,-0.74525 0.68957,-1.17527 0,-0.94723 0.77574,-1.16652 1.52054,-0.29665 0.74558,0.87077 0.98512,0.65361 1.97209,-0.20683 L 111.03864,124 l 0.90077,0.78795 c 0.49838,0.43596 2.49622,-1.17335 2.64517,-1.24357 0.51536,-0.24296 0.59255,2.14388 0.81438,2.28088 0.30504,0.18853 -0.99182,1.63454 -1.71404,2.94183 -1.15691,2.09413 -2.64317,2.23831 -5.34552,1.71385 z"
         id="eye3" />
      <path
         style="display:inline;fill:#851075;stroke-width:0.32"
         d="m 76.164899,133.68 c -0.0036,-0.40764 0.234528,-0.5499 0.875101,-0.52288 0.674493,0.0285 0.730541,0.0745 0.24,0.19702 -0.352,0.0879 -0.745795,0.32324 -0.875101,0.52288 -0.149203,0.23036 -0.236889,0.15838 -0.24,-0.19702 z m -1.458825,-0.21747 c 0.173638,-0.28095 0.02499,-0.36514 -0.510557,-0.28917 -0.7924,0.11241 -2.597245,-1.25051 -3.235824,-2.44352 -0.185517,-0.34658 0.362233,-0.0144 1.217225,0.7382 1.180756,1.03934 1.731079,1.32404 2.288807,1.18406 0.788355,-0.19787 1.065504,0.54542 0.364832,0.97846 -0.237847,0.147 -0.282189,0.0872 -0.124483,-0.16803 z m 4.020345,-0.51026 c 0.222631,-0.26826 0.470682,-0.42184 0.551226,-0.34129 0.221917,0.22192 -0.228976,0.82902 -0.615712,0.82902 -0.212192,0 -0.187914,-0.18361 0.06449,-0.48773 z M 74.56,131.52 c 0,-0.35556 0.213334,-0.64 0.48,-0.64 0.538576,0 0.560221,0.0586 0.285763,0.77383 C 75.051389,132.36884 74.56,132.28296 74.56,131.52 Z m 5.44,0.33889 c 0,-0.16562 0.142352,-0.3891 0.316336,-0.49662 0.181395,-0.11211 0.23504,0.0164 0.125763,0.30111 C 80.229366,132.21775 80,132.31918 80,131.85889 Z m 0.652813,-1.36 c -0.007,-0.29762 0.131187,-0.63012 0.307187,-0.73889 0.176,-0.10877 0.32,-0.48234 0.32,-0.83014 0,-0.53537 -0.09919,-0.57929 -0.646614,-0.28632 -0.741335,0.39675 -1.273386,0.17768 -1.273386,-0.52432 0,-0.50256 -2.749494,-3.31922 -3.240064,-3.31922 -0.153965,0 -0.530116,-0.0638 -0.530116,-0.29457 0,-0.23081 -0.06323,-0.74524 -0.392235,-1.09838 -0.847808,-0.91002 -1.059931,-3.04268 -0.353119,-3.68233 0.921069,-0.83356 2.454059,-0.22975 3.874443,1.5631 1.62121,2.04634 1.86604,3.28331 0.897643,3.35149 -1.309513,0.0922 -1.370364,0.0205 -1.585042,0.2352 -0.384925,0.38492 1.825149,0.53562 2.487617,0.18108 0.605481,-0.32404 1.022305,-0.0883 1.230603,1.98584 0.170896,1.70173 -0.204037,2.37419 -0.588021,3.08292 -0.327741,0.60493 -0.500432,0.73202 -0.508896,0.37454 z m -3.764857,-6.86492 c -0.09185,-0.0919 -0.150667,-0.001 -0.346923,0.11984 -0.256128,0.1583 -0.162163,0.27356 0.136105,0.63342 0.374381,0.45169 0.205135,0.40216 0.302697,-0.0977 0.05956,-0.30519 -3e-5,-0.56369 -0.09188,-0.65554 z M 78.118378,122.72 c 0,-0.32267 -0.02958,-0.48596 -0.227894,-0.55207 -0.421469,-0.14049 -0.782883,0.52838 -0.5048,0.97833 0.298016,0.4822 0.732694,0.22411 0.732694,-0.42626 z m -1.475631,-2.02507 c 0.06646,-0.45167 0.04362,-0.59542 -0.270548,-0.59542 -0.622272,0 -0.861058,0.37019 -0.620879,0.99609 0.260586,0.67906 0.767261,0.44318 0.891427,-0.40067 z M 69.982493,129.92 c -0.09461,-0.264 -0.532298,-1.09673 -0.62864,-1.88873 -0.09634,-0.792 -0.108652,-1.81199 -0.222707,-2.29599 -0.19599,-0.83168 -0.04647,-1.02373 1.010405,-1.02373 0.796282,0 1.164606,-0.20731 1.525269,-0.72 0.495318,-0.7041 0.734417,-0.59576 0.545252,0.49951 -0.242489,1.40402 -0.285282,1.66126 -0.882716,1.16543 -0.268256,-0.22263 -0.498911,-0.46174 -0.512217,-0.39616 -0.02453,0.12088 -0.105563,0.34084 -0.177627,0.69284 -0.18839,0.92017 0.101554,3.32683 0.436821,3.32683 0.156016,0 0.09571,-0.55673 0.09571,-1.18312 0,-0.67777 0.29541,-1.11409 0.485848,-0.99639 0.176,0.10877 0.28747,0.0368 0.301764,-0.2816 0.0191,-0.42535 0.292143,-0.41952 0.570024,0.20579 0.429402,0.96627 1.30628,2.15581 1.692172,2.15581 0.141865,0 0.606831,-0.21564 0.965686,-0.60083 0.358857,-0.38519 0.652467,-0.5515 0.652467,-0.3696 0,0.18191 -0.288586,0.59191 -0.641299,0.91112 -0.529891,0.47954 -0.780055,0.51714 -1.44,0.21645 -0.439287,-0.20015 -0.798701,-0.511 -0.798701,-0.69077 0,-0.56167 -0.787059,-0.35727 -1.205738,0.31314 -0.219827,0.352 -0.602464,0.64 -0.850307,0.64 -0.247843,0 -0.517856,0.18 -0.600032,0.4 -0.10816,0.28956 -0.196902,0.26748 -0.32143,-0.08 z m 38.337507,0 -0.64,-0.27502 0.64,0.009 c 0.352,0.005 1,0.1247 1.44,0.26561 l 0.8,0.2562 -0.8,0.009 c -0.44,0.005 -1.088,-0.11435 -1.44,-0.26561 z m 4.53883,-1.97427 c 0.47575,-0.90984 0.92352,-1.47867 0.99506,-1.26406 0.12298,0.36894 -1.36342,2.91833 -1.70151,2.91833 -0.0872,0 0.23071,-0.74442 0.70645,-1.65427 z m -6.88305,0.27365 c -0.80926,-0.86143 -0.89972,-1.67265 -0.21578,-1.9351 0.264,-0.10131 0.32521,-0.42074 0.32521,-0.70985 0,-0.42744 -0.0324,-0.35372 -0.9431,-0.18286 -0.99288,0.18626 -1.27479,-0.0435 -1.27479,-0.64286 0,-0.5088 0.27715,-0.69655 0.71659,-0.55708 0.6022,0.19113 1.02251,-0.39753 1.33365,-1.83663 0.11504,-0.53208 0.18189,-0.52518 -0.2185,-0.40121 -0.47428,0.14686 -0.67515,-0.0661 -0.21871,-0.4519 0.27722,-0.23436 0.81706,-0.84423 1.13208,-1.32823 0.44032,-0.67651 0.82556,-0.95739 1.666,-0.95739 0.67657,0 1.13027,-0.0834 1.24426,-0.3805 0.12192,-0.31772 0.63361,-0.54266 1.40524,-0.51381 0.67479,0.0252 1.08734,0.32118 0.69083,0.3988 -0.67196,0.13154 -0.66492,0.0582 -0.19954,1.84585 0.26093,1.00228 0.39511,1.73321 0.46035,1.79995 0.0652,0.0667 0.0587,-0.16822 0.26919,-0.63026 0.35122,-0.77084 0.81278,-0.80509 1.16912,-0.29241 0.39801,0.57262 0.54696,1.91174 0.76779,3.65665 0.11017,0.87051 0.0564,0.94956 -0.45834,0.67407 -0.32073,-0.17165 -0.66669,-0.22854 -0.76881,-0.12643 -0.10212,0.10212 -0.55336,-0.22695 -1.00276,-0.73126 L 111.03863,124 l -0.66601,0.88 c -0.79018,1.04407 -1.3813,1.11077 -2.12688,0.24 -0.74479,-0.86987 -1.36574,-0.80537 -1.36574,0.14186 0,0.44074 -0.30452,0.99514 -0.69798,1.27073 -0.6343,0.44428 -0.65334,0.54082 -0.20867,1.05815 1.13788,1.32382 1.13987,1.83939 0.003,0.62864 z m 3.84157,-3.68702 c 0.17784,-0.22 0.45361,-0.9487 0.57267,-1.83515 0.2743,-2.04234 -0.14795,-2.61707 -2.04123,-2.4615 -1.22101,0.10034 -1.11055,-0.019 -1.20231,1.44907 -0.0757,1.21173 -0.0504,1.57356 0.63788,2.39154 0.88079,1.04676 1.48636,1.13224 2.03299,0.45604 z m 3.01191,-1.34547 0.008,-1.48644 -0.27135,0.77146 c -0.26338,0.74879 -0.34409,1.10886 -0.0936,1.76772 0.49794,1.30969 0.34722,0.84045 0.35715,-1.05274 z M 75.91424,126.72 c 0,-0.616 0.06586,-0.868 0.146346,-0.56 0.08049,0.308 0.08049,0.812 0,1.12 -0.08049,0.308 -0.146346,0.056 -0.146346,-0.56 z m 27.7657,-3.72293 c 0.0326,-0.71891 0.30829,-1.35897 0.63706,-1.40598 0.38655,-0.0553 0.60967,0.32048 0.49576,1.0966 -0.12484,0.8506 -0.39225,0.9165 -0.58931,0.3738 -0.21484,-0.59171 -0.0458,-0.55762 -0.2025,0.18274 -0.12353,0.58345 -0.37711,0.5488 -0.34101,-0.24716 z M 71.89795,122.3237 c -0.273923,-0.51183 -0.150373,-0.87347 0.258702,-1.03045 0.658211,-0.25258 1.410046,0.49897 1.159617,1.15158 -0.264432,0.6891 -1.005333,0.65054 -1.418319,-0.12113 z m 34.46893,-4.06159 c 0.10131,-0.264 0.36808,-0.62373 0.52525,-0.62373 0.15716,0 0.4516,0.34868 0.4516,0.61268 0,0.264 -0.27781,0.62373 -0.53629,0.62373 -0.28627,0 -0.55276,-0.32029 -0.44056,-0.61268 z"
         id="eye2" />
      <path
         style="display:inline;fill:#6d1565;stroke-width:0.32"
         d="m 75.2,133.95424 c 0,-0.0692 0.216,-0.20865 0.48,-0.30996 0.264,-0.10131 0.48,-0.0447 0.48,0.12576 0,0.17048 -0.216,0.30996 -0.48,0.30996 -0.264,0 -0.48,-0.0566 -0.48,-0.12576 z m 1.28,-0.15863 c 0,-0.19875 0.539158,-0.35561 1.222291,-0.35561 1.350611,0 2.09936,-0.64588 3.227965,-2.78449 0.857574,-1.62503 0.846032,-1.10357 -0.01616,0.73069 -0.377254,0.80256 -0.989254,1.65434 -1.36,1.89283 C 78.605232,133.8894 76.48,134.24654 76.48,133.79561 Z m -5.379158,-2.1903 -1.915012,-1.88551 -0.420735,-2.48404 c -0.229153,-1.35294 -0.169054,-3.38791 0.422676,-3.756 0.182011,-0.11322 0.430406,0.40096 0.958406,0.34341 0.896474,-0.0977 1.06016,0.079 1.149642,-1.3013 0.08723,-1.34551 -0.140685,-1.55399 1.180491,-2.16569 0.662362,-0.30667 1.433642,-0.80038 1.738541,-1.04637 0.650531,-0.52484 3.346766,-0.69724 3.346766,-0.23805 0,0.17322 0.05676,0.16148 0.207229,0.0685 0.150461,-0.093 0.853076,0.72085 1.520823,1.72745 0.667748,1.00661 1.392192,2.24247 1.71798,2.71934 0.325789,0.47688 0.905071,1.05083 0.905071,1.31367 0,0.26285 0.129422,0.86187 0.325829,1.29293 0.246518,0.54105 -0.02302,1.06595 -0.242973,1.69505 -0.294247,0.8416 -0.336877,0.7591 -0.557274,-1.07845 -0.222457,-1.85469 -0.281661,-1.96674 -0.872176,-1.65071 -0.655587,0.35086 -3.037664,0.0853 -2.656243,-0.29608 0.214678,-0.21469 0.352925,-0.24252 1.662438,-0.33471 0.968397,-0.0682 0.624058,-1.18352 -0.997152,-3.22986 -1.420384,-1.79285 -2.732243,-2.33032 -3.653312,-1.49676 -0.706812,0.63965 -0.527859,2.60646 0.319949,3.51648 0.880519,0.94512 0.845962,4.29477 -0.05428,5.26106 -0.358855,0.38519 -0.768538,0.70034 -0.910403,0.70034 -0.385892,0 -1.417562,-1.22271 -1.846964,-2.18898 -0.277881,-0.62531 -0.385078,-0.69748 -0.404176,-0.27213 -0.0143,0.31838 -0.16999,0.48988 -0.34599,0.38111 -0.190438,-0.1177 -0.32,0.26334 -0.32,0.94111 0,0.62639 -0.127651,1.13889 -0.283667,1.13889 -0.335267,0 -0.72472,-2.43983 -0.53633,-3.36 0.07207,-0.352 0.142048,-0.69363 0.155514,-0.75918 0.01347,-0.0656 0.243961,0.063 0.512217,0.2856 0.597434,0.49583 0.651284,0.4376 0.893773,-0.96642 0.189165,-1.09527 0.182253,-1.1041 -0.313065,-0.4 -0.360663,0.51269 -0.828496,0.72 -1.624778,0.72 -1.058374,0 -1.106835,0.0471 -0.904707,0.88 0.117462,0.484 0.295718,1.63164 0.396125,2.5503 0.16511,1.51064 0.348803,1.82752 1.92184,3.31523 0.956601,0.90472 1.671699,1.71251 1.589104,1.79511 -0.0826,0.0826 -1.01193,-0.6983 -2.065184,-1.73533 z m 3.784782,-3.75478 c 0.631133,-0.96323 0.45479,-2.91833 -0.430394,-4.00118 -0.844285,-1.03281 -1.096276,-0.45476 -1.251921,1.87914 -0.09652,1.44734 -0.081,1.88018 0.312294,2.27344 0.703114,0.70311 0.764178,0.77323 1.370021,-0.1514 z m -1.71309,-5.47204 c 0.250429,-0.65261 -0.346614,-1.23831 -1.004825,-0.98573 -0.409075,0.15698 -0.444173,0.33066 -0.17025,0.84249 0.412986,0.77167 0.910643,0.83234 1.175075,0.14324 z M 108.32,130.32441 c -0.89546,-0.22575 -1.61833,-0.7746 -2.45804,-1.8663 -0.63868,-0.83035 -0.57065,-0.80409 0.59227,0.22857 1.37608,1.22194 2.84537,1.74257 3.93858,1.3956 0.37366,-0.11859 0.64719,-0.061 0.64719,0.13616 0,0.34448 -1.53648,0.40434 -2.72,0.10597 z m 4.48361,-1.48501 c 0.3025,-0.46167 0.6105,-0.8394 0.68445,-0.8394 0.23148,0 -0.51357,1.23327 -0.88297,1.46158 -0.19331,0.11947 -0.10398,-0.16051 0.19852,-0.62218 z M 104.08,126.14228 c -0.572,-0.63826 -1.30301,-1.49411 -1.3187,-1.94011 -0.12669,-3.60281 0.40962,-4.37988 1.72649,-3.87921 0.62576,0.23791 0.79512,0.172 0.96945,-0.37729 0.11619,-0.36607 0.0878,-0.75559 -0.063,-0.86562 -0.15083,-0.11003 -0.2929,-0.44401 -0.31571,-0.74218 -0.0482,-0.63068 1.33841,-1.31738 2.91164,-1.31738 1.43407,0 4.48462,0.77488 4.48462,1.11876 0,0.15421 0.30777,0.45226 0.75845,0.83992 0.45068,0.38766 0.8033,1.29311 0.89828,1.82101 0.37806,2.10128 0.45511,4.84231 0.1574,5.59982 -0.27858,0.70884 -0.3061,0.65414 -0.24152,-0.48 0.0827,-1.45129 -0.36333,-3.56756 -0.92696,-4.39871 -0.34676,-0.51133 -0.41135,-0.48747 -0.76164,0.28135 -0.21052,0.46204 -0.43614,0.78546 -0.50138,0.71871 -0.0652,-0.0667 -0.3321,-0.9414 -0.59302,-1.94368 -0.46538,-1.78762 -0.46137,-1.82488 0.21059,-1.95642 0.39651,-0.0776 0.19404,-0.15245 -0.48075,-0.17767 -0.77164,-0.0288 -1.22804,0.1187 -1.34996,0.43642 -0.11399,0.29706 -0.60086,0.48 -1.27744,0.48 -0.84043,0 -1.22568,0.20349 -1.66599,0.88 -0.31502,0.484 -0.79958,1.07176 -1.07681,1.30612 -0.4564,0.38585 -0.45454,0.4108 0.0198,0.26394 0.40039,-0.12397 0.48833,0.002 0.37329,0.53388 -0.31114,1.4391 -0.83096,2.14939 -1.43316,1.95826 -0.43944,-0.13947 -0.58391,-0.0181 -0.58391,0.49074 0,0.59933 0.12711,0.65221 1.12,0.46595 0.89155,-0.16726 1.12,-0.10819 1.12,0.2896 0,0.27484 -0.19489,0.61486 -0.43308,0.75561 -0.23819,0.14074 -0.49019,0.42302 -0.56,0.62727 -0.07,0.20471 -0.59368,-0.14944 -1.16692,-0.78909 z m 0.2319,-3.1029 c 0.19706,0.5427 0.2544,0.48785 0.37924,-0.36275 0.11391,-0.77612 0.0345,-0.98603 -0.35203,-0.93075 -0.32877,0.047 -0.516,0.44383 -0.5486,1.16274 -0.0361,0.79596 -0.004,0.87483 0.11987,0.29138 0.15674,-0.74036 0.18668,-0.75233 0.40152,-0.16062 z M 107.2,118.24 c 0,-0.264 -0.1286,-0.48 -0.28576,-0.48 -0.15717,0 -0.36865,0.216 -0.46996,0.48 -0.1122,0.29239 -6.4e-4,0.48 0.28576,0.48 0.25848,0 0.46996,-0.216 0.46996,-0.48 z m 0.49591,5.88055 c -0.68829,-0.81798 -0.82418,-1.26827 -0.74845,-2.48 0.0918,-1.46807 0.10292,-1.4814 1.32393,-1.58174 1.89328,-0.15557 2.54772,0.60712 2.27342,2.64946 -0.35781,2.66406 -1.37239,3.16701 -2.8489,1.41228 z m 2.21953,0.0468 c 0.31295,-0.50636 -0.43807,-2.80456 -0.98508,-3.01448 -1.41366,-0.54247 -1.8976,0.6276 -1.03899,2.51204 0.37703,0.82751 1.63082,1.13874 2.02407,0.50244 z m 2.39082,0.11648 c -0.2505,-0.65886 -0.21922,-1.10862 0.12676,-1.82301 l 0.45931,-0.94836 0.11383,1.6744 c 0.12842,1.88886 -0.20196,2.40666 -0.6999,1.09697 z m -35.761799,0.11446 c -0.298269,-0.35986 -0.314839,-0.56358 -0.05871,-0.72188 0.473735,-0.29278 0.715888,-0.015 0.582538,0.66835 -0.09756,0.49991 -0.149446,0.50522 -0.523827,0.0535 z m 0.763827,-1.15255 c -0.278083,-0.44995 0.14967,-1.37312 0.571139,-1.23263 0.473674,0.15789 0.465831,1.25844 -0.01011,1.41708 -0.203872,0.068 -0.456339,-0.015 -0.561037,-0.18445 z m -1.656477,-2.08383 C 75.411632,120.53604 75.73887,120 76.361142,120 c 0.314164,0 0.447575,0.24326 0.381114,0.69493 -0.124166,0.84385 -0.829859,1.14607 -1.090445,0.46701 z"
         id="eye1" />
      <path
         style="display:inline;fill:#1b0f03;stroke-width:0.32"
         d="m 47.190633,157.31577 c -0.174829,-0.572 -0.36264,-1.616 -0.498438,-2.32 -0.135802,-0.704 -0.416575,-1.54588 -0.488805,-1.89788 -0.580589,-2.8293 0.376324,-11.75537 2.26267,-19.76346 0.648291,-2.7522 0.512965,-11.59973 -0.288331,-15.73443 -0.463564,-2.39201 -0.547275,-4.19796 -0.417393,-10.04509 0.161862,-7.28706 0.466624,-11.967459 1.609072,-16 1.346406,-4.75247 2.245088,-6.826041 3.271415,-8.419065 1.07478,-1.927702 2.42377,-3.385191 3.240048,-5.337246 0.797779,-1.38624 4.346467,-5.857626 4.783875,-6.043572 1.533113,-1.306693 2.71527,-2.645454 4.342039,-3.923389 0.156966,0 0.580681,-0.535601 1.190031,-1.056449 1.015626,-1.086411 2.470269,-0.558999 2.101528,-1.773972 0.438224,-0.406132 2.077639,-0.815605 3.012484,-1.273051 5.199849,-2.544439 8.999494,-3.31904 13.454982,-1.791427 1.438797,0.493309 3.194487,1.498221 3.423761,1.77448 1.916105,1.376803 3.686383,2.07608 5.786904,3.296106 0.211795,0.175776 1.529405,-0.04971 2.326594,0.735453 l 1.628781,1.604217 -2.204042,0.204845 c -1.212224,0.112662 -2.828712,0.648602 -3.687745,0.904307 -0.859034,0.255709 -2.055026,0.317415 -2.562201,0.423789 -0.507174,0.106374 -1.515174,0.778528 -2.24,1.493674 -0.724825,0.715148 -1.905996,1.785436 -2.624828,2.378419 -0.718829,0.592982 -1.579575,1.584361 -1.912768,2.203062 C 82.367072,77.573789 81.908122,78.08 81.680371,78.08 c -0.22775,0 -0.58527,0.396 -0.794489,0.88 -0.20922,0.484 -0.630829,1.214134 -0.936909,1.622522 -0.306083,0.408387 -0.656317,1.416387 -0.778298,2.24 -0.154054,1.040166 -0.512557,1.790652 -1.17392,2.457478 -0.523673,0.528 -1.351206,1.837837 -1.838963,2.910749 -0.487757,1.072909 -1.406797,2.631939 -2.04231,3.464509 C 73.479968,92.487827 72.96,93.327952 72.96,93.522202 c 0,0.194249 -0.566861,1.227219 -1.259693,2.295488 -1.42959,2.204275 -3.082275,6.17481 -4.138358,9.94231 -0.394682,1.408 -0.998042,3.496 -1.340797,4.64 -0.342758,1.144 -0.655421,2.584 -0.69481,3.2 -0.04474,0.69964 -0.584825,1.88656 -1.438979,3.16237 -0.752051,1.12331 -1.367363,2.16731 -1.367363,2.32 0,0.1527 0.396,0.29724 0.88,0.32121 0.824381,0.0408 0.831395,0.0527 0.11096,0.18868 -0.42297,0.0798 -1.61097,-0.18931 -2.64,-0.59804 L 59.2,118.25108 v -2.07192 c 0,-4.42059 0.267207,-10.1562 1.627847,-13.54934 1.407303,-3.50951 5.115264,-9.539602 5.670996,-9.892422 0.192844,-0.122428 0.213295,-0.164674 0.08868,-0.323637 -0.251993,-0.321453 -1.786142,1.904271 -3.95099,6.353148 -1.198998,2.464001 -2.214837,5.208721 -2.505864,6.080271 -0.714131,2.13863 -1.942642,8.75185 -1.825634,11.65469 0.10281,2.55063 0.37097,2.31451 2.809971,3.16929 0.833095,0.29198 1.169441,1.0376 0.683269,1.3931 -0.503146,0.36791 -1.116564,0.58442 -1.860353,5.49574 -0.106618,0.704 0.147397,1.60218 0.02937,1.69018 -0.463693,0.34572 -2.367173,4.29549 -2.365314,5.27319 0.0019,0.99745 0.806932,2.28782 1.541994,3.1592 0.192688,0.22843 0.494867,0.94143 1.022861,1.55743 0.527996,0.616 2.176719,1.46329 2.287843,1.88286 0.342006,1.29135 -0.968469,6.87152 -1.49966,7.68222 -0.266985,0.40747 -0.397513,1.20826 -0.398172,1.69845 -0.0016,1.30695 0.08561,2.20167 -1.32113,2.91934 -0.678166,0.34597 -2.336483,1.35978 -3.685152,2.2529 -1.348666,0.89313 -4.156741,2.30113 -4.410146,2.30113 -0.253404,0 -0.420284,0.15223 -0.478952,0.28423 -0.138471,0.31156 -2.182932,1.27155 -2.606014,1.27155 -0.373576,-0.33921 -0.703343,-0.83273 -0.864817,-1.21691 z m 90.033787,-0.40182 c -0.84936,-0.70187 -1.57726,-1.54195 -1.73224,-1.54195 -0.15497,0 -1.04554,-0.64182 -2.01727,-1.52182 -0.97173,-0.88 -2.84743,-1.72509 -3.02157,-1.72509 -0.17413,0 -0.25406,-0.18115 -0.25406,-0.40255 0,-0.2214 0.64114,-1.20311 0.20164,-2.0287 -1.02738,-1.92993 -2.65294,-9.63006 -2.09793,-12.21801 0.32924,-1.53518 3.04877,-3.82528 3.64825,-3.82528 0.14856,0 0.88237,-1.14514 1.59246,-2.56386 1.13889,-2.27543 0.89255,-2.53744 0.71851,-3.86109 -0.38466,-2.92549 -2.16661,-6.31594 -4.11349,-7.06914 -0.63468,-0.24554 -0.55031,-0.62255 -0.37146,-1.57591 0.20401,-1.08747 -1.3067,-4.93481 -2.0394,-5.86055 -0.22948,-0.28995 -0.33937,-0.65298 0.095,-0.66036 0.93697,-0.0159 2.17264,-0.57799 2.17264,-1.47885 0,-0.45196 -0.57645,-2.58451 -1.26189,-4.81545 -0.9352,-3.04384 -1.62587,-4.44823 -2.72017,-6.049793 -0.80206,-1.173843 -1.82925,-3.054017 -2.28265,-4.044382 -0.88175,-1.926 -0.99413,-2.431014 -1.51403,-2.109695 -0.36934,0.228265 1.76659,4.37598 3.33091,6.59853 1.5102,2.14566 1.88268,3.01039 3.02069,7.01258 0.99525,3.50017 0.99856,3.82678 0.43842,4.23636 -0.32149,0.23508 -0.91337,0.42742 -1.1624,0.42742 -0.24904,0 -0.85309,0.53471 -1.53346,1.07357 -1.41309,1.11919 -3.06838,1.52023 -4.91004,1.51194 -1.09282,-0.005 -1.83899,0.43856 -2.70689,-0.60709 -0.56002,-0.67473 -1.53791,-2.70158 -2.09664,-3.73969 -0.55873,-1.0381 -0.63279,-2.22013 -0.77611,-2.39739 -0.14333,-0.17727 -0.83843,-2.48127 -1.54466,-5.12 -1.34031,-5.007902 -2.76274,-8.819473 -3.8734,-10.379249 -0.35923,-0.504486 -0.65314,-0.985494 -0.65314,-1.068905 0,-0.08341 -0.62589,-1.285184 -1.39087,-2.670602 C 107.6042,87.053523 106.79492,85.344 106.57079,84.64 c -0.22414,-0.704 -1.82369,-3.538985 -3.21058,-6.41463 -1.38689,-2.875648 -2.39653,-5.344163 -2.39653,-5.428259 0,-0.0841 -0.21719,-0.689559 -0.67375,-1.288141 -1.057752,-1.386788 -1.412059,-3.026733 -0.15025,-2.358259 0.528,0.279718 2.60291,1.567725 3.92291,2.097798 1.32,0.530074 3.23248,1.08577 4.32641,1.69355 2.16076,1.200492 6.44249,3.525455 7.85104,3.533138 0.62728,0.0034 0.87948,-0.156019 0.87817,-0.555197 -0.001,-0.43433 -0.55795,-0.691376 -2.48,-1.14543 -1.36303,-0.321988 -3.98076,-1.09569 -5.74076,-1.948676 -4.18013,-2.025897 -8.932565,-3.94652 -10.647102,-4.496792 C 97.498437,68.087777 96.238034,67.371319 95.850783,67.100077 95.160482,66.61657 95.560035,66.56 96.683062,66.56 c 1.535415,0 7.631708,-2.517945 11.199118,-4.09358 1.584,-0.69961 4.48765,-1.837651 6.22321,-2.528976 1.73556,-0.691328 3.82356,-1.630154 4.64,-2.086282 4.15318,-2.320313 8.48729,-2.089265 11.95102,0.255678 2.21634,0.996374 3.19734,2.875525 4.62789,4.472439 0.91046,1.3612 1.5239,2.781341 2.26843,3.74736 0,0.197849 0.92847,1.41094 1.52817,2.753091 1.39616,3.124678 1.75574,6.102909 2.17956,11.867542 0.18711,2.544999 0.30402,5.208999 0.54656,5.92 0.95605,2.803136 1.75744,4.6721 2.79811,6.313163 3.21262,5.066105 4.53188,9.017665 4.49114,13.122115 -0.0284,2.86692 -0.68658,5.55616 -2.55142,10.62255 -0.22674,0.61599 -0.65638,2.18436 -1.05031,3.50435 -0.39393,1.32 -1.43072,3.80873 -2.1893,5.56873 -1.96209,4.55226 -2.42254,6.82018 -2.18972,9.64937 0.10503,1.27635 0.40143,2.78217 0.67776,3.44182 1.16501,2.78107 1.46055,7.13512 -0.15431,12.59063 -0.44283,1.496 -1.07199,3.53371 -1.24524,4.22246 -0.56141,2.74726 -1.94706,2.03244 -3.20932,1.01149 z m -74.036042,-9.23219 c -0.122407,-1.14304 -1.434667,-2.88936 -1.310847,-3.88072 l 1.038292,-2.80319 3.212607,3.22134 c 1.234618,1.23798 2.274433,2.28812 2.274433,2.52349 0,0.23537 -0.571663,1.05446 -0.879663,1.32523 -0.649373,0.57088 -3.97888,2.255 -4.430477,2.255 -0.169001,0 -0.0031,-1.52023 -0.12552,-2.66326 z m 61.916402,-0.17805 c -0.5016,-0.53696 -1.21167,-1.19914 -1.32951,-1.58618 -0.11783,-0.38704 -0.57304,-0.90361 -0.82046,-1.18616 -0.24743,-0.28255 -0.006,-0.85754 0.0963,-1.12488 0.25631,-0.66795 4.98579,-6.14317 5.22242,-5.90655 0.10495,0.10495 -0.684,3.10404 -0.91216,4.29489 -0.22823,1.19084 -0.47772,3.13717 -0.55442,4.32517 -0.0767,1.188 1.99704,4.64617 1.8181,4.64617 -0.17895,0 -3.01865,-2.9255 -3.52025,-3.46246 z M 61.334362,124.64 c 0.242492,-1.58181 0.427238,-1.85112 0.420739,-0.61333 -0.0026,0.51333 -0.142615,1.14933 -0.310931,1.41333 -0.208407,0.32688 -0.243434,0.0717 -0.109808,-0.8 z m 5.377324,-6.16092 c 0.95313,-1.84405 1.123738,-2.1 1.119226,-1.67908 -0.0029,0.264 -0.302438,0.84 -0.665795,1.28 -0.36336,0.44 -0.567402,0.61958 -0.453431,0.39908 z M 89.28,117.55549 c -1.557968,-0.55952 -3.115785,-1.43727 -5.148709,-3.27371 l -1.124712,-1.21829 0.237181,-1.3678 c 0.477726,-2.755 4.070445,-12.95928 3.480522,-13.570045 -0.433984,-0.449315 -0.375293,0.933988 -0.723123,3.431215 -0.577776,4.14811 -2.555445,9.52254 -3.75459,11.1351 -1.052448,1.41529 -3.492505,2.74313 -5.16991,3.13276 -1.270864,0.2952 -1.662181,0.4199 -3.55484,-0.51111 -1.144,-0.56274 -2.731639,-1.41226 -3.413418,-1.83049 l -1.223964,-0.90115 0.18596,-2.17739 c 0.319907,-3.74579 1.124226,-7.92721 2.239177,-10.29594 C 71.903708,98.846389 72.64,97.827117 72.64,97.652474 c 0,-0.17464 0.48345,-0.815351 1.074333,-1.423799 0.590883,-0.608448 0.931855,-1.661535 1.120824,-2.168198 0.976544,-2.618269 3.184174,-7.063909 3.703179,-7.625567 0.683984,-0.740195 1.195847,-2.053093 1.195847,-2.961701 0,-0.55553 1.063176,-2.393063 3.798123,-6.512554 0.444314,-0.669242 1.441927,-1.720269 2.159585,-2.278282 0.71766,-0.558016 1.478157,-1.143715 1.613546,-1.358889 0.961095,-1.527466 6.228301,-3.220463 8.254147,-2.551875 0.879885,0.290391 0.979824,0.359428 1.380567,-0.04132 0.455609,-0.455606 1.885666,-0.321099 1.885666,0.160791 0,0.116634 0.552668,1.167047 1.342823,2.219581 0.79015,1.052538 1.46942,2.056222 1.47127,2.211297 0.002,0.155075 0.55489,1.579439 1.24808,3.184364 1.34653,3.117591 2.78292,6.973837 2.78292,8.118384 0,0.384035 0.19701,1.345895 0.57159,2.080131 1.31155,2.570832 3.41062,5.715406 3.25491,6.310856 -0.0864,0.330444 -0.40369,1.350042 -0.0324,2.189329 0.89088,2.013974 2.68416,8.223208 3.13114,11.434988 0.43761,3.14445 -0.64983,4.42834 -2.24998,5.09692 -1.39811,0.58417 -4.20609,0.42812 -4.97652,-0.15571 -0.48135,-0.36482 -0.62979,-0.83078 -0.32899,-1.39284 0.29859,-0.55791 -0.63234,-1.60452 -1.9412,-6.8804 -0.88183,-3.55456 -0.9029,-7.625932 -1.1935,-8.894633 -0.49675,-2.168733 -1.10469,-2.840831 -1.02817,-2.164247 0.13345,1.179995 -0.15843,0.430707 0.13653,1.615059 0.29502,1.184355 1.1422,4.879911 1.95908,8.135911 2.13214,8.49851 1.78683,7.57246 -0.71052,10.36281 -1.16916,1.30633 -2.476154,3.06763 -3.12064,3.37346 -1.694403,0.80405 -7.898386,0.52451 -9.8622,-0.18077 z"
         id="hair1" />
      <path
         style="display:inline;fill:#e445d7;stroke-width:0.32"
         d="m 129.65887,151.4514 c -0.90261,-0.17227 -2.56738,-1.85482 -2.81623,-2.84632 -0.36313,-1.44682 0.60348,-9.00642 1.32425,-10.35665 0.81373,-1.52438 1.20154,-1.19178 0.9712,0.83294 -0.35185,3.09275 0.34009,8.87911 1.27085,10.62754 1.1095,2.08419 1.10425,2.09639 -0.75007,1.74249 z m -69.603993,-1.59837 c 0.113411,-0.84316 0.408896,-1.84616 0.656633,-2.22886 0.280938,-0.434 0.520784,-2.02947 0.637399,-4.24 0.135277,-2.56428 0.255773,-3.59405 0.551367,-3.5884 1.157033,0.0221 1.299746,1.76182 1.297586,5.96094 l -0.0022,4.15672 -0.803068,0.76226 c -0.422626,0.40115 -1.007749,0.58269 -1.095749,0.68752 -0.088,0.10483 -0.586952,-0.12134 -0.892568,-0.0702 -0.486131,0.0814 -0.529863,-0.0988 -0.349459,-1.44 z M 74.18,133.2214 c 0.230998,-0.0924 0.506998,-0.0811 0.613334,0.0252 0.106333,0.10634 -0.08267,0.18197 -0.42,0.16807 -0.372784,-0.0154 -0.448608,-0.0912 -0.193334,-0.19333 z m -14.361343,-6.36613 c 0.103408,-0.66 0.455465,-2.49607 0.629455,-3.6215 0.291824,-1.8876 1.072699,-3.36445 1.339924,-2.89967 0.846022,1.47147 -0.01,5.2395 -0.740473,6.68845 -0.56608,1.12285 -1.438704,1.17174 -1.228906,-0.16728 z M 63.92,119.88471 c -0.66,-0.069 -1.418908,-0.28867 -1.418908,-0.43074 0,-0.14207 0.83422,-1.56829 1.586271,-2.6916 0.854154,-1.27581 1.394243,-2.46273 1.438979,-3.16237 0.03939,-0.616 0.352052,-2.056 0.69481,-3.2 0.342755,-1.144 0.946115,-3.232 1.340797,-4.64 1.056083,-3.7675 2.708768,-7.738035 4.138358,-9.94231 C 72.393139,94.749421 72.96,93.716451 72.96,93.522202 c 0,-0.19425 0.519968,-1.034375 1.155482,-1.866944 0.635513,-0.83257 1.554553,-2.3916 2.04231,-3.464509 0.487757,-1.072912 1.31529,-2.382749 1.838963,-2.910749 0.661363,-0.666826 1.019866,-1.417312 1.17392,-2.457478 0.121981,-0.823613 0.472215,-1.831613 0.778298,-2.24 0.30608,-0.408388 0.727689,-1.138522 0.936909,-1.622522 0.209219,-0.484 0.566739,-0.88 0.794489,-0.88 0.227751,0 0.686701,-0.506211 1.019895,-1.124909 0.333193,-0.618701 1.193939,-1.61008 1.912768,-2.203062 0.718832,-0.592983 1.900003,-1.663271 2.624828,-2.378419 0.724826,-0.715146 1.732826,-1.38817 2.24,-1.49561 C 89.985037,70.770557 91.12,70.477552 92,70.22687 c 1.816365,-0.517414 5.595924,-1.566666 6.67491,-1.409885 0.400054,0.05813 0.84509,0.893063 0.84509,1.175066 0,0.279146 0.36,0.979523 0.8,1.556394 0.44,0.57687 0.8,1.117661 0.8,1.201757 0,0.0841 1.13473,2.505702 2.52162,5.38135 1.38689,2.875645 2.70499,5.804448 2.92913,6.508448 0.22413,0.704 1.03341,2.413523 1.79838,3.798944 0.76498,1.385418 1.39087,2.587187 1.39087,2.670602 0,0.08341 0.29391,0.564419 0.65314,1.068905 1.10612,1.553399 2.53125,5.36448 3.85396,10.306259 0.78645,2.93823 1.62538,5.31104 2.21876,6.27539 0.52477,0.85288 0.95414,1.6814 0.95414,1.84116 0,0.15976 0.57977,0.99207 1.28836,1.84957 0.70861,0.85751 1.22836,1.61911 1.15502,1.69246 -0.31584,0.31584 -3.20853,0.37393 -3.2085,0.0486 1e-5,-0.19183 -0.45088,-0.67961 -1.15488,-0.91195 -0.704,-0.23234 -1.28,-0.53778 -1.28,-0.67875 0,-0.14098 -0.26917,-0.51393 -0.59815,-0.82878 -0.37402,-0.35796 -0.79315,-1.59166 -1.11856,-3.29247 -0.69608,-3.6382 -2.45391,-9.781285 -3.20418,-11.601819 -1.4134,-3.42968 -2.04094,-5.225071 -2.96053,-7.231394 -0.59322,-1.294269 -1.07858,-2.646742 -1.07858,-3.005501 0,-1.102713 -1.25456,-5.051379 -2.57965,-8.119331 -0.69319,-1.604925 -1.26186,-3.044925 -1.26371,-3.2 -0.002,-0.155075 -0.64985,-1.143123 -1.440003,-2.195661 C 99.206486,72.07376 98.56,71.117165 98.56,71.000531 c 0,-0.481885 -0.976605,-0.538211 -1.432214,-0.08261 -0.400743,0.400746 -0.688317,0.425527 -1.568202,0.135136 -2.025846,-0.668588 -7.152326,0.805501 -8.113421,2.332967 -0.135389,0.215174 -0.833341,0.847782 -1.551001,1.405798 C 85.177504,75.34984 84.2268,76.353958 83.782486,77.0232 81.047539,81.142691 80,82.933315 80,83.488845 c 0,0.908608 -0.590045,2.33096 -1.274029,3.071155 -0.519005,0.561658 -2.617181,5.022934 -3.593725,7.641203 -0.188969,0.506663 -0.82703,1.419024 -1.417913,2.027472 C 73.12345,96.837123 72.64,97.547078 72.64,97.806358 c 0,0.259277 0.310133,0.580135 0.154075,0.483687 -0.830288,-0.513146 -2.270607,2.300065 -3.081557,6.635665 -0.386931,2.06866 -0.93474,4.24956 -1.102679,4.86556 -0.167942,0.616 -0.142279,2.87114 -0.191419,4.28519 -0.111219,3.20053 -1.504834,5.82221 -2.978419,5.54485 -0.174971,-0.0329 -0.86,0.33244 -1.52,0.2634 z m 65.14895,-0.55834 c -0.89103,-0.96213 -1.20335,-2.49689 -1.47808,-4.8822 -0.30824,-2.67624 0.4632,-2.6329 1.65191,0.82773 0.65065,1.89422 0.84855,3.40024 0.61507,4.21435 -0.24132,0.84141 -0.47053,0.18389 -0.7889,-0.15988 z"
         id="hair_lines" />
      <path
         style="display:inline;fill:#413b36;stroke-width:0.32"
         d="m 93.28,160.17188 c -0.704,-0.26523 -1.650349,-0.48441 -2.102995,-0.48706 C 90.318995,159.6798 87.4352,158.80813 86.88,158.38599 86.338224,157.97406 80.845216,155.2 80.571309,155.2 c -0.141831,0 -0.948531,-0.48545 -1.792669,-1.07878 -0.844138,-0.59333 -1.875699,-1.18698 -2.292362,-1.31923 -0.416659,-0.13224 -1.416524,-0.83974 -2.221923,-1.57222 -0.805395,-0.73248 -2.095766,-1.75586 -2.867491,-2.27419 -0.771725,-0.51832 -1.562365,-1.19737 -1.756976,-1.50899 -0.452013,-0.72379 -1.119251,-0.72695 -1.392026,-0.007 -0.343465,0.90705 -0.62534,1.07883 -6.567862,4.0026 -3.124,1.53703 -5.68,2.92881 -5.68,3.09285 0,0.16404 -0.576,0.55238 -1.28,0.86299 -0.704,0.3106 -1.28,0.68102 -1.28,0.82315 0,0.14213 -0.216,0.25841 -0.48,0.25841 -0.264,0 -0.48,0.144 -0.48,0.32 0,0.176 -0.288,0.32 -0.64,0.32 -0.352,0 -0.64,0.144 -0.64,0.32 0,0.176 -0.204,0.32 -0.453334,0.32 -0.249332,0 -0.502464,0.1474 -0.562516,0.32755 -0.06005,0.18015 -0.647827,0.41495 -1.306172,0.52179 -1.174538,0.1906 -1.209322,0.16637 -1.854093,-1.29123 -0.361402,-0.81702 -0.575274,-1.61787 -0.475271,-1.77968 0.100004,-0.16181 0.04516,-0.37866 -0.121865,-0.4819 -0.167031,-0.10322 -0.469987,-0.98873 -0.673242,-1.96779 -0.416243,-2.00504 0.0041,-8.69798 0.838051,-13.34421 0.259095,-1.44349 0.596461,-3.3724 0.749706,-4.28646 0.153245,-0.91406 0.353139,-1.78248 0.444205,-1.92984 0.09107,-0.14735 0.258345,-1.96071 0.371728,-4.02969 0.209766,-3.82777 -0.272819,-9.61718 -0.863731,-10.36188 -0.307351,-0.38733 -0.502762,-12.28996 -0.308925,-18.81666 0.08907,-2.999171 0.194448,-3.591017 0.712166,-3.999996 0.445293,-0.351764 0.643847,-1.008938 0.743207,-2.459856 0.07459,-1.089316 0.36599,-2.30882 0.647833,-2.711204 0.281738,-0.40224 0.515415,-1.167302 0.51928,-1.700144 0.0039,-0.532838 0.26792,-1.544796 0.586784,-2.248796 0.318867,-0.704 0.677511,-1.672269 0.796989,-2.151706 0.119475,-0.479437 0.575424,-1.399533 1.013216,-2.044656 C 52.441808,82.358512 52.8,81.63337 52.8,81.392208 c 0,-0.241165 0.288,-0.685072 0.64,-0.986464 0.352,-0.301392 0.64,-0.747261 0.64,-0.990819 0,-0.243559 0.432,-0.988279 0.96,-1.654931 0.528,-0.666653 0.96,-1.375895 0.96,-1.576093 0,-0.200195 0.216,-0.44688 0.48,-0.548186 0.264,-0.101309 0.48,-0.373315 0.48,-0.604464 0,-0.58967 6.281536,-7.069168 7.661811,-7.90327 0.626003,-0.378295 1.930189,-1.301645 2.898189,-2.051888 2.371427,-1.837959 7.019187,-3.943847 9.763949,-4.424016 3.784947,-0.662138 9.697225,0.552928 11.838515,2.433005 0.576378,0.506067 1.702819,1.209798 2.503203,1.563846 0.800384,0.354048 2.364039,1.160246 3.474787,1.791555 1.110752,0.631309 2.595546,1.335831 3.299546,1.565607 1.65902,0.541484 6.51092,2.669776 10.56,4.632163 1.76,0.852985 4.31518,1.814323 5.67817,2.13631 1.92205,0.454055 2.47859,0.711101 2.48,1.145431 10e-4,0.399177 -0.25089,0.55862 -0.87817,0.555196 -1.46449,-0.008 -5.67778,-1.461654 -8.15031,-2.812012 C 106.80836,72.963389 105.4,72.28545 104.96,72.15665 c -0.44,-0.1288 -1.952,-0.778189 -3.36,-1.443085 -1.408,-0.664899 -3.136,-1.385309 -3.84,-1.600915 -0.704,-0.215607 -2.144,-0.910589 -3.2,-1.544407 -1.056,-0.633821 -2.856,-1.601337 -4,-2.150041 -1.144,-0.548704 -2.270803,-1.228042 -2.50401,-1.509642 -0.233203,-0.2816 -1.601203,-0.915613 -3.04,-1.408922 -4.455488,-1.527612 -8.395859,-1.112646 -13.595708,1.431792 -0.934845,0.457447 -2.058263,1.16401 -2.496487,1.570141 -0.438224,0.406135 -0.89735,0.744275 -1.020281,0.751427 -0.122932,0.0072 -0.722074,0.439152 -1.331428,0.96 -0.60935,0.520848 -1.236336,0.946996 -1.393302,0.946996 -0.156963,0 -1.111651,0.844416 -2.121523,1.87648 -1.009875,1.03206 -1.966887,1.93206 -2.126698,2 -0.437408,0.185945 -3.876643,4.563513 -4.674422,5.949753 -0.384189,0.667571 -1.030989,1.620816 -1.437331,2.11832 -0.406346,0.497501 -0.73881,1.078359 -0.73881,1.290791 0,0.212432 -0.478758,1.129347 -1.063907,2.03759 -1.026327,1.593024 -1.737373,3.494595 -3.083779,8.247066 -1.142448,4.03254 -1.681754,8.712946 -1.843616,15.999996 -0.129882,5.84714 -0.06181,7.52799 0.401756,9.92 0.801296,4.13471 0.999818,13.07068 0.351527,15.82288 -1.886346,8.00809 -2.953824,16.86782 -2.373235,19.69712 0.07223,0.352 0.242438,1.216 0.37824,1.92 0.402124,2.08468 0.860809,3.36 1.208457,3.36 0.423082,0 2.312752,-1.04843 2.451223,-1.36 0.05867,-0.132 0.314,-0.24 0.567404,-0.24 0.253405,0 1.564192,-0.73074 2.912858,-1.62386 1.348669,-0.89313 2.991821,-1.8992 3.651453,-2.23572 0.659629,-0.33652 1.388841,-0.86931 1.620473,-1.18397 0.231629,-0.31467 0.745146,-0.55226 1.141146,-0.52798 0.396,0.0243 0.72,-0.0525 0.72,-0.17058 0,-0.11809 0.612,-0.46882 1.36,-0.77939 3.36463,-1.397 3.891827,-1.65008 4.603658,-2.21001 0.415987,-0.32722 0.756342,-0.80687 0.756342,-1.06591 0,-0.25903 -1.098864,-1.58058 -2.44192,-2.93677 -1.343056,-1.35619 -2.440307,-2.53781 -2.438336,-2.62581 0.01574,-0.70273 -0.652624,-1.6 -1.191824,-1.6 -0.356355,0 -0.650221,-0.108 -0.65303,-0.24 -0.0029,-0.132 -0.433274,-0.744 -0.956583,-1.36 -0.523309,-0.616 -1.109123,-1.30689 -1.301811,-1.53531 -0.714925,-0.84752 -1.252771,-2.17276 -1.260035,-3.10469 -0.01078,-1.38271 1.649542,-5.57147 2.288813,-5.77436 0.935267,-0.29685 1.897232,-2.86619 1.91448,-5.11346 0.0183,-2.38368 -0.06214,-2.56959 -1.23673,-2.8584 -2.050986,-0.5043 -2.323251,-0.92918 -2.320467,-3.62115 0.0034,-3.25905 0.791872,-9.47591 1.452992,-11.45595 0.289542,-0.86717 1.507437,-3.59268 2.706435,-6.056676 2.164848,-4.448877 3.85536,-6.956055 4.357533,-6.462602 0.144073,0.141571 0.104169,0.357571 -0.08868,0.48 -0.555732,0.352819 -3.747696,6.633091 -5.154999,10.142598 C 60.155203,106.27314 59.2,111.75857 59.2,116.17916 v 2.07192 l 1.84,0.72171 c 1.30624,0.51235 2.326266,0.68975 3.516266,0.61153 0.921945,-0.0606 1.724579,-0.17187 1.783628,-0.24725 1.371936,-1.75153 1.535639,-2.28445 1.685981,-5.48864 0.08486,-1.80864 0.283021,-3.72043 0.440352,-4.24843 0.157331,-0.528 0.600589,-2.65254 0.985021,-4.7212 0.648333,-3.48875 1.288912,-5.346362 2.237978,-6.489917 0.850371,-1.024637 0.796428,-0.05764 -0.09738,1.745687 -1.052537,2.12357 -2.017913,6.24517 -2.34128,9.99594 l -0.21127,2.45051 1.240355,0.76089 c 0.682192,0.41849 2.176352,1.22132 3.320352,1.78406 1.892659,0.93101 2.205795,0.99395 3.476659,0.69875 1.677405,-0.38963 3.898554,-1.8582 4.951002,-3.27349 1.199145,-1.61256 2.832816,-6.90881 3.410592,-11.05692 0.34783,-2.497222 0.852045,-3.81798 1.286029,-3.368665 0.589923,0.610765 -1.8173,11.275865 -3.105252,13.757685 l -0.612451,1.18016 1.296711,1.17138 c 3.664115,3.30996 5.559507,4.00529 10.263584,3.76521 4.124464,-0.21051 4.998896,-0.62378 7.695963,-3.63728 2.49735,-2.79035 2.46739,-1.86429 0.33525,-10.3628 -0.81688,-3.256 -1.72661,-6.889014 -2.02163,-8.07337 -0.29501,-1.184352 -0.44089,-2.24887 -0.32416,-2.3656 0.48147,-0.481462 1.15687,0.683511 1.65362,2.852244 0.2906,1.2687 1.24985,5.214986 2.13168,8.769536 1.30886,5.27588 1.53615,6.58832 1.23756,7.14622 -0.3008,0.56205 -0.26181,0.7622 0.21954,1.12702 0.77043,0.58391 3.3595,0.5836 4.75761,-6.4e-4 1.60015,-0.66859 1.90578,-1.67102 1.46817,-4.81548 -0.44343,-3.18626 -2.06425,-9.533421 -2.91105,-11.399684 C 108.11232,95.703946 107.98371,94.72 108.48,94.72 c 0.176,0 0.32,0.158237 0.32,0.351638 0,0.193402 0.19851,0.805402 0.44113,1.36 0.88038,2.012404 2.49843,7.952062 3.28216,12.048362 0.32541,1.70081 0.74454,2.93451 1.11856,3.29247 0.32898,0.31485 0.59815,0.6878 0.59815,0.82878 0,0.14097 0.576,0.44641 1.28,0.67875 0.704,0.23234 1.27993,0.57939 1.27985,0.77122 -9e-5,0.2283 0.85655,0.32233 2.48,0.27219 4.08123,-0.12603 5.03694,-0.34906 6.59564,-1.53922 0.79536,-0.60731 1.64323,-1.10419 1.88415,-1.10419 0.24092,0 0.70107,-0.19234 1.02256,-0.42742 0.56014,-0.40958 0.54119,-0.57983 -0.45406,-4.08 -1.13801,-4.00219 -1.51049,-4.86692 -3.02069,-7.01258 -1.56432,-2.22255 -3.73152,-6.667354 -3.36218,-6.895619 0.5199,-0.321319 1.17955,0.433875 2.0613,2.359875 0.4534,0.990365 1.48059,2.761085 2.28265,3.934928 1.0943,1.601566 1.76933,3.146676 2.70453,6.190516 1.71769,5.59069 1.68101,5.9097 -0.77007,6.6975 -0.50715,0.16301 -0.54951,0.42572 -0.35295,2.18902 0.3759,3.37212 0.8172,4.49846 1.99489,5.09158 0.5764,0.29029 1.41242,0.79429 1.85784,1.12 1.07418,0.7855 2.85416,4.37404 3.10145,6.25271 0.17425,1.32383 0.0455,1.80426 -1.09357,4.08 -0.71009,1.41872 -1.41263,2.57949 -1.56119,2.57949 -0.31248,0 -2.57015,3.06145 -2.57015,3.48518 0,0.15604 -0.23496,0.26371 -0.52214,0.23926 -0.28718,-0.0244 -0.74668,0.38756 -1.02112,0.91556 -0.27443,0.528 -1.42059,1.752 -2.54701,2.72 -2.44576,2.10179 -2.84947,2.7231 -2.25248,3.46662 0.23555,0.29336 0.71502,1.09916 1.06551,1.79067 0.35048,0.69151 1.10524,1.53374 1.67724,1.87161 0.572,0.33787 1.04,0.72274 1.04,0.85525 0,0.45541 1.92591,2.25585 2.41306,2.25585 0.98921,0 2.85388,1.00889 4.29871,2.32584 0.81711,0.74479 1.90924,1.59922 2.42694,1.89873 0.51771,0.29951 1.4001,0.92288 1.96087,1.38527 l 1.01959,0.84069 0.37256,-1.38526 c 0.20491,-0.7619 0.50049,-1.71251 0.65684,-2.11247 0.15635,-0.39996 0.67554,-2.19996 1.15376,-4 1.08533,-4.08528 1.2288,-8.86461 0.3318,-11.05394 -0.31123,-0.75963 -0.65097,-2.41563 -0.75499,-3.68 -0.23079,-2.8052 0.31285,-5.11867 2.26974,-9.65886 0.75858,-1.76 1.70155,-4.28 2.09548,-5.6 0.39393,-1.32 0.90175,-2.904 1.12849,-3.52 1.86484,-5.06638 2.4917,-7.69309 2.52015,-10.56 0.0407,-4.10446 -1.30979,-8.009101 -4.52241,-13.075206 -1.04067,-1.641063 -1.87334,-3.494391 -2.82939,-6.297527 -0.2425,-0.711001 -0.59399,-3.375001 -0.7811,-5.92 -0.42382,-5.764633 -1.03358,-8.742864 -2.42974,-11.867542 -0.5997,-1.342151 -1.09036,-2.602151 -1.09036,-2.8 0,-0.19785 -0.10985,-0.359725 -0.24412,-0.359725 -0.24588,0 -0.67084,-0.697533 -1.41343,-2.32 -0.22152,-0.484 -0.50345,-0.88 -0.62651,-0.88 -0.12306,0 -0.55423,-0.534749 -0.95817,-1.18833 -0.87234,-1.411468 -1.79196,-2.375705 -2.3429,-2.456566 -0.21932,-0.03219 -0.81639,-0.341258 -1.32682,-0.686816 -3.46373,-2.344938 -7.2193,-2.357078 -11.37248,-0.03677 -0.81644,0.456128 -2.90444,1.394954 -4.64,2.086282 -1.73556,0.691325 -4.45157,1.829872 -6.03557,2.530105 -3.46472,1.531636 -10.468992,3.656067 -11.296687,3.667481 -0.150099,0.0021 -1.034992,0.204671 -1.438056,0.181784 -0.711979,-0.04043 -0.981418,-0.320298 -0.619061,-0.336784 0.4488,-0.02042 3.016787,-0.516919 3.387259,-0.620354 0.226916,-0.06336 2.310545,-0.897819 4.686545,-1.721864 2.376,-0.824045 5.28898,-1.984531 6.47329,-2.578861 1.1843,-0.594326 3.2723,-1.522182 4.64,-2.061901 1.36769,-0.539715 3.38252,-1.470397 4.47739,-2.068182 2.68468,-1.465786 5.51585,-2.175149 7.55953,-1.894071 1.66881,0.22952 5.89449,2.254029 7.20733,3.453005 1.23063,1.123907 4.4511,6.099802 5.64864,8.727623 1.78469,3.916246 2.09323,5.331929 2.29365,10.524214 0.10191,2.64 0.29385,4.944 0.42655,5.12 0.13269,0.176 0.34207,0.931245 0.46528,1.678323 0.12322,0.747079 0.3555,1.439578 0.51618,1.538887 0.16069,0.09931 0.29216,0.462016 0.29216,0.806019 0,0.344 0.13399,0.875501 0.29776,1.181113 0.16378,0.305613 0.62227,1.383658 1.01889,2.395658 0.39661,1.012 0.81468,1.84 0.92905,1.84 0.46462,0 2.52142,3.44249 2.72659,4.563536 0.12114,0.661942 0.34794,1.282442 0.50399,1.378883 0.15604,0.09645 0.28372,0.456423 0.28372,0.799955 0,0.34353 0.30127,1.265521 0.66948,2.048861 1.02411,2.17871 0.69076,7.63797 -0.72352,11.84877 -0.17734,0.528 -0.46127,1.53033 -0.63095,2.2274 -0.16969,0.69707 -0.43867,1.42422 -0.59773,1.61588 -0.15907,0.19166 -0.37721,0.98933 -0.48476,1.7726 -0.10755,0.78327 -0.89259,2.86412 -1.74453,4.62412 -3.25888,6.73238 -3.20799,6.5706 -3.20799,10.19934 0,3.08337 0.38546,5.24034 1.01127,5.65884 0.42857,0.2866 0.72848,5.02694 0.34755,5.49332 -0.1835,0.22468 -0.32276,1.1285 -0.30944,2.0085 0.0133,0.88 -0.19838,2.104 -0.47044,2.72 -0.27205,0.616 -0.75194,1.984 -1.06642,3.04 -0.31448,1.056 -0.79152,2.424 -1.06007,3.04 -0.26856,0.616 -0.45939,1.52306 -0.42409,2.01568 0.0623,0.8686 0.0277,0.88901 -1.14208,0.67503 -0.68486,-0.12526 -1.72538,-0.68533 -2.4072,-1.29567 -0.66051,-0.59127 -1.34936,-1.07504 -1.53079,-1.07504 -0.18142,0 -0.72101,-0.39754 -1.19907,-0.88343 -0.47807,-0.48588 -1.88157,-1.52988 -3.11889,-2.32 -4.80077,-3.06563 -7.83033,-5.66873 -7.83033,-6.7281 0,-0.8256 -1.21618,-1.48714 -1.47828,-0.80411 -0.10383,0.27058 -0.29689,0.42515 -0.42902,0.34349 -0.13213,-0.0817 -1.01704,0.57856 -1.96647,1.46716 -0.94942,0.8886 -2.22435,2.00024 -2.83317,2.47031 -0.60882,0.47008 -1.76082,1.4433 -2.56,2.16273 -0.79918,0.71942 -2.31706,1.93335 -3.37306,2.69762 -1.056,0.76428 -1.992,1.47247 -2.08,1.57378 -0.74593,0.85872 -3.0261,2.14118 -5.50476,3.09611 -3.553602,1.36906 -7.247461,1.73797 -9.37524,0.93632 z m 8,-1.49713 c 2.82913,-1.11811 5.04356,-2.30666 6.05436,-3.24956 0.5421,-0.50569 1.77764,-1.46983 2.74564,-2.14254 0.968,-0.67271 2.47459,-1.95651 3.34797,-2.85288 0.87338,-0.89637 1.7017,-1.62977 1.8407,-1.62977 0.139,0 0.72041,-0.47419 1.29203,-1.05375 0.57161,-0.57957 1.7593,-1.61625 2.6393,-2.30376 2.39589,-1.87179 8.91897,-8.32826 11.04917,-10.93633 2.48999,-3.0486 3.51353,-5.11142 3.50082,-7.05552 -0.0174,-2.66316 -2.08635,-6.02092 -4.27279,-6.93447 -1.23459,-0.51585 -1.62889,-1.42869 -1.95973,-4.53701 -0.28199,-2.64941 -0.51547,-2.96743 -1.56972,-2.13816 -1.30362,1.02543 -3.75285,1.47376 -6.71134,1.22851 -1.42802,-0.11838 -2.64569,-0.3573 -2.70593,-0.53093 -0.0602,-0.17363 -0.66451,-0.59883 -1.34284,-0.94488 -0.67832,-0.34606 -1.38508,-0.88221 -1.57056,-1.19145 -0.3029,-0.50498 -0.4366,-0.44201 -1.31256,0.61825 -0.75604,0.91509 -1.34993,1.26433 -2.64165,1.5534 -1.86096,0.41647 -3.99271,0.0418 -4.71519,-0.82874 -0.35336,-0.42577 -0.62286,-0.26365 -2.04924,1.23273 -0.9033,0.94764 -2.25881,2.13093 -3.012242,2.62952 -1.242144,0.82201 -1.69214,0.91982 -4.826185,1.04895 -2.96808,0.12228 -3.7432,0.0431 -5.487271,-0.56046 -2.050748,-0.7097 -4.283532,-2.14391 -5.708521,-3.66681 -0.426682,-0.456 -0.901715,-0.82909 -1.055635,-0.82909 -0.15392,0 -1.10082,0.5758 -2.104221,1.27956 -2.64336,1.854 -4.410381,2.11491 -7.104365,1.04901 -1.144,-0.45263 -2.184589,-0.99884 -2.312416,-1.2138 -0.12783,-0.21497 -0.68113,-0.57671 -1.229555,-0.80387 -1.258051,-0.5211 -1.668714,-0.0376 -1.40016,1.64848 0.223808,1.40516 -0.401133,3.0122 -1.60241,4.12062 -0.737197,0.68021 -1.174611,0.8 -2.921238,0.8 -1.129821,0 -2.054221,0.0904 -2.054221,0.20092 0,0.11051 0.212266,0.70895 0.471702,1.32986 0.412839,0.98806 0.414106,1.32289 0.01014,2.68315 -0.253852,0.85482 -0.836979,2.05638 -1.29584,2.67014 -1.761705,2.35642 -2.861654,5.60701 -2.435955,7.19876 0.221085,0.82666 3.124899,4.40811 6.049943,7.46176 0.924,0.96462 1.68,1.85612 1.68,1.98112 0,0.12498 0.612,0.63788 1.36,1.13977 0.748,0.50188 2.03783,1.52946 2.866291,2.28352 0.828461,0.75405 1.639456,1.371 1.802211,1.371 0.162755,0 0.996925,0.64745 1.853709,1.43877 0.856784,0.79132 1.845789,1.53105 2.197789,1.64384 0.352,0.11279 1.243923,0.6187 1.982048,1.12425 2.668572,1.82773 9.84942,5.0713 12.292313,5.5524 1.301101,0.25623 2.797639,0.60854 3.325639,0.7829 1.345785,0.44441 5.135932,0.0851 7.04,-0.66741 z m -12,-7.53202 c 0,-0.37604 4.442317,-2.09667 5.433334,-2.10447 1.825354,-0.0144 4.809536,0.4675 5.021767,0.8109 0.127638,0.20652 -0.463463,0.23424 -1.689383,0.0792 -3.398444,-0.42975 -4.685651,-0.32877 -6.765718,0.53078 -1.1,0.45455 -2,0.76216 -2,0.68358 z m 2.08,-7.90926 c -1.21495,-0.53341 -3.718141,-2.61082 -4.228659,-3.50939 -0.213767,-0.37624 -0.379629,-1.18808 -0.368586,-1.80408 l 0.02006,-1.12 0.37017,1.38365 c 0.453609,1.69554 3.291984,4.42574 4.918269,4.73083 2.870819,0.53857 4.577139,-0.82834 6.034892,-4.83448 0.210298,-0.57793 0.246007,-0.585 0.368192,-0.0729 0.07442,0.31191 -0.348896,1.44952 -0.940707,2.52802 -1.57095,2.86285 -3.689689,3.7889 -6.173648,2.69834 z M 72.673379,134.8766 c -2.086016,-0.58836 -2.978499,-1.03037 -3.992233,-1.97718 -1.679095,-1.56825 -1.795389,-1.73237 -1.770983,-2.49942 0.01738,-0.54626 0.06827,-0.52283 0.347459,0.16 0.685498,1.67658 2.929988,3.20209 5.922666,4.02546 3.834829,1.05506 5.470506,1.01339 7.858714,-0.20021 2.001824,-1.01725 3.01744,-1.10193 1.150736,-0.096 -3.085815,1.66298 -5.232797,1.79548 -9.516359,0.5873 z m 1.255671,-0.65079 c -1.803012,-0.5875 -4.973821,-3.62759 -5.283453,-5.06564 -0.441091,-2.0486 -0.535088,-4.3978 -0.212944,-5.3219 l 0.332368,-0.95343 -1.253613,0.63954 c -0.689488,0.35175 -1.750131,1.0755 -2.356989,1.60832 -0.615027,0.54001 -1.189609,0.82925 -1.298214,0.65352 -0.260999,-0.4223 1.302905,-2.12693 2.753456,-3.00123 0.643315,-0.38774 2.011315,-1.29685 3.04,-2.02023 2.364406,-1.66267 6.134208,-3.32617 7.523974,-3.3201 2.181299,0.01 4.816226,1.26371 6.630013,3.15581 1.07528,1.1217 0.877436,1.75725 -0.129427,0.98287 -0.08059,-0.062 -0.166372,-0.133 -0.257095,-0.21353 -2.299423,-2.04097 -5.726355,-3.54166 -4.376032,-1.9163 0.613597,0.73857 2.4112,3.59122 2.76416,4.38649 0.906698,2.04293 1.074746,2.69774 1.074746,4.1878 0,2.38729 -1.419741,4.97159 -3.251683,5.91893 -1.308135,0.67646 -4.065383,0.81148 -5.699267,0.27908 z m 5.56982,-0.90254 c 0.401117,-0.26282 1.065274,-1.17207 1.475904,-2.02056 1.349495,-2.78847 1.342407,-5.77014 -0.0185,-7.78271 -0.297529,-0.44 -1.087302,-1.62358 -1.755049,-2.63019 -0.667747,-1.0066 -1.337194,-1.7541 -1.487655,-1.66111 -0.150464,0.093 -0.273568,0.0274 -0.273568,-0.14588 0,-0.45919 -2.475104,-0.2094 -3.125635,0.31544 -0.304899,0.24599 -1.094365,0.72069 -1.754365,1.05489 -1.111148,0.56264 -1.2,0.71127 -1.2,2.00729 0,1.5416 -0.601734,2.07725 -1.619507,1.44164 -0.494819,-0.30902 -0.603696,-0.22704 -0.783065,0.58964 -0.114586,0.5217 -0.10465,1.91678 0.02208,3.10018 0.222777,2.08024 0.290192,2.21047 2.032041,3.92549 1.138397,1.12086 2.2704,1.91096 3.075037,2.14627 1.599517,0.46777 4.452752,0.28832 5.412285,-0.34039 z m -6.049606,-5.19972 c -0.393254,-0.39326 -0.486211,-0.96983 -0.38969,-2.41717 0.155645,-2.3339 0.65088,-2.97829 1.495165,-1.94548 0.885184,1.08285 1.138922,3.1264 0.507789,4.08963 -0.605843,0.92463 -0.91015,0.97613 -1.613264,0.27302 z m -2.550285,-5.53284 C 70.549261,122.02485 69.76,122.18836 69.76,122.82667 c 0,0.32266 0.09943,0.68609 0.220954,0.80761 0.32654,0.32655 1.171305,-0.63375 0.918025,-1.04357 z m 35.590811,10.67142 c -1.18262,-0.20214 -2.3741,-0.55333 -2.64774,-0.78043 -0.78863,-0.6545 -0.30619,-0.7509 0.64357,-0.12859 0.69224,0.45357 1.59213,0.56843 4.58777,0.58557 3.62363,0.0207 3.76641,-0.005 5.16661,-0.93868 2.57198,-1.71465 4.9329,-3.58272 6.22494,-4.92544 0.69572,-0.72301 1.4097,-1.31456 1.58663,-1.31456 0.92791,0 -4.31211,4.52568 -7.65157,6.60848 -1.89669,1.18295 -4.49816,1.47684 -7.91021,0.89365 z M 108.8,130.83792 c -1.55384,-0.25888 -1.95612,-0.49867 -3.43427,-2.04708 -2.28595,-2.39463 -2.96573,-3.8252 -2.96573,-6.24132 v -1.95597 l -0.85482,0.6724 c -0.54789,0.43097 -0.96546,0.56177 -1.16293,0.3643 -0.428932,-0.42893 3.49748,-4.80322 4.80747,-5.35585 2.13119,-0.89906 6.75987,-0.23986 11.26545,1.60437 1.13034,0.46268 2.22474,0.84123 2.43199,0.84123 0.20725,0 0.93842,0.40275 1.62483,0.895 0.6864,0.49225 1.71124,1.08374 2.2774,1.31443 1.25104,0.50974 1.90553,1.22365 1.49665,1.63253 -0.34091,0.34091 -3.9308,-1.26834 -4.58332,-2.05458 C 119.47112,120.22832 119.09415,120 118.865,120 c -0.22916,0 -1.49551,-0.432 -2.81413,-0.96 -2.9705,-1.18945 -3.44218,-1.2053 -2.37988,-0.08 1.45697,1.54338 2.68579,7.25192 1.79362,8.33236 -0.24872,0.3012 -0.65684,0.95579 -0.90694,1.45464 -0.955,1.90488 -2.81661,2.58093 -5.75767,2.09092 z m 2.8088,-0.77606 c 0.39116,-0.27398 0.7112,-0.41302 0.7112,-0.30897 0,0.10404 0.4417,-0.26267 0.98155,-0.81493 0.53985,-0.55226 0.90503,-1.2035 0.81151,-1.4472 -0.0935,-0.24369 -0.0174,-0.40881 0.16921,-0.36692 0.18658,0.0419 0.46475,-0.24784 0.61817,-0.64384 0.16018,-0.41346 0.15871,-0.72 -0.003,-0.72 -0.15531,0 -0.35223,-0.9 -0.43759,-2 -0.24595,-3.16957 -0.44686,-3.87343 -1.31999,-4.62447 -0.45067,-0.38766 -0.81941,-0.83101 -0.81941,-0.98522 0,-0.34388 -2.86259,-1.03031 -4.29666,-1.03031 -1.56866,0 -3.0584,0.60052 -2.84826,1.14815 0.11616,0.30269 0.0209,0.39951 -0.27964,0.28419 -0.2507,-0.0962 -0.72105,0.11817 -1.04523,0.47637 -0.32417,0.35821 -0.47745,0.65129 -0.34062,0.65129 0.13682,0 0.075,0.20943 -0.13747,0.4654 -0.3487,0.42015 -0.44854,1.54985 -0.36207,4.09672 0.0175,0.51458 0.36327,1.17193 0.82995,1.5777 0.44,0.38258 0.8,0.81253 0.8,0.95545 0,0.29851 1.09434,1.65339 2.18645,2.70701 1.14992,1.10939 3.60171,1.40652 4.78235,0.57958 z m -3.71743,-6.39692 c -0.85861,-1.88444 -0.37467,-3.05451 1.03899,-2.51204 0.54701,0.20992 1.29803,2.50812 0.98508,3.01448 -0.39325,0.6363 -1.64704,0.32507 -2.02407,-0.50244 z m -2.58611,-4.17161 c 0.0154,-0.37278 0.0912,-0.4486 0.19334,-0.19333 0.0924,0.231 0.0811,0.507 -0.0252,0.61333 -0.10634,0.10634 -0.18197,-0.0827 -0.16807,-0.42 z"
         id="outline" />
    </g>
  </g>
</svg>
